<?xml version="1.0" encoding="UTF-8" standalone="no"?>
<!DOCTYPE svg PUBLIC "-//W3C//DTD SVG 1.1//EN"
 "http://www.w3.org/Graphics/SVG/1.1/DTD/svg11.dtd">
<!-- Generated by graphviz version 2.38.0 (20140413.2041)
 -->
<!-- Title: Current module groupings Pages: 1 -->
<svg width="7219pt" height="830pt"
 viewBox="0.00 0.00 7219.00 830.35" xmlns="http://www.w3.org/2000/svg" xmlns:xlink="http://www.w3.org/1999/xlink">
<g id="graph0" class="graph" transform="scale(1 1) rotate(0) translate(4 826.348)">
<title>Current module groupings</title>
<polygon fill="white" stroke="none" points="-4,4 -4,-826.348 7215,-826.348 7215,4 -4,4"/>
<g id="clust1" class="cluster"><title>cluster_Thentos&#45;Adhocracy3</title>
<polygon fill="lavender" stroke="black" points="1376,-731.152 1376,-806.152 1506,-806.152 1506,-731.152 1376,-731.152"/>
<text text-anchor="middle" x="1441" y="-790.952" font-family="Times,serif" font-size="14.00">Thentos.Adhocracy3</text>
</g>
<g id="clust2" class="cluster"><title>cluster_Thentos&#45;Adhocracy3&#45;Backend&#45;Api&#45;Simple</title>
<polygon fill="lavender" stroke="black" points="8,-8 8,-714.956 4813,-714.956 4813,-8 8,-8"/>
<text text-anchor="middle" x="2410.5" y="-699.756" font-family="Times,serif" font-size="14.00">Thentos.Adhocracy3.Backend.Api.Simple</text>
</g>
<g id="clust3" class="cluster"><title>cluster_Thentos&#45;Adhocracy3&#45;Backend&#45;Core</title>
<polygon fill="lavender" stroke="black" points="6718,-84.1956 6718,-414.369 7203,-414.369 7203,-84.1956 6718,-84.1956"/>
<text text-anchor="middle" x="6960.5" y="-399.169" font-family="Times,serif" font-size="14.00">Thentos.Adhocracy3.Backend.Core</text>
</g>
<g id="clust4" class="cluster"><title>cluster_Thentos&#45;Adhocracy3&#45;Types</title>
<polygon fill="lavender" stroke="black" points="4853,-8 4853,-163.391 6710,-163.391 6710,-8 4853,-8"/>
<text text-anchor="middle" x="5781.5" y="-148.191" font-family="Times,serif" font-size="14.00">Thentos.Adhocracy3.Types</text>
</g>
<g id="clust5" class="cluster"><title>cluster_Data&#45;Aeson</title>
<polygon fill="lavender" stroke="black" points="4890,-722.956 4890,-814.348 5400,-814.348 5400,-722.956 4890,-722.956"/>
<text text-anchor="middle" x="5145" y="-799.148" font-family="Times,serif" font-size="14.00">Data.Aeson</text>
</g>
<g id="clust6" class="cluster"><title>cluster_Thentos&#45;Backend&#45;Api&#45;Docs&#45;Common</title>
<polygon fill="lavender" stroke="black" points="1837,-722.956 1837,-814.348 2125,-814.348 2125,-722.956 1837,-722.956"/>
<text text-anchor="middle" x="1981" y="-799.148" font-family="Times,serif" font-size="14.00">Thentos.Backend.Api.Docs.Common</text>
</g>
<g id="clust7" class="cluster"><title>cluster_Unknown Module</title>
<polygon fill="lavender" stroke="black" points="4821,-243.783 4821,-335.174 5511,-335.174 5511,-243.783 4821,-243.783"/>
<text text-anchor="middle" x="5166" y="-319.974" font-family="Times,serif" font-size="14.00">Unknown Module</text>
</g>
<!-- 1 -->
<g id="node1" class="node"><title>1</title>
<polygon fill="gold" stroke="black" points="1484,-775.152 1398,-775.152 1398,-739.152 1484,-739.152 1484,-775.152"/>
<text text-anchor="middle" x="1441" y="-753.452" font-family="Times,serif" font-size="14.00">main</text>
</g>
<!-- 62 -->
<g id="node48" class="node"><title>62</title>
<polygon fill="bisque" stroke="black" points="1503,-679.761 1379,-679.761 1379,-643.761 1503,-643.761 1503,-679.761"/>
<text text-anchor="middle" x="1441" y="-658.061" font-family="Times,serif" font-size="14.00">runBackend</text>
</g>
<!-- 1&#45;&gt;62 -->
<g id="edge1" class="edge"><title>1&#45;&gt;62</title>
<path fill="none" stroke="chartreuse" d="M1441,-739.023C1441,-725.331 1441,-705.879 1441,-690.048"/>
<polygon fill="chartreuse" stroke="chartreuse" points="1444.5,-689.782 1441,-679.782 1437.5,-689.782 1444.5,-689.782"/>
</g>
<!-- 2 -->
<g id="node2" class="node"><title>2</title>
<polygon fill="cyan" stroke="black" points="2859,-603.565 2705,-603.565 2701,-599.565 2701,-567.565 2855,-567.565 2859,-571.565 2859,-603.565"/>
<polyline fill="none" stroke="black" points="2855,-599.565 2701,-599.565 "/>
<polyline fill="none" stroke="black" points="2855,-599.565 2855,-567.565 "/>
<polyline fill="none" stroke="black" points="2855,-599.565 2859,-603.565 "/>
<text text-anchor="middle" x="2780" y="-581.865" font-family="Times,serif" font-size="14.00">Data: A3Resource</text>
</g>
<!-- 3 -->
<g id="node3" class="node"><title>3</title>
<polygon fill="cyan" stroke="black" points="1885,-211.587 1715,-211.587 1711,-207.587 1711,-175.587 1881,-175.587 1885,-179.587 1885,-211.587"/>
<polyline fill="none" stroke="black" points="1881,-207.587 1711,-207.587 "/>
<polyline fill="none" stroke="black" points="1881,-207.587 1881,-175.587 "/>
<polyline fill="none" stroke="black" points="1881,-207.587 1885,-211.587 "/>
<text text-anchor="middle" x="1798" y="-189.887" font-family="Times,serif" font-size="14.00">Data: A3UserNoPass</text>
</g>
<!-- 4 -->
<g id="node4" class="node"><title>4</title>
<polygon fill="cyan" stroke="black" points="1317.5,-52 1136.5,-52 1132.5,-48 1132.5,-16 1313.5,-16 1317.5,-20 1317.5,-52"/>
<polyline fill="none" stroke="black" points="1313.5,-48 1132.5,-48 "/>
<polyline fill="none" stroke="black" points="1313.5,-48 1313.5,-16 "/>
<polyline fill="none" stroke="black" points="1313.5,-48 1317.5,-52 "/>
<text text-anchor="middle" x="1225" y="-30.3" font-family="Times,serif" font-size="14.00">Data: A3UserWithPass</text>
</g>
<!-- 5 -->
<g id="node5" class="node"><title>5</title>
<polygon fill="cyan" stroke="black" points="1436,-295.978 1248,-295.978 1244,-291.978 1244,-259.978 1432,-259.978 1436,-263.978 1436,-295.978"/>
<polyline fill="none" stroke="black" points="1432,-291.978 1244,-291.978 "/>
<polyline fill="none" stroke="black" points="1432,-291.978 1432,-259.978 "/>
<polyline fill="none" stroke="black" points="1432,-291.978 1436,-295.978 "/>
<text text-anchor="middle" x="1340" y="-274.278" font-family="Times,serif" font-size="14.00">Data: ActivationRequest</text>
</g>
<!-- 6 -->
<g id="node6" class="node"><title>6</title>
<polygon fill="cyan" stroke="black" points="2735,-128.196 2577,-128.196 2573,-124.196 2573,-92.1956 2731,-92.1956 2735,-96.1956 2735,-128.196"/>
<polyline fill="none" stroke="black" points="2731,-124.196 2573,-124.196 "/>
<polyline fill="none" stroke="black" points="2731,-124.196 2731,-92.1956 "/>
<polyline fill="none" stroke="black" points="2731,-124.196 2735,-128.196 "/>
<text text-anchor="middle" x="2654" y="-106.496" font-family="Times,serif" font-size="14.00">Data: ContentType</text>
</g>
<!-- 7 -->
<g id="node7" class="node"><title>7</title>
<polygon fill="cyan" stroke="black" points="1621.5,-295.978 1458.5,-295.978 1454.5,-291.978 1454.5,-259.978 1617.5,-259.978 1621.5,-263.978 1621.5,-295.978"/>
<polyline fill="none" stroke="black" points="1617.5,-291.978 1454.5,-291.978 "/>
<polyline fill="none" stroke="black" points="1617.5,-291.978 1617.5,-259.978 "/>
<polyline fill="none" stroke="black" points="1617.5,-291.978 1621.5,-295.978 "/>
<text text-anchor="middle" x="1538" y="-274.278" font-family="Times,serif" font-size="14.00">Data: LoginRequest</text>
</g>
<!-- 9 -->
<g id="node8" class="node"><title>9</title>
<polygon fill="cyan" stroke="black" points="3515,-128.196 3351,-128.196 3347,-124.196 3347,-92.1956 3511,-92.1956 3515,-96.1956 3515,-128.196"/>
<polyline fill="none" stroke="black" points="3511,-124.196 3347,-124.196 "/>
<polyline fill="none" stroke="black" points="3511,-124.196 3511,-92.1956 "/>
<polyline fill="none" stroke="black" points="3511,-124.196 3515,-128.196 "/>
<text text-anchor="middle" x="3431" y="-106.496" font-family="Times,serif" font-size="14.00">Data: PropertySheet</text>
</g>
<!-- 12 -->
<g id="node9" class="node"><title>12</title>
<polygon fill="cyan" stroke="black" points="1652.5,-128.196 1439.5,-128.196 1435.5,-124.196 1435.5,-92.1956 1648.5,-92.1956 1652.5,-96.1956 1652.5,-128.196"/>
<polyline fill="none" stroke="black" points="1648.5,-124.196 1435.5,-124.196 "/>
<polyline fill="none" stroke="black" points="1648.5,-124.196 1648.5,-92.1956 "/>
<polyline fill="none" stroke="black" points="1648.5,-124.196 1652.5,-128.196 "/>
<text text-anchor="middle" x="1544" y="-106.496" font-family="Times,serif" font-size="14.00">Data: PasswordResetRequest</text>
</g>
<!-- 13 -->
<g id="node10" class="node"><title>13</title>
<polygon fill="cyan" stroke="black" points="716,-128.196 604,-128.196 600,-124.196 600,-92.1956 712,-92.1956 716,-96.1956 716,-128.196"/>
<polyline fill="none" stroke="black" points="712,-124.196 600,-124.196 "/>
<polyline fill="none" stroke="black" points="712,-124.196 712,-92.1956 "/>
<polyline fill="none" stroke="black" points="712,-124.196 716,-128.196 "/>
<text text-anchor="middle" x="658" y="-106.496" font-family="Times,serif" font-size="14.00">Data: Path</text>
</g>
<!-- 14 -->
<g id="node11" class="node"><title>14</title>
<polygon fill="cyan" stroke="black" points="596,-211.587 430,-211.587 426,-207.587 426,-175.587 592,-175.587 596,-179.587 596,-211.587"/>
<polyline fill="none" stroke="black" points="592,-207.587 426,-207.587 "/>
<polyline fill="none" stroke="black" points="592,-207.587 592,-175.587 "/>
<polyline fill="none" stroke="black" points="592,-207.587 596,-211.587 "/>
<text text-anchor="middle" x="511" y="-189.887" font-family="Times,serif" font-size="14.00">Data: RequestResult</text>
</g>
<!-- 16 -->
<g id="node12" class="node"><title>16</title>
<polygon fill="cyan" stroke="black" points="1767,-52 1621,-52 1617,-48 1617,-16 1763,-16 1767,-20 1767,-52"/>
<polyline fill="none" stroke="black" points="1763,-48 1617,-48 "/>
<polyline fill="none" stroke="black" points="1763,-48 1763,-16 "/>
<polyline fill="none" stroke="black" points="1763,-48 1767,-52 "/>
<text text-anchor="middle" x="1692" y="-30.3" font-family="Times,serif" font-size="14.00">Data: TypedPath</text>
</g>
<!-- 17 -->
<g id="node13" class="node"><title>17</title>
<polygon fill="cyan" stroke="black" points="1531.5,-211.587 1282.5,-211.587 1278.5,-207.587 1278.5,-175.587 1527.5,-175.587 1531.5,-179.587 1531.5,-211.587"/>
<polyline fill="none" stroke="black" points="1527.5,-207.587 1278.5,-207.587 "/>
<polyline fill="none" stroke="black" points="1527.5,-207.587 1527.5,-175.587 "/>
<polyline fill="none" stroke="black" points="1527.5,-207.587 1531.5,-211.587 "/>
<text text-anchor="middle" x="1405" y="-189.887" font-family="Times,serif" font-size="14.00">Data: TypedPathWithCacheControl</text>
</g>
<!-- 18 -->
<g id="node14" class="node"><title>18</title>
<polygon fill="bisque" stroke="black" points="1307.5,-459.565 1160.5,-459.565 1160.5,-423.565 1307.5,-423.565 1307.5,-459.565"/>
<text text-anchor="middle" x="1234" y="-437.865" font-family="Times,serif" font-size="14.00">a3ProxyAdapter</text>
</g>
<!-- 19 -->
<g id="node15" class="node"><title>19</title>
<polygon fill="bisque" stroke="black" points="1302,-383.369 1166,-383.369 1166,-347.369 1302,-347.369 1302,-383.369"/>
<text text-anchor="middle" x="1234" y="-361.669" font-family="Times,serif" font-size="14.00">a3RenderUser</text>
</g>
<!-- 18&#45;&gt;19 -->
<g id="edge2" class="edge"><title>18&#45;&gt;19</title>
<path fill="none" stroke="black" d="M1234,-423.357C1234,-414.554 1234,-403.63 1234,-393.709"/>
<polygon fill="black" stroke="black" points="1237.5,-393.485 1234,-383.485 1230.5,-393.485 1237.5,-393.485"/>
</g>
<!-- 59 -->
<g id="node45" class="node"><title>59</title>
<polygon fill="cyan" stroke="black" points="1148,-383.369 966,-383.369 966,-347.369 1148,-347.369 1148,-383.369"/>
<text text-anchor="middle" x="1057" y="-361.669" font-family="Times,serif" font-size="14.00">renderA3HeaderName</text>
</g>
<!-- 18&#45;&gt;59 -->
<g id="edge3" class="edge"><title>18&#45;&gt;59</title>
<path fill="none" stroke="black" d="M1181.09,-423.498C1172.96,-420.609 1164.71,-417.519 1157,-414.369 1137.75,-406.506 1116.94,-396.735 1099.32,-388.064"/>
<polygon fill="black" stroke="black" points="1100.4,-384.693 1089.89,-383.38 1097.28,-390.963 1100.4,-384.693"/>
</g>
<!-- 91 -->
<g id="node70" class="node"><title>91</title>
<polygon fill="bisque" stroke="black" points="6936,-383.369 6726,-383.369 6726,-347.369 6936,-347.369 6936,-383.369"/>
<text text-anchor="middle" x="6831" y="-361.669" font-family="Times,serif" font-size="14.00">a3ActionErrorToServantErr</text>
</g>
<!-- 18&#45;&gt;91 -->
<g id="edge4" class="edge"><title>18&#45;&gt;91</title>
<path fill="none" stroke="black" d="M1307.78,-440.478C1681.81,-439.943 3405.86,-436.342 4817,-414.369 5539.47,-403.12 6407.48,-378.767 6715.63,-369.786"/>
<polygon fill="black" stroke="black" points="6716.02,-373.276 6725.91,-369.486 6715.81,-366.279 6716.02,-373.276"/>
</g>
<!-- 29 -->
<g id="node25" class="node"><title>29</title>
<polygon fill="bisque" stroke="black" points="1226,-295.978 1008,-295.978 1008,-259.978 1226,-259.978 1226,-295.978"/>
<text text-anchor="middle" x="1117" y="-274.278" font-family="Times,serif" font-size="14.00">externalUrlOfDefaultPersona</text>
</g>
<!-- 19&#45;&gt;29 -->
<g id="edge5" class="edge"><title>19&#45;&gt;29</title>
<path fill="none" stroke="black" d="M1210.6,-347.295C1192.83,-334.321 1168.19,-316.34 1148.65,-302.081"/>
<polygon fill="black" stroke="black" points="1150.5,-299.092 1140.35,-296.024 1146.37,-304.746 1150.5,-299.092"/>
</g>
<!-- 20 -->
<g id="node16" class="node"><title>20</title>
<polygon fill="cyan" stroke="black" points="1672.5,-211.587 1549.5,-211.587 1549.5,-175.587 1672.5,-175.587 1672.5,-211.587"/>
<text text-anchor="middle" x="1611" y="-189.887" font-family="Times,serif" font-size="14.00">a3ServiceId</text>
</g>
<!-- 21 -->
<g id="node17" class="node"><title>21</title>
<polygon fill="bisque" stroke="black" points="4805.5,-211.587 4646.5,-211.587 4646.5,-175.587 4805.5,-175.587 4805.5,-211.587"/>
<text text-anchor="middle" x="4726" y="-189.887" font-family="Times,serif" font-size="14.00">a3UserFromJSON</text>
</g>
<!-- 21&#45;&gt;6 -->
<g id="edge6" class="edge"><title>21&#45;&gt;6</title>
<path fill="none" stroke="black" d="M4662.15,-175.543C4653.74,-173.841 4645.2,-172.38 4637,-171.391 4565.35,-162.753 3410.11,-166.361 3338,-163.391 3125.33,-154.633 2876.24,-132.665 2745.23,-120.199"/>
<polygon fill="black" stroke="black" points="2745.52,-116.711 2735.23,-119.245 2744.85,-123.68 2745.52,-116.711"/>
</g>
<!-- 21&#45;&gt;9 -->
<g id="edge7" class="edge"><title>21&#45;&gt;9</title>
<path fill="none" stroke="black" stroke-width="2.09861" d="M4662.14,-175.551C4653.74,-173.848 4645.2,-172.384 4637,-171.391 4575.61,-163.959 3583.77,-179.247 3524,-163.391 3501.9,-157.529 3479.49,-145.179 3462.2,-133.964"/>
<polygon fill="black" stroke="black" stroke-width="2.09861" points="3463.91,-130.898 3453.66,-128.242 3460.02,-136.715 3463.91,-130.898"/>
</g>
<!-- 31 -->
<g id="node27" class="node"><title>31</title>
<polygon fill="cyan" stroke="black" points="3843,-128.196 3721,-128.196 3721,-92.1956 3843,-92.1956 3843,-128.196"/>
<text text-anchor="middle" x="3782" y="-106.496" font-family="Times,serif" font-size="14.00">failOnError</text>
</g>
<!-- 21&#45;&gt;31 -->
<g id="edge8" class="edge"><title>21&#45;&gt;31</title>
<path fill="none" stroke="black" stroke-width="1.69315" d="M4662.14,-175.574C4653.74,-173.868 4645.2,-172.396 4637,-171.391 4593.71,-166.084 3893.32,-177.336 3852,-163.391 3835.03,-157.666 3818.82,-146.111 3806.28,-135.325"/>
<polygon fill="black" stroke="black" stroke-width="1.69315" points="3808.37,-132.501 3798.59,-128.418 3803.69,-137.706 3808.37,-132.501"/>
</g>
<!-- 56 -->
<g id="node42" class="node"><title>56</title>
<polygon fill="cyan" stroke="black" points="3703,-128.196 3533,-128.196 3533,-92.1956 3703,-92.1956 3703,-128.196"/>
<text text-anchor="middle" x="3618" y="-106.496" font-family="Times,serif" font-size="14.00">passwordAcceptable</text>
</g>
<!-- 21&#45;&gt;56 -->
<g id="edge9" class="edge"><title>21&#45;&gt;56</title>
<path fill="none" stroke="black" d="M4662.14,-175.562C4653.74,-173.858 4645.2,-172.39 4637,-171.391 4585.99,-165.177 3761.69,-176.492 3712,-163.391 3689.71,-157.516 3667.06,-145.165 3649.57,-133.953"/>
<polygon fill="black" stroke="black" points="3651.2,-130.833 3640.93,-128.233 3647.34,-136.671 3651.2,-130.833"/>
</g>
<!-- 90 -->
<g id="node69" class="node"><title>90</title>
<polygon fill="bisque" stroke="black" points="4005,-128.196 3861,-128.196 3861,-92.1956 4005,-92.1956 4005,-128.196"/>
<text text-anchor="middle" x="3933" y="-106.496" font-family="Times,serif" font-size="14.00">userNameValid</text>
</g>
<!-- 21&#45;&gt;90 -->
<g id="edge10" class="edge"><title>21&#45;&gt;90</title>
<path fill="none" stroke="black" d="M4661.65,-175.497C4653.41,-173.828 4645.04,-172.388 4637,-171.391 4602.65,-167.134 4047.14,-173.376 4014,-163.391 3994.72,-157.582 3975.66,-145.695 3960.88,-134.731"/>
<polygon fill="black" stroke="black" points="3962.76,-131.762 3952.7,-128.435 3958.49,-137.309 3962.76,-131.762"/>
</g>
<!-- 123 -->
<g id="node88" class="node"><title>123</title>
<polygon fill="khaki" stroke="black" stroke-dasharray="1,5" points="5284.38,-268.715 5284.38,-287.241 5227.92,-300.341 5148.08,-300.341 5091.62,-287.241 5091.62,-268.715 5148.08,-255.616 5227.92,-255.616 5284.38,-268.715"/>
<polygon fill="none" stroke="black" stroke-dasharray="1,5" points="5288.37,-265.507 5288.37,-290.449 5228.37,-304.371 5147.63,-304.371 5087.63,-290.449 5087.63,-265.507 5147.63,-251.585 5228.37,-251.585 5288.37,-265.507"/>
<text text-anchor="middle" x="5188" y="-274.278" font-family="Times,serif" font-size="14.00">Class: Show</text>
</g>
<!-- 21&#45;&gt;123 -->
<g id="edge11" class="edge"><title>21&#45;&gt;123</title>
<path fill="none" stroke="black" d="M4805.61,-202.169C4877.36,-209.841 4985.48,-223.485 5078,-243.783 5090.58,-246.542 5103.8,-250.02 5116.55,-253.679"/>
<polygon fill="black" stroke="black" points="5115.61,-257.05 5126.19,-256.504 5117.58,-250.333 5115.61,-257.05"/>
</g>
<!-- 22 -->
<g id="node18" class="node"><title>22</title>
<polygon fill="bisque" stroke="black" points="2435,-211.587 2291,-211.587 2291,-175.587 2435,-175.587 2435,-211.587"/>
<text text-anchor="middle" x="2363" y="-189.887" font-family="Times,serif" font-size="14.00">a3UserToJSON</text>
</g>
<!-- 22&#45;&gt;6 -->
<g id="edge12" class="edge"><title>22&#45;&gt;6</title>
<path fill="none" stroke="black" d="M2424,-175.525C2470.47,-162.529 2534.52,-144.612 2583.24,-130.987"/>
<polygon fill="black" stroke="black" points="2584.39,-134.3 2593.08,-128.235 2582.5,-127.558 2584.39,-134.3"/>
</g>
<!-- 22&#45;&gt;9 -->
<g id="edge13" class="edge"><title>22&#45;&gt;9</title>
<path fill="none" stroke="black" stroke-width="2.09861" d="M2421.96,-175.489C2429.33,-173.847 2436.8,-172.415 2444,-171.391 2510.03,-161.999 2677.4,-166.807 2744,-163.391 2956.04,-152.516 3204.31,-131.628 3336.64,-119.841"/>
<polygon fill="black" stroke="black" stroke-width="2.09861" points="3337.09,-123.315 3346.74,-118.939 3336.47,-116.343 3337.09,-123.315"/>
</g>
<!-- 23 -->
<g id="node19" class="node"><title>23</title>
<polygon fill="bisque" stroke="black" points="388,-211.587 248,-211.587 248,-175.587 388,-175.587 388,-211.587"/>
<text text-anchor="middle" x="318" y="-189.887" font-family="Times,serif" font-size="14.00">a3backendPath</text>
</g>
<!-- 23&#45;&gt;13 -->
<g id="edge14" class="edge"><title>23&#45;&gt;13</title>
<path fill="none" stroke="black" d="M379.641,-175.51C387.129,-173.888 394.707,-172.455 402,-171.391 443.378,-165.356 550.699,-177.674 590,-163.391 606.522,-157.386 622.275,-145.81 634.451,-135.082"/>
<polygon fill="black" stroke="black" points="636.918,-137.569 641.908,-128.222 632.178,-132.417 636.918,-137.569"/>
</g>
<!-- 24 -->
<g id="node20" class="node"><title>24</title>
<polygon fill="cyan" stroke="black" points="1476,-531.565 1348,-531.565 1348,-495.565 1476,-495.565 1476,-531.565"/>
<text text-anchor="middle" x="1412" y="-509.865" font-family="Times,serif" font-size="14.00">a3corsPolicy</text>
</g>
<!-- 25 -->
<g id="node21" class="node"><title>25</title>
<polygon fill="bisque" stroke="black" points="748.5,-383.369 647.5,-383.369 647.5,-347.369 748.5,-347.369 748.5,-383.369"/>
<text text-anchor="middle" x="698" y="-361.669" font-family="Times,serif" font-size="14.00">activate</text>
</g>
<!-- 25&#45;&gt;5 -->
<g id="edge15" class="edge"><title>25&#45;&gt;5</title>
<path fill="none" stroke="black" d="M748.574,-349.911C760.124,-347.167 772.411,-344.685 784,-343.174 833.698,-336.692 1186.5,-347.795 1235,-335.174 1260.85,-328.446 1287.36,-314.194 1307.27,-301.727"/>
<polygon fill="black" stroke="black" points="1309.41,-304.511 1315.93,-296.157 1305.63,-298.623 1309.41,-304.511"/>
</g>
<!-- 25&#45;&gt;13 -->
<g id="edge16" class="edge"><title>25&#45;&gt;13</title>
<path fill="none" stroke="black" d="M647.237,-364.007C496.696,-362.685 61.8649,-356.987 41,-335.174 12.9233,-305.822 15.2922,-275.23 41,-243.783 80.6095,-195.329 132.055,-257.169 179,-215.783 194.621,-202.011 177.204,-183.704 194,-171.391 211.747,-158.382 569.236,-170.676 590,-163.391 606.589,-157.571 622.346,-146.009 634.508,-135.243"/>
<polygon fill="black" stroke="black" points="636.992,-137.713 641.954,-128.352 632.237,-132.576 636.992,-137.713"/>
</g>
<!-- 25&#45;&gt;14 -->
<g id="edge17" class="edge"><title>25&#45;&gt;14</title>
<path fill="none" stroke="black" d="M691.897,-347.138C690.565,-343.22 689.198,-339.066 688,-335.174 675.616,-294.925 692.084,-274.236 663,-243.783 652.803,-233.105 624.798,-222.8 595.561,-214.404"/>
<polygon fill="black" stroke="black" points="596.195,-210.948 585.622,-211.632 594.314,-217.69 596.195,-210.948"/>
</g>
<!-- 25&#45;&gt;20 -->
<g id="edge18" class="edge"><title>25&#45;&gt;20</title>
<path fill="none" stroke="black" d="M748.601,-350.11C760.15,-347.357 772.43,-344.82 784,-343.174 794.734,-341.647 970.695,-342.144 979,-335.174 1010.85,-308.446 967.293,-270.681 999,-243.783 1044.9,-204.844 1480.69,-226.02 1540,-215.783 1543.01,-215.263 1546.07,-214.658 1549.15,-213.987"/>
<polygon fill="black" stroke="black" points="1550.07,-217.365 1558.99,-211.647 1548.45,-210.555 1550.07,-217.365"/>
</g>
<!-- 44 -->
<g id="node30" class="node"><title>44</title>
<polygon fill="bisque" stroke="black" points="202,-295.978 50,-295.978 50,-259.978 202,-259.978 202,-295.978"/>
<text text-anchor="middle" x="126" y="-274.278" font-family="Times,serif" font-size="14.00">makeExternalUrl</text>
</g>
<!-- 25&#45;&gt;44 -->
<g id="edge19" class="edge"><title>25&#45;&gt;44</title>
<path fill="none" stroke="black" d="M647.161,-364.443C540.158,-364.087 295.056,-360.44 216,-335.174 193.886,-328.106 171.733,-314.378 154.938,-302.259"/>
<polygon fill="black" stroke="black" points="156.786,-299.272 146.673,-296.113 152.609,-304.889 156.786,-299.272"/>
</g>
<!-- 26 -->
<g id="node22" class="node"><title>26</title>
<polygon fill="bisque" stroke="black" points="970,-295.978 866,-295.978 866,-259.978 970,-259.978 970,-295.978"/>
<text text-anchor="middle" x="918" y="-274.278" font-family="Times,serif" font-size="14.00">addUser</text>
</g>
<!-- 26&#45;&gt;3 -->
<g id="edge20" class="edge"><title>26&#45;&gt;3</title>
<path fill="none" stroke="black" d="M952.232,-259.858C966.356,-253.62 983.113,-247.252 999,-243.783 1147.19,-211.423 1530.24,-232.453 1681,-215.783 1687.69,-215.043 1694.57,-214.149 1701.48,-213.151"/>
<polygon fill="black" stroke="black" points="1702.26,-216.573 1711.62,-211.62 1701.21,-209.652 1702.26,-216.573"/>
</g>
<!-- 26&#45;&gt;4 -->
<g id="edge21" class="edge"><title>26&#45;&gt;4</title>
<path fill="none" stroke="black" d="M928.751,-259.707C943.215,-237.42 970.653,-198.319 1001,-171.391 1056.4,-122.238 1131.83,-80.4849 1179.47,-56.5714"/>
<polygon fill="black" stroke="black" points="1181.21,-59.6128 1188.61,-52.0297 1178.1,-53.3435 1181.21,-59.6128"/>
</g>
<!-- 26&#45;&gt;6 -->
<g id="edge22" class="edge"><title>26&#45;&gt;6</title>
<path fill="none" stroke="black" d="M942.168,-259.85C951.926,-253.769 963.569,-247.514 975,-243.783 1032.13,-225.132 1193.75,-248.76 1244,-215.783 1262.93,-203.358 1249.56,-183.009 1269,-171.391 1278.73,-165.575 1665.67,-163.805 1677,-163.391 2003.21,-151.483 2390.21,-128.04 2562.92,-117.091"/>
<polygon fill="black" stroke="black" points="2563.22,-120.579 2572.98,-116.452 2562.78,-113.593 2563.22,-120.579"/>
</g>
<!-- 26&#45;&gt;16 -->
<g id="edge23" class="edge"><title>26&#45;&gt;16</title>
<path fill="none" stroke="black" d="M942.181,-259.888C951.941,-253.813 963.582,-247.551 975,-243.783 1028.72,-226.054 1183.58,-250.8 1228,-215.783 1244.47,-202.8 1226.96,-183.611 1244,-171.391 1262.83,-157.89 1642.93,-177.898 1661,-163.391 1676.49,-150.955 1685.21,-96.5479 1689.23,-62.6742"/>
<polygon fill="black" stroke="black" points="1692.74,-62.8045 1690.37,-52.4769 1685.78,-62.0249 1692.74,-62.8045"/>
</g>
<!-- 26&#45;&gt;17 -->
<g id="edge24" class="edge"><title>26&#45;&gt;17</title>
<path fill="none" stroke="black" d="M946.301,-259.878C957.641,-253.801 971.068,-247.541 984,-243.783 1104.1,-208.879 1139.9,-231.305 1264,-215.783 1271.01,-214.906 1278.21,-213.961 1285.46,-212.975"/>
<polygon fill="black" stroke="black" points="1285.96,-216.44 1295.38,-211.607 1285,-209.506 1285.96,-216.44"/>
</g>
<!-- 26&#45;&gt;23 -->
<g id="edge25" class="edge"><title>26&#45;&gt;23</title>
<path fill="none" stroke="black" d="M892.658,-259.968C882.085,-253.746 869.395,-247.36 857,-243.783 668.732,-189.449 611.109,-242.589 417,-215.783 410.83,-214.93 404.471,-213.908 398.093,-212.779"/>
<polygon fill="black" stroke="black" points="398.551,-209.304 388.081,-210.926 397.277,-216.187 398.551,-209.304"/>
</g>
<!-- 64 -->
<g id="node50" class="node"><title>64</title>
<polygon fill="cyan" stroke="black" points="1219.5,-211.587 1010.5,-211.587 1010.5,-175.587 1219.5,-175.587 1219.5,-211.587"/>
<text text-anchor="middle" x="1115" y="-189.887" font-family="Times,serif" font-size="14.00">sendUserConfirmationMail</text>
</g>
<!-- 26&#45;&gt;64 -->
<g id="edge26" class="edge"><title>26&#45;&gt;64</title>
<path fill="none" stroke="black" d="M950.234,-259.902C960.871,-254.5 972.838,-248.669 984,-243.783 1007.37,-233.553 1033.6,-223.439 1056.43,-215.066"/>
<polygon fill="black" stroke="black" points="1057.78,-218.298 1065.98,-211.589 1055.38,-211.721 1057.78,-218.298"/>
</g>
<!-- 27 -->
<g id="node23" class="node"><title>27</title>
<polygon fill="bisque" stroke="black" points="1271.5,-531.565 1196.5,-531.565 1196.5,-495.565 1271.5,-495.565 1271.5,-531.565"/>
<text text-anchor="middle" x="1234" y="-509.865" font-family="Times,serif" font-size="14.00">api</text>
</g>
<!-- 27&#45;&gt;18 -->
<g id="edge27" class="edge"><title>27&#45;&gt;18</title>
<path fill="none" stroke="black" d="M1234,-495.262C1234,-487.548 1234,-478.278 1234,-469.678"/>
<polygon fill="black" stroke="black" points="1237.5,-469.669 1234,-459.669 1230.5,-469.669 1237.5,-469.669"/>
</g>
<!-- 68 -->
<g id="node54" class="node"><title>68</title>
<polygon fill="bisque" stroke="black" points="967,-459.565 849,-459.565 849,-423.565 967,-423.565 967,-459.565"/>
<text text-anchor="middle" x="908" y="-437.865" font-family="Times,serif" font-size="14.00">thentosApi</text>
</g>
<!-- 27&#45;&gt;68 -->
<g id="edge28" class="edge"><title>27&#45;&gt;68</title>
<path fill="none" stroke="black" d="M1196.29,-504.467C1142.8,-492.982 1044,-471.767 977.142,-457.412"/>
<polygon fill="black" stroke="black" points="977.622,-453.935 967.11,-455.257 976.152,-460.779 977.622,-453.935"/>
</g>
<!-- 28 -->
<g id="node24" class="node"><title>28</title>
<polygon fill="bisque" stroke="black" points="170,-211.587 16,-211.587 16,-175.587 170,-175.587 170,-211.587"/>
<text text-anchor="middle" x="93" y="-189.887" font-family="Times,serif" font-size="14.00">createUserInA3&#39;P</text>
</g>
<!-- 30 -->
<g id="node26" class="node"><title>30</title>
<polygon fill="bisque" stroke="black" points="436.5,-128.196 291.5,-128.196 291.5,-92.1956 436.5,-92.1956 436.5,-128.196"/>
<text text-anchor="middle" x="364" y="-106.496" font-family="Times,serif" font-size="14.00">extractUserPath</text>
</g>
<!-- 28&#45;&gt;30 -->
<g id="edge29" class="edge"><title>28&#45;&gt;30</title>
<path fill="none" stroke="black" d="M161.359,-175.526C168.967,-173.967 176.628,-172.544 184,-171.391 227.176,-164.639 240.575,-177.31 282,-163.391 301.122,-156.966 320.266,-145.161 335.241,-134.4"/>
<polygon fill="black" stroke="black" points="337.603,-137.006 343.545,-128.234 333.43,-131.386 337.603,-137.006"/>
</g>
<!-- 46 -->
<g id="node32" class="node"><title>46</title>
<polygon fill="bisque" stroke="black" points="273.5,-128.196 46.5,-128.196 46.5,-92.1956 273.5,-92.1956 273.5,-128.196"/>
<text text-anchor="middle" x="160" y="-106.496" font-family="Times,serif" font-size="14.00">mkUserCreationRequestForA3</text>
</g>
<!-- 28&#45;&gt;46 -->
<g id="edge30" class="edge"><title>28&#45;&gt;46</title>
<path fill="none" stroke="black" d="M107.209,-175.326C116.536,-163.995 128.89,-148.988 139.301,-136.34"/>
<polygon fill="black" stroke="black" points="142.158,-138.377 145.812,-128.432 136.754,-133.928 142.158,-138.377"/>
</g>
<!-- 63 -->
<g id="node49" class="node"><title>63</title>
<polygon fill="cyan" stroke="black" points="581.5,-128.196 454.5,-128.196 454.5,-92.1956 581.5,-92.1956 581.5,-128.196"/>
<text text-anchor="middle" x="518" y="-106.496" font-family="Times,serif" font-size="14.00">sendRequest</text>
</g>
<!-- 28&#45;&gt;63 -->
<g id="edge31" class="edge"><title>28&#45;&gt;63</title>
<path fill="none" stroke="black" d="M159.319,-175.54C167.585,-173.889 175.957,-172.441 184,-171.391 212.77,-167.638 417.512,-172.674 445,-163.391 462.602,-157.447 479.646,-145.715 492.832,-134.877"/>
<polygon fill="black" stroke="black" points="495.191,-137.464 500.514,-128.304 490.64,-132.146 495.191,-137.464"/>
</g>
<!-- 98 -->
<g id="node77" class="node"><title>98</title>
<polygon fill="cyan" stroke="black" points="5041,-128.196 4865,-128.196 4861,-124.196 4861,-92.1956 5037,-92.1956 5041,-96.1956 5041,-128.196"/>
<polyline fill="none" stroke="black" points="5037,-124.196 4861,-124.196 "/>
<polyline fill="none" stroke="black" points="5037,-124.196 5037,-92.1956 "/>
<polyline fill="none" stroke="black" points="5037,-124.196 5041,-128.196 "/>
<text text-anchor="middle" x="4951" y="-106.496" font-family="Times,serif" font-size="14.00">Data: ThentosA3Error</text>
</g>
<!-- 28&#45;&gt;98 -->
<g id="edge32" class="edge"><title>28&#45;&gt;98</title>
<path fill="none" stroke="black" d="M170.062,-179.306C192.244,-176.052 216.521,-173.034 239,-171.391 302.414,-166.756 4754.52,-175.187 4817,-163.391 4848.79,-157.389 4882.73,-144.089 4908.5,-132.418"/>
<polygon fill="black" stroke="black" points="4910,-135.582 4917.61,-128.208 4907.06,-129.228 4910,-135.582"/>
</g>
<!-- 29&#45;&gt;20 -->
<g id="edge33" class="edge"><title>29&#45;&gt;20</title>
<path fill="none" stroke="black" d="M1169.67,-259.938C1189.91,-253.981 1213.34,-247.788 1235,-243.783 1368.86,-219.025 1406.35,-241.602 1540,-215.783 1542.69,-215.263 1545.42,-214.683 1548.18,-214.057"/>
<polygon fill="black" stroke="black" points="1549.29,-217.387 1558.17,-211.609 1547.63,-210.588 1549.29,-217.387"/>
</g>
<!-- 29&#45;&gt;98 -->
<g id="edge34" class="edge"><title>29&#45;&gt;98</title>
<path fill="none" stroke="black" stroke-width="1.69315" d="M1166.32,-259.935C1187.23,-253.543 1212.03,-247.041 1235,-243.783 1285.41,-236.63 4858.03,-243.098 4901,-215.783 4927.75,-198.778 4940.51,-163.109 4946.37,-138.179"/>
<polygon fill="black" stroke="black" stroke-width="1.69315" points="4949.83,-138.746 4948.48,-128.237 4942.98,-137.293 4949.83,-138.746"/>
</g>
<!-- 30&#45;&gt;16 -->
<g id="edge35" class="edge"><title>30&#45;&gt;16</title>
<path fill="none" stroke="black" d="M411.896,-92.1427C422.659,-88.9504 434.118,-86.0407 445,-84.1956 638.152,-51.4478 1130.26,-60.1223 1326,-52 1422.06,-48.014 1532.27,-42.809 1606.44,-39.2138"/>
<polygon fill="black" stroke="black" points="1606.84,-42.6985 1616.66,-38.7175 1606.5,-35.7067 1606.84,-42.6985"/>
</g>
<!-- 30&#45;&gt;98 -->
<g id="edge36" class="edge"><title>30&#45;&gt;98</title>
<path fill="none" stroke="black" d="M383.2,-128.24C400.255,-142.732 426.654,-161.588 454,-167.391 468.891,-170.551 4823.11,-170.551 4838,-167.391 4866.04,-161.44 4894.83,-146.716 4916.33,-133.698"/>
<polygon fill="black" stroke="black" points="4918.44,-136.511 4925.08,-128.254 4914.74,-130.568 4918.44,-136.511"/>
</g>
<!-- 35 -->
<g id="node28" class="node"><title>35</title>
<polygon fill="cyan" stroke="black" points="2209.69,-652.485 2209.69,-671.036 2075.73,-684.154 1886.27,-684.154 1752.31,-671.036 1752.31,-652.485 1886.27,-639.368 2075.73,-639.368 2209.69,-652.485"/>
<text text-anchor="middle" x="1981" y="-658.061" font-family="Times,serif" font-size="14.00">Class: HasDocExtras, Data: (RestDocs Api)</text>
</g>
<!-- 40 -->
<g id="node29" class="node"><title>40</title>
<polygon fill="bisque" stroke="black" points="879,-383.369 793,-383.369 793,-347.369 879,-347.369 879,-383.369"/>
<text text-anchor="middle" x="836" y="-361.669" font-family="Times,serif" font-size="14.00">login</text>
</g>
<!-- 40&#45;&gt;7 -->
<g id="edge37" class="edge"><title>40&#45;&gt;7</title>
<path fill="none" stroke="black" stroke-width="1.69315" d="M879.179,-355.109C902.168,-350.609 930.992,-345.649 957,-343.174 1010.99,-338.035 1392.88,-350.159 1445,-335.174 1468.21,-328.499 1491.47,-314.442 1508.92,-302.058"/>
<polygon fill="black" stroke="black" stroke-width="1.69315" points="1510.99,-304.881 1517,-296.153 1506.86,-299.231 1510.99,-304.881"/>
</g>
<!-- 40&#45;&gt;13 -->
<g id="edge38" class="edge"><title>40&#45;&gt;13</title>
<path fill="none" stroke="black" d="M792.934,-350.755C781.38,-347.671 768.814,-344.823 757,-343.174 742.527,-341.154 241.254,-345.585 231,-335.174 205.43,-309.212 212.134,-196.009 239,-171.391 253.381,-158.214 571.603,-169.872 590,-163.391 606.581,-157.55 622.338,-145.986 634.502,-135.224"/>
<polygon fill="black" stroke="black" points="636.984,-137.696 641.948,-128.337 632.231,-132.557 636.984,-137.696"/>
</g>
<!-- 40&#45;&gt;14 -->
<g id="edge39" class="edge"><title>40&#45;&gt;14</title>
<path fill="none" stroke="black" d="M792.752,-351.804C781.2,-348.713 768.679,-345.597 757,-343.174 745.122,-340.709 711.952,-343.361 703,-335.174 672.171,-306.978 709.863,-273.988 681,-243.783 674.284,-236.754 632.656,-224.65 592.279,-214.208"/>
<polygon fill="black" stroke="black" points="592.893,-210.752 582.337,-211.663 591.157,-217.534 592.893,-210.752"/>
</g>
<!-- 40&#45;&gt;29 -->
<g id="edge40" class="edge"><title>40&#45;&gt;29</title>
<path fill="none" stroke="black" d="M879.113,-356.964C922.069,-349.495 983.16,-338.594 994,-335.174 1022.46,-326.193 1052.99,-312.274 1076.51,-300.536"/>
<polygon fill="black" stroke="black" points="1078.14,-303.632 1085.48,-295.994 1074.98,-297.387 1078.14,-303.632"/>
</g>
<!-- 44&#45;&gt;13 -->
<g id="edge41" class="edge"><title>44&#45;&gt;13</title>
<path fill="none" stroke="black" stroke-width="1.69315" d="M147.78,-259.728C161.784,-248.09 179.924,-231.956 194,-215.783 209.633,-197.82 203.093,-182.79 224,-171.391 259.713,-151.92 551.629,-176.889 590,-163.391 606.584,-157.558 622.341,-145.994 634.504,-135.231"/>
<polygon fill="black" stroke="black" stroke-width="1.69315" points="636.987,-137.702 641.95,-128.342 632.233,-132.564 636.987,-137.702"/>
</g>
<!-- 44&#45;&gt;23 -->
<g id="edge42" class="edge"><title>44&#45;&gt;23</title>
<path fill="none" stroke="black" d="M165.783,-259.907C195.645,-247.092 236.714,-229.469 268.667,-215.757"/>
<polygon fill="black" stroke="black" points="270.459,-218.796 278.268,-211.637 267.699,-212.364 270.459,-218.796"/>
</g>
<!-- 44&#45;&gt;28 -->
<g id="edge43" class="edge"><title>44&#45;&gt;28</title>
<path fill="none" stroke="black" d="M119.162,-259.907C114.693,-248.749 108.764,-233.946 103.681,-221.253"/>
<polygon fill="black" stroke="black" points="106.796,-219.618 99.8289,-211.637 100.298,-222.221 106.796,-219.618"/>
</g>
<!-- 44&#45;&gt;98 -->
<g id="edge44" class="edge"><title>44&#45;&gt;98</title>
<path fill="none" stroke="black" stroke-width="1.69315" d="M169.741,-259.918C188.323,-253.523 210.414,-247.024 231,-243.783 356.759,-223.983 4698.18,-268.626 4814,-215.783 4837.89,-204.882 4832.92,-188.318 4853,-171.391 4869.9,-157.145 4890.51,-143.963 4908.46,-133.589"/>
<polygon fill="black" stroke="black" stroke-width="1.69315" points="4910.6,-136.403 4917.57,-128.43 4907.15,-130.312 4910.6,-136.403"/>
</g>
<!-- 45 -->
<g id="node31" class="node"><title>45</title>
<polygon fill="bisque" stroke="black" points="942.5,-52 787.5,-52 787.5,-16 942.5,-16 942.5,-52"/>
<text text-anchor="middle" x="865" y="-30.3" font-family="Times,serif" font-size="14.00">mkRequestForA3</text>
</g>
<!-- 45&#45;&gt;123 -->
<g id="edge45" class="edge"><title>45&#45;&gt;123</title>
<path fill="none" stroke="black" d="M942.558,-41.2691C993.753,-45.1214 1062.33,-49.7384 1123,-52 1174.23,-53.9097 4771.17,-56.0282 4814,-84.1956 4846.15,-105.339 4817.98,-140.613 4849,-163.391 4861.8,-172.789 4904.59,-167.559 4920,-171.391 4994.85,-190.007 5076.79,-224.519 5130.11,-249.015"/>
<polygon fill="black" stroke="black" points="5128.85,-252.289 5139.39,-253.314 5131.79,-245.937 5128.85,-252.289"/>
</g>
<!-- 46&#45;&gt;4 -->
<g id="edge46" class="edge"><title>46&#45;&gt;4</title>
<path fill="none" stroke="black" d="M233.89,-92.1539C249.691,-89.0441 266.34,-86.165 282,-84.1956 577.351,-47.0521 653.773,-68.3718 951,-52 1007.66,-48.879 1070.88,-44.9839 1122.31,-41.7098"/>
<polygon fill="black" stroke="black" points="1122.68,-45.1937 1132.43,-41.0637 1122.23,-38.2079 1122.68,-45.1937"/>
</g>
<!-- 46&#45;&gt;45 -->
<g id="edge47" class="edge"><title>46&#45;&gt;45</title>
<path fill="none" stroke="black" d="M236.226,-92.1362C251.338,-89.1617 267.127,-86.3394 282,-84.1956 456.687,-59.0166 662.818,-45.3539 777.235,-39.1739"/>
<polygon fill="black" stroke="black" points="777.541,-42.6626 787.34,-38.6347 777.168,-35.6726 777.541,-42.6626"/>
</g>
<!-- 47 -->
<g id="node33" class="node"><title>47</title>
<polygon fill="bisque" stroke="black" points="2777.23,-652.485 2777.23,-671.036 2649.98,-684.154 2470.02,-684.154 2342.77,-671.036 2342.77,-652.485 2470.02,-639.368 2649.98,-639.368 2777.23,-652.485"/>
<text text-anchor="middle" x="2560" y="-658.061" font-family="Times,serif" font-size="14.00">Class: FromJSON, Data: (A3Resource a)</text>
</g>
<!-- 47&#45;&gt;2 -->
<g id="edge48" class="edge"><title>47&#45;&gt;2</title>
<path fill="none" stroke="black" d="M2623.04,-639.499C2653.52,-629.221 2689.92,-616.946 2719.98,-606.806"/>
<polygon fill="black" stroke="black" points="2721.15,-610.106 2729.51,-603.594 2718.91,-603.473 2721.15,-610.106"/>
</g>
<!-- 48 -->
<g id="node34" class="node"><title>48</title>
<polygon fill="bisque" stroke="black" points="3898.14,-268.703 3898.14,-287.254 3772.11,-300.371 3593.89,-300.371 3467.86,-287.254 3467.86,-268.703 3593.89,-255.585 3772.11,-255.585 3898.14,-268.703"/>
<text text-anchor="middle" x="3683" y="-274.278" font-family="Times,serif" font-size="14.00">Class: FromJSON, Data: A3UserNoPass</text>
</g>
<!-- 48&#45;&gt;3 -->
<g id="edge49" class="edge"><title>48&#45;&gt;3</title>
<path fill="none" stroke="black" d="M3572.81,-257.757C3536.66,-252.227 3496.22,-246.862 3459,-243.783 3113.46,-215.198 2243.53,-254.673 1899,-215.783 1893.18,-215.126 1887.21,-214.292 1881.2,-213.336"/>
<polygon fill="black" stroke="black" points="1881.55,-209.844 1871.1,-211.622 1880.38,-216.746 1881.55,-209.844"/>
</g>
<!-- 48&#45;&gt;21 -->
<g id="edge50" class="edge"><title>48&#45;&gt;21</title>
<path fill="none" stroke="black" d="M3795.45,-257.952C3831.32,-252.537 3871.24,-247.19 3908,-243.783 4230.85,-213.854 4315.76,-259.773 4637,-215.783 4641.46,-215.172 4646.02,-214.437 4650.61,-213.613"/>
<polygon fill="black" stroke="black" points="4651.5,-217.005 4660.66,-211.679 4650.18,-210.131 4651.5,-217.005"/>
</g>
<!-- 49 -->
<g id="node35" class="node"><title>49</title>
<polygon fill="bisque" stroke="black" points="4363.47,-268.703 4363.47,-287.254 4232.57,-300.371 4047.43,-300.371 3916.53,-287.254 3916.53,-268.703 4047.43,-255.585 4232.57,-255.585 4363.47,-268.703"/>
<text text-anchor="middle" x="4140" y="-274.278" font-family="Times,serif" font-size="14.00">Class: FromJSON, Data: A3UserWithPass</text>
</g>
<!-- 49&#45;&gt;4 -->
<g id="edge51" class="edge"><title>49&#45;&gt;4</title>
<path fill="none" stroke="black" d="M4025.66,-257.727C3987.98,-252.176 3945.8,-246.807 3907,-243.783 3851.8,-239.48 1960.29,-246.16 1914,-215.783 1895.91,-203.91 1912.08,-183.287 1894,-171.391 1871.58,-156.638 1436.55,-171.587 1411,-163.391 1345.62,-142.423 1282.73,-90.1395 1249.46,-59.143"/>
<polygon fill="black" stroke="black" points="1251.71,-56.4567 1242.04,-52.1257 1246.9,-61.5412 1251.71,-56.4567"/>
</g>
<!-- 49&#45;&gt;21 -->
<g id="edge52" class="edge"><title>49&#45;&gt;21</title>
<path fill="none" stroke="black" d="M4262.7,-258.561C4297.95,-253.503 4336.47,-248.2 4372,-243.783 4489.53,-229.17 4520.26,-235.765 4637,-215.783 4640.85,-215.123 4644.79,-214.394 4648.75,-213.616"/>
<polygon fill="black" stroke="black" points="4649.55,-217.026 4658.64,-211.59 4648.14,-210.169 4649.55,-217.026"/>
</g>
<!-- 50 -->
<g id="node36" class="node"><title>50</title>
<polygon fill="bisque" stroke="black" points="3952.69,-356.094 3952.69,-374.645 3818.73,-387.762 3629.27,-387.762 3495.31,-374.645 3495.31,-356.094 3629.27,-342.976 3818.73,-342.976 3952.69,-356.094"/>
<text text-anchor="middle" x="3724" y="-361.669" font-family="Times,serif" font-size="14.00">Class: FromJSON, Data: ActivationRequest</text>
</g>
<!-- 50&#45;&gt;5 -->
<g id="edge53" class="edge"><title>50&#45;&gt;5</title>
<path fill="none" stroke="black" d="M3495.11,-359.122C3272.81,-354.222 2925.78,-347.094 2625,-343.174 2592.22,-342.747 1476.77,-343.255 1445,-335.174 1419.11,-328.588 1392.61,-314.334 1372.7,-301.831"/>
<polygon fill="black" stroke="black" points="1374.35,-298.727 1364.05,-296.243 1370.55,-304.608 1374.35,-298.727"/>
</g>
<!-- 50&#45;&gt;123 -->
<g id="edge54" class="edge"><title>50&#45;&gt;123</title>
<path fill="none" stroke="black" d="M3878.15,-348.792C3906.03,-346.502 3934.86,-344.477 3962,-343.174 3992.97,-341.687 5047.89,-342.535 5078,-335.174 5099.66,-329.879 5121.87,-319.614 5140.62,-309.29"/>
<polygon fill="black" stroke="black" points="5142.55,-312.217 5149.52,-304.238 5139.1,-306.128 5142.55,-312.217"/>
</g>
<!-- 51 -->
<g id="node37" class="node"><title>51</title>
<polygon fill="cyan" stroke="black" points="4418.77,-652.485 4418.77,-671.036 4298.23,-684.154 4127.77,-684.154 4007.23,-671.036 4007.23,-652.485 4127.77,-639.368 4298.23,-639.368 4418.77,-652.485"/>
<text text-anchor="middle" x="4213" y="-658.061" font-family="Times,serif" font-size="14.00">Class: FromJSON, Data: ContentType</text>
</g>
<!-- 52 -->
<g id="node38" class="node"><title>52</title>
<polygon fill="bisque" stroke="black" points="4804.92,-356.094 4804.92,-374.645 4681.95,-387.762 4508.05,-387.762 4385.08,-374.645 4385.08,-356.094 4508.05,-342.976 4681.95,-342.976 4804.92,-356.094"/>
<text text-anchor="middle" x="4595" y="-361.669" font-family="Times,serif" font-size="14.00">Class: FromJSON, Data: LoginRequest</text>
</g>
<!-- 52&#45;&gt;7 -->
<g id="edge55" class="edge"><title>52&#45;&gt;7</title>
<path fill="none" stroke="black" stroke-width="1.69315" d="M4453.77,-348.744C4427.93,-346.442 4401.18,-344.426 4376,-343.174 4337.92,-341.28 1667.71,-345.462 1631,-335.174 1607.74,-328.656 1584.48,-314.599 1567.04,-302.176"/>
<polygon fill="black" stroke="black" stroke-width="1.69315" points="1569.11,-299.348 1558.97,-296.248 1564.96,-304.989 1569.11,-299.348"/>
</g>
<!-- 52&#45;&gt;123 -->
<g id="edge56" class="edge"><title>52&#45;&gt;123</title>
<path fill="none" stroke="black" d="M4804.88,-360.126C4910.77,-356.292 5027.3,-349.007 5078,-335.174 5099.16,-329.402 5120.97,-319.273 5139.53,-309.191"/>
<polygon fill="black" stroke="black" points="5141.33,-312.191 5148.36,-304.264 5137.92,-306.078 5141.33,-312.191"/>
</g>
<!-- 53 -->
<g id="node39" class="node"><title>53</title>
<polygon fill="bisque" stroke="black" points="4628.43,-184.311 4628.43,-202.862 4483.49,-215.98 4278.51,-215.98 4133.57,-202.862 4133.57,-184.311 4278.51,-171.194 4483.49,-171.194 4628.43,-184.311"/>
<text text-anchor="middle" x="4381" y="-189.887" font-family="Times,serif" font-size="14.00">Class: FromJSON, Data: PasswordResetRequest</text>
</g>
<!-- 53&#45;&gt;12 -->
<g id="edge57" class="edge"><title>53&#45;&gt;12</title>
<path fill="none" stroke="black" d="M4214.84,-176.946C4184.95,-174.67 4154.07,-172.667 4125,-171.391 3778.44,-156.179 2910.76,-173.147 2564,-163.391 2237.51,-154.206 1852.77,-131.215 1662.64,-119.042"/>
<polygon fill="black" stroke="black" points="1662.83,-115.547 1652.62,-118.399 1662.38,-122.532 1662.83,-115.547"/>
</g>
<!-- 53&#45;&gt;13 -->
<g id="edge58" class="edge"><title>53&#45;&gt;13</title>
<path fill="none" stroke="black" d="M4215.18,-176.919C4185.19,-174.638 4154.18,-172.641 4125,-171.391 3825.38,-158.564 1725.7,-174.009 1426,-163.391 1167.3,-154.226 860.39,-129.047 726.343,-117.336"/>
<polygon fill="black" stroke="black" points="726.489,-113.835 716.222,-116.448 725.878,-120.809 726.489,-113.835"/>
</g>
<!-- 53&#45;&gt;31 -->
<g id="edge59" class="edge"><title>53&#45;&gt;31</title>
<path fill="none" stroke="black" d="M4211.37,-177.263C4182.56,-175.027 4152.94,-172.956 4125,-171.391 4094.7,-169.694 3880.66,-173.368 3852,-163.391 3835.09,-157.504 3818.88,-145.937 3806.33,-135.185"/>
<polygon fill="black" stroke="black" points="3808.42,-132.362 3798.63,-128.304 3803.75,-137.58 3808.42,-132.362"/>
</g>
<!-- 53&#45;&gt;56 -->
<g id="edge60" class="edge"><title>53&#45;&gt;56</title>
<path fill="none" stroke="black" d="M4212.76,-177.131C4183.52,-174.882 4153.39,-172.84 4125,-171.391 4079.16,-169.052 3756.32,-175.329 3712,-163.391 3689.9,-157.438 3667.4,-145.212 3649.96,-134.088"/>
<polygon fill="black" stroke="black" points="3651.61,-130.982 3641.33,-128.411 3647.76,-136.831 3651.61,-130.982"/>
</g>
<!-- 54 -->
<g id="node40" class="node"><title>54</title>
<polygon fill="bisque" stroke="black" points="2062.48,-268.703 2062.48,-287.254 1938.6,-300.371 1763.4,-300.371 1639.52,-287.254 1639.52,-268.703 1763.4,-255.585 1938.6,-255.585 2062.48,-268.703"/>
<text text-anchor="middle" x="1851" y="-274.278" font-family="Times,serif" font-size="14.00">Class: FromJSON, Data: RequestResult</text>
</g>
<!-- 54&#45;&gt;14 -->
<g id="edge61" class="edge"><title>54&#45;&gt;14</title>
<path fill="none" stroke="black" stroke-width="1.69315" d="M1741.72,-257.869C1706.2,-252.381 1666.52,-247.012 1630,-243.783 1176.05,-203.639 1057.2,-272.394 605,-215.783 599.892,-215.143 594.653,-214.351 589.39,-213.452"/>
<polygon fill="black" stroke="black" stroke-width="1.69315" points="589.73,-209.957 579.264,-211.605 588.474,-216.843 589.73,-209.957"/>
</g>
<!-- 114 -->
<g id="node84" class="node"><title>114</title>
<polygon fill="khaki" stroke="black" stroke-dasharray="5,2" points="5143.86,-747.889 5143.86,-766.415 5073.06,-779.515 4972.94,-779.515 4902.14,-766.415 4902.14,-747.889 4972.94,-734.789 5073.06,-734.789 5143.86,-747.889"/>
<polygon fill="none" stroke="black" stroke-dasharray="5,2" points="5147.86,-744.531 5147.86,-769.773 5073.42,-783.545 4972.58,-783.545 4898.14,-769.773 4898.14,-744.531 4972.58,-730.759 5073.42,-730.759 5147.86,-744.531"/>
<text text-anchor="middle" x="5023" y="-753.452" font-family="Times,serif" font-size="14.00">Class: FromJSON</text>
</g>
<!-- 54&#45;&gt;114 -->
<g id="edge62" class="edge"><title>54&#45;&gt;114</title>
<path fill="none" stroke="black" d="M1916.6,-300.273C1959.91,-313.199 2018.21,-328.46 2071,-335.174 2108.79,-339.98 4778.92,-328.325 4814,-343.174 4869.69,-366.742 4909,-380.098 4909,-440.565 4909,-586.565 4909,-586.565 4909,-586.565 4909,-641.741 4951.08,-692.47 4984.11,-723.789"/>
<polygon fill="black" stroke="black" points="4982.13,-726.726 4991.85,-730.939 4986.88,-721.583 4982.13,-726.726"/>
</g>
<!-- 55 -->
<g id="node41" class="node"><title>55</title>
<polygon fill="bisque" stroke="black" points="4416.9,-100.92 4416.9,-119.471 4301.56,-132.589 4138.44,-132.589 4023.1,-119.471 4023.1,-100.92 4138.44,-87.8026 4301.56,-87.8026 4416.9,-100.92"/>
<text text-anchor="middle" x="4220" y="-106.496" font-family="Times,serif" font-size="14.00">Class: FromJSON, Data: TypedPath</text>
</g>
<!-- 55&#45;&gt;16 -->
<g id="edge63" class="edge"><title>55&#45;&gt;16</title>
<path fill="none" stroke="black" d="M4098.19,-92.3773C4070.56,-89.1295 4041.31,-86.1373 4014,-84.1956 3566.33,-52.3684 2141.43,-38.6938 1777.35,-35.6681"/>
<polygon fill="black" stroke="black" points="1777.18,-32.1666 1767.15,-35.5838 1777.12,-39.1664 1777.18,-32.1666"/>
</g>
<!-- 57 -->
<g id="node43" class="node"><title>57</title>
<polygon fill="cyan" stroke="black" points="3989.19,-652.485 3989.19,-671.036 3884.22,-684.154 3735.78,-684.154 3630.81,-671.036 3630.81,-652.485 3735.78,-639.368 3884.22,-639.368 3989.19,-652.485"/>
<text text-anchor="middle" x="3810" y="-658.061" font-family="Times,serif" font-size="14.00">Class: Read, Data: ContentType</text>
</g>
<!-- 58 -->
<g id="node44" class="node"><title>58</title>
<polygon fill="cyan" stroke="black" points="4804.88,-652.485 4804.88,-671.036 4697.16,-684.154 4544.84,-684.154 4437.12,-671.036 4437.12,-652.485 4544.84,-639.368 4697.16,-639.368 4804.88,-652.485"/>
<text text-anchor="middle" x="4621" y="-658.061" font-family="Times,serif" font-size="14.00">Class: Read, Data: PropertySheet</text>
</g>
<!-- 60 -->
<g id="node46" class="node"><title>60</title>
<polygon fill="bisque" stroke="black" points="848,-295.978 712,-295.978 712,-259.978 848,-259.978 848,-295.978"/>
<text text-anchor="middle" x="780" y="-274.278" font-family="Times,serif" font-size="14.00">resetPassword</text>
</g>
<!-- 60&#45;&gt;12 -->
<g id="edge64" class="edge"><title>60&#45;&gt;12</title>
<path fill="none" stroke="black" d="M816.786,-259.86C829.387,-254.336 843.67,-248.441 857,-243.783 901.783,-228.131 919.44,-240.386 960,-215.783 982.963,-201.853 977.028,-183.501 1001,-171.391 1072.86,-135.094 1288.17,-120.466 1425.1,-114.73"/>
<polygon fill="black" stroke="black" points="1425.38,-118.221 1435.23,-114.315 1425.09,-111.227 1425.38,-118.221"/>
</g>
<!-- 60&#45;&gt;14 -->
<g id="edge65" class="edge"><title>60&#45;&gt;14</title>
<path fill="none" stroke="black" stroke-width="2.09861" d="M740.757,-259.908C727.333,-254.386 712.137,-248.482 698,-243.783 664.512,-232.649 626.993,-222.364 594.402,-214.107"/>
<polygon fill="black" stroke="black" stroke-width="2.09861" points="595.007,-210.651 584.455,-211.612 593.303,-217.44 595.007,-210.651"/>
</g>
<!-- 61 -->
<g id="node47" class="node"><title>61</title>
<polygon fill="bisque" stroke="black" points="951.5,-211.587 778.5,-211.587 778.5,-175.587 951.5,-175.587 951.5,-211.587"/>
<text text-anchor="middle" x="865" y="-189.887" font-family="Times,serif" font-size="14.00">resetPasswordInA3&#39;P</text>
</g>
<!-- 60&#45;&gt;61 -->
<g id="edge66" class="edge"><title>60&#45;&gt;61</title>
<path fill="none" stroke="black" d="M797.612,-259.907C809.921,-247.976 826.53,-231.877 840.178,-218.647"/>
<polygon fill="black" stroke="black" points="842.666,-221.11 847.411,-211.637 837.794,-216.083 842.666,-221.11"/>
</g>
<!-- 89 -->
<g id="node68" class="node"><title>89</title>
<polygon fill="bisque" stroke="black" points="760,-211.587 614,-211.587 614,-175.587 760,-175.587 760,-211.587"/>
<text text-anchor="middle" x="687" y="-189.887" font-family="Times,serif" font-size="14.00">userIdFromPath</text>
</g>
<!-- 60&#45;&gt;89 -->
<g id="edge67" class="edge"><title>60&#45;&gt;89</title>
<path fill="none" stroke="black" d="M760.73,-259.907C747.138,-247.865 728.754,-231.578 713.744,-218.28"/>
<polygon fill="black" stroke="black" points="716.051,-215.648 706.245,-211.637 711.409,-220.888 716.051,-215.648"/>
</g>
<!-- 60&#45;&gt;98 -->
<g id="edge68" class="edge"><title>60&#45;&gt;98</title>
<path fill="none" stroke="black" d="M811.649,-259.938C825.207,-253.546 841.471,-247.044 857,-243.783 965.633,-220.966 4751.31,-260.279 4853,-215.783 4862.79,-211.497 4903.6,-165.839 4929.37,-136.283"/>
<polygon fill="black" stroke="black" points="4932.28,-138.265 4936.2,-128.421 4927,-133.674 4932.28,-138.265"/>
</g>
<!-- 60&#45;&gt;123 -->
<g id="edge69" class="edge"><title>60&#45;&gt;123</title>
<path fill="none" stroke="black" d="M796.315,-295.98C812.218,-311.813 838.036,-333.24 866,-339.174 880.276,-342.203 5054.72,-342.203 5069,-339.174 5094.25,-333.815 5120.01,-321.577 5141.07,-309.443"/>
<polygon fill="black" stroke="black" points="5142.97,-312.381 5149.79,-304.269 5139.4,-306.36 5142.97,-312.381"/>
</g>
<!-- 61&#45;&gt;12 -->
<g id="edge70" class="edge"><title>61&#45;&gt;12</title>
<path fill="none" stroke="black" d="M951.804,-176.671C963.286,-174.774 974.914,-172.959 986,-171.391 1137.13,-150.026 1312.24,-132.269 1425.39,-121.704"/>
<polygon fill="black" stroke="black" points="1425.83,-125.178 1435.46,-120.767 1425.18,-118.208 1425.83,-125.178"/>
</g>
<!-- 61&#45;&gt;45 -->
<g id="edge71" class="edge"><title>61&#45;&gt;45</title>
<path fill="none" stroke="black" d="M865,-175.422C865,-148.188 865,-94.8372 865,-62.3087"/>
<polygon fill="black" stroke="black" points="868.5,-62.1434 865,-52.1434 861.5,-62.1434 868.5,-62.1434"/>
</g>
<!-- 61&#45;&gt;63 -->
<g id="edge72" class="edge"><title>61&#45;&gt;63</title>
<path fill="none" stroke="black" d="M794.469,-175.568C785.926,-173.936 777.292,-172.485 769,-171.391 729.744,-166.215 628.423,-176.328 591,-163.391 573.44,-157.321 556.4,-145.58 543.205,-134.769"/>
<polygon fill="black" stroke="black" points="545.397,-132.039 535.516,-128.217 540.857,-137.367 545.397,-132.039"/>
</g>
<!-- 61&#45;&gt;98 -->
<g id="edge73" class="edge"><title>61&#45;&gt;98</title>
<path fill="none" stroke="black" d="M951.83,-177.036C968.117,-174.693 985.039,-172.644 1001,-171.391 1053.84,-167.243 4764.92,-173.233 4817,-163.391 4848.79,-157.384 4882.73,-144.084 4908.5,-132.414"/>
<polygon fill="black" stroke="black" points="4910,-135.578 4917.61,-128.205 4907.06,-129.224 4910,-135.578"/>
</g>
<!-- 65 -->
<g id="node51" class="node"><title>65</title>
<polygon fill="bisque" stroke="black" points="1465.5,-603.565 1358.5,-603.565 1358.5,-567.565 1465.5,-567.565 1465.5,-603.565"/>
<text text-anchor="middle" x="1412" y="-581.865" font-family="Times,serif" font-size="14.00">serveApi</text>
</g>
<!-- 62&#45;&gt;65 -->
<g id="edge74" class="edge"><title>62&#45;&gt;65</title>
<path fill="none" stroke="black" d="M1434.27,-643.552C1430.76,-634.562 1426.38,-623.36 1422.44,-613.273"/>
<polygon fill="black" stroke="black" points="1425.59,-611.72 1418.69,-603.68 1419.07,-614.268 1425.59,-611.72"/>
</g>
<!-- 62&#45;&gt;123 -->
<g id="edge75" class="edge"><title>62&#45;&gt;123</title>
<path fill="none" stroke="black" d="M1503.13,-655.706C1564.16,-650.904 1659.93,-643.808 1743,-639.565 2242.6,-614.049 2368.59,-632.58 2868,-603.565 3367.81,-574.527 4692.72,-686.434 5113,-414.369 5148.31,-391.509 5168.49,-345.974 5178.83,-314.047"/>
<polygon fill="black" stroke="black" points="5182.26,-314.792 5181.85,-304.205 5175.57,-312.739 5182.26,-314.792"/>
</g>
<!-- 65&#45;&gt;24 -->
<g id="edge76" class="edge"><title>65&#45;&gt;24</title>
<path fill="none" stroke="black" d="M1412,-567.262C1412,-559.548 1412,-550.278 1412,-541.678"/>
<polygon fill="black" stroke="black" points="1415.5,-541.669 1412,-531.669 1408.5,-541.669 1415.5,-541.669"/>
</g>
<!-- 65&#45;&gt;27 -->
<g id="edge77" class="edge"><title>65&#45;&gt;27</title>
<path fill="none" stroke="black" d="M1368.46,-567.441C1342.06,-557.059 1308.36,-543.809 1281.31,-533.17"/>
<polygon fill="black" stroke="black" points="1282.25,-529.781 1271.67,-529.378 1279.69,-536.295 1282.25,-529.781"/>
</g>
<!-- 66 -->
<g id="node52" class="node"><title>66</title>
<polygon fill="bisque" stroke="black" points="3236.28,-184.311 3236.28,-202.862 3130.09,-215.98 2979.91,-215.98 2873.72,-202.862 2873.72,-184.311 2979.91,-171.194 3130.09,-171.194 3236.28,-184.311"/>
<text text-anchor="middle" x="3055" y="-189.887" font-family="Times,serif" font-size="14.00">Class: Show, Data: ContentType</text>
</g>
<!-- 66&#45;&gt;6 -->
<g id="edge78" class="edge"><title>66&#45;&gt;6</title>
<path fill="none" stroke="black" d="M2960.98,-173.504C2895.94,-160.303 2809.84,-142.826 2745.38,-129.743"/>
<polygon fill="black" stroke="black" points="2745.72,-126.241 2735.22,-127.682 2744.33,-133.101 2745.72,-126.241"/>
</g>
<!-- 67 -->
<g id="node53" class="node"><title>67</title>
<polygon fill="bisque" stroke="black" points="3625.97,-184.311 3625.97,-202.862 3517.03,-215.98 3362.97,-215.98 3254.03,-202.862 3254.03,-184.311 3362.97,-171.194 3517.03,-171.194 3625.97,-184.311"/>
<text text-anchor="middle" x="3440" y="-189.887" font-family="Times,serif" font-size="14.00">Class: Show, Data: PropertySheet</text>
</g>
<!-- 67&#45;&gt;9 -->
<g id="edge79" class="edge"><title>67&#45;&gt;9</title>
<path fill="none" stroke="black" stroke-width="2.09861" d="M3437.64,-171.202C3436.53,-161.17 3435.19,-149.1 3434.01,-138.423"/>
<polygon fill="black" stroke="black" stroke-width="2.09861" points="3437.47,-137.893 3432.9,-128.339 3430.52,-138.663 3437.47,-137.893"/>
</g>
<!-- 68&#45;&gt;25 -->
<g id="edge80" class="edge"><title>68&#45;&gt;25</title>
<path fill="none" stroke="black" d="M848.933,-431.842C828.031,-427.779 804.603,-422.092 784,-414.369 766.199,-407.697 747.639,-397.767 732.337,-388.667"/>
<polygon fill="black" stroke="black" points="734.097,-385.641 723.734,-383.436 730.46,-391.622 734.097,-385.641"/>
</g>
<!-- 68&#45;&gt;26 -->
<g id="edge81" class="edge"><title>68&#45;&gt;26</title>
<path fill="none" stroke="black" d="M909.07,-423.272C910.807,-395.209 914.253,-339.532 916.319,-306.141"/>
<polygon fill="black" stroke="black" points="919.813,-306.344 916.938,-296.146 912.826,-305.911 919.813,-306.344"/>
</g>
<!-- 68&#45;&gt;40 -->
<g id="edge82" class="edge"><title>68&#45;&gt;40</title>
<path fill="none" stroke="black" stroke-width="1.69315" d="M891.301,-423.357C881.941,-413.711 870.11,-401.519 859.795,-390.89"/>
<polygon fill="black" stroke="black" stroke-width="1.69315" points="862.085,-388.224 852.609,-383.485 857.061,-393.099 862.085,-388.224"/>
</g>
<!-- 68&#45;&gt;60 -->
<g id="edge83" class="edge"><title>68&#45;&gt;60</title>
<path fill="none" stroke="black" d="M906.628,-423.3C904.306,-398.491 898.766,-354.492 888,-343.174 878.193,-332.864 869.865,-341.254 857,-335.174 838.989,-326.661 820.891,-313.729 806.77,-302.416"/>
<polygon fill="black" stroke="black" points="808.895,-299.632 798.947,-295.988 804.451,-305.04 808.895,-299.632"/>
</g>
<!-- 68&#45;&gt;91 -->
<g id="edge84" class="edge"><title>68&#45;&gt;91</title>
<path fill="none" stroke="black" d="M967.361,-435.291C1016.52,-431.193 1088.24,-425.837 1151,-423.565 1558.07,-408.832 4409.7,-419.733 4817,-414.369 5539.49,-404.855 6407.49,-379.437 6715.63,-369.98"/>
<polygon fill="black" stroke="black" points="6716.03,-373.47 6725.91,-369.664 6715.81,-366.473 6716.03,-373.47"/>
</g>
<!-- 69 -->
<g id="node55" class="node"><title>69</title>
<polygon fill="bisque" stroke="black" points="3206.77,-652.485 3206.77,-671.036 3086.23,-684.154 2915.77,-684.154 2795.23,-671.036 2795.23,-652.485 2915.77,-639.368 3086.23,-639.368 3206.77,-652.485"/>
<text text-anchor="middle" x="3001" y="-658.061" font-family="Times,serif" font-size="14.00">Class: ToJSON, Data: (A3Resource a)</text>
</g>
<!-- 69&#45;&gt;2 -->
<g id="edge85" class="edge"><title>69&#45;&gt;2</title>
<path fill="none" stroke="black" d="M2937.67,-639.499C2907.06,-629.221 2870.49,-616.946 2840.29,-606.806"/>
<polygon fill="black" stroke="black" points="2841.32,-603.458 2830.72,-603.594 2839.09,-610.094 2841.32,-603.458"/>
</g>
<!-- 70 -->
<g id="node56" class="node"><title>70</title>
<polygon fill="bisque" stroke="black" points="3449.68,-268.703 3449.68,-287.254 3330.37,-300.371 3161.63,-300.371 3042.32,-287.254 3042.32,-268.703 3161.63,-255.585 3330.37,-255.585 3449.68,-268.703"/>
<text text-anchor="middle" x="3246" y="-274.278" font-family="Times,serif" font-size="14.00">Class: ToJSON, Data: A3UserNoPass</text>
</g>
<!-- 70&#45;&gt;3 -->
<g id="edge86" class="edge"><title>70&#45;&gt;3</title>
<path fill="none" stroke="black" d="M3140.97,-257.837C3106.67,-252.329 3068.32,-246.957 3033,-243.783 2530.87,-198.648 2399.78,-274.019 1899,-215.783 1893.24,-215.113 1887.33,-214.274 1881.39,-213.32"/>
<polygon fill="black" stroke="black" points="1881.83,-209.845 1871.39,-211.613 1880.65,-216.745 1881.83,-209.845"/>
</g>
<!-- 70&#45;&gt;22 -->
<g id="edge87" class="edge"><title>70&#45;&gt;22</title>
<path fill="none" stroke="black" d="M3139.02,-258.013C3105.21,-252.635 3067.63,-247.294 3033,-243.783 2772.26,-217.344 2703.06,-255.392 2444,-215.783 2440.15,-215.194 2436.22,-214.496 2432.26,-213.719"/>
<polygon fill="black" stroke="black" points="2432.93,-210.282 2422.42,-211.639 2431.48,-217.131 2432.93,-210.282"/>
</g>
<!-- 71 -->
<g id="node57" class="node"><title>71</title>
<polygon fill="bisque" stroke="black" points="4805.01,-268.703 4805.01,-287.254 4680.82,-300.371 4505.18,-300.371 4380.99,-287.254 4380.99,-268.703 4505.18,-255.585 4680.82,-255.585 4805.01,-268.703"/>
<text text-anchor="middle" x="4593" y="-274.278" font-family="Times,serif" font-size="14.00">Class: ToJSON, Data: A3UserWithPass</text>
</g>
<!-- 71&#45;&gt;4 -->
<g id="edge88" class="edge"><title>71&#45;&gt;4</title>
<path fill="none" stroke="black" d="M4484.59,-257.697C4448.85,-252.145 4408.83,-246.782 4372,-243.783 4314.13,-239.071 2330.55,-247.623 2282,-215.783 2263.9,-203.916 2280.12,-183.224 2262,-171.391 2242.56,-158.693 1447.29,-172.671 1426,-163.391 1381.56,-144.02 1391.22,-111.264 1351,-84.1956 1333.59,-72.4765 1312.98,-62.9439 1293.52,-55.4995"/>
<polygon fill="black" stroke="black" points="1294.68,-52.1949 1284.08,-52.0123 1292.25,-58.7611 1294.68,-52.1949"/>
</g>
<!-- 71&#45;&gt;22 -->
<g id="edge89" class="edge"><title>71&#45;&gt;22</title>
<path fill="none" stroke="black" d="M4484.58,-257.721C4448.85,-252.171 4408.83,-246.802 4372,-243.783 3944.94,-208.768 2868.58,-273.55 2444,-215.783 2439.87,-215.22 2435.65,-214.518 2431.4,-213.714"/>
<polygon fill="black" stroke="black" points="2432.01,-210.265 2421.51,-211.671 2430.59,-217.12 2432.01,-210.265"/>
</g>
<!-- 72 -->
<g id="node58" class="node"><title>72</title>
<polygon fill="bisque" stroke="black" points="2616.23,-356.094 2616.23,-374.645 2488.98,-387.762 2309.02,-387.762 2181.77,-374.645 2181.77,-356.094 2309.02,-342.976 2488.98,-342.976 2616.23,-356.094"/>
<text text-anchor="middle" x="2399" y="-361.669" font-family="Times,serif" font-size="14.00">Class: ToJSON, Data: ActivationRequest</text>
</g>
<!-- 72&#45;&gt;5 -->
<g id="edge90" class="edge"><title>72&#45;&gt;5</title>
<path fill="none" stroke="black" d="M2181.63,-362.952C1922.01,-360.439 1513.94,-353.587 1445,-335.174 1419.19,-328.28 1392.68,-314.029 1372.76,-301.604"/>
<polygon fill="black" stroke="black" points="1374.41,-298.501 1364.1,-296.057 1370.63,-304.397 1374.41,-298.501"/>
</g>
<!-- 73 -->
<g id="node59" class="node"><title>73</title>
<polygon fill="bisque" stroke="black" points="3613.31,-652.485 3613.31,-671.036 3499.48,-684.154 3338.52,-684.154 3224.69,-671.036 3224.69,-652.485 3338.52,-639.368 3499.48,-639.368 3613.31,-652.485"/>
<text text-anchor="middle" x="3419" y="-658.061" font-family="Times,serif" font-size="14.00">Class: ToJSON, Data: ContentType</text>
</g>
<!-- 73&#45;&gt;123 -->
<g id="edge91" class="edge"><title>73&#45;&gt;123</title>
<path fill="none" stroke="black" d="M3552.1,-645.428C3575.37,-643.157 3599.37,-641.077 3622,-639.565 3893.73,-621.412 4577.59,-643.418 4847,-603.565 4944.19,-589.188 5212.46,-542.584 5265,-459.565 5292.66,-415.853 5286.94,-390.022 5265,-343.174 5259.06,-330.49 5249.25,-319.438 5238.58,-310.244"/>
<polygon fill="black" stroke="black" points="5240.69,-307.444 5230.71,-303.881 5236.29,-312.889 5240.69,-307.444"/>
</g>
<!-- 74 -->
<g id="node60" class="node"><title>74</title>
<polygon fill="bisque" stroke="black" points="4367.46,-356.094 4367.46,-374.645 4251.2,-387.762 4086.8,-387.762 3970.54,-374.645 3970.54,-356.094 4086.8,-342.976 4251.2,-342.976 4367.46,-356.094"/>
<text text-anchor="middle" x="4169" y="-361.669" font-family="Times,serif" font-size="14.00">Class: ToJSON, Data: LoginRequest</text>
</g>
<!-- 74&#45;&gt;7 -->
<g id="edge92" class="edge"><title>74&#45;&gt;7</title>
<path fill="none" stroke="black" stroke-width="1.69315" d="M4035.53,-348.751C4011.1,-346.448 3985.81,-344.431 3962,-343.174 3929.67,-341.467 1662.17,-343.918 1631,-335.174 1607.74,-328.65 1584.48,-314.593 1567.04,-302.171"/>
<polygon fill="black" stroke="black" stroke-width="1.69315" points="1569.11,-299.344 1558.98,-296.245 1564.96,-304.985 1569.11,-299.344"/>
</g>
<!-- 75 -->
<g id="node61" class="node"><title>75</title>
<polygon fill="bisque" stroke="black" points="4115.97,-184.311 4115.97,-202.862 3977.74,-215.98 3782.26,-215.98 3644.03,-202.862 3644.03,-184.311 3782.26,-171.194 3977.74,-171.194 4115.97,-184.311"/>
<text text-anchor="middle" x="3880" y="-189.887" font-family="Times,serif" font-size="14.00">Class: ToJSON, Data: PasswordResetRequest</text>
</g>
<!-- 75&#45;&gt;12 -->
<g id="edge93" class="edge"><title>75&#45;&gt;12</title>
<path fill="none" stroke="black" d="M3720.98,-176.995C3692.39,-174.714 3662.83,-172.697 3635,-171.391 3397.25,-160.237 2801.9,-170.364 2564,-163.391 2237.52,-153.823 1852.77,-131 1662.64,-118.951"/>
<polygon fill="black" stroke="black" points="1662.83,-115.456 1652.63,-118.315 1662.38,-122.442 1662.83,-115.456"/>
</g>
<!-- 76 -->
<g id="node62" class="node"><title>76</title>
<polygon fill="bisque" stroke="black" points="2479.52,-268.703 2479.52,-287.254 2362.64,-300.371 2197.36,-300.371 2080.48,-287.254 2080.48,-268.703 2197.36,-255.585 2362.64,-255.585 2479.52,-268.703"/>
<text text-anchor="middle" x="2280" y="-274.278" font-family="Times,serif" font-size="14.00">Class: ToJSON, Data: RequestResult</text>
</g>
<!-- 76&#45;&gt;14 -->
<g id="edge94" class="edge"><title>76&#45;&gt;14</title>
<path fill="none" stroke="black" stroke-width="1.69315" d="M2177.5,-257.8C2143.71,-252.254 2105.86,-246.869 2071,-243.783 1746.43,-215.047 928.477,-254.931 605,-215.783 599.839,-215.158 594.545,-214.373 589.227,-213.475"/>
<polygon fill="black" stroke="black" stroke-width="1.69315" points="589.464,-209.961 579,-211.622 588.216,-216.849 589.464,-209.961"/>
</g>
<!-- 115 -->
<g id="node85" class="node"><title>115</title>
<polygon fill="khaki" stroke="black" stroke-dasharray="5,2" points="5388.4,-747.889 5388.4,-766.415 5324.31,-779.515 5233.69,-779.515 5169.6,-766.415 5169.6,-747.889 5233.69,-734.789 5324.31,-734.789 5388.4,-747.889"/>
<polygon fill="none" stroke="black" stroke-dasharray="5,2" points="5392.39,-744.594 5392.39,-769.71 5324.71,-783.545 5233.29,-783.545 5165.61,-769.71 5165.61,-744.594 5233.29,-730.759 5324.71,-730.759 5392.39,-744.594"/>
<text text-anchor="middle" x="5279" y="-753.452" font-family="Times,serif" font-size="14.00">Class: ToJSON</text>
</g>
<!-- 76&#45;&gt;115 -->
<g id="edge95" class="edge"><title>76&#45;&gt;115</title>
<path fill="none" stroke="black" d="M2342.24,-300.267C2383.35,-313.19 2438.72,-328.45 2489,-335.174 2506.02,-337.449 4946.29,-334.32 4961,-343.174 4991.73,-361.672 4978.52,-384.927 4999,-414.369 5026.55,-453.961 5039.95,-458.662 5071,-495.565 5138.29,-575.533 5214.13,-672.325 5252.99,-722.43"/>
<polygon fill="black" stroke="black" points="5250.46,-724.883 5259.35,-730.645 5255.99,-720.596 5250.46,-724.883"/>
</g>
<!-- 77 -->
<g id="node63" class="node"><title>77</title>
<polygon fill="bisque" stroke="black" points="4805.44,-100.92 4805.44,-119.471 4696.81,-132.589 4543.19,-132.589 4434.56,-119.471 4434.56,-100.92 4543.19,-87.8026 4696.81,-87.8026 4805.44,-100.92"/>
<text text-anchor="middle" x="4620" y="-106.496" font-family="Times,serif" font-size="14.00">Class: ToJSON, Data: TypedPath</text>
</g>
<!-- 77&#45;&gt;16 -->
<g id="edge96" class="edge"><title>77&#45;&gt;16</title>
<path fill="none" stroke="black" d="M4505.58,-92.3243C4479.48,-89.0684 4451.82,-86.0862 4426,-84.1956 3892.48,-45.1385 2179.43,-36.7218 1777.14,-35.2669"/>
<polygon fill="black" stroke="black" points="1777.04,-31.7666 1767.03,-35.2308 1777.02,-38.7666 1777.04,-31.7666"/>
</g>
<!-- 78 -->
<g id="node64" class="node"><title>78</title>
<polygon fill="bisque" stroke="black" points="3024.07,-268.703 3024.07,-287.254 2869.97,-300.371 2652.03,-300.371 2497.93,-287.254 2497.93,-268.703 2652.03,-255.585 2869.97,-255.585 3024.07,-268.703"/>
<text text-anchor="middle" x="2761" y="-274.278" font-family="Times,serif" font-size="14.00">Class: ToJSON, Data: TypedPathWithCacheControl</text>
</g>
<!-- 78&#45;&gt;16 -->
<g id="edge97" class="edge"><title>78&#45;&gt;16</title>
<path fill="none" stroke="black" stroke-width="1.69315" d="M2623.9,-257.919C2580.81,-252.553 2532.99,-247.243 2489,-243.783 2445.38,-240.352 1733.24,-246.412 1702,-215.783 1680.91,-195.103 1685.4,-107.358 1689.27,-62.1591"/>
<polygon fill="black" stroke="black" stroke-width="1.69315" points="1692.76,-62.4409 1690.18,-52.1654 1685.79,-61.808 1692.76,-62.4409"/>
</g>
<!-- 78&#45;&gt;17 -->
<g id="edge98" class="edge"><title>78&#45;&gt;17</title>
<path fill="none" stroke="black" stroke-width="2.79176" d="M2624.96,-257.886C2581.59,-252.468 2533.35,-247.136 2489,-243.783 2068.24,-211.968 1960.15,-254.807 1540,-215.783 1531.5,-214.993 1522.73,-214.008 1513.93,-212.896"/>
<polygon fill="black" stroke="black" stroke-width="2.79176" points="1514.35,-209.423 1503.98,-211.592 1513.44,-216.363 1514.35,-209.423"/>
</g>
<!-- 79 -->
<g id="node65" class="node"><title>79</title>
<polygon fill="bisque" stroke="black" points="2855.08,-184.311 2855.08,-202.862 2737.29,-215.98 2570.71,-215.98 2452.92,-202.862 2452.92,-184.311 2570.71,-171.194 2737.29,-171.194 2855.08,-184.311"/>
<text text-anchor="middle" x="2654" y="-189.887" font-family="Times,serif" font-size="14.00">Class: ToSample, Data: ContentType</text>
</g>
<!-- 79&#45;&gt;6 -->
<g id="edge99" class="edge"><title>79&#45;&gt;6</title>
<path fill="none" stroke="black" d="M2654,-171.202C2654,-161.17 2654,-149.1 2654,-138.423"/>
<polygon fill="black" stroke="black" points="2657.5,-138.339 2654,-128.339 2650.5,-138.339 2657.5,-138.339"/>
</g>
<!-- 80 -->
<g id="node66" class="node"><title>80</title>
<polygon fill="bisque" stroke="black" points="2253.14,-184.311 2253.14,-202.862 2156.4,-215.98 2019.6,-215.98 1922.86,-202.862 1922.86,-184.311 2019.6,-171.194 2156.4,-171.194 2253.14,-184.311"/>
<text text-anchor="middle" x="2088" y="-189.887" font-family="Times,serif" font-size="14.00">Class: ToSample, Data: Path</text>
</g>
<!-- 80&#45;&gt;13 -->
<g id="edge100" class="edge"><title>80&#45;&gt;13</title>
<path fill="none" stroke="black" d="M1969.91,-177.927C1944.89,-175.314 1918.6,-172.936 1894,-171.391 1679.73,-157.94 1625.5,-172.595 1411,-163.391 1158.04,-152.537 857.976,-128.334 726.012,-117.115"/>
<polygon fill="black" stroke="black" points="726.306,-113.628 716.044,-116.265 725.711,-120.602 726.306,-113.628"/>
</g>
<!-- 81 -->
<g id="node67" class="node"><title>81</title>
<polygon fill="bisque" stroke="black" points="653.798,-268.703 653.798,-287.254 532.659,-300.371 361.341,-300.371 240.202,-287.254 240.202,-268.703 361.341,-255.585 532.659,-255.585 653.798,-268.703"/>
<text text-anchor="middle" x="447" y="-274.278" font-family="Times,serif" font-size="14.00">Class: ToSample, Data: RequestResult</text>
</g>
<!-- 81&#45;&gt;13 -->
<g id="edge101" class="edge"><title>81&#45;&gt;13</title>
<path fill="none" stroke="black" d="M430.383,-255.487C414.254,-231.875 395.154,-194.271 417,-171.391 430.289,-157.474 571.927,-169.997 590,-163.391 606.511,-157.356 622.263,-145.777 634.441,-135.056"/>
<polygon fill="black" stroke="black" points="636.905,-137.545 641.9,-128.201 632.169,-132.391 636.905,-137.545"/>
</g>
<!-- 81&#45;&gt;14 -->
<g id="edge102" class="edge"><title>81&#45;&gt;14</title>
<path fill="none" stroke="black" d="M463.482,-255.76C472.005,-244.787 482.467,-231.319 491.402,-219.816"/>
<polygon fill="black" stroke="black" points="494.219,-221.895 497.59,-211.851 488.691,-217.601 494.219,-221.895"/>
</g>
<!-- 89&#45;&gt;13 -->
<g id="edge103" class="edge"><title>89&#45;&gt;13</title>
<path fill="none" stroke="black" d="M680.85,-175.326C677.005,-164.535 671.972,-150.409 667.608,-138.163"/>
<polygon fill="black" stroke="black" points="670.795,-136.677 664.141,-128.432 664.201,-139.026 670.795,-136.677"/>
</g>
<!-- 90&#45;&gt;123 -->
<g id="edge104" class="edge"><title>90&#45;&gt;123</title>
<path fill="none" stroke="black" stroke-width="1.69315" d="M3952.37,-128.197C3967.86,-140.606 3990.76,-156.427 4014,-163.391 4056.58,-176.152 4769.98,-165.241 4814,-171.391 4923.83,-186.736 5046.81,-225.905 5120.77,-251.978"/>
<polygon fill="black" stroke="black" stroke-width="1.69315" points="5119.83,-255.36 5130.43,-255.407 5122.18,-248.764 5119.83,-255.36"/>
</g>
<!-- 92 -->
<g id="node71" class="node"><title>92</title>
<polygon fill="bisque" stroke="black" points="6997,-295.978 6903,-295.978 6903,-259.978 6997,-259.978 6997,-295.978"/>
<text text-anchor="middle" x="6950" y="-274.278" font-family="Times,serif" font-size="14.00">a3Info</text>
</g>
<!-- 91&#45;&gt;92 -->
<g id="edge105" class="edge"><title>91&#45;&gt;92</title>
<path fill="none" stroke="black" d="M6872.45,-347.254C6879.54,-343.659 6886.66,-339.599 6893,-335.174 6905.93,-326.152 6918.6,-314.088 6928.69,-303.452"/>
<polygon fill="black" stroke="black" points="6931.34,-305.743 6935.56,-296.023 6926.2,-300.993 6931.34,-305.743"/>
</g>
<!-- 93 -->
<g id="node72" class="node"><title>93</title>
<polygon fill="bisque" stroke="black" points="6884.5,-295.978 6725.5,-295.978 6725.5,-259.978 6884.5,-259.978 6884.5,-295.978"/>
<text text-anchor="middle" x="6805" y="-274.278" font-family="Times,serif" font-size="14.00">actionErrorA3Info</text>
</g>
<!-- 91&#45;&gt;93 -->
<g id="edge106" class="edge"><title>91&#45;&gt;93</title>
<path fill="none" stroke="black" d="M6825.74,-347.089C6822.14,-335.284 6817.31,-319.402 6813.21,-305.944"/>
<polygon fill="black" stroke="black" points="6816.51,-304.78 6810.25,-296.233 6809.82,-306.819 6816.51,-304.78"/>
</g>
<!-- 96 -->
<g id="node75" class="node"><title>96</title>
<polygon fill="cyan" stroke="black" points="7194.5,-295.978 7015.5,-295.978 7015.5,-259.978 7194.5,-259.978 7194.5,-295.978"/>
<text text-anchor="middle" x="7105" y="-274.278" font-family="Times,serif" font-size="14.00">mkA3StyleServantErr</text>
</g>
<!-- 91&#45;&gt;96 -->
<g id="edge107" class="edge"><title>91&#45;&gt;96</title>
<path fill="none" stroke="black" d="M6936.16,-352.97C6959.55,-348.75 6983.94,-342.998 7006,-335.174 7029.32,-326.905 7053.5,-313.287 7072.13,-301.528"/>
<polygon fill="black" stroke="black" points="7074.03,-304.468 7080.54,-296.109 7070.24,-298.585 7074.03,-304.468"/>
</g>
<!-- 94 -->
<g id="node73" class="node"><title>94</title>
<polygon fill="cyan" stroke="black" points="6914,-211.587 6796,-211.587 6796,-175.587 6914,-175.587 6914,-211.587"/>
<text text-anchor="middle" x="6855" y="-189.887" font-family="Times,serif" font-size="14.00">impossible</text>
</g>
<!-- 92&#45;&gt;94 -->
<g id="edge108" class="edge"><title>92&#45;&gt;94</title>
<path fill="none" stroke="black" d="M6930.32,-259.907C6916.43,-247.865 6897.65,-231.578 6882.32,-218.28"/>
<polygon fill="black" stroke="black" points="6884.51,-215.544 6874.66,-211.637 6879.92,-220.833 6884.51,-215.544"/>
</g>
<!-- 95 -->
<g id="node74" class="node"><title>95</title>
<polygon fill="bisque" stroke="black" points="7025.5,-211.587 6932.5,-211.587 6932.5,-175.587 7025.5,-175.587 7025.5,-211.587"/>
<text text-anchor="middle" x="6979" y="-189.887" font-family="Times,serif" font-size="14.00">mkA3</text>
</g>
<!-- 92&#45;&gt;95 -->
<g id="edge109" class="edge"><title>92&#45;&gt;95</title>
<path fill="none" stroke="black" d="M6956.01,-259.907C6959.94,-248.749 6965.15,-233.946 6969.61,-221.253"/>
<polygon fill="black" stroke="black" points="6972.98,-222.231 6973,-211.637 6966.38,-219.907 6972.98,-222.231"/>
</g>
<!-- 92&#45;&gt;98 -->
<g id="edge110" class="edge"><title>92&#45;&gt;98</title>
<path fill="none" stroke="black" stroke-width="2.94591" d="M6926.47,-259.918C6916.62,-253.689 6904.73,-247.311 6893,-243.783 6621.87,-162.251 5903.95,-181.42 5621,-171.391 5589.29,-170.267 5080.74,-171.228 5050,-163.391 5026.54,-157.411 5002.46,-144.885 4983.93,-133.604"/>
<polygon fill="black" stroke="black" stroke-width="2.94591" points="4985.63,-130.542 4975.3,-128.2 4981.92,-136.475 4985.63,-130.542"/>
</g>
<!-- 93&#45;&gt;94 -->
<g id="edge111" class="edge"><title>93&#45;&gt;94</title>
<path fill="none" stroke="black" d="M6815.36,-259.907C6822.27,-248.528 6831.47,-233.358 6839.27,-220.502"/>
<polygon fill="black" stroke="black" points="6842.46,-222.001 6844.65,-211.637 6836.47,-218.37 6842.46,-222.001"/>
</g>
<!-- 93&#45;&gt;95 -->
<g id="edge112" class="edge"><title>93&#45;&gt;95</title>
<path fill="none" stroke="black" stroke-width="2.09861" d="M6841.05,-259.907C6868,-247.147 6905.01,-229.62 6933.92,-215.934"/>
<polygon fill="black" stroke="black" stroke-width="2.09861" points="6935.45,-219.08 6942.99,-211.637 6932.46,-212.753 6935.45,-219.08"/>
</g>
<!-- 100 -->
<g id="node78" class="node"><title>100</title>
<polygon fill="cyan" stroke="black" points="6297.5,-52 6164.5,-52 6160.5,-48 6160.5,-16 6293.5,-16 6297.5,-20 6297.5,-52"/>
<polyline fill="none" stroke="black" points="6293.5,-48 6160.5,-48 "/>
<polyline fill="none" stroke="black" points="6293.5,-48 6293.5,-16 "/>
<polyline fill="none" stroke="black" points="6293.5,-48 6297.5,-52 "/>
<text text-anchor="middle" x="6229" y="-30.3" font-family="Times,serif" font-size="14.00">Data: A3Error</text>
</g>
<!-- 93&#45;&gt;100 -->
<g id="edge113" class="edge"><title>93&#45;&gt;100</title>
<path fill="none" stroke="black" d="M6794.77,-259.721C6787.64,-247.544 6778.01,-230.792 6770,-215.783 6757.76,-192.848 6754.78,-187.044 6744,-163.391 6728.18,-128.695 6741.61,-106.932 6711,-84.1956 6695.06,-72.357 6440.39,-51.2167 6307.84,-40.9381"/>
<polygon fill="black" stroke="black" points="6307.98,-37.4383 6297.74,-40.1572 6307.44,-44.4174 6307.98,-37.4383"/>
</g>
<!-- 101 -->
<g id="node79" class="node"><title>101</title>
<polygon fill="cyan" stroke="black" points="6642.5,-52 6461.5,-52 6457.5,-48 6457.5,-16 6638.5,-16 6642.5,-20 6642.5,-52"/>
<polyline fill="none" stroke="black" points="6638.5,-48 6457.5,-48 "/>
<polyline fill="none" stroke="black" points="6638.5,-48 6638.5,-16 "/>
<polyline fill="none" stroke="black" points="6638.5,-48 6642.5,-52 "/>
<text text-anchor="middle" x="6550" y="-30.3" font-family="Times,serif" font-size="14.00">Data: A3ErrorMessage</text>
</g>
<!-- 93&#45;&gt;101 -->
<g id="edge114" class="edge"><title>93&#45;&gt;101</title>
<path fill="none" stroke="black" d="M6799.82,-259.854C6785.7,-213.24 6747.33,-87.335 6744,-84.1956 6719.38,-60.9649 6685.4,-48.2906 6652.75,-41.5026"/>
<polygon fill="black" stroke="black" points="6653.16,-38.0162 6642.68,-39.5798 6651.84,-44.8921 6653.16,-38.0162"/>
</g>
<!-- 97 -->
<g id="node76" class="node"><title>97</title>
<polygon fill="bisque" stroke="black" points="7043.5,-128.196 6882.5,-128.196 6882.5,-92.1956 7043.5,-92.1956 7043.5,-128.196"/>
<text text-anchor="middle" x="6963" y="-106.496" font-family="Times,serif" font-size="14.00">mkSimpleA3Error</text>
</g>
<!-- 95&#45;&gt;97 -->
<g id="edge115" class="edge"><title>95&#45;&gt;97</title>
<path fill="none" stroke="black" d="M6975.61,-175.326C6973.51,-164.643 6970.76,-150.692 6968.37,-138.531"/>
<polygon fill="black" stroke="black" points="6971.75,-137.569 6966.39,-128.432 6964.88,-138.919 6971.75,-137.569"/>
</g>
<!-- 95&#45;&gt;101 -->
<g id="edge116" class="edge"><title>95&#45;&gt;101</title>
<path fill="none" stroke="black" d="M6936.8,-175.579C6932.18,-174.03 6927.52,-172.595 6923,-171.391 6901.25,-165.6 6893.39,-172.924 6873,-163.391 6824.43,-140.68 6829.98,-108.121 6782,-84.1956 6742,-64.2522 6694.21,-52.3765 6652.43,-45.3126"/>
<polygon fill="black" stroke="black" points="6652.94,-41.8488 6642.51,-43.7048 6651.82,-48.7588 6652.94,-41.8488"/>
</g>
<!-- 97&#45;&gt;100 -->
<g id="edge117" class="edge"><title>97&#45;&gt;100</title>
<path fill="none" stroke="black" stroke-width="2.38629" d="M6882.43,-99.639C6841.07,-94.8241 6789.86,-89.0033 6744,-84.1956 6589.63,-68.0127 6408.99,-51.26 6307.89,-42.0814"/>
<polygon fill="black" stroke="black" stroke-width="2.38629" points="6308.04,-38.5803 6297.76,-41.1628 6307.41,-45.5517 6308.04,-38.5803"/>
</g>
<!-- 110 -->
<g id="node80" class="node"><title>110</title>
<polygon fill="bisque" stroke="black" points="5430.97,-100.92 5430.97,-119.471 5322.03,-132.589 5167.97,-132.589 5059.03,-119.471 5059.03,-100.92 5167.97,-87.8026 5322.03,-87.8026 5430.97,-100.92"/>
<text text-anchor="middle" x="5245" y="-106.496" font-family="Times,serif" font-size="14.00">Class: FromJSON, Data: A3Error</text>
</g>
<!-- 110&#45;&gt;100 -->
<g id="edge118" class="edge"><title>110&#45;&gt;100</title>
<path fill="none" stroke="black" d="M5363.45,-92.7538C5388.68,-89.6036 5415.2,-86.5564 5440,-84.1956 5699.25,-59.5209 6007.66,-44.3966 6149.92,-38.2212"/>
<polygon fill="black" stroke="black" points="6150.44,-41.702 6160.28,-37.7744 6150.14,-34.7085 6150.44,-41.702"/>
</g>
<!-- 111 -->
<g id="node81" class="node"><title>111</title>
<polygon fill="bisque" stroke="black" points="5894.94,-100.92 5894.94,-119.471 5764.35,-132.589 5579.65,-132.589 5449.06,-119.471 5449.06,-100.92 5579.65,-87.8026 5764.35,-87.8026 5894.94,-100.92"/>
<text text-anchor="middle" x="5672" y="-106.496" font-family="Times,serif" font-size="14.00">Class: FromJSON, Data: A3ErrorMessage</text>
</g>
<!-- 111&#45;&gt;101 -->
<g id="edge119" class="edge"><title>111&#45;&gt;101</title>
<path fill="none" stroke="black" d="M5815.79,-92.9152C5844.66,-89.85 5874.78,-86.7947 5903,-84.1956 6005.7,-74.7363 6292.48,-53.6407 6447.48,-42.3939"/>
<polygon fill="black" stroke="black" points="6447.77,-45.8819 6457.49,-41.6676 6447.27,-38.9002 6447.77,-45.8819"/>
</g>
<!-- 112 -->
<g id="node82" class="node"><title>112</title>
<polygon fill="bisque" stroke="black" points="6261.51,-100.92 6261.51,-119.471 6159.28,-132.589 6014.72,-132.589 5912.49,-119.471 5912.49,-100.92 6014.72,-87.8026 6159.28,-87.8026 6261.51,-100.92"/>
<text text-anchor="middle" x="6087" y="-106.496" font-family="Times,serif" font-size="14.00">Class: ToJSON, Data: A3Error</text>
</g>
<!-- 112&#45;&gt;100 -->
<g id="edge120" class="edge"><title>112&#45;&gt;100</title>
<path fill="none" stroke="black" stroke-width="2.09861" d="M6127.69,-87.9341C6146.43,-78.1454 6168.63,-66.5457 6187.46,-56.7034"/>
<polygon fill="black" stroke="black" stroke-width="2.09861" points="6189.17,-59.7616 6196.41,-52.0285 6185.93,-53.5575 6189.17,-59.7616"/>
</g>
<!-- 113 -->
<g id="node83" class="node"><title>113</title>
<polygon fill="bisque" stroke="black" points="6702.48,-100.92 6702.48,-119.471 6578.6,-132.589 6403.4,-132.589 6279.52,-119.471 6279.52,-100.92 6403.4,-87.8026 6578.6,-87.8026 6702.48,-100.92"/>
<text text-anchor="middle" x="6491" y="-106.496" font-family="Times,serif" font-size="14.00">Class: ToJSON, Data: A3ErrorMessage</text>
</g>
<!-- 113&#45;&gt;101 -->
<g id="edge121" class="edge"><title>113&#45;&gt;101</title>
<path fill="none" stroke="black" d="M6508.07,-87.7352C6514.94,-79.0846 6522.93,-69.0454 6530.07,-60.0622"/>
<polygon fill="black" stroke="black" points="6532.85,-62.1847 6536.34,-52.1793 6527.38,-57.8279 6532.85,-62.1847"/>
</g>
<!-- 114&#45;&gt;47 -->
<g id="edge122" class="edge"><title>114&#45;&gt;47</title>
<path fill="none" stroke="navy" d="M4898.01,-755.373C4457.9,-752.421 2995.2,-740.754 2786,-714.956 2734.64,-708.623 2677.9,-695.497 2634.12,-683.993"/>
</g>
<!-- 114&#45;&gt;48 -->
<g id="edge123" class="edge"><title>114&#45;&gt;48</title>
<path fill="none" stroke="navy" d="M5026.18,-730.797C5033.86,-656.699 5044.66,-439.671 4923,-343.174 4911.95,-334.413 3921.99,-336.95 3908,-335.174 3854.08,-328.326 3794.46,-313.073 3750.14,-300.184"/>
</g>
<!-- 114&#45;&gt;49 -->
<g id="edge124" class="edge"><title>114&#45;&gt;49</title>
<path fill="none" stroke="navy" d="M5031.13,-730.892C5056.5,-649.802 5129.36,-398.159 5075,-343.174 5068.13,-336.23 4381.69,-336.386 4372,-335.174 4316.59,-328.239 4255.23,-313.035 4209.54,-300.188"/>
</g>
<!-- 114&#45;&gt;50 -->
<g id="edge125" class="edge"><title>114&#45;&gt;50</title>
<path fill="none" stroke="navy" d="M4919.22,-740.529C4900.08,-734.568 4881.09,-726.332 4865,-714.956 4831.97,-691.598 4847.14,-662.767 4814,-639.565 4731.85,-582.047 4078.44,-440.672 3824.46,-387.26"/>
</g>
<!-- 114&#45;&gt;51 -->
<g id="edge126" class="edge"><title>114&#45;&gt;51</title>
<path fill="none" stroke="navy" d="M4898.1,-753.634C4777.24,-749.756 4589.16,-739.915 4428,-714.956 4380.55,-707.608 4328.18,-694.992 4287.01,-684.004"/>
</g>
<!-- 114&#45;&gt;52 -->
<g id="edge127" class="edge"><title>114&#45;&gt;52</title>
<path fill="none" stroke="navy" d="M4928.44,-738.874C4915.81,-733.052 4904.1,-725.292 4895,-714.956 4856.63,-671.394 4871,-644.616 4871,-586.565 4871,-586.565 4871,-586.565 4871,-512.565 4871,-438.55 4792.53,-401.901 4719.27,-383.813"/>
</g>
<!-- 114&#45;&gt;53 -->
<g id="edge128" class="edge"><title>114&#45;&gt;53</title>
<path fill="none" stroke="navy" d="M5069.7,-730.903C5136.53,-694.654 5256.03,-629.389 5298,-603.565 5346.5,-573.719 5365.42,-573.457 5404,-531.565 5496.87,-430.727 5610.38,-342.251 5515,-243.783 5481.05,-208.728 4685.72,-218.575 4637,-215.783 4609.17,-214.188 4579.67,-212.109 4550.98,-209.876"/>
</g>
<!-- 114&#45;&gt;54 -->
<g id="edge129" class="edge"><title>114&#45;&gt;54</title>
<path fill="none" stroke="navy" d="M5023.78,-730.776C5024.58,-653.659 5014.78,-422.499 4874,-343.174 4857.04,-333.618 2090.31,-337.629 2071,-335.174 2018.21,-328.461 1959.91,-313.201 1916.6,-300.275"/>
</g>
<!-- 114&#45;&gt;55 -->
<g id="edge130" class="edge"><title>114&#45;&gt;55</title>
<path fill="none" stroke="navy" d="M5103.58,-736.15C5140.99,-726.71 5178.13,-717.049 5182,-714.956 5225.84,-691.263 5223.32,-666.881 5265,-639.565 5297.61,-618.194 5311.74,-623.905 5345,-603.565 5449.39,-539.735 5498.82,-527.68 5545,-414.369 5548.97,-404.619 5547.32,-244.13 5547,-243.783 5515.13,-209.707 5174.21,-222.224 5128,-215.783 5034.38,-202.733 5013.92,-182.072 4920,-171.391 4810.91,-158.986 4534.83,-177.861 4426,-163.391 4379,-157.143 4327.29,-144.017 4287.42,-132.491"/>
</g>
<!-- 114&#45;&gt;110 -->
<g id="edge131" class="edge"><title>114&#45;&gt;110</title>
<path fill="none" stroke="navy" d="M5098.02,-735.202C5117.12,-730.521 5137.71,-726.037 5157,-722.956 5204.53,-715.365 5219.05,-729.277 5265,-714.956 5358.45,-685.832 5378.18,-664.234 5455,-603.565 5524.57,-548.625 5538.69,-529.626 5593,-459.565 5607.48,-440.889 5614.53,-437.096 5621,-414.369 5641.76,-341.45 5664.8,-305.668 5621,-243.783 5602.98,-218.323 5423.93,-162.984 5319.55,-132.464"/>
</g>
<!-- 114&#45;&gt;111 -->
<g id="edge132" class="edge"><title>114&#45;&gt;111</title>
<path fill="none" stroke="navy" d="M5096.9,-735.017C5116.3,-730.249 5137.31,-725.77 5157,-722.956 5199.93,-716.822 5311.09,-729.356 5352,-714.956 5544.28,-647.275 5721,-646.409 5721,-442.565 5721,-442.565 5721,-442.565 5721,-276.978 5721,-223.256 5697.04,-163.609 5682.63,-132.587"/>
</g>
<!-- 115&#45;&gt;69 -->
<g id="edge133" class="edge"><title>115&#45;&gt;69</title>
<path fill="none" stroke="navy" d="M5213.17,-734.864C5195.15,-729.968 5175.49,-725.466 5157,-722.956 5050.15,-708.454 3323.04,-727.988 3216,-714.956 3166.62,-708.945 3112.18,-695.659 3070.44,-683.997"/>
</g>
<!-- 115&#45;&gt;70 -->
<g id="edge134" class="edge"><title>115&#45;&gt;70</title>
<path fill="none" stroke="navy" d="M5280.08,-730.794C5280.96,-681.254 5276.74,-569.968 5227,-495.565 5222.77,-489.232 5006.28,-345.405 4999,-343.174 4958.1,-330.647 3501.41,-340.786 3459,-335.174 3407.82,-328.4 3351.38,-313.143 3309.47,-300.234"/>
</g>
<!-- 115&#45;&gt;71 -->
<g id="edge135" class="edge"><title>115&#45;&gt;71</title>
<path fill="none" stroke="navy" d="M5327.73,-731.17C5333.04,-726.495 5337.7,-721.107 5341,-714.956 5356.83,-685.426 5349.06,-672.089 5341,-639.565 5301.04,-478.244 5265.63,-408.941 5113,-343.174 5082.78,-330.154 4849.6,-339.648 4817,-335.174 4763.97,-327.895 4705.33,-312.926 4661.36,-300.266"/>
</g>
<!-- 115&#45;&gt;72 -->
<g id="edge136" class="edge"><title>115&#45;&gt;72</title>
<path fill="none" stroke="navy" d="M5205.35,-736.379C5173.51,-727.587 5141.91,-718.44 5135,-714.956 5085.94,-690.207 5088.04,-659.921 5037,-639.565 4597.89,-464.451 3165.93,-394.489 2616.41,-373.657"/>
</g>
<!-- 115&#45;&gt;73 -->
<g id="edge137" class="edge"><title>115&#45;&gt;73</title>
<path fill="none" stroke="navy" d="M5212.85,-734.791C5194.92,-729.929 5175.38,-725.461 5157,-722.956 4988,-699.927 3791.15,-736.803 3622,-714.956 3575.26,-708.92 3523.87,-695.635 3484.48,-683.978"/>
</g>
<!-- 115&#45;&gt;74 -->
<g id="edge138" class="edge"><title>115&#45;&gt;74</title>
<path fill="none" stroke="navy" stroke-width="1.69315" d="M5224.35,-732.329C5215.42,-727.252 5206.61,-721.437 5199,-714.956 5106.7,-636.395 5135.63,-566.023 5037,-495.565 4950.53,-433.793 4913.85,-440.868 4809,-423.565 4714.04,-407.894 4471.5,-426.325 4376,-414.369 4331.52,-408.801 4282.64,-397.706 4243.55,-387.585"/>
</g>
<!-- 115&#45;&gt;75 -->
<g id="edge139" class="edge"><title>115&#45;&gt;75</title>
<path fill="none" stroke="navy" d="M5375.97,-741.07C5405.94,-734.512 5433.78,-725.81 5444,-714.956 5589.2,-560.795 5663.23,-395.03 5515,-243.783 5487.97,-216.201 4163.56,-217.837 4125,-215.783 4097.71,-214.329 4068.76,-212.278 4040.67,-210.018"/>
</g>
<!-- 115&#45;&gt;76 -->
<g id="edge140" class="edge"><title>115&#45;&gt;76</title>
<path fill="none" stroke="navy" stroke-width="1.69315" d="M5341.22,-734.07C5348.67,-728.917 5355.3,-722.622 5360,-714.956 5394.53,-658.653 5377.03,-622.92 5341,-567.565 5285.51,-482.317 5043.31,-356.78 4994,-343.174 4960.46,-333.92 2523.48,-339.785 2489,-335.174 2438.72,-328.451 2383.35,-313.191 2342.24,-300.268"/>
</g>
<!-- 115&#45;&gt;77 -->
<g id="edge141" class="edge"><title>115&#45;&gt;77</title>
<path fill="none" stroke="navy" d="M5387.1,-743.463C5420.88,-737.292 5457.72,-728.221 5490,-714.956 5585.29,-675.796 5683,-689.589 5683,-586.565 5683,-586.565 5683,-586.565 5683,-364.369 5683,-304.106 5670.02,-278.839 5621,-243.783 5440.87,-114.954 5348.62,-190.685 5128,-171.391 5004.42,-160.584 4972.06,-179.028 4849,-163.391 4797.32,-156.825 4740.2,-143.814 4695.93,-132.426"/>
</g>
<!-- 115&#45;&gt;78 -->
<g id="edge142" class="edge"><title>115&#45;&gt;78</title>
<path fill="none" stroke="navy" d="M5381.37,-742.147C5395.28,-735.927 5407.89,-727.187 5417,-714.956 5456.14,-662.427 5442.88,-627.742 5417,-567.565 5391.13,-507.416 5219.76,-367.489 5151,-343.174 5123.27,-333.367 3062.26,-338.221 3033,-335.174 2968.13,-328.419 2895.89,-313.116 2842.16,-300.183"/>
</g>
<!-- 115&#45;&gt;112 -->
<g id="edge143" class="edge"><title>115&#45;&gt;112</title>
<path fill="none" stroke="navy" d="M5392.65,-749.505C5577.53,-735.545 5923,-694.956 5923,-586.565 5923,-586.565 5923,-586.565 5923,-276.978 5923,-209.165 5993.21,-159.12 6041.75,-132.622"/>
</g>
<!-- 115&#45;&gt;113 -->
<g id="edge144" class="edge"><title>115&#45;&gt;113</title>
<path fill="none" stroke="navy" d="M5392.54,-754.056C5498.3,-750.475 5659.97,-740.834 5798,-714.956 5993.2,-678.362 6226,-785.162 6226,-586.565 6226,-586.565 6226,-586.565 6226,-276.978 6226,-195.983 6316.07,-153.08 6391.19,-131.384"/>
</g>
<!-- 116 -->
<g id="node86" class="node"><title>116</title>
<polygon fill="khaki" stroke="black" stroke-dasharray="5,2" points="2113.32,-747.889 2113.32,-766.415 2035.81,-779.515 1926.19,-779.515 1848.68,-766.415 1848.68,-747.889 1926.19,-734.789 2035.81,-734.789 2113.32,-747.889"/>
<polygon fill="none" stroke="black" stroke-dasharray="5,2" points="2117.32,-744.478 2117.32,-769.826 2036.14,-783.545 1925.86,-783.545 1844.68,-769.826 1844.68,-744.478 1925.86,-730.759 2036.14,-730.759 2117.32,-744.478"/>
<text text-anchor="middle" x="1981" y="-753.452" font-family="Times,serif" font-size="14.00">Class: HasDocExtras</text>
</g>
<!-- 116&#45;&gt;35 -->
<g id="edge145" class="edge"><title>116&#45;&gt;35</title>
<path fill="none" stroke="navy" stroke-width="2.60944" d="M1981,-730.632C1981,-716.051 1981,-697.974 1981,-684.143"/>
</g>
<!-- 122 -->
<g id="node87" class="node"><title>122</title>
<polygon fill="khaki" stroke="black" stroke-dasharray="1,5" points="5499.27,-268.715 5499.27,-287.241 5444.05,-300.341 5365.95,-300.341 5310.73,-287.241 5310.73,-268.715 5365.95,-255.616 5444.05,-255.616 5499.27,-268.715"/>
<polygon fill="none" stroke="black" stroke-dasharray="1,5" points="5503.28,-265.525 5503.28,-290.432 5444.52,-304.371 5365.48,-304.371 5306.72,-290.432 5306.72,-265.525 5365.48,-251.585 5444.52,-251.585 5503.28,-265.525"/>
<text text-anchor="middle" x="5405" y="-274.278" font-family="Times,serif" font-size="14.00">Class: Read</text>
</g>
<!-- 122&#45;&gt;57 -->
<g id="edge146" class="edge"><title>122&#45;&gt;57</title>
<path fill="none" stroke="navy" d="M5401.41,-304.284C5395.01,-341.729 5378.58,-412.526 5341,-459.565 5266.2,-553.206 5227.58,-568.399 5113,-603.565 4994.5,-639.935 4121.63,-630.615 3998,-639.565 3977.03,-641.083 3954.8,-643.167 3933.24,-645.438"/>
</g>
<!-- 122&#45;&gt;58 -->
<g id="edge147" class="edge"><title>122&#45;&gt;58</title>
<path fill="none" stroke="navy" d="M5410.6,-304.198C5420.03,-353.825 5433.16,-465.096 5379,-531.565 5308.37,-618.235 5005.67,-646.799 4804.81,-656.19"/>
</g>
<!-- 123&#45;&gt;66 -->
<g id="edge148" class="edge"><title>123&#45;&gt;66</title>
<path fill="none" stroke="navy" d="M5128.75,-255.817C5112.51,-250.921 5094.75,-246.386 5078,-243.783 4876.73,-212.502 3448.28,-228.644 3245,-215.783 3223.39,-214.415 3200.45,-212.368 3178.26,-210.076"/>
</g>
<!-- 123&#45;&gt;67 -->
<g id="edge149" class="edge"><title>123&#45;&gt;67</title>
<path fill="none" stroke="navy" stroke-width="2.09861" d="M5128.75,-255.863C5112.5,-250.967 5094.75,-246.421 5078,-243.783 4761.18,-193.874 3955.07,-236.243 3635,-215.783 3612.91,-214.371 3589.47,-212.309 3566.78,-210.019"/>
</g>
<!-- 125 -->
<g id="node89" class="node"><title>125</title>
<polygon fill="khaki" stroke="black" stroke-dasharray="1,5" points="5065.18,-268.715 5065.18,-287.241 4997.12,-300.341 4900.88,-300.341 4832.82,-287.241 4832.82,-268.715 4900.88,-255.616 4997.12,-255.616 5065.18,-268.715"/>
<polygon fill="none" stroke="black" stroke-dasharray="1,5" points="5069.17,-265.381 5069.17,-290.575 4997.5,-304.371 4900.5,-304.371 4828.83,-290.575 4828.83,-265.381 4900.5,-251.585 4997.5,-251.585 5069.17,-265.381"/>
<text text-anchor="middle" x="4949" y="-274.278" font-family="Times,serif" font-size="14.00">Class: ToSample</text>
</g>
<!-- 125&#45;&gt;79 -->
<g id="edge150" class="edge"><title>125&#45;&gt;79</title>
<path fill="none" stroke="navy" d="M4877.99,-255.913C4858.41,-250.984 4837.03,-246.409 4817,-243.783 4386.86,-187.39 3298.11,-240.597 2865,-215.783 2841.02,-214.408 2815.55,-212.358 2790.92,-210.065"/>
</g>
<!-- 125&#45;&gt;80 -->
<g id="edge151" class="edge"><title>125&#45;&gt;80</title>
<path fill="none" stroke="navy" d="M4878,-255.869C4858.41,-250.94 4837.04,-246.376 4817,-243.783 4537.65,-207.627 2563.18,-232.655 2282,-215.783 2257.31,-214.301 2230.93,-211.941 2205.82,-209.324"/>
</g>
<!-- 125&#45;&gt;81 -->
<g id="edge152" class="edge"><title>125&#45;&gt;81</title>
<path fill="none" stroke="navy" d="M4901.68,-304.324C4875.04,-317.643 4840.66,-332.392 4808,-339.174 4780.15,-344.957 740.262,-342.395 712,-339.174 647.141,-331.782 575.05,-314.527 522.453,-300.217"/>
</g>
</g>
</svg>
