<?xml version="1.0" encoding="UTF-8" standalone="no"?>
<!DOCTYPE svg PUBLIC "-//W3C//DTD SVG 1.1//EN"
 "http://www.w3.org/Graphics/SVG/1.1/DTD/svg11.dtd">
<!-- Generated by graphviz version 2.38.0 (20140413.2041)
 -->
<!-- Title: Overall core Pages: 1 -->
<svg width="984pt" height="273pt"
 viewBox="0.00 0.00 984.00 272.70" xmlns="http://www.w3.org/2000/svg" xmlns:xlink="http://www.w3.org/1999/xlink">
<g id="graph0" class="graph" transform="scale(1 1) rotate(0) translate(4 268.705)">
<title>Overall core</title>
<polygon fill="white" stroke="none" points="-4,4 -4,-268.705 980,-268.705 980,4 -4,4"/>
<g id="clust1" class="cluster"><title>cluster_Class_FromJSON</title>
<path fill="#ffc1c1" stroke="black" d="M20,-8C20,-8 472,-8 472,-8 478,-8 484,-14 484,-20 484,-20 484,-244.705 484,-244.705 484,-250.705 478,-256.705 472,-256.705 472,-256.705 20,-256.705 20,-256.705 14,-256.705 8,-250.705 8,-244.705 8,-244.705 8,-20 8,-20 8,-14 14,-8 20,-8"/>
<text text-anchor="middle" x="246" y="-241.505" font-family="Times,serif" font-size="14.00">Class: FromJSON</text>
</g>
<g id="clust2" class="cluster"><title>cluster_Class_FromJSON_Data_RequestResult</title>
<path fill="#c6e2ff" stroke="black" d="M28,-119.352C28,-119.352 464,-119.352 464,-119.352 470,-119.352 476,-125.352 476,-131.352 476,-131.352 476,-213.705 476,-213.705 476,-219.705 470,-225.705 464,-225.705 464,-225.705 28,-225.705 28,-225.705 22,-225.705 16,-219.705 16,-213.705 16,-213.705 16,-131.352 16,-131.352 16,-125.352 22,-119.352 28,-119.352"/>
<text text-anchor="middle" x="246" y="-210.505" font-family="Times,serif" font-size="14.00">Instance for: RequestResult</text>
</g>
<g id="clust3" class="cluster"><title>cluster_Class_ToJSON</title>
<path fill="#ffc1c1" stroke="black" d="M504,-8C504,-8 956,-8 956,-8 962,-8 968,-14 968,-20 968,-20 968,-244.705 968,-244.705 968,-250.705 962,-256.705 956,-256.705 956,-256.705 504,-256.705 504,-256.705 498,-256.705 492,-250.705 492,-244.705 492,-244.705 492,-20 492,-20 492,-14 498,-8 504,-8"/>
<text text-anchor="middle" x="730" y="-241.505" font-family="Times,serif" font-size="14.00">Class: ToJSON</text>
</g>
<g id="clust4" class="cluster"><title>cluster_Class_ToJSON_Data_RequestResult</title>
<path fill="#c6e2ff" stroke="black" d="M512,-119.352C512,-119.352 948,-119.352 948,-119.352 954,-119.352 960,-125.352 960,-131.352 960,-131.352 960,-213.705 960,-213.705 960,-219.705 954,-225.705 948,-225.705 948,-225.705 512,-225.705 512,-225.705 506,-225.705 500,-219.705 500,-213.705 500,-213.705 500,-131.352 500,-131.352 500,-125.352 506,-119.352 512,-119.352"/>
<text text-anchor="middle" x="730" y="-210.505" font-family="Times,serif" font-size="14.00">Instance for: RequestResult</text>
</g>
<!-- 54 -->
<g id="node1" class="node"><title>54</title>
<polygon fill="bisque" stroke="black" points="467.913,-147.006 467.913,-175.051 337.919,-194.882 154.081,-194.882 24.0872,-175.051 24.0872,-147.006 154.081,-127.175 337.919,-127.175 467.913,-147.006"/>
<text text-anchor="middle" x="246" y="-164.828" font-family="Times,serif" font-size="14.00">Thentos.Adhocracy3.Backend.Api.Simple</text>
<text text-anchor="middle" x="246" y="-149.828" font-family="Times,serif" font-size="14.00">parseJSON</text>
</g>
<!-- 121 -->
<g id="node2" class="node"><title>121</title>
<polygon fill="khaki" stroke="black" stroke-dasharray="1,5" points="366.858,-39.6615 366.858,-67.6908 296.061,-87.5105 195.939,-87.5105 125.142,-67.6908 125.142,-39.6615 195.939,-19.8418 296.061,-19.8418 366.858,-39.6615"/>
<polygon fill="none" stroke="black" stroke-dasharray="1,5" points="370.856,-36.609 370.856,-70.7433 296.607,-91.5293 195.393,-91.5293 121.144,-70.7433 121.144,-36.609 195.393,-15.823 296.607,-15.823 370.856,-36.609"/>
<text text-anchor="middle" x="246" y="-57.4761" font-family="Times,serif" font-size="14.00">Unknown Module</text>
<text text-anchor="middle" x="246" y="-42.4761" font-family="Times,serif" font-size="14.00">parseJSON</text>
</g>
<!-- 54&#45;&gt;121 -->
<g id="edge1" class="edge"><title>54&#45;&gt;121</title>
<path fill="none" stroke="black" d="M239.699,-127.272C239.314,-119.11 239.176,-110.2 239.287,-101.505"/>
<polygon fill="black" stroke="black" points="242.787,-101.536 239.531,-91.4539 235.789,-101.366 242.787,-101.536"/>
</g>
<!-- 121&#45;&gt;54 -->
<g id="edge3" class="edge"><title>121&#45;&gt;54</title>
<path fill="none" stroke="navy" d="M252.469,-91.4539C252.893,-103.112 252.837,-115.916 252.301,-127.272"/>
</g>
<!-- 76 -->
<g id="node3" class="node"><title>76</title>
<polygon fill="bisque" stroke="black" points="951.913,-147.006 951.913,-175.051 821.919,-194.882 638.081,-194.882 508.087,-175.051 508.087,-147.006 638.081,-127.175 821.919,-127.175 951.913,-147.006"/>
<text text-anchor="middle" x="730" y="-164.828" font-family="Times,serif" font-size="14.00">Thentos.Adhocracy3.Backend.Api.Simple</text>
<text text-anchor="middle" x="730" y="-149.828" font-family="Times,serif" font-size="14.00">toJSON</text>
</g>
<!-- 124 -->
<g id="node4" class="node"><title>124</title>
<polygon fill="khaki" stroke="black" stroke-dasharray="1,5" points="850.858,-39.6615 850.858,-67.6908 780.061,-87.5105 679.939,-87.5105 609.142,-67.6908 609.142,-39.6615 679.939,-19.8418 780.061,-19.8418 850.858,-39.6615"/>
<polygon fill="none" stroke="black" stroke-dasharray="1,5" points="854.856,-36.609 854.856,-70.7433 780.607,-91.5293 679.393,-91.5293 605.144,-70.7433 605.144,-36.609 679.393,-15.823 780.607,-15.823 854.856,-36.609"/>
<text text-anchor="middle" x="730" y="-57.4761" font-family="Times,serif" font-size="14.00">Unknown Module</text>
<text text-anchor="middle" x="730" y="-42.4761" font-family="Times,serif" font-size="14.00">toJSON</text>
</g>
<!-- 76&#45;&gt;124 -->
<g id="edge2" class="edge"><title>76&#45;&gt;124</title>
<path fill="none" stroke="black" d="M723.699,-127.272C723.314,-119.11 723.176,-110.2 723.287,-101.505"/>
<polygon fill="black" stroke="black" points="726.787,-101.536 723.531,-91.4539 719.789,-101.366 726.787,-101.536"/>
</g>
<!-- 124&#45;&gt;76 -->
<g id="edge4" class="edge"><title>124&#45;&gt;76</title>
<path fill="none" stroke="navy" stroke-width="1.69315" d="M736.469,-91.4539C736.893,-103.112 736.837,-115.916 736.301,-127.272"/>
</g>
</g>
</svg>
