<?xml version="1.0" encoding="UTF-8" standalone="no"?>
<!DOCTYPE svg PUBLIC "-//W3C//DTD SVG 1.1//EN"
 "http://www.w3.org/Graphics/SVG/1.1/DTD/svg11.dtd">
<!-- Generated by graphviz version 2.38.0 (20140413.2041)
 -->
<!-- Title: Import visualisation Pages: 1 -->
<svg width="186pt" height="388pt"
 viewBox="0.00 0.00 186.00 388.00" xmlns="http://www.w3.org/2000/svg" xmlns:xlink="http://www.w3.org/1999/xlink">
<g id="graph0" class="graph" transform="scale(1 1) rotate(0) translate(4 384)">
<title>Import visualisation</title>
<polygon fill="white" stroke="none" points="-4,4 -4,-384 182,-384 182,4 -4,4"/>
<g id="clust1" class="cluster"><title>cluster_Thentos</title>
<polygon fill="lavender" stroke="black" points="8,-8 8,-372 170,-372 170,-8 8,-8"/>
<text text-anchor="middle" x="89" y="-356.8" font-family="Times,serif" font-size="14.00">Thentos</text>
</g>
<g id="clust2" class="cluster"><title>cluster_Adhocracy3</title>
<polygon fill="snow" stroke="black" points="16,-16 16,-297 162,-297 162,-16 16,-16"/>
<text text-anchor="middle" x="89" y="-281.8" font-family="Times,serif" font-size="14.00">Adhocracy3</text>
</g>
<g id="clust3" class="cluster"><title>cluster_Backend</title>
<polygon fill="lavender" stroke="black" points="24,-88 24,-266 154,-266 154,-88 24,-88"/>
<text text-anchor="middle" x="89" y="-250.8" font-family="Times,serif" font-size="14.00">Backend</text>
</g>
<g id="clust4" class="cluster"><title>cluster_Api</title>
<polygon fill="snow" stroke="black" points="32,-160 32,-235 146,-235 146,-160 32,-160"/>
<text text-anchor="middle" x="89" y="-219.8" font-family="Times,serif" font-size="14.00">Api</text>
</g>
<!-- 2 -->
<g id="node1" class="node"><title>2</title>
<polygon fill="bisque" stroke="black" points="138,-204 52,-204 52,-208 40,-208 40,-168 138,-168 138,-204"/>
<polyline fill="none" stroke="black" points="40,-204 52,-204 "/>
<text text-anchor="middle" x="89" y="-182.3" font-family="Times,serif" font-size="14.00">Simple</text>
</g>
<!-- 3 -->
<g id="node2" class="node"><title>3</title>
<polygon fill="bisque" stroke="black" points="124.5,-132 51.5,-132 51.5,-136 39.5,-136 39.5,-96 124.5,-96 124.5,-132"/>
<polyline fill="none" stroke="black" points="39.5,-132 51.5,-132 "/>
<text text-anchor="middle" x="82" y="-110.3" font-family="Times,serif" font-size="14.00">Core</text>
</g>
<!-- 2&#45;&gt;3 -->
<g id="edge2" class="edge"><title>2&#45;&gt;3</title>
<path fill="none" stroke="black" d="M87.2697,-167.697C86.4983,-159.983 85.5712,-150.712 84.7112,-142.112"/>
<polygon fill="black" stroke="black" points="88.1882,-141.706 83.7104,-132.104 81.2229,-142.403 88.1882,-141.706"/>
</g>
<!-- 4 -->
<g id="node3" class="node"><title>4</title>
<polygon fill="cyan" stroke="black" points="141,-60 61,-60 61,-64 49,-64 49,-24 141,-24 141,-60"/>
<polyline fill="none" stroke="black" points="49,-60 61,-60 "/>
<text text-anchor="middle" x="95" y="-38.3" font-family="Times,serif" font-size="14.00">Types</text>
</g>
<!-- 2&#45;&gt;4 -->
<g id="edge3" class="edge"><title>2&#45;&gt;4</title>
<path fill="none" stroke="black" d="M111.596,-167.963C122.059,-158.635 133.396,-146.107 139,-132 146.22,-113.826 146.382,-106.109 139,-88 135.926,-80.4589 130.912,-73.4945 125.349,-67.4103"/>
<polygon fill="black" stroke="black" points="127.666,-64.7782 118.113,-60.1971 122.724,-69.7358 127.666,-64.7782"/>
</g>
<!-- 3&#45;&gt;4 -->
<g id="edge4" class="edge"><title>3&#45;&gt;4</title>
<path fill="none" stroke="black" d="M85.2135,-95.6966C86.6461,-87.9827 88.3677,-78.7125 89.9648,-70.1124"/>
<polygon fill="black" stroke="black" points="93.4386,-70.5753 91.8235,-60.1043 86.5563,-69.2971 93.4386,-70.5753"/>
</g>
<!-- 1 -->
<g id="node4" class="node"><title>1</title>
<polygon fill="gold" stroke="black" points="151.5,-341 38.5,-341 38.5,-345 26.5,-345 26.5,-305 151.5,-305 151.5,-341"/>
<polyline fill="none" stroke="black" points="26.5,-341 38.5,-341 "/>
<text text-anchor="middle" x="89" y="-319.3" font-family="Times,serif" font-size="14.00">Adhocracy3</text>
</g>
<!-- 1&#45;&gt;2 -->
<g id="edge1" class="edge"><title>1&#45;&gt;2</title>
<path fill="none" stroke="chartreuse" d="M89,-304.902C89,-282.103 89,-241.479 89,-214.386"/>
<polygon fill="chartreuse" stroke="chartreuse" points="92.5001,-214.385 89,-204.385 85.5001,-214.385 92.5001,-214.385"/>
</g>
</g>
</svg>
