<?xml version="1.0" encoding="UTF-8" standalone="no"?>
<!DOCTYPE svg PUBLIC "-//W3C//DTD SVG 1.1//EN"
 "http://www.w3.org/Graphics/SVG/1.1/DTD/svg11.dtd">
<!-- Generated by graphviz version 2.38.0 (20140413.2041)
 -->
<!-- Title: Levels within Thentos.Adhocracy3.Backend.Api.Simple Pages: 1 -->
<svg width="13077pt" height="413pt"
 viewBox="0.00 0.00 13077.00 413.10" xmlns="http://www.w3.org/2000/svg" xmlns:xlink="http://www.w3.org/1999/xlink">
<g id="graph0" class="graph" transform="scale(1 1) rotate(0) translate(4 409.096)">
<title>Levels within Thentos.Adhocracy3.Backend.Api.Simple</title>
<polygon fill="white" stroke="none" points="-4,4 -4,-409.096 13073,-409.096 13073,4 -4,4"/>
<g id="clust1" class="cluster"><title>cluster_0</title>
<polygon fill="lavender" stroke="black" points="4222,-8 4222,-305.705 8309,-305.705 8309,-8 4222,-8"/>
<text text-anchor="middle" x="6265.5" y="-290.505" font-family="Times,serif" font-size="14.00">Exported root entities</text>
</g>
<g id="clust2" class="cluster"><title>cluster_1</title>
<polygon fill="lavender" stroke="black" points="8,-313.705 8,-397.096 12646,-397.096 12646,-313.705 8,-313.705"/>
<text text-anchor="middle" x="6327" y="-381.896" font-family="Times,serif" font-size="14.00">Level = 1</text>
</g>
<g id="clust3" class="cluster"><title>cluster_2</title>
<polygon fill="lavender" stroke="black" points="2627,-99.6761 2627,-286.028 3954,-286.028 3954,-99.6761 2627,-99.6761"/>
<text text-anchor="middle" x="3290.5" y="-270.828" font-family="Times,serif" font-size="14.00">Level = 2</text>
</g>
<g id="clust4" class="cluster"><title>cluster_3</title>
<polygon fill="lavender" stroke="black" points="8317,-99.6761 8317,-286.028 8823,-286.028 8823,-99.6761 8317,-99.6761"/>
<text text-anchor="middle" x="8570" y="-270.828" font-family="Times,serif" font-size="14.00">Level = 3</text>
</g>
<g id="clust5" class="cluster"><title>cluster_4</title>
<polygon fill="lavender" stroke="black" points="12654,-317.9 12654,-392.9 13061,-392.9 13061,-317.9 12654,-317.9"/>
<text text-anchor="middle" x="12857.5" y="-377.7" font-family="Times,serif" font-size="14.00">Level = 4</text>
</g>
<!-- 1 -->
<g id="node1" class="node"><title>1</title>
<polygon fill="goldenrod" stroke="black" stroke-width="2" points="7163,-255.028 7009,-255.028 7005,-251.028 7005,-219.028 7159,-219.028 7163,-223.028 7163,-255.028"/>
<polyline fill="none" stroke="black" stroke-width="2" points="7159,-251.028 7005,-251.028 "/>
<polyline fill="none" stroke="black" stroke-width="2" points="7159,-251.028 7159,-219.028 "/>
<polyline fill="none" stroke="black" stroke-width="2" points="7159,-251.028 7163,-255.028 "/>
<text text-anchor="middle" x="7084" y="-233.328" font-family="Times,serif" font-size="14.00">Data: A3Resource</text>
</g>
<!-- 2 -->
<g id="node2" class="node"><title>2</title>
<polygon fill="goldenrod" stroke="black" stroke-width="2" points="5626,-255.028 5456,-255.028 5452,-251.028 5452,-219.028 5622,-219.028 5626,-223.028 5626,-255.028"/>
<polyline fill="none" stroke="black" stroke-width="2" points="5622,-251.028 5452,-251.028 "/>
<polyline fill="none" stroke="black" stroke-width="2" points="5622,-251.028 5622,-219.028 "/>
<polyline fill="none" stroke="black" stroke-width="2" points="5622,-251.028 5626,-255.028 "/>
<text text-anchor="middle" x="5539" y="-233.328" font-family="Times,serif" font-size="14.00">Data: A3UserNoPass</text>
</g>
<!-- 3 -->
<g id="node3" class="node"><title>3</title>
<polygon fill="goldenrod" stroke="black" stroke-width="2" points="6987.5,-255.028 6806.5,-255.028 6802.5,-251.028 6802.5,-219.028 6983.5,-219.028 6987.5,-223.028 6987.5,-255.028"/>
<polyline fill="none" stroke="black" stroke-width="2" points="6983.5,-251.028 6802.5,-251.028 "/>
<polyline fill="none" stroke="black" stroke-width="2" points="6983.5,-251.028 6983.5,-219.028 "/>
<polyline fill="none" stroke="black" stroke-width="2" points="6983.5,-251.028 6987.5,-255.028 "/>
<text text-anchor="middle" x="6895" y="-233.328" font-family="Times,serif" font-size="14.00">Data: A3UserWithPass</text>
</g>
<!-- 4 -->
<g id="node4" class="node"><title>4</title>
<polygon fill="goldenrod" stroke="black" stroke-width="2" points="5166,-255.028 4978,-255.028 4974,-251.028 4974,-219.028 5162,-219.028 5166,-223.028 5166,-255.028"/>
<polyline fill="none" stroke="black" stroke-width="2" points="5162,-251.028 4974,-251.028 "/>
<polyline fill="none" stroke="black" stroke-width="2" points="5162,-251.028 5162,-219.028 "/>
<polyline fill="none" stroke="black" stroke-width="2" points="5162,-251.028 5166,-255.028 "/>
<text text-anchor="middle" x="5070" y="-233.328" font-family="Times,serif" font-size="14.00">Data: ActivationRequest</text>
</g>
<!-- 5 -->
<g id="node5" class="node"><title>5</title>
<polygon fill="goldenrod" stroke="black" stroke-width="2" points="5806,-255.028 5648,-255.028 5644,-251.028 5644,-219.028 5802,-219.028 5806,-223.028 5806,-255.028"/>
<polyline fill="none" stroke="black" stroke-width="2" points="5802,-251.028 5644,-251.028 "/>
<polyline fill="none" stroke="black" stroke-width="2" points="5802,-251.028 5802,-219.028 "/>
<polyline fill="none" stroke="black" stroke-width="2" points="5802,-251.028 5806,-255.028 "/>
<text text-anchor="middle" x="5725" y="-233.328" font-family="Times,serif" font-size="14.00">Data: ContentType</text>
</g>
<!-- 6 -->
<g id="node6" class="node"><title>6</title>
<polygon fill="goldenrod" stroke="black" stroke-width="2" points="4955.5,-255.028 4792.5,-255.028 4788.5,-251.028 4788.5,-219.028 4951.5,-219.028 4955.5,-223.028 4955.5,-255.028"/>
<polyline fill="none" stroke="black" stroke-width="2" points="4951.5,-251.028 4788.5,-251.028 "/>
<polyline fill="none" stroke="black" stroke-width="2" points="4951.5,-251.028 4951.5,-219.028 "/>
<polyline fill="none" stroke="black" stroke-width="2" points="4951.5,-251.028 4955.5,-255.028 "/>
<text text-anchor="middle" x="4872" y="-233.328" font-family="Times,serif" font-size="14.00">Data: LoginRequest</text>
</g>
<!-- 11 -->
<g id="node7" class="node"><title>11</title>
<polygon fill="goldenrod" stroke="black" stroke-width="2" points="4447.5,-255.028 4234.5,-255.028 4230.5,-251.028 4230.5,-219.028 4443.5,-219.028 4447.5,-223.028 4447.5,-255.028"/>
<polyline fill="none" stroke="black" stroke-width="2" points="4443.5,-251.028 4230.5,-251.028 "/>
<polyline fill="none" stroke="black" stroke-width="2" points="4443.5,-251.028 4443.5,-219.028 "/>
<polyline fill="none" stroke="black" stroke-width="2" points="4443.5,-251.028 4447.5,-255.028 "/>
<text text-anchor="middle" x="4339" y="-233.328" font-family="Times,serif" font-size="14.00">Data: PasswordResetRequest</text>
</g>
<!-- 12 -->
<g id="node8" class="node"><title>12</title>
<polygon fill="goldenrod" stroke="black" stroke-width="2" points="4582,-255.028 4470,-255.028 4466,-251.028 4466,-219.028 4578,-219.028 4582,-223.028 4582,-255.028"/>
<polyline fill="none" stroke="black" stroke-width="2" points="4578,-251.028 4466,-251.028 "/>
<polyline fill="none" stroke="black" stroke-width="2" points="4578,-251.028 4578,-219.028 "/>
<polyline fill="none" stroke="black" stroke-width="2" points="4578,-251.028 4582,-255.028 "/>
<text text-anchor="middle" x="4524" y="-233.328" font-family="Times,serif" font-size="14.00">Data: Path</text>
</g>
<!-- 13 -->
<g id="node9" class="node"><title>13</title>
<polygon fill="goldenrod" stroke="black" stroke-width="2" points="4770,-255.028 4604,-255.028 4600,-251.028 4600,-219.028 4766,-219.028 4770,-223.028 4770,-255.028"/>
<polyline fill="none" stroke="black" stroke-width="2" points="4766,-251.028 4600,-251.028 "/>
<polyline fill="none" stroke="black" stroke-width="2" points="4766,-251.028 4766,-219.028 "/>
<polyline fill="none" stroke="black" stroke-width="2" points="4766,-251.028 4770,-255.028 "/>
<text text-anchor="middle" x="4685" y="-233.328" font-family="Times,serif" font-size="14.00">Data: RequestResult</text>
</g>
<!-- 15 -->
<g id="node10" class="node"><title>15</title>
<polygon fill="goldenrod" stroke="black" stroke-width="2" points="7603,-255.028 7457,-255.028 7453,-251.028 7453,-219.028 7599,-219.028 7603,-223.028 7603,-255.028"/>
<polyline fill="none" stroke="black" stroke-width="2" points="7599,-251.028 7453,-251.028 "/>
<polyline fill="none" stroke="black" stroke-width="2" points="7599,-251.028 7599,-219.028 "/>
<polyline fill="none" stroke="black" stroke-width="2" points="7599,-251.028 7603,-255.028 "/>
<text text-anchor="middle" x="7528" y="-233.328" font-family="Times,serif" font-size="14.00">Data: TypedPath</text>
</g>
<!-- 16 -->
<g id="node11" class="node"><title>16</title>
<polygon fill="goldenrod" stroke="black" stroke-width="2" points="7434.5,-255.028 7185.5,-255.028 7181.5,-251.028 7181.5,-219.028 7430.5,-219.028 7434.5,-223.028 7434.5,-255.028"/>
<polyline fill="none" stroke="black" stroke-width="2" points="7430.5,-251.028 7181.5,-251.028 "/>
<polyline fill="none" stroke="black" stroke-width="2" points="7430.5,-251.028 7430.5,-219.028 "/>
<polyline fill="none" stroke="black" stroke-width="2" points="7430.5,-251.028 7434.5,-255.028 "/>
<text text-anchor="middle" x="7308" y="-233.328" font-family="Times,serif" font-size="14.00">Data: TypedPathWithCacheControl</text>
</g>
<!-- 17 -->
<g id="node12" class="node"><title>17</title>
<polygon fill="goldenrod" stroke="black" stroke-width="2" points="6249.5,-255.028 6102.5,-255.028 6102.5,-219.028 6249.5,-219.028 6249.5,-255.028"/>
<text text-anchor="middle" x="6176" y="-233.328" font-family="Times,serif" font-size="14.00">a3ProxyAdapter</text>
</g>
<!-- 18 -->
<g id="node23" class="node"><title>18</title>
<polygon fill="bisque" stroke="black" stroke-width="2" points="2328,-361.9 2192,-361.9 2192,-325.9 2328,-325.9 2328,-361.9"/>
<text text-anchor="middle" x="2260" y="-340.2" font-family="Times,serif" font-size="14.00">a3RenderUser</text>
</g>
<!-- 17&#45;&gt;18 -->
<g id="edge1" class="edge"><title>17&#45;&gt;18</title>
<path fill="none" stroke="black" d="M6161.56,-255.22C6146.43,-271.763 6121.01,-295.697 6093,-305.705 6043.87,-323.253 2388.3,-304.249 2337,-313.705 2326.88,-315.57 2316.36,-318.696 2306.46,-322.226"/>
<polygon fill="black" stroke="black" points="2304.94,-319.058 2296.82,-325.858 2307.41,-325.609 2304.94,-319.058"/>
</g>
<!-- 58 -->
<g id="node40" class="node"><title>58</title>
<polygon fill="cyan" stroke="black" stroke-width="2" points="7417,-361.9 7235,-361.9 7235,-325.9 7417,-325.9 7417,-361.9"/>
<text text-anchor="middle" x="7326" y="-340.2" font-family="Times,serif" font-size="14.00">renderA3HeaderName</text>
</g>
<!-- 17&#45;&gt;58 -->
<g id="edge2" class="edge"><title>17&#45;&gt;58</title>
<path fill="none" stroke="black" d="M6190.24,-255.179C6205.15,-271.692 6230.25,-295.602 6258,-305.705 6283.27,-314.903 7199.4,-309.788 7226,-313.705 7239.75,-315.729 7254.26,-319.169 7267.83,-322.992"/>
<polygon fill="black" stroke="black" points="7266.94,-326.378 7277.52,-325.829 7268.9,-319.66 7266.94,-326.378"/>
</g>
<!-- 23 -->
<g id="node13" class="node"><title>23</title>
<polygon fill="goldenrod" stroke="black" stroke-width="2" points="5282,-52 5154,-52 5154,-16 5282,-16 5282,-52"/>
<text text-anchor="middle" x="5218" y="-30.3" font-family="Times,serif" font-size="14.00">a3corsPolicy</text>
</g>
<!-- 61 -->
<g id="node14" class="node"><title>61</title>
<polygon fill="gold" stroke="black" stroke-width="2" points="5948,-255.028 5824,-255.028 5824,-219.028 5948,-219.028 5948,-255.028"/>
<text text-anchor="middle" x="5886" y="-233.328" font-family="Times,serif" font-size="14.00">runBackend</text>
</g>
<!-- 64 -->
<g id="node15" class="node"><title>64</title>
<polygon fill="goldenrod" stroke="black" stroke-width="2" points="5271.5,-143.676 5164.5,-143.676 5164.5,-107.676 5271.5,-107.676 5271.5,-143.676"/>
<text text-anchor="middle" x="5218" y="-121.976" font-family="Times,serif" font-size="14.00">serveApi</text>
</g>
<!-- 61&#45;&gt;64 -->
<g id="edge66" class="edge"><title>61&#45;&gt;64</title>
<path fill="none" stroke="black" d="M5858.65,-218.994C5845.85,-211.793 5830.11,-204.011 5815,-199.352 5627.05,-141.422 5392.46,-129.395 5281.63,-127.084"/>
<polygon fill="black" stroke="black" points="5281.68,-123.584 5271.62,-126.894 5281.55,-130.583 5281.68,-123.584"/>
</g>
<!-- 97 -->
<g id="node20" class="node"><title>97</title>
<polygon fill="khaki" stroke="black" stroke-dasharray="1,5" points="4475.86,-111.662 4475.86,-139.691 4405.06,-159.51 4304.94,-159.51 4234.14,-139.691 4234.14,-111.662 4304.94,-91.8418 4405.06,-91.8418 4475.86,-111.662"/>
<polygon fill="none" stroke="black" stroke-dasharray="1,5" points="4479.86,-108.609 4479.86,-142.743 4405.61,-163.529 4304.39,-163.529 4230.14,-142.743 4230.14,-108.609 4304.39,-87.823 4405.61,-87.823 4479.86,-108.609"/>
<text text-anchor="middle" x="4355" y="-129.476" font-family="Times,serif" font-size="14.00">Unknown Module</text>
<text text-anchor="middle" x="4355" y="-114.476" font-family="Times,serif" font-size="14.00">Class: Show</text>
</g>
<!-- 61&#45;&gt;97 -->
<g id="edge67" class="edge"><title>61&#45;&gt;97</title>
<path fill="none" stroke="black" d="M5859.46,-218.877C5846.57,-211.464 5830.54,-203.541 5815,-199.352 5799.11,-195.068 4849.16,-149.953 4490.29,-133.036"/>
<polygon fill="black" stroke="black" points="4490.26,-129.531 4480.11,-132.556 4489.93,-136.523 4490.26,-129.531"/>
</g>
<!-- 64&#45;&gt;23 -->
<g id="edge68" class="edge"><title>64&#45;&gt;23</title>
<path fill="none" stroke="black" d="M5218,-107.386C5218,-94.6076 5218,-76.956 5218,-62.283"/>
<polygon fill="black" stroke="black" points="5221.5,-62.2373 5218,-52.2374 5214.5,-62.2374 5221.5,-62.2373"/>
</g>
<!-- 26 -->
<g id="node26" class="node"><title>26</title>
<polygon fill="bisque" stroke="black" stroke-width="2" points="6746.5,-361.9 6671.5,-361.9 6671.5,-325.9 6746.5,-325.9 6746.5,-361.9"/>
<text text-anchor="middle" x="6709" y="-340.2" font-family="Times,serif" font-size="14.00">api</text>
</g>
<!-- 64&#45;&gt;26 -->
<g id="edge69" class="edge"><title>64&#45;&gt;26</title>
<path fill="none" stroke="black" d="M5164.32,-129.604C4959.41,-140.904 4237.22,-181.906 4221,-199.352 4188.81,-233.969 4187.63,-272.227 4221,-305.705 4232.97,-317.711 6645.71,-309.027 6662,-313.705 6667.42,-315.262 6672.83,-317.642 6677.95,-320.385"/>
<polygon fill="black" stroke="black" points="6676.4,-323.532 6686.78,-325.616 6679.96,-317.509 6676.4,-323.532"/>
</g>
<!-- 67 -->
<g id="node16" class="node"><title>67</title>
<polygon fill="goldenrod" stroke="black" stroke-width="2" points="6084,-255.028 5966,-255.028 5966,-219.028 6084,-219.028 6084,-255.028"/>
<text text-anchor="middle" x="6025" y="-233.328" font-family="Times,serif" font-size="14.00">thentosApi</text>
</g>
<!-- 24 -->
<g id="node24" class="node"><title>24</title>
<polygon fill="bisque" stroke="black" stroke-width="2" points="1173.5,-361.9 1072.5,-361.9 1072.5,-325.9 1173.5,-325.9 1173.5,-361.9"/>
<text text-anchor="middle" x="1123" y="-340.2" font-family="Times,serif" font-size="14.00">activate</text>
</g>
<!-- 67&#45;&gt;24 -->
<g id="edge72" class="edge"><title>67&#45;&gt;24</title>
<path fill="none" stroke="black" d="M6013.87,-255.143C6002.03,-271.626 5981.62,-295.515 5957,-305.705 5926.37,-318.381 1215.3,-306.235 1183,-313.705 1175.55,-315.427 1167.95,-318.202 1160.78,-321.372"/>
<polygon fill="black" stroke="black" points="1158.84,-318.42 1151.32,-325.879 1161.85,-324.74 1158.84,-318.42"/>
</g>
<!-- 25 -->
<g id="node25" class="node"><title>25</title>
<polygon fill="bisque" stroke="black" stroke-width="2" points="7217,-361.9 7113,-361.9 7113,-325.9 7217,-325.9 7217,-361.9"/>
<text text-anchor="middle" x="7165" y="-340.2" font-family="Times,serif" font-size="14.00">addUser</text>
</g>
<!-- 67&#45;&gt;25 -->
<g id="edge73" class="edge"><title>67&#45;&gt;25</title>
<path fill="none" stroke="black" d="M6036.14,-255.11C6047.99,-271.569 6068.41,-295.438 6093,-305.705 6118.92,-316.524 7076.64,-307.38 7104,-313.705 7111.47,-315.431 7119.1,-318.178 7126.32,-321.31"/>
<polygon fill="black" stroke="black" points="7125.32,-324.705 7135.86,-325.763 7128.28,-318.362 7125.32,-324.705"/>
</g>
<!-- 39 -->
<g id="node28" class="node"><title>39</title>
<polygon fill="bisque" stroke="black" stroke-width="2" points="1684,-361.9 1598,-361.9 1598,-325.9 1684,-325.9 1684,-361.9"/>
<text text-anchor="middle" x="1641" y="-340.2" font-family="Times,serif" font-size="14.00">login</text>
</g>
<!-- 67&#45;&gt;39 -->
<g id="edge74" class="edge"><title>67&#45;&gt;39</title>
<path fill="none" stroke="black" stroke-width="1.69315" d="M6013.87,-255.142C6002.03,-271.625 5981.62,-295.513 5957,-305.705 5929.64,-317.029 1721.64,-306.186 1693,-313.705 1686.69,-315.361 1680.34,-317.97 1674.34,-320.963"/>
<polygon fill="black" stroke="black" stroke-width="1.69315" points="1672.39,-318.043 1665.28,-325.9 1675.74,-324.19 1672.39,-318.043"/>
</g>
<!-- 59 -->
<g id="node41" class="node"><title>59</title>
<polygon fill="bisque" stroke="black" stroke-width="2" points="1054,-361.9 918,-361.9 918,-325.9 1054,-325.9 1054,-361.9"/>
<text text-anchor="middle" x="986" y="-340.2" font-family="Times,serif" font-size="14.00">resetPassword</text>
</g>
<!-- 67&#45;&gt;59 -->
<g id="edge75" class="edge"><title>67&#45;&gt;59</title>
<path fill="none" stroke="black" d="M6013.87,-255.143C6002.03,-271.627 5981.62,-295.516 5957,-305.705 5925.6,-318.699 1096.42,-307.552 1063,-313.705 1052.88,-315.568 1042.36,-318.693 1032.46,-322.222"/>
<polygon fill="black" stroke="black" points="1030.94,-319.054 1022.82,-325.854 1033.41,-325.605 1030.94,-319.054"/>
</g>
<!-- 90 -->
<g id="node17" class="node"><title>90</title>
<polygon fill="khaki" stroke="black" stroke-dasharray="5,2" points="8297.11,-223.014 8297.11,-251.043 8178.72,-270.863 8011.28,-270.863 7892.89,-251.043 7892.89,-223.014 8011.28,-203.194 8178.72,-203.194 8297.11,-223.014"/>
<polygon fill="none" stroke="black" stroke-dasharray="5,2" points="8301.11,-219.609 8301.11,-254.447 8179.05,-274.882 8010.95,-274.882 7888.89,-254.447 7888.89,-219.609 8010.95,-199.175 8179.05,-199.175 8301.11,-219.609"/>
<text text-anchor="middle" x="8095" y="-240.828" font-family="Times,serif" font-size="14.00">Thentos.Backend.Api.Docs.Common</text>
<text text-anchor="middle" x="8095" y="-225.828" font-family="Times,serif" font-size="14.00">Class: HasDocExtras</text>
</g>
<!-- 34 -->
<g id="node27" class="node"><title>34</title>
<polygon fill="cyan" stroke="black" stroke-width="2" points="12637.7,-334.625 12637.7,-353.176 12503.7,-366.293 12314.3,-366.293 12180.3,-353.176 12180.3,-334.625 12314.3,-321.507 12503.7,-321.507 12637.7,-334.625"/>
<text text-anchor="middle" x="12409" y="-340.2" font-family="Times,serif" font-size="14.00">Class: HasDocExtras, Data: (RestDocs Api)</text>
</g>
<!-- 90&#45;&gt;34 -->
<g id="edge96" class="edge"><title>90&#45;&gt;34</title>
<path fill="none" stroke="navy" stroke-width="2.60944" d="M8187.72,-273.524C8225.91,-286.37 8270.98,-299.288 8313,-305.705 8418.94,-321.883 12064,-307.057 12171,-313.705 12207.4,-315.964 12246.7,-320.09 12282.7,-324.542"/>
</g>
<!-- 95 -->
<g id="node18" class="node"><title>95</title>
<polygon fill="khaki" stroke="black" stroke-dasharray="1,5" points="6780.86,-223.014 6780.86,-251.043 6710.06,-270.863 6609.94,-270.863 6539.14,-251.043 6539.14,-223.014 6609.94,-203.194 6710.06,-203.194 6780.86,-223.014"/>
<polygon fill="none" stroke="black" stroke-dasharray="1,5" points="6784.86,-219.961 6784.86,-254.096 6710.61,-274.882 6609.39,-274.882 6535.14,-254.096 6535.14,-219.961 6609.39,-199.175 6710.61,-199.175 6784.86,-219.961"/>
<text text-anchor="middle" x="6660" y="-240.828" font-family="Times,serif" font-size="14.00">Unknown Module</text>
<text text-anchor="middle" x="6660" y="-225.828" font-family="Times,serif" font-size="14.00">Class: FromJSON</text>
</g>
<!-- 46 -->
<g id="node29" class="node"><title>46</title>
<polygon fill="bisque" stroke="black" stroke-width="2" points="10055.2,-334.625 10055.2,-353.176 9927.98,-366.293 9748.02,-366.293 9620.77,-353.176 9620.77,-334.625 9748.02,-321.507 9927.98,-321.507 10055.2,-334.625"/>
<text text-anchor="middle" x="9838" y="-340.2" font-family="Times,serif" font-size="14.00">Class: FromJSON, Data: (A3Resource a)</text>
</g>
<!-- 95&#45;&gt;46 -->
<g id="edge97" class="edge"><title>95&#45;&gt;46</title>
<path fill="none" stroke="navy" d="M6715.78,-273.513C6739.02,-286.315 6766.88,-299.204 6794,-305.705 6832.06,-314.828 9572.95,-311.137 9612,-313.705 9646.54,-315.976 9683.87,-320.105 9718.05,-324.557"/>
</g>
<!-- 47 -->
<g id="node30" class="node"><title>47</title>
<polygon fill="bisque" stroke="black" stroke-width="2" points="6653.14,-334.625 6653.14,-353.176 6527.11,-366.293 6348.89,-366.293 6222.86,-353.176 6222.86,-334.625 6348.89,-321.507 6527.11,-321.507 6653.14,-334.625"/>
<text text-anchor="middle" x="6438" y="-340.2" font-family="Times,serif" font-size="14.00">Class: FromJSON, Data: A3UserNoPass</text>
</g>
<!-- 95&#45;&gt;47 -->
<g id="edge98" class="edge"><title>95&#45;&gt;47</title>
<path fill="none" stroke="navy" d="M6596.36,-271.277C6574.24,-282.536 6549.18,-294.969 6526,-305.705 6514.41,-311.073 6501.83,-316.577 6489.91,-321.649"/>
</g>
<!-- 48 -->
<g id="node31" class="node"><title>48</title>
<polygon fill="bisque" stroke="black" stroke-width="2" points="8743.47,-334.625 8743.47,-353.176 8612.57,-366.293 8427.43,-366.293 8296.53,-353.176 8296.53,-334.625 8427.43,-321.507 8612.57,-321.507 8743.47,-334.625"/>
<text text-anchor="middle" x="8520" y="-340.2" font-family="Times,serif" font-size="14.00">Class: FromJSON, Data: A3UserWithPass</text>
</g>
<!-- 95&#45;&gt;48 -->
<g id="edge99" class="edge"><title>95&#45;&gt;48</title>
<path fill="none" stroke="navy" d="M6715.79,-273.478C6739.03,-286.275 6766.89,-299.17 6794,-305.705 6834.32,-315.422 8245.61,-311.01 8287,-313.705 8322.6,-316.022 8361.08,-320.166 8396.32,-324.617"/>
</g>
<!-- 49 -->
<g id="node32" class="node"><title>49</title>
<polygon fill="bisque" stroke="black" stroke-width="2" points="4466.69,-334.625 4466.69,-353.176 4332.73,-366.293 4143.27,-366.293 4009.31,-353.176 4009.31,-334.625 4143.27,-321.507 4332.73,-321.507 4466.69,-334.625"/>
<text text-anchor="middle" x="4238" y="-340.2" font-family="Times,serif" font-size="14.00">Class: FromJSON, Data: ActivationRequest</text>
</g>
<!-- 95&#45;&gt;49 -->
<g id="edge100" class="edge"><title>95&#45;&gt;49</title>
<path fill="none" stroke="navy" d="M6604.22,-273.498C6580.97,-286.298 6553.12,-299.19 6526,-305.705 6470.63,-319.007 4532.83,-310.12 4476,-313.705 4439.65,-315.997 4400.34,-320.133 4364.35,-324.585"/>
</g>
<!-- 50 -->
<g id="node33" class="node"><title>50</title>
<polygon fill="cyan" stroke="black" stroke-width="2" points="9602.77,-334.625 9602.77,-353.176 9482.23,-366.293 9311.77,-366.293 9191.23,-353.176 9191.23,-334.625 9311.77,-321.507 9482.23,-321.507 9602.77,-334.625"/>
<text text-anchor="middle" x="9397" y="-340.2" font-family="Times,serif" font-size="14.00">Class: FromJSON, Data: ContentType</text>
</g>
<!-- 95&#45;&gt;50 -->
<g id="edge101" class="edge"><title>95&#45;&gt;50</title>
<path fill="none" stroke="navy" d="M6715.78,-273.506C6739.02,-286.307 6766.88,-299.197 6794,-305.705 6826.25,-313.444 9148.91,-311.413 9182,-313.705 9214.98,-315.989 9250.61,-320.137 9283.2,-324.604"/>
</g>
<!-- 51 -->
<g id="node34" class="node"><title>51</title>
<polygon fill="bisque" stroke="black" stroke-width="2" points="3576.92,-334.625 3576.92,-353.176 3453.95,-366.293 3280.05,-366.293 3157.08,-353.176 3157.08,-334.625 3280.05,-321.507 3453.95,-321.507 3576.92,-334.625"/>
<text text-anchor="middle" x="3367" y="-340.2" font-family="Times,serif" font-size="14.00">Class: FromJSON, Data: LoginRequest</text>
</g>
<!-- 95&#45;&gt;51 -->
<g id="edge102" class="edge"><title>95&#45;&gt;51</title>
<path fill="none" stroke="navy" d="M6604.22,-273.515C6580.98,-286.317 6553.12,-299.206 6526,-305.705 6486.29,-315.22 3626.74,-310.945 3586,-313.705 3552.42,-315.979 3516.13,-320.125 3482.93,-324.591"/>
</g>
<!-- 52 -->
<g id="node35" class="node"><title>52</title>
<polygon fill="bisque" stroke="black" stroke-width="2" points="900.427,-334.625 900.427,-353.176 755.488,-366.293 550.512,-366.293 405.573,-353.176 405.573,-334.625 550.512,-321.507 755.488,-321.507 900.427,-334.625"/>
<text text-anchor="middle" x="653" y="-340.2" font-family="Times,serif" font-size="14.00">Class: FromJSON, Data: PasswordResetRequest</text>
</g>
<!-- 95&#45;&gt;52 -->
<g id="edge103" class="edge"><title>95&#45;&gt;52</title>
<path fill="none" stroke="navy" d="M6604.22,-273.533C6580.98,-286.337 6553.12,-299.223 6526,-305.705 6488.06,-314.77 947.943,-311.463 909,-313.705 869.924,-315.954 827.652,-320.076 788.935,-324.528"/>
</g>
<!-- 53 -->
<g id="node36" class="node"><title>53</title>
<polygon fill="bisque" stroke="black" stroke-width="2" points="8278.48,-334.625 8278.48,-353.176 8154.6,-366.293 7979.4,-366.293 7855.52,-353.176 7855.52,-334.625 7979.4,-321.507 8154.6,-321.507 8278.48,-334.625"/>
<text text-anchor="middle" x="8067" y="-340.2" font-family="Times,serif" font-size="14.00">Class: FromJSON, Data: RequestResult</text>
</g>
<!-- 95&#45;&gt;53 -->
<g id="edge104" class="edge"><title>95&#45;&gt;53</title>
<path fill="none" stroke="navy" d="M6721.47,-272.014C6745.96,-285.266 6774.88,-298.894 6803,-305.705 6859.8,-319.463 7796.69,-309.647 7855,-313.705 7887.43,-315.961 7922.37,-319.88 7954.37,-324.128"/>
</g>
<!-- 54 -->
<g id="node37" class="node"><title>54</title>
<polygon fill="bisque" stroke="black" stroke-width="2" points="11400.9,-334.625 11400.9,-353.176 11285.6,-366.293 11122.4,-366.293 11007.1,-353.176 11007.1,-334.625 11122.4,-321.507 11285.6,-321.507 11400.9,-334.625"/>
<text text-anchor="middle" x="11204" y="-340.2" font-family="Times,serif" font-size="14.00">Class: FromJSON, Data: TypedPath</text>
</g>
<!-- 95&#45;&gt;54 -->
<g id="edge105" class="edge"><title>95&#45;&gt;54</title>
<path fill="none" stroke="navy" d="M6715.78,-273.526C6739.02,-286.33 6766.88,-299.217 6794,-305.705 6850.79,-319.288 10939.8,-309.542 10998,-313.705 11029.6,-315.964 11063.8,-320.105 11095,-324.572"/>
</g>
<!-- 96 -->
<g id="node19" class="node"><title>96</title>
<polygon fill="khaki" stroke="black" stroke-dasharray="1,5" points="7866.86,-223.014 7866.86,-251.043 7796.06,-270.863 7695.94,-270.863 7625.14,-251.043 7625.14,-223.014 7695.94,-203.194 7796.06,-203.194 7866.86,-223.014"/>
<polygon fill="none" stroke="black" stroke-dasharray="1,5" points="7870.86,-219.961 7870.86,-254.096 7796.61,-274.882 7695.39,-274.882 7621.14,-254.096 7621.14,-219.961 7695.39,-199.175 7796.61,-199.175 7870.86,-219.961"/>
<text text-anchor="middle" x="7746" y="-240.828" font-family="Times,serif" font-size="14.00">Unknown Module</text>
<text text-anchor="middle" x="7746" y="-225.828" font-family="Times,serif" font-size="14.00">Class: Read</text>
</g>
<!-- 56 -->
<g id="node38" class="node"><title>56</title>
<polygon fill="cyan" stroke="black" stroke-width="2" points="12162.2,-334.625 12162.2,-353.176 12057.2,-366.293 11908.8,-366.293 11803.8,-353.176 11803.8,-334.625 11908.8,-321.507 12057.2,-321.507 12162.2,-334.625"/>
<text text-anchor="middle" x="11983" y="-340.2" font-family="Times,serif" font-size="14.00">Class: Read, Data: ContentType</text>
</g>
<!-- 96&#45;&gt;56 -->
<g id="edge106" class="edge"><title>96&#45;&gt;56</title>
<path fill="none" stroke="navy" d="M7801.78,-273.524C7825.02,-286.328 7852.88,-299.215 7880,-305.705 7932.88,-318.358 11740.8,-309.465 11795,-313.705 11824,-315.971 11855.2,-320.129 11883.8,-324.611"/>
</g>
<!-- 57 -->
<g id="node39" class="node"><title>57</title>
<polygon fill="cyan" stroke="black" stroke-width="2" points="11785.9,-334.625 11785.9,-353.176 11678.2,-366.293 11525.8,-366.293 11418.1,-353.176 11418.1,-334.625 11525.8,-321.507 11678.2,-321.507 11785.9,-334.625"/>
<text text-anchor="middle" x="11602" y="-340.2" font-family="Times,serif" font-size="14.00">Class: Read, Data: PropertySheet</text>
</g>
<!-- 96&#45;&gt;57 -->
<g id="edge107" class="edge"><title>96&#45;&gt;57</title>
<path fill="none" stroke="navy" d="M7801.78,-273.521C7825.02,-286.324 7852.88,-299.212 7880,-305.705 7927.68,-317.119 11361.1,-309.953 11410,-313.705 11439.4,-315.962 11471.2,-320.087 11500.2,-324.539"/>
</g>
<!-- 65 -->
<g id="node42" class="node"><title>65</title>
<polygon fill="bisque" stroke="black" stroke-width="2" points="2708.28,-334.625 2708.28,-353.176 2602.09,-366.293 2451.91,-366.293 2345.72,-353.176 2345.72,-334.625 2451.91,-321.507 2602.09,-321.507 2708.28,-334.625"/>
<text text-anchor="middle" x="2527" y="-340.2" font-family="Times,serif" font-size="14.00">Class: Show, Data: ContentType</text>
</g>
<!-- 97&#45;&gt;65 -->
<g id="edge108" class="edge"><title>97&#45;&gt;65</title>
<path fill="none" stroke="navy" d="M4229.99,-138.716C4184.91,-148.735 4136.66,-166.828 4102,-199.352 4065.4,-233.702 4104.95,-276.671 4064,-305.705 4048.74,-316.526 2735.65,-312.224 2717,-313.705 2687.89,-316.015 2656.48,-320.157 2627.75,-324.608"/>
</g>
<!-- 66 -->
<g id="node43" class="node"><title>66</title>
<polygon fill="bisque" stroke="black" stroke-width="2" points="387.968,-334.625 387.968,-353.176 279.031,-366.293 124.969,-366.293 16.0317,-353.176 16.0317,-334.625 124.969,-321.507 279.031,-321.507 387.968,-334.625"/>
<text text-anchor="middle" x="202" y="-340.2" font-family="Times,serif" font-size="14.00">Class: Show, Data: PropertySheet</text>
</g>
<!-- 97&#45;&gt;66 -->
<g id="edge109" class="edge"><title>97&#45;&gt;66</title>
<path fill="none" stroke="navy" stroke-width="2.09861" d="M4229.72,-137.527C4137.7,-148.002 4022.89,-167.127 3988,-199.352 3951.92,-232.673 3997.13,-276.02 3958,-305.705 3948.15,-313.178 409.329,-312.773 397,-313.705 366.962,-315.975 334.533,-320.134 304.906,-324.615"/>
</g>
<!-- 98 -->
<g id="node21" class="node"><title>98</title>
<polygon fill="khaki" stroke="black" stroke-dasharray="1,5" points="5429.86,-223.014 5429.86,-251.043 5359.06,-270.863 5258.94,-270.863 5188.14,-251.043 5188.14,-223.014 5258.94,-203.194 5359.06,-203.194 5429.86,-223.014"/>
<polygon fill="none" stroke="black" stroke-dasharray="1,5" points="5433.86,-219.961 5433.86,-254.096 5359.61,-274.882 5258.39,-274.882 5184.14,-254.096 5184.14,-219.961 5258.39,-199.175 5359.61,-199.175 5433.86,-219.961"/>
<text text-anchor="middle" x="5309" y="-240.828" font-family="Times,serif" font-size="14.00">Unknown Module</text>
<text text-anchor="middle" x="5309" y="-225.828" font-family="Times,serif" font-size="14.00">Class: ToJSON</text>
</g>
<!-- 68 -->
<g id="node44" class="node"><title>68</title>
<polygon fill="bisque" stroke="black" stroke-width="2" points="9172.77,-334.625 9172.77,-353.176 9052.23,-366.293 8881.77,-366.293 8761.23,-353.176 8761.23,-334.625 8881.77,-321.507 9052.23,-321.507 9172.77,-334.625"/>
<text text-anchor="middle" x="8967" y="-340.2" font-family="Times,serif" font-size="14.00">Class: ToJSON, Data: (A3Resource a)</text>
</g>
<!-- 98&#45;&gt;68 -->
<g id="edge110" class="edge"><title>98&#45;&gt;68</title>
<path fill="none" stroke="navy" d="M5364.78,-273.519C5388.02,-286.322 5415.88,-299.21 5443,-305.705 5487.69,-316.408 8706.15,-310.55 8752,-313.705 8784.98,-315.973 8820.61,-320.117 8853.2,-324.584"/>
</g>
<!-- 69 -->
<g id="node45" class="node"><title>69</title>
<polygon fill="bisque" stroke="black" stroke-width="2" points="5762.68,-334.625 5762.68,-353.176 5643.37,-366.293 5474.63,-366.293 5355.32,-353.176 5355.32,-334.625 5474.63,-321.507 5643.37,-321.507 5762.68,-334.625"/>
<text text-anchor="middle" x="5559" y="-340.2" font-family="Times,serif" font-size="14.00">Class: ToJSON, Data: A3UserNoPass</text>
</g>
<!-- 98&#45;&gt;69 -->
<g id="edge111" class="edge"><title>98&#45;&gt;69</title>
<path fill="none" stroke="navy" d="M5370.77,-271.781C5393.16,-283.332 5418.88,-295.82 5443,-305.705 5456.89,-311.399 5472,-316.796 5486.59,-321.623"/>
</g>
<!-- 70 -->
<g id="node46" class="node"><title>70</title>
<polygon fill="bisque" stroke="black" stroke-width="2" points="6205.01,-334.625 6205.01,-353.176 6080.82,-366.293 5905.18,-366.293 5780.99,-353.176 5780.99,-334.625 5905.18,-321.507 6080.82,-321.507 6205.01,-334.625"/>
<text text-anchor="middle" x="5993" y="-340.2" font-family="Times,serif" font-size="14.00">Class: ToJSON, Data: A3UserWithPass</text>
</g>
<!-- 98&#45;&gt;70 -->
<g id="edge112" class="edge"><title>98&#45;&gt;70</title>
<path fill="none" stroke="navy" d="M5365.18,-273.396C5388.37,-286.097 5416.08,-298.945 5443,-305.705 5478.47,-314.609 5735.54,-310.862 5772,-313.705 5805.18,-316.292 5841.01,-320.436 5873.96,-324.799"/>
</g>
<!-- 71 -->
<g id="node47" class="node"><title>71</title>
<polygon fill="bisque" stroke="black" stroke-width="2" points="5337.23,-334.625 5337.23,-353.176 5209.98,-366.293 5030.02,-366.293 4902.77,-353.176 4902.77,-334.625 5030.02,-321.507 5209.98,-321.507 5337.23,-334.625"/>
<text text-anchor="middle" x="5120" y="-340.2" font-family="Times,serif" font-size="14.00">Class: ToJSON, Data: ActivationRequest</text>
</g>
<!-- 98&#45;&gt;71 -->
<g id="edge113" class="edge"><title>98&#45;&gt;71</title>
<path fill="none" stroke="navy" d="M5247.74,-272.018C5218.3,-288.357 5183.92,-307.433 5158.25,-321.678"/>
</g>
<!-- 72 -->
<g id="node48" class="node"><title>72</title>
<polygon fill="bisque" stroke="black" stroke-width="2" points="1580.31,-334.625 1580.31,-353.176 1466.48,-366.293 1305.52,-366.293 1191.69,-353.176 1191.69,-334.625 1305.52,-321.507 1466.48,-321.507 1580.31,-334.625"/>
<text text-anchor="middle" x="1386" y="-340.2" font-family="Times,serif" font-size="14.00">Class: ToJSON, Data: ContentType</text>
</g>
<!-- 98&#45;&gt;72 -->
<g id="edge114" class="edge"><title>98&#45;&gt;72</title>
<path fill="none" stroke="navy" d="M5253.22,-273.521C5229.98,-286.325 5202.12,-299.213 5175,-305.705 5126.56,-317.299 1638.67,-310.095 1589,-313.705 1557.84,-315.969 1524.19,-320.111 1493.42,-324.578"/>
</g>
<!-- 73 -->
<g id="node49" class="node"><title>73</title>
<polygon fill="bisque" stroke="black" stroke-width="2" points="3991.46,-334.625 3991.46,-353.176 3875.2,-366.293 3710.8,-366.293 3594.54,-353.176 3594.54,-334.625 3710.8,-321.507 3875.2,-321.507 3991.46,-334.625"/>
<text text-anchor="middle" x="3793" y="-340.2" font-family="Times,serif" font-size="14.00">Class: ToJSON, Data: LoginRequest</text>
</g>
<!-- 98&#45;&gt;73 -->
<g id="edge115" class="edge"><title>98&#45;&gt;73</title>
<path fill="none" stroke="navy" stroke-width="1.69315" d="M5253.21,-273.458C5229.96,-286.252 5202.11,-299.151 5175,-305.705 5143.27,-313.376 4032.55,-311.309 4000,-313.705 3968.42,-316.029 3934.32,-320.16 3903.09,-324.597"/>
</g>
<!-- 74 -->
<g id="node50" class="node"><title>74</title>
<polygon fill="bisque" stroke="black" stroke-width="2" points="2173.97,-334.625 2173.97,-353.176 2035.74,-366.293 1840.26,-366.293 1702.03,-353.176 1702.03,-334.625 1840.26,-321.507 2035.74,-321.507 2173.97,-334.625"/>
<text text-anchor="middle" x="1938" y="-340.2" font-family="Times,serif" font-size="14.00">Class: ToJSON, Data: PasswordResetRequest</text>
</g>
<!-- 98&#45;&gt;74 -->
<g id="edge116" class="edge"><title>98&#45;&gt;74</title>
<path fill="none" stroke="navy" d="M5253.22,-273.515C5229.98,-286.318 5202.12,-299.207 5175,-305.705 5134.59,-315.388 2224.48,-311.186 2183,-313.705 2145.59,-315.976 2105.13,-320.106 2068.07,-324.558"/>
</g>
<!-- 75 -->
<g id="node51" class="node"><title>75</title>
<polygon fill="bisque" stroke="black" stroke-width="2" points="4884.52,-334.625 4884.52,-353.176 4767.64,-366.293 4602.36,-366.293 4485.48,-353.176 4485.48,-334.625 4602.36,-321.507 4767.64,-321.507 4884.52,-334.625"/>
<text text-anchor="middle" x="4685" y="-340.2" font-family="Times,serif" font-size="14.00">Class: ToJSON, Data: RequestResult</text>
</g>
<!-- 98&#45;&gt;75 -->
<g id="edge117" class="edge"><title>98&#45;&gt;75</title>
<path fill="none" stroke="navy" stroke-width="1.69315" d="M5258.6,-274.77C5236.54,-286.989 5209.9,-299.145 5184,-305.705 5123.44,-321.043 4965.25,-308.486 4903,-313.705 4870.32,-316.444 4834.95,-320.836 4802.38,-325.391"/>
</g>
<!-- 76 -->
<g id="node52" class="node"><title>76</title>
<polygon fill="bisque" stroke="black" stroke-width="2" points="10989.4,-334.625 10989.4,-353.176 10880.8,-366.293 10727.2,-366.293 10618.6,-353.176 10618.6,-334.625 10727.2,-321.507 10880.8,-321.507 10989.4,-334.625"/>
<text text-anchor="middle" x="10804" y="-340.2" font-family="Times,serif" font-size="14.00">Class: ToJSON, Data: TypedPath</text>
</g>
<!-- 98&#45;&gt;76 -->
<g id="edge118" class="edge"><title>98&#45;&gt;76</title>
<path fill="none" stroke="navy" d="M5364.78,-273.531C5388.02,-286.335 5415.88,-299.222 5443,-305.705 5477.89,-314.044 10573.2,-311.013 10609,-313.705 10639,-315.964 10671.5,-320.12 10701.1,-324.602"/>
</g>
<!-- 77 -->
<g id="node53" class="node"><title>77</title>
<polygon fill="bisque" stroke="black" stroke-width="2" points="10600.1,-334.625 10600.1,-353.176 10446,-366.293 10228,-366.293 10073.9,-353.176 10073.9,-334.625 10228,-321.507 10446,-321.507 10600.1,-334.625"/>
<text text-anchor="middle" x="10337" y="-340.2" font-family="Times,serif" font-size="14.00">Class: ToJSON, Data: TypedPathWithCacheControl</text>
</g>
<!-- 98&#45;&gt;77 -->
<g id="edge119" class="edge"><title>98&#45;&gt;77</title>
<path fill="none" stroke="navy" d="M5364.78,-273.528C5388.02,-286.332 5415.88,-299.219 5443,-305.705 5474.21,-313.167 10032,-311.968 10064,-313.705 10105.6,-315.961 10150.7,-320.086 10192,-324.538"/>
</g>
<!-- 99 -->
<g id="node22" class="node"><title>99</title>
<polygon fill="khaki" stroke="black" stroke-dasharray="1,5" points="6512.86,-223.014 6512.86,-251.043 6442.06,-270.863 6341.94,-270.863 6271.14,-251.043 6271.14,-223.014 6341.94,-203.194 6442.06,-203.194 6512.86,-223.014"/>
<polygon fill="none" stroke="black" stroke-dasharray="1,5" points="6516.86,-219.961 6516.86,-254.096 6442.61,-274.882 6341.39,-274.882 6267.14,-254.096 6267.14,-219.961 6341.39,-199.175 6442.61,-199.175 6516.86,-219.961"/>
<text text-anchor="middle" x="6392" y="-240.828" font-family="Times,serif" font-size="14.00">Unknown Module</text>
<text text-anchor="middle" x="6392" y="-225.828" font-family="Times,serif" font-size="14.00">Class: ToSample</text>
</g>
<!-- 78 -->
<g id="node54" class="node"><title>78</title>
<polygon fill="bisque" stroke="black" stroke-width="2" points="7837.08,-334.625 7837.08,-353.176 7719.29,-366.293 7552.71,-366.293 7434.92,-353.176 7434.92,-334.625 7552.71,-321.507 7719.29,-321.507 7837.08,-334.625"/>
<text text-anchor="middle" x="7636" y="-340.2" font-family="Times,serif" font-size="14.00">Class: ToSample, Data: ContentType</text>
</g>
<!-- 99&#45;&gt;78 -->
<g id="edge120" class="edge"><title>99&#45;&gt;78</title>
<path fill="none" stroke="navy" d="M6447.8,-273.43C6471.05,-286.22 6498.9,-299.122 6526,-305.705 6574.59,-317.507 7376.13,-310.032 7426,-313.705 7458.03,-316.063 7492.62,-320.206 7524.3,-324.642"/>
</g>
<!-- 79 -->
<g id="node55" class="node"><title>79</title>
<polygon fill="bisque" stroke="black" stroke-width="2" points="7095.14,-334.625 7095.14,-353.176 6998.4,-366.293 6861.6,-366.293 6764.86,-353.176 6764.86,-334.625 6861.6,-321.507 6998.4,-321.507 7095.14,-334.625"/>
<text text-anchor="middle" x="6930" y="-340.2" font-family="Times,serif" font-size="14.00">Class: ToSample, Data: Path</text>
</g>
<!-- 99&#45;&gt;79 -->
<g id="edge121" class="edge"><title>99&#45;&gt;79</title>
<path fill="none" stroke="navy" d="M6448.54,-273.431C6471.67,-286.054 6499.24,-298.837 6526,-305.705 6575.54,-318.418 6705.12,-308.573 6756,-313.705 6782.21,-316.348 6810.45,-320.51 6836.39,-324.872"/>
</g>
<!-- 80 -->
<g id="node56" class="node"><title>80</title>
<polygon fill="bisque" stroke="black" stroke-width="2" points="3139.8,-334.625 3139.8,-353.176 3018.66,-366.293 2847.34,-366.293 2726.2,-353.176 2726.2,-334.625 2847.34,-321.507 3018.66,-321.507 3139.8,-334.625"/>
<text text-anchor="middle" x="2933" y="-340.2" font-family="Times,serif" font-size="14.00">Class: ToSample, Data: RequestResult</text>
</g>
<!-- 99&#45;&gt;80 -->
<g id="edge122" class="edge"><title>99&#45;&gt;80</title>
<path fill="none" stroke="navy" d="M6336.35,-273.694C6313.35,-286.437 6285.82,-299.236 6259,-305.705 6217,-315.834 3191.11,-310.735 3148,-313.705 3115.12,-315.969 3079.6,-320.097 3047.08,-324.549"/>
</g>
<!-- 28 -->
<g id="node62" class="node"><title>28</title>
<polygon fill="bisque" stroke="black" stroke-width="2" points="3379,-255.028 3161,-255.028 3161,-219.028 3379,-219.028 3379,-255.028"/>
<text text-anchor="middle" x="3270" y="-233.328" font-family="Times,serif" font-size="14.00">externalUrlOfDefaultPersona</text>
</g>
<!-- 18&#45;&gt;28 -->
<g id="edge3" class="edge"><title>18&#45;&gt;28</title>
<path fill="none" stroke="black" d="M2297.22,-325.764C2309.61,-320.886 2323.65,-316.218 2337,-313.705 2381.5,-305.326 3108.3,-317.576 3152,-305.705 3184.33,-296.92 3217.07,-277.087 3239.83,-261.149"/>
<polygon fill="black" stroke="black" points="3241.96,-263.932 3248.05,-255.262 3237.88,-258.243 3241.96,-263.932"/>
</g>
<!-- 24&#45;&gt;4 -->
<g id="edge13" class="edge"><title>24&#45;&gt;4</title>
<path fill="none" stroke="black" d="M1151.32,-325.882C1161.02,-320.945 1172.17,-316.213 1183,-313.705 1234.16,-301.861 4913.61,-320.478 4964,-305.705 4993.46,-297.067 5022.54,-277.498 5042.77,-261.613"/>
<polygon fill="black" stroke="black" points="5045.02,-264.298 5050.6,-255.296 5040.62,-258.849 5045.02,-264.298"/>
</g>
<!-- 24&#45;&gt;12 -->
<g id="edge14" class="edge"><title>24&#45;&gt;12</title>
<path fill="none" stroke="black" d="M1151.32,-325.884C1161.02,-320.948 1172.17,-316.215 1183,-313.705 1227.29,-303.445 4414,-323.102 4456,-305.705 4476.77,-297.099 4494.55,-278.75 4506.71,-263.326"/>
<polygon fill="black" stroke="black" points="4509.65,-265.233 4512.87,-255.139 4504.06,-261.024 4509.65,-265.233"/>
</g>
<!-- 24&#45;&gt;13 -->
<g id="edge15" class="edge"><title>24&#45;&gt;13</title>
<path fill="none" stroke="black" d="M1151.32,-325.883C1161.02,-320.947 1172.17,-316.214 1183,-313.705 1229.11,-303.024 4545.97,-320.287 4591,-305.705 4617.54,-297.109 4642.93,-277.95 4660.61,-262.204"/>
<polygon fill="black" stroke="black" points="4663.17,-264.603 4668.17,-255.26 4658.44,-259.447 4663.17,-264.603"/>
</g>
<!-- 19 -->
<g id="node58" class="node"><title>19</title>
<polygon fill="cyan" stroke="black" stroke-width="2" points="2971.5,-143.676 2848.5,-143.676 2848.5,-107.676 2971.5,-107.676 2971.5,-143.676"/>
<text text-anchor="middle" x="2910" y="-121.976" font-family="Times,serif" font-size="14.00">a3ServiceId</text>
</g>
<!-- 24&#45;&gt;19 -->
<g id="edge16" class="edge"><title>24&#45;&gt;19</title>
<path fill="none" stroke="black" d="M1153.02,-325.785C1162.36,-321.154 1172.87,-316.622 1183,-313.705 1502.54,-221.69 2553.09,-149.418 2838.11,-131.154"/>
<polygon fill="black" stroke="black" points="2838.57,-134.632 2848.32,-130.502 2838.12,-127.647 2838.57,-134.632"/>
</g>
<!-- 43 -->
<g id="node64" class="node"><title>43</title>
<polygon fill="bisque" stroke="black" stroke-width="2" points="3143,-255.028 2991,-255.028 2991,-219.028 3143,-219.028 3143,-255.028"/>
<text text-anchor="middle" x="3067" y="-233.328" font-family="Times,serif" font-size="14.00">makeExternalUrl</text>
</g>
<!-- 24&#45;&gt;43 -->
<g id="edge17" class="edge"><title>24&#45;&gt;43</title>
<path fill="none" stroke="black" d="M1151.32,-325.896C1161.02,-320.961 1172.17,-316.225 1183,-313.705 1231.67,-302.377 2934.86,-322.296 2982,-305.705 3006.47,-297.093 3029.17,-278.209 3044.95,-262.571"/>
<polygon fill="black" stroke="black" points="3047.64,-264.82 3052.12,-255.214 3042.63,-259.935 3047.64,-264.82"/>
</g>
<!-- 25&#45;&gt;2 -->
<g id="edge18" class="edge"><title>25&#45;&gt;2</title>
<path fill="none" stroke="black" d="M7135.86,-325.747C7126.07,-320.868 7114.87,-316.203 7104,-313.705 7064.23,-304.564 5673.86,-318.143 5635,-305.705 5608.05,-297.08 5582.12,-277.924 5564.01,-262.186"/>
<polygon fill="black" stroke="black" points="5566.05,-259.314 5556.27,-255.246 5561.38,-264.527 5566.05,-259.314"/>
</g>
<!-- 25&#45;&gt;3 -->
<g id="edge19" class="edge"><title>25&#45;&gt;3</title>
<path fill="none" stroke="black" d="M7135.14,-325.88C7125.49,-321.134 7114.55,-316.513 7104,-313.705 7057.49,-301.323 7041.5,-321.399 6996,-305.705 6968.24,-296.129 6940.82,-276.974 6921.57,-261.479"/>
<polygon fill="black" stroke="black" points="6923.79,-258.768 6913.85,-255.101 6919.33,-264.166 6923.79,-258.768"/>
</g>
<!-- 25&#45;&gt;5 -->
<g id="edge20" class="edge"><title>25&#45;&gt;5</title>
<path fill="none" stroke="black" d="M7135.86,-325.752C7126.07,-320.873 7114.87,-316.207 7104,-313.705 7069.11,-305.671 5848.93,-317.154 5815,-305.705 5789.53,-297.109 5765.46,-278.223 5748.63,-262.581"/>
<polygon fill="black" stroke="black" points="5750.61,-259.63 5740.97,-255.222 5745.76,-264.676 5750.61,-259.63"/>
</g>
<!-- 25&#45;&gt;15 -->
<g id="edge21" class="edge"><title>25&#45;&gt;15</title>
<path fill="none" stroke="black" d="M7194.49,-325.794C7204.21,-320.982 7215.28,-316.344 7226,-313.705 7273.07,-302.109 7398.59,-322.665 7444,-305.705 7467.97,-296.752 7490.28,-278.076 7505.88,-262.607"/>
<polygon fill="black" stroke="black" points="7508.5,-264.931 7512.97,-255.327 7503.49,-260.046 7508.5,-264.931"/>
</g>
<!-- 25&#45;&gt;16 -->
<g id="edge22" class="edge"><title>25&#45;&gt;16</title>
<path fill="none" stroke="black" d="M7188.29,-325.817C7212.29,-308.22 7249.84,-280.68 7276.48,-261.143"/>
<polygon fill="black" stroke="black" points="7278.72,-263.84 7284.72,-255.104 7274.58,-258.195 7278.72,-263.84"/>
</g>
<!-- 22 -->
<g id="node61" class="node"><title>22</title>
<polygon fill="bisque" stroke="black" stroke-width="2" points="3751,-143.676 3611,-143.676 3611,-107.676 3751,-107.676 3751,-143.676"/>
<text text-anchor="middle" x="3681" y="-121.976" font-family="Times,serif" font-size="14.00">a3backendPath</text>
</g>
<!-- 25&#45;&gt;22 -->
<g id="edge23" class="edge"><title>25&#45;&gt;22</title>
<path fill="none" stroke="black" d="M7136.18,-325.877C7126.31,-320.941 7114.99,-316.209 7104,-313.705 7088.84,-310.249 2636.98,-316.709 2626,-305.705 2592.61,-272.251 2593.2,-233.386 2626,-199.352 2663.65,-160.285 3549.24,-176.026 3602,-163.352 3615.71,-160.059 3629.91,-154.3 3642.43,-148.308"/>
<polygon fill="black" stroke="black" points="3644.25,-151.312 3651.64,-143.717 3641.12,-145.047 3644.25,-151.312"/>
</g>
<!-- 63 -->
<g id="node67" class="node"><title>63</title>
<polygon fill="cyan" stroke="black" stroke-width="2" points="3945.5,-255.028 3736.5,-255.028 3736.5,-219.028 3945.5,-219.028 3945.5,-255.028"/>
<text text-anchor="middle" x="3841" y="-233.328" font-family="Times,serif" font-size="14.00">sendUserConfirmationMail</text>
</g>
<!-- 25&#45;&gt;63 -->
<g id="edge24" class="edge"><title>25&#45;&gt;63</title>
<path fill="none" stroke="black" d="M7136.18,-325.884C7126.31,-320.948 7114.99,-316.215 7104,-313.705 7064.92,-304.778 4257.92,-309.315 4218,-305.705 4115.96,-296.476 4000.18,-273.84 3924.16,-257.279"/>
<polygon fill="black" stroke="black" points="3924.69,-253.811 3914.17,-255.087 3923.19,-260.648 3924.69,-253.811"/>
</g>
<!-- 26&#45;&gt;17 -->
<g id="edge25" class="edge"><title>26&#45;&gt;17</title>
<path fill="none" stroke="black" d="M6686.76,-325.702C6679.29,-320.885 6670.66,-316.268 6662,-313.705 6618.95,-300.96 6300.1,-321.306 6258,-305.705 6234.2,-296.885 6212.31,-278.016 6197.15,-262.437"/>
<polygon fill="black" stroke="black" points="6199.66,-260.002 6190.26,-255.112 6194.56,-264.796 6199.66,-260.002"/>
</g>
<!-- 26&#45;&gt;67 -->
<g id="edge26" class="edge"><title>26&#45;&gt;67</title>
<path fill="none" stroke="black" d="M6686.77,-325.672C6679.3,-320.853 6670.67,-316.243 6662,-313.705 6631.66,-304.817 6122.14,-317.973 6093,-305.705 6072.28,-296.979 6054.5,-278.636 6042.32,-263.245"/>
<polygon fill="black" stroke="black" points="6044.98,-260.947 6036.15,-255.079 6039.39,-265.167 6044.98,-260.947"/>
</g>
<!-- 39&#45;&gt;6 -->
<g id="edge32" class="edge"><title>39&#45;&gt;6</title>
<path fill="none" stroke="black" stroke-width="1.69315" d="M1665.54,-325.75C1673.87,-320.871 1683.49,-316.206 1693,-313.705 1734.45,-302.806 4738.26,-319.018 4779,-305.705 4805.34,-297.099 4830.44,-277.941 4847.92,-262.198"/>
<polygon fill="black" stroke="black" stroke-width="1.69315" points="4850.45,-264.627 4855.39,-255.255 4845.68,-259.5 4850.45,-264.627"/>
</g>
<!-- 39&#45;&gt;12 -->
<g id="edge33" class="edge"><title>39&#45;&gt;12</title>
<path fill="none" stroke="black" d="M1665.55,-325.751C1673.87,-320.873 1683.49,-316.207 1693,-313.705 1730.11,-303.941 4420.55,-320.399 4456,-305.705 4476.77,-297.094 4494.55,-278.745 4506.71,-263.323"/>
<polygon fill="black" stroke="black" points="4509.65,-265.231 4512.87,-255.137 4504.06,-261.021 4509.65,-265.231"/>
</g>
<!-- 39&#45;&gt;13 -->
<g id="edge34" class="edge"><title>39&#45;&gt;13</title>
<path fill="none" stroke="black" d="M1665.55,-325.751C1673.87,-320.872 1683.49,-316.206 1693,-313.705 1731.93,-303.467 4552.71,-318.113 4591,-305.705 4617.54,-297.103 4642.93,-277.945 4660.61,-262.201"/>
<polygon fill="black" stroke="black" points="4663.17,-264.599 4668.17,-255.257 4658.44,-259.444 4663.17,-264.599"/>
</g>
<!-- 39&#45;&gt;28 -->
<g id="edge35" class="edge"><title>39&#45;&gt;28</title>
<path fill="none" stroke="black" d="M1665.55,-325.766C1673.88,-320.888 1683.49,-316.219 1693,-313.705 1771.36,-292.981 3073.73,-326.786 3152,-305.705 3184.35,-296.99 3217.09,-277.149 3239.84,-261.191"/>
<polygon fill="black" stroke="black" points="3241.97,-263.971 3248.06,-255.296 3237.89,-258.284 3241.97,-263.971"/>
</g>
<!-- 46&#45;&gt;1 -->
<g id="edge42" class="edge"><title>46&#45;&gt;1</title>
<path fill="none" stroke="black" d="M9718.05,-324.567C9683.87,-320.115 9646.54,-315.983 9612,-313.705 9578.2,-311.475 7205.08,-316.576 7173,-305.705 7147.72,-297.139 7123.92,-278.251 7107.31,-262.6"/>
<polygon fill="black" stroke="black" points="7109.35,-259.71 7099.75,-255.237 7104.47,-264.723 7109.35,-259.71"/>
</g>
<!-- 47&#45;&gt;2 -->
<g id="edge43" class="edge"><title>47&#45;&gt;2</title>
<path fill="none" stroke="black" d="M6318.23,-324.687C6284.59,-320.28 6247.93,-316.142 6214,-313.705 6181.91,-311.4 5665.6,-315.639 5635,-305.705 5608.09,-296.967 5582.15,-277.821 5564.03,-262.115"/>
<polygon fill="black" stroke="black" points="5566.07,-259.245 5556.28,-255.191 5561.41,-264.464 5566.07,-259.245"/>
</g>
<!-- 20 -->
<g id="node59" class="node"><title>20</title>
<polygon fill="bisque" stroke="black" stroke-width="2" points="3718.5,-255.028 3559.5,-255.028 3559.5,-219.028 3718.5,-219.028 3718.5,-255.028"/>
<text text-anchor="middle" x="3639" y="-233.328" font-family="Times,serif" font-size="14.00">a3UserFromJSON</text>
</g>
<!-- 47&#45;&gt;20 -->
<g id="edge44" class="edge"><title>47&#45;&gt;20</title>
<path fill="none" stroke="black" d="M6319.12,-324.565C6285.24,-320.113 6248.24,-315.982 6214,-313.705 6179.53,-311.412 3759.68,-316.878 3727,-305.705 3701.92,-297.132 3678.4,-278.245 3661.99,-262.596"/>
<polygon fill="black" stroke="black" points="3664.11,-259.768 3654.53,-255.233 3659.19,-264.75 3664.11,-259.768"/>
</g>
<!-- 48&#45;&gt;3 -->
<g id="edge45" class="edge"><title>48&#45;&gt;3</title>
<path fill="none" stroke="black" d="M8396.01,-324.598C8360.86,-320.162 8322.49,-316.03 8287,-313.705 8251.21,-311.36 7030.28,-316.243 6996,-305.705 6967.75,-297.021 6940.2,-277.595 6921.02,-261.773"/>
<polygon fill="black" stroke="black" points="6923.23,-259.056 6913.34,-255.255 6918.7,-264.393 6923.23,-259.056"/>
</g>
<!-- 48&#45;&gt;20 -->
<g id="edge46" class="edge"><title>48&#45;&gt;20</title>
<path fill="none" stroke="black" d="M8396.62,-324.572C8361.3,-320.105 8322.7,-315.964 8287,-313.705 8255.4,-311.704 3756.97,-315.926 3727,-305.705 3701.92,-297.151 3678.39,-278.262 3661.99,-262.608"/>
<polygon fill="black" stroke="black" points="3664.1,-259.78 3654.53,-255.242 3659.19,-264.76 3664.1,-259.78"/>
</g>
<!-- 49&#45;&gt;4 -->
<g id="edge47" class="edge"><title>49&#45;&gt;4</title>
<path fill="none" stroke="black" d="M4365.91,-324.69C4401.48,-320.312 4440.18,-316.188 4476,-313.705 4503.05,-311.829 4938.04,-313.518 4964,-305.705 4993.4,-296.857 5022.49,-277.309 5042.73,-261.485"/>
<polygon fill="black" stroke="black" points="5044.96,-264.182 5050.57,-255.195 5040.58,-258.722 5044.96,-264.182"/>
</g>
<!-- 49&#45;&gt;97 -->
<g id="edge48" class="edge"><title>49&#45;&gt;97</title>
<path fill="none" stroke="black" d="M4200.57,-321.519C4195.5,-316.971 4191.01,-311.698 4188,-305.705 4166.78,-263.468 4162.09,-238.886 4188,-199.352 4201.41,-178.898 4221.95,-164.17 4244.11,-153.574"/>
<polygon fill="black" stroke="black" points="4245.65,-156.717 4253.34,-149.426 4242.78,-150.331 4245.65,-156.717"/>
</g>
<!-- 51&#45;&gt;6 -->
<g id="edge49" class="edge"><title>51&#45;&gt;6</title>
<path fill="none" stroke="black" stroke-width="1.69315" d="M3483.5,-324.602C3516.55,-320.165 3552.61,-316.033 3586,-313.705 3619.06,-311.399 4747.52,-316.063 4779,-305.705 4805.32,-297.045 4830.43,-277.892 4847.91,-262.164"/>
<polygon fill="black" stroke="black" stroke-width="1.69315" points="4850.43,-264.597 4855.38,-255.229 4845.67,-259.467 4850.43,-264.597"/>
</g>
<!-- 51&#45;&gt;97 -->
<g id="edge50" class="edge"><title>51&#45;&gt;97</title>
<path fill="none" stroke="black" d="M3484.09,-324.717C3516.97,-320.311 3552.82,-316.165 3586,-313.705 3600.3,-312.644 4089.55,-312.813 4102,-305.705 4150.11,-278.234 4124.47,-234.851 4167,-199.352 4190.53,-179.71 4219.97,-165.001 4248.52,-154.148"/>
<polygon fill="black" stroke="black" points="4249.98,-157.343 4258.16,-150.614 4247.57,-150.771 4249.98,-157.343"/>
</g>
<!-- 52&#45;&gt;11 -->
<g id="edge51" class="edge"><title>52&#45;&gt;11</title>
<path fill="none" stroke="black" d="M789.269,-324.52C827.896,-320.083 870.037,-315.97 909,-313.705 1079.77,-303.776 3817.74,-322.192 3988,-305.705 4082.79,-296.526 4190.06,-274.034 4260.79,-257.488"/>
<polygon fill="black" stroke="black" points="4262.02,-260.793 4270.95,-255.092 4260.42,-253.98 4262.02,-260.793"/>
</g>
<!-- 52&#45;&gt;12 -->
<g id="edge52" class="edge"><title>52&#45;&gt;12</title>
<path fill="none" stroke="black" d="M789.269,-324.511C827.895,-320.074 870.036,-315.963 909,-313.705 933.591,-312.279 4433.24,-315.129 4456,-305.705 4476.77,-297.101 4494.55,-278.751 4506.71,-263.327"/>
<polygon fill="black" stroke="black" points="4509.65,-265.235 4512.87,-255.14 4504.06,-261.025 4509.65,-265.235"/>
</g>
<!-- 30 -->
<g id="node63" class="node"><title>30</title>
<polygon fill="cyan" stroke="black" stroke-width="2" points="3593,-143.676 3471,-143.676 3471,-107.676 3593,-107.676 3593,-143.676"/>
<text text-anchor="middle" x="3532" y="-121.976" font-family="Times,serif" font-size="14.00">failOnError</text>
</g>
<!-- 52&#45;&gt;30 -->
<g id="edge53" class="edge"><title>52&#45;&gt;30</title>
<path fill="none" stroke="black" d="M797.409,-325.261C833.797,-321.139 872.804,-316.996 909,-313.705 1656.09,-245.774 1843.95,-240.293 2593,-199.352 2785.99,-188.804 3275.32,-213.416 3462,-163.352 3474.11,-160.104 3486.5,-154.499 3497.42,-148.636"/>
<polygon fill="black" stroke="black" points="3499.21,-151.645 3506.21,-143.695 3495.78,-145.543 3499.21,-151.645"/>
</g>
<!-- 55 -->
<g id="node65" class="node"><title>55</title>
<polygon fill="cyan" stroke="black" stroke-width="2" points="3453,-143.676 3283,-143.676 3283,-107.676 3453,-107.676 3453,-143.676"/>
<text text-anchor="middle" x="3368" y="-121.976" font-family="Times,serif" font-size="14.00">passwordAcceptable</text>
</g>
<!-- 52&#45;&gt;55 -->
<g id="edge54" class="edge"><title>52&#45;&gt;55</title>
<path fill="none" stroke="black" d="M687.696,-321.539C744.579,-287.872 862.337,-223.788 972,-199.352 1221.69,-143.716 3022.98,-212.624 3274,-163.352 3290.8,-160.055 3308.47,-153.931 3323.9,-147.619"/>
<polygon fill="black" stroke="black" points="3325.34,-150.808 3333.19,-143.688 3322.61,-144.362 3325.34,-150.808"/>
</g>
<!-- 53&#45;&gt;13 -->
<g id="edge55" class="edge"><title>53&#45;&gt;13</title>
<path fill="none" stroke="black" stroke-width="1.69315" d="M7950.01,-324.589C7916.51,-320.122 7879.88,-315.977 7846,-313.705 7803.5,-310.854 4819.52,-318.833 4779,-305.705 4752.46,-297.105 4727.07,-277.947 4709.39,-262.202"/>
<polygon fill="black" stroke="black" stroke-width="1.69315" points="4711.56,-259.445 4701.83,-255.258 4706.83,-264.601 4711.56,-259.445"/>
</g>
<!-- 53&#45;&gt;95 -->
<g id="edge56" class="edge"><title>53&#45;&gt;95</title>
<path fill="none" stroke="black" d="M7944.82,-325.158C7910,-320.521 7872.04,-316.143 7837,-313.705 7778.69,-309.647 6841.8,-319.463 6785,-305.705 6762.38,-300.224 6739.23,-290.33 6719.05,-279.768"/>
<polygon fill="black" stroke="black" points="6720.47,-276.555 6710.01,-274.882 6717.14,-282.714 6720.47,-276.555"/>
</g>
<!-- 54&#45;&gt;15 -->
<g id="edge57" class="edge"><title>54&#45;&gt;15</title>
<path fill="none" stroke="black" d="M11095,-324.581C11063.8,-320.114 11029.6,-315.971 10998,-313.705 10974.5,-312.023 7634.17,-313.552 7612,-305.705 7587.73,-297.11 7565.29,-278.225 7549.73,-262.582"/>
<polygon fill="black" stroke="black" points="7552.11,-260.011 7542.66,-255.223 7547.06,-264.86 7552.11,-260.011"/>
</g>
<!-- 59&#45;&gt;11 -->
<g id="edge58" class="edge"><title>59&#45;&gt;11</title>
<path fill="none" stroke="black" d="M1022.82,-325.862C1035.3,-320.925 1049.5,-316.196 1063,-313.705 1143.94,-298.762 3944.17,-314.562 4026,-305.705 4110.47,-296.561 4205.63,-274.217 4268.62,-257.691"/>
<polygon fill="black" stroke="black" points="4269.67,-261.032 4278.45,-255.091 4267.88,-254.265 4269.67,-261.032"/>
</g>
<!-- 59&#45;&gt;13 -->
<g id="edge59" class="edge"><title>59&#45;&gt;13</title>
<path fill="none" stroke="black" stroke-width="2.09861" d="M1022.82,-325.859C1035.3,-320.921 1049.5,-316.193 1063,-313.705 1111.19,-304.819 4544.38,-320.799 4591,-305.705 4617.54,-297.11 4642.93,-277.951 4660.61,-262.205"/>
<polygon fill="black" stroke="black" stroke-width="2.09861" points="4663.17,-264.603 4668.17,-255.26 4658.44,-259.448 4663.17,-264.603"/>
</g>
<!-- 59&#45;&gt;97 -->
<g id="edge62" class="edge"><title>59&#45;&gt;97</title>
<path fill="none" stroke="black" d="M1022.82,-325.862C1035.3,-320.925 1049.5,-316.196 1063,-313.705 1082.97,-310.017 3971.41,-317.427 3988,-305.705 4028.99,-276.737 3988.35,-232.545 4026,-199.352 4055.08,-173.716 4142.25,-155.144 4219.55,-143.193"/>
<polygon fill="black" stroke="black" points="4220.54,-146.584 4229.9,-141.624 4219.49,-139.663 4220.54,-146.584"/>
</g>
<!-- 60 -->
<g id="node66" class="node"><title>60</title>
<polygon fill="bisque" stroke="black" stroke-width="2" points="2808.5,-255.028 2635.5,-255.028 2635.5,-219.028 2808.5,-219.028 2808.5,-255.028"/>
<text text-anchor="middle" x="2722" y="-233.328" font-family="Times,serif" font-size="14.00">resetPasswordInA3&#39;P</text>
</g>
<!-- 59&#45;&gt;60 -->
<g id="edge60" class="edge"><title>59&#45;&gt;60</title>
<path fill="none" stroke="black" d="M1023.67,-325.894C1035.96,-321.087 1049.84,-316.427 1063,-313.705 1364.5,-251.33 2317.62,-240.359 2625.25,-238.435"/>
<polygon fill="black" stroke="black" points="2625.5,-241.934 2635.48,-238.373 2625.46,-234.934 2625.5,-241.934"/>
</g>
<!-- 88 -->
<g id="node68" class="node"><title>88</title>
<polygon fill="bisque" stroke="black" stroke-width="2" points="2973,-255.028 2827,-255.028 2827,-219.028 2973,-219.028 2973,-255.028"/>
<text text-anchor="middle" x="2900" y="-233.328" font-family="Times,serif" font-size="14.00">userIdFromPath</text>
</g>
<!-- 59&#45;&gt;88 -->
<g id="edge61" class="edge"><title>59&#45;&gt;88</title>
<path fill="none" stroke="black" d="M1022.82,-325.877C1035.3,-320.941 1049.51,-316.209 1063,-313.705 1110.9,-304.815 2771.14,-322.15 2817,-305.705 2841.06,-297.075 2863.22,-278.192 2878.58,-262.559"/>
<polygon fill="black" stroke="black" points="2881.21,-264.871 2885.55,-255.205 2876.13,-260.055 2881.21,-264.871"/>
</g>
<!-- 65&#45;&gt;5 -->
<g id="edge70" class="edge"><title>65&#45;&gt;5</title>
<path fill="none" stroke="black" d="M2627.74,-324.548C2656.48,-320.096 2687.89,-315.968 2717,-313.705 2757.41,-310.563 5596.58,-318.597 5635,-305.705 5660.48,-297.153 5684.56,-278.264 5701.38,-262.609"/>
<polygon fill="black" stroke="black" points="5704.26,-264.7 5709.03,-255.244 5699.4,-259.657 5704.26,-264.7"/>
</g>
<!-- 8 -->
<g id="node57" class="node"><title>8</title>
<polygon fill="cyan" stroke="black" stroke-width="2" points="3265,-143.676 3101,-143.676 3097,-139.676 3097,-107.676 3261,-107.676 3265,-111.676 3265,-143.676"/>
<polyline fill="none" stroke="black" stroke-width="2" points="3261,-139.676 3097,-139.676 "/>
<polyline fill="none" stroke="black" stroke-width="2" points="3261,-139.676 3261,-107.676 "/>
<polyline fill="none" stroke="black" stroke-width="2" points="3261,-139.676 3265,-143.676 "/>
<text text-anchor="middle" x="3181" y="-121.976" font-family="Times,serif" font-size="14.00">Data: PropertySheet</text>
</g>
<!-- 66&#45;&gt;8 -->
<g id="edge71" class="edge"><title>66&#45;&gt;8</title>
<path fill="none" stroke="black" stroke-width="2.09861" d="M259.072,-321.578C352.264,-287.967 543.622,-223.96 712,-199.352 1210.77,-126.459 2478.36,-212.76 2980,-163.352 3017.91,-159.618 3059.39,-152.562 3094.77,-145.628"/>
<polygon fill="black" stroke="black" stroke-width="2.09861" points="3095.46,-149.06 3104.58,-143.678 3094.09,-142.195 3095.46,-149.06"/>
</g>
<!-- 68&#45;&gt;1 -->
<g id="edge76" class="edge"><title>68&#45;&gt;1</title>
<path fill="none" stroke="black" d="M8852.92,-324.602C8820.4,-320.151 8784.88,-316.01 8752,-313.705 8730.12,-312.17 7193.76,-312.761 7173,-305.705 7147.73,-297.116 7123.93,-278.23 7107.31,-262.586"/>
<polygon fill="black" stroke="black" points="7109.36,-259.696 7099.75,-255.226 7104.48,-264.71 7109.36,-259.696"/>
</g>
<!-- 69&#45;&gt;2 -->
<g id="edge77" class="edge"><title>69&#45;&gt;2</title>
<path fill="none" stroke="black" d="M5554.95,-321.678C5551.85,-305.421 5547.55,-282.87 5544.2,-265.279"/>
<polygon fill="black" stroke="black" points="5547.56,-264.235 5542.25,-255.067 5540.68,-265.546 5547.56,-264.235"/>
</g>
<!-- 21 -->
<g id="node60" class="node"><title>21</title>
<polygon fill="bisque" stroke="black" stroke-width="2" points="3541,-255.028 3397,-255.028 3397,-219.028 3541,-219.028 3541,-255.028"/>
<text text-anchor="middle" x="3469" y="-233.328" font-family="Times,serif" font-size="14.00">a3UserToJSON</text>
</g>
<!-- 69&#45;&gt;21 -->
<g id="edge78" class="edge"><title>69&#45;&gt;21</title>
<path fill="none" stroke="black" d="M5446.26,-324.627C5413.97,-320.161 5378.67,-316.006 5346,-313.705 5321.12,-311.951 3573.43,-314.264 3550,-305.705 3526.55,-297.138 3505.12,-278.52 3490.2,-262.976"/>
<polygon fill="black" stroke="black" points="3492.37,-260.169 3483.01,-255.197 3487.22,-264.918 3492.37,-260.169"/>
</g>
<!-- 70&#45;&gt;3 -->
<g id="edge79" class="edge"><title>70&#45;&gt;3</title>
<path fill="none" stroke="black" d="M6111.16,-324.682C6144.35,-320.276 6180.51,-316.139 6214,-313.705 6246.14,-311.368 6763.23,-315.292 6794,-305.705 6822.21,-296.913 6849.77,-277.498 6868.96,-261.707"/>
<polygon fill="black" stroke="black" points="6871.27,-264.334 6876.65,-255.203 6866.75,-258.99 6871.27,-264.334"/>
</g>
<!-- 70&#45;&gt;21 -->
<g id="edge80" class="edge"><title>70&#45;&gt;21</title>
<path fill="none" stroke="black" d="M5875.72,-324.573C5842.3,-320.121 5805.79,-315.988 5772,-313.705 5741.21,-311.624 3578.99,-316.281 3550,-305.705 3526.54,-297.148 3505.11,-278.529 3490.19,-262.983"/>
<polygon fill="black" stroke="black" points="3492.36,-260.175 3483.01,-255.202 3487.22,-264.924 3492.36,-260.175"/>
</g>
<!-- 71&#45;&gt;4 -->
<g id="edge81" class="edge"><title>71&#45;&gt;4</title>
<path fill="none" stroke="black" d="M5109.88,-321.678C5101.98,-305.114 5090.97,-282.017 5082.52,-264.289"/>
<polygon fill="black" stroke="black" points="5085.59,-262.588 5078.12,-255.067 5079.27,-265.6 5085.59,-262.588"/>
</g>
<!-- 72&#45;&gt;97 -->
<g id="edge82" class="edge"><title>72&#45;&gt;97</title>
<path fill="none" stroke="black" d="M1493.42,-324.599C1524.19,-320.133 1557.84,-315.985 1589,-313.705 1605.88,-312.469 4012.18,-315.475 4026,-305.705 4066.98,-276.726 4026.8,-233.056 4064,-199.352 4088.5,-177.153 4160.29,-159.095 4226.43,-146.532"/>
<polygon fill="black" stroke="black" points="4227.38,-149.916 4236.57,-144.641 4226.09,-143.035 4227.38,-149.916"/>
</g>
<!-- 73&#45;&gt;6 -->
<g id="edge83" class="edge"><title>73&#45;&gt;6</title>
<path fill="none" stroke="black" stroke-width="1.69315" d="M3903.36,-324.63C3934.52,-320.208 3968.51,-316.077 4000,-313.705 4043.16,-310.453 4737.91,-319.306 4779,-305.705 4805.3,-296.998 4830.41,-277.849 4847.9,-262.134"/>
<polygon fill="black" stroke="black" stroke-width="1.69315" points="4850.42,-264.571 4855.37,-255.206 4845.66,-259.438 4850.42,-264.571"/>
</g>
<!-- 74&#45;&gt;11 -->
<g id="edge84" class="edge"><title>74&#45;&gt;11</title>
<path fill="none" stroke="black" d="M2068.39,-324.558C2105.36,-320.121 2145.7,-315.999 2183,-313.705 2287.3,-307.289 3960.29,-318.503 4064,-305.705 4138.11,-296.559 4221.08,-274.444 4276.31,-257.968"/>
<polygon fill="black" stroke="black" points="4277.39,-261.3 4285.95,-255.065 4275.37,-254.597 4277.39,-261.3"/>
</g>
<!-- 75&#45;&gt;13 -->
<g id="edge85" class="edge"><title>75&#45;&gt;13</title>
<path fill="none" stroke="black" stroke-width="1.69315" d="M4685,-321.678C4685,-305.421 4685,-282.87 4685,-265.279"/>
<polygon fill="black" stroke="black" stroke-width="1.69315" points="4688.5,-265.067 4685,-255.067 4681.5,-265.067 4688.5,-265.067"/>
</g>
<!-- 75&#45;&gt;98 -->
<g id="edge86" class="edge"><title>75&#45;&gt;98</title>
<path fill="none" stroke="black" d="M4792.94,-324.288C4822.66,-320.135 4854.97,-316.222 4885,-313.705 4947.25,-308.486 5105.44,-321.043 5166,-305.705 5190.54,-299.49 5215.74,-288.25 5238.07,-276.693"/>
<polygon fill="black" stroke="black" points="5239.92,-279.675 5247.12,-271.91 5236.65,-273.486 5239.92,-279.675"/>
</g>
<!-- 76&#45;&gt;15 -->
<g id="edge87" class="edge"><title>76&#45;&gt;15</title>
<path fill="none" stroke="black" d="M10701.1,-324.624C10671.5,-320.142 10639,-315.981 10609,-313.705 10588.2,-312.132 7631.62,-312.654 7612,-305.705 7587.73,-297.107 7565.3,-278.221 7549.73,-262.58"/>
<polygon fill="black" stroke="black" points="7552.11,-260.009 7542.66,-255.221 7547.07,-264.858 7552.11,-260.009"/>
</g>
<!-- 77&#45;&gt;15 -->
<g id="edge88" class="edge"><title>77&#45;&gt;15</title>
<path fill="none" stroke="black" stroke-width="1.69315" d="M10191.6,-324.542C10150.5,-320.105 10105.5,-315.987 10064,-313.705 10030,-311.836 7644.1,-317.085 7612,-305.705 7587.73,-297.1 7565.3,-278.215 7549.73,-262.575"/>
<polygon fill="black" stroke="black" stroke-width="1.69315" points="7552.12,-260.004 7542.66,-255.217 7547.07,-264.854 7552.12,-260.004"/>
</g>
<!-- 77&#45;&gt;16 -->
<g id="edge89" class="edge"><title>77&#45;&gt;16</title>
<path fill="none" stroke="black" stroke-width="2.79176" d="M10191.6,-324.536C10150.5,-320.099 10105.5,-315.982 10064,-313.705 10027.7,-311.712 7479.41,-314.085 7444,-305.705 7406.88,-296.919 7368.29,-276.455 7341.74,-260.315"/>
<polygon fill="black" stroke="black" stroke-width="2.79176" points="7343.56,-257.326 7333.22,-255.031 7339.87,-263.275 7343.56,-257.326"/>
</g>
<!-- 78&#45;&gt;5 -->
<g id="edge90" class="edge"><title>78&#45;&gt;5</title>
<path fill="none" stroke="black" d="M7524.58,-324.598C7492.82,-320.147 7458.13,-316.007 7426,-313.705 7403.68,-312.105 5836.2,-312.846 5815,-305.705 5789.53,-297.125 5765.45,-278.238 5748.62,-262.591"/>
<polygon fill="black" stroke="black" points="5750.6,-259.64 5740.97,-255.23 5745.75,-264.685 5750.6,-259.64"/>
</g>
<!-- 79&#45;&gt;12 -->
<g id="edge91" class="edge"><title>79&#45;&gt;12</title>
<path fill="none" stroke="black" d="M6838.25,-324.638C6811.81,-320.157 6782.86,-315.992 6756,-313.705 6726.04,-311.153 4618.73,-317.333 4591,-305.705 4570.42,-297.073 4552.91,-278.725 4540.96,-263.309"/>
<polygon fill="black" stroke="black" points="4543.67,-261.085 4534.91,-255.126 4538.04,-265.247 4543.67,-261.085"/>
</g>
<!-- 80&#45;&gt;12 -->
<g id="edge92" class="edge"><title>80&#45;&gt;12</title>
<path fill="none" stroke="black" d="M3047.36,-324.587C3079.8,-320.15 3115.22,-316.021 3148,-313.705 3166.12,-312.424 4439.23,-312.688 4456,-305.705 4476.76,-297.061 4494.53,-278.714 4506.7,-263.3"/>
<polygon fill="black" stroke="black" points="4509.64,-265.212 4512.86,-255.12 4504.05,-261 4509.64,-265.212"/>
</g>
<!-- 80&#45;&gt;13 -->
<g id="edge93" class="edge"><title>80&#45;&gt;13</title>
<path fill="none" stroke="black" d="M3047.36,-324.574C3079.8,-320.138 3115.21,-316.012 3148,-313.705 3187.99,-310.891 4552.89,-318.114 4591,-305.705 4617.53,-297.066 4642.92,-277.912 4660.6,-262.178"/>
<polygon fill="black" stroke="black" points="4663.16,-264.579 4668.16,-255.239 4658.43,-259.421 4663.16,-264.579"/>
</g>
<!-- 20&#45;&gt;5 -->
<g id="edge4" class="edge"><title>20&#45;&gt;5</title>
<path fill="none" stroke="black" d="M3654.18,-255.317C3671.56,-274.389 3702.04,-302.497 3736,-309.705 3748.84,-312.429 5613.16,-312.429 5626,-309.705 5656.11,-303.314 5683.75,-281.017 5702.12,-262.787"/>
<polygon fill="black" stroke="black" points="5704.96,-264.893 5709.41,-255.281 5699.93,-260.017 5704.96,-264.893"/>
</g>
<!-- 20&#45;&gt;97 -->
<g id="edge9" class="edge"><title>20&#45;&gt;97</title>
<path fill="none" stroke="black" d="M3673.76,-218.899C3689.64,-211.77 3708.9,-204.071 3727,-199.352 3817.15,-175.847 4063.93,-151.555 4219.94,-137.857"/>
<polygon fill="black" stroke="black" points="4220.42,-141.328 4230.08,-136.97 4219.81,-134.355 4220.42,-141.328"/>
</g>
<!-- 20&#45;&gt;8 -->
<g id="edge5" class="edge"><title>20&#45;&gt;8</title>
<path fill="none" stroke="black" stroke-width="2.09861" d="M3603.37,-218.842C3587.38,-211.792 3568.09,-204.169 3550,-199.352 3430.46,-167.515 3393.78,-194.278 3274,-163.352 3258.56,-159.366 3242.22,-153.517 3227.62,-147.656"/>
<polygon fill="black" stroke="black" stroke-width="2.09861" points="3228.89,-144.391 3218.31,-143.822 3226.22,-150.864 3228.89,-144.391"/>
</g>
<!-- 20&#45;&gt;30 -->
<g id="edge6" class="edge"><title>20&#45;&gt;30</title>
<path fill="none" stroke="black" stroke-width="1.69315" d="M3622.28,-218.942C3604.48,-200.752 3576.16,-171.805 3555.98,-151.187"/>
<polygon fill="black" stroke="black" stroke-width="1.69315" points="3558.45,-148.703 3548.95,-144.003 3553.45,-153.599 3558.45,-148.703"/>
</g>
<!-- 20&#45;&gt;55 -->
<g id="edge7" class="edge"><title>20&#45;&gt;55</title>
<path fill="none" stroke="black" d="M3597.83,-218.953C3582.79,-212.745 3565.64,-205.698 3550,-199.352 3506.44,-181.682 3456.89,-161.917 3420.5,-147.466"/>
<polygon fill="black" stroke="black" points="3421.66,-144.16 3411.08,-143.724 3419.08,-150.666 3421.66,-144.16"/>
</g>
<!-- 89 -->
<g id="node72" class="node"><title>89</title>
<polygon fill="bisque" stroke="black" stroke-width="2" points="8643,-255.028 8499,-255.028 8499,-219.028 8643,-219.028 8643,-255.028"/>
<text text-anchor="middle" x="8571" y="-233.328" font-family="Times,serif" font-size="14.00">userNameValid</text>
</g>
<!-- 20&#45;&gt;89 -->
<g id="edge8" class="edge"><title>20&#45;&gt;89</title>
<path fill="none" stroke="black" d="M3654.18,-255.317C3671.56,-274.389 3702.04,-302.497 3736,-309.705 3752.12,-313.125 8464.88,-313.125 8481,-309.705 8509.28,-303.703 8534.21,-281.471 8550.62,-263.159"/>
<polygon fill="black" stroke="black" points="8553.69,-264.962 8557.54,-255.094 8548.37,-260.404 8553.69,-264.962"/>
</g>
<!-- 21&#45;&gt;5 -->
<g id="edge10" class="edge"><title>21&#45;&gt;5</title>
<path fill="none" stroke="black" d="M3482.46,-255.094C3498.23,-274.28 3526.39,-302.784 3559,-309.705 3573.04,-312.684 5611.96,-312.684 5626,-309.705 5656.11,-303.314 5683.75,-281.017 5702.12,-262.787"/>
<polygon fill="black" stroke="black" points="5704.96,-264.893 5709.41,-255.281 5699.93,-260.017 5704.96,-264.893"/>
</g>
<!-- 21&#45;&gt;8 -->
<g id="edge11" class="edge"><title>21&#45;&gt;8</title>
<path fill="none" stroke="black" stroke-width="2.09861" d="M3433.5,-218.848C3419.48,-212.357 3403.14,-205.146 3388,-199.352 3338.38,-180.36 3324.08,-181.11 3274,-163.352 3260.31,-158.498 3245.63,-152.898 3232.08,-147.559"/>
<polygon fill="black" stroke="black" stroke-width="2.09861" points="3233.02,-144.167 3222.43,-143.731 3230.44,-150.674 3233.02,-144.167"/>
</g>
<!-- 22&#45;&gt;12 -->
<g id="edge12" class="edge"><title>22&#45;&gt;12</title>
<path fill="none" stroke="black" d="M3751.17,-131.648C3929.27,-144.497 4389.47,-179.204 4456,-199.352 4467.42,-202.81 4479.11,-208.293 4489.51,-213.976"/>
<polygon fill="black" stroke="black" points="4487.85,-217.061 4498.27,-218.975 4491.32,-210.98 4487.85,-217.061"/>
</g>
<!-- 28&#45;&gt;19 -->
<g id="edge30" class="edge"><title>28&#45;&gt;19</title>
<path fill="none" stroke="black" d="M3215.4,-218.938C3195.46,-212.728 3172.72,-205.684 3152,-199.352 3092.93,-181.303 3025.63,-161.124 2977.03,-146.617"/>
<polygon fill="black" stroke="black" points="2977.84,-143.207 2967.25,-143.702 2975.84,-149.915 2977.84,-143.207"/>
</g>
<!-- 43&#45;&gt;12 -->
<g id="edge36" class="edge"><title>43&#45;&gt;12</title>
<path fill="none" stroke="black" stroke-width="1.69315" d="M3081.57,-255.371C3098.28,-274.49 3127.7,-302.639 3161,-309.705 3178.47,-313.412 4429.53,-313.412 4447,-309.705 4472.65,-304.261 4493.63,-282.316 4507.17,-263.951"/>
<polygon fill="black" stroke="black" stroke-width="1.69315" points="4510.35,-265.513 4513.21,-255.311 4504.61,-261.502 4510.35,-265.513"/>
</g>
<!-- 43&#45;&gt;22 -->
<g id="edge37" class="edge"><title>43&#45;&gt;22</title>
<path fill="none" stroke="black" d="M3099.63,-218.963C3115.09,-211.664 3134.06,-203.81 3152,-199.352 3346.72,-150.961 3407.96,-214.397 3602,-163.352 3615.4,-159.827 3629.33,-154.126 3641.69,-148.258"/>
<polygon fill="black" stroke="black" points="3643.38,-151.329 3650.81,-143.772 3640.29,-145.048 3643.38,-151.329"/>
</g>
<!-- 27 -->
<g id="node69" class="node"><title>27</title>
<polygon fill="bisque" stroke="black" stroke-width="2" points="8815,-255.028 8661,-255.028 8661,-219.028 8815,-219.028 8815,-255.028"/>
<text text-anchor="middle" x="8738" y="-233.328" font-family="Times,serif" font-size="14.00">createUserInA3&#39;P</text>
</g>
<!-- 43&#45;&gt;27 -->
<g id="edge38" class="edge"><title>43&#45;&gt;27</title>
<path fill="none" stroke="black" d="M3081.57,-255.371C3098.28,-274.49 3127.7,-302.639 3161,-309.705 3179.62,-313.656 8624.38,-313.656 8643,-309.705 8672.33,-303.481 8698.79,-281.162 8716.29,-262.882"/>
<polygon fill="black" stroke="black" points="8719.03,-265.08 8723.23,-255.353 8713.88,-260.337 8719.03,-265.08"/>
</g>
<!-- 60&#45;&gt;11 -->
<g id="edge63" class="edge"><title>60&#45;&gt;11</title>
<path fill="none" stroke="black" d="M2738.81,-255.171C2757.94,-274.115 2791.22,-302.111 2827,-309.705 2845.75,-313.683 4188.25,-313.683 4207,-309.705 4244.48,-301.752 4282.27,-279.115 4307.76,-261.197"/>
<polygon fill="black" stroke="black" points="4309.84,-264.011 4315.91,-255.329 4305.75,-258.33 4309.84,-264.011"/>
</g>
<!-- 44 -->
<g id="node70" class="node"><title>44</title>
<polygon fill="bisque" stroke="black" stroke-width="2" points="8480.5,-255.028 8325.5,-255.028 8325.5,-219.028 8480.5,-219.028 8480.5,-255.028"/>
<text text-anchor="middle" x="8403" y="-233.328" font-family="Times,serif" font-size="14.00">mkRequestForA3</text>
</g>
<!-- 60&#45;&gt;44 -->
<g id="edge64" class="edge"><title>60&#45;&gt;44</title>
<path fill="none" stroke="black" d="M2738.81,-255.171C2757.94,-274.115 2791.22,-302.111 2827,-309.705 2845.6,-313.652 8285.4,-313.652 8304,-309.705 8334.11,-303.314 8361.75,-281.017 8380.12,-262.787"/>
<polygon fill="black" stroke="black" points="8382.96,-264.893 8387.41,-255.281 8377.93,-260.017 8382.96,-264.893"/>
</g>
<!-- 62 -->
<g id="node71" class="node"><title>62</title>
<polygon fill="cyan" stroke="black" stroke-width="2" points="8626.5,-143.676 8499.5,-143.676 8499.5,-107.676 8626.5,-107.676 8626.5,-143.676"/>
<text text-anchor="middle" x="8563" y="-121.976" font-family="Times,serif" font-size="14.00">sendRequest</text>
</g>
<!-- 60&#45;&gt;62 -->
<g id="edge65" class="edge"><title>60&#45;&gt;62</title>
<path fill="none" stroke="black" d="M2757.58,-218.935C2775.3,-211.336 2797.31,-203.24 2818,-199.352 3118.03,-142.974 8008.6,-186.565 8313,-163.352 8372.64,-158.804 8439.68,-148.696 8489.31,-140.241"/>
<polygon fill="black" stroke="black" points="8490.05,-143.665 8499.31,-138.519 8488.86,-136.766 8490.05,-143.665"/>
</g>
<!-- 88&#45;&gt;12 -->
<g id="edge94" class="edge"><title>88&#45;&gt;12</title>
<path fill="none" stroke="black" d="M2913.66,-255.077C2929.65,-274.247 2958.17,-302.737 2991,-309.705 3010.78,-313.903 4427.22,-313.903 4447,-309.705 4472.65,-304.261 4493.63,-282.316 4507.17,-263.951"/>
<polygon fill="black" stroke="black" points="4510.35,-265.513 4513.21,-255.311 4504.61,-261.502 4510.35,-265.513"/>
</g>
<!-- 27&#45;&gt;62 -->
<g id="edge29" class="edge"><title>27&#45;&gt;62</title>
<path fill="none" stroke="black" d="M8710.66,-218.942C8680.56,-200.139 8632.08,-169.84 8598.93,-149.13"/>
<polygon fill="black" stroke="black" points="8600.78,-146.154 8590.44,-143.823 8597.07,-152.09 8600.78,-146.154"/>
</g>
<!-- 29 -->
<g id="node73" class="node"><title>29</title>
<polygon fill="bisque" stroke="black" stroke-width="2" points="13052.5,-361.9 12907.5,-361.9 12907.5,-325.9 13052.5,-325.9 13052.5,-361.9"/>
<text text-anchor="middle" x="12980" y="-340.2" font-family="Times,serif" font-size="14.00">extractUserPath</text>
</g>
<!-- 27&#45;&gt;29 -->
<g id="edge27" class="edge"><title>27&#45;&gt;29</title>
<path fill="none" stroke="black" d="M8815.27,-237.914C9349.32,-237.323 12483.2,-237.155 12899,-313.705 12909.7,-315.673 12920.8,-318.88 12931.3,-322.462"/>
<polygon fill="black" stroke="black" points="12930.2,-325.758 12940.8,-325.833 12932.5,-319.168 12930.2,-325.758"/>
</g>
<!-- 45 -->
<g id="node74" class="node"><title>45</title>
<polygon fill="bisque" stroke="black" stroke-width="2" points="12889.5,-361.9 12662.5,-361.9 12662.5,-325.9 12889.5,-325.9 12889.5,-361.9"/>
<text text-anchor="middle" x="12776" y="-340.2" font-family="Times,serif" font-size="14.00">mkUserCreationRequestForA3</text>
</g>
<!-- 27&#45;&gt;45 -->
<g id="edge28" class="edge"><title>27&#45;&gt;45</title>
<path fill="none" stroke="black" d="M8815.05,-238.553C9329.4,-242.183 12256.7,-264.876 12650,-313.705 12667.6,-315.89 12686.3,-319.507 12703.8,-323.463"/>
<polygon fill="black" stroke="black" points="12703.4,-326.965 12714,-325.824 12705,-320.147 12703.4,-326.965"/>
</g>
<!-- 44&#45;&gt;97 -->
<g id="edge39" class="edge"><title>44&#45;&gt;97</title>
<path fill="none" stroke="black" d="M8369.75,-218.98C8353.16,-211.392 8332.52,-203.292 8313,-199.352 8141.01,-164.635 5330.38,-168.371 5155,-163.352 4921.26,-156.664 4649.36,-142.934 4490.32,-134.302"/>
<polygon fill="black" stroke="black" points="4490.18,-130.789 4480.01,-133.741 4489.8,-137.779 4490.18,-130.789"/>
</g>
<!-- 89&#45;&gt;97 -->
<g id="edge95" class="edge"><title>89&#45;&gt;97</title>
<path fill="none" stroke="black" stroke-width="1.69315" d="M8541.27,-218.98C8526.38,-211.392 8507.78,-203.292 8490,-199.352 8309.1,-159.282 5340.21,-168.596 5155,-163.352 4921.26,-156.735 4649.36,-142.983 4490.32,-134.327"/>
<polygon fill="black" stroke="black" stroke-width="1.69315" points="4490.18,-130.814 4480.01,-133.764 4489.8,-137.804 4490.18,-130.814"/>
</g>
<!-- 29&#45;&gt;15 -->
<g id="edge31" class="edge"><title>29&#45;&gt;15</title>
<path fill="none" stroke="black" d="M12941.2,-325.849C12928.1,-320.911 12913.1,-316.185 12899,-313.705 12862.8,-307.358 7646.62,-317.943 7612,-305.705 7587.72,-297.121 7565.29,-278.234 7549.73,-262.589"/>
<polygon fill="black" stroke="black" points="7552.11,-260.017 7542.66,-255.228 7547.06,-264.865 7552.11,-260.017"/>
</g>
<!-- 45&#45;&gt;3 -->
<g id="edge40" class="edge"><title>45&#45;&gt;3</title>
<path fill="none" stroke="black" d="M12715,-325.83C12694.5,-320.89 12671.4,-316.169 12650,-313.705 12611,-309.217 7033.56,-317.153 6996,-305.705 6967.73,-297.088 6940.18,-277.656 6921.01,-261.815"/>
<polygon fill="black" stroke="black" points="6923.22,-259.097 6913.33,-255.287 6918.68,-264.43 6923.22,-259.097"/>
</g>
<!-- 45&#45;&gt;44 -->
<g id="edge41" class="edge"><title>45&#45;&gt;44</title>
<path fill="none" stroke="black" d="M12715,-325.836C12694.5,-320.897 12671.4,-316.174 12650,-313.705 12621.3,-310.395 8517.32,-315.107 8490,-305.705 8465.12,-297.141 8441.87,-278.253 8425.67,-262.601"/>
<polygon fill="black" stroke="black" points="8427.86,-259.836 8418.31,-255.237 8422.91,-264.785 8427.86,-259.836"/>
</g>
</g>
</svg>
