<?xml version="1.0" encoding="UTF-8" standalone="no"?>
<!DOCTYPE svg PUBLIC "-//W3C//DTD SVG 1.1//EN"
 "http://www.w3.org/Graphics/SVG/1.1/DTD/svg11.dtd">
<!-- Generated by graphviz version 2.38.0 (20140413.2041)
 -->
<!-- Title: Diagram of: Thentos.Adhocracy3.Types Pages: 1 -->
<svg width="2258pt" height="385pt"
 viewBox="0.00 0.00 2258.00 384.74" xmlns="http://www.w3.org/2000/svg" xmlns:xlink="http://www.w3.org/1999/xlink">
<g id="graph0" class="graph" transform="scale(1 1) rotate(0) translate(4 380.744)">
<title>Diagram of: Thentos.Adhocracy3.Types</title>
<polygon fill="white" stroke="none" points="-4,4 -4,-380.744 2254,-380.744 2254,4 -4,4"/>
<g id="clust1" class="cluster"><title>cluster_Class_FromJSON</title>
<path fill="#ffc1c1" stroke="black" d="M645,-163C645,-163 1041,-163 1041,-163 1047,-163 1053,-169 1053,-175 1053,-175 1053,-356.744 1053,-356.744 1053,-362.744 1047,-368.744 1041,-368.744 1041,-368.744 645,-368.744 645,-368.744 639,-368.744 633,-362.744 633,-356.744 633,-356.744 633,-175 633,-175 633,-169 639,-163 645,-163"/>
<text text-anchor="middle" x="843" y="-353.544" font-family="Times,serif" font-size="14.00">Class: FromJSON</text>
</g>
<g id="clust2" class="cluster"><title>cluster_Class_FromJSON_Data_A3Error</title>
<path fill="#c6e2ff" stroke="black" d="M859,-171C859,-171 1033,-171 1033,-171 1039,-171 1045,-177 1045,-183 1045,-183 1045,-242.391 1045,-242.391 1045,-248.391 1039,-254.391 1033,-254.391 1033,-254.391 859,-254.391 859,-254.391 853,-254.391 847,-248.391 847,-242.391 847,-242.391 847,-183 847,-183 847,-177 853,-171 859,-171"/>
<text text-anchor="middle" x="946" y="-239.191" font-family="Times,serif" font-size="14.00">Instance for: A3Error</text>
</g>
<g id="clust3" class="cluster"><title>cluster_Class_FromJSON_Data_A3ErrorMessage</title>
<path fill="#c6e2ff" stroke="black" d="M653,-171C653,-171 827,-171 827,-171 833,-171 839,-177 839,-183 839,-183 839,-242.391 839,-242.391 839,-248.391 833,-254.391 827,-254.391 827,-254.391 653,-254.391 653,-254.391 647,-254.391 641,-248.391 641,-242.391 641,-242.391 641,-183 641,-183 641,-177 647,-171 653,-171"/>
<text text-anchor="middle" x="740" y="-239.191" font-family="Times,serif" font-size="14.00">Instance for: A3ErrorMessage</text>
</g>
<g id="clust4" class="cluster"><title>cluster_Class_ToJSON</title>
<path fill="#ffc1c1" stroke="black" d="M85,-163C85,-163 437,-163 437,-163 443,-163 449,-169 449,-175 449,-175 449,-356.744 449,-356.744 449,-362.744 443,-368.744 437,-368.744 437,-368.744 85,-368.744 85,-368.744 79,-368.744 73,-362.744 73,-356.744 73,-356.744 73,-175 73,-175 73,-169 79,-163 85,-163"/>
<text text-anchor="middle" x="261" y="-353.544" font-family="Times,serif" font-size="14.00">Class: ToJSON</text>
</g>
<g id="clust5" class="cluster"><title>cluster_Class_ToJSON_Data_A3Error</title>
<path fill="#c6e2ff" stroke="black" d="M93,-171C93,-171 239,-171 239,-171 245,-171 251,-177 251,-183 251,-183 251,-242.391 251,-242.391 251,-248.391 245,-254.391 239,-254.391 239,-254.391 93,-254.391 93,-254.391 87,-254.391 81,-248.391 81,-242.391 81,-242.391 81,-183 81,-183 81,-177 87,-171 93,-171"/>
<text text-anchor="middle" x="166" y="-239.191" font-family="Times,serif" font-size="14.00">Instance for: A3Error</text>
</g>
<g id="clust6" class="cluster"><title>cluster_Class_ToJSON_Data_A3ErrorMessage</title>
<path fill="#c6e2ff" stroke="black" d="M271,-171C271,-171 429,-171 429,-171 435,-171 441,-177 441,-183 441,-183 441,-242.391 441,-242.391 441,-248.391 435,-254.391 429,-254.391 429,-254.391 271,-254.391 271,-254.391 265,-254.391 259,-248.391 259,-242.391 259,-242.391 259,-183 259,-183 259,-177 265,-171 271,-171"/>
<text text-anchor="middle" x="350" y="-239.191" font-family="Times,serif" font-size="14.00">Instance for: A3ErrorMessage</text>
</g>
<g id="clust7" class="cluster"><title>cluster_Data_A3Error</title>
<path fill="papayawhip" stroke="black" d="M20,-8C20,-8 406,-8 406,-8 412,-8 418,-14 418,-20 418,-20 418,-143 418,-143 418,-149 412,-155 406,-155 406,-155 20,-155 20,-155 14,-155 8,-149 8,-143 8,-143 8,-20 8,-20 8,-14 14,-8 20,-8"/>
<text text-anchor="middle" x="213" y="-139.8" font-family="Times,serif" font-size="14.00">Data: A3Error</text>
</g>
<g id="clust8" class="cluster"><title>cluster_Data_A3ErrorMessage</title>
<path fill="papayawhip" stroke="black" d="M469,-80C469,-80 613,-80 613,-80 619,-80 625,-86 625,-92 625,-92 625,-238.196 625,-238.196 625,-244.196 619,-250.196 613,-250.196 613,-250.196 469,-250.196 469,-250.196 463,-250.196 457,-244.196 457,-238.196 457,-238.196 457,-92 457,-92 457,-86 463,-80 469,-80"/>
<text text-anchor="middle" x="541" y="-234.996" font-family="Times,serif" font-size="14.00">Data: A3ErrorMessage</text>
</g>
<g id="clust9" class="cluster"><title>cluster_Data_ThentosA3Error</title>
<path fill="papayawhip" stroke="black" d="M1073,-274.067C1073,-274.067 2230,-274.067 2230,-274.067 2236,-274.067 2242,-280.067 2242,-286.067 2242,-286.067 2242,-337.067 2242,-337.067 2242,-343.067 2236,-349.067 2230,-349.067 2230,-349.067 1073,-349.067 1073,-349.067 1067,-349.067 1061,-343.067 1061,-337.067 1061,-337.067 1061,-286.067 1061,-286.067 1061,-280.067 1067,-274.067 1073,-274.067"/>
<text text-anchor="middle" x="1651.5" y="-333.867" font-family="Times,serif" font-size="14.00">Data: ThentosA3Error</text>
</g>
<!-- 13 -->
<g id="node1" class="node"><title>13</title>
<polygon fill="bisque" stroke="black" stroke-width="2" points="1037.16,-191.92 1037.16,-210.471 983.759,-223.589 908.241,-223.589 854.843,-210.471 854.843,-191.92 908.241,-178.803 983.759,-178.803 1037.16,-191.92"/>
<text text-anchor="middle" x="946" y="-197.496" font-family="Times,serif" font-size="14.00">parseJSON</text>
</g>
<!-- 3 -->
<g id="node7" class="node"><title>3</title>
<polygon fill="goldenrod" stroke="black" stroke-width="2" points="322,-52 222,-52 218,-48 218,-16 318,-16 322,-20 322,-52"/>
<polyline fill="none" stroke="black" stroke-width="2" points="318,-48 218,-48 "/>
<polyline fill="none" stroke="black" stroke-width="2" points="318,-48 318,-16 "/>
<polyline fill="none" stroke="black" stroke-width="2" points="318,-48 322,-52 "/>
<text text-anchor="middle" x="270" y="-30.3" font-family="Times,serif" font-size="14.00">A3Error</text>
</g>
<!-- 13&#45;&gt;3 -->
<g id="edge5" class="edge"><title>13&#45;&gt;3</title>
<path fill="none" stroke="chartreuse" d="M902.952,-180.099C842.94,-152.964 730.104,-105.123 629,-80 526.884,-54.6252 404.695,-43.1906 332.424,-38.3175"/>
<polygon fill="chartreuse" stroke="chartreuse" points="332.339,-34.8046 322.132,-37.6453 331.883,-41.7897 332.339,-34.8046"/>
</g>
<!-- 14 -->
<g id="node2" class="node"><title>14</title>
<polygon fill="bisque" stroke="black" stroke-width="2" points="831.157,-191.92 831.157,-210.471 777.759,-223.589 702.241,-223.589 648.843,-210.471 648.843,-191.92 702.241,-178.803 777.759,-178.803 831.157,-191.92"/>
<text text-anchor="middle" x="740" y="-197.496" font-family="Times,serif" font-size="14.00">parseJSON</text>
</g>
<!-- 4 -->
<g id="node11" class="node"><title>4</title>
<polygon fill="goldenrod" stroke="black" stroke-width="2" points="617,-124 469,-124 465,-120 465,-88 613,-88 617,-92 617,-124"/>
<polyline fill="none" stroke="black" stroke-width="2" points="613,-120 465,-120 "/>
<polyline fill="none" stroke="black" stroke-width="2" points="613,-120 613,-88 "/>
<polyline fill="none" stroke="black" stroke-width="2" points="613,-120 617,-124 "/>
<text text-anchor="middle" x="541" y="-102.3" font-family="Times,serif" font-size="14.00">A3ErrorMessage</text>
</g>
<!-- 14&#45;&gt;4 -->
<g id="edge6" class="edge"><title>14&#45;&gt;4</title>
<path fill="none" stroke="black" d="M696.82,-179.974C664.359,-164.771 619.974,-143.985 586.876,-128.485"/>
<polygon fill="black" stroke="black" points="587.968,-125.131 577.427,-124.06 584.999,-131.47 587.968,-125.131"/>
</g>
<!-- 17 -->
<g id="node3" class="node"><title>17</title>
<polygon fill="khaki" stroke="black" stroke-dasharray="5,2" points="936.255,-286.053 936.255,-314.082 881.627,-333.902 804.373,-333.902 749.745,-314.082 749.745,-286.053 804.373,-266.233 881.627,-266.233 936.255,-286.053"/>
<polygon fill="none" stroke="black" stroke-dasharray="5,2" points="940.25,-283.23 940.25,-316.905 882.326,-337.921 803.674,-337.921 745.75,-316.905 745.75,-283.23 803.674,-262.214 882.326,-262.214 940.25,-283.23"/>
<text text-anchor="middle" x="843" y="-303.867" font-family="Times,serif" font-size="14.00">Data.Aeson</text>
<text text-anchor="middle" x="843" y="-288.867" font-family="Times,serif" font-size="14.00">parseJSON</text>
</g>
<!-- 17&#45;&gt;13 -->
<g id="edge11" class="edge"><title>17&#45;&gt;13</title>
<path fill="none" stroke="navy" d="M882.234,-262.168C896.105,-249.122 911.238,-234.89 923.279,-223.565"/>
</g>
<!-- 17&#45;&gt;14 -->
<g id="edge12" class="edge"><title>17&#45;&gt;14</title>
<path fill="none" stroke="navy" d="M803.766,-262.168C789.895,-249.122 774.762,-234.89 762.721,-223.565"/>
</g>
<!-- 15 -->
<g id="node4" class="node"><title>15</title>
<polygon fill="bisque" stroke="black" stroke-width="2" points="243.105,-191.92 243.105,-210.471 197.938,-223.589 134.062,-223.589 88.8954,-210.471 88.8954,-191.92 134.062,-178.803 197.938,-178.803 243.105,-191.92"/>
<text text-anchor="middle" x="166" y="-197.496" font-family="Times,serif" font-size="14.00">toJSON</text>
</g>
<!-- 10 -->
<g id="node8" class="node"><title>10</title>
<polygon fill="goldenrod" stroke="black" stroke-width="2" points="410,-124 276,-124 276,-120 272,-120 272,-116 276,-116 276,-96 272,-96 272,-92 276,-92 276,-88 410,-88 410,-124"/>
<polyline fill="none" stroke="black" stroke-width="2" points="276,-120 280,-120 280,-116 276,-116 "/>
<polyline fill="none" stroke="black" stroke-width="2" points="276,-96 280,-96 280,-92 276,-92 "/>
<text text-anchor="middle" x="343" y="-102.3" font-family="Times,serif" font-size="14.00">aeDescription</text>
</g>
<!-- 15&#45;&gt;10 -->
<g id="edge7" class="edge"><title>15&#45;&gt;10</title>
<path fill="none" stroke="black" d="M209.429,-182.072C227.221,-174.261 247.854,-164.701 266,-155 280.335,-147.336 295.624,-138.052 308.769,-129.699"/>
<polygon fill="black" stroke="black" points="310.968,-132.446 317.489,-124.096 307.184,-126.557 310.968,-132.446"/>
</g>
<!-- 11 -->
<g id="node9" class="node"><title>11</title>
<polygon fill="goldenrod" stroke="black" stroke-width="2" points="257.5,-124 138.5,-124 138.5,-120 134.5,-120 134.5,-116 138.5,-116 138.5,-96 134.5,-96 134.5,-92 138.5,-92 138.5,-88 257.5,-88 257.5,-124"/>
<polyline fill="none" stroke="black" stroke-width="2" points="138.5,-120 142.5,-120 142.5,-116 138.5,-116 "/>
<polyline fill="none" stroke="black" stroke-width="2" points="138.5,-96 142.5,-96 142.5,-92 138.5,-92 "/>
<text text-anchor="middle" x="198" y="-102.3" font-family="Times,serif" font-size="14.00">aeLocation</text>
</g>
<!-- 15&#45;&gt;11 -->
<g id="edge8" class="edge"><title>15&#45;&gt;11</title>
<path fill="none" stroke="black" d="M173.422,-178.58C177.998,-165.254 183.903,-148.056 188.778,-133.858"/>
<polygon fill="black" stroke="black" points="192.175,-134.742 192.112,-124.148 185.554,-132.469 192.175,-134.742"/>
</g>
<!-- 12 -->
<g id="node10" class="node"><title>12</title>
<polygon fill="goldenrod" stroke="black" stroke-width="2" points="120,-124 16,-124 16,-120 12,-120 12,-116 16,-116 16,-96 12,-96 12,-92 16,-92 16,-88 120,-88 120,-124"/>
<polyline fill="none" stroke="black" stroke-width="2" points="16,-120 20,-120 20,-116 16,-116 "/>
<polyline fill="none" stroke="black" stroke-width="2" points="16,-96 20,-96 20,-92 16,-92 "/>
<text text-anchor="middle" x="68" y="-102.3" font-family="Times,serif" font-size="14.00">aeName</text>
</g>
<!-- 15&#45;&gt;12 -->
<g id="edge9" class="edge"><title>15&#45;&gt;12</title>
<path fill="none" stroke="black" d="M143.271,-178.58C128.44,-164.477 109.052,-146.039 93.6668,-131.409"/>
<polygon fill="black" stroke="black" points="95.6902,-128.503 86.0318,-124.148 90.8663,-133.575 95.6902,-128.503"/>
</g>
<!-- 16 -->
<g id="node5" class="node"><title>16</title>
<polygon fill="bisque" stroke="black" stroke-width="2" points="427.105,-191.92 427.105,-210.471 381.938,-223.589 318.062,-223.589 272.895,-210.471 272.895,-191.92 318.062,-178.803 381.938,-178.803 427.105,-191.92"/>
<text text-anchor="middle" x="350" y="-197.496" font-family="Times,serif" font-size="14.00">toJSON</text>
</g>
<!-- 16&#45;&gt;4 -->
<g id="edge10" class="edge"><title>16&#45;&gt;4</title>
<path fill="none" stroke="black" d="M389.575,-180.885C420.803,-165.648 464.348,-144.401 496.73,-128.601"/>
<polygon fill="black" stroke="black" points="498.519,-131.623 505.971,-124.092 495.449,-125.332 498.519,-131.623"/>
</g>
<!-- 18 -->
<g id="node6" class="node"><title>18</title>
<polygon fill="khaki" stroke="black" stroke-dasharray="5,2" points="354.255,-286.053 354.255,-314.082 299.627,-333.902 222.373,-333.902 167.745,-314.082 167.745,-286.053 222.373,-266.233 299.627,-266.233 354.255,-286.053"/>
<polygon fill="none" stroke="black" stroke-dasharray="5,2" points="358.25,-283.23 358.25,-316.905 300.326,-337.921 221.674,-337.921 163.75,-316.905 163.75,-283.23 221.674,-262.214 300.326,-262.214 358.25,-283.23"/>
<text text-anchor="middle" x="261" y="-303.867" font-family="Times,serif" font-size="14.00">Data.Aeson</text>
<text text-anchor="middle" x="261" y="-288.867" font-family="Times,serif" font-size="14.00">toJSON</text>
</g>
<!-- 18&#45;&gt;15 -->
<g id="edge13" class="edge"><title>18&#45;&gt;15</title>
<path fill="none" stroke="navy" d="M224.814,-262.168C212.019,-249.122 198.062,-234.89 186.957,-223.565"/>
</g>
<!-- 18&#45;&gt;16 -->
<g id="edge14" class="edge"><title>18&#45;&gt;16</title>
<path fill="none" stroke="navy" d="M294.901,-262.168C306.887,-249.122 319.963,-234.89 330.367,-223.565"/>
</g>
<!-- 10&#45;&gt;3 -->
<g id="edge2" class="edge"><title>10&#45;&gt;3</title>
<path fill="none" stroke="magenta" d="M324.955,-87.6966C315.938,-79.0503 304.882,-68.4486 295.057,-59.027"/>
<polygon fill="magenta" stroke="magenta" points="287.837,-52.1043 298.17,-55.7775 291.446,-55.5649 295.055,-59.0256 295.055,-59.0256 295.055,-59.0256 291.446,-55.5649 291.941,-62.2736 287.837,-52.1043 287.837,-52.1043"/>
</g>
<!-- 11&#45;&gt;3 -->
<g id="edge3" class="edge"><title>11&#45;&gt;3</title>
<path fill="none" stroke="magenta" d="M215.798,-87.6966C224.604,-79.135 235.382,-68.6562 245.001,-59.3045"/>
<polygon fill="magenta" stroke="magenta" points="252.407,-52.1043 248.374,-62.3016 248.822,-55.5897 245.237,-59.0751 245.237,-59.0751 245.237,-59.0751 248.822,-55.5897 242.1,-55.8487 252.407,-52.1043 252.407,-52.1043"/>
</g>
<!-- 12&#45;&gt;3 -->
<g id="edge4" class="edge"><title>12&#45;&gt;3</title>
<path fill="none" stroke="magenta" d="M108.511,-87.8687C115.315,-85.1435 122.332,-82.4262 129,-80 154.687,-70.6541 183.374,-61.305 208.131,-53.5693"/>
<polygon fill="magenta" stroke="magenta" points="217.766,-50.5777 209.55,-57.8406 212.991,-52.0603 208.216,-53.543 208.216,-53.543 208.216,-53.543 212.991,-52.0603 206.881,-49.2453 217.766,-50.5777 217.766,-50.5777"/>
</g>
<!-- 9 -->
<g id="node12" class="node"><title>9</title>
<polygon fill="gold" stroke="black" stroke-width="2" points="592.5,-219.196 489.5,-219.196 489.5,-215.196 485.5,-215.196 485.5,-211.196 489.5,-211.196 489.5,-191.196 485.5,-191.196 485.5,-187.196 489.5,-187.196 489.5,-183.196 592.5,-183.196 592.5,-219.196"/>
<polyline fill="none" stroke="black" stroke-width="2" points="489.5,-215.196 493.5,-215.196 493.5,-211.196 489.5,-211.196 "/>
<polyline fill="none" stroke="black" stroke-width="2" points="489.5,-191.196 493.5,-191.196 493.5,-187.196 489.5,-187.196 "/>
<text text-anchor="middle" x="541" y="-197.496" font-family="Times,serif" font-size="14.00">a3errors</text>
</g>
<!-- 9&#45;&gt;4 -->
<g id="edge1" class="edge"><title>9&#45;&gt;4</title>
<path fill="none" stroke="magenta" d="M541,-183.102C541,-169.525 541,-150.271 541,-134.527"/>
<polygon fill="magenta" stroke="magenta" points="541,-124.301 545.5,-134.301 541,-129.301 541,-134.301 541,-134.301 541,-134.301 541,-129.301 536.5,-134.301 541,-124.301 541,-124.301"/>
</g>
<!-- 1 -->
<g id="node13" class="node"><title>1</title>
<polygon fill="gold" stroke="black" stroke-width="2" points="2234.5,-318.067 2035.5,-318.067 2031.5,-314.067 2031.5,-282.067 2230.5,-282.067 2234.5,-286.067 2234.5,-318.067"/>
<polyline fill="none" stroke="black" stroke-width="2" points="2230.5,-314.067 2031.5,-314.067 "/>
<polyline fill="none" stroke="black" stroke-width="2" points="2230.5,-314.067 2230.5,-282.067 "/>
<polyline fill="none" stroke="black" stroke-width="2" points="2230.5,-314.067 2234.5,-318.067 "/>
<text text-anchor="middle" x="2133" y="-296.367" font-family="Times,serif" font-size="14.00">A3BackendErrorResponse</text>
</g>
<!-- 2 -->
<g id="node14" class="node"><title>2</title>
<polygon fill="gold" stroke="black" stroke-width="2" points="2013.5,-318.067 1832.5,-318.067 1828.5,-314.067 1828.5,-282.067 2009.5,-282.067 2013.5,-286.067 2013.5,-318.067"/>
<polyline fill="none" stroke="black" stroke-width="2" points="2009.5,-314.067 1828.5,-314.067 "/>
<polyline fill="none" stroke="black" stroke-width="2" points="2009.5,-314.067 2009.5,-282.067 "/>
<polyline fill="none" stroke="black" stroke-width="2" points="2009.5,-314.067 2013.5,-318.067 "/>
<text text-anchor="middle" x="1921" y="-296.367" font-family="Times,serif" font-size="14.00">A3BackendInvalidJson</text>
</g>
<!-- 5 -->
<g id="node15" class="node"><title>5</title>
<polygon fill="gold" stroke="black" stroke-width="2" points="1810.5,-318.067 1639.5,-318.067 1635.5,-314.067 1635.5,-282.067 1806.5,-282.067 1810.5,-286.067 1810.5,-318.067"/>
<polyline fill="none" stroke="black" stroke-width="2" points="1806.5,-314.067 1635.5,-314.067 "/>
<polyline fill="none" stroke="black" stroke-width="2" points="1806.5,-314.067 1806.5,-282.067 "/>
<polyline fill="none" stroke="black" stroke-width="2" points="1806.5,-314.067 1810.5,-318.067 "/>
<text text-anchor="middle" x="1723" y="-296.367" font-family="Times,serif" font-size="14.00">A3NoDefaultPersona</text>
</g>
<!-- 6 -->
<g id="node16" class="node"><title>6</title>
<polygon fill="gold" stroke="black" stroke-width="2" points="1617,-318.067 1407,-318.067 1403,-314.067 1403,-282.067 1613,-282.067 1617,-286.067 1617,-318.067"/>
<polyline fill="none" stroke="black" stroke-width="2" points="1613,-314.067 1403,-314.067 "/>
<polyline fill="none" stroke="black" stroke-width="2" points="1613,-314.067 1613,-282.067 "/>
<polyline fill="none" stroke="black" stroke-width="2" points="1613,-314.067 1617,-318.067 "/>
<text text-anchor="middle" x="1510" y="-296.367" font-family="Times,serif" font-size="14.00">A3PersonaLacksExternalUrl</text>
</g>
<!-- 7 -->
<g id="node17" class="node"><title>7</title>
<polygon fill="gold" stroke="black" stroke-width="2" points="1384.5,-318.067 1237.5,-318.067 1233.5,-314.067 1233.5,-282.067 1380.5,-282.067 1384.5,-286.067 1384.5,-318.067"/>
<polyline fill="none" stroke="black" stroke-width="2" points="1380.5,-314.067 1233.5,-314.067 "/>
<polyline fill="none" stroke="black" stroke-width="2" points="1380.5,-314.067 1380.5,-282.067 "/>
<polyline fill="none" stroke="black" stroke-width="2" points="1380.5,-314.067 1384.5,-318.067 "/>
<text text-anchor="middle" x="1309" y="-296.367" font-family="Times,serif" font-size="14.00">A3UriParseError</text>
</g>
<!-- 8 -->
<g id="node18" class="node"><title>8</title>
<polygon fill="gold" stroke="black" stroke-width="2" points="1215,-318.067 1073,-318.067 1069,-314.067 1069,-282.067 1211,-282.067 1215,-286.067 1215,-318.067"/>
<polyline fill="none" stroke="black" stroke-width="2" points="1211,-314.067 1069,-314.067 "/>
<polyline fill="none" stroke="black" stroke-width="2" points="1211,-314.067 1211,-282.067 "/>
<polyline fill="none" stroke="black" stroke-width="2" points="1211,-314.067 1215,-318.067 "/>
<text text-anchor="middle" x="1142" y="-296.367" font-family="Times,serif" font-size="14.00">GenericA3Error</text>
</g>
</g>
</svg>
