<?xml version="1.0" encoding="UTF-8" standalone="no"?>
<!DOCTYPE svg PUBLIC "-//W3C//DTD SVG 1.1//EN"
 "http://www.w3.org/Graphics/SVG/1.1/DTD/svg11.dtd">
<!-- Generated by graphviz version 2.38.0 (20140413.2041)
 -->
<!-- Title: Diagram of: Thentos.Adhocracy3.Backend.Core Pages: 1 -->
<svg width="477pt" height="260pt"
 viewBox="0.00 0.00 477.00 260.00" xmlns="http://www.w3.org/2000/svg" xmlns:xlink="http://www.w3.org/1999/xlink">
<g id="graph0" class="graph" transform="scale(1 1) rotate(0) translate(4 256)">
<title>Diagram of: Thentos.Adhocracy3.Backend.Core</title>
<polygon fill="white" stroke="none" points="-4,4 -4,-256 473,-256 473,4 -4,4"/>
<!-- 1 -->
<g id="node1" class="node"><title>1</title>
<polygon fill="gold" stroke="black" stroke-width="2" points="329.5,-252 119.5,-252 119.5,-216 329.5,-216 329.5,-252"/>
<text text-anchor="middle" x="224.5" y="-230.3" font-family="Times,serif" font-size="14.00">a3ActionErrorToServantErr</text>
</g>
<!-- 2 -->
<g id="node2" class="node"><title>2</title>
<polygon fill="bisque" stroke="black" stroke-width="2" points="271.5,-180 177.5,-180 177.5,-144 271.5,-144 271.5,-180"/>
<text text-anchor="middle" x="224.5" y="-158.3" font-family="Times,serif" font-size="14.00">a3Info</text>
</g>
<!-- 1&#45;&gt;2 -->
<g id="edge1" class="edge"><title>1&#45;&gt;2</title>
<path fill="none" stroke="black" d="M224.5,-215.697C224.5,-207.983 224.5,-198.712 224.5,-190.112"/>
<polygon fill="black" stroke="black" points="228,-190.104 224.5,-180.104 221,-190.104 228,-190.104"/>
</g>
<!-- 3 -->
<g id="node3" class="node"><title>3</title>
<polygon fill="bisque" stroke="black" stroke-width="2" points="159,-180 1.42109e-14,-180 1.42109e-14,-144 159,-144 159,-180"/>
<text text-anchor="middle" x="79.5" y="-158.3" font-family="Times,serif" font-size="14.00">actionErrorA3Info</text>
</g>
<!-- 1&#45;&gt;3 -->
<g id="edge2" class="edge"><title>1&#45;&gt;3</title>
<path fill="none" stroke="black" d="M189.029,-215.876C169.383,-206.392 144.778,-194.513 123.868,-184.419"/>
<polygon fill="black" stroke="black" points="125.383,-181.264 114.856,-180.068 122.34,-187.568 125.383,-181.264"/>
</g>
<!-- 6 -->
<g id="node6" class="node"><title>6</title>
<polygon fill="cyan" stroke="black" stroke-width="2" points="469,-180 290,-180 290,-144 469,-144 469,-180"/>
<text text-anchor="middle" x="379.5" y="-158.3" font-family="Times,serif" font-size="14.00">mkA3StyleServantErr</text>
</g>
<!-- 1&#45;&gt;6 -->
<g id="edge3" class="edge"><title>1&#45;&gt;6</title>
<path fill="none" stroke="black" d="M262.417,-215.876C283.513,-206.349 309.956,-194.407 332.373,-184.283"/>
<polygon fill="black" stroke="black" points="334.033,-187.374 341.706,-180.068 331.152,-180.994 334.033,-187.374"/>
</g>
<!-- 4 -->
<g id="node4" class="node"><title>4</title>
<polygon fill="cyan" stroke="black" stroke-width="2" points="143.5,-108 25.5,-108 25.5,-72 143.5,-72 143.5,-108"/>
<text text-anchor="middle" x="84.5" y="-86.3" font-family="Times,serif" font-size="14.00">impossible</text>
</g>
<!-- 2&#45;&gt;4 -->
<g id="edge4" class="edge"><title>2&#45;&gt;4</title>
<path fill="none" stroke="black" d="M190.252,-143.876C171.439,-134.469 147.915,-122.708 127.834,-112.667"/>
<polygon fill="black" stroke="black" points="129.389,-109.531 118.88,-108.19 126.259,-115.792 129.389,-109.531"/>
</g>
<!-- 5 -->
<g id="node5" class="node"><title>5</title>
<polygon fill="bisque" stroke="black" stroke-width="2" points="265,-108 172,-108 172,-72 265,-72 265,-108"/>
<text text-anchor="middle" x="218.5" y="-86.3" font-family="Times,serif" font-size="14.00">mkA3</text>
</g>
<!-- 2&#45;&gt;5 -->
<g id="edge5" class="edge"><title>2&#45;&gt;5</title>
<path fill="none" stroke="black" d="M223.017,-143.697C222.356,-135.983 221.561,-126.712 220.824,-118.112"/>
<polygon fill="black" stroke="black" points="224.307,-117.769 219.966,-108.104 217.333,-118.367 224.307,-117.769"/>
</g>
<!-- 3&#45;&gt;4 -->
<g id="edge6" class="edge"><title>3&#45;&gt;4</title>
<path fill="none" stroke="black" d="M80.736,-143.697C81.2869,-135.983 81.9491,-126.712 82.5634,-118.112"/>
<polygon fill="black" stroke="black" points="86.0568,-118.328 83.2783,-108.104 79.0746,-117.83 86.0568,-118.328"/>
</g>
<!-- 3&#45;&gt;5 -->
<g id="edge7" class="edge"><title>3&#45;&gt;5</title>
<path fill="none" stroke="black" stroke-width="2.09861" d="M113.503,-143.876C132.098,-134.512 155.327,-122.814 175.206,-112.803"/>
<polygon fill="black" stroke="black" stroke-width="2.09861" points="177.009,-115.814 184.366,-108.19 173.86,-109.562 177.009,-115.814"/>
</g>
<!-- 7 -->
<g id="node7" class="node"><title>7</title>
<polygon fill="goldenrod" stroke="black" stroke-width="2" points="299,-36 138,-36 138,-0 299,-0 299,-36"/>
<text text-anchor="middle" x="218.5" y="-14.3" font-family="Times,serif" font-size="14.00">mkSimpleA3Error</text>
</g>
<!-- 5&#45;&gt;7 -->
<g id="edge8" class="edge"><title>5&#45;&gt;7</title>
<path fill="none" stroke="chartreuse" d="M218.5,-71.6966C218.5,-63.9827 218.5,-54.7125 218.5,-46.1124"/>
<polygon fill="chartreuse" stroke="chartreuse" points="222,-46.1043 218.5,-36.1043 215,-46.1044 222,-46.1043"/>
</g>
</g>
</svg>
