<?xml version="1.0" encoding="UTF-8" standalone="no"?>
<!DOCTYPE svg PUBLIC "-//W3C//DTD SVG 1.1//EN"
 "http://www.w3.org/Graphics/SVG/1.1/DTD/svg11.dtd">
<!-- Generated by graphviz version 2.38.0 (20140413.2041)
 -->
<!-- Title: Levels within Thentos.Adhocracy3.Backend.Core Pages: 1 -->
<svg width="572pt" height="265pt"
 viewBox="0.00 0.00 572.00 265.00" xmlns="http://www.w3.org/2000/svg" xmlns:xlink="http://www.w3.org/1999/xlink">
<g id="graph0" class="graph" transform="scale(1 1) rotate(0) translate(4 261)">
<title>Levels within Thentos.Adhocracy3.Backend.Core</title>
<polygon fill="white" stroke="none" points="-4,4 -4,-261 568,-261 568,4 -4,4"/>
<g id="clust1" class="cluster"><title>cluster_0</title>
<polygon fill="lavender" stroke="black" points="150,-174 150,-249 556,-249 556,-174 150,-174"/>
<text text-anchor="middle" x="353" y="-233.8" font-family="Times,serif" font-size="14.00">Exported root entities</text>
</g>
<g id="clust2" class="cluster"><title>cluster_1</title>
<polygon fill="lavender" stroke="black" points="8,-91 8,-166 492,-166 492,-91 8,-91"/>
<text text-anchor="middle" x="250" y="-150.8" font-family="Times,serif" font-size="14.00">Level = 1</text>
</g>
<g id="clust3" class="cluster"><title>cluster_2</title>
<polygon fill="lavender" stroke="black" points="214,-8 214,-83 459,-83 459,-8 214,-8"/>
<text text-anchor="middle" x="336.5" y="-67.8" font-family="Times,serif" font-size="14.00">Level = 2</text>
</g>
<!-- 1 -->
<g id="node1" class="node"><title>1</title>
<polygon fill="gold" stroke="black" stroke-width="2" points="368,-218 158,-218 158,-182 368,-182 368,-218"/>
<text text-anchor="middle" x="263" y="-196.3" font-family="Times,serif" font-size="14.00">a3ActionErrorToServantErr</text>
</g>
<!-- 2 -->
<g id="node3" class="node"><title>2</title>
<polygon fill="bisque" stroke="black" stroke-width="2" points="110,-135 16,-135 16,-99 110,-99 110,-135"/>
<text text-anchor="middle" x="63" y="-113.3" font-family="Times,serif" font-size="14.00">a3Info</text>
</g>
<!-- 1&#45;&gt;2 -->
<g id="edge1" class="edge"><title>1&#45;&gt;2</title>
<path fill="none" stroke="black" d="M160.522,-181.998C146.182,-177.775 131.94,-172.523 119,-166 107.03,-159.965 95.4851,-150.839 86.0194,-142.16"/>
<polygon fill="black" stroke="black" points="88.2375,-139.438 78.5935,-135.051 83.397,-144.494 88.2375,-139.438"/>
</g>
<!-- 3 -->
<g id="node4" class="node"><title>3</title>
<polygon fill="bisque" stroke="black" stroke-width="2" points="484.5,-135 325.5,-135 325.5,-99 484.5,-99 484.5,-135"/>
<text text-anchor="middle" x="405" y="-113.3" font-family="Times,serif" font-size="14.00">actionErrorA3Info</text>
</g>
<!-- 1&#45;&gt;3 -->
<g id="edge2" class="edge"><title>1&#45;&gt;3</title>
<path fill="none" stroke="black" d="M293.115,-181.822C314.388,-169.687 343.091,-153.314 366.098,-140.19"/>
<polygon fill="black" stroke="black" points="367.977,-143.148 374.929,-135.153 364.508,-137.068 367.977,-143.148"/>
</g>
<!-- 6 -->
<g id="node5" class="node"><title>6</title>
<polygon fill="cyan" stroke="black" stroke-width="2" points="307.5,-135 128.5,-135 128.5,-99 307.5,-99 307.5,-135"/>
<text text-anchor="middle" x="218" y="-113.3" font-family="Times,serif" font-size="14.00">mkA3StyleServantErr</text>
</g>
<!-- 1&#45;&gt;6 -->
<g id="edge3" class="edge"><title>1&#45;&gt;6</title>
<path fill="none" stroke="black" d="M253.457,-181.822C247.371,-170.868 239.368,-156.462 232.505,-144.108"/>
<polygon fill="black" stroke="black" points="235.446,-142.195 227.53,-135.153 229.327,-145.595 235.446,-142.195"/>
</g>
<!-- 7 -->
<g id="node2" class="node"><title>7</title>
<polygon fill="goldenrod" stroke="black" stroke-width="2" points="547.5,-218 386.5,-218 386.5,-182 547.5,-182 547.5,-218"/>
<text text-anchor="middle" x="467" y="-196.3" font-family="Times,serif" font-size="14.00">mkSimpleA3Error</text>
</g>
<!-- 4 -->
<g id="node6" class="node"><title>4</title>
<polygon fill="cyan" stroke="black" stroke-width="2" points="340,-52 222,-52 222,-16 340,-16 340,-52"/>
<text text-anchor="middle" x="281" y="-30.3" font-family="Times,serif" font-size="14.00">impossible</text>
</g>
<!-- 2&#45;&gt;4 -->
<g id="edge4" class="edge"><title>2&#45;&gt;4</title>
<path fill="none" stroke="black" d="M100.16,-98.8686C106.411,-96.1435 112.861,-93.4261 119,-91 151.464,-78.1705 188.192,-65.3404 218.459,-55.2039"/>
<polygon fill="black" stroke="black" points="219.664,-58.4917 228.045,-52.011 217.451,-51.8504 219.664,-58.4917"/>
</g>
<!-- 5 -->
<g id="node7" class="node"><title>5</title>
<polygon fill="bisque" stroke="black" stroke-width="2" points="451.5,-52 358.5,-52 358.5,-16 451.5,-16 451.5,-52"/>
<text text-anchor="middle" x="405" y="-30.3" font-family="Times,serif" font-size="14.00">mkA3</text>
</g>
<!-- 2&#45;&gt;5 -->
<g id="edge5" class="edge"><title>2&#45;&gt;5</title>
<path fill="none" stroke="black" d="M95.7295,-98.8789C103.192,-95.6906 111.22,-92.7997 119,-91 168.826,-79.474 301.35,-101.575 349,-83 361.991,-77.9358 374.063,-68.4953 383.646,-59.3177"/>
<polygon fill="black" stroke="black" points="386.234,-61.678 390.769,-52.1025 381.253,-56.7603 386.234,-61.678"/>
</g>
<!-- 3&#45;&gt;4 -->
<g id="edge6" class="edge"><title>3&#45;&gt;4</title>
<path fill="none" stroke="black" d="M375.66,-98.8932C367.299,-93.8843 358.228,-88.3219 350,-83 337.795,-75.1059 324.641,-66.0878 313.125,-58.0157"/>
<polygon fill="black" stroke="black" points="314.87,-54.9636 304.681,-52.0615 310.836,-60.6845 314.87,-54.9636"/>
</g>
<!-- 3&#45;&gt;5 -->
<g id="edge7" class="edge"><title>3&#45;&gt;5</title>
<path fill="none" stroke="black" stroke-width="2.09861" d="M405,-98.822C405,-88.1903 405,-74.306 405,-62.2035"/>
<polygon fill="black" stroke="black" stroke-width="2.09861" points="408.5,-62.1532 405,-52.1533 401.5,-62.1533 408.5,-62.1532"/>
</g>
<!-- 5&#45;&gt;7 -->
<g id="edge8" class="edge"><title>5&#45;&gt;7</title>
<path fill="none" stroke="chartreuse" d="M451.757,-52.2195C468.832,-61.047 486.318,-73.6728 496,-91 512.26,-120.098 507.758,-134.809 496,-166 495.058,-168.498 493.832,-170.93 492.417,-173.267"/>
<polygon fill="chartreuse" stroke="chartreuse" points="489.293,-171.61 486.222,-181.75 494.946,-175.738 489.293,-171.61"/>
</g>
</g>
</svg>
