<?xml version="1.0" encoding="UTF-8" standalone="no"?>
<!DOCTYPE svg PUBLIC "-//W3C//DTD SVG 1.1//EN"
 "http://www.w3.org/Graphics/SVG/1.1/DTD/svg11.dtd">
<!-- Generated by graphviz version 2.38.0 (20140413.2041)
 -->
<!-- Title: Levels within Thentos.Adhocracy3.Types Pages: 1 -->
<svg width="1683pt" height="230pt"
 viewBox="0.00 0.00 1683.00 229.74" xmlns="http://www.w3.org/2000/svg" xmlns:xlink="http://www.w3.org/1999/xlink">
<g id="graph0" class="graph" transform="scale(1 1) rotate(0) translate(4 225.744)">
<title>Levels within Thentos.Adhocracy3.Types</title>
<polygon fill="white" stroke="none" points="-4,4 -4,-225.744 1679,-225.744 1679,4 -4,4"/>
<g id="clust1" class="cluster"><title>cluster_0</title>
<polygon fill="lavender" stroke="black" points="410,-99.3913 410,-213.744 1476,-213.744 1476,-99.3913 410,-99.3913"/>
<text text-anchor="middle" x="943" y="-198.544" font-family="Times,serif" font-size="14.00">Exported root entities</text>
</g>
<g id="clust2" class="cluster"><title>cluster_1</title>
<polygon fill="lavender" stroke="black" points="8,-8 8,-91.3913 1667,-91.3913 1667,-8 8,-8"/>
<text text-anchor="middle" x="837.5" y="-76.1913" font-family="Times,serif" font-size="14.00">Level = 1</text>
</g>
<!-- 1 -->
<g id="node1" class="node"><title>1</title>
<polygon fill="gold" stroke="black" stroke-width="2" points="1468,-163.067 1292,-163.067 1288,-159.067 1288,-127.067 1464,-127.067 1468,-131.067 1468,-163.067"/>
<polyline fill="none" stroke="black" stroke-width="2" points="1464,-159.067 1288,-159.067 "/>
<polyline fill="none" stroke="black" stroke-width="2" points="1464,-159.067 1464,-127.067 "/>
<polyline fill="none" stroke="black" stroke-width="2" points="1464,-159.067 1468,-163.067 "/>
<text text-anchor="middle" x="1378" y="-141.367" font-family="Times,serif" font-size="14.00">Data: ThentosA3Error</text>
</g>
<!-- 3 -->
<g id="node2" class="node"><title>3</title>
<polygon fill="goldenrod" stroke="black" stroke-width="2" points="1002.5,-163.067 869.5,-163.067 865.5,-159.067 865.5,-127.067 998.5,-127.067 1002.5,-131.067 1002.5,-163.067"/>
<polyline fill="none" stroke="black" stroke-width="2" points="998.5,-159.067 865.5,-159.067 "/>
<polyline fill="none" stroke="black" stroke-width="2" points="998.5,-159.067 998.5,-127.067 "/>
<polyline fill="none" stroke="black" stroke-width="2" points="998.5,-159.067 1002.5,-163.067 "/>
<text text-anchor="middle" x="934" y="-141.367" font-family="Times,serif" font-size="14.00">Data: A3Error</text>
</g>
<!-- 4 -->
<g id="node3" class="node"><title>4</title>
<polygon fill="goldenrod" stroke="black" stroke-width="2" points="847.5,-163.067 666.5,-163.067 662.5,-159.067 662.5,-127.067 843.5,-127.067 847.5,-131.067 847.5,-163.067"/>
<polyline fill="none" stroke="black" stroke-width="2" points="843.5,-159.067 662.5,-159.067 "/>
<polyline fill="none" stroke="black" stroke-width="2" points="843.5,-159.067 843.5,-127.067 "/>
<polyline fill="none" stroke="black" stroke-width="2" points="843.5,-159.067 847.5,-163.067 "/>
<text text-anchor="middle" x="755" y="-141.367" font-family="Times,serif" font-size="14.00">Data: A3ErrorMessage</text>
</g>
<!-- 17 -->
<g id="node4" class="node"><title>17</title>
<polygon fill="khaki" stroke="black" stroke-dasharray="5,2" points="1265.86,-131.053 1265.86,-159.082 1195.06,-178.902 1094.94,-178.902 1024.14,-159.082 1024.14,-131.053 1094.94,-111.233 1195.06,-111.233 1265.86,-131.053"/>
<polygon fill="none" stroke="black" stroke-dasharray="5,2" points="1269.86,-128 1269.86,-162.135 1195.61,-182.921 1094.39,-182.921 1020.14,-162.135 1020.14,-128 1094.39,-107.214 1195.61,-107.214 1269.86,-128"/>
<text text-anchor="middle" x="1145" y="-148.867" font-family="Times,serif" font-size="14.00">Data.Aeson</text>
<text text-anchor="middle" x="1145" y="-133.867" font-family="Times,serif" font-size="14.00">Class: FromJSON</text>
</g>
<!-- 13 -->
<g id="node6" class="node"><title>13</title>
<polygon fill="bisque" stroke="black" stroke-width="2" points="1658.97,-28.9201 1658.97,-47.4711 1550.03,-60.5887 1395.97,-60.5887 1287.03,-47.4711 1287.03,-28.9201 1395.97,-15.8026 1550.03,-15.8026 1658.97,-28.9201"/>
<text text-anchor="middle" x="1473" y="-34.4956" font-family="Times,serif" font-size="14.00">Class: FromJSON, Data: A3Error</text>
</g>
<!-- 17&#45;&gt;13 -->
<g id="edge5" class="edge"><title>17&#45;&gt;13</title>
<path fill="none" stroke="navy" d="M1227.83,-116.151C1244.74,-110.537 1262.43,-104.725 1279,-99.3913 1320.12,-86.1578 1366.31,-71.8058 1403.3,-60.4358"/>
</g>
<!-- 14 -->
<g id="node7" class="node"><title>14</title>
<polygon fill="bisque" stroke="black" stroke-width="2" points="1268.94,-28.9201 1268.94,-47.4711 1138.35,-60.5887 953.654,-60.5887 823.056,-47.4711 823.056,-28.9201 953.654,-15.8026 1138.35,-15.8026 1268.94,-28.9201"/>
<text text-anchor="middle" x="1046" y="-34.4956" font-family="Times,serif" font-size="14.00">Class: FromJSON, Data: A3ErrorMessage</text>
</g>
<!-- 17&#45;&gt;14 -->
<g id="edge6" class="edge"><title>17&#45;&gt;14</title>
<path fill="none" stroke="navy" d="M1110.37,-107.388C1095.54,-91.6767 1078.75,-73.8844 1066.03,-60.4141"/>
</g>
<!-- 18 -->
<g id="node5" class="node"><title>18</title>
<polygon fill="khaki" stroke="black" stroke-dasharray="5,2" points="640.397,-131.053 640.397,-159.082 576.314,-178.902 485.686,-178.902 421.603,-159.082 421.603,-131.053 485.686,-111.233 576.314,-111.233 640.397,-131.053"/>
<polygon fill="none" stroke="black" stroke-dasharray="5,2" points="644.395,-128.085 644.395,-162.05 576.915,-182.921 485.085,-182.921 417.605,-162.05 417.605,-128.085 485.085,-107.214 576.915,-107.214 644.395,-128.085"/>
<text text-anchor="middle" x="531" y="-148.867" font-family="Times,serif" font-size="14.00">Data.Aeson</text>
<text text-anchor="middle" x="531" y="-133.867" font-family="Times,serif" font-size="14.00">Class: ToJSON</text>
</g>
<!-- 15 -->
<g id="node8" class="node"><title>15</title>
<polygon fill="bisque" stroke="black" stroke-width="2" points="805.507,-28.9201 805.507,-47.4711 703.283,-60.5887 558.717,-60.5887 456.493,-47.4711 456.493,-28.9201 558.717,-15.8026 703.283,-15.8026 805.507,-28.9201"/>
<text text-anchor="middle" x="631" y="-34.4956" font-family="Times,serif" font-size="14.00">Class: ToJSON, Data: A3Error</text>
</g>
<!-- 18&#45;&gt;15 -->
<g id="edge7" class="edge"><title>18&#45;&gt;15</title>
<path fill="none" stroke="navy" d="M565.975,-107.388C580.957,-91.6767 597.923,-73.8844 610.767,-60.4141"/>
</g>
<!-- 16 -->
<g id="node9" class="node"><title>16</title>
<polygon fill="bisque" stroke="black" stroke-width="2" points="438.483,-28.9201 438.483,-47.4711 314.599,-60.5887 139.401,-60.5887 15.5172,-47.4711 15.5172,-28.9201 139.401,-15.8026 314.599,-15.8026 438.483,-28.9201"/>
<text text-anchor="middle" x="227" y="-34.4956" font-family="Times,serif" font-size="14.00">Class: ToJSON, Data: A3ErrorMessage</text>
</g>
<!-- 18&#45;&gt;16 -->
<g id="edge8" class="edge"><title>18&#45;&gt;16</title>
<path fill="none" stroke="navy" d="M452.712,-117.06C401.695,-99.4605 336.058,-76.8178 288.731,-60.4911"/>
</g>
<!-- 13&#45;&gt;3 -->
<g id="edge1" class="edge"><title>13&#45;&gt;3</title>
<path fill="none" stroke="black" d="M1408.79,-60.4073C1371.13,-71.8275 1322.38,-84.8764 1278,-91.3913 1219.27,-100.012 1068.08,-83.1097 1011,-99.3913 994.785,-104.016 978.405,-112.814 964.947,-121.387"/>
<polygon fill="black" stroke="black" points="962.962,-118.503 956.556,-126.942 966.826,-124.34 962.962,-118.503"/>
</g>
<!-- 14&#45;&gt;4 -->
<g id="edge2" class="edge"><title>14&#45;&gt;4</title>
<path fill="none" stroke="black" d="M973.143,-60.4528C937.783,-71.2628 894.861,-85.1151 857,-99.3913 838.379,-106.413 818.242,-115.011 800.818,-122.782"/>
<polygon fill="black" stroke="black" points="799.127,-119.705 791.444,-127 801.999,-126.089 799.127,-119.705"/>
</g>
<!-- 15&#45;&gt;3 -->
<g id="edge3" class="edge"><title>15&#45;&gt;3</title>
<path fill="none" stroke="black" stroke-width="2.09861" d="M700.134,-60.4973C734.225,-70.5956 776.069,-82.3886 814,-91.3913 832.489,-95.7795 838.177,-92.8007 856,-99.3913 871.222,-105.02 886.95,-113.449 900.259,-121.474"/>
<polygon fill="black" stroke="black" stroke-width="2.09861" points="898.708,-124.63 909.052,-126.925 902.397,-118.681 898.708,-124.63"/>
</g>
<!-- 16&#45;&gt;4 -->
<g id="edge4" class="edge"><title>16&#45;&gt;4</title>
<path fill="none" stroke="black" d="M300.662,-60.4549C343.076,-71.7394 397.606,-84.638 447,-91.3913 492.39,-97.5971 608.351,-89.1335 653,-99.3913 674.34,-104.294 696.762,-113.603 715.132,-122.46"/>
<polygon fill="black" stroke="black" points="713.827,-125.72 724.342,-127.025 716.936,-119.448 713.827,-125.72"/>
</g>
</g>
</svg>
