<?xml version="1.0" encoding="UTF-8" standalone="no"?>
<!DOCTYPE svg PUBLIC "-//W3C//DTD SVG 1.1//EN"
 "http://www.w3.org/Graphics/SVG/1.1/DTD/svg11.dtd">
<!-- Generated by graphviz version 2.38.0 (20140413.2041)
 -->
<!-- Title: Overall core Pages: 1 -->
<svg width="4711pt" height="344pt"
 viewBox="0.00 0.00 4711.00 343.70" xmlns="http://www.w3.org/2000/svg" xmlns:xlink="http://www.w3.org/1999/xlink">
<g id="graph0" class="graph" transform="scale(1 1) rotate(0) translate(4 339.705)">
<title>Overall core</title>
<polygon fill="white" stroke="none" points="-4,4 -4,-339.705 4707,-339.705 4707,4 -4,4"/>
<g id="clust1" class="cluster"><title>cluster_Class_Accept</title>
<path fill="#ffc1c1" stroke="black" d="M20,-72C20,-72 320,-72 320,-72 326,-72 332,-78 332,-84 332,-84 332,-315.705 332,-315.705 332,-321.705 326,-327.705 320,-327.705 320,-327.705 20,-327.705 20,-327.705 14,-327.705 8,-321.705 8,-315.705 8,-315.705 8,-84 8,-84 8,-78 14,-72 20,-72"/>
<text text-anchor="middle" x="170" y="-312.505" font-family="Times,serif" font-size="14.00">Class: Accept</text>
</g>
<g id="clust2" class="cluster"><title>cluster_Class_Accept_Data_PrettyHTML</title>
<path fill="#c6e2ff" stroke="black" d="M28,-190.352C28,-190.352 312,-190.352 312,-190.352 318,-190.352 324,-196.352 324,-202.352 324,-202.352 324,-284.705 324,-284.705 324,-290.705 318,-296.705 312,-296.705 312,-296.705 28,-296.705 28,-296.705 22,-296.705 16,-290.705 16,-284.705 16,-284.705 16,-202.352 16,-202.352 16,-196.352 22,-190.352 28,-190.352"/>
<text text-anchor="middle" x="170" y="-281.505" font-family="Times,serif" font-size="14.00">Instance for: PrettyHTML</text>
</g>
<g id="clust3" class="cluster"><title>cluster_Class_HasDocs</title>
<path fill="#ffc1c1" stroke="black" d="M352,-72C352,-72 2020,-72 2020,-72 2026,-72 2032,-78 2032,-84 2032,-84 2032,-315.705 2032,-315.705 2032,-321.705 2026,-327.705 2020,-327.705 2020,-327.705 352,-327.705 352,-327.705 346,-327.705 340,-321.705 340,-315.705 340,-315.705 340,-84 340,-84 340,-78 346,-72 352,-72"/>
<text text-anchor="middle" x="1186" y="-312.505" font-family="Times,serif" font-size="14.00">Class: HasDocs</text>
</g>
<g id="clust4" class="cluster"><title>cluster_Class_HasDocs_Data_Post200ctsa</title>
<path fill="#c6e2ff" stroke="black" d="M1616,-190.352C1616,-190.352 2012,-190.352 2012,-190.352 2018,-190.352 2024,-196.352 2024,-202.352 2024,-202.352 2024,-284.705 2024,-284.705 2024,-290.705 2018,-296.705 2012,-296.705 2012,-296.705 1616,-296.705 1616,-296.705 1610,-296.705 1604,-290.705 1604,-284.705 1604,-284.705 1604,-202.352 1604,-202.352 1604,-196.352 1610,-190.352 1616,-190.352"/>
<text text-anchor="middle" x="1814" y="-281.505" font-family="Times,serif" font-size="14.00">Instance for: (Post200 cts a)</text>
</g>
<g id="clust5" class="cluster"><title>cluster_Class_HasDocs_Data_ThentosAssertHeaderssublayout</title>
<path fill="#c6e2ff" stroke="black" d="M1188,-190.352C1188,-190.352 1584,-190.352 1584,-190.352 1590,-190.352 1596,-196.352 1596,-202.352 1596,-202.352 1596,-284.705 1596,-284.705 1596,-290.705 1590,-296.705 1584,-296.705 1584,-296.705 1188,-296.705 1188,-296.705 1182,-296.705 1176,-290.705 1176,-284.705 1176,-284.705 1176,-202.352 1176,-202.352 1176,-196.352 1182,-190.352 1188,-190.352"/>
<text text-anchor="middle" x="1386" y="-281.505" font-family="Times,serif" font-size="14.00">Instance for: (ThentosAssertHeaders :&gt; sublayout)</text>
</g>
<g id="clust6" class="cluster"><title>cluster_Class_HasDocs_Data_ThentosAuthsublayout</title>
<path fill="#c6e2ff" stroke="black" d="M760,-190.352C760,-190.352 1156,-190.352 1156,-190.352 1162,-190.352 1168,-196.352 1168,-202.352 1168,-202.352 1168,-284.705 1168,-284.705 1168,-290.705 1162,-296.705 1156,-296.705 1156,-296.705 760,-296.705 760,-296.705 754,-296.705 748,-290.705 748,-284.705 748,-284.705 748,-202.352 748,-202.352 748,-196.352 754,-190.352 760,-190.352"/>
<text text-anchor="middle" x="958" y="-281.505" font-family="Times,serif" font-size="14.00">Instance for: (ThentosAuth :&gt; sublayout)</text>
</g>
<g id="clust7" class="cluster"><title>cluster_Class_HasDocs_Data_sublayoutServiceProxy</title>
<path fill="#c6e2ff" stroke="black" d="M360,-190.352C360,-190.352 728,-190.352 728,-190.352 734,-190.352 740,-196.352 740,-202.352 740,-202.352 740,-284.705 740,-284.705 740,-290.705 734,-296.705 728,-296.705 728,-296.705 360,-296.705 360,-296.705 354,-296.705 348,-290.705 348,-284.705 348,-284.705 348,-202.352 348,-202.352 348,-196.352 354,-190.352 360,-190.352"/>
<text text-anchor="middle" x="544" y="-281.505" font-family="Times,serif" font-size="14.00">Instance for: (sublayout :&lt;|&gt; ServiceProxy)</text>
</g>
<g id="clust8" class="cluster"><title>cluster_Class_HasServer</title>
<path fill="#ffc1c1" stroke="black" d="M2052,-72C2052,-72 2386,-72 2386,-72 2392,-72 2398,-78 2398,-84 2398,-84 2398,-315.705 2398,-315.705 2398,-321.705 2392,-327.705 2386,-327.705 2386,-327.705 2052,-327.705 2052,-327.705 2046,-327.705 2040,-321.705 2040,-315.705 2040,-315.705 2040,-84 2040,-84 2040,-78 2046,-72 2052,-72"/>
<text text-anchor="middle" x="2219" y="-312.505" font-family="Times,serif" font-size="14.00">Class: HasServer</text>
</g>
<g id="clust9" class="cluster"><title>cluster_Class_HasServer_Data_ServiceProxy</title>
<path fill="#c6e2ff" stroke="black" d="M2060,-190.352C2060,-190.352 2378,-190.352 2378,-190.352 2384,-190.352 2390,-196.352 2390,-202.352 2390,-202.352 2390,-284.705 2390,-284.705 2390,-290.705 2384,-296.705 2378,-296.705 2378,-296.705 2060,-296.705 2060,-296.705 2054,-296.705 2048,-290.705 2048,-284.705 2048,-284.705 2048,-202.352 2048,-202.352 2048,-196.352 2054,-190.352 2060,-190.352"/>
<text text-anchor="middle" x="2219" y="-281.505" font-family="Times,serif" font-size="14.00">Instance for: ServiceProxy</text>
</g>
<g id="clust10" class="cluster"><title>cluster_Class_MimeRender</title>
<path fill="#ffc1c1" stroke="black" d="M2418,-72C2418,-72 2830,-72 2830,-72 2836,-72 2842,-78 2842,-84 2842,-84 2842,-315.705 2842,-315.705 2842,-321.705 2836,-327.705 2830,-327.705 2830,-327.705 2418,-327.705 2418,-327.705 2412,-327.705 2406,-321.705 2406,-315.705 2406,-315.705 2406,-84 2406,-84 2406,-78 2412,-72 2418,-72"/>
<text text-anchor="middle" x="2624" y="-312.505" font-family="Times,serif" font-size="14.00">Class: MimeRender</text>
</g>
<g id="clust11" class="cluster"><title>cluster_Class_MimeRender_Data_PlainTextDocsAPI</title>
<path fill="#c6e2ff" stroke="black" d="M2426,-190.352C2426,-190.352 2822,-190.352 2822,-190.352 2828,-190.352 2834,-196.352 2834,-202.352 2834,-202.352 2834,-284.705 2834,-284.705 2834,-290.705 2828,-296.705 2822,-296.705 2822,-296.705 2426,-296.705 2426,-296.705 2420,-296.705 2414,-290.705 2414,-284.705 2414,-284.705 2414,-202.352 2414,-202.352 2414,-196.352 2420,-190.352 2426,-190.352"/>
<text text-anchor="middle" x="2624" y="-281.505" font-family="Times,serif" font-size="14.00">Instance for: PlainText Docs.API</text>
</g>
<g id="clust12" class="cluster"><title>cluster_Class_Ord</title>
<path fill="#ffc1c1" stroke="black" d="M2862,-72C2862,-72 3104,-72 3104,-72 3110,-72 3116,-78 3116,-84 3116,-84 3116,-315.705 3116,-315.705 3116,-321.705 3110,-327.705 3104,-327.705 3104,-327.705 2862,-327.705 2862,-327.705 2856,-327.705 2850,-321.705 2850,-315.705 2850,-315.705 2850,-84 2850,-84 2850,-78 2856,-72 2862,-72"/>
<text text-anchor="middle" x="2983" y="-312.505" font-family="Times,serif" font-size="14.00">Class: Ord</text>
</g>
<g id="clust13" class="cluster"><title>cluster_Class_Ord_Data_Context</title>
<path fill="#c6e2ff" stroke="black" d="M2881,-190.352C2881,-190.352 3085,-190.352 3085,-190.352 3091,-190.352 3097,-196.352 3097,-202.352 3097,-202.352 3097,-284.705 3097,-284.705 3097,-290.705 3091,-296.705 3085,-296.705 3085,-296.705 2881,-296.705 2881,-296.705 2875,-296.705 2869,-290.705 2869,-284.705 2869,-284.705 2869,-202.352 2869,-202.352 2869,-196.352 2875,-190.352 2881,-190.352"/>
<text text-anchor="middle" x="2983" y="-281.505" font-family="Times,serif" font-size="14.00">Instance for: Context</text>
</g>
<g id="clust14" class="cluster"><title>cluster_Class_Show</title>
<path fill="#ffc1c1" stroke="black" d="M3136,-68C3136,-68 3378,-68 3378,-68 3384,-68 3390,-74 3390,-80 3390,-80 3390,-288.705 3390,-288.705 3390,-294.705 3384,-300.705 3378,-300.705 3378,-300.705 3136,-300.705 3136,-300.705 3130,-300.705 3124,-294.705 3124,-288.705 3124,-288.705 3124,-80 3124,-80 3124,-74 3130,-68 3136,-68"/>
<text text-anchor="middle" x="3257" y="-285.505" font-family="Times,serif" font-size="14.00">Class: Show</text>
</g>
<g id="clust15" class="cluster"><title>cluster_Class_Show_Data_ProxyUri</title>
<path fill="#c6e2ff" stroke="black" d="M3149,-76C3149,-76 3353,-76 3353,-76 3359,-76 3365,-82 3365,-88 3365,-88 3365,-170.352 3365,-170.352 3365,-176.352 3359,-182.352 3353,-182.352 3353,-182.352 3149,-182.352 3149,-182.352 3143,-182.352 3137,-176.352 3137,-170.352 3137,-170.352 3137,-88 3137,-88 3137,-82 3143,-76 3149,-76"/>
<text text-anchor="middle" x="3251" y="-167.152" font-family="Times,serif" font-size="14.00">Instance for: ProxyUri</text>
</g>
<g id="clust16" class="cluster"><title>cluster_Class_ToSample</title>
<path fill="#ffc1c1" stroke="black" d="M3415,-72C3415,-72 4683,-72 4683,-72 4689,-72 4695,-78 4695,-84 4695,-84 4695,-315.705 4695,-315.705 4695,-321.705 4689,-327.705 4683,-327.705 4683,-327.705 3415,-327.705 3415,-327.705 3409,-327.705 3403,-321.705 3403,-315.705 3403,-315.705 3403,-84 3403,-84 3403,-78 3409,-72 3415,-72"/>
<text text-anchor="middle" x="4049" y="-312.505" font-family="Times,serif" font-size="14.00">Class: ToSample</text>
</g>
<g id="clust17" class="cluster"><title>cluster_Class_ToSample_Data_LoginFormData</title>
<path fill="#c6e2ff" stroke="black" d="M4279,-190.352C4279,-190.352 4675,-190.352 4675,-190.352 4681,-190.352 4687,-196.352 4687,-202.352 4687,-202.352 4687,-284.705 4687,-284.705 4687,-290.705 4681,-296.705 4675,-296.705 4675,-296.705 4279,-296.705 4279,-296.705 4273,-296.705 4267,-290.705 4267,-284.705 4267,-284.705 4267,-202.352 4267,-202.352 4267,-196.352 4273,-190.352 4279,-190.352"/>
<text text-anchor="middle" x="4477" y="-281.505" font-family="Times,serif" font-size="14.00">Instance for: LoginFormData</text>
</g>
<g id="clust18" class="cluster"><title>cluster_Class_ToSample_Data_ServiceSessionMetadata</title>
<path fill="#c6e2ff" stroke="black" d="M3851,-190.352C3851,-190.352 4247,-190.352 4247,-190.352 4253,-190.352 4259,-196.352 4259,-202.352 4259,-202.352 4259,-284.705 4259,-284.705 4259,-290.705 4253,-296.705 4247,-296.705 4247,-296.705 3851,-296.705 3851,-296.705 3845,-296.705 3839,-290.705 3839,-284.705 3839,-284.705 3839,-202.352 3839,-202.352 3839,-196.352 3845,-190.352 3851,-190.352"/>
<text text-anchor="middle" x="4049" y="-281.505" font-family="Times,serif" font-size="14.00">Instance for: ServiceSessionMetadata</text>
</g>
<g id="clust19" class="cluster"><title>cluster_Class_ToSample_Data_UserFormData</title>
<path fill="#c6e2ff" stroke="black" d="M3423,-190.352C3423,-190.352 3819,-190.352 3819,-190.352 3825,-190.352 3831,-196.352 3831,-202.352 3831,-202.352 3831,-284.705 3831,-284.705 3831,-290.705 3825,-296.705 3819,-296.705 3819,-296.705 3423,-296.705 3423,-296.705 3417,-296.705 3411,-290.705 3411,-284.705 3411,-284.705 3411,-202.352 3411,-202.352 3411,-196.352 3417,-190.352 3423,-190.352"/>
<text text-anchor="middle" x="3621" y="-281.505" font-family="Times,serif" font-size="14.00">Instance for: UserFormData</text>
</g>
<!-- 418 -->
<g id="node1" class="node"><title>418</title>
<polygon fill="bisque" stroke="black" points="316.37,-218.006 316.37,-246.051 230.629,-265.882 109.371,-265.882 23.6296,-246.051 23.6296,-218.006 109.371,-198.175 230.629,-198.175 316.37,-218.006"/>
<text text-anchor="middle" x="170" y="-235.828" font-family="Times,serif" font-size="14.00">Thentos.Frontend.Types</text>
<text text-anchor="middle" x="170" y="-220.828" font-family="Times,serif" font-size="14.00">contentType</text>
</g>
<!-- 726 -->
<g id="node2" class="node"><title>726</title>
<polygon fill="khaki" stroke="black" stroke-dasharray="1,5" points="290.858,-103.662 290.858,-131.691 220.061,-151.51 119.939,-151.51 49.1417,-131.691 49.1417,-103.662 119.939,-83.8418 220.061,-83.8418 290.858,-103.662"/>
<polygon fill="none" stroke="black" stroke-dasharray="1,5" points="294.856,-100.609 294.856,-134.743 220.607,-155.529 119.393,-155.529 45.144,-134.743 45.144,-100.609 119.393,-79.823 220.607,-79.823 294.856,-100.609"/>
<text text-anchor="middle" x="170" y="-121.476" font-family="Times,serif" font-size="14.00">Unknown Module</text>
<text text-anchor="middle" x="170" y="-106.476" font-family="Times,serif" font-size="14.00">contentType</text>
</g>
<!-- 418&#45;&gt;726 -->
<g id="edge10" class="edge"><title>418&#45;&gt;726</title>
<path fill="none" stroke="chartreuse" d="M163.799,-198.229C163.296,-188.118 163.139,-176.777 163.327,-165.896"/>
<polygon fill="chartreuse" stroke="chartreuse" points="166.832,-165.754 163.613,-155.66 159.835,-165.558 166.832,-165.754"/>
</g>
<!-- 726&#45;&gt;418 -->
<g id="edge16" class="edge"><title>726&#45;&gt;418</title>
<path fill="none" stroke="navy" d="M176.387,-155.66C176.927,-169.403 176.865,-184.887 176.201,-198.229"/>
</g>
<!-- 153 -->
<g id="node3" class="node"><title>153</title>
<polygon fill="bisque" stroke="black" points="2016.11,-218.006 2016.11,-246.051 1897.72,-265.882 1730.28,-265.882 1611.89,-246.051 1611.89,-218.006 1730.28,-198.175 1897.72,-198.175 2016.11,-218.006"/>
<text text-anchor="middle" x="1814" y="-235.828" font-family="Times,serif" font-size="14.00">Thentos.Backend.Api.Docs.Common</text>
<text text-anchor="middle" x="1814" y="-220.828" font-family="Times,serif" font-size="14.00">docsFor</text>
</g>
<!-- 727 -->
<g id="node7" class="node"><title>727</title>
<polygon fill="khaki" stroke="black" stroke-dasharray="1,5" points="1292.86,-103.662 1292.86,-131.691 1222.06,-151.51 1121.94,-151.51 1051.14,-131.691 1051.14,-103.662 1121.94,-83.8418 1222.06,-83.8418 1292.86,-103.662"/>
<polygon fill="none" stroke="black" stroke-dasharray="1,5" points="1296.86,-100.609 1296.86,-134.743 1222.61,-155.529 1121.39,-155.529 1047.14,-134.743 1047.14,-100.609 1121.39,-79.823 1222.61,-79.823 1296.86,-100.609"/>
<text text-anchor="middle" x="1172" y="-121.476" font-family="Times,serif" font-size="14.00">Unknown Module</text>
<text text-anchor="middle" x="1172" y="-106.476" font-family="Times,serif" font-size="14.00">docsFor</text>
</g>
<!-- 153&#45;&gt;727 -->
<g id="edge1" class="edge"><title>153&#45;&gt;727</title>
<path fill="none" stroke="black" d="M1679.44,-206.64C1650.25,-201.161 1619.57,-195.46 1591,-190.352 1491.4,-172.549 1378.52,-153.701 1295,-139.802"/>
<polygon fill="black" stroke="black" points="1295.4,-136.321 1284.96,-138.132 1294.25,-143.226 1295.4,-136.321"/>
</g>
<!-- 154 -->
<g id="node4" class="node"><title>154</title>
<polygon fill="bisque" stroke="black" points="1588.11,-218.006 1588.11,-246.051 1469.72,-265.882 1302.28,-265.882 1183.89,-246.051 1183.89,-218.006 1302.28,-198.175 1469.72,-198.175 1588.11,-218.006"/>
<text text-anchor="middle" x="1386" y="-235.828" font-family="Times,serif" font-size="14.00">Thentos.Backend.Api.Docs.Common</text>
<text text-anchor="middle" x="1386" y="-220.828" font-family="Times,serif" font-size="14.00">docsFor</text>
</g>
<!-- 154&#45;&gt;727 -->
<g id="edge2" class="edge"><title>154&#45;&gt;727</title>
<path fill="none" stroke="black" d="M1317.33,-198.229C1292.75,-185.654 1265.08,-171.176 1240.52,-158.047"/>
<polygon fill="black" stroke="black" points="1242.09,-154.917 1231.62,-153.277 1238.78,-161.087 1242.09,-154.917"/>
</g>
<!-- 155 -->
<g id="node5" class="node"><title>155</title>
<polygon fill="bisque" stroke="black" points="1160.11,-218.006 1160.11,-246.051 1041.72,-265.882 874.282,-265.882 755.886,-246.051 755.886,-218.006 874.282,-198.175 1041.72,-198.175 1160.11,-218.006"/>
<text text-anchor="middle" x="958" y="-235.828" font-family="Times,serif" font-size="14.00">Thentos.Backend.Api.Docs.Common</text>
<text text-anchor="middle" x="958" y="-220.828" font-family="Times,serif" font-size="14.00">docsFor</text>
</g>
<!-- 155&#45;&gt;727 -->
<g id="edge3" class="edge"><title>155&#45;&gt;727</title>
<path fill="none" stroke="black" d="M1014.27,-198.229C1039.1,-184.845 1068.64,-169.306 1095.42,-155.532"/>
<polygon fill="black" stroke="black" points="1097.08,-158.612 1104.38,-150.934 1093.89,-152.383 1097.08,-158.612"/>
</g>
<!-- 203 -->
<g id="node6" class="node"><title>203</title>
<polygon fill="bisque" stroke="black" points="731.53,-218.006 731.53,-246.051 621.677,-265.882 466.323,-265.882 356.47,-246.051 356.47,-218.006 466.323,-198.175 621.677,-198.175 731.53,-218.006"/>
<text text-anchor="middle" x="544" y="-235.828" font-family="Times,serif" font-size="14.00">Thentos.Backend.Api.Docs.Proxy</text>
<text text-anchor="middle" x="544" y="-220.828" font-family="Times,serif" font-size="14.00">docsFor</text>
</g>
<!-- 203&#45;&gt;727 -->
<g id="edge8" class="edge"><title>203&#45;&gt;727</title>
<path fill="none" stroke="black" d="M659.879,-204.972C684.608,-199.963 710.612,-194.873 735,-190.352 838.071,-171.246 955.533,-151.736 1042.74,-137.904"/>
<polygon fill="black" stroke="black" points="1043.36,-141.35 1052.69,-136.331 1042.26,-134.436 1043.36,-141.35"/>
</g>
<!-- 727&#45;&gt;153 -->
<g id="edge17" class="edge"><title>727&#45;&gt;153</title>
<path fill="none" stroke="navy" d="M1290.33,-136.575C1378.43,-150.688 1501.46,-171.13 1609,-190.352 1634.87,-194.977 1662.47,-200.089 1688.77,-205.082"/>
</g>
<!-- 727&#45;&gt;154 -->
<g id="edge18" class="edge"><title>727&#45;&gt;154</title>
<path fill="none" stroke="navy" d="M1239.62,-150.934C1268.63,-165.766 1302.09,-183.332 1329.73,-198.229"/>
</g>
<!-- 727&#45;&gt;155 -->
<g id="edge19" class="edge"><title>727&#45;&gt;155</title>
<path fill="none" stroke="navy" d="M1112.38,-153.277C1085.76,-167.591 1054.27,-184.11 1026.67,-198.229"/>
</g>
<!-- 727&#45;&gt;203 -->
<g id="edge20" class="edge"><title>727&#45;&gt;203</title>
<path fill="none" stroke="navy" d="M1058.06,-137.871C973.723,-151.704 856.154,-171.231 753,-190.352 725.825,-195.39 696.643,-201.133 668.945,-206.686"/>
</g>
<!-- 219 -->
<g id="node8" class="node"><title>219</title>
<polygon fill="bisque" stroke="black" points="2382.05,-218.006 2382.05,-246.051 2286.54,-265.882 2151.46,-265.882 2055.95,-246.051 2055.95,-218.006 2151.46,-198.175 2286.54,-198.175 2382.05,-218.006"/>
<text text-anchor="middle" x="2219" y="-235.828" font-family="Times,serif" font-size="14.00">Thentos.Backend.Api.Proxy</text>
<text text-anchor="middle" x="2219" y="-220.828" font-family="Times,serif" font-size="14.00">route</text>
</g>
<!-- 735 -->
<g id="node9" class="node"><title>735</title>
<polygon fill="khaki" stroke="black" stroke-dasharray="1,5" points="2339.86,-103.662 2339.86,-131.691 2269.06,-151.51 2168.94,-151.51 2098.14,-131.691 2098.14,-103.662 2168.94,-83.8418 2269.06,-83.8418 2339.86,-103.662"/>
<polygon fill="none" stroke="black" stroke-dasharray="1,5" points="2343.86,-100.609 2343.86,-134.743 2269.61,-155.529 2168.39,-155.529 2094.14,-134.743 2094.14,-100.609 2168.39,-79.823 2269.61,-79.823 2343.86,-100.609"/>
<text text-anchor="middle" x="2219" y="-121.476" font-family="Times,serif" font-size="14.00">Unknown Module</text>
<text text-anchor="middle" x="2219" y="-106.476" font-family="Times,serif" font-size="14.00">route</text>
</g>
<!-- 219&#45;&gt;735 -->
<g id="edge9" class="edge"><title>219&#45;&gt;735</title>
<path fill="none" stroke="chartreuse" d="M2212.8,-198.229C2212.3,-188.118 2212.14,-176.777 2212.33,-165.896"/>
<polygon fill="chartreuse" stroke="chartreuse" points="2215.83,-165.754 2212.61,-155.66 2208.83,-165.558 2215.83,-165.754"/>
</g>
<!-- 735&#45;&gt;219 -->
<g id="edge21" class="edge"><title>735&#45;&gt;219</title>
<path fill="none" stroke="navy" d="M2225.39,-155.66C2225.93,-169.403 2225.86,-184.887 2225.2,-198.229"/>
</g>
<!-- 165 -->
<g id="node10" class="node"><title>165</title>
<polygon fill="bisque" stroke="black" points="2826.11,-218.006 2826.11,-246.051 2707.72,-265.882 2540.28,-265.882 2421.89,-246.051 2421.89,-218.006 2540.28,-198.175 2707.72,-198.175 2826.11,-218.006"/>
<text text-anchor="middle" x="2624" y="-235.828" font-family="Times,serif" font-size="14.00">Thentos.Backend.Api.Docs.Common</text>
<text text-anchor="middle" x="2624" y="-220.828" font-family="Times,serif" font-size="14.00">mimeRender</text>
</g>
<!-- 724 -->
<g id="node11" class="node"><title>724</title>
<polygon fill="khaki" stroke="black" stroke-dasharray="5,2" points="2723.5,-103.662 2723.5,-131.691 2665.21,-151.51 2582.79,-151.51 2524.5,-131.691 2524.5,-103.662 2582.79,-83.8418 2665.21,-83.8418 2723.5,-103.662"/>
<polygon fill="none" stroke="black" stroke-dasharray="5,2" points="2727.5,-100.779 2727.5,-134.573 2665.87,-155.529 2582.13,-155.529 2520.5,-134.573 2520.5,-100.779 2582.13,-79.823 2665.87,-79.823 2727.5,-100.779"/>
<text text-anchor="middle" x="2624" y="-121.476" font-family="Times,serif" font-size="14.00">Servant.API</text>
<text text-anchor="middle" x="2624" y="-106.476" font-family="Times,serif" font-size="14.00">mimeRender</text>
</g>
<!-- 165&#45;&gt;724 -->
<g id="edge4" class="edge"><title>165&#45;&gt;724</title>
<path fill="none" stroke="chartreuse" d="M2617.8,-198.229C2617.3,-188.118 2617.14,-176.777 2617.33,-165.896"/>
<polygon fill="chartreuse" stroke="chartreuse" points="2620.83,-165.754 2617.61,-155.66 2613.83,-165.558 2620.83,-165.754"/>
</g>
<!-- 724&#45;&gt;165 -->
<g id="edge14" class="edge"><title>724&#45;&gt;165</title>
<path fill="none" stroke="navy" d="M2630.39,-155.66C2630.93,-169.403 2630.86,-184.887 2630.2,-198.229"/>
</g>
<!-- 605 -->
<g id="node12" class="node"><title>605</title>
<polygon fill="bisque" stroke="black" points="3089.27,-218.006 3089.27,-246.051 3027.02,-265.882 2938.98,-265.882 2876.73,-246.051 2876.73,-218.006 2938.98,-198.175 3027.02,-198.175 3089.27,-218.006"/>
<text text-anchor="middle" x="2983" y="-235.828" font-family="Times,serif" font-size="14.00">Thentos.Types</text>
<text text-anchor="middle" x="2983" y="-220.828" font-family="Times,serif" font-size="14.00">compare</text>
</g>
<!-- 725 -->
<g id="node13" class="node"><title>725</title>
<polygon fill="khaki" stroke="black" stroke-dasharray="1,5" points="3103.86,-103.662 3103.86,-131.691 3033.06,-151.51 2932.94,-151.51 2862.14,-131.691 2862.14,-103.662 2932.94,-83.8418 3033.06,-83.8418 3103.86,-103.662"/>
<polygon fill="none" stroke="black" stroke-dasharray="1,5" points="3107.86,-100.609 3107.86,-134.743 3033.61,-155.529 2932.39,-155.529 2858.14,-134.743 2858.14,-100.609 2932.39,-79.823 3033.61,-79.823 3107.86,-100.609"/>
<text text-anchor="middle" x="2983" y="-121.476" font-family="Times,serif" font-size="14.00">Unknown Module</text>
<text text-anchor="middle" x="2983" y="-106.476" font-family="Times,serif" font-size="14.00">compare</text>
</g>
<!-- 605&#45;&gt;725 -->
<g id="edge11" class="edge"><title>605&#45;&gt;725</title>
<path fill="none" stroke="black" d="M2976.8,-198.229C2976.3,-188.118 2976.14,-176.777 2976.33,-165.896"/>
<polygon fill="black" stroke="black" points="2979.83,-165.754 2976.61,-155.66 2972.83,-165.558 2979.83,-165.754"/>
</g>
<!-- 725&#45;&gt;605 -->
<g id="edge15" class="edge"><title>725&#45;&gt;605</title>
<path fill="none" stroke="navy" d="M2989.39,-155.66C2989.93,-169.403 2989.86,-184.887 2989.2,-198.229"/>
</g>
<!-- 680 -->
<g id="node14" class="node"><title>680</title>
<polygon fill="bisque" stroke="black" points="3357.27,-103.654 3357.27,-131.699 3295.02,-151.529 3206.98,-151.529 3144.73,-131.699 3144.73,-103.654 3206.98,-83.8229 3295.02,-83.8229 3357.27,-103.654"/>
<text text-anchor="middle" x="3251" y="-121.476" font-family="Times,serif" font-size="14.00">Thentos.Types</text>
<text text-anchor="middle" x="3251" y="-106.476" font-family="Times,serif" font-size="14.00">show</text>
</g>
<!-- 676 -->
<g id="node20" class="node"><title>676</title>
<polygon fill="bisque" stroke="black" points="3389.5,-44 3246.5,-44 3246.5,-0 3389.5,-0 3389.5,-44"/>
<text text-anchor="middle" x="3318" y="-25.8" font-family="Times,serif" font-size="14.00">Thentos.Types</text>
<text text-anchor="middle" x="3318" y="-10.8" font-family="Times,serif" font-size="14.00">renderProxyUri</text>
</g>
<!-- 680&#45;&gt;676 -->
<g id="edge13" class="edge"><title>680&#45;&gt;676</title>
<path fill="none" stroke="black" d="M3274.43,-83.9128C3281.73,-73.711 3289.73,-62.5271 3296.86,-52.558"/>
<polygon fill="black" stroke="black" points="3299.89,-54.335 3302.86,-44.1651 3294.2,-50.2627 3299.89,-54.335"/>
</g>
<!-- 736 -->
<g id="node15" class="node"><title>736</title>
<polygon fill="khaki" stroke="black" stroke-dasharray="1,5" points="3377.86,-218.014 3377.86,-246.043 3307.06,-265.863 3206.94,-265.863 3136.14,-246.043 3136.14,-218.014 3206.94,-198.194 3307.06,-198.194 3377.86,-218.014"/>
<polygon fill="none" stroke="black" stroke-dasharray="1,5" points="3381.86,-214.961 3381.86,-249.096 3307.61,-269.882 3206.39,-269.882 3132.14,-249.096 3132.14,-214.961 3206.39,-194.175 3307.61,-194.175 3381.86,-214.961"/>
<text text-anchor="middle" x="3257" y="-235.828" font-family="Times,serif" font-size="14.00">Unknown Module</text>
<text text-anchor="middle" x="3257" y="-220.828" font-family="Times,serif" font-size="14.00">show</text>
</g>
<!-- 736&#45;&gt;680 -->
<g id="edge22" class="edge"><title>736&#45;&gt;680</title>
<path fill="none" stroke="navy" d="M3255.04,-194.24C3254.3,-180.417 3253.46,-164.808 3252.75,-151.381"/>
</g>
<!-- 188 -->
<g id="node16" class="node"><title>188</title>
<polygon fill="bisque" stroke="black" points="4679.11,-218.006 4679.11,-246.051 4560.72,-265.882 4393.28,-265.882 4274.89,-246.051 4274.89,-218.006 4393.28,-198.175 4560.72,-198.175 4679.11,-218.006"/>
<text text-anchor="middle" x="4477" y="-235.828" font-family="Times,serif" font-size="14.00">Thentos.Backend.Api.Docs.Common</text>
<text text-anchor="middle" x="4477" y="-220.828" font-family="Times,serif" font-size="14.00">toSamples</text>
</g>
<!-- 742 -->
<g id="node19" class="node"><title>742</title>
<polygon fill="khaki" stroke="black" stroke-dasharray="1,5" points="4169.86,-103.662 4169.86,-131.691 4099.06,-151.51 3998.94,-151.51 3928.14,-131.691 3928.14,-103.662 3998.94,-83.8418 4099.06,-83.8418 4169.86,-103.662"/>
<polygon fill="none" stroke="black" stroke-dasharray="1,5" points="4173.86,-100.609 4173.86,-134.743 4099.61,-155.529 3998.39,-155.529 3924.14,-134.743 3924.14,-100.609 3998.39,-79.823 4099.61,-79.823 4173.86,-100.609"/>
<text text-anchor="middle" x="4049" y="-121.476" font-family="Times,serif" font-size="14.00">Unknown Module</text>
<text text-anchor="middle" x="4049" y="-106.476" font-family="Times,serif" font-size="14.00">toSamples</text>
</g>
<!-- 188&#45;&gt;742 -->
<g id="edge5" class="edge"><title>188&#45;&gt;742</title>
<path fill="none" stroke="black" d="M4364.17,-202.967C4297.73,-185.811 4214.42,-163.942 4150.12,-146.779"/>
<polygon fill="black" stroke="black" points="4150.94,-143.375 4140.37,-144.174 4149.13,-150.137 4150.94,-143.375"/>
</g>
<!-- 195 -->
<g id="node17" class="node"><title>195</title>
<polygon fill="bisque" stroke="black" points="4251.11,-218.006 4251.11,-246.051 4132.72,-265.882 3965.28,-265.882 3846.89,-246.051 3846.89,-218.006 3965.28,-198.175 4132.72,-198.175 4251.11,-218.006"/>
<text text-anchor="middle" x="4049" y="-235.828" font-family="Times,serif" font-size="14.00">Thentos.Backend.Api.Docs.Common</text>
<text text-anchor="middle" x="4049" y="-220.828" font-family="Times,serif" font-size="14.00">toSamples</text>
</g>
<!-- 195&#45;&gt;742 -->
<g id="edge6" class="edge"><title>195&#45;&gt;742</title>
<path fill="none" stroke="black" d="M4042.8,-198.229C4042.3,-188.118 4042.14,-176.777 4042.33,-165.896"/>
<polygon fill="black" stroke="black" points="4045.83,-165.754 4042.61,-155.66 4038.83,-165.558 4045.83,-165.754"/>
</g>
<!-- 199 -->
<g id="node18" class="node"><title>199</title>
<polygon fill="bisque" stroke="black" points="3823.11,-218.006 3823.11,-246.051 3704.72,-265.882 3537.28,-265.882 3418.89,-246.051 3418.89,-218.006 3537.28,-198.175 3704.72,-198.175 3823.11,-218.006"/>
<text text-anchor="middle" x="3621" y="-235.828" font-family="Times,serif" font-size="14.00">Thentos.Backend.Api.Docs.Common</text>
<text text-anchor="middle" x="3621" y="-220.828" font-family="Times,serif" font-size="14.00">toSamples</text>
</g>
<!-- 199&#45;&gt;742 -->
<g id="edge7" class="edge"><title>199&#45;&gt;742</title>
<path fill="none" stroke="black" d="M3726.6,-201.729C3792.23,-184.228 3876.31,-162.172 3942.17,-145.189"/>
<polygon fill="black" stroke="black" points="3943.35,-148.499 3952.16,-142.615 3941.61,-141.72 3943.35,-148.499"/>
</g>
<!-- 742&#45;&gt;188 -->
<g id="edge23" class="edge"><title>742&#45;&gt;188</title>
<path fill="none" stroke="navy" d="M4145.84,-142.615C4213.01,-159.896 4302.4,-183.329 4371.4,-201.729"/>
</g>
<!-- 742&#45;&gt;195 -->
<g id="edge24" class="edge"><title>742&#45;&gt;195</title>
<path fill="none" stroke="navy" d="M4055.39,-155.66C4055.93,-169.403 4055.86,-184.887 4055.2,-198.229"/>
</g>
<!-- 742&#45;&gt;199 -->
<g id="edge25" class="edge"><title>742&#45;&gt;199</title>
<path fill="none" stroke="navy" d="M3957.63,-144.174C3892.18,-161.684 3803.68,-184.931 3733.83,-202.967"/>
</g>
<!-- 676&#45;&gt;736 -->
<g id="edge12" class="edge"><title>676&#45;&gt;736</title>
<path fill="none" stroke="black" d="M3350.34,-44.1657C3357.86,-50.8171 3364.87,-58.8515 3369,-68 3389.9,-114.325 3396.87,-139.852 3369,-182.352 3364.92,-188.569 3359.86,-193.995 3354.16,-198.732"/>
<polygon fill="black" stroke="black" points="3351.97,-196.001 3346.03,-204.773 3356.14,-201.621 3351.97,-196.001"/>
</g>
</g>
</svg>
