<?xml version="1.0" encoding="UTF-8" standalone="no"?>
<!DOCTYPE svg PUBLIC "-//W3C//DTD SVG 1.1//EN"
 "http://www.w3.org/Graphics/SVG/1.1/DTD/svg11.dtd">
<!-- Generated by graphviz version 2.38.0 (20140413.2041)
 -->
<!-- Title: Diagram of: Database.PostgreSQL.Simple.Missing Pages: 1 -->
<svg width="222pt" height="279pt"
 viewBox="0.00 0.00 222.00 279.00" xmlns="http://www.w3.org/2000/svg" xmlns:xlink="http://www.w3.org/1999/xlink">
<g id="graph0" class="graph" transform="scale(1 1) rotate(0) translate(4 275)">
<title>Diagram of: Database.PostgreSQL.Simple.Missing</title>
<polygon fill="white" stroke="none" points="-4,4 -4,-275 218,-275 218,4 -4,4"/>
<g id="clust1" class="cluster"><title>cluster_Data_T</title>
<path fill="papayawhip" stroke="black" d="M20,-8C20,-8 80,-8 80,-8 86,-8 92,-14 92,-20 92,-20 92,-71 92,-71 92,-77 86,-83 80,-83 80,-83 20,-83 20,-83 14,-83 8,-77 8,-71 8,-71 8,-20 8,-20 8,-14 14,-8 20,-8"/>
<text text-anchor="middle" x="50" y="-67.8" font-family="Times,serif" font-size="14.00">Data: T</text>
</g>
<!-- 1 -->
<g id="node1" class="node"><title>1</title>
<polygon fill="goldenrod" stroke="black" stroke-width="2" points="83.5,-52 20.5,-52 16.5,-48 16.5,-16 79.5,-16 83.5,-20 83.5,-52"/>
<polyline fill="none" stroke="black" stroke-width="2" points="79.5,-48 16.5,-48 "/>
<polyline fill="none" stroke="black" stroke-width="2" points="79.5,-48 79.5,-16 "/>
<polyline fill="none" stroke="black" stroke-width="2" points="79.5,-48 83.5,-52 "/>
<text text-anchor="middle" x="50" y="-30.3" font-family="Times,serif" font-size="14.00">T</text>
</g>
<!-- 2 -->
<g id="node2" class="node"><title>2</title>
<polygon fill="goldenrod" stroke="black" stroke-width="2" points="168,-199 68,-199 68,-163 168,-163 168,-199"/>
<text text-anchor="middle" x="118" y="-177.3" font-family="Times,serif" font-size="14.00">interval</text>
</g>
<!-- 4 -->
<g id="node4" class="node"><title>4</title>
<polygon fill="goldenrod" stroke="black" stroke-width="2" points="129.5,-127 28.5,-127 28.5,-91 129.5,-91 129.5,-127"/>
<text text-anchor="middle" x="79" y="-105.3" font-family="Times,serif" font-size="14.00">seconds</text>
</g>
<!-- 2&#45;&gt;4 -->
<g id="edge1" class="edge"><title>2&#45;&gt;4</title>
<path fill="none" stroke="black" d="M108.36,-162.697C103.873,-154.644 98.4412,-144.894 93.4759,-135.982"/>
<polygon fill="black" stroke="black" points="96.4541,-134.137 88.5296,-127.104 90.3391,-137.544 96.4541,-134.137"/>
</g>
<!-- 5 -->
<g id="node5" class="node"><title>5</title>
<polygon fill="goldenrod" stroke="black" stroke-width="2" points="214,-52 102,-52 102,-16 214,-16 214,-52"/>
<text text-anchor="middle" x="158" y="-30.3" font-family="Times,serif" font-size="14.00">twoDigits</text>
</g>
<!-- 2&#45;&gt;5 -->
<g id="edge2" class="edge"><title>2&#45;&gt;5</title>
<path fill="none" stroke="black" d="M125.779,-162.603C130.122,-152.388 135.372,-139.138 139,-127 145.403,-105.578 150.397,-80.7153 153.655,-62.2411"/>
<polygon fill="black" stroke="black" points="157.14,-62.6221 155.37,-52.1763 150.24,-61.4462 157.14,-62.6221"/>
</g>
<!-- 3 -->
<g id="node3" class="node"><title>3</title>
<polygon fill="gold" stroke="black" stroke-width="2" points="190.5,-271 45.5,-271 45.5,-235 190.5,-235 190.5,-271"/>
<text text-anchor="middle" x="118" y="-249.3" font-family="Times,serif" font-size="14.00">intervalSeconds</text>
</g>
<!-- 3&#45;&gt;2 -->
<g id="edge3" class="edge"><title>3&#45;&gt;2</title>
<path fill="none" stroke="chartreuse" d="M118,-234.697C118,-226.983 118,-217.712 118,-209.112"/>
<polygon fill="chartreuse" stroke="chartreuse" points="121.5,-209.104 118,-199.104 114.5,-209.104 121.5,-209.104"/>
</g>
<!-- 4&#45;&gt;1 -->
<g id="edge4" class="edge"><title>4&#45;&gt;1</title>
<path fill="none" stroke="black" stroke-width="2.38629" d="M72.1274,-90.7C68.6964,-82.0633 64.4689,-71.4217 60.6314,-61.7618"/>
<polygon fill="black" stroke="black" stroke-width="2.38629" points="63.768,-60.1771 56.8233,-52.1758 57.2625,-62.7615 63.768,-60.1771"/>
</g>
<!-- 4&#45;&gt;5 -->
<g id="edge5" class="edge"><title>4&#45;&gt;5</title>
<path fill="none" stroke="black" d="M97.7219,-90.7C107.954,-81.2451 120.786,-69.3874 131.978,-59.0453"/>
<polygon fill="black" stroke="black" points="134.443,-61.5331 139.412,-52.1758 129.693,-56.3919 134.443,-61.5331"/>
</g>
</g>
</svg>
