<?xml version="1.0" encoding="UTF-8" standalone="no"?>
<!DOCTYPE svg PUBLIC "-//W3C//DTD SVG 1.1//EN"
 "http://www.w3.org/Graphics/SVG/1.1/DTD/svg11.dtd">
<!-- Generated by graphviz version 2.38.0 (20140413.2041)
 -->
<!-- Title: Levels within Database.PostgreSQL.Simple.Missing Pages: 1 -->
<svg width="270pt" height="315pt"
 viewBox="0.00 0.00 270.00 315.00" xmlns="http://www.w3.org/2000/svg" xmlns:xlink="http://www.w3.org/1999/xlink">
<g id="graph0" class="graph" transform="scale(1 1) rotate(0) translate(4 311)">
<title>Levels within Database.PostgreSQL.Simple.Missing</title>
<polygon fill="white" stroke="none" points="-4,4 -4,-311 266,-311 266,4 -4,4"/>
<g id="clust1" class="cluster"><title>cluster_0</title>
<polygon fill="lavender" stroke="black" points="8,-8 8,-299 254,-299 254,-8 8,-8"/>
<text text-anchor="middle" x="131" y="-283.8" font-family="Times,serif" font-size="14.00">Exported root entities</text>
</g>
<!-- 1 -->
<g id="node1" class="node"><title>1</title>
<polygon fill="goldenrod" stroke="black" stroke-width="2" points="116,-52 20,-52 16,-48 16,-16 112,-16 116,-20 116,-52"/>
<polyline fill="none" stroke="black" stroke-width="2" points="112,-48 16,-48 "/>
<polyline fill="none" stroke="black" stroke-width="2" points="112,-48 112,-16 "/>
<polyline fill="none" stroke="black" stroke-width="2" points="112,-48 116,-52 "/>
<text text-anchor="middle" x="66" y="-30.3" font-family="Times,serif" font-size="14.00">Data: T</text>
</g>
<!-- 2 -->
<g id="node2" class="node"><title>2</title>
<polygon fill="goldenrod" stroke="black" stroke-width="2" points="196,-196 96,-196 96,-160 196,-160 196,-196"/>
<text text-anchor="middle" x="146" y="-174.3" font-family="Times,serif" font-size="14.00">interval</text>
</g>
<!-- 4 -->
<g id="node4" class="node"><title>4</title>
<polygon fill="goldenrod" stroke="black" stroke-width="2" points="170.5,-124 69.5,-124 69.5,-88 170.5,-88 170.5,-124"/>
<text text-anchor="middle" x="120" y="-102.3" font-family="Times,serif" font-size="14.00">seconds</text>
</g>
<!-- 2&#45;&gt;4 -->
<g id="edge1" class="edge"><title>2&#45;&gt;4</title>
<path fill="none" stroke="black" d="M139.573,-159.697C136.645,-151.813 133.113,-142.304 129.86,-133.546"/>
<polygon fill="black" stroke="black" points="133.116,-132.26 126.353,-124.104 126.554,-134.697 133.116,-132.26"/>
</g>
<!-- 5 -->
<g id="node5" class="node"><title>5</title>
<polygon fill="goldenrod" stroke="black" stroke-width="2" points="246,-52 134,-52 134,-16 246,-16 246,-52"/>
<text text-anchor="middle" x="190" y="-30.3" font-family="Times,serif" font-size="14.00">twoDigits</text>
</g>
<!-- 2&#45;&gt;5 -->
<g id="edge2" class="edge"><title>2&#45;&gt;5</title>
<path fill="none" stroke="black" d="M159.833,-159.921C167.083,-150.023 175.392,-136.981 180,-124 187.055,-104.128 189.441,-80.3327 190.126,-62.3483"/>
<polygon fill="black" stroke="black" points="193.627,-62.3243 190.357,-52.2469 186.629,-62.1643 193.627,-62.3243"/>
</g>
<!-- 3 -->
<g id="node3" class="node"><title>3</title>
<polygon fill="gold" stroke="black" stroke-width="2" points="218.5,-268 73.5,-268 73.5,-232 218.5,-232 218.5,-268"/>
<text text-anchor="middle" x="146" y="-246.3" font-family="Times,serif" font-size="14.00">intervalSeconds</text>
</g>
<!-- 3&#45;&gt;2 -->
<g id="edge3" class="edge"><title>3&#45;&gt;2</title>
<path fill="none" stroke="chartreuse" d="M146,-231.697C146,-223.983 146,-214.712 146,-206.112"/>
<polygon fill="chartreuse" stroke="chartreuse" points="149.5,-206.104 146,-196.104 142.5,-206.104 149.5,-206.104"/>
</g>
<!-- 4&#45;&gt;1 -->
<g id="edge4" class="edge"><title>4&#45;&gt;1</title>
<path fill="none" stroke="black" stroke-width="2.38629" d="M106.652,-87.6966C100.243,-79.3893 92.4423,-69.2771 85.3943,-60.1407"/>
<polygon fill="black" stroke="black" stroke-width="2.38629" points="88.0741,-57.8844 79.1948,-52.1043 82.5316,-62.16 88.0741,-57.8844"/>
</g>
<!-- 4&#45;&gt;5 -->
<g id="edge5" class="edge"><title>4&#45;&gt;5</title>
<path fill="none" stroke="black" d="M137.303,-87.6966C145.865,-79.135 156.344,-68.6562 165.696,-59.3045"/>
<polygon fill="black" stroke="black" points="168.299,-61.6503 172.896,-52.1043 163.35,-56.7005 168.299,-61.6503"/>
</g>
</g>
</svg>
