<?xml version="1.0" encoding="UTF-8" standalone="no"?>
<!DOCTYPE svg PUBLIC "-//W3C//DTD SVG 1.1//EN"
 "http://www.w3.org/Graphics/SVG/1.1/DTD/svg11.dtd">
<!-- Generated by graphviz version 2.38.0 (20140413.2041)
 -->
<!-- Title: Import visualisation Pages: 1 -->
<svg width="1772pt" height="998pt"
 viewBox="0.00 0.00 1772.00 998.00" xmlns="http://www.w3.org/2000/svg" xmlns:xlink="http://www.w3.org/1999/xlink">
<g id="graph0" class="graph" transform="scale(1 1) rotate(0) translate(4 994)">
<title>Import visualisation</title>
<polygon fill="white" stroke="none" points="-4,4 -4,-994 1768,-994 1768,4 -4,4"/>
<g id="clust1" class="cluster"><title>cluster_Database</title>
<polygon fill="lavender" stroke="black" points="759,-8 759,-161 911,-161 911,-8 759,-8"/>
<text text-anchor="middle" x="835" y="-145.8" font-family="Times,serif" font-size="14.00">Database</text>
</g>
<g id="clust2" class="cluster"><title>cluster_PostgreSQL</title>
<polygon fill="snow" stroke="black" points="767,-16 767,-130 903,-130 903,-16 767,-16"/>
<text text-anchor="middle" x="835" y="-114.8" font-family="Times,serif" font-size="14.00">PostgreSQL</text>
</g>
<g id="clust3" class="cluster"><title>cluster_Simple</title>
<polygon fill="lavender" stroke="black" points="775,-24 775,-99 895,-99 895,-24 775,-24"/>
<text text-anchor="middle" x="835" y="-83.8" font-family="Times,serif" font-size="14.00">Simple</text>
</g>
<g id="clust4" class="cluster"><title>cluster_LIO</title>
<polygon fill="lavender" stroke="black" points="1334,-291 1334,-366 1454,-366 1454,-291 1334,-291"/>
<text text-anchor="middle" x="1394" y="-350.8" font-family="Times,serif" font-size="14.00">LIO</text>
</g>
<g id="clust5" class="cluster"><title>cluster_Paths</title>
<polygon fill="lavender" stroke="black" points="1540,-907 1540,-982 1634,-982 1634,-907 1540,-907"/>
<text text-anchor="middle" x="1587" y="-966.8" font-family="Times,serif" font-size="14.00">Paths</text>
</g>
<g id="clust6" class="cluster"><title>cluster_System</title>
<polygon fill="lavender" stroke="black" points="1506,-169 1506,-283 1642,-283 1642,-169 1506,-169"/>
<text text-anchor="middle" x="1574" y="-267.8" font-family="Times,serif" font-size="14.00">System</text>
</g>
<g id="clust7" class="cluster"><title>cluster_Log</title>
<polygon fill="snow" stroke="black" points="1514,-177 1514,-252 1634,-252 1634,-177 1514,-177"/>
<text text-anchor="middle" x="1574" y="-236.8" font-family="Times,serif" font-size="14.00">Log</text>
</g>
<g id="clust8" class="cluster"><title>cluster_Thentos</title>
<polygon fill="lavender" stroke="black" points="8,-177 8,-899 1326,-899 1326,-177 8,-177"/>
<text text-anchor="middle" x="667" y="-883.8" font-family="Times,serif" font-size="14.00">Thentos</text>
</g>
<g id="clust9" class="cluster"><title>cluster_Action</title>
<polygon fill="snow" stroke="black" points="682,-374 682,-604 844,-604 844,-374 682,-374"/>
<text text-anchor="middle" x="763" y="-588.8" font-family="Times,serif" font-size="14.00">Action</text>
</g>
<g id="clust10" class="cluster"><title>cluster_Backend</title>
<polygon fill="snow" stroke="black" points="16,-446 16,-824 432,-824 432,-446 16,-446"/>
<text text-anchor="middle" x="224" y="-808.8" font-family="Times,serif" font-size="14.00">Backend</text>
</g>
<g id="clust11" class="cluster"><title>cluster_Api</title>
<polygon fill="lavender" stroke="black" points="24,-529 24,-793 412,-793 412,-529 24,-529"/>
<text text-anchor="middle" x="218" y="-777.8" font-family="Times,serif" font-size="14.00">Api</text>
</g>
<g id="clust12" class="cluster"><title>cluster_Docs</title>
<polygon fill="snow" stroke="black" points="134,-612 134,-762 260,-762 260,-612 134,-612"/>
<text text-anchor="middle" x="197" y="-746.8" font-family="Times,serif" font-size="14.00">Docs</text>
</g>
<g id="clust13" class="cluster"><title>cluster_Frontend</title>
<polygon fill="snow" stroke="black" points="944,-374 944,-762 1162,-762 1162,-374 944,-374"/>
<text text-anchor="middle" x="1053" y="-746.8" font-family="Times,serif" font-size="14.00">Frontend</text>
</g>
<g id="clust14" class="cluster"><title>cluster_Handlers</title>
<polygon fill="lavender" stroke="black" points="952,-612 952,-687 1098,-687 1098,-612 952,-612"/>
<text text-anchor="middle" x="1025" y="-671.8" font-family="Times,serif" font-size="14.00">Handlers</text>
</g>
<g id="clust15" class="cluster"><title>cluster_Sybil</title>
<polygon fill="snow" stroke="black" points="440,-446 440,-521 560,-521 560,-446 440,-446"/>
<text text-anchor="middle" x="500" y="-505.8" font-family="Times,serif" font-size="14.00">Sybil</text>
</g>
<!-- 1 -->
<g id="node1" class="node"><title>1</title>
<polygon fill="cyan" stroke="black" points="886.5,-68 795.5,-68 795.5,-72 783.5,-72 783.5,-32 886.5,-32 886.5,-68"/>
<polyline fill="none" stroke="black" points="783.5,-68 795.5,-68 "/>
<text text-anchor="middle" x="835" y="-46.3" font-family="Times,serif" font-size="14.00">Missing</text>
</g>
<!-- 2 -->
<g id="node2" class="node"><title>2</title>
<polygon fill="cyan" stroke="black" points="1445.5,-335 1354.5,-335 1354.5,-339 1342.5,-339 1342.5,-299 1445.5,-299 1445.5,-335"/>
<polyline fill="none" stroke="black" points="1342.5,-335 1354.5,-335 "/>
<text text-anchor="middle" x="1394" y="-313.3" font-family="Times,serif" font-size="14.00">Missing</text>
</g>
<!-- 3 -->
<g id="node3" class="node"><title>3</title>
<polygon fill="crimson" stroke="black" points="1625.5,-951 1560.5,-951 1560.5,-955 1548.5,-955 1548.5,-915 1625.5,-915 1625.5,-951"/>
<polyline fill="none" stroke="black" points="1548.5,-951 1560.5,-951 "/>
<text text-anchor="middle" x="1587" y="-929.3" font-family="Times,serif" font-size="14.00">TH</text>
</g>
<!-- 4 -->
<g id="node4" class="node"><title>4</title>
<polygon fill="cyan" stroke="black" points="1625.5,-221 1534.5,-221 1534.5,-225 1522.5,-225 1522.5,-185 1625.5,-185 1625.5,-221"/>
<polyline fill="none" stroke="black" points="1522.5,-221 1534.5,-221 "/>
<text text-anchor="middle" x="1574" y="-199.3" font-family="Times,serif" font-size="14.00">Missing</text>
</g>
<!-- 7 -->
<g id="node5" class="node"><title>7</title>
<polygon fill="bisque" stroke="black" points="814.5,-418 741.5,-418 741.5,-422 729.5,-422 729.5,-382 814.5,-382 814.5,-418"/>
<polyline fill="none" stroke="black" points="729.5,-418 741.5,-418 "/>
<text text-anchor="middle" x="772" y="-396.3" font-family="Times,serif" font-size="14.00">Core</text>
</g>
<!-- 7&#45;&gt;2 -->
<g id="edge16" class="edge"><title>7&#45;&gt;2</title>
<path fill="none" stroke="black" d="M814.639,-391.154C848.494,-385.288 897.105,-377.673 940,-374 978.315,-370.719 1248.48,-374.417 1286,-366 1310.02,-360.611 1335.26,-349.728 1355.28,-339.685"/>
<polygon fill="black" stroke="black" points="1357.09,-342.69 1364.38,-335.002 1353.89,-336.466 1357.09,-342.69"/>
</g>
<!-- 7&#45;&gt;4 -->
<g id="edge17" class="edge"><title>7&#45;&gt;4</title>
<path fill="none" stroke="black" d="M814.641,-391.178C848.497,-385.325 897.108,-377.717 940,-374 957.606,-372.474 1243.61,-376.258 1258,-366 1286.97,-345.346 1258.71,-313.831 1286,-291 1301.24,-278.246 1310.72,-287.85 1330,-283 1395.58,-266.5 1469.23,-241.773 1518.29,-224.388"/>
<polygon fill="black" stroke="black" points="1519.51,-227.665 1527.76,-221.013 1517.17,-221.071 1519.51,-227.665"/>
</g>
<!-- 17 -->
<g id="node23" class="node"><title>17</title>
<polygon fill="bisque" stroke="black" points="756,-335 672,-335 672,-339 660,-339 660,-299 756,-299 756,-335"/>
<polyline fill="none" stroke="black" points="660,-335 672,-335 "/>
<text text-anchor="middle" x="708" y="-313.3" font-family="Times,serif" font-size="14.00">Config</text>
</g>
<!-- 7&#45;&gt;17 -->
<g id="edge18" class="edge"><title>7&#45;&gt;17</title>
<path fill="none" stroke="black" d="M758.427,-381.822C749.518,-370.546 737.717,-355.611 727.772,-343.024"/>
<polygon fill="black" stroke="black" points="730.499,-340.83 721.553,-335.153 725.007,-345.169 730.499,-340.83"/>
</g>
<!-- 25 -->
<g id="node25" class="node"><title>25</title>
<polygon fill="bisque" stroke="black" points="1318,-418 1242,-418 1242,-422 1230,-422 1230,-382 1318,-382 1318,-418"/>
<polyline fill="none" stroke="black" points="1230,-418 1242,-418 "/>
<text text-anchor="middle" x="1274" y="-396.3" font-family="Times,serif" font-size="14.00">Smtp</text>
</g>
<!-- 7&#45;&gt;25 -->
<g id="edge19" class="edge"><title>7&#45;&gt;25</title>
<path fill="none" stroke="black" d="M814.609,-411.322C893.223,-430.415 1065.94,-463.957 1207,-432 1216.14,-429.929 1225.49,-426.454 1234.2,-422.538"/>
<polygon fill="black" stroke="black" points="1235.84,-425.633 1243.35,-418.163 1232.82,-419.318 1235.84,-425.633"/>
</g>
<!-- 27 -->
<g id="node26" class="node"><title>27</title>
<polygon fill="bisque" stroke="black" points="896,-335 786,-335 786,-339 774,-339 774,-299 896,-299 896,-335"/>
<polyline fill="none" stroke="black" points="774,-335 786,-335 "/>
<text text-anchor="middle" x="835" y="-313.3" font-family="Times,serif" font-size="14.00">Transaction</text>
</g>
<!-- 7&#45;&gt;27 -->
<g id="edge20" class="edge"><title>7&#45;&gt;27</title>
<path fill="none" stroke="black" d="M785.361,-381.822C794.047,-370.653 805.526,-355.895 815.257,-343.384"/>
<polygon fill="black" stroke="black" points="818.282,-345.196 821.659,-335.153 812.756,-340.898 818.282,-345.196"/>
</g>
<!-- 28 -->
<g id="node27" class="node"><title>28</title>
<polygon fill="bisque" stroke="black" points="881,-221 801,-221 801,-225 789,-225 789,-185 881,-185 881,-221"/>
<polyline fill="none" stroke="black" points="789,-221 801,-221 "/>
<text text-anchor="middle" x="835" y="-199.3" font-family="Times,serif" font-size="14.00">Types</text>
</g>
<!-- 7&#45;&gt;28 -->
<g id="edge21" class="edge"><title>7&#45;&gt;28</title>
<path fill="none" stroke="black" d="M744.172,-381.979C738.042,-378.867 731.449,-375.983 725,-374 709.19,-369.139 662.049,-378.308 651,-366 628.732,-341.195 633.165,-319.161 651,-291 678.888,-246.965 735.729,-224.791 778.897,-213.906"/>
<polygon fill="black" stroke="black" points="779.801,-217.289 788.716,-211.563 778.176,-210.48 779.801,-217.289"/>
</g>
<!-- 8 -->
<g id="node6" class="node"><title>8</title>
<polygon fill="bisque" stroke="black" points="815.5,-490 702.5,-490 702.5,-494 690.5,-494 690.5,-454 815.5,-454 815.5,-490"/>
<polyline fill="none" stroke="black" points="690.5,-490 702.5,-490 "/>
<text text-anchor="middle" x="753" y="-468.3" font-family="Times,serif" font-size="14.00">SimpleAuth</text>
</g>
<!-- 8&#45;&gt;2 -->
<g id="edge22" class="edge"><title>8&#45;&gt;2</title>
<path fill="none" stroke="black" d="M815.647,-461.65C851.909,-456.482 898.457,-450.264 940,-446 1026.44,-437.128 1255.32,-462.418 1330,-418 1344.44,-409.413 1366.43,-371.227 1380.51,-344.611"/>
<polygon fill="black" stroke="black" points="1383.79,-345.89 1385.31,-335.405 1377.58,-342.654 1383.79,-345.89"/>
</g>
<!-- 8&#45;&gt;7 -->
<g id="edge23" class="edge"><title>8&#45;&gt;7</title>
<path fill="none" stroke="black" d="M757.697,-453.697C759.813,-445.898 762.362,-436.509 764.718,-427.829"/>
<polygon fill="black" stroke="black" points="768.116,-428.672 767.357,-418.104 761.36,-426.838 768.116,-428.672"/>
</g>
<!-- 8&#45;&gt;28 -->
<g id="edge24" class="edge"><title>8&#45;&gt;28</title>
<path fill="none" stroke="black" d="M795.451,-453.908C815.44,-444.806 839.005,-432.49 858,-418 882.769,-399.106 893.808,-395.073 905,-366 916.975,-334.892 916.078,-322.439 905,-291 896.474,-266.802 878.055,-244.372 862.251,-228.349"/>
<polygon fill="black" stroke="black" points="864.353,-225.509 854.757,-221.018 859.458,-230.513 864.353,-225.509"/>
</g>
<!-- 9 -->
<g id="node7" class="node"><title>9</title>
<polygon fill="bisque" stroke="black" points="836.5,-573 751.5,-573 751.5,-577 739.5,-577 739.5,-537 836.5,-537 836.5,-573"/>
<polyline fill="none" stroke="black" points="739.5,-573 751.5,-573 "/>
<text text-anchor="middle" x="788" y="-551.3" font-family="Times,serif" font-size="14.00">Unsafe</text>
</g>
<!-- 9&#45;&gt;4 -->
<g id="edge25" class="edge"><title>9&#45;&gt;4</title>
<path fill="none" stroke="black" d="M836.719,-544.192C866.429,-538.659 905.249,-532.226 940,-529 980.06,-525.282 1264.02,-534.262 1302,-521 1328.88,-511.616 1488.56,-388.502 1506,-366 1538.34,-324.266 1558.03,-264.906 1567.4,-230.836"/>
<polygon fill="black" stroke="black" points="1570.79,-231.685 1569.98,-221.121 1564.03,-229.89 1570.79,-231.685"/>
</g>
<!-- 9&#45;&gt;7 -->
<g id="edge26" class="edge"><title>9&#45;&gt;7</title>
<path fill="none" stroke="black" d="M812.517,-536.746C817.178,-532.203 821.405,-526.898 824,-521 837.422,-490.488 837.857,-476.317 824,-446 820.326,-437.961 814.428,-430.809 807.9,-424.702"/>
<polygon fill="black" stroke="black" points="809.929,-421.833 800.042,-418.023 805.395,-427.167 809.929,-421.833"/>
</g>
<!-- 9&#45;&gt;8 -->
<g id="edge27" class="edge"><title>9&#45;&gt;8</title>
<path fill="none" stroke="black" d="M780.577,-536.822C775.891,-525.976 769.741,-511.744 764.439,-499.472"/>
<polygon fill="black" stroke="black" points="767.591,-497.945 760.412,-490.153 761.166,-500.721 767.591,-497.945"/>
</g>
<!-- 9&#45;&gt;17 -->
<g id="edge28" class="edge"><title>9&#45;&gt;17</title>
<path fill="none" stroke="black" d="M819.272,-536.979C825.244,-532.479 830.9,-527.134 835,-521 871.746,-466.021 902.711,-422.722 858,-374 843.975,-358.717 784.163,-373.941 765,-366 752.174,-360.685 740.085,-351.392 730.369,-342.389"/>
<polygon fill="black" stroke="black" points="732.719,-339.791 723.117,-335.313 727.83,-344.802 732.719,-339.791"/>
</g>
<!-- 9&#45;&gt;25 -->
<g id="edge29" class="edge"><title>9&#45;&gt;25</title>
<path fill="none" stroke="black" d="M836.615,-548.277C857.915,-543.737 882.085,-535.597 900,-521 929.287,-497.137 908.809,-467.314 940,-446 983.604,-416.203 1123.74,-425.627 1176,-418 1190.16,-415.933 1205.43,-413.423 1219.59,-410.972"/>
<polygon fill="black" stroke="black" points="1220.44,-414.378 1229.69,-409.206 1219.23,-407.483 1220.44,-414.378"/>
</g>
<!-- 9&#45;&gt;28 -->
<g id="edge30" class="edge"><title>9&#45;&gt;28</title>
<path fill="none" stroke="black" d="M836.829,-538.624C845.753,-534.071 854.336,-528.287 861,-521 885.614,-494.083 908.915,-401.964 915,-366 920.561,-333.134 927.108,-322.056 915,-291 905.175,-265.801 884.259,-243.486 866.277,-227.767"/>
<polygon fill="black" stroke="black" points="868.175,-224.789 858.272,-221.022 863.664,-230.142 868.175,-224.789"/>
</g>
<!-- 11 -->
<g id="node8" class="node"><title>11</title>
<polygon fill="bisque" stroke="black" points="252,-656 154,-656 154,-660 142,-660 142,-620 252,-620 252,-656"/>
<polyline fill="none" stroke="black" points="142,-656 154,-656 "/>
<text text-anchor="middle" x="197" y="-634.3" font-family="Times,serif" font-size="14.00">Common</text>
</g>
<!-- 11&#45;&gt;2 -->
<g id="edge33" class="edge"><title>11&#45;&gt;2</title>
<path fill="none" stroke="black" d="M230.897,-619.98C238.934,-616.698 247.613,-613.742 256,-612 305.501,-601.718 1116.88,-615.951 1166,-604 1245.38,-584.689 1271.18,-577.688 1330,-521 1367.67,-484.694 1372.16,-468.17 1387,-418 1394.07,-394.093 1395.42,-365.629 1395.24,-345.193"/>
<polygon fill="black" stroke="black" points="1398.73,-344.947 1395.02,-335.026 1391.74,-345.101 1398.73,-344.947"/>
</g>
<!-- 11&#45;&gt;7 -->
<g id="edge35" class="edge"><title>11&#45;&gt;7</title>
<path fill="none" stroke="black" d="M211.319,-619.732C214.669,-614.9 217.875,-609.468 220,-604 232.18,-572.655 207.791,-554.252 230,-529 239.113,-518.638 250.887,-531.362 260,-521 282.209,-495.748 245.391,-468.919 270,-446 305.256,-413.165 640.221,-426.757 719.292,-418.462"/>
<polygon fill="black" stroke="black" points="719.976,-421.9 729.371,-417.003 718.973,-414.972 719.976,-421.9"/>
</g>
<!-- 10 -->
<g id="node10" class="node"><title>10</title>
<polygon fill="bisque" stroke="black" points="350,-573 276,-573 276,-577 264,-577 264,-537 350,-537 350,-573"/>
<polyline fill="none" stroke="black" points="264,-573 276,-573 "/>
<text text-anchor="middle" x="307" y="-551.3" font-family="Times,serif" font-size="14.00">Auth</text>
</g>
<!-- 11&#45;&gt;10 -->
<g id="edge36" class="edge"><title>11&#45;&gt;10</title>
<path fill="none" stroke="black" d="M220.328,-619.822C236.37,-608.009 257.866,-592.18 275.436,-579.242"/>
<polygon fill="black" stroke="black" points="277.728,-581.901 283.705,-573.153 273.578,-576.264 277.728,-581.901"/>
</g>
<!-- 16 -->
<g id="node14" class="node"><title>16</title>
<polygon fill="bisque" stroke="black" points="369.5,-490 296.5,-490 296.5,-494 284.5,-494 284.5,-454 369.5,-454 369.5,-490"/>
<polyline fill="none" stroke="black" points="284.5,-490 296.5,-490 "/>
<text text-anchor="middle" x="327" y="-468.3" font-family="Times,serif" font-size="14.00">Core</text>
</g>
<!-- 11&#45;&gt;16 -->
<g id="edge37" class="edge"><title>11&#45;&gt;16</title>
<path fill="none" stroke="black" d="M231.911,-619.924C239.677,-616.776 247.988,-613.89 256,-612 269.869,-608.729 374.243,-614.386 384,-604 406.823,-579.706 399.126,-558.704 384,-529 381.257,-523.613 377.554,-524.976 373,-521 364.783,-513.826 356.365,-505.408 349.013,-497.642"/>
<polygon fill="black" stroke="black" points="351.435,-495.106 342.064,-490.163 346.307,-499.871 351.435,-495.106"/>
</g>
<!-- 6 -->
<g id="node22" class="node"><title>6</title>
<polygon fill="bisque" stroke="black" points="593.5,-573 510.5,-573 510.5,-577 498.5,-577 498.5,-537 593.5,-537 593.5,-573"/>
<polyline fill="none" stroke="black" points="498.5,-573 510.5,-573 "/>
<text text-anchor="middle" x="546" y="-551.3" font-family="Times,serif" font-size="14.00">Action</text>
</g>
<!-- 11&#45;&gt;6 -->
<g id="edge34" class="edge"><title>11&#45;&gt;6</title>
<path fill="none" stroke="black" d="M231.571,-619.942C239.429,-616.75 247.862,-613.842 256,-612 334.103,-594.321 357.992,-622.095 436,-604 460.29,-598.365 485.908,-587.51 506.305,-577.545"/>
<polygon fill="black" stroke="black" points="507.909,-580.657 515.286,-573.052 504.777,-574.397 507.909,-580.657"/>
</g>
<!-- 11&#45;&gt;17 -->
<g id="edge38" class="edge"><title>11&#45;&gt;17</title>
<path fill="none" stroke="black" d="M194.965,-619.803C191.629,-583.129 189.226,-496.475 233,-446 287.657,-382.977 535.5,-341.602 649.86,-325.536"/>
<polygon fill="black" stroke="black" points="650.417,-328.992 659.841,-324.151 649.455,-322.059 650.417,-328.992"/>
</g>
<!-- 11&#45;&gt;28 -->
<g id="edge39" class="edge"><title>11&#45;&gt;28</title>
<path fill="none" stroke="black" d="M193.117,-619.92C192.027,-614.815 190.896,-609.194 190,-604 184.285,-570.861 193.887,-559.627 180,-529 178.049,-524.697 174.662,-525.423 173,-521 135.417,-420.976 156.595,-353.86 243,-291 327.856,-229.267 647.475,-210.787 778.471,-205.739"/>
<polygon fill="black" stroke="black" points="778.828,-209.228 788.691,-205.357 778.567,-202.233 778.828,-209.228"/>
</g>
<!-- 12 -->
<g id="node9" class="node"><title>12</title>
<polygon fill="crimson" stroke="black" points="237.5,-731 158.5,-731 158.5,-735 146.5,-735 146.5,-695 237.5,-695 237.5,-731"/>
<polyline fill="none" stroke="black" points="146.5,-731 158.5,-731 "/>
<text text-anchor="middle" x="192" y="-709.3" font-family="Times,serif" font-size="14.00">Proxy</text>
</g>
<!-- 12&#45;&gt;11 -->
<g id="edge40" class="edge"><title>12&#45;&gt;11</title>
<path fill="none" stroke="black" d="M193.185,-694.7C193.764,-686.245 194.475,-675.869 195.125,-666.373"/>
<polygon fill="black" stroke="black" points="198.632,-666.392 195.824,-656.176 191.648,-665.913 198.632,-666.392"/>
</g>
<!-- 13 -->
<g id="node11" class="node"><title>13</title>
<polygon fill="crimson" stroke="black" points="123.5,-656 44.5,-656 44.5,-660 32.5,-660 32.5,-620 123.5,-620 123.5,-656"/>
<polyline fill="none" stroke="black" points="32.5,-656 44.5,-656 "/>
<text text-anchor="middle" x="78" y="-634.3" font-family="Times,serif" font-size="14.00">Proxy</text>
</g>
<!-- 12&#45;&gt;13 -->
<g id="edge41" class="edge"><title>12&#45;&gt;13</title>
<path fill="none" stroke="black" d="M146.349,-695.825C140.685,-693.176 135.099,-690.228 130,-687 119.562,-680.393 109.302,-671.571 100.69,-663.294"/>
<polygon fill="black" stroke="black" points="103.143,-660.797 93.5832,-656.229 98.2079,-665.761 103.143,-660.797"/>
</g>
<!-- 10&#45;&gt;16 -->
<g id="edge31" class="edge"><title>10&#45;&gt;16</title>
<path fill="none" stroke="black" d="M311.241,-536.822C313.867,-526.19 317.295,-512.306 320.283,-500.204"/>
<polygon fill="black" stroke="black" points="323.765,-500.701 322.765,-490.153 316.969,-499.023 323.765,-500.701"/>
</g>
<!-- 10&#45;&gt;28 -->
<g id="edge32" class="edge"><title>10&#45;&gt;28</title>
<path fill="none" stroke="black" d="M278.91,-536.881C272.853,-533.816 266.355,-530.975 260,-529 245.049,-524.353 200.424,-532.683 190,-521 167.808,-496.128 175.551,-476.039 190,-446 237.839,-346.545 283.792,-337.241 384,-291 516.852,-229.695 690.949,-211.576 778.919,-206.23"/>
<polygon fill="black" stroke="black" points="779.173,-209.722 788.955,-205.654 778.771,-202.733 779.173,-209.722"/>
</g>
<!-- 13&#45;&gt;4 -->
<g id="edge42" class="edge"><title>13&#45;&gt;4</title>
<path fill="none" stroke="black" d="M107.697,-619.981C114.788,-616.699 122.486,-613.743 130,-612 186.069,-598.994 1109.55,-615.221 1166,-604 1359.61,-565.516 1446.72,-539.429 1541,-366 1564.5,-322.766 1571.33,-264.782 1573.27,-231.195"/>
<polygon fill="black" stroke="black" points="1576.77,-231.352 1573.74,-221.197 1569.77,-231.02 1576.77,-231.352"/>
</g>
<!-- 13&#45;&gt;7 -->
<g id="edge44" class="edge"><title>13&#45;&gt;7</title>
<path fill="none" stroke="black" d="M111.167,-619.919C117.34,-617.067 123.8,-614.294 130,-612 142.942,-607.212 148.954,-612.271 160,-604 225.774,-554.751 185.618,-488.402 256,-446 342.725,-393.753 606.125,-436.334 719.229,-418.826"/>
<polygon fill="black" stroke="black" points="720.147,-422.217 729.372,-417.006 718.911,-415.327 720.147,-422.217"/>
</g>
<!-- 13&#45;&gt;16 -->
<g id="edge45" class="edge"><title>13&#45;&gt;16</title>
<path fill="none" stroke="black" d="M108.286,-619.875C115.222,-616.687 122.705,-613.797 130,-612 142.36,-608.955 350.157,-613.157 359,-604 386.413,-575.612 363.853,-527.813 345.243,-498.472"/>
<polygon fill="black" stroke="black" points="348.083,-496.421 339.654,-490.001 342.24,-500.276 348.083,-496.421"/>
</g>
<!-- 13&#45;&gt;6 -->
<g id="edge43" class="edge"><title>13&#45;&gt;6</title>
<path fill="none" stroke="black" d="M108,-619.964C115.013,-616.728 122.602,-613.795 130,-612 191.787,-597.007 353.574,-616.06 416,-604 444.883,-598.42 475.831,-587.221 500.283,-577.043"/>
<polygon fill="black" stroke="black" points="501.822,-580.191 509.657,-573.059 499.085,-573.749 501.822,-580.191"/>
</g>
<!-- 13&#45;&gt;17 -->
<g id="edge46" class="edge"><title>13&#45;&gt;17</title>
<path fill="none" stroke="black" d="M94.2439,-619.664C98.5704,-614.745 103.117,-609.287 107,-604 181.014,-503.226 157.973,-431.501 269,-374 334.054,-340.309 545.794,-325.737 649.581,-320.496"/>
<polygon fill="black" stroke="black" points="650.066,-323.976 659.882,-319.988 649.721,-316.985 650.066,-323.976"/>
</g>
<!-- 13&#45;&gt;28 -->
<g id="edge47" class="edge"><title>13&#45;&gt;28</title>
<path fill="none" stroke="black" d="M82.1805,-619.884C89.0566,-590.186 102,-527.098 102,-473 102,-473 102,-473 102,-399 102,-342.278 122.23,-321.584 170,-291 270.568,-226.612 636.897,-209.552 778.548,-205.314"/>
<polygon fill="black" stroke="black" points="778.858,-208.806 788.752,-205.019 778.656,-201.809 778.858,-208.806"/>
</g>
<!-- 14 -->
<g id="node12" class="node"><title>14</title>
<polygon fill="bisque" stroke="black" points="383.5,-656 282.5,-656 282.5,-660 270.5,-660 270.5,-620 383.5,-620 383.5,-656"/>
<polyline fill="none" stroke="black" points="270.5,-656 282.5,-656 "/>
<text text-anchor="middle" x="327" y="-634.3" font-family="Times,serif" font-size="14.00">Purescript</text>
</g>
<!-- 14&#45;&gt;17 -->
<g id="edge48" class="edge"><title>14&#45;&gt;17</title>
<path fill="none" stroke="black" d="M280.232,-619.978C268.656,-614.823 258.536,-609.162 255,-604 235.147,-575.019 227.105,-472.643 250,-446 303.912,-383.263 359.031,-452.959 434,-418 460.828,-405.49 457.789,-387.756 484,-374 536.413,-346.492 602.889,-332.086 649.766,-324.819"/>
<polygon fill="black" stroke="black" points="650.379,-328.267 659.755,-323.333 649.349,-321.343 650.379,-328.267"/>
</g>
<!-- 15 -->
<g id="node13" class="node"><title>15</title>
<polygon fill="bisque" stroke="black" points="404,-731 318,-731 318,-735 306,-735 306,-695 404,-695 404,-731"/>
<polyline fill="none" stroke="black" points="306,-731 318,-731 "/>
<text text-anchor="middle" x="355" y="-709.3" font-family="Times,serif" font-size="14.00">Simple</text>
</g>
<!-- 15&#45;&gt;4 -->
<g id="edge49" class="edge"><title>15&#45;&gt;4</title>
<path fill="none" stroke="black" d="M404.19,-710.652C567.918,-706.127 1085.13,-691.511 1102,-687 1321.97,-628.2 1382.15,-583.999 1538,-418 1586.12,-366.743 1583.22,-276.499 1578.11,-231.345"/>
<polygon fill="black" stroke="black" points="1581.54,-230.628 1576.82,-221.142 1574.6,-231.501 1581.54,-230.628"/>
</g>
<!-- 15&#45;&gt;7 -->
<g id="edge51" class="edge"><title>15&#45;&gt;7</title>
<path fill="none" stroke="black" d="M404.231,-708.271C434.245,-704.859 468.589,-698.516 478,-687 483.556,-680.201 479.695,-535.683 474,-529 462.806,-515.863 446.875,-534.402 436,-521 425.499,-508.058 424.798,-458.34 436,-446 477.336,-400.466 645.237,-429.191 719.159,-418.771"/>
<polygon fill="black" stroke="black" points="720.135,-422.152 729.357,-416.936 718.895,-415.263 720.135,-422.152"/>
</g>
<!-- 15&#45;&gt;11 -->
<g id="edge53" class="edge"><title>15&#45;&gt;11</title>
<path fill="none" stroke="black" d="M305.907,-704.033C289.489,-700.227 271.448,-694.753 256,-687 243.615,-680.784 231.469,-671.598 221.447,-662.921"/>
<polygon fill="black" stroke="black" points="223.679,-660.221 213.902,-656.139 218.999,-665.427 223.679,-660.221"/>
</g>
<!-- 15&#45;&gt;10 -->
<g id="edge52" class="edge"><title>15&#45;&gt;10</title>
<path fill="none" stroke="black" d="M386.137,-694.826C388.45,-692.48 390.473,-689.876 392,-687 407.637,-657.562 413.003,-637.884 392,-612 381.125,-598.598 369.132,-612.3 354,-604 343.509,-598.245 333.878,-589.394 326.103,-580.852"/>
<polygon fill="black" stroke="black" points="328.688,-578.49 319.513,-573.193 323.382,-583.056 328.688,-578.49"/>
</g>
<!-- 15&#45;&gt;14 -->
<g id="edge54" class="edge"><title>15&#45;&gt;14</title>
<path fill="none" stroke="black" d="M348.364,-694.7C345.052,-686.063 340.97,-675.422 337.265,-665.762"/>
<polygon fill="black" stroke="black" points="340.437,-664.259 333.588,-656.176 333.901,-666.766 340.437,-664.259"/>
</g>
<!-- 15&#45;&gt;16 -->
<g id="edge55" class="edge"><title>15&#45;&gt;16</title>
<path fill="none" stroke="black" d="M397.387,-694.84C399.945,-692.534 402.204,-689.932 404,-687 422.355,-657.029 418.731,-556.622 397,-529 390.048,-520.163 382.501,-527.013 373,-521 363.244,-514.826 354.088,-506.148 346.554,-497.866"/>
<polygon fill="black" stroke="black" points="349.054,-495.406 339.861,-490.141 343.764,-499.99 349.054,-495.406"/>
</g>
<!-- 15&#45;&gt;6 -->
<g id="edge50" class="edge"><title>15&#45;&gt;6</title>
<path fill="none" stroke="black" d="M404.235,-707.543C436.54,-703.731 475.108,-697.212 488,-687 520.614,-661.167 535.371,-613.161 541.681,-582.989"/>
<polygon fill="black" stroke="black" points="545.127,-583.607 543.577,-573.126 538.252,-582.286 545.127,-583.607"/>
</g>
<!-- 15&#45;&gt;17 -->
<g id="edge56" class="edge"><title>15&#45;&gt;17</title>
<path fill="none" stroke="black" d="M404.001,-704.384C423.292,-700.297 442.227,-694.53 448,-687 468.281,-660.547 448.803,-645.324 448,-612 447.111,-575.079 465.435,-559.075 444,-529 438.443,-521.204 429.367,-528.928 424,-521 405.312,-493.398 405.909,-473.997 424,-446 437.335,-425.363 574.851,-369.524 653.523,-338.86"/>
<polygon fill="black" stroke="black" points="655.227,-341.953 663.28,-335.068 652.691,-335.428 655.227,-341.953"/>
</g>
<!-- 15&#45;&gt;28 -->
<g id="edge57" class="edge"><title>15&#45;&gt;28</title>
<path fill="none" stroke="black" d="M404.354,-707.169C416.608,-703.49 428.398,-697.303 436,-687 455.792,-660.178 436.402,-645.331 436,-612 435.778,-593.552 445.216,-543.649 434,-529 426.392,-519.062 414.488,-531.029 407,-521 381.344,-486.639 384.391,-330.384 419,-291 465.735,-237.817 676.179,-215.479 778.622,-207.628"/>
<polygon fill="black" stroke="black" points="779.071,-211.105 788.783,-206.87 778.55,-204.124 779.071,-211.105"/>
</g>
<!-- 16&#45;&gt;4 -->
<g id="edge58" class="edge"><title>16&#45;&gt;4</title>
<path fill="none" stroke="black" d="M369.622,-459.204C389.612,-454.194 413.857,-448.859 436,-446 633.128,-420.552 1135.54,-459.161 1330,-418 1390.07,-405.284 1409.78,-404.017 1458,-366 1505.92,-328.218 1542.88,-265.577 1561.23,-230.281"/>
<polygon fill="black" stroke="black" points="1564.49,-231.594 1565.91,-221.094 1558.25,-228.419 1564.49,-231.594"/>
</g>
<!-- 16&#45;&gt;7 -->
<g id="edge59" class="edge"><title>16&#45;&gt;7</title>
<path fill="none" stroke="black" d="M369.655,-458.438C386.46,-453.903 406.011,-449.134 424,-446 553.001,-423.524 591.914,-446.101 719.225,-419.152"/>
<polygon fill="black" stroke="black" points="720.333,-422.493 729.358,-416.944 718.842,-415.654 720.333,-422.493"/>
</g>
<!-- 16&#45;&gt;17 -->
<g id="edge60" class="edge"><title>16&#45;&gt;17</title>
<path fill="none" stroke="black" d="M369.673,-459.572C389.673,-454.639 413.912,-449.263 436,-446 481.391,-439.295 816.675,-451.526 848,-418 861.351,-403.711 861.148,-388.476 848,-374 835.542,-360.283 782.082,-373.182 765,-366 752.202,-360.619 740.117,-351.315 730.397,-342.322"/>
<polygon fill="black" stroke="black" points="732.747,-339.725 723.14,-335.258 727.864,-344.741 732.747,-339.725"/>
</g>
<!-- 16&#45;&gt;28 -->
<g id="edge61" class="edge"><title>16&#45;&gt;28</title>
<path fill="none" stroke="black" d="M369.631,-459.275C389.623,-454.28 413.867,-448.936 436,-446 476.233,-440.662 1137.86,-447.243 1166,-418 1260.4,-319.906 1008.16,-245.031 891.051,-216.531"/>
<polygon fill="black" stroke="black" points="891.708,-213.09 881.167,-214.158 890.074,-219.896 891.708,-213.09"/>
</g>
<!-- 20 -->
<g id="node15" class="node"><title>20</title>
<polygon fill="bisque" stroke="black" points="1089.5,-656 972.5,-656 972.5,-660 960.5,-660 960.5,-620 1089.5,-620 1089.5,-656"/>
<polyline fill="none" stroke="black" points="960.5,-656 972.5,-656 "/>
<text text-anchor="middle" x="1025" y="-634.3" font-family="Times,serif" font-size="14.00">Combinators</text>
</g>
<!-- 20&#45;&gt;8 -->
<g id="edge84" class="edge"><title>20&#45;&gt;8</title>
<path fill="none" stroke="black" d="M960.307,-634.262C878.122,-630.108 745.073,-620.854 730,-604 704.303,-575.268 721.899,-528.305 737.254,-499.104"/>
<polygon fill="black" stroke="black" points="740.348,-500.741 742.102,-490.292 734.215,-497.366 740.348,-500.741"/>
</g>
<!-- 20&#45;&gt;9 -->
<g id="edge85" class="edge"><title>20&#45;&gt;9</title>
<path fill="none" stroke="black" d="M975.028,-619.921C937.469,-607.084 885.916,-589.465 846.446,-575.975"/>
<polygon fill="black" stroke="black" points="847.281,-572.562 836.687,-572.64 845.018,-579.186 847.281,-572.562"/>
</g>
<!-- 21 -->
<g id="node17" class="node"><title>21</title>
<polygon fill="bisque" stroke="black" points="1088,-490 1010,-490 1010,-494 998,-494 998,-454 1088,-454 1088,-490"/>
<polyline fill="none" stroke="black" points="998,-490 1010,-490 "/>
<text text-anchor="middle" x="1043" y="-468.3" font-family="Times,serif" font-size="14.00">Pages</text>
</g>
<!-- 20&#45;&gt;21 -->
<g id="edge87" class="edge"><title>20&#45;&gt;21</title>
<path fill="none" stroke="black" d="M1039.18,-619.824C1042.38,-614.992 1045.32,-609.536 1047,-604 1057.48,-569.394 1053.41,-527.275 1048.81,-500.304"/>
<polygon fill="black" stroke="black" points="1052.24,-499.616 1046.99,-490.417 1045.36,-500.886 1052.24,-499.616"/>
</g>
<!-- 22 -->
<g id="node18" class="node"><title>22</title>
<polygon fill="bisque" stroke="black" points="1038,-573 964,-573 964,-577 952,-577 952,-537 1038,-537 1038,-573"/>
<polyline fill="none" stroke="black" points="952,-573 964,-573 "/>
<text text-anchor="middle" x="995" y="-551.3" font-family="Times,serif" font-size="14.00">State</text>
</g>
<!-- 20&#45;&gt;22 -->
<g id="edge88" class="edge"><title>20&#45;&gt;22</title>
<path fill="none" stroke="black" d="M1018.64,-619.822C1014.66,-609.083 1009.45,-595.025 1004.94,-582.837"/>
<polygon fill="black" stroke="black" points="1008.11,-581.315 1001.35,-573.153 1001.54,-583.746 1008.11,-581.315"/>
</g>
<!-- 24 -->
<g id="node20" class="node"><title>24</title>
<polygon fill="bisque" stroke="black" points="1089,-418 1009,-418 1009,-422 997,-422 997,-382 1089,-382 1089,-418"/>
<polyline fill="none" stroke="black" points="997,-418 1009,-418 "/>
<text text-anchor="middle" x="1043" y="-396.3" font-family="Times,serif" font-size="14.00">Types</text>
</g>
<!-- 20&#45;&gt;24 -->
<g id="edge89" class="edge"><title>20&#45;&gt;24</title>
<path fill="none" stroke="black" d="M1043.08,-619.674C1047.61,-614.843 1052.24,-609.425 1056,-604 1079.45,-570.194 1087.64,-561.066 1097,-521 1104.58,-488.54 1111.14,-476.186 1097,-446 1093.21,-437.898 1087.16,-430.746 1080.45,-424.664"/>
<polygon fill="black" stroke="black" points="1082.33,-421.674 1072.38,-418.024 1077.88,-427.08 1082.33,-421.674"/>
</g>
<!-- 20&#45;&gt;6 -->
<g id="edge83" class="edge"><title>20&#45;&gt;6</title>
<path fill="none" stroke="black" d="M984.745,-619.969C975.462,-616.732 965.515,-613.798 956,-612 888.723,-599.285 714.619,-619.803 648,-604 625.417,-598.643 601.867,-587.948 583.093,-578.011"/>
<polygon fill="black" stroke="black" points="584.743,-574.924 574.286,-573.22 581.398,-581.073 584.743,-574.924"/>
</g>
<!-- 20&#45;&gt;17 -->
<g id="edge86" class="edge"><title>20&#45;&gt;17</title>
<path fill="none" stroke="black" d="M960.207,-635.453C865.017,-632.5 696.576,-624.426 678,-604 643.612,-566.187 665.558,-423.574 678,-374 680.618,-363.57 685.593,-352.961 690.751,-343.824"/>
<polygon fill="black" stroke="black" points="693.757,-345.615 695.888,-335.237 687.75,-342.021 693.757,-345.615"/>
</g>
<!-- 20&#45;&gt;28 -->
<g id="edge90" class="edge"><title>20&#45;&gt;28</title>
<path fill="none" stroke="black" d="M984.744,-619.975C975.461,-616.738 965.514,-613.802 956,-612 939.728,-608.917 670.181,-615.221 658,-604 606.667,-556.711 593.578,-349.268 632,-291 664.318,-241.989 730.592,-220.483 778.645,-211.113"/>
<polygon fill="black" stroke="black" points="779.396,-214.534 788.603,-209.292 778.137,-207.648 779.396,-214.534"/>
</g>
<!-- 19 -->
<g id="node16" class="node"><title>19</title>
<polygon fill="bisque" stroke="black" points="1154.5,-731 1059.5,-731 1059.5,-735 1047.5,-735 1047.5,-695 1154.5,-695 1154.5,-731"/>
<polyline fill="none" stroke="black" points="1047.5,-731 1059.5,-731 "/>
<text text-anchor="middle" x="1101" y="-709.3" font-family="Times,serif" font-size="14.00">Handlers</text>
</g>
<!-- 19&#45;&gt;7 -->
<g id="edge74" class="edge"><title>19&#45;&gt;7</title>
<path fill="none" stroke="black" d="M1047.22,-696.583C1044.12,-695.975 1041.03,-695.44 1038,-695 1020.29,-692.429 729.756,-698.444 716,-687 632.795,-617.778 623.895,-537.944 681,-446 685.949,-438.031 702.516,-428.91 720.183,-420.971"/>
<polygon fill="black" stroke="black" points="721.688,-424.133 729.466,-416.94 718.9,-417.712 721.688,-424.133"/>
</g>
<!-- 19&#45;&gt;8 -->
<g id="edge75" class="edge"><title>19&#45;&gt;8</title>
<path fill="none" stroke="black" d="M1047.21,-696.639C1044.11,-696.018 1041.02,-695.463 1038,-695 889.729,-672.292 784.382,-735.926 713,-604 697.137,-574.683 702.827,-560.743 713,-529 716.573,-517.85 723.273,-507.03 730.181,-497.922"/>
<polygon fill="black" stroke="black" points="732.952,-500.06 736.5,-490.077 727.501,-495.669 732.952,-500.06"/>
</g>
<!-- 19&#45;&gt;9 -->
<g id="edge76" class="edge"><title>19&#45;&gt;9</title>
<path fill="none" stroke="black" d="M1047.18,-696.814C1044.09,-696.148 1041.01,-695.536 1038,-695 998.463,-687.964 985.182,-702.169 948,-687 890.634,-663.596 837.9,-612.213 809.623,-581.21"/>
<polygon fill="black" stroke="black" points="811.923,-578.533 802.642,-573.422 806.71,-583.205 811.923,-578.533"/>
</g>
<!-- 19&#45;&gt;16 -->
<g id="edge77" class="edge"><title>19&#45;&gt;16</title>
<path fill="none" stroke="black" d="M1109.65,-694.824C1110.62,-692.257 1111.45,-689.599 1112,-687 1118.86,-654.38 1122.87,-643.511 1112,-612 1096.72,-567.707 1088.99,-549.791 1047,-529 1016.58,-513.936 469.173,-528.208 436,-521 411.644,-515.708 386.059,-504.758 365.801,-494.651"/>
<polygon fill="black" stroke="black" points="367.389,-491.531 356.892,-490.09 364.199,-497.762 367.389,-491.531"/>
</g>
<!-- 19&#45;&gt;20 -->
<g id="edge78" class="edge"><title>19&#45;&gt;20</title>
<path fill="none" stroke="black" d="M1082.99,-694.7C1073.24,-685.336 1061.04,-673.615 1050.34,-663.344"/>
<polygon fill="black" stroke="black" points="1052.52,-660.579 1042.88,-656.176 1047.67,-665.627 1052.52,-660.579"/>
</g>
<!-- 19&#45;&gt;21 -->
<g id="edge79" class="edge"><title>19&#45;&gt;21</title>
<path fill="none" stroke="black" d="M1109.65,-694.824C1110.62,-692.257 1111.45,-689.599 1112,-687 1118.86,-654.38 1119.61,-644.453 1112,-612 1102.11,-569.817 1077.41,-525.778 1060.42,-498.862"/>
<polygon fill="black" stroke="black" points="1063.34,-496.932 1054.98,-490.418 1057.45,-500.721 1063.34,-496.932"/>
</g>
<!-- 19&#45;&gt;22 -->
<g id="edge80" class="edge"><title>19&#45;&gt;22</title>
<path fill="none" stroke="black" d="M1106.34,-694.648C1111.76,-673.484 1117.37,-637.398 1102,-612 1089.95,-592.09 1068.23,-578.918 1047.5,-570.383"/>
<polygon fill="black" stroke="black" points="1048.67,-567.084 1038.08,-566.781 1046.17,-573.622 1048.67,-567.084"/>
</g>
<!-- 19&#45;&gt;24 -->
<g id="edge81" class="edge"><title>19&#45;&gt;24</title>
<path fill="none" stroke="black" d="M1116.24,-694.793C1117.77,-692.313 1119.1,-689.686 1120,-687 1135.9,-639.801 1122.36,-472.955 1107,-446 1102.16,-437.507 1094.98,-430.233 1087.16,-424.164"/>
<polygon fill="black" stroke="black" points="1088.7,-420.962 1078.51,-418.05 1084.66,-426.679 1088.7,-420.962"/>
</g>
<!-- 19&#45;&gt;6 -->
<g id="edge73" class="edge"><title>19&#45;&gt;6</title>
<path fill="none" stroke="black" d="M1047.22,-696.56C1044.12,-695.959 1041.03,-695.43 1038,-695 1014.34,-691.64 628.068,-699.967 608,-687 572.459,-664.035 556.858,-614.71 550.336,-583.568"/>
<polygon fill="black" stroke="black" points="553.705,-582.55 548.39,-573.384 546.829,-583.864 553.705,-582.55"/>
</g>
<!-- 19&#45;&gt;28 -->
<g id="edge82" class="edge"><title>19&#45;&gt;28</title>
<path fill="none" stroke="black" d="M1115.93,-694.737C1117.76,-692.226 1119.51,-689.607 1121,-687 1160.12,-618.469 1169.77,-598.618 1184,-521 1202.6,-419.545 1228.41,-361.373 1153,-291 1080.86,-223.676 961.663,-207.573 891.508,-204.235"/>
<polygon fill="black" stroke="black" points="891.237,-200.722 881.104,-203.817 890.956,-207.716 891.237,-200.722"/>
</g>
<!-- 21&#45;&gt;24 -->
<g id="edge91" class="edge"><title>21&#45;&gt;24</title>
<path fill="none" stroke="black" d="M1043,-453.697C1043,-445.983 1043,-436.712 1043,-428.112"/>
<polygon fill="black" stroke="black" points="1046.5,-428.104 1043,-418.104 1039.5,-428.104 1046.5,-428.104"/>
</g>
<!-- 21&#45;&gt;28 -->
<g id="edge92" class="edge"><title>21&#45;&gt;28</title>
<path fill="none" stroke="black" d="M1019.46,-453.799C1008.29,-444.428 995.722,-431.913 988,-418 959.996,-367.545 993.009,-339.015 961,-291 941.923,-262.384 909.948,-240.472 882.983,-225.796"/>
<polygon fill="black" stroke="black" points="884.536,-222.658 874.057,-221.097 881.275,-228.852 884.536,-222.658"/>
</g>
<!-- 22&#45;&gt;7 -->
<g id="edge93" class="edge"><title>22&#45;&gt;7</title>
<path fill="none" stroke="black" d="M951.933,-549.395C928.716,-545.119 900.674,-536.878 880,-521 849.17,-497.323 861.369,-474.562 835,-446 827.538,-437.917 818.408,-430.403 809.439,-423.92"/>
<polygon fill="black" stroke="black" points="811.162,-420.856 800.949,-418.036 807.174,-426.609 811.162,-420.856"/>
</g>
<!-- 22&#45;&gt;8 -->
<g id="edge94" class="edge"><title>22&#45;&gt;8</title>
<path fill="none" stroke="black" d="M951.777,-544.073C927.512,-538.131 896.812,-529.996 870,-521 846.715,-513.187 821.438,-503.037 800.358,-494.084"/>
<polygon fill="black" stroke="black" points="801.559,-490.791 790.989,-490.067 798.801,-497.225 801.559,-490.791"/>
</g>
<!-- 22&#45;&gt;9 -->
<g id="edge95" class="edge"><title>22&#45;&gt;9</title>
<path fill="none" stroke="black" d="M951.974,-555C916.946,-555 881.917,-555 846.889,-555"/>
<polygon fill="black" stroke="black" points="846.516,-551.5 836.516,-555 846.516,-558.5 846.516,-551.5"/>
</g>
<!-- 22&#45;&gt;16 -->
<g id="edge96" class="edge"><title>22&#45;&gt;16</title>
<path fill="none" stroke="black" d="M951.808,-544.91C922.637,-539.202 883.18,-532.314 848,-529 802.415,-524.705 480.711,-530.863 436,-521 411.661,-515.631 386.076,-504.676 365.815,-494.586"/>
<polygon fill="black" stroke="black" points="367.402,-491.466 356.904,-490.034 364.218,-497.7 367.402,-491.466"/>
</g>
<!-- 22&#45;&gt;21 -->
<g id="edge98" class="edge"><title>22&#45;&gt;21</title>
<path fill="none" stroke="black" d="M1005.18,-536.822C1011.67,-525.868 1020.21,-511.462 1027.53,-499.108"/>
<polygon fill="black" stroke="black" points="1030.75,-500.541 1032.84,-490.153 1024.73,-496.972 1030.75,-500.541"/>
</g>
<!-- 22&#45;&gt;24 -->
<g id="edge99" class="edge"><title>22&#45;&gt;24</title>
<path fill="none" stroke="black" d="M989.282,-536.964C982.893,-514.85 975.141,-475.59 989,-446 992.795,-437.898 998.845,-430.746 1005.55,-424.664"/>
<polygon fill="black" stroke="black" points="1008.12,-427.08 1013.62,-418.024 1003.67,-421.674 1008.12,-427.08"/>
</g>
<!-- 22&#45;&gt;17 -->
<g id="edge97" class="edge"><title>22&#45;&gt;17</title>
<path fill="none" stroke="black" d="M968.224,-536.904C962.103,-532.223 955.95,-526.818 951,-521 903.211,-464.824 935.661,-414.466 874,-374 853.695,-360.674 787.495,-375.157 765,-366 752.141,-360.766 740.047,-351.485 730.336,-342.47"/>
<polygon fill="black" stroke="black" points="732.685,-339.872 723.089,-335.38 727.789,-344.876 732.685,-339.872"/>
</g>
<!-- 22&#45;&gt;28 -->
<g id="edge100" class="edge"><title>22&#45;&gt;28</title>
<path fill="none" stroke="black" d="M985.18,-536.893C982.583,-531.884 979.961,-526.321 978,-521 941.685,-422.478 975.597,-382.45 924,-291 909.879,-265.971 886.408,-243.466 867.114,-227.619"/>
<polygon fill="black" stroke="black" points="869.137,-224.755 859.14,-221.246 864.767,-230.224 869.137,-224.755"/>
</g>
<!-- 23 -->
<g id="node19" class="node"><title>23</title>
<polygon fill="cyan" stroke="black" points="1029.5,-731 964.5,-731 964.5,-735 952.5,-735 952.5,-695 1029.5,-695 1029.5,-731"/>
<polyline fill="none" stroke="black" points="952.5,-731 964.5,-731 "/>
<text text-anchor="middle" x="991" y="-709.3" font-family="Times,serif" font-size="14.00">TH</text>
</g>
<!-- 24&#45;&gt;7 -->
<g id="edge101" class="edge"><title>24&#45;&gt;7</title>
<path fill="none" stroke="black" d="M996.608,-400C939.378,-400 882.147,-400 824.917,-400"/>
<polygon fill="black" stroke="black" points="824.608,-396.5 814.608,-400 824.608,-403.5 824.608,-396.5"/>
</g>
<!-- 24&#45;&gt;28 -->
<g id="edge102" class="edge"><title>24&#45;&gt;28</title>
<path fill="none" stroke="black" d="M1036.62,-381.882C1027.41,-358.965 1008.53,-318.069 982,-291 954.443,-262.879 915.931,-240.526 885.24,-225.522"/>
<polygon fill="black" stroke="black" points="886.519,-222.255 875.986,-221.104 883.502,-228.571 886.519,-222.255"/>
</g>
<!-- 26 -->
<g id="node21" class="node"><title>26</title>
<polygon fill="bisque" stroke="black" points="551.5,-490 460.5,-490 460.5,-494 448.5,-494 448.5,-454 551.5,-454 551.5,-490"/>
<polyline fill="none" stroke="black" points="448.5,-490 460.5,-490 "/>
<text text-anchor="middle" x="500" y="-468.3" font-family="Times,serif" font-size="14.00">Captcha</text>
</g>
<!-- 26&#45;&gt;28 -->
<g id="edge106" class="edge"><title>26&#45;&gt;28</title>
<path fill="none" stroke="black" d="M473.876,-453.816C462.421,-444.692 450.192,-432.386 444,-418 421.684,-366.154 408.687,-335.034 444,-291 485.337,-239.454 680.743,-216.496 778.715,-208.086"/>
<polygon fill="black" stroke="black" points="779.066,-211.569 788.739,-207.247 778.482,-204.593 779.066,-211.569"/>
</g>
<!-- 6&#45;&gt;2 -->
<g id="edge10" class="edge"><title>6&#45;&gt;2</title>
<path fill="none" stroke="black" d="M593.677,-542.933C618.643,-537.657 649.808,-531.879 678,-529 731.949,-523.49 1113.6,-534.951 1166,-521 1232.7,-503.243 1240.57,-477.479 1302,-446 1327.83,-432.763 1341.79,-439.76 1361,-418 1378.99,-397.624 1387.21,-367.187 1390.95,-345.248"/>
<polygon fill="black" stroke="black" points="1394.43,-345.649 1392.44,-335.242 1387.5,-344.614 1394.43,-345.649"/>
</g>
<!-- 6&#45;&gt;7 -->
<g id="edge11" class="edge"><title>6&#45;&gt;7</title>
<path fill="none" stroke="black" d="M593.673,-537.509C601.862,-533.097 609.737,-527.651 616,-521 640.613,-494.864 620.113,-470.875 646,-446 670.552,-422.408 686.923,-429.043 719.759,-419.541"/>
<polygon fill="black" stroke="black" points="721.042,-422.805 729.477,-416.394 718.885,-416.145 721.042,-422.805"/>
</g>
<!-- 6&#45;&gt;8 -->
<g id="edge12" class="edge"><title>6&#45;&gt;8</title>
<path fill="none" stroke="black" d="M593.791,-538.035C604.93,-534.704 616.808,-531.462 628,-529 653.414,-523.41 661.828,-530.637 686,-521 700.546,-515.201 714.9,-505.588 726.567,-496.482"/>
<polygon fill="black" stroke="black" points="728.992,-499.021 734.552,-490.002 724.582,-493.585 728.992,-499.021"/>
</g>
<!-- 6&#45;&gt;26 -->
<g id="edge13" class="edge"><title>6&#45;&gt;26</title>
<path fill="none" stroke="black" d="M536.245,-536.822C530.024,-525.868 521.842,-511.462 514.827,-499.108"/>
<polygon fill="black" stroke="black" points="517.723,-497.12 509.741,-490.153 511.636,-500.577 517.723,-497.12"/>
</g>
<!-- 6&#45;&gt;27 -->
<g id="edge14" class="edge"><title>6&#45;&gt;27</title>
<path fill="none" stroke="black" d="M563.043,-536.871C567.52,-531.953 572.164,-526.443 576,-521 621.808,-455.998 607.312,-410.424 678,-374 712.517,-356.214 728.476,-379.183 765,-366 780.428,-360.431 795.674,-350.63 807.979,-341.33"/>
<polygon fill="black" stroke="black" points="810.295,-343.962 815.994,-335.03 805.97,-338.458 810.295,-343.962"/>
</g>
<!-- 6&#45;&gt;28 -->
<g id="edge15" class="edge"><title>6&#45;&gt;28</title>
<path fill="none" stroke="black" d="M557.095,-536.769C559.785,-531.851 562.356,-526.366 564,-521 594.087,-422.818 522.634,-371.807 586,-291 632.115,-232.192 720.63,-213.007 778.742,-206.825"/>
<polygon fill="black" stroke="black" points="779.248,-210.293 788.865,-205.847 778.575,-203.325 779.248,-210.293"/>
</g>
<!-- 17&#45;&gt;4 -->
<g id="edge62" class="edge"><title>17&#45;&gt;4</title>
<path fill="none" stroke="black" d="M741.009,-298.886C748.69,-295.653 756.974,-292.742 765,-291 826.355,-277.682 1268.05,-293.228 1330,-283 1399.4,-271.541 1476.06,-244.143 1524.59,-224.84"/>
<polygon fill="black" stroke="black" points="1525.94,-228.071 1533.91,-221.095 1523.33,-221.576 1525.94,-228.071"/>
</g>
<!-- 17&#45;&gt;28 -->
<g id="edge63" class="edge"><title>17&#45;&gt;28</title>
<path fill="none" stroke="black" d="M727.289,-298.99C748.735,-280.077 783.537,-249.385 807.757,-228.026"/>
<polygon fill="black" stroke="black" points="810.345,-230.41 815.53,-221.17 805.715,-225.16 810.345,-230.41"/>
</g>
<!-- 18 -->
<g id="node24" class="node"><title>18</title>
<polygon fill="bisque" stroke="black" points="1277.5,-868 1182.5,-868 1182.5,-872 1170.5,-872 1170.5,-832 1277.5,-832 1277.5,-868"/>
<polyline fill="none" stroke="black" points="1170.5,-868 1182.5,-868 "/>
<text text-anchor="middle" x="1224" y="-846.3" font-family="Times,serif" font-size="14.00">Frontend</text>
</g>
<!-- 18&#45;&gt;4 -->
<g id="edge64" class="edge"><title>18&#45;&gt;4</title>
<path fill="none" stroke="black" d="M1258.33,-831.954C1336.25,-791.06 1525.2,-678.923 1596,-521 1640.51,-421.717 1603.38,-287.262 1583.98,-230.756"/>
<polygon fill="black" stroke="black" points="1587.22,-229.405 1580.59,-221.138 1580.62,-231.733 1587.22,-229.405"/>
</g>
<!-- 18&#45;&gt;7 -->
<g id="edge65" class="edge"><title>18&#45;&gt;7</title>
<path fill="none" stroke="black" d="M1224.98,-831.88C1226.42,-803.422 1228.57,-744.602 1225,-695 1222.33,-657.824 1220.76,-648.456 1213,-612 1209.01,-593.251 1180.61,-458.412 1166,-446 1159.56,-440.526 930.967,-416.952 824.982,-406.282"/>
<polygon fill="black" stroke="black" points="825.114,-402.778 814.814,-405.26 824.414,-409.743 825.114,-402.778"/>
</g>
<!-- 18&#45;&gt;16 -->
<g id="edge66" class="edge"><title>18&#45;&gt;16</title>
<path fill="none" stroke="black" d="M1223.67,-831.688C1222.11,-770.764 1213.36,-567.851 1166,-529 1150.32,-516.139 455.821,-525.285 436,-521 411.639,-515.734 386.053,-504.785 365.797,-494.673"/>
<polygon fill="black" stroke="black" points="367.384,-491.553 356.888,-490.109 364.192,-497.783 367.384,-491.553"/>
</g>
<!-- 18&#45;&gt;20 -->
<g id="edge69" class="edge"><title>18&#45;&gt;20</title>
<path fill="none" stroke="black" d="M1195.69,-831.994C1193.14,-829.571 1190.83,-826.904 1189,-824 1157.89,-774.766 1208.54,-734.772 1166,-695 1154.08,-683.855 1108.26,-692.778 1093,-687 1078.21,-681.401 1063.64,-671.817 1051.8,-662.678"/>
<polygon fill="black" stroke="black" points="1053.69,-659.704 1043.7,-656.166 1049.3,-665.16 1053.69,-659.704"/>
</g>
<!-- 18&#45;&gt;19 -->
<g id="edge68" class="edge"><title>18&#45;&gt;19</title>
<path fill="none" stroke="black" d="M1170.48,-832.787C1166,-830.252 1161.75,-827.34 1158,-824 1132.98,-801.725 1117.3,-765.838 1108.87,-741.147"/>
<polygon fill="black" stroke="black" points="1112.1,-739.759 1105.69,-731.323 1105.44,-741.914 1112.1,-739.759"/>
</g>
<!-- 18&#45;&gt;22 -->
<g id="edge70" class="edge"><title>18&#45;&gt;22</title>
<path fill="none" stroke="black" d="M1212.71,-831.905C1211.32,-829.326 1210.02,-826.643 1209,-824 1187.87,-769.464 1208.61,-747.581 1183,-695 1161.74,-651.358 1154.87,-634.781 1112,-612 1084.35,-597.305 1070.13,-617.757 1042,-604 1031.09,-598.665 1021.28,-589.729 1013.48,-581.004"/>
<polygon fill="black" stroke="black" points="1016.01,-578.576 1006.91,-573.159 1010.65,-583.072 1016.01,-578.576"/>
</g>
<!-- 18&#45;&gt;23 -->
<g id="edge71" class="edge"><title>18&#45;&gt;23</title>
<path fill="none" stroke="black" d="M1170.29,-847.579C1122.87,-845.304 1058.23,-839.386 1038,-824 1011.85,-804.109 1000.07,-766.793 994.888,-741.186"/>
<polygon fill="black" stroke="black" points="998.332,-740.558 993.101,-731.344 991.444,-741.809 998.332,-740.558"/>
</g>
<!-- 18&#45;&gt;24 -->
<g id="edge72" class="edge"><title>18&#45;&gt;24</title>
<path fill="none" stroke="black" d="M1235.92,-831.788C1237.18,-829.269 1238.27,-826.634 1239,-824 1246.56,-796.708 1235.34,-531.682 1234,-529 1231.46,-523.908 1227.39,-525.571 1224,-521 1202.61,-492.167 1220.74,-469.951 1194,-446 1161.74,-417.108 1140.64,-429.599 1098.86,-419.469"/>
<polygon fill="black" stroke="black" points="1099.58,-416.037 1089.01,-416.754 1097.72,-422.786 1099.58,-416.037"/>
</g>
<!-- 18&#45;&gt;17 -->
<g id="edge67" class="edge"><title>18&#45;&gt;17</title>
<path fill="none" stroke="black" d="M1241.83,-831.742C1243.52,-829.306 1244.98,-826.705 1246,-824 1266.24,-770.359 1246.35,-752.332 1246,-695 1245.33,-583.425 1262.66,-546.408 1214,-446 1197.23,-411.391 1199.73,-392.485 1166,-374 1146.46,-363.291 785.854,-373.848 765,-366 751.815,-361.038 739.534,-351.613 729.773,-342.419"/>
<polygon fill="black" stroke="black" points="732.07,-339.767 722.517,-335.185 727.128,-344.724 732.07,-339.767"/>
</g>
<!-- 25&#45;&gt;4 -->
<g id="edge103" class="edge"><title>25&#45;&gt;4</title>
<path fill="none" stroke="black" d="M1281.14,-381.65C1292.59,-354.526 1315.28,-303.845 1330,-291 1381.73,-245.859 1458.53,-223.618 1512.11,-213.017"/>
<polygon fill="black" stroke="black" points="1512.99,-216.412 1522.17,-211.11 1511.69,-209.535 1512.99,-216.412"/>
</g>
<!-- 25&#45;&gt;17 -->
<g id="edge104" class="edge"><title>25&#45;&gt;17</title>
<path fill="none" stroke="black" d="M1229.59,-382.309C1218.75,-378.923 1207.08,-375.838 1196,-374 1148.75,-366.163 809.84,-382.838 765,-366 751.812,-361.048 739.53,-351.624 729.77,-342.428"/>
<polygon fill="black" stroke="black" points="732.066,-339.776 722.514,-335.193 727.123,-344.732 732.066,-339.776"/>
</g>
<!-- 25&#45;&gt;28 -->
<g id="edge105" class="edge"><title>25&#45;&gt;28</title>
<path fill="none" stroke="black" d="M1269.64,-381.833C1262.58,-357.694 1246.3,-314.093 1216,-291 1165.42,-252.449 984.596,-223.704 891.413,-211.077"/>
<polygon fill="black" stroke="black" points="891.691,-207.583 881.315,-209.726 890.762,-214.522 891.691,-207.583"/>
</g>
<!-- 27&#45;&gt;28 -->
<g id="edge107" class="edge"><title>27&#45;&gt;28</title>
<path fill="none" stroke="black" d="M835,-298.99C835,-281.063 835,-252.555 835,-231.442"/>
<polygon fill="black" stroke="black" points="838.5,-231.17 835,-221.17 831.5,-231.171 838.5,-231.17"/>
</g>
<!-- 28&#45;&gt;1 -->
<g id="edge108" class="edge"><title>28&#45;&gt;1</title>
<path fill="none" stroke="chartreuse" d="M835,-184.972C835,-159.03 835,-109.357 835,-78.3264"/>
<polygon fill="chartreuse" stroke="chartreuse" points="838.5,-78.1975 835,-68.1975 831.5,-78.1976 838.5,-78.1975"/>
</g>
<!-- 5 -->
<g id="node28" class="node"><title>5</title>
<polygon fill="gold" stroke="black" points="1521,-951 1431,-951 1431,-955 1419,-955 1419,-915 1521,-915 1521,-951"/>
<polyline fill="none" stroke="black" points="1419,-951 1431,-951 "/>
<text text-anchor="middle" x="1470" y="-929.3" font-family="Times,serif" font-size="14.00">Thentos</text>
</g>
<!-- 5&#45;&gt;4 -->
<g id="edge1" class="edge"><title>5&#45;&gt;4</title>
<path fill="none" stroke="black" d="M1509.58,-914.944C1518.16,-911.836 1527.27,-908.96 1536,-907 1557.75,-902.114 1616.68,-910.129 1636,-899 1722.63,-849.087 1764,-813.984 1764,-714 1764,-714 1764,-714 1764,-399 1764,-316.839 1676.4,-256.35 1620.17,-225.982"/>
<polygon fill="black" stroke="black" points="1621.56,-222.762 1611.08,-221.191 1618.3,-228.953 1621.56,-222.762"/>
</g>
<!-- 5&#45;&gt;7 -->
<g id="edge3" class="edge"><title>5&#45;&gt;7</title>
<path fill="none" stroke="black" d="M1466.27,-914.828C1448.14,-832.088 1368.54,-477.233 1330,-446 1296.25,-418.648 983.283,-421.743 940,-418 901.523,-414.673 858.156,-410.268 825.122,-406.776"/>
<polygon fill="black" stroke="black" points="825.093,-403.253 814.779,-405.676 824.353,-410.214 825.093,-403.253"/>
</g>
<!-- 5&#45;&gt;15 -->
<g id="edge4" class="edge"><title>5&#45;&gt;15</title>
<path fill="none" stroke="black" d="M1418.99,-932.06C1279.11,-931.833 891.653,-928.482 768,-899 621.354,-864.036 462.511,-777.549 392.145,-736.421"/>
<polygon fill="black" stroke="black" points="393.605,-733.219 383.212,-731.164 390.055,-739.252 393.605,-733.219"/>
</g>
<!-- 5&#45;&gt;6 -->
<g id="edge2" class="edge"><title>5&#45;&gt;6</title>
<path fill="none" stroke="black" d="M1441.07,-914.874C1433.39,-910 1425.23,-904.51 1418,-899 1267.13,-783.969 1278.32,-682.038 1102,-612 1058.21,-594.605 724.326,-612.613 678,-604 648.581,-598.531 617.037,-587.276 592.163,-577.039"/>
<polygon fill="black" stroke="black" points="593.206,-573.68 582.631,-573.032 590.494,-580.133 593.206,-573.68"/>
</g>
<!-- 5&#45;&gt;17 -->
<g id="edge5" class="edge"><title>5&#45;&gt;17</title>
<path fill="none" stroke="black" d="M1494.12,-914.867C1499.08,-910.254 1503.78,-904.89 1507,-899 1523.2,-869.384 1515.96,-857.62 1519,-824 1530.82,-693.411 1575.1,-645.54 1515,-529 1465.37,-432.752 1428.93,-410.572 1327,-374 1268.22,-352.909 823.512,-387.828 765,-366 751.801,-361.076 739.518,-351.657 729.759,-342.457"/>
<polygon fill="black" stroke="black" points="732.055,-339.803 722.505,-335.216 727.11,-344.758 732.055,-339.803"/>
</g>
<!-- 5&#45;&gt;18 -->
<g id="edge6" class="edge"><title>5&#45;&gt;18</title>
<path fill="none" stroke="black" d="M1418.73,-915.118C1380.01,-902.37 1326.72,-884.823 1285.67,-871.307"/>
<polygon fill="black" stroke="black" points="1286.64,-867.942 1276.05,-868.139 1284.45,-874.591 1286.64,-867.942"/>
</g>
<!-- 5&#45;&gt;25 -->
<g id="edge7" class="edge"><title>5&#45;&gt;25</title>
<path fill="none" stroke="black" d="M1470,-914.761C1470,-877.913 1470,-788.748 1470,-714 1470,-714 1470,-714 1470,-637 1470,-540.765 1437.53,-512.535 1368,-446 1356.53,-435.02 1341.87,-426.28 1327.56,-419.534"/>
<polygon fill="black" stroke="black" points="1328.81,-416.256 1318.25,-415.385 1325.96,-422.651 1328.81,-416.256"/>
</g>
<!-- 5&#45;&gt;27 -->
<g id="edge8" class="edge"><title>5&#45;&gt;27</title>
<path fill="none" stroke="black" d="M1478.32,-914.846C1480.46,-909.836 1482.56,-904.285 1484,-899 1505.72,-818.986 1508,-796.911 1508,-714 1508,-714 1508,-714 1508,-637 1508,-495.105 1458.02,-428.476 1327,-374 1252.74,-343.123 1024.22,-327.467 906.59,-321.276"/>
<polygon fill="black" stroke="black" points="906.417,-317.762 896.25,-320.741 906.056,-324.753 906.417,-317.762"/>
</g>
<!-- 5&#45;&gt;28 -->
<g id="edge9" class="edge"><title>5&#45;&gt;28</title>
<path fill="none" stroke="black" d="M1509.61,-914.88C1516.21,-910.526 1522.39,-905.262 1527,-899 1547.26,-871.472 1538.47,-857.729 1544,-824 1582.79,-587.203 1644.09,-442.488 1458,-291 1371.74,-220.78 1028.33,-207.225 891.595,-204.617"/>
<polygon fill="black" stroke="black" points="891.398,-201.113 881.337,-204.435 891.274,-208.112 891.398,-201.113"/>
</g>
</g>
</svg>
