<?xml version="1.0" encoding="UTF-8" standalone="no"?>
<!DOCTYPE svg PUBLIC "-//W3C//DTD SVG 1.1//EN"
 "http://www.w3.org/Graphics/SVG/1.1/DTD/svg11.dtd">
<!-- Generated by graphviz version 2.38.0 (20140413.2041)
 -->
<!-- Title: Levels within LIO.Missing Pages: 1 -->
<svg width="540pt" height="171pt"
 viewBox="0.00 0.00 540.00 171.00" xmlns="http://www.w3.org/2000/svg" xmlns:xlink="http://www.w3.org/1999/xlink">
<g id="graph0" class="graph" transform="scale(1 1) rotate(0) translate(4 167)">
<title>Levels within LIO.Missing</title>
<polygon fill="white" stroke="none" points="-4,4 -4,-167 536,-167 536,4 -4,4"/>
<g id="clust1" class="cluster"><title>cluster_0</title>
<polygon fill="lavender" stroke="black" points="8,-8 8,-155 524,-155 524,-8 8,-8"/>
<text text-anchor="middle" x="266" y="-139.8" font-family="Times,serif" font-size="14.00">Exported root entities</text>
</g>
<!-- 1 -->
<g id="node1" class="node"><title>1</title>
<polygon fill="gold" stroke="black" stroke-width="2" points="515.5,-124 402.5,-124 402.5,-88 515.5,-88 515.5,-124"/>
<text text-anchor="middle" x="459" y="-102.3" font-family="Times,serif" font-size="14.00">dcBottom</text>
</g>
<!-- 2 -->
<g id="node2" class="node"><title>2</title>
<polygon fill="gold" stroke="black" stroke-width="2" points="384.5,-124 291.5,-124 291.5,-88 384.5,-88 384.5,-124"/>
<text text-anchor="middle" x="338" y="-102.3" font-family="Times,serif" font-size="14.00">dcTop</text>
</g>
<!-- 3 -->
<g id="node3" class="node"><title>3</title>
<polygon fill="gold" stroke="black" stroke-width="2" points="273.5,-124 136.5,-124 136.5,-88 273.5,-88 273.5,-124"/>
<text text-anchor="middle" x="205" y="-102.3" font-family="Times,serif" font-size="14.00">guardWriteOk</text>
</g>
<!-- 4 -->
<g id="node4" class="node"><title>4</title>
<polygon fill="goldenrod" stroke="black" stroke-width="2" points="274.5,-52 135.5,-52 135.5,-16 274.5,-16 274.5,-52"/>
<text text-anchor="middle" x="205" y="-30.3" font-family="Times,serif" font-size="14.00">tryGuardWrite</text>
</g>
<!-- 3&#45;&gt;4 -->
<g id="edge1" class="edge"><title>3&#45;&gt;4</title>
<path fill="none" stroke="chartreuse" d="M205,-87.6966C205,-79.9827 205,-70.7125 205,-62.1124"/>
<polygon fill="chartreuse" stroke="chartreuse" points="208.5,-62.1043 205,-52.1043 201.5,-62.1044 208.5,-62.1043"/>
</g>
<!-- 5 -->
<g id="node5" class="node"><title>5</title>
<polygon fill="gold" stroke="black" stroke-width="2" points="118,-124 16,-124 16,-88 118,-88 118,-124"/>
<text text-anchor="middle" x="67" y="-102.3" font-family="Times,serif" font-size="14.00">tryTaint</text>
</g>
</g>
</svg>
