<?xml version="1.0" encoding="UTF-8" standalone="no"?>
<!DOCTYPE svg PUBLIC "-//W3C//DTD SVG 1.1//EN"
 "http://www.w3.org/Graphics/SVG/1.1/DTD/svg11.dtd">
<!-- Generated by graphviz version 2.38.0 (20140413.2041)
 -->
<!-- Title: Diagram of: LIO.Missing Pages: 1 -->
<svg width="508pt" height="116pt"
 viewBox="0.00 0.00 507.50 116.00" xmlns="http://www.w3.org/2000/svg" xmlns:xlink="http://www.w3.org/1999/xlink">
<g id="graph0" class="graph" transform="scale(1 1) rotate(0) translate(4 112)">
<title>Diagram of: LIO.Missing</title>
<polygon fill="white" stroke="none" points="-4,4 -4,-112 503.5,-112 503.5,4 -4,4"/>
<!-- 1 -->
<g id="node1" class="node"><title>1</title>
<polygon fill="gold" stroke="black" stroke-width="2" points="113,-108 0,-108 0,-72 113,-72 113,-108"/>
<text text-anchor="middle" x="56.5" y="-86.3" font-family="Times,serif" font-size="14.00">dcBottom</text>
</g>
<!-- 2 -->
<g id="node2" class="node"><title>2</title>
<polygon fill="gold" stroke="black" stroke-width="2" points="224,-108 131,-108 131,-72 224,-72 224,-108"/>
<text text-anchor="middle" x="177.5" y="-86.3" font-family="Times,serif" font-size="14.00">dcTop</text>
</g>
<!-- 3 -->
<g id="node3" class="node"><title>3</title>
<polygon fill="gold" stroke="black" stroke-width="2" points="379,-108 242,-108 242,-72 379,-72 379,-108"/>
<text text-anchor="middle" x="310.5" y="-86.3" font-family="Times,serif" font-size="14.00">guardWriteOk</text>
</g>
<!-- 4 -->
<g id="node4" class="node"><title>4</title>
<polygon fill="goldenrod" stroke="black" stroke-width="2" points="380,-36 241,-36 241,-0 380,-0 380,-36"/>
<text text-anchor="middle" x="310.5" y="-14.3" font-family="Times,serif" font-size="14.00">tryGuardWrite</text>
</g>
<!-- 3&#45;&gt;4 -->
<g id="edge1" class="edge"><title>3&#45;&gt;4</title>
<path fill="none" stroke="chartreuse" d="M310.5,-71.6966C310.5,-63.9827 310.5,-54.7125 310.5,-46.1124"/>
<polygon fill="chartreuse" stroke="chartreuse" points="314,-46.1043 310.5,-36.1043 307,-46.1044 314,-46.1043"/>
</g>
<!-- 5 -->
<g id="node5" class="node"><title>5</title>
<polygon fill="gold" stroke="black" stroke-width="2" points="499.5,-108 397.5,-108 397.5,-72 499.5,-72 499.5,-108"/>
<text text-anchor="middle" x="448.5" y="-86.3" font-family="Times,serif" font-size="14.00">tryTaint</text>
</g>
</g>
</svg>
