<?xml version="1.0" encoding="UTF-8" standalone="no"?>
<!DOCTYPE svg PUBLIC "-//W3C//DTD SVG 1.1//EN"
 "http://www.w3.org/Graphics/SVG/1.1/DTD/svg11.dtd">
<!-- Generated by graphviz version 2.38.0 (20140413.2041)
 -->
<!-- Title: Levels within Paths.TH Pages: 1 -->
<svg width="333pt" height="265pt"
 viewBox="0.00 0.00 333.00 265.00" xmlns="http://www.w3.org/2000/svg" xmlns:xlink="http://www.w3.org/1999/xlink">
<g id="graph0" class="graph" transform="scale(1 1) rotate(0) translate(4 261)">
<title>Levels within Paths.TH</title>
<polygon fill="white" stroke="none" points="-4,4 -4,-261 329,-261 329,4 -4,4"/>
<g id="clust1" class="cluster"><title>cluster_0</title>
<polygon fill="lavender" stroke="black" points="58,-174 58,-249 258,-249 258,-174 58,-174"/>
<text text-anchor="middle" x="158" y="-233.8" font-family="Times,serif" font-size="14.00">Exported root entities</text>
</g>
<g id="clust2" class="cluster"><title>cluster_1</title>
<polygon fill="lavender" stroke="black" points="8,-91 8,-166 294,-166 294,-91 8,-91"/>
<text text-anchor="middle" x="151" y="-150.8" font-family="Times,serif" font-size="14.00">Level = 1</text>
</g>
<g id="clust3" class="cluster"><title>cluster_2</title>
<polygon fill="lavender" stroke="black" points="153,-8 153,-83 317,-83 317,-8 153,-8"/>
<text text-anchor="middle" x="235" y="-67.8" font-family="Times,serif" font-size="14.00">Level = 2</text>
</g>
<!-- 2 -->
<g id="node1" class="node"><title>2</title>
<polygon fill="gold" stroke="black" stroke-width="2" points="250,-218 66,-218 66,-182 250,-182 250,-218"/>
<text text-anchor="middle" x="158" y="-196.3" font-family="Times,serif" font-size="14.00">getPackageSourceRoot</text>
</g>
<!-- 3 -->
<g id="node2" class="node"><title>3</title>
<polygon fill="bisque" stroke="black" stroke-width="2" points="285.5,-135 184.5,-135 184.5,-99 285.5,-99 285.5,-135"/>
<text text-anchor="middle" x="235" y="-113.3" font-family="Times,serif" font-size="14.00">perhaps</text>
</g>
<!-- 2&#45;&gt;3 -->
<g id="edge1" class="edge"><title>2&#45;&gt;3</title>
<path fill="none" stroke="black" stroke-width="1.69315" d="M174.33,-181.822C185.151,-170.439 199.517,-155.326 211.553,-142.665"/>
<polygon fill="black" stroke="black" stroke-width="1.69315" points="214.341,-144.812 218.694,-135.153 209.267,-139.99 214.341,-144.812"/>
</g>
<!-- 4 -->
<g id="node3" class="node"><title>4</title>
<polygon fill="cyan" stroke="black" stroke-width="2" points="166,-135 16,-135 16,-99 166,-99 166,-135"/>
<text text-anchor="middle" x="91" y="-113.3" font-family="Times,serif" font-size="14.00">toShellVarName</text>
</g>
<!-- 2&#45;&gt;4 -->
<g id="edge2" class="edge"><title>2&#45;&gt;4</title>
<path fill="none" stroke="black" d="M143.791,-181.822C134.464,-170.546 122.11,-155.611 111.699,-143.024"/>
<polygon fill="black" stroke="black" points="114.259,-140.628 105.188,-135.153 108.865,-145.09 114.259,-140.628"/>
</g>
<!-- 1 -->
<g id="node4" class="node"><title>1</title>
<polygon fill="cyan" stroke="black" stroke-width="2" points="308.5,-52 161.5,-52 161.5,-16 308.5,-16 308.5,-52"/>
<text text-anchor="middle" x="235" y="-30.3" font-family="Times,serif" font-size="14.00">exceptToMaybe</text>
</g>
<!-- 3&#45;&gt;1 -->
<g id="edge3" class="edge"><title>3&#45;&gt;1</title>
<path fill="none" stroke="chartreuse" d="M235,-98.822C235,-88.1903 235,-74.306 235,-62.2035"/>
<polygon fill="chartreuse" stroke="chartreuse" points="238.5,-62.1532 235,-52.1533 231.5,-62.1533 238.5,-62.1532"/>
</g>
</g>
</svg>
