<?xml version="1.0" encoding="UTF-8" standalone="no"?>
<!DOCTYPE svg PUBLIC "-//W3C//DTD SVG 1.1//EN"
 "http://www.w3.org/Graphics/SVG/1.1/DTD/svg11.dtd">
<!-- Generated by graphviz version 2.38.0 (20140413.2041)
 -->
<!-- Title: Diagram of: Paths.TH Pages: 1 -->
<svg width="301pt" height="188pt"
 viewBox="0.00 0.00 300.50 188.00" xmlns="http://www.w3.org/2000/svg" xmlns:xlink="http://www.w3.org/1999/xlink">
<g id="graph0" class="graph" transform="scale(1 1) rotate(0) translate(4 184)">
<title>Diagram of: Paths.TH</title>
<polygon fill="white" stroke="none" points="-4,4 -4,-184 296.5,-184 296.5,4 -4,4"/>
<!-- 1 -->
<g id="node1" class="node"><title>1</title>
<polygon fill="cyan" stroke="black" stroke-width="2" points="147,-36 0,-36 0,-0 147,-0 147,-36"/>
<text text-anchor="middle" x="73.5" y="-14.3" font-family="Times,serif" font-size="14.00">exceptToMaybe</text>
</g>
<!-- 2 -->
<g id="node2" class="node"><title>2</title>
<polygon fill="gold" stroke="black" stroke-width="2" points="237.5,-180 53.5,-180 53.5,-144 237.5,-144 237.5,-180"/>
<text text-anchor="middle" x="145.5" y="-158.3" font-family="Times,serif" font-size="14.00">getPackageSourceRoot</text>
</g>
<!-- 3 -->
<g id="node3" class="node"><title>3</title>
<polygon fill="bisque" stroke="black" stroke-width="2" points="124,-108 23,-108 23,-72 124,-72 124,-108"/>
<text text-anchor="middle" x="73.5" y="-86.3" font-family="Times,serif" font-size="14.00">perhaps</text>
</g>
<!-- 2&#45;&gt;3 -->
<g id="edge1" class="edge"><title>2&#45;&gt;3</title>
<path fill="none" stroke="black" stroke-width="1.69315" d="M127.702,-143.697C118.896,-135.135 108.118,-124.656 98.4989,-115.304"/>
<polygon fill="black" stroke="black" stroke-width="1.69315" points="100.703,-112.566 91.093,-108.104 95.8232,-117.585 100.703,-112.566"/>
</g>
<!-- 4 -->
<g id="node4" class="node"><title>4</title>
<polygon fill="cyan" stroke="black" stroke-width="2" points="292.5,-108 142.5,-108 142.5,-72 292.5,-72 292.5,-108"/>
<text text-anchor="middle" x="217.5" y="-86.3" font-family="Times,serif" font-size="14.00">toShellVarName</text>
</g>
<!-- 2&#45;&gt;4 -->
<g id="edge2" class="edge"><title>2&#45;&gt;4</title>
<path fill="none" stroke="black" d="M163.298,-143.697C172.104,-135.135 182.882,-124.656 192.501,-115.304"/>
<polygon fill="black" stroke="black" points="195.177,-117.585 199.907,-108.104 190.297,-112.566 195.177,-117.585"/>
</g>
<!-- 3&#45;&gt;1 -->
<g id="edge3" class="edge"><title>3&#45;&gt;1</title>
<path fill="none" stroke="chartreuse" d="M73.5,-71.6966C73.5,-63.9827 73.5,-54.7125 73.5,-46.1124"/>
<polygon fill="chartreuse" stroke="chartreuse" points="77.0001,-46.1043 73.5,-36.1043 70.0001,-46.1044 77.0001,-46.1043"/>
</g>
</g>
</svg>
