<?xml version="1.0" encoding="UTF-8" standalone="no"?>
<!DOCTYPE svg PUBLIC "-//W3C//DTD SVG 1.1//EN"
 "http://www.w3.org/Graphics/SVG/1.1/DTD/svg11.dtd">
<!-- Generated by graphviz version 2.38.0 (20140413.2041)
 -->
<!-- Title: Diagram of: System.Log.Missing Pages: 1 -->
<svg width="593pt" height="409pt"
 viewBox="0.00 0.00 592.50 408.62" xmlns="http://www.w3.org/2000/svg" xmlns:xlink="http://www.w3.org/1999/xlink">
<g id="graph0" class="graph" transform="scale(1 1) rotate(0) translate(4 404.615)">
<title>Diagram of: System.Log.Missing</title>
<polygon fill="white" stroke="none" points="-4,4 -4,-404.615 588.5,-404.615 588.5,4 -4,4"/>
<g id="clust1" class="cluster"><title>cluster_Class_FromJSON</title>
<path fill="#ffc1c1" stroke="black" d="M238,-72C238,-72 428,-72 428,-72 434,-72 440,-78 440,-84 440,-84 440,-266.263 440,-266.263 440,-272.263 434,-278.263 428,-278.263 428,-278.263 238,-278.263 238,-278.263 232,-278.263 226,-272.263 226,-266.263 226,-266.263 226,-84 226,-84 226,-78 232,-72 238,-72"/>
<text text-anchor="middle" x="333" y="-263.063" font-family="Times,serif" font-size="14.00">Class: FromJSON</text>
</g>
<g id="clust2" class="cluster"><title>cluster_Class_FromJSON_Data_Prio</title>
<path fill="#c6e2ff" stroke="black" d="M246,-80C246,-80 420,-80 420,-80 426,-80 432,-86 432,-92 432,-92 432,-151.391 432,-151.391 432,-157.391 426,-163.391 420,-163.391 420,-163.391 246,-163.391 246,-163.391 240,-163.391 234,-157.391 234,-151.391 234,-151.391 234,-92 234,-92 234,-86 240,-80 246,-80"/>
<text text-anchor="middle" x="333" y="-148.191" font-family="Times,serif" font-size="14.00">Instance for: Prio</text>
</g>
<g id="clust3" class="cluster"><title>cluster_Class_ToJSON</title>
<path fill="#ffc1c1" stroke="black" d="M20,-171.391C20,-171.391 206,-171.391 206,-171.391 212,-171.391 218,-177.391 218,-183.391 218,-183.391 218,-380.615 218,-380.615 218,-386.615 212,-392.615 206,-392.615 206,-392.615 20,-392.615 20,-392.615 14,-392.615 8,-386.615 8,-380.615 8,-380.615 8,-183.391 8,-183.391 8,-177.391 14,-171.391 20,-171.391"/>
<text text-anchor="middle" x="113" y="-377.415" font-family="Times,serif" font-size="14.00">Class: ToJSON</text>
</g>
<g id="clust4" class="cluster"><title>cluster_Class_ToJSON_Data_Prio</title>
<path fill="#c6e2ff" stroke="black" d="M46,-179.391C46,-179.391 192,-179.391 192,-179.391 198,-179.391 204,-185.391 204,-191.391 204,-191.391 204,-250.783 204,-250.783 204,-256.783 198,-262.783 192,-262.783 192,-262.783 46,-262.783 46,-262.783 40,-262.783 34,-256.783 34,-250.783 34,-250.783 34,-191.391 34,-191.391 34,-185.391 40,-179.391 46,-179.391"/>
<text text-anchor="middle" x="119" y="-247.583" font-family="Times,serif" font-size="14.00">Instance for: Prio</text>
</g>
<g id="clust5" class="cluster"><title>cluster_Data_Prio</title>
<path fill="papayawhip" stroke="black" d="M87,-8C87,-8 187,-8 187,-8 193,-8 199,-14 199,-20 199,-20 199,-147.196 199,-147.196 199,-153.196 193,-159.196 187,-159.196 187,-159.196 87,-159.196 87,-159.196 81,-159.196 75,-153.196 75,-147.196 75,-147.196 75,-20 75,-20 75,-14 81,-8 87,-8"/>
<text text-anchor="middle" x="137" y="-143.996" font-family="Times,serif" font-size="14.00">Data: Prio</text>
</g>
<!-- 6 -->
<g id="node1" class="node"><title>6</title>
<polygon fill="bisque" stroke="black" stroke-width="2" points="424.157,-100.92 424.157,-119.471 370.759,-132.589 295.241,-132.589 241.843,-119.471 241.843,-100.92 295.241,-87.8026 370.759,-87.8026 424.157,-100.92"/>
<text text-anchor="middle" x="333" y="-106.496" font-family="Times,serif" font-size="14.00">parseJSON</text>
</g>
<!-- 1 -->
<g id="node5" class="node"><title>1</title>
<polygon fill="goldenrod" stroke="black" stroke-width="2" points="183.5,-52 106.5,-52 102.5,-48 102.5,-16 179.5,-16 183.5,-20 183.5,-52"/>
<polyline fill="none" stroke="black" stroke-width="2" points="179.5,-48 102.5,-48 "/>
<polyline fill="none" stroke="black" stroke-width="2" points="179.5,-48 179.5,-16 "/>
<polyline fill="none" stroke="black" stroke-width="2" points="179.5,-48 183.5,-52 "/>
<text text-anchor="middle" x="143" y="-30.3" font-family="Times,serif" font-size="14.00">Prio</text>
</g>
<!-- 6&#45;&gt;1 -->
<g id="edge4" class="edge"><title>6&#45;&gt;1</title>
<path fill="none" stroke="chartreuse" d="M284.563,-90.281C256.632,-79.3737 221.566,-65.6803 193.322,-54.651"/>
<polygon fill="chartreuse" stroke="chartreuse" points="194.228,-51.2472 183.64,-50.8699 191.681,-57.7677 194.228,-51.2472"/>
</g>
<!-- 8 -->
<g id="node2" class="node"><title>8</title>
<polygon fill="khaki" stroke="black" stroke-dasharray="5,2" points="426.255,-195.572 426.255,-223.602 371.627,-243.421 294.373,-243.421 239.745,-223.602 239.745,-195.572 294.373,-175.753 371.627,-175.753 426.255,-195.572"/>
<polygon fill="none" stroke="black" stroke-dasharray="5,2" points="430.25,-192.75 430.25,-226.424 372.326,-247.44 293.674,-247.44 235.75,-226.424 235.75,-192.75 293.674,-171.734 372.326,-171.734 430.25,-192.75"/>
<text text-anchor="middle" x="333" y="-213.387" font-family="Times,serif" font-size="14.00">Data.Aeson</text>
<text text-anchor="middle" x="333" y="-198.387" font-family="Times,serif" font-size="14.00">parseJSON</text>
</g>
<!-- 8&#45;&gt;6 -->
<g id="edge6" class="edge"><title>8&#45;&gt;6</title>
<path fill="none" stroke="navy" stroke-width="1.69315" d="M333,-171.767C333,-158.516 333,-144.016 333,-132.525"/>
</g>
<!-- 7 -->
<g id="node3" class="node"><title>7</title>
<polygon fill="bisque" stroke="black" stroke-width="2" points="196.105,-200.311 196.105,-218.862 150.938,-231.98 87.0622,-231.98 41.8954,-218.862 41.8954,-200.311 87.0622,-187.194 150.938,-187.194 196.105,-200.311"/>
<text text-anchor="middle" x="119" y="-205.887" font-family="Times,serif" font-size="14.00">toJSON</text>
</g>
<!-- 3 -->
<g id="node6" class="node"><title>3</title>
<polygon fill="goldenrod" stroke="black" stroke-width="2" points="191,-128.196 83,-128.196 83,-124.196 79,-124.196 79,-120.196 83,-120.196 83,-100.196 79,-100.196 79,-96.1956 83,-96.1956 83,-92.1956 191,-92.1956 191,-128.196"/>
<polyline fill="none" stroke="black" stroke-width="2" points="83,-124.196 87,-124.196 87,-120.196 83,-120.196 "/>
<polyline fill="none" stroke="black" stroke-width="2" points="83,-100.196 87,-100.196 87,-96.1956 83,-96.1956 "/>
<text text-anchor="middle" x="137" y="-106.496" font-family="Times,serif" font-size="14.00">fromPrio</text>
</g>
<!-- 7&#45;&gt;3 -->
<g id="edge5" class="edge"><title>7&#45;&gt;3</title>
<path fill="none" stroke="chartreuse" d="M122.995,-186.973C125.654,-172.584 129.168,-153.571 132.011,-138.19"/>
<polygon fill="chartreuse" stroke="chartreuse" points="135.477,-138.692 133.853,-128.223 128.594,-137.42 135.477,-138.692"/>
</g>
<!-- 9 -->
<g id="node4" class="node"><title>9</title>
<polygon fill="khaki" stroke="black" stroke-dasharray="5,2" points="206.255,-309.925 206.255,-337.954 151.627,-357.774 74.3726,-357.774 19.7452,-337.954 19.7452,-309.925 74.3726,-290.105 151.627,-290.105 206.255,-309.925"/>
<polygon fill="none" stroke="black" stroke-dasharray="5,2" points="210.25,-307.102 210.25,-340.777 152.326,-361.792 73.6742,-361.792 15.7503,-340.777 15.7503,-307.102 73.6742,-286.086 152.326,-286.086 210.25,-307.102"/>
<text text-anchor="middle" x="113" y="-327.739" font-family="Times,serif" font-size="14.00">Data.Aeson</text>
<text text-anchor="middle" x="113" y="-312.739" font-family="Times,serif" font-size="14.00">toJSON</text>
</g>
<!-- 9&#45;&gt;7 -->
<g id="edge7" class="edge"><title>9&#45;&gt;7</title>
<path fill="none" stroke="navy" d="M114.965,-286.151C115.922,-268.232 117.039,-247.312 117.855,-232.034"/>
</g>
<!-- 3&#45;&gt;1 -->
<g id="edge2" class="edge"><title>3&#45;&gt;1</title>
<path fill="none" stroke="magenta" d="M138.392,-91.9872C139.103,-83.1846 139.987,-72.2609 140.789,-62.3396"/>
<polygon fill="magenta" stroke="magenta" points="141.616,-52.1151 145.295,-62.4454 141.213,-57.0989 140.81,-62.0826 140.81,-62.0826 140.81,-62.0826 141.213,-57.0989 136.324,-61.7198 141.616,-52.1151 141.616,-52.1151"/>
</g>
<!-- 2 -->
<g id="node7" class="node"><title>2</title>
<polygon fill="gold" stroke="black" stroke-width="2" points="584.5,-341.939 437.5,-341.939 437.5,-305.939 584.5,-305.939 584.5,-341.939"/>
<text text-anchor="middle" x="511" y="-320.239" font-family="Times,serif" font-size="14.00">announceAction</text>
</g>
<!-- 4 -->
<g id="node8" class="node"><title>4</title>
<polygon fill="goldenrod" stroke="black" stroke-width="2" points="557.5,-227.587 464.5,-227.587 464.5,-191.587 557.5,-191.587 557.5,-227.587"/>
<text text-anchor="middle" x="511" y="-205.887" font-family="Times,serif" font-size="14.00">logger</text>
</g>
<!-- 2&#45;&gt;4 -->
<g id="edge1" class="edge"><title>2&#45;&gt;4</title>
<path fill="none" stroke="chartreuse" stroke-width="1.69315" d="M511,-305.875C511,-287.81 511,-259.032 511,-237.824"/>
<polygon fill="chartreuse" stroke="chartreuse" stroke-width="1.69315" points="514.5,-237.811 511,-227.811 507.5,-237.811 514.5,-237.811"/>
</g>
<!-- 5 -->
<g id="node9" class="node"><title>5</title>
<polygon fill="goldenrod" stroke="black" stroke-width="2" points="574,-128.196 448,-128.196 448,-92.1956 574,-92.1956 574,-128.196"/>
<text text-anchor="middle" x="511" y="-106.496" font-family="Times,serif" font-size="14.00">loggerName</text>
</g>
<!-- 4&#45;&gt;5 -->
<g id="edge3" class="edge"><title>4&#45;&gt;5</title>
<path fill="none" stroke="chartreuse" d="M511,-191.175C511,-176.634 511,-155.637 511,-138.806"/>
<polygon fill="chartreuse" stroke="chartreuse" points="514.5,-138.456 511,-128.457 507.5,-138.457 514.5,-138.456"/>
</g>
</g>
</svg>
