<?xml version="1.0" encoding="UTF-8" standalone="no"?>
<!DOCTYPE svg PUBLIC "-//W3C//DTD SVG 1.1//EN"
 "http://www.w3.org/Graphics/SVG/1.1/DTD/svg11.dtd">
<!-- Generated by graphviz version 2.38.0 (20140413.2041)
 -->
<!-- Title: Levels within System.Log.Missing Pages: 1 -->
<svg width="1528pt" height="294pt"
 viewBox="0.00 0.00 1528.00 293.74" xmlns="http://www.w3.org/2000/svg" xmlns:xlink="http://www.w3.org/1999/xlink">
<g id="graph0" class="graph" transform="scale(1 1) rotate(0) translate(4 289.744)">
<title>Levels within System.Log.Missing</title>
<polygon fill="white" stroke="none" points="-4,4 -4,-289.744 1524,-289.744 1524,4 -4,4"/>
<g id="clust1" class="cluster"><title>cluster_0</title>
<polygon fill="lavender" stroke="black" points="8,-8 8,-277.744 816,-277.744 816,-8 8,-8"/>
<text text-anchor="middle" x="412" y="-262.544" font-family="Times,serif" font-size="14.00">Exported root entities</text>
</g>
<g id="clust2" class="cluster"><title>cluster_1</title>
<polygon fill="lavender" stroke="black" points="824,-80 824,-163.391 1512,-163.391 1512,-80 824,-80"/>
<text text-anchor="middle" x="1168" y="-148.191" font-family="Times,serif" font-size="14.00">Level = 1</text>
</g>
<!-- 1 -->
<g id="node1" class="node"><title>1</title>
<polygon fill="goldenrod" stroke="black" stroke-width="2" points="540,-227.067 430,-227.067 426,-223.067 426,-191.067 536,-191.067 540,-195.067 540,-227.067"/>
<polyline fill="none" stroke="black" stroke-width="2" points="536,-223.067 426,-223.067 "/>
<polyline fill="none" stroke="black" stroke-width="2" points="536,-223.067 536,-191.067 "/>
<polyline fill="none" stroke="black" stroke-width="2" points="536,-223.067 540,-227.067 "/>
<text text-anchor="middle" x="483" y="-205.367" font-family="Times,serif" font-size="14.00">Data: Prio</text>
</g>
<!-- 2 -->
<g id="node2" class="node"><title>2</title>
<polygon fill="gold" stroke="black" stroke-width="2" points="163.5,-227.067 16.5,-227.067 16.5,-191.067 163.5,-191.067 163.5,-227.067"/>
<text text-anchor="middle" x="90" y="-205.367" font-family="Times,serif" font-size="14.00">announceAction</text>
</g>
<!-- 4 -->
<g id="node3" class="node"><title>4</title>
<polygon fill="goldenrod" stroke="black" stroke-width="2" points="136.5,-128.196 43.5,-128.196 43.5,-92.1956 136.5,-92.1956 136.5,-128.196"/>
<text text-anchor="middle" x="90" y="-106.496" font-family="Times,serif" font-size="14.00">logger</text>
</g>
<!-- 2&#45;&gt;4 -->
<g id="edge1" class="edge"><title>2&#45;&gt;4</title>
<path fill="none" stroke="chartreuse" stroke-width="1.69315" d="M90,-190.749C90,-176.284 90,-155.4 90,-138.659"/>
<polygon fill="chartreuse" stroke="chartreuse" stroke-width="1.69315" points="93.5001,-138.364 90,-128.364 86.5001,-138.364 93.5001,-138.364"/>
</g>
<!-- 5 -->
<g id="node4" class="node"><title>5</title>
<polygon fill="goldenrod" stroke="black" stroke-width="2" points="153,-52 27,-52 27,-16 153,-16 153,-52"/>
<text text-anchor="middle" x="90" y="-30.3" font-family="Times,serif" font-size="14.00">loggerName</text>
</g>
<!-- 4&#45;&gt;5 -->
<g id="edge2" class="edge"><title>4&#45;&gt;5</title>
<path fill="none" stroke="chartreuse" d="M90,-91.9872C90,-83.1846 90,-72.2609 90,-62.3396"/>
<polygon fill="chartreuse" stroke="chartreuse" points="93.5001,-62.1151 90,-52.1151 86.5001,-62.1152 93.5001,-62.1151"/>
</g>
<!-- 8 -->
<g id="node5" class="node"><title>8</title>
<polygon fill="khaki" stroke="black" stroke-dasharray="5,2" points="803.858,-195.053 803.858,-223.082 733.061,-242.902 632.939,-242.902 562.142,-223.082 562.142,-195.053 632.939,-175.233 733.061,-175.233 803.858,-195.053"/>
<polygon fill="none" stroke="black" stroke-dasharray="5,2" points="807.856,-192 807.856,-226.135 733.607,-246.921 632.393,-246.921 558.144,-226.135 558.144,-192 632.393,-171.214 733.607,-171.214 807.856,-192"/>
<text text-anchor="middle" x="683" y="-212.867" font-family="Times,serif" font-size="14.00">Data.Aeson</text>
<text text-anchor="middle" x="683" y="-197.867" font-family="Times,serif" font-size="14.00">Class: FromJSON</text>
</g>
<!-- 6 -->
<g id="node7" class="node"><title>6</title>
<polygon fill="bisque" stroke="black" stroke-width="2" points="1504.29,-100.92 1504.29,-119.471 1405.12,-132.589 1264.88,-132.589 1165.71,-119.471 1165.71,-100.92 1264.88,-87.8026 1405.12,-87.8026 1504.29,-100.92"/>
<text text-anchor="middle" x="1335" y="-106.496" font-family="Times,serif" font-size="14.00">Class: FromJSON, Data: Prio</text>
</g>
<!-- 8&#45;&gt;6 -->
<g id="edge5" class="edge"><title>8&#45;&gt;6</title>
<path fill="none" stroke="navy" stroke-width="1.69315" d="M808.172,-202.807C904.273,-197.195 1039.9,-185.863 1157,-163.391 1196.22,-155.865 1239.21,-143.384 1273.11,-132.513"/>
</g>
<!-- 9 -->
<g id="node6" class="node"><title>9</title>
<polygon fill="khaki" stroke="black" stroke-dasharray="5,2" points="404.397,-195.053 404.397,-223.082 340.314,-242.902 249.686,-242.902 185.603,-223.082 185.603,-195.053 249.686,-175.233 340.314,-175.233 404.397,-195.053"/>
<polygon fill="none" stroke="black" stroke-dasharray="5,2" points="408.395,-192.085 408.395,-226.05 340.915,-246.921 249.085,-246.921 181.605,-226.05 181.605,-192.085 249.085,-171.214 340.915,-171.214 408.395,-192.085"/>
<text text-anchor="middle" x="295" y="-212.867" font-family="Times,serif" font-size="14.00">Data.Aeson</text>
<text text-anchor="middle" x="295" y="-197.867" font-family="Times,serif" font-size="14.00">Class: ToJSON</text>
</g>
<!-- 7 -->
<g id="node8" class="node"><title>7</title>
<polygon fill="bisque" stroke="black" stroke-width="2" points="1147.83,-100.92 1147.83,-119.471 1055.38,-132.589 924.624,-132.589 832.169,-119.471 832.169,-100.92 924.624,-87.8026 1055.38,-87.8026 1147.83,-100.92"/>
<text text-anchor="middle" x="990" y="-106.496" font-family="Times,serif" font-size="14.00">Class: ToJSON, Data: Prio</text>
</g>
<!-- 9&#45;&gt;7 -->
<g id="edge6" class="edge"><title>9&#45;&gt;7</title>
<path fill="none" stroke="navy" d="M373.353,-181.103C387.715,-177.141 402.689,-173.641 417,-171.391 505.486,-157.48 731.555,-177.562 820,-163.391 859.173,-157.115 901.853,-143.988 934.649,-132.47"/>
</g>
<!-- 6&#45;&gt;1 -->
<g id="edge3" class="edge"><title>6&#45;&gt;1</title>
<path fill="none" stroke="black" d="M1277.37,-132.428C1242.96,-144.011 1198.08,-157.216 1157,-163.391 1090.19,-173.434 614.287,-154.011 549,-171.391 537.439,-174.469 525.733,-180.014 515.454,-185.875"/>
<polygon fill="black" stroke="black" points="513.601,-182.906 506.829,-191.054 517.204,-188.907 513.601,-182.906"/>
</g>
<!-- 7&#45;&gt;1 -->
<g id="edge4" class="edge"><title>7&#45;&gt;1</title>
<path fill="none" stroke="black" d="M934.242,-132.463C901.49,-143.902 858.99,-156.951 820,-163.391 760.557,-173.21 607.092,-155.416 549,-171.391 537.678,-174.505 526.198,-179.93 516.058,-185.668"/>
<polygon fill="black" stroke="black" points="513.963,-182.842 507.164,-190.968 517.546,-188.855 513.963,-182.842"/>
</g>
</g>
</svg>
