<?xml version="1.0" encoding="UTF-8" standalone="no"?>
<!DOCTYPE svg PUBLIC "-//W3C//DTD SVG 1.1//EN"
 "http://www.w3.org/Graphics/SVG/1.1/DTD/svg11.dtd">
<!-- Generated by graphviz version 2.38.0 (20140413.2041)
 -->
<!-- Title: Diagram of: Thentos.Frontend.Types Pages: 1 -->
<svg width="8011pt" height="357pt"
 viewBox="0.00 0.00 8011.00 357.13" xmlns="http://www.w3.org/2000/svg" xmlns:xlink="http://www.w3.org/1999/xlink">
<g id="graph0" class="graph" transform="scale(1 1) rotate(0) translate(4 353.135)">
<title>Diagram of: Thentos.Frontend.Types</title>
<polygon fill="white" stroke="none" points="-4,4 -4,-353.135 8007,-353.135 8007,4 -4,4"/>
<g id="clust1" class="cluster"><title>cluster_Class_Accept</title>
<path fill="#ffc1c1" stroke="black" d="M20,-8C20,-8 262,-8 262,-8 268,-8 274,-14 274,-20 274,-20 274,-329.135 274,-329.135 274,-335.135 268,-341.135 262,-341.135 262,-341.135 20,-341.135 20,-341.135 14,-341.135 8,-335.135 8,-329.135 8,-329.135 8,-20 8,-20 8,-14 14,-8 20,-8"/>
<text text-anchor="middle" x="141" y="-325.935" font-family="Times,serif" font-size="14.00">Class: Accept</text>
</g>
<g id="clust2" class="cluster"><title>cluster_Class_Accept_Data_PrettyHTML</title>
<path fill="#c6e2ff" stroke="black" d="M49,-226.744C49,-226.744 233,-226.744 233,-226.744 239,-226.744 245,-232.744 245,-238.744 245,-238.744 245,-298.135 245,-298.135 245,-304.135 239,-310.135 233,-310.135 233,-310.135 49,-310.135 49,-310.135 43,-310.135 37,-304.135 37,-298.135 37,-298.135 37,-238.744 37,-238.744 37,-232.744 43,-226.744 49,-226.744"/>
<text text-anchor="middle" x="141" y="-294.935" font-family="Times,serif" font-size="14.00">Instance for: PrettyHTML</text>
</g>
<g id="clust3" class="cluster"><title>cluster_Class_Accept_Data_TextCss</title>
<path fill="#c6e2ff" stroke="black" d="M49,-16C49,-16 233,-16 233,-16 239,-16 245,-22 245,-28 245,-28 245,-87.3913 245,-87.3913 245,-93.3913 239,-99.3913 233,-99.3913 233,-99.3913 49,-99.3913 49,-99.3913 43,-99.3913 37,-93.3913 37,-87.3913 37,-87.3913 37,-28 37,-28 37,-22 43,-16 49,-16"/>
<text text-anchor="middle" x="141" y="-84.1913" font-family="Times,serif" font-size="14.00">Instance for: TextCss</text>
</g>
<g id="clust4" class="cluster"><title>cluster_Class_FromJSON</title>
<path fill="#ffc1c1" stroke="black" d="M1588,-107.391C1588,-107.391 2646,-107.391 2646,-107.391 2652,-107.391 2658,-113.391 2658,-119.391 2658,-119.391 2658,-313.615 2658,-313.615 2658,-319.615 2652,-325.615 2646,-325.615 2646,-325.615 1588,-325.615 1588,-325.615 1582,-325.615 1576,-319.615 1576,-313.615 1576,-313.615 1576,-119.391 1576,-119.391 1576,-113.391 1582,-107.391 1588,-107.391"/>
<text text-anchor="middle" x="2117" y="-310.415" font-family="Times,serif" font-size="14.00">Class: FromJSON</text>
</g>
<g id="clust5" class="cluster"><title>cluster_Class_FromJSON_Data_DashboardTab</title>
<path fill="#c6e2ff" stroke="black" d="M1596,-115.391C1596,-115.391 1770,-115.391 1770,-115.391 1776,-115.391 1782,-121.391 1782,-127.391 1782,-127.391 1782,-186.783 1782,-186.783 1782,-192.783 1776,-198.783 1770,-198.783 1770,-198.783 1596,-198.783 1596,-198.783 1590,-198.783 1584,-192.783 1584,-186.783 1584,-186.783 1584,-127.391 1584,-127.391 1584,-121.391 1590,-115.391 1596,-115.391"/>
<text text-anchor="middle" x="1683" y="-183.583" font-family="Times,serif" font-size="14.00">Instance for: DashboardTab</text>
</g>
<g id="clust6" class="cluster"><title>cluster_Class_FromJSON_Data_FrontendMsg</title>
<path fill="#c6e2ff" stroke="black" d="M1802,-115.391C1802,-115.391 1976,-115.391 1976,-115.391 1982,-115.391 1988,-121.391 1988,-127.391 1988,-127.391 1988,-186.783 1988,-186.783 1988,-192.783 1982,-198.783 1976,-198.783 1976,-198.783 1802,-198.783 1802,-198.783 1796,-198.783 1790,-192.783 1790,-186.783 1790,-186.783 1790,-127.391 1790,-127.391 1790,-121.391 1796,-115.391 1802,-115.391"/>
<text text-anchor="middle" x="1889" y="-183.583" font-family="Times,serif" font-size="14.00">Instance for: FrontendMsg</text>
</g>
<g id="clust7" class="cluster"><title>cluster_Class_FromJSON_Data_FrontendSessionData</title>
<path fill="#c6e2ff" stroke="black" d="M2008,-115.391C2008,-115.391 2188,-115.391 2188,-115.391 2194,-115.391 2200,-121.391 2200,-127.391 2200,-127.391 2200,-186.783 2200,-186.783 2200,-192.783 2194,-198.783 2188,-198.783 2188,-198.783 2008,-198.783 2008,-198.783 2002,-198.783 1996,-192.783 1996,-186.783 1996,-186.783 1996,-127.391 1996,-127.391 1996,-121.391 2002,-115.391 2008,-115.391"/>
<text text-anchor="middle" x="2098" y="-183.583" font-family="Times,serif" font-size="14.00">Instance for: FrontendSessionData</text>
</g>
<g id="clust8" class="cluster"><title>cluster_Class_FromJSON_Data_FrontendSessionLoginData</title>
<path fill="#c6e2ff" stroke="black" d="M2220,-115.391C2220,-115.391 2432,-115.391 2432,-115.391 2438,-115.391 2444,-121.391 2444,-127.391 2444,-127.391 2444,-186.783 2444,-186.783 2444,-192.783 2438,-198.783 2432,-198.783 2432,-198.783 2220,-198.783 2220,-198.783 2214,-198.783 2208,-192.783 2208,-186.783 2208,-186.783 2208,-127.391 2208,-127.391 2208,-121.391 2214,-115.391 2220,-115.391"/>
<text text-anchor="middle" x="2326" y="-183.583" font-family="Times,serif" font-size="14.00">Instance for: FrontendSessionLoginData</text>
</g>
<g id="clust9" class="cluster"><title>cluster_Class_FromJSON_Data_ServiceLoginState</title>
<path fill="#c6e2ff" stroke="black" d="M2464,-115.391C2464,-115.391 2638,-115.391 2638,-115.391 2644,-115.391 2650,-121.391 2650,-127.391 2650,-127.391 2650,-186.783 2650,-186.783 2650,-192.783 2644,-198.783 2638,-198.783 2638,-198.783 2464,-198.783 2464,-198.783 2458,-198.783 2452,-192.783 2452,-186.783 2452,-186.783 2452,-127.391 2452,-127.391 2452,-121.391 2458,-115.391 2464,-115.391"/>
<text text-anchor="middle" x="2551" y="-183.583" font-family="Times,serif" font-size="14.00">Instance for: ServiceLoginState</text>
</g>
<g id="clust10" class="cluster"><title>cluster_Class_MimeRender</title>
<path fill="#ffc1c1" stroke="black" d="M2678,-107.391C2678,-107.391 4216,-107.391 4216,-107.391 4222,-107.391 4228,-113.391 4228,-119.391 4228,-119.391 4228,-313.615 4228,-313.615 4228,-319.615 4222,-325.615 4216,-325.615 4216,-325.615 2678,-325.615 2678,-325.615 2672,-325.615 2666,-319.615 2666,-313.615 2666,-313.615 2666,-119.391 2666,-119.391 2666,-113.391 2672,-107.391 2678,-107.391"/>
<text text-anchor="middle" x="3447" y="-310.415" font-family="Times,serif" font-size="14.00">Class: MimeRender</text>
</g>
<g id="clust11" class="cluster"><title>cluster_Class_MimeRender_Data_PrettyHTMLHtml</title>
<path fill="#c6e2ff" stroke="black" d="M2686,-115.391C2686,-115.391 2876,-115.391 2876,-115.391 2882,-115.391 2888,-121.391 2888,-127.391 2888,-127.391 2888,-186.783 2888,-186.783 2888,-192.783 2882,-198.783 2876,-198.783 2876,-198.783 2686,-198.783 2686,-198.783 2680,-198.783 2674,-192.783 2674,-186.783 2674,-186.783 2674,-127.391 2674,-127.391 2674,-121.391 2680,-115.391 2686,-115.391"/>
<text text-anchor="middle" x="2781" y="-183.583" font-family="Times,serif" font-size="14.00">Instance for: PrettyHTML Html</text>
</g>
<g id="clust12" class="cluster"><title>cluster_Class_MimeRender_Data_PrettyHTMLa</title>
<path fill="#c6e2ff" stroke="black" d="M2908,-115.391C2908,-115.391 3098,-115.391 3098,-115.391 3104,-115.391 3110,-121.391 3110,-127.391 3110,-127.391 3110,-186.783 3110,-186.783 3110,-192.783 3104,-198.783 3098,-198.783 3098,-198.783 2908,-198.783 2908,-198.783 2902,-198.783 2896,-192.783 2896,-186.783 2896,-186.783 2896,-127.391 2896,-127.391 2896,-121.391 2902,-115.391 2908,-115.391"/>
<text text-anchor="middle" x="3003" y="-183.583" font-family="Times,serif" font-size="14.00">Instance for: PrettyHTML a</text>
</g>
<g id="clust13" class="cluster"><title>cluster_Class_MimeRender_Data_TextCssLBS</title>
<path fill="#c6e2ff" stroke="black" d="M3130,-115.391C3130,-115.391 3320,-115.391 3320,-115.391 3326,-115.391 3332,-121.391 3332,-127.391 3332,-127.391 3332,-186.783 3332,-186.783 3332,-192.783 3326,-198.783 3320,-198.783 3320,-198.783 3130,-198.783 3130,-198.783 3124,-198.783 3118,-192.783 3118,-186.783 3118,-186.783 3118,-127.391 3118,-127.391 3118,-121.391 3124,-115.391 3130,-115.391"/>
<text text-anchor="middle" x="3225" y="-183.583" font-family="Times,serif" font-size="14.00">Instance for: TextCss LBS</text>
</g>
<g id="clust14" class="cluster"><title>cluster_Class_MimeRender_Data_TextCssLT</title>
<path fill="#c6e2ff" stroke="black" d="M3352,-115.391C3352,-115.391 3542,-115.391 3542,-115.391 3548,-115.391 3554,-121.391 3554,-127.391 3554,-127.391 3554,-186.783 3554,-186.783 3554,-192.783 3548,-198.783 3542,-198.783 3542,-198.783 3352,-198.783 3352,-198.783 3346,-198.783 3340,-192.783 3340,-186.783 3340,-186.783 3340,-127.391 3340,-127.391 3340,-121.391 3346,-115.391 3352,-115.391"/>
<text text-anchor="middle" x="3447" y="-183.583" font-family="Times,serif" font-size="14.00">Instance for: TextCss LT</text>
</g>
<g id="clust15" class="cluster"><title>cluster_Class_MimeRender_Data_TextCssSBS</title>
<path fill="#c6e2ff" stroke="black" d="M3574,-115.391C3574,-115.391 3764,-115.391 3764,-115.391 3770,-115.391 3776,-121.391 3776,-127.391 3776,-127.391 3776,-186.783 3776,-186.783 3776,-192.783 3770,-198.783 3764,-198.783 3764,-198.783 3574,-198.783 3574,-198.783 3568,-198.783 3562,-192.783 3562,-186.783 3562,-186.783 3562,-127.391 3562,-127.391 3562,-121.391 3568,-115.391 3574,-115.391"/>
<text text-anchor="middle" x="3669" y="-183.583" font-family="Times,serif" font-size="14.00">Instance for: TextCss SBS</text>
</g>
<g id="clust16" class="cluster"><title>cluster_Class_MimeRender_Data_TextCssST</title>
<path fill="#c6e2ff" stroke="black" d="M3796,-115.391C3796,-115.391 3986,-115.391 3986,-115.391 3992,-115.391 3998,-121.391 3998,-127.391 3998,-127.391 3998,-186.783 3998,-186.783 3998,-192.783 3992,-198.783 3986,-198.783 3986,-198.783 3796,-198.783 3796,-198.783 3790,-198.783 3784,-192.783 3784,-186.783 3784,-186.783 3784,-127.391 3784,-127.391 3784,-121.391 3790,-115.391 3796,-115.391"/>
<text text-anchor="middle" x="3891" y="-183.583" font-family="Times,serif" font-size="14.00">Instance for: TextCss ST</text>
</g>
<g id="clust17" class="cluster"><title>cluster_Class_MimeRender_Data_TextCssString</title>
<path fill="#c6e2ff" stroke="black" d="M4018,-115.391C4018,-115.391 4208,-115.391 4208,-115.391 4214,-115.391 4220,-121.391 4220,-127.391 4220,-127.391 4220,-186.783 4220,-186.783 4220,-192.783 4214,-198.783 4208,-198.783 4208,-198.783 4018,-198.783 4018,-198.783 4012,-198.783 4006,-192.783 4006,-186.783 4006,-186.783 4006,-127.391 4006,-127.391 4006,-121.391 4012,-115.391 4018,-115.391"/>
<text text-anchor="middle" x="4113" y="-183.583" font-family="Times,serif" font-size="14.00">Instance for: TextCss String</text>
</g>
<g id="clust18" class="cluster"><title>cluster_Class_ToJSON</title>
<path fill="#ffc1c1" stroke="black" d="M564,-107.391C564,-107.391 1556,-107.391 1556,-107.391 1562,-107.391 1568,-113.391 1568,-119.391 1568,-119.391 1568,-313.615 1568,-313.615 1568,-319.615 1562,-325.615 1556,-325.615 1556,-325.615 564,-325.615 564,-325.615 558,-325.615 552,-319.615 552,-313.615 552,-313.615 552,-119.391 552,-119.391 552,-113.391 558,-107.391 564,-107.391"/>
<text text-anchor="middle" x="1060" y="-310.415" font-family="Times,serif" font-size="14.00">Class: ToJSON</text>
</g>
<g id="clust19" class="cluster"><title>cluster_Class_ToJSON_Data_DashboardTab</title>
<path fill="#c6e2ff" stroke="black" d="M572,-115.391C572,-115.391 718,-115.391 718,-115.391 724,-115.391 730,-121.391 730,-127.391 730,-127.391 730,-186.783 730,-186.783 730,-192.783 724,-198.783 718,-198.783 718,-198.783 572,-198.783 572,-198.783 566,-198.783 560,-192.783 560,-186.783 560,-186.783 560,-127.391 560,-127.391 560,-121.391 566,-115.391 572,-115.391"/>
<text text-anchor="middle" x="645" y="-183.583" font-family="Times,serif" font-size="14.00">Instance for: DashboardTab</text>
</g>
<g id="clust20" class="cluster"><title>cluster_Class_ToJSON_Data_FrontendMsg</title>
<path fill="#c6e2ff" stroke="black" d="M750,-115.391C750,-115.391 896,-115.391 896,-115.391 902,-115.391 908,-121.391 908,-127.391 908,-127.391 908,-186.783 908,-186.783 908,-192.783 902,-198.783 896,-198.783 896,-198.783 750,-198.783 750,-198.783 744,-198.783 738,-192.783 738,-186.783 738,-186.783 738,-127.391 738,-127.391 738,-121.391 744,-115.391 750,-115.391"/>
<text text-anchor="middle" x="823" y="-183.583" font-family="Times,serif" font-size="14.00">Instance for: FrontendMsg</text>
</g>
<g id="clust21" class="cluster"><title>cluster_Class_ToJSON_Data_FrontendSessionData</title>
<path fill="#c6e2ff" stroke="black" d="M928,-115.391C928,-115.391 1108,-115.391 1108,-115.391 1114,-115.391 1120,-121.391 1120,-127.391 1120,-127.391 1120,-186.783 1120,-186.783 1120,-192.783 1114,-198.783 1108,-198.783 1108,-198.783 928,-198.783 928,-198.783 922,-198.783 916,-192.783 916,-186.783 916,-186.783 916,-127.391 916,-127.391 916,-121.391 922,-115.391 928,-115.391"/>
<text text-anchor="middle" x="1018" y="-183.583" font-family="Times,serif" font-size="14.00">Instance for: FrontendSessionData</text>
</g>
<g id="clust22" class="cluster"><title>cluster_Class_ToJSON_Data_FrontendSessionLoginData</title>
<path fill="#c6e2ff" stroke="black" d="M1140,-115.391C1140,-115.391 1352,-115.391 1352,-115.391 1358,-115.391 1364,-121.391 1364,-127.391 1364,-127.391 1364,-186.783 1364,-186.783 1364,-192.783 1358,-198.783 1352,-198.783 1352,-198.783 1140,-198.783 1140,-198.783 1134,-198.783 1128,-192.783 1128,-186.783 1128,-186.783 1128,-127.391 1128,-127.391 1128,-121.391 1134,-115.391 1140,-115.391"/>
<text text-anchor="middle" x="1246" y="-183.583" font-family="Times,serif" font-size="14.00">Instance for: FrontendSessionLoginData</text>
</g>
<g id="clust23" class="cluster"><title>cluster_Class_ToJSON_Data_ServiceLoginState</title>
<path fill="#c6e2ff" stroke="black" d="M1384,-115.391C1384,-115.391 1548,-115.391 1548,-115.391 1554,-115.391 1560,-121.391 1560,-127.391 1560,-127.391 1560,-186.783 1560,-186.783 1560,-192.783 1554,-198.783 1548,-198.783 1548,-198.783 1384,-198.783 1384,-198.783 1378,-198.783 1372,-192.783 1372,-186.783 1372,-186.783 1372,-127.391 1372,-127.391 1372,-121.391 1378,-115.391 1384,-115.391"/>
<text text-anchor="middle" x="1466" y="-183.583" font-family="Times,serif" font-size="14.00">Instance for: ServiceLoginState</text>
</g>
<g id="clust24" class="cluster"><title>cluster_Data_DashboardTab</title>
<path fill="papayawhip" stroke="black" d="M4248,-230.939C4248,-230.939 5228,-230.939 5228,-230.939 5234,-230.939 5240,-236.939 5240,-242.939 5240,-242.939 5240,-293.939 5240,-293.939 5240,-299.939 5234,-305.939 5228,-305.939 5228,-305.939 4248,-305.939 4248,-305.939 4242,-305.939 4236,-299.939 4236,-293.939 4236,-293.939 4236,-242.939 4236,-242.939 4236,-236.939 4242,-230.939 4248,-230.939"/>
<text text-anchor="middle" x="4738" y="-290.739" font-family="Times,serif" font-size="14.00">Data: DashboardTab</text>
</g>
<g id="clust25" class="cluster"><title>cluster_Data_FActionError</title>
<path fill="papayawhip" stroke="black" d="M5260,-230.939C5260,-230.939 6442,-230.939 6442,-230.939 6448,-230.939 6454,-236.939 6454,-242.939 6454,-242.939 6454,-293.939 6454,-293.939 6454,-299.939 6448,-305.939 6442,-305.939 6442,-305.939 5260,-305.939 5260,-305.939 5254,-305.939 5248,-299.939 5248,-293.939 5248,-293.939 5248,-242.939 5248,-242.939 5248,-236.939 5254,-230.939 5260,-230.939"/>
<text text-anchor="middle" x="5851" y="-290.739" font-family="Times,serif" font-size="14.00">Data: FActionError</text>
</g>
<g id="clust26" class="cluster"><title>cluster_Data_FrontendMsg</title>
<path fill="papayawhip" stroke="black" d="M6474,-230.939C6474,-230.939 6821,-230.939 6821,-230.939 6827,-230.939 6833,-236.939 6833,-242.939 6833,-242.939 6833,-293.939 6833,-293.939 6833,-299.939 6827,-305.939 6821,-305.939 6821,-305.939 6474,-305.939 6474,-305.939 6468,-305.939 6462,-299.939 6462,-293.939 6462,-293.939 6462,-242.939 6462,-242.939 6462,-236.939 6468,-230.939 6474,-230.939"/>
<text text-anchor="middle" x="6647.5" y="-290.739" font-family="Times,serif" font-size="14.00">Data: FrontendMsg</text>
</g>
<g id="clust27" class="cluster"><title>cluster_Data_FrontendSessionData</title>
<path fill="papayawhip" stroke="black" d="M6853,-119.587C6853,-119.587 7313,-119.587 7313,-119.587 7319,-119.587 7325,-125.587 7325,-131.587 7325,-131.587 7325,-293.939 7325,-293.939 7325,-299.939 7319,-305.939 7313,-305.939 7313,-305.939 6853,-305.939 6853,-305.939 6847,-305.939 6841,-299.939 6841,-293.939 6841,-293.939 6841,-131.587 6841,-131.587 6841,-125.587 6847,-119.587 6853,-119.587"/>
<text text-anchor="middle" x="7083" y="-290.739" font-family="Times,serif" font-size="14.00">Data: FrontendSessionData</text>
</g>
<g id="clust28" class="cluster"><title>cluster_Data_FrontendSessionLoginData</title>
<path fill="papayawhip" stroke="black" d="M7567,-119.587C7567,-119.587 7983,-119.587 7983,-119.587 7989,-119.587 7995,-125.587 7995,-131.587 7995,-131.587 7995,-293.939 7995,-293.939 7995,-299.939 7989,-305.939 7983,-305.939 7983,-305.939 7567,-305.939 7567,-305.939 7561,-305.939 7555,-299.939 7555,-293.939 7555,-293.939 7555,-131.587 7555,-131.587 7555,-125.587 7561,-119.587 7567,-119.587"/>
<text text-anchor="middle" x="7775" y="-290.739" font-family="Times,serif" font-size="14.00">Data: FrontendSessionLoginData</text>
</g>
<g id="clust29" class="cluster"><title>cluster_Data_ServiceLoginState</title>
<path fill="papayawhip" stroke="black" d="M294,-20.1956C294,-20.1956 532,-20.1956 532,-20.1956 538,-20.1956 544,-26.1956 544,-32.1956 544,-32.1956 544,-182.587 544,-182.587 544,-188.587 538,-194.587 532,-194.587 532,-194.587 294,-194.587 294,-194.587 288,-194.587 282,-188.587 282,-182.587 282,-182.587 282,-32.1956 282,-32.1956 282,-26.1956 288,-20.1956 294,-20.1956"/>
<text text-anchor="middle" x="413" y="-179.387" font-family="Times,serif" font-size="14.00">Data: ServiceLoginState</text>
</g>
<!-- 25 -->
<g id="node1" class="node"><title>25</title>
<polygon fill="bisque" stroke="black" stroke-width="2" points="237.372,-247.664 237.372,-266.215 180.919,-279.332 101.081,-279.332 44.6275,-266.215 44.6275,-247.664 101.081,-234.546 180.919,-234.546 237.372,-247.664"/>
<text text-anchor="middle" x="141" y="-253.239" font-family="Times,serif" font-size="14.00">contentType</text>
</g>
<!-- 46 -->
<g id="node3" class="node"><title>46</title>
<polygon fill="khaki" stroke="black" stroke-dasharray="1,5" points="261.858,-131.572 261.858,-159.602 191.061,-179.421 90.9389,-179.421 20.1417,-159.602 20.1417,-131.572 90.9389,-111.753 191.061,-111.753 261.858,-131.572"/>
<polygon fill="none" stroke="black" stroke-dasharray="1,5" points="265.856,-128.52 265.856,-162.654 191.607,-183.44 90.3926,-183.44 16.144,-162.654 16.144,-128.52 90.3926,-107.734 191.607,-107.734 265.856,-128.52"/>
<text text-anchor="middle" x="141" y="-149.387" font-family="Times,serif" font-size="14.00">Unknown Module</text>
<text text-anchor="middle" x="141" y="-134.387" font-family="Times,serif" font-size="14.00">contentType</text>
</g>
<!-- 25&#45;&gt;46 -->
<g id="edge9" class="edge"><title>25&#45;&gt;46</title>
<path fill="none" stroke="chartreuse" d="M135.519,-234.595C134.49,-222.892 134.087,-207.893 134.309,-193.606"/>
<polygon fill="chartreuse" stroke="chartreuse" points="137.814,-193.476 134.581,-183.386 130.816,-193.289 137.814,-193.476"/>
</g>
<!-- 26 -->
<g id="node2" class="node"><title>26</title>
<polygon fill="cyan" stroke="black" stroke-width="2" points="237.372,-36.9201 237.372,-55.4711 180.919,-68.5887 101.081,-68.5887 44.6275,-55.4711 44.6275,-36.9201 101.081,-23.8026 180.919,-23.8026 237.372,-36.9201"/>
<text text-anchor="middle" x="141" y="-42.4956" font-family="Times,serif" font-size="14.00">contentType</text>
</g>
<!-- 46&#45;&gt;25 -->
<g id="edge15" class="edge"><title>46&#45;&gt;25</title>
<path fill="none" stroke="navy" d="M147.419,-183.386C148.072,-200.418 147.759,-220.051 146.481,-234.595"/>
</g>
<!-- 46&#45;&gt;26 -->
<g id="edge16" class="edge"><title>46&#45;&gt;26</title>
<path fill="none" stroke="navy" d="M141,-107.767C141,-94.5164 141,-80.0157 141,-68.5253"/>
</g>
<!-- 35 -->
<g id="node4" class="node"><title>35</title>
<polygon fill="cyan" stroke="black" stroke-width="2" points="1774.16,-136.311 1774.16,-154.862 1720.76,-167.98 1645.24,-167.98 1591.84,-154.862 1591.84,-136.311 1645.24,-123.194 1720.76,-123.194 1774.16,-136.311"/>
<text text-anchor="middle" x="1683" y="-141.887" font-family="Times,serif" font-size="14.00">parseJSON</text>
</g>
<!-- 36 -->
<g id="node5" class="node"><title>36</title>
<polygon fill="cyan" stroke="black" stroke-width="2" points="1980.16,-136.311 1980.16,-154.862 1926.76,-167.98 1851.24,-167.98 1797.84,-154.862 1797.84,-136.311 1851.24,-123.194 1926.76,-123.194 1980.16,-136.311"/>
<text text-anchor="middle" x="1889" y="-141.887" font-family="Times,serif" font-size="14.00">parseJSON</text>
</g>
<!-- 37 -->
<g id="node6" class="node"><title>37</title>
<polygon fill="cyan" stroke="black" stroke-width="2" points="2189.16,-136.311 2189.16,-154.862 2135.76,-167.98 2060.24,-167.98 2006.84,-154.862 2006.84,-136.311 2060.24,-123.194 2135.76,-123.194 2189.16,-136.311"/>
<text text-anchor="middle" x="2098" y="-141.887" font-family="Times,serif" font-size="14.00">parseJSON</text>
</g>
<!-- 38 -->
<g id="node7" class="node"><title>38</title>
<polygon fill="cyan" stroke="black" stroke-width="2" points="2398.16,-136.311 2398.16,-154.862 2344.76,-167.98 2269.24,-167.98 2215.84,-154.862 2215.84,-136.311 2269.24,-123.194 2344.76,-123.194 2398.16,-136.311"/>
<text text-anchor="middle" x="2307" y="-141.887" font-family="Times,serif" font-size="14.00">parseJSON</text>
</g>
<!-- 39 -->
<g id="node8" class="node"><title>39</title>
<polygon fill="bisque" stroke="black" stroke-width="2" points="2642.16,-136.311 2642.16,-154.862 2588.76,-167.98 2513.24,-167.98 2459.84,-154.862 2459.84,-136.311 2513.24,-123.194 2588.76,-123.194 2642.16,-136.311"/>
<text text-anchor="middle" x="2551" y="-141.887" font-family="Times,serif" font-size="14.00">parseJSON</text>
</g>
<!-- 16 -->
<g id="node45" class="node"><title>16</title>
<polygon fill="goldenrod" stroke="black" stroke-width="2" points="536,-64.1956 382,-64.1956 378,-60.1956 378,-28.1956 532,-28.1956 536,-32.1956 536,-64.1956"/>
<polyline fill="none" stroke="black" stroke-width="2" points="532,-60.1956 378,-60.1956 "/>
<polyline fill="none" stroke="black" stroke-width="2" points="532,-60.1956 532,-28.1956 "/>
<polyline fill="none" stroke="black" stroke-width="2" points="532,-60.1956 536,-64.1956 "/>
<text text-anchor="middle" x="457" y="-42.4956" font-family="Times,serif" font-size="14.00">ServiceLoginState</text>
</g>
<!-- 39&#45;&gt;16 -->
<g id="edge13" class="edge"><title>39&#45;&gt;16</title>
<path fill="none" stroke="black" d="M2505.98,-124.834C2488.26,-117.993 2467.52,-111.112 2448,-107.391 2260.05,-71.5596 909.095,-52.6933 546.417,-48.2382"/>
<polygon fill="black" stroke="black" points="546.275,-44.7363 536.233,-48.1137 546.19,-51.7358 546.275,-44.7363"/>
</g>
<!-- 48 -->
<g id="node9" class="node"><title>48</title>
<polygon fill="khaki" stroke="black" stroke-dasharray="1,5" points="2218.86,-242.925 2218.86,-270.954 2148.06,-290.774 2047.94,-290.774 1977.14,-270.954 1977.14,-242.925 2047.94,-223.105 2148.06,-223.105 2218.86,-242.925"/>
<polygon fill="none" stroke="black" stroke-dasharray="1,5" points="2222.86,-239.872 2222.86,-274.006 2148.61,-294.792 2047.39,-294.792 1973.14,-274.006 1973.14,-239.872 2047.39,-219.086 2148.61,-219.086 2222.86,-239.872"/>
<text text-anchor="middle" x="2098" y="-260.739" font-family="Times,serif" font-size="14.00">Unknown Module</text>
<text text-anchor="middle" x="2098" y="-245.739" font-family="Times,serif" font-size="14.00">parseJSON</text>
</g>
<!-- 48&#45;&gt;35 -->
<g id="edge24" class="edge"><title>48&#45;&gt;35</title>
<path fill="none" stroke="navy" d="M1972.93,-241.431C1915.07,-232.599 1846.01,-219.01 1786,-198.783 1762.63,-190.907 1737.94,-178.55 1718.6,-167.836"/>
</g>
<!-- 48&#45;&gt;36 -->
<g id="edge25" class="edge"><title>48&#45;&gt;36</title>
<path fill="none" stroke="navy" d="M2034.44,-222.685C2000.09,-204.713 1958.74,-183.075 1928.92,-167.474"/>
</g>
<!-- 48&#45;&gt;37 -->
<g id="edge26" class="edge"><title>48&#45;&gt;37</title>
<path fill="none" stroke="navy" d="M2098,-219.222C2098,-202.221 2098,-182.615 2098,-168.06"/>
</g>
<!-- 48&#45;&gt;38 -->
<g id="edge27" class="edge"><title>48&#45;&gt;38</title>
<path fill="none" stroke="navy" d="M2161.56,-222.685C2195.91,-204.713 2237.26,-183.075 2267.08,-167.474"/>
</g>
<!-- 48&#45;&gt;39 -->
<g id="edge28" class="edge"><title>48&#45;&gt;39</title>
<path fill="none" stroke="navy" d="M2222.9,-244.964C2290.7,-236.676 2375.28,-222.516 2448,-198.783 2471.44,-191.133 2496.13,-178.784 2515.47,-168.019"/>
</g>
<!-- 28 -->
<g id="node10" class="node"><title>28</title>
<polygon fill="bisque" stroke="black" stroke-width="2" points="2880.5,-136.311 2880.5,-154.862 2822.21,-167.98 2739.79,-167.98 2681.5,-154.862 2681.5,-136.311 2739.79,-123.194 2822.21,-123.194 2880.5,-136.311"/>
<text text-anchor="middle" x="2781" y="-141.887" font-family="Times,serif" font-size="14.00">mimeRender</text>
</g>
<!-- 40 -->
<g id="node49" class="node"><title>40</title>
<polygon fill="goldenrod" stroke="black" stroke-width="2" points="2954,-64.1956 2830,-64.1956 2830,-28.1956 2954,-28.1956 2954,-64.1956"/>
<text text-anchor="middle" x="2892" y="-42.4956" font-family="Times,serif" font-size="14.00">renderHTM</text>
</g>
<!-- 28&#45;&gt;40 -->
<g id="edge11" class="edge"><title>28&#45;&gt;40</title>
<path fill="none" stroke="black" d="M2805.36,-123.214C2822.85,-107.87 2846.43,-87.1747 2864.58,-71.2517"/>
<polygon fill="black" stroke="black" points="2867.29,-73.5342 2872.5,-64.308 2862.67,-68.2724 2867.29,-73.5342"/>
</g>
<!-- 29 -->
<g id="node11" class="node"><title>29</title>
<polygon fill="bisque" stroke="black" stroke-width="2" points="3102.5,-136.311 3102.5,-154.862 3044.21,-167.98 2961.79,-167.98 2903.5,-154.862 2903.5,-136.311 2961.79,-123.194 3044.21,-123.194 3102.5,-136.311"/>
<text text-anchor="middle" x="3003" y="-141.887" font-family="Times,serif" font-size="14.00">mimeRender</text>
</g>
<!-- 29&#45;&gt;40 -->
<g id="edge12" class="edge"><title>29&#45;&gt;40</title>
<path fill="none" stroke="black" d="M2978.64,-123.214C2961.15,-107.87 2937.57,-87.1747 2919.42,-71.2517"/>
<polygon fill="black" stroke="black" points="2921.33,-68.2724 2911.5,-64.308 2916.71,-73.5342 2921.33,-68.2724"/>
</g>
<!-- 30 -->
<g id="node12" class="node"><title>30</title>
<polygon fill="cyan" stroke="black" stroke-width="2" points="3324.5,-136.311 3324.5,-154.862 3266.21,-167.98 3183.79,-167.98 3125.5,-154.862 3125.5,-136.311 3183.79,-123.194 3266.21,-123.194 3324.5,-136.311"/>
<text text-anchor="middle" x="3225" y="-141.887" font-family="Times,serif" font-size="14.00">mimeRender</text>
</g>
<!-- 31 -->
<g id="node13" class="node"><title>31</title>
<polygon fill="cyan" stroke="black" stroke-width="2" points="3546.5,-136.311 3546.5,-154.862 3488.21,-167.98 3405.79,-167.98 3347.5,-154.862 3347.5,-136.311 3405.79,-123.194 3488.21,-123.194 3546.5,-136.311"/>
<text text-anchor="middle" x="3447" y="-141.887" font-family="Times,serif" font-size="14.00">mimeRender</text>
</g>
<!-- 32 -->
<g id="node14" class="node"><title>32</title>
<polygon fill="cyan" stroke="black" stroke-width="2" points="3768.5,-136.311 3768.5,-154.862 3710.21,-167.98 3627.79,-167.98 3569.5,-154.862 3569.5,-136.311 3627.79,-123.194 3710.21,-123.194 3768.5,-136.311"/>
<text text-anchor="middle" x="3669" y="-141.887" font-family="Times,serif" font-size="14.00">mimeRender</text>
</g>
<!-- 33 -->
<g id="node15" class="node"><title>33</title>
<polygon fill="cyan" stroke="black" stroke-width="2" points="3990.5,-136.311 3990.5,-154.862 3932.21,-167.98 3849.79,-167.98 3791.5,-154.862 3791.5,-136.311 3849.79,-123.194 3932.21,-123.194 3990.5,-136.311"/>
<text text-anchor="middle" x="3891" y="-141.887" font-family="Times,serif" font-size="14.00">mimeRender</text>
</g>
<!-- 34 -->
<g id="node16" class="node"><title>34</title>
<polygon fill="cyan" stroke="black" stroke-width="2" points="4212.5,-136.311 4212.5,-154.862 4154.21,-167.98 4071.79,-167.98 4013.5,-154.862 4013.5,-136.311 4071.79,-123.194 4154.21,-123.194 4212.5,-136.311"/>
<text text-anchor="middle" x="4113" y="-141.887" font-family="Times,serif" font-size="14.00">mimeRender</text>
</g>
<!-- 47 -->
<g id="node17" class="node"><title>47</title>
<polygon fill="khaki" stroke="black" stroke-dasharray="1,5" points="3567.86,-242.925 3567.86,-270.954 3497.06,-290.774 3396.94,-290.774 3326.14,-270.954 3326.14,-242.925 3396.94,-223.105 3497.06,-223.105 3567.86,-242.925"/>
<polygon fill="none" stroke="black" stroke-dasharray="1,5" points="3571.86,-239.872 3571.86,-274.006 3497.61,-294.792 3396.39,-294.792 3322.14,-274.006 3322.14,-239.872 3396.39,-219.086 3497.61,-219.086 3571.86,-239.872"/>
<text text-anchor="middle" x="3447" y="-260.739" font-family="Times,serif" font-size="14.00">Unknown Module</text>
<text text-anchor="middle" x="3447" y="-245.739" font-family="Times,serif" font-size="14.00">mimeRender</text>
</g>
<!-- 47&#45;&gt;28 -->
<g id="edge17" class="edge"><title>47&#45;&gt;28</title>
<path fill="none" stroke="navy" d="M3321.89,-254.99C3207.93,-251.338 3035.96,-238.792 2892,-198.783 2866.25,-191.626 2839.07,-178.942 2818.05,-167.87"/>
</g>
<!-- 47&#45;&gt;29 -->
<g id="edge18" class="edge"><title>47&#45;&gt;29</title>
<path fill="none" stroke="navy" d="M3321.76,-242.569C3258.51,-233.783 3181.15,-219.904 3114,-198.783 3089.01,-190.923 3062.41,-178.566 3041.52,-167.849"/>
</g>
<!-- 47&#45;&gt;30 -->
<g id="edge19" class="edge"><title>47&#45;&gt;30</title>
<path fill="none" stroke="navy" d="M3380.69,-223.278C3344.15,-205.279 3299.85,-183.458 3267.87,-167.702"/>
</g>
<!-- 47&#45;&gt;31 -->
<g id="edge20" class="edge"><title>47&#45;&gt;31</title>
<path fill="none" stroke="navy" d="M3447,-219.222C3447,-202.221 3447,-182.615 3447,-168.06"/>
</g>
<!-- 47&#45;&gt;32 -->
<g id="edge21" class="edge"><title>47&#45;&gt;32</title>
<path fill="none" stroke="navy" d="M3513.31,-223.278C3549.85,-205.279 3594.15,-183.458 3626.13,-167.702"/>
</g>
<!-- 47&#45;&gt;33 -->
<g id="edge22" class="edge"><title>47&#45;&gt;33</title>
<path fill="none" stroke="navy" d="M3572.24,-242.569C3635.49,-233.783 3712.85,-219.904 3780,-198.783 3804.99,-190.923 3831.59,-178.566 3852.48,-167.849"/>
</g>
<!-- 47&#45;&gt;34 -->
<g id="edge23" class="edge"><title>47&#45;&gt;34</title>
<path fill="none" stroke="navy" d="M3572.11,-254.99C3686.07,-251.338 3858.04,-238.792 4002,-198.783 4027.75,-191.626 4054.93,-178.942 4075.95,-167.87"/>
</g>
<!-- 41 -->
<g id="node18" class="node"><title>41</title>
<polygon fill="cyan" stroke="black" stroke-width="2" points="722.105,-136.311 722.105,-154.862 676.938,-167.98 613.062,-167.98 567.895,-154.862 567.895,-136.311 613.062,-123.194 676.938,-123.194 722.105,-136.311"/>
<text text-anchor="middle" x="645" y="-141.887" font-family="Times,serif" font-size="14.00">toJSON</text>
</g>
<!-- 42 -->
<g id="node19" class="node"><title>42</title>
<polygon fill="cyan" stroke="black" stroke-width="2" points="900.105,-136.311 900.105,-154.862 854.938,-167.98 791.062,-167.98 745.895,-154.862 745.895,-136.311 791.062,-123.194 854.938,-123.194 900.105,-136.311"/>
<text text-anchor="middle" x="823" y="-141.887" font-family="Times,serif" font-size="14.00">toJSON</text>
</g>
<!-- 43 -->
<g id="node20" class="node"><title>43</title>
<polygon fill="cyan" stroke="black" stroke-width="2" points="1095.1,-136.311 1095.1,-154.862 1049.94,-167.98 986.062,-167.98 940.895,-154.862 940.895,-136.311 986.062,-123.194 1049.94,-123.194 1095.1,-136.311"/>
<text text-anchor="middle" x="1018" y="-141.887" font-family="Times,serif" font-size="14.00">toJSON</text>
</g>
<!-- 44 -->
<g id="node21" class="node"><title>44</title>
<polygon fill="cyan" stroke="black" stroke-width="2" points="1290.1,-136.311 1290.1,-154.862 1244.94,-167.98 1181.06,-167.98 1135.9,-154.862 1135.9,-136.311 1181.06,-123.194 1244.94,-123.194 1290.1,-136.311"/>
<text text-anchor="middle" x="1213" y="-141.887" font-family="Times,serif" font-size="14.00">toJSON</text>
</g>
<!-- 45 -->
<g id="node22" class="node"><title>45</title>
<polygon fill="bisque" stroke="black" stroke-width="2" points="1534.1,-136.311 1534.1,-154.862 1488.94,-167.98 1425.06,-167.98 1379.9,-154.862 1379.9,-136.311 1425.06,-123.194 1488.94,-123.194 1534.1,-136.311"/>
<text text-anchor="middle" x="1457" y="-141.887" font-family="Times,serif" font-size="14.00">toJSON</text>
</g>
<!-- 45&#45;&gt;16 -->
<g id="edge14" class="edge"><title>45&#45;&gt;16</title>
<path fill="none" stroke="black" d="M1418.06,-125.036C1402.82,-118.264 1384.95,-111.377 1368,-107.391 1213.59,-71.087 743.784,-54.7555 546.126,-49.3572"/>
<polygon fill="black" stroke="black" points="546.157,-45.8568 536.066,-49.0855 545.968,-52.8543 546.157,-45.8568"/>
</g>
<!-- 49 -->
<g id="node23" class="node"><title>49</title>
<polygon fill="khaki" stroke="black" stroke-dasharray="1,5" points="1138.86,-242.925 1138.86,-270.954 1068.06,-290.774 967.939,-290.774 897.142,-270.954 897.142,-242.925 967.939,-223.105 1068.06,-223.105 1138.86,-242.925"/>
<polygon fill="none" stroke="black" stroke-dasharray="1,5" points="1142.86,-239.872 1142.86,-274.006 1068.61,-294.792 967.393,-294.792 893.144,-274.006 893.144,-239.872 967.393,-219.086 1068.61,-219.086 1142.86,-239.872"/>
<text text-anchor="middle" x="1018" y="-260.739" font-family="Times,serif" font-size="14.00">Unknown Module</text>
<text text-anchor="middle" x="1018" y="-245.739" font-family="Times,serif" font-size="14.00">toJSON</text>
</g>
<!-- 49&#45;&gt;41 -->
<g id="edge29" class="edge"><title>49&#45;&gt;41</title>
<path fill="none" stroke="navy" d="M892.819,-239.949C842.413,-231.161 784.397,-218.012 734,-198.783 713.415,-190.928 692.065,-178.572 675.438,-167.853"/>
</g>
<!-- 49&#45;&gt;42 -->
<g id="edge30" class="edge"><title>49&#45;&gt;42</title>
<path fill="none" stroke="navy" d="M955.019,-222.46C940.817,-214.776 925.849,-206.574 912,-198.783 894.047,-188.682 874.263,-177.123 857.917,-167.455"/>
</g>
<!-- 49&#45;&gt;43 -->
<g id="edge31" class="edge"><title>49&#45;&gt;43</title>
<path fill="none" stroke="navy" d="M1018,-219.222C1018,-202.221 1018,-182.615 1018,-168.06"/>
</g>
<!-- 49&#45;&gt;44 -->
<g id="edge32" class="edge"><title>49&#45;&gt;44</title>
<path fill="none" stroke="navy" d="M1080.98,-222.46C1095.18,-214.776 1110.15,-206.574 1124,-198.783 1141.95,-188.682 1161.74,-177.123 1178.08,-167.455"/>
</g>
<!-- 49&#45;&gt;45 -->
<g id="edge33" class="edge"><title>49&#45;&gt;45</title>
<path fill="none" stroke="navy" d="M1143.1,-246.775C1211.14,-239.018 1295.89,-224.789 1368,-198.783 1388.89,-191.247 1410.43,-178.765 1427.08,-167.897"/>
</g>
<!-- 1 -->
<g id="node24" class="node"><title>1</title>
<polygon fill="gold" stroke="black" stroke-width="2" points="5232,-274.939 5060,-274.939 5056,-270.939 5056,-238.939 5228,-238.939 5232,-242.939 5232,-274.939"/>
<polyline fill="none" stroke="black" stroke-width="2" points="5228,-270.939 5056,-270.939 "/>
<polyline fill="none" stroke="black" stroke-width="2" points="5228,-270.939 5228,-238.939 "/>
<polyline fill="none" stroke="black" stroke-width="2" points="5228,-270.939 5232,-274.939 "/>
<text text-anchor="middle" x="5144" y="-253.239" font-family="Times,serif" font-size="14.00">DashboardTabDetails</text>
</g>
<!-- 2 -->
<g id="node25" class="node"><title>2</title>
<polygon fill="gold" stroke="black" stroke-width="2" points="5038.5,-274.939 4865.5,-274.939 4861.5,-270.939 4861.5,-238.939 5034.5,-238.939 5038.5,-242.939 5038.5,-274.939"/>
<polyline fill="none" stroke="black" stroke-width="2" points="5034.5,-270.939 4861.5,-270.939 "/>
<polyline fill="none" stroke="black" stroke-width="2" points="5034.5,-270.939 5034.5,-238.939 "/>
<polyline fill="none" stroke="black" stroke-width="2" points="5034.5,-270.939 5038.5,-274.939 "/>
<text text-anchor="middle" x="4950" y="-253.239" font-family="Times,serif" font-size="14.00">DashboardTabLogout</text>
</g>
<!-- 3 -->
<g id="node26" class="node"><title>3</title>
<polygon fill="gold" stroke="black" stroke-width="2" points="4843,-274.939 4637,-274.939 4633,-270.939 4633,-238.939 4839,-238.939 4843,-242.939 4843,-274.939"/>
<polyline fill="none" stroke="black" stroke-width="2" points="4839,-270.939 4633,-270.939 "/>
<polyline fill="none" stroke="black" stroke-width="2" points="4839,-270.939 4839,-238.939 "/>
<polyline fill="none" stroke="black" stroke-width="2" points="4839,-270.939 4843,-274.939 "/>
<text text-anchor="middle" x="4738" y="-253.239" font-family="Times,serif" font-size="14.00">DashboardTabOwnServices</text>
</g>
<!-- 4 -->
<g id="node27" class="node"><title>4</title>
<polygon fill="gold" stroke="black" stroke-width="2" points="4615,-274.939 4435,-274.939 4431,-270.939 4431,-238.939 4611,-238.939 4615,-242.939 4615,-274.939"/>
<polyline fill="none" stroke="black" stroke-width="2" points="4611,-270.939 4431,-270.939 "/>
<polyline fill="none" stroke="black" stroke-width="2" points="4611,-270.939 4611,-238.939 "/>
<polyline fill="none" stroke="black" stroke-width="2" points="4611,-270.939 4615,-274.939 "/>
<text text-anchor="middle" x="4523" y="-253.239" font-family="Times,serif" font-size="14.00">DashboardTabServices</text>
</g>
<!-- 5 -->
<g id="node28" class="node"><title>5</title>
<polygon fill="gold" stroke="black" stroke-width="2" points="4412.5,-274.939 4247.5,-274.939 4243.5,-270.939 4243.5,-238.939 4408.5,-238.939 4412.5,-242.939 4412.5,-274.939"/>
<polyline fill="none" stroke="black" stroke-width="2" points="4408.5,-270.939 4243.5,-270.939 "/>
<polyline fill="none" stroke="black" stroke-width="2" points="4408.5,-270.939 4408.5,-238.939 "/>
<polyline fill="none" stroke="black" stroke-width="2" points="4408.5,-270.939 4412.5,-274.939 "/>
<text text-anchor="middle" x="4328" y="-253.239" font-family="Times,serif" font-size="14.00">DashboardTabUsers</text>
</g>
<!-- 6 -->
<g id="node29" class="node"><title>6</title>
<polygon fill="gold" stroke="black" stroke-width="2" points="6446,-274.939 6298,-274.939 6294,-270.939 6294,-238.939 6442,-238.939 6446,-242.939 6446,-274.939"/>
<polyline fill="none" stroke="black" stroke-width="2" points="6442,-270.939 6294,-270.939 "/>
<polyline fill="none" stroke="black" stroke-width="2" points="6442,-270.939 6442,-238.939 "/>
<polyline fill="none" stroke="black" stroke-width="2" points="6442,-270.939 6446,-274.939 "/>
<text text-anchor="middle" x="6370" y="-253.239" font-family="Times,serif" font-size="14.00">FActionError303</text>
</g>
<!-- 7 -->
<g id="node30" class="node"><title>7</title>
<polygon fill="gold" stroke="black" stroke-width="2" points="6276,-274.939 6128,-274.939 6124,-270.939 6124,-238.939 6272,-238.939 6276,-242.939 6276,-274.939"/>
<polyline fill="none" stroke="black" stroke-width="2" points="6272,-270.939 6124,-270.939 "/>
<polyline fill="none" stroke="black" stroke-width="2" points="6272,-270.939 6272,-238.939 "/>
<polyline fill="none" stroke="black" stroke-width="2" points="6272,-270.939 6276,-274.939 "/>
<text text-anchor="middle" x="6200" y="-253.239" font-family="Times,serif" font-size="14.00">FActionError404</text>
</g>
<!-- 8 -->
<g id="node31" class="node"><title>8</title>
<polygon fill="gold" stroke="black" stroke-width="2" points="6106,-274.939 5958,-274.939 5954,-270.939 5954,-238.939 6102,-238.939 6106,-242.939 6106,-274.939"/>
<polyline fill="none" stroke="black" stroke-width="2" points="6102,-270.939 5954,-270.939 "/>
<polyline fill="none" stroke="black" stroke-width="2" points="6102,-270.939 6102,-238.939 "/>
<polyline fill="none" stroke="black" stroke-width="2" points="6102,-270.939 6106,-274.939 "/>
<text text-anchor="middle" x="6030" y="-253.239" font-family="Times,serif" font-size="14.00">FActionError500</text>
</g>
<!-- 9 -->
<g id="node32" class="node"><title>9</title>
<polygon fill="gold" stroke="black" stroke-width="2" points="5935.5,-274.939 5732.5,-274.939 5728.5,-270.939 5728.5,-238.939 5931.5,-238.939 5935.5,-242.939 5935.5,-274.939"/>
<polyline fill="none" stroke="black" stroke-width="2" points="5931.5,-270.939 5728.5,-270.939 "/>
<polyline fill="none" stroke="black" stroke-width="2" points="5931.5,-270.939 5931.5,-238.939 "/>
<polyline fill="none" stroke="black" stroke-width="2" points="5931.5,-270.939 5935.5,-274.939 "/>
<text text-anchor="middle" x="5832" y="-253.239" font-family="Times,serif" font-size="14.00">FActionErrorCreateService</text>
</g>
<!-- 10 -->
<g id="node33" class="node"><title>10</title>
<polygon fill="gold" stroke="black" stroke-width="2" points="5710,-274.939 5532,-274.939 5528,-270.939 5528,-238.939 5706,-238.939 5710,-242.939 5710,-274.939"/>
<polyline fill="none" stroke="black" stroke-width="2" points="5706,-270.939 5528,-270.939 "/>
<polyline fill="none" stroke="black" stroke-width="2" points="5706,-270.939 5706,-238.939 "/>
<polyline fill="none" stroke="black" stroke-width="2" points="5706,-270.939 5710,-274.939 "/>
<text text-anchor="middle" x="5619" y="-253.239" font-family="Times,serif" font-size="14.00">FActionErrorNoToken</text>
</g>
<!-- 11 -->
<g id="node34" class="node"><title>11</title>
<polygon fill="gold" stroke="black" stroke-width="2" points="5510,-274.939 5260,-274.939 5256,-270.939 5256,-238.939 5506,-238.939 5510,-242.939 5510,-274.939"/>
<polyline fill="none" stroke="black" stroke-width="2" points="5506,-270.939 5256,-270.939 "/>
<polyline fill="none" stroke="black" stroke-width="2" points="5506,-270.939 5506,-238.939 "/>
<polyline fill="none" stroke="black" stroke-width="2" points="5506,-270.939 5510,-274.939 "/>
<text text-anchor="middle" x="5383" y="-253.239" font-family="Times,serif" font-size="14.00">FActionErrorServiceLoginNoCbUrl</text>
</g>
<!-- 12 -->
<g id="node35" class="node"><title>12</title>
<polygon fill="gold" stroke="black" stroke-width="2" points="6824.5,-274.939 6667.5,-274.939 6663.5,-270.939 6663.5,-238.939 6820.5,-238.939 6824.5,-242.939 6824.5,-274.939"/>
<polyline fill="none" stroke="black" stroke-width="2" points="6820.5,-270.939 6663.5,-270.939 "/>
<polyline fill="none" stroke="black" stroke-width="2" points="6820.5,-270.939 6820.5,-238.939 "/>
<polyline fill="none" stroke="black" stroke-width="2" points="6820.5,-270.939 6824.5,-274.939 "/>
<text text-anchor="middle" x="6744" y="-253.239" font-family="Times,serif" font-size="14.00">FrontendMsgError</text>
</g>
<!-- 13 -->
<g id="node36" class="node"><title>13</title>
<polygon fill="gold" stroke="black" stroke-width="2" points="6645.5,-274.939 6474.5,-274.939 6470.5,-270.939 6470.5,-238.939 6641.5,-238.939 6645.5,-242.939 6645.5,-274.939"/>
<polyline fill="none" stroke="black" stroke-width="2" points="6641.5,-270.939 6470.5,-270.939 "/>
<polyline fill="none" stroke="black" stroke-width="2" points="6641.5,-270.939 6641.5,-238.939 "/>
<polyline fill="none" stroke="black" stroke-width="2" points="6641.5,-270.939 6645.5,-274.939 "/>
<text text-anchor="middle" x="6558" y="-253.239" font-family="Times,serif" font-size="14.00">FrontendMsgSuccess</text>
</g>
<!-- 14 -->
<g id="node37" class="node"><title>14</title>
<polygon fill="goldenrod" stroke="black" stroke-width="2" points="7260,-163.587 7090,-163.587 7086,-159.587 7086,-127.587 7256,-127.587 7260,-131.587 7260,-163.587"/>
<polyline fill="none" stroke="black" stroke-width="2" points="7256,-159.587 7086,-159.587 "/>
<polyline fill="none" stroke="black" stroke-width="2" points="7256,-159.587 7256,-127.587 "/>
<polyline fill="none" stroke="black" stroke-width="2" points="7256,-159.587 7260,-163.587 "/>
<text text-anchor="middle" x="7173" y="-141.887" font-family="Times,serif" font-size="14.00">FrontendSessionData</text>
</g>
<!-- 17 -->
<g id="node38" class="node"><title>17</title>
<polygon fill="gold" stroke="black" stroke-width="2" points="7317,-274.939 7203,-274.939 7203,-270.939 7199,-270.939 7199,-266.939 7203,-266.939 7203,-246.939 7199,-246.939 7199,-242.939 7203,-242.939 7203,-238.939 7317,-238.939 7317,-274.939"/>
<polyline fill="none" stroke="black" stroke-width="2" points="7203,-270.939 7207,-270.939 7207,-266.939 7203,-266.939 "/>
<polyline fill="none" stroke="black" stroke-width="2" points="7203,-246.939 7207,-246.939 7207,-242.939 7203,-242.939 "/>
<text text-anchor="middle" x="7260" y="-253.239" font-family="Times,serif" font-size="14.00">_fsdLogin</text>
</g>
<!-- 17&#45;&gt;14 -->
<g id="edge1" class="edge"><title>17&#45;&gt;14</title>
<path fill="none" stroke="magenta" d="M7246.41,-238.853C7232.13,-220.903 7209.51,-192.476 7193.15,-171.916"/>
<polygon fill="magenta" stroke="magenta" points="7186.79,-163.914 7196.53,-168.938 7189.9,-167.827 7193.01,-171.74 7193.01,-171.74 7193.01,-171.74 7189.9,-167.827 7189.49,-174.541 7186.79,-163.914 7186.79,-163.914"/>
</g>
<!-- 18 -->
<g id="node39" class="node"><title>18</title>
<polygon fill="gold" stroke="black" stroke-width="2" points="7184.5,-274.939 7049.5,-274.939 7049.5,-270.939 7045.5,-270.939 7045.5,-266.939 7049.5,-266.939 7049.5,-246.939 7045.5,-246.939 7045.5,-242.939 7049.5,-242.939 7049.5,-238.939 7184.5,-238.939 7184.5,-274.939"/>
<polyline fill="none" stroke="black" stroke-width="2" points="7049.5,-270.939 7053.5,-270.939 7053.5,-266.939 7049.5,-266.939 "/>
<polyline fill="none" stroke="black" stroke-width="2" points="7049.5,-246.939 7053.5,-246.939 7053.5,-242.939 7049.5,-242.939 "/>
<text text-anchor="middle" x="7117" y="-253.239" font-family="Times,serif" font-size="14.00">_fsdMessages</text>
</g>
<!-- 18&#45;&gt;14 -->
<g id="edge2" class="edge"><title>18&#45;&gt;14</title>
<path fill="none" stroke="magenta" d="M7125.75,-238.853C7134.78,-221.222 7148.98,-193.483 7159.46,-173.02"/>
<polygon fill="magenta" stroke="magenta" points="7164.13,-163.914 7163.57,-174.866 7161.85,-168.364 7159.57,-172.815 7159.57,-172.815 7159.57,-172.815 7161.85,-168.364 7155.56,-170.764 7164.13,-163.914 7164.13,-163.914"/>
</g>
<!-- 19 -->
<g id="node40" class="node"><title>19</title>
<polygon fill="gold" stroke="black" stroke-width="2" points="7031,-274.939 6849,-274.939 6849,-270.939 6845,-270.939 6845,-266.939 6849,-266.939 6849,-246.939 6845,-246.939 6845,-242.939 6849,-242.939 6849,-238.939 7031,-238.939 7031,-274.939"/>
<polyline fill="none" stroke="black" stroke-width="2" points="6849,-270.939 6853,-270.939 6853,-266.939 6849,-266.939 "/>
<polyline fill="none" stroke="black" stroke-width="2" points="6849,-246.939 6853,-246.939 6853,-242.939 6849,-242.939 "/>
<text text-anchor="middle" x="6940" y="-253.239" font-family="Times,serif" font-size="14.00">_fsdServiceLoginState</text>
</g>
<!-- 19&#45;&gt;14 -->
<g id="edge3" class="edge"><title>19&#45;&gt;14</title>
<path fill="none" stroke="magenta" d="M6976.41,-238.853C7017.15,-219.73 7083.24,-188.716 7127.39,-167.991"/>
<polygon fill="magenta" stroke="magenta" points="7136.47,-163.733 7129.32,-172.056 7131.94,-165.858 7127.41,-167.982 7127.41,-167.982 7127.41,-167.982 7131.94,-165.858 7125.5,-163.908 7136.47,-163.733 7136.47,-163.733"/>
</g>
<!-- 15 -->
<g id="node41" class="node"><title>15</title>
<polygon fill="goldenrod" stroke="black" stroke-width="2" points="7857,-163.587 7655,-163.587 7651,-159.587 7651,-127.587 7853,-127.587 7857,-131.587 7857,-163.587"/>
<polyline fill="none" stroke="black" stroke-width="2" points="7853,-159.587 7651,-159.587 "/>
<polyline fill="none" stroke="black" stroke-width="2" points="7853,-159.587 7853,-127.587 "/>
<polyline fill="none" stroke="black" stroke-width="2" points="7853,-159.587 7857,-163.587 "/>
<text text-anchor="middle" x="7754" y="-141.887" font-family="Times,serif" font-size="14.00">FrontendSessionLoginData</text>
</g>
<!-- 20 -->
<g id="node42" class="node"><title>20</title>
<polygon fill="gold" stroke="black" stroke-width="2" points="7987,-274.939 7829,-274.939 7829,-270.939 7825,-270.939 7825,-266.939 7829,-266.939 7829,-246.939 7825,-246.939 7825,-242.939 7829,-242.939 7829,-238.939 7987,-238.939 7987,-274.939"/>
<polyline fill="none" stroke="black" stroke-width="2" points="7829,-270.939 7833,-270.939 7833,-266.939 7829,-266.939 "/>
<polyline fill="none" stroke="black" stroke-width="2" points="7829,-246.939 7833,-246.939 7833,-242.939 7829,-242.939 "/>
<text text-anchor="middle" x="7908" y="-253.239" font-family="Times,serif" font-size="14.00">_fslDashboardTab</text>
</g>
<!-- 20&#45;&gt;15 -->
<g id="edge4" class="edge"><title>20&#45;&gt;15</title>
<path fill="none" stroke="magenta" d="M7883.94,-238.853C7857.68,-220.21 7815.51,-190.265 7786.37,-169.571"/>
<polygon fill="magenta" stroke="magenta" points="7778.15,-163.733 7788.91,-165.854 7782.22,-166.628 7786.3,-169.523 7786.3,-169.523 7786.3,-169.523 7782.22,-166.628 7783.7,-173.192 7778.15,-163.733 7778.15,-163.733"/>
</g>
<!-- 23 -->
<g id="node43" class="node"><title>23</title>
<polygon fill="gold" stroke="black" stroke-width="2" points="7810.5,-274.939 7697.5,-274.939 7697.5,-270.939 7693.5,-270.939 7693.5,-266.939 7697.5,-266.939 7697.5,-246.939 7693.5,-246.939 7693.5,-242.939 7697.5,-242.939 7697.5,-238.939 7810.5,-238.939 7810.5,-274.939"/>
<polyline fill="none" stroke="black" stroke-width="2" points="7697.5,-270.939 7701.5,-270.939 7701.5,-266.939 7697.5,-266.939 "/>
<polyline fill="none" stroke="black" stroke-width="2" points="7697.5,-246.939 7701.5,-246.939 7701.5,-242.939 7697.5,-242.939 "/>
<text text-anchor="middle" x="7754" y="-253.239" font-family="Times,serif" font-size="14.00">_fslToken</text>
</g>
<!-- 23&#45;&gt;15 -->
<g id="edge7" class="edge"><title>23&#45;&gt;15</title>
<path fill="none" stroke="magenta" d="M7754,-238.853C7754,-221.541 7754,-194.484 7754,-174.138"/>
<polygon fill="magenta" stroke="magenta" points="7754,-163.914 7758.5,-173.914 7754,-168.914 7754,-173.914 7754,-173.914 7754,-173.914 7754,-168.914 7749.5,-173.914 7754,-163.914 7754,-163.914"/>
</g>
<!-- 24 -->
<g id="node44" class="node"><title>24</title>
<polygon fill="gold" stroke="black" stroke-width="2" points="7679,-274.939 7563,-274.939 7563,-270.939 7559,-270.939 7559,-266.939 7563,-266.939 7563,-246.939 7559,-246.939 7559,-242.939 7563,-242.939 7563,-238.939 7679,-238.939 7679,-274.939"/>
<polyline fill="none" stroke="black" stroke-width="2" points="7563,-270.939 7567,-270.939 7567,-266.939 7563,-266.939 "/>
<polyline fill="none" stroke="black" stroke-width="2" points="7563,-246.939 7567,-246.939 7567,-242.939 7563,-242.939 "/>
<text text-anchor="middle" x="7621" y="-253.239" font-family="Times,serif" font-size="14.00">_fslUserId</text>
</g>
<!-- 24&#45;&gt;15 -->
<g id="edge8" class="edge"><title>24&#45;&gt;15</title>
<path fill="none" stroke="magenta" d="M7641.78,-238.853C7664.2,-220.424 7700.04,-190.952 7725.17,-170.288"/>
<polygon fill="magenta" stroke="magenta" points="7732.93,-163.914 7728.06,-173.741 7729.06,-167.09 7725.2,-170.265 7725.2,-170.265 7725.2,-170.265 7729.06,-167.09 7722.34,-166.789 7732.93,-163.914 7732.93,-163.914"/>
</g>
<!-- 21 -->
<g id="node46" class="node"><title>21</title>
<polygon fill="gold" stroke="black" stroke-width="2" points="536.5,-163.587 439.5,-163.587 439.5,-159.587 435.5,-159.587 435.5,-155.587 439.5,-155.587 439.5,-135.587 435.5,-135.587 435.5,-131.587 439.5,-131.587 439.5,-127.587 536.5,-127.587 536.5,-163.587"/>
<polyline fill="none" stroke="black" stroke-width="2" points="439.5,-159.587 443.5,-159.587 443.5,-155.587 439.5,-155.587 "/>
<polyline fill="none" stroke="black" stroke-width="2" points="439.5,-135.587 443.5,-135.587 443.5,-131.587 439.5,-131.587 "/>
<text text-anchor="middle" x="488" y="-141.887" font-family="Times,serif" font-size="14.00">_fslRR</text>
</g>
<!-- 21&#45;&gt;16 -->
<g id="edge5" class="edge"><title>21&#45;&gt;16</title>
<path fill="none" stroke="magenta" d="M482.458,-127.175C477.785,-112.495 471.018,-91.2366 465.636,-74.3261"/>
<polygon fill="magenta" stroke="magenta" points="462.494,-64.4565 469.815,-72.6205 464.011,-69.221 465.527,-73.9854 465.527,-73.9854 465.527,-73.9854 464.011,-69.221 461.239,-75.3504 462.494,-64.4565 462.494,-64.4565"/>
</g>
<!-- 22 -->
<g id="node47" class="node"><title>22</title>
<polygon fill="gold" stroke="black" stroke-width="2" points="421.5,-163.587 290.5,-163.587 290.5,-159.587 286.5,-159.587 286.5,-155.587 290.5,-155.587 290.5,-135.587 286.5,-135.587 286.5,-131.587 290.5,-131.587 290.5,-127.587 421.5,-127.587 421.5,-163.587"/>
<polyline fill="none" stroke="black" stroke-width="2" points="290.5,-159.587 294.5,-159.587 294.5,-155.587 290.5,-155.587 "/>
<polyline fill="none" stroke="black" stroke-width="2" points="290.5,-135.587 294.5,-135.587 294.5,-131.587 290.5,-131.587 "/>
<text text-anchor="middle" x="356" y="-141.887" font-family="Times,serif" font-size="14.00">_fslServiceId</text>
</g>
<!-- 22&#45;&gt;16 -->
<g id="edge6" class="edge"><title>22&#45;&gt;16</title>
<path fill="none" stroke="magenta" d="M374.057,-127.175C390.143,-111.664 413.845,-88.8089 431.797,-71.4983"/>
<polygon fill="magenta" stroke="magenta" points="439.1,-64.4565 435.025,-74.6372 435.5,-67.9272 431.901,-71.3978 431.901,-71.3978 431.901,-71.3978 435.5,-67.9272 428.777,-68.1585 439.1,-64.4565 439.1,-64.4565"/>
</g>
<!-- 27 -->
<g id="node48" class="node"><title>27</title>
<polygon fill="gold" stroke="black" stroke-width="2" points="7544.5,-274.939 7335.5,-274.939 7335.5,-238.939 7544.5,-238.939 7544.5,-274.939"/>
<text text-anchor="middle" x="7440" y="-253.239" font-family="Times,serif" font-size="14.00">emptyFrontendSessionData</text>
</g>
<!-- 27&#45;&gt;14 -->
<g id="edge10" class="edge"><title>27&#45;&gt;14</title>
<path fill="none" stroke="chartreuse" d="M7398.28,-238.853C7351.3,-219.61 7274.91,-188.326 7224.31,-167.602"/>
<polygon fill="chartreuse" stroke="chartreuse" points="7225.45,-164.285 7214.87,-163.733 7222.79,-170.762 7225.45,-164.285"/>
</g>
</g>
</svg>
