<?xml version="1.0" encoding="UTF-8" standalone="no"?>
<!DOCTYPE svg PUBLIC "-//W3C//DTD SVG 1.1//EN"
 "http://www.w3.org/Graphics/SVG/1.1/DTD/svg11.dtd">
<!-- Generated by graphviz version 2.38.0 (20140413.2041)
 -->
<!-- Title: Diagram of: Thentos.Action.Unsafe Pages: 1 -->
<svg width="1360pt" height="116pt"
 viewBox="0.00 0.00 1359.50 116.00" xmlns="http://www.w3.org/2000/svg" xmlns:xlink="http://www.w3.org/1999/xlink">
<g id="graph0" class="graph" transform="scale(1 1) rotate(0) translate(4 112)">
<title>Diagram of: Thentos.Action.Unsafe</title>
<polygon fill="white" stroke="none" points="-4,4 -4,-112 1355.5,-112 1355.5,4 -4,4"/>
<!-- 1 -->
<g id="node1" class="node"><title>1</title>
<polygon fill="gold" stroke="black" stroke-width="2" points="155,-108 0,-108 0,-72 155,-72 155,-108"/>
<text text-anchor="middle" x="77.5" y="-86.3" font-family="Times,serif" font-size="14.00">genRandomBytes</text>
</g>
<!-- 2 -->
<g id="node2" class="node"><title>2</title>
<polygon fill="gold" stroke="black" stroke-width="2" points="286,-108 173,-108 173,-72 286,-72 286,-108"/>
<text text-anchor="middle" x="229.5" y="-86.3" font-family="Times,serif" font-size="14.00">getConfig</text>
</g>
<!-- 3 -->
<g id="node3" class="node"><title>3</title>
<polygon fill="gold" stroke="black" stroke-width="2" points="450.5,-108 304.5,-108 304.5,-72 450.5,-72 450.5,-108"/>
<text text-anchor="middle" x="377.5" y="-86.3" font-family="Times,serif" font-size="14.00">getCurrentTime</text>
</g>
<!-- 4 -->
<g id="node4" class="node"><title>4</title>
<polygon fill="gold" stroke="black" stroke-width="2" points="614.5,-108 468.5,-108 468.5,-72 614.5,-72 614.5,-108"/>
<text text-anchor="middle" x="541.5" y="-86.3" font-family="Times,serif" font-size="14.00">hashServiceKey</text>
</g>
<!-- 5 -->
<g id="node5" class="node"><title>5</title>
<polygon fill="gold" stroke="black" stroke-width="2" points="766,-108 633,-108 633,-72 766,-72 766,-108"/>
<text text-anchor="middle" x="699.5" y="-86.3" font-family="Times,serif" font-size="14.00">hashUserPass</text>
</g>
<!-- 6 -->
<g id="node6" class="node"><title>6</title>
<polygon fill="gold" stroke="black" stroke-width="2" points="897,-108 784,-108 784,-72 897,-72 897,-108"/>
<text text-anchor="middle" x="840.5" y="-86.3" font-family="Times,serif" font-size="14.00">logIfError</text>
</g>
<!-- 7 -->
<g id="node7" class="node"><title>7</title>
<polygon fill="goldenrod" stroke="black" stroke-width="2" points="887,-36 794,-36 794,-0 887,-0 887,-36"/>
<text text-anchor="middle" x="840.5" y="-14.3" font-family="Times,serif" font-size="14.00">logger</text>
</g>
<!-- 6&#45;&gt;7 -->
<g id="edge1" class="edge"><title>6&#45;&gt;7</title>
<path fill="none" stroke="chartreuse" d="M840.5,-71.6966C840.5,-63.9827 840.5,-54.7125 840.5,-46.1124"/>
<polygon fill="chartreuse" stroke="chartreuse" points="844,-46.1043 840.5,-36.1043 837,-46.1044 844,-46.1043"/>
</g>
<!-- 8 -->
<g id="node8" class="node"><title>8</title>
<polygon fill="gold" stroke="black" stroke-width="2" points="1115.5,-108 915.5,-108 915.5,-72 1115.5,-72 1115.5,-108"/>
<text text-anchor="middle" x="1015.5" y="-86.3" font-family="Times,serif" font-size="14.00">makeUserFromFormData</text>
</g>
<!-- 9 -->
<g id="node9" class="node"><title>9</title>
<polygon fill="gold" stroke="black" stroke-width="2" points="1223,-108 1134,-108 1134,-72 1223,-72 1223,-108"/>
<text text-anchor="middle" x="1178.5" y="-86.3" font-family="Times,serif" font-size="14.00">query</text>
</g>
<!-- 10 -->
<g id="node10" class="node"><title>10</title>
<polygon fill="gold" stroke="black" stroke-width="2" points="1351.5,-108 1241.5,-108 1241.5,-72 1351.5,-72 1351.5,-108"/>
<text text-anchor="middle" x="1296.5" y="-86.3" font-family="Times,serif" font-size="14.00">sendMail</text>
</g>
</g>
</svg>
