<?xml version="1.0" encoding="UTF-8" standalone="no"?>
<!DOCTYPE svg PUBLIC "-//W3C//DTD SVG 1.1//EN"
 "http://www.w3.org/Graphics/SVG/1.1/DTD/svg11.dtd">
<!-- Generated by graphviz version 2.38.0 (20140413.2041)
 -->
<!-- Title: Levels within Thentos.Frontend.Types Pages: 1 -->
<svg width="11118pt" height="222pt"
 viewBox="0.00 0.00 11118.00 221.74" xmlns="http://www.w3.org/2000/svg" xmlns:xlink="http://www.w3.org/1999/xlink">
<g id="graph0" class="graph" transform="scale(1 1) rotate(0) translate(4 217.744)">
<title>Levels within Thentos.Frontend.Types</title>
<polygon fill="white" stroke="none" points="-4,4 -4,-217.744 11114,-217.744 11114,4 -4,4"/>
<g id="clust1" class="cluster"><title>cluster_0</title>
<polygon fill="lavender" stroke="black" points="8,-12.1956 8,-205.744 2483,-205.744 2483,-12.1956 8,-12.1956"/>
<text text-anchor="middle" x="1245.5" y="-190.544" font-family="Times,serif" font-size="14.00">Exported root entities</text>
</g>
<g id="clust2" class="cluster"><title>cluster_1</title>
<polygon fill="lavender" stroke="black" points="2491,-8 2491,-91.3913 11102,-91.3913 11102,-8 2491,-8"/>
<text text-anchor="middle" x="6796.5" y="-76.1913" font-family="Times,serif" font-size="14.00">Level = 1</text>
</g>
<!-- 1 -->
<g id="node1" class="node"><title>1</title>
<polygon fill="gold" stroke="black" stroke-width="2" points="2474.5,-155.067 2307.5,-155.067 2303.5,-151.067 2303.5,-119.067 2470.5,-119.067 2474.5,-123.067 2474.5,-155.067"/>
<polyline fill="none" stroke="black" stroke-width="2" points="2470.5,-151.067 2303.5,-151.067 "/>
<polyline fill="none" stroke="black" stroke-width="2" points="2470.5,-151.067 2470.5,-119.067 "/>
<polyline fill="none" stroke="black" stroke-width="2" points="2470.5,-151.067 2474.5,-155.067 "/>
<text text-anchor="middle" x="2389" y="-133.367" font-family="Times,serif" font-size="14.00">Data: DashboardTab</text>
</g>
<!-- 6 -->
<g id="node2" class="node"><title>6</title>
<polygon fill="gold" stroke="black" stroke-width="2" points="2285,-155.067 2125,-155.067 2121,-151.067 2121,-119.067 2281,-119.067 2285,-123.067 2285,-155.067"/>
<polyline fill="none" stroke="black" stroke-width="2" points="2281,-151.067 2121,-151.067 "/>
<polyline fill="none" stroke="black" stroke-width="2" points="2281,-151.067 2281,-119.067 "/>
<polyline fill="none" stroke="black" stroke-width="2" points="2281,-151.067 2285,-155.067 "/>
<text text-anchor="middle" x="2203" y="-133.367" font-family="Times,serif" font-size="14.00">Data: FActionError</text>
</g>
<!-- 12 -->
<g id="node3" class="node"><title>12</title>
<polygon fill="gold" stroke="black" stroke-width="2" points="2102.5,-155.067 1941.5,-155.067 1937.5,-151.067 1937.5,-119.067 2098.5,-119.067 2102.5,-123.067 2102.5,-155.067"/>
<polyline fill="none" stroke="black" stroke-width="2" points="2098.5,-151.067 1937.5,-151.067 "/>
<polyline fill="none" stroke="black" stroke-width="2" points="2098.5,-151.067 2098.5,-119.067 "/>
<polyline fill="none" stroke="black" stroke-width="2" points="2098.5,-151.067 2102.5,-155.067 "/>
<text text-anchor="middle" x="2020" y="-133.367" font-family="Times,serif" font-size="14.00">Data: FrontendMsg</text>
</g>
<!-- 14 -->
<g id="node4" class="node"><title>14</title>
<polygon fill="goldenrod" stroke="black" stroke-width="2" points="224.5,-56.1956 21.5,-56.1956 17.5,-52.1956 17.5,-20.1956 220.5,-20.1956 224.5,-24.1956 224.5,-56.1956"/>
<polyline fill="none" stroke="black" stroke-width="2" points="220.5,-52.1956 17.5,-52.1956 "/>
<polyline fill="none" stroke="black" stroke-width="2" points="220.5,-52.1956 220.5,-20.1956 "/>
<polyline fill="none" stroke="black" stroke-width="2" points="220.5,-52.1956 224.5,-56.1956 "/>
<text text-anchor="middle" x="121" y="-34.4956" font-family="Times,serif" font-size="14.00">Data: FrontendSessionData</text>
</g>
<!-- 15 -->
<g id="node5" class="node"><title>15</title>
<polygon fill="gold" stroke="black" stroke-width="2" points="1919.5,-155.067 1684.5,-155.067 1680.5,-151.067 1680.5,-119.067 1915.5,-119.067 1919.5,-123.067 1919.5,-155.067"/>
<polyline fill="none" stroke="black" stroke-width="2" points="1915.5,-151.067 1680.5,-151.067 "/>
<polyline fill="none" stroke="black" stroke-width="2" points="1915.5,-151.067 1915.5,-119.067 "/>
<polyline fill="none" stroke="black" stroke-width="2" points="1915.5,-151.067 1919.5,-155.067 "/>
<text text-anchor="middle" x="1800" y="-133.367" font-family="Times,serif" font-size="14.00">Data: FrontendSessionLoginData</text>
</g>
<!-- 16 -->
<g id="node6" class="node"><title>16</title>
<polygon fill="goldenrod" stroke="black" stroke-width="2" points="701.5,-155.067 514.5,-155.067 510.5,-151.067 510.5,-119.067 697.5,-119.067 701.5,-123.067 701.5,-155.067"/>
<polyline fill="none" stroke="black" stroke-width="2" points="697.5,-151.067 510.5,-151.067 "/>
<polyline fill="none" stroke="black" stroke-width="2" points="697.5,-151.067 697.5,-119.067 "/>
<polyline fill="none" stroke="black" stroke-width="2" points="697.5,-151.067 701.5,-155.067 "/>
<text text-anchor="middle" x="606" y="-133.367" font-family="Times,serif" font-size="14.00">Data: ServiceLoginState</text>
</g>
<!-- 27 -->
<g id="node7" class="node"><title>27</title>
<polygon fill="gold" stroke="black" stroke-width="2" points="225.5,-155.067 16.5,-155.067 16.5,-119.067 225.5,-119.067 225.5,-155.067"/>
<text text-anchor="middle" x="121" y="-133.367" font-family="Times,serif" font-size="14.00">emptyFrontendSessionData</text>
</g>
<!-- 27&#45;&gt;14 -->
<g id="edge2" class="edge"><title>27&#45;&gt;14</title>
<path fill="none" stroke="chartreuse" d="M121,-118.749C121,-104.284 121,-83.4001 121,-66.6586"/>
<polygon fill="chartreuse" stroke="chartreuse" points="124.5,-66.3644 121,-56.3644 117.5,-66.3645 124.5,-66.3644"/>
</g>
<!-- 40 -->
<g id="node8" class="node"><title>40</title>
<polygon fill="goldenrod" stroke="black" stroke-width="2" points="1395,-155.067 1271,-155.067 1271,-119.067 1395,-119.067 1395,-155.067"/>
<text text-anchor="middle" x="1333" y="-133.367" font-family="Times,serif" font-size="14.00">renderHTM</text>
</g>
<!-- 46 -->
<g id="node9" class="node"><title>46</title>
<polygon fill="khaki" stroke="black" stroke-dasharray="1,5" points="1658.86,-123.053 1658.86,-151.082 1588.06,-170.902 1487.94,-170.902 1417.14,-151.082 1417.14,-123.053 1487.94,-103.233 1588.06,-103.233 1658.86,-123.053"/>
<polygon fill="none" stroke="black" stroke-dasharray="1,5" points="1662.86,-120 1662.86,-154.135 1588.61,-174.921 1487.39,-174.921 1413.14,-154.135 1413.14,-120 1487.39,-99.2143 1588.61,-99.2143 1662.86,-120"/>
<text text-anchor="middle" x="1538" y="-140.867" font-family="Times,serif" font-size="14.00">Unknown Module</text>
<text text-anchor="middle" x="1538" y="-125.867" font-family="Times,serif" font-size="14.00">Class: Accept</text>
</g>
<!-- 25 -->
<g id="node13" class="node"><title>25</title>
<polygon fill="bisque" stroke="black" stroke-width="2" points="10742.5,-28.9201 10742.5,-47.4711 10632.7,-60.5887 10477.3,-60.5887 10367.5,-47.4711 10367.5,-28.9201 10477.3,-15.8026 10632.7,-15.8026 10742.5,-28.9201"/>
<text text-anchor="middle" x="10555" y="-34.4956" font-family="Times,serif" font-size="14.00">Class: Accept, Data: PrettyHTML</text>
</g>
<!-- 46&#45;&gt;25 -->
<g id="edge7" class="edge"><title>46&#45;&gt;25</title>
<path fill="none" stroke="navy" d="M1627.93,-110.152C1645.41,-105.683 1663.67,-101.728 1681,-99.3913 1800.57,-83.2673 10248.4,-107.103 10368,-91.3913 10413.2,-85.4529 10462.8,-72.166 10499.7,-60.4848"/>
</g>
<!-- 26 -->
<g id="node14" class="node"><title>26</title>
<polygon fill="cyan" stroke="black" stroke-width="2" points="11093.7,-28.9201 11093.7,-47.4711 10996,-60.5887 10858,-60.5887 10760.3,-47.4711 10760.3,-28.9201 10858,-15.8026 10996,-15.8026 11093.7,-28.9201"/>
<text text-anchor="middle" x="10927" y="-34.4956" font-family="Times,serif" font-size="14.00">Class: Accept, Data: TextCss</text>
</g>
<!-- 46&#45;&gt;26 -->
<g id="edge8" class="edge"><title>46&#45;&gt;26</title>
<path fill="none" stroke="navy" d="M1623.8,-108.963C1639.68,-104.986 1656.22,-101.518 1672,-99.3913 1796.98,-82.5404 10627.2,-109.66 10752,-91.3913 10792.6,-85.4437 10836.9,-72.1569 10870.8,-60.478"/>
</g>
<!-- 47 -->
<g id="node10" class="node"><title>47</title>
<polygon fill="khaki" stroke="black" stroke-dasharray="1,5" points="1248.66,-123.053 1248.66,-151.082 1173.29,-170.902 1066.71,-170.902 991.339,-151.082 991.339,-123.053 1066.71,-103.233 1173.29,-103.233 1248.66,-123.053"/>
<polygon fill="none" stroke="black" stroke-dasharray="1,5" points="1252.66,-119.951 1252.66,-154.184 1173.81,-174.921 1066.19,-174.921 987.337,-154.184 987.337,-119.951 1066.19,-99.2143 1173.81,-99.2143 1252.66,-119.951"/>
<text text-anchor="middle" x="1120" y="-140.867" font-family="Times,serif" font-size="14.00">Unknown Module</text>
<text text-anchor="middle" x="1120" y="-125.867" font-family="Times,serif" font-size="14.00">Class: MimeRender</text>
</g>
<!-- 28 -->
<g id="node15" class="node"><title>28</title>
<polygon fill="bisque" stroke="black" stroke-width="2" points="9887.59,-28.9201 9887.59,-47.4711 9747.83,-60.5887 9550.17,-60.5887 9410.41,-47.4711 9410.41,-28.9201 9550.17,-15.8026 9747.83,-15.8026 9887.59,-28.9201"/>
<text text-anchor="middle" x="9649" y="-34.4956" font-family="Times,serif" font-size="14.00">Class: MimeRender, Data: PrettyHTML Html</text>
</g>
<!-- 47&#45;&gt;28 -->
<g id="edge9" class="edge"><title>47&#45;&gt;28</title>
<path fill="none" stroke="navy" d="M1211,-108.961C1227.82,-104.985 1245.33,-101.518 1262,-99.3913 1374.13,-85.088 9288.57,-103.15 9401,-91.3913 9457.78,-85.4528 9520.71,-72.1258 9568.97,-60.4254"/>
</g>
<!-- 29 -->
<g id="node16" class="node"><title>29</title>
<polygon fill="bisque" stroke="black" stroke-width="2" points="10349.9,-28.9201 10349.9,-47.4711 10219.9,-60.5887 10036.1,-60.5887 9906.09,-47.4711 9906.09,-28.9201 10036.1,-15.8026 10219.9,-15.8026 10349.9,-28.9201"/>
<text text-anchor="middle" x="10128" y="-34.4956" font-family="Times,serif" font-size="14.00">Class: MimeRender, Data: PrettyHTML a</text>
</g>
<!-- 47&#45;&gt;29 -->
<g id="edge10" class="edge"><title>47&#45;&gt;29</title>
<path fill="none" stroke="navy" d="M1211,-108.961C1227.82,-104.985 1245.33,-101.517 1262,-99.3913 1380.97,-84.2197 9777.82,-104.745 9897,-91.3913 9950.02,-85.4514 10008.6,-72.1245 10053.6,-60.4244"/>
</g>
<!-- 30 -->
<g id="node17" class="node"><title>30</title>
<polygon fill="cyan" stroke="black" stroke-width="2" points="7612.14,-28.9201 7612.14,-47.4711 7486.11,-60.5887 7307.89,-60.5887 7181.86,-47.4711 7181.86,-28.9201 7307.89,-15.8026 7486.11,-15.8026 7612.14,-28.9201"/>
<text text-anchor="middle" x="7397" y="-34.4956" font-family="Times,serif" font-size="14.00">Class: MimeRender, Data: TextCss LBS</text>
</g>
<!-- 47&#45;&gt;30 -->
<g id="edge11" class="edge"><title>47&#45;&gt;30</title>
<path fill="none" stroke="navy" d="M1211.01,-108.967C1227.82,-104.99 1245.33,-101.521 1262,-99.3913 1424.87,-78.5854 7009.89,-110.255 7173,-91.3913 7224.47,-85.4389 7281.31,-72.1121 7324.85,-60.4152"/>
</g>
<!-- 31 -->
<g id="node18" class="node"><title>31</title>
<polygon fill="cyan" stroke="black" stroke-width="2" points="8047.89,-28.9201 8047.89,-47.4711 7925.53,-60.5887 7752.47,-60.5887 7630.11,-47.4711 7630.11,-28.9201 7752.47,-15.8026 7925.53,-15.8026 8047.89,-28.9201"/>
<text text-anchor="middle" x="7839" y="-34.4956" font-family="Times,serif" font-size="14.00">Class: MimeRender, Data: TextCss LT</text>
</g>
<!-- 47&#45;&gt;31 -->
<g id="edge12" class="edge"><title>47&#45;&gt;31</title>
<path fill="none" stroke="navy" d="M1211,-108.965C1227.82,-104.989 1245.33,-101.52 1262,-99.3913 1437.22,-77.0169 7445.59,-112.209 7621,-91.3913 7671.05,-85.4516 7726.24,-72.1646 7768.58,-60.4838"/>
</g>
<!-- 32 -->
<g id="node19" class="node"><title>32</title>
<polygon fill="cyan" stroke="black" stroke-width="2" points="8496.14,-28.9201 8496.14,-47.4711 8370.11,-60.5887 8191.89,-60.5887 8065.86,-47.4711 8065.86,-28.9201 8191.89,-15.8026 8370.11,-15.8026 8496.14,-28.9201"/>
<text text-anchor="middle" x="8281" y="-34.4956" font-family="Times,serif" font-size="14.00">Class: MimeRender, Data: TextCss SBS</text>
</g>
<!-- 47&#45;&gt;32 -->
<g id="edge13" class="edge"><title>47&#45;&gt;32</title>
<path fill="none" stroke="navy" d="M1211,-108.964C1227.82,-104.988 1245.33,-101.519 1262,-99.3913 1355.62,-87.4408 7963.25,-102.226 8057,-91.3913 8108.47,-85.4434 8165.31,-72.1166 8208.85,-60.4186"/>
</g>
<!-- 33 -->
<g id="node20" class="node"><title>33</title>
<polygon fill="cyan" stroke="black" stroke-width="2" points="8930.36,-28.9201 8930.36,-47.4711 8808.31,-60.5887 8635.69,-60.5887 8513.64,-47.4711 8513.64,-28.9201 8635.69,-15.8026 8808.31,-15.8026 8930.36,-28.9201"/>
<text text-anchor="middle" x="8722" y="-34.4956" font-family="Times,serif" font-size="14.00">Class: MimeRender, Data: TextCss ST</text>
</g>
<!-- 47&#45;&gt;33 -->
<g id="edge14" class="edge"><title>47&#45;&gt;33</title>
<path fill="none" stroke="navy" d="M1211,-108.963C1227.82,-104.987 1245.33,-101.519 1262,-99.3913 1361.79,-86.6566 8405.11,-103.292 8505,-91.3913 8554.83,-85.4552 8609.77,-72.1682 8651.91,-60.4864"/>
</g>
<!-- 34 -->
<g id="node21" class="node"><title>34</title>
<polygon fill="cyan" stroke="black" stroke-width="2" points="9391.91,-28.9201 9391.91,-47.4711 9261.92,-60.5887 9078.08,-60.5887 8948.09,-47.4711 8948.09,-28.9201 9078.08,-15.8026 9261.92,-15.8026 9391.91,-28.9201"/>
<text text-anchor="middle" x="9170" y="-34.4956" font-family="Times,serif" font-size="14.00">Class: MimeRender, Data: TextCss String</text>
</g>
<!-- 47&#45;&gt;34 -->
<g id="edge15" class="edge"><title>47&#45;&gt;34</title>
<path fill="none" stroke="navy" d="M1211,-108.962C1227.82,-104.986 1245.33,-101.518 1262,-99.3913 1367.77,-85.8968 8833.04,-103.269 8939,-91.3913 8992.01,-85.4484 9050.63,-72.1215 9095.55,-60.4221"/>
</g>
<!-- 48 -->
<g id="node11" class="node"><title>48</title>
<polygon fill="khaki" stroke="black" stroke-dasharray="1,5" points="964.858,-123.053 964.858,-151.082 894.061,-170.902 793.939,-170.902 723.142,-151.082 723.142,-123.053 793.939,-103.233 894.061,-103.233 964.858,-123.053"/>
<polygon fill="none" stroke="black" stroke-dasharray="1,5" points="968.856,-120 968.856,-154.135 894.607,-174.921 793.393,-174.921 719.144,-154.135 719.144,-120 793.393,-99.2143 894.607,-99.2143 968.856,-120"/>
<text text-anchor="middle" x="844" y="-140.867" font-family="Times,serif" font-size="14.00">Unknown Module</text>
<text text-anchor="middle" x="844" y="-125.867" font-family="Times,serif" font-size="14.00">Class: FromJSON</text>
</g>
<!-- 35 -->
<g id="node22" class="node"><title>35</title>
<polygon fill="cyan" stroke="black" stroke-width="2" points="5682.54,-28.9201 5682.54,-47.4711 5558.04,-60.5887 5381.96,-60.5887 5257.46,-47.4711 5257.46,-28.9201 5381.96,-15.8026 5558.04,-15.8026 5682.54,-28.9201"/>
<text text-anchor="middle" x="5470" y="-34.4956" font-family="Times,serif" font-size="14.00">Class: FromJSON, Data: DashboardTab</text>
</g>
<!-- 48&#45;&gt;35 -->
<g id="edge16" class="edge"><title>48&#45;&gt;35</title>
<path fill="none" stroke="navy" d="M929.804,-108.976C945.677,-104.998 962.225,-101.526 978,-99.3913 1095.54,-83.4842 5130.19,-105.166 5248,-91.3913 5299.02,-85.4253 5355.35,-72.0987 5398.5,-60.4053"/>
</g>
<!-- 36 -->
<g id="node23" class="node"><title>36</title>
<polygon fill="cyan" stroke="black" stroke-width="2" points="7164.36,-28.9201 7164.36,-47.4711 7042.31,-60.5887 6869.69,-60.5887 6747.64,-47.4711 6747.64,-28.9201 6869.69,-15.8026 7042.31,-15.8026 7164.36,-28.9201"/>
<text text-anchor="middle" x="6956" y="-34.4956" font-family="Times,serif" font-size="14.00">Class: FromJSON, Data: FrontendMsg</text>
</g>
<!-- 48&#45;&gt;36 -->
<g id="edge17" class="edge"><title>48&#45;&gt;36</title>
<path fill="none" stroke="navy" d="M929.803,-108.969C945.676,-104.992 962.224,-101.522 978,-99.3913 1136.56,-77.9719 6579.12,-110.259 6738,-91.3913 6788.05,-85.4483 6843.24,-72.1614 6885.58,-60.4814"/>
</g>
<!-- 37 -->
<g id="node24" class="node"><title>37</title>
<polygon fill="cyan" stroke="black" stroke-width="2" points="6729.15,-28.9201 6729.15,-47.4711 6588.47,-60.5887 6389.53,-60.5887 6248.85,-47.4711 6248.85,-28.9201 6389.53,-15.8026 6588.47,-15.8026 6729.15,-28.9201"/>
<text text-anchor="middle" x="6489" y="-34.4956" font-family="Times,serif" font-size="14.00">Class: FromJSON, Data: FrontendSessionData</text>
</g>
<!-- 48&#45;&gt;37 -->
<g id="edge18" class="edge"><title>48&#45;&gt;37</title>
<path fill="none" stroke="navy" d="M929.803,-108.971C945.677,-104.994 962.225,-101.523 978,-99.3913 1122.85,-79.8142 6094.62,-106.576 6240,-91.3913 6297,-85.4376 6360.18,-72.1109 6408.64,-60.4143"/>
</g>
<!-- 38 -->
<g id="node25" class="node"><title>38</title>
<polygon fill="cyan" stroke="black" stroke-width="2" points="6230.63,-28.9201 6230.63,-47.4711 6075.61,-60.5887 5856.39,-60.5887 5701.37,-47.4711 5701.37,-28.9201 5856.39,-15.8026 6075.61,-15.8026 6230.63,-28.9201"/>
<text text-anchor="middle" x="5966" y="-34.4956" font-family="Times,serif" font-size="14.00">Class: FromJSON, Data: FrontendSessionLoginData</text>
</g>
<!-- 48&#45;&gt;38 -->
<g id="edge19" class="edge"><title>48&#45;&gt;38</title>
<path fill="none" stroke="navy" d="M929.804,-108.973C945.677,-104.996 962.225,-101.525 978,-99.3913 1107.76,-81.8416 5561.65,-103.808 5692,-91.3913 5754.55,-85.4333 5824.08,-72.1066 5877.45,-60.4111"/>
</g>
<!-- 39 -->
<g id="node26" class="node"><title>39</title>
<polygon fill="bisque" stroke="black" stroke-width="2" points="5239.16,-28.9201 5239.16,-47.4711 5105.51,-60.5887 4916.49,-60.5887 4782.84,-47.4711 4782.84,-28.9201 4916.49,-15.8026 5105.51,-15.8026 5239.16,-28.9201"/>
<text text-anchor="middle" x="5011" y="-34.4956" font-family="Times,serif" font-size="14.00">Class: FromJSON, Data: ServiceLoginState</text>
</g>
<!-- 48&#45;&gt;39 -->
<g id="edge20" class="edge"><title>48&#45;&gt;39</title>
<path fill="none" stroke="navy" d="M929.804,-108.979C945.678,-105.001 962.225,-101.528 978,-99.3913 1082.49,-85.2377 4669.19,-102.908 4774,-91.3913 4828.34,-85.4205 4888.48,-72.094 4934.58,-60.4018"/>
</g>
<!-- 49 -->
<g id="node12" class="node"><title>49</title>
<polygon fill="khaki" stroke="black" stroke-dasharray="1,5" points="488.858,-123.053 488.858,-151.082 418.061,-170.902 317.939,-170.902 247.142,-151.082 247.142,-123.053 317.939,-103.233 418.061,-103.233 488.858,-123.053"/>
<polygon fill="none" stroke="black" stroke-dasharray="1,5" points="492.856,-120 492.856,-154.135 418.607,-174.921 317.393,-174.921 243.144,-154.135 243.144,-120 317.393,-99.2143 418.607,-99.2143 492.856,-120"/>
<text text-anchor="middle" x="368" y="-140.867" font-family="Times,serif" font-size="14.00">Unknown Module</text>
<text text-anchor="middle" x="368" y="-125.867" font-family="Times,serif" font-size="14.00">Class: ToJSON</text>
</g>
<!-- 41 -->
<g id="node27" class="node"><title>41</title>
<polygon fill="cyan" stroke="black" stroke-width="2" points="4313.08,-28.9201 4313.08,-47.4711 4195.29,-60.5887 4028.71,-60.5887 3910.92,-47.4711 3910.92,-28.9201 4028.71,-15.8026 4195.29,-15.8026 4313.08,-28.9201"/>
<text text-anchor="middle" x="4112" y="-34.4956" font-family="Times,serif" font-size="14.00">Class: ToJSON, Data: DashboardTab</text>
</g>
<!-- 49&#45;&gt;41 -->
<g id="edge21" class="edge"><title>49&#45;&gt;41</title>
<path fill="none" stroke="navy" d="M453.512,-108.892C469.159,-104.951 485.456,-101.514 501,-99.3913 594.604,-86.6095 3808.24,-102.981 3902,-91.3913 3950.28,-85.4232 4003.45,-72.1366 4044.21,-60.463"/>
</g>
<!-- 42 -->
<g id="node28" class="node"><title>42</title>
<polygon fill="cyan" stroke="black" stroke-width="2" points="3892.9,-28.9201 3892.9,-47.4711 3777.56,-60.5887 3614.44,-60.5887 3499.1,-47.4711 3499.1,-28.9201 3614.44,-15.8026 3777.56,-15.8026 3892.9,-28.9201"/>
<text text-anchor="middle" x="3696" y="-34.4956" font-family="Times,serif" font-size="14.00">Class: ToJSON, Data: FrontendMsg</text>
</g>
<!-- 49&#45;&gt;42 -->
<g id="edge22" class="edge"><title>49&#45;&gt;42</title>
<path fill="none" stroke="navy" d="M453.513,-108.896C469.159,-104.955 485.456,-101.516 501,-99.3913 665.526,-76.8978 3325.25,-112.163 3490,-91.3913 3537.4,-85.4149 3589.56,-72.1284 3629.53,-60.4569"/>
</g>
<!-- 43 -->
<g id="node29" class="node"><title>43</title>
<polygon fill="cyan" stroke="black" stroke-width="2" points="3480.69,-28.9201 3480.69,-47.4711 3346.73,-60.5887 3157.27,-60.5887 3023.31,-47.4711 3023.31,-28.9201 3157.27,-15.8026 3346.73,-15.8026 3480.69,-28.9201"/>
<text text-anchor="middle" x="3252" y="-34.4956" font-family="Times,serif" font-size="14.00">Class: ToJSON, Data: FrontendSessionData</text>
</g>
<!-- 49&#45;&gt;43 -->
<g id="edge23" class="edge"><title>49&#45;&gt;43</title>
<path fill="none" stroke="navy" d="M453.514,-108.902C469.16,-104.961 485.456,-101.52 501,-99.3913 639.32,-80.4448 2875.22,-106.653 3014,-91.3913 3068.45,-85.4028 3128.72,-72.1164 3174.98,-60.448"/>
</g>
<!-- 44 -->
<g id="node30" class="node"><title>44</title>
<polygon fill="cyan" stroke="black" stroke-width="2" points="3005.17,-28.9201 3005.17,-47.4711 2856.87,-60.5887 2647.13,-60.5887 2498.83,-47.4711 2498.83,-28.9201 2647.13,-15.8026 2856.87,-15.8026 3005.17,-28.9201"/>
<text text-anchor="middle" x="2752" y="-34.4956" font-family="Times,serif" font-size="14.00">Class: ToJSON, Data: FrontendSessionLoginData</text>
</g>
<!-- 49&#45;&gt;44 -->
<g id="edge24" class="edge"><title>49&#45;&gt;44</title>
<path fill="none" stroke="navy" d="M453.515,-108.913C469.162,-104.971 485.457,-101.527 501,-99.3913 610.307,-84.3718 2377.21,-102.324 2487,-91.3913 2547.42,-85.3742 2614.53,-72.0882 2666.09,-60.4271"/>
</g>
<!-- 45 -->
<g id="node31" class="node"><title>45</title>
<polygon fill="bisque" stroke="black" stroke-width="2" points="4764.7,-28.9201 4764.7,-47.4711 4637.76,-60.5887 4458.24,-60.5887 4331.3,-47.4711 4331.3,-28.9201 4458.24,-15.8026 4637.76,-15.8026 4764.7,-28.9201"/>
<text text-anchor="middle" x="4548" y="-34.4956" font-family="Times,serif" font-size="14.00">Class: ToJSON, Data: ServiceLoginState</text>
</g>
<!-- 49&#45;&gt;45 -->
<g id="edge25" class="edge"><title>49&#45;&gt;45</title>
<path fill="none" stroke="navy" d="M453.512,-108.888C469.158,-104.948 485.455,-101.512 501,-99.3913 606.165,-85.0446 4216.56,-103.521 4322,-91.3913 4373.91,-85.4201 4431.25,-72.0936 4475.19,-60.4015"/>
</g>
<!-- 25&#45;&gt;46 -->
<g id="edge1" class="edge"><title>25&#45;&gt;46</title>
<path fill="none" stroke="chartreuse" d="M10484,-60.4848C10444.8,-72.166 10395.2,-85.4529 10350,-91.3913 10230.4,-107.103 1782.57,-83.2673 1663,-99.3913 1652,-100.875 1640.62,-103.01 1629.42,-105.515"/>
<polygon fill="chartreuse" stroke="chartreuse" points="1628.56,-102.119 1619.62,-107.804 1630.16,-108.936 1628.56,-102.119"/>
</g>
<!-- 28&#45;&gt;40 -->
<g id="edge3" class="edge"><title>28&#45;&gt;40</title>
<path fill="none" stroke="black" d="M9568.97,-60.425C9520.71,-72.1253 9457.78,-85.4523 9401,-91.3913 9345.77,-97.1686 1457.96,-86.2495 1404,-99.3913 1391.57,-102.418 1378.89,-108.021 1367.75,-113.952"/>
<polygon fill="black" stroke="black" points="1365.81,-111.027 1358.79,-118.962 1369.22,-117.136 1365.81,-111.027"/>
</g>
<!-- 29&#45;&gt;40 -->
<g id="edge4" class="edge"><title>29&#45;&gt;40</title>
<path fill="none" stroke="black" d="M10053.6,-60.4241C10008.6,-72.1241 9950.02,-85.451 9897,-91.3913 9838.39,-97.9587 1461.3,-85.4361 1404,-99.3913 1391.57,-102.418 1378.89,-108.02 1367.74,-113.951"/>
<polygon fill="black" stroke="black" points="1365.81,-111.026 1358.79,-118.962 1369.22,-117.136 1365.81,-111.026"/>
</g>
<!-- 39&#45;&gt;16 -->
<g id="edge5" class="edge"><title>39&#45;&gt;16</title>
<path fill="none" stroke="black" d="M4934.58,-60.4046C4888.48,-72.0977 4828.34,-85.4243 4774,-91.3913 4661.79,-103.714 821.252,-80.2364 710,-99.3913 691.389,-102.596 671.679,-108.776 654.481,-115.163"/>
<polygon fill="black" stroke="black" points="652.755,-112.076 644.672,-118.926 655.263,-118.612 652.755,-112.076"/>
</g>
<!-- 45&#45;&gt;16 -->
<g id="edge6" class="edge"><title>45&#45;&gt;16</title>
<path fill="none" stroke="black" d="M4475.19,-60.3992C4431.25,-72.0905 4373.91,-85.4169 4322,-91.3913 4222.32,-102.864 808.877,-82.3547 710,-99.3913 691.389,-102.598 671.68,-108.779 654.481,-115.166"/>
<polygon fill="black" stroke="black" points="652.755,-112.079 644.673,-118.929 655.263,-118.614 652.755,-112.079"/>
</g>
</g>
</svg>
