<?xml version="1.0" encoding="UTF-8" standalone="no"?>
<!DOCTYPE svg PUBLIC "-//W3C//DTD SVG 1.1//EN"
 "http://www.w3.org/Graphics/SVG/1.1/DTD/svg11.dtd">
<!-- Generated by graphviz version 2.38.0 (20140413.2041)
 -->
<!-- Title: Levels within Thentos.Smtp Pages: 1 -->
<svg width="212pt" height="243pt"
 viewBox="0.00 0.00 212.00 243.00" xmlns="http://www.w3.org/2000/svg" xmlns:xlink="http://www.w3.org/1999/xlink">
<g id="graph0" class="graph" transform="scale(1 1) rotate(0) translate(4 239)">
<title>Levels within Thentos.Smtp</title>
<polygon fill="white" stroke="none" points="-4,4 -4,-239 208,-239 208,4 -4,4"/>
<g id="clust1" class="cluster"><title>cluster_0</title>
<polygon fill="lavender" stroke="black" points="8,-8 8,-227 196,-227 196,-8 8,-8"/>
<text text-anchor="middle" x="102" y="-211.8" font-family="Times,serif" font-size="14.00">Exported root entities</text>
</g>
<!-- 1 -->
<g id="node1" class="node"><title>1</title>
<polygon fill="goldenrod" stroke="black" stroke-width="2" points="188,-52 20,-52 16,-48 16,-16 184,-16 188,-20 188,-52"/>
<polyline fill="none" stroke="black" stroke-width="2" points="184,-48 16,-48 "/>
<polyline fill="none" stroke="black" stroke-width="2" points="184,-48 184,-16 "/>
<polyline fill="none" stroke="black" stroke-width="2" points="184,-48 188,-52 "/>
<text text-anchor="middle" x="102" y="-30.3" font-family="Times,serif" font-size="14.00">Data: SendmailError</text>
</g>
<!-- 2 -->
<g id="node2" class="node"><title>2</title>
<polygon fill="gold" stroke="black" stroke-width="2" points="173,-196 31,-196 31,-160 173,-160 173,-196"/>
<text text-anchor="middle" x="102" y="-174.3" font-family="Times,serif" font-size="14.00">checkSendmail</text>
</g>
<!-- 3 -->
<g id="node3" class="node"><title>3</title>
<polygon fill="goldenrod" stroke="black" stroke-width="2" points="157,-124 47,-124 47,-88 157,-88 157,-124"/>
<text text-anchor="middle" x="102" y="-102.3" font-family="Times,serif" font-size="14.00">sendMail</text>
</g>
<!-- 2&#45;&gt;3 -->
<g id="edge1" class="edge"><title>2&#45;&gt;3</title>
<path fill="none" stroke="chartreuse" d="M102,-159.697C102,-151.983 102,-142.712 102,-134.112"/>
<polygon fill="chartreuse" stroke="chartreuse" points="105.5,-134.104 102,-124.104 98.5001,-134.104 105.5,-134.104"/>
</g>
<!-- 3&#45;&gt;1 -->
<g id="edge2" class="edge"><title>3&#45;&gt;1</title>
<path fill="none" stroke="chartreuse" d="M102,-87.6966C102,-79.9827 102,-70.7125 102,-62.1124"/>
<polygon fill="chartreuse" stroke="chartreuse" points="105.5,-62.1043 102,-52.1043 98.5001,-62.1044 105.5,-62.1043"/>
</g>
</g>
</svg>
