<?xml version="1.0" encoding="UTF-8" standalone="no"?>
<!DOCTYPE svg PUBLIC "-//W3C//DTD SVG 1.1//EN"
 "http://www.w3.org/Graphics/SVG/1.1/DTD/svg11.dtd">
<!-- Generated by graphviz version 2.38.0 (20140413.2041)
 -->
<!-- Title: Levels within Thentos.Frontend.State Pages: 1 -->
<svg width="732pt" height="315pt"
 viewBox="0.00 0.00 732.00 315.00" xmlns="http://www.w3.org/2000/svg" xmlns:xlink="http://www.w3.org/1999/xlink">
<g id="graph0" class="graph" transform="scale(1 1) rotate(0) translate(4 311)">
<title>Levels within Thentos.Frontend.State</title>
<polygon fill="white" stroke="none" points="-4,4 -4,-311 728,-311 728,4 -4,4"/>
<g id="clust1" class="cluster"><title>cluster_0</title>
<polygon fill="lavender" stroke="black" points="8,-8 8,-299 716,-299 716,-8 8,-8"/>
<text text-anchor="middle" x="362" y="-283.8" font-family="Times,serif" font-size="14.00">Exported root entities</text>
</g>
<!-- 1 -->
<g id="node1" class="node"><title>1</title>
<polygon fill="goldenrod" stroke="black" stroke-width="2" points="189.5,-124 16.5,-124 16.5,-88 189.5,-88 189.5,-124"/>
<text text-anchor="middle" x="103" y="-102.3" font-family="Times,serif" font-size="14.00">cookieFromFSession</text>
</g>
<!-- 2 -->
<g id="node2" class="node"><title>2</title>
<polygon fill="goldenrod" stroke="black" stroke-width="2" points="688,-124 560,-124 560,-88 688,-88 688,-124"/>
<text text-anchor="middle" x="624" y="-102.3" font-family="Times,serif" font-size="14.00">cookieName</text>
</g>
<!-- 3 -->
<g id="node3" class="node"><title>3</title>
<polygon fill="goldenrod" stroke="black" stroke-width="2" points="576,-52 418,-52 418,-16 576,-16 576,-52"/>
<text text-anchor="middle" x="497" y="-30.3" font-family="Times,serif" font-size="14.00">cookieNameValid</text>
</g>
<!-- 2&#45;&gt;3 -->
<g id="edge1" class="edge"><title>2&#45;&gt;3</title>
<path fill="none" stroke="black" d="M592.932,-87.8761C576.173,-78.6388 555.294,-67.1308 537.298,-57.2116"/>
<polygon fill="black" stroke="black" points="538.634,-53.9517 528.187,-52.1898 535.255,-60.0822 538.634,-53.9517"/>
</g>
<!-- 10 -->
<g id="node10" class="node"><title>10</title>
<polygon fill="goldenrod" stroke="black" stroke-width="2" points="707.5,-52 594.5,-52 594.5,-16 707.5,-16 707.5,-52"/>
<text text-anchor="middle" x="651" y="-30.3" font-family="Times,serif" font-size="14.00">setCookie</text>
</g>
<!-- 2&#45;&gt;10 -->
<g id="edge2" class="edge"><title>2&#45;&gt;10</title>
<path fill="none" stroke="black" d="M630.674,-87.6966C633.715,-79.8132 637.383,-70.3042 640.761,-61.5464"/>
<polygon fill="black" stroke="black" points="644.069,-62.6939 644.403,-52.1043 637.538,-60.1748 644.069,-62.6939"/>
</g>
<!-- 4 -->
<g id="node4" class="node"><title>4</title>
<polygon fill="goldenrod" stroke="black" stroke-width="2" points="366,-124 208,-124 208,-88 366,-88 366,-124"/>
<text text-anchor="middle" x="287" y="-102.3" font-family="Times,serif" font-size="14.00">cookieToFSession</text>
</g>
<!-- 5 -->
<g id="node5" class="node"><title>5</title>
<polygon fill="gold" stroke="black" stroke-width="2" points="701.5,-268 614.5,-268 614.5,-232 701.5,-232 701.5,-268"/>
<text text-anchor="middle" x="658" y="-246.3" font-family="Times,serif" font-size="14.00">crash</text>
</g>
<!-- 6 -->
<g id="node6" class="node"><title>6</title>
<polygon fill="goldenrod" stroke="black" stroke-width="2" points="357,-196 227,-196 227,-160 357,-160 357,-196"/>
<text text-anchor="middle" x="292" y="-174.3" font-family="Times,serif" font-size="14.00">enterFAction</text>
</g>
<!-- 6&#45;&gt;1 -->
<g id="edge3" class="edge"><title>6&#45;&gt;1</title>
<path fill="none" stroke="black" d="M245.765,-159.876C219.469,-150.137 186.356,-137.872 158.642,-127.608"/>
<polygon fill="black" stroke="black" points="159.678,-124.259 149.084,-124.068 157.246,-130.824 159.678,-124.259"/>
</g>
<!-- 6&#45;&gt;4 -->
<g id="edge4" class="edge"><title>6&#45;&gt;4</title>
<path fill="none" stroke="black" d="M290.764,-159.697C290.213,-151.983 289.551,-142.712 288.937,-134.112"/>
<polygon fill="black" stroke="black" points="292.425,-133.83 288.222,-124.104 285.443,-134.328 292.425,-133.83"/>
</g>
<!-- 7 -->
<g id="node7" class="node"><title>7</title>
<polygon fill="goldenrod" stroke="black" stroke-width="2" points="542,-124 384,-124 384,-88 542,-88 542,-124"/>
<text text-anchor="middle" x="463" y="-102.3" font-family="Times,serif" font-size="14.00">fActionServantErr</text>
</g>
<!-- 6&#45;&gt;7 -->
<g id="edge5" class="edge"><title>6&#45;&gt;7</title>
<path fill="none" stroke="black" d="M333.831,-159.876C357.416,-150.222 387.06,-138.087 411.999,-127.878"/>
<polygon fill="black" stroke="black" points="413.376,-131.096 421.305,-124.068 410.724,-124.618 413.376,-131.096"/>
</g>
<!-- 8 -->
<g id="node8" class="node"><title>8</title>
<polygon fill="gold" stroke="black" stroke-width="2" points="574,-268 430,-268 430,-232 574,-232 574,-268"/>
<text text-anchor="middle" x="502" y="-246.3" font-family="Times,serif" font-size="14.00">getFrontendCfg</text>
</g>
<!-- 9 -->
<g id="node9" class="node"><title>9</title>
<polygon fill="gold" stroke="black" stroke-width="2" points="368.5,-268 237.5,-268 237.5,-232 368.5,-232 368.5,-268"/>
<text text-anchor="middle" x="303" y="-246.3" font-family="Times,serif" font-size="14.00">serveFAction</text>
</g>
<!-- 9&#45;&gt;6 -->
<g id="edge6" class="edge"><title>9&#45;&gt;6</title>
<path fill="none" stroke="black" d="M300.281,-231.697C299.069,-223.983 297.612,-214.712 296.261,-206.112"/>
<polygon fill="black" stroke="black" points="299.698,-205.44 294.688,-196.104 292.783,-206.526 299.698,-205.44"/>
</g>
<!-- 11 -->
<g id="node11" class="node"><title>11</title>
<polygon fill="goldenrod" stroke="black" stroke-width="2" points="708.5,-196 503.5,-196 503.5,-160 708.5,-160 708.5,-196"/>
<text text-anchor="middle" x="606" y="-174.3" font-family="Times,serif" font-size="14.00">thentosSessionMiddleware</text>
</g>
<!-- 9&#45;&gt;11 -->
<g id="edge7" class="edge"><title>9&#45;&gt;11</title>
<path fill="none" stroke="black" d="M368.746,-233.811C413.852,-223.391 474.077,-209.477 522.562,-198.276"/>
<polygon fill="black" stroke="black" points="523.452,-201.663 532.407,-196.002 521.876,-194.842 523.452,-201.663"/>
</g>
<!-- 11&#45;&gt;2 -->
<g id="edge8" class="edge"><title>11&#45;&gt;2</title>
<path fill="none" stroke="black" d="M610.449,-159.697C612.455,-151.898 614.869,-142.509 617.101,-133.829"/>
<polygon fill="black" stroke="black" points="620.501,-134.661 619.602,-124.104 613.722,-132.918 620.501,-134.661"/>
</g>
<!-- 11&#45;&gt;10 -->
<g id="edge9" class="edge"><title>11&#45;&gt;10</title>
<path fill="none" stroke="black" d="M655.562,-159.846C671.692,-151.636 687.798,-140.009 697,-124 704.974,-110.128 702.597,-102.989 697,-88 693.124,-77.6206 686.197,-67.9274 678.876,-59.7427"/>
<polygon fill="black" stroke="black" points="681.269,-57.1816 671.823,-52.3845 676.216,-62.0256 681.269,-57.1816"/>
</g>
</g>
</svg>
