<?xml version="1.0" encoding="UTF-8" standalone="no"?>
<!DOCTYPE svg PUBLIC "-//W3C//DTD SVG 1.1//EN"
 "http://www.w3.org/Graphics/SVG/1.1/DTD/svg11.dtd">
<!-- Generated by graphviz version 2.38.0 (20140413.2041)
 -->
<!-- Title: Core of Thentos.Backend.Api.Docs.Common Pages: 1 -->
<svg width="1647pt" height="250pt"
 viewBox="0.00 0.00 1647.00 249.74" xmlns="http://www.w3.org/2000/svg" xmlns:xlink="http://www.w3.org/1999/xlink">
<g id="graph0" class="graph" transform="scale(1 1) rotate(0) translate(4 245.744)">
<title>Core of Thentos.Backend.Api.Docs.Common</title>
<polygon fill="white" stroke="none" points="-4,4 -4,-245.744 1643,-245.744 1643,4 -4,4"/>
<g id="clust1" class="cluster"><title>cluster_Class_HasDocs</title>
<path fill="#ffc1c1" stroke="black" d="M20,-8C20,-8 732,-8 732,-8 738,-8 744,-14 744,-20 744,-20 744,-221.744 744,-221.744 744,-227.744 738,-233.744 732,-233.744 732,-233.744 20,-233.744 20,-233.744 14,-233.744 8,-227.744 8,-221.744 8,-221.744 8,-20 8,-20 8,-14 14,-8 20,-8"/>
<text text-anchor="middle" x="376" y="-218.544" font-family="Times,serif" font-size="14.00">Class: HasDocs</text>
</g>
<g id="clust2" class="cluster"><title>cluster_Class_HasDocs_Data_Post200ctsa</title>
<path fill="#c6e2ff" stroke="black" d="M576,-119.352C576,-119.352 724,-119.352 724,-119.352 730,-119.352 736,-125.352 736,-131.352 736,-131.352 736,-190.744 736,-190.744 736,-196.744 730,-202.744 724,-202.744 724,-202.744 576,-202.744 576,-202.744 570,-202.744 564,-196.744 564,-190.744 564,-190.744 564,-131.352 564,-131.352 564,-125.352 570,-119.352 576,-119.352"/>
<text text-anchor="middle" x="650" y="-187.544" font-family="Times,serif" font-size="14.00">Instance for: (Post200 cts a)</text>
</g>
<g id="clust3" class="cluster"><title>cluster_Class_HasDocs_Data_ThentosAssertHeaderssublayout</title>
<path fill="#c6e2ff" stroke="black" d="M276,-119.352C276,-119.352 544,-119.352 544,-119.352 550,-119.352 556,-125.352 556,-131.352 556,-131.352 556,-190.744 556,-190.744 556,-196.744 550,-202.744 544,-202.744 544,-202.744 276,-202.744 276,-202.744 270,-202.744 264,-196.744 264,-190.744 264,-190.744 264,-131.352 264,-131.352 264,-125.352 270,-119.352 276,-119.352"/>
<text text-anchor="middle" x="410" y="-187.544" font-family="Times,serif" font-size="14.00">Instance for: (ThentosAssertHeaders :&gt; sublayout)</text>
</g>
<g id="clust4" class="cluster"><title>cluster_Class_HasDocs_Data_ThentosAuthsublayout</title>
<path fill="#c6e2ff" stroke="black" d="M28,-119.352C28,-119.352 244,-119.352 244,-119.352 250,-119.352 256,-125.352 256,-131.352 256,-131.352 256,-190.744 256,-190.744 256,-196.744 250,-202.744 244,-202.744 244,-202.744 28,-202.744 28,-202.744 22,-202.744 16,-196.744 16,-190.744 16,-190.744 16,-131.352 16,-131.352 16,-125.352 22,-119.352 28,-119.352"/>
<text text-anchor="middle" x="136" y="-187.544" font-family="Times,serif" font-size="14.00">Instance for: (ThentosAuth :&gt; sublayout)</text>
</g>
<g id="clust5" class="cluster"><title>cluster_Class_MimeRender</title>
<path fill="#ffc1c1" stroke="black" d="M764,-8C764,-8 970,-8 970,-8 976,-8 982,-14 982,-20 982,-20 982,-221.744 982,-221.744 982,-227.744 976,-233.744 970,-233.744 970,-233.744 764,-233.744 764,-233.744 758,-233.744 752,-227.744 752,-221.744 752,-221.744 752,-20 752,-20 752,-14 758,-8 764,-8"/>
<text text-anchor="middle" x="867" y="-218.544" font-family="Times,serif" font-size="14.00">Class: MimeRender</text>
</g>
<g id="clust6" class="cluster"><title>cluster_Class_MimeRender_Data_PlainTextDocsAPI</title>
<path fill="#c6e2ff" stroke="black" d="M772,-119.352C772,-119.352 962,-119.352 962,-119.352 968,-119.352 974,-125.352 974,-131.352 974,-131.352 974,-190.744 974,-190.744 974,-196.744 968,-202.744 962,-202.744 962,-202.744 772,-202.744 772,-202.744 766,-202.744 760,-196.744 760,-190.744 760,-190.744 760,-131.352 760,-131.352 760,-125.352 766,-119.352 772,-119.352"/>
<text text-anchor="middle" x="867" y="-187.544" font-family="Times,serif" font-size="14.00">Instance for: PlainText Docs.API</text>
</g>
<g id="clust7" class="cluster"><title>cluster_Class_ToSample</title>
<path fill="#ffc1c1" stroke="black" d="M1002,-8C1002,-8 1619,-8 1619,-8 1625,-8 1631,-14 1631,-20 1631,-20 1631,-221.744 1631,-221.744 1631,-227.744 1625,-233.744 1619,-233.744 1619,-233.744 1002,-233.744 1002,-233.744 996,-233.744 990,-227.744 990,-221.744 990,-221.744 990,-20 990,-20 990,-14 996,-8 1002,-8"/>
<text text-anchor="middle" x="1310.5" y="-218.544" font-family="Times,serif" font-size="14.00">Class: ToSample</text>
</g>
<g id="clust8" class="cluster"><title>cluster_Class_ToSample_Data_LoginFormData</title>
<path fill="#c6e2ff" stroke="black" d="M1441,-119.352C1441,-119.352 1611,-119.352 1611,-119.352 1617,-119.352 1623,-125.352 1623,-131.352 1623,-131.352 1623,-190.744 1623,-190.744 1623,-196.744 1617,-202.744 1611,-202.744 1611,-202.744 1441,-202.744 1441,-202.744 1435,-202.744 1429,-196.744 1429,-190.744 1429,-190.744 1429,-131.352 1429,-131.352 1429,-125.352 1435,-119.352 1441,-119.352"/>
<text text-anchor="middle" x="1526" y="-187.544" font-family="Times,serif" font-size="14.00">Instance for: LoginFormData</text>
</g>
<g id="clust9" class="cluster"><title>cluster_Class_ToSample_Data_ServiceSessionMetadata</title>
<path fill="#c6e2ff" stroke="black" d="M1212,-119.352C1212,-119.352 1409,-119.352 1409,-119.352 1415,-119.352 1421,-125.352 1421,-131.352 1421,-131.352 1421,-190.744 1421,-190.744 1421,-196.744 1415,-202.744 1409,-202.744 1409,-202.744 1212,-202.744 1212,-202.744 1206,-202.744 1200,-196.744 1200,-190.744 1200,-190.744 1200,-131.352 1200,-131.352 1200,-125.352 1206,-119.352 1212,-119.352"/>
<text text-anchor="middle" x="1310.5" y="-187.544" font-family="Times,serif" font-size="14.00">Instance for: ServiceSessionMetadata</text>
</g>
<g id="clust10" class="cluster"><title>cluster_Class_ToSample_Data_UserFormData</title>
<path fill="#c6e2ff" stroke="black" d="M1010,-119.352C1010,-119.352 1180,-119.352 1180,-119.352 1186,-119.352 1192,-125.352 1192,-131.352 1192,-131.352 1192,-190.744 1192,-190.744 1192,-196.744 1186,-202.744 1180,-202.744 1180,-202.744 1010,-202.744 1010,-202.744 1004,-202.744 998,-196.744 998,-190.744 998,-190.744 998,-131.352 998,-131.352 998,-125.352 1004,-119.352 1010,-119.352"/>
<text text-anchor="middle" x="1095" y="-187.544" font-family="Times,serif" font-size="14.00">Instance for: UserFormData</text>
</g>
<!-- 1 -->
<g id="node1" class="node"><title>1</title>
<polygon fill="bisque" stroke="black" stroke-width="2" points="728.135,-140.272 728.135,-158.823 682.365,-171.941 617.635,-171.941 571.865,-158.823 571.865,-140.272 617.635,-127.155 682.365,-127.155 728.135,-140.272"/>
<text text-anchor="middle" x="650" y="-145.848" font-family="Times,serif" font-size="14.00">docsFor</text>
</g>
<!-- 52 -->
<g id="node4" class="node"><title>52</title>
<polygon fill="khaki" stroke="black" stroke-dasharray="1,5" points="530.858,-39.6615 530.858,-67.6908 460.061,-87.5105 359.939,-87.5105 289.142,-67.6908 289.142,-39.6615 359.939,-19.8418 460.061,-19.8418 530.858,-39.6615"/>
<polygon fill="none" stroke="black" stroke-dasharray="1,5" points="534.856,-36.609 534.856,-70.7433 460.607,-91.5293 359.393,-91.5293 285.144,-70.7433 285.144,-36.609 359.393,-15.823 460.607,-15.823 534.856,-36.609"/>
<text text-anchor="middle" x="410" y="-57.4761" font-family="Times,serif" font-size="14.00">Unknown Module</text>
<text text-anchor="middle" x="410" y="-42.4761" font-family="Times,serif" font-size="14.00">docsFor</text>
</g>
<!-- 1&#45;&gt;52 -->
<g id="edge1" class="edge"><title>1&#45;&gt;52</title>
<path fill="none" stroke="black" d="M601.488,-131.657C570.071,-119.882 528.436,-103.756 491.992,-89.3038"/>
<polygon fill="black" stroke="black" points="492.944,-85.9156 482.358,-85.4739 490.358,-92.4205 492.944,-85.9156"/>
</g>
<!-- 2 -->
<g id="node2" class="node"><title>2</title>
<polygon fill="bisque" stroke="black" stroke-width="2" points="488.135,-140.272 488.135,-158.823 442.365,-171.941 377.635,-171.941 331.865,-158.823 331.865,-140.272 377.635,-127.155 442.365,-127.155 488.135,-140.272"/>
<text text-anchor="middle" x="410" y="-145.848" font-family="Times,serif" font-size="14.00">docsFor</text>
</g>
<!-- 2&#45;&gt;52 -->
<g id="edge2" class="edge"><title>2&#45;&gt;52</title>
<path fill="none" stroke="black" d="M404.239,-127.247C403.577,-119.544 403.247,-110.511 403.25,-101.485"/>
<polygon fill="black" stroke="black" points="406.751,-101.418 403.395,-91.3685 399.752,-101.317 406.751,-101.418"/>
</g>
<!-- 3 -->
<g id="node3" class="node"><title>3</title>
<polygon fill="bisque" stroke="black" stroke-width="2" points="248.135,-140.272 248.135,-158.823 202.365,-171.941 137.635,-171.941 91.8651,-158.823 91.8651,-140.272 137.635,-127.155 202.365,-127.155 248.135,-140.272"/>
<text text-anchor="middle" x="170" y="-145.848" font-family="Times,serif" font-size="14.00">docsFor</text>
</g>
<!-- 3&#45;&gt;52 -->
<g id="edge3" class="edge"><title>3&#45;&gt;52</title>
<path fill="none" stroke="black" d="M212.188,-129.89C242.214,-117.665 283.586,-101.361 320.756,-87.0583"/>
<polygon fill="black" stroke="black" points="322.025,-90.3203 330.106,-83.4687 319.516,-83.7853 322.025,-90.3203"/>
</g>
<!-- 52&#45;&gt;1 -->
<g id="edge9" class="edge"><title>52&#45;&gt;1</title>
<path fill="none" stroke="navy" d="M489.894,-83.4687C529.32,-98.5686 575.241,-116.629 607.812,-129.89"/>
</g>
<!-- 52&#45;&gt;2 -->
<g id="edge10" class="edge"><title>52&#45;&gt;2</title>
<path fill="none" stroke="navy" d="M416.605,-91.3685C416.954,-103.525 416.673,-116.645 415.761,-127.247"/>
</g>
<!-- 52&#45;&gt;3 -->
<g id="edge11" class="edge"><title>52&#45;&gt;3</title>
<path fill="none" stroke="navy" d="M337.642,-85.4739C299.087,-100.839 252.737,-118.83 218.512,-131.657"/>
</g>
<!-- 13 -->
<g id="node5" class="node"><title>13</title>
<polygon fill="bisque" stroke="black" stroke-width="2" points="966.495,-140.272 966.495,-158.823 908.212,-171.941 825.788,-171.941 767.505,-158.823 767.505,-140.272 825.788,-127.155 908.212,-127.155 966.495,-140.272"/>
<text text-anchor="middle" x="867" y="-145.848" font-family="Times,serif" font-size="14.00">mimeRender</text>
</g>
<!-- 51 -->
<g id="node6" class="node"><title>51</title>
<polygon fill="khaki" stroke="black" stroke-dasharray="5,2" points="966.495,-39.6615 966.495,-67.6908 908.212,-87.5105 825.788,-87.5105 767.505,-67.6908 767.505,-39.6615 825.788,-19.8418 908.212,-19.8418 966.495,-39.6615"/>
<polygon fill="none" stroke="black" stroke-dasharray="5,2" points="970.495,-36.779 970.495,-70.5733 908.871,-91.5293 825.129,-91.5293 763.505,-70.5733 763.505,-36.779 825.129,-15.823 908.871,-15.823 970.495,-36.779"/>
<text text-anchor="middle" x="867" y="-57.4761" font-family="Times,serif" font-size="14.00">Servant.API</text>
<text text-anchor="middle" x="867" y="-42.4761" font-family="Times,serif" font-size="14.00">mimeRender</text>
</g>
<!-- 13&#45;&gt;51 -->
<g id="edge4" class="edge"><title>13&#45;&gt;51</title>
<path fill="none" stroke="chartreuse" d="M861.239,-127.247C860.577,-119.544 860.247,-110.511 860.25,-101.485"/>
<polygon fill="chartreuse" stroke="chartreuse" points="863.751,-101.418 860.395,-91.3685 856.752,-101.317 863.751,-101.418"/>
</g>
<!-- 51&#45;&gt;13 -->
<g id="edge8" class="edge"><title>51&#45;&gt;13</title>
<path fill="none" stroke="navy" d="M873.605,-91.3685C873.954,-103.525 873.673,-116.645 872.761,-127.247"/>
</g>
<!-- 36 -->
<g id="node7" class="node"><title>36</title>
<polygon fill="bisque" stroke="black" stroke-width="2" points="1614.57,-140.272 1614.57,-158.823 1562.69,-171.941 1489.31,-171.941 1437.43,-158.823 1437.43,-140.272 1489.31,-127.155 1562.69,-127.155 1614.57,-140.272"/>
<text text-anchor="middle" x="1526" y="-145.848" font-family="Times,serif" font-size="14.00">toSamples</text>
</g>
<!-- 55 -->
<g id="node10" class="node"><title>55</title>
<polygon fill="khaki" stroke="black" stroke-dasharray="1,5" points="1430.86,-39.6615 1430.86,-67.6908 1360.06,-87.5105 1259.94,-87.5105 1189.14,-67.6908 1189.14,-39.6615 1259.94,-19.8418 1360.06,-19.8418 1430.86,-39.6615"/>
<polygon fill="none" stroke="black" stroke-dasharray="1,5" points="1434.86,-36.609 1434.86,-70.7433 1360.61,-91.5293 1259.39,-91.5293 1185.14,-70.7433 1185.14,-36.609 1259.39,-15.823 1360.61,-15.823 1434.86,-36.609"/>
<text text-anchor="middle" x="1310" y="-57.4761" font-family="Times,serif" font-size="14.00">Unknown Module</text>
<text text-anchor="middle" x="1310" y="-42.4761" font-family="Times,serif" font-size="14.00">toSamples</text>
</g>
<!-- 36&#45;&gt;55 -->
<g id="edge5" class="edge"><title>36&#45;&gt;55</title>
<path fill="none" stroke="black" d="M1477.82,-130.002C1451.07,-118.865 1417.22,-104.311 1386.92,-90.9694"/>
<polygon fill="black" stroke="black" points="1388.2,-87.7102 1377.64,-86.8727 1385.37,-94.1137 1388.2,-87.7102"/>
</g>
<!-- 43 -->
<g id="node8" class="node"><title>43</title>
<polygon fill="bisque" stroke="black" stroke-width="2" points="1398.57,-140.272 1398.57,-158.823 1346.69,-171.941 1273.31,-171.941 1221.43,-158.823 1221.43,-140.272 1273.31,-127.155 1346.69,-127.155 1398.57,-140.272"/>
<text text-anchor="middle" x="1310" y="-145.848" font-family="Times,serif" font-size="14.00">toSamples</text>
</g>
<!-- 43&#45;&gt;55 -->
<g id="edge6" class="edge"><title>43&#45;&gt;55</title>
<path fill="none" stroke="black" d="M1304.24,-127.247C1303.58,-119.544 1303.25,-110.511 1303.25,-101.485"/>
<polygon fill="black" stroke="black" points="1306.75,-101.418 1303.39,-91.3685 1299.75,-101.317 1306.75,-101.418"/>
</g>
<!-- 47 -->
<g id="node9" class="node"><title>47</title>
<polygon fill="bisque" stroke="black" stroke-width="2" points="1183.57,-140.272 1183.57,-158.823 1131.69,-171.941 1058.31,-171.941 1006.43,-158.823 1006.43,-140.272 1058.31,-127.155 1131.69,-127.155 1183.57,-140.272"/>
<text text-anchor="middle" x="1095" y="-145.848" font-family="Times,serif" font-size="14.00">toSamples</text>
</g>
<!-- 47&#45;&gt;55 -->
<g id="edge7" class="edge"><title>47&#45;&gt;55</title>
<path fill="none" stroke="black" d="M1135.97,-128.179C1161.23,-116.695 1194.5,-102.048 1225.19,-88.855"/>
<polygon fill="black" stroke="black" points="1226.81,-91.969 1234.63,-84.8126 1224.06,-85.535 1226.81,-91.969"/>
</g>
<!-- 55&#45;&gt;36 -->
<g id="edge12" class="edge"><title>55&#45;&gt;36</title>
<path fill="none" stroke="navy" d="M1385.27,-84.6318C1418.68,-98.8425 1456.68,-115.453 1484.81,-128.179"/>
</g>
<!-- 55&#45;&gt;43 -->
<g id="edge13" class="edge"><title>55&#45;&gt;43</title>
<path fill="none" stroke="navy" d="M1316.61,-91.3685C1316.95,-103.525 1316.67,-116.645 1315.76,-127.247"/>
</g>
<!-- 55&#45;&gt;47 -->
<g id="edge14" class="edge"><title>55&#45;&gt;47</title>
<path fill="none" stroke="navy" d="M1242.7,-86.8727C1210.36,-101.264 1172.37,-117.713 1142.98,-130.002"/>
</g>
</g>
</svg>
