<?xml version="1.0" encoding="UTF-8" standalone="no"?>
<!DOCTYPE svg PUBLIC "-//W3C//DTD SVG 1.1//EN"
 "http://www.w3.org/Graphics/SVG/1.1/DTD/svg11.dtd">
<!-- Generated by graphviz version 2.38.0 (20140413.2041)
 -->
<!-- Title: Diagram of: Thentos.Backend.Api.Proxy Pages: 1 -->
<svg width="1441pt" height="552pt"
 viewBox="0.00 0.00 1440.50 551.74" xmlns="http://www.w3.org/2000/svg" xmlns:xlink="http://www.w3.org/1999/xlink">
<g id="graph0" class="graph" transform="scale(1 1) rotate(0) translate(4 547.744)">
<title>Diagram of: Thentos.Backend.Api.Proxy</title>
<polygon fill="white" stroke="none" points="-4,4 -4,-547.744 1436.5,-547.744 1436.5,4 -4,4"/>
<g id="clust1" class="cluster"><title>cluster_Class_HasServer</title>
<path fill="#ffc1c1" stroke="black" d="M20,-310C20,-310 262,-310 262,-310 268,-310 274,-316 274,-322 274,-322 274,-523.744 274,-523.744 274,-529.744 268,-535.744 262,-535.744 262,-535.744 20,-535.744 20,-535.744 14,-535.744 8,-529.744 8,-523.744 8,-523.744 8,-322 8,-322 8,-316 14,-310 20,-310"/>
<text text-anchor="middle" x="141" y="-520.544" font-family="Times,serif" font-size="14.00">Class: HasServer</text>
</g>
<g id="clust2" class="cluster"><title>cluster_Class_HasServer_Data_ServiceProxy</title>
<path fill="#c6e2ff" stroke="black" d="M73,-421.352C73,-421.352 210,-421.352 210,-421.352 216,-421.352 222,-427.352 222,-433.352 222,-433.352 222,-492.744 222,-492.744 222,-498.744 216,-504.744 210,-504.744 210,-504.744 73,-504.744 73,-504.744 67,-504.744 61,-498.744 61,-492.744 61,-492.744 61,-433.352 61,-433.352 61,-427.352 67,-421.352 73,-421.352"/>
<text text-anchor="middle" x="141.5" y="-489.544" font-family="Times,serif" font-size="14.00">Instance for: ServiceProxy</text>
</g>
<g id="clust3" class="cluster"><title>cluster_Data_ProxyAdapter</title>
<path fill="papayawhip" stroke="black" d="M809,-8C809,-8 1211,-8 1211,-8 1217,-8 1223,-14 1223,-20 1223,-20 1223,-143 1223,-143 1223,-149 1217,-155 1211,-155 1211,-155 809,-155 809,-155 803,-155 797,-149 797,-143 797,-143 797,-20 797,-20 797,-14 803,-8 809,-8"/>
<text text-anchor="middle" x="1010" y="-139.8" font-family="Times,serif" font-size="14.00">Data: ProxyAdapter</text>
</g>
<g id="clust4" class="cluster"><title>cluster_Data_RqMod</title>
<path fill="papayawhip" stroke="black" d="M372,-163C372,-163 466,-163 466,-163 472,-163 478,-169 478,-175 478,-175 478,-226 478,-226 478,-232 472,-238 466,-238 466,-238 372,-238 372,-238 366,-238 360,-232 360,-226 360,-226 360,-175 360,-175 360,-169 366,-163 372,-163"/>
<text text-anchor="middle" x="419" y="-222.8" font-family="Times,serif" font-size="14.00">Data: RqMod</text>
</g>
<!-- 15 -->
<g id="node1" class="node"><title>15</title>
<polygon fill="bisque" stroke="black" stroke-width="2" points="206.644,-442.272 206.644,-460.823 168.19,-473.941 113.81,-473.941 75.3564,-460.823 75.3564,-442.272 113.81,-429.155 168.19,-429.155 206.644,-442.272"/>
<text text-anchor="middle" x="141" y="-447.848" font-family="Times,serif" font-size="14.00">route</text>
</g>
<!-- 17 -->
<g id="node2" class="node"><title>17</title>
<polygon fill="khaki" stroke="black" stroke-dasharray="1,5" points="261.858,-341.662 261.858,-369.691 191.061,-389.51 90.9389,-389.51 20.1417,-369.691 20.1417,-341.662 90.9389,-321.842 191.061,-321.842 261.858,-341.662"/>
<polygon fill="none" stroke="black" stroke-dasharray="1,5" points="265.856,-338.609 265.856,-372.743 191.607,-393.529 90.3926,-393.529 16.144,-372.743 16.144,-338.609 90.3926,-317.823 191.607,-317.823 265.856,-338.609"/>
<text text-anchor="middle" x="141" y="-359.476" font-family="Times,serif" font-size="14.00">Unknown Module</text>
<text text-anchor="middle" x="141" y="-344.476" font-family="Times,serif" font-size="14.00">route</text>
</g>
<!-- 15&#45;&gt;17 -->
<g id="edge21" class="edge"><title>15&#45;&gt;17</title>
<path fill="none" stroke="chartreuse" d="M135.239,-429.247C134.577,-421.544 134.247,-412.511 134.25,-403.485"/>
<polygon fill="chartreuse" stroke="chartreuse" points="137.751,-403.418 134.395,-393.369 130.752,-403.317 137.751,-403.418"/>
</g>
<!-- 17&#45;&gt;15 -->
<g id="edge24" class="edge"><title>17&#45;&gt;15</title>
<path fill="none" stroke="navy" d="M147.605,-393.369C147.954,-405.525 147.673,-418.645 146.761,-429.247"/>
</g>
<!-- 1 -->
<g id="node3" class="node"><title>1</title>
<polygon fill="goldenrod" stroke="black" stroke-width="2" points="1146,-52 1016,-52 1012,-48 1012,-16 1142,-16 1146,-20 1146,-52"/>
<polyline fill="none" stroke="black" stroke-width="2" points="1142,-48 1012,-48 "/>
<polyline fill="none" stroke="black" stroke-width="2" points="1142,-48 1142,-16 "/>
<polyline fill="none" stroke="black" stroke-width="2" points="1142,-48 1146,-52 "/>
<text text-anchor="middle" x="1079" y="-30.3" font-family="Times,serif" font-size="14.00">ProxyAdapter</text>
</g>
<!-- 11 -->
<g id="node4" class="node"><title>11</title>
<polygon fill="goldenrod" stroke="black" stroke-width="2" points="927,-124 805,-124 805,-120 801,-120 801,-116 805,-116 805,-96 801,-96 801,-92 805,-92 805,-88 927,-88 927,-124"/>
<polyline fill="none" stroke="black" stroke-width="2" points="805,-120 809,-120 809,-116 805,-116 "/>
<polyline fill="none" stroke="black" stroke-width="2" points="805,-96 809,-96 809,-92 805,-92 "/>
<text text-anchor="middle" x="866" y="-102.3" font-family="Times,serif" font-size="14.00">renderError</text>
</g>
<!-- 11&#45;&gt;1 -->
<g id="edge14" class="edge"><title>11&#45;&gt;1</title>
<path fill="none" stroke="magenta" d="M917.833,-87.9656C947.853,-78.1 985.823,-65.6215 1017.37,-55.255"/>
<polygon fill="magenta" stroke="magenta" points="1026.93,-52.1108 1018.84,-59.508 1022.18,-53.6719 1017.43,-55.233 1017.43,-55.233 1017.43,-55.233 1022.18,-53.6719 1016.03,-50.9579 1026.93,-52.1108 1026.93,-52.1108"/>
</g>
<!-- 12 -->
<g id="node5" class="node"><title>12</title>
<polygon fill="goldenrod" stroke="black" stroke-width="2" points="1077,-124 945,-124 945,-120 941,-120 941,-116 945,-116 945,-96 941,-96 941,-92 945,-92 945,-88 1077,-88 1077,-124"/>
<polyline fill="none" stroke="black" stroke-width="2" points="945,-120 949,-120 949,-116 945,-116 "/>
<polyline fill="none" stroke="black" stroke-width="2" points="945,-96 949,-96 949,-92 945,-92 "/>
<text text-anchor="middle" x="1011" y="-102.3" font-family="Times,serif" font-size="14.00">renderHeader</text>
</g>
<!-- 12&#45;&gt;1 -->
<g id="edge15" class="edge"><title>12&#45;&gt;1</title>
<path fill="none" stroke="magenta" d="M1027.81,-87.6966C1036.13,-79.135 1046.31,-68.6562 1055.39,-59.3045"/>
<polygon fill="magenta" stroke="magenta" points="1062.38,-52.1043 1058.64,-62.4127 1058.9,-55.6907 1055.42,-59.2772 1055.42,-59.2772 1055.42,-59.2772 1058.9,-55.6907 1052.19,-56.1416 1062.38,-52.1043 1062.38,-52.1043"/>
</g>
<!-- 13 -->
<g id="node6" class="node"><title>13</title>
<polygon fill="goldenrod" stroke="black" stroke-width="2" points="1214.5,-124 1095.5,-124 1095.5,-120 1091.5,-120 1091.5,-116 1095.5,-116 1095.5,-96 1091.5,-96 1091.5,-92 1095.5,-92 1095.5,-88 1214.5,-88 1214.5,-124"/>
<polyline fill="none" stroke="black" stroke-width="2" points="1095.5,-120 1099.5,-120 1099.5,-116 1095.5,-116 "/>
<polyline fill="none" stroke="black" stroke-width="2" points="1095.5,-96 1099.5,-96 1099.5,-92 1095.5,-92 "/>
<text text-anchor="middle" x="1155" y="-102.3" font-family="Times,serif" font-size="14.00">renderUser</text>
</g>
<!-- 13&#45;&gt;1 -->
<g id="edge16" class="edge"><title>13&#45;&gt;1</title>
<path fill="none" stroke="magenta" d="M1136.21,-87.6966C1126.83,-79.0503 1115.32,-68.4486 1105.09,-59.027"/>
<polygon fill="magenta" stroke="magenta" points="1097.57,-52.1043 1107.97,-55.5692 1101.25,-55.4917 1104.93,-58.8791 1104.93,-58.8791 1104.93,-58.8791 1101.25,-55.4917 1101.88,-62.1891 1097.57,-52.1043 1097.57,-52.1043"/>
</g>
<!-- 2 -->
<g id="node7" class="node"><title>2</title>
<polygon fill="goldenrod" stroke="black" stroke-width="2" points="469.5,-207 372.5,-207 368.5,-203 368.5,-171 465.5,-171 469.5,-175 469.5,-207"/>
<polyline fill="none" stroke="black" stroke-width="2" points="465.5,-203 368.5,-203 "/>
<polyline fill="none" stroke="black" stroke-width="2" points="465.5,-203 465.5,-171 "/>
<polyline fill="none" stroke="black" stroke-width="2" points="465.5,-203 469.5,-207 "/>
<text text-anchor="middle" x="419" y="-185.3" font-family="Times,serif" font-size="14.00">RqMod</text>
</g>
<!-- 3 -->
<g id="node8" class="node"><title>3</title>
<polygon fill="goldenrod" stroke="black" stroke-width="2" points="704,-207 526,-207 526,-171 704,-171 704,-207"/>
<text text-anchor="middle" x="615" y="-185.3" font-family="Times,serif" font-size="14.00">createCustomHeaders</text>
</g>
<!-- 3&#45;&gt;12 -->
<g id="edge1" class="edge"><title>3&#45;&gt;12</title>
<path fill="none" stroke="black" d="M672.544,-170.986C685.422,-167.792 699.092,-164.871 712,-163 761.294,-155.854 888.452,-169.839 936,-155 952.706,-149.786 969.302,-139.798 982.62,-130.277"/>
<polygon fill="black" stroke="black" points="984.932,-132.919 990.866,-124.142 980.754,-127.303 984.932,-132.919"/>
</g>
<!-- 3&#45;&gt;13 -->
<g id="edge2" class="edge"><title>3&#45;&gt;13</title>
<path fill="none" stroke="black" d="M672.009,-170.975C685.038,-167.738 698.907,-164.803 712,-163 753.177,-157.331 1046.47,-167.862 1086,-155 1101.56,-149.937 1116.73,-140.101 1128.86,-130.644"/>
<polygon fill="black" stroke="black" points="1131.2,-133.252 1136.74,-124.221 1126.78,-127.825 1131.2,-133.252"/>
</g>
<!-- 4 -->
<g id="node9" class="node"><title>4</title>
<polygon fill="gold" stroke="black" stroke-width="2" points="1384,-207 1212,-207 1212,-171 1384,-171 1384,-207"/>
<text text-anchor="middle" x="1298" y="-185.3" font-family="Times,serif" font-size="14.00">defaultProxyAdapter</text>
</g>
<!-- 4&#45;&gt;1 -->
<g id="edge3" class="edge"><title>4&#45;&gt;1</title>
<path fill="none" stroke="black" d="M1277.13,-170.839C1271.88,-166.007 1266.47,-160.547 1262,-155 1240.39,-128.165 1249.39,-110.148 1223,-88 1203.72,-71.8207 1179.06,-60.3647 1155.61,-52.3494"/>
<polygon fill="black" stroke="black" points="1156.6,-48.9901 1146,-49.229 1154.43,-55.6476 1156.6,-48.9901"/>
</g>
<!-- 4&#45;&gt;11 -->
<g id="edge5" class="edge"><title>4&#45;&gt;11</title>
<path fill="none" stroke="black" d="M1218.12,-170.963C1200.68,-167.812 1182.28,-164.915 1165,-163 1139.69,-160.196 960.183,-162.96 936,-155 920.306,-149.834 904.931,-139.985 892.607,-130.547"/>
<polygon fill="black" stroke="black" points="894.591,-127.652 884.595,-124.141 890.22,-133.119 894.591,-127.652"/>
</g>
<!-- 4&#45;&gt;12 -->
<g id="edge6" class="edge"><title>4&#45;&gt;12</title>
<path fill="none" stroke="black" d="M1237,-170.965C1224.2,-167.894 1210.72,-165.029 1198,-163 1148.72,-155.141 1133.37,-170.713 1086,-155 1069.51,-149.53 1053.04,-139.612 1039.76,-130.206"/>
<polygon fill="black" stroke="black" points="1041.65,-127.252 1031.52,-124.15 1037.51,-132.893 1041.65,-127.252"/>
</g>
<!-- 4&#45;&gt;13 -->
<g id="edge7" class="edge"><title>4&#45;&gt;13</title>
<path fill="none" stroke="black" d="M1259.95,-170.884C1249.76,-166.009 1238.85,-160.518 1229,-155 1215.22,-147.276 1200.52,-137.98 1187.89,-129.634"/>
<polygon fill="black" stroke="black" points="1189.77,-126.682 1179.51,-124.039 1185.88,-132.503 1189.77,-126.682"/>
</g>
<!-- 5 -->
<g id="node10" class="node"><title>5</title>
<polygon fill="goldenrod" stroke="black" stroke-width="2" points="1432.5,-124 1271.5,-124 1271.5,-88 1432.5,-88 1432.5,-124"/>
<text text-anchor="middle" x="1352" y="-102.3" font-family="Times,serif" font-size="14.00">defaultRenderUser</text>
</g>
<!-- 4&#45;&gt;5 -->
<g id="edge4" class="edge"><title>4&#45;&gt;5</title>
<path fill="none" stroke="black" d="M1309.45,-170.822C1316.83,-159.761 1326.55,-145.179 1334.84,-132.746"/>
<polygon fill="black" stroke="black" points="1337.93,-134.415 1340.56,-124.153 1332.11,-130.532 1337.93,-134.415"/>
</g>
<!-- 6 -->
<g id="node11" class="node"><title>6</title>
<polygon fill="goldenrod" stroke="black" stroke-width="2" points="412,-373.676 284,-373.676 284,-337.676 412,-337.676 412,-373.676"/>
<text text-anchor="middle" x="348" y="-351.976" font-family="Times,serif" font-size="14.00">err500onExc</text>
</g>
<!-- 7 -->
<g id="node12" class="node"><title>7</title>
<polygon fill="goldenrod" stroke="black" stroke-width="2" points="952.5,-207 721.5,-207 721.5,-171 952.5,-171 952.5,-207"/>
<text text-anchor="middle" x="837" y="-185.3" font-family="Times,serif" font-size="14.00">findDefaultServiceIdAndTarget</text>
</g>
<!-- 8 -->
<g id="node13" class="node"><title>8</title>
<polygon fill="goldenrod" stroke="black" stroke-width="2" points="1156,-207 970,-207 970,-171 1156,-171 1156,-207"/>
<text text-anchor="middle" x="1063" y="-185.3" font-family="Times,serif" font-size="14.00">findTargetForServiceId</text>
</g>
<!-- 9 -->
<g id="node14" class="node"><title>9</title>
<polygon fill="goldenrod" stroke="black" stroke-width="2" points="645.5,-282 528.5,-282 528.5,-246 645.5,-246 645.5,-282"/>
<text text-anchor="middle" x="587" y="-260.3" font-family="Times,serif" font-size="14.00">getRqMod</text>
</g>
<!-- 9&#45;&gt;12 -->
<g id="edge12" class="edge"><title>9&#45;&gt;12</title>
<path fill="none" stroke="black" stroke-width="1.69315" d="M528.261,-248.87C523.915,-245.906 520.048,-242.325 517,-238 497.798,-210.753 493.656,-186.794 517,-163 525.152,-154.69 924.859,-158.376 936,-155 952.87,-149.889 969.591,-139.808 982.949,-130.199"/>
<polygon fill="black" stroke="black" stroke-width="1.69315" points="985.305,-132.807 991.209,-124.009 981.107,-127.205 985.305,-132.807"/>
</g>
<!-- 9&#45;&gt;2 -->
<g id="edge8" class="edge"><title>9&#45;&gt;2</title>
<path fill="none" stroke="black" d="M528.418,-253.037C513.529,-249.366 497.837,-244.465 484,-238 470.53,-231.706 457.073,-222.397 445.926,-213.647"/>
<polygon fill="black" stroke="black" points="447.86,-210.71 437.89,-207.125 443.449,-216.145 447.86,-210.71"/>
</g>
<!-- 9&#45;&gt;3 -->
<g id="edge9" class="edge"><title>9&#45;&gt;3</title>
<path fill="none" stroke="black" d="M593.636,-245.7C596.948,-237.063 601.03,-226.422 604.735,-216.762"/>
<polygon fill="black" stroke="black" points="608.099,-217.766 608.412,-207.176 601.563,-215.259 608.099,-217.766"/>
</g>
<!-- 9&#45;&gt;7 -->
<g id="edge10" class="edge"><title>9&#45;&gt;7</title>
<path fill="none" stroke="black" d="M645.532,-253.571C666.954,-249.549 691.262,-244.312 713,-238 738.508,-230.593 766.136,-220.148 788.826,-210.891"/>
<polygon fill="black" stroke="black" points="790.32,-214.061 798.227,-207.01 787.648,-207.591 790.32,-214.061"/>
</g>
<!-- 9&#45;&gt;8 -->
<g id="edge11" class="edge"><title>9&#45;&gt;8</title>
<path fill="none" stroke="black" d="M645.878,-260.268C743.569,-255.554 931.39,-245.665 961,-238 983.205,-232.252 1006.46,-221.707 1025.14,-211.961"/>
<polygon fill="black" stroke="black" points="1027.03,-214.921 1034.2,-207.117 1023.73,-208.749 1027.03,-214.921"/>
</g>
<!-- 10 -->
<g id="node15" class="node"><title>10</title>
<polygon fill="goldenrod" stroke="black" stroke-width="2" points="1027.5,-282 906.5,-282 906.5,-246 1027.5,-246 1027.5,-282"/>
<text text-anchor="middle" x="967" y="-260.3" font-family="Times,serif" font-size="14.00">prepareReq</text>
</g>
<!-- 10&#45;&gt;12 -->
<g id="edge13" class="edge"><title>10&#45;&gt;12</title>
<path fill="none" stroke="black" d="M1027.85,-263.787C1079.29,-262.994 1147.36,-258.012 1165,-238 1187.04,-212.997 1187.35,-187.729 1165,-163 1153.17,-149.909 1102.66,-160.803 1086,-155 1069.71,-149.328 1053.38,-139.484 1040.13,-130.181"/>
<polygon fill="black" stroke="black" points="1042.05,-127.247 1031.9,-124.195 1037.93,-132.908 1042.05,-127.247"/>
</g>
<!-- 14 -->
<g id="node16" class="node"><title>14</title>
<polygon fill="goldenrod" stroke="black" stroke-width="2" points="603.5,-373.676 430.5,-373.676 430.5,-337.676 603.5,-337.676 603.5,-373.676"/>
<text text-anchor="middle" x="517" y="-351.976" font-family="Times,serif" font-size="14.00">reverseProxyHandler</text>
</g>
<!-- 14&#45;&gt;11 -->
<g id="edge20" class="edge"><title>14&#45;&gt;11</title>
<path fill="none" stroke="black" d="M483.343,-337.442C421.204,-303.487 299.732,-225.785 356,-163 384.752,-130.918 661.302,-115.344 794.707,-109.649"/>
<polygon fill="black" stroke="black" points="794.991,-113.141 804.835,-109.224 794.697,-106.147 794.991,-113.141"/>
</g>
<!-- 14&#45;&gt;2 -->
<g id="edge17" class="edge"><title>14&#45;&gt;2</title>
<path fill="none" stroke="black" d="M506.881,-337.673C489.716,-308.829 454.784,-250.13 434.512,-216.066"/>
<polygon fill="black" stroke="black" points="437.332,-213.961 429.21,-207.157 431.317,-217.541 437.332,-213.961"/>
</g>
<!-- 14&#45;&gt;9 -->
<g id="edge18" class="edge"><title>14&#45;&gt;9</title>
<path fill="none" stroke="black" d="M530.497,-337.386C540.955,-323.987 555.596,-305.231 567.354,-290.168"/>
<polygon fill="black" stroke="black" points="570.15,-292.274 573.545,-282.237 564.633,-287.967 570.15,-292.274"/>
</g>
<!-- 14&#45;&gt;10 -->
<g id="edge19" class="edge"><title>14&#45;&gt;10</title>
<path fill="none" stroke="black" d="M602.436,-337.651C687.627,-320.674 816.934,-294.905 896.466,-279.056"/>
<polygon fill="black" stroke="black" points="897.268,-282.465 906.391,-277.078 895.899,-275.6 897.268,-282.465"/>
</g>
<!-- 16 -->
<g id="node17" class="node"><title>16</title>
<polygon fill="gold" stroke="black" stroke-width="2" points="496.5,-469.548 367.5,-469.548 367.5,-433.548 496.5,-433.548 496.5,-469.548"/>
<text text-anchor="middle" x="432" y="-447.848" font-family="Times,serif" font-size="14.00">serviceProxy</text>
</g>
<!-- 16&#45;&gt;6 -->
<g id="edge22" class="edge"><title>16&#45;&gt;6</title>
<path fill="none" stroke="black" d="M416.593,-433.33C403.568,-418.775 384.747,-397.741 370.113,-381.388"/>
<polygon fill="black" stroke="black" points="372.586,-378.903 363.309,-373.785 367.369,-383.571 372.586,-378.903"/>
</g>
<!-- 16&#45;&gt;14 -->
<g id="edge23" class="edge"><title>16&#45;&gt;14</title>
<path fill="none" stroke="black" d="M447.59,-433.33C460.77,-418.775 479.816,-397.741 494.624,-381.388"/>
<polygon fill="black" stroke="black" points="497.391,-383.546 501.509,-373.785 492.202,-378.848 497.391,-383.546"/>
</g>
</g>
</svg>
