<?xml version="1.0" encoding="UTF-8" standalone="no"?>
<!DOCTYPE svg PUBLIC "-//W3C//DTD SVG 1.1//EN"
 "http://www.w3.org/Graphics/SVG/1.1/DTD/svg11.dtd">
<!-- Generated by graphviz version 2.38.0 (20140413.2041)
 -->
<!-- Title: Levels within Thentos.Backend.Core Pages: 1 -->
<svg width="4723pt" height="294pt"
 viewBox="0.00 0.00 4723.00 293.74" xmlns="http://www.w3.org/2000/svg" xmlns:xlink="http://www.w3.org/1999/xlink">
<g id="graph0" class="graph" transform="scale(1 1) rotate(0) translate(4 289.744)">
<title>Levels within Thentos.Backend.Core</title>
<polygon fill="white" stroke="none" points="-4,4 -4,-289.744 4719,-289.744 4719,4 -4,4"/>
<g id="clust1" class="cluster"><title>cluster_0</title>
<polygon fill="lavender" stroke="black" points="8,-8 8,-277.744 2187,-277.744 2187,-8 8,-8"/>
<text text-anchor="middle" x="1097.5" y="-262.544" font-family="Times,serif" font-size="14.00">Exported root entities</text>
</g>
<g id="clust2" class="cluster"><title>cluster_1</title>
<polygon fill="lavender" stroke="black" points="2195,-80 2195,-163.391 4707,-163.391 4707,-80 2195,-80"/>
<text text-anchor="middle" x="3451" y="-148.191" font-family="Times,serif" font-size="14.00">Level = 1</text>
</g>
<!-- 1 -->
<g id="node1" class="node"><title>1</title>
<polygon fill="goldenrod" stroke="black" stroke-width="2" points="1324,-128.196 1176,-128.196 1172,-124.196 1172,-92.1956 1320,-92.1956 1324,-96.1956 1324,-128.196"/>
<polyline fill="none" stroke="black" stroke-width="2" points="1320,-124.196 1172,-124.196 "/>
<polyline fill="none" stroke="black" stroke-width="2" points="1320,-124.196 1320,-92.1956 "/>
<polyline fill="none" stroke="black" stroke-width="2" points="1320,-124.196 1324,-128.196 "/>
<text text-anchor="middle" x="1248" y="-106.496" font-family="Times,serif" font-size="14.00">Data: CorsPolicy</text>
</g>
<!-- 2 -->
<g id="node2" class="node"><title>2</title>
<polygon fill="goldenrod" stroke="black" stroke-width="2" points="1773,-52 1609,-52 1605,-48 1605,-16 1769,-16 1773,-20 1773,-52"/>
<polyline fill="none" stroke="black" stroke-width="2" points="1769,-48 1605,-48 "/>
<polyline fill="none" stroke="black" stroke-width="2" points="1769,-48 1769,-16 "/>
<polyline fill="none" stroke="black" stroke-width="2" points="1769,-48 1773,-52 "/>
<text text-anchor="middle" x="1689" y="-30.3" font-family="Times,serif" font-size="14.00">Data: ErrorMessage</text>
</g>
<!-- 3 -->
<g id="node3" class="node"><title>3</title>
<polygon fill="goldenrod" stroke="black" stroke-width="2" points="467.5,-52 264.5,-52 260.5,-48 260.5,-16 463.5,-16 467.5,-20 467.5,-52"/>
<polyline fill="none" stroke="black" stroke-width="2" points="463.5,-48 260.5,-48 "/>
<polyline fill="none" stroke="black" stroke-width="2" points="463.5,-48 463.5,-16 "/>
<polyline fill="none" stroke="black" stroke-width="2" points="463.5,-48 467.5,-52 "/>
<text text-anchor="middle" x="364" y="-30.3" font-family="Times,serif" font-size="14.00">Data: ThentosHeaderName</text>
</g>
<!-- 7 -->
<g id="node4" class="node"><title>7</title>
<polygon fill="goldenrod" stroke="black" stroke-width="2" points="1000.5,-128.196 857.5,-128.196 857.5,-92.1956 1000.5,-92.1956 1000.5,-128.196"/>
<text text-anchor="middle" x="929" y="-106.496" font-family="Times,serif" font-size="14.00">actionErrorInfo</text>
</g>
<!-- 8 -->
<g id="node5" class="node"><title>8</title>
<polygon fill="gold" stroke="black" stroke-width="2" points="1399.5,-227.067 1202.5,-227.067 1202.5,-191.067 1399.5,-191.067 1399.5,-227.067"/>
<text text-anchor="middle" x="1301" y="-205.367" font-family="Times,serif" font-size="14.00">addCacheControlHeaders</text>
</g>
<!-- 10 -->
<g id="node7" class="node"><title>10</title>
<polygon fill="goldenrod" stroke="black" stroke-width="2" points="1531.5,-128.196 1342.5,-128.196 1342.5,-92.1956 1531.5,-92.1956 1531.5,-128.196"/>
<text text-anchor="middle" x="1437" y="-106.496" font-family="Times,serif" font-size="14.00">addHeadersToResponse</text>
</g>
<!-- 8&#45;&gt;10 -->
<g id="edge1" class="edge"><title>8&#45;&gt;10</title>
<path fill="none" stroke="black" d="M1325,-190.972C1347.1,-175.229 1380.07,-151.746 1404.52,-134.331"/>
<polygon fill="black" stroke="black" points="1406.67,-137.099 1412.78,-128.446 1402.61,-131.397 1406.67,-137.099"/>
</g>
<!-- 21 -->
<g id="node14" class="node"><title>21</title>
<polygon fill="goldenrod" stroke="black" stroke-width="2" points="1943,-128.196 1795,-128.196 1795,-92.1956 1943,-92.1956 1943,-128.196"/>
<text text-anchor="middle" x="1869" y="-106.496" font-family="Times,serif" font-size="14.00">httpCachePolicy</text>
</g>
<!-- 8&#45;&gt;21 -->
<g id="edge2" class="edge"><title>8&#45;&gt;21</title>
<path fill="none" stroke="black" d="M1341.12,-191.02C1360.88,-183.482 1385.28,-175.425 1408,-171.391 1449.25,-164.067 1744.83,-175.316 1785,-163.391 1805,-157.454 1824.93,-145.395 1840.36,-134.363"/>
<polygon fill="black" stroke="black" points="1842.49,-137.146 1848.44,-128.385 1838.32,-131.519 1842.49,-137.146"/>
</g>
<!-- 9 -->
<g id="node6" class="node"><title>9</title>
<polygon fill="gold" stroke="black" stroke-width="2" points="403,-227.067 255,-227.067 255,-191.067 403,-191.067 403,-227.067"/>
<text text-anchor="middle" x="329" y="-205.367" font-family="Times,serif" font-size="14.00">addCorsHeaders</text>
</g>
<!-- 9&#45;&gt;1 -->
<g id="edge3" class="edge"><title>9&#45;&gt;1</title>
<path fill="none" stroke="black" stroke-width="2.09861" d="M359.515,-191.016C374.778,-183.428 393.832,-175.328 412,-171.391 452.724,-162.567 1121.93,-174.83 1162,-163.391 1182.55,-157.526 1203.1,-145.345 1218.95,-134.226"/>
<polygon fill="black" stroke="black" stroke-width="2.09861" points="1221.21,-136.91 1227.25,-128.204 1217.1,-131.245 1221.21,-136.91"/>
</g>
<!-- 9&#45;&gt;10 -->
<g id="edge4" class="edge"><title>9&#45;&gt;10</title>
<path fill="none" stroke="black" d="M359.512,-191.001C374.774,-183.408 393.828,-175.31 412,-171.391 462.019,-160.605 1283.26,-175.401 1333,-163.391 1357.58,-157.456 1382.99,-144.846 1402.54,-133.507"/>
<polygon fill="black" stroke="black" points="1404.56,-136.375 1411.36,-128.247 1400.98,-130.363 1404.56,-136.375"/>
</g>
<!-- 10&#45;&gt;10 -->
<g id="edge5" class="edge"><title>10&#45;&gt;10</title>
<path fill="none" stroke="black" d="M1531.79,-122.271C1542.54,-120.01 1549.5,-115.985 1549.5,-110.196 1549.5,-106.397 1546.5,-103.357 1541.4,-101.077"/>
<polygon fill="black" stroke="black" points="1542.38,-97.7163 1531.79,-98.12 1540.32,-104.407 1542.38,-97.7163"/>
</g>
<!-- 11 -->
<g id="node8" class="node"><title>11</title>
<polygon fill="goldenrod" stroke="black" stroke-width="2" points="543,-227.067 421,-227.067 421,-191.067 543,-191.067 543,-227.067"/>
<text text-anchor="middle" x="482" y="-205.367" font-family="Times,serif" font-size="14.00">badHeaders</text>
</g>
<!-- 27 -->
<g id="node20" class="node"><title>27</title>
<polygon fill="goldenrod" stroke="black" stroke-width="2" points="1776.5,-128.196 1567.5,-128.196 1567.5,-92.1956 1776.5,-92.1956 1776.5,-128.196"/>
<text text-anchor="middle" x="1672" y="-106.496" font-family="Times,serif" font-size="14.00">renderThentosHeaderName</text>
</g>
<!-- 11&#45;&gt;27 -->
<g id="edge6" class="edge"><title>11&#45;&gt;27</title>
<path fill="none" stroke="chartreuse" d="M507.402,-191.012C520.196,-183.422 536.295,-175.323 552,-171.391 606.218,-157.819 1503.44,-175.515 1558,-163.391 1584.96,-157.4 1613.2,-144.527 1634.83,-133.065"/>
<polygon fill="chartreuse" stroke="chartreuse" points="1636.55,-136.112 1643.67,-128.263 1633.21,-129.96 1636.55,-136.112"/>
</g>
<!-- 12 -->
<g id="node9" class="node"><title>12</title>
<polygon fill="gold" stroke="black" stroke-width="2" points="236.5,-227.067 15.5,-227.067 15.5,-191.067 236.5,-191.067 236.5,-227.067"/>
<text text-anchor="middle" x="126" y="-205.367" font-family="Times,serif" font-size="14.00">baseActionErrorToServantErr</text>
</g>
<!-- 12&#45;&gt;7 -->
<g id="edge7" class="edge"><title>12&#45;&gt;7</title>
<path fill="none" stroke="black" d="M170.876,-191.043C193.122,-183.461 220.602,-175.359 246,-171.391 279.047,-166.229 815.977,-173.047 848,-163.391 867.28,-157.578 886.338,-145.691 901.12,-134.728"/>
<polygon fill="black" stroke="black" points="903.509,-137.305 909.298,-128.432 899.239,-131.758 903.509,-137.305"/>
</g>
<!-- 19 -->
<g id="node13" class="node"><title>19</title>
<polygon fill="goldenrod" stroke="black" stroke-width="2" points="672.5,-128.196 491.5,-128.196 491.5,-92.1956 672.5,-92.1956 672.5,-128.196"/>
<text text-anchor="middle" x="582" y="-106.496" font-family="Times,serif" font-size="14.00">errorInfoToServantErr</text>
</g>
<!-- 12&#45;&gt;19 -->
<g id="edge8" class="edge"><title>12&#45;&gt;19</title>
<path fill="none" stroke="black" d="M171.764,-190.984C193.866,-183.537 220.967,-175.566 246,-171.391 297.76,-162.759 431.255,-176.753 482,-163.391 505.436,-157.22 529.582,-144.819 548.274,-133.652"/>
<polygon fill="black" stroke="black" points="550.296,-136.518 556.986,-128.302 546.633,-130.553 550.296,-136.518"/>
</g>
<!-- 26 -->
<g id="node19" class="node"><title>26</title>
<polygon fill="goldenrod" stroke="black" stroke-width="2" points="1153.5,-128.196 1018.5,-128.196 1018.5,-92.1956 1153.5,-92.1956 1153.5,-128.196"/>
<text text-anchor="middle" x="1086" y="-106.496" font-family="Times,serif" font-size="14.00">mkServantErr</text>
</g>
<!-- 12&#45;&gt;26 -->
<g id="edge9" class="edge"><title>12&#45;&gt;26</title>
<path fill="none" stroke="black" d="M170.871,-191.012C193.116,-183.422 220.597,-175.323 246,-171.391 287.892,-164.908 968.541,-176.044 1009,-163.391 1027.38,-157.643 1045.35,-145.924 1059.29,-135.044"/>
<polygon fill="black" stroke="black" points="1061.87,-137.461 1067.43,-128.44 1057.46,-132.027 1061.87,-137.461"/>
</g>
<!-- 31 -->
<g id="node22" class="node"><title>31</title>
<polygon fill="goldenrod" stroke="black" stroke-width="2" points="839.5,-128.196 690.5,-128.196 690.5,-92.1956 839.5,-92.1956 839.5,-128.196"/>
<text text-anchor="middle" x="765" y="-106.496" font-family="Times,serif" font-size="14.00">thentosErrorInfo</text>
</g>
<!-- 12&#45;&gt;31 -->
<g id="edge10" class="edge"><title>12&#45;&gt;31</title>
<path fill="none" stroke="black" d="M171.168,-191.003C193.366,-183.462 220.72,-175.406 246,-171.391 293.743,-163.809 634.638,-177.084 681,-163.391 701.006,-157.482 720.944,-145.425 736.371,-134.386"/>
<polygon fill="black" stroke="black" points="738.496,-137.168 744.449,-128.404 734.33,-131.543 738.496,-137.168"/>
</g>
<!-- 13 -->
<g id="node10" class="node"><title>13</title>
<polygon fill="gold" stroke="black" stroke-width="2" points="1184,-227.067 1012,-227.067 1012,-191.067 1184,-191.067 1184,-227.067"/>
<text text-anchor="middle" x="1098" y="-205.367" font-family="Times,serif" font-size="14.00">clearCustomHeaders</text>
</g>
<!-- 14 -->
<g id="node11" class="node"><title>14</title>
<polygon fill="goldenrod" stroke="black" stroke-width="2" points="1180.5,-52 991.5,-52 991.5,-16 1180.5,-16 1180.5,-52"/>
<text text-anchor="middle" x="1086" y="-30.3" font-family="Times,serif" font-size="14.00">contentTypeJsonHeader</text>
</g>
<!-- 18 -->
<g id="node12" class="node"><title>18</title>
<polygon fill="gold" stroke="black" stroke-width="2" points="994,-227.067 872,-227.067 872,-191.067 994,-191.067 994,-227.067"/>
<text text-anchor="middle" x="933" y="-205.367" font-family="Times,serif" font-size="14.00">enterAction</text>
</g>
<!-- 22 -->
<g id="node15" class="node"><title>22</title>
<polygon fill="gold" stroke="black" stroke-width="2" points="853.5,-227.067 734.5,-227.067 734.5,-191.067 853.5,-191.067 853.5,-227.067"/>
<text text-anchor="middle" x="794" y="-205.367" font-family="Times,serif" font-size="14.00">loggerMW</text>
</g>
<!-- 23 -->
<g id="node16" class="node"><title>23</title>
<polygon fill="goldenrod" stroke="black" stroke-width="2" points="228.5,-52 49.5,-52 49.5,-16 228.5,-16 228.5,-52"/>
<text text-anchor="middle" x="139" y="-30.3" font-family="Times,serif" font-size="14.00">lookupThentosHeader</text>
</g>
<!-- 24 -->
<g id="node17" class="node"><title>24</title>
<polygon fill="gold" stroke="black" stroke-width="2" points="473.5,-128.196 254.5,-128.196 254.5,-92.1956 473.5,-92.1956 473.5,-128.196"/>
<text text-anchor="middle" x="364" y="-106.496" font-family="Times,serif" font-size="14.00">lookupThentosHeaderService</text>
</g>
<!-- 24&#45;&gt;3 -->
<g id="edge11" class="edge"><title>24&#45;&gt;3</title>
<path fill="none" stroke="black" d="M364,-91.9872C364,-83.1846 364,-72.2609 364,-62.3396"/>
<polygon fill="black" stroke="black" points="367.5,-62.1151 364,-52.1151 360.5,-62.1152 367.5,-62.1151"/>
</g>
<!-- 24&#45;&gt;23 -->
<g id="edge12" class="edge"><title>24&#45;&gt;23</title>
<path fill="none" stroke="black" d="M312.38,-92.1737C279.056,-81.1847 235.533,-66.8326 200.43,-55.2572"/>
<polygon fill="black" stroke="black" points="201.362,-51.8789 190.768,-52.0711 199.169,-58.5268 201.362,-51.8789"/>
</g>
<!-- 25 -->
<g id="node18" class="node"><title>25</title>
<polygon fill="gold" stroke="black" stroke-width="2" points="236,-128.196 16,-128.196 16,-92.1956 236,-92.1956 236,-128.196"/>
<text text-anchor="middle" x="126" y="-106.496" font-family="Times,serif" font-size="14.00">lookupThentosHeaderSession</text>
</g>
<!-- 25&#45;&gt;3 -->
<g id="edge13" class="edge"><title>25&#45;&gt;3</title>
<path fill="none" stroke="black" d="M180.602,-92.1737C216.002,-81.1377 262.283,-66.7098 299.496,-55.109"/>
<polygon fill="black" stroke="black" points="300.735,-58.3887 309.24,-52.0711 298.652,-51.706 300.735,-58.3887"/>
</g>
<!-- 25&#45;&gt;23 -->
<g id="edge14" class="edge"><title>25&#45;&gt;23</title>
<path fill="none" stroke="black" d="M129.015,-91.9872C130.574,-83.091 132.512,-72.0282 134.265,-62.0233"/>
<polygon fill="black" stroke="black" points="137.723,-62.5692 136.001,-52.1151 130.828,-61.361 137.723,-62.5692"/>
</g>
<!-- 26&#45;&gt;2 -->
<g id="edge15" class="edge"><title>26&#45;&gt;2</title>
<path fill="none" stroke="black" d="M1124.92,-92.0443C1136.92,-87.4124 1150.31,-82.8884 1163,-80 1311.26,-46.2425 1488.26,-37.3394 1594.49,-35.2541"/>
<polygon fill="black" stroke="black" points="1594.61,-38.7526 1604.54,-35.073 1594.48,-31.7537 1594.61,-38.7526"/>
</g>
<!-- 26&#45;&gt;14 -->
<g id="edge16" class="edge"><title>26&#45;&gt;14</title>
<path fill="none" stroke="black" d="M1086,-91.9872C1086,-83.1846 1086,-72.2609 1086,-62.3396"/>
<polygon fill="black" stroke="black" points="1089.5,-62.1151 1086,-52.1151 1082.5,-62.1152 1089.5,-62.1151"/>
</g>
<!-- 27&#45;&gt;3 -->
<g id="edge17" class="edge"><title>27&#45;&gt;3</title>
<path fill="none" stroke="black" stroke-width="2.38629" d="M1615.36,-92.1569C1597.21,-87.3793 1576.9,-82.7449 1558,-80 1453.19,-64.7813 755.721,-45.2055 477.895,-37.9098"/>
<polygon fill="black" stroke="black" stroke-width="2.38629" points="477.877,-34.4083 467.789,-37.645 477.694,-41.4059 477.877,-34.4083"/>
</g>
<!-- 30 -->
<g id="node21" class="node"><title>30</title>
<polygon fill="gold" stroke="black" stroke-width="2" points="716.5,-227.067 561.5,-227.067 561.5,-191.067 716.5,-191.067 716.5,-227.067"/>
<text text-anchor="middle" x="639" y="-205.367" font-family="Times,serif" font-size="14.00">runWarpWithCfg</text>
</g>
<!-- 35 -->
<g id="node23" class="node"><title>35</title>
<polygon fill="khaki" stroke="black" stroke-dasharray="5,2" points="2175.4,-195.053 2175.4,-223.082 2111.31,-242.902 2020.69,-242.902 1956.6,-223.082 1956.6,-195.053 2020.69,-175.233 2111.31,-175.233 2175.4,-195.053"/>
<polygon fill="none" stroke="black" stroke-dasharray="5,2" points="2179.39,-192.085 2179.39,-226.05 2111.91,-246.921 2020.09,-246.921 1952.61,-226.05 1952.61,-192.085 2020.09,-171.214 2111.91,-171.214 2179.39,-192.085"/>
<text text-anchor="middle" x="2066" y="-212.867" font-family="Times,serif" font-size="14.00">Data.Aeson</text>
<text text-anchor="middle" x="2066" y="-197.867" font-family="Times,serif" font-size="14.00">Class: ToJSON</text>
</g>
<!-- 32 -->
<g id="node28" class="node"><title>32</title>
<polygon fill="bisque" stroke="black" stroke-width="2" points="4698.99,-100.92 4698.99,-119.471 4582.42,-132.589 4417.58,-132.589 4301.01,-119.471 4301.01,-100.92 4417.58,-87.8026 4582.42,-87.8026 4698.99,-100.92"/>
<text text-anchor="middle" x="4500" y="-106.496" font-family="Times,serif" font-size="14.00">Class: ToJSON, Data: ErrorMessage</text>
</g>
<!-- 35&#45;&gt;32 -->
<g id="edge20" class="edge"><title>35&#45;&gt;32</title>
<path fill="none" stroke="navy" d="M2179.64,-207.29C2604.01,-204.182 4082.36,-191.432 4292,-163.391 4339.42,-157.049 4391.64,-143.922 4431.9,-132.421"/>
</g>
<!-- 36 -->
<g id="node24" class="node"><title>36</title>
<polygon fill="khaki" stroke="black" stroke-dasharray="1,5" points="1662.86,-195.053 1662.86,-223.082 1592.06,-242.902 1491.94,-242.902 1421.14,-223.082 1421.14,-195.053 1491.94,-175.233 1592.06,-175.233 1662.86,-195.053"/>
<polygon fill="none" stroke="black" stroke-dasharray="1,5" points="1666.86,-192 1666.86,-226.135 1592.61,-246.921 1491.39,-246.921 1417.14,-226.135 1417.14,-192 1491.39,-171.214 1592.61,-171.214 1666.86,-192"/>
<text text-anchor="middle" x="1542" y="-212.867" font-family="Times,serif" font-size="14.00">Unknown Module</text>
<text text-anchor="middle" x="1542" y="-197.867" font-family="Times,serif" font-size="14.00">Class: HasServer</text>
</g>
<!-- 28 -->
<g id="node26" class="node"><title>28</title>
<polygon fill="cyan" stroke="black" stroke-width="2" points="3274.01,-100.92 3274.01,-119.471 3142.79,-132.589 2957.21,-132.589 2825.99,-119.471 2825.99,-100.92 2957.21,-87.8026 3142.79,-87.8026 3274.01,-100.92"/>
<text text-anchor="middle" x="3050" y="-106.496" font-family="Times,serif" font-size="14.00">Class: HasServer, Data: (Post200 ctypes a)</text>
</g>
<!-- 36&#45;&gt;28 -->
<g id="edge21" class="edge"><title>36&#45;&gt;28</title>
<path fill="none" stroke="navy" d="M1627.81,-181.043C1643.69,-177.058 1660.23,-173.567 1676,-171.391 1801.48,-154.081 2690.14,-177.705 2816,-163.391 2869.45,-157.312 2928.58,-144.066 2974.02,-132.44"/>
</g>
<!-- 29 -->
<g id="node27" class="node"><title>29</title>
<polygon fill="bisque" stroke="black" stroke-width="2" points="2807.14,-100.92 2807.14,-119.471 2630.15,-132.589 2379.85,-132.589 2202.86,-119.471 2202.86,-100.92 2379.85,-87.8026 2630.15,-87.8026 2807.14,-100.92"/>
<text text-anchor="middle" x="2505" y="-106.496" font-family="Times,serif" font-size="14.00">Class: HasServer, Data: (ThentosAssertHeaders :&gt; subserver)</text>
</g>
<!-- 36&#45;&gt;29 -->
<g id="edge22" class="edge"><title>36&#45;&gt;29</title>
<path fill="none" stroke="navy" d="M1628.19,-181.063C1643.95,-177.105 1660.36,-173.617 1676,-171.391 1789.32,-155.267 2077.01,-173.693 2191,-163.391 2261.59,-157.012 2340.25,-143.925 2401.19,-132.451"/>
</g>
<!-- 37 -->
<g id="node25" class="node"><title>37</title>
<polygon fill="khaki" stroke="black" stroke-dasharray="1,5" points="1930.86,-195.053 1930.86,-223.082 1860.06,-242.902 1759.94,-242.902 1689.14,-223.082 1689.14,-195.053 1759.94,-175.233 1860.06,-175.233 1930.86,-195.053"/>
<polygon fill="none" stroke="black" stroke-dasharray="1,5" points="1934.86,-192 1934.86,-226.135 1860.61,-246.921 1759.39,-246.921 1685.14,-226.135 1685.14,-192 1759.39,-171.214 1860.61,-171.214 1934.86,-192"/>
<text text-anchor="middle" x="1810" y="-212.867" font-family="Times,serif" font-size="14.00">Unknown Module</text>
<text text-anchor="middle" x="1810" y="-197.867" font-family="Times,serif" font-size="14.00">Class: HasLink</text>
</g>
<!-- 33 -->
<g id="node29" class="node"><title>33</title>
<polygon fill="cyan" stroke="black" stroke-width="2" points="4282.7,-100.92 4282.7,-119.471 4155.76,-132.589 3976.24,-132.589 3849.3,-119.471 3849.3,-100.92 3976.24,-87.8026 4155.76,-87.8026 4282.7,-100.92"/>
<text text-anchor="middle" x="4066" y="-106.496" font-family="Times,serif" font-size="14.00">Class: HasLink, Data: (Post200 ctypes a)</text>
</g>
<!-- 37&#45;&gt;33 -->
<g id="edge23" class="edge"><title>37&#45;&gt;33</title>
<path fill="none" stroke="navy" d="M1895.81,-181.006C1911.68,-177.026 1928.23,-173.545 1944,-171.391 2048.37,-157.142 3735.37,-175.54 3840,-163.391 3891.8,-157.377 3949.03,-144.09 3992.93,-132.429"/>
</g>
<!-- 34 -->
<g id="node30" class="node"><title>34</title>
<polygon fill="cyan" stroke="black" stroke-width="2" points="3831.32,-100.92 3831.32,-119.471 3673.56,-132.589 3450.44,-132.589 3292.68,-119.471 3292.68,-100.92 3450.44,-87.8026 3673.56,-87.8026 3831.32,-100.92"/>
<text text-anchor="middle" x="3562" y="-106.496" font-family="Times,serif" font-size="14.00">Class: HasLink, Data: (ThentosAssertHeaders :&gt; sub)</text>
</g>
<!-- 37&#45;&gt;34 -->
<g id="edge24" class="edge"><title>37&#45;&gt;34</title>
<path fill="none" stroke="navy" d="M1895.81,-181.029C1911.68,-177.046 1928.23,-173.559 1944,-171.391 2091.4,-151.136 3134.9,-177.572 3283,-163.391 3346.4,-157.321 3416.9,-144.075 3471.17,-132.447"/>
</g>
<!-- 29&#45;&gt;11 -->
<g id="edge18" class="edge"><title>29&#45;&gt;11</title>
<path fill="none" stroke="chartreuse" d="M2402.99,-132.395C2341.82,-144.044 2262.31,-157.33 2191,-163.391 2145.64,-167.248 596.182,-160.403 552,-171.391 539.726,-174.444 527.214,-180.054 516.228,-185.984"/>
<polygon fill="chartreuse" stroke="chartreuse" points="514.37,-183.014 507.397,-190.991 517.822,-189.103 514.37,-183.014"/>
</g>
<!-- 32&#45;&gt;2 -->
<g id="edge19" class="edge"><title>32&#45;&gt;2</title>
<path fill="none" stroke="black" d="M4388.82,-91.033C4357.58,-86.6272 4323.54,-82.4766 4292,-80 3789.98,-40.576 2189.75,-35.6895 1783.49,-35.0851"/>
<polygon fill="black" stroke="black" points="1783.26,-31.5848 1773.26,-35.0704 1783.25,-38.5848 1783.26,-31.5848"/>
</g>
</g>
</svg>
