<?xml version="1.0" encoding="UTF-8" standalone="no"?>
<!DOCTYPE svg PUBLIC "-//W3C//DTD SVG 1.1//EN"
 "http://www.w3.org/Graphics/SVG/1.1/DTD/svg11.dtd">
<!-- Generated by graphviz version 2.38.0 (20140413.2041)
 -->
<!-- Title: Diagram of: Thentos.Frontend Pages: 1 -->
<svg width="373pt" height="188pt"
 viewBox="0.00 0.00 373.00 188.00" xmlns="http://www.w3.org/2000/svg" xmlns:xlink="http://www.w3.org/1999/xlink">
<g id="graph0" class="graph" transform="scale(1 1) rotate(0) translate(4 184)">
<title>Diagram of: Thentos.Frontend</title>
<polygon fill="white" stroke="none" points="-4,4 -4,-184 369,-184 369,4 -4,4"/>
<!-- 1 -->
<g id="node1" class="node"><title>1</title>
<polygon fill="bisque" stroke="black" stroke-width="2" points="247.5,-108 133.5,-108 133.5,-72 247.5,-72 247.5,-108"/>
<text text-anchor="middle" x="190.5" y="-86.3" font-family="Times,serif" font-size="14.00">frontendH</text>
</g>
<!-- 3 -->
<g id="node3" class="node"><title>3</title>
<polygon fill="cyan" stroke="black" stroke-width="2" points="107,-36 0,-36 0,-0 107,-0 107,-36"/>
<text text-anchor="middle" x="53.5" y="-14.3" font-family="Times,serif" font-size="14.00">serviceH</text>
</g>
<!-- 1&#45;&gt;3 -->
<g id="edge1" class="edge"><title>1&#45;&gt;3</title>
<path fill="none" stroke="black" d="M156.986,-71.8761C138.659,-62.5117 115.764,-50.8136 96.1716,-40.803"/>
<polygon fill="black" stroke="black" points="97.6402,-37.623 87.1428,-36.1898 94.4552,-43.8565 97.6402,-37.623"/>
</g>
<!-- 4 -->
<g id="node4" class="node"><title>4</title>
<polygon fill="cyan" stroke="black" stroke-width="2" points="255.5,-36 125.5,-36 125.5,-0 255.5,-0 255.5,-36"/>
<text text-anchor="middle" x="190.5" y="-14.3" font-family="Times,serif" font-size="14.00">staticContent</text>
</g>
<!-- 1&#45;&gt;4 -->
<g id="edge2" class="edge"><title>1&#45;&gt;4</title>
<path fill="none" stroke="black" d="M190.5,-71.6966C190.5,-63.9827 190.5,-54.7125 190.5,-46.1124"/>
<polygon fill="black" stroke="black" points="194,-46.1043 190.5,-36.1043 187,-46.1044 194,-46.1043"/>
</g>
<!-- 5 -->
<g id="node5" class="node"><title>5</title>
<polygon fill="cyan" stroke="black" stroke-width="2" points="365,-36 274,-36 274,-0 365,-0 365,-36"/>
<text text-anchor="middle" x="319.5" y="-14.3" font-family="Times,serif" font-size="14.00">userH</text>
</g>
<!-- 1&#45;&gt;5 -->
<g id="edge3" class="edge"><title>1&#45;&gt;5</title>
<path fill="none" stroke="black" d="M222.057,-71.8761C239.158,-62.5965 260.482,-51.0251 278.819,-41.0752"/>
<polygon fill="black" stroke="black" points="280.702,-44.0355 287.822,-36.1898 277.363,-37.8829 280.702,-44.0355"/>
</g>
<!-- 2 -->
<g id="node2" class="node"><title>2</title>
<polygon fill="gold" stroke="black" stroke-width="2" points="253,-180 128,-180 128,-144 253,-144 253,-180"/>
<text text-anchor="middle" x="190.5" y="-158.3" font-family="Times,serif" font-size="14.00">runFrontend</text>
</g>
<!-- 2&#45;&gt;1 -->
<g id="edge4" class="edge"><title>2&#45;&gt;1</title>
<path fill="none" stroke="chartreuse" d="M190.5,-143.697C190.5,-135.983 190.5,-126.712 190.5,-118.112"/>
<polygon fill="chartreuse" stroke="chartreuse" points="194,-118.104 190.5,-108.104 187,-118.104 194,-118.104"/>
</g>
</g>
</svg>
