<?xml version="1.0" encoding="UTF-8" standalone="no"?>
<!DOCTYPE svg PUBLIC "-//W3C//DTD SVG 1.1//EN"
 "http://www.w3.org/Graphics/SVG/1.1/DTD/svg11.dtd">
<!-- Generated by graphviz version 2.38.0 (20140413.2041)
 -->
<!-- Title: Levels within Thentos Pages: 1 -->
<svg width="786pt" height="246pt"
 viewBox="0.00 0.00 786.00 246.00" xmlns="http://www.w3.org/2000/svg" xmlns:xlink="http://www.w3.org/1999/xlink">
<g id="graph0" class="graph" transform="scale(1 1) rotate(0) translate(4 242)">
<title>Levels within Thentos</title>
<polygon fill="white" stroke="none" points="-4,4 -4,-242 782,-242 782,4 -4,4"/>
<g id="clust1" class="cluster"><title>cluster_0</title>
<polygon fill="lavender" stroke="black" points="8,-8 8,-230 624,-230 624,-8 8,-8"/>
<text text-anchor="middle" x="316" y="-214.8" font-family="Times,serif" font-size="14.00">Exported root entities</text>
</g>
<g id="clust2" class="cluster"><title>cluster_1</title>
<polygon fill="lavender" stroke="black" points="632,-8 632,-83 770,-83 770,-8 632,-8"/>
<text text-anchor="middle" x="701" y="-67.8" font-family="Times,serif" font-size="14.00">Level = 1</text>
</g>
<!-- 1 -->
<g id="node1" class="node"><title>1</title>
<polygon fill="goldenrod" stroke="black" stroke-width="2" points="220,-52 16,-52 16,-16 220,-16 220,-52"/>
<text text-anchor="middle" x="118" y="-30.3" font-family="Times,serif" font-size="14.00">autocreateMissingServices</text>
</g>
<!-- 2 -->
<g id="node2" class="node"><title>2</title>
<polygon fill="goldenrod" stroke="black" stroke-width="2" points="440.5,-52 237.5,-52 237.5,-16 440.5,-16 440.5,-52"/>
<text text-anchor="middle" x="339" y="-30.3" font-family="Times,serif" font-size="14.00">createConnPoolAndInitDb</text>
</g>
<!-- 3 -->
<g id="node3" class="node"><title>3</title>
<polygon fill="goldenrod" stroke="black" stroke-width="2" points="615.5,-52 458.5,-52 458.5,-16 615.5,-16 615.5,-52"/>
<text text-anchor="middle" x="537" y="-30.3" font-family="Times,serif" font-size="14.00">createDefaultUser</text>
</g>
<!-- 4 -->
<g id="node4" class="node"><title>4</title>
<polygon fill="gold" stroke="black" stroke-width="2" points="481,-199 395,-199 395,-163 481,-163 481,-199"/>
<text text-anchor="middle" x="438" y="-177.3" font-family="Times,serif" font-size="14.00">main</text>
</g>
<!-- 5 -->
<g id="node5" class="node"><title>5</title>
<polygon fill="goldenrod" stroke="black" stroke-width="2" points="497,-127 379,-127 379,-91 497,-91 497,-127"/>
<text text-anchor="middle" x="438" y="-105.3" font-family="Times,serif" font-size="14.00">makeMain</text>
</g>
<!-- 4&#45;&gt;5 -->
<g id="edge1" class="edge"><title>4&#45;&gt;5</title>
<path fill="none" stroke="chartreuse" d="M438,-162.697C438,-154.983 438,-145.712 438,-137.112"/>
<polygon fill="chartreuse" stroke="chartreuse" points="441.5,-137.104 438,-127.104 434.5,-137.104 441.5,-137.104"/>
</g>
<!-- 5&#45;&gt;1 -->
<g id="edge2" class="edge"><title>5&#45;&gt;1</title>
<path fill="none" stroke="black" d="M378.577,-105.464C336.269,-102.557 278.394,-96.3304 229,-83 205.376,-76.6245 180.257,-66.1059 159.9,-56.5377"/>
<polygon fill="black" stroke="black" points="161.142,-53.2515 150.612,-52.0835 158.115,-59.5634 161.142,-53.2515"/>
</g>
<!-- 5&#45;&gt;2 -->
<g id="edge3" class="edge"><title>5&#45;&gt;2</title>
<path fill="none" stroke="black" d="M414.789,-90.8847C401.507,-81.0914 384.669,-68.6751 370.239,-58.0346"/>
<polygon fill="black" stroke="black" points="372.191,-55.1258 362.066,-52.008 368.037,-60.7598 372.191,-55.1258"/>
</g>
<!-- 5&#45;&gt;3 -->
<g id="edge4" class="edge"><title>5&#45;&gt;3</title>
<path fill="none" stroke="black" d="M461.211,-90.8847C474.493,-81.0914 491.331,-68.6751 505.761,-58.0346"/>
<polygon fill="black" stroke="black" points="507.963,-60.7598 513.934,-52.008 503.809,-55.1258 507.963,-60.7598"/>
</g>
<!-- 6 -->
<g id="node6" class="node"><title>6</title>
<polygon fill="cyan" stroke="black" stroke-width="2" points="761.5,-52 640.5,-52 640.5,-16 761.5,-16 761.5,-52"/>
<text text-anchor="middle" x="701" y="-30.3" font-family="Times,serif" font-size="14.00">runGcLoop</text>
</g>
<!-- 5&#45;&gt;6 -->
<g id="edge5" class="edge"><title>5&#45;&gt;6</title>
<path fill="none" stroke="black" d="M497.002,-107.023C535.37,-104.76 585.905,-98.6643 628,-83 643.708,-77.1547 659.457,-67.4125 672.284,-58.2266"/>
<polygon fill="black" stroke="black" points="674.716,-60.7802 680.661,-52.0107 670.545,-55.1586 674.716,-60.7802"/>
</g>
</g>
</svg>
