<?xml version="1.0" encoding="UTF-8" standalone="no"?>
<!DOCTYPE svg PUBLIC "-//W3C//DTD SVG 1.1//EN"
 "http://www.w3.org/Graphics/SVG/1.1/DTD/svg11.dtd">
<!-- Generated by graphviz version 2.38.0 (20140413.2041)
 -->
<!-- Title: Diagram of: Thentos.Frontend.Handlers.Combinators Pages: 1 -->
<svg width="1597pt" height="260pt"
 viewBox="0.00 0.00 1596.50 260.00" xmlns="http://www.w3.org/2000/svg" xmlns:xlink="http://www.w3.org/1999/xlink">
<g id="graph0" class="graph" transform="scale(1 1) rotate(0) translate(4 256)">
<title>Diagram of: Thentos.Frontend.Handlers.Combinators</title>
<polygon fill="white" stroke="none" points="-4,4 -4,-256 1592.5,-256 1592.5,4 -4,4"/>
<!-- 1 -->
<g id="node1" class="node"><title>1</title>
<polygon fill="goldenrod" stroke="black" stroke-width="2" points="458.5,-108 277.5,-108 277.5,-72 458.5,-72 458.5,-108"/>
<text text-anchor="middle" x="368" y="-86.3" font-family="Times,serif" font-size="14.00">clearAllFrontendMsgs</text>
</g>
<!-- 2 -->
<g id="node2" class="node"><title>2</title>
<polygon fill="gold" stroke="black" stroke-width="2" points="807,-252 653,-252 653,-216 807,-216 807,-252"/>
<text text-anchor="middle" x="730" y="-230.3" font-family="Times,serif" font-size="14.00">emailConfirmUrl</text>
</g>
<!-- 3 -->
<g id="node3" class="node"><title>3</title>
<polygon fill="gold" stroke="black" stroke-width="2" points="1000.5,-252 825.5,-252 825.5,-216 1000.5,-216 1000.5,-252"/>
<text text-anchor="middle" x="913" y="-230.3" font-family="Times,serif" font-size="14.00">getServiceLoginState</text>
</g>
<!-- 4 -->
<g id="node4" class="node"><title>4</title>
<polygon fill="gold" stroke="black" stroke-width="2" points="1103,-252 1019,-252 1019,-216 1103,-216 1103,-252"/>
<text text-anchor="middle" x="1061" y="-230.3" font-family="Times,serif" font-size="14.00">liftU</text>
</g>
<!-- 5 -->
<g id="node5" class="node"><title>5</title>
<polygon fill="goldenrod" stroke="black" stroke-width="2" points="1250.5,-108 1149.5,-108 1149.5,-72 1250.5,-72 1250.5,-108"/>
<text text-anchor="middle" x="1200" y="-86.3" font-family="Times,serif" font-size="14.00">loggerF</text>
</g>
<!-- 6 -->
<g id="node6" class="node"><title>6</title>
<polygon fill="goldenrod" stroke="black" stroke-width="2" points="1251.5,-36 1148.5,-36 1148.5,-0 1251.5,-0 1251.5,-36"/>
<text text-anchor="middle" x="1200" y="-14.3" font-family="Times,serif" font-size="14.00">loggerU</text>
</g>
<!-- 5&#45;&gt;6 -->
<g id="edge1" class="edge"><title>5&#45;&gt;6</title>
<path fill="none" stroke="chartreuse" d="M1200,-71.6966C1200,-63.9827 1200,-54.7125 1200,-46.1124"/>
<polygon fill="chartreuse" stroke="chartreuse" points="1203.5,-46.1043 1200,-36.1043 1196.5,-46.1044 1203.5,-46.1043"/>
</g>
<!-- 7 -->
<g id="node7" class="node"><title>7</title>
<polygon fill="gold" stroke="black" stroke-width="2" points="1475.5,-252 1296.5,-252 1296.5,-216 1475.5,-216 1475.5,-252"/>
<text text-anchor="middle" x="1386" y="-230.3" font-family="Times,serif" font-size="14.00">popServiceLoginState</text>
</g>
<!-- 8 -->
<g id="node8" class="node"><title>8</title>
<polygon fill="goldenrod" stroke="black" stroke-width="2" points="249,-36 147,-36 147,-0 249,-0 249,-36"/>
<text text-anchor="middle" x="198" y="-14.3" font-family="Times,serif" font-size="14.00">redirect&#39;</text>
</g>
<!-- 9 -->
<g id="node9" class="node"><title>9</title>
<polygon fill="gold" stroke="black" stroke-width="2" points="118,-108 0,-108 0,-72 118,-72 118,-108"/>
<text text-anchor="middle" x="59" y="-86.3" font-family="Times,serif" font-size="14.00">redirectRR</text>
</g>
<!-- 9&#45;&gt;8 -->
<g id="edge2" class="edge"><title>9&#45;&gt;8</title>
<path fill="none" stroke="black" d="M93.0032,-71.8761C111.598,-62.5117 134.827,-50.8136 154.706,-40.803"/>
<polygon fill="black" stroke="black" points="156.509,-43.8136 163.866,-36.1898 153.36,-37.5616 156.509,-43.8136"/>
</g>
<!-- 10 -->
<g id="node10" class="node"><title>10</title>
<polygon fill="gold" stroke="black" stroke-width="2" points="259.5,-108 136.5,-108 136.5,-72 259.5,-72 259.5,-108"/>
<text text-anchor="middle" x="198" y="-86.3" font-family="Times,serif" font-size="14.00">redirectURI</text>
</g>
<!-- 10&#45;&gt;8 -->
<g id="edge3" class="edge"><title>10&#45;&gt;8</title>
<path fill="none" stroke="black" d="M198,-71.6966C198,-63.9827 198,-54.7125 198,-46.1124"/>
<polygon fill="black" stroke="black" points="201.5,-46.1043 198,-36.1043 194.5,-46.1044 201.5,-46.1043"/>
</g>
<!-- 11 -->
<g id="node11" class="node"><title>11</title>
<polygon fill="gold" stroke="black" stroke-width="2" points="635,-252 483,-252 483,-216 635,-216 635,-252"/>
<text text-anchor="middle" x="559" y="-230.3" font-family="Times,serif" font-size="14.00">renderDashboard</text>
</g>
<!-- 12 -->
<g id="node12" class="node"><title>12</title>
<polygon fill="goldenrod" stroke="black" stroke-width="2" points="636,-180 482,-180 482,-144 636,-144 636,-180"/>
<text text-anchor="middle" x="559" y="-158.3" font-family="Times,serif" font-size="14.00">renderDashboard&#39;</text>
</g>
<!-- 11&#45;&gt;12 -->
<g id="edge4" class="edge"><title>11&#45;&gt;12</title>
<path fill="none" stroke="chartreuse" d="M559,-215.697C559,-207.983 559,-198.712 559,-190.112"/>
<polygon fill="chartreuse" stroke="chartreuse" points="562.5,-190.104 559,-180.104 555.5,-190.104 562.5,-190.104"/>
</g>
<!-- 12&#45;&gt;1 -->
<g id="edge5" class="edge"><title>12&#45;&gt;1</title>
<path fill="none" stroke="black" d="M512.276,-143.876C485.701,-134.137 452.238,-121.872 424.231,-111.608"/>
<polygon fill="black" stroke="black" points="425.166,-108.223 414.572,-108.068 422.757,-114.796 425.166,-108.223"/>
</g>
<!-- 14 -->
<g id="node14" class="node"><title>14</title>
<polygon fill="goldenrod" stroke="black" stroke-width="2" points="641,-108 477,-108 477,-72 641,-72 641,-108"/>
<text text-anchor="middle" x="559" y="-86.3" font-family="Times,serif" font-size="14.00">runAsUserOrLogin</text>
</g>
<!-- 12&#45;&gt;14 -->
<g id="edge6" class="edge"><title>12&#45;&gt;14</title>
<path fill="none" stroke="black" d="M559,-143.697C559,-135.983 559,-126.712 559,-118.112"/>
<polygon fill="black" stroke="black" points="562.5,-118.104 559,-108.104 555.5,-118.104 562.5,-118.104"/>
</g>
<!-- 13 -->
<g id="node13" class="node"><title>13</title>
<polygon fill="goldenrod" stroke="black" stroke-width="2" points="617.5,-36 500.5,-36 500.5,-0 617.5,-0 617.5,-36"/>
<text text-anchor="middle" x="559" y="-14.3" font-family="Times,serif" font-size="14.00">runAsUser</text>
</g>
<!-- 14&#45;&gt;8 -->
<g id="edge7" class="edge"><title>14&#45;&gt;8</title>
<path fill="none" stroke="black" d="M476.632,-73.0283C410.437,-60.1927 318.943,-42.4516 259.137,-30.8549"/>
<polygon fill="black" stroke="black" points="259.57,-27.3737 249.087,-28.9061 258.238,-34.2457 259.57,-27.3737"/>
</g>
<!-- 14&#45;&gt;13 -->
<g id="edge8" class="edge"><title>14&#45;&gt;13</title>
<path fill="none" stroke="black" d="M559,-71.6966C559,-63.9827 559,-54.7125 559,-46.1124"/>
<polygon fill="black" stroke="black" points="562.5,-46.1043 559,-36.1043 555.5,-46.1044 562.5,-46.1043"/>
</g>
<!-- 15 -->
<g id="node15" class="node"><title>15</title>
<polygon fill="gold" stroke="black" stroke-width="2" points="1278.5,-252 1121.5,-252 1121.5,-216 1278.5,-216 1278.5,-252"/>
<text text-anchor="middle" x="1200" y="-230.3" font-family="Times,serif" font-size="14.00">sendFrontendMsg</text>
</g>
<!-- 16 -->
<g id="node16" class="node"><title>16</title>
<polygon fill="goldenrod" stroke="black" stroke-width="2" points="1281,-180 1119,-180 1119,-144 1281,-144 1281,-180"/>
<text text-anchor="middle" x="1200" y="-158.3" font-family="Times,serif" font-size="14.00">sendFrontendMsgs</text>
</g>
<!-- 15&#45;&gt;16 -->
<g id="edge9" class="edge"><title>15&#45;&gt;16</title>
<path fill="none" stroke="chartreuse" d="M1200,-215.697C1200,-207.983 1200,-198.712 1200,-190.112"/>
<polygon fill="chartreuse" stroke="chartreuse" points="1203.5,-190.104 1200,-180.104 1196.5,-190.104 1203.5,-190.104"/>
</g>
<!-- 16&#45;&gt;5 -->
<g id="edge10" class="edge"><title>16&#45;&gt;5</title>
<path fill="none" stroke="chartreuse" d="M1200,-143.697C1200,-135.983 1200,-126.712 1200,-118.112"/>
<polygon fill="chartreuse" stroke="chartreuse" points="1203.5,-118.104 1200,-108.104 1196.5,-118.104 1203.5,-118.104"/>
</g>
<!-- 17 -->
<g id="node17" class="node"><title>17</title>
<polygon fill="gold" stroke="black" stroke-width="2" points="1588.5,-252 1493.5,-252 1493.5,-216 1588.5,-216 1588.5,-252"/>
<text text-anchor="middle" x="1541" y="-230.3" font-family="Times,serif" font-size="14.00">setTab</text>
</g>
<!-- 18 -->
<g id="node18" class="node"><title>18</title>
<polygon fill="gold" stroke="black" stroke-width="2" points="464,-180 270,-180 270,-144 464,-144 464,-180"/>
<text text-anchor="middle" x="367" y="-158.3" font-family="Times,serif" font-size="14.00">showPageWithMessages</text>
</g>
<!-- 18&#45;&gt;1 -->
<g id="edge11" class="edge"><title>18&#45;&gt;1</title>
<path fill="none" stroke="black" d="M367.247,-143.697C367.357,-135.983 367.49,-126.712 367.613,-118.112"/>
<polygon fill="black" stroke="black" points="371.112,-118.153 367.756,-108.104 364.113,-118.053 371.112,-118.153"/>
</g>
</g>
</svg>
