<?xml version="1.0" encoding="UTF-8" standalone="no"?>
<!DOCTYPE svg PUBLIC "-//W3C//DTD SVG 1.1//EN"
 "http://www.w3.org/Graphics/SVG/1.1/DTD/svg11.dtd">
<!-- Generated by graphviz version 2.38.0 (20140413.2041)
 -->
<!-- Title: Core of Thentos.Backend.Api.Docs.Proxy Pages: 1 -->
<svg width="294pt" height="250pt"
 viewBox="0.00 0.00 294.00 249.74" xmlns="http://www.w3.org/2000/svg" xmlns:xlink="http://www.w3.org/1999/xlink">
<g id="graph0" class="graph" transform="scale(1 1) rotate(0) translate(4 245.744)">
<title>Core of Thentos.Backend.Api.Docs.Proxy</title>
<polygon fill="white" stroke="none" points="-4,4 -4,-245.744 290,-245.744 290,4 -4,4"/>
<g id="clust1" class="cluster"><title>cluster_Class_HasDocs</title>
<path fill="#ffc1c1" stroke="black" d="M20,-8C20,-8 266,-8 266,-8 272,-8 278,-14 278,-20 278,-20 278,-221.744 278,-221.744 278,-227.744 272,-233.744 266,-233.744 266,-233.744 20,-233.744 20,-233.744 14,-233.744 8,-227.744 8,-221.744 8,-221.744 8,-20 8,-20 8,-14 14,-8 20,-8"/>
<text text-anchor="middle" x="143" y="-218.544" font-family="Times,serif" font-size="14.00">Class: HasDocs</text>
</g>
<g id="clust2" class="cluster"><title>cluster_Class_HasDocs_Data_sublayoutServiceProxy</title>
<path fill="#c6e2ff" stroke="black" d="M28,-119.352C28,-119.352 258,-119.352 258,-119.352 264,-119.352 270,-125.352 270,-131.352 270,-131.352 270,-190.744 270,-190.744 270,-196.744 264,-202.744 258,-202.744 258,-202.744 28,-202.744 28,-202.744 22,-202.744 16,-196.744 16,-190.744 16,-190.744 16,-131.352 16,-131.352 16,-125.352 22,-119.352 28,-119.352"/>
<text text-anchor="middle" x="143" y="-187.544" font-family="Times,serif" font-size="14.00">Instance for: (sublayout :&lt;|&gt; ServiceProxy)</text>
</g>
<!-- 1 -->
<g id="node1" class="node"><title>1</title>
<polygon fill="bisque" stroke="black" stroke-width="2" points="221.135,-140.272 221.135,-158.823 175.365,-171.941 110.635,-171.941 64.8651,-158.823 64.8651,-140.272 110.635,-127.155 175.365,-127.155 221.135,-140.272"/>
<text text-anchor="middle" x="143" y="-145.848" font-family="Times,serif" font-size="14.00">docsFor</text>
</g>
<!-- 3 -->
<g id="node2" class="node"><title>3</title>
<polygon fill="khaki" stroke="black" stroke-dasharray="1,5" points="263.858,-39.6615 263.858,-67.6908 193.061,-87.5105 92.9389,-87.5105 22.1417,-67.6908 22.1417,-39.6615 92.9389,-19.8418 193.061,-19.8418 263.858,-39.6615"/>
<polygon fill="none" stroke="black" stroke-dasharray="1,5" points="267.856,-36.609 267.856,-70.7433 193.607,-91.5293 92.3926,-91.5293 18.144,-70.7433 18.144,-36.609 92.3926,-15.823 193.607,-15.823 267.856,-36.609"/>
<text text-anchor="middle" x="143" y="-57.4761" font-family="Times,serif" font-size="14.00">Unknown Module</text>
<text text-anchor="middle" x="143" y="-42.4761" font-family="Times,serif" font-size="14.00">docsFor</text>
</g>
<!-- 1&#45;&gt;3 -->
<g id="edge1" class="edge"><title>1&#45;&gt;3</title>
<path fill="none" stroke="chartreuse" d="M137.239,-127.247C136.577,-119.544 136.247,-110.511 136.25,-101.485"/>
<polygon fill="chartreuse" stroke="chartreuse" points="139.751,-101.418 136.395,-91.3685 132.752,-101.317 139.751,-101.418"/>
</g>
<!-- 3&#45;&gt;1 -->
<g id="edge2" class="edge"><title>3&#45;&gt;1</title>
<path fill="none" stroke="navy" d="M149.605,-91.3685C149.954,-103.525 149.673,-116.645 148.761,-127.247"/>
</g>
</g>
</svg>
