<?xml version="1.0" encoding="UTF-8" standalone="no"?>
<!DOCTYPE svg PUBLIC "-//W3C//DTD SVG 1.1//EN"
 "http://www.w3.org/Graphics/SVG/1.1/DTD/svg11.dtd">
<!-- Generated by graphviz version 2.38.0 (20140413.2041)
 -->
<!-- Title: Levels within Thentos.Backend.Api.Auth Pages: 1 -->
<svg width="992pt" height="230pt"
 viewBox="0.00 0.00 992.00 229.74" xmlns="http://www.w3.org/2000/svg" xmlns:xlink="http://www.w3.org/1999/xlink">
<g id="graph0" class="graph" transform="scale(1 1) rotate(0) translate(4 225.744)">
<title>Levels within Thentos.Backend.Api.Auth</title>
<polygon fill="white" stroke="none" points="-4,4 -4,-225.744 988,-225.744 988,4 -4,4"/>
<g id="clust1" class="cluster"><title>cluster_0</title>
<polygon fill="lavender" stroke="black" points="221,-99.3913 221,-213.744 755,-213.744 755,-99.3913 221,-99.3913"/>
<text text-anchor="middle" x="488" y="-198.544" font-family="Times,serif" font-size="14.00">Exported root entities</text>
</g>
<g id="clust2" class="cluster"><title>cluster_1</title>
<polygon fill="lavender" stroke="black" points="8,-8 8,-91.3913 976,-91.3913 976,-8 8,-8"/>
<text text-anchor="middle" x="492" y="-76.1913" font-family="Times,serif" font-size="14.00">Level = 1</text>
</g>
<!-- 3 -->
<g id="node1" class="node"><title>3</title>
<polygon fill="khaki" stroke="black" stroke-dasharray="1,5" points="742.858,-131.053 742.858,-159.082 672.061,-178.902 571.939,-178.902 501.142,-159.082 501.142,-131.053 571.939,-111.233 672.061,-111.233 742.858,-131.053"/>
<polygon fill="none" stroke="black" stroke-dasharray="1,5" points="746.856,-128 746.856,-162.135 672.607,-182.921 571.393,-182.921 497.144,-162.135 497.144,-128 571.393,-107.214 672.607,-107.214 746.856,-128"/>
<text text-anchor="middle" x="622" y="-148.867" font-family="Times,serif" font-size="14.00">Unknown Module</text>
<text text-anchor="middle" x="622" y="-133.867" font-family="Times,serif" font-size="14.00">Class: HasServer</text>
</g>
<!-- 1 -->
<g id="node3" class="node"><title>1</title>
<polygon fill="cyan" stroke="black" stroke-width="2" points="968.028,-28.9201 968.028,-47.4711 829.18,-60.5887 632.82,-60.5887 493.972,-47.4711 493.972,-28.9201 632.82,-15.8026 829.18,-15.8026 968.028,-28.9201"/>
<text text-anchor="middle" x="731" y="-34.4956" font-family="Times,serif" font-size="14.00">Class: HasServer, Data: (ThentosAuth :&gt; sub)</text>
</g>
<!-- 3&#45;&gt;1 -->
<g id="edge1" class="edge"><title>3&#45;&gt;1</title>
<path fill="none" stroke="navy" d="M660.123,-107.388C676.453,-91.6767 694.946,-73.8844 708.946,-60.4141"/>
</g>
<!-- 4 -->
<g id="node2" class="node"><title>4</title>
<polygon fill="khaki" stroke="black" stroke-dasharray="1,5" points="474.858,-131.053 474.858,-159.082 404.061,-178.902 303.939,-178.902 233.142,-159.082 233.142,-131.053 303.939,-111.233 404.061,-111.233 474.858,-131.053"/>
<polygon fill="none" stroke="black" stroke-dasharray="1,5" points="478.856,-128 478.856,-162.135 404.607,-182.921 303.393,-182.921 229.144,-162.135 229.144,-128 303.393,-107.214 404.607,-107.214 478.856,-128"/>
<text text-anchor="middle" x="354" y="-148.867" font-family="Times,serif" font-size="14.00">Unknown Module</text>
<text text-anchor="middle" x="354" y="-133.867" font-family="Times,serif" font-size="14.00">Class: HasLink</text>
</g>
<!-- 2 -->
<g id="node4" class="node"><title>2</title>
<polygon fill="cyan" stroke="black" stroke-width="2" points="475.72,-28.9201 475.72,-47.4711 341.153,-60.5887 150.847,-60.5887 16.2798,-47.4711 16.2798,-28.9201 150.847,-15.8026 341.153,-15.8026 475.72,-28.9201"/>
<text text-anchor="middle" x="246" y="-34.4956" font-family="Times,serif" font-size="14.00">Class: HasLink, Data: (ThentosAuth :&gt; sub)</text>
</g>
<!-- 4&#45;&gt;2 -->
<g id="edge2" class="edge"><title>4&#45;&gt;2</title>
<path fill="none" stroke="navy" d="M316.227,-107.388C300.047,-91.6767 281.723,-73.8844 267.851,-60.4141"/>
</g>
</g>
</svg>
