<?xml version="1.0" encoding="UTF-8" standalone="no"?>
<!DOCTYPE svg PUBLIC "-//W3C//DTD SVG 1.1//EN"
 "http://www.w3.org/Graphics/SVG/1.1/DTD/svg11.dtd">
<!-- Generated by graphviz version 2.38.0 (20140413.2041)
 -->
<!-- Title: Levels within Thentos.Frontend.Pages Pages: 1 -->
<svg width="6686pt" height="246pt"
 viewBox="0.00 0.00 6685.94 246.00" xmlns="http://www.w3.org/2000/svg" xmlns:xlink="http://www.w3.org/1999/xlink">
<g id="graph0" class="graph" transform="scale(1 1) rotate(0) translate(4 242)">
<title>Levels within Thentos.Frontend.Pages</title>
<polygon fill="white" stroke="none" points="-4,4 -4,-242 6681.94,-242 6681.94,4 -4,4"/>
<g id="clust1" class="cluster"><title>cluster_0</title>
<polygon fill="lavender" stroke="black" points="8,-80 8,-230 5337,-230 5337,-80 8,-80"/>
<text text-anchor="middle" x="2672.5" y="-214.8" font-family="Times,serif" font-size="14.00">Exported root entities</text>
</g>
<g id="clust2" class="cluster"><title>cluster_1</title>
<polygon fill="lavender" stroke="black" points="5345,-8 5345,-155 6660,-155 6660,-8 5345,-8"/>
<text text-anchor="middle" x="6002.5" y="-139.8" font-family="Times,serif" font-size="14.00">Level = 1</text>
</g>
<!-- 4 -->
<g id="node1" class="node"><title>4</title>
<polygon fill="goldenrod" stroke="black" stroke-width="2" points="3006,-124 2800,-124 2800,-88 3006,-88 3006,-124"/>
<text text-anchor="middle" x="2903" y="-102.3" font-family="Times,serif" font-size="14.00">confirmationMailSentPage</text>
</g>
<!-- 1 -->
<g id="node30" class="node"><title>1</title>
<polygon fill="bisque" stroke="black" stroke-width="2" points="6267,-124 6145,-124 6145,-88 6267,-88 6267,-124"/>
<text text-anchor="middle" x="6206" y="-102.3" font-family="Times,serif" font-size="14.00">basePagelet</text>
</g>
<!-- 4&#45;&gt;1 -->
<g id="edge2" class="edge"><title>4&#45;&gt;1</title>
<path fill="none" stroke="black" d="M3006.15,-109.034C3342.98,-118.769 4441.24,-149.16 5350,-159 5371.58,-159.234 6105.89,-163.481 6127,-159 6146.72,-154.816 6165.59,-142.575 6179.94,-130.91"/>
<polygon fill="black" stroke="black" points="6182.5,-133.326 6187.84,-124.174 6177.96,-127.999 6182.5,-133.326"/>
</g>
<!-- 3 -->
<g id="node32" class="node"><title>3</title>
<polygon fill="cyan" stroke="black" stroke-width="2" points="6651.5,-124 6442.5,-124 6442.5,-88 6651.5,-88 6651.5,-124"/>
<text text-anchor="middle" x="6547" y="-102.3" font-family="Times,serif" font-size="14.00">confirmationMailSentBody</text>
</g>
<!-- 4&#45;&gt;3 -->
<g id="edge3" class="edge"><title>4&#45;&gt;3</title>
<path fill="none" stroke="black" d="M3006.15,-109.034C3342.98,-118.769 4441.24,-149.16 5350,-159 5379.86,-159.323 6395.76,-165.076 6425,-159 6453.32,-153.115 6483.13,-140.302 6506.19,-128.75"/>
<polygon fill="black" stroke="black" points="6508.02,-131.746 6515.32,-124.068 6504.83,-125.518 6508.02,-131.746"/>
</g>
<!-- 5 -->
<g id="node2" class="node"><title>5</title>
<polygon fill="gold" stroke="black" stroke-width="2" points="5126.5,-199 4905.5,-199 4905.5,-163 5126.5,-163 5126.5,-199"/>
<text text-anchor="middle" x="5016" y="-177.3" font-family="Times,serif" font-size="14.00">confirmationMailSentSnippet</text>
</g>
<!-- 5&#45;&gt;3 -->
<g id="edge4" class="edge"><title>5&#45;&gt;3</title>
<path fill="none" stroke="black" d="M5126.77,-163.755C5129.87,-163.477 5132.96,-163.224 5136,-163 5207.92,-157.708 6363.38,-169.604 6434,-155 6459.16,-149.797 6485.68,-138.852 6506.7,-128.726"/>
<polygon fill="black" stroke="black" points="6508.53,-131.724 6515.95,-124.154 6505.43,-125.449 6508.53,-131.724"/>
</g>
<!-- 7 -->
<g id="node3" class="node"><title>7</title>
<polygon fill="gold" stroke="black" stroke-width="2" points="3592,-199 3438,-199 3438,-163 3592,-163 3592,-199"/>
<text text-anchor="middle" x="3515" y="-177.3" font-family="Times,serif" font-size="14.00">dashboardPagelet</text>
</g>
<!-- 7&#45;&gt;1 -->
<g id="edge5" class="edge"><title>7&#45;&gt;1</title>
<path fill="none" stroke="black" d="M3592.25,-164.003C3595.2,-163.624 3598.12,-163.286 3601,-163 3636.04,-159.515 6102.39,-165.476 6136,-155 6151.89,-150.048 6167.38,-140.124 6179.74,-130.578"/>
<polygon fill="black" stroke="black" points="6182.18,-133.104 6187.75,-124.095 6177.78,-127.66 6182.18,-133.104"/>
</g>
<!-- 8 -->
<g id="node4" class="node"><title>8</title>
<polygon fill="gold" stroke="black" stroke-width="2" points="2993,-199 2835,-199 2835,-163 2993,-163 2993,-199"/>
<text text-anchor="middle" x="2914" y="-177.3" font-family="Times,serif" font-size="14.00">emailUpdateForm</text>
</g>
<!-- 35 -->
<g id="node35" class="node"><title>35</title>
<polygon fill="cyan" stroke="black" stroke-width="2" points="5995,-124 5861,-124 5861,-88 5995,-88 5995,-124"/>
<text text-anchor="middle" x="5928" y="-102.3" font-family="Times,serif" font-size="14.00">validateEmail</text>
</g>
<!-- 8&#45;&gt;35 -->
<g id="edge6" class="edge"><title>8&#45;&gt;35</title>
<path fill="none" stroke="black" d="M2993.09,-163.884C2995.75,-163.552 2998.4,-163.256 3001,-163 3040.41,-159.13 5813.98,-166.059 5852,-155 5869.09,-150.03 5886.03,-139.965 5899.57,-130.329"/>
<polygon fill="black" stroke="black" points="5901.99,-132.887 5907.94,-124.117 5897.82,-127.266 5901.99,-132.887"/>
</g>
<!-- 9 -->
<g id="node5" class="node"><title>9</title>
<polygon fill="gold" stroke="black" stroke-width="2" points="4696,-199 4526,-199 4526,-163 4696,-163 4696,-199"/>
<text text-anchor="middle" x="4611" y="-177.3" font-family="Times,serif" font-size="14.00">emailUpdateSnippet</text>
</g>
<!-- 6 -->
<g id="node33" class="node"><title>6</title>
<polygon fill="cyan" stroke="black" stroke-width="2" points="6424.5,-124 6285.5,-124 6285.5,-88 6424.5,-88 6424.5,-124"/>
<text text-anchor="middle" x="6355" y="-102.3" font-family="Times,serif" font-size="14.00">csrfProofForm</text>
</g>
<!-- 9&#45;&gt;6 -->
<g id="edge7" class="edge"><title>9&#45;&gt;6</title>
<path fill="none" stroke="black" d="M4696.22,-163.922C4699.18,-163.576 4702.11,-163.267 4705,-163 4748.45,-158.991 6234.01,-166.873 6276,-155 6293.78,-149.974 6311.54,-139.763 6325.71,-130.046"/>
<polygon fill="black" stroke="black" points="6327.92,-132.766 6334.03,-124.111 6323.86,-127.067 6327.92,-132.766"/>
</g>
<!-- 11 -->
<g id="node6" class="node"><title>11</title>
<polygon fill="gold" stroke="black" stroke-width="2" points="3264.5,-199 3153.5,-199 3153.5,-163 3264.5,-163 3264.5,-199"/>
<text text-anchor="middle" x="3209" y="-177.3" font-family="Times,serif" font-size="14.00">errorPage</text>
</g>
<!-- 11&#45;&gt;1 -->
<g id="edge8" class="edge"><title>11&#45;&gt;1</title>
<path fill="none" stroke="black" d="M3264.68,-164.31C3267.48,-163.804 3270.26,-163.361 3273,-163 3312.42,-157.797 6098.03,-166.825 6136,-155 6151.89,-150.051 6167.38,-140.127 6179.74,-130.58"/>
<polygon fill="black" stroke="black" points="6182.18,-133.106 6187.75,-124.097 6177.78,-127.663 6182.18,-133.106"/>
</g>
<!-- 10 -->
<g id="node34" class="node"><title>10</title>
<polygon fill="cyan" stroke="black" stroke-width="2" points="6126.5,-124 6013.5,-124 6013.5,-88 6126.5,-88 6126.5,-124"/>
<text text-anchor="middle" x="6070" y="-102.3" font-family="Times,serif" font-size="14.00">errorHtml</text>
</g>
<!-- 11&#45;&gt;10 -->
<g id="edge9" class="edge"><title>11&#45;&gt;10</title>
<path fill="none" stroke="black" d="M3264.68,-164.31C3267.48,-163.804 3270.26,-163.361 3273,-163 3310.6,-158.035 5967.95,-166.783 6004,-155 6019.06,-150.077 6033.56,-140.293 6045.12,-130.835"/>
<polygon fill="black" stroke="black" points="6047.67,-133.253 6052.97,-124.08 6043.11,-127.945 6047.67,-133.253"/>
</g>
<!-- 12 -->
<g id="node7" class="node"><title>12</title>
<polygon fill="gold" stroke="black" stroke-width="2" points="3135.5,-199 3010.5,-199 3010.5,-163 3135.5,-163 3135.5,-199"/>
<text text-anchor="middle" x="3073" y="-177.3" font-family="Times,serif" font-size="14.00">errorPagelet</text>
</g>
<!-- 12&#45;&gt;10 -->
<g id="edge10" class="edge"><title>12&#45;&gt;10</title>
<path fill="none" stroke="black" d="M3135.58,-164.184C3138.41,-163.73 3141.23,-163.331 3144,-163 3183.44,-158.288 5966.24,-167.337 6004,-155 6019.06,-150.078 6033.56,-140.294 6045.12,-130.836"/>
<polygon fill="black" stroke="black" points="6047.67,-133.254 6052.97,-124.081 6043.11,-127.946 6047.67,-133.254"/>
</g>
<!-- 13 -->
<g id="node8" class="node"><title>13</title>
<polygon fill="gold" stroke="black" stroke-width="2" points="3419.5,-199 3282.5,-199 3282.5,-163 3419.5,-163 3419.5,-199"/>
<text text-anchor="middle" x="3351" y="-177.3" font-family="Times,serif" font-size="14.00">notFoundPage</text>
</g>
<!-- 13&#45;&gt;1 -->
<g id="edge11" class="edge"><title>13&#45;&gt;1</title>
<path fill="none" stroke="black" d="M3419.77,-164.185C3422.88,-163.731 3425.97,-163.331 3429,-163 3466.38,-158.918 6100.1,-166.183 6136,-155 6151.89,-150.05 6167.38,-140.126 6179.74,-130.579"/>
<polygon fill="black" stroke="black" points="6182.18,-133.105 6187.75,-124.096 6177.78,-127.662 6182.18,-133.105"/>
</g>
<!-- 14 -->
<g id="node9" class="node"><title>14</title>
<polygon fill="gold" stroke="black" stroke-width="2" points="2642.5,-199 2463.5,-199 2463.5,-163 2642.5,-163 2642.5,-199"/>
<text text-anchor="middle" x="2553" y="-177.3" font-family="Times,serif" font-size="14.00">passwordUpdateForm</text>
</g>
<!-- 36 -->
<g id="node36" class="node"><title>36</title>
<polygon fill="cyan" stroke="black" stroke-width="2" points="5657.5,-124 5496.5,-124 5496.5,-88 5657.5,-88 5657.5,-124"/>
<text text-anchor="middle" x="5577" y="-102.3" font-family="Times,serif" font-size="14.00">validateNonEmpty</text>
</g>
<!-- 14&#45;&gt;36 -->
<g id="edge12" class="edge"><title>14&#45;&gt;36</title>
<path fill="none" stroke="black" stroke-width="1.69315" d="M2642.76,-163.914C2645.87,-163.57 2648.96,-163.263 2652,-163 2691.24,-159.599 5449.82,-164.696 5488,-155 5507.96,-149.932 5528.31,-139.433 5544.5,-129.543"/>
<polygon fill="black" stroke="black" stroke-width="1.69315" points="5546.46,-132.448 5553.04,-124.15 5542.72,-126.53 5546.46,-132.448"/>
</g>
<!-- 38 -->
<g id="node38" class="node"><title>38</title>
<polygon fill="cyan" stroke="black" stroke-width="2" points="5842.5,-124 5675.5,-124 5675.5,-88 5842.5,-88 5842.5,-124"/>
<text text-anchor="middle" x="5759" y="-102.3" font-family="Times,serif" font-size="14.00">validatePassChange</text>
</g>
<!-- 14&#45;&gt;38 -->
<g id="edge13" class="edge"><title>14&#45;&gt;38</title>
<path fill="none" stroke="black" d="M2642.76,-163.913C2645.87,-163.57 2648.96,-163.263 2652,-163 2693.72,-159.388 5626.34,-165.026 5667,-155 5687.51,-149.941 5708.54,-139.443 5725.31,-129.552"/>
<polygon fill="black" stroke="black" points="5727.44,-132.352 5734.15,-124.157 5723.79,-126.376 5727.44,-132.352"/>
</g>
<!-- 15 -->
<g id="node10" class="node"><title>15</title>
<polygon fill="gold" stroke="black" stroke-width="2" points="4508,-199 4318,-199 4318,-163 4508,-163 4508,-199"/>
<text text-anchor="middle" x="4413" y="-177.3" font-family="Times,serif" font-size="14.00">passwordUpdateSnippet</text>
</g>
<!-- 15&#45;&gt;6 -->
<g id="edge14" class="edge"><title>15&#45;&gt;6</title>
<path fill="none" stroke="black" d="M4508.14,-163.833C4511.12,-163.523 4514.08,-163.244 4517,-163 4565.69,-158.935 6228.98,-168.281 6276,-155 6293.78,-149.979 6311.54,-139.769 6325.71,-130.051"/>
<polygon fill="black" stroke="black" points="6327.92,-132.77 6334.03,-124.114 6323.86,-127.071 6327.92,-132.77"/>
</g>
<!-- 16 -->
<g id="node11" class="node"><title>16</title>
<polygon fill="gold" stroke="black" stroke-width="2" points="5329,-199 5145,-199 5145,-163 5329,-163 5329,-199"/>
<text text-anchor="middle" x="5237" y="-177.3" font-family="Times,serif" font-size="14.00">permissionDeniedPage</text>
</g>
<!-- 2 -->
<g id="node31" class="node"><title>2</title>
<polygon fill="cyan" stroke="black" stroke-width="2" points="6459.5,-52 6334.5,-52 6334.5,-16 6459.5,-16 6459.5,-52"/>
<text text-anchor="middle" x="6397" y="-30.3" font-family="Times,serif" font-size="14.00">basePagelet&#39;</text>
</g>
<!-- 16&#45;&gt;2 -->
<g id="edge15" class="edge"><title>16&#45;&gt;2</title>
<path fill="none" stroke="black" d="M5329.26,-180.104C5641.08,-180.237 6637.62,-178.796 6661,-155 6684.36,-131.224 6682.5,-105.474 6661,-80 6636.92,-51.468 6539.15,-41.0245 6469.63,-37.2032"/>
<polygon fill="black" stroke="black" points="6469.75,-33.7052 6459.59,-36.6861 6469.39,-40.6959 6469.75,-33.7052"/>
</g>
<!-- 17 -->
<g id="node12" class="node"><title>17</title>
<polygon fill="gold" stroke="black" stroke-width="2" points="2094,-199 1928,-199 1928,-163 2094,-163 2094,-199"/>
<text text-anchor="middle" x="2011" y="-177.3" font-family="Times,serif" font-size="14.00">resetPasswordForm</text>
</g>
<!-- 17&#45;&gt;36 -->
<g id="edge16" class="edge"><title>17&#45;&gt;36</title>
<path fill="none" stroke="black" stroke-width="1.69315" d="M2094.15,-163.941C2097.13,-163.586 2100.09,-163.27 2103,-163 2149.81,-158.655 5442.43,-166.563 5488,-155 5507.96,-149.936 5528.31,-139.438 5544.5,-129.547"/>
<polygon fill="black" stroke="black" stroke-width="1.69315" points="5546.46,-132.452 5553.04,-124.153 5542.72,-126.534 5546.46,-132.452"/>
</g>
<!-- 37 -->
<g id="node37" class="node"><title>37</title>
<polygon fill="cyan" stroke="black" stroke-width="2" points="5478.5,-124 5353.5,-124 5353.5,-88 5478.5,-88 5478.5,-124"/>
<text text-anchor="middle" x="5416" y="-102.3" font-family="Times,serif" font-size="14.00">validatePass</text>
</g>
<!-- 17&#45;&gt;37 -->
<g id="edge17" class="edge"><title>17&#45;&gt;37</title>
<path fill="none" stroke="black" d="M2094.15,-163.941C2097.13,-163.587 2100.09,-163.27 2103,-163 2147.78,-158.842 5297.85,-167.683 5341,-155 5357.91,-150.029 5374.64,-139.964 5387.99,-130.328"/>
<polygon fill="black" stroke="black" points="5390.36,-132.926 5396.24,-124.116 5386.15,-127.333 5390.36,-132.926"/>
</g>
<!-- 18 -->
<g id="node13" class="node"><title>18</title>
<polygon fill="gold" stroke="black" stroke-width="2" points="1728,-199 1566,-199 1566,-163 1728,-163 1728,-199"/>
<text text-anchor="middle" x="1647" y="-177.3" font-family="Times,serif" font-size="14.00">resetPasswordPage</text>
</g>
<!-- 18&#45;&gt;1 -->
<g id="edge18" class="edge"><title>18&#45;&gt;1</title>
<path fill="none" stroke="black" d="M1728.34,-163.939C1731.26,-163.585 1734.15,-163.269 1737,-163 1767.41,-160.125 6106.83,-164.07 6136,-155 6151.89,-150.059 6167.39,-140.136 6179.74,-130.588"/>
<polygon fill="black" stroke="black" points="6182.18,-133.113 6187.76,-124.103 6177.78,-127.67 6182.18,-133.113"/>
</g>
<!-- 18&#45;&gt;6 -->
<g id="edge19" class="edge"><title>18&#45;&gt;6</title>
<path fill="none" stroke="black" d="M1728.34,-163.939C1731.26,-163.585 1734.15,-163.269 1737,-163 1768.38,-160.034 6245.65,-163.525 6276,-155 6293.78,-150.004 6311.55,-139.796 6325.71,-130.073"/>
<polygon fill="black" stroke="black" points="6327.93,-132.791 6334.04,-124.133 6323.86,-127.093 6327.93,-132.791"/>
</g>
<!-- 19 -->
<g id="node14" class="node"><title>19</title>
<polygon fill="gold" stroke="black" stroke-width="2" points="1547.5,-199 1338.5,-199 1338.5,-163 1547.5,-163 1547.5,-199"/>
<text text-anchor="middle" x="1443" y="-177.3" font-family="Times,serif" font-size="14.00">resetPasswordRequestForm</text>
</g>
<!-- 19&#45;&gt;35 -->
<g id="edge20" class="edge"><title>19&#45;&gt;35</title>
<path fill="none" stroke="black" d="M1547.61,-163.794C1550.77,-163.499 1553.91,-163.232 1557,-163 1586.74,-160.767 5823.36,-163.317 5852,-155 5869.09,-150.038 5886.03,-139.974 5899.57,-130.337"/>
<polygon fill="black" stroke="black" points="5902,-132.894 5907.94,-124.124 5897.82,-127.273 5902,-132.894"/>
</g>
<!-- 20 -->
<g id="node15" class="node"><title>20</title>
<polygon fill="gold" stroke="black" stroke-width="2" points="1094,-199 888,-199 888,-163 1094,-163 1094,-199"/>
<text text-anchor="middle" x="991" y="-177.3" font-family="Times,serif" font-size="14.00">resetPasswordRequestPage</text>
</g>
<!-- 20&#45;&gt;1 -->
<g id="edge21" class="edge"><title>20&#45;&gt;1</title>
<path fill="none" stroke="black" d="M1094.07,-163.765C1097.08,-163.481 1100.06,-163.224 1103,-163 1137.85,-160.342 6102.62,-165.373 6136,-155 6151.89,-150.061 6167.39,-140.138 6179.74,-130.589"/>
<polygon fill="black" stroke="black" points="6182.18,-133.115 6187.76,-124.105 6177.78,-127.672 6182.18,-133.115"/>
</g>
<!-- 20&#45;&gt;6 -->
<g id="edge22" class="edge"><title>20&#45;&gt;6</title>
<path fill="none" stroke="black" d="M1094.07,-163.764C1097.08,-163.481 1100.06,-163.224 1103,-163 1138.82,-160.269 6241.41,-164.712 6276,-155 6293.79,-150.006 6311.55,-139.798 6325.71,-130.075"/>
<polygon fill="black" stroke="black" points="6327.93,-132.793 6334.04,-124.135 6323.86,-127.095 6327.93,-132.793"/>
</g>
<!-- 21 -->
<g id="node16" class="node"><title>21</title>
<polygon fill="gold" stroke="black" stroke-width="2" points="690,-199 472,-199 472,-163 690,-163 690,-199"/>
<text text-anchor="middle" x="581" y="-177.3" font-family="Times,serif" font-size="14.00">resetPasswordRequestedPage</text>
</g>
<!-- 21&#45;&gt;4 -->
<g id="edge23" class="edge"><title>21&#45;&gt;4</title>
<path fill="none" stroke="black" d="M690.239,-163.801C693.188,-163.512 696.113,-163.244 699,-163 1111.31,-128.183 2399.26,-112.232 2789.69,-108.115"/>
<polygon fill="black" stroke="black" points="2789.9,-111.613 2799.86,-108.008 2789.82,-104.613 2789.9,-111.613"/>
</g>
<!-- 22 -->
<g id="node17" class="node"><title>22</title>
<polygon fill="gold" stroke="black" stroke-width="2" points="870,-199 708,-199 708,-163 870,-163 870,-199"/>
<text text-anchor="middle" x="789" y="-177.3" font-family="Times,serif" font-size="14.00">serviceCreateForm</text>
</g>
<!-- 22&#45;&gt;36 -->
<g id="edge24" class="edge"><title>22&#45;&gt;36</title>
<path fill="none" stroke="black" d="M870.339,-163.938C873.257,-163.585 876.15,-163.269 879,-163 942.73,-156.978 5425.95,-170.724 5488,-155 5507.96,-149.943 5528.31,-139.445 5544.5,-129.553"/>
<polygon fill="black" stroke="black" points="5546.46,-132.457 5553.04,-124.158 5542.72,-126.539 5546.46,-132.457"/>
</g>
<!-- 23 -->
<g id="node18" class="node"><title>23</title>
<polygon fill="gold" stroke="black" stroke-width="2" points="4887.5,-199 4714.5,-199 4714.5,-163 4887.5,-163 4887.5,-199"/>
<text text-anchor="middle" x="4801" y="-177.3" font-family="Times,serif" font-size="14.00">serviceCreateSnippet</text>
</g>
<!-- 23&#45;&gt;6 -->
<g id="edge25" class="edge"><title>23&#45;&gt;6</title>
<path fill="none" stroke="black" d="M4887.64,-163.866C4890.45,-163.543 4893.25,-163.252 4896,-163 4934.17,-159.5 6239.12,-165.442 6276,-155 6293.77,-149.968 6311.54,-139.756 6325.7,-130.041"/>
<polygon fill="black" stroke="black" points="6327.92,-132.761 6334.03,-124.106 6323.85,-127.061 6327.92,-132.761"/>
</g>
<!-- 24 -->
<g id="node19" class="node"><title>24</title>
<polygon fill="gold" stroke="black" stroke-width="2" points="2284,-199 2112,-199 2112,-163 2284,-163 2284,-199"/>
<text text-anchor="middle" x="2198" y="-177.3" font-family="Times,serif" font-size="14.00">serviceRegisterForm</text>
</g>
<!-- 25 -->
<g id="node20" class="node"><title>25</title>
<polygon fill="gold" stroke="black" stroke-width="2" points="4130,-199 3962,-199 3962,-163 4130,-163 4130,-199"/>
<text text-anchor="middle" x="4046" y="-177.3" font-family="Times,serif" font-size="14.00">serviceRegisterPage</text>
</g>
<!-- 25&#45;&gt;1 -->
<g id="edge26" class="edge"><title>25&#45;&gt;1</title>
<path fill="none" stroke="black" d="M4130.06,-163.947C4133.07,-163.591 4136.06,-163.273 4139,-163 4166.62,-160.441 6109.52,-163.264 6136,-155 6151.89,-150.042 6167.38,-140.116 6179.73,-130.571"/>
<polygon fill="black" stroke="black" points="6182.18,-133.098 6187.75,-124.09 6177.78,-127.654 6182.18,-133.098"/>
</g>
<!-- 25&#45;&gt;6 -->
<g id="edge27" class="edge"><title>25&#45;&gt;6</title>
<path fill="none" stroke="black" d="M4130.06,-163.946C4133.07,-163.59 4136.06,-163.272 4139,-163 4168.55,-160.265 6247.43,-163.056 6276,-155 6293.78,-149.986 6311.54,-139.776 6325.71,-130.057"/>
<polygon fill="black" stroke="black" points="6327.92,-132.776 6334.03,-124.12 6323.86,-127.078 6327.92,-132.776"/>
</g>
<!-- 26 -->
<g id="node21" class="node"><title>26</title>
<polygon fill="gold" stroke="black" stroke-width="2" points="1910,-199 1746,-199 1746,-163 1910,-163 1910,-199"/>
<text text-anchor="middle" x="1828" y="-177.3" font-family="Times,serif" font-size="14.00">userDisplaySnippet</text>
</g>
<!-- 27 -->
<g id="node22" class="node"><title>27</title>
<polygon fill="gold" stroke="black" stroke-width="2" points="2445.5,-199 2302.5,-199 2302.5,-163 2445.5,-163 2445.5,-199"/>
<text text-anchor="middle" x="2374" y="-177.3" font-family="Times,serif" font-size="14.00">userLoginForm</text>
</g>
<!-- 27&#45;&gt;36 -->
<g id="edge28" class="edge"><title>27&#45;&gt;36</title>
<path fill="none" stroke="black" stroke-width="1.69315" d="M2445.85,-164.001C2448.59,-163.622 2451.32,-163.285 2454,-163 2495.9,-158.541 5447.16,-165.369 5488,-155 5507.96,-149.934 5528.31,-139.435 5544.5,-129.545"/>
<polygon fill="black" stroke="black" stroke-width="1.69315" points="5546.46,-132.45 5553.04,-124.151 5542.72,-126.531 5546.46,-132.45"/>
</g>
<!-- 28 -->
<g id="node23" class="node"><title>28</title>
<polygon fill="gold" stroke="black" stroke-width="2" points="3944,-199 3804,-199 3804,-163 3944,-163 3944,-199"/>
<text text-anchor="middle" x="3874" y="-177.3" font-family="Times,serif" font-size="14.00">userLoginPage</text>
</g>
<!-- 28&#45;&gt;1 -->
<g id="edge29" class="edge"><title>28&#45;&gt;1</title>
<path fill="none" stroke="black" d="M3944.09,-164.126C3947.09,-163.696 3950.07,-163.317 3953,-163 3983.14,-159.738 6107.06,-164.029 6136,-155 6151.89,-150.044 6167.38,-140.119 6179.73,-130.574"/>
<polygon fill="black" stroke="black" points="6182.18,-133.1 6187.75,-124.092 6177.78,-127.657 6182.18,-133.1"/>
</g>
<!-- 28&#45;&gt;6 -->
<g id="edge30" class="edge"><title>28&#45;&gt;6</title>
<path fill="none" stroke="black" d="M3944.09,-164.125C3947.09,-163.696 3950.07,-163.317 3953,-163 3985.08,-159.532 6244.95,-163.752 6276,-155 6293.78,-149.989 6311.54,-139.779 6325.71,-130.06"/>
<polygon fill="black" stroke="black" points="6327.93,-132.779 6334.03,-124.122 6323.86,-127.08 6327.93,-132.779"/>
</g>
<!-- 29 -->
<g id="node24" class="node"><title>29</title>
<polygon fill="gold" stroke="black" stroke-width="2" points="1320,-199 1112,-199 1112,-163 1320,-163 1320,-199"/>
<text text-anchor="middle" x="1216" y="-177.3" font-family="Times,serif" font-size="14.00">userLogoutConfirmSnippet</text>
</g>
<!-- 30 -->
<g id="node25" class="node"><title>30</title>
<polygon fill="gold" stroke="black" stroke-width="2" points="3786,-199 3610,-199 3610,-163 3786,-163 3786,-199"/>
<text text-anchor="middle" x="3698" y="-177.3" font-family="Times,serif" font-size="14.00">userLogoutDonePage</text>
</g>
<!-- 30&#45;&gt;1 -->
<g id="edge31" class="edge"><title>30&#45;&gt;1</title>
<path fill="none" stroke="black" d="M3786.2,-163.886C3789.17,-163.554 3792.1,-163.257 3795,-163 3827.39,-160.128 6104.96,-164.678 6136,-155 6151.89,-150.046 6167.38,-140.121 6179.74,-130.576"/>
<polygon fill="black" stroke="black" points="6182.18,-133.102 6187.75,-124.093 6177.78,-127.659 6182.18,-133.102"/>
</g>
<!-- 31 -->
<g id="node26" class="node"><title>31</title>
<polygon fill="gold" stroke="black" stroke-width="2" points="2817,-199 2661,-199 2661,-163 2817,-163 2817,-199"/>
<text text-anchor="middle" x="2739" y="-177.3" font-family="Times,serif" font-size="14.00">userRegisterForm</text>
</g>
<!-- 31&#45;&gt;35 -->
<g id="edge32" class="edge"><title>31&#45;&gt;35</title>
<path fill="none" stroke="black" d="M2817.15,-164.001C2820.13,-163.622 2823.09,-163.286 2826,-163 2867.83,-158.896 5811.64,-166.735 5852,-155 5869.09,-150.032 5886.03,-139.967 5899.57,-130.331"/>
<polygon fill="black" stroke="black" points="5901.99,-132.888 5907.94,-124.118 5897.82,-127.267 5901.99,-132.888"/>
</g>
<!-- 31&#45;&gt;36 -->
<g id="edge33" class="edge"><title>31&#45;&gt;36</title>
<path fill="none" stroke="black" stroke-width="2.09861" d="M2817.15,-164.003C2820.13,-163.623 2823.09,-163.286 2826,-163 2862.8,-159.383 5452.17,-164.104 5488,-155 5507.96,-149.93 5528.31,-139.431 5544.5,-129.542"/>
<polygon fill="black" stroke="black" stroke-width="2.09861" points="5546.46,-132.447 5553.04,-124.148 5542.72,-126.528 5546.46,-132.447"/>
</g>
<!-- 32 -->
<g id="node27" class="node"><title>32</title>
<polygon fill="gold" stroke="black" stroke-width="2" points="4300,-199 4148,-199 4148,-163 4300,-163 4300,-199"/>
<text text-anchor="middle" x="4224" y="-177.3" font-family="Times,serif" font-size="14.00">userRegisterPage</text>
</g>
<!-- 32&#45;&gt;1 -->
<g id="edge34" class="edge"><title>32&#45;&gt;1</title>
<path fill="none" stroke="black" d="M4300.35,-164.007C4303.26,-163.627 4306.16,-163.288 4309,-163 4359.49,-157.889 6087.56,-170.13 6136,-155 6151.89,-150.039 6167.38,-140.113 6179.73,-130.568"/>
<polygon fill="black" stroke="black" points="6182.17,-133.096 6187.75,-124.087 6177.77,-127.651 6182.17,-133.096"/>
</g>
<!-- 32&#45;&gt;6 -->
<g id="edge35" class="edge"><title>32&#45;&gt;6</title>
<path fill="none" stroke="black" d="M4300.35,-164.006C4303.26,-163.626 4306.16,-163.288 4309,-163 4363.36,-157.505 6223.41,-169.839 6276,-155 6293.78,-149.983 6311.54,-139.773 6325.71,-130.055"/>
<polygon fill="black" stroke="black" points="6327.92,-132.774 6334.03,-124.118 6323.86,-127.075 6327.92,-132.774"/>
</g>
<!-- 33 -->
<g id="node28" class="node"><title>33</title>
<polygon fill="gold" stroke="black" stroke-width="2" points="453.5,-199 244.5,-199 244.5,-163 453.5,-163 453.5,-199"/>
<text text-anchor="middle" x="349" y="-177.3" font-family="Times,serif" font-size="14.00">userRegisterRequestedPage</text>
</g>
<!-- 33&#45;&gt;4 -->
<g id="edge36" class="edge"><title>33&#45;&gt;4</title>
<path fill="none" stroke="black" d="M453.615,-163.881C456.776,-163.56 459.91,-163.265 463,-163 923.669,-123.521 2372.13,-110.656 2789.45,-107.719"/>
<polygon fill="black" stroke="black" points="2789.73,-111.217 2799.71,-107.647 2789.69,-104.217 2789.73,-111.217"/>
</g>
<!-- 34 -->
<g id="node29" class="node"><title>34</title>
<polygon fill="gold" stroke="black" stroke-width="2" points="226,-199 16,-199 16,-163 226,-163 226,-199"/>
<text text-anchor="middle" x="121" y="-177.3" font-family="Times,serif" font-size="14.00">userServicesDisplaySnippet</text>
</g>
<!-- 1&#45;&gt;2 -->
<g id="edge1" class="edge"><title>1&#45;&gt;2</title>
<path fill="none" stroke="black" d="M6252.72,-87.8761C6279.3,-78.1365 6312.76,-65.8725 6340.77,-55.6081"/>
<polygon fill="black" stroke="black" points="6342.24,-58.7957 6350.43,-52.0683 6339.83,-52.2232 6342.24,-58.7957"/>
</g>
</g>
</svg>
