<?xml version="1.0" encoding="UTF-8" standalone="no"?>
<!DOCTYPE svg PUBLIC "-//W3C//DTD SVG 1.1//EN"
 "http://www.w3.org/Graphics/SVG/1.1/DTD/svg11.dtd">
<!-- Generated by graphviz version 2.38.0 (20140413.2041)
 -->
<!-- Title: Diagram of: Thentos.Backend.Api.Auth Pages: 1 -->
<svg width="564pt" height="230pt"
 viewBox="0.00 0.00 564.00 229.74" xmlns="http://www.w3.org/2000/svg" xmlns:xlink="http://www.w3.org/1999/xlink">
<g id="graph0" class="graph" transform="scale(1 1) rotate(0) translate(4 225.744)">
<title>Diagram of: Thentos.Backend.Api.Auth</title>
<polygon fill="white" stroke="none" points="-4,4 -4,-225.744 560,-225.744 560,4 -4,4"/>
<g id="clust1" class="cluster"><title>cluster_Class_HasLink</title>
<path fill="#ffc1c1" stroke="black" d="M20,-8C20,-8 262,-8 262,-8 268,-8 274,-14 274,-20 274,-20 274,-201.744 274,-201.744 274,-207.744 268,-213.744 262,-213.744 262,-213.744 20,-213.744 20,-213.744 14,-213.744 8,-207.744 8,-201.744 8,-201.744 8,-20 8,-20 8,-14 14,-8 20,-8"/>
<text text-anchor="middle" x="141" y="-198.544" font-family="Times,serif" font-size="14.00">Class: HasLink</text>
</g>
<g id="clust2" class="cluster"><title>cluster_Class_HasLink_Data_ThentosAuthsub</title>
<path fill="#c6e2ff" stroke="black" d="M50,-16C50,-16 232,-16 232,-16 238,-16 244,-22 244,-28 244,-28 244,-87.3913 244,-87.3913 244,-93.3913 238,-99.3913 232,-99.3913 232,-99.3913 50,-99.3913 50,-99.3913 44,-99.3913 38,-93.3913 38,-87.3913 38,-87.3913 38,-28 38,-28 38,-22 44,-16 50,-16"/>
<text text-anchor="middle" x="141" y="-84.1913" font-family="Times,serif" font-size="14.00">Instance for: (ThentosAuth :&gt; sub)</text>
</g>
<g id="clust3" class="cluster"><title>cluster_Class_HasServer</title>
<path fill="#ffc1c1" stroke="black" d="M294,-8C294,-8 536,-8 536,-8 542,-8 548,-14 548,-20 548,-20 548,-201.744 548,-201.744 548,-207.744 542,-213.744 536,-213.744 536,-213.744 294,-213.744 294,-213.744 288,-213.744 282,-207.744 282,-201.744 282,-201.744 282,-20 282,-20 282,-14 288,-8 294,-8"/>
<text text-anchor="middle" x="415" y="-198.544" font-family="Times,serif" font-size="14.00">Class: HasServer</text>
</g>
<g id="clust4" class="cluster"><title>cluster_Class_HasServer_Data_ThentosAuthsub</title>
<path fill="#c6e2ff" stroke="black" d="M324,-16C324,-16 506,-16 506,-16 512,-16 518,-22 518,-28 518,-28 518,-87.3913 518,-87.3913 518,-93.3913 512,-99.3913 506,-99.3913 506,-99.3913 324,-99.3913 324,-99.3913 318,-99.3913 312,-93.3913 312,-87.3913 312,-87.3913 312,-28 312,-28 312,-22 318,-16 324,-16"/>
<text text-anchor="middle" x="415" y="-84.1913" font-family="Times,serif" font-size="14.00">Instance for: (ThentosAuth :&gt; sub)</text>
</g>
<!-- 2 -->
<g id="node1" class="node"><title>2</title>
<polygon fill="cyan" stroke="black" stroke-width="2" points="213.92,-36.9201 213.92,-55.4711 171.205,-68.5887 110.795,-68.5887 68.0797,-55.4711 68.0797,-36.9201 110.795,-23.8026 171.205,-23.8026 213.92,-36.9201"/>
<text text-anchor="middle" x="141" y="-42.4956" font-family="Times,serif" font-size="14.00">toLink</text>
</g>
<!-- 4 -->
<g id="node2" class="node"><title>4</title>
<polygon fill="khaki" stroke="black" stroke-dasharray="1,5" points="261.858,-131.053 261.858,-159.082 191.061,-178.902 90.9389,-178.902 20.1417,-159.082 20.1417,-131.053 90.9389,-111.233 191.061,-111.233 261.858,-131.053"/>
<polygon fill="none" stroke="black" stroke-dasharray="1,5" points="265.856,-128 265.856,-162.135 191.607,-182.921 90.3926,-182.921 16.144,-162.135 16.144,-128 90.3926,-107.214 191.607,-107.214 265.856,-128"/>
<text text-anchor="middle" x="141" y="-148.867" font-family="Times,serif" font-size="14.00">Unknown Module</text>
<text text-anchor="middle" x="141" y="-133.867" font-family="Times,serif" font-size="14.00">toLink</text>
</g>
<!-- 4&#45;&gt;2 -->
<g id="edge2" class="edge"><title>4&#45;&gt;2</title>
<path fill="none" stroke="navy" d="M141,-107.168C141,-94.1217 141,-79.8897 141,-68.5651"/>
</g>
<!-- 1 -->
<g id="node3" class="node"><title>1</title>
<polygon fill="cyan" stroke="black" stroke-width="2" points="480.644,-36.9201 480.644,-55.4711 442.19,-68.5887 387.81,-68.5887 349.356,-55.4711 349.356,-36.9201 387.81,-23.8026 442.19,-23.8026 480.644,-36.9201"/>
<text text-anchor="middle" x="415" y="-42.4956" font-family="Times,serif" font-size="14.00">route</text>
</g>
<!-- 3 -->
<g id="node4" class="node"><title>3</title>
<polygon fill="khaki" stroke="black" stroke-dasharray="1,5" points="535.858,-131.053 535.858,-159.082 465.061,-178.902 364.939,-178.902 294.142,-159.082 294.142,-131.053 364.939,-111.233 465.061,-111.233 535.858,-131.053"/>
<polygon fill="none" stroke="black" stroke-dasharray="1,5" points="539.856,-128 539.856,-162.135 465.607,-182.921 364.393,-182.921 290.144,-162.135 290.144,-128 364.393,-107.214 465.607,-107.214 539.856,-128"/>
<text text-anchor="middle" x="415" y="-148.867" font-family="Times,serif" font-size="14.00">Unknown Module</text>
<text text-anchor="middle" x="415" y="-133.867" font-family="Times,serif" font-size="14.00">route</text>
</g>
<!-- 3&#45;&gt;1 -->
<g id="edge1" class="edge"><title>3&#45;&gt;1</title>
<path fill="none" stroke="navy" d="M415,-107.168C415,-94.1217 415,-79.8897 415,-68.5651"/>
</g>
</g>
</svg>
