<?xml version="1.0" encoding="UTF-8" standalone="no"?>
<!DOCTYPE svg PUBLIC "-//W3C//DTD SVG 1.1//EN"
 "http://www.w3.org/Graphics/SVG/1.1/DTD/svg11.dtd">
<!-- Generated by graphviz version 2.38.0 (20140413.2041)
 -->
<!-- Title: Levels within Thentos.Frontend Pages: 1 -->
<svg width="405pt" height="265pt"
 viewBox="0.00 0.00 405.00 265.00" xmlns="http://www.w3.org/2000/svg" xmlns:xlink="http://www.w3.org/1999/xlink">
<g id="graph0" class="graph" transform="scale(1 1) rotate(0) translate(4 261)">
<title>Levels within Thentos.Frontend</title>
<polygon fill="white" stroke="none" points="-4,4 -4,-261 401,-261 401,4 -4,4"/>
<g id="clust1" class="cluster"><title>cluster_0</title>
<polygon fill="lavender" stroke="black" points="120,-174 120,-249 262,-249 262,-174 120,-174"/>
<text text-anchor="middle" x="191" y="-233.8" font-family="Times,serif" font-size="14.00">Exported root entities</text>
</g>
<g id="clust2" class="cluster"><title>cluster_1</title>
<polygon fill="lavender" stroke="black" points="126,-91 126,-166 256,-166 256,-91 126,-91"/>
<text text-anchor="middle" x="191" y="-150.8" font-family="Times,serif" font-size="14.00">Level = 1</text>
</g>
<g id="clust3" class="cluster"><title>cluster_2</title>
<polygon fill="lavender" stroke="black" points="8,-8 8,-83 389,-83 389,-8 8,-8"/>
<text text-anchor="middle" x="198.5" y="-67.8" font-family="Times,serif" font-size="14.00">Level = 2</text>
</g>
<!-- 2 -->
<g id="node1" class="node"><title>2</title>
<polygon fill="gold" stroke="black" stroke-width="2" points="253.5,-218 128.5,-218 128.5,-182 253.5,-182 253.5,-218"/>
<text text-anchor="middle" x="191" y="-196.3" font-family="Times,serif" font-size="14.00">runFrontend</text>
</g>
<!-- 1 -->
<g id="node2" class="node"><title>1</title>
<polygon fill="bisque" stroke="black" stroke-width="2" points="248,-135 134,-135 134,-99 248,-99 248,-135"/>
<text text-anchor="middle" x="191" y="-113.3" font-family="Times,serif" font-size="14.00">frontendH</text>
</g>
<!-- 2&#45;&gt;1 -->
<g id="edge4" class="edge"><title>2&#45;&gt;1</title>
<path fill="none" stroke="chartreuse" d="M191,-181.822C191,-171.19 191,-157.306 191,-145.204"/>
<polygon fill="chartreuse" stroke="chartreuse" points="194.5,-145.153 191,-135.153 187.5,-145.153 194.5,-145.153"/>
</g>
<!-- 3 -->
<g id="node3" class="node"><title>3</title>
<polygon fill="cyan" stroke="black" stroke-width="2" points="381.5,-52 274.5,-52 274.5,-16 381.5,-16 381.5,-52"/>
<text text-anchor="middle" x="328" y="-30.3" font-family="Times,serif" font-size="14.00">serviceH</text>
</g>
<!-- 1&#45;&gt;3 -->
<g id="edge1" class="edge"><title>1&#45;&gt;3</title>
<path fill="none" stroke="black" d="M233.724,-98.9682C244.193,-94.2497 255.2,-88.8119 265,-83 277.039,-75.8607 289.464,-66.8102 300.065,-58.4969"/>
<polygon fill="black" stroke="black" points="302.514,-61.02 308.134,-52.0385 298.14,-55.5551 302.514,-61.02"/>
</g>
<!-- 4 -->
<g id="node4" class="node"><title>4</title>
<polygon fill="cyan" stroke="black" stroke-width="2" points="256,-52 126,-52 126,-16 256,-16 256,-52"/>
<text text-anchor="middle" x="191" y="-30.3" font-family="Times,serif" font-size="14.00">staticContent</text>
</g>
<!-- 1&#45;&gt;4 -->
<g id="edge2" class="edge"><title>1&#45;&gt;4</title>
<path fill="none" stroke="black" d="M191,-98.822C191,-88.1903 191,-74.306 191,-62.2035"/>
<polygon fill="black" stroke="black" points="194.5,-62.1532 191,-52.1533 187.5,-62.1533 194.5,-62.1532"/>
</g>
<!-- 5 -->
<g id="node5" class="node"><title>5</title>
<polygon fill="cyan" stroke="black" stroke-width="2" points="107.5,-52 16.5,-52 16.5,-16 107.5,-16 107.5,-52"/>
<text text-anchor="middle" x="62" y="-30.3" font-family="Times,serif" font-size="14.00">userH</text>
</g>
<!-- 1&#45;&gt;5 -->
<g id="edge3" class="edge"><title>1&#45;&gt;5</title>
<path fill="none" stroke="black" d="M146.834,-98.8913C136.728,-94.2781 126.246,-88.9071 117,-83 106.427,-76.2451 95.8059,-67.5362 86.7555,-59.3948"/>
<polygon fill="black" stroke="black" points="88.9648,-56.6707 79.2471,-52.4498 84.2116,-61.8095 88.9648,-56.6707"/>
</g>
</g>
</svg>
