<?xml version="1.0" encoding="UTF-8" standalone="no"?>
<!DOCTYPE svg PUBLIC "-//W3C//DTD SVG 1.1//EN"
 "http://www.w3.org/Graphics/SVG/1.1/DTD/svg11.dtd">
<!-- Generated by graphviz version 2.38.0 (20140413.2041)
 -->
<!-- Title: Levels within Thentos.Action.Core Pages: 1 -->
<svg width="3103pt" height="510pt"
 viewBox="0.00 0.00 3103.00 509.74" xmlns="http://www.w3.org/2000/svg" xmlns:xlink="http://www.w3.org/1999/xlink">
<g id="graph0" class="graph" transform="scale(1 1) rotate(0) translate(4 505.744)">
<title>Levels within Thentos.Action.Core</title>
<polygon fill="white" stroke="none" points="-4,4 -4,-505.744 3099,-505.744 3099,4 -4,4"/>
<g id="clust1" class="cluster"><title>cluster_0</title>
<polygon fill="lavender" stroke="black" points="8,-8 8,-493.744 2581,-493.744 2581,-8 8,-8"/>
<text text-anchor="middle" x="1294.5" y="-478.544" font-family="Times,serif" font-size="14.00">Exported root entities</text>
</g>
<g id="clust2" class="cluster"><title>cluster_1</title>
<polygon fill="lavender" stroke="black" points="2589,-80 2589,-163.391 3087,-163.391 3087,-80 2589,-80"/>
<text text-anchor="middle" x="2838" y="-148.191" font-family="Times,serif" font-size="14.00">Level = 1</text>
</g>
<!-- 1 -->
<g id="node1" class="node"><title>1</title>
<polygon fill="goldenrod" stroke="black" stroke-width="2" points="708,-52 584,-52 580,-48 580,-16 704,-16 708,-20 708,-52"/>
<polyline fill="none" stroke="black" stroke-width="2" points="704,-48 580,-48 "/>
<polyline fill="none" stroke="black" stroke-width="2" points="704,-48 704,-16 "/>
<polyline fill="none" stroke="black" stroke-width="2" points="704,-48 708,-52 "/>
<text text-anchor="middle" x="644" y="-30.3" font-family="Times,serif" font-size="14.00">Data: Action</text>
</g>
<!-- 2 -->
<g id="node2" class="node"><title>2</title>
<polygon fill="goldenrod" stroke="black" stroke-width="2" points="726.5,-207.391 573.5,-207.391 569.5,-203.391 569.5,-171.391 722.5,-171.391 726.5,-175.391 726.5,-207.391"/>
<polyline fill="none" stroke="black" stroke-width="2" points="722.5,-203.391 569.5,-203.391 "/>
<polyline fill="none" stroke="black" stroke-width="2" points="722.5,-203.391 722.5,-171.391 "/>
<polyline fill="none" stroke="black" stroke-width="2" points="722.5,-203.391 726.5,-207.391 "/>
<text text-anchor="middle" x="648" y="-185.691" font-family="Times,serif" font-size="14.00">Data: ActionError</text>
</g>
<!-- 5 -->
<g id="node3" class="node"><title>5</title>
<polygon fill="goldenrod" stroke="black" stroke-width="2" points="559.5,-52 408.5,-52 404.5,-48 404.5,-16 555.5,-16 559.5,-20 559.5,-52"/>
<polyline fill="none" stroke="black" stroke-width="2" points="555.5,-48 404.5,-48 "/>
<polyline fill="none" stroke="black" stroke-width="2" points="555.5,-48 555.5,-16 "/>
<polyline fill="none" stroke="black" stroke-width="2" points="555.5,-48 559.5,-52 "/>
<text text-anchor="middle" x="482" y="-30.3" font-family="Times,serif" font-size="14.00">Data: ActionState</text>
</g>
<!-- 6 -->
<g id="node4" class="node"><title>6</title>
<polygon fill="goldenrod" stroke="black" stroke-width="2" points="446.5,-207.391 259.5,-207.391 259.5,-171.391 446.5,-171.391 446.5,-207.391"/>
<text text-anchor="middle" x="353" y="-185.691" font-family="Times,serif" font-size="14.00">accessRightsByAgent&#39;P</text>
</g>
<!-- 21 -->
<g id="node16" class="node"><title>21</title>
<polygon fill="goldenrod" stroke="black" stroke-width="2" points="402.5,-128.196 303.5,-128.196 303.5,-92.1956 402.5,-92.1956 402.5,-128.196"/>
<text text-anchor="middle" x="353" y="-106.496" font-family="Times,serif" font-size="14.00">query&#39;P</text>
</g>
<!-- 6&#45;&gt;21 -->
<g id="edge1" class="edge"><title>6&#45;&gt;21</title>
<path fill="none" stroke="black" d="M353,-171.259C353,-161.665 353,-149.475 353,-138.589"/>
<polygon fill="black" stroke="black" points="356.5,-138.28 353,-128.28 349.5,-138.28 356.5,-138.28"/>
</g>
<!-- 7 -->
<g id="node5" class="node"><title>7</title>
<polygon fill="goldenrod" stroke="black" stroke-width="2" points="360.5,-279.391 121.5,-279.391 121.5,-243.391 360.5,-243.391 360.5,-279.391"/>
<text text-anchor="middle" x="241" y="-257.691" font-family="Times,serif" font-size="14.00">accessRightsByThentosSession&#39;P</text>
</g>
<!-- 7&#45;&gt;6 -->
<g id="edge2" class="edge"><title>7&#45;&gt;6</title>
<path fill="none" stroke="black" d="M268.398,-243.267C282.907,-234.2 300.916,-222.944 316.585,-213.15"/>
<polygon fill="black" stroke="black" points="318.871,-215.849 325.496,-207.581 315.161,-209.913 318.871,-215.849"/>
</g>
<!-- 7&#45;&gt;21 -->
<g id="edge3" class="edge"><title>7&#45;&gt;21</title>
<path fill="none" stroke="black" d="M238.386,-243.166C236.414,-224.061 236.059,-193.077 250,-171.391 260.73,-154.701 277.853,-142.072 295.083,-132.803"/>
<polygon fill="black" stroke="black" points="296.725,-135.894 304.069,-128.258 293.565,-129.648 296.725,-135.894"/>
</g>
<!-- 10 -->
<g id="node6" class="node"><title>10</title>
<polygon fill="gold" stroke="black" stroke-width="2" points="726.5,-128.196 561.5,-128.196 561.5,-92.1956 726.5,-92.1956 726.5,-128.196"/>
<text text-anchor="middle" x="644" y="-106.496" font-family="Times,serif" font-size="14.00">genRandomBytes&#39;P</text>
</g>
<!-- 10&#45;&gt;1 -->
<g id="edge4" class="edge"><title>10&#45;&gt;1</title>
<path fill="none" stroke="black" d="M644,-91.9872C644,-83.1846 644,-72.2609 644,-62.3396"/>
<polygon fill="black" stroke="black" points="647.5,-62.1151 644,-52.1151 640.5,-62.1152 647.5,-62.1151"/>
</g>
<!-- 10&#45;&gt;5 -->
<g id="edge5" class="edge"><title>10&#45;&gt;5</title>
<path fill="none" stroke="black" d="M606.834,-92.1737C583.558,-81.5134 553.372,-67.6882 528.514,-56.3033"/>
<polygon fill="black" stroke="black" points="529.823,-53.053 519.273,-52.0711 526.908,-59.4173 529.823,-53.053"/>
</g>
<!-- 11 -->
<g id="node7" class="node"><title>11</title>
<polygon fill="gold" stroke="black" stroke-width="2" points="543,-128.196 421,-128.196 421,-92.1956 543,-92.1956 543,-128.196"/>
<text text-anchor="middle" x="482" y="-106.496" font-family="Times,serif" font-size="14.00">getConfig&#39;P</text>
</g>
<!-- 11&#45;&gt;1 -->
<g id="edge6" class="edge"><title>11&#45;&gt;1</title>
<path fill="none" stroke="black" d="M519.166,-92.1737C542.442,-81.5134 572.628,-67.6882 597.486,-56.3033"/>
<polygon fill="black" stroke="black" points="599.092,-59.4173 606.727,-52.0711 596.177,-53.053 599.092,-59.4173"/>
</g>
<!-- 11&#45;&gt;5 -->
<g id="edge7" class="edge"><title>11&#45;&gt;5</title>
<path fill="none" stroke="black" d="M482,-91.9872C482,-83.1846 482,-72.2609 482,-62.3396"/>
<polygon fill="black" stroke="black" points="485.5,-62.1151 482,-52.1151 478.5,-62.1152 485.5,-62.1151"/>
</g>
<!-- 12 -->
<g id="node8" class="node"><title>12</title>
<polygon fill="gold" stroke="black" stroke-width="2" points="2572.5,-443.067 2417.5,-443.067 2417.5,-407.067 2572.5,-407.067 2572.5,-443.067"/>
<text text-anchor="middle" x="2495" y="-421.367" font-family="Times,serif" font-size="14.00">getCurrentTime&#39;P</text>
</g>
<!-- 13 -->
<g id="node9" class="node"><title>13</title>
<polygon fill="goldenrod" stroke="black" stroke-width="2" points="549,-279.391 379,-279.391 379,-243.391 549,-243.391 549,-279.391"/>
<text text-anchor="middle" x="464" y="-257.691" font-family="Times,serif" font-size="14.00">grantAccessRights&#39;P</text>
</g>
<!-- 14 -->
<g id="node10" class="node"><title>14</title>
<polygon fill="gold" stroke="black" stroke-width="2" points="893,-443.067 747,-443.067 747,-407.067 893,-407.067 893,-443.067"/>
<text text-anchor="middle" x="820" y="-421.367" font-family="Times,serif" font-size="14.00">guardWriteMsg</text>
</g>
<!-- 19 -->
<g id="node14" class="node"><title>19</title>
<polygon fill="goldenrod" stroke="black" stroke-width="2" points="1016.5,-351.391 913.5,-351.391 913.5,-315.391 1016.5,-315.391 1016.5,-351.391"/>
<text text-anchor="middle" x="965" y="-329.691" font-family="Times,serif" font-size="14.00">logger&#39;P</text>
</g>
<!-- 14&#45;&gt;19 -->
<g id="edge8" class="edge"><title>14&#45;&gt;19</title>
<path fill="none" stroke="black" d="M847.615,-406.989C870.694,-392.715 903.78,-372.253 928.946,-356.689"/>
<polygon fill="black" stroke="black" points="930.824,-359.643 937.488,-351.406 927.142,-353.689 930.824,-359.643"/>
</g>
<!-- 15 -->
<g id="node11" class="node"><title>15</title>
<polygon fill="gold" stroke="black" stroke-width="2" points="2132,-443.067 1976,-443.067 1976,-407.067 2132,-407.067 2132,-443.067"/>
<text text-anchor="middle" x="2054" y="-421.367" font-family="Times,serif" font-size="14.00">hashServiceKey&#39;P</text>
</g>
<!-- 16 -->
<g id="node12" class="node"><title>16</title>
<polygon fill="gold" stroke="black" stroke-width="2" points="1957.5,-443.067 1814.5,-443.067 1814.5,-407.067 1957.5,-407.067 1957.5,-443.067"/>
<text text-anchor="middle" x="1886" y="-421.367" font-family="Times,serif" font-size="14.00">hashUserPass&#39;P</text>
</g>
<!-- 18 -->
<g id="node13" class="node"><title>18</title>
<polygon fill="gold" stroke="black" stroke-width="2" points="1159.5,-443.067 1036.5,-443.067 1036.5,-407.067 1159.5,-407.067 1159.5,-443.067"/>
<text text-anchor="middle" x="1098" y="-421.367" font-family="Times,serif" font-size="14.00">logIfError&#39;P</text>
</g>
<!-- 18&#45;&gt;19 -->
<g id="edge10" class="edge"><title>18&#45;&gt;19</title>
<path fill="none" stroke="black" d="M1072.67,-406.989C1051.69,-392.84 1021.68,-372.61 998.677,-357.098"/>
<polygon fill="black" stroke="black" points="1000.48,-354.095 990.235,-351.406 996.57,-359.899 1000.48,-354.095"/>
</g>
<!-- 20 -->
<g id="node15" class="node"><title>20</title>
<polygon fill="gold" stroke="black" stroke-width="2" points="1583.5,-443.067 1374.5,-443.067 1374.5,-407.067 1583.5,-407.067 1583.5,-443.067"/>
<text text-anchor="middle" x="1479" y="-421.367" font-family="Times,serif" font-size="14.00">makeUserFromFormData&#39;P</text>
</g>
<!-- 21&#45;&gt;1 -->
<g id="edge11" class="edge"><title>21&#45;&gt;1</title>
<path fill="none" stroke="black" d="M383.538,-92.0474C392.492,-87.584 402.449,-83.1498 412,-80 478.897,-57.9382 498.947,-65.9137 568,-52 568.601,-51.879 569.204,-51.7569 569.809,-51.6339"/>
<polygon fill="black" stroke="black" points="570.69,-55.0257 579.771,-49.5681 569.269,-48.1715 570.69,-55.0257"/>
</g>
<!-- 21&#45;&gt;5 -->
<g id="edge12" class="edge"><title>21&#45;&gt;5</title>
<path fill="none" stroke="black" d="M382.595,-92.1737C400.575,-81.8321 423.734,-68.5121 443.175,-57.3308"/>
<polygon fill="black" stroke="black" points="445.172,-60.2195 452.096,-52.1997 441.682,-54.1515 445.172,-60.2195"/>
</g>
<!-- 22 -->
<g id="node17" class="node"><title>22</title>
<polygon fill="gold" stroke="black" stroke-width="2" points="1356.5,-443.067 1177.5,-443.067 1177.5,-407.067 1356.5,-407.067 1356.5,-443.067"/>
<text text-anchor="middle" x="1267" y="-421.367" font-family="Times,serif" font-size="14.00">renderTextTemplate&#39;P</text>
</g>
<!-- 23 -->
<g id="node18" class="node"><title>23</title>
<polygon fill="gold" stroke="black" stroke-width="2" points="864.5,-351.391 751.5,-351.391 751.5,-315.391 864.5,-315.391 864.5,-351.391"/>
<text text-anchor="middle" x="808" y="-329.691" font-family="Times,serif" font-size="14.00">runAction</text>
</g>
<!-- 26 -->
<g id="node21" class="node"><title>26</title>
<polygon fill="goldenrod" stroke="black" stroke-width="2" points="709,-279.391 587,-279.391 587,-243.391 709,-243.391 709,-279.391"/>
<text text-anchor="middle" x="648" y="-257.691" font-family="Times,serif" font-size="14.00">runActionE</text>
</g>
<!-- 23&#45;&gt;26 -->
<g id="edge13" class="edge"><title>23&#45;&gt;26</title>
<path fill="none" stroke="black" d="M768.86,-315.267C746.987,-305.698 719.543,-293.691 696.338,-283.539"/>
<polygon fill="black" stroke="black" points="697.578,-280.261 687.013,-279.46 694.772,-286.674 697.578,-280.261"/>
</g>
<!-- 24 -->
<g id="node19" class="node"><title>24</title>
<polygon fill="gold" stroke="black" stroke-width="2" points="728.5,-443.067 567.5,-443.067 567.5,-407.067 728.5,-407.067 728.5,-443.067"/>
<text text-anchor="middle" x="648" y="-421.367" font-family="Times,serif" font-size="14.00">runActionAsAgent</text>
</g>
<!-- 25 -->
<g id="node20" class="node"><title>25</title>
<polygon fill="goldenrod" stroke="black" stroke-width="2" points="733,-351.391 563,-351.391 563,-315.391 733,-315.391 733,-351.391"/>
<text text-anchor="middle" x="648" y="-329.691" font-family="Times,serif" font-size="14.00">runActionAsAgentE</text>
</g>
<!-- 24&#45;&gt;25 -->
<g id="edge14" class="edge"><title>24&#45;&gt;25</title>
<path fill="none" stroke="chartreuse" d="M648,-406.777C648,-393.999 648,-376.347 648,-361.674"/>
<polygon fill="chartreuse" stroke="chartreuse" points="651.5,-361.629 648,-351.629 644.5,-361.629 651.5,-361.629"/>
</g>
<!-- 25&#45;&gt;6 -->
<g id="edge15" class="edge"><title>25&#45;&gt;6</title>
<path fill="none" stroke="black" d="M620.219,-315.34C606.391,-305.922 590.091,-293.319 578,-279.391 566.001,-265.57 572.478,-254.589 558,-243.391 528.963,-220.932 491.385,-207.93 456.349,-200.424"/>
<polygon fill="black" stroke="black" points="457.038,-196.993 446.544,-198.45 455.656,-203.855 457.038,-196.993"/>
</g>
<!-- 25&#45;&gt;13 -->
<g id="edge16" class="edge"><title>25&#45;&gt;13</title>
<path fill="none" stroke="black" d="M602.989,-315.267C577.499,-305.57 545.432,-293.371 518.524,-283.134"/>
<polygon fill="black" stroke="black" points="519.456,-279.744 508.865,-279.46 516.967,-286.287 519.456,-279.744"/>
</g>
<!-- 25&#45;&gt;26 -->
<g id="edge17" class="edge"><title>25&#45;&gt;26</title>
<path fill="none" stroke="black" d="M648,-315.088C648,-307.374 648,-298.104 648,-289.504"/>
<polygon fill="black" stroke="black" points="651.5,-289.496 648,-279.496 644.5,-289.496 651.5,-289.496"/>
</g>
<!-- 26&#45;&gt;1 -->
<g id="edge18" class="edge"><title>26&#45;&gt;1</title>
<path fill="none" stroke="black" d="M694.522,-243.246C710.252,-234.955 726.078,-223.274 735,-207.391 762.73,-158.028 764.872,-128.097 735,-80 729.162,-70.6004 720.715,-63.1046 711.289,-57.1443"/>
<polygon fill="black" stroke="black" points="712.827,-53.9926 702.404,-52.0916 709.366,-60.0775 712.827,-53.9926"/>
</g>
<!-- 26&#45;&gt;2 -->
<g id="edge19" class="edge"><title>26&#45;&gt;2</title>
<path fill="none" stroke="black" stroke-width="2.09861" d="M648,-243.088C648,-235.374 648,-226.104 648,-217.504"/>
<polygon fill="black" stroke="black" stroke-width="2.09861" points="651.5,-217.496 648,-207.496 644.5,-217.496 651.5,-217.496"/>
</g>
<!-- 27 -->
<g id="node22" class="node"><title>27</title>
<polygon fill="gold" stroke="black" stroke-width="2" points="225.5,-443.067 16.5,-443.067 16.5,-407.067 225.5,-407.067 225.5,-443.067"/>
<text text-anchor="middle" x="121" y="-421.367" font-family="Times,serif" font-size="14.00">runActionInThentosSession</text>
</g>
<!-- 28 -->
<g id="node23" class="node"><title>28</title>
<polygon fill="goldenrod" stroke="black" stroke-width="2" points="349,-351.391 131,-351.391 131,-315.391 349,-315.391 349,-351.391"/>
<text text-anchor="middle" x="240" y="-329.691" font-family="Times,serif" font-size="14.00">runActionInThentosSessionE</text>
</g>
<!-- 27&#45;&gt;28 -->
<g id="edge20" class="edge"><title>27&#45;&gt;28</title>
<path fill="none" stroke="chartreuse" d="M143.663,-406.989C162.274,-392.964 188.811,-372.966 209.323,-357.509"/>
<polygon fill="chartreuse" stroke="chartreuse" points="211.541,-360.22 217.421,-351.406 207.329,-354.629 211.541,-360.22"/>
</g>
<!-- 28&#45;&gt;7 -->
<g id="edge21" class="edge"><title>28&#45;&gt;7</title>
<path fill="none" stroke="black" d="M240.247,-315.088C240.357,-307.374 240.49,-298.104 240.613,-289.504"/>
<polygon fill="black" stroke="black" points="244.112,-289.545 240.756,-279.496 237.113,-289.445 244.112,-289.545"/>
</g>
<!-- 28&#45;&gt;13 -->
<g id="edge22" class="edge"><title>28&#45;&gt;13</title>
<path fill="none" stroke="black" d="M294.51,-315.357C326.216,-305.449 366.355,-292.905 399.613,-282.512"/>
<polygon fill="black" stroke="black" points="400.745,-285.826 409.245,-279.502 398.657,-279.144 400.745,-285.826"/>
</g>
<!-- 28&#45;&gt;26 -->
<g id="edge23" class="edge"><title>28&#45;&gt;26</title>
<path fill="none" stroke="black" d="M345.736,-315.354C407.654,-305.231 487.327,-291.954 558,-279.391 564.062,-278.314 570.349,-277.173 576.654,-276.014"/>
<polygon fill="black" stroke="black" points="577.352,-279.444 586.548,-274.182 576.077,-272.561 577.352,-279.444"/>
</g>
<!-- 29 -->
<g id="node24" class="node"><title>29</title>
<polygon fill="gold" stroke="black" stroke-width="2" points="1796.5,-443.067 1601.5,-443.067 1601.5,-407.067 1796.5,-407.067 1796.5,-443.067"/>
<text text-anchor="middle" x="1699" y="-421.367" font-family="Times,serif" font-size="14.00">runActionWithClearance</text>
</g>
<!-- 30 -->
<g id="node25" class="node"><title>30</title>
<polygon fill="goldenrod" stroke="black" stroke-width="2" points="1519.5,-351.391 1316.5,-351.391 1316.5,-315.391 1519.5,-315.391 1519.5,-351.391"/>
<text text-anchor="middle" x="1418" y="-329.691" font-family="Times,serif" font-size="14.00">runActionWithClearanceE</text>
</g>
<!-- 29&#45;&gt;30 -->
<g id="edge24" class="edge"><title>29&#45;&gt;30</title>
<path fill="none" stroke="chartreuse" d="M1651.12,-407.055C1632.96,-400.724 1612.08,-393.579 1593,-387.391 1557.97,-376.032 1518.76,-364.085 1486.34,-354.415"/>
<polygon fill="chartreuse" stroke="chartreuse" points="1487.09,-350.988 1476.51,-351.49 1485.1,-357.697 1487.09,-350.988"/>
</g>
<!-- 30&#45;&gt;26 -->
<g id="edge25" class="edge"><title>30&#45;&gt;26</title>
<path fill="none" stroke="black" d="M1316.15,-323.132C1157.84,-308.74 856.704,-281.364 719.416,-268.884"/>
<polygon fill="black" stroke="black" points="719.698,-265.395 709.422,-267.975 719.064,-272.366 719.698,-265.395"/>
</g>
<!-- 31 -->
<g id="node26" class="node"><title>31</title>
<polygon fill="gold" stroke="black" stroke-width="2" points="412.5,-443.067 243.5,-443.067 243.5,-407.067 412.5,-407.067 412.5,-443.067"/>
<text text-anchor="middle" x="328" y="-421.367" font-family="Times,serif" font-size="14.00">runActionWithPrivs</text>
</g>
<!-- 32 -->
<g id="node27" class="node"><title>32</title>
<polygon fill="goldenrod" stroke="black" stroke-width="2" points="544.5,-351.391 367.5,-351.391 367.5,-315.391 544.5,-315.391 544.5,-351.391"/>
<text text-anchor="middle" x="456" y="-329.691" font-family="Times,serif" font-size="14.00">runActionWithPrivsE</text>
</g>
<!-- 31&#45;&gt;32 -->
<g id="edge26" class="edge"><title>31&#45;&gt;32</title>
<path fill="none" stroke="chartreuse" d="M352.377,-406.989C372.484,-392.902 401.193,-372.788 423.296,-357.303"/>
<polygon fill="chartreuse" stroke="chartreuse" points="425.532,-360.011 431.714,-351.406 421.515,-354.278 425.532,-360.011"/>
</g>
<!-- 32&#45;&gt;13 -->
<g id="edge27" class="edge"><title>32&#45;&gt;13</title>
<path fill="none" stroke="black" d="M457.978,-315.088C458.859,-307.374 459.919,-298.104 460.901,-289.504"/>
<polygon fill="black" stroke="black" points="464.387,-289.828 462.045,-279.496 457.432,-289.033 464.387,-289.828"/>
</g>
<!-- 32&#45;&gt;26 -->
<g id="edge28" class="edge"><title>32&#45;&gt;26</title>
<path fill="none" stroke="black" d="M502.968,-315.267C529.683,-305.528 563.321,-293.264 591.475,-282.999"/>
<polygon fill="black" stroke="black" points="592.988,-286.173 601.184,-279.46 590.59,-279.597 592.988,-286.173"/>
</g>
<!-- 33 -->
<g id="node28" class="node"><title>33</title>
<polygon fill="gold" stroke="black" stroke-width="2" points="549.5,-443.067 430.5,-443.067 430.5,-407.067 549.5,-407.067 549.5,-443.067"/>
<text text-anchor="middle" x="490" y="-421.367" font-family="Times,serif" font-size="14.00">sendMail&#39;P</text>
</g>
<!-- 34 -->
<g id="node29" class="node"><title>34</title>
<polygon fill="gold" stroke="black" stroke-width="2" points="1018.5,-443.067 911.5,-443.067 911.5,-407.067 1018.5,-407.067 1018.5,-443.067"/>
<text text-anchor="middle" x="965" y="-421.367" font-family="Times,serif" font-size="14.00">taintMsg</text>
</g>
<!-- 34&#45;&gt;19 -->
<g id="edge29" class="edge"><title>34&#45;&gt;19</title>
<path fill="none" stroke="black" d="M965,-406.777C965,-393.999 965,-376.347 965,-361.674"/>
<polygon fill="black" stroke="black" points="968.5,-361.629 965,-351.629 961.5,-361.629 968.5,-361.629"/>
</g>
<!-- 35 -->
<g id="node30" class="node"><title>35</title>
<polygon fill="khaki" stroke="black" stroke-dasharray="1,5" points="2395.86,-411.053 2395.86,-439.082 2325.06,-458.902 2224.94,-458.902 2154.14,-439.082 2154.14,-411.053 2224.94,-391.233 2325.06,-391.233 2395.86,-411.053"/>
<polygon fill="none" stroke="black" stroke-dasharray="1,5" points="2399.86,-408 2399.86,-442.135 2325.61,-462.921 2224.39,-462.921 2150.14,-442.135 2150.14,-408 2224.39,-387.214 2325.61,-387.214 2399.86,-408"/>
<text text-anchor="middle" x="2275" y="-428.867" font-family="Times,serif" font-size="14.00">Unknown Module</text>
<text text-anchor="middle" x="2275" y="-413.867" font-family="Times,serif" font-size="14.00">Class: MonadLIO</text>
</g>
<!-- 17 -->
<g id="node31" class="node"><title>17</title>
<polygon fill="bisque" stroke="black" stroke-width="2" points="3079.18,-100.92 3079.18,-119.471 2937.9,-132.589 2738.1,-132.589 2596.82,-119.471 2596.82,-100.92 2738.1,-87.8026 2937.9,-87.8026 3079.18,-100.92"/>
<text text-anchor="middle" x="2838" y="-106.496" font-family="Times,serif" font-size="14.00">Class: MonadLIO, Data: DCLabel (Action e s)</text>
</g>
<!-- 35&#45;&gt;17 -->
<g id="edge30" class="edge"><title>35&#45;&gt;17</title>
<path fill="none" stroke="navy" d="M2336.05,-390.138C2452.62,-325.358 2703.82,-185.765 2799.72,-132.469"/>
</g>
<!-- 17&#45;&gt;1 -->
<g id="edge9" class="edge"><title>17&#45;&gt;1</title>
<path fill="none" stroke="black" d="M2701.66,-91.1408C2663.93,-86.7785 2622.93,-82.623 2585,-80 2211.99,-54.2082 1027.74,-39.3234 718.471,-35.8116"/>
<polygon fill="black" stroke="black" points="718.313,-32.3097 708.274,-35.6963 718.234,-39.3092 718.313,-32.3097"/>
</g>
</g>
</svg>
