<?xml version="1.0" encoding="UTF-8" standalone="no"?>
<!DOCTYPE svg PUBLIC "-//W3C//DTD SVG 1.1//EN"
 "http://www.w3.org/Graphics/SVG/1.1/DTD/svg11.dtd">
<!-- Generated by graphviz version 2.38.0 (20140413.2041)
 -->
<!-- Title: Levels within Thentos.Frontend.Handlers Pages: 1 -->
<svg width="3122pt" height="313pt"
 viewBox="0.00 0.00 3122.00 312.74" xmlns="http://www.w3.org/2000/svg" xmlns:xlink="http://www.w3.org/1999/xlink">
<g id="graph0" class="graph" transform="scale(1 1) rotate(0) translate(4 308.744)">
<title>Levels within Thentos.Frontend.Handlers</title>
<polygon fill="white" stroke="none" points="-4,4 -4,-308.744 3118,-308.744 3118,4 -4,4"/>
<g id="clust1" class="cluster"><title>cluster_&#45;1</title>
<polygon fill="lavender" stroke="black" points="157,-202.067 157,-277.067 341,-277.067 341,-202.067 157,-202.067"/>
<text text-anchor="middle" x="249" y="-261.867" font-family="Times,serif" font-size="14.00">Inaccessible entities</text>
</g>
<g id="clust2" class="cluster"><title>cluster_0</title>
<polygon fill="lavender" stroke="black" points="499,-182.391 499,-296.744 3106,-296.744 3106,-182.391 499,-182.391"/>
<text text-anchor="middle" x="1802.5" y="-281.544" font-family="Times,serif" font-size="14.00">Exported root entities</text>
</g>
<g id="clust3" class="cluster"><title>cluster_1</title>
<polygon fill="lavender" stroke="black" points="8,-91 8,-174.391 1974,-174.391 1974,-91 8,-91"/>
<text text-anchor="middle" x="991" y="-159.191" font-family="Times,serif" font-size="14.00">Level = 1</text>
</g>
<g id="clust4" class="cluster"><title>cluster_2</title>
<polygon fill="lavender" stroke="black" points="1068,-8 1068,-83 1312,-83 1312,-8 1068,-8"/>
<text text-anchor="middle" x="1190" y="-67.8" font-family="Times,serif" font-size="14.00">Level = 2</text>
</g>
<!-- 14 -->
<g id="node1" class="node"><title>14</title>
<polygon fill="crimson" stroke="black" stroke-width="2" points="333,-246.067 165,-246.067 165,-210.067 333,-210.067 333,-246.067"/>
<text text-anchor="middle" x="249" y="-224.367" font-family="Times,serif" font-size="14.00">sendUserExistsMail</text>
</g>
<!-- 1 -->
<g id="node2" class="node"><title>1</title>
<polygon fill="gold" stroke="black" stroke-width="2" points="3098,-246.067 2974,-246.067 2974,-210.067 3098,-210.067 3098,-246.067"/>
<text text-anchor="middle" x="3036" y="-224.367" font-family="Times,serif" font-size="14.00">dashboardH</text>
</g>
<!-- 3 -->
<g id="node3" class="node"><title>3</title>
<polygon fill="gold" stroke="black" stroke-width="2" points="2956,-246.067 2814,-246.067 2814,-210.067 2956,-210.067 2956,-246.067"/>
<text text-anchor="middle" x="2885" y="-224.367" font-family="Times,serif" font-size="14.00">disableCaching</text>
</g>
<!-- 4 -->
<g id="node4" class="node"><title>4</title>
<polygon fill="gold" stroke="black" stroke-width="2" points="2795.5,-246.067 2610.5,-246.067 2610.5,-210.067 2795.5,-210.067 2795.5,-246.067"/>
<text text-anchor="middle" x="2703" y="-224.367" font-family="Times,serif" font-size="14.00">emailUpdateConfirmH</text>
</g>
<!-- 5 -->
<g id="node5" class="node"><title>5</title>
<polygon fill="gold" stroke="black" stroke-width="2" points="2385,-246.067 2247,-246.067 2247,-210.067 2385,-210.067 2385,-246.067"/>
<text text-anchor="middle" x="2316" y="-224.367" font-family="Times,serif" font-size="14.00">emailUpdateH</text>
</g>
<!-- 6 -->
<g id="node18" class="node"><title>6</title>
<polygon fill="cyan" stroke="black" stroke-width="2" points="1756.5,-139.196 1661.5,-139.196 1661.5,-103.196 1756.5,-103.196 1756.5,-139.196"/>
<text text-anchor="middle" x="1709" y="-117.496" font-family="Times,serif" font-size="14.00">formH</text>
</g>
<!-- 5&#45;&gt;6 -->
<g id="edge1" class="edge"><title>5&#45;&gt;6</title>
<path fill="none" stroke="black" d="M2293.14,-209.851C2278.28,-199.742 2258.01,-187.898 2238,-182.391 2187.32,-168.445 1813.74,-194.063 1765,-174.391 1750.86,-168.684 1738.14,-157.606 1728.42,-147.119"/>
<polygon fill="black" stroke="black" points="1730.81,-144.534 1721.59,-139.313 1725.54,-149.144 1730.81,-144.534"/>
</g>
<!-- 7 -->
<g id="node6" class="node"><title>7</title>
<polygon fill="gold" stroke="black" stroke-width="2" points="2229,-246.067 2071,-246.067 2071,-210.067 2229,-210.067 2229,-246.067"/>
<text text-anchor="middle" x="2150" y="-224.367" font-family="Times,serif" font-size="14.00">passwordUpdateH</text>
</g>
<!-- 7&#45;&gt;6 -->
<g id="edge2" class="edge"><title>7&#45;&gt;6</title>
<path fill="none" stroke="black" d="M2123.87,-209.917C2106.98,-199.833 2084.09,-187.993 2062,-182.391 2030,-174.277 1795.55,-186.899 1765,-174.391 1750.89,-168.613 1738.17,-157.528 1728.44,-147.054"/>
<polygon fill="black" stroke="black" points="1730.83,-144.472 1721.61,-139.262 1725.57,-149.088 1730.83,-144.472"/>
</g>
<!-- 9 -->
<g id="node7" class="node"><title>9</title>
<polygon fill="gold" stroke="black" stroke-width="2" points="2053,-246.067 1907,-246.067 1907,-210.067 2053,-210.067 2053,-246.067"/>
<text text-anchor="middle" x="1980" y="-224.367" font-family="Times,serif" font-size="14.00">resetPasswordH</text>
</g>
<!-- 9&#45;&gt;6 -->
<g id="edge3" class="edge"><title>9&#45;&gt;6</title>
<path fill="none" stroke="black" d="M1955.4,-209.931C1939.73,-199.988 1918.57,-188.294 1898,-182.391 1869.54,-174.224 1792.21,-186.062 1765,-174.391 1751.08,-168.422 1738.46,-157.424 1728.73,-147.058"/>
<polygon fill="black" stroke="black" points="1731.15,-144.504 1721.89,-139.348 1725.91,-149.15 1731.15,-144.504"/>
</g>
<!-- 10 -->
<g id="node8" class="node"><title>10</title>
<polygon fill="gold" stroke="black" stroke-width="2" points="2592.5,-246.067 2403.5,-246.067 2403.5,-210.067 2592.5,-210.067 2592.5,-246.067"/>
<text text-anchor="middle" x="2498" y="-224.367" font-family="Times,serif" font-size="14.00">resetPasswordRequestH</text>
</g>
<!-- 10&#45;&gt;6 -->
<g id="edge4" class="edge"><title>10&#45;&gt;6</title>
<path fill="none" stroke="black" d="M2467.2,-210.025C2447.05,-199.845 2419.76,-187.861 2394,-182.391 2359.81,-175.132 1797.44,-187.402 1765,-174.391 1750.85,-168.713 1738.13,-157.638 1728.4,-147.146"/>
<polygon fill="black" stroke="black" points="1730.79,-144.561 1721.58,-139.334 1725.52,-149.167 1730.79,-144.561"/>
</g>
<!-- 12 -->
<g id="node20" class="node"><title>12</title>
<polygon fill="cyan" stroke="black" stroke-width="2" points="1965.5,-139.196 1774.5,-139.196 1774.5,-103.196 1965.5,-103.196 1965.5,-139.196"/>
<text text-anchor="middle" x="1870" y="-117.496" font-family="Times,serif" font-size="14.00">sendPasswordResetMail</text>
</g>
<!-- 10&#45;&gt;12 -->
<g id="edge5" class="edge"><title>10&#45;&gt;12</title>
<path fill="none" stroke="black" d="M2465.16,-210.027C2445.12,-200.378 2418.69,-188.96 2394,-182.391 2252.34,-144.697 2082.94,-130.607 1975.89,-125.34"/>
<polygon fill="black" stroke="black" points="1975.89,-121.836 1965.73,-124.857 1975.55,-128.828 1975.89,-121.836"/>
</g>
<!-- 15 -->
<g id="node9" class="node"><title>15</title>
<polygon fill="gold" stroke="black" stroke-width="2" points="1889,-246.067 1747,-246.067 1747,-210.067 1889,-210.067 1889,-246.067"/>
<text text-anchor="middle" x="1818" y="-224.367" font-family="Times,serif" font-size="14.00">serviceCreateH</text>
</g>
<!-- 15&#45;&gt;6 -->
<g id="edge6" class="edge"><title>15&#45;&gt;6</title>
<path fill="none" stroke="black" d="M1800,-209.75C1782.09,-192.52 1754.45,-165.928 1734.33,-146.569"/>
<polygon fill="black" stroke="black" points="1736.66,-143.95 1727.03,-139.539 1731.81,-148.994 1736.66,-143.95"/>
</g>
<!-- 16 -->
<g id="node10" class="node"><title>16</title>
<polygon fill="gold" stroke="black" stroke-width="2" points="1728.5,-246.067 1589.5,-246.067 1589.5,-210.067 1728.5,-210.067 1728.5,-246.067"/>
<text text-anchor="middle" x="1659" y="-224.367" font-family="Times,serif" font-size="14.00">serviceLoginH</text>
</g>
<!-- 17 -->
<g id="node11" class="node"><title>17</title>
<polygon fill="gold" stroke="black" stroke-width="2" points="1571,-246.067 1419,-246.067 1419,-210.067 1571,-210.067 1571,-246.067"/>
<text text-anchor="middle" x="1495" y="-224.367" font-family="Times,serif" font-size="14.00">serviceRegisterH</text>
</g>
<!-- 17&#45;&gt;6 -->
<g id="edge7" class="edge"><title>17&#45;&gt;6</title>
<path fill="none" stroke="black" d="M1521.44,-209.867C1537.68,-200.161 1559.28,-188.74 1580,-182.391 1610.78,-172.96 1622.68,-187.697 1652,-174.391 1665.83,-168.116 1678.57,-157.191 1688.48,-146.952"/>
<polygon fill="black" stroke="black" points="1691.28,-149.073 1695.48,-139.344 1686.13,-144.333 1691.28,-149.073"/>
</g>
<!-- 20 -->
<g id="node12" class="node"><title>20</title>
<polygon fill="gold" stroke="black" stroke-width="2" points="1246.5,-246.067 1123.5,-246.067 1123.5,-210.067 1246.5,-210.067 1246.5,-246.067"/>
<text text-anchor="middle" x="1185" y="-224.367" font-family="Times,serif" font-size="14.00">userLoginH</text>
</g>
<!-- 20&#45;&gt;6 -->
<g id="edge9" class="edge"><title>20&#45;&gt;6</title>
<path fill="none" stroke="black" d="M1205.57,-209.885C1219.01,-199.789 1237.44,-187.947 1256,-182.391 1298.16,-169.768 1611.14,-190.748 1652,-174.391 1666.43,-168.612 1679.48,-157.371 1689.44,-146.796"/>
<polygon fill="black" stroke="black" points="1692.08,-149.096 1696.12,-139.302 1686.85,-144.438 1692.08,-149.096"/>
</g>
<!-- 18 -->
<g id="node22" class="node"><title>18</title>
<polygon fill="cyan" stroke="black" stroke-width="2" points="1416,-139.196 1282,-139.196 1282,-103.196 1416,-103.196 1416,-139.196"/>
<text text-anchor="middle" x="1349" y="-117.496" font-family="Times,serif" font-size="14.00">userFailLogin</text>
</g>
<!-- 20&#45;&gt;18 -->
<g id="edge10" class="edge"><title>20&#45;&gt;18</title>
<path fill="none" stroke="black" d="M1210.93,-209.896C1224.22,-201.315 1240.77,-190.963 1256,-182.391 1262.93,-178.492 1265.14,-178.408 1272,-174.391 1287.21,-165.489 1303.44,-154.694 1317.06,-145.237"/>
<polygon fill="black" stroke="black" points="1319.42,-147.857 1325.59,-139.249 1315.4,-142.127 1319.42,-147.857"/>
</g>
<!-- 19 -->
<g id="node23" class="node"><title>19</title>
<polygon fill="bisque" stroke="black" stroke-width="2" points="1263.5,-139.196 1116.5,-139.196 1116.5,-103.196 1263.5,-103.196 1263.5,-139.196"/>
<text text-anchor="middle" x="1190" y="-117.496" font-family="Times,serif" font-size="14.00">userFinishLogin</text>
</g>
<!-- 20&#45;&gt;19 -->
<g id="edge11" class="edge"><title>20&#45;&gt;19</title>
<path fill="none" stroke="black" d="M1185.83,-209.75C1186.6,-193.431 1187.78,-168.713 1188.69,-149.698"/>
<polygon fill="black" stroke="black" points="1192.19,-149.694 1189.17,-139.539 1185.2,-149.361 1192.19,-149.694"/>
</g>
<!-- 23 -->
<g id="node13" class="node"><title>23</title>
<polygon fill="gold" stroke="black" stroke-width="2" points="905,-246.067 775,-246.067 775,-210.067 905,-210.067 905,-246.067"/>
<text text-anchor="middle" x="840" y="-224.367" font-family="Times,serif" font-size="14.00">userLogoutH</text>
</g>
<!-- 21 -->
<g id="node24" class="node"><title>21</title>
<polygon fill="cyan" stroke="black" stroke-width="2" points="928,-139.196 752,-139.196 752,-103.196 928,-103.196 928,-139.196"/>
<text text-anchor="middle" x="840" y="-117.496" font-family="Times,serif" font-size="14.00">userLogoutConfirmH</text>
</g>
<!-- 23&#45;&gt;21 -->
<g id="edge12" class="edge"><title>23&#45;&gt;21</title>
<path fill="none" stroke="black" d="M840,-209.75C840,-193.431 840,-168.713 840,-149.698"/>
<polygon fill="black" stroke="black" points="843.5,-149.539 840,-139.539 836.5,-149.539 843.5,-149.539"/>
</g>
<!-- 22 -->
<g id="node25" class="node"><title>22</title>
<polygon fill="cyan" stroke="black" stroke-width="2" points="734.5,-139.196 575.5,-139.196 575.5,-103.196 734.5,-103.196 734.5,-139.196"/>
<text text-anchor="middle" x="655" y="-117.496" font-family="Times,serif" font-size="14.00">userLogoutDoneH</text>
</g>
<!-- 23&#45;&gt;22 -->
<g id="edge13" class="edge"><title>23&#45;&gt;22</title>
<path fill="none" stroke="black" d="M814.702,-209.99C800.733,-201.029 782.845,-190.3 766,-182.391 756.203,-177.792 752.815,-178.953 743,-174.391 724.821,-165.943 705.569,-154.8 689.722,-144.98"/>
<polygon fill="black" stroke="black" points="691.148,-141.742 680.82,-139.381 687.422,-147.668 691.148,-141.742"/>
</g>
<!-- 24 -->
<g id="node14" class="node"><title>24</title>
<polygon fill="gold" stroke="black" stroke-width="2" points="1105,-246.067 923,-246.067 923,-210.067 1105,-210.067 1105,-246.067"/>
<text text-anchor="middle" x="1014" y="-224.367" font-family="Times,serif" font-size="14.00">userRegisterConfirmH</text>
</g>
<!-- 2 -->
<g id="node17" class="node"><title>2</title>
<polygon fill="cyan" stroke="black" stroke-width="2" points="1098,-139.196 946,-139.196 946,-103.196 1098,-103.196 1098,-139.196"/>
<text text-anchor="middle" x="1022" y="-117.496" font-family="Times,serif" font-size="14.00">defaultUserRoles</text>
</g>
<!-- 24&#45;&gt;2 -->
<g id="edge14" class="edge"><title>24&#45;&gt;2</title>
<path fill="none" stroke="black" d="M1015.32,-209.75C1016.57,-193.431 1018.45,-168.713 1019.9,-149.698"/>
<polygon fill="black" stroke="black" points="1023.41,-149.776 1020.68,-139.539 1016.43,-149.244 1023.41,-149.776"/>
</g>
<!-- 24&#45;&gt;19 -->
<g id="edge15" class="edge"><title>24&#45;&gt;19</title>
<path fill="none" stroke="black" d="M1045.21,-209.863C1063.36,-199.738 1086.61,-186.569 1107,-174.391 1122.85,-164.923 1140.18,-154.106 1154.88,-144.784"/>
<polygon fill="black" stroke="black" points="1157.1,-147.52 1163.65,-139.198 1153.34,-141.615 1157.1,-147.52"/>
</g>
<!-- 25 -->
<g id="node15" class="node"><title>25</title>
<polygon fill="gold" stroke="black" stroke-width="2" points="1401,-246.067 1265,-246.067 1265,-210.067 1401,-210.067 1401,-246.067"/>
<text text-anchor="middle" x="1333" y="-224.367" font-family="Times,serif" font-size="14.00">userRegisterH</text>
</g>
<!-- 25&#45;&gt;6 -->
<g id="edge16" class="edge"><title>25&#45;&gt;6</title>
<path fill="none" stroke="black" d="M1355.56,-209.963C1370.23,-199.897 1390.24,-188.06 1410,-182.391 1461.72,-167.553 1602.18,-194.711 1652,-174.391 1666.4,-168.52 1679.44,-157.27 1689.4,-146.713"/>
<polygon fill="black" stroke="black" points="1692.03,-149.023 1696.09,-139.236 1686.81,-144.357 1692.03,-149.023"/>
</g>
<!-- 13 -->
<g id="node21" class="node"><title>13</title>
<polygon fill="cyan" stroke="black" stroke-width="2" points="1643.5,-139.196 1434.5,-139.196 1434.5,-103.196 1643.5,-103.196 1643.5,-139.196"/>
<text text-anchor="middle" x="1539" y="-117.496" font-family="Times,serif" font-size="14.00">sendUserConfirmationMail</text>
</g>
<!-- 25&#45;&gt;13 -->
<g id="edge17" class="edge"><title>25&#45;&gt;13</title>
<path fill="none" stroke="black" d="M1361.18,-209.905C1375.61,-201.328 1393.56,-190.975 1410,-182.391 1436.3,-168.658 1466.31,-154.566 1490.76,-143.473"/>
<polygon fill="black" stroke="black" points="1492.5,-146.525 1500.18,-139.221 1489.62,-140.144 1492.5,-146.525"/>
</g>
<!-- 26 -->
<g id="node16" class="node"><title>26</title>
<polygon fill="khaki" stroke="black" stroke-dasharray="1,5" points="752.858,-214.053 752.858,-242.082 682.061,-261.902 581.939,-261.902 511.142,-242.082 511.142,-214.053 581.939,-194.233 682.061,-194.233 752.858,-214.053"/>
<polygon fill="none" stroke="black" stroke-dasharray="1,5" points="756.856,-211 756.856,-245.135 682.607,-265.921 581.393,-265.921 507.144,-245.135 507.144,-211 581.393,-190.214 682.607,-190.214 756.856,-211"/>
<text text-anchor="middle" x="632" y="-231.867" font-family="Times,serif" font-size="14.00">Unknown Module</text>
<text text-anchor="middle" x="632" y="-216.867" font-family="Times,serif" font-size="14.00">Class: HasServer</text>
</g>
<!-- 11 -->
<g id="node19" class="node"><title>11</title>
<polygon fill="cyan" stroke="black" stroke-width="2" points="557.88,-111.92 557.88,-130.471 399.202,-143.589 174.798,-143.589 16.1202,-130.471 16.1202,-111.92 174.798,-98.8026 399.202,-98.8026 557.88,-111.92"/>
<text text-anchor="middle" x="287" y="-117.496" font-family="Times,serif" font-size="14.00">Class: HasServer, Data: (FormReqBody :&gt; sublayout)</text>
</g>
<!-- 26&#45;&gt;11 -->
<g id="edge18" class="edge"><title>26&#45;&gt;11</title>
<path fill="none" stroke="navy" d="M544.496,-200.468C486.304,-182.779 410.908,-159.861 356.76,-143.401"/>
</g>
<!-- 8 -->
<g id="node26" class="node"><title>8</title>
<polygon fill="cyan" stroke="black" stroke-width="2" points="1304,-52 1076,-52 1076,-16 1304,-16 1304,-52"/>
<text text-anchor="middle" x="1190" y="-30.3" font-family="Times,serif" font-size="14.00">redirectToDashboardOrService</text>
</g>
<!-- 19&#45;&gt;8 -->
<g id="edge8" class="edge"><title>19&#45;&gt;8</title>
<path fill="none" stroke="chartreuse" d="M1190,-102.955C1190,-91.2919 1190,-75.6412 1190,-62.2995"/>
<polygon fill="chartreuse" stroke="chartreuse" points="1193.5,-62.2149 1190,-52.215 1186.5,-62.215 1193.5,-62.2149"/>
</g>
</g>
</svg>
