<?xml version="1.0" encoding="UTF-8" standalone="no"?>
<!DOCTYPE svg PUBLIC "-//W3C//DTD SVG 1.1//EN"
 "http://www.w3.org/Graphics/SVG/1.1/DTD/svg11.dtd">
<!-- Generated by graphviz version 2.38.0 (20140413.2041)
 -->
<!-- Title: Diagram of: Thentos.Action.Core Pages: 1 -->
<svg width="2854pt" height="474pt"
 viewBox="0.00 0.00 2853.50 473.74" xmlns="http://www.w3.org/2000/svg" xmlns:xlink="http://www.w3.org/1999/xlink">
<g id="graph0" class="graph" transform="scale(1 1) rotate(0) translate(4 469.744)">
<title>Diagram of: Thentos.Action.Core</title>
<polygon fill="white" stroke="none" points="-4,4 -4,-469.744 2849.5,-469.744 2849.5,4 -4,4"/>
<g id="clust1" class="cluster"><title>cluster_Class_MonadLIO</title>
<path fill="#ffc1c1" stroke="black" d="M166,-72C166,-72 408,-72 408,-72 414,-72 420,-78 420,-84 420,-84 420,-265.744 420,-265.744 420,-271.744 414,-277.744 408,-277.744 408,-277.744 166,-277.744 166,-277.744 160,-277.744 154,-271.744 154,-265.744 154,-265.744 154,-84 154,-84 154,-78 160,-72 166,-72"/>
<text text-anchor="middle" x="287" y="-262.544" font-family="Times,serif" font-size="14.00">Class: MonadLIO</text>
</g>
<g id="clust2" class="cluster"><title>cluster_Class_MonadLIO_Data_DCLabelActiones</title>
<path fill="#c6e2ff" stroke="black" d="M195,-80C195,-80 377,-80 377,-80 383,-80 389,-86 389,-92 389,-92 389,-151.391 389,-151.391 389,-157.391 383,-163.391 377,-163.391 377,-163.391 195,-163.391 195,-163.391 189,-163.391 183,-157.391 183,-151.391 183,-151.391 183,-92 183,-92 183,-86 189,-80 195,-80"/>
<text text-anchor="middle" x="286" y="-148.191" font-family="Times,serif" font-size="14.00">Instance for: DCLabel (Action e s)</text>
</g>
<g id="clust3" class="cluster"><title>cluster_Data_Action</title>
<path fill="papayawhip" stroke="black" d="M20,-8C20,-8 134,-8 134,-8 140,-8 146,-14 146,-20 146,-20 146,-147.196 146,-147.196 146,-153.196 140,-159.196 134,-159.196 134,-159.196 20,-159.196 20,-159.196 14,-159.196 8,-153.196 8,-147.196 8,-147.196 8,-20 8,-20 8,-14 14,-8 20,-8"/>
<text text-anchor="middle" x="77" y="-143.996" font-family="Times,serif" font-size="14.00">Data: Action</text>
</g>
<g id="clust4" class="cluster"><title>cluster_Data_ActionError</title>
<path fill="papayawhip" stroke="black" d="M440,-183.067C440,-183.067 989,-183.067 989,-183.067 995,-183.067 1001,-189.067 1001,-195.067 1001,-195.067 1001,-246.067 1001,-246.067 1001,-252.067 995,-258.067 989,-258.067 989,-258.067 440,-258.067 440,-258.067 434,-258.067 428,-252.067 428,-246.067 428,-246.067 428,-195.067 428,-195.067 428,-189.067 434,-183.067 440,-183.067"/>
<text text-anchor="middle" x="714.5" y="-242.867" font-family="Times,serif" font-size="14.00">Data: ActionError</text>
</g>
<g id="clust5" class="cluster"><title>cluster_Data_ActionState</title>
<path fill="papayawhip" stroke="black" d="M874,-8C874,-8 1014,-8 1014,-8 1020,-8 1026,-14 1026,-20 1026,-20 1026,-147.196 1026,-147.196 1026,-153.196 1020,-159.196 1014,-159.196 1014,-159.196 874,-159.196 874,-159.196 868,-159.196 862,-153.196 862,-147.196 862,-147.196 862,-20 862,-20 862,-14 868,-8 874,-8"/>
<text text-anchor="middle" x="944" y="-143.996" font-family="Times,serif" font-size="14.00">Data: ActionState</text>
</g>
<!-- 17 -->
<g id="node1" class="node"><title>17</title>
<polygon fill="bisque" stroke="black" stroke-width="2" points="350.482,-100.92 350.482,-119.471 306.851,-132.589 245.149,-132.589 201.518,-119.471 201.518,-100.92 245.149,-87.8026 306.851,-87.8026 350.482,-100.92"/>
<text text-anchor="middle" x="276" y="-106.496" font-family="Times,serif" font-size="14.00">liftLIO</text>
</g>
<!-- 1 -->
<g id="node3" class="node"><title>1</title>
<polygon fill="goldenrod" stroke="black" stroke-width="2" points="137.5,-52 46.5,-52 42.5,-48 42.5,-16 133.5,-16 137.5,-20 137.5,-52"/>
<polyline fill="none" stroke="black" stroke-width="2" points="133.5,-48 42.5,-48 "/>
<polyline fill="none" stroke="black" stroke-width="2" points="133.5,-48 133.5,-16 "/>
<polyline fill="none" stroke="black" stroke-width="2" points="133.5,-48 137.5,-52 "/>
<text text-anchor="middle" x="90" y="-30.3" font-family="Times,serif" font-size="14.00">Action</text>
</g>
<!-- 17&#45;&gt;1 -->
<g id="edge11" class="edge"><title>17&#45;&gt;1</title>
<path fill="none" stroke="black" d="M231.921,-91.6123C204.992,-80.8706 170.415,-67.0775 142.132,-55.7954"/>
<polygon fill="black" stroke="black" points="143.387,-52.5279 132.802,-52.0736 140.793,-59.0297 143.387,-52.5279"/>
</g>
<!-- 35 -->
<g id="node2" class="node"><title>35</title>
<polygon fill="khaki" stroke="black" stroke-dasharray="1,5" points="407.858,-195.053 407.858,-223.082 337.061,-242.902 236.939,-242.902 166.142,-223.082 166.142,-195.053 236.939,-175.233 337.061,-175.233 407.858,-195.053"/>
<polygon fill="none" stroke="black" stroke-dasharray="1,5" points="411.856,-192 411.856,-226.135 337.607,-246.921 236.393,-246.921 162.144,-226.135 162.144,-192 236.393,-171.214 337.607,-171.214 411.856,-192"/>
<text text-anchor="middle" x="287" y="-212.867" font-family="Times,serif" font-size="14.00">Unknown Module</text>
<text text-anchor="middle" x="287" y="-197.867" font-family="Times,serif" font-size="14.00">liftLIO</text>
</g>
<!-- 35&#45;&gt;17 -->
<g id="edge34" class="edge"><title>35&#45;&gt;17</title>
<path fill="none" stroke="navy" d="M282.81,-171.168C281.329,-158.122 279.712,-143.89 278.427,-132.565"/>
</g>
<!-- 8 -->
<g id="node4" class="node"><title>8</title>
<polygon fill="goldenrod" stroke="black" stroke-width="2" points="138,-128.196 16,-128.196 16,-124.196 12,-124.196 12,-120.196 16,-120.196 16,-100.196 12,-100.196 12,-96.1956 16,-96.1956 16,-92.1956 138,-92.1956 138,-128.196"/>
<polyline fill="none" stroke="black" stroke-width="2" points="16,-124.196 20,-124.196 20,-120.196 16,-120.196 "/>
<polyline fill="none" stroke="black" stroke-width="2" points="16,-100.196 20,-100.196 20,-96.1956 16,-96.1956 "/>
<text text-anchor="middle" x="77" y="-106.496" font-family="Times,serif" font-size="14.00">fromAction</text>
</g>
<!-- 8&#45;&gt;1 -->
<g id="edge4" class="edge"><title>8&#45;&gt;1</title>
<path fill="none" stroke="magenta" d="M80.0151,-91.9872C81.5739,-83.091 83.5122,-72.0282 85.2652,-62.0233"/>
<polygon fill="magenta" stroke="magenta" points="87.0012,-52.1151 89.7078,-62.7418 86.1383,-57.0401 85.2753,-61.9651 85.2753,-61.9651 85.2753,-61.9651 86.1383,-57.0401 80.8428,-61.1884 87.0012,-52.1151 87.0012,-52.1151"/>
</g>
<!-- 2 -->
<g id="node5" class="node"><title>2</title>
<polygon fill="goldenrod" stroke="black" stroke-width="2" points="993,-227.067 819,-227.067 815,-223.067 815,-191.067 989,-191.067 993,-195.067 993,-227.067"/>
<polyline fill="none" stroke="black" stroke-width="2" points="989,-223.067 815,-223.067 "/>
<polyline fill="none" stroke="black" stroke-width="2" points="989,-223.067 989,-191.067 "/>
<polyline fill="none" stroke="black" stroke-width="2" points="989,-223.067 993,-227.067 "/>
<text text-anchor="middle" x="904" y="-205.367" font-family="Times,serif" font-size="14.00">ActionErrorAnyLabel</text>
</g>
<!-- 3 -->
<g id="node6" class="node"><title>3</title>
<polygon fill="goldenrod" stroke="black" stroke-width="2" points="797.5,-227.067 634.5,-227.067 630.5,-223.067 630.5,-191.067 793.5,-191.067 797.5,-195.067 797.5,-227.067"/>
<polyline fill="none" stroke="black" stroke-width="2" points="793.5,-223.067 630.5,-223.067 "/>
<polyline fill="none" stroke="black" stroke-width="2" points="793.5,-223.067 793.5,-191.067 "/>
<polyline fill="none" stroke="black" stroke-width="2" points="793.5,-223.067 797.5,-227.067 "/>
<text text-anchor="middle" x="714" y="-205.367" font-family="Times,serif" font-size="14.00">ActionErrorThentos</text>
</g>
<!-- 4 -->
<g id="node7" class="node"><title>4</title>
<polygon fill="goldenrod" stroke="black" stroke-width="2" points="612.5,-227.067 439.5,-227.067 435.5,-223.067 435.5,-191.067 608.5,-191.067 612.5,-195.067 612.5,-227.067"/>
<polyline fill="none" stroke="black" stroke-width="2" points="608.5,-223.067 435.5,-223.067 "/>
<polyline fill="none" stroke="black" stroke-width="2" points="608.5,-223.067 608.5,-191.067 "/>
<polyline fill="none" stroke="black" stroke-width="2" points="608.5,-223.067 612.5,-227.067 "/>
<text text-anchor="middle" x="524" y="-205.367" font-family="Times,serif" font-size="14.00">ActionErrorUnknown</text>
</g>
<!-- 5 -->
<g id="node8" class="node"><title>5</title>
<polygon fill="goldenrod" stroke="black" stroke-width="2" points="992,-52 874,-52 870,-48 870,-16 988,-16 992,-20 992,-52"/>
<polyline fill="none" stroke="black" stroke-width="2" points="988,-48 870,-48 "/>
<polyline fill="none" stroke="black" stroke-width="2" points="988,-48 988,-16 "/>
<polyline fill="none" stroke="black" stroke-width="2" points="988,-48 992,-52 "/>
<text text-anchor="middle" x="931" y="-30.3" font-family="Times,serif" font-size="14.00">ActionState</text>
</g>
<!-- 9 -->
<g id="node9" class="node"><title>9</title>
<polygon fill="gold" stroke="black" stroke-width="2" points="1018.5,-128.196 869.5,-128.196 869.5,-124.196 865.5,-124.196 865.5,-120.196 869.5,-120.196 869.5,-100.196 865.5,-100.196 865.5,-96.1956 869.5,-96.1956 869.5,-92.1956 1018.5,-92.1956 1018.5,-128.196"/>
<polyline fill="none" stroke="black" stroke-width="2" points="869.5,-124.196 873.5,-124.196 873.5,-120.196 869.5,-120.196 "/>
<polyline fill="none" stroke="black" stroke-width="2" points="869.5,-100.196 873.5,-100.196 873.5,-96.1956 869.5,-96.1956 "/>
<text text-anchor="middle" x="944" y="-106.496" font-family="Times,serif" font-size="14.00">fromActionState</text>
</g>
<!-- 9&#45;&gt;5 -->
<g id="edge5" class="edge"><title>9&#45;&gt;5</title>
<path fill="none" stroke="magenta" d="M940.985,-91.9872C939.426,-83.091 937.488,-72.0282 935.735,-62.0233"/>
<polygon fill="magenta" stroke="magenta" points="933.999,-52.1151 940.157,-61.1884 934.862,-57.0401 935.725,-61.9651 935.725,-61.9651 935.725,-61.9651 934.862,-57.0401 931.292,-62.7418 933.999,-52.1151 933.999,-52.1151"/>
</g>
<!-- 6 -->
<g id="node10" class="node"><title>6</title>
<polygon fill="goldenrod" stroke="black" stroke-width="2" points="1235.5,-227.067 1048.5,-227.067 1048.5,-191.067 1235.5,-191.067 1235.5,-227.067"/>
<text text-anchor="middle" x="1142" y="-205.367" font-family="Times,serif" font-size="14.00">accessRightsByAgent&#39;P</text>
</g>
<!-- 21 -->
<g id="node22" class="node"><title>21</title>
<polygon fill="goldenrod" stroke="black" stroke-width="2" points="851.5,-128.196 752.5,-128.196 752.5,-92.1956 851.5,-92.1956 851.5,-128.196"/>
<text text-anchor="middle" x="802" y="-106.496" font-family="Times,serif" font-size="14.00">query&#39;P</text>
</g>
<!-- 6&#45;&gt;21 -->
<g id="edge1" class="edge"><title>6&#45;&gt;21</title>
<path fill="none" stroke="black" d="M1101.33,-191.067C1081.65,-183.639 1057.48,-175.66 1035,-171.391 996.318,-164.044 894.3,-178.641 858,-163.391 844.037,-157.526 831.409,-146.54 821.694,-136.154"/>
<polygon fill="black" stroke="black" points="824.105,-133.597 814.859,-128.424 818.861,-138.234 824.105,-133.597"/>
</g>
<!-- 7 -->
<g id="node11" class="node"><title>7</title>
<polygon fill="goldenrod" stroke="black" stroke-width="2" points="1073.5,-321.744 834.5,-321.744 834.5,-285.744 1073.5,-285.744 1073.5,-321.744"/>
<text text-anchor="middle" x="954" y="-300.044" font-family="Times,serif" font-size="14.00">accessRightsByThentosSession&#39;P</text>
</g>
<!-- 7&#45;&gt;6 -->
<g id="edge2" class="edge"><title>7&#45;&gt;6</title>
<path fill="none" stroke="black" d="M1015.68,-285.593C1022.3,-283.198 1028.85,-280.576 1035,-277.744 1061.73,-265.432 1089.76,-247.489 1110.43,-233.172"/>
<polygon fill="black" stroke="black" points="1112.64,-235.897 1118.81,-227.285 1108.61,-230.169 1112.64,-235.897"/>
</g>
<!-- 7&#45;&gt;21 -->
<g id="edge3" class="edge"><title>7&#45;&gt;21</title>
<path fill="none" stroke="black" d="M998.538,-285.368C1001.02,-283.119 1003.23,-280.589 1005,-277.744 1030.01,-237.633 1037.5,-205.711 1005,-171.391 993.752,-159.515 873.052,-169.796 858,-163.391 844.064,-157.461 831.439,-146.469 821.719,-136.095"/>
<polygon fill="black" stroke="black" points="824.131,-133.539 814.879,-128.377 818.892,-138.182 824.131,-133.539"/>
</g>
<!-- 10 -->
<g id="node12" class="node"><title>10</title>
<polygon fill="gold" stroke="black" stroke-width="2" points="593.5,-128.196 428.5,-128.196 428.5,-92.1956 593.5,-92.1956 593.5,-128.196"/>
<text text-anchor="middle" x="511" y="-106.496" font-family="Times,serif" font-size="14.00">genRandomBytes&#39;P</text>
</g>
<!-- 10&#45;&gt;1 -->
<g id="edge6" class="edge"><title>10&#45;&gt;1</title>
<path fill="none" stroke="black" d="M463.882,-92.1563C442.492,-84.9909 416.721,-77.1413 393,-72 308.789,-53.7484 209.32,-43.7556 147.945,-38.8934"/>
<polygon fill="black" stroke="black" points="147.926,-35.3815 137.686,-38.1004 147.387,-42.3607 147.926,-35.3815"/>
</g>
<!-- 10&#45;&gt;5 -->
<g id="edge7" class="edge"><title>10&#45;&gt;5</title>
<path fill="none" stroke="black" d="M546.944,-92.0135C563.636,-84.73 583.962,-76.8261 603,-72 689.784,-50.0005 792.802,-41.0724 859.919,-37.4547"/>
<polygon fill="black" stroke="black" points="860.157,-40.9472 869.964,-36.9385 859.798,-33.9564 860.157,-40.9472"/>
</g>
<!-- 11 -->
<g id="node13" class="node"><title>11</title>
<polygon fill="gold" stroke="black" stroke-width="2" points="734,-128.196 612,-128.196 612,-92.1956 734,-92.1956 734,-128.196"/>
<text text-anchor="middle" x="673" y="-106.496" font-family="Times,serif" font-size="14.00">getConfig&#39;P</text>
</g>
<!-- 11&#45;&gt;1 -->
<g id="edge8" class="edge"><title>11&#45;&gt;1</title>
<path fill="none" stroke="black" d="M646.785,-92.1492C633.835,-84.6104 617.659,-76.458 602,-72 518.068,-48.1052 262.918,-39.1162 147.632,-36.2109"/>
<polygon fill="black" stroke="black" points="147.667,-32.7108 137.584,-35.9642 147.495,-39.7087 147.667,-32.7108"/>
</g>
<!-- 11&#45;&gt;5 -->
<g id="edge9" class="edge"><title>11&#45;&gt;5</title>
<path fill="none" stroke="black" d="M700.742,-92.027C713.262,-84.9246 728.476,-77.1601 743,-72 780.373,-58.7218 823.714,-49.7862 859.357,-44.0283"/>
<polygon fill="black" stroke="black" points="860.335,-47.418 869.674,-42.4149 859.254,-40.5021 860.335,-47.418"/>
</g>
<!-- 12 -->
<g id="node14" class="node"><title>12</title>
<polygon fill="gold" stroke="black" stroke-width="2" points="1517.5,-465.744 1362.5,-465.744 1362.5,-429.744 1517.5,-429.744 1517.5,-465.744"/>
<text text-anchor="middle" x="1440" y="-444.044" font-family="Times,serif" font-size="14.00">getCurrentTime&#39;P</text>
</g>
<!-- 13 -->
<g id="node15" class="node"><title>13</title>
<polygon fill="goldenrod" stroke="black" stroke-width="2" points="1262,-321.744 1092,-321.744 1092,-285.744 1262,-285.744 1262,-321.744"/>
<text text-anchor="middle" x="1177" y="-300.044" font-family="Times,serif" font-size="14.00">grantAccessRights&#39;P</text>
</g>
<!-- 14 -->
<g id="node16" class="node"><title>14</title>
<polygon fill="gold" stroke="black" stroke-width="2" points="1682,-465.744 1536,-465.744 1536,-429.744 1682,-429.744 1682,-465.744"/>
<text text-anchor="middle" x="1609" y="-444.044" font-family="Times,serif" font-size="14.00">guardWriteMsg</text>
</g>
<!-- 19 -->
<g id="node20" class="node"><title>19</title>
<polygon fill="goldenrod" stroke="black" stroke-width="2" points="1813.5,-393.744 1710.5,-393.744 1710.5,-357.744 1813.5,-357.744 1813.5,-393.744"/>
<text text-anchor="middle" x="1762" y="-372.044" font-family="Times,serif" font-size="14.00">logger&#39;P</text>
</g>
<!-- 14&#45;&gt;19 -->
<g id="edge10" class="edge"><title>14&#45;&gt;19</title>
<path fill="none" stroke="black" d="M1646.43,-429.62C1667.25,-420.093 1693.35,-408.15 1715.48,-398.027"/>
<polygon fill="black" stroke="black" points="1717.06,-401.155 1724.69,-393.812 1714.14,-394.79 1717.06,-401.155"/>
</g>
<!-- 15 -->
<g id="node17" class="node"><title>15</title>
<polygon fill="gold" stroke="black" stroke-width="2" points="2123,-465.744 1967,-465.744 1967,-429.744 2123,-429.744 2123,-465.744"/>
<text text-anchor="middle" x="2045" y="-444.044" font-family="Times,serif" font-size="14.00">hashServiceKey&#39;P</text>
</g>
<!-- 16 -->
<g id="node18" class="node"><title>16</title>
<polygon fill="gold" stroke="black" stroke-width="2" points="2284.5,-465.744 2141.5,-465.744 2141.5,-429.744 2284.5,-429.744 2284.5,-465.744"/>
<text text-anchor="middle" x="2213" y="-444.044" font-family="Times,serif" font-size="14.00">hashUserPass&#39;P</text>
</g>
<!-- 18 -->
<g id="node19" class="node"><title>18</title>
<polygon fill="gold" stroke="black" stroke-width="2" points="1823.5,-465.744 1700.5,-465.744 1700.5,-429.744 1823.5,-429.744 1823.5,-465.744"/>
<text text-anchor="middle" x="1762" y="-444.044" font-family="Times,serif" font-size="14.00">logIfError&#39;P</text>
</g>
<!-- 18&#45;&gt;19 -->
<g id="edge12" class="edge"><title>18&#45;&gt;19</title>
<path fill="none" stroke="black" d="M1762,-429.44C1762,-421.726 1762,-412.456 1762,-403.856"/>
<polygon fill="black" stroke="black" points="1765.5,-403.848 1762,-393.848 1758.5,-403.848 1765.5,-403.848"/>
</g>
<!-- 20 -->
<g id="node21" class="node"><title>20</title>
<polygon fill="gold" stroke="black" stroke-width="2" points="2511.5,-465.744 2302.5,-465.744 2302.5,-429.744 2511.5,-429.744 2511.5,-465.744"/>
<text text-anchor="middle" x="2407" y="-444.044" font-family="Times,serif" font-size="14.00">makeUserFromFormData&#39;P</text>
</g>
<!-- 21&#45;&gt;1 -->
<g id="edge13" class="edge"><title>21&#45;&gt;1</title>
<path fill="none" stroke="black" d="M780.641,-92.0234C769.977,-84.456 756.494,-76.3157 743,-72 633.245,-36.897 287.068,-34.1979 148.339,-34.5862"/>
<polygon fill="black" stroke="black" points="147.914,-31.0876 137.927,-34.6223 147.939,-38.0875 147.914,-31.0876"/>
</g>
<!-- 21&#45;&gt;5 -->
<g id="edge14" class="edge"><title>21&#45;&gt;5</title>
<path fill="none" stroke="black" d="M826.415,-92.0801C836.089,-85.5372 847.412,-78.171 858,-72 867.024,-66.7407 876.884,-61.4511 886.356,-56.5822"/>
<polygon fill="black" stroke="black" points="887.943,-59.7018 895.28,-52.0577 884.778,-53.4585 887.943,-59.7018"/>
</g>
<!-- 22 -->
<g id="node23" class="node"><title>22</title>
<polygon fill="gold" stroke="black" stroke-width="2" points="2708.5,-465.744 2529.5,-465.744 2529.5,-429.744 2708.5,-429.744 2708.5,-465.744"/>
<text text-anchor="middle" x="2619" y="-444.044" font-family="Times,serif" font-size="14.00">renderTextTemplate&#39;P</text>
</g>
<!-- 23 -->
<g id="node24" class="node"><title>23</title>
<polygon fill="gold" stroke="black" stroke-width="2" points="729.5,-393.744 616.5,-393.744 616.5,-357.744 729.5,-357.744 729.5,-393.744"/>
<text text-anchor="middle" x="673" y="-372.044" font-family="Times,serif" font-size="14.00">runAction</text>
</g>
<!-- 26 -->
<g id="node27" class="node"><title>26</title>
<polygon fill="goldenrod" stroke="black" stroke-width="2" points="775,-321.744 653,-321.744 653,-285.744 775,-285.744 775,-321.744"/>
<text text-anchor="middle" x="714" y="-300.044" font-family="Times,serif" font-size="14.00">runActionE</text>
</g>
<!-- 23&#45;&gt;26 -->
<g id="edge15" class="edge"><title>23&#45;&gt;26</title>
<path fill="none" stroke="black" d="M683.135,-357.44C687.852,-349.387 693.562,-339.638 698.782,-330.726"/>
<polygon fill="black" stroke="black" points="701.948,-332.246 703.982,-321.848 695.908,-328.708 701.948,-332.246"/>
</g>
<!-- 24 -->
<g id="node25" class="node"><title>24</title>
<polygon fill="gold" stroke="black" stroke-width="2" points="1344.5,-465.744 1183.5,-465.744 1183.5,-429.744 1344.5,-429.744 1344.5,-465.744"/>
<text text-anchor="middle" x="1264" y="-444.044" font-family="Times,serif" font-size="14.00">runActionAsAgent</text>
</g>
<!-- 25 -->
<g id="node26" class="node"><title>25</title>
<polygon fill="goldenrod" stroke="black" stroke-width="2" points="1349,-393.744 1179,-393.744 1179,-357.744 1349,-357.744 1349,-393.744"/>
<text text-anchor="middle" x="1264" y="-372.044" font-family="Times,serif" font-size="14.00">runActionAsAgentE</text>
</g>
<!-- 24&#45;&gt;25 -->
<g id="edge16" class="edge"><title>24&#45;&gt;25</title>
<path fill="none" stroke="chartreuse" d="M1264,-429.44C1264,-421.726 1264,-412.456 1264,-403.856"/>
<polygon fill="chartreuse" stroke="chartreuse" points="1267.5,-403.848 1264,-393.848 1260.5,-403.848 1267.5,-403.848"/>
</g>
<!-- 25&#45;&gt;6 -->
<g id="edge17" class="edge"><title>25&#45;&gt;6</title>
<path fill="none" stroke="black" d="M1270.84,-357.413C1277.13,-338.493 1283.71,-307.935 1271,-285.744 1256.63,-260.66 1230.37,-243.081 1205.27,-231.224"/>
<polygon fill="black" stroke="black" points="1206.65,-228.009 1196.1,-227.111 1203.79,-234.396 1206.65,-228.009"/>
</g>
<!-- 25&#45;&gt;13 -->
<g id="edge18" class="edge"><title>25&#45;&gt;13</title>
<path fill="none" stroke="black" d="M1242.49,-357.44C1231.54,-348.624 1218.05,-337.776 1206.18,-328.218"/>
<polygon fill="black" stroke="black" points="1208.24,-325.39 1198.26,-321.848 1203.86,-330.844 1208.24,-325.39"/>
</g>
<!-- 25&#45;&gt;26 -->
<g id="edge19" class="edge"><title>25&#45;&gt;26</title>
<path fill="none" stroke="black" d="M1178.99,-359.075C1175.96,-358.61 1172.96,-358.164 1170,-357.744 1017.37,-336.01 977.905,-341.419 825,-321.744 812.134,-320.088 798.457,-318.145 785.261,-316.175"/>
<polygon fill="black" stroke="black" points="785.694,-312.701 775.284,-314.668 784.649,-319.622 785.694,-312.701"/>
</g>
<!-- 26&#45;&gt;8 -->
<g id="edge23" class="edge"><title>26&#45;&gt;8</title>
<path fill="none" stroke="black" d="M652.817,-301.758C511.03,-299.241 170.449,-291.764 150,-277.744 103.232,-245.679 86.1551,-176.623 80.1279,-138.267"/>
<polygon fill="black" stroke="black" points="83.5858,-137.723 78.7055,-128.319 76.6563,-138.714 83.5858,-137.723"/>
</g>
<!-- 26&#45;&gt;2 -->
<g id="edge20" class="edge"><title>26&#45;&gt;2</title>
<path fill="none" stroke="black" d="M775.413,-289.18C785.839,-286 796.393,-282.206 806,-277.744 831.043,-266.111 856.627,-248.198 875.373,-233.723"/>
<polygon fill="black" stroke="black" points="877.781,-236.281 883.478,-227.349 873.454,-230.779 877.781,-236.281"/>
</g>
<!-- 26&#45;&gt;3 -->
<g id="edge21" class="edge"><title>26&#45;&gt;3</title>
<path fill="none" stroke="black" d="M714,-285.312C714,-271.764 714,-252.728 714,-237.193"/>
<polygon fill="black" stroke="black" points="717.5,-237.108 714,-227.108 710.5,-237.108 717.5,-237.108"/>
</g>
<!-- 26&#45;&gt;4 -->
<g id="edge22" class="edge"><title>26&#45;&gt;4</title>
<path fill="none" stroke="black" d="M652.887,-289.571C642.029,-286.321 631.003,-282.403 621,-277.744 595.98,-266.09 570.493,-248.017 551.926,-233.478"/>
<polygon fill="black" stroke="black" points="553.909,-230.583 543.909,-227.083 549.544,-236.055 553.909,-230.583"/>
</g>
<!-- 27 -->
<g id="node28" class="node"><title>27</title>
<polygon fill="gold" stroke="black" stroke-width="2" points="1156.5,-465.744 947.5,-465.744 947.5,-429.744 1156.5,-429.744 1156.5,-465.744"/>
<text text-anchor="middle" x="1052" y="-444.044" font-family="Times,serif" font-size="14.00">runActionInThentosSession</text>
</g>
<!-- 28 -->
<g id="node29" class="node"><title>28</title>
<polygon fill="goldenrod" stroke="black" stroke-width="2" points="1161,-393.744 943,-393.744 943,-357.744 1161,-357.744 1161,-393.744"/>
<text text-anchor="middle" x="1052" y="-372.044" font-family="Times,serif" font-size="14.00">runActionInThentosSessionE</text>
</g>
<!-- 27&#45;&gt;28 -->
<g id="edge24" class="edge"><title>27&#45;&gt;28</title>
<path fill="none" stroke="chartreuse" d="M1052,-429.44C1052,-421.726 1052,-412.456 1052,-403.856"/>
<polygon fill="chartreuse" stroke="chartreuse" points="1055.5,-403.848 1052,-393.848 1048.5,-403.848 1055.5,-403.848"/>
</g>
<!-- 28&#45;&gt;7 -->
<g id="edge25" class="edge"><title>28&#45;&gt;7</title>
<path fill="none" stroke="black" d="M1028.03,-357.62C1015.45,-348.637 999.868,-337.506 986.248,-327.778"/>
<polygon fill="black" stroke="black" points="988.237,-324.898 978.066,-321.933 984.169,-330.594 988.237,-324.898"/>
</g>
<!-- 28&#45;&gt;13 -->
<g id="edge26" class="edge"><title>28&#45;&gt;13</title>
<path fill="none" stroke="black" d="M1082.58,-357.62C1099.07,-348.382 1119.62,-336.874 1137.34,-326.955"/>
<polygon fill="black" stroke="black" points="1139.29,-329.873 1146.3,-321.933 1135.87,-323.766 1139.29,-329.873"/>
</g>
<!-- 28&#45;&gt;26 -->
<g id="edge27" class="edge"><title>28&#45;&gt;26</title>
<path fill="none" stroke="black" d="M969.748,-357.709C913.181,-345.994 838.824,-330.595 784.877,-319.422"/>
<polygon fill="black" stroke="black" points="785.552,-315.988 775.05,-317.387 784.132,-322.842 785.552,-315.988"/>
</g>
<!-- 29 -->
<g id="node30" class="node"><title>29</title>
<polygon fill="gold" stroke="black" stroke-width="2" points="594.5,-465.744 399.5,-465.744 399.5,-429.744 594.5,-429.744 594.5,-465.744"/>
<text text-anchor="middle" x="497" y="-444.044" font-family="Times,serif" font-size="14.00">runActionWithClearance</text>
</g>
<!-- 30 -->
<g id="node31" class="node"><title>30</title>
<polygon fill="goldenrod" stroke="black" stroke-width="2" points="598.5,-393.744 395.5,-393.744 395.5,-357.744 598.5,-357.744 598.5,-393.744"/>
<text text-anchor="middle" x="497" y="-372.044" font-family="Times,serif" font-size="14.00">runActionWithClearanceE</text>
</g>
<!-- 29&#45;&gt;30 -->
<g id="edge28" class="edge"><title>29&#45;&gt;30</title>
<path fill="none" stroke="chartreuse" d="M497,-429.44C497,-421.726 497,-412.456 497,-403.856"/>
<polygon fill="chartreuse" stroke="chartreuse" points="500.5,-403.848 497,-393.848 493.5,-403.848 500.5,-403.848"/>
</g>
<!-- 30&#45;&gt;26 -->
<g id="edge29" class="edge"><title>30&#45;&gt;26</title>
<path fill="none" stroke="black" d="M549.807,-357.709C580.39,-347.844 619.073,-335.365 651.21,-324.999"/>
<polygon fill="black" stroke="black" points="652.514,-328.255 660.957,-321.854 650.365,-321.593 652.514,-328.255"/>
</g>
<!-- 31 -->
<g id="node32" class="node"><title>31</title>
<polygon fill="gold" stroke="black" stroke-width="2" points="920.5,-465.744 751.5,-465.744 751.5,-429.744 920.5,-429.744 920.5,-465.744"/>
<text text-anchor="middle" x="836" y="-444.044" font-family="Times,serif" font-size="14.00">runActionWithPrivs</text>
</g>
<!-- 32 -->
<g id="node33" class="node"><title>32</title>
<polygon fill="goldenrod" stroke="black" stroke-width="2" points="924.5,-393.744 747.5,-393.744 747.5,-357.744 924.5,-357.744 924.5,-393.744"/>
<text text-anchor="middle" x="836" y="-372.044" font-family="Times,serif" font-size="14.00">runActionWithPrivsE</text>
</g>
<!-- 31&#45;&gt;32 -->
<g id="edge30" class="edge"><title>31&#45;&gt;32</title>
<path fill="none" stroke="chartreuse" d="M836,-429.44C836,-421.726 836,-412.456 836,-403.856"/>
<polygon fill="chartreuse" stroke="chartreuse" points="839.5,-403.848 836,-393.848 832.5,-403.848 839.5,-403.848"/>
</g>
<!-- 32&#45;&gt;13 -->
<g id="edge31" class="edge"><title>32&#45;&gt;13</title>
<path fill="none" stroke="black" d="M918.982,-357.709C968.895,-347.463 1032.54,-334.399 1084.12,-323.809"/>
<polygon fill="black" stroke="black" points="1084.85,-327.233 1093.94,-321.794 1083.44,-320.376 1084.85,-327.233"/>
</g>
<!-- 32&#45;&gt;26 -->
<g id="edge32" class="edge"><title>32&#45;&gt;26</title>
<path fill="none" stroke="black" d="M806.155,-357.62C790.056,-348.382 769.999,-336.874 752.712,-326.955"/>
<polygon fill="black" stroke="black" points="754.375,-323.874 743.959,-321.933 750.891,-329.946 754.375,-323.874"/>
</g>
<!-- 33 -->
<g id="node34" class="node"><title>33</title>
<polygon fill="gold" stroke="black" stroke-width="2" points="2845.5,-465.744 2726.5,-465.744 2726.5,-429.744 2845.5,-429.744 2845.5,-465.744"/>
<text text-anchor="middle" x="2786" y="-444.044" font-family="Times,serif" font-size="14.00">sendMail&#39;P</text>
</g>
<!-- 34 -->
<g id="node35" class="node"><title>34</title>
<polygon fill="gold" stroke="black" stroke-width="2" points="1948.5,-465.744 1841.5,-465.744 1841.5,-429.744 1948.5,-429.744 1948.5,-465.744"/>
<text text-anchor="middle" x="1895" y="-444.044" font-family="Times,serif" font-size="14.00">taintMsg</text>
</g>
<!-- 34&#45;&gt;19 -->
<g id="edge33" class="edge"><title>34&#45;&gt;19</title>
<path fill="none" stroke="black" d="M1862.46,-429.62C1844.75,-420.298 1822.65,-408.663 1803.68,-398.683"/>
<polygon fill="black" stroke="black" points="1805.14,-395.494 1794.66,-393.933 1801.88,-401.688 1805.14,-395.494"/>
</g>
</g>
</svg>
