<?xml version="1.0" encoding="UTF-8" standalone="no"?>
<!DOCTYPE svg PUBLIC "-//W3C//DTD SVG 1.1//EN"
 "http://www.w3.org/Graphics/SVG/1.1/DTD/svg11.dtd">
<!-- Generated by graphviz version 2.38.0 (20140413.2041)
 -->
<!-- Title: Diagram of: Thentos.Backend.Api.Docs.Common Pages: 1 -->
<svg width="6547pt" height="603pt"
 viewBox="0.00 0.00 6547.00 603.40" xmlns="http://www.w3.org/2000/svg" xmlns:xlink="http://www.w3.org/1999/xlink">
<g id="graph0" class="graph" transform="scale(1 1) rotate(0) translate(4 599.398)">
<title>Diagram of: Thentos.Backend.Api.Docs.Common</title>
<polygon fill="white" stroke="none" points="-4,4 -4,-599.398 6543,-599.398 6543,4 -4,4"/>
<g id="clust1" class="cluster"><title>cluster_Class_GenerateList</title>
<path fill="#ffc1c1" stroke="black" d="M20,-353.654C20,-353.654 262,-353.654 262,-353.654 268,-353.654 274,-359.654 274,-365.654 274,-365.654 274,-559.878 274,-559.878 274,-565.878 268,-571.878 262,-571.878 262,-571.878 20,-571.878 20,-571.878 14,-571.878 8,-565.878 8,-559.878 8,-559.878 8,-365.654 8,-365.654 8,-359.654 14,-353.654 20,-353.654"/>
<text text-anchor="middle" x="141" y="-556.678" font-family="Times,serif" font-size="14.00">Class: GenerateList</text>
</g>
<g id="clust2" class="cluster"><title>cluster_Class_GenerateList_Data_aForeignReq</title>
<path fill="#c6e2ff" stroke="black" d="M49,-361.654C49,-361.654 233,-361.654 233,-361.654 239,-361.654 245,-367.654 245,-373.654 245,-373.654 245,-433.046 245,-433.046 245,-439.046 239,-445.046 233,-445.046 233,-445.046 49,-445.046 49,-445.046 43,-445.046 37,-439.046 37,-433.046 37,-433.046 37,-373.654 37,-373.654 37,-367.654 43,-361.654 49,-361.654"/>
<text text-anchor="middle" x="141" y="-429.846" font-family="Times,serif" font-size="14.00">Instance for: (a &#45;&gt; Foreign.Req)</text>
</g>
<g id="clust3" class="cluster"><title>cluster_Class_HasDocExtras</title>
<path fill="#ffc1c1" stroke="black" d="M162,-56C162,-56 1360,-56 1360,-56 1366,-56 1372,-62 1372,-68 1372,-68 1372,-226.783 1372,-226.783 1372,-232.783 1366,-238.783 1360,-238.783 1360,-238.783 162,-238.783 162,-238.783 156,-238.783 150,-232.783 150,-226.783 150,-226.783 150,-68 150,-68 150,-62 156,-56 162,-56"/>
<text text-anchor="middle" x="761" y="-223.583" font-family="Times,serif" font-size="14.00">Class: HasDocExtras</text>
</g>
<g id="clust4" class="cluster"><title>cluster_DefaultInstance_HasDocExtras</title>
<path fill="#c6e2ff" stroke="black" d="M891,-64C891,-64 1259,-64 1259,-64 1265,-64 1271,-70 1271,-76 1271,-76 1271,-135.391 1271,-135.391 1271,-141.391 1265,-147.391 1259,-147.391 1259,-147.391 891,-147.391 891,-147.391 885,-147.391 879,-141.391 879,-135.391 879,-135.391 879,-76 879,-76 879,-70 885,-64 891,-64"/>
<text text-anchor="middle" x="1075" y="-132.191" font-family="Times,serif" font-size="14.00">Default Instance</text>
</g>
<g id="clust5" class="cluster"><title>cluster_Class_HasDocs</title>
<path fill="#ffc1c1" stroke="black" d="M1121,-346.174C1121,-346.174 1833,-346.174 1833,-346.174 1839,-346.174 1845,-352.174 1845,-358.174 1845,-358.174 1845,-575.398 1845,-575.398 1845,-581.398 1839,-587.398 1833,-587.398 1833,-587.398 1121,-587.398 1121,-587.398 1115,-587.398 1109,-581.398 1109,-575.398 1109,-575.398 1109,-358.174 1109,-358.174 1109,-352.174 1115,-346.174 1121,-346.174"/>
<text text-anchor="middle" x="1477" y="-572.198" font-family="Times,serif" font-size="14.00">Class: HasDocs</text>
</g>
<g id="clust6" class="cluster"><title>cluster_Class_HasDocs_Data_Post200ctsa</title>
<path fill="#c6e2ff" stroke="black" d="M1677,-473.007C1677,-473.007 1825,-473.007 1825,-473.007 1831,-473.007 1837,-479.007 1837,-485.007 1837,-485.007 1837,-544.398 1837,-544.398 1837,-550.398 1831,-556.398 1825,-556.398 1825,-556.398 1677,-556.398 1677,-556.398 1671,-556.398 1665,-550.398 1665,-544.398 1665,-544.398 1665,-485.007 1665,-485.007 1665,-479.007 1671,-473.007 1677,-473.007"/>
<text text-anchor="middle" x="1751" y="-541.198" font-family="Times,serif" font-size="14.00">Instance for: (Post200 cts a)</text>
</g>
<g id="clust7" class="cluster"><title>cluster_Class_HasDocs_Data_ThentosAssertHeaderssublayout</title>
<path fill="#c6e2ff" stroke="black" d="M1377,-473.007C1377,-473.007 1645,-473.007 1645,-473.007 1651,-473.007 1657,-479.007 1657,-485.007 1657,-485.007 1657,-544.398 1657,-544.398 1657,-550.398 1651,-556.398 1645,-556.398 1645,-556.398 1377,-556.398 1377,-556.398 1371,-556.398 1365,-550.398 1365,-544.398 1365,-544.398 1365,-485.007 1365,-485.007 1365,-479.007 1371,-473.007 1377,-473.007"/>
<text text-anchor="middle" x="1511" y="-541.198" font-family="Times,serif" font-size="14.00">Instance for: (ThentosAssertHeaders :&gt; sublayout)</text>
</g>
<g id="clust8" class="cluster"><title>cluster_Class_HasDocs_Data_ThentosAuthsublayout</title>
<path fill="#c6e2ff" stroke="black" d="M1129,-473.007C1129,-473.007 1345,-473.007 1345,-473.007 1351,-473.007 1357,-479.007 1357,-485.007 1357,-485.007 1357,-544.398 1357,-544.398 1357,-550.398 1351,-556.398 1345,-556.398 1345,-556.398 1129,-556.398 1129,-556.398 1123,-556.398 1117,-550.398 1117,-544.398 1117,-544.398 1117,-485.007 1117,-485.007 1117,-479.007 1123,-473.007 1129,-473.007"/>
<text text-anchor="middle" x="1237" y="-541.198" font-family="Times,serif" font-size="14.00">Instance for: (ThentosAuth :&gt; sublayout)</text>
</g>
<g id="clust9" class="cluster"><title>cluster_Class_MimeRender</title>
<path fill="#ffc1c1" stroke="black" d="M1865,-346.174C1865,-346.174 2071,-346.174 2071,-346.174 2077,-346.174 2083,-352.174 2083,-358.174 2083,-358.174 2083,-575.398 2083,-575.398 2083,-581.398 2077,-587.398 2071,-587.398 2071,-587.398 1865,-587.398 1865,-587.398 1859,-587.398 1853,-581.398 1853,-575.398 1853,-575.398 1853,-358.174 1853,-358.174 1853,-352.174 1859,-346.174 1865,-346.174"/>
<text text-anchor="middle" x="1968" y="-572.198" font-family="Times,serif" font-size="14.00">Class: MimeRender</text>
</g>
<g id="clust10" class="cluster"><title>cluster_Class_MimeRender_Data_PlainTextDocsAPI</title>
<path fill="#c6e2ff" stroke="black" d="M1873,-473.007C1873,-473.007 2063,-473.007 2063,-473.007 2069,-473.007 2075,-479.007 2075,-485.007 2075,-485.007 2075,-544.398 2075,-544.398 2075,-550.398 2069,-556.398 2063,-556.398 2063,-556.398 1873,-556.398 1873,-556.398 1867,-556.398 1861,-550.398 1861,-544.398 1861,-544.398 1861,-485.007 1861,-485.007 1861,-479.007 1867,-473.007 1873,-473.007"/>
<text text-anchor="middle" x="1968" y="-541.198" font-family="Times,serif" font-size="14.00">Instance for: PlainText Docs.API</text>
</g>
<g id="clust11" class="cluster"><title>cluster_Class_ToCapture</title>
<path fill="#ffc1c1" stroke="black" d="M2103,-353.654C2103,-353.654 3434,-353.654 3434,-353.654 3440,-353.654 3446,-359.654 3446,-365.654 3446,-365.654 3446,-559.878 3446,-559.878 3446,-565.878 3440,-571.878 3434,-571.878 3434,-571.878 2103,-571.878 2103,-571.878 2097,-571.878 2091,-565.878 2091,-559.878 2091,-559.878 2091,-365.654 2091,-365.654 2091,-359.654 2097,-353.654 2103,-353.654"/>
<text text-anchor="middle" x="2768.5" y="-556.678" font-family="Times,serif" font-size="14.00">Class: ToCapture</text>
</g>
<g id="clust12" class="cluster"><title>cluster_Class_ToCapture_Data_CaptureModuleNameST</title>
<path fill="#c6e2ff" stroke="black" d="M2111,-361.654C2111,-361.654 2338,-361.654 2338,-361.654 2344,-361.654 2350,-367.654 2350,-373.654 2350,-373.654 2350,-433.046 2350,-433.046 2350,-439.046 2344,-445.046 2338,-445.046 2338,-445.046 2111,-445.046 2111,-445.046 2105,-445.046 2099,-439.046 2099,-433.046 2099,-433.046 2099,-373.654 2099,-373.654 2099,-367.654 2105,-361.654 2111,-361.654"/>
<text text-anchor="middle" x="2224.5" y="-429.846" font-family="Times,serif" font-size="14.00">Instance for: (Capture &quot;ModuleName&quot; ST)</text>
</g>
<g id="clust13" class="cluster"><title>cluster_Class_ToCapture_Data_CapturesidServiceId</title>
<path fill="#c6e2ff" stroke="black" d="M2370,-361.654C2370,-361.654 2573,-361.654 2573,-361.654 2579,-361.654 2585,-367.654 2585,-373.654 2585,-373.654 2585,-433.046 2585,-433.046 2585,-439.046 2579,-445.046 2573,-445.046 2573,-445.046 2370,-445.046 2370,-445.046 2364,-445.046 2358,-439.046 2358,-433.046 2358,-433.046 2358,-373.654 2358,-373.654 2358,-367.654 2364,-361.654 2370,-361.654"/>
<text text-anchor="middle" x="2471.5" y="-429.846" font-family="Times,serif" font-size="14.00">Instance for: (Capture &quot;sid&quot; ServiceId)</text>
</g>
<g id="clust14" class="cluster"><title>cluster_Class_ToCapture_Data_CapturetokenServiceSessionToken</title>
<path fill="#c6e2ff" stroke="black" d="M2605,-361.654C2605,-361.654 2887,-361.654 2887,-361.654 2893,-361.654 2899,-367.654 2899,-373.654 2899,-373.654 2899,-433.046 2899,-433.046 2899,-439.046 2893,-445.046 2887,-445.046 2887,-445.046 2605,-445.046 2605,-445.046 2599,-445.046 2593,-439.046 2593,-433.046 2593,-433.046 2593,-373.654 2593,-373.654 2593,-367.654 2599,-361.654 2605,-361.654"/>
<text text-anchor="middle" x="2746" y="-429.846" font-family="Times,serif" font-size="14.00">Instance for: (Capture &quot;token&quot; ServiceSessionToken)</text>
</g>
<g id="clust15" class="cluster"><title>cluster_Class_ToCapture_Data_CapturetokenThentosSessionToken</title>
<path fill="#c6e2ff" stroke="black" d="M2919,-361.654C2919,-361.654 3204,-361.654 3204,-361.654 3210,-361.654 3216,-367.654 3216,-373.654 3216,-373.654 3216,-433.046 3216,-433.046 3216,-439.046 3210,-445.046 3204,-445.046 3204,-445.046 2919,-445.046 2919,-445.046 2913,-445.046 2907,-439.046 2907,-433.046 2907,-433.046 2907,-373.654 2907,-373.654 2907,-367.654 2913,-361.654 2919,-361.654"/>
<text text-anchor="middle" x="3061.5" y="-429.846" font-family="Times,serif" font-size="14.00">Instance for: (Capture &quot;token&quot; ThentosSessionToken)</text>
</g>
<g id="clust16" class="cluster"><title>cluster_Class_ToCapture_Data_CaptureuidUserId</title>
<path fill="#c6e2ff" stroke="black" d="M3236,-361.654C3236,-361.654 3426,-361.654 3426,-361.654 3432,-361.654 3438,-367.654 3438,-373.654 3438,-373.654 3438,-433.046 3438,-433.046 3438,-439.046 3432,-445.046 3426,-445.046 3426,-445.046 3236,-445.046 3236,-445.046 3230,-445.046 3224,-439.046 3224,-433.046 3224,-433.046 3224,-373.654 3224,-373.654 3224,-367.654 3230,-361.654 3236,-361.654"/>
<text text-anchor="middle" x="3331" y="-429.846" font-family="Times,serif" font-size="14.00">Instance for: (Capture &quot;uid&quot; UserId)</text>
</g>
<g id="clust17" class="cluster"><title>cluster_Class_ToSample</title>
<path fill="#ffc1c1" stroke="black" d="M3466,-246.783C3466,-246.783 6519,-246.783 6519,-246.783 6525,-246.783 6531,-252.783 6531,-258.783 6531,-258.783 6531,-575.398 6531,-575.398 6531,-581.398 6525,-587.398 6519,-587.398 6519,-587.398 3466,-587.398 3466,-587.398 3460,-587.398 3454,-581.398 3454,-575.398 3454,-575.398 3454,-258.783 3454,-258.783 3454,-252.783 3460,-246.783 3466,-246.783"/>
<text text-anchor="middle" x="4992.5" y="-572.198" font-family="Times,serif" font-size="14.00">Class: ToSample</text>
</g>
<g id="clust18" class="cluster"><title>cluster_Class_ToSample_Data_Agent</title>
<path fill="#c6e2ff" stroke="black" d="M3474,-254.783C3474,-254.783 3644,-254.783 3644,-254.783 3650,-254.783 3656,-260.783 3656,-266.783 3656,-266.783 3656,-326.174 3656,-326.174 3656,-332.174 3650,-338.174 3644,-338.174 3644,-338.174 3474,-338.174 3474,-338.174 3468,-338.174 3462,-332.174 3462,-326.174 3462,-326.174 3462,-266.783 3462,-266.783 3462,-260.783 3468,-254.783 3474,-254.783"/>
<text text-anchor="middle" x="3559" y="-322.974" font-family="Times,serif" font-size="14.00">Instance for: Agent</text>
</g>
<g id="clust19" class="cluster"><title>cluster_Class_ToSample_Data_ConfirmationToken</title>
<path fill="#c6e2ff" stroke="black" d="M3676,-254.783C3676,-254.783 3849,-254.783 3849,-254.783 3855,-254.783 3861,-260.783 3861,-266.783 3861,-266.783 3861,-326.174 3861,-326.174 3861,-332.174 3855,-338.174 3849,-338.174 3849,-338.174 3676,-338.174 3676,-338.174 3670,-338.174 3664,-332.174 3664,-326.174 3664,-326.174 3664,-266.783 3664,-266.783 3664,-260.783 3670,-254.783 3676,-254.783"/>
<text text-anchor="middle" x="3762.5" y="-322.974" font-family="Times,serif" font-size="14.00">Instance for: ConfirmationToken</text>
</g>
<g id="clust20" class="cluster"><title>cluster_Class_ToSample_Data_DocsAPI</title>
<path fill="#c6e2ff" stroke="black" d="M3881,-254.783C3881,-254.783 4051,-254.783 4051,-254.783 4057,-254.783 4063,-260.783 4063,-266.783 4063,-266.783 4063,-326.174 4063,-326.174 4063,-332.174 4057,-338.174 4051,-338.174 4051,-338.174 3881,-338.174 3881,-338.174 3875,-338.174 3869,-332.174 3869,-326.174 3869,-326.174 3869,-266.783 3869,-266.783 3869,-260.783 3875,-254.783 3881,-254.783"/>
<text text-anchor="middle" x="3966" y="-322.974" font-family="Times,serif" font-size="14.00">Instance for: Docs.API</text>
</g>
<g id="clust21" class="cluster"><title>cluster_Class_ToSample_Data_LoginFormData</title>
<path fill="#c6e2ff" stroke="black" d="M5118,-473.007C5118,-473.007 5288,-473.007 5288,-473.007 5294,-473.007 5300,-479.007 5300,-485.007 5300,-485.007 5300,-544.398 5300,-544.398 5300,-550.398 5294,-556.398 5288,-556.398 5288,-556.398 5118,-556.398 5118,-556.398 5112,-556.398 5106,-550.398 5106,-544.398 5106,-544.398 5106,-485.007 5106,-485.007 5106,-479.007 5112,-473.007 5118,-473.007"/>
<text text-anchor="middle" x="5203" y="-541.198" font-family="Times,serif" font-size="14.00">Instance for: LoginFormData</text>
</g>
<g id="clust22" class="cluster"><title>cluster_Class_ToSample_Data_PasswordResetToken</title>
<path fill="#c6e2ff" stroke="black" d="M4083,-254.783C4083,-254.783 4264,-254.783 4264,-254.783 4270,-254.783 4276,-260.783 4276,-266.783 4276,-266.783 4276,-326.174 4276,-326.174 4276,-332.174 4270,-338.174 4264,-338.174 4264,-338.174 4083,-338.174 4083,-338.174 4077,-338.174 4071,-332.174 4071,-326.174 4071,-326.174 4071,-266.783 4071,-266.783 4071,-260.783 4077,-254.783 4083,-254.783"/>
<text text-anchor="middle" x="4173.5" y="-322.974" font-family="Times,serif" font-size="14.00">Instance for: PasswordResetToken</text>
</g>
<g id="clust23" class="cluster"><title>cluster_Class_ToSample_Data_ST</title>
<path fill="#c6e2ff" stroke="black" d="M4296,-254.783C4296,-254.783 4466,-254.783 4466,-254.783 4472,-254.783 4478,-260.783 4478,-266.783 4478,-266.783 4478,-326.174 4478,-326.174 4478,-332.174 4472,-338.174 4466,-338.174 4466,-338.174 4296,-338.174 4296,-338.174 4290,-338.174 4284,-332.174 4284,-326.174 4284,-326.174 4284,-266.783 4284,-266.783 4284,-260.783 4290,-254.783 4296,-254.783"/>
<text text-anchor="middle" x="4381" y="-322.974" font-family="Times,serif" font-size="14.00">Instance for: ST</text>
</g>
<g id="clust24" class="cluster"><title>cluster_Class_ToSample_Data_ServiceDescription</title>
<path fill="#c6e2ff" stroke="black" d="M4498,-254.783C4498,-254.783 4668,-254.783 4668,-254.783 4674,-254.783 4680,-260.783 4680,-266.783 4680,-266.783 4680,-326.174 4680,-326.174 4680,-332.174 4674,-338.174 4668,-338.174 4668,-338.174 4498,-338.174 4498,-338.174 4492,-338.174 4486,-332.174 4486,-326.174 4486,-326.174 4486,-266.783 4486,-266.783 4486,-260.783 4492,-254.783 4498,-254.783"/>
<text text-anchor="middle" x="4583" y="-322.974" font-family="Times,serif" font-size="14.00">Instance for: ServiceDescription</text>
</g>
<g id="clust25" class="cluster"><title>cluster_Class_ToSample_Data_ServiceId</title>
<path fill="#c6e2ff" stroke="black" d="M4700,-254.783C4700,-254.783 4870,-254.783 4870,-254.783 4876,-254.783 4882,-260.783 4882,-266.783 4882,-266.783 4882,-326.174 4882,-326.174 4882,-332.174 4876,-338.174 4870,-338.174 4870,-338.174 4700,-338.174 4700,-338.174 4694,-338.174 4688,-332.174 4688,-326.174 4688,-326.174 4688,-266.783 4688,-266.783 4688,-260.783 4694,-254.783 4700,-254.783"/>
<text text-anchor="middle" x="4785" y="-322.974" font-family="Times,serif" font-size="14.00">Instance for: ServiceId</text>
</g>
<g id="clust26" class="cluster"><title>cluster_Class_ToSample_Data_ServiceKey</title>
<path fill="#c6e2ff" stroke="black" d="M4902,-254.783C4902,-254.783 5072,-254.783 5072,-254.783 5078,-254.783 5084,-260.783 5084,-266.783 5084,-266.783 5084,-326.174 5084,-326.174 5084,-332.174 5078,-338.174 5072,-338.174 5072,-338.174 4902,-338.174 4902,-338.174 4896,-338.174 4890,-332.174 4890,-326.174 4890,-326.174 4890,-266.783 4890,-266.783 4890,-260.783 4896,-254.783 4902,-254.783"/>
<text text-anchor="middle" x="4987" y="-322.974" font-family="Times,serif" font-size="14.00">Instance for: ServiceKey</text>
</g>
<g id="clust27" class="cluster"><title>cluster_Class_ToSample_Data_ServiceName</title>
<path fill="#c6e2ff" stroke="black" d="M5104,-254.783C5104,-254.783 5274,-254.783 5274,-254.783 5280,-254.783 5286,-260.783 5286,-266.783 5286,-266.783 5286,-326.174 5286,-326.174 5286,-332.174 5280,-338.174 5274,-338.174 5274,-338.174 5104,-338.174 5104,-338.174 5098,-338.174 5092,-332.174 5092,-326.174 5092,-326.174 5092,-266.783 5092,-266.783 5092,-260.783 5098,-254.783 5104,-254.783"/>
<text text-anchor="middle" x="5189" y="-322.974" font-family="Times,serif" font-size="14.00">Instance for: ServiceName</text>
</g>
<g id="clust28" class="cluster"><title>cluster_Class_ToSample_Data_ServiceSessionMetadata</title>
<path fill="#c6e2ff" stroke="black" d="M4889,-473.007C4889,-473.007 5086,-473.007 5086,-473.007 5092,-473.007 5098,-479.007 5098,-485.007 5098,-485.007 5098,-544.398 5098,-544.398 5098,-550.398 5092,-556.398 5086,-556.398 5086,-556.398 4889,-556.398 4889,-556.398 4883,-556.398 4877,-550.398 4877,-544.398 4877,-544.398 4877,-485.007 4877,-485.007 4877,-479.007 4883,-473.007 4889,-473.007"/>
<text text-anchor="middle" x="4987.5" y="-541.198" font-family="Times,serif" font-size="14.00">Instance for: ServiceSessionMetadata</text>
</g>
<g id="clust29" class="cluster"><title>cluster_Class_ToSample_Data_ServiceSessionToken</title>
<path fill="#c6e2ff" stroke="black" d="M5306,-254.783C5306,-254.783 5487,-254.783 5487,-254.783 5493,-254.783 5499,-260.783 5499,-266.783 5499,-266.783 5499,-326.174 5499,-326.174 5499,-332.174 5493,-338.174 5487,-338.174 5487,-338.174 5306,-338.174 5306,-338.174 5300,-338.174 5294,-332.174 5294,-326.174 5294,-326.174 5294,-266.783 5294,-266.783 5294,-260.783 5300,-254.783 5306,-254.783"/>
<text text-anchor="middle" x="5396.5" y="-322.974" font-family="Times,serif" font-size="14.00">Instance for: ServiceSessionToken</text>
</g>
<g id="clust30" class="cluster"><title>cluster_Class_ToSample_Data_ThentosSessionToken</title>
<path fill="#c6e2ff" stroke="black" d="M5519,-254.783C5519,-254.783 5703,-254.783 5703,-254.783 5709,-254.783 5715,-260.783 5715,-266.783 5715,-266.783 5715,-326.174 5715,-326.174 5715,-332.174 5709,-338.174 5703,-338.174 5703,-338.174 5519,-338.174 5519,-338.174 5513,-338.174 5507,-332.174 5507,-326.174 5507,-326.174 5507,-266.783 5507,-266.783 5507,-260.783 5513,-254.783 5519,-254.783"/>
<text text-anchor="middle" x="5611" y="-322.974" font-family="Times,serif" font-size="14.00">Instance for: ThentosSessionToken</text>
</g>
<g id="clust31" class="cluster"><title>cluster_Class_ToSample_Data_UserEmail</title>
<path fill="#c6e2ff" stroke="black" d="M5735,-254.783C5735,-254.783 5905,-254.783 5905,-254.783 5911,-254.783 5917,-260.783 5917,-266.783 5917,-266.783 5917,-326.174 5917,-326.174 5917,-332.174 5911,-338.174 5905,-338.174 5905,-338.174 5735,-338.174 5735,-338.174 5729,-338.174 5723,-332.174 5723,-326.174 5723,-326.174 5723,-266.783 5723,-266.783 5723,-260.783 5729,-254.783 5735,-254.783"/>
<text text-anchor="middle" x="5820" y="-322.974" font-family="Times,serif" font-size="14.00">Instance for: UserEmail</text>
</g>
<g id="clust32" class="cluster"><title>cluster_Class_ToSample_Data_UserFormData</title>
<path fill="#c6e2ff" stroke="black" d="M4687,-473.007C4687,-473.007 4857,-473.007 4857,-473.007 4863,-473.007 4869,-479.007 4869,-485.007 4869,-485.007 4869,-544.398 4869,-544.398 4869,-550.398 4863,-556.398 4857,-556.398 4857,-556.398 4687,-556.398 4687,-556.398 4681,-556.398 4675,-550.398 4675,-544.398 4675,-544.398 4675,-485.007 4675,-485.007 4675,-479.007 4681,-473.007 4687,-473.007"/>
<text text-anchor="middle" x="4772" y="-541.198" font-family="Times,serif" font-size="14.00">Instance for: UserFormData</text>
</g>
<g id="clust33" class="cluster"><title>cluster_Class_ToSample_Data_UserId</title>
<path fill="#c6e2ff" stroke="black" d="M5937,-254.783C5937,-254.783 6107,-254.783 6107,-254.783 6113,-254.783 6119,-260.783 6119,-266.783 6119,-266.783 6119,-326.174 6119,-326.174 6119,-332.174 6113,-338.174 6107,-338.174 6107,-338.174 5937,-338.174 5937,-338.174 5931,-338.174 5925,-332.174 5925,-326.174 5925,-326.174 5925,-266.783 5925,-266.783 5925,-260.783 5931,-254.783 5937,-254.783"/>
<text text-anchor="middle" x="6022" y="-322.974" font-family="Times,serif" font-size="14.00">Instance for: UserId</text>
</g>
<g id="clust34" class="cluster"><title>cluster_Class_ToSample_Data_UserName</title>
<path fill="#c6e2ff" stroke="black" d="M6139,-254.783C6139,-254.783 6309,-254.783 6309,-254.783 6315,-254.783 6321,-260.783 6321,-266.783 6321,-266.783 6321,-326.174 6321,-326.174 6321,-332.174 6315,-338.174 6309,-338.174 6309,-338.174 6139,-338.174 6139,-338.174 6133,-338.174 6127,-332.174 6127,-326.174 6127,-326.174 6127,-266.783 6127,-266.783 6127,-260.783 6133,-254.783 6139,-254.783"/>
<text text-anchor="middle" x="6224" y="-322.974" font-family="Times,serif" font-size="14.00">Instance for: UserName</text>
</g>
<g id="clust35" class="cluster"><title>cluster_Class_ToSample_Data_UserPass</title>
<path fill="#c6e2ff" stroke="black" d="M6341,-254.783C6341,-254.783 6511,-254.783 6511,-254.783 6517,-254.783 6523,-260.783 6523,-266.783 6523,-266.783 6523,-326.174 6523,-326.174 6523,-332.174 6517,-338.174 6511,-338.174 6511,-338.174 6341,-338.174 6341,-338.174 6335,-338.174 6329,-332.174 6329,-326.174 6329,-326.174 6329,-266.783 6329,-266.783 6329,-260.783 6335,-254.783 6341,-254.783"/>
<text text-anchor="middle" x="6426" y="-322.974" font-family="Times,serif" font-size="14.00">Instance for: UserPass</text>
</g>
<!-- 4 -->
<g id="node1" class="node"><title>4</title>
<polygon fill="cyan" stroke="black" stroke-width="2" points="236.842,-382.574 236.842,-401.125 180.699,-414.243 101.301,-414.243 45.158,-401.125 45.158,-382.574 101.301,-369.457 180.699,-369.457 236.842,-382.574"/>
<text text-anchor="middle" x="141" y="-388.15" font-family="Times,serif" font-size="14.00">generateList</text>
</g>
<!-- 53 -->
<g id="node2" class="node"><title>53</title>
<polygon fill="khaki" stroke="black" stroke-dasharray="1,5" points="261.858,-489.188 261.858,-517.217 191.061,-537.037 90.9389,-537.037 20.1417,-517.217 20.1417,-489.188 90.9389,-469.368 191.061,-469.368 261.858,-489.188"/>
<polygon fill="none" stroke="black" stroke-dasharray="1,5" points="265.856,-486.135 265.856,-520.269 191.607,-541.055 90.3926,-541.055 16.144,-520.269 16.144,-486.135 90.3926,-465.349 191.607,-465.349 265.856,-486.135"/>
<text text-anchor="middle" x="141" y="-507.002" font-family="Times,serif" font-size="14.00">Unknown Module</text>
<text text-anchor="middle" x="141" y="-492.002" font-family="Times,serif" font-size="14.00">generateList</text>
</g>
<!-- 53&#45;&gt;4 -->
<g id="edge43" class="edge"><title>53&#45;&gt;4</title>
<path fill="none" stroke="navy" d="M141,-465.485C141,-448.484 141,-428.878 141,-414.323"/>
</g>
<!-- 8 -->
<g id="node3" class="node"><title>8</title>
<polygon fill="cyan" stroke="black" stroke-width="2" points="1081.4,-84.9201 1081.4,-103.471 1024.35,-116.589 943.654,-116.589 886.596,-103.471 886.596,-84.9201 943.654,-71.8026 1024.35,-71.8026 1081.4,-84.9201"/>
<text text-anchor="middle" x="984" y="-90.4956" font-family="Times,serif" font-size="14.00">getExtraInfo</text>
</g>
<!-- 10 -->
<g id="node4" class="node"><title>10</title>
<polygon fill="cyan" stroke="black" stroke-width="2" points="1262.79,-84.9201 1262.79,-103.471 1214.88,-116.589 1147.12,-116.589 1099.21,-103.471 1099.21,-84.9201 1147.12,-71.8026 1214.88,-71.8026 1262.79,-84.9201"/>
<text text-anchor="middle" x="1181" y="-90.4956" font-family="Times,serif" font-size="14.00">getIntros</text>
</g>
<!-- 5 -->
<g id="node5" class="node"><title>5</title>
<polygon fill="goldenrod" stroke="black" stroke-width="2" points="445.683,-172.324 445.683,-190.85 362.687,-203.95 245.313,-203.95 162.317,-190.85 162.317,-172.324 245.313,-159.224 362.687,-159.224 445.683,-172.324"/>
<polygon fill="none" stroke="black" stroke-width="2" points="449.686,-168.876 449.686,-194.297 362.999,-207.98 245.001,-207.98 158.314,-194.297 158.314,-168.876 245.001,-155.194 362.999,-155.194 449.686,-168.876"/>
<text text-anchor="middle" x="304" y="-177.887" font-family="Times,serif" font-size="14.00">getCabalPackageName</text>
</g>
<!-- 6 -->
<g id="node6" class="node"><title>6</title>
<polygon fill="goldenrod" stroke="black" stroke-width="2" points="768.463,-172.324 768.463,-190.85 681.495,-203.95 558.505,-203.95 471.537,-190.85 471.537,-172.324 558.505,-159.224 681.495,-159.224 768.463,-172.324"/>
<polygon fill="none" stroke="black" stroke-width="2" points="772.462,-168.852 772.462,-194.322 681.793,-207.98 558.207,-207.98 467.538,-194.322 467.538,-168.852 558.207,-155.194 681.793,-155.194 772.462,-168.852"/>
<text text-anchor="middle" x="620" y="-177.887" font-family="Times,serif" font-size="14.00">getCabalPackageVersion</text>
</g>
<!-- 7 -->
<g id="node7" class="node"><title>7</title>
<polygon fill="goldenrod" stroke="black" stroke-width="2" points="989.396,-172.324 989.396,-190.85 932.343,-203.95 851.657,-203.95 794.604,-190.85 794.604,-172.324 851.657,-159.224 932.343,-159.224 989.396,-172.324"/>
<polygon fill="none" stroke="black" stroke-width="2" points="993.404,-169.11 993.404,-194.063 932.794,-207.98 851.206,-207.98 790.596,-194.063 790.596,-169.11 851.206,-155.194 932.794,-155.194 993.404,-169.11"/>
<text text-anchor="middle" x="892" y="-177.887" font-family="Times,serif" font-size="14.00">getExtraInfo</text>
</g>
<!-- 7&#45;&gt;8 -->
<g id="edge4" class="edge"><title>7&#45;&gt;8</title>
<path fill="none" stroke="turquoise" d="M919.603,-154.967C932.835,-142.685 948.499,-128.147 961.064,-116.484"/>
</g>
<!-- 9 -->
<g id="node8" class="node"><title>9</title>
<polygon fill="goldenrod" stroke="black" stroke-width="2" points="1359.79,-172.324 1359.79,-190.85 1311.88,-203.95 1244.12,-203.95 1196.21,-190.85 1196.21,-172.324 1244.12,-159.224 1311.88,-159.224 1359.79,-172.324"/>
<polygon fill="none" stroke="black" stroke-width="2" points="1363.79,-169.241 1363.79,-193.933 1312.41,-207.98 1243.59,-207.98 1192.21,-193.933 1192.21,-169.241 1243.59,-155.194 1312.41,-155.194 1363.79,-169.241"/>
<text text-anchor="middle" x="1278" y="-177.887" font-family="Times,serif" font-size="14.00">getIntros</text>
</g>
<!-- 9&#45;&gt;10 -->
<g id="edge5" class="edge"><title>9&#45;&gt;10</title>
<path fill="none" stroke="turquoise" d="M1249.16,-155.198C1235.2,-142.907 1218.62,-128.314 1205.31,-116.596"/>
</g>
<!-- 11 -->
<g id="node9" class="node"><title>11</title>
<polygon fill="goldenrod" stroke="black" stroke-width="2" points="1170.11,-172.324 1170.11,-190.85 1124.94,-203.95 1061.06,-203.95 1015.89,-190.85 1015.89,-172.324 1061.06,-159.224 1124.94,-159.224 1170.11,-172.324"/>
<polygon fill="none" stroke="black" stroke-width="2" points="1174.1,-169.288 1174.1,-193.886 1125.5,-207.98 1060.5,-207.98 1011.9,-193.886 1011.9,-169.288 1060.5,-155.194 1125.5,-155.194 1174.1,-169.288"/>
<text text-anchor="middle" x="1093" y="-177.887" font-family="Times,serif" font-size="14.00">getTitle</text>
</g>
<!-- 1 -->
<g id="node10" class="node"><title>1</title>
<polygon fill="bisque" stroke="black" stroke-width="2" points="1829.13,-493.927 1829.13,-512.478 1783.36,-525.595 1718.64,-525.595 1672.87,-512.478 1672.87,-493.927 1718.64,-480.809 1783.36,-480.809 1829.13,-493.927"/>
<text text-anchor="middle" x="1751" y="-499.502" font-family="Times,serif" font-size="14.00">docsFor</text>
</g>
<!-- 52 -->
<g id="node13" class="node"><title>52</title>
<polygon fill="khaki" stroke="black" stroke-dasharray="1,5" points="1631.86,-377.835 1631.86,-405.865 1561.06,-425.684 1460.94,-425.684 1390.14,-405.865 1390.14,-377.835 1460.94,-358.016 1561.06,-358.016 1631.86,-377.835"/>
<polygon fill="none" stroke="black" stroke-dasharray="1,5" points="1635.86,-374.783 1635.86,-408.917 1561.61,-429.703 1460.39,-429.703 1386.14,-408.917 1386.14,-374.783 1460.39,-353.997 1561.61,-353.997 1635.86,-374.783"/>
<text text-anchor="middle" x="1511" y="-395.65" font-family="Times,serif" font-size="14.00">Unknown Module</text>
<text text-anchor="middle" x="1511" y="-380.65" font-family="Times,serif" font-size="14.00">docsFor</text>
</g>
<!-- 1&#45;&gt;52 -->
<g id="edge1" class="edge"><title>1&#45;&gt;52</title>
<path fill="none" stroke="black" d="M1706.48,-484.267C1672.62,-469.54 1625.34,-448.192 1585.74,-429.83"/>
<polygon fill="black" stroke="black" points="1587.17,-426.638 1576.63,-425.597 1584.22,-432.986 1587.17,-426.638"/>
</g>
<!-- 2 -->
<g id="node11" class="node"><title>2</title>
<polygon fill="bisque" stroke="black" stroke-width="2" points="1589.13,-493.927 1589.13,-512.478 1543.36,-525.595 1478.64,-525.595 1432.87,-512.478 1432.87,-493.927 1478.64,-480.809 1543.36,-480.809 1589.13,-493.927"/>
<text text-anchor="middle" x="1511" y="-499.502" font-family="Times,serif" font-size="14.00">docsFor</text>
</g>
<!-- 2&#45;&gt;52 -->
<g id="edge2" class="edge"><title>2&#45;&gt;52</title>
<path fill="none" stroke="black" d="M1505.52,-480.858C1504.49,-469.155 1504.09,-454.156 1504.31,-439.869"/>
<polygon fill="black" stroke="black" points="1507.81,-439.739 1504.58,-429.649 1500.82,-439.552 1507.81,-439.739"/>
</g>
<!-- 3 -->
<g id="node12" class="node"><title>3</title>
<polygon fill="bisque" stroke="black" stroke-width="2" points="1349.13,-493.927 1349.13,-512.478 1303.36,-525.595 1238.64,-525.595 1192.87,-512.478 1192.87,-493.927 1238.64,-480.809 1303.36,-480.809 1349.13,-493.927"/>
<text text-anchor="middle" x="1271" y="-499.502" font-family="Times,serif" font-size="14.00">docsFor</text>
</g>
<!-- 3&#45;&gt;52 -->
<g id="edge3" class="edge"><title>3&#45;&gt;52</title>
<path fill="none" stroke="black" d="M1309.12,-482.399C1341.13,-467.154 1387.89,-445.7 1428.37,-427.613"/>
<polygon fill="black" stroke="black" points="1430,-430.72 1437.71,-423.452 1427.15,-424.326 1430,-430.72"/>
</g>
<!-- 52&#45;&gt;1 -->
<g id="edge40" class="edge"><title>52&#45;&gt;1</title>
<path fill="none" stroke="navy" d="M1584.29,-423.452C1626.74,-442.32 1678.37,-465.966 1712.88,-482.399"/>
</g>
<!-- 52&#45;&gt;2 -->
<g id="edge41" class="edge"><title>52&#45;&gt;2</title>
<path fill="none" stroke="navy" d="M1517.42,-429.649C1518.07,-446.681 1517.76,-466.314 1516.48,-480.858"/>
</g>
<!-- 52&#45;&gt;3 -->
<g id="edge42" class="edge"><title>52&#45;&gt;3</title>
<path fill="none" stroke="navy" d="M1445.37,-425.597C1404.11,-444.826 1352.02,-468.392 1315.52,-484.267"/>
</g>
<!-- 13 -->
<g id="node14" class="node"><title>13</title>
<polygon fill="bisque" stroke="black" stroke-width="2" points="2067.5,-493.927 2067.5,-512.478 2009.21,-525.595 1926.79,-525.595 1868.5,-512.478 1868.5,-493.927 1926.79,-480.809 2009.21,-480.809 2067.5,-493.927"/>
<text text-anchor="middle" x="1968" y="-499.502" font-family="Times,serif" font-size="14.00">mimeRender</text>
</g>
<!-- 51 -->
<g id="node15" class="node"><title>51</title>
<polygon fill="khaki" stroke="black" stroke-dasharray="5,2" points="2067.5,-377.835 2067.5,-405.865 2009.21,-425.684 1926.79,-425.684 1868.5,-405.865 1868.5,-377.835 1926.79,-358.016 2009.21,-358.016 2067.5,-377.835"/>
<polygon fill="none" stroke="black" stroke-dasharray="5,2" points="2071.5,-374.953 2071.5,-408.747 2009.87,-429.703 1926.13,-429.703 1864.5,-408.747 1864.5,-374.953 1926.13,-353.997 2009.87,-353.997 2071.5,-374.953"/>
<text text-anchor="middle" x="1968" y="-395.65" font-family="Times,serif" font-size="14.00">Servant.API</text>
<text text-anchor="middle" x="1968" y="-380.65" font-family="Times,serif" font-size="14.00">mimeRender</text>
</g>
<!-- 13&#45;&gt;51 -->
<g id="edge6" class="edge"><title>13&#45;&gt;51</title>
<path fill="none" stroke="chartreuse" d="M1962.52,-480.858C1961.49,-469.155 1961.09,-454.156 1961.31,-439.869"/>
<polygon fill="chartreuse" stroke="chartreuse" points="1964.81,-439.739 1961.58,-429.649 1957.82,-439.552 1964.81,-439.739"/>
</g>
<!-- 51&#45;&gt;13 -->
<g id="edge39" class="edge"><title>51&#45;&gt;13</title>
<path fill="none" stroke="navy" d="M1974.42,-429.649C1975.07,-446.681 1974.76,-466.314 1973.48,-480.858"/>
</g>
<!-- 28 -->
<g id="node16" class="node"><title>28</title>
<polygon fill="cyan" stroke="black" stroke-width="2" points="2341.94,-382.574 2341.94,-401.125 2291.6,-414.243 2220.4,-414.243 2170.06,-401.125 2170.06,-382.574 2220.4,-369.457 2291.6,-369.457 2341.94,-382.574"/>
<text text-anchor="middle" x="2256" y="-388.15" font-family="Times,serif" font-size="14.00">toCapture</text>
</g>
<!-- 29 -->
<g id="node17" class="node"><title>29</title>
<polygon fill="cyan" stroke="black" stroke-width="2" points="2576.94,-382.574 2576.94,-401.125 2526.6,-414.243 2455.4,-414.243 2405.06,-401.125 2405.06,-382.574 2455.4,-369.457 2526.6,-369.457 2576.94,-382.574"/>
<text text-anchor="middle" x="2491" y="-388.15" font-family="Times,serif" font-size="14.00">toCapture</text>
</g>
<!-- 30 -->
<g id="node18" class="node"><title>30</title>
<polygon fill="cyan" stroke="black" stroke-width="2" points="2831.94,-382.574 2831.94,-401.125 2781.6,-414.243 2710.4,-414.243 2660.06,-401.125 2660.06,-382.574 2710.4,-369.457 2781.6,-369.457 2831.94,-382.574"/>
<text text-anchor="middle" x="2746" y="-388.15" font-family="Times,serif" font-size="14.00">toCapture</text>
</g>
<!-- 31 -->
<g id="node19" class="node"><title>31</title>
<polygon fill="cyan" stroke="black" stroke-width="2" points="3086.94,-382.574 3086.94,-401.125 3036.6,-414.243 2965.4,-414.243 2915.06,-401.125 2915.06,-382.574 2965.4,-369.457 3036.6,-369.457 3086.94,-382.574"/>
<text text-anchor="middle" x="3001" y="-388.15" font-family="Times,serif" font-size="14.00">toCapture</text>
</g>
<!-- 32 -->
<g id="node20" class="node"><title>32</title>
<polygon fill="cyan" stroke="black" stroke-width="2" points="3403.94,-382.574 3403.94,-401.125 3353.6,-414.243 3282.4,-414.243 3232.06,-401.125 3232.06,-382.574 3282.4,-369.457 3353.6,-369.457 3403.94,-382.574"/>
<text text-anchor="middle" x="3318" y="-388.15" font-family="Times,serif" font-size="14.00">toCapture</text>
</g>
<!-- 54 -->
<g id="node21" class="node"><title>54</title>
<polygon fill="khaki" stroke="black" stroke-dasharray="1,5" points="2866.86,-489.188 2866.86,-517.217 2796.06,-537.037 2695.94,-537.037 2625.14,-517.217 2625.14,-489.188 2695.94,-469.368 2796.06,-469.368 2866.86,-489.188"/>
<polygon fill="none" stroke="black" stroke-dasharray="1,5" points="2870.86,-486.135 2870.86,-520.269 2796.61,-541.055 2695.39,-541.055 2621.14,-520.269 2621.14,-486.135 2695.39,-465.349 2796.61,-465.349 2870.86,-486.135"/>
<text text-anchor="middle" x="2746" y="-507.002" font-family="Times,serif" font-size="14.00">Unknown Module</text>
<text text-anchor="middle" x="2746" y="-492.002" font-family="Times,serif" font-size="14.00">toCapture</text>
</g>
<!-- 54&#45;&gt;28 -->
<g id="edge44" class="edge"><title>54&#45;&gt;28</title>
<path fill="none" stroke="navy" d="M2620.78,-494.969C2542.55,-487.772 2440.58,-473.459 2354,-445.046 2331.29,-437.593 2307.59,-425.114 2289.18,-414.226"/>
</g>
<!-- 54&#45;&gt;29 -->
<g id="edge45" class="edge"><title>54&#45;&gt;29</title>
<path fill="none" stroke="navy" d="M2662.84,-474.384C2638.74,-465.666 2612.58,-455.555 2589,-445.046 2568.4,-435.864 2546.16,-424.173 2528.08,-414.183"/>
</g>
<!-- 54&#45;&gt;30 -->
<g id="edge46" class="edge"><title>54&#45;&gt;30</title>
<path fill="none" stroke="navy" d="M2746,-465.485C2746,-448.484 2746,-428.878 2746,-414.323"/>
</g>
<!-- 54&#45;&gt;31 -->
<g id="edge47" class="edge"><title>54&#45;&gt;31</title>
<path fill="none" stroke="navy" d="M2829.16,-474.384C2853.26,-465.666 2879.42,-455.555 2903,-445.046 2923.6,-435.864 2945.84,-424.173 2963.92,-414.183"/>
</g>
<!-- 54&#45;&gt;32 -->
<g id="edge48" class="edge"><title>54&#45;&gt;32</title>
<path fill="none" stroke="navy" d="M2870.9,-499.646C2968.04,-494.697 3105.15,-481.165 3220,-445.046 3242.99,-437.817 3266.89,-425.203 3285.33,-414.186"/>
</g>
<!-- 33 -->
<g id="node22" class="node"><title>33</title>
<polygon fill="cyan" stroke="black" stroke-width="2" points="3647.57,-275.703 3647.57,-294.254 3595.69,-307.371 3522.31,-307.371 3470.43,-294.254 3470.43,-275.703 3522.31,-262.585 3595.69,-262.585 3647.57,-275.703"/>
<text text-anchor="middle" x="3559" y="-281.278" font-family="Times,serif" font-size="14.00">toSamples</text>
</g>
<!-- 34 -->
<g id="node23" class="node"><title>34</title>
<polygon fill="bisque" stroke="black" stroke-width="2" points="3852.57,-275.703 3852.57,-294.254 3800.69,-307.371 3727.31,-307.371 3675.43,-294.254 3675.43,-275.703 3727.31,-262.585 3800.69,-262.585 3852.57,-275.703"/>
<text text-anchor="middle" x="3764" y="-281.278" font-family="Times,serif" font-size="14.00">toSamples</text>
</g>
<!-- 26 -->
<g id="node54" class="node"><title>26</title>
<polygon fill="bisque" stroke="black" stroke-width="2" points="4962,-199.587 4810,-199.587 4810,-163.587 4962,-163.587 4962,-199.587"/>
<text text-anchor="middle" x="4886" y="-177.887" font-family="Times,serif" font-size="14.00">runTokenBuilder</text>
</g>
<!-- 34&#45;&gt;26 -->
<g id="edge30" class="edge"><title>34&#45;&gt;26</title>
<path fill="none" stroke="black" d="M3808.43,-264.452C3825.75,-257.683 3845.98,-250.792 3865,-246.783 4042.5,-209.352 4586.85,-190.782 4799.55,-184.806"/>
<polygon fill="black" stroke="black" points="4799.83,-188.299 4809.73,-184.522 4799.64,-181.302 4799.83,-188.299"/>
</g>
<!-- 35 -->
<g id="node24" class="node"><title>35</title>
<polygon fill="cyan" stroke="black" stroke-width="2" points="4054.57,-275.703 4054.57,-294.254 4002.69,-307.371 3929.31,-307.371 3877.43,-294.254 3877.43,-275.703 3929.31,-262.585 4002.69,-262.585 4054.57,-275.703"/>
<text text-anchor="middle" x="3966" y="-281.278" font-family="Times,serif" font-size="14.00">toSamples</text>
</g>
<!-- 36 -->
<g id="node25" class="node"><title>36</title>
<polygon fill="bisque" stroke="black" stroke-width="2" points="5291.57,-493.927 5291.57,-512.478 5239.69,-525.595 5166.31,-525.595 5114.43,-512.478 5114.43,-493.927 5166.31,-480.809 5239.69,-480.809 5291.57,-493.927"/>
<text text-anchor="middle" x="5203" y="-499.502" font-family="Times,serif" font-size="14.00">toSamples</text>
</g>
<!-- 55 -->
<g id="node40" class="node"><title>55</title>
<polygon fill="khaki" stroke="black" stroke-dasharray="1,5" points="5107.86,-377.835 5107.86,-405.865 5037.06,-425.684 4936.94,-425.684 4866.14,-405.865 4866.14,-377.835 4936.94,-358.016 5037.06,-358.016 5107.86,-377.835"/>
<polygon fill="none" stroke="black" stroke-dasharray="1,5" points="5111.86,-374.783 5111.86,-408.917 5037.61,-429.703 4936.39,-429.703 4862.14,-408.917 4862.14,-374.783 4936.39,-353.997 5037.61,-353.997 5111.86,-374.783"/>
<text text-anchor="middle" x="4987" y="-395.65" font-family="Times,serif" font-size="14.00">Unknown Module</text>
<text text-anchor="middle" x="4987" y="-380.65" font-family="Times,serif" font-size="14.00">toSamples</text>
</g>
<!-- 36&#45;&gt;55 -->
<g id="edge31" class="edge"><title>36&#45;&gt;55</title>
<path fill="none" stroke="black" d="M5158.81,-482.526C5129.59,-468.418 5090.74,-448.947 5057.35,-431.752"/>
<polygon fill="black" stroke="black" points="5058.58,-428.449 5048.09,-426.969 5055.37,-434.668 5058.58,-428.449"/>
</g>
<!-- 37 -->
<g id="node26" class="node"><title>37</title>
<polygon fill="bisque" stroke="black" stroke-width="2" points="4267.57,-275.703 4267.57,-294.254 4215.69,-307.371 4142.31,-307.371 4090.43,-294.254 4090.43,-275.703 4142.31,-262.585 4215.69,-262.585 4267.57,-275.703"/>
<text text-anchor="middle" x="4179" y="-281.278" font-family="Times,serif" font-size="14.00">toSamples</text>
</g>
<!-- 37&#45;&gt;26 -->
<g id="edge32" class="edge"><title>37&#45;&gt;26</title>
<path fill="none" stroke="black" d="M4224.02,-264.687C4241.25,-258.031 4261.26,-251.155 4280,-246.783 4461.95,-204.333 4681.26,-189.901 4799.79,-185.032"/>
<polygon fill="black" stroke="black" points="4800.04,-188.525 4809.89,-184.63 4799.76,-181.53 4800.04,-188.525"/>
</g>
<!-- 38 -->
<g id="node27" class="node"><title>38</title>
<polygon fill="cyan" stroke="black" stroke-width="2" points="4469.57,-275.703 4469.57,-294.254 4417.69,-307.371 4344.31,-307.371 4292.43,-294.254 4292.43,-275.703 4344.31,-262.585 4417.69,-262.585 4469.57,-275.703"/>
<text text-anchor="middle" x="4381" y="-281.278" font-family="Times,serif" font-size="14.00">toSamples</text>
</g>
<!-- 39 -->
<g id="node28" class="node"><title>39</title>
<polygon fill="cyan" stroke="black" stroke-width="2" points="4671.57,-275.703 4671.57,-294.254 4619.69,-307.371 4546.31,-307.371 4494.43,-294.254 4494.43,-275.703 4546.31,-262.585 4619.69,-262.585 4671.57,-275.703"/>
<text text-anchor="middle" x="4583" y="-281.278" font-family="Times,serif" font-size="14.00">toSamples</text>
</g>
<!-- 40 -->
<g id="node29" class="node"><title>40</title>
<polygon fill="bisque" stroke="black" stroke-width="2" points="4873.57,-275.703 4873.57,-294.254 4821.69,-307.371 4748.31,-307.371 4696.43,-294.254 4696.43,-275.703 4748.31,-262.585 4821.69,-262.585 4873.57,-275.703"/>
<text text-anchor="middle" x="4785" y="-281.278" font-family="Times,serif" font-size="14.00">toSamples</text>
</g>
<!-- 40&#45;&gt;26 -->
<g id="edge33" class="edge"><title>40&#45;&gt;26</title>
<path fill="none" stroke="black" d="M4806.42,-262.476C4822.59,-246.244 4844.79,-223.955 4861.64,-207.044"/>
<polygon fill="black" stroke="black" points="4864.38,-209.248 4868.96,-199.693 4859.42,-204.308 4864.38,-209.248"/>
</g>
<!-- 41 -->
<g id="node30" class="node"><title>41</title>
<polygon fill="bisque" stroke="black" stroke-width="2" points="5075.57,-275.703 5075.57,-294.254 5023.69,-307.371 4950.31,-307.371 4898.43,-294.254 4898.43,-275.703 4950.31,-262.585 5023.69,-262.585 5075.57,-275.703"/>
<text text-anchor="middle" x="4987" y="-281.278" font-family="Times,serif" font-size="14.00">toSamples</text>
</g>
<!-- 41&#45;&gt;26 -->
<g id="edge34" class="edge"><title>41&#45;&gt;26</title>
<path fill="none" stroke="black" d="M4965.58,-262.476C4949.41,-246.244 4927.21,-223.955 4910.36,-207.044"/>
<polygon fill="black" stroke="black" points="4912.58,-204.308 4903.04,-199.693 4907.62,-209.248 4912.58,-204.308"/>
</g>
<!-- 42 -->
<g id="node31" class="node"><title>42</title>
<polygon fill="cyan" stroke="black" stroke-width="2" points="5277.57,-275.703 5277.57,-294.254 5225.69,-307.371 5152.31,-307.371 5100.43,-294.254 5100.43,-275.703 5152.31,-262.585 5225.69,-262.585 5277.57,-275.703"/>
<text text-anchor="middle" x="5189" y="-281.278" font-family="Times,serif" font-size="14.00">toSamples</text>
</g>
<!-- 43 -->
<g id="node32" class="node"><title>43</title>
<polygon fill="bisque" stroke="black" stroke-width="2" points="5075.57,-493.927 5075.57,-512.478 5023.69,-525.595 4950.31,-525.595 4898.43,-512.478 4898.43,-493.927 4950.31,-480.809 5023.69,-480.809 5075.57,-493.927"/>
<text text-anchor="middle" x="4987" y="-499.502" font-family="Times,serif" font-size="14.00">toSamples</text>
</g>
<!-- 43&#45;&gt;55 -->
<g id="edge35" class="edge"><title>43&#45;&gt;55</title>
<path fill="none" stroke="black" d="M4981.52,-480.858C4980.49,-469.155 4980.09,-454.156 4980.31,-439.869"/>
<polygon fill="black" stroke="black" points="4983.81,-439.739 4980.58,-429.649 4976.82,-439.552 4983.81,-439.739"/>
</g>
<!-- 44 -->
<g id="node33" class="node"><title>44</title>
<polygon fill="bisque" stroke="black" stroke-width="2" points="5479.57,-275.703 5479.57,-294.254 5427.69,-307.371 5354.31,-307.371 5302.43,-294.254 5302.43,-275.703 5354.31,-262.585 5427.69,-262.585 5479.57,-275.703"/>
<text text-anchor="middle" x="5391" y="-281.278" font-family="Times,serif" font-size="14.00">toSamples</text>
</g>
<!-- 44&#45;&gt;26 -->
<g id="edge36" class="edge"><title>44&#45;&gt;26</title>
<path fill="none" stroke="black" d="M5344.84,-264.823C5327.83,-258.342 5308.26,-251.547 5290,-246.783 5182.14,-218.642 5054.68,-200.877 4972.19,-191.342"/>
<polygon fill="black" stroke="black" points="4972.45,-187.848 4962.11,-190.192 4971.65,-194.803 4972.45,-187.848"/>
</g>
<!-- 45 -->
<g id="node34" class="node"><title>45</title>
<polygon fill="bisque" stroke="black" stroke-width="2" points="5692.57,-275.703 5692.57,-294.254 5640.69,-307.371 5567.31,-307.371 5515.43,-294.254 5515.43,-275.703 5567.31,-262.585 5640.69,-262.585 5692.57,-275.703"/>
<text text-anchor="middle" x="5604" y="-281.278" font-family="Times,serif" font-size="14.00">toSamples</text>
</g>
<!-- 45&#45;&gt;26 -->
<g id="edge37" class="edge"><title>45&#45;&gt;26</title>
<path fill="none" stroke="black" d="M5558.98,-264.668C5541.76,-258.01 5521.75,-251.138 5503,-246.783 5316.97,-203.566 5092.61,-189.418 4972.28,-184.804"/>
<polygon fill="black" stroke="black" points="4972.15,-181.297 4962.03,-184.425 4971.9,-188.293 4972.15,-181.297"/>
</g>
<!-- 46 -->
<g id="node35" class="node"><title>46</title>
<polygon fill="cyan" stroke="black" stroke-width="2" points="5908.57,-275.703 5908.57,-294.254 5856.69,-307.371 5783.31,-307.371 5731.43,-294.254 5731.43,-275.703 5783.31,-262.585 5856.69,-262.585 5908.57,-275.703"/>
<text text-anchor="middle" x="5820" y="-281.278" font-family="Times,serif" font-size="14.00">toSamples</text>
</g>
<!-- 47 -->
<g id="node36" class="node"><title>47</title>
<polygon fill="bisque" stroke="black" stroke-width="2" points="4860.57,-493.927 4860.57,-512.478 4808.69,-525.595 4735.31,-525.595 4683.43,-512.478 4683.43,-493.927 4735.31,-480.809 4808.69,-480.809 4860.57,-493.927"/>
<text text-anchor="middle" x="4772" y="-499.502" font-family="Times,serif" font-size="14.00">toSamples</text>
</g>
<!-- 47&#45;&gt;55 -->
<g id="edge38" class="edge"><title>47&#45;&gt;55</title>
<path fill="none" stroke="black" d="M4808.48,-480.858C4836.03,-466.195 4874.72,-446.359 4909.07,-429.231"/>
<polygon fill="black" stroke="black" points="4910.77,-432.295 4918.16,-424.709 4907.65,-426.027 4910.77,-432.295"/>
</g>
<!-- 48 -->
<g id="node37" class="node"><title>48</title>
<polygon fill="cyan" stroke="black" stroke-width="2" points="6110.57,-275.703 6110.57,-294.254 6058.69,-307.371 5985.31,-307.371 5933.43,-294.254 5933.43,-275.703 5985.31,-262.585 6058.69,-262.585 6110.57,-275.703"/>
<text text-anchor="middle" x="6022" y="-281.278" font-family="Times,serif" font-size="14.00">toSamples</text>
</g>
<!-- 49 -->
<g id="node38" class="node"><title>49</title>
<polygon fill="cyan" stroke="black" stroke-width="2" points="6312.57,-275.703 6312.57,-294.254 6260.69,-307.371 6187.31,-307.371 6135.43,-294.254 6135.43,-275.703 6187.31,-262.585 6260.69,-262.585 6312.57,-275.703"/>
<text text-anchor="middle" x="6224" y="-281.278" font-family="Times,serif" font-size="14.00">toSamples</text>
</g>
<!-- 50 -->
<g id="node39" class="node"><title>50</title>
<polygon fill="cyan" stroke="black" stroke-width="2" points="6514.57,-275.703 6514.57,-294.254 6462.69,-307.371 6389.31,-307.371 6337.43,-294.254 6337.43,-275.703 6389.31,-262.585 6462.69,-262.585 6514.57,-275.703"/>
<text text-anchor="middle" x="6426" y="-281.278" font-family="Times,serif" font-size="14.00">toSamples</text>
</g>
<!-- 55&#45;&gt;33 -->
<g id="edge49" class="edge"><title>55&#45;&gt;33</title>
<path fill="none" stroke="navy" d="M4861.9,-388.978C4553.6,-383.923 3774.03,-368.306 3660,-338.174 3635.57,-331.72 3610.32,-318.671 3591.18,-307.235"/>
</g>
<!-- 55&#45;&gt;34 -->
<g id="edge50" class="edge"><title>55&#45;&gt;34</title>
<path fill="none" stroke="navy" d="M4861.89,-391.68C4609.93,-392.256 4049.7,-387.695 3865,-338.174 3840.79,-331.682 3815.74,-318.786 3796.65,-307.437"/>
</g>
<!-- 55&#45;&gt;35 -->
<g id="edge51" class="edge"><title>55&#45;&gt;35</title>
<path fill="none" stroke="navy" d="M4861.76,-390.123C4645.93,-387.797 4213.02,-378.128 4067,-338.174 4042.82,-331.558 4017.78,-318.66 3998.67,-307.342"/>
</g>
<!-- 55&#45;&gt;36 -->
<g id="edge52" class="edge"><title>55&#45;&gt;36</title>
<path fill="none" stroke="navy" d="M5056.13,-424.709C5092.73,-442.773 5136.17,-464.885 5166.32,-480.858"/>
</g>
<!-- 55&#45;&gt;37 -->
<g id="edge53" class="edge"><title>55&#45;&gt;37</title>
<path fill="none" stroke="navy" d="M4862,-387.547C4689,-381.946 4385.93,-368.138 4280,-338.174 4255.88,-331.351 4230.83,-318.451 4211.72,-307.184"/>
</g>
<!-- 55&#45;&gt;38 -->
<g id="edge54" class="edge"><title>55&#45;&gt;38</title>
<path fill="none" stroke="navy" d="M4862.03,-390.65C4758.27,-387.463 4607.84,-375.789 4482,-338.174 4458.17,-331.051 4433.33,-318.296 4414.25,-307.178"/>
</g>
<!-- 55&#45;&gt;39 -->
<g id="edge55" class="edge"><title>55&#45;&gt;39</title>
<path fill="none" stroke="navy" d="M4861.78,-377.807C4806.34,-369.821 4740.93,-357.329 4684,-338.174 4660.99,-330.432 4636.78,-318.08 4617.83,-307.336"/>
</g>
<!-- 55&#45;&gt;40 -->
<g id="edge56" class="edge"><title>55&#45;&gt;40</title>
<path fill="none" stroke="navy" d="M4923.09,-357.668C4890.84,-340.926 4852.73,-321.142 4824.73,-306.604"/>
</g>
<!-- 55&#45;&gt;41 -->
<g id="edge57" class="edge"><title>55&#45;&gt;41</title>
<path fill="none" stroke="navy" d="M4987,-354.171C4987,-338.459 4987,-320.667 4987,-307.197"/>
</g>
<!-- 55&#45;&gt;42 -->
<g id="edge58" class="edge"><title>55&#45;&gt;42</title>
<path fill="none" stroke="navy" d="M5050.91,-357.668C5083.16,-340.926 5121.27,-321.142 5149.27,-306.604"/>
</g>
<!-- 55&#45;&gt;43 -->
<g id="edge59" class="edge"><title>55&#45;&gt;43</title>
<path fill="none" stroke="navy" d="M4993.42,-429.649C4994.07,-446.681 4993.76,-466.314 4992.48,-480.858"/>
</g>
<!-- 55&#45;&gt;44 -->
<g id="edge60" class="edge"><title>55&#45;&gt;44</title>
<path fill="none" stroke="navy" d="M5112.22,-377.807C5167.66,-369.821 5233.07,-357.329 5290,-338.174 5313.01,-330.432 5337.22,-318.08 5356.17,-307.336"/>
</g>
<!-- 55&#45;&gt;45 -->
<g id="edge61" class="edge"><title>55&#45;&gt;45</title>
<path fill="none" stroke="navy" d="M5111.9,-383.474C5240.66,-374.912 5432.28,-359.227 5503,-338.174 5526.84,-331.078 5551.68,-318.322 5570.76,-307.198"/>
</g>
<!-- 55&#45;&gt;46 -->
<g id="edge62" class="edge"><title>55&#45;&gt;46</title>
<path fill="none" stroke="navy" d="M5111.94,-387.927C5290.25,-382.722 5608.39,-369.312 5719,-338.174 5743.13,-331.381 5768.17,-318.482 5787.29,-307.207"/>
</g>
<!-- 55&#45;&gt;47 -->
<g id="edge63" class="edge"><title>55&#45;&gt;47</title>
<path fill="none" stroke="navy" d="M4926.22,-426.969C4891.13,-445.239 4847.84,-467.092 4816.01,-482.526"/>
</g>
<!-- 55&#45;&gt;48 -->
<g id="edge64" class="edge"><title>55&#45;&gt;48</title>
<path fill="none" stroke="navy" d="M5111.98,-390.255C5330.35,-388.142 5772.26,-378.805 5921,-338.174 5945.18,-331.568 5970.23,-318.671 5989.33,-307.35"/>
</g>
<!-- 55&#45;&gt;49 -->
<g id="edge65" class="edge"><title>55&#45;&gt;49</title>
<path fill="none" stroke="navy" d="M5112.21,-391.768C5366.6,-392.535 5935.62,-388.354 6123,-338.174 6147.4,-331.638 6172.65,-318.589 6191.8,-307.174"/>
</g>
<!-- 55&#45;&gt;50 -->
<g id="edge66" class="edge"><title>55&#45;&gt;50</title>
<path fill="none" stroke="navy" d="M5112,-389.024C5422.07,-384.053 6209.88,-368.573 6325,-338.174 6349.43,-331.724 6374.68,-318.675 6393.82,-307.238"/>
</g>
<!-- 12 -->
<g id="node41" class="node"><title>12</title>
<polygon fill="goldenrod" stroke="black" stroke-width="2" points="1640,-199.587 1382,-199.587 1382,-163.587 1640,-163.587 1640,-199.587"/>
<text text-anchor="middle" x="1511" y="-177.887" font-family="Times,serif" font-size="14.00">hackTogetherSomeReasonableOrder</text>
</g>
<!-- 14 -->
<g id="node42" class="node"><title>14</title>
<polygon fill="cyan" stroke="black" stroke-width="2" points="1883,-36 1755,-36 1755,-0 1883,-0 1883,-36"/>
<text text-anchor="middle" x="1819" y="-14.3" font-family="Times,serif" font-size="14.00">pprintAction</text>
</g>
<!-- 15 -->
<g id="node43" class="node"><title>15</title>
<polygon fill="cyan" stroke="black" stroke-width="2" points="1718.5,-112.196 1603.5,-112.196 1603.5,-76.1956 1718.5,-76.1956 1718.5,-112.196"/>
<text text-anchor="middle" x="1661" y="-90.4956" font-family="Times,serif" font-size="14.00">pprintJson</text>
</g>
<!-- 16 -->
<g id="node44" class="node"><title>16</title>
<polygon fill="goldenrod" stroke="black" stroke-width="2" points="1821.5,-199.587 1658.5,-199.587 1658.5,-163.587 1821.5,-163.587 1821.5,-199.587"/>
<text text-anchor="middle" x="1740" y="-177.887" font-family="Times,serif" font-size="14.00">prettyMimeRender</text>
</g>
<!-- 16&#45;&gt;15 -->
<g id="edge7" class="edge"><title>16&#45;&gt;15</title>
<path fill="none" stroke="black" d="M1724.01,-163.307C1712.45,-150.807 1696.66,-133.737 1683.77,-119.813"/>
<polygon fill="black" stroke="black" points="1686.32,-117.414 1676.96,-112.45 1681.18,-122.167 1686.32,-117.414"/>
</g>
<!-- 17 -->
<g id="node45" class="node"><title>17</title>
<polygon fill="bisque" stroke="black" stroke-width="2" points="1901.5,-112.196 1736.5,-112.196 1736.5,-76.1956 1901.5,-76.1956 1901.5,-112.196"/>
<text text-anchor="middle" x="1819" y="-90.4956" font-family="Times,serif" font-size="14.00">prettyMimeRender&#39;</text>
</g>
<!-- 16&#45;&gt;17 -->
<g id="edge8" class="edge"><title>16&#45;&gt;17</title>
<path fill="none" stroke="black" d="M1755.99,-163.307C1767.55,-150.807 1783.34,-133.737 1796.23,-119.813"/>
<polygon fill="black" stroke="black" points="1798.82,-122.167 1803.04,-112.45 1793.68,-117.414 1798.82,-122.167"/>
</g>
<!-- 17&#45;&gt;14 -->
<g id="edge9" class="edge"><title>17&#45;&gt;14</title>
<path fill="none" stroke="chartreuse" d="M1819,-75.9872C1819,-67.1846 1819,-56.2609 1819,-46.3396"/>
<polygon fill="chartreuse" stroke="chartreuse" points="1822.5,-46.1151 1819,-36.1151 1815.5,-46.1152 1822.5,-46.1151"/>
</g>
<!-- 18 -->
<g id="node46" class="node"><title>18</title>
<polygon fill="gold" stroke="black" stroke-width="2" points="756,-521.202 650,-521.202 650,-485.202 756,-485.202 756,-521.202"/>
<text text-anchor="middle" x="703" y="-499.502" font-family="Times,serif" font-size="14.00">restDocs</text>
</g>
<!-- 19 -->
<g id="node47" class="node"><title>19</title>
<polygon fill="goldenrod" stroke="black" stroke-width="2" points="398,-409.85 282,-409.85 282,-373.85 398,-373.85 398,-409.85"/>
<text text-anchor="middle" x="340" y="-388.15" font-family="Times,serif" font-size="14.00">restDocsJs</text>
</g>
<!-- 18&#45;&gt;19 -->
<g id="edge10" class="edge"><title>18&#45;&gt;19</title>
<path fill="none" stroke="black" d="M649.951,-499.429C588.908,-494.578 486.821,-481.295 407,-445.046 391.729,-438.11 376.8,-427.033 364.925,-416.864"/>
<polygon fill="black" stroke="black" points="367.028,-414.05 357.225,-410.031 362.382,-419.286 367.028,-414.05"/>
</g>
<!-- 20 -->
<g id="node48" class="node"><title>20</title>
<polygon fill="goldenrod" stroke="black" stroke-width="2" points="1155.5,-302.978 1030.5,-302.978 1030.5,-266.978 1155.5,-266.978 1155.5,-302.978"/>
<text text-anchor="middle" x="1093" y="-281.278" font-family="Times,serif" font-size="14.00">restDocsMd</text>
</g>
<!-- 18&#45;&gt;20 -->
<g id="edge11" class="edge"><title>18&#45;&gt;20</title>
<path fill="none" stroke="black" d="M756.09,-501.419C847.057,-498.904 1027.09,-488.426 1070,-445.046 1104.32,-410.348 1102.48,-348.811 1097.87,-313.305"/>
<polygon fill="black" stroke="black" points="1101.3,-312.568 1096.39,-303.181 1094.37,-313.583 1101.3,-312.568"/>
</g>
<!-- 21 -->
<g id="node49" class="node"><title>21</title>
<polygon fill="goldenrod" stroke="black" stroke-width="2" points="538,-409.85 416,-409.85 416,-373.85 538,-373.85 538,-409.85"/>
<text text-anchor="middle" x="477" y="-388.15" font-family="Times,serif" font-size="14.00">restDocsNg</text>
</g>
<!-- 18&#45;&gt;21 -->
<g id="edge12" class="edge"><title>18&#45;&gt;21</title>
<path fill="none" stroke="black" d="M649.715,-486.917C618.777,-477.016 579.599,-462.684 547,-445.046 532.267,-437.074 517.211,-426.26 504.856,-416.542"/>
<polygon fill="black" stroke="black" points="506.756,-413.578 496.77,-410.037 502.368,-419.032 506.756,-413.578"/>
</g>
<!-- 22 -->
<g id="node50" class="node"><title>22</title>
<polygon fill="goldenrod" stroke="black" stroke-width="2" points="686,-409.85 556,-409.85 556,-373.85 686,-373.85 686,-409.85"/>
<text text-anchor="middle" x="621" y="-388.15" font-family="Times,serif" font-size="14.00">restDocsPurs</text>
</g>
<!-- 18&#45;&gt;22 -->
<g id="edge13" class="edge"><title>18&#45;&gt;22</title>
<path fill="none" stroke="black" d="M690.188,-485.116C676.727,-467.166 655.411,-438.739 639.994,-418.179"/>
<polygon fill="black" stroke="black" points="642.793,-416.078 633.993,-410.177 637.192,-420.277 642.793,-416.078"/>
</g>
<!-- 23 -->
<g id="node51" class="node"><title>23</title>
<polygon fill="bisque" stroke="black" stroke-width="2" points="868,-409.85 704,-409.85 704,-373.85 868,-373.85 868,-409.85"/>
<text text-anchor="middle" x="786" y="-388.15" font-family="Times,serif" font-size="14.00">restDocsPursUtilJS</text>
</g>
<!-- 18&#45;&gt;23 -->
<g id="edge14" class="edge"><title>18&#45;&gt;23</title>
<path fill="none" stroke="black" d="M715.969,-485.116C729.593,-467.166 751.17,-438.739 766.775,-418.179"/>
<polygon fill="black" stroke="black" points="769.59,-420.259 772.848,-410.177 764.015,-416.027 769.59,-420.259"/>
</g>
<!-- 24 -->
<g id="node52" class="node"><title>24</title>
<polygon fill="bisque" stroke="black" stroke-width="2" points="1061.5,-409.85 886.5,-409.85 886.5,-373.85 1061.5,-373.85 1061.5,-409.85"/>
<text text-anchor="middle" x="974" y="-388.15" font-family="Times,serif" font-size="14.00">restDocsPursUtilPurs</text>
</g>
<!-- 18&#45;&gt;24 -->
<g id="edge15" class="edge"><title>18&#45;&gt;24</title>
<path fill="none" stroke="black" d="M756.048,-487.43C790.983,-477.059 837.41,-462.042 877,-445.046 897.202,-436.373 918.821,-424.963 936.51,-415.024"/>
<polygon fill="black" stroke="black" points="938.412,-417.969 945.374,-409.983 934.951,-411.885 938.412,-417.969"/>
</g>
<!-- 25 -->
<g id="node53" class="node"><title>25</title>
<polygon fill="bisque" stroke="black" stroke-width="2" points="691.5,-302.978 548.5,-302.978 548.5,-266.978 691.5,-266.978 691.5,-302.978"/>
<text text-anchor="middle" x="620" y="-281.278" font-family="Times,serif" font-size="14.00">restDocsSource</text>
</g>
<!-- 19&#45;&gt;25 -->
<g id="edge16" class="edge"><title>19&#45;&gt;25</title>
<path fill="none" stroke="black" d="M361.908,-373.691C374.52,-364.483 391.001,-353.546 407,-346.174 448.754,-326.935 498.001,-312.532 538.618,-302.646"/>
<polygon fill="black" stroke="black" points="539.565,-306.018 548.48,-300.292 537.94,-299.209 539.565,-306.018"/>
</g>
<!-- 20&#45;&gt;6 -->
<g id="edge17" class="edge"><title>20&#45;&gt;6</title>
<path fill="none" stroke="black" d="M1030.38,-278.4C967.094,-271.943 866.813,-259.457 782,-238.783 752.506,-231.593 720.804,-221.214 693.332,-211.328"/>
<polygon fill="black" stroke="black" points="694.396,-207.99 683.802,-207.857 692.001,-214.568 694.396,-207.99"/>
</g>
<!-- 20&#45;&gt;7 -->
<g id="edge18" class="edge"><title>20&#45;&gt;7</title>
<path fill="none" stroke="black" d="M1058.8,-266.835C1041.98,-258.4 1021.42,-248.071 1003,-238.783 985.18,-229.797 965.764,-219.978 948.226,-211.097"/>
<polygon fill="black" stroke="black" points="949.746,-207.944 939.244,-206.548 946.583,-214.188 949.746,-207.944"/>
</g>
<!-- 20&#45;&gt;9 -->
<g id="edge19" class="edge"><title>20&#45;&gt;9</title>
<path fill="none" stroke="black" d="M1128.34,-266.933C1145.05,-258.693 1165.2,-248.502 1183,-238.783 1198.32,-230.417 1214.77,-220.89 1229.6,-212.087"/>
<polygon fill="black" stroke="black" points="1231.8,-214.845 1238.6,-206.716 1228.22,-208.834 1231.8,-214.845"/>
</g>
<!-- 20&#45;&gt;11 -->
<g id="edge20" class="edge"><title>20&#45;&gt;11</title>
<path fill="none" stroke="black" d="M1093,-266.779C1093,-253.523 1093,-234.738 1093,-218.274"/>
<polygon fill="black" stroke="black" points="1096.5,-217.872 1093,-207.872 1089.5,-217.872 1096.5,-217.872"/>
</g>
<!-- 20&#45;&gt;12 -->
<g id="edge21" class="edge"><title>20&#45;&gt;12</title>
<path fill="none" stroke="black" d="M1155.75,-278.252C1213.71,-271.957 1301.81,-259.828 1376,-238.783 1407.32,-229.897 1441.14,-215.811 1467.1,-203.964"/>
<polygon fill="black" stroke="black" points="1468.68,-207.09 1476.29,-199.715 1465.74,-200.737 1468.68,-207.09"/>
</g>
<!-- 20&#45;&gt;16 -->
<g id="edge22" class="edge"><title>20&#45;&gt;16</title>
<path fill="none" stroke="black" d="M1155.93,-282.559C1281.52,-279.123 1558.94,-268.344 1649,-238.783 1671.08,-231.534 1693.33,-217.937 1710.3,-205.934"/>
<polygon fill="black" stroke="black" points="1712.64,-208.56 1718.66,-199.845 1708.52,-202.901 1712.64,-208.56"/>
</g>
<!-- 21&#45;&gt;25 -->
<g id="edge23" class="edge"><title>21&#45;&gt;25</title>
<path fill="none" stroke="black" d="M500.294,-373.767C524.289,-356.17 561.842,-328.63 588.481,-309.093"/>
<polygon fill="black" stroke="black" points="590.722,-311.79 596.716,-303.054 586.583,-306.145 590.722,-311.79"/>
</g>
<!-- 22&#45;&gt;25 -->
<g id="edge24" class="edge"><title>22&#45;&gt;25</title>
<path fill="none" stroke="black" d="M620.835,-373.533C620.679,-357.213 620.444,-332.496 620.262,-313.48"/>
<polygon fill="black" stroke="black" points="623.761,-313.288 620.165,-303.321 616.761,-313.354 623.761,-313.288"/>
</g>
<!-- 23&#45;&gt;25 -->
<g id="edge25" class="edge"><title>23&#45;&gt;25</title>
<path fill="none" stroke="black" d="M758.96,-373.767C730.864,-356.018 686.757,-328.152 655.788,-308.587"/>
<polygon fill="black" stroke="black" points="657.352,-305.436 647.029,-303.054 653.613,-311.354 657.352,-305.436"/>
</g>
<!-- 24&#45;&gt;25 -->
<g id="edge26" class="edge"><title>24&#45;&gt;25</title>
<path fill="none" stroke="black" d="M941.014,-373.641C922.559,-364.53 898.919,-353.702 877,-346.174 819.608,-326.461 752.825,-311.036 701.722,-300.736"/>
<polygon fill="black" stroke="black" points="702.209,-297.265 691.718,-298.745 700.843,-304.13 702.209,-297.265"/>
</g>
<!-- 25&#45;&gt;5 -->
<g id="edge27" class="edge"><title>25&#45;&gt;5</title>
<path fill="none" stroke="black" d="M555.042,-266.922C525.574,-258.883 490.373,-248.858 459,-238.783 432.418,-230.246 403.591,-220.056 378.088,-210.713"/>
<polygon fill="black" stroke="black" points="379.082,-207.349 368.488,-207.178 376.663,-213.918 379.082,-207.349"/>
</g>
<!-- 25&#45;&gt;6 -->
<g id="edge28" class="edge"><title>25&#45;&gt;6</title>
<path fill="none" stroke="black" d="M620,-266.779C620,-253.523 620,-234.738 620,-218.274"/>
<polygon fill="black" stroke="black" points="623.5,-217.872 620,-207.872 616.5,-217.872 623.5,-217.872"/>
</g>
<!-- 27 -->
<g id="node55" class="node"><title>27</title>
<polygon fill="cyan" stroke="black" stroke-width="2" points="4975.5,-112.196 4796.5,-112.196 4796.5,-76.1956 4975.5,-76.1956 4975.5,-112.196"/>
<text text-anchor="middle" x="4886" y="-90.4956" font-family="Times,serif" font-size="14.00">runTokenBuilderState</text>
</g>
<!-- 26&#45;&gt;27 -->
<g id="edge29" class="edge"><title>26&#45;&gt;27</title>
<path fill="none" stroke="chartreuse" d="M4886,-163.307C4886,-151.617 4886,-135.93 4886,-122.558"/>
<polygon fill="chartreuse" stroke="chartreuse" points="4889.5,-122.45 4886,-112.45 4882.5,-122.45 4889.5,-122.45"/>
</g>
</g>
</svg>
