<?xml version="1.0" encoding="UTF-8" standalone="no"?>
<!DOCTYPE svg PUBLIC "-//W3C//DTD SVG 1.1//EN"
 "http://www.w3.org/Graphics/SVG/1.1/DTD/svg11.dtd">
<!-- Generated by graphviz version 2.38.0 (20140413.2041)
 -->
<!-- Title: Diagram of: Thentos.Frontend.State Pages: 1 -->
<svg width="818pt" height="260pt"
 viewBox="0.00 0.00 817.50 260.00" xmlns="http://www.w3.org/2000/svg" xmlns:xlink="http://www.w3.org/1999/xlink">
<g id="graph0" class="graph" transform="scale(1 1) rotate(0) translate(4 256)">
<title>Diagram of: Thentos.Frontend.State</title>
<polygon fill="white" stroke="none" points="-4,4 -4,-256 813.5,-256 813.5,4 -4,4"/>
<!-- 1 -->
<g id="node1" class="node"><title>1</title>
<polygon fill="goldenrod" stroke="black" stroke-width="2" points="173,-108 0,-108 0,-72 173,-72 173,-108"/>
<text text-anchor="middle" x="86.5" y="-86.3" font-family="Times,serif" font-size="14.00">cookieFromFSession</text>
</g>
<!-- 2 -->
<g id="node2" class="node"><title>2</title>
<polygon fill="goldenrod" stroke="black" stroke-width="2" points="671.5,-108 543.5,-108 543.5,-72 671.5,-72 671.5,-108"/>
<text text-anchor="middle" x="607.5" y="-86.3" font-family="Times,serif" font-size="14.00">cookieName</text>
</g>
<!-- 3 -->
<g id="node3" class="node"><title>3</title>
<polygon fill="goldenrod" stroke="black" stroke-width="2" points="624.5,-36 466.5,-36 466.5,-0 624.5,-0 624.5,-36"/>
<text text-anchor="middle" x="545.5" y="-14.3" font-family="Times,serif" font-size="14.00">cookieNameValid</text>
</g>
<!-- 2&#45;&gt;3 -->
<g id="edge1" class="edge"><title>2&#45;&gt;3</title>
<path fill="none" stroke="black" d="M592.174,-71.6966C584.741,-63.3046 575.677,-53.0705 567.52,-43.8613"/>
<polygon fill="black" stroke="black" points="569.9,-41.2696 560.65,-36.1043 564.66,-45.9109 569.9,-41.2696"/>
</g>
<!-- 10 -->
<g id="node10" class="node"><title>10</title>
<polygon fill="goldenrod" stroke="black" stroke-width="2" points="756,-36 643,-36 643,-0 756,-0 756,-36"/>
<text text-anchor="middle" x="699.5" y="-14.3" font-family="Times,serif" font-size="14.00">setCookie</text>
</g>
<!-- 2&#45;&gt;10 -->
<g id="edge2" class="edge"><title>2&#45;&gt;10</title>
<path fill="none" stroke="black" d="M630.242,-71.6966C641.94,-62.796 656.361,-51.8232 669.01,-42.1989"/>
<polygon fill="black" stroke="black" points="671.181,-44.945 677.02,-36.1043 666.942,-39.3742 671.181,-44.945"/>
</g>
<!-- 4 -->
<g id="node4" class="node"><title>4</title>
<polygon fill="goldenrod" stroke="black" stroke-width="2" points="349.5,-108 191.5,-108 191.5,-72 349.5,-72 349.5,-108"/>
<text text-anchor="middle" x="270.5" y="-86.3" font-family="Times,serif" font-size="14.00">cookieToFSession</text>
</g>
<!-- 5 -->
<g id="node5" class="node"><title>5</title>
<polygon fill="gold" stroke="black" stroke-width="2" points="647,-252 560,-252 560,-216 647,-216 647,-252"/>
<text text-anchor="middle" x="603.5" y="-230.3" font-family="Times,serif" font-size="14.00">crash</text>
</g>
<!-- 6 -->
<g id="node6" class="node"><title>6</title>
<polygon fill="goldenrod" stroke="black" stroke-width="2" points="410.5,-180 280.5,-180 280.5,-144 410.5,-144 410.5,-180"/>
<text text-anchor="middle" x="345.5" y="-158.3" font-family="Times,serif" font-size="14.00">enterFAction</text>
</g>
<!-- 6&#45;&gt;1 -->
<g id="edge3" class="edge"><title>6&#45;&gt;1</title>
<path fill="none" stroke="black" d="M282.473,-143.966C245.341,-133.93 198.205,-121.19 159.467,-110.721"/>
<polygon fill="black" stroke="black" points="160.377,-107.341 149.81,-108.111 158.55,-114.099 160.377,-107.341"/>
</g>
<!-- 6&#45;&gt;4 -->
<g id="edge4" class="edge"><title>6&#45;&gt;4</title>
<path fill="none" stroke="black" d="M326.961,-143.697C317.697,-135.05 306.338,-124.449 296.243,-115.027"/>
<polygon fill="black" stroke="black" points="298.525,-112.369 288.826,-108.104 293.749,-117.486 298.525,-112.369"/>
</g>
<!-- 7 -->
<g id="node7" class="node"><title>7</title>
<polygon fill="goldenrod" stroke="black" stroke-width="2" points="525.5,-108 367.5,-108 367.5,-72 525.5,-72 525.5,-108"/>
<text text-anchor="middle" x="446.5" y="-86.3" font-family="Times,serif" font-size="14.00">fActionServantErr</text>
</g>
<!-- 6&#45;&gt;7 -->
<g id="edge5" class="edge"><title>6&#45;&gt;7</title>
<path fill="none" stroke="black" d="M370.207,-143.876C383.169,-134.893 399.228,-123.763 413.265,-114.034"/>
<polygon fill="black" stroke="black" points="415.472,-116.763 421.698,-108.19 411.485,-111.009 415.472,-116.763"/>
</g>
<!-- 8 -->
<g id="node8" class="node"><title>8</title>
<polygon fill="gold" stroke="black" stroke-width="2" points="809.5,-252 665.5,-252 665.5,-216 809.5,-216 809.5,-252"/>
<text text-anchor="middle" x="737.5" y="-230.3" font-family="Times,serif" font-size="14.00">getFrontendCfg</text>
</g>
<!-- 9 -->
<g id="node9" class="node"><title>9</title>
<polygon fill="gold" stroke="black" stroke-width="2" points="542,-252 411,-252 411,-216 542,-216 542,-252"/>
<text text-anchor="middle" x="476.5" y="-230.3" font-family="Times,serif" font-size="14.00">serveFAction</text>
</g>
<!-- 9&#45;&gt;6 -->
<g id="edge6" class="edge"><title>9&#45;&gt;6</title>
<path fill="none" stroke="black" d="M444.454,-215.876C427.008,-206.554 405.235,-194.919 386.557,-184.939"/>
<polygon fill="black" stroke="black" points="388.139,-181.816 377.669,-180.19 384.84,-187.99 388.139,-181.816"/>
</g>
<!-- 11 -->
<g id="node11" class="node"><title>11</title>
<polygon fill="goldenrod" stroke="black" stroke-width="2" points="710,-180 505,-180 505,-144 710,-144 710,-180"/>
<text text-anchor="middle" x="607.5" y="-158.3" font-family="Times,serif" font-size="14.00">thentosSessionMiddleware</text>
</g>
<!-- 9&#45;&gt;11 -->
<g id="edge7" class="edge"><title>9&#45;&gt;11</title>
<path fill="none" stroke="black" d="M508.546,-215.876C525.992,-206.554 547.765,-194.919 566.443,-184.939"/>
<polygon fill="black" stroke="black" points="568.16,-187.99 575.331,-180.19 564.861,-181.816 568.16,-187.99"/>
</g>
<!-- 11&#45;&gt;2 -->
<g id="edge8" class="edge"><title>11&#45;&gt;2</title>
<path fill="none" stroke="black" d="M607.5,-143.697C607.5,-135.983 607.5,-126.712 607.5,-118.112"/>
<polygon fill="black" stroke="black" points="611,-118.104 607.5,-108.104 604,-118.104 611,-118.104"/>
</g>
<!-- 11&#45;&gt;10 -->
<g id="edge9" class="edge"><title>11&#45;&gt;10</title>
<path fill="none" stroke="black" d="M640.98,-143.986C655.226,-135.115 670.767,-122.968 680.5,-108 692.452,-89.62 697.029,-65.0157 698.715,-46.3354"/>
<polygon fill="black" stroke="black" points="702.224,-46.3268 699.408,-36.1131 695.24,-45.8537 702.224,-46.3268"/>
</g>
</g>
</svg>
