<?xml version="1.0" encoding="UTF-8" standalone="no"?>
<!DOCTYPE svg PUBLIC "-//W3C//DTD SVG 1.1//EN"
 "http://www.w3.org/Graphics/SVG/1.1/DTD/svg11.dtd">
<!-- Generated by graphviz version 2.38.0 (20140413.2041)
 -->
<!-- Title: Diagram of: Thentos.Backend.Core Pages: 1 -->
<svg width="3455pt" height="441pt"
 viewBox="0.00 0.00 3454.50 440.74" xmlns="http://www.w3.org/2000/svg" xmlns:xlink="http://www.w3.org/1999/xlink">
<g id="graph0" class="graph" transform="scale(1 1) rotate(0) translate(4 436.744)">
<title>Diagram of: Thentos.Backend.Core</title>
<polygon fill="white" stroke="none" points="-4,4 -4,-436.744 3450.5,-436.744 3450.5,4 -4,4"/>
<g id="clust1" class="cluster"><title>cluster_Class_HasLink</title>
<path fill="#ffc1c1" stroke="black" d="M20,-219C20,-219 467,-219 467,-219 473,-219 479,-225 479,-231 479,-231 479,-412.744 479,-412.744 479,-418.744 473,-424.744 467,-424.744 467,-424.744 20,-424.744 20,-424.744 14,-424.744 8,-418.744 8,-412.744 8,-412.744 8,-231 8,-231 8,-225 14,-219 20,-219"/>
<text text-anchor="middle" x="243.5" y="-409.544" font-family="Times,serif" font-size="14.00">Class: HasLink</text>
</g>
<g id="clust2" class="cluster"><title>cluster_Class_HasLink_Data_Post200ctypesa</title>
<path fill="#c6e2ff" stroke="black" d="M28,-227C28,-227 193,-227 193,-227 199,-227 205,-233 205,-239 205,-239 205,-298.391 205,-298.391 205,-304.391 199,-310.391 193,-310.391 193,-310.391 28,-310.391 28,-310.391 22,-310.391 16,-304.391 16,-298.391 16,-298.391 16,-239 16,-239 16,-233 22,-227 28,-227"/>
<text text-anchor="middle" x="110.5" y="-295.191" font-family="Times,serif" font-size="14.00">Instance for: (Post200 ctypes a)</text>
</g>
<g id="clust3" class="cluster"><title>cluster_Class_HasLink_Data_ThentosAssertHeaderssub</title>
<path fill="#c6e2ff" stroke="black" d="M225,-227C225,-227 459,-227 459,-227 465,-227 471,-233 471,-239 471,-239 471,-298.391 471,-298.391 471,-304.391 465,-310.391 459,-310.391 459,-310.391 225,-310.391 225,-310.391 219,-310.391 213,-304.391 213,-298.391 213,-298.391 213,-239 213,-239 213,-233 219,-227 225,-227"/>
<text text-anchor="middle" x="342" y="-295.191" font-family="Times,serif" font-size="14.00">Instance for: (ThentosAssertHeaders :&gt; sub)</text>
</g>
<g id="clust4" class="cluster"><title>cluster_Class_HasServer</title>
<path fill="#ffc1c1" stroke="black" d="M499,-219C499,-219 979,-219 979,-219 985,-219 991,-225 991,-231 991,-231 991,-412.744 991,-412.744 991,-418.744 985,-424.744 979,-424.744 979,-424.744 499,-424.744 499,-424.744 493,-424.744 487,-418.744 487,-412.744 487,-412.744 487,-231 487,-231 487,-225 493,-219 499,-219"/>
<text text-anchor="middle" x="739" y="-409.544" font-family="Times,serif" font-size="14.00">Class: HasServer</text>
</g>
<g id="clust5" class="cluster"><title>cluster_Class_HasServer_Data_Post200ctypesa</title>
<path fill="#c6e2ff" stroke="black" d="M507,-227C507,-227 672,-227 672,-227 678,-227 684,-233 684,-239 684,-239 684,-298.391 684,-298.391 684,-304.391 678,-310.391 672,-310.391 672,-310.391 507,-310.391 507,-310.391 501,-310.391 495,-304.391 495,-298.391 495,-298.391 495,-239 495,-239 495,-233 501,-227 507,-227"/>
<text text-anchor="middle" x="589.5" y="-295.191" font-family="Times,serif" font-size="14.00">Instance for: (Post200 ctypes a)</text>
</g>
<g id="clust6" class="cluster"><title>cluster_Class_HasServer_Data_ThentosAssertHeaderssubserver</title>
<path fill="#c6e2ff" stroke="black" d="M704,-227C704,-227 971,-227 971,-227 977,-227 983,-233 983,-239 983,-239 983,-298.391 983,-298.391 983,-304.391 977,-310.391 971,-310.391 971,-310.391 704,-310.391 704,-310.391 698,-310.391 692,-304.391 692,-298.391 692,-298.391 692,-239 692,-239 692,-233 698,-227 704,-227"/>
<text text-anchor="middle" x="837.5" y="-295.191" font-family="Times,serif" font-size="14.00">Instance for: (ThentosAssertHeaders :&gt; subserver)</text>
</g>
<g id="clust7" class="cluster"><title>cluster_Class_ToJSON</title>
<path fill="#ffc1c1" stroke="black" d="M1011,-219C1011,-219 1197,-219 1197,-219 1203,-219 1209,-225 1209,-231 1209,-231 1209,-412.744 1209,-412.744 1209,-418.744 1203,-424.744 1197,-424.744 1197,-424.744 1011,-424.744 1011,-424.744 1005,-424.744 999,-418.744 999,-412.744 999,-412.744 999,-231 999,-231 999,-225 1005,-219 1011,-219"/>
<text text-anchor="middle" x="1104" y="-409.544" font-family="Times,serif" font-size="14.00">Class: ToJSON</text>
</g>
<g id="clust8" class="cluster"><title>cluster_Class_ToJSON_Data_ErrorMessage</title>
<path fill="#c6e2ff" stroke="black" d="M1037,-227C1037,-227 1183,-227 1183,-227 1189,-227 1195,-233 1195,-239 1195,-239 1195,-298.391 1195,-298.391 1195,-304.391 1189,-310.391 1183,-310.391 1183,-310.391 1037,-310.391 1037,-310.391 1031,-310.391 1025,-304.391 1025,-298.391 1025,-298.391 1025,-239 1025,-239 1025,-233 1031,-227 1037,-227"/>
<text text-anchor="middle" x="1110" y="-295.191" font-family="Times,serif" font-size="14.00">Instance for: ErrorMessage</text>
</g>
<g id="clust9" class="cluster"><title>cluster_Data_CorsPolicy</title>
<path fill="papayawhip" stroke="black" d="M2090,-155C2090,-155 2489,-155 2489,-155 2495,-155 2501,-161 2501,-167 2501,-167 2501,-294.196 2501,-294.196 2501,-300.196 2495,-306.196 2489,-306.196 2489,-306.196 2090,-306.196 2090,-306.196 2084,-306.196 2078,-300.196 2078,-294.196 2078,-294.196 2078,-167 2078,-167 2078,-161 2084,-155 2090,-155"/>
<text text-anchor="middle" x="2289.5" y="-290.996" font-family="Times,serif" font-size="14.00">Data: CorsPolicy</text>
</g>
<g id="clust10" class="cluster"><title>cluster_Data_ErrorMessage</title>
<path fill="papayawhip" stroke="black" d="M1229,-155C1229,-155 1383,-155 1383,-155 1389,-155 1395,-161 1395,-167 1395,-167 1395,-294.196 1395,-294.196 1395,-300.196 1389,-306.196 1383,-306.196 1383,-306.196 1229,-306.196 1229,-306.196 1223,-306.196 1217,-300.196 1217,-294.196 1217,-294.196 1217,-167 1217,-167 1217,-161 1223,-155 1229,-155"/>
<text text-anchor="middle" x="1306" y="-290.996" font-family="Times,serif" font-size="14.00">Data: ErrorMessage</text>
</g>
<g id="clust11" class="cluster"><title>cluster_Data_ThentosHeaderName</title>
<path fill="papayawhip" stroke="black" d="M479,-8C479,-8 1237,-8 1237,-8 1243,-8 1249,-14 1249,-20 1249,-20 1249,-71 1249,-71 1249,-77 1243,-83 1237,-83 1237,-83 479,-83 479,-83 473,-83 467,-77 467,-71 467,-71 467,-20 467,-20 467,-14 473,-8 479,-8"/>
<text text-anchor="middle" x="858" y="-67.8" font-family="Times,serif" font-size="14.00">Data: ThentosHeaderName</text>
</g>
<!-- 33 -->
<g id="node1" class="node"><title>33</title>
<polygon fill="cyan" stroke="black" stroke-width="2" points="196.92,-247.92 196.92,-266.471 154.205,-279.589 93.7954,-279.589 51.0797,-266.471 51.0797,-247.92 93.7954,-234.803 154.205,-234.803 196.92,-247.92"/>
<text text-anchor="middle" x="124" y="-253.496" font-family="Times,serif" font-size="14.00">toLink</text>
</g>
<!-- 34 -->
<g id="node2" class="node"><title>34</title>
<polygon fill="cyan" stroke="black" stroke-width="2" points="366.92,-247.92 366.92,-266.471 324.205,-279.589 263.795,-279.589 221.08,-266.471 221.08,-247.92 263.795,-234.803 324.205,-234.803 366.92,-247.92"/>
<text text-anchor="middle" x="294" y="-253.496" font-family="Times,serif" font-size="14.00">toLink</text>
</g>
<!-- 37 -->
<g id="node3" class="node"><title>37</title>
<polygon fill="khaki" stroke="black" stroke-dasharray="1,5" points="337.858,-342.053 337.858,-370.082 267.061,-389.902 166.939,-389.902 96.1417,-370.082 96.1417,-342.053 166.939,-322.233 267.061,-322.233 337.858,-342.053"/>
<polygon fill="none" stroke="black" stroke-dasharray="1,5" points="341.856,-339 341.856,-373.135 267.607,-393.921 166.393,-393.921 92.144,-373.135 92.144,-339 166.393,-318.214 267.607,-318.214 341.856,-339"/>
<text text-anchor="middle" x="217" y="-359.867" font-family="Times,serif" font-size="14.00">Unknown Module</text>
<text text-anchor="middle" x="217" y="-344.867" font-family="Times,serif" font-size="14.00">toLink</text>
</g>
<!-- 37&#45;&gt;33 -->
<g id="edge32" class="edge"><title>37&#45;&gt;33</title>
<path fill="none" stroke="navy" d="M181.575,-318.168C169.05,-305.122 155.387,-290.89 144.515,-279.565"/>
</g>
<!-- 37&#45;&gt;34 -->
<g id="edge33" class="edge"><title>37&#45;&gt;34</title>
<path fill="none" stroke="navy" d="M246.33,-318.168C256.7,-305.122 268.013,-290.89 277.014,-279.565"/>
</g>
<!-- 28 -->
<g id="node4" class="node"><title>28</title>
<polygon fill="cyan" stroke="black" stroke-width="2" points="675.644,-247.92 675.644,-266.471 637.19,-279.589 582.81,-279.589 544.356,-266.471 544.356,-247.92 582.81,-234.803 637.19,-234.803 675.644,-247.92"/>
<text text-anchor="middle" x="610" y="-253.496" font-family="Times,serif" font-size="14.00">route</text>
</g>
<!-- 29 -->
<g id="node5" class="node"><title>29</title>
<polygon fill="bisque" stroke="black" stroke-width="2" points="831.644,-247.92 831.644,-266.471 793.19,-279.589 738.81,-279.589 700.356,-266.471 700.356,-247.92 738.81,-234.803 793.19,-234.803 831.644,-247.92"/>
<text text-anchor="middle" x="766" y="-253.496" font-family="Times,serif" font-size="14.00">route</text>
</g>
<!-- 11 -->
<g id="node23" class="node"><title>11</title>
<polygon fill="goldenrod" stroke="black" stroke-width="2" points="827,-199 705,-199 705,-163 827,-163 827,-199"/>
<text text-anchor="middle" x="766" y="-177.3" font-family="Times,serif" font-size="14.00">badHeaders</text>
</g>
<!-- 29&#45;&gt;11 -->
<g id="edge27" class="edge"><title>29&#45;&gt;11</title>
<path fill="none" stroke="chartreuse" d="M766,-234.735C766,-226.791 766,-217.675 766,-209.282"/>
<polygon fill="chartreuse" stroke="chartreuse" points="769.5,-209.179 766,-199.179 762.5,-209.179 769.5,-209.179"/>
</g>
<!-- 36 -->
<g id="node6" class="node"><title>36</title>
<polygon fill="khaki" stroke="black" stroke-dasharray="1,5" points="813.858,-342.053 813.858,-370.082 743.061,-389.902 642.939,-389.902 572.142,-370.082 572.142,-342.053 642.939,-322.233 743.061,-322.233 813.858,-342.053"/>
<polygon fill="none" stroke="black" stroke-dasharray="1,5" points="817.856,-339 817.856,-373.135 743.607,-393.921 642.393,-393.921 568.144,-373.135 568.144,-339 642.393,-318.214 743.607,-318.214 817.856,-339"/>
<text text-anchor="middle" x="693" y="-359.867" font-family="Times,serif" font-size="14.00">Unknown Module</text>
<text text-anchor="middle" x="693" y="-344.867" font-family="Times,serif" font-size="14.00">route</text>
</g>
<!-- 36&#45;&gt;28 -->
<g id="edge30" class="edge"><title>36&#45;&gt;28</title>
<path fill="none" stroke="navy" d="M661.384,-318.168C650.206,-305.122 638.012,-290.89 628.309,-279.565"/>
</g>
<!-- 36&#45;&gt;29 -->
<g id="edge31" class="edge"><title>36&#45;&gt;29</title>
<path fill="none" stroke="navy" d="M720.806,-318.168C730.638,-305.122 741.363,-290.89 749.897,-279.565"/>
</g>
<!-- 32 -->
<g id="node7" class="node"><title>32</title>
<polygon fill="bisque" stroke="black" stroke-width="2" points="1187.1,-247.92 1187.1,-266.471 1141.94,-279.589 1078.06,-279.589 1032.9,-266.471 1032.9,-247.92 1078.06,-234.803 1141.94,-234.803 1187.1,-247.92"/>
<text text-anchor="middle" x="1110" y="-253.496" font-family="Times,serif" font-size="14.00">toJSON</text>
</g>
<!-- 2 -->
<g id="node13" class="node"><title>2</title>
<polygon fill="goldenrod" stroke="black" stroke-width="2" points="1373.5,-199 1242.5,-199 1238.5,-195 1238.5,-163 1369.5,-163 1373.5,-167 1373.5,-199"/>
<polyline fill="none" stroke="black" stroke-width="2" points="1369.5,-195 1238.5,-195 "/>
<polyline fill="none" stroke="black" stroke-width="2" points="1369.5,-195 1369.5,-163 "/>
<polyline fill="none" stroke="black" stroke-width="2" points="1369.5,-195 1373.5,-199 "/>
<text text-anchor="middle" x="1306" y="-177.3" font-family="Times,serif" font-size="14.00">ErrorMessage</text>
</g>
<!-- 32&#45;&gt;2 -->
<g id="edge28" class="edge"><title>32&#45;&gt;2</title>
<path fill="none" stroke="black" d="M1155.95,-238.8C1184.54,-227.978 1221.45,-214.005 1251.51,-202.627"/>
<polygon fill="black" stroke="black" points="1252.9,-205.844 1261.01,-199.031 1250.42,-199.298 1252.9,-205.844"/>
</g>
<!-- 35 -->
<g id="node8" class="node"><title>35</title>
<polygon fill="khaki" stroke="black" stroke-dasharray="5,2" points="1197.25,-342.053 1197.25,-370.082 1142.63,-389.902 1065.37,-389.902 1010.75,-370.082 1010.75,-342.053 1065.37,-322.233 1142.63,-322.233 1197.25,-342.053"/>
<polygon fill="none" stroke="black" stroke-dasharray="5,2" points="1201.25,-339.23 1201.25,-372.905 1143.33,-393.921 1064.67,-393.921 1006.75,-372.905 1006.75,-339.23 1064.67,-318.214 1143.33,-318.214 1201.25,-339.23"/>
<text text-anchor="middle" x="1104" y="-359.867" font-family="Times,serif" font-size="14.00">Data.Aeson</text>
<text text-anchor="middle" x="1104" y="-344.867" font-family="Times,serif" font-size="14.00">toJSON</text>
</g>
<!-- 35&#45;&gt;32 -->
<g id="edge29" class="edge"><title>35&#45;&gt;32</title>
<path fill="none" stroke="navy" d="M1106.29,-318.168C1107.09,-305.122 1107.98,-290.89 1108.68,-279.565"/>
</g>
<!-- 1 -->
<g id="node9" class="node"><title>1</title>
<polygon fill="goldenrod" stroke="black" stroke-width="2" points="2344.5,-199 2229.5,-199 2225.5,-195 2225.5,-163 2340.5,-163 2344.5,-167 2344.5,-199"/>
<polyline fill="none" stroke="black" stroke-width="2" points="2340.5,-195 2225.5,-195 "/>
<polyline fill="none" stroke="black" stroke-width="2" points="2340.5,-195 2340.5,-163 "/>
<polyline fill="none" stroke="black" stroke-width="2" points="2340.5,-195 2344.5,-199 "/>
<text text-anchor="middle" x="2285" y="-177.3" font-family="Times,serif" font-size="14.00">CorsPolicy</text>
</g>
<!-- 15 -->
<g id="node10" class="node"><title>15</title>
<polygon fill="goldenrod" stroke="black" stroke-width="2" points="2492.5,-275.196 2367.5,-275.196 2367.5,-271.196 2363.5,-271.196 2363.5,-267.196 2367.5,-267.196 2367.5,-247.196 2363.5,-247.196 2363.5,-243.196 2367.5,-243.196 2367.5,-239.196 2492.5,-239.196 2492.5,-275.196"/>
<polyline fill="none" stroke="black" stroke-width="2" points="2367.5,-271.196 2371.5,-271.196 2371.5,-267.196 2367.5,-267.196 "/>
<polyline fill="none" stroke="black" stroke-width="2" points="2367.5,-247.196 2371.5,-247.196 2371.5,-243.196 2367.5,-243.196 "/>
<text text-anchor="middle" x="2430" y="-253.496" font-family="Times,serif" font-size="14.00">corsHeaders</text>
</g>
<!-- 15&#45;&gt;1 -->
<g id="edge13" class="edge"><title>15&#45;&gt;1</title>
<path fill="none" stroke="magenta" d="M2397.55,-239.031C2385.47,-232.686 2371.63,-225.467 2359,-219 2349.21,-213.989 2338.66,-208.666 2328.67,-203.666"/>
<polygon fill="magenta" stroke="magenta" points="2319.7,-199.182 2330.66,-199.628 2324.18,-201.418 2328.65,-203.653 2328.65,-203.653 2328.65,-203.653 2324.18,-201.418 2326.64,-207.678 2319.7,-199.182 2319.7,-199.182"/>
</g>
<!-- 16 -->
<g id="node11" class="node"><title>16</title>
<polygon fill="goldenrod" stroke="black" stroke-width="2" points="2349.5,-275.196 2220.5,-275.196 2220.5,-271.196 2216.5,-271.196 2216.5,-267.196 2220.5,-267.196 2220.5,-247.196 2216.5,-247.196 2216.5,-243.196 2220.5,-243.196 2220.5,-239.196 2349.5,-239.196 2349.5,-275.196"/>
<polyline fill="none" stroke="black" stroke-width="2" points="2220.5,-271.196 2224.5,-271.196 2224.5,-267.196 2220.5,-267.196 "/>
<polyline fill="none" stroke="black" stroke-width="2" points="2220.5,-247.196 2224.5,-247.196 2224.5,-243.196 2220.5,-243.196 "/>
<text text-anchor="middle" x="2285" y="-253.496" font-family="Times,serif" font-size="14.00">corsMethods</text>
</g>
<!-- 16&#45;&gt;1 -->
<g id="edge14" class="edge"><title>16&#45;&gt;1</title>
<path fill="none" stroke="magenta" d="M2285,-238.987C2285,-230.185 2285,-219.261 2285,-209.34"/>
<polygon fill="magenta" stroke="magenta" points="2285,-199.115 2289.5,-209.115 2285,-204.115 2285,-209.115 2285,-209.115 2285,-209.115 2285,-204.115 2280.5,-209.115 2285,-199.115 2285,-199.115"/>
</g>
<!-- 17 -->
<g id="node12" class="node"><title>17</title>
<polygon fill="goldenrod" stroke="black" stroke-width="2" points="2202,-275.196 2086,-275.196 2086,-271.196 2082,-271.196 2082,-267.196 2086,-267.196 2086,-247.196 2082,-247.196 2082,-243.196 2086,-243.196 2086,-239.196 2202,-239.196 2202,-275.196"/>
<polyline fill="none" stroke="black" stroke-width="2" points="2086,-271.196 2090,-271.196 2090,-267.196 2086,-267.196 "/>
<polyline fill="none" stroke="black" stroke-width="2" points="2086,-247.196 2090,-247.196 2090,-243.196 2086,-243.196 "/>
<text text-anchor="middle" x="2144" y="-253.496" font-family="Times,serif" font-size="14.00">corsOrigin</text>
</g>
<!-- 17&#45;&gt;1 -->
<g id="edge15" class="edge"><title>17&#45;&gt;1</title>
<path fill="none" stroke="magenta" d="M2174.69,-239.14C2186.33,-232.742 2199.74,-225.459 2212,-219 2221.53,-213.982 2231.81,-208.692 2241.57,-203.732"/>
<polygon fill="magenta" stroke="magenta" points="2250.72,-199.097 2243.83,-207.63 2246.26,-201.356 2241.8,-203.615 2241.8,-203.615 2241.8,-203.615 2246.26,-201.356 2239.76,-199.601 2250.72,-199.097 2250.72,-199.097"/>
</g>
<!-- 20 -->
<g id="node14" class="node"><title>20</title>
<polygon fill="gold" stroke="black" stroke-width="2" points="1387,-275.196 1225,-275.196 1225,-271.196 1221,-271.196 1221,-267.196 1225,-267.196 1225,-247.196 1221,-247.196 1221,-243.196 1225,-243.196 1225,-239.196 1387,-239.196 1387,-275.196"/>
<polyline fill="none" stroke="black" stroke-width="2" points="1225,-271.196 1229,-271.196 1229,-267.196 1225,-267.196 "/>
<polyline fill="none" stroke="black" stroke-width="2" points="1225,-247.196 1229,-247.196 1229,-243.196 1225,-243.196 "/>
<text text-anchor="middle" x="1306" y="-253.496" font-family="Times,serif" font-size="14.00">fromErrorMessage</text>
</g>
<!-- 20&#45;&gt;2 -->
<g id="edge16" class="edge"><title>20&#45;&gt;2</title>
<path fill="none" stroke="magenta" d="M1306,-238.987C1306,-230.185 1306,-219.261 1306,-209.34"/>
<polygon fill="magenta" stroke="magenta" points="1306,-199.115 1310.5,-209.115 1306,-204.115 1306,-209.115 1306,-209.115 1306,-209.115 1306,-204.115 1301.5,-209.115 1306,-199.115 1306,-199.115"/>
</g>
<!-- 3 -->
<g id="node15" class="node"><title>3</title>
<polygon fill="goldenrod" stroke="black" stroke-width="2" points="840.5,-52 663.5,-52 659.5,-48 659.5,-16 836.5,-16 840.5,-20 840.5,-52"/>
<polyline fill="none" stroke="black" stroke-width="2" points="836.5,-48 659.5,-48 "/>
<polyline fill="none" stroke="black" stroke-width="2" points="836.5,-48 836.5,-16 "/>
<polyline fill="none" stroke="black" stroke-width="2" points="836.5,-48 840.5,-52 "/>
<text text-anchor="middle" x="750" y="-30.3" font-family="Times,serif" font-size="14.00">ThentosHeaderGroups</text>
</g>
<!-- 4 -->
<g id="node16" class="node"><title>4</title>
<polygon fill="goldenrod" stroke="black" stroke-width="2" points="1241,-52 1063,-52 1059,-48 1059,-16 1237,-16 1241,-20 1241,-52"/>
<polyline fill="none" stroke="black" stroke-width="2" points="1237,-48 1059,-48 "/>
<polyline fill="none" stroke="black" stroke-width="2" points="1237,-48 1237,-16 "/>
<polyline fill="none" stroke="black" stroke-width="2" points="1237,-48 1241,-52 "/>
<text text-anchor="middle" x="1150" y="-30.3" font-family="Times,serif" font-size="14.00">ThentosHeaderService</text>
</g>
<!-- 5 -->
<g id="node17" class="node"><title>5</title>
<polygon fill="goldenrod" stroke="black" stroke-width="2" points="1041,-52 863,-52 859,-48 859,-16 1037,-16 1041,-20 1041,-52"/>
<polyline fill="none" stroke="black" stroke-width="2" points="1037,-48 859,-48 "/>
<polyline fill="none" stroke="black" stroke-width="2" points="1037,-48 1037,-16 "/>
<polyline fill="none" stroke="black" stroke-width="2" points="1037,-48 1041,-52 "/>
<text text-anchor="middle" x="950" y="-30.3" font-family="Times,serif" font-size="14.00">ThentosHeaderSession</text>
</g>
<!-- 6 -->
<g id="node18" class="node"><title>6</title>
<polygon fill="goldenrod" stroke="black" stroke-width="2" points="641.5,-52 478.5,-52 474.5,-48 474.5,-16 637.5,-16 641.5,-20 641.5,-52"/>
<polyline fill="none" stroke="black" stroke-width="2" points="637.5,-48 474.5,-48 "/>
<polyline fill="none" stroke="black" stroke-width="2" points="637.5,-48 637.5,-16 "/>
<polyline fill="none" stroke="black" stroke-width="2" points="637.5,-48 641.5,-52 "/>
<text text-anchor="middle" x="558" y="-30.3" font-family="Times,serif" font-size="14.00">ThentosHeaderUser</text>
</g>
<!-- 7 -->
<g id="node19" class="node"><title>7</title>
<polygon fill="goldenrod" stroke="black" stroke-width="2" points="2067.5,-275.196 1924.5,-275.196 1924.5,-239.196 2067.5,-239.196 2067.5,-275.196"/>
<text text-anchor="middle" x="1996" y="-253.496" font-family="Times,serif" font-size="14.00">actionErrorInfo</text>
</g>
<!-- 8 -->
<g id="node20" class="node"><title>8</title>
<polygon fill="gold" stroke="black" stroke-width="2" points="2805.5,-374.067 2608.5,-374.067 2608.5,-338.067 2805.5,-338.067 2805.5,-374.067"/>
<text text-anchor="middle" x="2707" y="-352.367" font-family="Times,serif" font-size="14.00">addCacheControlHeaders</text>
</g>
<!-- 10 -->
<g id="node22" class="node"><title>10</title>
<polygon fill="goldenrod" stroke="black" stroke-width="2" points="2699.5,-275.196 2510.5,-275.196 2510.5,-239.196 2699.5,-239.196 2699.5,-275.196"/>
<text text-anchor="middle" x="2605" y="-253.496" font-family="Times,serif" font-size="14.00">addHeadersToResponse</text>
</g>
<!-- 8&#45;&gt;10 -->
<g id="edge1" class="edge"><title>8&#45;&gt;10</title>
<path fill="none" stroke="black" d="M2688.76,-337.749C2672.52,-322.32 2648.58,-299.587 2630.45,-282.369"/>
<polygon fill="black" stroke="black" points="2632.74,-279.713 2623.08,-275.364 2627.92,-284.789 2632.74,-279.713"/>
</g>
<!-- 21 -->
<g id="node29" class="node"><title>21</title>
<polygon fill="goldenrod" stroke="black" stroke-width="2" points="2884,-275.196 2736,-275.196 2736,-239.196 2884,-239.196 2884,-275.196"/>
<text text-anchor="middle" x="2810" y="-253.496" font-family="Times,serif" font-size="14.00">httpCachePolicy</text>
</g>
<!-- 8&#45;&gt;21 -->
<g id="edge2" class="edge"><title>8&#45;&gt;21</title>
<path fill="none" stroke="black" d="M2725.41,-337.749C2741.82,-322.32 2765.99,-299.587 2784.3,-282.369"/>
<polygon fill="black" stroke="black" points="2786.86,-284.765 2791.75,-275.364 2782.06,-279.666 2786.86,-284.765"/>
</g>
<!-- 9 -->
<g id="node21" class="node"><title>9</title>
<polygon fill="gold" stroke="black" stroke-width="2" points="2431,-374.067 2283,-374.067 2283,-338.067 2431,-338.067 2431,-374.067"/>
<text text-anchor="middle" x="2357" y="-352.367" font-family="Times,serif" font-size="14.00">addCorsHeaders</text>
</g>
<!-- 9&#45;&gt;15 -->
<g id="edge4" class="edge"><title>9&#45;&gt;15</title>
<path fill="none" stroke="black" d="M2370.05,-337.749C2381.37,-322.733 2397.89,-300.8 2410.73,-283.764"/>
<polygon fill="black" stroke="black" points="2413.84,-285.457 2417.06,-275.364 2408.25,-281.244 2413.84,-285.457"/>
</g>
<!-- 9&#45;&gt;16 -->
<g id="edge5" class="edge"><title>9&#45;&gt;16</title>
<path fill="none" stroke="black" d="M2344.13,-337.749C2332.97,-322.733 2316.67,-300.8 2304,-283.764"/>
<polygon fill="black" stroke="black" points="2306.54,-281.303 2297.76,-275.364 2300.92,-285.478 2306.54,-281.303"/>
</g>
<!-- 9&#45;&gt;17 -->
<g id="edge6" class="edge"><title>9&#45;&gt;17</title>
<path fill="none" stroke="black" d="M2283.84,-338.018C2260.2,-331.084 2234.35,-321.936 2212,-310.391 2197.17,-302.733 2182.29,-291.771 2170.24,-281.867"/>
<polygon fill="black" stroke="black" points="2172.29,-279.014 2162.39,-275.234 2167.77,-284.361 2172.29,-279.014"/>
</g>
<!-- 9&#45;&gt;10 -->
<g id="edge3" class="edge"><title>9&#45;&gt;10</title>
<path fill="none" stroke="black" d="M2423.12,-337.984C2449.03,-330.548 2478.78,-321.081 2505,-310.391 2526.1,-301.79 2548.67,-290.226 2567.03,-280.169"/>
<polygon fill="black" stroke="black" points="2568.89,-283.135 2575.94,-275.222 2565.5,-277.015 2568.89,-283.135"/>
</g>
<!-- 10&#45;&gt;10 -->
<g id="edge7" class="edge"><title>10&#45;&gt;10</title>
<path fill="none" stroke="black" d="M2699.79,-269.271C2710.54,-267.01 2717.5,-262.985 2717.5,-257.196 2717.5,-253.397 2714.5,-250.357 2709.4,-248.077"/>
<polygon fill="black" stroke="black" points="2710.38,-244.716 2699.79,-245.12 2708.32,-251.407 2710.38,-244.716"/>
</g>
<!-- 27 -->
<g id="node35" class="node"><title>27</title>
<polygon fill="goldenrod" stroke="black" stroke-width="2" points="870.5,-127 661.5,-127 661.5,-91 870.5,-91 870.5,-127"/>
<text text-anchor="middle" x="766" y="-105.3" font-family="Times,serif" font-size="14.00">renderThentosHeaderName</text>
</g>
<!-- 11&#45;&gt;27 -->
<g id="edge8" class="edge"><title>11&#45;&gt;27</title>
<path fill="none" stroke="chartreuse" d="M766,-162.697C766,-154.983 766,-145.712 766,-137.112"/>
<polygon fill="chartreuse" stroke="chartreuse" points="769.5,-137.104 766,-127.104 762.5,-137.104 769.5,-137.104"/>
</g>
<!-- 12 -->
<g id="node24" class="node"><title>12</title>
<polygon fill="gold" stroke="black" stroke-width="2" points="1862.5,-374.067 1641.5,-374.067 1641.5,-338.067 1862.5,-338.067 1862.5,-374.067"/>
<text text-anchor="middle" x="1752" y="-352.367" font-family="Times,serif" font-size="14.00">baseActionErrorToServantErr</text>
</g>
<!-- 12&#45;&gt;7 -->
<g id="edge9" class="edge"><title>12&#45;&gt;7</title>
<path fill="none" stroke="black" d="M1833.28,-337.986C1859.93,-331.03 1889.28,-321.877 1915,-310.391 1932.62,-302.523 1950.81,-291.147 1965.48,-281.022"/>
<polygon fill="black" stroke="black" points="1967.52,-283.865 1973.67,-275.242 1963.48,-278.144 1967.52,-283.865"/>
</g>
<!-- 19 -->
<g id="node28" class="node"><title>19</title>
<polygon fill="goldenrod" stroke="black" stroke-width="2" points="1586.5,-275.196 1405.5,-275.196 1405.5,-239.196 1586.5,-239.196 1586.5,-275.196"/>
<text text-anchor="middle" x="1496" y="-253.496" font-family="Times,serif" font-size="14.00">errorInfoToServantErr</text>
</g>
<!-- 12&#45;&gt;19 -->
<g id="edge10" class="edge"><title>12&#45;&gt;19</title>
<path fill="none" stroke="black" d="M1680.22,-338.011C1653.1,-330.695 1622.23,-321.304 1595,-310.391 1574.11,-302.019 1551.86,-290.54 1533.76,-280.478"/>
<polygon fill="black" stroke="black" points="1535.13,-277.232 1524.7,-275.369 1531.69,-283.33 1535.13,-277.232"/>
</g>
<!-- 26 -->
<g id="node34" class="node"><title>26</title>
<polygon fill="goldenrod" stroke="black" stroke-width="2" points="1739.5,-275.196 1604.5,-275.196 1604.5,-239.196 1739.5,-239.196 1739.5,-275.196"/>
<text text-anchor="middle" x="1672" y="-253.496" font-family="Times,serif" font-size="14.00">mkServantErr</text>
</g>
<!-- 12&#45;&gt;26 -->
<g id="edge11" class="edge"><title>12&#45;&gt;26</title>
<path fill="none" stroke="black" d="M1737.7,-337.749C1725.18,-322.596 1706.85,-300.397 1692.73,-283.296"/>
<polygon fill="black" stroke="black" points="1695.24,-280.846 1686.18,-275.364 1689.85,-285.304 1695.24,-280.846"/>
</g>
<!-- 31 -->
<g id="node37" class="node"><title>31</title>
<polygon fill="goldenrod" stroke="black" stroke-width="2" points="1906.5,-275.196 1757.5,-275.196 1757.5,-239.196 1906.5,-239.196 1906.5,-275.196"/>
<text text-anchor="middle" x="1832" y="-253.496" font-family="Times,serif" font-size="14.00">thentosErrorInfo</text>
</g>
<!-- 12&#45;&gt;31 -->
<g id="edge12" class="edge"><title>12&#45;&gt;31</title>
<path fill="none" stroke="black" d="M1766.3,-337.749C1778.82,-322.596 1797.15,-300.397 1811.27,-283.296"/>
<polygon fill="black" stroke="black" points="1814.15,-285.304 1817.82,-275.364 1808.76,-280.846 1814.15,-285.304"/>
</g>
<!-- 13 -->
<g id="node25" class="node"><title>13</title>
<polygon fill="gold" stroke="black" stroke-width="2" points="2996,-374.067 2824,-374.067 2824,-338.067 2996,-338.067 2996,-374.067"/>
<text text-anchor="middle" x="2910" y="-352.367" font-family="Times,serif" font-size="14.00">clearCustomHeaders</text>
</g>
<!-- 14 -->
<g id="node26" class="node"><title>14</title>
<polygon fill="goldenrod" stroke="black" stroke-width="2" points="1766.5,-199 1577.5,-199 1577.5,-163 1766.5,-163 1766.5,-199"/>
<text text-anchor="middle" x="1672" y="-177.3" font-family="Times,serif" font-size="14.00">contentTypeJsonHeader</text>
</g>
<!-- 18 -->
<g id="node27" class="node"><title>18</title>
<polygon fill="gold" stroke="black" stroke-width="2" points="3136,-374.067 3014,-374.067 3014,-338.067 3136,-338.067 3136,-374.067"/>
<text text-anchor="middle" x="3075" y="-352.367" font-family="Times,serif" font-size="14.00">enterAction</text>
</g>
<!-- 22 -->
<g id="node30" class="node"><title>22</title>
<polygon fill="gold" stroke="black" stroke-width="2" points="3273.5,-374.067 3154.5,-374.067 3154.5,-338.067 3273.5,-338.067 3273.5,-374.067"/>
<text text-anchor="middle" x="3214" y="-352.367" font-family="Times,serif" font-size="14.00">loggerMW</text>
</g>
<!-- 23 -->
<g id="node31" class="node"><title>23</title>
<polygon fill="goldenrod" stroke="black" stroke-width="2" points="1438.5,-52 1259.5,-52 1259.5,-16 1438.5,-16 1438.5,-52"/>
<text text-anchor="middle" x="1349" y="-30.3" font-family="Times,serif" font-size="14.00">lookupThentosHeader</text>
</g>
<!-- 24 -->
<g id="node32" class="node"><title>24</title>
<polygon fill="gold" stroke="black" stroke-width="2" points="1442.5,-127 1223.5,-127 1223.5,-91 1442.5,-91 1442.5,-127"/>
<text text-anchor="middle" x="1333" y="-105.3" font-family="Times,serif" font-size="14.00">lookupThentosHeaderService</text>
</g>
<!-- 24&#45;&gt;4 -->
<g id="edge17" class="edge"><title>24&#45;&gt;4</title>
<path fill="none" stroke="black" d="M1272.34,-90.9211C1264.75,-88.4377 1257.16,-85.7757 1250,-83 1230.28,-75.3493 1209.07,-65.4262 1191.28,-56.5896"/>
<polygon fill="black" stroke="black" points="1192.82,-53.4476 1182.31,-52.0854 1189.68,-59.7025 1192.82,-53.4476"/>
</g>
<!-- 24&#45;&gt;23 -->
<g id="edge18" class="edge"><title>24&#45;&gt;23</title>
<path fill="none" stroke="black" d="M1336.79,-90.7C1338.66,-82.1543 1340.97,-71.6455 1343.07,-62.0672"/>
<polygon fill="black" stroke="black" points="1346.51,-62.6933 1345.24,-52.1758 1339.68,-61.1946 1346.51,-62.6933"/>
</g>
<!-- 25 -->
<g id="node33" class="node"><title>25</title>
<polygon fill="gold" stroke="black" stroke-width="2" points="1173,-127 953,-127 953,-91 1173,-91 1173,-127"/>
<text text-anchor="middle" x="1063" y="-105.3" font-family="Times,serif" font-size="14.00">lookupThentosHeaderSession</text>
</g>
<!-- 25&#45;&gt;5 -->
<g id="edge19" class="edge"><title>25&#45;&gt;5</title>
<path fill="none" stroke="black" d="M1036.51,-90.8847C1021.06,-80.9083 1001.41,-68.2101 984.736,-57.4398"/>
<polygon fill="black" stroke="black" points="986.626,-54.4945 976.327,-52.008 982.828,-60.3743 986.626,-54.4945"/>
</g>
<!-- 25&#45;&gt;23 -->
<g id="edge20" class="edge"><title>25&#45;&gt;23</title>
<path fill="none" stroke="black" d="M1173.23,-96.611C1206.08,-92.533 1237.45,-87.7625 1253,-83 1273.29,-76.7836 1294.53,-66.5962 1311.86,-57.2023"/>
<polygon fill="black" stroke="black" points="1314.01,-60.0114 1321.05,-52.0953 1310.61,-53.8923 1314.01,-60.0114"/>
</g>
<!-- 26&#45;&gt;2 -->
<g id="edge21" class="edge"><title>26&#45;&gt;2</title>
<path fill="none" stroke="black" d="M1642.18,-239.006C1628.27,-231.721 1611.22,-223.818 1595,-219 1525.21,-198.275 1442.55,-189.159 1383.55,-185.149"/>
<polygon fill="black" stroke="black" points="1383.76,-181.655 1373.55,-184.503 1383.3,-188.641 1383.76,-181.655"/>
</g>
<!-- 26&#45;&gt;14 -->
<g id="edge22" class="edge"><title>26&#45;&gt;14</title>
<path fill="none" stroke="black" d="M1672,-238.987C1672,-230.185 1672,-219.261 1672,-209.34"/>
<polygon fill="black" stroke="black" points="1675.5,-209.115 1672,-199.115 1668.5,-209.115 1675.5,-209.115"/>
</g>
<!-- 27&#45;&gt;3 -->
<g id="edge23" class="edge"><title>27&#45;&gt;3</title>
<path fill="none" stroke="black" d="M762.208,-90.7C760.335,-82.1543 758.032,-71.6455 755.933,-62.0672"/>
<polygon fill="black" stroke="black" points="759.324,-61.1946 753.765,-52.1758 752.487,-62.6933 759.324,-61.1946"/>
</g>
<!-- 27&#45;&gt;4 -->
<g id="edge24" class="edge"><title>27&#45;&gt;4</title>
<path fill="none" stroke="black" d="M870.915,-97.6301C894.923,-95.3545 920.338,-93.0226 944,-91 991.073,-86.9762 1004.36,-95.2108 1050,-83 1071.8,-77.1667 1094.6,-66.6142 1112.91,-56.8861"/>
<polygon fill="black" stroke="black" points="1114.68,-59.9105 1121.79,-52.0527 1111.33,-53.7635 1114.68,-59.9105"/>
</g>
<!-- 27&#45;&gt;5 -->
<g id="edge25" class="edge"><title>27&#45;&gt;5</title>
<path fill="none" stroke="black" d="M826.654,-90.8944C834.237,-88.4155 841.839,-85.7619 849,-83 868.898,-75.3256 890.317,-65.3991 908.287,-56.5663"/>
<polygon fill="black" stroke="black" points="909.947,-59.65 917.344,-52.0648 906.831,-53.3816 909.947,-59.65"/>
</g>
<!-- 27&#45;&gt;6 -->
<g id="edge26" class="edge"><title>27&#45;&gt;6</title>
<path fill="none" stroke="black" d="M675.403,-90.9594C666.728,-88.5867 658.138,-85.9391 650,-83 631.128,-76.1844 611.264,-66.2139 594.842,-57.1237"/>
<polygon fill="black" stroke="black" points="596.531,-54.0576 586.102,-52.1898 593.09,-60.1535 596.531,-54.0576"/>
</g>
<!-- 30 -->
<g id="node36" class="node"><title>30</title>
<polygon fill="gold" stroke="black" stroke-width="2" points="3446.5,-374.067 3291.5,-374.067 3291.5,-338.067 3446.5,-338.067 3446.5,-374.067"/>
<text text-anchor="middle" x="3369" y="-352.367" font-family="Times,serif" font-size="14.00">runWarpWithCfg</text>
</g>
</g>
</svg>
