<?xml version="1.0" encoding="UTF-8" standalone="no"?>
<!DOCTYPE svg PUBLIC "-//W3C//DTD SVG 1.1//EN"
 "http://www.w3.org/Graphics/SVG/1.1/DTD/svg11.dtd">
<!-- Generated by graphviz version 2.38.0 (20140413.2041)
 -->
<!-- Title: Core of Thentos.Types Pages: 1 -->
<svg width="564pt" height="321pt"
 viewBox="0.00 0.00 564.00 321.22" xmlns="http://www.w3.org/2000/svg" xmlns:xlink="http://www.w3.org/1999/xlink">
<g id="graph0" class="graph" transform="scale(1 1) rotate(0) translate(4 317.224)">
<title>Core of Thentos.Types</title>
<polygon fill="white" stroke="none" points="-4,4 -4,-317.224 560,-317.224 560,4 -4,4"/>
<g id="clust1" class="cluster"><title>cluster_Class_Ord</title>
<path fill="#ffc1c1" stroke="black" d="M20,-64C20,-64 262,-64 262,-64 268,-64 274,-70 274,-76 274,-76 274,-293.224 274,-293.224 274,-299.224 268,-305.224 262,-305.224 262,-305.224 20,-305.224 20,-305.224 14,-305.224 8,-299.224 8,-293.224 8,-293.224 8,-76 8,-76 8,-70 14,-64 20,-64"/>
<text text-anchor="middle" x="141" y="-290.024" font-family="Times,serif" font-size="14.00">Class: Ord</text>
</g>
<g id="clust2" class="cluster"><title>cluster_Class_Ord_Data_Context</title>
<path fill="#c6e2ff" stroke="black" d="M64,-190.833C64,-190.833 218,-190.833 218,-190.833 224,-190.833 230,-196.833 230,-202.833 230,-202.833 230,-262.224 230,-262.224 230,-268.224 224,-274.224 218,-274.224 218,-274.224 64,-274.224 64,-274.224 58,-274.224 52,-268.224 52,-262.224 52,-262.224 52,-202.833 52,-202.833 52,-196.833 58,-190.833 64,-190.833"/>
<text text-anchor="middle" x="141" y="-259.024" font-family="Times,serif" font-size="14.00">Instance for: Context</text>
</g>
<g id="clust3" class="cluster"><title>cluster_Class_Show</title>
<path fill="#ffc1c1" stroke="black" d="M294,-71.4805C294,-71.4805 536,-71.4805 536,-71.4805 542,-71.4805 548,-77.4805 548,-83.4805 548,-83.4805 548,-277.705 548,-277.705 548,-283.705 542,-289.705 536,-289.705 536,-289.705 294,-289.705 294,-289.705 288,-289.705 282,-283.705 282,-277.705 282,-277.705 282,-83.4805 282,-83.4805 282,-77.4805 288,-71.4805 294,-71.4805"/>
<text text-anchor="middle" x="415" y="-274.505" font-family="Times,serif" font-size="14.00">Class: Show</text>
</g>
<g id="clust4" class="cluster"><title>cluster_Class_Show_Data_ProxyUri</title>
<path fill="#c6e2ff" stroke="black" d="M327,-79.4805C327,-79.4805 453,-79.4805 453,-79.4805 459,-79.4805 465,-85.4805 465,-91.4805 465,-91.4805 465,-150.872 465,-150.872 465,-156.872 459,-162.872 453,-162.872 453,-162.872 327,-162.872 327,-162.872 321,-162.872 315,-156.872 315,-150.872 315,-150.872 315,-91.4805 315,-91.4805 315,-85.4805 321,-79.4805 327,-79.4805"/>
<text text-anchor="middle" x="390" y="-147.672" font-family="Times,serif" font-size="14.00">Instance for: ProxyUri</text>
</g>
<!-- 107 -->
<g id="node1" class="node"><title>107</title>
<polygon fill="bisque" stroke="black" stroke-width="2" points="222.258,-211.753 222.258,-230.304 174.658,-243.421 107.342,-243.421 59.742,-230.304 59.742,-211.753 107.342,-198.635 174.658,-198.635 222.258,-211.753"/>
<text text-anchor="middle" x="141" y="-217.328" font-family="Times,serif" font-size="14.00">compare</text>
</g>
<!-- 224 -->
<g id="node2" class="node"><title>224</title>
<polygon fill="khaki" stroke="black" stroke-dasharray="1,5" points="261.858,-95.6615 261.858,-123.691 191.061,-143.51 90.9389,-143.51 20.1417,-123.691 20.1417,-95.6615 90.9389,-75.8418 191.061,-75.8418 261.858,-95.6615"/>
<polygon fill="none" stroke="black" stroke-dasharray="1,5" points="265.856,-92.609 265.856,-126.743 191.607,-147.529 90.3926,-147.529 16.144,-126.743 16.144,-92.609 90.3926,-71.823 191.607,-71.823 265.856,-92.609"/>
<text text-anchor="middle" x="141" y="-113.476" font-family="Times,serif" font-size="14.00">Unknown Module</text>
<text text-anchor="middle" x="141" y="-98.4761" font-family="Times,serif" font-size="14.00">compare</text>
</g>
<!-- 107&#45;&gt;224 -->
<g id="edge1" class="edge"><title>107&#45;&gt;224</title>
<path fill="none" stroke="black" d="M135.519,-198.685C134.49,-186.981 134.087,-171.982 134.309,-157.695"/>
<polygon fill="black" stroke="black" points="137.814,-157.565 134.581,-147.475 130.816,-157.378 137.814,-157.565"/>
</g>
<!-- 224&#45;&gt;107 -->
<g id="edge4" class="edge"><title>224&#45;&gt;107</title>
<path fill="none" stroke="navy" d="M147.419,-147.475C148.072,-164.507 147.759,-184.14 146.481,-198.685"/>
</g>
<!-- 182 -->
<g id="node3" class="node"><title>182</title>
<polygon fill="bisque" stroke="black" stroke-width="2" points="456.674,-100.401 456.674,-118.952 417.617,-132.069 362.383,-132.069 323.326,-118.952 323.326,-100.401 362.383,-87.2831 417.617,-87.2831 456.674,-100.401"/>
<text text-anchor="middle" x="390" y="-105.976" font-family="Times,serif" font-size="14.00">show</text>
</g>
<!-- 178 -->
<g id="node5" class="node"><title>178</title>
<polygon fill="goldenrod" stroke="black" stroke-width="2" points="508.5,-36 365.5,-36 365.5,-0 508.5,-0 508.5,-36"/>
<text text-anchor="middle" x="437" y="-14.3" font-family="Times,serif" font-size="14.00">renderProxyUri</text>
</g>
<!-- 182&#45;&gt;178 -->
<g id="edge3" class="edge"><title>182&#45;&gt;178</title>
<path fill="none" stroke="black" d="M401.138,-87.4241C407.735,-74.8374 416.149,-58.7842 423.168,-45.3908"/>
<polygon fill="black" stroke="black" points="426.445,-46.678 427.987,-36.196 420.245,-43.4284 426.445,-46.678"/>
</g>
<!-- 228 -->
<g id="node4" class="node"><title>228</title>
<polygon fill="khaki" stroke="black" stroke-dasharray="1,5" points="535.858,-207.014 535.858,-235.043 465.061,-254.863 364.939,-254.863 294.142,-235.043 294.142,-207.014 364.939,-187.194 465.061,-187.194 535.858,-207.014"/>
<polygon fill="none" stroke="black" stroke-dasharray="1,5" points="539.856,-203.961 539.856,-238.096 465.607,-258.882 364.393,-258.882 290.144,-238.096 290.144,-203.961 364.393,-183.175 465.607,-183.175 539.856,-203.961"/>
<text text-anchor="middle" x="415" y="-224.828" font-family="Times,serif" font-size="14.00">Unknown Module</text>
<text text-anchor="middle" x="415" y="-209.828" font-family="Times,serif" font-size="14.00">show</text>
</g>
<!-- 228&#45;&gt;182 -->
<g id="edge5" class="edge"><title>228&#45;&gt;182</title>
<path fill="none" stroke="navy" d="M406.606,-183.311C402.719,-166.311 398.237,-146.704 394.909,-132.149"/>
</g>
<!-- 178&#45;&gt;228 -->
<g id="edge2" class="edge"><title>178&#45;&gt;228</title>
<path fill="none" stroke="black" d="M453.223,-36.4128C459.433,-44.2336 465.792,-53.9546 469,-64 482.366,-105.861 485.238,-122.039 469,-162.872 467.338,-167.052 465.209,-171.103 462.76,-174.989"/>
<polygon fill="black" stroke="black" points="459.858,-173.031 456.948,-183.218 465.576,-177.069 459.858,-173.031"/>
</g>
</g>
</svg>
