<?xml version="1.0" encoding="UTF-8" standalone="no"?>
<!DOCTYPE svg PUBLIC "-//W3C//DTD SVG 1.1//EN"
 "http://www.w3.org/Graphics/SVG/1.1/DTD/svg11.dtd">
<!-- Generated by graphviz version 2.38.0 (20140413.2041)
 -->
<!-- Title: Diagram of: Thentos.Backend.Api.Docs.Proxy Pages: 1 -->
<svg width="568pt" height="265pt"
 viewBox="0.00 0.00 568.00 265.22" xmlns="http://www.w3.org/2000/svg" xmlns:xlink="http://www.w3.org/1999/xlink">
<g id="graph0" class="graph" transform="scale(1 1) rotate(0) translate(4 261.224)">
<title>Diagram of: Thentos.Backend.Api.Docs.Proxy</title>
<polygon fill="white" stroke="none" points="-4,4 -4,-261.224 564,-261.224 564,4 -4,4"/>
<g id="clust1" class="cluster"><title>cluster_Class_HasDocs</title>
<path fill="#ffc1c1" stroke="black" d="M20,-8C20,-8 266,-8 266,-8 272,-8 278,-14 278,-20 278,-20 278,-237.224 278,-237.224 278,-243.224 272,-249.224 266,-249.224 266,-249.224 20,-249.224 20,-249.224 14,-249.224 8,-243.224 8,-237.224 8,-237.224 8,-20 8,-20 8,-14 14,-8 20,-8"/>
<text text-anchor="middle" x="143" y="-234.024" font-family="Times,serif" font-size="14.00">Class: HasDocs</text>
</g>
<g id="clust2" class="cluster"><title>cluster_Class_HasDocs_Data_sublayoutServiceProxy</title>
<path fill="#c6e2ff" stroke="black" d="M28,-134.833C28,-134.833 258,-134.833 258,-134.833 264,-134.833 270,-140.833 270,-146.833 270,-146.833 270,-206.224 270,-206.224 270,-212.224 264,-218.224 258,-218.224 258,-218.224 28,-218.224 28,-218.224 22,-218.224 16,-212.224 16,-206.224 16,-206.224 16,-146.833 16,-146.833 16,-140.833 22,-134.833 28,-134.833"/>
<text text-anchor="middle" x="143" y="-203.024" font-family="Times,serif" font-size="14.00">Instance for: (sublayout :&lt;|&gt; ServiceProxy)</text>
</g>
<g id="clust3" class="cluster"><title>cluster_Class_HasForeign</title>
<path fill="#ffc1c1" stroke="black" d="M298,-15.4805C298,-15.4805 540,-15.4805 540,-15.4805 546,-15.4805 552,-21.4805 552,-27.4805 552,-27.4805 552,-221.705 552,-221.705 552,-227.705 546,-233.705 540,-233.705 540,-233.705 298,-233.705 298,-233.705 292,-233.705 286,-227.705 286,-221.705 286,-221.705 286,-27.4805 286,-27.4805 286,-21.4805 292,-15.4805 298,-15.4805"/>
<text text-anchor="middle" x="419" y="-218.505" font-family="Times,serif" font-size="14.00">Class: HasForeign</text>
</g>
<g id="clust4" class="cluster"><title>cluster_Class_HasForeign_Data_ServiceProxy</title>
<path fill="#c6e2ff" stroke="black" d="M334,-23.4805C334,-23.4805 504,-23.4805 504,-23.4805 510,-23.4805 516,-29.4805 516,-35.4805 516,-35.4805 516,-94.8718 516,-94.8718 516,-100.872 510,-106.872 504,-106.872 504,-106.872 334,-106.872 334,-106.872 328,-106.872 322,-100.872 322,-94.8718 322,-94.8718 322,-35.4805 322,-35.4805 322,-29.4805 328,-23.4805 334,-23.4805"/>
<text text-anchor="middle" x="419" y="-91.6718" font-family="Times,serif" font-size="14.00">Instance for: ServiceProxy</text>
</g>
<!-- 1 -->
<g id="node1" class="node"><title>1</title>
<polygon fill="bisque" stroke="black" stroke-width="2" points="221.135,-155.753 221.135,-174.304 175.365,-187.421 110.635,-187.421 64.8651,-174.304 64.8651,-155.753 110.635,-142.635 175.365,-142.635 221.135,-155.753"/>
<text text-anchor="middle" x="143" y="-161.328" font-family="Times,serif" font-size="14.00">docsFor</text>
</g>
<!-- 3 -->
<g id="node2" class="node"><title>3</title>
<polygon fill="khaki" stroke="black" stroke-dasharray="1,5" points="263.858,-39.6615 263.858,-67.6908 193.061,-87.5105 92.9389,-87.5105 22.1417,-67.6908 22.1417,-39.6615 92.9389,-19.8418 193.061,-19.8418 263.858,-39.6615"/>
<polygon fill="none" stroke="black" stroke-dasharray="1,5" points="267.856,-36.609 267.856,-70.7433 193.607,-91.5293 92.3926,-91.5293 18.144,-70.7433 18.144,-36.609 92.3926,-15.823 193.607,-15.823 267.856,-36.609"/>
<text text-anchor="middle" x="143" y="-57.4761" font-family="Times,serif" font-size="14.00">Unknown Module</text>
<text text-anchor="middle" x="143" y="-42.4761" font-family="Times,serif" font-size="14.00">docsFor</text>
</g>
<!-- 1&#45;&gt;3 -->
<g id="edge1" class="edge"><title>1&#45;&gt;3</title>
<path fill="none" stroke="chartreuse" d="M137.519,-142.685C136.49,-130.981 136.087,-115.982 136.309,-101.695"/>
<polygon fill="chartreuse" stroke="chartreuse" points="139.814,-101.565 136.581,-91.4752 132.816,-101.378 139.814,-101.565"/>
</g>
<!-- 3&#45;&gt;1 -->
<g id="edge2" class="edge"><title>3&#45;&gt;1</title>
<path fill="none" stroke="navy" d="M149.419,-91.4752C150.072,-108.507 149.759,-128.14 148.481,-142.685"/>
</g>
<!-- 2 -->
<g id="node3" class="node"><title>2</title>
<polygon fill="cyan" stroke="black" stroke-width="2" points="507.566,-44.4007 507.566,-62.9516 455.685,-76.0692 382.315,-76.0692 330.434,-62.9516 330.434,-44.4007 382.315,-31.2831 455.685,-31.2831 507.566,-44.4007"/>
<text text-anchor="middle" x="419" y="-49.9761" font-family="Times,serif" font-size="14.00">foreignFor</text>
</g>
<!-- 4 -->
<g id="node4" class="node"><title>4</title>
<polygon fill="khaki" stroke="black" stroke-dasharray="1,5" points="539.858,-151.014 539.858,-179.043 469.061,-198.863 368.939,-198.863 298.142,-179.043 298.142,-151.014 368.939,-131.194 469.061,-131.194 539.858,-151.014"/>
<polygon fill="none" stroke="black" stroke-dasharray="1,5" points="543.856,-147.961 543.856,-182.096 469.607,-202.882 368.393,-202.882 294.144,-182.096 294.144,-147.961 368.393,-127.175 469.607,-127.175 543.856,-147.961"/>
<text text-anchor="middle" x="419" y="-168.828" font-family="Times,serif" font-size="14.00">Unknown Module</text>
<text text-anchor="middle" x="419" y="-153.828" font-family="Times,serif" font-size="14.00">foreignFor</text>
</g>
<!-- 4&#45;&gt;2 -->
<g id="edge3" class="edge"><title>4&#45;&gt;2</title>
<path fill="none" stroke="navy" d="M419,-127.311C419,-110.311 419,-90.7038 419,-76.1491"/>
</g>
</g>
</svg>
