<?xml version="1.0" encoding="UTF-8" standalone="no"?>
<!DOCTYPE svg PUBLIC "-//W3C//DTD SVG 1.1//EN"
 "http://www.w3.org/Graphics/SVG/1.1/DTD/svg11.dtd">
<!-- Generated by graphviz version 2.38.0 (20140413.2041)
 -->
<!-- Title: Levels within Thentos.Transaction Pages: 1 -->
<svg width="5007pt" height="315pt"
 viewBox="0.00 0.00 5007.00 315.00" xmlns="http://www.w3.org/2000/svg" xmlns:xlink="http://www.w3.org/1999/xlink">
<g id="graph0" class="graph" transform="scale(1 1) rotate(0) translate(4 311)">
<title>Levels within Thentos.Transaction</title>
<polygon fill="white" stroke="none" points="-4,4 -4,-311 5003,-311 5003,4 -4,4"/>
<g id="clust1" class="cluster"><title>cluster_0</title>
<polygon fill="lavender" stroke="black" points="8,-8 8,-299 4991,-299 4991,-8 8,-8"/>
<text text-anchor="middle" x="2499.5" y="-283.8" font-family="Times,serif" font-size="14.00">Exported root entities</text>
</g>
<!-- 1 -->
<g id="node1" class="node"><title>1</title>
<polygon fill="gold" stroke="black" stroke-width="2" points="4982.5,-124 4861.5,-124 4861.5,-88 4982.5,-88 4982.5,-124"/>
<text text-anchor="middle" x="4922" y="-102.3" font-family="Times,serif" font-size="14.00">addContext</text>
</g>
<!-- 33 -->
<g id="node33" class="node"><title>33</title>
<polygon fill="goldenrod" stroke="black" stroke-width="2" points="2978,-52 2860,-52 2860,-16 2978,-16 2978,-52"/>
<text text-anchor="middle" x="2919" y="-30.3" font-family="Times,serif" font-size="14.00">impossible</text>
</g>
<!-- 1&#45;&gt;33 -->
<g id="edge1" class="edge"><title>1&#45;&gt;33</title>
<path fill="none" stroke="black" d="M4861.44,-89.4661C4858.26,-88.9094 4855.1,-88.4141 4852,-88 4481.01,-38.4296 3289.78,-35.003 2988.66,-34.9437"/>
<polygon fill="black" stroke="black" points="2988.33,-31.4438 2978.33,-34.943 2988.33,-38.4438 2988.33,-31.4438"/>
</g>
<!-- 2 -->
<g id="node2" class="node"><title>2</title>
<polygon fill="gold" stroke="black" stroke-width="2" points="4843,-124 4681,-124 4681,-88 4843,-88 4843,-124"/>
<text text-anchor="middle" x="4762" y="-102.3" font-family="Times,serif" font-size="14.00">addGroupToGroup</text>
</g>
<!-- 2&#45;&gt;33 -->
<g id="edge2" class="edge"><title>2&#45;&gt;33</title>
<path fill="none" stroke="black" d="M4680.65,-89.0437C4677.74,-88.6601 4674.85,-88.3098 4672,-88 4337.13,-51.5374 3271.55,-38.5119 2988.56,-35.6486"/>
<polygon fill="black" stroke="black" points="2988.47,-32.1475 2978.43,-35.547 2988.4,-39.1472 2988.47,-32.1475"/>
</g>
<!-- 3 -->
<g id="node3" class="node"><title>3</title>
<polygon fill="gold" stroke="black" stroke-width="2" points="4697,-196 4503,-196 4503,-160 4697,-160 4697,-196"/>
<text text-anchor="middle" x="4600" y="-174.3" font-family="Times,serif" font-size="14.00">addPasswordResetToken</text>
</g>
<!-- 35 -->
<g id="node35" class="node"><title>35</title>
<polygon fill="goldenrod" stroke="black" stroke-width="2" points="4663,-124 4469,-124 4469,-88 4663,-88 4663,-124"/>
<text text-anchor="middle" x="4566" y="-102.3" font-family="Times,serif" font-size="14.00">lookupAnyUserByEmail</text>
</g>
<!-- 3&#45;&gt;35 -->
<g id="edge3" class="edge"><title>3&#45;&gt;35</title>
<path fill="none" stroke="chartreuse" d="M4591.6,-159.697C4587.73,-151.728 4583.05,-142.1 4578.76,-133.264"/>
<polygon fill="chartreuse" stroke="chartreuse" points="4581.83,-131.57 4574.31,-124.104 4575.53,-134.629 4581.83,-131.57"/>
</g>
<!-- 4 -->
<g id="node4" class="node"><title>4</title>
<polygon fill="gold" stroke="black" stroke-width="2" points="4451.5,-124 4330.5,-124 4330.5,-88 4451.5,-88 4451.5,-124"/>
<text text-anchor="middle" x="4391" y="-102.3" font-family="Times,serif" font-size="14.00">addPersona</text>
</g>
<!-- 4&#45;&gt;33 -->
<g id="edge4" class="edge"><title>4&#45;&gt;33</title>
<path fill="none" stroke="black" d="M4330.18,-89.3021C4327.42,-88.8163 4324.69,-88.3778 4322,-88 4060.1,-51.1824 3234.06,-38.7 2988.5,-35.7517"/>
<polygon fill="black" stroke="black" points="2988.32,-32.2494 2978.28,-35.6305 2988.24,-39.2489 2988.32,-32.2494"/>
</g>
<!-- 5 -->
<g id="node5" class="node"><title>5</title>
<polygon fill="gold" stroke="black" stroke-width="2" points="4983,-268 4813,-268 4813,-232 4983,-232 4983,-268"/>
<text text-anchor="middle" x="4898" y="-246.3" font-family="Times,serif" font-size="14.00">addPersonaToGroup</text>
</g>
<!-- 6 -->
<g id="node6" class="node"><title>6</title>
<polygon fill="gold" stroke="black" stroke-width="2" points="4794.5,-268 4675.5,-268 4675.5,-232 4794.5,-232 4794.5,-268"/>
<text text-anchor="middle" x="4735" y="-246.3" font-family="Times,serif" font-size="14.00">addService</text>
</g>
<!-- 7 -->
<g id="node7" class="node"><title>7</title>
<polygon fill="gold" stroke="black" stroke-width="2" points="4657,-268 4481,-268 4481,-232 4657,-232 4657,-268"/>
<text text-anchor="middle" x="4569" y="-246.3" font-family="Times,serif" font-size="14.00">addUnconfirmedUser</text>
</g>
<!-- 8 -->
<g id="node8" class="node"><title>8</title>
<polygon fill="goldenrod" stroke="black" stroke-width="2" points="4485.5,-196 4282.5,-196 4282.5,-160 4485.5,-160 4485.5,-196"/>
<text text-anchor="middle" x="4384" y="-174.3" font-family="Times,serif" font-size="14.00">addUnconfirmedUserPrim</text>
</g>
<!-- 7&#45;&gt;8 -->
<g id="edge5" class="edge"><title>7&#45;&gt;8</title>
<path fill="none" stroke="chartreuse" d="M4523.74,-231.876C4498,-222.137 4465.59,-209.872 4438.46,-199.608"/>
<polygon fill="chartreuse" stroke="chartreuse" points="4439.7,-196.334 4429.11,-196.068 4437.22,-202.881 4439.7,-196.334"/>
</g>
<!-- 11 -->
<g id="node11" class="node"><title>11</title>
<polygon fill="goldenrod" stroke="black" stroke-width="2" points="4312.5,-124 4181.5,-124 4181.5,-88 4312.5,-88 4312.5,-124"/>
<text text-anchor="middle" x="4247" y="-102.3" font-family="Times,serif" font-size="14.00">addUserPrim</text>
</g>
<!-- 8&#45;&gt;11 -->
<g id="edge6" class="edge"><title>8&#45;&gt;11</title>
<path fill="none" stroke="black" d="M4350.49,-159.876C4332.16,-150.512 4309.26,-138.814 4289.67,-128.803"/>
<polygon fill="black" stroke="black" points="4291.14,-125.623 4280.64,-124.19 4287.96,-131.857 4291.14,-125.623"/>
</g>
<!-- 9 -->
<g id="node9" class="node"><title>9</title>
<polygon fill="gold" stroke="black" stroke-width="2" points="4264,-196 4160,-196 4160,-160 4264,-160 4264,-196"/>
<text text-anchor="middle" x="4212" y="-174.3" font-family="Times,serif" font-size="14.00">addUser</text>
</g>
<!-- 9&#45;&gt;11 -->
<g id="edge7" class="edge"><title>9&#45;&gt;11</title>
<path fill="none" stroke="black" d="M4220.65,-159.697C4224.64,-151.728 4229.45,-142.1 4233.87,-133.264"/>
<polygon fill="black" stroke="black" points="4237.11,-134.614 4238.45,-124.104 4230.85,-131.483 4237.11,-134.614"/>
</g>
<!-- 10 -->
<g id="node10" class="node"><title>10</title>
<polygon fill="gold" stroke="black" stroke-width="2" points="4463.5,-268 4242.5,-268 4242.5,-232 4463.5,-232 4463.5,-268"/>
<text text-anchor="middle" x="4353" y="-246.3" font-family="Times,serif" font-size="14.00">addUserEmailChangeRequest</text>
</g>
<!-- 11&#45;&gt;33 -->
<g id="edge8" class="edge"><title>11&#45;&gt;33</title>
<path fill="none" stroke="black" stroke-width="1.69315" d="M4181.35,-89.2595C4178.53,-88.7935 4175.74,-88.3699 4173,-88 3941.18,-56.7427 3216.17,-40.636 2988.28,-36.2526"/>
<polygon fill="black" stroke="black" stroke-width="1.69315" points="2988.19,-32.7504 2978.13,-36.0588 2988.06,-39.7491 2988.19,-32.7504"/>
</g>
<!-- 12 -->
<g id="node12" class="node"><title>12</title>
<polygon fill="gold" stroke="black" stroke-width="2" points="4224.5,-268 4105.5,-268 4105.5,-232 4224.5,-232 4224.5,-268"/>
<text text-anchor="middle" x="4165" y="-246.3" font-family="Times,serif" font-size="14.00">agentRoles</text>
</g>
<!-- 13 -->
<g id="node13" class="node"><title>13</title>
<polygon fill="gold" stroke="black" stroke-width="2" points="4087.5,-268 3958.5,-268 3958.5,-232 4087.5,-232 4087.5,-268"/>
<text text-anchor="middle" x="4023" y="-246.3" font-family="Times,serif" font-size="14.00">allServiceIds</text>
</g>
<!-- 14 -->
<g id="node14" class="node"><title>14</title>
<polygon fill="gold" stroke="black" stroke-width="2" points="3940,-268 3822,-268 3822,-232 3940,-232 3940,-268"/>
<text text-anchor="middle" x="3881" y="-246.3" font-family="Times,serif" font-size="14.00">assignRole</text>
</g>
<!-- 15 -->
<g id="node15" class="node"><title>15</title>
<polygon fill="gold" stroke="black" stroke-width="2" points="4163.5,-124 4014.5,-124 4014.5,-88 4163.5,-88 4163.5,-124"/>
<text text-anchor="middle" x="4089" y="-102.3" font-family="Times,serif" font-size="14.00">changePassword</text>
</g>
<!-- 15&#45;&gt;33 -->
<g id="edge9" class="edge"><title>15&#45;&gt;33</title>
<path fill="none" stroke="black" d="M4014.44,-89.3031C4011.26,-88.8252 4008.1,-88.3872 4005,-88 3623.19,-40.3248 3160.89,-34.9694 2988.34,-34.7665"/>
<polygon fill="black" stroke="black" points="2988.13,-31.2664 2978.13,-34.7601 2988.13,-38.2664 2988.13,-31.2664"/>
</g>
<!-- 16 -->
<g id="node16" class="node"><title>16</title>
<polygon fill="gold" stroke="black" stroke-width="2" points="3996,-124 3794,-124 3794,-88 3996,-88 3996,-124"/>
<text text-anchor="middle" x="3895" y="-102.3" font-family="Times,serif" font-size="14.00">confirmUserEmailChange</text>
</g>
<!-- 16&#45;&gt;33 -->
<g id="edge10" class="edge"><title>16&#45;&gt;33</title>
<path fill="none" stroke="black" d="M3793.75,-88.993C3790.8,-88.6424 3787.88,-88.3102 3785,-88 3489.75,-56.219 3135.67,-41.9554 2988.46,-37.0766"/>
<polygon fill="black" stroke="black" points="2988.33,-33.5706 2978.22,-36.7414 2988.1,-40.5669 2988.33,-33.5706"/>
</g>
<!-- 17 -->
<g id="node17" class="node"><title>17</title>
<polygon fill="gold" stroke="black" stroke-width="2" points="3803.5,-268 3640.5,-268 3640.5,-232 3803.5,-232 3803.5,-268"/>
<text text-anchor="middle" x="3722" y="-246.3" font-family="Times,serif" font-size="14.00">contextsForService</text>
</g>
<!-- 18 -->
<g id="node18" class="node"><title>18</title>
<polygon fill="gold" stroke="black" stroke-width="2" points="3776,-124 3642,-124 3642,-88 3776,-88 3776,-124"/>
<text text-anchor="middle" x="3709" y="-102.3" font-family="Times,serif" font-size="14.00">deleteContext</text>
</g>
<!-- 18&#45;&gt;33 -->
<g id="edge11" class="edge"><title>18&#45;&gt;33</title>
<path fill="none" stroke="black" d="M3641.96,-89.4477C3638.94,-88.9224 3635.94,-88.4359 3633,-88 3398.06,-53.194 3116.07,-40.8195 2988.14,-36.7816"/>
<polygon fill="black" stroke="black" points="2988.2,-33.2817 2978.09,-36.4716 2987.98,-40.2783 2988.2,-33.2817"/>
</g>
<!-- 19 -->
<g id="node19" class="node"><title>19</title>
<polygon fill="gold" stroke="black" stroke-width="2" points="3624,-124 3490,-124 3490,-88 3624,-88 3624,-124"/>
<text text-anchor="middle" x="3557" y="-102.3" font-family="Times,serif" font-size="14.00">deletePersona</text>
</g>
<!-- 19&#45;&gt;33 -->
<g id="edge12" class="edge"><title>19&#45;&gt;33</title>
<path fill="none" stroke="black" d="M3489.95,-89.5211C3486.93,-88.976 3483.94,-88.4652 3481,-88 3304.89,-60.1128 3095.23,-45.0943 2988.67,-38.7387"/>
<polygon fill="black" stroke="black" points="2988.56,-35.2263 2978.37,-38.1324 2988.15,-42.2142 2988.56,-35.2263"/>
</g>
<!-- 20 -->
<g id="node20" class="node"><title>20</title>
<polygon fill="gold" stroke="black" stroke-width="2" points="3471.5,-124 3340.5,-124 3340.5,-88 3471.5,-88 3471.5,-124"/>
<text text-anchor="middle" x="3406" y="-102.3" font-family="Times,serif" font-size="14.00">deleteService</text>
</g>
<!-- 20&#45;&gt;33 -->
<g id="edge13" class="edge"><title>20&#45;&gt;33</title>
<path fill="none" stroke="black" d="M3340.22,-89.7188C3337.11,-89.1127 3334.02,-88.5359 3331,-88 3211.2,-66.7658 3070.36,-50.5004 2988.25,-41.8772"/>
<polygon fill="black" stroke="black" points="2988.59,-38.3945 2978.28,-40.8383 2987.87,-45.3567 2988.59,-38.3945"/>
</g>
<!-- 21 -->
<g id="node21" class="node"><title>21</title>
<polygon fill="gold" stroke="black" stroke-width="2" points="3322,-124 3206,-124 3206,-88 3322,-88 3322,-124"/>
<text text-anchor="middle" x="3264" y="-102.3" font-family="Times,serif" font-size="14.00">deleteUser</text>
</g>
<!-- 21&#45;&gt;33 -->
<g id="edge14" class="edge"><title>21&#45;&gt;33</title>
<path fill="none" stroke="black" d="M3205.95,-90.0428C3202.92,-89.3354 3199.93,-88.6501 3197,-88 3126.07,-72.2556 3044.33,-57.0165 2987.93,-46.952"/>
<polygon fill="black" stroke="black" points="2988.51,-43.5006 2978.05,-45.1961 2987.29,-50.3925 2988.51,-43.5006"/>
</g>
<!-- 22 -->
<g id="node22" class="node"><title>22</title>
<polygon fill="gold" stroke="black" stroke-width="2" points="3188,-124 3028,-124 3028,-88 3188,-88 3188,-124"/>
<text text-anchor="middle" x="3108" y="-102.3" font-family="Times,serif" font-size="14.00">endServiceSession</text>
</g>
<!-- 22&#45;&gt;33 -->
<g id="edge15" class="edge"><title>22&#45;&gt;33</title>
<path fill="none" stroke="black" d="M3061.77,-87.8761C3035.47,-78.1365 3002.36,-65.8725 2974.64,-55.6081"/>
<polygon fill="black" stroke="black" points="2975.68,-52.2594 2965.08,-52.0683 2973.25,-58.8236 2975.68,-52.2594"/>
</g>
<!-- 23 -->
<g id="node23" class="node"><title>23</title>
<polygon fill="gold" stroke="black" stroke-width="2" points="3622.5,-268 3459.5,-268 3459.5,-232 3622.5,-232 3622.5,-268"/>
<text text-anchor="middle" x="3541" y="-246.3" font-family="Times,serif" font-size="14.00">endThentosSession</text>
</g>
<!-- 24 -->
<g id="node24" class="node"><title>24</title>
<polygon fill="goldenrod" stroke="black" stroke-width="2" points="1315,-124 1181,-124 1181,-88 1315,-88 1315,-124"/>
<text text-anchor="middle" x="1248" y="-102.3" font-family="Times,serif" font-size="14.00">findContextId</text>
</g>
<!-- 24&#45;&gt;33 -->
<g id="edge16" class="edge"><title>24&#45;&gt;33</title>
<path fill="none" stroke="black" d="M1315.06,-89.4316C1318.41,-88.8934 1321.74,-88.4105 1325,-88 1626.6,-50.0216 2583.42,-38.2022 2849.66,-35.6072"/>
<polygon fill="black" stroke="black" points="2849.99,-39.1043 2859.96,-35.5081 2849.92,-32.1046 2849.99,-39.1043"/>
</g>
<!-- 25 -->
<g id="node25" class="node"><title>25</title>
<polygon fill="gold" stroke="black" stroke-width="2" points="3441.5,-268 3318.5,-268 3318.5,-232 3441.5,-232 3441.5,-268"/>
<text text-anchor="middle" x="3380" y="-246.3" font-family="Times,serif" font-size="14.00">findPersona</text>
</g>
<!-- 26 -->
<g id="node26" class="node"><title>26</title>
<polygon fill="gold" stroke="black" stroke-width="2" points="3009.5,-124 2828.5,-124 2828.5,-88 3009.5,-88 3009.5,-124"/>
<text text-anchor="middle" x="2919" y="-102.3" font-family="Times,serif" font-size="14.00">finishUserRegistration</text>
</g>
<!-- 26&#45;&gt;33 -->
<g id="edge17" class="edge"><title>26&#45;&gt;33</title>
<path fill="none" stroke="black" d="M2919,-87.6966C2919,-79.9827 2919,-70.7125 2919,-62.1124"/>
<polygon fill="black" stroke="black" points="2922.5,-62.1043 2919,-52.1043 2915.5,-62.1044 2922.5,-62.1043"/>
</g>
<!-- 27 -->
<g id="node27" class="node"><title>27</title>
<polygon fill="gold" stroke="black" stroke-width="2" points="3300,-268 3110,-268 3110,-232 3300,-232 3300,-268"/>
<text text-anchor="middle" x="3205" y="-246.3" font-family="Times,serif" font-size="14.00">garbageCollectCaptchas</text>
</g>
<!-- 28 -->
<g id="node28" class="node"><title>28</title>
<polygon fill="gold" stroke="black" stroke-width="2" points="3092,-268 2838,-268 2838,-232 3092,-232 3092,-268"/>
<text text-anchor="middle" x="2965" y="-246.3" font-family="Times,serif" font-size="14.00">garbageCollectEmailChangeTokens</text>
</g>
<!-- 29 -->
<g id="node29" class="node"><title>29</title>
<polygon fill="gold" stroke="black" stroke-width="2" points="2820,-268 2558,-268 2558,-232 2820,-232 2820,-268"/>
<text text-anchor="middle" x="2689" y="-246.3" font-family="Times,serif" font-size="14.00">garbageCollectPasswordResetTokens</text>
</g>
<!-- 30 -->
<g id="node30" class="node"><title>30</title>
<polygon fill="gold" stroke="black" stroke-width="2" points="2539.5,-268 2312.5,-268 2312.5,-232 2539.5,-232 2539.5,-268"/>
<text text-anchor="middle" x="2426" y="-246.3" font-family="Times,serif" font-size="14.00">garbageCollectServiceSessions</text>
</g>
<!-- 31 -->
<g id="node31" class="node"><title>31</title>
<polygon fill="gold" stroke="black" stroke-width="2" points="2294,-268 2064,-268 2064,-232 2294,-232 2294,-268"/>
<text text-anchor="middle" x="2179" y="-246.3" font-family="Times,serif" font-size="14.00">garbageCollectThentosSessions</text>
</g>
<!-- 32 -->
<g id="node32" class="node"><title>32</title>
<polygon fill="gold" stroke="black" stroke-width="2" points="2046,-268 1802,-268 1802,-232 2046,-232 2046,-268"/>
<text text-anchor="middle" x="1924" y="-246.3" font-family="Times,serif" font-size="14.00">garbageCollectUnconfirmedUsers</text>
</g>
<!-- 34 -->
<g id="node34" class="node"><title>34</title>
<polygon fill="gold" stroke="black" stroke-width="2" points="2810.5,-124 2665.5,-124 2665.5,-88 2810.5,-88 2810.5,-124"/>
<text text-anchor="middle" x="2738" y="-102.3" font-family="Times,serif" font-size="14.00">lookupAnyUser</text>
</g>
<!-- 34&#45;&gt;33 -->
<g id="edge18" class="edge"><title>34&#45;&gt;33</title>
<path fill="none" stroke="black" d="M2782.28,-87.8761C2807.35,-78.1791 2838.9,-65.9795 2865.37,-55.7427"/>
<polygon fill="black" stroke="black" points="2866.8,-58.9398 2874.87,-52.0683 2864.28,-52.411 2866.8,-58.9398"/>
</g>
<!-- 35&#45;&gt;33 -->
<g id="edge19" class="edge"><title>35&#45;&gt;33</title>
<path fill="none" stroke="black" d="M4468.81,-88.8212C4466.18,-88.5263 4463.57,-88.2515 4461,-88 4169.14,-59.4728 3248.56,-40.9736 2988.21,-36.2165"/>
<polygon fill="black" stroke="black" points="2988.19,-32.7157 2978.13,-36.0332 2988.06,-39.7145 2988.19,-32.7157"/>
</g>
<!-- 36 -->
<g id="node36" class="node"><title>36</title>
<polygon fill="goldenrod" stroke="black" stroke-width="2" points="1152.5,-124 971.5,-124 971.5,-88 1152.5,-88 1152.5,-124"/>
<text text-anchor="middle" x="1062" y="-102.3" font-family="Times,serif" font-size="14.00">lookupConfirmedUser</text>
</g>
<!-- 36&#45;&gt;33 -->
<g id="edge20" class="edge"><title>36&#45;&gt;33</title>
<path fill="none" stroke="black" d="M1152.53,-90.1058C1159.11,-89.3013 1165.65,-88.5848 1172,-88 1506.29,-57.2156 2567.8,-40.0528 2849.71,-35.9622"/>
<polygon fill="black" stroke="black" points="2849.85,-39.4606 2859.8,-35.8165 2849.75,-32.4613 2849.85,-39.4606"/>
</g>
<!-- 37 -->
<g id="node37" class="node"><title>37</title>
<polygon fill="gold" stroke="black" stroke-width="2" points="2647,-124 2417,-124 2417,-88 2647,-88 2647,-124"/>
<text text-anchor="middle" x="2532" y="-102.3" font-family="Times,serif" font-size="14.00">lookupConfirmedUserByEmail</text>
</g>
<!-- 37&#45;&gt;33 -->
<g id="edge21" class="edge"><title>37&#45;&gt;33</title>
<path fill="none" stroke="black" d="M2626.18,-87.9656C2695.16,-75.4875 2787.26,-58.8297 2849.61,-47.5517"/>
<polygon fill="black" stroke="black" points="2850.52,-50.9439 2859.73,-45.7198 2849.27,-44.0557 2850.52,-50.9439"/>
</g>
<!-- 38 -->
<g id="node38" class="node"><title>38</title>
<polygon fill="gold" stroke="black" stroke-width="2" points="2399,-124 2169,-124 2169,-88 2399,-88 2399,-124"/>
<text text-anchor="middle" x="2284" y="-102.3" font-family="Times,serif" font-size="14.00">lookupConfirmedUserByName</text>
</g>
<!-- 38&#45;&gt;33 -->
<g id="edge22" class="edge"><title>38&#45;&gt;33</title>
<path fill="none" stroke="black" d="M2399.16,-89.0806C2402.14,-88.7115 2405.09,-88.3506 2408,-88 2565.79,-69.0056 2751.5,-50.7749 2849.81,-41.4477"/>
<polygon fill="black" stroke="black" points="2850.29,-44.9182 2859.92,-40.4913 2849.63,-37.9493 2850.29,-44.9182"/>
</g>
<!-- 39 -->
<g id="node39" class="node"><title>39</title>
<polygon fill="gold" stroke="black" stroke-width="2" points="2150.5,-124 2013.5,-124 2013.5,-88 2150.5,-88 2150.5,-124"/>
<text text-anchor="middle" x="2082" y="-102.3" font-family="Times,serif" font-size="14.00">lookupService</text>
</g>
<!-- 39&#45;&gt;33 -->
<g id="edge23" class="edge"><title>39&#45;&gt;33</title>
<path fill="none" stroke="black" d="M2150.81,-89.4379C2153.91,-88.9153 2156.98,-88.432 2160,-88 2412.33,-51.8867 2715.52,-40.1024 2849.52,-36.4889"/>
<polygon fill="black" stroke="black" points="2849.74,-39.9844 2859.64,-36.2228 2849.55,-32.9868 2849.74,-39.9844"/>
</g>
<!-- 40 -->
<g id="node40" class="node"><title>40</title>
<polygon fill="gold" stroke="black" stroke-width="2" points="1995,-124 1817,-124 1817,-88 1995,-88 1995,-124"/>
<text text-anchor="middle" x="1906" y="-102.3" font-family="Times,serif" font-size="14.00">lookupServiceSession</text>
</g>
<!-- 40&#45;&gt;33 -->
<g id="edge24" class="edge"><title>40&#45;&gt;33</title>
<path fill="none" stroke="black" d="M1995.25,-89.201C1998.54,-88.7697 2001.79,-88.367 2005,-88 2319.14,-52.0352 2696.97,-39.9613 2849.82,-36.3655"/>
<polygon fill="black" stroke="black" points="2850.08,-39.8605 2859.99,-36.1308 2849.91,-32.8624 2850.08,-39.8605"/>
</g>
<!-- 41 -->
<g id="node41" class="node"><title>41</title>
<polygon fill="gold" stroke="black" stroke-width="2" points="1850.5,-196 1669.5,-196 1669.5,-160 1850.5,-160 1850.5,-196"/>
<text text-anchor="middle" x="1760" y="-174.3" font-family="Times,serif" font-size="14.00">lookupThentosSession</text>
</g>
<!-- 41&#45;&gt;33 -->
<g id="edge25" class="edge"><title>41&#45;&gt;33</title>
<path fill="none" stroke="black" d="M1769.05,-159.968C1782.72,-134.28 1807.15,-88.5378 1808,-88 1852.13,-60.2154 2612.99,-41.5808 2849.46,-36.4401"/>
<polygon fill="black" stroke="black" points="2849.73,-39.9351 2859.66,-36.2198 2849.58,-32.9368 2849.73,-39.9351"/>
</g>
<!-- 42 -->
<g id="node42" class="node"><title>42</title>
<polygon fill="goldenrod" stroke="black" stroke-width="2" points="1779,-124 1657,-124 1657,-88 1779,-88 1779,-124"/>
<text text-anchor="middle" x="1718" y="-102.3" font-family="Times,serif" font-size="14.00">makeAgent</text>
</g>
<!-- 41&#45;&gt;42 -->
<g id="edge26" class="edge"><title>41&#45;&gt;42</title>
<path fill="none" stroke="black" d="M1749.62,-159.697C1744.74,-151.559 1738.81,-141.689 1733.42,-132.701"/>
<polygon fill="black" stroke="black" points="1736.41,-130.879 1728.26,-124.104 1730.41,-134.48 1736.41,-130.879"/>
</g>
<!-- 42&#45;&gt;33 -->
<g id="edge27" class="edge"><title>42&#45;&gt;33</title>
<path fill="none" stroke="black" d="M1779.23,-90.198C1783.88,-89.3592 1788.5,-88.6108 1793,-88 1998.82,-60.0506 2637.51,-42.0114 2849.68,-36.6643"/>
<polygon fill="black" stroke="black" points="2849.85,-40.1613 2859.76,-36.4118 2849.68,-33.1635 2849.85,-40.1613"/>
</g>
<!-- 43 -->
<g id="node43" class="node"><title>43</title>
<polygon fill="gold" stroke="black" stroke-width="2" points="1784,-268 1644,-268 1644,-232 1784,-232 1784,-268"/>
<text text-anchor="middle" x="1714" y="-246.3" font-family="Times,serif" font-size="14.00">personaGroups</text>
</g>
<!-- 44 -->
<g id="node44" class="node"><title>44</title>
<polygon fill="gold" stroke="black" stroke-width="2" points="1632,-196 1420,-196 1420,-160 1632,-160 1632,-196"/>
<text text-anchor="middle" x="1526" y="-174.3" font-family="Times,serif" font-size="14.00">registerPersonaWithContext</text>
</g>
<!-- 44&#45;&gt;24 -->
<g id="edge28" class="edge"><title>44&#45;&gt;24</title>
<path fill="none" stroke="black" d="M1458.35,-159.966C1418.18,-149.85 1367.09,-136.987 1325.33,-126.471"/>
<polygon fill="black" stroke="black" points="1326.02,-123.037 1315.47,-123.989 1324.31,-129.825 1326.02,-123.037"/>
</g>
<!-- 44&#45;&gt;33 -->
<g id="edge29" class="edge"><title>44&#45;&gt;33</title>
<path fill="none" stroke="black" d="M1572.07,-159.998C1591.03,-151.35 1612.19,-139.374 1628,-124 1641.12,-111.239 1632.42,-97.6088 1648,-88 1699.39,-56.3018 2590.73,-40.0804 2849.25,-36.0279"/>
<polygon fill="black" stroke="black" points="2849.69,-39.5217 2859.63,-35.8664 2849.58,-32.5225 2849.69,-39.5217"/>
</g>
<!-- 45 -->
<g id="node45" class="node"><title>45</title>
<polygon fill="gold" stroke="black" stroke-width="2" points="1625.5,-268 1432.5,-268 1432.5,-232 1625.5,-232 1625.5,-268"/>
<text text-anchor="middle" x="1529" y="-246.3" font-family="Times,serif" font-size="14.00">registerUserWithService</text>
</g>
<!-- 46 -->
<g id="node46" class="node"><title>46</title>
<polygon fill="gold" stroke="black" stroke-width="2" points="1414.5,-268 1215.5,-268 1215.5,-232 1414.5,-232 1414.5,-268"/>
<text text-anchor="middle" x="1315" y="-246.3" font-family="Times,serif" font-size="14.00">removeGroupFromGroup</text>
</g>
<!-- 47 -->
<g id="node47" class="node"><title>47</title>
<polygon fill="gold" stroke="black" stroke-width="2" points="1197.5,-268 990.5,-268 990.5,-232 1197.5,-232 1197.5,-268"/>
<text text-anchor="middle" x="1094" y="-246.3" font-family="Times,serif" font-size="14.00">removePersonaFromGroup</text>
</g>
<!-- 48 -->
<g id="node48" class="node"><title>48</title>
<polygon fill="gold" stroke="black" stroke-width="2" points="1619,-124 1483,-124 1483,-88 1619,-88 1619,-124"/>
<text text-anchor="middle" x="1551" y="-102.3" font-family="Times,serif" font-size="14.00">resetPassword</text>
</g>
<!-- 48&#45;&gt;33 -->
<g id="edge30" class="edge"><title>48&#45;&gt;33</title>
<path fill="none" stroke="black" d="M1619.32,-89.9669C1623.93,-89.2198 1628.53,-88.5521 1633,-88 1871.62,-58.5483 2617.76,-41.1607 2849.58,-36.3657"/>
<polygon fill="black" stroke="black" points="2849.97,-39.8584 2859.9,-36.1536 2849.83,-32.8599 2849.97,-39.8584"/>
</g>
<!-- 49 -->
<g id="node49" class="node"><title>49</title>
<polygon fill="gold" stroke="black" stroke-width="2" points="972,-268 722,-268 722,-232 972,-232 972,-268"/>
<text text-anchor="middle" x="847" y="-246.3" font-family="Times,serif" font-size="14.00">serviceNamesFromThentosSession</text>
</g>
<!-- 50 -->
<g id="node50" class="node"><title>50</title>
<polygon fill="gold" stroke="black" stroke-width="2" points="1464.5,-124 1333.5,-124 1333.5,-88 1464.5,-88 1464.5,-124"/>
<text text-anchor="middle" x="1399" y="-102.3" font-family="Times,serif" font-size="14.00">solveCaptcha</text>
</g>
<!-- 50&#45;&gt;33 -->
<g id="edge31" class="edge"><title>50&#45;&gt;33</title>
<path fill="none" stroke="black" d="M1464.73,-89.3746C1467.85,-88.8606 1470.96,-88.3974 1474,-88 1745,-52.6312 2600.3,-39.0869 2849.95,-35.8279"/>
<polygon fill="black" stroke="black" points="2850.03,-39.3273 2859.98,-35.6982 2849.94,-32.3279 2850.03,-39.3273"/>
</g>
<!-- 51 -->
<g id="node51" class="node"><title>51</title>
<polygon fill="gold" stroke="black" stroke-width="2" points="704,-268 540,-268 540,-232 704,-232 704,-268"/>
<text text-anchor="middle" x="622" y="-246.3" font-family="Times,serif" font-size="14.00">startServiceSession</text>
</g>
<!-- 52 -->
<g id="node52" class="node"><title>52</title>
<polygon fill="gold" stroke="black" stroke-width="2" points="1125.5,-196 958.5,-196 958.5,-160 1125.5,-160 1125.5,-196"/>
<text text-anchor="middle" x="1042" y="-174.3" font-family="Times,serif" font-size="14.00">startThentosSession</text>
</g>
<!-- 52&#45;&gt;36 -->
<g id="edge32" class="edge"><title>52&#45;&gt;36</title>
<path fill="none" stroke="chartreuse" d="M1046.94,-159.697C1049.17,-151.898 1051.85,-142.509 1054.33,-133.829"/>
<polygon fill="chartreuse" stroke="chartreuse" points="1057.73,-134.681 1057.11,-124.104 1051,-132.758 1057.73,-134.681"/>
</g>
<!-- 53 -->
<g id="node53" class="node"><title>53</title>
<polygon fill="gold" stroke="black" stroke-width="2" points="521.5,-268 392.5,-268 392.5,-232 521.5,-232 521.5,-268"/>
<text text-anchor="middle" x="457" y="-246.3" font-family="Times,serif" font-size="14.00">storeCaptcha</text>
</g>
<!-- 54 -->
<g id="node54" class="node"><title>54</title>
<polygon fill="gold" stroke="black" stroke-width="2" points="374.5,-268 243.5,-268 243.5,-232 374.5,-232 374.5,-268"/>
<text text-anchor="middle" x="309" y="-246.3" font-family="Times,serif" font-size="14.00">unassignRole</text>
</g>
<!-- 55 -->
<g id="node55" class="node"><title>55</title>
<polygon fill="gold" stroke="black" stroke-width="2" points="1372,-196 1144,-196 1144,-160 1372,-160 1372,-196"/>
<text text-anchor="middle" x="1258" y="-174.3" font-family="Times,serif" font-size="14.00">unregisterPersonaFromContext</text>
</g>
<!-- 55&#45;&gt;24 -->
<g id="edge33" class="edge"><title>55&#45;&gt;24</title>
<path fill="none" stroke="black" d="M1255.53,-159.697C1254.43,-151.983 1253.1,-142.712 1251.87,-134.112"/>
<polygon fill="black" stroke="black" points="1255.32,-133.509 1250.44,-124.104 1248.39,-134.499 1255.32,-133.509"/>
</g>
<!-- 56 -->
<g id="node56" class="node"><title>56</title>
<polygon fill="gold" stroke="black" stroke-width="2" points="225.5,-268 16.5,-268 16.5,-232 225.5,-232 225.5,-268"/>
<text text-anchor="middle" x="121" y="-246.3" font-family="Times,serif" font-size="14.00">unregisterUserFromService</text>
</g>
</g>
</svg>
