<?xml version="1.0" encoding="UTF-8" standalone="no"?>
<!DOCTYPE svg PUBLIC "-//W3C//DTD SVG 1.1//EN"
 "http://www.w3.org/Graphics/SVG/1.1/DTD/svg11.dtd">
<!-- Generated by graphviz version 2.38.0 (20140413.2041)
 -->
<!-- Title: Levels within Thentos.Backend.Api.Docs.Proxy Pages: 1 -->
<svg width="1010pt" height="230pt"
 viewBox="0.00 0.00 1010.00 229.74" xmlns="http://www.w3.org/2000/svg" xmlns:xlink="http://www.w3.org/1999/xlink">
<g id="graph0" class="graph" transform="scale(1 1) rotate(0) translate(4 225.744)">
<title>Levels within Thentos.Backend.Api.Docs.Proxy</title>
<polygon fill="white" stroke="none" points="-4,4 -4,-225.744 1006,-225.744 1006,4 -4,4"/>
<g id="clust1" class="cluster"><title>cluster_0</title>
<polygon fill="lavender" stroke="black" points="204,-99.3913 204,-213.744 738,-213.744 738,-99.3913 204,-99.3913"/>
<text text-anchor="middle" x="471" y="-198.544" font-family="Times,serif" font-size="14.00">Exported root entities</text>
</g>
<g id="clust2" class="cluster"><title>cluster_1</title>
<polygon fill="lavender" stroke="black" points="8,-8 8,-91.3913 994,-91.3913 994,-8 8,-8"/>
<text text-anchor="middle" x="501" y="-76.1913" font-family="Times,serif" font-size="14.00">Level = 1</text>
</g>
<!-- 3 -->
<g id="node1" class="node"><title>3</title>
<polygon fill="khaki" stroke="black" stroke-dasharray="1,5" points="725.858,-131.053 725.858,-159.082 655.061,-178.902 554.939,-178.902 484.142,-159.082 484.142,-131.053 554.939,-111.233 655.061,-111.233 725.858,-131.053"/>
<polygon fill="none" stroke="black" stroke-dasharray="1,5" points="729.856,-128 729.856,-162.135 655.607,-182.921 554.393,-182.921 480.144,-162.135 480.144,-128 554.393,-107.214 655.607,-107.214 729.856,-128"/>
<text text-anchor="middle" x="605" y="-148.867" font-family="Times,serif" font-size="14.00">Unknown Module</text>
<text text-anchor="middle" x="605" y="-133.867" font-family="Times,serif" font-size="14.00">Class: HasDocs</text>
</g>
<!-- 1 -->
<g id="node3" class="node"><title>1</title>
<polygon fill="bisque" stroke="black" stroke-width="2" points="985.757,-28.9201 985.757,-47.4711 828.909,-60.5887 607.091,-60.5887 450.243,-47.4711 450.243,-28.9201 607.091,-15.8026 828.909,-15.8026 985.757,-28.9201"/>
<text text-anchor="middle" x="718" y="-34.4956" font-family="Times,serif" font-size="14.00">Class: HasDocs, Data: (sublayout :&lt;|&gt; ServiceProxy)</text>
</g>
<!-- 3&#45;&gt;1 -->
<g id="edge2" class="edge"><title>3&#45;&gt;1</title>
<path fill="none" stroke="navy" d="M650.993,-107.388C668.494,-91.6767 687.358,-73.8844 700.685,-60.4141"/>
</g>
<!-- 4 -->
<g id="node2" class="node"><title>4</title>
<polygon fill="khaki" stroke="black" stroke-dasharray="1,5" points="457.858,-131.053 457.858,-159.082 387.061,-178.902 286.939,-178.902 216.142,-159.082 216.142,-131.053 286.939,-111.233 387.061,-111.233 457.858,-131.053"/>
<polygon fill="none" stroke="black" stroke-dasharray="1,5" points="461.856,-128 461.856,-162.135 387.607,-182.921 286.393,-182.921 212.144,-162.135 212.144,-128 286.393,-107.214 387.607,-107.214 461.856,-128"/>
<text text-anchor="middle" x="337" y="-148.867" font-family="Times,serif" font-size="14.00">Unknown Module</text>
<text text-anchor="middle" x="337" y="-133.867" font-family="Times,serif" font-size="14.00">Class: HasForeign</text>
</g>
<!-- 2 -->
<g id="node4" class="node"><title>2</title>
<polygon fill="cyan" stroke="black" stroke-width="2" points="432.36,-28.9201 432.36,-47.4711 310.305,-60.5887 137.695,-60.5887 15.6403,-47.4711 15.6403,-28.9201 137.695,-15.8026 310.305,-15.8026 432.36,-28.9201"/>
<text text-anchor="middle" x="224" y="-34.4956" font-family="Times,serif" font-size="14.00">Class: HasForeign, Data: ServiceProxy</text>
</g>
<!-- 4&#45;&gt;2 -->
<g id="edge3" class="edge"><title>4&#45;&gt;2</title>
<path fill="none" stroke="navy" d="M297.478,-107.388C280.549,-91.6767 261.377,-73.8844 246.863,-60.4141"/>
</g>
<!-- 1&#45;&gt;3 -->
<g id="edge1" class="edge"><title>1&#45;&gt;3</title>
<path fill="none" stroke="chartreuse" d="M689.589,-60.4141C676.218,-71.8849 660.108,-86.4898 645.519,-100.275"/>
<polygon fill="chartreuse" stroke="chartreuse" points="642.878,-97.9571 638.05,-107.388 647.705,-103.026 642.878,-97.9571"/>
</g>
</g>
</svg>
