<?xml version="1.0" encoding="UTF-8" standalone="no"?>
<!DOCTYPE svg PUBLIC "-//W3C//DTD SVG 1.1//EN"
 "http://www.w3.org/Graphics/SVG/1.1/DTD/svg11.dtd">
<!-- Generated by graphviz version 2.38.0 (20140413.2041)
 -->
<!-- Title: Diagram of: Thentos Pages: 1 -->
<svg width="747pt" height="188pt"
 viewBox="0.00 0.00 746.50 188.00" xmlns="http://www.w3.org/2000/svg" xmlns:xlink="http://www.w3.org/1999/xlink">
<g id="graph0" class="graph" transform="scale(1 1) rotate(0) translate(4 184)">
<title>Diagram of: Thentos</title>
<polygon fill="white" stroke="none" points="-4,4 -4,-184 742.5,-184 742.5,4 -4,4"/>
<!-- 1 -->
<g id="node1" class="node"><title>1</title>
<polygon fill="goldenrod" stroke="black" stroke-width="2" points="204,-36 1.42109e-14,-36 1.42109e-14,-0 204,-0 204,-36"/>
<text text-anchor="middle" x="102" y="-14.3" font-family="Times,serif" font-size="14.00">autocreateMissingServices</text>
</g>
<!-- 2 -->
<g id="node2" class="node"><title>2</title>
<polygon fill="goldenrod" stroke="black" stroke-width="2" points="424.5,-36 221.5,-36 221.5,-0 424.5,-0 424.5,-36"/>
<text text-anchor="middle" x="323" y="-14.3" font-family="Times,serif" font-size="14.00">createConnPoolAndInitDb</text>
</g>
<!-- 3 -->
<g id="node3" class="node"><title>3</title>
<polygon fill="goldenrod" stroke="black" stroke-width="2" points="599.5,-36 442.5,-36 442.5,-0 599.5,-0 599.5,-36"/>
<text text-anchor="middle" x="521" y="-14.3" font-family="Times,serif" font-size="14.00">createDefaultUser</text>
</g>
<!-- 4 -->
<g id="node4" class="node"><title>4</title>
<polygon fill="gold" stroke="black" stroke-width="2" points="465,-180 379,-180 379,-144 465,-144 465,-180"/>
<text text-anchor="middle" x="422" y="-158.3" font-family="Times,serif" font-size="14.00">main</text>
</g>
<!-- 5 -->
<g id="node5" class="node"><title>5</title>
<polygon fill="goldenrod" stroke="black" stroke-width="2" points="481,-108 363,-108 363,-72 481,-72 481,-108"/>
<text text-anchor="middle" x="422" y="-86.3" font-family="Times,serif" font-size="14.00">makeMain</text>
</g>
<!-- 4&#45;&gt;5 -->
<g id="edge1" class="edge"><title>4&#45;&gt;5</title>
<path fill="none" stroke="chartreuse" d="M422,-143.697C422,-135.983 422,-126.712 422,-118.112"/>
<polygon fill="chartreuse" stroke="chartreuse" points="425.5,-118.104 422,-108.104 418.5,-118.104 425.5,-118.104"/>
</g>
<!-- 5&#45;&gt;1 -->
<g id="edge2" class="edge"><title>5&#45;&gt;1</title>
<path fill="none" stroke="black" d="M362.934,-76.0793C314.397,-65.4618 244.913,-50.2623 189.85,-38.2173"/>
<polygon fill="black" stroke="black" points="190.262,-34.7246 179.745,-36.0067 188.766,-41.5629 190.262,-34.7246"/>
</g>
<!-- 5&#45;&gt;2 -->
<g id="edge3" class="edge"><title>5&#45;&gt;2</title>
<path fill="none" stroke="black" d="M397.782,-71.8761C385.077,-62.8931 369.336,-51.7625 355.577,-42.0341"/>
<polygon fill="black" stroke="black" points="357.497,-39.1053 347.311,-36.1898 353.456,-44.8209 357.497,-39.1053"/>
</g>
<!-- 5&#45;&gt;3 -->
<g id="edge4" class="edge"><title>5&#45;&gt;3</title>
<path fill="none" stroke="black" d="M446.218,-71.8761C458.923,-62.8931 474.664,-51.7625 488.423,-42.0341"/>
<polygon fill="black" stroke="black" points="490.544,-44.8209 496.689,-36.1898 486.503,-39.1053 490.544,-44.8209"/>
</g>
<!-- 6 -->
<g id="node6" class="node"><title>6</title>
<polygon fill="cyan" stroke="black" stroke-width="2" points="738.5,-36 617.5,-36 617.5,-0 738.5,-0 738.5,-36"/>
<text text-anchor="middle" x="678" y="-14.3" font-family="Times,serif" font-size="14.00">runGcLoop</text>
</g>
<!-- 5&#45;&gt;6 -->
<g id="edge5" class="edge"><title>5&#45;&gt;6</title>
<path fill="none" stroke="black" d="M481.053,-72.8527C518.76,-62.5422 567.845,-49.1205 607.579,-38.2558"/>
<polygon fill="black" stroke="black" points="608.744,-41.5658 617.466,-35.5521 606.897,-34.8137 608.744,-41.5658"/>
</g>
</g>
</svg>
