<?xml version="1.0" encoding="UTF-8" standalone="no"?>
<!DOCTYPE svg PUBLIC "-//W3C//DTD SVG 1.1//EN"
 "http://www.w3.org/Graphics/SVG/1.1/DTD/svg11.dtd">
<!-- Generated by graphviz version 2.38.0 (20140413.2041)
 -->
<!-- Title: Diagram of: Thentos.Config Pages: 1 -->
<svg width="2332pt" height="526pt"
 viewBox="0.00 0.00 2331.50 526.49" xmlns="http://www.w3.org/2000/svg" xmlns:xlink="http://www.w3.org/1999/xlink">
<g id="graph0" class="graph" transform="scale(1 1) rotate(0) translate(4 522.487)">
<title>Diagram of: Thentos.Config</title>
<polygon fill="white" stroke="none" points="-4,4 -4,-522.487 2327.5,-522.487 2327.5,4 -4,4"/>
<g id="clust1" class="cluster"><title>cluster_Class_FromJSON</title>
<path fill="#ffc1c1" stroke="black" d="M20,-304.744C20,-304.744 262,-304.744 262,-304.744 268,-304.744 274,-310.744 274,-316.744 274,-316.744 274,-498.487 274,-498.487 274,-504.487 268,-510.487 262,-510.487 262,-510.487 20,-510.487 20,-510.487 14,-510.487 8,-504.487 8,-498.487 8,-498.487 8,-316.744 8,-316.744 8,-310.744 14,-304.744 20,-304.744"/>
<text text-anchor="middle" x="141" y="-495.287" font-family="Times,serif" font-size="14.00">Class: FromJSON</text>
</g>
<g id="clust2" class="cluster"><title>cluster_Class_FromJSON_Data_HttpSchema</title>
<path fill="#c6e2ff" stroke="black" d="M54,-312.744C54,-312.744 228,-312.744 228,-312.744 234,-312.744 240,-318.744 240,-324.744 240,-324.744 240,-384.135 240,-384.135 240,-390.135 234,-396.135 228,-396.135 228,-396.135 54,-396.135 54,-396.135 48,-396.135 42,-390.135 42,-384.135 42,-384.135 42,-324.744 42,-324.744 42,-318.744 48,-312.744 54,-312.744"/>
<text text-anchor="middle" x="141" y="-380.935" font-family="Times,serif" font-size="14.00">Instance for: HttpSchema</text>
</g>
<g id="clust3" class="cluster"><title>cluster_Class_Show</title>
<path fill="#ffc1c1" stroke="black" d="M233,-91C233,-91 475,-91 475,-91 481,-91 487,-97 487,-103 487,-103 487,-284.744 487,-284.744 487,-290.744 481,-296.744 475,-296.744 475,-296.744 233,-296.744 233,-296.744 227,-296.744 221,-290.744 221,-284.744 221,-284.744 221,-103 221,-103 221,-97 227,-91 233,-91"/>
<text text-anchor="middle" x="354" y="-281.544" font-family="Times,serif" font-size="14.00">Class: Show</text>
</g>
<g id="clust4" class="cluster"><title>cluster_Class_Show_Data_HttpSchema</title>
<path fill="#c6e2ff" stroke="black" d="M311,-99C311,-99 443,-99 443,-99 449,-99 455,-105 455,-111 455,-111 455,-170.391 455,-170.391 455,-176.391 449,-182.391 443,-182.391 443,-182.391 311,-182.391 311,-182.391 305,-182.391 299,-176.391 299,-170.391 299,-170.391 299,-111 299,-111 299,-105 305,-99 311,-99"/>
<text text-anchor="middle" x="377" y="-167.191" font-family="Times,serif" font-size="14.00">Instance for: HttpSchema</text>
</g>
<g id="clust5" class="cluster"><title>cluster_Class_ToJSON</title>
<path fill="#ffc1c1" stroke="black" d="M568,-304.744C568,-304.744 810,-304.744 810,-304.744 816,-304.744 822,-310.744 822,-316.744 822,-316.744 822,-498.487 822,-498.487 822,-504.487 816,-510.487 810,-510.487 810,-510.487 568,-510.487 568,-510.487 562,-510.487 556,-504.487 556,-498.487 556,-498.487 556,-316.744 556,-316.744 556,-310.744 562,-304.744 568,-304.744"/>
<text text-anchor="middle" x="689" y="-495.287" font-family="Times,serif" font-size="14.00">Class: ToJSON</text>
</g>
<g id="clust6" class="cluster"><title>cluster_Class_ToJSON_Data_HttpSchema</title>
<path fill="#c6e2ff" stroke="black" d="M616,-312.744C616,-312.744 762,-312.744 762,-312.744 768,-312.744 774,-318.744 774,-324.744 774,-324.744 774,-384.135 774,-384.135 774,-390.135 768,-396.135 762,-396.135 762,-396.135 616,-396.135 616,-396.135 610,-396.135 604,-390.135 604,-384.135 604,-384.135 604,-324.744 604,-324.744 604,-318.744 610,-312.744 616,-312.744"/>
<text text-anchor="middle" x="689" y="-380.935" font-family="Times,serif" font-size="14.00">Instance for: HttpSchema</text>
</g>
<g id="clust7" class="cluster"><title>cluster_Data_HttpSchema</title>
<path fill="papayawhip" stroke="black" d="M337,-8C337,-8 519,-8 519,-8 525,-8 531,-14 531,-20 531,-20 531,-71 531,-71 531,-77 525,-83 519,-83 519,-83 337,-83 337,-83 331,-83 325,-77 325,-71 325,-71 325,-20 325,-20 325,-14 331,-8 337,-8"/>
<text text-anchor="middle" x="428" y="-67.8" font-family="Times,serif" font-size="14.00">Data: HttpSchema</text>
</g>
<!-- 20 -->
<g id="node1" class="node"><title>20</title>
<polygon fill="cyan" stroke="black" stroke-width="2" points="232.157,-333.664 232.157,-352.215 178.759,-365.332 103.241,-365.332 49.8426,-352.215 49.8426,-333.664 103.241,-320.546 178.759,-320.546 232.157,-333.664"/>
<text text-anchor="middle" x="141" y="-339.239" font-family="Times,serif" font-size="14.00">parseJSON</text>
</g>
<!-- 24 -->
<g id="node2" class="node"><title>24</title>
<polygon fill="khaki" stroke="black" stroke-dasharray="1,5" points="261.858,-427.796 261.858,-455.826 191.061,-475.645 90.9389,-475.645 20.1417,-455.826 20.1417,-427.796 90.9389,-407.977 191.061,-407.977 261.858,-427.796"/>
<polygon fill="none" stroke="black" stroke-dasharray="1,5" points="265.856,-424.744 265.856,-458.878 191.607,-479.664 90.3926,-479.664 16.144,-458.878 16.144,-424.744 90.3926,-403.958 191.607,-403.958 265.856,-424.744"/>
<text text-anchor="middle" x="141" y="-445.611" font-family="Times,serif" font-size="14.00">Unknown Module</text>
<text text-anchor="middle" x="141" y="-430.611" font-family="Times,serif" font-size="14.00">parseJSON</text>
</g>
<!-- 24&#45;&gt;20 -->
<g id="edge13" class="edge"><title>24&#45;&gt;20</title>
<path fill="none" stroke="navy" d="M141,-403.912C141,-390.865 141,-376.633 141,-365.309"/>
</g>
<!-- 22 -->
<g id="node3" class="node"><title>22</title>
<polygon fill="bisque" stroke="black" stroke-width="2" points="443.674,-119.92 443.674,-138.471 404.617,-151.589 349.383,-151.589 310.326,-138.471 310.326,-119.92 349.383,-106.803 404.617,-106.803 443.674,-119.92"/>
<text text-anchor="middle" x="377" y="-125.496" font-family="Times,serif" font-size="14.00">show</text>
</g>
<!-- 1 -->
<g id="node7" class="node"><title>1</title>
<polygon fill="goldenrod" stroke="black" stroke-width="2" points="522.5,-52 443.5,-52 439.5,-48 439.5,-16 518.5,-16 522.5,-20 522.5,-52"/>
<polyline fill="none" stroke="black" stroke-width="2" points="518.5,-48 439.5,-48 "/>
<polyline fill="none" stroke="black" stroke-width="2" points="518.5,-48 518.5,-16 "/>
<polyline fill="none" stroke="black" stroke-width="2" points="518.5,-48 522.5,-52 "/>
<text text-anchor="middle" x="481" y="-30.3" font-family="Times,serif" font-size="14.00">Http</text>
</g>
<!-- 22&#45;&gt;1 -->
<g id="edge11" class="edge"><title>22&#45;&gt;1</title>
<path fill="none" stroke="black" d="M402.56,-106.836C411.338,-99.3849 421.174,-90.9082 430,-83 438.51,-75.3755 447.644,-66.881 455.797,-59.1825"/>
<polygon fill="black" stroke="black" points="458.416,-61.5219 463.261,-52.0998 453.598,-56.444 458.416,-61.5219"/>
</g>
<!-- 2 -->
<g id="node8" class="node"><title>2</title>
<polygon fill="goldenrod" stroke="black" stroke-width="2" points="421,-52 337,-52 333,-48 333,-16 417,-16 421,-20 421,-52"/>
<polyline fill="none" stroke="black" stroke-width="2" points="417,-48 333,-48 "/>
<polyline fill="none" stroke="black" stroke-width="2" points="417,-48 417,-16 "/>
<polyline fill="none" stroke="black" stroke-width="2" points="417,-48 421,-52 "/>
<text text-anchor="middle" x="377" y="-30.3" font-family="Times,serif" font-size="14.00">Https</text>
</g>
<!-- 22&#45;&gt;2 -->
<g id="edge12" class="edge"><title>22&#45;&gt;2</title>
<path fill="none" stroke="black" d="M377,-106.58C377,-93.3829 377,-76.3895 377,-62.2722"/>
<polygon fill="black" stroke="black" points="380.5,-62.1478 377,-52.1478 373.5,-62.1478 380.5,-62.1478"/>
</g>
<!-- 25 -->
<g id="node4" class="node"><title>25</title>
<polygon fill="khaki" stroke="black" stroke-dasharray="1,5" points="474.858,-214.053 474.858,-242.082 404.061,-261.902 303.939,-261.902 233.142,-242.082 233.142,-214.053 303.939,-194.233 404.061,-194.233 474.858,-214.053"/>
<polygon fill="none" stroke="black" stroke-dasharray="1,5" points="478.856,-211 478.856,-245.135 404.607,-265.921 303.393,-265.921 229.144,-245.135 229.144,-211 303.393,-190.214 404.607,-190.214 478.856,-211"/>
<text text-anchor="middle" x="354" y="-231.867" font-family="Times,serif" font-size="14.00">Unknown Module</text>
<text text-anchor="middle" x="354" y="-216.867" font-family="Times,serif" font-size="14.00">show</text>
</g>
<!-- 25&#45;&gt;22 -->
<g id="edge14" class="edge"><title>25&#45;&gt;22</title>
<path fill="none" stroke="navy" stroke-width="1.69315" d="M362.761,-190.168C365.858,-177.122 369.238,-162.89 371.926,-151.565"/>
</g>
<!-- 23 -->
<g id="node5" class="node"><title>23</title>
<polygon fill="cyan" stroke="black" stroke-width="2" points="766.105,-333.664 766.105,-352.215 720.938,-365.332 657.062,-365.332 611.895,-352.215 611.895,-333.664 657.062,-320.546 720.938,-320.546 766.105,-333.664"/>
<text text-anchor="middle" x="689" y="-339.239" font-family="Times,serif" font-size="14.00">toJSON</text>
</g>
<!-- 26 -->
<g id="node6" class="node"><title>26</title>
<polygon fill="khaki" stroke="black" stroke-dasharray="1,5" points="809.858,-427.796 809.858,-455.826 739.061,-475.645 638.939,-475.645 568.142,-455.826 568.142,-427.796 638.939,-407.977 739.061,-407.977 809.858,-427.796"/>
<polygon fill="none" stroke="black" stroke-dasharray="1,5" points="813.856,-424.744 813.856,-458.878 739.607,-479.664 638.393,-479.664 564.144,-458.878 564.144,-424.744 638.393,-403.958 739.607,-403.958 813.856,-424.744"/>
<text text-anchor="middle" x="689" y="-445.611" font-family="Times,serif" font-size="14.00">Unknown Module</text>
<text text-anchor="middle" x="689" y="-430.611" font-family="Times,serif" font-size="14.00">toJSON</text>
</g>
<!-- 26&#45;&gt;23 -->
<g id="edge15" class="edge"><title>26&#45;&gt;23</title>
<path fill="none" stroke="navy" d="M689,-403.912C689,-390.865 689,-376.633 689,-365.309"/>
</g>
<!-- 3 -->
<g id="node9" class="node"><title>3</title>
<polygon fill="goldenrod" stroke="black" stroke-width="2" points="489,-360.939 371,-360.939 371,-324.939 489,-324.939 489,-360.939"/>
<text text-anchor="middle" x="430" y="-339.239" font-family="Times,serif" font-size="14.00">_renderUrl</text>
</g>
<!-- 3&#45;&gt;25 -->
<g id="edge2" class="edge"><title>3&#45;&gt;25</title>
<path fill="none" stroke="black" stroke-width="1.69315" d="M418.457,-324.796C409.464,-311.441 396.547,-292.257 384.634,-274.564"/>
<polygon fill="black" stroke="black" stroke-width="1.69315" points="387.377,-272.371 378.889,-266.031 381.571,-276.281 387.377,-272.371"/>
</g>
<!-- 3&#45;&gt;1 -->
<g id="edge1" class="edge"><title>3&#45;&gt;1</title>
<path fill="none" stroke="black" d="M464.387,-324.725C474.889,-317.607 485.19,-308.28 491,-296.744 530.149,-219.013 505.173,-111.214 490.071,-61.75"/>
<polygon fill="black" stroke="black" points="493.376,-60.5925 487.025,-52.1121 486.702,-62.702 493.376,-60.5925"/>
</g>
<!-- 4 -->
<g id="node10" class="node"><title>4</title>
<polygon fill="gold" stroke="black" stroke-width="2" points="384.5,-459.811 283.5,-459.811 283.5,-423.811 384.5,-423.811 384.5,-459.811"/>
<text text-anchor="middle" x="334" y="-438.111" font-family="Times,serif" font-size="14.00">bindUrl</text>
</g>
<!-- 4&#45;&gt;3 -->
<g id="edge3" class="edge"><title>4&#45;&gt;3</title>
<path fill="none" stroke="black" d="M351.163,-423.492C366.316,-408.202 388.579,-385.736 405.586,-368.575"/>
<polygon fill="black" stroke="black" points="408.433,-370.675 412.986,-361.108 403.461,-365.747 408.433,-370.675"/>
</g>
<!-- 5 -->
<g id="node11" class="node"><title>5</title>
<polygon fill="gold" stroke="black" stroke-width="2" points="996,-459.811 832,-459.811 832,-423.811 996,-423.811 996,-459.811"/>
<text text-anchor="middle" x="914" y="-438.111" font-family="Times,serif" font-size="14.00">buildEmailAddress</text>
</g>
<!-- 6 -->
<g id="node12" class="node"><title>6</title>
<polygon fill="gold" stroke="black" stroke-width="2" points="1146,-459.811 1014,-459.811 1014,-423.811 1146,-423.811 1146,-459.811"/>
<text text-anchor="middle" x="1080" y="-438.111" font-family="Times,serif" font-size="14.00">configLogger</text>
</g>
<!-- 7 -->
<g id="node13" class="node"><title>7</title>
<polygon fill="goldenrod" stroke="black" stroke-width="2" points="1343.5,-147.196 1098.5,-147.196 1098.5,-111.196 1343.5,-111.196 1343.5,-147.196"/>
<text text-anchor="middle" x="1221" y="-125.496" font-family="Times,serif" font-size="14.00">defaultAccountVerificationConfig</text>
</g>
<!-- 8 -->
<g id="node14" class="node"><title>8</title>
<polygon fill="goldenrod" stroke="black" stroke-width="2" points="1122.5,-246.067 939.5,-246.067 939.5,-210.067 1122.5,-210.067 1122.5,-246.067"/>
<text text-anchor="middle" x="1031" y="-224.367" font-family="Times,serif" font-size="14.00">defaultDatabaseConfig</text>
</g>
<!-- 9 -->
<g id="node15" class="node"><title>9</title>
<polygon fill="goldenrod" stroke="black" stroke-width="2" points="1301,-246.067 1141,-246.067 1141,-210.067 1301,-210.067 1301,-246.067"/>
<text text-anchor="middle" x="1221" y="-224.367" font-family="Times,serif" font-size="14.00">defaultMailConfig</text>
</g>
<!-- 9&#45;&gt;7 -->
<g id="edge4" class="edge"><title>9&#45;&gt;7</title>
<path fill="none" stroke="chartreuse" d="M1221,-209.749C1221,-195.284 1221,-174.4 1221,-157.659"/>
<polygon fill="chartreuse" stroke="chartreuse" points="1224.5,-157.364 1221,-147.364 1217.5,-157.364 1224.5,-157.364"/>
</g>
<!-- 10 -->
<g id="node16" class="node"><title>10</title>
<polygon fill="goldenrod" stroke="black" stroke-width="2" points="1482.5,-246.067 1319.5,-246.067 1319.5,-210.067 1482.5,-210.067 1482.5,-246.067"/>
<text text-anchor="middle" x="1401" y="-224.367" font-family="Times,serif" font-size="14.00">defaultSmtpConfig</text>
</g>
<!-- 11 -->
<g id="node17" class="node"><title>11</title>
<polygon fill="goldenrod" stroke="black" stroke-width="2" points="1309.5,-360.939 1132.5,-360.939 1132.5,-324.939 1309.5,-324.939 1309.5,-360.939"/>
<text text-anchor="middle" x="1221" y="-339.239" font-family="Times,serif" font-size="14.00">defaultThentosConfig</text>
</g>
<!-- 11&#45;&gt;8 -->
<g id="edge5" class="edge"><title>11&#45;&gt;8</title>
<path fill="none" stroke="black" d="M1184.96,-324.869C1168.56,-316.788 1149.04,-306.733 1132,-296.744 1108.36,-282.891 1082.73,-265.689 1063.21,-252.094"/>
<polygon fill="black" stroke="black" points="1065.16,-249.191 1054.96,-246.319 1061.14,-254.924 1065.16,-249.191"/>
</g>
<!-- 11&#45;&gt;9 -->
<g id="edge6" class="edge"><title>11&#45;&gt;9</title>
<path fill="none" stroke="black" d="M1221,-324.796C1221,-306.648 1221,-277.737 1221,-256.431"/>
<polygon fill="black" stroke="black" points="1224.5,-256.372 1221,-246.372 1217.5,-256.372 1224.5,-256.372"/>
</g>
<!-- 11&#45;&gt;10 -->
<g id="edge7" class="edge"><title>11&#45;&gt;10</title>
<path fill="none" stroke="black" d="M1258.14,-324.829C1274.4,-316.894 1293.5,-306.966 1310,-296.744 1331.57,-283.377 1354.5,-266.312 1371.94,-252.663"/>
<polygon fill="black" stroke="black" points="1374.35,-255.214 1380.03,-246.268 1370.01,-249.722 1374.35,-255.214"/>
</g>
<!-- 12 -->
<g id="node18" class="node"><title>12</title>
<polygon fill="gold" stroke="black" stroke-width="2" points="517,-459.811 403,-459.811 403,-423.811 517,-423.811 517,-459.811"/>
<text text-anchor="middle" x="460" y="-438.111" font-family="Times,serif" font-size="14.00">exposeUrl</text>
</g>
<!-- 12&#45;&gt;3 -->
<g id="edge8" class="edge"><title>12&#45;&gt;3</title>
<path fill="none" stroke="black" d="M454.637,-423.492C450.115,-408.89 443.566,-387.745 438.357,-370.925"/>
<polygon fill="black" stroke="black" points="441.619,-369.625 435.317,-361.108 434.932,-371.696 441.619,-369.625"/>
</g>
<!-- 13 -->
<g id="node19" class="node"><title>13</title>
<polygon fill="gold" stroke="black" stroke-width="2" points="1444.5,-459.811 1295.5,-459.811 1295.5,-423.811 1444.5,-423.811 1444.5,-459.811"/>
<text text-anchor="middle" x="1370" y="-438.111" font-family="Times,serif" font-size="14.00">extractTargetUrl</text>
</g>
<!-- 14 -->
<g id="node20" class="node"><title>14</title>
<polygon fill="gold" stroke="black" stroke-width="2" points="1623,-459.811 1463,-459.811 1463,-423.811 1623,-423.811 1623,-459.811"/>
<text text-anchor="middle" x="1543" y="-438.111" font-family="Times,serif" font-size="14.00">getBackendConfig</text>
</g>
<!-- 15 -->
<g id="node21" class="node"><title>15</title>
<polygon fill="gold" stroke="black" stroke-width="2" points="1277.5,-459.811 1164.5,-459.811 1164.5,-423.811 1277.5,-423.811 1277.5,-459.811"/>
<text text-anchor="middle" x="1221" y="-438.111" font-family="Times,serif" font-size="14.00">getConfig</text>
</g>
<!-- 15&#45;&gt;11 -->
<g id="edge9" class="edge"><title>15&#45;&gt;11</title>
<path fill="none" stroke="chartreuse" d="M1221,-423.492C1221,-409.028 1221,-388.144 1221,-371.402"/>
<polygon fill="chartreuse" stroke="chartreuse" points="1224.5,-371.108 1221,-361.108 1217.5,-371.108 1224.5,-371.108"/>
</g>
<!-- 16 -->
<g id="node22" class="node"><title>16</title>
<polygon fill="gold" stroke="black" stroke-width="2" points="1782.5,-459.811 1641.5,-459.811 1641.5,-423.811 1782.5,-423.811 1782.5,-459.811"/>
<text text-anchor="middle" x="1712" y="-438.111" font-family="Times,serif" font-size="14.00">getDefaultUser</text>
</g>
<!-- 19 -->
<g id="node25" class="node"><title>19</title>
<polygon fill="goldenrod" stroke="black" stroke-width="2" points="1775,-360.939 1649,-360.939 1649,-324.939 1775,-324.939 1775,-360.939"/>
<text text-anchor="middle" x="1712" y="-339.239" font-family="Times,serif" font-size="14.00">getUserData</text>
</g>
<!-- 16&#45;&gt;19 -->
<g id="edge10" class="edge"><title>16&#45;&gt;19</title>
<path fill="none" stroke="chartreuse" d="M1712,-423.492C1712,-409.028 1712,-388.144 1712,-371.402"/>
<polygon fill="chartreuse" stroke="chartreuse" points="1715.5,-371.108 1712,-361.108 1708.5,-371.108 1715.5,-371.108"/>
</g>
<!-- 17 -->
<g id="node23" class="node"><title>17</title>
<polygon fill="gold" stroke="black" stroke-width="2" points="1961.5,-459.811 1800.5,-459.811 1800.5,-423.811 1961.5,-423.811 1961.5,-459.811"/>
<text text-anchor="middle" x="1881" y="-438.111" font-family="Times,serif" font-size="14.00">getFrontendConfig</text>
</g>
<!-- 18 -->
<g id="node24" class="node"><title>18</title>
<polygon fill="gold" stroke="black" stroke-width="2" points="2150,-459.811 1980,-459.811 1980,-423.811 2150,-423.811 2150,-459.811"/>
<text text-anchor="middle" x="2065" y="-438.111" font-family="Times,serif" font-size="14.00">getProxyConfigMap</text>
</g>
<!-- 21 -->
<g id="node26" class="node"><title>21</title>
<polygon fill="gold" stroke="black" stroke-width="2" points="2323.5,-459.811 2168.5,-459.811 2168.5,-423.811 2323.5,-423.811 2323.5,-459.811"/>
<text text-anchor="middle" x="2246" y="-438.111" font-family="Times,serif" font-size="14.00">printConfigUsage</text>
</g>
</g>
</svg>
