<?xml version="1.0" encoding="UTF-8" standalone="no"?>
<!DOCTYPE svg PUBLIC "-//W3C//DTD SVG 1.1//EN"
 "http://www.w3.org/Graphics/SVG/1.1/DTD/svg11.dtd">
<!-- Generated by graphviz version 2.38.0 (20140413.2041)
 -->
<!-- Title: Diagram of: Thentos.Backend.Api.Simple Pages: 1 -->
<svg width="3260pt" height="422pt"
 viewBox="0.00 0.00 3259.50 421.74" xmlns="http://www.w3.org/2000/svg" xmlns:xlink="http://www.w3.org/1999/xlink">
<g id="graph0" class="graph" transform="scale(1 1) rotate(0) translate(4 417.744)">
<title>Diagram of: Thentos.Backend.Api.Simple</title>
<polygon fill="white" stroke="none" points="-4,4 -4,-417.744 3255.5,-417.744 3255.5,4 -4,4"/>
<g id="clust1" class="cluster"><title>cluster_Class_HasDocExtras</title>
<path fill="#ffc1c1" stroke="black" d="M20,-200C20,-200 2144,-200 2144,-200 2150,-200 2156,-206 2156,-212 2156,-212 2156,-393.744 2156,-393.744 2156,-399.744 2150,-405.744 2144,-405.744 2144,-405.744 20,-405.744 20,-405.744 14,-405.744 8,-399.744 8,-393.744 8,-393.744 8,-212 8,-212 8,-206 14,-200 20,-200"/>
<text text-anchor="middle" x="1082" y="-390.544" font-family="Times,serif" font-size="14.00">Class: HasDocExtras</text>
</g>
<g id="clust2" class="cluster"><title>cluster_Class_HasDocExtras_Data_RestDocsApi</title>
<path fill="#c6e2ff" stroke="black" d="M635,-208C635,-208 1792,-208 1792,-208 1798,-208 1804,-214 1804,-220 1804,-220 1804,-279.391 1804,-279.391 1804,-285.391 1798,-291.391 1792,-291.391 1792,-291.391 635,-291.391 635,-291.391 629,-291.391 623,-285.391 623,-279.391 623,-279.391 623,-220 623,-220 623,-214 629,-208 635,-208"/>
<text text-anchor="middle" x="1213.5" y="-276.191" font-family="Times,serif" font-size="14.00">Instance for: (RestDocs Api)</text>
</g>
<g id="clust3" class="cluster"><title>cluster_Class_HasForeign</title>
<path fill="#ffc1c1" stroke="black" d="M2176,-200C2176,-200 2846,-200 2846,-200 2852,-200 2858,-206 2858,-212 2858,-212 2858,-393.744 2858,-393.744 2858,-399.744 2852,-405.744 2846,-405.744 2846,-405.744 2176,-405.744 2176,-405.744 2170,-405.744 2164,-399.744 2164,-393.744 2164,-393.744 2164,-212 2164,-212 2164,-206 2170,-200 2176,-200"/>
<text text-anchor="middle" x="2511" y="-390.544" font-family="Times,serif" font-size="14.00">Class: HasForeign</text>
</g>
<g id="clust4" class="cluster"><title>cluster_Class_HasForeign_Data_Post200JSONa</title>
<path fill="#c6e2ff" stroke="black" d="M2184,-208C2184,-208 2358,-208 2358,-208 2364,-208 2370,-214 2370,-220 2370,-220 2370,-279.391 2370,-279.391 2370,-285.391 2364,-291.391 2358,-291.391 2358,-291.391 2184,-291.391 2184,-291.391 2178,-291.391 2172,-285.391 2172,-279.391 2172,-279.391 2172,-220 2172,-220 2172,-214 2178,-208 2184,-208"/>
<text text-anchor="middle" x="2271" y="-276.191" font-family="Times,serif" font-size="14.00">Instance for: (Post200 &#39;[JSON] a)</text>
</g>
<g id="clust5" class="cluster"><title>cluster_Class_HasForeign_Data_ThentosAssertHeaderssub</title>
<path fill="#c6e2ff" stroke="black" d="M2390,-208C2390,-208 2624,-208 2624,-208 2630,-208 2636,-214 2636,-220 2636,-220 2636,-279.391 2636,-279.391 2636,-285.391 2630,-291.391 2624,-291.391 2624,-291.391 2390,-291.391 2390,-291.391 2384,-291.391 2378,-285.391 2378,-279.391 2378,-279.391 2378,-220 2378,-220 2378,-214 2384,-208 2390,-208"/>
<text text-anchor="middle" x="2507" y="-276.191" font-family="Times,serif" font-size="14.00">Instance for: (ThentosAssertHeaders :&gt; sub)</text>
</g>
<g id="clust6" class="cluster"><title>cluster_Class_HasForeign_Data_ThentosAuthsub</title>
<path fill="#c6e2ff" stroke="black" d="M2656,-208C2656,-208 2838,-208 2838,-208 2844,-208 2850,-214 2850,-220 2850,-220 2850,-279.391 2850,-279.391 2850,-285.391 2844,-291.391 2838,-291.391 2838,-291.391 2656,-291.391 2656,-291.391 2650,-291.391 2644,-285.391 2644,-279.391 2644,-279.391 2644,-220 2644,-220 2644,-214 2650,-208 2656,-208"/>
<text text-anchor="middle" x="2747" y="-276.191" font-family="Times,serif" font-size="14.00">Instance for: (ThentosAuth :&gt; sub)</text>
</g>
<!-- 10 -->
<g id="node1" class="node"><title>10</title>
<polygon fill="cyan" stroke="black" stroke-width="2" points="1795.69,-228.92 1795.69,-247.471 1712.69,-260.589 1595.31,-260.589 1512.31,-247.471 1512.31,-228.92 1595.31,-215.803 1712.69,-215.803 1795.69,-228.92"/>
<text text-anchor="middle" x="1654" y="-234.496" font-family="Times,serif" font-size="14.00">getCabalPackageName</text>
</g>
<!-- 11 -->
<g id="node2" class="node"><title>11</title>
<polygon fill="cyan" stroke="black" stroke-width="2" points="1494.46,-228.92 1494.46,-247.471 1407.5,-260.589 1284.5,-260.589 1197.54,-247.471 1197.54,-228.92 1284.5,-215.803 1407.5,-215.803 1494.46,-228.92"/>
<text text-anchor="middle" x="1346" y="-234.496" font-family="Times,serif" font-size="14.00">getCabalPackageVersion</text>
</g>
<!-- 12 -->
<g id="node3" class="node"><title>12</title>
<polygon fill="cyan" stroke="black" stroke-width="2" points="1179.4,-228.92 1179.4,-247.471 1122.35,-260.589 1041.65,-260.589 984.596,-247.471 984.596,-228.92 1041.65,-215.803 1122.35,-215.803 1179.4,-228.92"/>
<text text-anchor="middle" x="1082" y="-234.496" font-family="Times,serif" font-size="14.00">getExtraInfo</text>
</g>
<!-- 13 -->
<g id="node4" class="node"><title>13</title>
<polygon fill="cyan" stroke="black" stroke-width="2" points="966.789,-228.92 966.789,-247.471 918.878,-260.589 851.122,-260.589 803.211,-247.471 803.211,-228.92 851.122,-215.803 918.878,-215.803 966.789,-228.92"/>
<text text-anchor="middle" x="885" y="-234.496" font-family="Times,serif" font-size="14.00">getIntros</text>
</g>
<!-- 14 -->
<g id="node5" class="node"><title>14</title>
<polygon fill="cyan" stroke="black" stroke-width="2" points="785.105,-228.92 785.105,-247.471 739.938,-260.589 676.062,-260.589 630.895,-247.471 630.895,-228.92 676.062,-215.803 739.938,-215.803 785.105,-228.92"/>
<text text-anchor="middle" x="708" y="-234.496" font-family="Times,serif" font-size="14.00">getTitle</text>
</g>
<!-- 1 -->
<g id="node6" class="node"><title>1</title>
<polygon fill="khaki" stroke="black" points="2144.11,-323.053 2144.11,-351.082 2025.72,-370.902 1858.28,-370.902 1739.89,-351.082 1739.89,-323.053 1858.28,-303.233 2025.72,-303.233 2144.11,-323.053"/>
<polygon fill="none" stroke="black" points="2148.11,-319.648 2148.11,-354.486 2026.05,-374.921 1857.95,-374.921 1735.89,-354.486 1735.89,-319.648 1857.95,-299.214 2026.05,-299.214 2148.11,-319.648"/>
<text text-anchor="middle" x="1942" y="-340.867" font-family="Times,serif" font-size="14.00">Thentos.Backend.Api.Docs.Common</text>
<text text-anchor="middle" x="1942" y="-325.867" font-family="Times,serif" font-size="14.00">getCabalPackageName</text>
</g>
<!-- 1&#45;&gt;10 -->
<g id="edge1" class="edge"><title>1&#45;&gt;10</title>
<path fill="none" stroke="navy" d="M1840.87,-302.05C1799.37,-288.094 1752.66,-272.38 1716.31,-260.156"/>
</g>
<!-- 2 -->
<g id="node7" class="node"><title>2</title>
<polygon fill="khaki" stroke="black" points="1714.11,-323.053 1714.11,-351.082 1595.72,-370.902 1428.28,-370.902 1309.89,-351.082 1309.89,-323.053 1428.28,-303.233 1595.72,-303.233 1714.11,-323.053"/>
<polygon fill="none" stroke="black" points="1718.11,-319.648 1718.11,-354.486 1596.05,-374.921 1427.95,-374.921 1305.89,-354.486 1305.89,-319.648 1427.95,-299.214 1596.05,-299.214 1718.11,-319.648"/>
<text text-anchor="middle" x="1512" y="-340.867" font-family="Times,serif" font-size="14.00">Thentos.Backend.Api.Docs.Common</text>
<text text-anchor="middle" x="1512" y="-325.867" font-family="Times,serif" font-size="14.00">getCabalPackageVersion</text>
</g>
<!-- 2&#45;&gt;11 -->
<g id="edge2" class="edge"><title>2&#45;&gt;11</title>
<path fill="none" stroke="navy" d="M1448.77,-299.168C1426.41,-286.122 1402.02,-271.89 1382.62,-260.565"/>
</g>
<!-- 3 -->
<g id="node8" class="node"><title>3</title>
<polygon fill="khaki" stroke="black" points="1284.11,-323.053 1284.11,-351.082 1165.72,-370.902 998.282,-370.902 879.887,-351.082 879.887,-323.053 998.282,-303.233 1165.72,-303.233 1284.11,-323.053"/>
<polygon fill="none" stroke="black" points="1288.11,-319.648 1288.11,-354.486 1166.05,-374.921 997.951,-374.921 875.886,-354.486 875.886,-319.648 997.951,-299.214 1166.05,-299.214 1288.11,-319.648"/>
<text text-anchor="middle" x="1082" y="-340.867" font-family="Times,serif" font-size="14.00">Thentos.Backend.Api.Docs.Common</text>
<text text-anchor="middle" x="1082" y="-325.867" font-family="Times,serif" font-size="14.00">getExtraInfo</text>
</g>
<!-- 3&#45;&gt;12 -->
<g id="edge3" class="edge"><title>3&#45;&gt;12</title>
<path fill="none" stroke="navy" d="M1082,-299.168C1082,-286.122 1082,-271.89 1082,-260.565"/>
</g>
<!-- 4 -->
<g id="node9" class="node"><title>4</title>
<polygon fill="khaki" stroke="black" points="854.113,-323.053 854.113,-351.082 735.718,-370.902 568.282,-370.902 449.887,-351.082 449.887,-323.053 568.282,-303.233 735.718,-303.233 854.113,-323.053"/>
<polygon fill="none" stroke="black" points="858.114,-319.648 858.114,-354.486 736.049,-374.921 567.951,-374.921 445.886,-354.486 445.886,-319.648 567.951,-299.214 736.049,-299.214 858.114,-319.648"/>
<text text-anchor="middle" x="652" y="-340.867" font-family="Times,serif" font-size="14.00">Thentos.Backend.Api.Docs.Common</text>
<text text-anchor="middle" x="652" y="-325.867" font-family="Times,serif" font-size="14.00">getIntros</text>
</g>
<!-- 4&#45;&gt;13 -->
<g id="edge4" class="edge"><title>4&#45;&gt;13</title>
<path fill="none" stroke="navy" d="M763.323,-303.595C773.805,-299.776 784.176,-295.694 794,-291.391 813.853,-282.697 834.912,-270.807 851.766,-260.571"/>
</g>
<!-- 5 -->
<g id="node10" class="node"><title>5</title>
<polygon fill="khaki" stroke="black" points="424.113,-323.053 424.113,-351.082 305.718,-370.902 138.282,-370.902 19.8874,-351.082 19.8874,-323.053 138.282,-303.233 305.718,-303.233 424.113,-323.053"/>
<polygon fill="none" stroke="black" points="428.114,-319.648 428.114,-354.486 306.049,-374.921 137.951,-374.921 15.8863,-354.486 15.8863,-319.648 137.951,-299.214 306.049,-299.214 428.114,-319.648"/>
<text text-anchor="middle" x="222" y="-340.867" font-family="Times,serif" font-size="14.00">Thentos.Backend.Api.Docs.Common</text>
<text text-anchor="middle" x="222" y="-325.867" font-family="Times,serif" font-size="14.00">getTitle</text>
</g>
<!-- 5&#45;&gt;14 -->
<g id="edge5" class="edge"><title>5&#45;&gt;14</title>
<path fill="none" stroke="navy" d="M360.943,-308.373C454.639,-289.697 573.782,-265.949 645.299,-251.693"/>
</g>
<!-- 7 -->
<g id="node11" class="node"><title>7</title>
<polygon fill="cyan" stroke="black" stroke-width="2" points="2361.57,-228.92 2361.57,-247.471 2309.69,-260.589 2236.31,-260.589 2184.43,-247.471 2184.43,-228.92 2236.31,-215.803 2309.69,-215.803 2361.57,-228.92"/>
<text text-anchor="middle" x="2273" y="-234.496" font-family="Times,serif" font-size="14.00">foreignFor</text>
</g>
<!-- 8 -->
<g id="node12" class="node"><title>8</title>
<polygon fill="cyan" stroke="black" stroke-width="2" points="2595.57,-228.92 2595.57,-247.471 2543.69,-260.589 2470.31,-260.589 2418.43,-247.471 2418.43,-228.92 2470.31,-215.803 2543.69,-215.803 2595.57,-228.92"/>
<text text-anchor="middle" x="2507" y="-234.496" font-family="Times,serif" font-size="14.00">foreignFor</text>
</g>
<!-- 9 -->
<g id="node13" class="node"><title>9</title>
<polygon fill="cyan" stroke="black" stroke-width="2" points="2829.57,-228.92 2829.57,-247.471 2777.69,-260.589 2704.31,-260.589 2652.43,-247.471 2652.43,-228.92 2704.31,-215.803 2777.69,-215.803 2829.57,-228.92"/>
<text text-anchor="middle" x="2741" y="-234.496" font-family="Times,serif" font-size="14.00">foreignFor</text>
</g>
<!-- 22 -->
<g id="node14" class="node"><title>22</title>
<polygon fill="khaki" stroke="black" stroke-dasharray="1,5" points="2627.86,-323.053 2627.86,-351.082 2557.06,-370.902 2456.94,-370.902 2386.14,-351.082 2386.14,-323.053 2456.94,-303.233 2557.06,-303.233 2627.86,-323.053"/>
<polygon fill="none" stroke="black" stroke-dasharray="1,5" points="2631.86,-320 2631.86,-354.135 2557.61,-374.921 2456.39,-374.921 2382.14,-354.135 2382.14,-320 2456.39,-299.214 2557.61,-299.214 2631.86,-320"/>
<text text-anchor="middle" x="2507" y="-340.867" font-family="Times,serif" font-size="14.00">Unknown Module</text>
<text text-anchor="middle" x="2507" y="-325.867" font-family="Times,serif" font-size="14.00">foreignFor</text>
</g>
<!-- 22&#45;&gt;7 -->
<g id="edge13" class="edge"><title>22&#45;&gt;7</title>
<path fill="none" stroke="navy" d="M2420.43,-309.127C2404.81,-303.665 2388.8,-297.66 2374,-291.391 2352.55,-282.31 2329.42,-270.511 2310.71,-260.429"/>
</g>
<!-- 22&#45;&gt;8 -->
<g id="edge14" class="edge"><title>22&#45;&gt;8</title>
<path fill="none" stroke="navy" d="M2507,-299.168C2507,-286.122 2507,-271.89 2507,-260.565"/>
</g>
<!-- 22&#45;&gt;9 -->
<g id="edge15" class="edge"><title>22&#45;&gt;9</title>
<path fill="none" stroke="navy" d="M2593.57,-309.127C2609.19,-303.665 2625.2,-297.66 2640,-291.391 2661.45,-282.31 2684.58,-270.511 2703.29,-260.429"/>
</g>
<!-- 6 -->
<g id="node15" class="node"><title>6</title>
<polygon fill="goldenrod" stroke="black" stroke-width="2" points="2956.5,-180 2881.5,-180 2881.5,-144 2956.5,-144 2956.5,-180"/>
<text text-anchor="middle" x="2919" y="-158.3" font-family="Times,serif" font-size="14.00">api</text>
</g>
<!-- 17 -->
<g id="node18" class="node"><title>17</title>
<polygon fill="goldenrod" stroke="black" stroke-width="2" points="2983,-108 2855,-108 2855,-72 2983,-72 2983,-108"/>
<text text-anchor="middle" x="2919" y="-86.3" font-family="Times,serif" font-size="14.00">thentosBasic</text>
</g>
<!-- 6&#45;&gt;17 -->
<g id="edge6" class="edge"><title>6&#45;&gt;17</title>
<path fill="none" stroke="chartreuse" d="M2919,-143.697C2919,-135.983 2919,-126.712 2919,-118.112"/>
<polygon fill="chartreuse" stroke="chartreuse" points="2922.5,-118.104 2919,-108.104 2915.5,-118.104 2922.5,-118.104"/>
</g>
<!-- 15 -->
<g id="node16" class="node"><title>15</title>
<polygon fill="gold" stroke="black" stroke-width="2" points="2967.5,-355.067 2870.5,-355.067 2870.5,-319.067 2967.5,-319.067 2967.5,-355.067"/>
<text text-anchor="middle" x="2919" y="-333.367" font-family="Times,serif" font-size="14.00">runApi</text>
</g>
<!-- 16 -->
<g id="node17" class="node"><title>16</title>
<polygon fill="goldenrod" stroke="black" stroke-width="2" points="2972.5,-256.196 2865.5,-256.196 2865.5,-220.196 2972.5,-220.196 2972.5,-256.196"/>
<text text-anchor="middle" x="2919" y="-234.496" font-family="Times,serif" font-size="14.00">serveApi</text>
</g>
<!-- 15&#45;&gt;16 -->
<g id="edge7" class="edge"><title>15&#45;&gt;16</title>
<path fill="none" stroke="chartreuse" d="M2919,-318.749C2919,-304.284 2919,-283.4 2919,-266.659"/>
<polygon fill="chartreuse" stroke="chartreuse" points="2922.5,-266.364 2919,-256.364 2915.5,-266.364 2922.5,-266.364"/>
</g>
<!-- 16&#45;&gt;6 -->
<g id="edge8" class="edge"><title>16&#45;&gt;6</title>
<path fill="none" stroke="chartreuse" d="M2919,-219.987C2919,-211.185 2919,-200.261 2919,-190.34"/>
<polygon fill="chartreuse" stroke="chartreuse" points="2922.5,-190.115 2919,-180.115 2915.5,-190.115 2922.5,-190.115"/>
</g>
<!-- 18 -->
<g id="node19" class="node"><title>18</title>
<polygon fill="goldenrod" stroke="black" stroke-width="2" points="2712,-36 2574,-36 2574,-0 2712,-0 2712,-36"/>
<text text-anchor="middle" x="2643" y="-14.3" font-family="Times,serif" font-size="14.00">thentosService</text>
</g>
<!-- 17&#45;&gt;18 -->
<g id="edge9" class="edge"><title>17&#45;&gt;18</title>
<path fill="none" stroke="black" d="M2854.99,-72.7646C2814.65,-62.5355 2762.35,-49.2703 2719.79,-38.4758"/>
<polygon fill="black" stroke="black" points="2720.59,-35.0668 2710.03,-36.0009 2718.86,-41.8519 2720.59,-35.0668"/>
</g>
<!-- 19 -->
<g id="node20" class="node"><title>19</title>
<polygon fill="goldenrod" stroke="black" stroke-width="2" points="2909.5,-36 2730.5,-36 2730.5,-0 2909.5,-0 2909.5,-36"/>
<text text-anchor="middle" x="2820" y="-14.3" font-family="Times,serif" font-size="14.00">thentosServiceSession</text>
</g>
<!-- 17&#45;&gt;19 -->
<g id="edge10" class="edge"><title>17&#45;&gt;19</title>
<path fill="none" stroke="black" d="M2894.78,-71.8761C2882.08,-62.8931 2866.34,-51.7625 2852.58,-42.0341"/>
<polygon fill="black" stroke="black" points="2854.5,-39.1053 2844.31,-36.1898 2850.46,-44.8209 2854.5,-39.1053"/>
</g>
<!-- 20 -->
<g id="node21" class="node"><title>20</title>
<polygon fill="goldenrod" stroke="black" stroke-width="2" points="3110,-36 2928,-36 2928,-0 3110,-0 3110,-36"/>
<text text-anchor="middle" x="3019" y="-14.3" font-family="Times,serif" font-size="14.00">thentosThentosSession</text>
</g>
<!-- 17&#45;&gt;20 -->
<g id="edge11" class="edge"><title>17&#45;&gt;20</title>
<path fill="none" stroke="black" d="M2943.46,-71.8761C2956.3,-62.8931 2972.2,-51.7625 2986.09,-42.0341"/>
<polygon fill="black" stroke="black" points="2988.26,-44.7917 2994.44,-36.1898 2984.24,-39.0571 2988.26,-44.7917"/>
</g>
<!-- 21 -->
<g id="node22" class="node"><title>21</title>
<polygon fill="goldenrod" stroke="black" stroke-width="2" points="3251.5,-36 3128.5,-36 3128.5,-0 3251.5,-0 3251.5,-36"/>
<text text-anchor="middle" x="3190" y="-14.3" font-family="Times,serif" font-size="14.00">thentosUser</text>
</g>
<!-- 17&#45;&gt;21 -->
<g id="edge12" class="edge"><title>17&#45;&gt;21</title>
<path fill="none" stroke="black" d="M2983.22,-72.411C3023.8,-61.9309 3076.29,-48.372 3118.23,-37.5382"/>
<polygon fill="black" stroke="black" points="3119.3,-40.8779 3128.1,-34.9881 3117.55,-34.1004 3119.3,-40.8779"/>
</g>
</g>
</svg>
