<?xml version="1.0" encoding="UTF-8" standalone="no"?>
<!DOCTYPE svg PUBLIC "-//W3C//DTD SVG 1.1//EN"
 "http://www.w3.org/Graphics/SVG/1.1/DTD/svg11.dtd">
<!-- Generated by graphviz version 2.38.0 (20140413.2041)
 -->
<!-- Title: Levels within Thentos.Backend.Api.Simple Pages: 1 -->
<svg width="2890pt" height="438pt"
 viewBox="0.00 0.00 2890.00 437.74" xmlns="http://www.w3.org/2000/svg" xmlns:xlink="http://www.w3.org/1999/xlink">
<g id="graph0" class="graph" transform="scale(1 1) rotate(0) translate(4 433.744)">
<title>Levels within Thentos.Backend.Api.Simple</title>
<polygon fill="white" stroke="none" points="-4,4 -4,-433.744 2886,-433.744 2886,4 -4,4"/>
<g id="clust1" class="cluster"><title>cluster_0</title>
<polygon fill="lavender" stroke="black" points="8,-8 8,-421.744 818,-421.744 818,-8 8,-8"/>
<text text-anchor="middle" x="413" y="-406.544" font-family="Times,serif" font-size="14.00">Exported root entities</text>
</g>
<g id="clust2" class="cluster"><title>cluster_1</title>
<polygon fill="lavender" stroke="black" points="826,-224 826,-307.391 2874,-307.391 2874,-224 826,-224"/>
<text text-anchor="middle" x="1850" y="-292.191" font-family="Times,serif" font-size="14.00">Level = 1</text>
</g>
<!-- 1 -->
<g id="node1" class="node"><title>1</title>
<polygon fill="khaki" stroke="black" points="806.113,-339.053 806.113,-367.082 687.718,-386.902 520.282,-386.902 401.887,-367.082 401.887,-339.053 520.282,-319.233 687.718,-319.233 806.113,-339.053"/>
<polygon fill="none" stroke="black" points="810.114,-335.648 810.114,-370.486 688.049,-390.921 519.951,-390.921 397.886,-370.486 397.886,-335.648 519.951,-315.214 688.049,-315.214 810.114,-335.648"/>
<text text-anchor="middle" x="604" y="-356.867" font-family="Times,serif" font-size="14.00">Thentos.Backend.Api.Docs.Common</text>
<text text-anchor="middle" x="604" y="-341.867" font-family="Times,serif" font-size="14.00">Class: HasDocExtras</text>
</g>
<!-- 10 -->
<g id="node14" class="node"><title>10</title>
<polygon fill="cyan" stroke="black" stroke-width="2" points="2865.69,-244.92 2865.69,-263.471 2731.73,-276.589 2542.27,-276.589 2408.31,-263.471 2408.31,-244.92 2542.27,-231.803 2731.73,-231.803 2865.69,-244.92"/>
<text text-anchor="middle" x="2637" y="-250.496" font-family="Times,serif" font-size="14.00">Class: HasDocExtras, Data: (RestDocs Api)</text>
</g>
<!-- 1&#45;&gt;10 -->
<g id="edge1" class="edge"><title>1&#45;&gt;10</title>
<path fill="none" stroke="navy" stroke-width="2.60944" d="M810.173,-351.883C1214.28,-350.704 2097.36,-343.881 2399,-307.391 2452.75,-300.889 2512.25,-287.84 2558.32,-276.416"/>
</g>
<!-- 6 -->
<g id="node2" class="node"><title>6</title>
<polygon fill="goldenrod" stroke="black" stroke-width="2" points="250.5,-196 175.5,-196 175.5,-160 250.5,-160 250.5,-196"/>
<text text-anchor="middle" x="213" y="-174.3" font-family="Times,serif" font-size="14.00">api</text>
</g>
<!-- 17 -->
<g id="node5" class="node"><title>17</title>
<polygon fill="goldenrod" stroke="black" stroke-width="2" points="326,-124 198,-124 198,-88 326,-88 326,-124"/>
<text text-anchor="middle" x="262" y="-102.3" font-family="Times,serif" font-size="14.00">thentosBasic</text>
</g>
<!-- 6&#45;&gt;17 -->
<g id="edge2" class="edge"><title>6&#45;&gt;17</title>
<path fill="none" stroke="chartreuse" d="M225.112,-159.697C230.868,-151.474 237.862,-141.483 244.206,-132.421"/>
<polygon fill="chartreuse" stroke="chartreuse" points="247.16,-134.304 250.027,-124.104 241.425,-130.29 247.16,-134.304"/>
</g>
<!-- 15 -->
<g id="node3" class="node"><title>15</title>
<polygon fill="gold" stroke="black" stroke-width="2" points="112.5,-371.067 15.5,-371.067 15.5,-335.067 112.5,-335.067 112.5,-371.067"/>
<text text-anchor="middle" x="64" y="-349.367" font-family="Times,serif" font-size="14.00">runApi</text>
</g>
<!-- 16 -->
<g id="node4" class="node"><title>16</title>
<polygon fill="goldenrod" stroke="black" stroke-width="2" points="218.5,-272.196 111.5,-272.196 111.5,-236.196 218.5,-236.196 218.5,-272.196"/>
<text text-anchor="middle" x="165" y="-250.496" font-family="Times,serif" font-size="14.00">serveApi</text>
</g>
<!-- 15&#45;&gt;16 -->
<g id="edge3" class="edge"><title>15&#45;&gt;16</title>
<path fill="none" stroke="chartreuse" d="M82.0568,-334.749C98.1427,-319.32 121.845,-296.587 139.797,-279.369"/>
<polygon fill="chartreuse" stroke="chartreuse" points="142.305,-281.812 147.1,-272.364 137.46,-276.761 142.305,-281.812"/>
</g>
<!-- 16&#45;&gt;6 -->
<g id="edge4" class="edge"><title>16&#45;&gt;6</title>
<path fill="none" stroke="chartreuse" d="M176.133,-235.987C182.13,-226.716 189.65,-215.093 196.331,-204.765"/>
<polygon fill="chartreuse" stroke="chartreuse" points="199.434,-206.412 201.928,-196.115 193.557,-202.61 199.434,-206.412"/>
</g>
<!-- 18 -->
<g id="node6" class="node"><title>18</title>
<polygon fill="goldenrod" stroke="black" stroke-width="2" points="154,-52 16,-52 16,-16 154,-16 154,-52"/>
<text text-anchor="middle" x="85" y="-30.3" font-family="Times,serif" font-size="14.00">thentosService</text>
</g>
<!-- 17&#45;&gt;18 -->
<g id="edge5" class="edge"><title>17&#45;&gt;18</title>
<path fill="none" stroke="black" d="M218.701,-87.8761C194.289,-78.2216 163.604,-66.0865 137.79,-55.8775"/>
<polygon fill="black" stroke="black" points="138.745,-52.4913 128.158,-52.0683 136.17,-59.0007 138.745,-52.4913"/>
</g>
<!-- 19 -->
<g id="node7" class="node"><title>19</title>
<polygon fill="goldenrod" stroke="black" stroke-width="2" points="351.5,-52 172.5,-52 172.5,-16 351.5,-16 351.5,-52"/>
<text text-anchor="middle" x="262" y="-30.3" font-family="Times,serif" font-size="14.00">thentosServiceSession</text>
</g>
<!-- 17&#45;&gt;19 -->
<g id="edge6" class="edge"><title>17&#45;&gt;19</title>
<path fill="none" stroke="black" d="M262,-87.6966C262,-79.9827 262,-70.7125 262,-62.1124"/>
<polygon fill="black" stroke="black" points="265.5,-62.1043 262,-52.1043 258.5,-62.1044 265.5,-62.1043"/>
</g>
<!-- 20 -->
<g id="node8" class="node"><title>20</title>
<polygon fill="goldenrod" stroke="black" stroke-width="2" points="552,-52 370,-52 370,-16 552,-16 552,-52"/>
<text text-anchor="middle" x="461" y="-30.3" font-family="Times,serif" font-size="14.00">thentosThentosSession</text>
</g>
<!-- 17&#45;&gt;20 -->
<g id="edge7" class="edge"><title>17&#45;&gt;20</title>
<path fill="none" stroke="black" d="M310.426,-87.9656C338.231,-78.185 373.336,-65.8365 402.654,-55.5236"/>
<polygon fill="black" stroke="black" points="404.084,-58.7308 412.356,-52.1108 401.762,-52.1275 404.084,-58.7308"/>
</g>
<!-- 21 -->
<g id="node9" class="node"><title>21</title>
<polygon fill="goldenrod" stroke="black" stroke-width="2" points="693.5,-52 570.5,-52 570.5,-16 693.5,-16 693.5,-52"/>
<text text-anchor="middle" x="632" y="-30.3" font-family="Times,serif" font-size="14.00">thentosUser</text>
</g>
<!-- 17&#45;&gt;21 -->
<g id="edge8" class="edge"><title>17&#45;&gt;21</title>
<path fill="none" stroke="black" d="M326.079,-94.7764C384.516,-85.195 473.455,-69.9686 560.431,-52.0514"/>
<polygon fill="black" stroke="black" points="561.396,-55.4258 570.477,-49.968 559.974,-48.5717 561.396,-55.4258"/>
</g>
<!-- 22 -->
<g id="node10" class="node"><title>22</title>
<polygon fill="khaki" stroke="black" stroke-dasharray="1,5" points="375.858,-339.053 375.858,-367.082 305.061,-386.902 204.939,-386.902 134.142,-367.082 134.142,-339.053 204.939,-319.233 305.061,-319.233 375.858,-339.053"/>
<polygon fill="none" stroke="black" stroke-dasharray="1,5" points="379.856,-336 379.856,-370.135 305.607,-390.921 204.393,-390.921 130.144,-370.135 130.144,-336 204.393,-315.214 305.607,-315.214 379.856,-336"/>
<text text-anchor="middle" x="255" y="-356.867" font-family="Times,serif" font-size="14.00">Unknown Module</text>
<text text-anchor="middle" x="255" y="-341.867" font-family="Times,serif" font-size="14.00">Class: HasForeign</text>
</g>
<!-- 7 -->
<g id="node11" class="node"><title>7</title>
<polygon fill="cyan" stroke="black" stroke-width="2" points="2389.97,-244.92 2389.97,-263.471 2251.74,-276.589 2056.26,-276.589 1918.03,-263.471 1918.03,-244.92 2056.26,-231.803 2251.74,-231.803 2389.97,-244.92"/>
<text text-anchor="middle" x="2154" y="-250.496" font-family="Times,serif" font-size="14.00">Class: HasForeign, Data: (Post200 &#39;[JSON] a)</text>
</g>
<!-- 22&#45;&gt;7 -->
<g id="edge9" class="edge"><title>22&#45;&gt;7</title>
<path fill="none" stroke="navy" d="M340.81,-325.02C356.683,-321.038 373.229,-317.553 389,-315.391 472.719,-303.917 1825.99,-316.5 1910,-307.391 1965.77,-301.344 2027.56,-288.059 2075,-276.405"/>
</g>
<!-- 8 -->
<g id="node12" class="node"><title>8</title>
<polygon fill="cyan" stroke="black" stroke-width="2" points="1900.81,-244.92 1900.81,-263.471 1735.73,-276.589 1502.27,-276.589 1337.19,-263.471 1337.19,-244.92 1502.27,-231.803 1735.73,-231.803 1900.81,-244.92"/>
<text text-anchor="middle" x="1619" y="-250.496" font-family="Times,serif" font-size="14.00">Class: HasForeign, Data: (ThentosAssertHeaders :&gt; sub)</text>
</g>
<!-- 22&#45;&gt;8 -->
<g id="edge10" class="edge"><title>22&#45;&gt;8</title>
<path fill="none" stroke="navy" d="M340.816,-325.062C356.688,-321.076 373.232,-317.579 389,-315.391 492.458,-301.04 1225.01,-317.122 1329,-307.391 1394.7,-301.244 1467.83,-288.038 1524.21,-276.449"/>
</g>
<!-- 9 -->
<g id="node13" class="node"><title>9</title>
<polygon fill="cyan" stroke="black" stroke-width="2" points="1319.74,-244.92 1319.74,-263.471 1177.55,-276.589 976.453,-276.589 834.257,-263.471 834.257,-244.92 976.453,-231.803 1177.55,-231.803 1319.74,-244.92"/>
<text text-anchor="middle" x="1077" y="-250.496" font-family="Times,serif" font-size="14.00">Class: HasForeign, Data: (ThentosAuth :&gt; sub)</text>
</g>
<!-- 22&#45;&gt;9 -->
<g id="edge11" class="edge"><title>22&#45;&gt;9</title>
<path fill="none" stroke="navy" d="M341.195,-325.101C356.955,-321.139 373.363,-317.64 389,-315.391 484.259,-301.693 726.345,-317.974 822,-307.391 879.603,-301.018 943.49,-287.931 992.907,-276.456"/>
</g>
</g>
</svg>
