<?xml version="1.0" encoding="UTF-8" standalone="no"?>
<!DOCTYPE svg PUBLIC "-//W3C//DTD SVG 1.1//EN"
 "http://www.w3.org/Graphics/SVG/1.1/DTD/svg11.dtd">
<!-- Generated by graphviz version 2.38.0 (20140413.2041)
 -->
<!-- Title: Levels within Thentos.Config Pages: 1 -->
<svg width="3528pt" height="405pt"
 viewBox="0.00 0.00 3528.00 405.10" xmlns="http://www.w3.org/2000/svg" xmlns:xlink="http://www.w3.org/1999/xlink">
<g id="graph0" class="graph" transform="scale(1 1) rotate(0) translate(4 401.096)">
<title>Levels within Thentos.Config</title>
<polygon fill="white" stroke="none" points="-4,4 -4,-401.096 3524,-401.096 3524,4 -4,4"/>
<g id="clust1" class="cluster"><title>cluster_0</title>
<polygon fill="lavender" stroke="black" points="8,-8 8,-389.096 2302,-389.096 2302,-8 8,-8"/>
<text text-anchor="middle" x="1155" y="-373.896" font-family="Times,serif" font-size="14.00">Exported root entities</text>
</g>
<g id="clust2" class="cluster"><title>cluster_1</title>
<polygon fill="lavender" stroke="black" points="2310,-191.352 2310,-274.744 3512,-274.744 3512,-191.352 2310,-191.352"/>
<text text-anchor="middle" x="2911" y="-259.544" font-family="Times,serif" font-size="14.00">Level = 1</text>
</g>
<!-- 1 -->
<g id="node1" class="node"><title>1</title>
<polygon fill="goldenrod" stroke="black" stroke-width="2" points="2172.5,-143.676 2017.5,-143.676 2013.5,-139.676 2013.5,-107.676 2168.5,-107.676 2172.5,-111.676 2172.5,-143.676"/>
<polyline fill="none" stroke="black" stroke-width="2" points="2168.5,-139.676 2013.5,-139.676 "/>
<polyline fill="none" stroke="black" stroke-width="2" points="2168.5,-139.676 2168.5,-107.676 "/>
<polyline fill="none" stroke="black" stroke-width="2" points="2168.5,-139.676 2172.5,-143.676 "/>
<text text-anchor="middle" x="2093" y="-121.976" font-family="Times,serif" font-size="14.00">Data: HttpSchema</text>
</g>
<!-- 3 -->
<g id="node2" class="node"><title>3</title>
<polygon fill="goldenrod" stroke="black" stroke-width="2" points="1325,-239.548 1207,-239.548 1207,-203.548 1325,-203.548 1325,-239.548"/>
<text text-anchor="middle" x="1266" y="-217.848" font-family="Times,serif" font-size="14.00">_renderUrl</text>
</g>
<!-- 3&#45;&gt;1 -->
<g id="edge1" class="edge"><title>3&#45;&gt;1</title>
<path fill="none" stroke="black" d="M1325.41,-216.666C1435.76,-209.098 1679.75,-190.679 1884,-163.352 1923.22,-158.105 1966.31,-150.806 2003.13,-144.099"/>
<polygon fill="black" stroke="black" points="2004.14,-147.473 2013.34,-142.225 2002.88,-140.588 2004.14,-147.473"/>
</g>
<!-- 25 -->
<g id="node21" class="node"><title>25</title>
<polygon fill="khaki" stroke="black" stroke-dasharray="1,5" points="1870.86,-111.662 1870.86,-139.691 1800.06,-159.51 1699.94,-159.51 1629.14,-139.691 1629.14,-111.662 1699.94,-91.8418 1800.06,-91.8418 1870.86,-111.662"/>
<polygon fill="none" stroke="black" stroke-dasharray="1,5" points="1874.86,-108.609 1874.86,-142.743 1800.61,-163.529 1699.39,-163.529 1625.14,-142.743 1625.14,-108.609 1699.39,-87.823 1800.61,-87.823 1874.86,-108.609"/>
<text text-anchor="middle" x="1750" y="-129.476" font-family="Times,serif" font-size="14.00">Unknown Module</text>
<text text-anchor="middle" x="1750" y="-114.476" font-family="Times,serif" font-size="14.00">Class: Show</text>
</g>
<!-- 3&#45;&gt;25 -->
<g id="edge2" class="edge"><title>3&#45;&gt;25</title>
<path fill="none" stroke="black" stroke-width="1.69315" d="M1325.35,-209.037C1401.49,-194.27 1535.31,-168.316 1632.41,-149.482"/>
<polygon fill="black" stroke="black" stroke-width="1.69315" points="1633.13,-152.908 1642.28,-147.568 1631.8,-146.036 1633.13,-152.908"/>
</g>
<!-- 4 -->
<g id="node3" class="node"><title>4</title>
<polygon fill="gold" stroke="black" stroke-width="2" points="948.5,-338.42 847.5,-338.42 847.5,-302.42 948.5,-302.42 948.5,-338.42"/>
<text text-anchor="middle" x="898" y="-316.72" font-family="Times,serif" font-size="14.00">bindUrl</text>
</g>
<!-- 4&#45;&gt;3 -->
<g id="edge3" class="edge"><title>4&#45;&gt;3</title>
<path fill="none" stroke="black" d="M921.499,-302.365C932.178,-295.338 945.256,-287.699 958,-282.744 1036.81,-252.1 1133.26,-236.488 1197,-228.944"/>
<polygon fill="black" stroke="black" points="1197.41,-232.42 1206.94,-227.801 1196.61,-225.466 1197.41,-232.42"/>
</g>
<!-- 5 -->
<g id="node4" class="node"><title>5</title>
<polygon fill="gold" stroke="black" stroke-width="2" points="2026,-338.42 1862,-338.42 1862,-302.42 2026,-302.42 2026,-338.42"/>
<text text-anchor="middle" x="1944" y="-316.72" font-family="Times,serif" font-size="14.00">buildEmailAddress</text>
</g>
<!-- 6 -->
<g id="node5" class="node"><title>6</title>
<polygon fill="gold" stroke="black" stroke-width="2" points="1844,-338.42 1712,-338.42 1712,-302.42 1844,-302.42 1844,-338.42"/>
<text text-anchor="middle" x="1778" y="-316.72" font-family="Times,serif" font-size="14.00">configLogger</text>
</g>
<!-- 7 -->
<g id="node6" class="node"><title>7</title>
<polygon fill="goldenrod" stroke="black" stroke-width="2" points="261.5,-52 16.5,-52 16.5,-16 261.5,-16 261.5,-52"/>
<text text-anchor="middle" x="139" y="-30.3" font-family="Times,serif" font-size="14.00">defaultAccountVerificationConfig</text>
</g>
<!-- 8 -->
<g id="node7" class="node"><title>8</title>
<polygon fill="goldenrod" stroke="black" stroke-width="2" points="586.5,-143.676 403.5,-143.676 403.5,-107.676 586.5,-107.676 586.5,-143.676"/>
<text text-anchor="middle" x="495" y="-121.976" font-family="Times,serif" font-size="14.00">defaultDatabaseConfig</text>
</g>
<!-- 9 -->
<g id="node8" class="node"><title>9</title>
<polygon fill="goldenrod" stroke="black" stroke-width="2" points="204,-143.676 44,-143.676 44,-107.676 204,-107.676 204,-143.676"/>
<text text-anchor="middle" x="124" y="-121.976" font-family="Times,serif" font-size="14.00">defaultMailConfig</text>
</g>
<!-- 9&#45;&gt;7 -->
<g id="edge4" class="edge"><title>9&#45;&gt;7</title>
<path fill="none" stroke="chartreuse" d="M126.892,-107.386C129.03,-94.6076 131.982,-76.956 134.436,-62.283"/>
<polygon fill="chartreuse" stroke="chartreuse" points="137.919,-62.6778 136.117,-52.2374 131.015,-61.5229 137.919,-62.6778"/>
</g>
<!-- 10 -->
<g id="node9" class="node"><title>10</title>
<polygon fill="goldenrod" stroke="black" stroke-width="2" points="385.5,-143.676 222.5,-143.676 222.5,-107.676 385.5,-107.676 385.5,-143.676"/>
<text text-anchor="middle" x="304" y="-121.976" font-family="Times,serif" font-size="14.00">defaultSmtpConfig</text>
</g>
<!-- 11 -->
<g id="node10" class="node"><title>11</title>
<polygon fill="goldenrod" stroke="black" stroke-width="2" points="361.5,-239.548 184.5,-239.548 184.5,-203.548 361.5,-203.548 361.5,-239.548"/>
<text text-anchor="middle" x="273" y="-217.848" font-family="Times,serif" font-size="14.00">defaultThentosConfig</text>
</g>
<!-- 11&#45;&gt;8 -->
<g id="edge5" class="edge"><title>11&#45;&gt;8</title>
<path fill="none" stroke="black" d="M313.46,-203.44C350.51,-187.773 405.463,-164.536 445.197,-147.735"/>
<polygon fill="black" stroke="black" points="446.596,-150.944 454.443,-143.825 443.87,-144.496 446.596,-150.944"/>
</g>
<!-- 11&#45;&gt;9 -->
<g id="edge6" class="edge"><title>11&#45;&gt;9</title>
<path fill="none" stroke="black" d="M245.671,-203.33C221.517,-188.113 186.125,-165.816 159.732,-149.188"/>
<polygon fill="black" stroke="black" points="161.482,-146.154 151.156,-143.785 157.751,-152.076 161.482,-146.154"/>
</g>
<!-- 11&#45;&gt;10 -->
<g id="edge7" class="edge"><title>11&#45;&gt;10</title>
<path fill="none" stroke="black" d="M278.686,-203.33C283.274,-189.436 289.812,-169.64 295.094,-153.646"/>
<polygon fill="black" stroke="black" points="298.538,-154.378 298.35,-143.785 291.891,-152.183 298.538,-154.378"/>
</g>
<!-- 12 -->
<g id="node11" class="node"><title>12</title>
<polygon fill="gold" stroke="black" stroke-width="2" points="1081,-338.42 967,-338.42 967,-302.42 1081,-302.42 1081,-338.42"/>
<text text-anchor="middle" x="1024" y="-316.72" font-family="Times,serif" font-size="14.00">exposeUrl</text>
</g>
<!-- 12&#45;&gt;3 -->
<g id="edge8" class="edge"><title>12&#45;&gt;3</title>
<path fill="none" stroke="black" d="M1052.02,-302.401C1063.55,-295.784 1077.18,-288.442 1090,-282.744 1124.78,-267.28 1164.84,-253.295 1197.95,-242.706"/>
<polygon fill="black" stroke="black" points="1199.06,-246.025 1207.54,-239.671 1196.95,-239.351 1199.06,-246.025"/>
</g>
<!-- 13 -->
<g id="node12" class="node"><title>13</title>
<polygon fill="gold" stroke="black" stroke-width="2" points="1426.5,-338.42 1277.5,-338.42 1277.5,-302.42 1426.5,-302.42 1426.5,-338.42"/>
<text text-anchor="middle" x="1352" y="-316.72" font-family="Times,serif" font-size="14.00">extractTargetUrl</text>
</g>
<!-- 14 -->
<g id="node13" class="node"><title>14</title>
<polygon fill="gold" stroke="black" stroke-width="2" points="1259,-338.42 1099,-338.42 1099,-302.42 1259,-302.42 1259,-338.42"/>
<text text-anchor="middle" x="1179" y="-316.72" font-family="Times,serif" font-size="14.00">getBackendConfig</text>
</g>
<!-- 15 -->
<g id="node14" class="node"><title>15</title>
<polygon fill="gold" stroke="black" stroke-width="2" points="288.5,-338.42 175.5,-338.42 175.5,-302.42 288.5,-302.42 288.5,-338.42"/>
<text text-anchor="middle" x="232" y="-316.72" font-family="Times,serif" font-size="14.00">getConfig</text>
</g>
<!-- 15&#45;&gt;11 -->
<g id="edge9" class="edge"><title>15&#45;&gt;11</title>
<path fill="none" stroke="chartreuse" d="M239.33,-302.101C245.568,-287.361 254.629,-265.954 261.78,-249.059"/>
<polygon fill="chartreuse" stroke="chartreuse" points="265.059,-250.29 265.733,-239.717 258.613,-247.562 265.059,-250.29"/>
</g>
<!-- 16 -->
<g id="node15" class="node"><title>16</title>
<polygon fill="gold" stroke="black" stroke-width="2" points="157.5,-338.42 16.5,-338.42 16.5,-302.42 157.5,-302.42 157.5,-338.42"/>
<text text-anchor="middle" x="87" y="-316.72" font-family="Times,serif" font-size="14.00">getDefaultUser</text>
</g>
<!-- 19 -->
<g id="node18" class="node"><title>19</title>
<polygon fill="goldenrod" stroke="black" stroke-width="2" points="150,-239.548 24,-239.548 24,-203.548 150,-203.548 150,-239.548"/>
<text text-anchor="middle" x="87" y="-217.848" font-family="Times,serif" font-size="14.00">getUserData</text>
</g>
<!-- 16&#45;&gt;19 -->
<g id="edge10" class="edge"><title>16&#45;&gt;19</title>
<path fill="none" stroke="chartreuse" d="M87,-302.101C87,-287.637 87,-266.752 87,-250.011"/>
<polygon fill="chartreuse" stroke="chartreuse" points="90.5001,-249.717 87,-239.717 83.5001,-249.717 90.5001,-249.717"/>
</g>
<!-- 17 -->
<g id="node16" class="node"><title>17</title>
<polygon fill="gold" stroke="black" stroke-width="2" points="829.5,-338.42 668.5,-338.42 668.5,-302.42 829.5,-302.42 829.5,-338.42"/>
<text text-anchor="middle" x="749" y="-316.72" font-family="Times,serif" font-size="14.00">getFrontendConfig</text>
</g>
<!-- 18 -->
<g id="node17" class="node"><title>18</title>
<polygon fill="gold" stroke="black" stroke-width="2" points="650,-338.42 480,-338.42 480,-302.42 650,-302.42 650,-338.42"/>
<text text-anchor="middle" x="565" y="-316.72" font-family="Times,serif" font-size="14.00">getProxyConfigMap</text>
</g>
<!-- 21 -->
<g id="node19" class="node"><title>21</title>
<polygon fill="gold" stroke="black" stroke-width="2" points="461.5,-338.42 306.5,-338.42 306.5,-302.42 461.5,-302.42 461.5,-338.42"/>
<text text-anchor="middle" x="384" y="-316.72" font-family="Times,serif" font-size="14.00">printConfigUsage</text>
</g>
<!-- 24 -->
<g id="node20" class="node"><title>24</title>
<polygon fill="khaki" stroke="black" stroke-dasharray="1,5" points="1689.86,-306.405 1689.86,-334.434 1619.06,-354.254 1518.94,-354.254 1448.14,-334.434 1448.14,-306.405 1518.94,-286.585 1619.06,-286.585 1689.86,-306.405"/>
<polygon fill="none" stroke="black" stroke-dasharray="1,5" points="1693.86,-303.353 1693.86,-337.487 1619.61,-358.273 1518.39,-358.273 1444.14,-337.487 1444.14,-303.353 1518.39,-282.567 1619.61,-282.567 1693.86,-303.353"/>
<text text-anchor="middle" x="1569" y="-324.22" font-family="Times,serif" font-size="14.00">Unknown Module</text>
<text text-anchor="middle" x="1569" y="-309.22" font-family="Times,serif" font-size="14.00">Class: FromJSON</text>
</g>
<!-- 20 -->
<g id="node23" class="node"><title>20</title>
<polygon fill="cyan" stroke="black" stroke-width="2" points="2725.68,-212.272 2725.68,-230.823 2606.37,-243.941 2437.63,-243.941 2318.32,-230.823 2318.32,-212.272 2437.63,-199.155 2606.37,-199.155 2725.68,-212.272"/>
<text text-anchor="middle" x="2522" y="-217.848" font-family="Times,serif" font-size="14.00">Class: FromJSON, Data: HttpSchema</text>
</g>
<!-- 24&#45;&gt;20 -->
<g id="edge12" class="edge"><title>24&#45;&gt;20</title>
<path fill="none" stroke="navy" d="M1655.19,-292.386C1670.95,-288.43 1687.36,-284.951 1703,-282.744 1835.7,-264.015 2173.04,-291.476 2306,-274.744 2355.38,-268.53 2409.84,-255.325 2451.72,-243.752"/>
</g>
<!-- 22 -->
<g id="node24" class="node"><title>22</title>
<polygon fill="bisque" stroke="black" stroke-width="2" points="3102.19,-212.272 3102.19,-230.823 2997.22,-243.941 2848.78,-243.941 2743.81,-230.823 2743.81,-212.272 2848.78,-199.155 2997.22,-199.155 3102.19,-212.272"/>
<text text-anchor="middle" x="2923" y="-217.848" font-family="Times,serif" font-size="14.00">Class: Show, Data: HttpSchema</text>
</g>
<!-- 25&#45;&gt;22 -->
<g id="edge13" class="edge"><title>25&#45;&gt;22</title>
<path fill="none" stroke="navy" stroke-width="1.69315" d="M1864.13,-145.761C1907.77,-152.373 1958.08,-159.169 2004,-163.352 2327.79,-192.848 2411.38,-160.131 2735,-191.352 2763.11,-194.064 2793.41,-198.221 2821.31,-202.556"/>
</g>
<!-- 26 -->
<g id="node22" class="node"><title>26</title>
<polygon fill="khaki" stroke="black" stroke-dasharray="1,5" points="2289.86,-306.405 2289.86,-334.434 2219.06,-354.254 2118.94,-354.254 2048.14,-334.434 2048.14,-306.405 2118.94,-286.585 2219.06,-286.585 2289.86,-306.405"/>
<polygon fill="none" stroke="black" stroke-dasharray="1,5" points="2293.86,-303.353 2293.86,-337.487 2219.61,-358.273 2118.39,-358.273 2044.14,-337.487 2044.14,-303.353 2118.39,-282.567 2219.61,-282.567 2293.86,-303.353"/>
<text text-anchor="middle" x="2169" y="-324.22" font-family="Times,serif" font-size="14.00">Unknown Module</text>
<text text-anchor="middle" x="2169" y="-309.22" font-family="Times,serif" font-size="14.00">Class: ToJSON</text>
</g>
<!-- 23 -->
<g id="node25" class="node"><title>23</title>
<polygon fill="cyan" stroke="black" stroke-width="2" points="3504.21,-212.272 3504.21,-230.823 3391.62,-243.941 3232.38,-243.941 3119.79,-230.823 3119.79,-212.272 3232.38,-199.155 3391.62,-199.155 3504.21,-212.272"/>
<text text-anchor="middle" x="3312" y="-217.848" font-family="Times,serif" font-size="14.00">Class: ToJSON, Data: HttpSchema</text>
</g>
<!-- 26&#45;&gt;23 -->
<g id="edge14" class="edge"><title>26&#45;&gt;23</title>
<path fill="none" stroke="navy" d="M2293.89,-316.7C2512.82,-311.396 2957.22,-298.099 3111,-274.744 3156.09,-267.895 3205.7,-255.07 3244.35,-243.847"/>
</g>
<!-- 22&#45;&gt;1 -->
<g id="edge11" class="edge"><title>22&#45;&gt;1</title>
<path fill="none" stroke="black" stroke-width="1.69315" d="M2816.76,-203.031C2790.1,-198.917 2761.54,-194.747 2735,-191.352 2538.57,-166.224 2307.29,-144.959 2182.95,-134.204"/>
<polygon fill="black" stroke="black" stroke-width="1.69315" points="2182.99,-130.694 2172.73,-133.322 2182.39,-137.668 2182.99,-130.694"/>
</g>
</g>
</svg>
