<?xml version="1.0" encoding="UTF-8" standalone="no"?>
<!DOCTYPE svg PUBLIC "-//W3C//DTD SVG 1.1//EN"
 "http://www.w3.org/Graphics/SVG/1.1/DTD/svg11.dtd">
<!-- Generated by graphviz version 2.38.0 (20140413.2041)
 -->
<!-- Title: Levels within Thentos.Action Pages: 1 -->
<svg width="7503pt" height="318pt"
 viewBox="0.00 0.00 7503.00 318.00" xmlns="http://www.w3.org/2000/svg" xmlns:xlink="http://www.w3.org/1999/xlink">
<g id="graph0" class="graph" transform="scale(1 1) rotate(0) translate(4 314)">
<title>Levels within Thentos.Action</title>
<polygon fill="white" stroke="none" points="-4,4 -4,-314 7499,-314 7499,4 -4,4"/>
<g id="clust1" class="cluster"><title>cluster_0</title>
<polygon fill="lavender" stroke="black" points="8,-8 8,-302 7157,-302 7157,-8 8,-8"/>
<text text-anchor="middle" x="3582.5" y="-286.8" font-family="Times,serif" font-size="14.00">Exported root entities</text>
</g>
<g id="clust2" class="cluster"><title>cluster_1</title>
<polygon fill="lavender" stroke="black" points="7165,-80 7165,-155 7487,-155 7487,-80 7165,-80"/>
<text text-anchor="middle" x="7326" y="-139.8" font-family="Times,serif" font-size="14.00">Level = 1</text>
</g>
<!-- 1 -->
<g id="node1" class="node"><title>1</title>
<polygon fill="gold" stroke="black" stroke-width="2" points="7148.5,-271 6905.5,-271 6905.5,-235 7148.5,-235 7148.5,-271"/>
<text text-anchor="middle" x="7027" y="-249.3" font-family="Times,serif" font-size="14.00">_changePasswordUnconditionally</text>
</g>
<!-- 2 -->
<g id="node2" class="node"><title>2</title>
<polygon fill="cyan" stroke="black" stroke-width="2" points="1075,-52 887,-52 887,-16 1075,-16 1075,-52"/>
<text text-anchor="middle" x="981" y="-30.3" font-family="Times,serif" font-size="14.00">_lookupThentosSession</text>
</g>
<!-- 3 -->
<g id="node3" class="node"><title>3</title>
<polygon fill="cyan" stroke="black" stroke-width="2" points="1252,-199 1124,-199 1124,-163 1252,-163 1252,-199"/>
<text text-anchor="middle" x="1188" y="-177.3" font-family="Times,serif" font-size="14.00">_lookupUser</text>
</g>
<!-- 4 -->
<g id="node4" class="node"><title>4</title>
<polygon fill="cyan" stroke="black" stroke-width="2" points="3285.5,-199 3070.5,-199 3070.5,-163 3285.5,-163 3285.5,-199"/>
<text text-anchor="middle" x="3178" y="-177.3" font-family="Times,serif" font-size="14.00">_lookupUserCheckPassword</text>
</g>
<!-- 5 -->
<g id="node5" class="node"><title>5</title>
<polygon fill="khaki" stroke="black" stroke-width="2" points="5106,-124 4936,-124 4936,-88 5106,-88 5106,-124"/>
<text text-anchor="middle" x="5021" y="-102.3" font-family="Times,serif" font-size="14.00">_serviceSessionUser</text>
</g>
<!-- 5&#45;&gt;2 -->
<g id="edge1" class="edge"><title>5&#45;&gt;2</title>
<path fill="none" stroke="black" d="M4935.8,-101.887C4788.48,-96.6117 4476.61,-85.9128 4213,-80 2982.69,-52.4037 1488.53,-39.0654 1085.38,-35.808"/>
<polygon fill="black" stroke="black" points="1085.23,-32.3067 1075.2,-35.726 1085.18,-39.3065 1085.23,-32.3067"/>
</g>
<!-- 52 -->
<g id="node50" class="node"><title>52</title>
<polygon fill="goldenrod" stroke="black" stroke-width="2" points="6397,-52 6219,-52 6219,-16 6397,-16 6397,-52"/>
<text text-anchor="middle" x="6308" y="-30.3" font-family="Times,serif" font-size="14.00">lookupServiceSession</text>
</g>
<!-- 5&#45;&gt;52 -->
<g id="edge2" class="edge"><title>5&#45;&gt;52</title>
<path fill="none" stroke="black" d="M5106.39,-100.241C5197.27,-95.1845 5345.28,-86.9736 5473,-80 5738.78,-65.488 6052.17,-48.6803 6208.64,-40.3093"/>
<polygon fill="black" stroke="black" points="6208.92,-43.7995 6218.72,-39.7702 6208.54,-36.8095 6208.92,-43.7995"/>
</g>
<!-- 6 -->
<g id="node6" class="node"><title>6</title>
<polygon fill="khaki" stroke="black" stroke-width="2" points="4223,-199 4001,-199 4001,-163 4223,-163 4223,-199"/>
<text text-anchor="middle" x="4112" y="-177.3" font-family="Times,serif" font-size="14.00">_startThentosSessionByAgent</text>
</g>
<!-- 27 -->
<g id="node26" class="node"><title>27</title>
<polygon fill="goldenrod" stroke="black" stroke-width="2" points="4204,-124 4020,-124 4020,-88 4204,-88 4204,-124"/>
<text text-anchor="middle" x="4112" y="-102.3" font-family="Times,serif" font-size="14.00">defaultSessionTimeout</text>
</g>
<!-- 6&#45;&gt;27 -->
<g id="edge3" class="edge"><title>6&#45;&gt;27</title>
<path fill="none" stroke="black" d="M4112,-162.7C4112,-154.245 4112,-143.869 4112,-134.373"/>
<polygon fill="black" stroke="black" points="4115.5,-134.176 4112,-124.176 4108.5,-134.176 4115.5,-134.176"/>
</g>
<!-- 46 -->
<g id="node44" class="node"><title>46</title>
<polygon fill="goldenrod" stroke="black" stroke-width="2" points="5809.5,-124 5648.5,-124 5648.5,-88 5809.5,-88 5809.5,-124"/>
<text text-anchor="middle" x="5729" y="-102.3" font-family="Times,serif" font-size="14.00">freshSessionToken</text>
</g>
<!-- 6&#45;&gt;46 -->
<g id="edge4" class="edge"><title>6&#45;&gt;46</title>
<path fill="none" stroke="black" d="M4223.25,-178.527C4572.16,-173.865 5622.88,-159.472 5640,-155 5659.92,-149.797 5680.27,-139.287 5696.47,-129.424"/>
<polygon fill="black" stroke="black" points="5698.42,-132.336 5705.02,-124.05 5694.69,-126.411 5698.42,-132.336"/>
</g>
<!-- 7 -->
<g id="node7" class="node"><title>7</title>
<polygon fill="khaki" stroke="black" stroke-width="2" points="838,-199 582,-199 582,-163 838,-163 838,-199"/>
<text text-anchor="middle" x="710" y="-177.3" font-family="Times,serif" font-size="14.00">_thentosSessionAndUserIdByToken</text>
</g>
<!-- 53 -->
<g id="node51" class="node"><title>53</title>
<polygon fill="goldenrod" stroke="black" stroke-width="2" points="1071.5,-124 890.5,-124 890.5,-88 1071.5,-88 1071.5,-124"/>
<text text-anchor="middle" x="981" y="-102.3" font-family="Times,serif" font-size="14.00">lookupThentosSession</text>
</g>
<!-- 7&#45;&gt;53 -->
<g id="edge5" class="edge"><title>7&#45;&gt;53</title>
<path fill="none" stroke="black" d="M838.369,-163.705C856.3,-160.814 871.746,-157.826 881,-155 902.017,-148.583 924.166,-138.35 942.262,-128.977"/>
<polygon fill="black" stroke="black" points="944.127,-131.95 951.329,-124.179 940.853,-125.763 944.127,-131.95"/>
</g>
<!-- 8 -->
<g id="node8" class="node"><title>8</title>
<polygon fill="goldenrod" stroke="black" stroke-width="2" points="5788.5,-199 5667.5,-199 5667.5,-163 5788.5,-163 5788.5,-199"/>
<text text-anchor="middle" x="5728" y="-177.3" font-family="Times,serif" font-size="14.00">addContext</text>
</g>
<!-- 9 -->
<g id="node9" class="node"><title>9</title>
<polygon fill="gold" stroke="black" stroke-width="2" points="6887,-271 6725,-271 6725,-235 6887,-235 6887,-271"/>
<text text-anchor="middle" x="6806" y="-249.3" font-family="Times,serif" font-size="14.00">addGroupToGroup</text>
</g>
<!-- 10 -->
<g id="node10" class="node"><title>10</title>
<polygon fill="gold" stroke="black" stroke-width="2" points="6384,-199 6190,-199 6190,-163 6384,-163 6384,-199"/>
<text text-anchor="middle" x="6287" y="-177.3" font-family="Times,serif" font-size="14.00">addPasswordResetToken</text>
</g>
<!-- 40 -->
<g id="node38" class="node"><title>40</title>
<polygon fill="goldenrod" stroke="black" stroke-width="2" points="6030,-124 5828,-124 5828,-88 6030,-88 6030,-124"/>
<text text-anchor="middle" x="5929" y="-102.3" font-family="Times,serif" font-size="14.00">freshPasswordResetToken</text>
</g>
<!-- 10&#45;&gt;40 -->
<g id="edge6" class="edge"><title>10&#45;&gt;40</title>
<path fill="none" stroke="chartreuse" d="M6189.72,-164.003C6186.78,-163.647 6183.87,-163.311 6181,-163 6118.6,-156.244 6101.08,-169.457 6040,-155 6015.73,-149.255 5990.08,-138.504 5969.56,-128.632"/>
<polygon fill="chartreuse" stroke="chartreuse" points="5971.03,-125.456 5960.51,-124.178 5967.94,-131.736 5971.03,-125.456"/>
</g>
<!-- 11 -->
<g id="node11" class="node"><title>11</title>
<polygon fill="gold" stroke="black" stroke-width="2" points="6706.5,-271 6585.5,-271 6585.5,-235 6706.5,-235 6706.5,-271"/>
<text text-anchor="middle" x="6646" y="-249.3" font-family="Times,serif" font-size="14.00">addPersona</text>
</g>
<!-- 12 -->
<g id="node12" class="node"><title>12</title>
<polygon fill="gold" stroke="black" stroke-width="2" points="6567,-271 6397,-271 6397,-235 6567,-235 6567,-271"/>
<text text-anchor="middle" x="6482" y="-249.3" font-family="Times,serif" font-size="14.00">addPersonaToGroup</text>
</g>
<!-- 13 -->
<g id="node13" class="node"><title>13</title>
<polygon fill="gold" stroke="black" stroke-width="2" points="6837.5,-199 6718.5,-199 6718.5,-163 6837.5,-163 6837.5,-199"/>
<text text-anchor="middle" x="6778" y="-177.3" font-family="Times,serif" font-size="14.00">addService</text>
</g>
<!-- 43 -->
<g id="node41" class="node"><title>43</title>
<polygon fill="goldenrod" stroke="black" stroke-width="2" points="6185.5,-124 6048.5,-124 6048.5,-88 6185.5,-88 6185.5,-124"/>
<text text-anchor="middle" x="6117" y="-102.3" font-family="Times,serif" font-size="14.00">freshServiceId</text>
</g>
<!-- 13&#45;&gt;43 -->
<g id="edge8" class="edge"><title>13&#45;&gt;43</title>
<path fill="none" stroke="black" d="M6718.31,-177.295C6642.64,-173.882 6508.14,-167.868 6393,-163 6371,-162.07 6216.06,-161.423 6195,-155 6177.62,-149.699 6160.21,-139.566 6146.27,-129.97"/>
<polygon fill="black" stroke="black" points="6148.23,-127.075 6138.06,-124.113 6144.17,-132.772 6148.23,-127.075"/>
</g>
<!-- 14 -->
<g id="node69" class="node"><title>14</title>
<polygon fill="bisque" stroke="black" stroke-width="2" points="7319,-124 7173,-124 7173,-88 7319,-88 7319,-124"/>
<text text-anchor="middle" x="7246" y="-102.3" font-family="Times,serif" font-size="14.00">addServicePrim</text>
</g>
<!-- 13&#45;&gt;14 -->
<g id="edge7" class="edge"><title>13&#45;&gt;14</title>
<path fill="none" stroke="black" d="M6837.53,-179.341C6929.63,-177.777 7102.17,-172.532 7161,-155 7179.6,-149.457 7198.57,-139.267 7213.86,-129.698"/>
<polygon fill="black" stroke="black" points="7215.9,-132.543 7222.4,-124.175 7212.1,-126.664 7215.9,-132.543"/>
</g>
<!-- 15 -->
<g id="node14" class="node"><title>15</title>
<polygon fill="gold" stroke="black" stroke-width="2" points="596.5,-271 411.5,-271 411.5,-235 596.5,-235 596.5,-271"/>
<text text-anchor="middle" x="504" y="-249.3" font-family="Times,serif" font-size="14.00">addServiceRegistration</text>
</g>
<!-- 15&#45;&gt;7 -->
<g id="edge10" class="edge"><title>15&#45;&gt;7</title>
<path fill="none" stroke="black" d="M554.13,-234.966C583.038,-225.142 619.569,-212.729 649.998,-202.389"/>
<polygon fill="black" stroke="black" points="651.303,-205.642 659.645,-199.111 649.051,-199.014 651.303,-205.642"/>
</g>
<!-- 16 -->
<g id="node15" class="node"><title>16</title>
<polygon fill="gold" stroke="black" stroke-width="2" points="3052,-199 2876,-199 2876,-163 3052,-163 3052,-199"/>
<text text-anchor="middle" x="2964" y="-177.3" font-family="Times,serif" font-size="14.00">addUnconfirmedUser</text>
</g>
<!-- 39 -->
<g id="node37" class="node"><title>39</title>
<polygon fill="goldenrod" stroke="black" stroke-width="2" points="3061,-124 2867,-124 2867,-88 3061,-88 3061,-124"/>
<text text-anchor="middle" x="2964" y="-102.3" font-family="Times,serif" font-size="14.00">freshConfirmationToken</text>
</g>
<!-- 16&#45;&gt;39 -->
<g id="edge11" class="edge"><title>16&#45;&gt;39</title>
<path fill="none" stroke="black" d="M2964,-162.7C2964,-154.245 2964,-143.869 2964,-134.373"/>
<polygon fill="black" stroke="black" points="2967.5,-134.176 2964,-124.176 2960.5,-134.176 2967.5,-134.176"/>
</g>
<!-- 17 -->
<g id="node16" class="node"><title>17</title>
<polygon fill="gold" stroke="black" stroke-width="2" points="6227,-271 6123,-271 6123,-235 6227,-235 6227,-271"/>
<text text-anchor="middle" x="6175" y="-249.3" font-family="Times,serif" font-size="14.00">addUser</text>
</g>
<!-- 18 -->
<g id="node17" class="node"><title>18</title>
<polygon fill="gold" stroke="black" stroke-width="2" points="6104.5,-271 5985.5,-271 5985.5,-235 6104.5,-235 6104.5,-271"/>
<text text-anchor="middle" x="6045" y="-249.3" font-family="Times,serif" font-size="14.00">agentRoles</text>
</g>
<!-- 19 -->
<g id="node18" class="node"><title>19</title>
<polygon fill="gold" stroke="black" stroke-width="2" points="5967.5,-271 5838.5,-271 5838.5,-235 5967.5,-235 5967.5,-271"/>
<text text-anchor="middle" x="5903" y="-249.3" font-family="Times,serif" font-size="14.00">allServiceIds</text>
</g>
<!-- 20 -->
<g id="node19" class="node"><title>20</title>
<polygon fill="gold" stroke="black" stroke-width="2" points="5820,-271 5702,-271 5702,-235 5820,-235 5820,-271"/>
<text text-anchor="middle" x="5761" y="-249.3" font-family="Times,serif" font-size="14.00">assignRole</text>
</g>
<!-- 21 -->
<g id="node20" class="node"><title>21</title>
<polygon fill="gold" stroke="black" stroke-width="2" points="5684,-271 5466,-271 5466,-235 5684,-235 5684,-271"/>
<text text-anchor="middle" x="5575" y="-249.3" font-family="Times,serif" font-size="14.00">autocreateServiceIfMissing&#39;P</text>
</g>
<!-- 21&#45;&gt;8 -->
<g id="edge12" class="edge"><title>21&#45;&gt;8</title>
<path fill="none" stroke="black" d="M5612.43,-234.876C5633.25,-225.349 5659.35,-213.407 5681.48,-203.283"/>
<polygon fill="black" stroke="black" points="5683.06,-206.411 5690.69,-199.068 5680.14,-200.046 5683.06,-206.411"/>
</g>
<!-- 26 -->
<g id="node25" class="node"><title>26</title>
<polygon fill="goldenrod" stroke="black" stroke-width="2" points="5649.5,-199 5486.5,-199 5486.5,-163 5649.5,-163 5649.5,-199"/>
<text text-anchor="middle" x="5568" y="-177.3" font-family="Times,serif" font-size="14.00">contextsForService</text>
</g>
<!-- 21&#45;&gt;26 -->
<g id="edge13" class="edge"><title>21&#45;&gt;26</title>
<path fill="none" stroke="black" d="M5573.27,-234.697C5572.5,-226.983 5571.57,-217.712 5570.71,-209.112"/>
<polygon fill="black" stroke="black" points="5574.19,-208.706 5569.71,-199.104 5567.22,-209.403 5574.19,-208.706"/>
</g>
<!-- 51 -->
<g id="node49" class="node"><title>51</title>
<polygon fill="goldenrod" stroke="black" stroke-width="2" points="5456.5,-199 5319.5,-199 5319.5,-163 5456.5,-163 5456.5,-199"/>
<text text-anchor="middle" x="5388" y="-177.3" font-family="Times,serif" font-size="14.00">lookupService</text>
</g>
<!-- 21&#45;&gt;51 -->
<g id="edge14" class="edge"><title>21&#45;&gt;51</title>
<path fill="none" stroke="black" d="M5529.25,-234.876C5503.24,-225.137 5470.47,-212.872 5443.05,-202.608"/>
<polygon fill="black" stroke="black" points="5444.19,-199.296 5433.6,-199.068 5441.74,-205.852 5444.19,-199.296"/>
</g>
<!-- 22 -->
<g id="node21" class="node"><title>22</title>
<polygon fill="gold" stroke="black" stroke-width="2" points="2802.5,-271 2653.5,-271 2653.5,-235 2802.5,-235 2802.5,-271"/>
<text text-anchor="middle" x="2728" y="-249.3" font-family="Times,serif" font-size="14.00">changePassword</text>
</g>
<!-- 22&#45;&gt;4 -->
<g id="edge15" class="edge"><title>22&#45;&gt;4</title>
<path fill="none" stroke="black" d="M2802.62,-236.501C2805.45,-235.982 2808.25,-235.48 2811,-235 2918.46,-216.275 2948.23,-215.123 3060.25,-199.1"/>
<polygon fill="black" stroke="black" points="3060.86,-202.548 3070.26,-197.66 3059.86,-195.619 3060.86,-202.548"/>
</g>
<!-- 23 -->
<g id="node22" class="node"><title>23</title>
<polygon fill="gold" stroke="black" stroke-width="2" points="5298,-271 5158,-271 5158,-235 5298,-235 5298,-271"/>
<text text-anchor="middle" x="5228" y="-249.3" font-family="Times,serif" font-size="14.00">collectGarbage</text>
</g>
<!-- 24 -->
<g id="node23" class="node"><title>24</title>
<polygon fill="gold" stroke="black" stroke-width="2" points="4363.5,-271 4210.5,-271 4210.5,-235 4363.5,-235 4363.5,-271"/>
<text text-anchor="middle" x="4287" y="-249.3" font-family="Times,serif" font-size="14.00">confirmNewUser</text>
</g>
<!-- 24&#45;&gt;6 -->
<g id="edge16" class="edge"><title>24&#45;&gt;6</title>
<path fill="none" stroke="black" d="M4244.19,-234.876C4220.05,-225.222 4189.72,-213.087 4164.19,-202.878"/>
<polygon fill="black" stroke="black" points="4165.26,-199.533 4154.67,-199.068 4162.66,-206.032 4165.26,-199.533"/>
</g>
<!-- 25 -->
<g id="node24" class="node"><title>25</title>
<polygon fill="gold" stroke="black" stroke-width="2" points="4888,-271 4686,-271 4686,-235 4888,-235 4888,-271"/>
<text text-anchor="middle" x="4787" y="-249.3" font-family="Times,serif" font-size="14.00">confirmUserEmailChange</text>
</g>
<!-- 28 -->
<g id="node27" class="node"><title>28</title>
<polygon fill="gold" stroke="black" stroke-width="2" points="4668,-271 4534,-271 4534,-235 4668,-235 4668,-271"/>
<text text-anchor="middle" x="4601" y="-249.3" font-family="Times,serif" font-size="14.00">deleteContext</text>
</g>
<!-- 29 -->
<g id="node28" class="node"><title>29</title>
<polygon fill="gold" stroke="black" stroke-width="2" points="4516,-271 4382,-271 4382,-235 4516,-235 4516,-271"/>
<text text-anchor="middle" x="4449" y="-249.3" font-family="Times,serif" font-size="14.00">deletePersona</text>
</g>
<!-- 30 -->
<g id="node29" class="node"><title>30</title>
<polygon fill="gold" stroke="black" stroke-width="2" points="5447.5,-271 5316.5,-271 5316.5,-235 5447.5,-235 5447.5,-271"/>
<text text-anchor="middle" x="5382" y="-249.3" font-family="Times,serif" font-size="14.00">deleteService</text>
</g>
<!-- 30&#45;&gt;51 -->
<g id="edge17" class="edge"><title>30&#45;&gt;51</title>
<path fill="none" stroke="black" d="M5383.48,-234.697C5384.14,-226.983 5384.94,-217.712 5385.68,-209.112"/>
<polygon fill="black" stroke="black" points="5389.17,-209.367 5386.53,-199.104 5382.19,-208.769 5389.17,-209.367"/>
</g>
<!-- 31 -->
<g id="node30" class="node"><title>31</title>
<polygon fill="gold" stroke="black" stroke-width="2" points="4192,-271 4076,-271 4076,-235 4192,-235 4192,-271"/>
<text text-anchor="middle" x="4134" y="-249.3" font-family="Times,serif" font-size="14.00">deleteUser</text>
</g>
<!-- 32 -->
<g id="node31" class="node"><title>32</title>
<polygon fill="gold" stroke="black" stroke-width="2" points="805,-271 615,-271 615,-235 805,-235 805,-271"/>
<text text-anchor="middle" x="710" y="-249.3" font-family="Times,serif" font-size="14.00">dropServiceRegistration</text>
</g>
<!-- 32&#45;&gt;7 -->
<g id="edge18" class="edge"><title>32&#45;&gt;7</title>
<path fill="none" stroke="black" d="M710,-234.697C710,-226.983 710,-217.712 710,-209.112"/>
<polygon fill="black" stroke="black" points="713.5,-209.104 710,-199.104 706.5,-209.104 713.5,-209.104"/>
</g>
<!-- 33 -->
<g id="node32" class="node"><title>33</title>
<polygon fill="gold" stroke="black" stroke-width="2" points="3799,-271 3639,-271 3639,-235 3799,-235 3799,-271"/>
<text text-anchor="middle" x="3719" y="-249.3" font-family="Times,serif" font-size="14.00">endServiceSession</text>
</g>
<!-- 34 -->
<g id="node33" class="node"><title>34</title>
<polygon fill="gold" stroke="black" stroke-width="2" points="3620.5,-271 3457.5,-271 3457.5,-235 3620.5,-235 3620.5,-271"/>
<text text-anchor="middle" x="3539" y="-249.3" font-family="Times,serif" font-size="14.00">endThentosSession</text>
</g>
<!-- 35 -->
<g id="node34" class="node"><title>35</title>
<polygon fill="gold" stroke="black" stroke-width="2" points="6601.5,-124 6430.5,-124 6430.5,-88 6601.5,-88 6601.5,-124"/>
<text text-anchor="middle" x="6516" y="-102.3" font-family="Times,serif" font-size="14.00">existsServiceSession</text>
</g>
<!-- 35&#45;&gt;52 -->
<g id="edge19" class="edge"><title>35&#45;&gt;52</title>
<path fill="none" stroke="black" d="M6465.38,-87.9656C6436.19,-78.1425 6399.31,-65.7291 6368.58,-55.3891"/>
<polygon fill="black" stroke="black" points="6369.44,-51.9833 6358.84,-52.1108 6367.2,-58.6177 6369.44,-51.9833"/>
</g>
<!-- 36 -->
<g id="node35" class="node"><title>36</title>
<polygon fill="gold" stroke="black" stroke-width="2" points="564,-199 390,-199 390,-163 564,-163 564,-199"/>
<text text-anchor="middle" x="477" y="-177.3" font-family="Times,serif" font-size="14.00">existsThentosSession</text>
</g>
<!-- 36&#45;&gt;53 -->
<g id="edge20" class="edge"><title>36&#45;&gt;53</title>
<path fill="none" stroke="black" d="M564.042,-164.002C567.06,-163.634 570.053,-163.298 573,-163 641.121,-156.123 814.442,-171.058 881,-155 903.1,-149.668 926.083,-139.046 944.435,-129.147"/>
<polygon fill="black" stroke="black" points="946.268,-132.133 953.314,-124.22 942.872,-126.012 946.268,-132.133"/>
</g>
<!-- 37 -->
<g id="node36" class="node"><title>37</title>
<polygon fill="gold" stroke="black" stroke-width="2" points="3439.5,-271 3316.5,-271 3316.5,-235 3439.5,-235 3439.5,-271"/>
<text text-anchor="middle" x="3378" y="-249.3" font-family="Times,serif" font-size="14.00">findPersona</text>
</g>
<!-- 42 -->
<g id="node40" class="node"><title>42</title>
<polygon fill="goldenrod" stroke="black" stroke-width="2" points="5811.5,-52 5646.5,-52 5646.5,-16 5811.5,-16 5811.5,-52"/>
<text text-anchor="middle" x="5729" y="-30.3" font-family="Times,serif" font-size="14.00">freshRandomName</text>
</g>
<!-- 39&#45;&gt;42 -->
<g id="edge22" class="edge"><title>39&#45;&gt;42</title>
<path fill="none" stroke="black" d="M3061.07,-101.845C3215.58,-96.8734 3526.97,-87.056 3791,-80 4500.92,-61.0277 5357.26,-42.7575 5636.28,-36.9226"/>
<polygon fill="black" stroke="black" points="5636.43,-40.4202 5646.35,-36.712 5636.28,-33.4217 5636.43,-40.4202"/>
</g>
<!-- 40&#45;&gt;42 -->
<g id="edge23" class="edge"><title>40&#45;&gt;42</title>
<path fill="none" stroke="black" d="M5880.33,-87.9656C5852.39,-78.185 5817.1,-65.8365 5787.64,-55.5236"/>
<polygon fill="black" stroke="black" points="5788.48,-52.1109 5777.89,-52.1108 5786.17,-58.7179 5788.48,-52.1109"/>
</g>
<!-- 41 -->
<g id="node39" class="node"><title>41</title>
<polygon fill="goldenrod" stroke="black" stroke-width="2" points="6172,-199 6026,-199 6026,-163 6172,-163 6172,-199"/>
<text text-anchor="middle" x="6099" y="-177.3" font-family="Times,serif" font-size="14.00">freshRandom20</text>
</g>
<!-- 43&#45;&gt;42 -->
<g id="edge24" class="edge"><title>43&#45;&gt;42</title>
<path fill="none" stroke="black" d="M6067.83,-87.8781C6058.34,-84.9625 6048.42,-82.1777 6039,-80 5966.85,-63.3222 5883.75,-51.6547 5821.75,-44.3862"/>
<polygon fill="black" stroke="black" points="5821.94,-40.8843 5811.6,-43.2131 5821.14,-47.838 5821.94,-40.8843"/>
</g>
<!-- 44 -->
<g id="node42" class="node"><title>44</title>
<polygon fill="goldenrod" stroke="black" stroke-width="2" points="5630.5,-124 5481.5,-124 5481.5,-88 5630.5,-88 5630.5,-124"/>
<text text-anchor="middle" x="5556" y="-102.3" font-family="Times,serif" font-size="14.00">freshServiceKey</text>
</g>
<!-- 44&#45;&gt;42 -->
<g id="edge25" class="edge"><title>44&#45;&gt;42</title>
<path fill="none" stroke="black" d="M5598.32,-87.8761C5622.18,-78.2216 5652.17,-66.0865 5677.4,-55.8775"/>
<polygon fill="black" stroke="black" points="5678.86,-59.0637 5686.82,-52.0683 5676.23,-52.5747 5678.86,-59.0637"/>
</g>
<!-- 45 -->
<g id="node43" class="node"><title>45</title>
<polygon fill="goldenrod" stroke="black" stroke-width="2" points="4002,-124 3800,-124 3800,-88 4002,-88 4002,-124"/>
<text text-anchor="middle" x="3901" y="-102.3" font-family="Times,serif" font-size="14.00">freshServiceSessionToken</text>
</g>
<!-- 45&#45;&gt;42 -->
<g id="edge26" class="edge"><title>45&#45;&gt;42</title>
<path fill="none" stroke="black" d="M3966.06,-87.9865C3980.74,-84.7706 3996.33,-81.841 4011,-80 4329.52,-40.0312 5326.38,-35.4604 5636.19,-35.0189"/>
<polygon fill="black" stroke="black" points="5636.48,-38.5186 5646.48,-35.0054 5636.47,-31.5186 5636.48,-38.5186"/>
</g>
<!-- 46&#45;&gt;42 -->
<g id="edge27" class="edge"><title>46&#45;&gt;42</title>
<path fill="none" stroke="black" d="M5729,-87.6966C5729,-79.9827 5729,-70.7125 5729,-62.1124"/>
<polygon fill="black" stroke="black" points="5732.5,-62.1043 5729,-52.1043 5725.5,-62.1044 5732.5,-62.1043"/>
</g>
<!-- 47 -->
<g id="node45" class="node"><title>47</title>
<polygon fill="gold" stroke="black" stroke-width="2" points="6412,-124 6204,-124 6204,-88 6412,-88 6412,-124"/>
<text text-anchor="middle" x="6308" y="-102.3" font-family="Times,serif" font-size="14.00">getServiceSessionMetadata</text>
</g>
<!-- 47&#45;&gt;52 -->
<g id="edge28" class="edge"><title>47&#45;&gt;52</title>
<path fill="none" stroke="black" d="M6308,-87.6966C6308,-79.9827 6308,-70.7125 6308,-62.1124"/>
<polygon fill="black" stroke="black" points="6311.5,-62.1043 6308,-52.1043 6304.5,-62.1044 6311.5,-62.1043"/>
</g>
<!-- 48 -->
<g id="node46" class="node"><title>48</title>
<polygon fill="gold" stroke="black" stroke-width="2" points="1004.5,-271 823.5,-271 823.5,-235 1004.5,-235 1004.5,-271"/>
<text text-anchor="middle" x="914" y="-249.3" font-family="Times,serif" font-size="14.00">lookupConfirmedUser</text>
</g>
<!-- 48&#45;&gt;3 -->
<g id="edge29" class="edge"><title>48&#45;&gt;3</title>
<path fill="none" stroke="black" d="M980.678,-234.966C1021.01,-224.663 1072.49,-211.51 1114.06,-200.889"/>
<polygon fill="black" stroke="black" points="1115.04,-204.253 1123.86,-198.386 1113.3,-197.47 1115.04,-204.253"/>
</g>
<!-- 49 -->
<g id="node47" class="node"><title>49</title>
<polygon fill="gold" stroke="black" stroke-width="2" points="2636,-271 2406,-271 2406,-235 2636,-235 2636,-271"/>
<text text-anchor="middle" x="2521" y="-249.3" font-family="Times,serif" font-size="14.00">lookupConfirmedUserByEmail</text>
</g>
<!-- 49&#45;&gt;3 -->
<g id="edge30" class="edge"><title>49&#45;&gt;3</title>
<path fill="none" stroke="black" d="M2405.86,-235.847C2402.88,-235.547 2399.92,-235.264 2397,-235 1968.35,-196.304 1451.54,-185.6 1262.16,-182.868"/>
<polygon fill="black" stroke="black" points="1262.09,-179.366 1252.04,-182.725 1261.99,-186.366 1262.09,-179.366"/>
</g>
<!-- 50 -->
<g id="node48" class="node"><title>50</title>
<polygon fill="gold" stroke="black" stroke-width="2" points="1253,-271 1023,-271 1023,-235 1253,-235 1253,-271"/>
<text text-anchor="middle" x="1138" y="-249.3" font-family="Times,serif" font-size="14.00">lookupConfirmedUserByName</text>
</g>
<!-- 50&#45;&gt;3 -->
<g id="edge31" class="edge"><title>50&#45;&gt;3</title>
<path fill="none" stroke="black" d="M1150.36,-234.697C1156.23,-226.474 1163.37,-216.483 1169.84,-207.421"/>
<polygon fill="black" stroke="black" points="1172.82,-209.276 1175.78,-199.104 1167.12,-205.207 1172.82,-209.276"/>
</g>
<!-- 53&#45;&gt;2 -->
<g id="edge32" class="edge"><title>53&#45;&gt;2</title>
<path fill="none" stroke="black" d="M981,-87.6966C981,-79.9827 981,-70.7125 981,-62.1124"/>
<polygon fill="black" stroke="black" points="984.5,-62.1043 981,-52.1043 977.5,-62.1044 984.5,-62.1043"/>
</g>
<!-- 54 -->
<g id="node52" class="node"><title>54</title>
<polygon fill="gold" stroke="black" stroke-width="2" points="6378.5,-271 6245.5,-271 6245.5,-235 6378.5,-235 6378.5,-271"/>
<text text-anchor="middle" x="6312" y="-249.3" font-family="Times,serif" font-size="14.00">makeCaptcha</text>
</g>
<!-- 54&#45;&gt;41 -->
<g id="edge34" class="edge"><title>54&#45;&gt;41</title>
<path fill="none" stroke="black" d="M6260.17,-234.966C6230.15,-225.1 6192.18,-212.622 6160.63,-202.255"/>
<polygon fill="black" stroke="black" points="6161.66,-198.908 6151.07,-199.111 6159.47,-205.558 6161.66,-198.908"/>
</g>
<!-- 38 -->
<g id="node70" class="node"><title>38</title>
<polygon fill="bisque" stroke="black" stroke-width="2" points="7478.5,-124 7337.5,-124 7337.5,-88 7478.5,-88 7478.5,-124"/>
<text text-anchor="middle" x="7408" y="-102.3" font-family="Times,serif" font-size="14.00">freshCaptchaId</text>
</g>
<!-- 54&#45;&gt;38 -->
<g id="edge33" class="edge"><title>54&#45;&gt;38</title>
<path fill="none" stroke="black" d="M6378.63,-236.536C6381.79,-235.978 6384.92,-235.462 6388,-235 6802.63,-172.688 6929.45,-285.23 7328,-155 7345.47,-149.292 7363.16,-139.216 7377.46,-129.765"/>
<polygon fill="black" stroke="black" points="7379.6,-132.537 7385.88,-124.005 7375.65,-126.758 7379.6,-132.537"/>
</g>
<!-- 55 -->
<g id="node53" class="node"><title>55</title>
<polygon fill="gold" stroke="black" stroke-width="2" points="2388,-271 2248,-271 2248,-235 2388,-235 2388,-271"/>
<text text-anchor="middle" x="2318" y="-249.3" font-family="Times,serif" font-size="14.00">personaGroups</text>
</g>
<!-- 56 -->
<g id="node54" class="node"><title>56</title>
<polygon fill="gold" stroke="black" stroke-width="2" points="2230,-271 2018,-271 2018,-235 2230,-235 2230,-271"/>
<text text-anchor="middle" x="2124" y="-249.3" font-family="Times,serif" font-size="14.00">registerPersonaWithContext</text>
</g>
<!-- 57 -->
<g id="node55" class="node"><title>57</title>
<polygon fill="gold" stroke="black" stroke-width="2" points="1999.5,-271 1800.5,-271 1800.5,-235 1999.5,-235 1999.5,-271"/>
<text text-anchor="middle" x="1900" y="-249.3" font-family="Times,serif" font-size="14.00">removeGroupFromGroup</text>
</g>
<!-- 58 -->
<g id="node56" class="node"><title>58</title>
<polygon fill="gold" stroke="black" stroke-width="2" points="1782.5,-271 1575.5,-271 1575.5,-235 1782.5,-235 1782.5,-271"/>
<text text-anchor="middle" x="1679" y="-249.3" font-family="Times,serif" font-size="14.00">removePersonaFromGroup</text>
</g>
<!-- 59 -->
<g id="node57" class="node"><title>59</title>
<polygon fill="gold" stroke="black" stroke-width="2" points="2857.5,-199 2660.5,-199 2660.5,-163 2857.5,-163 2857.5,-199"/>
<text text-anchor="middle" x="2759" y="-177.3" font-family="Times,serif" font-size="14.00">requestUserEmailChange</text>
</g>
<!-- 59&#45;&gt;39 -->
<g id="edge35" class="edge"><title>59&#45;&gt;39</title>
<path fill="none" stroke="black" d="M2806.8,-162.977C2836.61,-152.363 2875.15,-138.641 2906.6,-127.439"/>
<polygon fill="black" stroke="black" points="2907.87,-130.702 2916.12,-124.05 2905.52,-124.108 2907.87,-130.702"/>
</g>
<!-- 60 -->
<g id="node58" class="node"><title>60</title>
<polygon fill="gold" stroke="black" stroke-width="2" points="1557,-271 1421,-271 1421,-235 1557,-235 1557,-271"/>
<text text-anchor="middle" x="1489" y="-249.3" font-family="Times,serif" font-size="14.00">resetPassword</text>
</g>
<!-- 61 -->
<g id="node59" class="node"><title>61</title>
<polygon fill="gold" stroke="black" stroke-width="2" points="1106,-199 856,-199 856,-163 1106,-163 1106,-199"/>
<text text-anchor="middle" x="981" y="-177.3" font-family="Times,serif" font-size="14.00">serviceNamesFromThentosSession</text>
</g>
<!-- 61&#45;&gt;53 -->
<g id="edge36" class="edge"><title>61&#45;&gt;53</title>
<path fill="none" stroke="black" d="M981,-162.7C981,-154.245 981,-143.869 981,-134.373"/>
<polygon fill="black" stroke="black" points="984.5,-134.176 981,-124.176 977.5,-134.176 984.5,-134.176"/>
</g>
<!-- 62 -->
<g id="node60" class="node"><title>62</title>
<polygon fill="gold" stroke="black" stroke-width="2" points="1402.5,-271 1271.5,-271 1271.5,-235 1402.5,-235 1402.5,-271"/>
<text text-anchor="middle" x="1337" y="-249.3" font-family="Times,serif" font-size="14.00">solveCaptcha</text>
</g>
<!-- 63 -->
<g id="node61" class="node"><title>63</title>
<polygon fill="gold" stroke="black" stroke-width="2" points="3983,-199 3819,-199 3819,-163 3983,-163 3983,-199"/>
<text text-anchor="middle" x="3901" y="-177.3" font-family="Times,serif" font-size="14.00">startServiceSession</text>
</g>
<!-- 63&#45;&gt;27 -->
<g id="edge37" class="edge"><title>63&#45;&gt;27</title>
<path fill="none" stroke="black" d="M3983.26,-163.403C3992.7,-160.88 4002.12,-158.078 4011,-155 4031.46,-147.909 4053.27,-137.883 4071.37,-128.827"/>
<polygon fill="black" stroke="black" points="4073.14,-131.854 4080.46,-124.201 4069.96,-125.614 4073.14,-131.854"/>
</g>
<!-- 63&#45;&gt;45 -->
<g id="edge38" class="edge"><title>63&#45;&gt;45</title>
<path fill="none" stroke="black" d="M3901,-162.7C3901,-154.245 3901,-143.869 3901,-134.373"/>
<polygon fill="black" stroke="black" points="3904.5,-134.176 3901,-124.176 3897.5,-134.176 3904.5,-134.176"/>
</g>
<!-- 63&#45;&gt;53 -->
<g id="edge39" class="edge"><title>63&#45;&gt;53</title>
<path fill="none" stroke="black" d="M3818.67,-177.436C3702.11,-173.864 3482.29,-167.341 3295,-163 3100.8,-158.499 3052.21,-159.261 2858,-155 2179.56,-140.115 1363.3,-117.697 1082.01,-109.841"/>
<polygon fill="black" stroke="black" points="1081.92,-106.337 1071.82,-109.557 1081.72,-113.335 1081.92,-106.337"/>
</g>
<!-- 64 -->
<g id="node62" class="node"><title>64</title>
<polygon fill="gold" stroke="black" stroke-width="2" points="5140,-271 4906,-271 4906,-235 5140,-235 5140,-271"/>
<text text-anchor="middle" x="5023" y="-249.3" font-family="Times,serif" font-size="14.00">startThentosSessionByServiceId</text>
</g>
<!-- 64&#45;&gt;6 -->
<g id="edge40" class="edge"><title>64&#45;&gt;6</title>
<path fill="none" stroke="black" d="M4906,-235.944C4902.97,-235.615 4899.96,-235.3 4897,-235 4662.45,-211.286 4387.37,-195.458 4233.01,-187.661"/>
<polygon fill="black" stroke="black" points="4233.18,-184.165 4223.02,-187.159 4232.83,-191.156 4233.18,-184.165"/>
</g>
<!-- 65 -->
<g id="node63" class="node"><title>65</title>
<polygon fill="gold" stroke="black" stroke-width="2" points="3298.5,-271 3057.5,-271 3057.5,-235 3298.5,-235 3298.5,-271"/>
<text text-anchor="middle" x="3178" y="-249.3" font-family="Times,serif" font-size="14.00">startThentosSessionByUserEmail</text>
</g>
<!-- 65&#45;&gt;4 -->
<g id="edge41" class="edge"><title>65&#45;&gt;4</title>
<path fill="none" stroke="black" d="M3178,-234.697C3178,-226.983 3178,-217.712 3178,-209.112"/>
<polygon fill="black" stroke="black" points="3181.5,-209.104 3178,-199.104 3174.5,-209.104 3181.5,-209.104"/>
</g>
<!-- 65&#45;&gt;6 -->
<g id="edge42" class="edge"><title>65&#45;&gt;6</title>
<path fill="none" stroke="black" d="M3298.72,-235.891C3301.84,-235.578 3304.94,-235.28 3308,-235 3607.9,-207.541 3687.3,-227.93 3990.93,-199.049"/>
<polygon fill="black" stroke="black" points="3991.28,-202.532 4000.9,-198.091 3990.61,-195.564 3991.28,-202.532"/>
</g>
<!-- 66 -->
<g id="node64" class="node"><title>66</title>
<polygon fill="gold" stroke="black" stroke-width="2" points="3039.5,-271 2820.5,-271 2820.5,-235 3039.5,-235 3039.5,-271"/>
<text text-anchor="middle" x="2930" y="-249.3" font-family="Times,serif" font-size="14.00">startThentosSessionByUserId</text>
</g>
<!-- 66&#45;&gt;4 -->
<g id="edge43" class="edge"><title>66&#45;&gt;4</title>
<path fill="none" stroke="black" d="M2990.35,-234.966C3025.75,-224.972 3070.66,-212.298 3107.66,-201.854"/>
<polygon fill="black" stroke="black" points="3108.71,-205.196 3117.38,-199.111 3106.8,-198.459 3108.71,-205.196"/>
</g>
<!-- 66&#45;&gt;6 -->
<g id="edge44" class="edge"><title>66&#45;&gt;6</title>
<path fill="none" stroke="black" d="M3039.53,-235.917C3042.72,-235.588 3045.88,-235.281 3049,-235 3463.35,-197.596 3572.51,-235.838 3990.65,-199.059"/>
<polygon fill="black" stroke="black" points="3991.25,-202.519 4000.9,-198.148 3990.63,-195.547 3991.25,-202.519"/>
</g>
<!-- 67 -->
<g id="node65" class="node"><title>67</title>
<polygon fill="gold" stroke="black" stroke-width="2" points="4058.5,-271 3817.5,-271 3817.5,-235 4058.5,-235 4058.5,-271"/>
<text text-anchor="middle" x="3938" y="-249.3" font-family="Times,serif" font-size="14.00">startThentosSessionByUserName</text>
</g>
<!-- 67&#45;&gt;4 -->
<g id="edge45" class="edge"><title>67&#45;&gt;4</title>
<path fill="none" stroke="black" d="M3817.27,-236.02C3814.15,-235.669 3811.06,-235.328 3808,-235 3629.76,-215.858 3422.51,-199.568 3295.83,-190.282"/>
<polygon fill="black" stroke="black" points="3295.95,-186.782 3285.72,-189.544 3295.44,-193.763 3295.95,-186.782"/>
</g>
<!-- 67&#45;&gt;6 -->
<g id="edge46" class="edge"><title>67&#45;&gt;6</title>
<path fill="none" stroke="black" d="M3980.57,-234.876C4004.56,-225.222 4034.73,-213.087 4060.1,-202.878"/>
<polygon fill="black" stroke="black" points="4061.6,-206.048 4069.57,-199.068 4058.99,-199.554 4061.6,-206.048"/>
</g>
<!-- 68 -->
<g id="node66" class="node"><title>68</title>
<polygon fill="gold" stroke="black" stroke-width="2" points="393.5,-271 262.5,-271 262.5,-235 393.5,-235 393.5,-271"/>
<text text-anchor="middle" x="328" y="-249.3" font-family="Times,serif" font-size="14.00">unassignRole</text>
</g>
<!-- 69 -->
<g id="node67" class="node"><title>69</title>
<polygon fill="gold" stroke="black" stroke-width="2" points="244,-271 16,-271 16,-235 244,-235 244,-271"/>
<text text-anchor="middle" x="130" y="-249.3" font-family="Times,serif" font-size="14.00">unregisterPersonaFromContext</text>
</g>
<!-- 70 -->
<g id="node68" class="node"><title>70</title>
<polygon fill="gold" stroke="black" stroke-width="2" points="872,-124 660,-124 660,-88 872,-88 872,-124"/>
<text text-anchor="middle" x="766" y="-102.3" font-family="Times,serif" font-size="14.00">validateThentosUserSession</text>
</g>
<!-- 70&#45;&gt;2 -->
<g id="edge47" class="edge"><title>70&#45;&gt;2</title>
<path fill="none" stroke="black" d="M818.32,-87.9656C848.622,-78.1 886.948,-65.6215 918.788,-55.255"/>
<polygon fill="black" stroke="black" points="920.02,-58.5348 928.445,-52.1108 917.853,-51.8787 920.02,-58.5348"/>
</g>
<!-- 14&#45;&gt;44 -->
<g id="edge9" class="edge"><title>14&#45;&gt;44</title>
<path fill="none" stroke="chartreuse" d="M7223.3,-124.071C7205.2,-137.106 7178.57,-153.361 7152,-159 7131.58,-163.333 5669.42,-163.333 5649,-159 5626.55,-154.237 5604.12,-141.738 5586.92,-130.075"/>
<polygon fill="chartreuse" stroke="chartreuse" points="5588.62,-126.99 5578.42,-124.097 5584.59,-132.714 5588.62,-126.99"/>
</g>
<!-- 38&#45;&gt;42 -->
<g id="edge21" class="edge"><title>38&#45;&gt;42</title>
<path fill="none" stroke="black" d="M7361.15,-87.9792C7350.39,-84.7418 7338.91,-81.8051 7328,-80 7082.81,-39.4341 6458.41,-59.5002 6210,-52 6074.88,-47.9204 5918.45,-42.2081 5821.61,-38.5558"/>
<polygon fill="black" stroke="black" points="5821.68,-35.056 5811.55,-38.1759 5821.41,-42.051 5821.68,-35.056"/>
</g>
</g>
</svg>
