<?xml version="1.0" encoding="UTF-8" standalone="no"?>
<!DOCTYPE svg PUBLIC "-//W3C//DTD SVG 1.1//EN"
 "http://www.w3.org/Graphics/SVG/1.1/DTD/svg11.dtd">
<!-- Generated by graphviz version 2.38.0 (20140413.2041)
 -->
<!-- Title: Diagram of: Thentos.Frontend.Pages Pages: 1 -->
<svg width="4641pt" height="260pt"
 viewBox="0.00 0.00 4640.50 260.00" xmlns="http://www.w3.org/2000/svg" xmlns:xlink="http://www.w3.org/1999/xlink">
<g id="graph0" class="graph" transform="scale(1 1) rotate(0) translate(4 256)">
<title>Diagram of: Thentos.Frontend.Pages</title>
<polygon fill="white" stroke="none" points="-4,4 -4,-256 4636.5,-256 4636.5,4 -4,4"/>
<!-- 1 -->
<g id="node1" class="node"><title>1</title>
<polygon fill="bisque" stroke="black" stroke-width="2" points="1231.5,-108 1109.5,-108 1109.5,-72 1231.5,-72 1231.5,-108"/>
<text text-anchor="middle" x="1170.5" y="-86.3" font-family="Times,serif" font-size="14.00">basePagelet</text>
</g>
<!-- 2 -->
<g id="node2" class="node"><title>2</title>
<polygon fill="cyan" stroke="black" stroke-width="2" points="895,-36 770,-36 770,-0 895,-0 895,-36"/>
<text text-anchor="middle" x="832.5" y="-14.3" font-family="Times,serif" font-size="14.00">basePagelet&#39;</text>
</g>
<!-- 1&#45;&gt;2 -->
<g id="edge1" class="edge"><title>1&#45;&gt;2</title>
<path fill="none" stroke="black" d="M1109.29,-76.3235C1051.89,-64.4368 966.031,-46.6543 905.179,-34.0518"/>
<polygon fill="black" stroke="black" points="905.76,-30.5979 895.258,-31.9971 904.34,-37.4525 905.76,-30.5979"/>
</g>
<!-- 3 -->
<g id="node3" class="node"><title>3</title>
<polygon fill="cyan" stroke="black" stroke-width="2" points="300,-108 91,-108 91,-72 300,-72 300,-108"/>
<text text-anchor="middle" x="195.5" y="-86.3" font-family="Times,serif" font-size="14.00">confirmationMailSentBody</text>
</g>
<!-- 4 -->
<g id="node4" class="node"><title>4</title>
<polygon fill="goldenrod" stroke="black" stroke-width="2" points="588.5,-180 382.5,-180 382.5,-144 588.5,-144 588.5,-180"/>
<text text-anchor="middle" x="485.5" y="-158.3" font-family="Times,serif" font-size="14.00">confirmationMailSentPage</text>
</g>
<!-- 4&#45;&gt;1 -->
<g id="edge2" class="edge"><title>4&#45;&gt;1</title>
<path fill="none" stroke="black" d="M588.606,-145.118C591.602,-144.731 594.572,-144.357 597.5,-144 777.63,-122.018 990.613,-104.548 1099.14,-96.2533"/>
<polygon fill="black" stroke="black" points="1099.61,-99.728 1109.32,-95.4794 1099.08,-92.7481 1099.61,-99.728"/>
</g>
<!-- 4&#45;&gt;3 -->
<g id="edge3" class="edge"><title>4&#45;&gt;3</title>
<path fill="none" stroke="black" d="M414.929,-143.966C373.01,-133.847 319.706,-120.981 276.131,-110.463"/>
<polygon fill="black" stroke="black" points="276.678,-106.994 266.136,-108.05 275.035,-113.799 276.678,-106.994"/>
</g>
<!-- 5 -->
<g id="node5" class="node"><title>5</title>
<polygon fill="gold" stroke="black" stroke-width="2" points="221,-180 1.42109e-14,-180 1.42109e-14,-144 221,-144 221,-180"/>
<text text-anchor="middle" x="110.5" y="-158.3" font-family="Times,serif" font-size="14.00">confirmationMailSentSnippet</text>
</g>
<!-- 5&#45;&gt;3 -->
<g id="edge4" class="edge"><title>5&#45;&gt;3</title>
<path fill="none" stroke="black" d="M131.511,-143.697C142.216,-134.881 155.39,-124.032 166.996,-114.474"/>
<polygon fill="black" stroke="black" points="169.236,-117.163 174.73,-108.104 164.786,-111.76 169.236,-117.163"/>
</g>
<!-- 6 -->
<g id="node6" class="node"><title>6</title>
<polygon fill="cyan" stroke="black" stroke-width="2" points="2069,-108 1930,-108 1930,-72 2069,-72 2069,-108"/>
<text text-anchor="middle" x="1999.5" y="-86.3" font-family="Times,serif" font-size="14.00">csrfProofForm</text>
</g>
<!-- 7 -->
<g id="node7" class="node"><title>7</title>
<polygon fill="gold" stroke="black" stroke-width="2" points="1083.5,-180 929.5,-180 929.5,-144 1083.5,-144 1083.5,-180"/>
<text text-anchor="middle" x="1006.5" y="-158.3" font-family="Times,serif" font-size="14.00">dashboardPagelet</text>
</g>
<!-- 7&#45;&gt;1 -->
<g id="edge5" class="edge"><title>7&#45;&gt;1</title>
<path fill="none" stroke="black" d="M1046.62,-143.876C1069.14,-134.264 1097.42,-122.193 1121.27,-112.013"/>
<polygon fill="black" stroke="black" points="1122.69,-115.213 1130.51,-108.068 1119.94,-108.775 1122.69,-115.213"/>
</g>
<!-- 8 -->
<g id="node8" class="node"><title>8</title>
<polygon fill="gold" stroke="black" stroke-width="2" points="2909.5,-252 2751.5,-252 2751.5,-216 2909.5,-216 2909.5,-252"/>
<text text-anchor="middle" x="2830.5" y="-230.3" font-family="Times,serif" font-size="14.00">emailUpdateForm</text>
</g>
<!-- 35 -->
<g id="node35" class="node"><title>35</title>
<polygon fill="cyan" stroke="black" stroke-width="2" points="2897.5,-180 2763.5,-180 2763.5,-144 2897.5,-144 2897.5,-180"/>
<text text-anchor="middle" x="2830.5" y="-158.3" font-family="Times,serif" font-size="14.00">validateEmail</text>
</g>
<!-- 8&#45;&gt;35 -->
<g id="edge6" class="edge"><title>8&#45;&gt;35</title>
<path fill="none" stroke="black" d="M2830.5,-215.697C2830.5,-207.983 2830.5,-198.712 2830.5,-190.112"/>
<polygon fill="black" stroke="black" points="2834,-190.104 2830.5,-180.104 2827,-190.104 2834,-190.104"/>
</g>
<!-- 9 -->
<g id="node9" class="node"><title>9</title>
<polygon fill="gold" stroke="black" stroke-width="2" points="2345.5,-180 2175.5,-180 2175.5,-144 2345.5,-144 2345.5,-180"/>
<text text-anchor="middle" x="2260.5" y="-158.3" font-family="Times,serif" font-size="14.00">emailUpdateSnippet</text>
</g>
<!-- 9&#45;&gt;6 -->
<g id="edge7" class="edge"><title>9&#45;&gt;6</title>
<path fill="none" stroke="black" d="M2196.99,-143.966C2159.57,-133.93 2112.07,-121.19 2073.03,-110.721"/>
<polygon fill="black" stroke="black" points="2073.86,-107.321 2063.3,-108.111 2072.05,-114.082 2073.86,-107.321"/>
</g>
<!-- 10 -->
<g id="node10" class="node"><title>10</title>
<polygon fill="cyan" stroke="black" stroke-width="2" points="719,-108 606,-108 606,-72 719,-72 719,-108"/>
<text text-anchor="middle" x="662.5" y="-86.3" font-family="Times,serif" font-size="14.00">errorHtml</text>
</g>
<!-- 11 -->
<g id="node11" class="node"><title>11</title>
<polygon fill="gold" stroke="black" stroke-width="2" points="718,-180 607,-180 607,-144 718,-144 718,-180"/>
<text text-anchor="middle" x="662.5" y="-158.3" font-family="Times,serif" font-size="14.00">errorPage</text>
</g>
<!-- 11&#45;&gt;1 -->
<g id="edge8" class="edge"><title>11&#45;&gt;1</title>
<path fill="none" stroke="black" d="M718.241,-145.699C721.026,-145.09 723.79,-144.519 726.5,-144 856.864,-119.034 1011.15,-103.775 1099.25,-96.3933"/>
<polygon fill="black" stroke="black" points="1099.72,-99.8664 1109.4,-95.5535 1099.14,-92.8903 1099.72,-99.8664"/>
</g>
<!-- 11&#45;&gt;10 -->
<g id="edge9" class="edge"><title>11&#45;&gt;10</title>
<path fill="none" stroke="black" d="M662.5,-143.697C662.5,-135.983 662.5,-126.712 662.5,-118.112"/>
<polygon fill="black" stroke="black" points="666,-118.104 662.5,-108.104 659,-118.104 666,-118.104"/>
</g>
<!-- 12 -->
<g id="node12" class="node"><title>12</title>
<polygon fill="gold" stroke="black" stroke-width="2" points="364,-180 239,-180 239,-144 364,-144 364,-180"/>
<text text-anchor="middle" x="301.5" y="-158.3" font-family="Times,serif" font-size="14.00">errorPagelet</text>
</g>
<!-- 12&#45;&gt;10 -->
<g id="edge10" class="edge"><title>12&#45;&gt;10</title>
<path fill="none" stroke="black" d="M364.271,-145.899C367.387,-145.237 370.477,-144.6 373.5,-144 468.896,-125.063 496.518,-128.31 595.854,-108.023"/>
<polygon fill="black" stroke="black" points="596.614,-111.441 605.696,-105.985 595.194,-104.586 596.614,-111.441"/>
</g>
<!-- 13 -->
<g id="node13" class="node"><title>13</title>
<polygon fill="gold" stroke="black" stroke-width="2" points="1239,-180 1102,-180 1102,-144 1239,-144 1239,-180"/>
<text text-anchor="middle" x="1170.5" y="-158.3" font-family="Times,serif" font-size="14.00">notFoundPage</text>
</g>
<!-- 13&#45;&gt;1 -->
<g id="edge11" class="edge"><title>13&#45;&gt;1</title>
<path fill="none" stroke="black" d="M1170.5,-143.697C1170.5,-135.983 1170.5,-126.712 1170.5,-118.112"/>
<polygon fill="black" stroke="black" points="1174,-118.104 1170.5,-108.104 1167,-118.104 1174,-118.104"/>
</g>
<!-- 14 -->
<g id="node14" class="node"><title>14</title>
<polygon fill="gold" stroke="black" stroke-width="2" points="3281,-252 3102,-252 3102,-216 3281,-216 3281,-252"/>
<text text-anchor="middle" x="3191.5" y="-230.3" font-family="Times,serif" font-size="14.00">passwordUpdateForm</text>
</g>
<!-- 36 -->
<g id="node36" class="node"><title>36</title>
<polygon fill="cyan" stroke="black" stroke-width="2" points="3453,-180 3292,-180 3292,-144 3453,-144 3453,-180"/>
<text text-anchor="middle" x="3372.5" y="-158.3" font-family="Times,serif" font-size="14.00">validateNonEmpty</text>
</g>
<!-- 14&#45;&gt;36 -->
<g id="edge12" class="edge"><title>14&#45;&gt;36</title>
<path fill="none" stroke="black" stroke-width="1.69315" d="M3235.78,-215.876C3260.85,-206.179 3292.4,-193.98 3318.87,-183.743"/>
<polygon fill="black" stroke="black" stroke-width="1.69315" points="3320.3,-186.94 3328.37,-180.068 3317.78,-180.411 3320.3,-186.94"/>
</g>
<!-- 38 -->
<g id="node38" class="node"><title>38</title>
<polygon fill="cyan" stroke="black" stroke-width="2" points="3274,-180 3107,-180 3107,-144 3274,-144 3274,-180"/>
<text text-anchor="middle" x="3190.5" y="-158.3" font-family="Times,serif" font-size="14.00">validatePassChange</text>
</g>
<!-- 14&#45;&gt;38 -->
<g id="edge13" class="edge"><title>14&#45;&gt;38</title>
<path fill="none" stroke="black" d="M3191.25,-215.697C3191.14,-207.983 3191.01,-198.712 3190.89,-190.112"/>
<polygon fill="black" stroke="black" points="3194.39,-190.053 3190.74,-180.104 3187.39,-190.153 3194.39,-190.053"/>
</g>
<!-- 15 -->
<g id="node15" class="node"><title>15</title>
<polygon fill="gold" stroke="black" stroke-width="2" points="2553.5,-180 2363.5,-180 2363.5,-144 2553.5,-144 2553.5,-180"/>
<text text-anchor="middle" x="2458.5" y="-158.3" font-family="Times,serif" font-size="14.00">passwordUpdateSnippet</text>
</g>
<!-- 15&#45;&gt;6 -->
<g id="edge14" class="edge"><title>15&#45;&gt;6</title>
<path fill="none" stroke="black" d="M2363.29,-145.383C2360.33,-144.914 2357.39,-144.452 2354.5,-144 2259.98,-129.219 2151.15,-113.105 2079.17,-102.573"/>
<polygon fill="black" stroke="black" points="2079.66,-99.1078 2069.26,-101.124 2078.65,-106.034 2079.66,-99.1078"/>
</g>
<!-- 16 -->
<g id="node16" class="node"><title>16</title>
<polygon fill="gold" stroke="black" stroke-width="2" points="587.5,-108 403.5,-108 403.5,-72 587.5,-72 587.5,-108"/>
<text text-anchor="middle" x="495.5" y="-86.3" font-family="Times,serif" font-size="14.00">permissionDeniedPage</text>
</g>
<!-- 16&#45;&gt;2 -->
<g id="edge15" class="edge"><title>16&#45;&gt;2</title>
<path fill="none" stroke="black" d="M577.509,-71.9656C633.151,-60.4079 706.057,-45.2642 759.655,-34.1311"/>
<polygon fill="black" stroke="black" points="760.688,-37.4912 769.767,-32.0306 759.264,-30.6375 760.688,-37.4912"/>
</g>
<!-- 17 -->
<g id="node17" class="node"><title>17</title>
<polygon fill="gold" stroke="black" stroke-width="2" points="3806.5,-252 3640.5,-252 3640.5,-216 3806.5,-216 3806.5,-252"/>
<text text-anchor="middle" x="3723.5" y="-230.3" font-family="Times,serif" font-size="14.00">resetPasswordForm</text>
</g>
<!-- 17&#45;&gt;36 -->
<g id="edge16" class="edge"><title>17&#45;&gt;36</title>
<path fill="none" stroke="black" stroke-width="1.69315" d="M3640.32,-216.411C3587.07,-205.792 3517.98,-192.012 3463.3,-181.109"/>
<polygon fill="black" stroke="black" stroke-width="1.69315" points="3463.76,-177.632 3453.27,-179.108 3462.39,-184.496 3463.76,-177.632"/>
</g>
<!-- 37 -->
<g id="node37" class="node"><title>37</title>
<polygon fill="cyan" stroke="black" stroke-width="2" points="3786,-180 3661,-180 3661,-144 3786,-144 3786,-180"/>
<text text-anchor="middle" x="3723.5" y="-158.3" font-family="Times,serif" font-size="14.00">validatePass</text>
</g>
<!-- 17&#45;&gt;37 -->
<g id="edge17" class="edge"><title>17&#45;&gt;37</title>
<path fill="none" stroke="black" d="M3723.5,-215.697C3723.5,-207.983 3723.5,-198.712 3723.5,-190.112"/>
<polygon fill="black" stroke="black" points="3727,-190.104 3723.5,-180.104 3720,-190.104 3727,-190.104"/>
</g>
<!-- 18 -->
<g id="node18" class="node"><title>18</title>
<polygon fill="gold" stroke="black" stroke-width="2" points="1419.5,-180 1257.5,-180 1257.5,-144 1419.5,-144 1419.5,-180"/>
<text text-anchor="middle" x="1338.5" y="-158.3" font-family="Times,serif" font-size="14.00">resetPasswordPage</text>
</g>
<!-- 18&#45;&gt;1 -->
<g id="edge18" class="edge"><title>18&#45;&gt;1</title>
<path fill="none" stroke="black" d="M1297.4,-143.876C1274.33,-134.264 1245.36,-122.193 1220.93,-112.013"/>
<polygon fill="black" stroke="black" points="1222.04,-108.684 1211.46,-108.068 1219.35,-115.145 1222.04,-108.684"/>
</g>
<!-- 18&#45;&gt;6 -->
<g id="edge19" class="edge"><title>18&#45;&gt;6</title>
<path fill="none" stroke="black" d="M1419.88,-145.273C1422.78,-144.825 1425.67,-144.398 1428.5,-144 1602.98,-119.479 1809.11,-103.532 1919.74,-96.0234"/>
<polygon fill="black" stroke="black" points="1920.07,-99.5088 1929.82,-95.3448 1919.6,-92.5246 1920.07,-99.5088"/>
</g>
<!-- 19 -->
<g id="node19" class="node"><title>19</title>
<polygon fill="gold" stroke="black" stroke-width="2" points="2733,-252 2524,-252 2524,-216 2733,-216 2733,-252"/>
<text text-anchor="middle" x="2628.5" y="-230.3" font-family="Times,serif" font-size="14.00">resetPasswordRequestForm</text>
</g>
<!-- 19&#45;&gt;35 -->
<g id="edge20" class="edge"><title>19&#45;&gt;35</title>
<path fill="none" stroke="black" d="M2677.66,-215.966C2706,-206.142 2741.82,-193.729 2771.66,-183.389"/>
<polygon fill="black" stroke="black" points="2772.82,-186.692 2781.12,-180.111 2770.53,-180.078 2772.82,-186.692"/>
</g>
<!-- 20 -->
<g id="node20" class="node"><title>20</title>
<polygon fill="gold" stroke="black" stroke-width="2" points="1643.5,-180 1437.5,-180 1437.5,-144 1643.5,-144 1643.5,-180"/>
<text text-anchor="middle" x="1540.5" y="-158.3" font-family="Times,serif" font-size="14.00">resetPasswordRequestPage</text>
</g>
<!-- 20&#45;&gt;1 -->
<g id="edge21" class="edge"><title>20&#45;&gt;1</title>
<path fill="none" stroke="black" d="M1450.46,-143.966C1386.26,-131.819 1301.12,-115.713 1241.66,-104.463"/>
<polygon fill="black" stroke="black" points="1242.08,-100.981 1231.61,-102.561 1240.78,-107.859 1242.08,-100.981"/>
</g>
<!-- 20&#45;&gt;6 -->
<g id="edge22" class="edge"><title>20&#45;&gt;6</title>
<path fill="none" stroke="black" d="M1643.51,-145.291C1727.11,-132.541 1843.28,-114.824 1919.87,-103.144"/>
<polygon fill="black" stroke="black" points="1920.58,-106.576 1929.94,-101.608 1919.53,-99.6556 1920.58,-106.576"/>
</g>
<!-- 21 -->
<g id="node21" class="node"><title>21</title>
<polygon fill="gold" stroke="black" stroke-width="2" points="478.5,-252 260.5,-252 260.5,-216 478.5,-216 478.5,-252"/>
<text text-anchor="middle" x="369.5" y="-230.3" font-family="Times,serif" font-size="14.00">resetPasswordRequestedPage</text>
</g>
<!-- 21&#45;&gt;4 -->
<g id="edge23" class="edge"><title>21&#45;&gt;4</title>
<path fill="none" stroke="black" d="M397.877,-215.876C413.044,-206.724 431.905,-195.342 448.239,-185.485"/>
<polygon fill="black" stroke="black" points="450.261,-188.353 457.014,-180.19 446.644,-182.36 450.261,-188.353"/>
</g>
<!-- 22 -->
<g id="node22" class="node"><title>22</title>
<polygon fill="gold" stroke="black" stroke-width="2" points="3622.5,-252 3460.5,-252 3460.5,-216 3622.5,-216 3622.5,-252"/>
<text text-anchor="middle" x="3541.5" y="-230.3" font-family="Times,serif" font-size="14.00">serviceCreateForm</text>
</g>
<!-- 22&#45;&gt;36 -->
<g id="edge24" class="edge"><title>22&#45;&gt;36</title>
<path fill="none" stroke="black" d="M3500.16,-215.876C3476.95,-206.264 3447.81,-194.193 3423.23,-184.013"/>
<polygon fill="black" stroke="black" points="3424.29,-180.662 3413.71,-180.068 3421.61,-187.129 3424.29,-180.662"/>
</g>
<!-- 23 -->
<g id="node23" class="node"><title>23</title>
<polygon fill="gold" stroke="black" stroke-width="2" points="2745,-180 2572,-180 2572,-144 2745,-144 2745,-180"/>
<text text-anchor="middle" x="2658.5" y="-158.3" font-family="Times,serif" font-size="14.00">serviceCreateSnippet</text>
</g>
<!-- 23&#45;&gt;6 -->
<g id="edge25" class="edge"><title>23&#45;&gt;6</title>
<path fill="none" stroke="black" d="M2571.94,-145.338C2568.76,-144.868 2565.6,-144.42 2562.5,-144 2390.97,-120.778 2188.66,-104.403 2079.33,-96.4588"/>
<polygon fill="black" stroke="black" points="2079.27,-92.9455 2069.05,-95.7164 2078.77,-99.9274 2079.27,-92.9455"/>
</g>
<!-- 24 -->
<g id="node24" class="node"><title>24</title>
<polygon fill="gold" stroke="black" stroke-width="2" points="3996.5,-252 3824.5,-252 3824.5,-216 3996.5,-216 3996.5,-252"/>
<text text-anchor="middle" x="3910.5" y="-230.3" font-family="Times,serif" font-size="14.00">serviceRegisterForm</text>
</g>
<!-- 25 -->
<g id="node25" class="node"><title>25</title>
<polygon fill="gold" stroke="black" stroke-width="2" points="1829.5,-180 1661.5,-180 1661.5,-144 1829.5,-144 1829.5,-180"/>
<text text-anchor="middle" x="1745.5" y="-158.3" font-family="Times,serif" font-size="14.00">serviceRegisterPage</text>
</g>
<!-- 25&#45;&gt;1 -->
<g id="edge26" class="edge"><title>25&#45;&gt;1</title>
<path fill="none" stroke="black" d="M1661.39,-145.348C1658.4,-144.879 1655.42,-144.427 1652.5,-144 1507.03,-122.734 1335.73,-105.818 1241.53,-97.2135"/>
<polygon fill="black" stroke="black" points="1241.82,-93.7257 1231.55,-96.3063 1241.19,-100.697 1241.82,-93.7257"/>
</g>
<!-- 25&#45;&gt;6 -->
<g id="edge27" class="edge"><title>25&#45;&gt;6</title>
<path fill="none" stroke="black" d="M1807.31,-143.966C1843.57,-133.972 1889.56,-121.298 1927.46,-110.854"/>
<polygon fill="black" stroke="black" points="1928.7,-114.142 1937.41,-108.111 1926.84,-107.394 1928.7,-114.142"/>
</g>
<!-- 26 -->
<g id="node26" class="node"><title>26</title>
<polygon fill="gold" stroke="black" stroke-width="2" points="4178.5,-252 4014.5,-252 4014.5,-216 4178.5,-216 4178.5,-252"/>
<text text-anchor="middle" x="4096.5" y="-230.3" font-family="Times,serif" font-size="14.00">userDisplaySnippet</text>
</g>
<!-- 27 -->
<g id="node27" class="node"><title>27</title>
<polygon fill="gold" stroke="black" stroke-width="2" points="3442,-252 3299,-252 3299,-216 3442,-216 3442,-252"/>
<text text-anchor="middle" x="3370.5" y="-230.3" font-family="Times,serif" font-size="14.00">userLoginForm</text>
</g>
<!-- 27&#45;&gt;36 -->
<g id="edge28" class="edge"><title>27&#45;&gt;36</title>
<path fill="none" stroke="black" stroke-width="1.69315" d="M3370.99,-215.697C3371.21,-207.983 3371.48,-198.712 3371.73,-190.112"/>
<polygon fill="black" stroke="black" stroke-width="1.69315" points="3375.22,-190.2 3372.01,-180.104 3368.23,-190 3375.22,-190.2"/>
</g>
<!-- 28 -->
<g id="node28" class="node"><title>28</title>
<polygon fill="gold" stroke="black" stroke-width="2" points="1987.5,-180 1847.5,-180 1847.5,-144 1987.5,-144 1987.5,-180"/>
<text text-anchor="middle" x="1917.5" y="-158.3" font-family="Times,serif" font-size="14.00">userLoginPage</text>
</g>
<!-- 28&#45;&gt;1 -->
<g id="edge29" class="edge"><title>28&#45;&gt;1</title>
<path fill="none" stroke="black" d="M1847.38,-145.405C1844.38,-144.899 1841.41,-144.427 1838.5,-144 1622.42,-112.322 1364.04,-98.6034 1241.59,-93.5391"/>
<polygon fill="black" stroke="black" points="1241.73,-90.0417 1231.59,-93.1323 1241.44,-97.0359 1241.73,-90.0417"/>
</g>
<!-- 28&#45;&gt;6 -->
<g id="edge30" class="edge"><title>28&#45;&gt;6</title>
<path fill="none" stroke="black" d="M1937.77,-143.697C1948,-134.965 1960.56,-124.24 1971.68,-114.75"/>
<polygon fill="black" stroke="black" points="1974.13,-117.259 1979.46,-108.104 1969.59,-111.935 1974.13,-117.259"/>
</g>
<!-- 29 -->
<g id="node29" class="node"><title>29</title>
<polygon fill="gold" stroke="black" stroke-width="2" points="4404.5,-252 4196.5,-252 4196.5,-216 4404.5,-216 4404.5,-252"/>
<text text-anchor="middle" x="4300.5" y="-230.3" font-family="Times,serif" font-size="14.00">userLogoutConfirmSnippet</text>
</g>
<!-- 30 -->
<g id="node30" class="node"><title>30</title>
<polygon fill="gold" stroke="black" stroke-width="2" points="911.5,-180 735.5,-180 735.5,-144 911.5,-144 911.5,-180"/>
<text text-anchor="middle" x="823.5" y="-158.3" font-family="Times,serif" font-size="14.00">userLogoutDonePage</text>
</g>
<!-- 30&#45;&gt;1 -->
<g id="edge31" class="edge"><title>30&#45;&gt;1</title>
<path fill="none" stroke="black" d="M907.942,-143.966C966.582,-132.136 1043.84,-116.55 1099.35,-105.353"/>
<polygon fill="black" stroke="black" points="1100.34,-108.723 1109.45,-103.315 1098.96,-101.862 1100.34,-108.723"/>
</g>
<!-- 31 -->
<g id="node31" class="node"><title>31</title>
<polygon fill="gold" stroke="black" stroke-width="2" points="3083.5,-252 2927.5,-252 2927.5,-216 3083.5,-216 3083.5,-252"/>
<text text-anchor="middle" x="3005.5" y="-230.3" font-family="Times,serif" font-size="14.00">userRegisterForm</text>
</g>
<!-- 31&#45;&gt;35 -->
<g id="edge32" class="edge"><title>31&#45;&gt;35</title>
<path fill="none" stroke="black" d="M2962.69,-215.876C2938.55,-206.222 2908.22,-194.087 2882.69,-183.878"/>
<polygon fill="black" stroke="black" points="2883.76,-180.533 2873.17,-180.068 2881.16,-187.032 2883.76,-180.533"/>
</g>
<!-- 31&#45;&gt;36 -->
<g id="edge33" class="edge"><title>31&#45;&gt;36</title>
<path fill="none" stroke="black" stroke-width="2.09861" d="M3083.71,-217.877C3087.02,-217.242 3090.29,-216.614 3093.5,-216 3174.78,-200.448 3197.41,-196.361 3281.92,-180.299"/>
<polygon fill="black" stroke="black" stroke-width="2.09861" points="3282.8,-183.694 3291.97,-178.388 3281.49,-176.817 3282.8,-183.694"/>
</g>
<!-- 32 -->
<g id="node32" class="node"><title>32</title>
<polygon fill="gold" stroke="black" stroke-width="2" points="2157.5,-180 2005.5,-180 2005.5,-144 2157.5,-144 2157.5,-180"/>
<text text-anchor="middle" x="2081.5" y="-158.3" font-family="Times,serif" font-size="14.00">userRegisterPage</text>
</g>
<!-- 32&#45;&gt;1 -->
<g id="edge34" class="edge"><title>32&#45;&gt;1</title>
<path fill="none" stroke="black" d="M2005.12,-145.225C2002.22,-144.784 1999.33,-144.373 1996.5,-144 1719.04,-107.517 1385.7,-95.8698 1242.07,-92.3847"/>
<polygon fill="black" stroke="black" points="1241.73,-88.8757 1231.65,-92.1382 1241.57,-95.8738 1241.73,-88.8757"/>
</g>
<!-- 32&#45;&gt;6 -->
<g id="edge35" class="edge"><title>32&#45;&gt;6</title>
<path fill="none" stroke="black" d="M2061.23,-143.697C2051,-134.965 2038.44,-124.24 2027.32,-114.75"/>
<polygon fill="black" stroke="black" points="2029.41,-111.935 2019.54,-108.104 2024.87,-117.259 2029.41,-111.935"/>
</g>
<!-- 33 -->
<g id="node33" class="node"><title>33</title>
<polygon fill="gold" stroke="black" stroke-width="2" points="706,-252 497,-252 497,-216 706,-216 706,-252"/>
<text text-anchor="middle" x="601.5" y="-230.3" font-family="Times,serif" font-size="14.00">userRegisterRequestedPage</text>
</g>
<!-- 33&#45;&gt;4 -->
<g id="edge36" class="edge"><title>33&#45;&gt;4</title>
<path fill="none" stroke="black" d="M573.123,-215.876C557.956,-206.724 539.095,-195.342 522.761,-185.485"/>
<polygon fill="black" stroke="black" points="524.356,-182.36 513.986,-180.19 520.739,-188.353 524.356,-182.36"/>
</g>
<!-- 34 -->
<g id="node34" class="node"><title>34</title>
<polygon fill="gold" stroke="black" stroke-width="2" points="4632.5,-252 4422.5,-252 4422.5,-216 4632.5,-216 4632.5,-252"/>
<text text-anchor="middle" x="4527.5" y="-230.3" font-family="Times,serif" font-size="14.00">userServicesDisplaySnippet</text>
</g>
</g>
</svg>
