<?xml version="1.0" encoding="UTF-8" standalone="no"?>
<!DOCTYPE svg PUBLIC "-//W3C//DTD SVG 1.1//EN"
 "http://www.w3.org/Graphics/SVG/1.1/DTD/svg11.dtd">
<!-- Generated by graphviz version 2.38.0 (20140413.2041)
 -->
<!-- Title: Core of Thentos.Frontend.Types Pages: 1 -->
<svg width="290pt" height="250pt"
 viewBox="0.00 0.00 290.00 249.74" xmlns="http://www.w3.org/2000/svg" xmlns:xlink="http://www.w3.org/1999/xlink">
<g id="graph0" class="graph" transform="scale(1 1) rotate(0) translate(4 245.744)">
<title>Core of Thentos.Frontend.Types</title>
<polygon fill="white" stroke="none" points="-4,4 -4,-245.744 286,-245.744 286,4 -4,4"/>
<g id="clust1" class="cluster"><title>cluster_Class_Accept</title>
<path fill="#ffc1c1" stroke="black" d="M20,-8C20,-8 262,-8 262,-8 268,-8 274,-14 274,-20 274,-20 274,-221.744 274,-221.744 274,-227.744 268,-233.744 262,-233.744 262,-233.744 20,-233.744 20,-233.744 14,-233.744 8,-227.744 8,-221.744 8,-221.744 8,-20 8,-20 8,-14 14,-8 20,-8"/>
<text text-anchor="middle" x="141" y="-218.544" font-family="Times,serif" font-size="14.00">Class: Accept</text>
</g>
<g id="clust2" class="cluster"><title>cluster_Class_Accept_Data_PrettyHTML</title>
<path fill="#c6e2ff" stroke="black" d="M49,-119.352C49,-119.352 233,-119.352 233,-119.352 239,-119.352 245,-125.352 245,-131.352 245,-131.352 245,-190.744 245,-190.744 245,-196.744 239,-202.744 233,-202.744 233,-202.744 49,-202.744 49,-202.744 43,-202.744 37,-196.744 37,-190.744 37,-190.744 37,-131.352 37,-131.352 37,-125.352 43,-119.352 49,-119.352"/>
<text text-anchor="middle" x="141" y="-187.544" font-family="Times,serif" font-size="14.00">Instance for: PrettyHTML</text>
</g>
<!-- 25 -->
<g id="node1" class="node"><title>25</title>
<polygon fill="bisque" stroke="black" stroke-width="2" points="237.372,-140.272 237.372,-158.823 180.919,-171.941 101.081,-171.941 44.6275,-158.823 44.6275,-140.272 101.081,-127.155 180.919,-127.155 237.372,-140.272"/>
<text text-anchor="middle" x="141" y="-145.848" font-family="Times,serif" font-size="14.00">contentType</text>
</g>
<!-- 46 -->
<g id="node2" class="node"><title>46</title>
<polygon fill="khaki" stroke="black" stroke-dasharray="1,5" points="261.858,-39.6615 261.858,-67.6908 191.061,-87.5105 90.9389,-87.5105 20.1417,-67.6908 20.1417,-39.6615 90.9389,-19.8418 191.061,-19.8418 261.858,-39.6615"/>
<polygon fill="none" stroke="black" stroke-dasharray="1,5" points="265.856,-36.609 265.856,-70.7433 191.607,-91.5293 90.3926,-91.5293 16.144,-70.7433 16.144,-36.609 90.3926,-15.823 191.607,-15.823 265.856,-36.609"/>
<text text-anchor="middle" x="141" y="-57.4761" font-family="Times,serif" font-size="14.00">Unknown Module</text>
<text text-anchor="middle" x="141" y="-42.4761" font-family="Times,serif" font-size="14.00">contentType</text>
</g>
<!-- 25&#45;&gt;46 -->
<g id="edge1" class="edge"><title>25&#45;&gt;46</title>
<path fill="none" stroke="chartreuse" d="M135.239,-127.247C134.577,-119.544 134.247,-110.511 134.25,-101.485"/>
<polygon fill="chartreuse" stroke="chartreuse" points="137.751,-101.418 134.395,-91.3685 130.752,-101.317 137.751,-101.418"/>
</g>
<!-- 46&#45;&gt;25 -->
<g id="edge2" class="edge"><title>46&#45;&gt;25</title>
<path fill="none" stroke="navy" d="M147.605,-91.3685C147.954,-103.525 147.673,-116.645 146.761,-127.247"/>
</g>
</g>
</svg>
