<?xml version="1.0" encoding="UTF-8" standalone="no"?>
<!DOCTYPE svg PUBLIC "-//W3C//DTD SVG 1.1//EN"
 "http://www.w3.org/Graphics/SVG/1.1/DTD/svg11.dtd">
<!-- Generated by graphviz version 2.38.0 (20140413.2041)
 -->
<!-- Title: Diagram of: Thentos.Transaction Pages: 1 -->
<svg width="5325pt" height="260pt"
 viewBox="0.00 0.00 5325.00 260.00" xmlns="http://www.w3.org/2000/svg" xmlns:xlink="http://www.w3.org/1999/xlink">
<g id="graph0" class="graph" transform="scale(1 1) rotate(0) translate(4 256)">
<title>Diagram of: Thentos.Transaction</title>
<polygon fill="white" stroke="none" points="-4,4 -4,-256 5321,-256 5321,4 -4,4"/>
<!-- 1 -->
<g id="node1" class="node"><title>1</title>
<polygon fill="gold" stroke="black" stroke-width="2" points="121,-108 7.10543e-15,-108 7.10543e-15,-72 121,-72 121,-108"/>
<text text-anchor="middle" x="60.5" y="-86.3" font-family="Times,serif" font-size="14.00">addContext</text>
</g>
<!-- 33 -->
<g id="node33" class="node"><title>33</title>
<polygon fill="goldenrod" stroke="black" stroke-width="2" points="1982.5,-36 1864.5,-36 1864.5,-0 1982.5,-0 1982.5,-36"/>
<text text-anchor="middle" x="1923.5" y="-14.3" font-family="Times,serif" font-size="14.00">impossible</text>
</g>
<!-- 1&#45;&gt;33 -->
<g id="edge1" class="edge"><title>1&#45;&gt;33</title>
<path fill="none" stroke="black" d="M121.059,-73.4742C124.241,-72.9154 127.401,-72.4174 130.5,-72 472.712,-25.9028 1567.48,-19.8984 1854.22,-19.1168"/>
<polygon fill="black" stroke="black" points="1854.48,-22.6162 1864.48,-19.0902 1854.47,-15.6163 1854.48,-22.6162"/>
</g>
<!-- 2 -->
<g id="node2" class="node"><title>2</title>
<polygon fill="gold" stroke="black" stroke-width="2" points="301.5,-108 139.5,-108 139.5,-72 301.5,-72 301.5,-108"/>
<text text-anchor="middle" x="220.5" y="-86.3" font-family="Times,serif" font-size="14.00">addGroupToGroup</text>
</g>
<!-- 2&#45;&gt;33 -->
<g id="edge2" class="edge"><title>2&#45;&gt;33</title>
<path fill="none" stroke="black" d="M301.851,-73.0533C304.765,-72.6671 307.655,-72.3136 310.5,-72 616.418,-38.2846 1585.17,-23.4043 1853.82,-19.8614"/>
<polygon fill="black" stroke="black" points="1854.26,-23.3561 1864.21,-19.7255 1854.16,-16.3567 1854.26,-23.3561"/>
</g>
<!-- 3 -->
<g id="node3" class="node"><title>3</title>
<polygon fill="gold" stroke="black" stroke-width="2" points="2508.5,-180 2314.5,-180 2314.5,-144 2508.5,-144 2508.5,-180"/>
<text text-anchor="middle" x="2411.5" y="-158.3" font-family="Times,serif" font-size="14.00">addPasswordResetToken</text>
</g>
<!-- 35 -->
<g id="node35" class="node"><title>35</title>
<polygon fill="goldenrod" stroke="black" stroke-width="2" points="2508.5,-108 2314.5,-108 2314.5,-72 2508.5,-72 2508.5,-108"/>
<text text-anchor="middle" x="2411.5" y="-86.3" font-family="Times,serif" font-size="14.00">lookupAnyUserByEmail</text>
</g>
<!-- 3&#45;&gt;35 -->
<g id="edge3" class="edge"><title>3&#45;&gt;35</title>
<path fill="none" stroke="chartreuse" d="M2411.5,-143.697C2411.5,-135.983 2411.5,-126.712 2411.5,-118.112"/>
<polygon fill="chartreuse" stroke="chartreuse" points="2415,-118.104 2411.5,-108.104 2408,-118.104 2415,-118.104"/>
</g>
<!-- 4 -->
<g id="node4" class="node"><title>4</title>
<polygon fill="gold" stroke="black" stroke-width="2" points="441,-108 320,-108 320,-72 441,-72 441,-108"/>
<text text-anchor="middle" x="380.5" y="-86.3" font-family="Times,serif" font-size="14.00">addPersona</text>
</g>
<!-- 4&#45;&gt;33 -->
<g id="edge4" class="edge"><title>4&#45;&gt;33</title>
<path fill="none" stroke="black" d="M441.321,-73.296C444.076,-72.8118 446.812,-72.3754 449.5,-72 726.061,-33.3781 1601.27,-22.0955 1854.34,-19.6014"/>
<polygon fill="black" stroke="black" points="1854.53,-23.0998 1864.5,-19.5027 1854.46,-16.1001 1854.53,-23.0998"/>
</g>
<!-- 5 -->
<g id="node5" class="node"><title>5</title>
<polygon fill="gold" stroke="black" stroke-width="2" points="714.5,-252 544.5,-252 544.5,-216 714.5,-216 714.5,-252"/>
<text text-anchor="middle" x="629.5" y="-230.3" font-family="Times,serif" font-size="14.00">addPersonaToGroup</text>
</g>
<!-- 6 -->
<g id="node6" class="node"><title>6</title>
<polygon fill="gold" stroke="black" stroke-width="2" points="852,-252 733,-252 733,-216 852,-216 852,-252"/>
<text text-anchor="middle" x="792.5" y="-230.3" font-family="Times,serif" font-size="14.00">addService</text>
</g>
<!-- 7 -->
<g id="node7" class="node"><title>7</title>
<polygon fill="gold" stroke="black" stroke-width="2" points="526.5,-252 350.5,-252 350.5,-216 526.5,-216 526.5,-252"/>
<text text-anchor="middle" x="438.5" y="-230.3" font-family="Times,serif" font-size="14.00">addUnconfirmedUser</text>
</g>
<!-- 8 -->
<g id="node8" class="node"><title>8</title>
<polygon fill="goldenrod" stroke="black" stroke-width="2" points="540,-180 337,-180 337,-144 540,-144 540,-180"/>
<text text-anchor="middle" x="438.5" y="-158.3" font-family="Times,serif" font-size="14.00">addUnconfirmedUserPrim</text>
</g>
<!-- 7&#45;&gt;8 -->
<g id="edge5" class="edge"><title>7&#45;&gt;8</title>
<path fill="none" stroke="chartreuse" d="M438.5,-215.697C438.5,-207.983 438.5,-198.712 438.5,-190.112"/>
<polygon fill="chartreuse" stroke="chartreuse" points="442,-190.104 438.5,-180.104 435,-190.104 442,-190.104"/>
</g>
<!-- 11 -->
<g id="node11" class="node"><title>11</title>
<polygon fill="goldenrod" stroke="black" stroke-width="2" points="590,-108 459,-108 459,-72 590,-72 590,-108"/>
<text text-anchor="middle" x="524.5" y="-86.3" font-family="Times,serif" font-size="14.00">addUserPrim</text>
</g>
<!-- 8&#45;&gt;11 -->
<g id="edge6" class="edge"><title>8&#45;&gt;11</title>
<path fill="none" stroke="black" d="M459.758,-143.697C470.589,-134.881 483.918,-124.032 495.66,-114.474"/>
<polygon fill="black" stroke="black" points="497.94,-117.132 503.486,-108.104 493.521,-111.703 497.94,-117.132"/>
</g>
<!-- 9 -->
<g id="node9" class="node"><title>9</title>
<polygon fill="gold" stroke="black" stroke-width="2" points="662.5,-180 558.5,-180 558.5,-144 662.5,-144 662.5,-180"/>
<text text-anchor="middle" x="610.5" y="-158.3" font-family="Times,serif" font-size="14.00">addUser</text>
</g>
<!-- 9&#45;&gt;11 -->
<g id="edge7" class="edge"><title>9&#45;&gt;11</title>
<path fill="none" stroke="black" d="M589.242,-143.697C578.411,-134.881 565.082,-124.032 553.34,-114.474"/>
<polygon fill="black" stroke="black" points="555.479,-111.703 545.514,-108.104 551.06,-117.132 555.479,-111.703"/>
</g>
<!-- 10 -->
<g id="node10" class="node"><title>10</title>
<polygon fill="gold" stroke="black" stroke-width="2" points="1091,-252 870,-252 870,-216 1091,-216 1091,-252"/>
<text text-anchor="middle" x="980.5" y="-230.3" font-family="Times,serif" font-size="14.00">addUserEmailChangeRequest</text>
</g>
<!-- 11&#45;&gt;33 -->
<g id="edge8" class="edge"><title>11&#45;&gt;33</title>
<path fill="none" stroke="black" stroke-width="1.69315" d="M590.152,-73.2517C592.965,-72.7878 595.756,-72.3668 598.5,-72 844.706,-39.0864 1617.31,-24.0022 1853.93,-20.0758"/>
<polygon fill="black" stroke="black" stroke-width="1.69315" points="1854.18,-23.5722 1864.12,-19.9081 1854.07,-16.5732 1854.18,-23.5722"/>
</g>
<!-- 12 -->
<g id="node12" class="node"><title>12</title>
<polygon fill="gold" stroke="black" stroke-width="2" points="1228,-252 1109,-252 1109,-216 1228,-216 1228,-252"/>
<text text-anchor="middle" x="1168.5" y="-230.3" font-family="Times,serif" font-size="14.00">agentRoles</text>
</g>
<!-- 13 -->
<g id="node13" class="node"><title>13</title>
<polygon fill="gold" stroke="black" stroke-width="2" points="1375,-252 1246,-252 1246,-216 1375,-216 1375,-252"/>
<text text-anchor="middle" x="1310.5" y="-230.3" font-family="Times,serif" font-size="14.00">allServiceIds</text>
</g>
<!-- 14 -->
<g id="node14" class="node"><title>14</title>
<polygon fill="gold" stroke="black" stroke-width="2" points="1511.5,-252 1393.5,-252 1393.5,-216 1511.5,-216 1511.5,-252"/>
<text text-anchor="middle" x="1452.5" y="-230.3" font-family="Times,serif" font-size="14.00">assignRole</text>
</g>
<!-- 15 -->
<g id="node15" class="node"><title>15</title>
<polygon fill="gold" stroke="black" stroke-width="2" points="757,-108 608,-108 608,-72 757,-72 757,-108"/>
<text text-anchor="middle" x="682.5" y="-86.3" font-family="Times,serif" font-size="14.00">changePassword</text>
</g>
<!-- 15&#45;&gt;33 -->
<g id="edge9" class="edge"><title>15&#45;&gt;33</title>
<path fill="none" stroke="black" d="M757.057,-73.2914C760.241,-72.8167 763.399,-72.3825 766.5,-72 1176.63,-21.4105 1673.9,-17.8893 1854.1,-18.4681"/>
<polygon fill="black" stroke="black" points="1854.22,-21.9685 1864.23,-18.5061 1854.24,-14.9685 1854.22,-21.9685"/>
</g>
<!-- 16 -->
<g id="node16" class="node"><title>16</title>
<polygon fill="gold" stroke="black" stroke-width="2" points="977.5,-108 775.5,-108 775.5,-72 977.5,-72 977.5,-108"/>
<text text-anchor="middle" x="876.5" y="-86.3" font-family="Times,serif" font-size="14.00">confirmUserEmailChange</text>
</g>
<!-- 16&#45;&gt;33 -->
<g id="edge10" class="edge"><title>16&#45;&gt;33</title>
<path fill="none" stroke="black" d="M977.747,-72.9753C980.695,-72.6299 983.617,-72.3036 986.5,-72 1309.83,-37.9519 1698.39,-24.7816 1854.06,-20.6284"/>
<polygon fill="black" stroke="black" points="1854.51,-24.1178 1864.41,-20.3562 1854.32,-17.1202 1854.51,-24.1178"/>
</g>
<!-- 17 -->
<g id="node17" class="node"><title>17</title>
<polygon fill="gold" stroke="black" stroke-width="2" points="1693,-252 1530,-252 1530,-216 1693,-216 1693,-252"/>
<text text-anchor="middle" x="1611.5" y="-230.3" font-family="Times,serif" font-size="14.00">contextsForService</text>
</g>
<!-- 18 -->
<g id="node18" class="node"><title>18</title>
<polygon fill="gold" stroke="black" stroke-width="2" points="1129.5,-108 995.5,-108 995.5,-72 1129.5,-72 1129.5,-108"/>
<text text-anchor="middle" x="1062.5" y="-86.3" font-family="Times,serif" font-size="14.00">deleteContext</text>
</g>
<!-- 18&#45;&gt;33 -->
<g id="edge11" class="edge"><title>18&#45;&gt;33</title>
<path fill="none" stroke="black" d="M1129.53,-73.423C1132.56,-72.9045 1135.56,-72.4261 1138.5,-72 1400.69,-34.0517 1716.17,-23.1829 1853.71,-20.1434"/>
<polygon fill="black" stroke="black" points="1854.17,-23.6345 1864.09,-19.9215 1854.02,-16.6361 1854.17,-23.6345"/>
</g>
<!-- 19 -->
<g id="node19" class="node"><title>19</title>
<polygon fill="gold" stroke="black" stroke-width="2" points="1281.5,-108 1147.5,-108 1147.5,-72 1281.5,-72 1281.5,-108"/>
<text text-anchor="middle" x="1214.5" y="-86.3" font-family="Times,serif" font-size="14.00">deletePersona</text>
</g>
<!-- 19&#45;&gt;33 -->
<g id="edge12" class="edge"><title>19&#45;&gt;33</title>
<path fill="none" stroke="black" d="M1281.54,-73.4825C1284.56,-72.9478 1287.56,-72.4498 1290.5,-72 1493.94,-40.8795 1737.15,-26.9667 1854.04,-21.7112"/>
<polygon fill="black" stroke="black" points="1854.44,-25.1971 1864.28,-21.2588 1854.13,-18.2039 1854.44,-25.1971"/>
</g>
<!-- 20 -->
<g id="node20" class="node"><title>20</title>
<polygon fill="gold" stroke="black" stroke-width="2" points="1431,-108 1300,-108 1300,-72 1431,-72 1431,-108"/>
<text text-anchor="middle" x="1365.5" y="-86.3" font-family="Times,serif" font-size="14.00">deleteService</text>
</g>
<!-- 20&#45;&gt;33 -->
<g id="edge13" class="edge"><title>20&#45;&gt;33</title>
<path fill="none" stroke="black" d="M1431.27,-73.6487C1434.38,-73.0614 1437.47,-72.5077 1440.5,-72 1586.85,-47.4661 1760.12,-31.6243 1854.22,-24.113"/>
<polygon fill="black" stroke="black" points="1854.77,-27.5806 1864.47,-23.3034 1854.22,-20.6023 1854.77,-27.5806"/>
</g>
<!-- 21 -->
<g id="node21" class="node"><title>21</title>
<polygon fill="gold" stroke="black" stroke-width="2" points="1565.5,-108 1449.5,-108 1449.5,-72 1565.5,-72 1565.5,-108"/>
<text text-anchor="middle" x="1507.5" y="-86.3" font-family="Times,serif" font-size="14.00">deleteUser</text>
</g>
<!-- 21&#45;&gt;33 -->
<g id="edge14" class="edge"><title>21&#45;&gt;33</title>
<path fill="none" stroke="black" d="M1565.53,-73.9077C1568.55,-73.2357 1571.56,-72.5949 1574.5,-72 1670.83,-52.5137 1783.42,-36.6433 1854.1,-27.5052"/>
<polygon fill="black" stroke="black" points="1854.75,-30.9512 1864.22,-26.2061 1853.85,-24.0082 1854.75,-30.9512"/>
</g>
<!-- 22 -->
<g id="node22" class="node"><title>22</title>
<polygon fill="gold" stroke="black" stroke-width="2" points="1743.5,-108 1583.5,-108 1583.5,-72 1743.5,-72 1743.5,-108"/>
<text text-anchor="middle" x="1663.5" y="-86.3" font-family="Times,serif" font-size="14.00">endServiceSession</text>
</g>
<!-- 22&#45;&gt;33 -->
<g id="edge15" class="edge"><title>22&#45;&gt;33</title>
<path fill="none" stroke="black" d="M1726.77,-71.9656C1765.43,-61.5568 1814.9,-48.2396 1854.55,-37.5627"/>
<polygon fill="black" stroke="black" points="1855.66,-40.888 1864.41,-34.9085 1853.85,-34.1287 1855.66,-40.888"/>
</g>
<!-- 23 -->
<g id="node23" class="node"><title>23</title>
<polygon fill="gold" stroke="black" stroke-width="2" points="1874,-252 1711,-252 1711,-216 1874,-216 1874,-252"/>
<text text-anchor="middle" x="1792.5" y="-230.3" font-family="Times,serif" font-size="14.00">endThentosSession</text>
</g>
<!-- 24 -->
<g id="node24" class="node"><title>24</title>
<polygon fill="goldenrod" stroke="black" stroke-width="2" points="1895.5,-108 1761.5,-108 1761.5,-72 1895.5,-72 1895.5,-108"/>
<text text-anchor="middle" x="1828.5" y="-86.3" font-family="Times,serif" font-size="14.00">findContextId</text>
</g>
<!-- 24&#45;&gt;33 -->
<g id="edge16" class="edge"><title>24&#45;&gt;33</title>
<path fill="none" stroke="black" d="M1851.98,-71.6966C1864.06,-62.796 1878.95,-51.8232 1892.02,-42.1989"/>
<polygon fill="black" stroke="black" points="1894.31,-44.8541 1900.29,-36.1043 1890.16,-39.2187 1894.31,-44.8541"/>
</g>
<!-- 25 -->
<g id="node25" class="node"><title>25</title>
<polygon fill="gold" stroke="black" stroke-width="2" points="2015,-252 1892,-252 1892,-216 2015,-216 2015,-252"/>
<text text-anchor="middle" x="1953.5" y="-230.3" font-family="Times,serif" font-size="14.00">findPersona</text>
</g>
<!-- 26 -->
<g id="node26" class="node"><title>26</title>
<polygon fill="gold" stroke="black" stroke-width="2" points="2133,-108 1952,-108 1952,-72 2133,-72 2133,-108"/>
<text text-anchor="middle" x="2042.5" y="-86.3" font-family="Times,serif" font-size="14.00">finishUserRegistration</text>
</g>
<!-- 26&#45;&gt;33 -->
<g id="edge17" class="edge"><title>26&#45;&gt;33</title>
<path fill="none" stroke="black" d="M2013.39,-71.8761C1997.83,-62.7236 1978.48,-51.3417 1961.72,-41.485"/>
<polygon fill="black" stroke="black" points="1963.12,-38.2432 1952.72,-36.1898 1959.57,-44.2768 1963.12,-38.2432"/>
</g>
<!-- 27 -->
<g id="node27" class="node"><title>27</title>
<polygon fill="gold" stroke="black" stroke-width="2" points="2223.5,-252 2033.5,-252 2033.5,-216 2223.5,-216 2223.5,-252"/>
<text text-anchor="middle" x="2128.5" y="-230.3" font-family="Times,serif" font-size="14.00">garbageCollectCaptchas</text>
</g>
<!-- 28 -->
<g id="node28" class="node"><title>28</title>
<polygon fill="gold" stroke="black" stroke-width="2" points="2495.5,-252 2241.5,-252 2241.5,-216 2495.5,-216 2495.5,-252"/>
<text text-anchor="middle" x="2368.5" y="-230.3" font-family="Times,serif" font-size="14.00">garbageCollectEmailChangeTokens</text>
</g>
<!-- 29 -->
<g id="node29" class="node"><title>29</title>
<polygon fill="gold" stroke="black" stroke-width="2" points="2775.5,-252 2513.5,-252 2513.5,-216 2775.5,-216 2775.5,-252"/>
<text text-anchor="middle" x="2644.5" y="-230.3" font-family="Times,serif" font-size="14.00">garbageCollectPasswordResetTokens</text>
</g>
<!-- 30 -->
<g id="node30" class="node"><title>30</title>
<polygon fill="gold" stroke="black" stroke-width="2" points="3021,-252 2794,-252 2794,-216 3021,-216 3021,-252"/>
<text text-anchor="middle" x="2907.5" y="-230.3" font-family="Times,serif" font-size="14.00">garbageCollectServiceSessions</text>
</g>
<!-- 31 -->
<g id="node31" class="node"><title>31</title>
<polygon fill="gold" stroke="black" stroke-width="2" points="3269.5,-252 3039.5,-252 3039.5,-216 3269.5,-216 3269.5,-252"/>
<text text-anchor="middle" x="3154.5" y="-230.3" font-family="Times,serif" font-size="14.00">garbageCollectThentosSessions</text>
</g>
<!-- 32 -->
<g id="node32" class="node"><title>32</title>
<polygon fill="gold" stroke="black" stroke-width="2" points="3531.5,-252 3287.5,-252 3287.5,-216 3531.5,-216 3531.5,-252"/>
<text text-anchor="middle" x="3409.5" y="-230.3" font-family="Times,serif" font-size="14.00">garbageCollectUnconfirmedUsers</text>
</g>
<!-- 34 -->
<g id="node34" class="node"><title>34</title>
<polygon fill="gold" stroke="black" stroke-width="2" points="2296,-108 2151,-108 2151,-72 2296,-72 2296,-108"/>
<text text-anchor="middle" x="2223.5" y="-86.3" font-family="Times,serif" font-size="14.00">lookupAnyUser</text>
</g>
<!-- 34&#45;&gt;33 -->
<g id="edge18" class="edge"><title>34&#45;&gt;33</title>
<path fill="none" stroke="black" d="M2150.88,-72.055C2102.8,-60.8357 2040.11,-46.208 1992.73,-35.154"/>
<polygon fill="black" stroke="black" points="1993.4,-31.7159 1982.87,-32.852 1991.81,-38.5328 1993.4,-31.7159"/>
</g>
<!-- 35&#45;&gt;33 -->
<g id="edge19" class="edge"><title>35&#45;&gt;33</title>
<path fill="none" stroke="black" d="M2314.41,-73.4904C2311.07,-72.9832 2307.76,-72.485 2304.5,-72 2195.61,-55.7779 2068.97,-38.471 1992.6,-28.203"/>
<polygon fill="black" stroke="black" points="1993,-24.7253 1982.62,-26.8633 1992.06,-31.6631 1993,-24.7253"/>
</g>
<!-- 36 -->
<g id="node36" class="node"><title>36</title>
<polygon fill="goldenrod" stroke="black" stroke-width="2" points="2708,-108 2527,-108 2527,-72 2708,-72 2708,-108"/>
<text text-anchor="middle" x="2617.5" y="-86.3" font-family="Times,serif" font-size="14.00">lookupConfirmedUser</text>
</g>
<!-- 36&#45;&gt;33 -->
<g id="edge20" class="edge"><title>36&#45;&gt;33</title>
<path fill="none" stroke="black" d="M2526.8,-73.2573C2523.66,-72.8164 2520.56,-72.3955 2517.5,-72 2328.32,-47.5187 2103.76,-30.823 1992.75,-23.3871"/>
<polygon fill="black" stroke="black" points="1992.9,-19.8895 1982.69,-22.7179 1992.43,-26.874 1992.9,-19.8895"/>
</g>
<!-- 37 -->
<g id="node37" class="node"><title>37</title>
<polygon fill="gold" stroke="black" stroke-width="2" points="2956.5,-108 2726.5,-108 2726.5,-72 2956.5,-72 2956.5,-108"/>
<text text-anchor="middle" x="2841.5" y="-86.3" font-family="Times,serif" font-size="14.00">lookupConfirmedUserByEmail</text>
</g>
<!-- 37&#45;&gt;33 -->
<g id="edge21" class="edge"><title>37&#45;&gt;33</title>
<path fill="none" stroke="black" d="M2726.43,-73.0485C2723.08,-72.6817 2719.77,-72.3311 2716.5,-72 2449.65,-44.9689 2130.83,-28.4303 1992.82,-22.0351"/>
<polygon fill="black" stroke="black" points="1992.96,-18.5376 1982.81,-21.574 1992.63,-25.5302 1992.96,-18.5376"/>
</g>
<!-- 38 -->
<g id="node38" class="node"><title>38</title>
<polygon fill="gold" stroke="black" stroke-width="2" points="3204.5,-108 2974.5,-108 2974.5,-72 3204.5,-72 3204.5,-108"/>
<text text-anchor="middle" x="3089.5" y="-86.3" font-family="Times,serif" font-size="14.00">lookupConfirmedUserByName</text>
</g>
<!-- 38&#45;&gt;33 -->
<g id="edge22" class="edge"><title>38&#45;&gt;33</title>
<path fill="none" stroke="black" d="M2974.36,-72.8744C2971.38,-72.5663 2968.42,-72.274 2965.5,-72 2600.06,-37.7193 2160.3,-24.5014 1992.83,-20.4802"/>
<polygon fill="black" stroke="black" points="1992.75,-16.9775 1982.67,-20.2396 1992.58,-23.9755 1992.75,-16.9775"/>
</g>
<!-- 39 -->
<g id="node39" class="node"><title>39</title>
<polygon fill="gold" stroke="black" stroke-width="2" points="3360,-108 3223,-108 3223,-72 3360,-72 3360,-108"/>
<text text-anchor="middle" x="3291.5" y="-86.3" font-family="Times,serif" font-size="14.00">lookupService</text>
</g>
<!-- 39&#45;&gt;33 -->
<g id="edge23" class="edge"><title>39&#45;&gt;33</title>
<path fill="none" stroke="black" d="M3222.71,-73.3294C3219.6,-72.8361 3216.52,-72.3887 3213.5,-72 2974.17,-41.2399 2224.98,-24.7321 1992.81,-20.2605"/>
<polygon fill="black" stroke="black" points="1992.86,-16.761 1982.8,-20.069 1992.73,-23.7597 1992.86,-16.761"/>
</g>
<!-- 40 -->
<g id="node40" class="node"><title>40</title>
<polygon fill="gold" stroke="black" stroke-width="2" points="3556.5,-108 3378.5,-108 3378.5,-72 3556.5,-72 3556.5,-108"/>
<text text-anchor="middle" x="3467.5" y="-86.3" font-family="Times,serif" font-size="14.00">lookupServiceSession</text>
</g>
<!-- 40&#45;&gt;33 -->
<g id="edge24" class="edge"><title>40&#45;&gt;33</title>
<path fill="none" stroke="black" d="M3378.26,-73.113C3374.97,-72.7064 3371.71,-72.3329 3368.5,-72 3096.82,-43.8186 2242.92,-25.2519 1992.92,-20.317"/>
<polygon fill="black" stroke="black" points="1992.94,-16.8168 1982.87,-20.1196 1992.8,-23.8155 1992.94,-16.8168"/>
</g>
<!-- 41 -->
<g id="node41" class="node"><title>41</title>
<polygon fill="gold" stroke="black" stroke-width="2" points="3719,-180 3538,-180 3538,-144 3719,-144 3719,-180"/>
<text text-anchor="middle" x="3628.5" y="-158.3" font-family="Times,serif" font-size="14.00">lookupThentosSession</text>
</g>
<!-- 41&#45;&gt;33 -->
<g id="edge25" class="edge"><title>41&#45;&gt;33</title>
<path fill="none" stroke="black" d="M3622.02,-143.893C3612.97,-122.705 3594.34,-87.5153 3565.5,-72 3495.37,-34.2757 2297.72,-22.0343 1993.39,-19.5255"/>
<polygon fill="black" stroke="black" points="1992.97,-16.0221 1982.94,-19.4403 1992.91,-23.0218 1992.97,-16.0221"/>
</g>
<!-- 42 -->
<g id="node42" class="node"><title>42</title>
<polygon fill="goldenrod" stroke="black" stroke-width="2" points="3734.5,-108 3612.5,-108 3612.5,-72 3734.5,-72 3734.5,-108"/>
<text text-anchor="middle" x="3673.5" y="-86.3" font-family="Times,serif" font-size="14.00">makeAgent</text>
</g>
<!-- 41&#45;&gt;42 -->
<g id="edge26" class="edge"><title>41&#45;&gt;42</title>
<path fill="none" stroke="black" d="M3639.62,-143.697C3644.86,-135.559 3651.2,-125.689 3656.98,-116.701"/>
<polygon fill="black" stroke="black" points="3660.04,-118.409 3662.5,-108.104 3654.15,-114.623 3660.04,-118.409"/>
</g>
<!-- 42&#45;&gt;33 -->
<g id="edge27" class="edge"><title>42&#45;&gt;33</title>
<path fill="none" stroke="black" d="M3612.28,-74.1198C3607.63,-73.2991 3603,-72.5762 3598.5,-72 3280.45,-31.3031 2268.37,-21.3963 1993.16,-19.4285"/>
<polygon fill="black" stroke="black" points="1992.93,-15.9269 1982.91,-19.3564 1992.88,-22.9267 1992.93,-15.9269"/>
</g>
<!-- 43 -->
<g id="node43" class="node"><title>43</title>
<polygon fill="gold" stroke="black" stroke-width="2" points="3689.5,-252 3549.5,-252 3549.5,-216 3689.5,-216 3689.5,-252"/>
<text text-anchor="middle" x="3619.5" y="-230.3" font-family="Times,serif" font-size="14.00">personaGroups</text>
</g>
<!-- 44 -->
<g id="node44" class="node"><title>44</title>
<polygon fill="gold" stroke="black" stroke-width="2" points="2029.5,-180 1817.5,-180 1817.5,-144 2029.5,-144 2029.5,-180"/>
<text text-anchor="middle" x="1923.5" y="-158.3" font-family="Times,serif" font-size="14.00">registerPersonaWithContext</text>
</g>
<!-- 44&#45;&gt;24 -->
<g id="edge28" class="edge"><title>44&#45;&gt;24</title>
<path fill="none" stroke="black" d="M1900.02,-143.697C1887.94,-134.796 1873.05,-123.823 1859.98,-114.199"/>
<polygon fill="black" stroke="black" points="1861.84,-111.219 1851.71,-108.104 1857.69,-116.854 1861.84,-111.219"/>
</g>
<!-- 44&#45;&gt;33 -->
<g id="edge29" class="edge"><title>44&#45;&gt;33</title>
<path fill="none" stroke="black" d="M1923.5,-143.871C1923.5,-119.67 1923.5,-75.2108 1923.5,-46.3932"/>
<polygon fill="black" stroke="black" points="1927,-46.1892 1923.5,-36.1893 1920,-46.1893 1927,-46.1892"/>
</g>
<!-- 45 -->
<g id="node45" class="node"><title>45</title>
<polygon fill="gold" stroke="black" stroke-width="2" points="3901,-252 3708,-252 3708,-216 3901,-216 3901,-252"/>
<text text-anchor="middle" x="3804.5" y="-230.3" font-family="Times,serif" font-size="14.00">registerUserWithService</text>
</g>
<!-- 46 -->
<g id="node46" class="node"><title>46</title>
<polygon fill="gold" stroke="black" stroke-width="2" points="4118,-252 3919,-252 3919,-216 4118,-216 4118,-252"/>
<text text-anchor="middle" x="4018.5" y="-230.3" font-family="Times,serif" font-size="14.00">removeGroupFromGroup</text>
</g>
<!-- 47 -->
<g id="node47" class="node"><title>47</title>
<polygon fill="gold" stroke="black" stroke-width="2" points="4343,-252 4136,-252 4136,-216 4343,-216 4343,-252"/>
<text text-anchor="middle" x="4239.5" y="-230.3" font-family="Times,serif" font-size="14.00">removePersonaFromGroup</text>
</g>
<!-- 48 -->
<g id="node48" class="node"><title>48</title>
<polygon fill="gold" stroke="black" stroke-width="2" points="3888.5,-108 3752.5,-108 3752.5,-72 3888.5,-72 3888.5,-108"/>
<text text-anchor="middle" x="3820.5" y="-86.3" font-family="Times,serif" font-size="14.00">resetPassword</text>
</g>
<!-- 48&#45;&gt;33 -->
<g id="edge30" class="edge"><title>48&#45;&gt;33</title>
<path fill="none" stroke="black" d="M3752.18,-73.2176C3749.26,-72.763 3746.35,-72.3533 3743.5,-72 3395.47,-28.9028 2283.51,-20.6982 1993.31,-19.2767"/>
<polygon fill="black" stroke="black" points="1992.95,-15.7751 1982.93,-19.2271 1992.92,-22.775 1992.95,-15.7751"/>
</g>
<!-- 49 -->
<g id="node49" class="node"><title>49</title>
<polygon fill="gold" stroke="black" stroke-width="2" points="4611.5,-252 4361.5,-252 4361.5,-216 4611.5,-216 4611.5,-252"/>
<text text-anchor="middle" x="4486.5" y="-230.3" font-family="Times,serif" font-size="14.00">serviceNamesFromThentosSession</text>
</g>
<!-- 50 -->
<g id="node50" class="node"><title>50</title>
<polygon fill="gold" stroke="black" stroke-width="2" points="4038,-108 3907,-108 3907,-72 4038,-72 4038,-108"/>
<text text-anchor="middle" x="3972.5" y="-86.3" font-family="Times,serif" font-size="14.00">solveCaptcha</text>
</g>
<!-- 50&#45;&gt;33 -->
<g id="edge31" class="edge"><title>50&#45;&gt;33</title>
<path fill="none" stroke="black" d="M3906.78,-73.3375C3903.65,-72.8334 3900.55,-72.3825 3897.5,-72 3517.43,-24.2923 2296.79,-19.4891 1992.64,-19.0388"/>
<polygon fill="black" stroke="black" points="1992.64,-15.5389 1982.64,-19.0251 1992.63,-22.5389 1992.64,-15.5389"/>
</g>
<!-- 51 -->
<g id="node51" class="node"><title>51</title>
<polygon fill="gold" stroke="black" stroke-width="2" points="4793.5,-252 4629.5,-252 4629.5,-216 4793.5,-216 4793.5,-252"/>
<text text-anchor="middle" x="4711.5" y="-230.3" font-family="Times,serif" font-size="14.00">startServiceSession</text>
</g>
<!-- 52 -->
<g id="node52" class="node"><title>52</title>
<polygon fill="gold" stroke="black" stroke-width="2" points="2701,-180 2534,-180 2534,-144 2701,-144 2701,-180"/>
<text text-anchor="middle" x="2617.5" y="-158.3" font-family="Times,serif" font-size="14.00">startThentosSession</text>
</g>
<!-- 52&#45;&gt;36 -->
<g id="edge32" class="edge"><title>52&#45;&gt;36</title>
<path fill="none" stroke="chartreuse" d="M2617.5,-143.697C2617.5,-135.983 2617.5,-126.712 2617.5,-118.112"/>
<polygon fill="chartreuse" stroke="chartreuse" points="2621,-118.104 2617.5,-108.104 2614,-118.104 2621,-118.104"/>
</g>
<!-- 53 -->
<g id="node53" class="node"><title>53</title>
<polygon fill="gold" stroke="black" stroke-width="2" points="4941,-252 4812,-252 4812,-216 4941,-216 4941,-252"/>
<text text-anchor="middle" x="4876.5" y="-230.3" font-family="Times,serif" font-size="14.00">storeCaptcha</text>
</g>
<!-- 54 -->
<g id="node54" class="node"><title>54</title>
<polygon fill="gold" stroke="black" stroke-width="2" points="5090,-252 4959,-252 4959,-216 5090,-216 5090,-252"/>
<text text-anchor="middle" x="5024.5" y="-230.3" font-family="Times,serif" font-size="14.00">unassignRole</text>
</g>
<!-- 55 -->
<g id="node55" class="node"><title>55</title>
<polygon fill="gold" stroke="black" stroke-width="2" points="1799.5,-180 1571.5,-180 1571.5,-144 1799.5,-144 1799.5,-180"/>
<text text-anchor="middle" x="1685.5" y="-158.3" font-family="Times,serif" font-size="14.00">unregisterPersonaFromContext</text>
</g>
<!-- 55&#45;&gt;24 -->
<g id="edge33" class="edge"><title>55&#45;&gt;24</title>
<path fill="none" stroke="black" d="M1720.48,-143.876C1739.7,-134.469 1763.73,-122.708 1784.24,-112.667"/>
<polygon fill="black" stroke="black" points="1785.94,-115.73 1793.38,-108.19 1782.86,-109.443 1785.94,-115.73"/>
</g>
<!-- 56 -->
<g id="node56" class="node"><title>56</title>
<polygon fill="gold" stroke="black" stroke-width="2" points="5317,-252 5108,-252 5108,-216 5317,-216 5317,-252"/>
<text text-anchor="middle" x="5212.5" y="-230.3" font-family="Times,serif" font-size="14.00">unregisterUserFromService</text>
</g>
</g>
</svg>
