<?xml version="1.0" encoding="UTF-8" standalone="no"?>
<!DOCTYPE svg PUBLIC "-//W3C//DTD SVG 1.1//EN"
 "http://www.w3.org/Graphics/SVG/1.1/DTD/svg11.dtd">
<!-- Generated by graphviz version 2.38.0 (20140413.2041)
 -->
<!-- Title: Levels within Thentos.Backend.Api.Proxy Pages: 1 -->
<svg width="1502pt" height="438pt"
 viewBox="0.00 0.00 1502.00 437.74" xmlns="http://www.w3.org/2000/svg" xmlns:xlink="http://www.w3.org/1999/xlink">
<g id="graph0" class="graph" transform="scale(1 1) rotate(0) translate(4 433.744)">
<title>Levels within Thentos.Backend.Api.Proxy</title>
<polygon fill="white" stroke="none" points="-4,4 -4,-433.744 1498,-433.744 1498,4 -4,4"/>
<g id="clust1" class="cluster"><title>cluster_0</title>
<polygon fill="lavender" stroke="black" points="8,-8 8,-421.744 1056,-421.744 1056,-8 8,-8"/>
<text text-anchor="middle" x="532" y="-406.544" font-family="Times,serif" font-size="14.00">Exported root entities</text>
</g>
<g id="clust2" class="cluster"><title>cluster_1</title>
<polygon fill="lavender" stroke="black" points="1064,-224 1064,-307.391 1486,-307.391 1486,-224 1064,-224"/>
<text text-anchor="middle" x="1275" y="-292.191" font-family="Times,serif" font-size="14.00">Level = 1</text>
</g>
<!-- 1 -->
<g id="node1" class="node"><title>1</title>
<polygon fill="goldenrod" stroke="black" stroke-width="2" points="380.5,-52 217.5,-52 213.5,-48 213.5,-16 376.5,-16 380.5,-20 380.5,-52"/>
<polyline fill="none" stroke="black" stroke-width="2" points="376.5,-48 213.5,-48 "/>
<polyline fill="none" stroke="black" stroke-width="2" points="376.5,-48 376.5,-16 "/>
<polyline fill="none" stroke="black" stroke-width="2" points="376.5,-48 380.5,-52 "/>
<text text-anchor="middle" x="297" y="-30.3" font-family="Times,serif" font-size="14.00">Data: ProxyAdapter</text>
</g>
<!-- 2 -->
<g id="node2" class="node"><title>2</title>
<polygon fill="goldenrod" stroke="black" stroke-width="2" points="170,-124 40,-124 36,-120 36,-88 166,-88 170,-92 170,-124"/>
<polyline fill="none" stroke="black" stroke-width="2" points="166,-120 36,-120 "/>
<polyline fill="none" stroke="black" stroke-width="2" points="166,-120 166,-88 "/>
<polyline fill="none" stroke="black" stroke-width="2" points="166,-120 170,-124 "/>
<text text-anchor="middle" x="103" y="-102.3" font-family="Times,serif" font-size="14.00">Data: RqMod</text>
</g>
<!-- 3 -->
<g id="node3" class="node"><title>3</title>
<polygon fill="goldenrod" stroke="black" stroke-width="2" points="386,-124 208,-124 208,-88 386,-88 386,-124"/>
<text text-anchor="middle" x="297" y="-102.3" font-family="Times,serif" font-size="14.00">createCustomHeaders</text>
</g>
<!-- 3&#45;&gt;1 -->
<g id="edge1" class="edge"><title>3&#45;&gt;1</title>
<path fill="none" stroke="black" stroke-width="1.69315" d="M297,-87.6966C297,-79.9827 297,-70.7125 297,-62.1124"/>
<polygon fill="black" stroke="black" stroke-width="1.69315" points="300.5,-62.1043 297,-52.1043 293.5,-62.1044 300.5,-62.1043"/>
</g>
<!-- 4 -->
<g id="node4" class="node"><title>4</title>
<polygon fill="gold" stroke="black" stroke-width="2" points="1048,-124 876,-124 876,-88 1048,-88 1048,-124"/>
<text text-anchor="middle" x="962" y="-102.3" font-family="Times,serif" font-size="14.00">defaultProxyAdapter</text>
</g>
<!-- 4&#45;&gt;1 -->
<g id="edge2" class="edge"><title>4&#45;&gt;1</title>
<path fill="none" stroke="black" stroke-width="2.38629" d="M875.878,-89.9383C871.188,-89.2497 866.539,-88.5979 862,-88 696.713,-66.2293 503.073,-50.0825 390.781,-41.637"/>
<polygon fill="black" stroke="black" stroke-width="2.38629" points="390.739,-38.1241 380.506,-40.8686 390.217,-45.1047 390.739,-38.1241"/>
</g>
<!-- 5 -->
<g id="node5" class="node"><title>5</title>
<polygon fill="goldenrod" stroke="black" stroke-width="2" points="1042.5,-52 881.5,-52 881.5,-16 1042.5,-16 1042.5,-52"/>
<text text-anchor="middle" x="962" y="-30.3" font-family="Times,serif" font-size="14.00">defaultRenderUser</text>
</g>
<!-- 4&#45;&gt;5 -->
<g id="edge3" class="edge"><title>4&#45;&gt;5</title>
<path fill="none" stroke="black" d="M962,-87.6966C962,-79.9827 962,-70.7125 962,-62.1124"/>
<polygon fill="black" stroke="black" points="965.5,-62.1043 962,-52.1043 958.5,-62.1044 965.5,-62.1043"/>
</g>
<!-- 6 -->
<g id="node6" class="node"><title>6</title>
<polygon fill="goldenrod" stroke="black" stroke-width="2" points="156,-272.196 28,-272.196 28,-236.196 156,-236.196 156,-272.196"/>
<text text-anchor="middle" x="92" y="-250.496" font-family="Times,serif" font-size="14.00">err500onExc</text>
</g>
<!-- 7 -->
<g id="node7" class="node"><title>7</title>
<polygon fill="goldenrod" stroke="black" stroke-width="2" points="634.5,-124 403.5,-124 403.5,-88 634.5,-88 634.5,-124"/>
<text text-anchor="middle" x="519" y="-102.3" font-family="Times,serif" font-size="14.00">findDefaultServiceIdAndTarget</text>
</g>
<!-- 8 -->
<g id="node8" class="node"><title>8</title>
<polygon fill="goldenrod" stroke="black" stroke-width="2" points="838,-124 652,-124 652,-88 838,-88 838,-124"/>
<text text-anchor="middle" x="745" y="-102.3" font-family="Times,serif" font-size="14.00">findTargetForServiceId</text>
</g>
<!-- 9 -->
<g id="node9" class="node"><title>9</title>
<polygon fill="goldenrod" stroke="black" stroke-width="2" points="343.5,-196 226.5,-196 226.5,-160 343.5,-160 343.5,-196"/>
<text text-anchor="middle" x="285" y="-174.3" font-family="Times,serif" font-size="14.00">getRqMod</text>
</g>
<!-- 9&#45;&gt;1 -->
<g id="edge4" class="edge"><title>9&#45;&gt;1</title>
<path fill="none" stroke="black" stroke-width="1.69315" d="M239.453,-159.977C223.753,-151.658 207.892,-139.925 199,-124 191.2,-110.03 190.808,-101.744 199,-88 206.961,-74.6431 219.587,-64.4486 233.162,-56.7474"/>
<polygon fill="black" stroke="black" stroke-width="1.69315" points="234.935,-59.7697 242.18,-52.0386 231.695,-53.5646 234.935,-59.7697"/>
</g>
<!-- 9&#45;&gt;2 -->
<g id="edge5" class="edge"><title>9&#45;&gt;2</title>
<path fill="none" stroke="black" d="M240.478,-159.876C215.266,-150.179 183.547,-137.98 156.931,-127.743"/>
<polygon fill="black" stroke="black" points="157.968,-124.391 147.378,-124.068 155.455,-130.925 157.968,-124.391"/>
</g>
<!-- 9&#45;&gt;3 -->
<g id="edge6" class="edge"><title>9&#45;&gt;3</title>
<path fill="none" stroke="black" d="M287.966,-159.697C289.289,-151.983 290.878,-142.712 292.352,-134.112"/>
<polygon fill="black" stroke="black" points="295.828,-134.552 294.068,-124.104 288.928,-133.369 295.828,-134.552"/>
</g>
<!-- 9&#45;&gt;7 -->
<g id="edge7" class="edge"><title>9&#45;&gt;7</title>
<path fill="none" stroke="black" d="M341.944,-159.966C375.207,-150.015 417.356,-137.406 452.185,-126.987"/>
<polygon fill="black" stroke="black" points="453.224,-130.33 461.801,-124.111 451.217,-123.624 453.224,-130.33"/>
</g>
<!-- 9&#45;&gt;8 -->
<g id="edge8" class="edge"><title>9&#45;&gt;8</title>
<path fill="none" stroke="black" d="M343.506,-168.732C412.527,-158.896 531.011,-141.752 641.732,-124.345"/>
<polygon fill="black" stroke="black" points="642.402,-127.783 651.735,-122.769 641.312,-120.868 642.402,-127.783"/>
</g>
<!-- 10 -->
<g id="node10" class="node"><title>10</title>
<polygon fill="goldenrod" stroke="black" stroke-width="2" points="717.5,-196 596.5,-196 596.5,-160 717.5,-160 717.5,-196"/>
<text text-anchor="middle" x="657" y="-174.3" font-family="Times,serif" font-size="14.00">prepareReq</text>
</g>
<!-- 10&#45;&gt;1 -->
<g id="edge9" class="edge"><title>10&#45;&gt;1</title>
<path fill="none" stroke="black" d="M717.633,-169.663C787.998,-158.822 889.307,-134.58 847,-88 816.973,-54.9409 539.599,-41.933 390.62,-37.298"/>
<polygon fill="black" stroke="black" points="390.661,-33.7977 380.559,-36.9916 390.447,-40.7944 390.661,-33.7977"/>
</g>
<!-- 14 -->
<g id="node11" class="node"><title>14</title>
<polygon fill="goldenrod" stroke="black" stroke-width="2" points="347.5,-272.196 174.5,-272.196 174.5,-236.196 347.5,-236.196 347.5,-272.196"/>
<text text-anchor="middle" x="261" y="-250.496" font-family="Times,serif" font-size="14.00">reverseProxyHandler</text>
</g>
<!-- 14&#45;&gt;1 -->
<g id="edge10" class="edge"><title>14&#45;&gt;1</title>
<path fill="none" stroke="black" d="M219.027,-236.167C157.68,-210.325 48.4634,-160.368 27,-124 18.8678,-110.221 16.8341,-100.355 27,-88 49.2387,-60.9715 134.491,-47.52 203.327,-40.9583"/>
<polygon fill="black" stroke="black" points="203.716,-44.4374 213.355,-40.0394 203.077,-37.4667 203.716,-44.4374"/>
</g>
<!-- 14&#45;&gt;2 -->
<g id="edge11" class="edge"><title>14&#45;&gt;2</title>
<path fill="none" stroke="black" d="M242.566,-236.139C214.65,-210.308 161.516,-161.145 129.471,-131.493"/>
<polygon fill="black" stroke="black" points="131.523,-128.624 121.806,-124.401 126.769,-133.762 131.523,-128.624"/>
</g>
<!-- 14&#45;&gt;9 -->
<g id="edge12" class="edge"><title>14&#45;&gt;9</title>
<path fill="none" stroke="black" d="M266.566,-235.987C269.474,-226.997 273.098,-215.795 276.361,-205.708"/>
<polygon fill="black" stroke="black" points="279.716,-206.707 279.464,-196.115 273.056,-204.553 279.716,-206.707"/>
</g>
<!-- 14&#45;&gt;10 -->
<g id="edge13" class="edge"><title>14&#45;&gt;10</title>
<path fill="none" stroke="black" d="M347.904,-236.913C419.476,-223.503 519.683,-204.728 586.38,-192.231"/>
<polygon fill="black" stroke="black" points="587.194,-195.64 596.379,-190.358 585.905,-188.76 587.194,-195.64"/>
</g>
<!-- 16 -->
<g id="node12" class="node"><title>16</title>
<polygon fill="gold" stroke="black" stroke-width="2" points="241.5,-371.067 112.5,-371.067 112.5,-335.067 241.5,-335.067 241.5,-371.067"/>
<text text-anchor="middle" x="177" y="-349.367" font-family="Times,serif" font-size="14.00">serviceProxy</text>
</g>
<!-- 16&#45;&gt;6 -->
<g id="edge15" class="edge"><title>16&#45;&gt;6</title>
<path fill="none" stroke="black" d="M161.804,-334.749C148.508,-319.596 129.029,-297.397 114.025,-280.296"/>
<polygon fill="black" stroke="black" points="116.291,-277.573 107.065,-272.364 111.029,-282.19 116.291,-277.573"/>
</g>
<!-- 16&#45;&gt;14 -->
<g id="edge16" class="edge"><title>16&#45;&gt;14</title>
<path fill="none" stroke="black" d="M192.018,-334.749C205.157,-319.596 224.407,-297.397 239.235,-280.296"/>
<polygon fill="black" stroke="black" points="242.205,-282.213 246.112,-272.364 236.917,-277.627 242.205,-282.213"/>
</g>
<!-- 17 -->
<g id="node13" class="node"><title>17</title>
<polygon fill="khaki" stroke="black" stroke-dasharray="1,5" points="1043.86,-339.053 1043.86,-367.082 973.061,-386.902 872.939,-386.902 802.142,-367.082 802.142,-339.053 872.939,-319.233 973.061,-319.233 1043.86,-339.053"/>
<polygon fill="none" stroke="black" stroke-dasharray="1,5" points="1047.86,-336 1047.86,-370.135 973.607,-390.921 872.393,-390.921 798.144,-370.135 798.144,-336 872.393,-315.214 973.607,-315.214 1047.86,-336"/>
<text text-anchor="middle" x="923" y="-356.867" font-family="Times,serif" font-size="14.00">Unknown Module</text>
<text text-anchor="middle" x="923" y="-341.867" font-family="Times,serif" font-size="14.00">Class: HasServer</text>
</g>
<!-- 15 -->
<g id="node14" class="node"><title>15</title>
<polygon fill="bisque" stroke="black" stroke-width="2" points="1477.64,-244.92 1477.64,-263.471 1358.94,-276.589 1191.06,-276.589 1072.36,-263.471 1072.36,-244.92 1191.06,-231.803 1358.94,-231.803 1477.64,-244.92"/>
<text text-anchor="middle" x="1275" y="-250.496" font-family="Times,serif" font-size="14.00">Class: HasServer, Data: ServiceProxy</text>
</g>
<!-- 17&#45;&gt;15 -->
<g id="edge17" class="edge"><title>17&#45;&gt;15</title>
<path fill="none" stroke="navy" d="M1018.24,-327.497C1076.61,-311.746 1150.07,-291.506 1203.47,-276.449"/>
</g>
<!-- 15&#45;&gt;17 -->
<g id="edge14" class="edge"><title>15&#45;&gt;17</title>
<path fill="none" stroke="chartreuse" d="M1192.05,-276.456C1141.13,-290.142 1075.67,-308.106 1022.05,-323.091"/>
<polygon fill="chartreuse" stroke="chartreuse" points="1020.87,-319.787 1012.18,-325.853 1022.76,-326.528 1020.87,-319.787"/>
</g>
</g>
</svg>
