<?xml version="1.0" encoding="UTF-8" standalone="no"?>
<!DOCTYPE svg PUBLIC "-//W3C//DTD SVG 1.1//EN"
 "http://www.w3.org/Graphics/SVG/1.1/DTD/svg11.dtd">
<!-- Generated by graphviz version 2.38.0 (20140413.2041)
 -->
<!-- Title: Levels within Thentos.Frontend.Handlers.Combinators Pages: 1 -->
<svg width="1147pt" height="315pt"
 viewBox="0.00 0.00 1147.00 315.00" xmlns="http://www.w3.org/2000/svg" xmlns:xlink="http://www.w3.org/1999/xlink">
<g id="graph0" class="graph" transform="scale(1 1) rotate(0) translate(4 311)">
<title>Levels within Thentos.Frontend.Handlers.Combinators</title>
<polygon fill="white" stroke="none" points="-4,4 -4,-311 1143,-311 1143,4 -4,4"/>
<g id="clust1" class="cluster"><title>cluster_0</title>
<polygon fill="lavender" stroke="black" points="8,-8 8,-299 1131,-299 1131,-8 8,-8"/>
<text text-anchor="middle" x="569.5" y="-283.8" font-family="Times,serif" font-size="14.00">Exported root entities</text>
</g>
<!-- 1 -->
<g id="node1" class="node"><title>1</title>
<polygon fill="goldenrod" stroke="black" stroke-width="2" points="438.5,-124 257.5,-124 257.5,-88 438.5,-88 438.5,-124"/>
<text text-anchor="middle" x="348" y="-102.3" font-family="Times,serif" font-size="14.00">clearAllFrontendMsgs</text>
</g>
<!-- 2 -->
<g id="node2" class="node"><title>2</title>
<polygon fill="gold" stroke="black" stroke-width="2" points="1123,-268 969,-268 969,-232 1123,-232 1123,-268"/>
<text text-anchor="middle" x="1046" y="-246.3" font-family="Times,serif" font-size="14.00">emailConfirmUrl</text>
</g>
<!-- 3 -->
<g id="node3" class="node"><title>3</title>
<polygon fill="gold" stroke="black" stroke-width="2" points="950.5,-268 775.5,-268 775.5,-232 950.5,-232 950.5,-268"/>
<text text-anchor="middle" x="863" y="-246.3" font-family="Times,serif" font-size="14.00">getServiceLoginState</text>
</g>
<!-- 4 -->
<g id="node4" class="node"><title>4</title>
<polygon fill="gold" stroke="black" stroke-width="2" points="757,-268 673,-268 673,-232 757,-232 757,-268"/>
<text text-anchor="middle" x="715" y="-246.3" font-family="Times,serif" font-size="14.00">liftU</text>
</g>
<!-- 5 -->
<g id="node5" class="node"><title>5</title>
<polygon fill="goldenrod" stroke="black" stroke-width="2" points="202.5,-124 101.5,-124 101.5,-88 202.5,-88 202.5,-124"/>
<text text-anchor="middle" x="152" y="-102.3" font-family="Times,serif" font-size="14.00">loggerF</text>
</g>
<!-- 6 -->
<g id="node6" class="node"><title>6</title>
<polygon fill="goldenrod" stroke="black" stroke-width="2" points="203.5,-52 100.5,-52 100.5,-16 203.5,-16 203.5,-52"/>
<text text-anchor="middle" x="152" y="-30.3" font-family="Times,serif" font-size="14.00">loggerU</text>
</g>
<!-- 5&#45;&gt;6 -->
<g id="edge1" class="edge"><title>5&#45;&gt;6</title>
<path fill="none" stroke="chartreuse" d="M152,-87.6966C152,-79.9827 152,-70.7125 152,-62.1124"/>
<polygon fill="chartreuse" stroke="chartreuse" points="155.5,-62.1043 152,-52.1043 148.5,-62.1044 155.5,-62.1043"/>
</g>
<!-- 7 -->
<g id="node7" class="node"><title>7</title>
<polygon fill="gold" stroke="black" stroke-width="2" points="654.5,-268 475.5,-268 475.5,-232 654.5,-232 654.5,-268"/>
<text text-anchor="middle" x="565" y="-246.3" font-family="Times,serif" font-size="14.00">popServiceLoginState</text>
</g>
<!-- 8 -->
<g id="node8" class="node"><title>8</title>
<polygon fill="goldenrod" stroke="black" stroke-width="2" points="753,-52 651,-52 651,-16 753,-16 753,-52"/>
<text text-anchor="middle" x="702" y="-30.3" font-family="Times,serif" font-size="14.00">redirect&#39;</text>
</g>
<!-- 9 -->
<g id="node9" class="node"><title>9</title>
<polygon fill="gold" stroke="black" stroke-width="2" points="900,-124 782,-124 782,-88 900,-88 900,-124"/>
<text text-anchor="middle" x="841" y="-102.3" font-family="Times,serif" font-size="14.00">redirectRR</text>
</g>
<!-- 9&#45;&gt;8 -->
<g id="edge2" class="edge"><title>9&#45;&gt;8</title>
<path fill="none" stroke="black" d="M806.997,-87.8761C788.402,-78.5117 765.173,-66.8136 745.294,-56.803"/>
<polygon fill="black" stroke="black" points="746.64,-53.5616 736.134,-52.1898 743.491,-59.8136 746.64,-53.5616"/>
</g>
<!-- 10 -->
<g id="node10" class="node"><title>10</title>
<polygon fill="gold" stroke="black" stroke-width="2" points="763.5,-124 640.5,-124 640.5,-88 763.5,-88 763.5,-124"/>
<text text-anchor="middle" x="702" y="-102.3" font-family="Times,serif" font-size="14.00">redirectURI</text>
</g>
<!-- 10&#45;&gt;8 -->
<g id="edge3" class="edge"><title>10&#45;&gt;8</title>
<path fill="none" stroke="black" d="M702,-87.6966C702,-79.9827 702,-70.7125 702,-62.1124"/>
<polygon fill="black" stroke="black" points="705.5,-62.1043 702,-52.1043 698.5,-62.1044 705.5,-62.1043"/>
</g>
<!-- 11 -->
<g id="node11" class="node"><title>11</title>
<polygon fill="gold" stroke="black" stroke-width="2" points="457,-268 305,-268 305,-232 457,-232 457,-268"/>
<text text-anchor="middle" x="381" y="-246.3" font-family="Times,serif" font-size="14.00">renderDashboard</text>
</g>
<!-- 12 -->
<g id="node12" class="node"><title>12</title>
<polygon fill="goldenrod" stroke="black" stroke-width="2" points="617,-196 463,-196 463,-160 617,-160 617,-196"/>
<text text-anchor="middle" x="540" y="-174.3" font-family="Times,serif" font-size="14.00">renderDashboard&#39;</text>
</g>
<!-- 11&#45;&gt;12 -->
<g id="edge4" class="edge"><title>11&#45;&gt;12</title>
<path fill="none" stroke="chartreuse" d="M419.896,-231.876C441.632,-222.307 468.904,-210.3 491.964,-200.148"/>
<polygon fill="chartreuse" stroke="chartreuse" points="493.489,-203.301 501.231,-196.068 490.668,-196.894 493.489,-203.301"/>
</g>
<!-- 12&#45;&gt;1 -->
<g id="edge5" class="edge"><title>12&#45;&gt;1</title>
<path fill="none" stroke="black" d="M493.032,-159.876C466.317,-150.137 432.679,-137.872 404.525,-127.608"/>
<polygon fill="black" stroke="black" points="405.41,-124.205 394.816,-124.068 403.012,-130.782 405.41,-124.205"/>
</g>
<!-- 14 -->
<g id="node14" class="node"><title>14</title>
<polygon fill="goldenrod" stroke="black" stroke-width="2" points="622,-124 458,-124 458,-88 622,-88 622,-124"/>
<text text-anchor="middle" x="540" y="-102.3" font-family="Times,serif" font-size="14.00">runAsUserOrLogin</text>
</g>
<!-- 12&#45;&gt;14 -->
<g id="edge6" class="edge"><title>12&#45;&gt;14</title>
<path fill="none" stroke="black" d="M540,-159.697C540,-151.983 540,-142.712 540,-134.112"/>
<polygon fill="black" stroke="black" points="543.5,-134.104 540,-124.104 536.5,-134.104 543.5,-134.104"/>
</g>
<!-- 13 -->
<g id="node13" class="node"><title>13</title>
<polygon fill="goldenrod" stroke="black" stroke-width="2" points="598.5,-52 481.5,-52 481.5,-16 598.5,-16 598.5,-52"/>
<text text-anchor="middle" x="540" y="-30.3" font-family="Times,serif" font-size="14.00">runAsUser</text>
</g>
<!-- 14&#45;&gt;8 -->
<g id="edge7" class="edge"><title>14&#45;&gt;8</title>
<path fill="none" stroke="black" d="M579.63,-87.8761C601.776,-78.3066 629.563,-66.3001 653.058,-56.1478"/>
<polygon fill="black" stroke="black" points="654.708,-59.2478 662.499,-52.0683 651.931,-52.822 654.708,-59.2478"/>
</g>
<!-- 14&#45;&gt;13 -->
<g id="edge8" class="edge"><title>14&#45;&gt;13</title>
<path fill="none" stroke="black" d="M540,-87.6966C540,-79.9827 540,-70.7125 540,-62.1124"/>
<polygon fill="black" stroke="black" points="543.5,-62.1043 540,-52.1043 536.5,-62.1044 543.5,-62.1043"/>
</g>
<!-- 15 -->
<g id="node15" class="node"><title>15</title>
<polygon fill="gold" stroke="black" stroke-width="2" points="286.5,-268 129.5,-268 129.5,-232 286.5,-232 286.5,-268"/>
<text text-anchor="middle" x="208" y="-246.3" font-family="Times,serif" font-size="14.00">sendFrontendMsg</text>
</g>
<!-- 16 -->
<g id="node16" class="node"><title>16</title>
<polygon fill="goldenrod" stroke="black" stroke-width="2" points="233,-196 71,-196 71,-160 233,-160 233,-196"/>
<text text-anchor="middle" x="152" y="-174.3" font-family="Times,serif" font-size="14.00">sendFrontendMsgs</text>
</g>
<!-- 15&#45;&gt;16 -->
<g id="edge9" class="edge"><title>15&#45;&gt;16</title>
<path fill="none" stroke="chartreuse" d="M194.157,-231.697C187.511,-223.389 179.422,-213.277 172.113,-204.141"/>
<polygon fill="chartreuse" stroke="chartreuse" points="174.664,-201.727 165.683,-196.104 169.197,-206.099 174.664,-201.727"/>
</g>
<!-- 16&#45;&gt;5 -->
<g id="edge10" class="edge"><title>16&#45;&gt;5</title>
<path fill="none" stroke="chartreuse" d="M152,-159.697C152,-151.983 152,-142.712 152,-134.112"/>
<polygon fill="chartreuse" stroke="chartreuse" points="155.5,-134.104 152,-124.104 148.5,-134.104 155.5,-134.104"/>
</g>
<!-- 17 -->
<g id="node17" class="node"><title>17</title>
<polygon fill="gold" stroke="black" stroke-width="2" points="111.5,-268 16.5,-268 16.5,-232 111.5,-232 111.5,-268"/>
<text text-anchor="middle" x="64" y="-246.3" font-family="Times,serif" font-size="14.00">setTab</text>
</g>
<!-- 18 -->
<g id="node18" class="node"><title>18</title>
<polygon fill="gold" stroke="black" stroke-width="2" points="445,-196 251,-196 251,-160 445,-160 445,-196"/>
<text text-anchor="middle" x="348" y="-174.3" font-family="Times,serif" font-size="14.00">showPageWithMessages</text>
</g>
<!-- 18&#45;&gt;1 -->
<g id="edge11" class="edge"><title>18&#45;&gt;1</title>
<path fill="none" stroke="black" d="M348,-159.697C348,-151.983 348,-142.712 348,-134.112"/>
<polygon fill="black" stroke="black" points="351.5,-134.104 348,-124.104 344.5,-134.104 351.5,-134.104"/>
</g>
</g>
</svg>
