<?xml version="1.0" encoding="UTF-8" standalone="no"?>
<!DOCTYPE svg PUBLIC "-//W3C//DTD SVG 1.1//EN"
 "http://www.w3.org/Graphics/SVG/1.1/DTD/svg11.dtd">
<!-- Generated by graphviz version 2.38.0 (20140413.2041)
 -->
<!-- Title: Levels within Thentos.Backend.Api.Docs.Common Pages: 1 -->
<svg width="15702pt" height="393pt"
 viewBox="0.00 0.00 15702.00 393.13" xmlns="http://www.w3.org/2000/svg" xmlns:xlink="http://www.w3.org/1999/xlink">
<g id="graph0" class="graph" transform="scale(1 1) rotate(0) translate(4 389.135)">
<title>Levels within Thentos.Backend.Api.Docs.Common</title>
<polygon fill="white" stroke="none" points="-4,4 -4,-389.135 15698,-389.135 15698,4 -4,4"/>
<g id="clust1" class="cluster"><title>cluster_0</title>
<polygon fill="lavender" stroke="black" points="14198,-91 14198,-377.135 15686,-377.135 15686,-91 14198,-91"/>
<text text-anchor="middle" x="14942" y="-361.935" font-family="Times,serif" font-size="14.00">Exported root entities</text>
</g>
<g id="clust2" class="cluster"><title>cluster_1</title>
<polygon fill="lavender" stroke="black" points="344,-99.1956 344,-262.783 14190,-262.783 14190,-99.1956 344,-99.1956"/>
<text text-anchor="middle" x="7267" y="-247.583" font-family="Times,serif" font-size="14.00">Level = 1</text>
</g>
<g id="clust3" class="cluster"><title>cluster_2</title>
<polygon fill="lavender" stroke="black" points="22,-99.1956 22,-174.196 336,-174.196 336,-99.1956 22,-99.1956"/>
<text text-anchor="middle" x="179" y="-158.996" font-family="Times,serif" font-size="14.00">Level = 2</text>
</g>
<g id="clust4" class="cluster"><title>cluster_3</title>
<polygon fill="lavender" stroke="black" points="8,-8 8,-83 204,-83 204,-8 8,-8"/>
<text text-anchor="middle" x="106" y="-67.8" font-family="Times,serif" font-size="14.00">Level = 3</text>
</g>
<!-- 5 -->
<g id="node1" class="node"><title>5</title>
<polygon fill="goldenrod" stroke="black" stroke-width="2" points="14932.3,-115.933 14932.3,-134.459 14854.8,-147.558 14745.2,-147.558 14667.7,-134.459 14667.7,-115.933 14745.2,-102.833 14854.8,-102.833 14932.3,-115.933"/>
<polygon fill="none" stroke="black" stroke-width="2" points="14936.3,-112.522 14936.3,-137.869 14855.1,-151.588 14744.9,-151.588 14663.7,-137.869 14663.7,-112.522 14744.9,-98.8029 14855.1,-98.8029 14936.3,-112.522"/>
<text text-anchor="middle" x="14800" y="-121.496" font-family="Times,serif" font-size="14.00">Class: HasDocExtras</text>
</g>
<!-- 12 -->
<g id="node2" class="node"><title>12</title>
<polygon fill="goldenrod" stroke="black" stroke-width="2" points="14646,-143.196 14388,-143.196 14388,-107.196 14646,-107.196 14646,-143.196"/>
<text text-anchor="middle" x="14517" y="-121.496" font-family="Times,serif" font-size="14.00">hackTogetherSomeReasonableOrder</text>
</g>
<!-- 16 -->
<g id="node3" class="node"><title>16</title>
<polygon fill="goldenrod" stroke="black" stroke-width="2" points="14369.5,-143.196 14206.5,-143.196 14206.5,-107.196 14369.5,-107.196 14369.5,-143.196"/>
<text text-anchor="middle" x="14288" y="-121.496" font-family="Times,serif" font-size="14.00">prettyMimeRender</text>
</g>
<!-- 15 -->
<g id="node19" class="node"><title>15</title>
<polygon fill="cyan" stroke="black" stroke-width="2" points="14181.5,-227.587 14066.5,-227.587 14066.5,-191.587 14181.5,-191.587 14181.5,-227.587"/>
<text text-anchor="middle" x="14124" y="-205.887" font-family="Times,serif" font-size="14.00">pprintJson</text>
</g>
<!-- 16&#45;&gt;15 -->
<g id="edge5" class="edge"><title>16&#45;&gt;15</title>
<path fill="none" stroke="black" d="M14255,-143.203C14237,-152.439 14214.3,-164.019 14194,-174.196 14185.6,-178.382 14176.7,-182.811 14168.1,-187.048"/>
<polygon fill="black" stroke="black" points="14166.4,-183.997 14158.9,-191.549 14169.5,-190.278 14166.4,-183.997"/>
</g>
<!-- 17 -->
<g id="node20" class="node"><title>17</title>
<polygon fill="bisque" stroke="black" stroke-width="2" points="14048.5,-227.587 13883.5,-227.587 13883.5,-191.587 14048.5,-191.587 14048.5,-227.587"/>
<text text-anchor="middle" x="13966" y="-205.887" font-family="Times,serif" font-size="14.00">prettyMimeRender&#39;</text>
</g>
<!-- 16&#45;&gt;17 -->
<g id="edge6" class="edge"><title>16&#45;&gt;17</title>
<path fill="none" stroke="black" d="M14261.2,-143.345C14243,-154.101 14217.9,-167.211 14194,-174.196 14135.3,-191.34 14117.4,-177.499 14057,-187.391 14053.1,-188.037 14049,-188.754 14045,-189.524"/>
<polygon fill="black" stroke="black" points="14044,-186.151 14034.9,-191.532 14045.4,-193.017 14044,-186.151"/>
</g>
<!-- 18 -->
<g id="node4" class="node"><title>18</title>
<polygon fill="gold" stroke="black" stroke-width="2" points="15678,-326.459 15572,-326.459 15572,-290.459 15678,-290.459 15678,-326.459"/>
<text text-anchor="middle" x="15625" y="-304.759" font-family="Times,serif" font-size="14.00">restDocs</text>
</g>
<!-- 19 -->
<g id="node5" class="node"><title>19</title>
<polygon fill="goldenrod" stroke="black" stroke-width="2" points="14551,-227.587 14435,-227.587 14435,-191.587 14551,-191.587 14551,-227.587"/>
<text text-anchor="middle" x="14493" y="-205.887" font-family="Times,serif" font-size="14.00">restDocsJs</text>
</g>
<!-- 18&#45;&gt;19 -->
<g id="edge8" class="edge"><title>18&#45;&gt;19</title>
<path fill="none" stroke="black" d="M15602.8,-290.422C15591.5,-282.836 15577.2,-274.735 15563,-270.783 15510.1,-256.067 14626.6,-278.508 14574,-262.783 14554.6,-256.979 14535.4,-244.97 14520.6,-233.933"/>
<polygon fill="black" stroke="black" points="14522.4,-230.948 14512.4,-227.601 14518.1,-236.486 14522.4,-230.948"/>
</g>
<!-- 20 -->
<g id="node6" class="node"><title>20</title>
<polygon fill="goldenrod" stroke="black" stroke-width="2" points="14855.5,-227.587 14730.5,-227.587 14730.5,-191.587 14855.5,-191.587 14855.5,-227.587"/>
<text text-anchor="middle" x="14793" y="-205.887" font-family="Times,serif" font-size="14.00">restDocsMd</text>
</g>
<!-- 18&#45;&gt;20 -->
<g id="edge9" class="edge"><title>18&#45;&gt;20</title>
<path fill="none" stroke="black" d="M15601.8,-290.281C15590.6,-282.958 15576.7,-275.117 15563,-270.783 15434.3,-230.116 15032,-216.185 14865.9,-212.088"/>
<polygon fill="black" stroke="black" points="14865.8,-208.586 14855.7,-211.843 14865.6,-215.584 14865.8,-208.586"/>
</g>
<!-- 21 -->
<g id="node7" class="node"><title>21</title>
<polygon fill="goldenrod" stroke="black" stroke-width="2" points="14705,-227.587 14583,-227.587 14583,-191.587 14705,-191.587 14705,-227.587"/>
<text text-anchor="middle" x="14644" y="-205.887" font-family="Times,serif" font-size="14.00">restDocsNg</text>
</g>
<!-- 18&#45;&gt;21 -->
<g id="edge10" class="edge"><title>18&#45;&gt;21</title>
<path fill="none" stroke="black" d="M15602.8,-290.43C15591.5,-282.847 15577.2,-274.745 15563,-270.783 15518,-258.237 14766.6,-276.574 14722,-262.783 14703.3,-256.993 14684.9,-245.108 14670.7,-234.139"/>
<polygon fill="black" stroke="black" points="14672.8,-231.37 14662.9,-227.84 14668.5,-236.829 14672.8,-231.37"/>
</g>
<!-- 22 -->
<g id="node8" class="node"><title>22</title>
<polygon fill="goldenrod" stroke="black" stroke-width="2" points="14390,-227.587 14260,-227.587 14260,-191.587 14390,-191.587 14390,-227.587"/>
<text text-anchor="middle" x="14325" y="-205.887" font-family="Times,serif" font-size="14.00">restDocsPurs</text>
</g>
<!-- 18&#45;&gt;22 -->
<g id="edge11" class="edge"><title>18&#45;&gt;22</title>
<path fill="none" stroke="black" d="M15602.8,-290.415C15591.5,-282.828 15577.2,-274.727 15563,-270.783 15502.1,-253.896 14487.3,-277.921 14426,-262.783 14402,-256.861 14377.3,-244.251 14358.4,-232.909"/>
<polygon fill="black" stroke="black" points="14360.2,-229.907 14349.8,-227.648 14356.5,-235.869 14360.2,-229.907"/>
</g>
<!-- 23 -->
<g id="node21" class="node"><title>23</title>
<polygon fill="bisque" stroke="black" stroke-width="2" points="13672,-227.587 13508,-227.587 13508,-191.587 13672,-191.587 13672,-227.587"/>
<text text-anchor="middle" x="13590" y="-205.887" font-family="Times,serif" font-size="14.00">restDocsPursUtilJS</text>
</g>
<!-- 18&#45;&gt;23 -->
<g id="edge12" class="edge"><title>18&#45;&gt;23</title>
<path fill="none" stroke="black" d="M15602.8,-290.398C15591.5,-282.807 15577.2,-274.708 15563,-270.783 15512.6,-256.878 13731.5,-276.349 13681,-262.783 13659.3,-256.947 13637.3,-244.597 13620.5,-233.376"/>
<polygon fill="black" stroke="black" points="13622.3,-230.421 13612.1,-227.651 13618.4,-236.194 13622.3,-230.421"/>
</g>
<!-- 24 -->
<g id="node22" class="node"><title>24</title>
<polygon fill="bisque" stroke="black" stroke-width="2" points="13865.5,-227.587 13690.5,-227.587 13690.5,-191.587 13865.5,-191.587 13865.5,-227.587"/>
<text text-anchor="middle" x="13778" y="-205.887" font-family="Times,serif" font-size="14.00">restDocsPursUtilPurs</text>
</g>
<!-- 18&#45;&gt;24 -->
<g id="edge13" class="edge"><title>18&#45;&gt;24</title>
<path fill="none" stroke="black" d="M15602.8,-290.401C15591.5,-282.81 15577.2,-274.711 15563,-270.783 15517.8,-258.293 13919.4,-274.452 13874,-262.783 13851.3,-256.956 13828.2,-244.607 13810.3,-233.384"/>
<polygon fill="black" stroke="black" points="13811.8,-230.158 13801.5,-227.657 13808,-236.033 13811.8,-230.158"/>
</g>
<!-- 25 -->
<g id="node23" class="node"><title>25</title>
<polygon fill="bisque" stroke="black" stroke-width="2" points="14181.5,-143.196 14038.5,-143.196 14038.5,-107.196 14181.5,-107.196 14181.5,-143.196"/>
<text text-anchor="middle" x="14110" y="-121.496" font-family="Times,serif" font-size="14.00">restDocsSource</text>
</g>
<!-- 19&#45;&gt;25 -->
<g id="edge14" class="edge"><title>19&#45;&gt;25</title>
<path fill="none" stroke="black" d="M14434.8,-193.976C14423,-191.435 14410.7,-189.072 14399,-187.391 14308.6,-174.377 14281.4,-200.453 14194,-174.196 14175.6,-168.664 14156.8,-158.475 14141.7,-148.903"/>
<polygon fill="black" stroke="black" points="14143.6,-145.928 14133.3,-143.379 14139.7,-151.785 14143.6,-145.928"/>
</g>
<!-- 20&#45;&gt;5 -->
<g id="edge15" class="edge"><title>20&#45;&gt;5</title>
<path fill="none" stroke="black" stroke-width="2.38629" d="M14794.5,-191.515C14795.2,-182.89 14796.1,-172.085 14797,-161.762"/>
<polygon fill="black" stroke="black" stroke-width="2.38629" points="14800.5,-161.957 14797.8,-151.697 14793.5,-161.365 14800.5,-161.957"/>
</g>
<!-- 20&#45;&gt;12 -->
<g id="edge16" class="edge"><title>20&#45;&gt;12</title>
<path fill="none" stroke="black" d="M14730.5,-191.567C14725,-190.125 14719.4,-188.714 14714,-187.391 14687.9,-180.976 14680.8,-181.554 14655,-174.196 14627.2,-166.285 14596.8,-155.913 14571.7,-146.836"/>
<polygon fill="black" stroke="black" points="14572.5,-143.427 14562,-143.298 14570.2,-150.006 14572.5,-143.427"/>
</g>
<!-- 20&#45;&gt;16 -->
<g id="edge17" class="edge"><title>20&#45;&gt;16</title>
<path fill="none" stroke="black" d="M14735.5,-191.572C14728.3,-189.916 14721,-188.458 14714,-187.391 14640.3,-176.203 14451,-193.52 14379,-174.196 14358.9,-168.801 14338.3,-158.384 14321.7,-148.629"/>
<polygon fill="black" stroke="black" points="14323.4,-145.523 14313,-143.314 14319.7,-151.502 14323.4,-145.523"/>
</g>
<!-- 21&#45;&gt;25 -->
<g id="edge18" class="edge"><title>21&#45;&gt;25</title>
<path fill="none" stroke="black" d="M14582.8,-191.563C14575.2,-189.908 14567.4,-188.453 14560,-187.391 14479.4,-175.905 14272.3,-196.499 14194,-174.196 14175.4,-168.886 14156.5,-158.614 14141.3,-148.931"/>
<polygon fill="black" stroke="black" points="14143.2,-145.94 14132.9,-143.34 14139.3,-151.778 14143.2,-145.94"/>
</g>
<!-- 22&#45;&gt;25 -->
<g id="edge19" class="edge"><title>22&#45;&gt;25</title>
<path fill="none" stroke="black" d="M14259.9,-195.084C14238.5,-189.706 14214.9,-182.735 14194,-174.196 14177.1,-167.303 14159.5,-157.632 14144.7,-148.776"/>
<polygon fill="black" stroke="black" points="14146.3,-145.64 14136,-143.399 14142.7,-151.608 14146.3,-145.64"/>
</g>
<!-- 51 -->
<g id="node9" class="node"><title>51</title>
<polygon fill="khaki" stroke="black" stroke-dasharray="5,2" points="15013.7,-294.444 15013.7,-322.473 14938.3,-342.293 14831.7,-342.293 14756.3,-322.473 14756.3,-294.444 14831.7,-274.624 14938.3,-274.624 15013.7,-294.444"/>
<polygon fill="none" stroke="black" stroke-dasharray="5,2" points="15017.7,-291.342 15017.7,-325.575 14938.8,-346.312 14831.2,-346.312 14752.3,-325.575 14752.3,-291.342 14831.2,-270.606 14938.8,-270.606 15017.7,-291.342"/>
<text text-anchor="middle" x="14885" y="-312.259" font-family="Times,serif" font-size="14.00">Servant.API</text>
<text text-anchor="middle" x="14885" y="-297.259" font-family="Times,serif" font-size="14.00">Class: MimeRender</text>
</g>
<!-- 13 -->
<g id="node18" class="node"><title>13</title>
<polygon fill="bisque" stroke="black" stroke-width="2" points="2899.27,-200.311 2899.27,-218.862 2756.77,-231.98 2555.23,-231.98 2412.73,-218.862 2412.73,-200.311 2555.23,-187.194 2756.77,-187.194 2899.27,-200.311"/>
<text text-anchor="middle" x="2656" y="-205.887" font-family="Times,serif" font-size="14.00">Class: MimeRender, Data: PlainText Docs.API</text>
</g>
<!-- 51&#45;&gt;13 -->
<g id="edge33" class="edge"><title>51&#45;&gt;13</title>
<path fill="none" stroke="navy" d="M14797.9,-279.189C14782.7,-275.703 14767,-272.697 14752,-270.783 14588.9,-250.009 3080.51,-279.594 2917,-262.783 2859.33,-256.853 2795.39,-243.526 2745.17,-231.824"/>
</g>
<!-- 52 -->
<g id="node10" class="node"><title>52</title>
<polygon fill="khaki" stroke="black" stroke-dasharray="1,5" points="14729.9,-294.444 14729.9,-322.473 14659.1,-342.293 14558.9,-342.293 14488.1,-322.473 14488.1,-294.444 14558.9,-274.624 14659.1,-274.624 14729.9,-294.444"/>
<polygon fill="none" stroke="black" stroke-dasharray="1,5" points="14733.9,-291.392 14733.9,-325.526 14659.6,-346.312 14558.4,-346.312 14484.1,-325.526 14484.1,-291.392 14558.4,-270.606 14659.6,-270.606 14733.9,-291.392"/>
<text text-anchor="middle" x="14609" y="-312.259" font-family="Times,serif" font-size="14.00">Unknown Module</text>
<text text-anchor="middle" x="14609" y="-297.259" font-family="Times,serif" font-size="14.00">Class: HasDocs</text>
</g>
<!-- 1 -->
<g id="node14" class="node"><title>1</title>
<polygon fill="bisque" stroke="black" stroke-width="2" points="1861.68,-200.311 1861.68,-218.862 1742.37,-231.98 1573.63,-231.98 1454.32,-218.862 1454.32,-200.311 1573.63,-187.194 1742.37,-187.194 1861.68,-200.311"/>
<text text-anchor="middle" x="1658" y="-205.887" font-family="Times,serif" font-size="14.00">Class: HasDocs, Data: (Post200 cts a)</text>
</g>
<!-- 52&#45;&gt;1 -->
<g id="edge34" class="edge"><title>52&#45;&gt;1</title>
<path fill="none" stroke="navy" d="M14527.4,-279.192C14513.1,-275.705 14498.2,-272.698 14484,-270.783 14397.3,-259.098 1966.89,-273.302 1880,-262.783 1831.05,-256.857 1777.12,-243.57 1734.61,-231.885"/>
</g>
<!-- 2 -->
<g id="node15" class="node"><title>2</title>
<polygon fill="bisque" stroke="black" stroke-width="2" points="1435.92,-200.311 1435.92,-218.862 1261.99,-231.98 1016.01,-231.98 842.075,-218.862 842.075,-200.311 1016.01,-187.194 1261.99,-187.194 1435.92,-200.311"/>
<text text-anchor="middle" x="1139" y="-205.887" font-family="Times,serif" font-size="14.00">Class: HasDocs, Data: (ThentosAssertHeaders :&gt; sublayout)</text>
</g>
<!-- 52&#45;&gt;2 -->
<g id="edge35" class="edge"><title>52&#45;&gt;2</title>
<path fill="none" stroke="navy" d="M14527.4,-279.191C14513.1,-275.705 14498.2,-272.698 14484,-270.783 14394.3,-258.704 1544.16,-270.445 1454,-262.783 1384.33,-256.861 1306.67,-243.534 1245.85,-231.829"/>
</g>
<!-- 3 -->
<g id="node16" class="node"><title>3</title>
<polygon fill="bisque" stroke="black" stroke-width="2" points="2394.33,-200.311 2394.33,-218.862 2243.59,-231.98 2030.41,-231.98 1879.67,-218.862 1879.67,-200.311 2030.41,-187.194 2243.59,-187.194 2394.33,-200.311"/>
<text text-anchor="middle" x="2137" y="-205.887" font-family="Times,serif" font-size="14.00">Class: HasDocs, Data: (ThentosAuth :&gt; sublayout)</text>
</g>
<!-- 52&#45;&gt;3 -->
<g id="edge36" class="edge"><title>52&#45;&gt;3</title>
<path fill="none" stroke="navy" d="M14527.4,-279.192C14513.1,-275.705 14498.2,-272.699 14484,-270.783 14400.9,-259.591 2496.43,-270.889 2413,-262.783 2352,-256.856 2284.25,-243.529 2231.09,-231.825"/>
</g>
<!-- 53 -->
<g id="node11" class="node"><title>53</title>
<polygon fill="khaki" stroke="black" stroke-dasharray="1,5" points="14462.1,-294.444 14462.1,-322.473 14388.2,-342.293 14283.8,-342.293 14209.9,-322.473 14209.9,-294.444 14283.8,-274.624 14388.2,-274.624 14462.1,-294.444"/>
<polygon fill="none" stroke="black" stroke-dasharray="1,5" points="14466.1,-291.357 14466.1,-325.561 14388.7,-346.312 14283.3,-346.312 14205.9,-325.561 14205.9,-291.357 14283.3,-270.606 14388.7,-270.606 14466.1,-291.357"/>
<text text-anchor="middle" x="14336" y="-312.259" font-family="Times,serif" font-size="14.00">Unknown Module</text>
<text text-anchor="middle" x="14336" y="-297.259" font-family="Times,serif" font-size="14.00">Class: GenerateList</text>
</g>
<!-- 4 -->
<g id="node17" class="node"><title>4</title>
<polygon fill="cyan" stroke="black" stroke-width="2" points="823.966,-200.311 823.966,-218.862 685.74,-231.98 490.26,-231.98 352.034,-218.862 352.034,-200.311 490.26,-187.194 685.74,-187.194 823.966,-200.311"/>
<text text-anchor="middle" x="588" y="-205.887" font-family="Times,serif" font-size="14.00">Class: GenerateList, Data: (a &#45;&gt; Foreign.Req)</text>
</g>
<!-- 53&#45;&gt;4 -->
<g id="edge37" class="edge"><title>53&#45;&gt;4</title>
<path fill="none" stroke="navy" d="M14205.7,-307.403C12839.6,-306.779 1184.08,-300.353 833,-262.783 777.001,-256.79 714.963,-243.504 667.326,-231.836"/>
</g>
<!-- 54 -->
<g id="node12" class="node"><title>54</title>
<polygon fill="khaki" stroke="black" stroke-dasharray="1,5" points="15549.9,-294.444 15549.9,-322.473 15479.1,-342.293 15378.9,-342.293 15308.1,-322.473 15308.1,-294.444 15378.9,-274.624 15479.1,-274.624 15549.9,-294.444"/>
<polygon fill="none" stroke="black" stroke-dasharray="1,5" points="15553.9,-291.392 15553.9,-325.526 15479.6,-346.312 15378.4,-346.312 15304.1,-325.526 15304.1,-291.392 15378.4,-270.606 15479.6,-270.606 15553.9,-291.392"/>
<text text-anchor="middle" x="15429" y="-312.259" font-family="Times,serif" font-size="14.00">Unknown Module</text>
<text text-anchor="middle" x="15429" y="-297.259" font-family="Times,serif" font-size="14.00">Class: ToCapture</text>
</g>
<!-- 28 -->
<g id="node24" class="node"><title>28</title>
<polygon fill="cyan" stroke="black" stroke-width="2" points="11684.4,-200.311 11684.4,-218.862 11524.8,-231.98 11299.2,-231.98 11139.6,-218.862 11139.6,-200.311 11299.2,-187.194 11524.8,-187.194 11684.4,-200.311"/>
<text text-anchor="middle" x="11412" y="-205.887" font-family="Times,serif" font-size="14.00">Class: ToCapture, Data: (Capture &quot;ModuleName&quot; ST)</text>
</g>
<!-- 54&#45;&gt;28 -->
<g id="edge38" class="edge"><title>54&#45;&gt;28</title>
<path fill="none" stroke="navy" d="M15343.2,-280.371C15327.3,-276.393 15310.8,-272.92 15295,-270.783 15195.9,-257.35 11793.6,-272.034 11694,-262.783 11629.7,-256.808 11558.1,-243.481 11503.2,-231.79"/>
</g>
<!-- 29 -->
<g id="node25" class="node"><title>29</title>
<polygon fill="cyan" stroke="black" stroke-width="2" points="11121.2,-200.311 11121.2,-218.862 10972.3,-231.98 10761.7,-231.98 10612.8,-218.862 10612.8,-200.311 10761.7,-187.194 10972.3,-187.194 11121.2,-200.311"/>
<text text-anchor="middle" x="10867" y="-205.887" font-family="Times,serif" font-size="14.00">Class: ToCapture, Data: (Capture &quot;sid&quot; ServiceId)</text>
</g>
<!-- 54&#45;&gt;29 -->
<g id="edge39" class="edge"><title>54&#45;&gt;29</title>
<path fill="none" stroke="navy" d="M15343.2,-280.367C15327.3,-276.39 15310.8,-272.918 15295,-270.783 15180.4,-255.268 11246.1,-274.164 11131,-262.783 11070.7,-256.818 11003.7,-243.491 10952.3,-231.797"/>
</g>
<!-- 30 -->
<g id="node26" class="node"><title>30</title>
<polygon fill="cyan" stroke="black" stroke-width="2" points="13489.6,-200.311 13489.6,-218.862 13305.3,-231.98 13044.7,-231.98 12860.4,-218.862 12860.4,-200.311 13044.7,-187.194 13305.3,-187.194 13489.6,-200.311"/>
<text text-anchor="middle" x="13175" y="-205.887" font-family="Times,serif" font-size="14.00">Class: ToCapture, Data: (Capture &quot;token&quot; ServiceSessionToken)</text>
</g>
<!-- 54&#45;&gt;30 -->
<g id="edge40" class="edge"><title>54&#45;&gt;30</title>
<path fill="none" stroke="navy" d="M15343.2,-280.4C15327.3,-276.42 15310.8,-272.938 15295,-270.783 15196.1,-257.274 13598.4,-270.964 13499,-262.783 13425.5,-256.733 13343.4,-243.447 13280.3,-231.794"/>
</g>
<!-- 31 -->
<g id="node27" class="node"><title>31</title>
<polygon fill="cyan" stroke="black" stroke-width="2" points="12842.7,-200.311 12842.7,-218.862 12657.2,-231.98 12394.8,-231.98 12209.3,-218.862 12209.3,-200.311 12394.8,-187.194 12657.2,-187.194 12842.7,-200.311"/>
<text text-anchor="middle" x="12526" y="-205.887" font-family="Times,serif" font-size="14.00">Class: ToCapture, Data: (Capture &quot;token&quot; ThentosSessionToken)</text>
</g>
<!-- 54&#45;&gt;31 -->
<g id="edge41" class="edge"><title>54&#45;&gt;31</title>
<path fill="none" stroke="navy" d="M15343.2,-280.385C15327.3,-276.406 15310.8,-272.928 15295,-270.783 15160.5,-252.479 12986.3,-273.803 12851,-262.783 12777.2,-256.776 12694.9,-243.49 12631.6,-231.826"/>
</g>
<!-- 32 -->
<g id="node28" class="node"><title>32</title>
<polygon fill="cyan" stroke="black" stroke-width="2" points="12191.3,-200.311 12191.3,-218.862 12048.2,-231.98 11845.8,-231.98 11702.7,-218.862 11702.7,-200.311 11845.8,-187.194 12048.2,-187.194 12191.3,-200.311"/>
<text text-anchor="middle" x="11947" y="-205.887" font-family="Times,serif" font-size="14.00">Class: ToCapture, Data: (Capture &quot;uid&quot; UserId)</text>
</g>
<!-- 54&#45;&gt;32 -->
<g id="edge42" class="edge"><title>54&#45;&gt;32</title>
<path fill="none" stroke="navy" d="M15343.2,-280.376C15327.3,-276.398 15310.8,-272.923 15295,-270.783 15209.8,-259.222 12285.5,-271.624 12200,-262.783 12142.1,-256.798 12077.9,-243.472 12028.7,-231.783"/>
</g>
<!-- 55 -->
<g id="node13" class="node"><title>55</title>
<polygon fill="khaki" stroke="black" stroke-dasharray="1,5" points="15281.9,-294.444 15281.9,-322.473 15211.1,-342.293 15110.9,-342.293 15040.1,-322.473 15040.1,-294.444 15110.9,-274.624 15211.1,-274.624 15281.9,-294.444"/>
<polygon fill="none" stroke="black" stroke-dasharray="1,5" points="15285.9,-291.392 15285.9,-325.526 15211.6,-346.312 15110.4,-346.312 15036.1,-325.526 15036.1,-291.392 15110.4,-270.606 15211.6,-270.606 15285.9,-291.392"/>
<text text-anchor="middle" x="15161" y="-312.259" font-family="Times,serif" font-size="14.00">Unknown Module</text>
<text text-anchor="middle" x="15161" y="-297.259" font-family="Times,serif" font-size="14.00">Class: ToSample</text>
</g>
<!-- 33 -->
<g id="node29" class="node"><title>33</title>
<polygon fill="cyan" stroke="black" stroke-width="2" points="8105.42,-200.311 8105.42,-218.862 8004.42,-231.98 7861.58,-231.98 7760.58,-218.862 7760.58,-200.311 7861.58,-187.194 8004.42,-187.194 8105.42,-200.311"/>
<text text-anchor="middle" x="7933" y="-205.887" font-family="Times,serif" font-size="14.00">Class: ToSample, Data: Agent</text>
</g>
<!-- 55&#45;&gt;33 -->
<g id="edge43" class="edge"><title>55&#45;&gt;33</title>
<path fill="none" stroke="navy" d="M15075.2,-280.358C15059.3,-276.381 15042.8,-272.912 15027,-270.783 14931.8,-257.94 8209.06,-276.272 8114,-262.783 8072.07,-256.833 8026.24,-243.546 7991.19,-231.867"/>
</g>
<!-- 34 -->
<g id="node30" class="node"><title>34</title>
<polygon fill="bisque" stroke="black" stroke-width="2" points="7742.72,-200.311 7742.72,-218.862 7608.15,-231.98 7417.85,-231.98 7283.28,-218.862 7283.28,-200.311 7417.85,-187.194 7608.15,-187.194 7742.72,-200.311"/>
<text text-anchor="middle" x="7513" y="-205.887" font-family="Times,serif" font-size="14.00">Class: ToSample, Data: ConfirmationToken</text>
</g>
<!-- 55&#45;&gt;34 -->
<g id="edge44" class="edge"><title>55&#45;&gt;34</title>
<path fill="none" stroke="navy" d="M15075.2,-280.357C15059.3,-276.38 15042.8,-272.911 15027,-270.783 14926.9,-257.27 7852.45,-273.68 7752,-262.783 7697.22,-256.839 7636.57,-243.513 7590.08,-231.813"/>
</g>
<!-- 35 -->
<g id="node31" class="node"><title>35</title>
<polygon fill="cyan" stroke="black" stroke-width="2" points="7265.53,-200.311 7265.53,-218.862 7155.68,-231.98 7000.32,-231.98 6890.47,-218.862 6890.47,-200.311 7000.32,-187.194 7155.68,-187.194 7265.53,-200.311"/>
<text text-anchor="middle" x="7078" y="-205.887" font-family="Times,serif" font-size="14.00">Class: ToSample, Data: Docs.API</text>
</g>
<!-- 55&#45;&gt;35 -->
<g id="edge45" class="edge"><title>55&#45;&gt;35</title>
<path fill="none" stroke="navy" d="M15075.2,-280.356C15059.3,-276.379 15042.8,-272.911 15027,-270.783 14920.3,-256.386 7380.76,-276.811 7274,-262.783 7228.79,-256.842 7179.16,-243.555 7141.16,-231.874"/>
</g>
<!-- 36 -->
<g id="node32" class="node"><title>36</title>
<polygon fill="bisque" stroke="black" stroke-width="2" points="6872.11,-200.311 6872.11,-218.862 6746.69,-231.98 6569.31,-231.98 6443.89,-218.862 6443.89,-200.311 6569.31,-187.194 6746.69,-187.194 6872.11,-200.311"/>
<text text-anchor="middle" x="6658" y="-205.887" font-family="Times,serif" font-size="14.00">Class: ToSample, Data: LoginFormData</text>
</g>
<!-- 55&#45;&gt;36 -->
<g id="edge46" class="edge"><title>55&#45;&gt;36</title>
<path fill="none" stroke="navy" d="M15079.4,-279.196C15065.1,-275.709 15050.2,-272.701 15036,-270.783 14923.9,-255.659 7002.39,-275.816 6890,-262.783 6838.75,-256.84 6782.17,-243.513 6737.65,-231.813"/>
</g>
<!-- 37 -->
<g id="node33" class="node"><title>37</title>
<polygon fill="bisque" stroke="black" stroke-width="2" points="6425.97,-200.311 6425.97,-218.862 6287.74,-231.98 6092.26,-231.98 5954.03,-218.862 5954.03,-200.311 6092.26,-187.194 6287.74,-187.194 6425.97,-200.311"/>
<text text-anchor="middle" x="6190" y="-205.887" font-family="Times,serif" font-size="14.00">Class: ToSample, Data: PasswordResetToken</text>
</g>
<!-- 55&#45;&gt;37 -->
<g id="edge47" class="edge"><title>55&#45;&gt;37</title>
<path fill="none" stroke="navy" d="M15075.2,-280.355C15059.3,-276.378 15042.8,-272.91 15027,-270.783 14908.7,-254.834 6553.67,-275.339 6435,-262.783 6378.89,-256.845 6316.72,-243.518 6269.05,-231.817"/>
</g>
<!-- 38 -->
<g id="node34" class="node"><title>38</title>
<polygon fill="cyan" stroke="black" stroke-width="2" points="5936.39,-200.311 5936.39,-218.862 5843.02,-231.98 5710.98,-231.98 5617.61,-218.862 5617.61,-200.311 5710.98,-187.194 5843.02,-187.194 5936.39,-200.311"/>
<text text-anchor="middle" x="5777" y="-205.887" font-family="Times,serif" font-size="14.00">Class: ToSample, Data: ST</text>
</g>
<!-- 55&#45;&gt;38 -->
<g id="edge48" class="edge"><title>55&#45;&gt;38</title>
<path fill="none" stroke="navy" d="M15075.2,-280.354C15059.3,-276.378 15042.8,-272.91 15027,-270.783 14902,-253.928 6069.7,-281.764 5945,-262.783 5905.9,-256.831 5863.37,-243.544 5830.88,-231.866"/>
</g>
<!-- 39 -->
<g id="node35" class="node"><title>39</title>
<polygon fill="cyan" stroke="black" stroke-width="2" points="5599.6,-200.311 5599.6,-218.862 5466.86,-231.98 5279.14,-231.98 5146.4,-218.862 5146.4,-200.311 5279.14,-187.194 5466.86,-187.194 5599.6,-200.311"/>
<text text-anchor="middle" x="5373" y="-205.887" font-family="Times,serif" font-size="14.00">Class: ToSample, Data: ServiceDescription</text>
</g>
<!-- 55&#45;&gt;39 -->
<g id="edge49" class="edge"><title>55&#45;&gt;39</title>
<path fill="none" stroke="navy" d="M15075.2,-280.354C15059.3,-276.377 15042.8,-272.909 15027,-270.783 14897.4,-253.306 5739.03,-277.046 5609,-262.783 5554.88,-256.846 5494.99,-243.519 5449.09,-231.818"/>
</g>
<!-- 40 -->
<g id="node36" class="node"><title>40</title>
<polygon fill="bisque" stroke="black" stroke-width="2" points="5129,-200.311 5129,-218.862 5019.46,-231.98 4864.54,-231.98 4755,-218.862 4755,-200.311 4864.54,-187.194 5019.46,-187.194 5129,-200.311"/>
<text text-anchor="middle" x="4942" y="-205.887" font-family="Times,serif" font-size="14.00">Class: ToSample, Data: ServiceId</text>
</g>
<!-- 55&#45;&gt;40 -->
<g id="edge50" class="edge"><title>55&#45;&gt;40</title>
<path fill="none" stroke="navy" d="M15075.2,-280.353C15059.3,-276.377 15042.8,-272.909 15027,-270.783 14890.9,-252.433 5273.18,-280.749 5137,-262.783 5092.01,-256.846 5042.63,-243.559 5004.83,-231.878"/>
</g>
<!-- 41 -->
<g id="node37" class="node"><title>41</title>
<polygon fill="bisque" stroke="black" stroke-width="2" points="4737.34,-200.311 4737.34,-218.862 4622.91,-231.98 4461.09,-231.98 4346.66,-218.862 4346.66,-200.311 4461.09,-187.194 4622.91,-187.194 4737.34,-200.311"/>
<text text-anchor="middle" x="4542" y="-205.887" font-family="Times,serif" font-size="14.00">Class: ToSample, Data: ServiceKey</text>
</g>
<!-- 55&#45;&gt;41 -->
<g id="edge51" class="edge"><title>55&#45;&gt;41</title>
<path fill="none" stroke="navy" d="M15075.2,-280.353C15059.3,-276.376 15042.8,-272.909 15027,-270.783 14885.5,-251.71 4887.67,-280.675 4746,-262.783 4699.03,-256.85 4647.38,-243.563 4607.8,-231.881"/>
</g>
<!-- 42 -->
<g id="node38" class="node"><title>42</title>
<polygon fill="cyan" stroke="black" stroke-width="2" points="4328.68,-200.311 4328.68,-218.862 4209.37,-231.98 4040.63,-231.98 3921.32,-218.862 3921.32,-200.311 4040.63,-187.194 4209.37,-187.194 4328.68,-200.311"/>
<text text-anchor="middle" x="4125" y="-205.887" font-family="Times,serif" font-size="14.00">Class: ToSample, Data: ServiceName</text>
</g>
<!-- 55&#45;&gt;42 -->
<g id="edge52" class="edge"><title>55&#45;&gt;42</title>
<path fill="none" stroke="navy" d="M15075.2,-280.352C15059.3,-276.376 15042.8,-272.909 15027,-270.783 14879.9,-250.955 4485.38,-280.633 4338,-262.783 4289.05,-256.854 4235.12,-243.567 4193.77,-231.883"/>
</g>
<!-- 43 -->
<g id="node39" class="node"><title>43</title>
<polygon fill="bisque" stroke="black" stroke-width="2" points="3903.99,-200.311 3903.99,-218.862 3758.13,-231.98 3551.87,-231.98 3406.01,-218.862 3406.01,-200.311 3551.87,-187.194 3758.13,-187.194 3903.99,-200.311"/>
<text text-anchor="middle" x="3655" y="-205.887" font-family="Times,serif" font-size="14.00">Class: ToSample, Data: ServiceSessionMetadata</text>
</g>
<!-- 55&#45;&gt;43 -->
<g id="edge53" class="edge"><title>55&#45;&gt;43</title>
<path fill="none" stroke="navy" d="M15079.4,-279.193C15065.1,-275.706 15050.2,-272.699 15036,-270.783 14883,-250.167 4074.6,-278.278 3921,-262.783 3862.22,-256.853 3797.01,-243.526 3745.81,-231.823"/>
</g>
<!-- 44 -->
<g id="node40" class="node"><title>44</title>
<polygon fill="bisque" stroke="black" stroke-width="2" points="3388.97,-200.311 3388.97,-218.862 3250.74,-231.98 3055.26,-231.98 2917.03,-218.862 2917.03,-200.311 3055.26,-187.194 3250.74,-187.194 3388.97,-200.311"/>
<text text-anchor="middle" x="3153" y="-205.887" font-family="Times,serif" font-size="14.00">Class: ToSample, Data: ServiceSessionToken</text>
</g>
<!-- 55&#45;&gt;44 -->
<g id="edge54" class="edge"><title>55&#45;&gt;44</title>
<path fill="none" stroke="navy" d="M15075.2,-280.351C15059.3,-276.375 15042.8,-272.908 15027,-270.783 14947,-259.999 3477.31,-271.305 3397,-262.783 3341.11,-256.852 3279.19,-243.525 3231.72,-231.822"/>
</g>
<!-- 45 -->
<g id="node41" class="node"><title>45</title>
<polygon fill="bisque" stroke="black" stroke-width="2" points="10595.1,-200.311 10595.1,-218.862 10455.6,-231.98 10258.4,-231.98 10118.9,-218.862 10118.9,-200.311 10258.4,-187.194 10455.6,-187.194 10595.1,-200.311"/>
<text text-anchor="middle" x="10357" y="-205.887" font-family="Times,serif" font-size="14.00">Class: ToSample, Data: ThentosSessionToken</text>
</g>
<!-- 55&#45;&gt;45 -->
<g id="edge55" class="edge"><title>55&#45;&gt;45</title>
<path fill="none" stroke="navy" d="M15075.2,-280.366C15059.3,-276.389 15042.8,-272.917 15027,-270.783 14905.2,-254.309 10726.2,-275.663 10604,-262.783 10547.4,-256.821 10484.8,-243.494 10436.7,-231.8"/>
</g>
<!-- 46 -->
<g id="node42" class="node"><title>46</title>
<polygon fill="cyan" stroke="black" stroke-width="2" points="10101.2,-200.311 10101.2,-218.862 9988.62,-231.98 9829.38,-231.98 9716.79,-218.862 9716.79,-200.311 9829.38,-187.194 9988.62,-187.194 10101.2,-200.311"/>
<text text-anchor="middle" x="9909" y="-205.887" font-family="Times,serif" font-size="14.00">Class: ToSample, Data: UserEmail</text>
</g>
<!-- 55&#45;&gt;46 -->
<g id="edge56" class="edge"><title>55&#45;&gt;46</title>
<path fill="none" stroke="navy" d="M15075.2,-280.364C15059.3,-276.386 15042.8,-272.916 15027,-270.783 14891.6,-252.482 10245.5,-280.197 10110,-262.783 10063.7,-256.83 10012.8,-243.543 9973.81,-231.865"/>
</g>
<!-- 47 -->
<g id="node43" class="node"><title>47</title>
<polygon fill="bisque" stroke="black" stroke-width="2" points="9698.89,-200.311 9698.89,-218.862 9576.53,-231.98 9403.47,-231.98 9281.11,-218.862 9281.11,-200.311 9403.47,-187.194 9576.53,-187.194 9698.89,-200.311"/>
<text text-anchor="middle" x="9490" y="-205.887" font-family="Times,serif" font-size="14.00">Class: ToSample, Data: UserFormData</text>
</g>
<!-- 55&#45;&gt;47 -->
<g id="edge57" class="edge"><title>55&#45;&gt;47</title>
<path fill="none" stroke="navy" d="M15079.4,-279.203C15065.1,-275.714 15050.2,-272.705 15036,-270.783 14889.6,-250.995 9863.72,-280.214 9717,-262.783 9666.86,-256.825 9611.54,-243.499 9568.01,-231.803"/>
</g>
<!-- 48 -->
<g id="node44" class="node"><title>48</title>
<polygon fill="cyan" stroke="black" stroke-width="2" points="9263.04,-200.311 9263.04,-218.862 9160.5,-231.98 9015.5,-231.98 8912.96,-218.862 8912.96,-200.311 9015.5,-187.194 9160.5,-187.194 9263.04,-200.311"/>
<text text-anchor="middle" x="9088" y="-205.887" font-family="Times,serif" font-size="14.00">Class: ToSample, Data: UserId</text>
</g>
<!-- 55&#45;&gt;48 -->
<g id="edge58" class="edge"><title>55&#45;&gt;48</title>
<path fill="none" stroke="navy" d="M15075.2,-280.361C15059.3,-276.384 15042.8,-272.914 15027,-270.783 14868.6,-249.382 9430.32,-284.916 9272,-262.783 9229.41,-256.829 9182.83,-243.542 9147.19,-231.865"/>
</g>
<!-- 49 -->
<g id="node45" class="node"><title>49</title>
<polygon fill="cyan" stroke="black" stroke-width="2" points="8895.21,-200.311 8895.21,-218.862 8782.62,-231.98 8623.38,-231.98 8510.79,-218.862 8510.79,-200.311 8623.38,-187.194 8782.62,-187.194 8895.21,-200.311"/>
<text text-anchor="middle" x="8703" y="-205.887" font-family="Times,serif" font-size="14.00">Class: ToSample, Data: UserName</text>
</g>
<!-- 55&#45;&gt;49 -->
<g id="edge59" class="edge"><title>55&#45;&gt;49</title>
<path fill="none" stroke="navy" d="M15075.2,-280.359C15059.3,-276.383 15042.8,-272.913 15027,-270.783 14858.4,-248.02 9072.7,-284.441 8904,-262.783 8857.69,-256.837 8806.8,-243.55 8767.81,-231.871"/>
</g>
<!-- 50 -->
<g id="node46" class="node"><title>50</title>
<polygon fill="cyan" stroke="black" stroke-width="2" points="8493.44,-200.311 8493.44,-218.862 8384.81,-231.98 8231.19,-231.98 8122.56,-218.862 8122.56,-200.311 8231.19,-187.194 8384.81,-187.194 8493.44,-200.311"/>
<text text-anchor="middle" x="8308" y="-205.887" font-family="Times,serif" font-size="14.00">Class: ToSample, Data: UserPass</text>
</g>
<!-- 55&#45;&gt;50 -->
<g id="edge60" class="edge"><title>55&#45;&gt;50</title>
<path fill="none" stroke="navy" d="M15075.2,-280.358C15059.3,-276.382 15042.8,-272.912 15027,-270.783 14937.2,-258.658 8591.84,-274.713 8502,-262.783 8457.23,-256.837 8408.11,-243.55 8370.5,-231.87"/>
</g>
<!-- 1&#45;&gt;52 -->
<g id="edge1" class="edge"><title>1&#45;&gt;52</title>
<path fill="none" stroke="black" d="M1718.94,-231.885C1759.12,-243.57 1813.05,-256.857 1862,-262.783 1948.89,-273.302 14379.3,-259.098 14466,-270.783 14480.1,-272.679 14494.8,-275.645 14509.2,-279.087"/>
<polygon fill="black" stroke="black" points="14508.5,-282.533 14519.1,-281.539 14510.2,-275.739 14508.5,-282.533"/>
</g>
<!-- 2&#45;&gt;52 -->
<g id="edge2" class="edge"><title>2&#45;&gt;52</title>
<path fill="none" stroke="black" d="M1230.2,-231.829C1288.67,-243.534 1366.33,-256.861 1436,-262.783 1526.16,-270.445 14376.3,-258.704 14466,-270.783 14480.1,-272.679 14494.8,-275.645 14509.2,-279.087"/>
<polygon fill="black" stroke="black" points="14508.5,-282.533 14519.1,-281.539 14510.2,-275.738 14508.5,-282.533"/>
</g>
<!-- 3&#45;&gt;52 -->
<g id="edge3" class="edge"><title>3&#45;&gt;52</title>
<path fill="none" stroke="black" d="M2215.43,-231.825C2266.25,-243.529 2334,-256.856 2395,-262.783 2478.43,-270.889 14382.9,-259.591 14466,-270.783 14480.1,-272.679 14494.8,-275.645 14509.2,-279.088"/>
<polygon fill="black" stroke="black" points="14508.5,-282.534 14519.1,-281.54 14510.2,-275.739 14508.5,-282.534"/>
</g>
<!-- 13&#45;&gt;51 -->
<g id="edge4" class="edge"><title>13&#45;&gt;51</title>
<path fill="none" stroke="chartreuse" d="M2729.51,-231.824C2777.39,-243.526 2841.33,-256.853 2899,-262.783 3062.51,-279.594 14570.9,-250.009 14734,-270.783 14748.9,-272.683 14764.5,-275.659 14779.8,-279.113"/>
<polygon fill="chartreuse" stroke="chartreuse" points="14779.2,-282.577 14789.8,-281.445 14780.8,-275.761 14779.2,-282.577"/>
</g>
<!-- 14 -->
<g id="node47" class="node"><title>14</title>
<polygon fill="cyan" stroke="black" stroke-width="2" points="328,-143.196 200,-143.196 200,-107.196 328,-107.196 328,-143.196"/>
<text text-anchor="middle" x="264" y="-121.496" font-family="Times,serif" font-size="14.00">pprintAction</text>
</g>
<!-- 17&#45;&gt;14 -->
<g id="edge7" class="edge"><title>17&#45;&gt;14</title>
<path fill="none" stroke="chartreuse" d="M13900.2,-191.551C13891.5,-189.835 13882.5,-188.368 13874,-187.391 13780.6,-176.728 430.27,-200.363 340,-174.196 322.909,-169.241 305.966,-159.178 292.429,-149.54"/>
<polygon fill="chartreuse" stroke="chartreuse" points="294.174,-146.476 284.058,-143.325 290.001,-152.096 294.174,-146.476"/>
</g>
<!-- 23&#45;&gt;25 -->
<g id="edge20" class="edge"><title>23&#45;&gt;25</title>
<path fill="none" stroke="black" d="M13660.4,-191.547C13667.4,-190.06 13674.3,-188.646 13681,-187.391 13801.2,-164.862 13941.7,-146.269 14028.3,-135.698"/>
<polygon fill="black" stroke="black" points="14028.8,-139.16 14038.3,-134.48 14028,-132.212 14028.8,-139.16"/>
</g>
<!-- 24&#45;&gt;25 -->
<g id="edge21" class="edge"><title>24&#45;&gt;25</title>
<path fill="none" stroke="black" d="M13846.8,-191.515C13900.5,-178.176 13975.3,-159.626 14031.4,-145.701"/>
<polygon fill="black" stroke="black" points="14032.4,-149.051 14041.3,-143.245 14030.7,-142.257 14032.4,-149.051"/>
</g>
<!-- 25&#45;&gt;5 -->
<g id="edge22" class="edge"><title>25&#45;&gt;5</title>
<path fill="none" stroke="black" stroke-width="1.69315" d="M14132.5,-143.394C14150.4,-156.661 14176.7,-173.534 14203,-180.793 14226.7,-187.344 14621.8,-185.036 14646,-180.793 14675.3,-175.666 14706.4,-165.44 14732.9,-155.141"/>
<polygon fill="black" stroke="black" stroke-width="1.69315" points="14734.4,-158.294 14742.4,-151.352 14731.8,-151.788 14734.4,-158.294"/>
</g>
<!-- 26 -->
<g id="node48" class="node"><title>26</title>
<polygon fill="bisque" stroke="black" stroke-width="2" points="182,-143.196 30,-143.196 30,-107.196 182,-107.196 182,-143.196"/>
<text text-anchor="middle" x="106" y="-121.496" font-family="Times,serif" font-size="14.00">runTokenBuilder</text>
</g>
<!-- 34&#45;&gt;26 -->
<g id="edge24" class="edge"><title>34&#45;&gt;26</title>
<path fill="none" stroke="black" d="M7358.86,-192.89C7330.98,-190.612 7302.14,-188.623 7275,-187.391 7225.86,-185.161 238.567,-186.746 191,-174.196 171.96,-169.172 152.692,-158.82 137.327,-149.012"/>
<polygon fill="black" stroke="black" points="139.033,-145.944 128.762,-143.344 135.17,-151.781 139.033,-145.944"/>
</g>
<!-- 36&#45;&gt;55 -->
<g id="edge25" class="edge"><title>36&#45;&gt;55</title>
<path fill="none" stroke="black" d="M6722.24,-231.881C6764.39,-243.564 6820.85,-256.851 6872,-262.783 6984.39,-275.816 14905.9,-255.659 15018,-270.783 15032.1,-272.682 15046.8,-275.649 15061.2,-279.092"/>
<polygon fill="black" stroke="black" points="15060.5,-282.538 15071.1,-281.544 15062.2,-275.743 15060.5,-282.538"/>
</g>
<!-- 37&#45;&gt;26 -->
<g id="edge26" class="edge"><title>37&#45;&gt;26</title>
<path fill="none" stroke="black" d="M6031.65,-192.927C6002.84,-190.637 5973.04,-188.634 5945,-187.391 5865.16,-183.852 268.268,-194.6 191,-174.196 171.961,-169.168 152.694,-158.816 137.328,-149.008"/>
<polygon fill="black" stroke="black" points="139.034,-145.94 128.763,-143.341 135.171,-151.778 139.034,-145.94"/>
</g>
<!-- 40&#45;&gt;26 -->
<g id="edge27" class="edge"><title>40&#45;&gt;26</title>
<path fill="none" stroke="black" d="M4815.9,-192.981C4792.69,-190.669 4768.64,-188.645 4746,-187.391 4682.83,-183.894 252.162,-190.367 191,-174.196 171.962,-169.162 152.695,-158.809 137.329,-149.003"/>
<polygon fill="black" stroke="black" points="139.035,-145.935 128.764,-143.336 135.173,-151.773 139.035,-145.935"/>
</g>
<!-- 41&#45;&gt;26 -->
<g id="edge28" class="edge"><title>41&#45;&gt;26</title>
<path fill="none" stroke="black" d="M4410.47,-192.962C4386.39,-190.66 4361.47,-188.645 4338,-187.391 4280.48,-184.32 246.682,-188.926 191,-174.196 171.963,-169.159 152.696,-158.806 137.33,-149"/>
<polygon fill="black" stroke="black" points="139.036,-145.932 128.764,-143.334 135.174,-151.771 139.036,-145.932"/>
</g>
<!-- 43&#45;&gt;55 -->
<g id="edge29" class="edge"><title>43&#45;&gt;55</title>
<path fill="none" stroke="black" d="M3730.15,-231.823C3779.01,-243.526 3844.22,-256.853 3903,-262.783 4056.6,-278.278 14865,-250.167 15018,-270.783 15032.1,-272.68 15046.8,-275.646 15061.2,-279.088"/>
<polygon fill="black" stroke="black" points="15060.5,-282.534 15071.1,-281.541 15062.2,-275.74 15060.5,-282.534"/>
</g>
<!-- 44&#45;&gt;26 -->
<g id="edge30" class="edge"><title>44&#45;&gt;26</title>
<path fill="none" stroke="black" d="M2994.32,-192.96C2965.61,-190.675 2935.94,-188.665 2908,-187.391 2832.61,-183.953 263.947,-193.559 191,-174.196 171.967,-169.143 152.701,-158.789 137.334,-148.986"/>
<polygon fill="black" stroke="black" points="139.04,-145.918 128.768,-143.322 135.179,-151.757 139.04,-145.918"/>
</g>
<!-- 45&#45;&gt;26 -->
<g id="edge31" class="edge"><title>45&#45;&gt;26</title>
<path fill="none" stroke="black" d="M10197.4,-192.905C10168.3,-190.617 10138.3,-188.621 10110,-187.391 10041.2,-184.398 257.607,-191.751 191,-174.196 171.958,-169.177 152.691,-158.826 137.326,-149.016"/>
<polygon fill="black" stroke="black" points="139.032,-145.948 128.761,-143.347 135.168,-151.785 139.032,-145.948"/>
</g>
<!-- 47&#45;&gt;55 -->
<g id="edge32" class="edge"><title>47&#45;&gt;55</title>
<path fill="none" stroke="black" d="M9552.59,-231.871C9593.76,-243.55 9648.95,-256.837 9699,-262.783 9845.72,-280.214 14871.6,-250.995 15018,-270.783 15032.1,-272.685 15046.8,-275.654 15061.2,-279.098"/>
<polygon fill="black" stroke="black" points="15060.5,-282.544 15071.1,-281.551 15062.2,-275.75 15060.5,-282.544"/>
</g>
<!-- 27 -->
<g id="node49" class="node"><title>27</title>
<polygon fill="cyan" stroke="black" stroke-width="2" points="195.5,-52 16.5,-52 16.5,-16 195.5,-16 195.5,-52"/>
<text text-anchor="middle" x="106" y="-30.3" font-family="Times,serif" font-size="14.00">runTokenBuilderState</text>
</g>
<!-- 26&#45;&gt;27 -->
<g id="edge23" class="edge"><title>26&#45;&gt;27</title>
<path fill="none" stroke="chartreuse" d="M106,-106.998C106,-94.4116 106,-77.0717 106,-62.5627"/>
<polygon fill="chartreuse" stroke="chartreuse" points="109.5,-62.145 106,-52.145 102.5,-62.1451 109.5,-62.145"/>
</g>
</g>
</svg>
