<?xml version="1.0" encoding="UTF-8" standalone="no"?>
<!DOCTYPE svg PUBLIC "-//W3C//DTD SVG 1.1//EN"
 "http://www.w3.org/Graphics/SVG/1.1/DTD/svg11.dtd">
<!-- Generated by graphviz version 2.38.0 (20140413.2041)
 -->
<!-- Title: Diagram of: Thentos.Action Pages: 1 -->
<svg width="8418pt" height="260pt"
 viewBox="0.00 0.00 8417.50 260.00" xmlns="http://www.w3.org/2000/svg" xmlns:xlink="http://www.w3.org/1999/xlink">
<g id="graph0" class="graph" transform="scale(1 1) rotate(0) translate(4 256)">
<title>Diagram of: Thentos.Action</title>
<polygon fill="white" stroke="none" points="-4,4 -4,-256 8413.5,-256 8413.5,4 -4,4"/>
<!-- 1 -->
<g id="node1" class="node"><title>1</title>
<polygon fill="gold" stroke="black" stroke-width="2" points="243,-252 0,-252 0,-216 243,-216 243,-252"/>
<text text-anchor="middle" x="121.5" y="-230.3" font-family="Times,serif" font-size="14.00">_changePasswordUnconditionally</text>
</g>
<!-- 2 -->
<g id="node2" class="node"><title>2</title>
<polygon fill="cyan" stroke="black" stroke-width="2" points="1001.5,-36 813.5,-36 813.5,-0 1001.5,-0 1001.5,-36"/>
<text text-anchor="middle" x="907.5" y="-14.3" font-family="Times,serif" font-size="14.00">_lookupThentosSession</text>
</g>
<!-- 3 -->
<g id="node3" class="node"><title>3</title>
<polygon fill="cyan" stroke="black" stroke-width="2" points="3826.5,-180 3698.5,-180 3698.5,-144 3826.5,-144 3826.5,-180"/>
<text text-anchor="middle" x="3762.5" y="-158.3" font-family="Times,serif" font-size="14.00">_lookupUser</text>
</g>
<!-- 4 -->
<g id="node4" class="node"><title>4</title>
<polygon fill="cyan" stroke="black" stroke-width="2" points="3204,-180 2989,-180 2989,-144 3204,-144 3204,-180"/>
<text text-anchor="middle" x="3096.5" y="-158.3" font-family="Times,serif" font-size="14.00">_lookupUserCheckPassword</text>
</g>
<!-- 5 -->
<g id="node5" class="node"><title>5</title>
<polygon fill="khaki" stroke="black" stroke-width="2" points="1201.5,-108 1031.5,-108 1031.5,-72 1201.5,-72 1201.5,-108"/>
<text text-anchor="middle" x="1116.5" y="-86.3" font-family="Times,serif" font-size="14.00">_serviceSessionUser</text>
</g>
<!-- 5&#45;&gt;2 -->
<g id="edge1" class="edge"><title>5&#45;&gt;2</title>
<path fill="none" stroke="black" d="M1065.64,-71.9656C1036.31,-62.1425 999.248,-49.7291 968.376,-39.3891"/>
<polygon fill="black" stroke="black" points="969.182,-35.968 958.588,-36.1108 966.959,-42.6056 969.182,-35.968"/>
</g>
<!-- 52 -->
<g id="node52" class="node"><title>52</title>
<polygon fill="goldenrod" stroke="black" stroke-width="2" points="1394.5,-36 1216.5,-36 1216.5,-0 1394.5,-0 1394.5,-36"/>
<text text-anchor="middle" x="1305.5" y="-14.3" font-family="Times,serif" font-size="14.00">lookupServiceSession</text>
</g>
<!-- 5&#45;&gt;52 -->
<g id="edge2" class="edge"><title>5&#45;&gt;52</title>
<path fill="none" stroke="black" d="M1162.73,-71.8761C1189.03,-62.1365 1222.14,-49.8725 1249.86,-39.6081"/>
<polygon fill="black" stroke="black" points="1251.25,-42.8236 1259.42,-36.0683 1248.82,-36.2594 1251.25,-42.8236"/>
</g>
<!-- 6 -->
<g id="node6" class="node"><title>6</title>
<polygon fill="khaki" stroke="black" stroke-width="2" points="2196.5,-180 1974.5,-180 1974.5,-144 2196.5,-144 2196.5,-180"/>
<text text-anchor="middle" x="2085.5" y="-158.3" font-family="Times,serif" font-size="14.00">_startThentosSessionByAgent</text>
</g>
<!-- 27 -->
<g id="node27" class="node"><title>27</title>
<polygon fill="goldenrod" stroke="black" stroke-width="2" points="2039.5,-108 1855.5,-108 1855.5,-72 2039.5,-72 2039.5,-108"/>
<text text-anchor="middle" x="1947.5" y="-86.3" font-family="Times,serif" font-size="14.00">defaultSessionTimeout</text>
</g>
<!-- 6&#45;&gt;27 -->
<g id="edge3" class="edge"><title>6&#45;&gt;27</title>
<path fill="none" stroke="black" d="M2051.74,-143.876C2033.28,-134.512 2010.22,-122.814 1990.48,-112.803"/>
<polygon fill="black" stroke="black" points="1991.89,-109.592 1981.39,-108.19 1988.72,-115.835 1991.89,-109.592"/>
</g>
<!-- 46 -->
<g id="node46" class="node"><title>46</title>
<polygon fill="goldenrod" stroke="black" stroke-width="2" points="2219,-108 2058,-108 2058,-72 2219,-72 2219,-108"/>
<text text-anchor="middle" x="2138.5" y="-86.3" font-family="Times,serif" font-size="14.00">freshSessionToken</text>
</g>
<!-- 6&#45;&gt;46 -->
<g id="edge4" class="edge"><title>6&#45;&gt;46</title>
<path fill="none" stroke="black" d="M2098.6,-143.697C2104.89,-135.389 2112.55,-125.277 2119.46,-116.141"/>
<polygon fill="black" stroke="black" points="2122.3,-118.19 2125.55,-108.104 2116.72,-113.964 2122.3,-118.19"/>
</g>
<!-- 7 -->
<g id="node7" class="node"><title>7</title>
<polygon fill="khaki" stroke="black" stroke-width="2" points="587.5,-180 331.5,-180 331.5,-144 587.5,-144 587.5,-180"/>
<text text-anchor="middle" x="459.5" y="-158.3" font-family="Times,serif" font-size="14.00">_thentosSessionAndUserIdByToken</text>
</g>
<!-- 53 -->
<g id="node53" class="node"><title>53</title>
<polygon fill="goldenrod" stroke="black" stroke-width="2" points="783,-108 602,-108 602,-72 783,-72 783,-108"/>
<text text-anchor="middle" x="692.5" y="-86.3" font-family="Times,serif" font-size="14.00">lookupThentosSession</text>
</g>
<!-- 7&#45;&gt;53 -->
<g id="edge5" class="edge"><title>7&#45;&gt;53</title>
<path fill="none" stroke="black" d="M516.2,-143.966C549.18,-134.057 590.932,-121.514 625.526,-111.121"/>
<polygon fill="black" stroke="black" points="626.975,-114.34 635.545,-108.111 624.961,-107.636 626.975,-114.34"/>
</g>
<!-- 8 -->
<g id="node8" class="node"><title>8</title>
<polygon fill="goldenrod" stroke="black" stroke-width="2" points="4159,-180 4038,-180 4038,-144 4159,-144 4159,-180"/>
<text text-anchor="middle" x="4098.5" y="-158.3" font-family="Times,serif" font-size="14.00">addContext</text>
</g>
<!-- 9 -->
<g id="node9" class="node"><title>9</title>
<polygon fill="gold" stroke="black" stroke-width="2" points="4691.5,-252 4529.5,-252 4529.5,-216 4691.5,-216 4691.5,-252"/>
<text text-anchor="middle" x="4610.5" y="-230.3" font-family="Times,serif" font-size="14.00">addGroupToGroup</text>
</g>
<!-- 10 -->
<g id="node10" class="node"><title>10</title>
<polygon fill="gold" stroke="black" stroke-width="2" points="2970.5,-180 2776.5,-180 2776.5,-144 2970.5,-144 2970.5,-180"/>
<text text-anchor="middle" x="2873.5" y="-158.3" font-family="Times,serif" font-size="14.00">addPasswordResetToken</text>
</g>
<!-- 40 -->
<g id="node40" class="node"><title>40</title>
<polygon fill="goldenrod" stroke="black" stroke-width="2" points="2974.5,-108 2772.5,-108 2772.5,-72 2974.5,-72 2974.5,-108"/>
<text text-anchor="middle" x="2873.5" y="-86.3" font-family="Times,serif" font-size="14.00">freshPasswordResetToken</text>
</g>
<!-- 10&#45;&gt;40 -->
<g id="edge6" class="edge"><title>10&#45;&gt;40</title>
<path fill="none" stroke="chartreuse" d="M2873.5,-143.697C2873.5,-135.983 2873.5,-126.712 2873.5,-118.112"/>
<polygon fill="chartreuse" stroke="chartreuse" points="2877,-118.104 2873.5,-108.104 2870,-118.104 2877,-118.104"/>
</g>
<!-- 11 -->
<g id="node11" class="node"><title>11</title>
<polygon fill="gold" stroke="black" stroke-width="2" points="4831,-252 4710,-252 4710,-216 4831,-216 4831,-252"/>
<text text-anchor="middle" x="4770.5" y="-230.3" font-family="Times,serif" font-size="14.00">addPersona</text>
</g>
<!-- 12 -->
<g id="node12" class="node"><title>12</title>
<polygon fill="gold" stroke="black" stroke-width="2" points="5019.5,-252 4849.5,-252 4849.5,-216 5019.5,-216 5019.5,-252"/>
<text text-anchor="middle" x="4934.5" y="-230.3" font-family="Times,serif" font-size="14.00">addPersonaToGroup</text>
</g>
<!-- 13 -->
<g id="node13" class="node"><title>13</title>
<polygon fill="gold" stroke="black" stroke-width="2" points="3430,-252 3311,-252 3311,-216 3430,-216 3430,-252"/>
<text text-anchor="middle" x="3370.5" y="-230.3" font-family="Times,serif" font-size="14.00">addService</text>
</g>
<!-- 14 -->
<g id="node14" class="node"><title>14</title>
<polygon fill="bisque" stroke="black" stroke-width="2" points="3523.5,-180 3377.5,-180 3377.5,-144 3523.5,-144 3523.5,-180"/>
<text text-anchor="middle" x="3450.5" y="-158.3" font-family="Times,serif" font-size="14.00">addServicePrim</text>
</g>
<!-- 13&#45;&gt;14 -->
<g id="edge7" class="edge"><title>13&#45;&gt;14</title>
<path fill="none" stroke="black" d="M3390.28,-215.697C3400.25,-206.965 3412.51,-196.24 3423.36,-186.75"/>
<polygon fill="black" stroke="black" points="3425.73,-189.323 3430.95,-180.104 3421.12,-184.055 3425.73,-189.323"/>
</g>
<!-- 43 -->
<g id="node43" class="node"><title>43</title>
<polygon fill="goldenrod" stroke="black" stroke-width="2" points="3359,-180 3222,-180 3222,-144 3359,-144 3359,-180"/>
<text text-anchor="middle" x="3290.5" y="-158.3" font-family="Times,serif" font-size="14.00">freshServiceId</text>
</g>
<!-- 13&#45;&gt;43 -->
<g id="edge8" class="edge"><title>13&#45;&gt;43</title>
<path fill="none" stroke="black" d="M3350.72,-215.697C3340.75,-206.965 3328.49,-196.24 3317.64,-186.75"/>
<polygon fill="black" stroke="black" points="3319.88,-184.055 3310.05,-180.104 3315.27,-189.323 3319.88,-184.055"/>
</g>
<!-- 44 -->
<g id="node44" class="node"><title>44</title>
<polygon fill="goldenrod" stroke="black" stroke-width="2" points="3424,-108 3275,-108 3275,-72 3424,-72 3424,-108"/>
<text text-anchor="middle" x="3349.5" y="-86.3" font-family="Times,serif" font-size="14.00">freshServiceKey</text>
</g>
<!-- 14&#45;&gt;44 -->
<g id="edge9" class="edge"><title>14&#45;&gt;44</title>
<path fill="none" stroke="chartreuse" d="M3425.79,-143.876C3412.83,-134.893 3396.77,-123.763 3382.73,-114.034"/>
<polygon fill="chartreuse" stroke="chartreuse" points="3384.52,-111.009 3374.3,-108.19 3380.53,-116.763 3384.52,-111.009"/>
</g>
<!-- 15 -->
<g id="node15" class="node"><title>15</title>
<polygon fill="gold" stroke="black" stroke-width="2" points="655,-252 470,-252 470,-216 655,-216 655,-252"/>
<text text-anchor="middle" x="562.5" y="-230.3" font-family="Times,serif" font-size="14.00">addServiceRegistration</text>
</g>
<!-- 15&#45;&gt;7 -->
<g id="edge10" class="edge"><title>15&#45;&gt;7</title>
<path fill="none" stroke="black" d="M537.303,-215.876C524.086,-206.893 507.708,-195.763 493.393,-186.034"/>
<polygon fill="black" stroke="black" points="495.032,-182.916 484.793,-180.19 491.097,-188.705 495.032,-182.916"/>
</g>
<!-- 16 -->
<g id="node16" class="node"><title>16</title>
<polygon fill="gold" stroke="black" stroke-width="2" points="2542.5,-180 2366.5,-180 2366.5,-144 2542.5,-144 2542.5,-180"/>
<text text-anchor="middle" x="2454.5" y="-158.3" font-family="Times,serif" font-size="14.00">addUnconfirmedUser</text>
</g>
<!-- 39 -->
<g id="node39" class="node"><title>39</title>
<polygon fill="goldenrod" stroke="black" stroke-width="2" points="2754.5,-108 2560.5,-108 2560.5,-72 2754.5,-72 2754.5,-108"/>
<text text-anchor="middle" x="2657.5" y="-86.3" font-family="Times,serif" font-size="14.00">freshConfirmationToken</text>
</g>
<!-- 16&#45;&gt;39 -->
<g id="edge11" class="edge"><title>16&#45;&gt;39</title>
<path fill="none" stroke="black" d="M2503.9,-143.966C2532.39,-134.142 2568.39,-121.729 2598.37,-111.389"/>
<polygon fill="black" stroke="black" points="2599.57,-114.68 2607.88,-108.111 2597.28,-108.062 2599.57,-114.68"/>
</g>
<!-- 17 -->
<g id="node17" class="node"><title>17</title>
<polygon fill="gold" stroke="black" stroke-width="2" points="5141.5,-252 5037.5,-252 5037.5,-216 5141.5,-216 5141.5,-252"/>
<text text-anchor="middle" x="5089.5" y="-230.3" font-family="Times,serif" font-size="14.00">addUser</text>
</g>
<!-- 18 -->
<g id="node18" class="node"><title>18</title>
<polygon fill="gold" stroke="black" stroke-width="2" points="5279,-252 5160,-252 5160,-216 5279,-216 5279,-252"/>
<text text-anchor="middle" x="5219.5" y="-230.3" font-family="Times,serif" font-size="14.00">agentRoles</text>
</g>
<!-- 19 -->
<g id="node19" class="node"><title>19</title>
<polygon fill="gold" stroke="black" stroke-width="2" points="5426,-252 5297,-252 5297,-216 5426,-216 5426,-252"/>
<text text-anchor="middle" x="5361.5" y="-230.3" font-family="Times,serif" font-size="14.00">allServiceIds</text>
</g>
<!-- 20 -->
<g id="node20" class="node"><title>20</title>
<polygon fill="gold" stroke="black" stroke-width="2" points="5562.5,-252 5444.5,-252 5444.5,-216 5562.5,-216 5562.5,-252"/>
<text text-anchor="middle" x="5503.5" y="-230.3" font-family="Times,serif" font-size="14.00">assignRole</text>
</g>
<!-- 21 -->
<g id="node21" class="node"><title>21</title>
<polygon fill="gold" stroke="black" stroke-width="2" points="4361.5,-252 4143.5,-252 4143.5,-216 4361.5,-216 4361.5,-252"/>
<text text-anchor="middle" x="4252.5" y="-230.3" font-family="Times,serif" font-size="14.00">autocreateServiceIfMissing&#39;P</text>
</g>
<!-- 21&#45;&gt;8 -->
<g id="edge12" class="edge"><title>21&#45;&gt;8</title>
<path fill="none" stroke="black" d="M4214.83,-215.876C4193.87,-206.349 4167.6,-194.407 4145.32,-184.283"/>
<polygon fill="black" stroke="black" points="4146.6,-181.02 4136.05,-180.068 4143.71,-187.393 4146.6,-181.02"/>
</g>
<!-- 26 -->
<g id="node26" class="node"><title>26</title>
<polygon fill="goldenrod" stroke="black" stroke-width="2" points="4340,-180 4177,-180 4177,-144 4340,-144 4340,-180"/>
<text text-anchor="middle" x="4258.5" y="-158.3" font-family="Times,serif" font-size="14.00">contextsForService</text>
</g>
<!-- 21&#45;&gt;26 -->
<g id="edge13" class="edge"><title>21&#45;&gt;26</title>
<path fill="none" stroke="black" d="M4253.98,-215.697C4254.64,-207.983 4255.44,-198.712 4256.18,-190.112"/>
<polygon fill="black" stroke="black" points="4259.67,-190.367 4257.03,-180.104 4252.69,-189.769 4259.67,-190.367"/>
</g>
<!-- 51 -->
<g id="node51" class="node"><title>51</title>
<polygon fill="goldenrod" stroke="black" stroke-width="2" points="4507,-180 4370,-180 4370,-144 4507,-144 4507,-180"/>
<text text-anchor="middle" x="4438.5" y="-158.3" font-family="Times,serif" font-size="14.00">lookupService</text>
</g>
<!-- 21&#45;&gt;51 -->
<g id="edge14" class="edge"><title>21&#45;&gt;51</title>
<path fill="none" stroke="black" d="M4298,-215.876C4323.88,-206.137 4356.47,-193.872 4383.74,-183.608"/>
<polygon fill="black" stroke="black" points="4385.02,-186.866 4393.15,-180.068 4382.56,-180.315 4385.02,-186.866"/>
</g>
<!-- 22 -->
<g id="node22" class="node"><title>22</title>
<polygon fill="gold" stroke="black" stroke-width="2" points="3171,-252 3022,-252 3022,-216 3171,-216 3171,-252"/>
<text text-anchor="middle" x="3096.5" y="-230.3" font-family="Times,serif" font-size="14.00">changePassword</text>
</g>
<!-- 22&#45;&gt;4 -->
<g id="edge15" class="edge"><title>22&#45;&gt;4</title>
<path fill="none" stroke="black" d="M3096.5,-215.697C3096.5,-207.983 3096.5,-198.712 3096.5,-190.112"/>
<polygon fill="black" stroke="black" points="3100,-190.104 3096.5,-180.104 3093,-190.104 3100,-190.104"/>
</g>
<!-- 23 -->
<g id="node23" class="node"><title>23</title>
<polygon fill="gold" stroke="black" stroke-width="2" points="5720.5,-252 5580.5,-252 5580.5,-216 5720.5,-216 5720.5,-252"/>
<text text-anchor="middle" x="5650.5" y="-230.3" font-family="Times,serif" font-size="14.00">collectGarbage</text>
</g>
<!-- 24 -->
<g id="node24" class="node"><title>24</title>
<polygon fill="gold" stroke="black" stroke-width="2" points="2205,-252 2052,-252 2052,-216 2205,-216 2205,-252"/>
<text text-anchor="middle" x="2128.5" y="-230.3" font-family="Times,serif" font-size="14.00">confirmNewUser</text>
</g>
<!-- 24&#45;&gt;6 -->
<g id="edge16" class="edge"><title>24&#45;&gt;6</title>
<path fill="none" stroke="black" d="M2117.87,-215.697C2112.87,-207.559 2106.81,-197.689 2101.29,-188.701"/>
<polygon fill="black" stroke="black" points="2104.22,-186.793 2096.01,-180.104 2098.26,-190.457 2104.22,-186.793"/>
</g>
<!-- 25 -->
<g id="node25" class="node"><title>25</title>
<polygon fill="gold" stroke="black" stroke-width="2" points="5940.5,-252 5738.5,-252 5738.5,-216 5940.5,-216 5940.5,-252"/>
<text text-anchor="middle" x="5839.5" y="-230.3" font-family="Times,serif" font-size="14.00">confirmUserEmailChange</text>
</g>
<!-- 28 -->
<g id="node28" class="node"><title>28</title>
<polygon fill="gold" stroke="black" stroke-width="2" points="6092.5,-252 5958.5,-252 5958.5,-216 6092.5,-216 6092.5,-252"/>
<text text-anchor="middle" x="6025.5" y="-230.3" font-family="Times,serif" font-size="14.00">deleteContext</text>
</g>
<!-- 29 -->
<g id="node29" class="node"><title>29</title>
<polygon fill="gold" stroke="black" stroke-width="2" points="6244.5,-252 6110.5,-252 6110.5,-216 6244.5,-216 6244.5,-252"/>
<text text-anchor="middle" x="6177.5" y="-230.3" font-family="Times,serif" font-size="14.00">deletePersona</text>
</g>
<!-- 30 -->
<g id="node30" class="node"><title>30</title>
<polygon fill="gold" stroke="black" stroke-width="2" points="4511,-252 4380,-252 4380,-216 4511,-216 4511,-252"/>
<text text-anchor="middle" x="4445.5" y="-230.3" font-family="Times,serif" font-size="14.00">deleteService</text>
</g>
<!-- 30&#45;&gt;51 -->
<g id="edge17" class="edge"><title>30&#45;&gt;51</title>
<path fill="none" stroke="black" d="M4443.77,-215.697C4443,-207.983 4442.07,-198.712 4441.21,-190.112"/>
<polygon fill="black" stroke="black" points="4444.69,-189.706 4440.21,-180.104 4437.72,-190.403 4444.69,-189.706"/>
</g>
<!-- 31 -->
<g id="node31" class="node"><title>31</title>
<polygon fill="gold" stroke="black" stroke-width="2" points="6378.5,-252 6262.5,-252 6262.5,-216 6378.5,-216 6378.5,-252"/>
<text text-anchor="middle" x="6320.5" y="-230.3" font-family="Times,serif" font-size="14.00">deleteUser</text>
</g>
<!-- 32 -->
<g id="node32" class="node"><title>32</title>
<polygon fill="gold" stroke="black" stroke-width="2" points="451.5,-252 261.5,-252 261.5,-216 451.5,-216 451.5,-252"/>
<text text-anchor="middle" x="356.5" y="-230.3" font-family="Times,serif" font-size="14.00">dropServiceRegistration</text>
</g>
<!-- 32&#45;&gt;7 -->
<g id="edge18" class="edge"><title>32&#45;&gt;7</title>
<path fill="none" stroke="black" d="M381.697,-215.876C394.914,-206.893 411.292,-195.763 425.607,-186.034"/>
<polygon fill="black" stroke="black" points="427.903,-188.705 434.207,-180.19 423.968,-182.916 427.903,-188.705"/>
</g>
<!-- 33 -->
<g id="node33" class="node"><title>33</title>
<polygon fill="gold" stroke="black" stroke-width="2" points="6556.5,-252 6396.5,-252 6396.5,-216 6556.5,-216 6556.5,-252"/>
<text text-anchor="middle" x="6476.5" y="-230.3" font-family="Times,serif" font-size="14.00">endServiceSession</text>
</g>
<!-- 34 -->
<g id="node34" class="node"><title>34</title>
<polygon fill="gold" stroke="black" stroke-width="2" points="6738,-252 6575,-252 6575,-216 6738,-216 6738,-252"/>
<text text-anchor="middle" x="6656.5" y="-230.3" font-family="Times,serif" font-size="14.00">endThentosSession</text>
</g>
<!-- 35 -->
<g id="node35" class="node"><title>35</title>
<polygon fill="gold" stroke="black" stroke-width="2" points="1391,-108 1220,-108 1220,-72 1391,-72 1391,-108"/>
<text text-anchor="middle" x="1305.5" y="-86.3" font-family="Times,serif" font-size="14.00">existsServiceSession</text>
</g>
<!-- 35&#45;&gt;52 -->
<g id="edge19" class="edge"><title>35&#45;&gt;52</title>
<path fill="none" stroke="black" d="M1305.5,-71.6966C1305.5,-63.9827 1305.5,-54.7125 1305.5,-46.1124"/>
<polygon fill="black" stroke="black" points="1309,-46.1043 1305.5,-36.1043 1302,-46.1044 1309,-46.1043"/>
</g>
<!-- 36 -->
<g id="node36" class="node"><title>36</title>
<polygon fill="gold" stroke="black" stroke-width="2" points="779.5,-180 605.5,-180 605.5,-144 779.5,-144 779.5,-180"/>
<text text-anchor="middle" x="692.5" y="-158.3" font-family="Times,serif" font-size="14.00">existsThentosSession</text>
</g>
<!-- 36&#45;&gt;53 -->
<g id="edge20" class="edge"><title>36&#45;&gt;53</title>
<path fill="none" stroke="black" d="M692.5,-143.697C692.5,-135.983 692.5,-126.712 692.5,-118.112"/>
<polygon fill="black" stroke="black" points="696,-118.104 692.5,-108.104 689,-118.104 696,-118.104"/>
</g>
<!-- 37 -->
<g id="node37" class="node"><title>37</title>
<polygon fill="gold" stroke="black" stroke-width="2" points="6879,-252 6756,-252 6756,-216 6879,-216 6879,-252"/>
<text text-anchor="middle" x="6817.5" y="-230.3" font-family="Times,serif" font-size="14.00">findPersona</text>
</g>
<!-- 38 -->
<g id="node38" class="node"><title>38</title>
<polygon fill="bisque" stroke="black" stroke-width="2" points="2378,-108 2237,-108 2237,-72 2378,-72 2378,-108"/>
<text text-anchor="middle" x="2307.5" y="-86.3" font-family="Times,serif" font-size="14.00">freshCaptchaId</text>
</g>
<!-- 42 -->
<g id="node42" class="node"><title>42</title>
<polygon fill="goldenrod" stroke="black" stroke-width="2" points="2740,-36 2575,-36 2575,-0 2740,-0 2740,-36"/>
<text text-anchor="middle" x="2657.5" y="-14.3" font-family="Times,serif" font-size="14.00">freshRandomName</text>
</g>
<!-- 38&#45;&gt;42 -->
<g id="edge21" class="edge"><title>38&#45;&gt;42</title>
<path fill="none" stroke="black" d="M2378.16,-73.923C2381.31,-73.2691 2384.44,-72.6255 2387.5,-72 2446.42,-59.9581 2512.68,-46.9432 2564.82,-36.8241"/>
<polygon fill="black" stroke="black" points="2565.56,-40.2444 2574.71,-34.9048 2564.23,-33.3724 2565.56,-40.2444"/>
</g>
<!-- 39&#45;&gt;42 -->
<g id="edge22" class="edge"><title>39&#45;&gt;42</title>
<path fill="none" stroke="black" d="M2657.5,-71.6966C2657.5,-63.9827 2657.5,-54.7125 2657.5,-46.1124"/>
<polygon fill="black" stroke="black" points="2661,-46.1043 2657.5,-36.1043 2654,-46.1044 2661,-46.1043"/>
</g>
<!-- 40&#45;&gt;42 -->
<g id="edge23" class="edge"><title>40&#45;&gt;42</title>
<path fill="none" stroke="black" d="M2820.94,-71.9656C2790.49,-62.1 2751.99,-49.6215 2720,-39.255"/>
<polygon fill="black" stroke="black" points="2720.89,-35.8642 2710.3,-36.1108 2718.73,-42.5233 2720.89,-35.8642"/>
</g>
<!-- 41 -->
<g id="node41" class="node"><title>41</title>
<polygon fill="goldenrod" stroke="black" stroke-width="2" points="2542.5,-108 2396.5,-108 2396.5,-72 2542.5,-72 2542.5,-108"/>
<text text-anchor="middle" x="2469.5" y="-86.3" font-family="Times,serif" font-size="14.00">freshRandom20</text>
</g>
<!-- 43&#45;&gt;42 -->
<g id="edge24" class="edge"><title>43&#45;&gt;42</title>
<path fill="none" stroke="black" d="M3238.85,-143.946C3178.24,-124.421 3074.45,-92.4968 2983.5,-72 2905.58,-54.4393 2815.94,-40.297 2750.4,-31.0524"/>
<polygon fill="black" stroke="black" points="2750.48,-27.5299 2740.09,-29.611 2749.51,-34.4625 2750.48,-27.5299"/>
</g>
<!-- 44&#45;&gt;42 -->
<g id="edge25" class="edge"><title>44&#45;&gt;42</title>
<path fill="none" stroke="black" d="M3274.79,-81.4423C3147.53,-68.5691 2889.05,-42.4227 2750.37,-28.3945"/>
<polygon fill="black" stroke="black" points="2750.49,-24.8888 2740.19,-27.3645 2749.79,-31.8533 2750.49,-24.8888"/>
</g>
<!-- 45 -->
<g id="node45" class="node"><title>45</title>
<polygon fill="goldenrod" stroke="black" stroke-width="2" points="1837.5,-108 1635.5,-108 1635.5,-72 1837.5,-72 1837.5,-108"/>
<text text-anchor="middle" x="1736.5" y="-86.3" font-family="Times,serif" font-size="14.00">freshServiceSessionToken</text>
</g>
<!-- 45&#45;&gt;42 -->
<g id="edge26" class="edge"><title>45&#45;&gt;42</title>
<path fill="none" stroke="black" d="M1837.75,-73.0089C1840.7,-72.6537 1843.62,-72.3162 1846.5,-72 2105.97,-43.5271 2413.96,-28.5282 2564.83,-22.3986"/>
<polygon fill="black" stroke="black" points="2565.13,-25.8895 2574.98,-21.9901 2564.85,-18.8952 2565.13,-25.8895"/>
</g>
<!-- 46&#45;&gt;42 -->
<g id="edge27" class="edge"><title>46&#45;&gt;42</title>
<path fill="none" stroke="black" d="M2219.47,-73.2992C2222.17,-72.8492 2224.86,-72.4147 2227.5,-72 2343.29,-53.8252 2477.45,-38.1388 2564.7,-28.6456"/>
<polygon fill="black" stroke="black" points="2565.28,-32.1039 2574.84,-27.5473 2564.52,-25.1446 2565.28,-32.1039"/>
</g>
<!-- 47 -->
<g id="node47" class="node"><title>47</title>
<polygon fill="gold" stroke="black" stroke-width="2" points="1617.5,-108 1409.5,-108 1409.5,-72 1617.5,-72 1617.5,-108"/>
<text text-anchor="middle" x="1513.5" y="-86.3" font-family="Times,serif" font-size="14.00">getServiceSessionMetadata</text>
</g>
<!-- 47&#45;&gt;52 -->
<g id="edge28" class="edge"><title>47&#45;&gt;52</title>
<path fill="none" stroke="black" d="M1462.88,-71.9656C1433.69,-62.1425 1396.81,-49.7291 1366.08,-39.3891"/>
<polygon fill="black" stroke="black" points="1366.94,-35.9833 1356.34,-36.1108 1364.7,-42.6177 1366.94,-35.9833"/>
</g>
<!-- 48 -->
<g id="node48" class="node"><title>48</title>
<polygon fill="gold" stroke="black" stroke-width="2" points="3629,-252 3448,-252 3448,-216 3629,-216 3629,-252"/>
<text text-anchor="middle" x="3538.5" y="-230.3" font-family="Times,serif" font-size="14.00">lookupConfirmedUser</text>
</g>
<!-- 48&#45;&gt;3 -->
<g id="edge29" class="edge"><title>48&#45;&gt;3</title>
<path fill="none" stroke="black" d="M3593.01,-215.966C3624.72,-206.057 3664.86,-193.514 3698.11,-183.121"/>
<polygon fill="black" stroke="black" points="3699.24,-186.434 3707.75,-180.111 3697.16,-179.753 3699.24,-186.434"/>
</g>
<!-- 49 -->
<g id="node49" class="node"><title>49</title>
<polygon fill="gold" stroke="black" stroke-width="2" points="3877.5,-252 3647.5,-252 3647.5,-216 3877.5,-216 3877.5,-252"/>
<text text-anchor="middle" x="3762.5" y="-230.3" font-family="Times,serif" font-size="14.00">lookupConfirmedUserByEmail</text>
</g>
<!-- 49&#45;&gt;3 -->
<g id="edge30" class="edge"><title>49&#45;&gt;3</title>
<path fill="none" stroke="black" d="M3762.5,-215.697C3762.5,-207.983 3762.5,-198.712 3762.5,-190.112"/>
<polygon fill="black" stroke="black" points="3766,-190.104 3762.5,-180.104 3759,-190.104 3766,-190.104"/>
</g>
<!-- 50 -->
<g id="node50" class="node"><title>50</title>
<polygon fill="gold" stroke="black" stroke-width="2" points="4125.5,-252 3895.5,-252 3895.5,-216 4125.5,-216 4125.5,-252"/>
<text text-anchor="middle" x="4010.5" y="-230.3" font-family="Times,serif" font-size="14.00">lookupConfirmedUserByName</text>
</g>
<!-- 50&#45;&gt;3 -->
<g id="edge31" class="edge"><title>50&#45;&gt;3</title>
<path fill="none" stroke="black" d="M3950.15,-215.966C3914.75,-205.972 3869.84,-193.298 3832.84,-182.854"/>
<polygon fill="black" stroke="black" points="3833.7,-179.459 3823.12,-180.111 3831.79,-186.196 3833.7,-179.459"/>
</g>
<!-- 53&#45;&gt;2 -->
<g id="edge32" class="edge"><title>53&#45;&gt;2</title>
<path fill="none" stroke="black" d="M744.82,-71.9656C775.122,-62.1 813.448,-49.6215 845.288,-39.255"/>
<polygon fill="black" stroke="black" points="846.52,-42.5348 854.945,-36.1108 844.353,-35.8787 846.52,-42.5348"/>
</g>
<!-- 54 -->
<g id="node54" class="node"><title>54</title>
<polygon fill="gold" stroke="black" stroke-width="2" points="2348,-180 2215,-180 2215,-144 2348,-144 2348,-180"/>
<text text-anchor="middle" x="2281.5" y="-158.3" font-family="Times,serif" font-size="14.00">makeCaptcha</text>
</g>
<!-- 54&#45;&gt;38 -->
<g id="edge33" class="edge"><title>54&#45;&gt;38</title>
<path fill="none" stroke="black" d="M2287.93,-143.697C2290.86,-135.813 2294.39,-126.304 2297.64,-117.546"/>
<polygon fill="black" stroke="black" points="2300.95,-118.697 2301.15,-108.104 2294.38,-116.26 2300.95,-118.697"/>
</g>
<!-- 54&#45;&gt;41 -->
<g id="edge34" class="edge"><title>54&#45;&gt;41</title>
<path fill="none" stroke="black" d="M2327.49,-143.876C2353.65,-134.137 2386.59,-121.872 2414.15,-111.608"/>
<polygon fill="black" stroke="black" points="2415.51,-114.838 2423.66,-108.068 2413.07,-108.278 2415.51,-114.838"/>
</g>
<!-- 55 -->
<g id="node55" class="node"><title>55</title>
<polygon fill="gold" stroke="black" stroke-width="2" points="7037.5,-252 6897.5,-252 6897.5,-216 7037.5,-216 7037.5,-252"/>
<text text-anchor="middle" x="6967.5" y="-230.3" font-family="Times,serif" font-size="14.00">personaGroups</text>
</g>
<!-- 56 -->
<g id="node56" class="node"><title>56</title>
<polygon fill="gold" stroke="black" stroke-width="2" points="7267.5,-252 7055.5,-252 7055.5,-216 7267.5,-216 7267.5,-252"/>
<text text-anchor="middle" x="7161.5" y="-230.3" font-family="Times,serif" font-size="14.00">registerPersonaWithContext</text>
</g>
<!-- 57 -->
<g id="node57" class="node"><title>57</title>
<polygon fill="gold" stroke="black" stroke-width="2" points="7485,-252 7286,-252 7286,-216 7485,-216 7485,-252"/>
<text text-anchor="middle" x="7385.5" y="-230.3" font-family="Times,serif" font-size="14.00">removeGroupFromGroup</text>
</g>
<!-- 58 -->
<g id="node58" class="node"><title>58</title>
<polygon fill="gold" stroke="black" stroke-width="2" points="7710,-252 7503,-252 7503,-216 7710,-216 7710,-252"/>
<text text-anchor="middle" x="7606.5" y="-230.3" font-family="Times,serif" font-size="14.00">removePersonaFromGroup</text>
</g>
<!-- 59 -->
<g id="node59" class="node"><title>59</title>
<polygon fill="gold" stroke="black" stroke-width="2" points="2758,-180 2561,-180 2561,-144 2758,-144 2758,-180"/>
<text text-anchor="middle" x="2659.5" y="-158.3" font-family="Times,serif" font-size="14.00">requestUserEmailChange</text>
</g>
<!-- 59&#45;&gt;39 -->
<g id="edge35" class="edge"><title>59&#45;&gt;39</title>
<path fill="none" stroke="black" d="M2659.01,-143.697C2658.79,-135.983 2658.52,-126.712 2658.27,-118.112"/>
<polygon fill="black" stroke="black" points="2661.77,-118 2657.99,-108.104 2654.78,-118.2 2661.77,-118"/>
</g>
<!-- 60 -->
<g id="node60" class="node"><title>60</title>
<polygon fill="gold" stroke="black" stroke-width="2" points="7864.5,-252 7728.5,-252 7728.5,-216 7864.5,-216 7864.5,-252"/>
<text text-anchor="middle" x="7796.5" y="-230.3" font-family="Times,serif" font-size="14.00">resetPassword</text>
</g>
<!-- 61 -->
<g id="node61" class="node"><title>61</title>
<polygon fill="gold" stroke="black" stroke-width="2" points="1047.5,-180 797.5,-180 797.5,-144 1047.5,-144 1047.5,-180"/>
<text text-anchor="middle" x="922.5" y="-158.3" font-family="Times,serif" font-size="14.00">serviceNamesFromThentosSession</text>
</g>
<!-- 61&#45;&gt;53 -->
<g id="edge36" class="edge"><title>61&#45;&gt;53</title>
<path fill="none" stroke="black" d="M866.53,-143.966C833.974,-134.057 792.76,-121.514 758.612,-111.121"/>
<polygon fill="black" stroke="black" points="759.307,-107.674 748.721,-108.111 757.269,-114.371 759.307,-107.674"/>
</g>
<!-- 62 -->
<g id="node62" class="node"><title>62</title>
<polygon fill="gold" stroke="black" stroke-width="2" points="8014,-252 7883,-252 7883,-216 8014,-216 8014,-252"/>
<text text-anchor="middle" x="7948.5" y="-230.3" font-family="Times,serif" font-size="14.00">solveCaptcha</text>
</g>
<!-- 63 -->
<g id="node63" class="node"><title>63</title>
<polygon fill="gold" stroke="black" stroke-width="2" points="1818.5,-180 1654.5,-180 1654.5,-144 1818.5,-144 1818.5,-180"/>
<text text-anchor="middle" x="1736.5" y="-158.3" font-family="Times,serif" font-size="14.00">startServiceSession</text>
</g>
<!-- 63&#45;&gt;27 -->
<g id="edge37" class="edge"><title>63&#45;&gt;27</title>
<path fill="none" stroke="black" d="M1787.85,-143.966C1817.46,-134.142 1854.87,-121.729 1886.04,-111.389"/>
<polygon fill="black" stroke="black" points="1887.53,-114.582 1895.92,-108.111 1885.33,-107.938 1887.53,-114.582"/>
</g>
<!-- 63&#45;&gt;45 -->
<g id="edge38" class="edge"><title>63&#45;&gt;45</title>
<path fill="none" stroke="black" d="M1736.5,-143.697C1736.5,-135.983 1736.5,-126.712 1736.5,-118.112"/>
<polygon fill="black" stroke="black" points="1740,-118.104 1736.5,-108.104 1733,-118.104 1740,-118.104"/>
</g>
<!-- 63&#45;&gt;53 -->
<g id="edge39" class="edge"><title>63&#45;&gt;53</title>
<path fill="none" stroke="black" d="M1654.48,-159.492C1492.02,-155.828 1117.74,-144.027 793.257,-108.001"/>
<polygon fill="black" stroke="black" points="793.515,-104.508 783.188,-106.874 792.736,-111.465 793.515,-104.508"/>
</g>
<!-- 64 -->
<g id="node64" class="node"><title>64</title>
<polygon fill="gold" stroke="black" stroke-width="2" points="2033.5,-252 1799.5,-252 1799.5,-216 2033.5,-216 2033.5,-252"/>
<text text-anchor="middle" x="1916.5" y="-230.3" font-family="Times,serif" font-size="14.00">startThentosSessionByServiceId</text>
</g>
<!-- 64&#45;&gt;6 -->
<g id="edge40" class="edge"><title>64&#45;&gt;6</title>
<path fill="none" stroke="black" d="M1957.84,-215.876C1981.05,-206.264 2010.19,-194.193 2034.77,-184.013"/>
<polygon fill="black" stroke="black" points="2036.39,-187.129 2044.29,-180.068 2033.71,-180.662 2036.39,-187.129"/>
</g>
<!-- 65 -->
<g id="node65" class="node"><title>65</title>
<polygon fill="gold" stroke="black" stroke-width="2" points="2469,-252 2228,-252 2228,-216 2469,-216 2469,-252"/>
<text text-anchor="middle" x="2348.5" y="-230.3" font-family="Times,serif" font-size="14.00">startThentosSessionByUserEmail</text>
</g>
<!-- 65&#45;&gt;4 -->
<g id="edge41" class="edge"><title>65&#45;&gt;4</title>
<path fill="none" stroke="black" d="M2469.33,-217.566C2474.46,-217.016 2479.53,-216.491 2484.5,-216 2700.69,-194.641 2758.48,-203.592 2978.53,-180.054"/>
<polygon fill="black" stroke="black" points="2979.23,-183.5 2988.8,-178.946 2978.48,-176.54 2979.23,-183.5"/>
</g>
<!-- 65&#45;&gt;6 -->
<g id="edge42" class="edge"><title>65&#45;&gt;6</title>
<path fill="none" stroke="black" d="M2284.5,-215.966C2246.79,-205.93 2198.93,-193.19 2159.59,-182.721"/>
<polygon fill="black" stroke="black" points="2160.35,-179.301 2149.79,-180.111 2158.55,-186.065 2160.35,-179.301"/>
</g>
<!-- 66 -->
<g id="node66" class="node"><title>66</title>
<polygon fill="gold" stroke="black" stroke-width="2" points="2712,-252 2493,-252 2493,-216 2712,-216 2712,-252"/>
<text text-anchor="middle" x="2602.5" y="-230.3" font-family="Times,serif" font-size="14.00">startThentosSessionByUserId</text>
</g>
<!-- 66&#45;&gt;4 -->
<g id="edge43" class="edge"><title>66&#45;&gt;4</title>
<path fill="none" stroke="black" d="M2712.22,-217.711C2784.88,-207.555 2882.59,-193.835 2978.58,-180.128"/>
<polygon fill="black" stroke="black" points="2979.36,-183.553 2988.76,-178.673 2978.37,-176.623 2979.36,-183.553"/>
</g>
<!-- 66&#45;&gt;6 -->
<g id="edge44" class="edge"><title>66&#45;&gt;6</title>
<path fill="none" stroke="black" d="M2492.75,-218.052C2487.6,-217.357 2482.49,-216.67 2477.5,-216 2359.83,-200.211 2327.98,-196.732 2206.69,-180.157"/>
<polygon fill="black" stroke="black" points="2207.02,-176.669 2196.64,-178.781 2206.07,-183.605 2207.02,-176.669"/>
</g>
<!-- 67 -->
<g id="node67" class="node"><title>67</title>
<polygon fill="gold" stroke="black" stroke-width="2" points="2993,-252 2752,-252 2752,-216 2993,-216 2993,-252"/>
<text text-anchor="middle" x="2872.5" y="-230.3" font-family="Times,serif" font-size="14.00">startThentosSessionByUserName</text>
</g>
<!-- 67&#45;&gt;4 -->
<g id="edge45" class="edge"><title>67&#45;&gt;4</title>
<path fill="none" stroke="black" d="M2927.01,-215.966C2958.72,-206.057 2998.86,-193.514 3032.11,-183.121"/>
<polygon fill="black" stroke="black" points="3033.24,-186.434 3041.75,-180.111 3031.16,-179.753 3033.24,-186.434"/>
</g>
<!-- 67&#45;&gt;6 -->
<g id="edge46" class="edge"><title>67&#45;&gt;6</title>
<path fill="none" stroke="black" d="M2751.8,-218.95C2741.56,-217.897 2731.35,-216.898 2721.5,-216 2495.8,-195.431 2435.81,-203.889 2206.59,-180.07"/>
<polygon fill="black" stroke="black" points="2206.92,-176.586 2196.61,-179.024 2206.19,-183.547 2206.92,-176.586"/>
</g>
<!-- 68 -->
<g id="node68" class="node"><title>68</title>
<polygon fill="gold" stroke="black" stroke-width="2" points="8163,-252 8032,-252 8032,-216 8163,-216 8163,-252"/>
<text text-anchor="middle" x="8097.5" y="-230.3" font-family="Times,serif" font-size="14.00">unassignRole</text>
</g>
<!-- 69 -->
<g id="node69" class="node"><title>69</title>
<polygon fill="gold" stroke="black" stroke-width="2" points="8409.5,-252 8181.5,-252 8181.5,-216 8409.5,-216 8409.5,-252"/>
<text text-anchor="middle" x="8295.5" y="-230.3" font-family="Times,serif" font-size="14.00">unregisterPersonaFromContext</text>
</g>
<!-- 70 -->
<g id="node70" class="node"><title>70</title>
<polygon fill="gold" stroke="black" stroke-width="2" points="1013.5,-108 801.5,-108 801.5,-72 1013.5,-72 1013.5,-108"/>
<text text-anchor="middle" x="907.5" y="-86.3" font-family="Times,serif" font-size="14.00">validateThentosUserSession</text>
</g>
<!-- 70&#45;&gt;2 -->
<g id="edge47" class="edge"><title>70&#45;&gt;2</title>
<path fill="none" stroke="black" d="M907.5,-71.6966C907.5,-63.9827 907.5,-54.7125 907.5,-46.1124"/>
<polygon fill="black" stroke="black" points="911,-46.1043 907.5,-36.1043 904,-46.1044 911,-46.1043"/>
</g>
</g>
</svg>
