<?xml version="1.0" encoding="UTF-8" standalone="no"?>
<!DOCTYPE svg PUBLIC "-//W3C//DTD SVG 1.1//EN"
 "http://www.w3.org/Graphics/SVG/1.1/DTD/svg11.dtd">
<!-- Generated by graphviz version 2.38.0 (20140413.2041)
 -->
<!-- Title: Diagram of: Thentos.Smtp Pages: 1 -->
<svg width="180pt" height="207pt"
 viewBox="0.00 0.00 180.00 207.00" xmlns="http://www.w3.org/2000/svg" xmlns:xlink="http://www.w3.org/1999/xlink">
<g id="graph0" class="graph" transform="scale(1 1) rotate(0) translate(4 203)">
<title>Diagram of: Thentos.Smtp</title>
<polygon fill="white" stroke="none" points="-4,4 -4,-203 176,-203 176,4 -4,4"/>
<g id="clust1" class="cluster"><title>cluster_Data_SendmailError</title>
<path fill="papayawhip" stroke="black" d="M20,-8C20,-8 152,-8 152,-8 158,-8 164,-14 164,-20 164,-20 164,-71 164,-71 164,-77 158,-83 152,-83 152,-83 20,-83 20,-83 14,-83 8,-77 8,-71 8,-71 8,-20 8,-20 8,-14 14,-8 20,-8"/>
<text text-anchor="middle" x="86" y="-67.8" font-family="Times,serif" font-size="14.00">Data: SendmailError</text>
</g>
<!-- 1 -->
<g id="node1" class="node"><title>1</title>
<polygon fill="goldenrod" stroke="black" stroke-width="2" points="155.5,-52 20.5,-52 16.5,-48 16.5,-16 151.5,-16 155.5,-20 155.5,-52"/>
<polyline fill="none" stroke="black" stroke-width="2" points="151.5,-48 16.5,-48 "/>
<polyline fill="none" stroke="black" stroke-width="2" points="151.5,-48 151.5,-16 "/>
<polyline fill="none" stroke="black" stroke-width="2" points="151.5,-48 155.5,-52 "/>
<text text-anchor="middle" x="86" y="-30.3" font-family="Times,serif" font-size="14.00">SendmailError</text>
</g>
<!-- 2 -->
<g id="node2" class="node"><title>2</title>
<polygon fill="gold" stroke="black" stroke-width="2" points="157,-199 15,-199 15,-163 157,-163 157,-199"/>
<text text-anchor="middle" x="86" y="-177.3" font-family="Times,serif" font-size="14.00">checkSendmail</text>
</g>
<!-- 3 -->
<g id="node3" class="node"><title>3</title>
<polygon fill="goldenrod" stroke="black" stroke-width="2" points="141,-127 31,-127 31,-91 141,-91 141,-127"/>
<text text-anchor="middle" x="86" y="-105.3" font-family="Times,serif" font-size="14.00">sendMail</text>
</g>
<!-- 2&#45;&gt;3 -->
<g id="edge1" class="edge"><title>2&#45;&gt;3</title>
<path fill="none" stroke="chartreuse" d="M86,-162.697C86,-154.983 86,-145.712 86,-137.112"/>
<polygon fill="chartreuse" stroke="chartreuse" points="89.5001,-137.104 86,-127.104 82.5001,-137.104 89.5001,-137.104"/>
</g>
<!-- 3&#45;&gt;1 -->
<g id="edge2" class="edge"><title>3&#45;&gt;1</title>
<path fill="none" stroke="chartreuse" d="M86,-90.7C86,-82.2452 86,-71.8688 86,-62.3732"/>
<polygon fill="chartreuse" stroke="chartreuse" points="89.5001,-62.1758 86,-52.1758 82.5001,-62.1758 89.5001,-62.1758"/>
</g>
</g>
</svg>
