<?xml version="1.0" encoding="UTF-8" standalone="no"?>
<!DOCTYPE svg PUBLIC "-//W3C//DTD SVG 1.1//EN"
 "http://www.w3.org/Graphics/SVG/1.1/DTD/svg11.dtd">
<!-- Generated by graphviz version 2.38.0 (20140413.2041)
 -->
<!-- Title: Levels within Thentos.Action.SimpleAuth Pages: 1 -->
<svg width="584pt" height="243pt"
 viewBox="0.00 0.00 584.00 243.00" xmlns="http://www.w3.org/2000/svg" xmlns:xlink="http://www.w3.org/1999/xlink">
<g id="graph0" class="graph" transform="scale(1 1) rotate(0) translate(4 239)">
<title>Levels within Thentos.Action.SimpleAuth</title>
<polygon fill="white" stroke="none" points="-4,4 -4,-239 580,-239 580,4 -4,4"/>
<g id="clust1" class="cluster"><title>cluster_0</title>
<polygon fill="lavender" stroke="black" points="8,-8 8,-227 568,-227 568,-8 8,-8"/>
<text text-anchor="middle" x="288" y="-211.8" font-family="Times,serif" font-size="14.00">Exported root entities</text>
</g>
<!-- 1 -->
<g id="node1" class="node"><title>1</title>
<polygon fill="goldenrod" stroke="black" stroke-width="2" points="560.5,-52 397.5,-52 393.5,-48 393.5,-16 556.5,-16 560.5,-20 560.5,-52"/>
<polyline fill="none" stroke="black" stroke-width="2" points="556.5,-48 393.5,-48 "/>
<polyline fill="none" stroke="black" stroke-width="2" points="556.5,-48 556.5,-16 "/>
<polyline fill="none" stroke="black" stroke-width="2" points="556.5,-48 560.5,-52 "/>
<text text-anchor="middle" x="477" y="-30.3" font-family="Times,serif" font-size="14.00">Data: UnsafeAction</text>
</g>
<!-- 2 -->
<g id="node2" class="node"><title>2</title>
<polygon fill="goldenrod" stroke="black" stroke-width="2" points="410,-124 294,-124 294,-88 410,-88 410,-124"/>
<text text-anchor="middle" x="352" y="-102.3" font-family="Times,serif" font-size="14.00">assertAuth</text>
</g>
<!-- 4 -->
<g id="node3" class="node"><title>4</title>
<polygon fill="gold" stroke="black" stroke-width="2" points="511.5,-196 334.5,-196 334.5,-160 511.5,-160 511.5,-196"/>
<text text-anchor="middle" x="423" y="-174.3" font-family="Times,serif" font-size="14.00">guardedUnsafeAction</text>
</g>
<!-- 4&#45;&gt;2 -->
<g id="edge1" class="edge"><title>4&#45;&gt;2</title>
<path fill="none" stroke="black" d="M405.449,-159.697C396.766,-151.135 386.137,-140.656 376.652,-131.304"/>
<polygon fill="black" stroke="black" points="378.927,-128.633 369.349,-124.104 374.012,-133.617 378.927,-128.633"/>
</g>
<!-- 9 -->
<g id="node8" class="node"><title>9</title>
<polygon fill="goldenrod" stroke="black" stroke-width="2" points="559.5,-124 428.5,-124 428.5,-88 559.5,-88 559.5,-124"/>
<text text-anchor="middle" x="494" y="-102.3" font-family="Times,serif" font-size="14.00">unsafeAction</text>
</g>
<!-- 4&#45;&gt;9 -->
<g id="edge2" class="edge"><title>4&#45;&gt;9</title>
<path fill="none" stroke="black" d="M440.551,-159.697C449.234,-151.135 459.863,-140.656 469.348,-131.304"/>
<polygon fill="black" stroke="black" points="471.988,-133.617 476.651,-124.104 467.073,-128.633 471.988,-133.617"/>
</g>
<!-- 5 -->
<g id="node4" class="node"><title>5</title>
<polygon fill="gold" stroke="black" stroke-width="2" points="267,-196 157,-196 157,-160 267,-160 267,-196"/>
<text text-anchor="middle" x="212" y="-174.3" font-family="Times,serif" font-size="14.00">hasAgent</text>
</g>
<!-- 7 -->
<g id="node6" class="node"><title>7</title>
<polygon fill="goldenrod" stroke="black" stroke-width="2" points="144,-124 16,-124 16,-88 144,-88 144,-124"/>
<text text-anchor="middle" x="80" y="-102.3" font-family="Times,serif" font-size="14.00">hasServiceId</text>
</g>
<!-- 5&#45;&gt;7 -->
<g id="edge3" class="edge"><title>5&#45;&gt;7</title>
<path fill="none" stroke="black" d="M179.709,-159.876C162.131,-150.554 140.191,-138.919 121.371,-128.939"/>
<polygon fill="black" stroke="black" points="122.889,-125.783 112.415,-124.19 119.61,-131.967 122.889,-125.783"/>
</g>
<!-- 8 -->
<g id="node7" class="node"><title>8</title>
<polygon fill="goldenrod" stroke="black" stroke-width="2" points="275.5,-124 162.5,-124 162.5,-88 275.5,-88 275.5,-124"/>
<text text-anchor="middle" x="219" y="-102.3" font-family="Times,serif" font-size="14.00">hasUserId</text>
</g>
<!-- 5&#45;&gt;8 -->
<g id="edge4" class="edge"><title>5&#45;&gt;8</title>
<path fill="none" stroke="black" d="M213.73,-159.697C214.502,-151.983 215.429,-142.712 216.289,-134.112"/>
<polygon fill="black" stroke="black" points="219.777,-134.403 217.29,-124.104 212.812,-133.706 219.777,-134.403"/>
</g>
<!-- 6 -->
<g id="node5" class="node"><title>6</title>
<polygon fill="gold" stroke="black" stroke-width="2" points="132,-196 30,-196 30,-160 132,-160 132,-196"/>
<text text-anchor="middle" x="81" y="-174.3" font-family="Times,serif" font-size="14.00">hasRole</text>
</g>
<!-- 9&#45;&gt;1 -->
<g id="edge5" class="edge"><title>9&#45;&gt;1</title>
<path fill="none" stroke="chartreuse" d="M489.798,-87.6966C487.904,-79.8979 485.623,-70.5085 483.516,-61.8292"/>
<polygon fill="chartreuse" stroke="chartreuse" points="486.915,-60.9959 481.154,-52.1043 480.113,-62.6479 486.915,-60.9959"/>
</g>
</g>
</svg>
