<?xml version="1.0" encoding="UTF-8" standalone="no"?>
<!DOCTYPE svg PUBLIC "-//W3C//DTD SVG 1.1//EN"
 "http://www.w3.org/Graphics/SVG/1.1/DTD/svg11.dtd">
<!-- Generated by graphviz version 2.38.0 (20140413.2041)
 -->
<!-- Title: Levels within Thentos.Action.Unsafe Pages: 1 -->
<svg width="1392pt" height="171pt"
 viewBox="0.00 0.00 1392.00 171.00" xmlns="http://www.w3.org/2000/svg" xmlns:xlink="http://www.w3.org/1999/xlink">
<g id="graph0" class="graph" transform="scale(1 1) rotate(0) translate(4 167)">
<title>Levels within Thentos.Action.Unsafe</title>
<polygon fill="white" stroke="none" points="-4,4 -4,-167 1388,-167 1388,4 -4,4"/>
<g id="clust1" class="cluster"><title>cluster_0</title>
<polygon fill="lavender" stroke="black" points="8,-8 8,-155 1376,-155 1376,-8 8,-8"/>
<text text-anchor="middle" x="692" y="-139.8" font-family="Times,serif" font-size="14.00">Exported root entities</text>
</g>
<!-- 1 -->
<g id="node1" class="node"><title>1</title>
<polygon fill="gold" stroke="black" stroke-width="2" points="1367.5,-124 1212.5,-124 1212.5,-88 1367.5,-88 1367.5,-124"/>
<text text-anchor="middle" x="1290" y="-102.3" font-family="Times,serif" font-size="14.00">genRandomBytes</text>
</g>
<!-- 2 -->
<g id="node2" class="node"><title>2</title>
<polygon fill="gold" stroke="black" stroke-width="2" points="1194.5,-124 1081.5,-124 1081.5,-88 1194.5,-88 1194.5,-124"/>
<text text-anchor="middle" x="1138" y="-102.3" font-family="Times,serif" font-size="14.00">getConfig</text>
</g>
<!-- 3 -->
<g id="node3" class="node"><title>3</title>
<polygon fill="gold" stroke="black" stroke-width="2" points="1063,-124 917,-124 917,-88 1063,-88 1063,-124"/>
<text text-anchor="middle" x="990" y="-102.3" font-family="Times,serif" font-size="14.00">getCurrentTime</text>
</g>
<!-- 4 -->
<g id="node4" class="node"><title>4</title>
<polygon fill="gold" stroke="black" stroke-width="2" points="899,-124 753,-124 753,-88 899,-88 899,-124"/>
<text text-anchor="middle" x="826" y="-102.3" font-family="Times,serif" font-size="14.00">hashServiceKey</text>
</g>
<!-- 5 -->
<g id="node5" class="node"><title>5</title>
<polygon fill="gold" stroke="black" stroke-width="2" points="734.5,-124 601.5,-124 601.5,-88 734.5,-88 734.5,-124"/>
<text text-anchor="middle" x="668" y="-102.3" font-family="Times,serif" font-size="14.00">hashUserPass</text>
</g>
<!-- 6 -->
<g id="node6" class="node"><title>6</title>
<polygon fill="gold" stroke="black" stroke-width="2" points="583.5,-124 470.5,-124 470.5,-88 583.5,-88 583.5,-124"/>
<text text-anchor="middle" x="527" y="-102.3" font-family="Times,serif" font-size="14.00">logIfError</text>
</g>
<!-- 7 -->
<g id="node7" class="node"><title>7</title>
<polygon fill="goldenrod" stroke="black" stroke-width="2" points="573.5,-52 480.5,-52 480.5,-16 573.5,-16 573.5,-52"/>
<text text-anchor="middle" x="527" y="-30.3" font-family="Times,serif" font-size="14.00">logger</text>
</g>
<!-- 6&#45;&gt;7 -->
<g id="edge1" class="edge"><title>6&#45;&gt;7</title>
<path fill="none" stroke="chartreuse" d="M527,-87.6966C527,-79.9827 527,-70.7125 527,-62.1124"/>
<polygon fill="chartreuse" stroke="chartreuse" points="530.5,-62.1043 527,-52.1043 523.5,-62.1044 530.5,-62.1043"/>
</g>
<!-- 8 -->
<g id="node8" class="node"><title>8</title>
<polygon fill="gold" stroke="black" stroke-width="2" points="452,-124 252,-124 252,-88 452,-88 452,-124"/>
<text text-anchor="middle" x="352" y="-102.3" font-family="Times,serif" font-size="14.00">makeUserFromFormData</text>
</g>
<!-- 9 -->
<g id="node9" class="node"><title>9</title>
<polygon fill="gold" stroke="black" stroke-width="2" points="233.5,-124 144.5,-124 144.5,-88 233.5,-88 233.5,-124"/>
<text text-anchor="middle" x="189" y="-102.3" font-family="Times,serif" font-size="14.00">query</text>
</g>
<!-- 10 -->
<g id="node10" class="node"><title>10</title>
<polygon fill="gold" stroke="black" stroke-width="2" points="126,-124 16,-124 16,-88 126,-88 126,-124"/>
<text text-anchor="middle" x="71" y="-102.3" font-family="Times,serif" font-size="14.00">sendMail</text>
</g>
</g>
</svg>
