<?xml version="1.0" encoding="UTF-8" standalone="no"?>
<!DOCTYPE svg PUBLIC "-//W3C//DTD SVG 1.1//EN"
 "http://www.w3.org/Graphics/SVG/1.1/DTD/svg11.dtd">
<!-- Generated by graphviz version 2.38.0 (20140413.2041)
 -->
<!-- Title: Diagram of: Thentos.Action.SimpleAuth Pages: 1 -->
<svg width="575pt" height="279pt"
 viewBox="0.00 0.00 575.00 279.00" xmlns="http://www.w3.org/2000/svg" xmlns:xlink="http://www.w3.org/1999/xlink">
<g id="graph0" class="graph" transform="scale(1 1) rotate(0) translate(4 275)">
<title>Diagram of: Thentos.Action.SimpleAuth</title>
<polygon fill="white" stroke="none" points="-4,4 -4,-275 571,-275 571,4 -4,4"/>
<g id="clust1" class="cluster"><title>cluster_Data_UnsafeAction</title>
<path fill="papayawhip" stroke="black" d="M123,-8C123,-8 277,-8 277,-8 283,-8 289,-14 289,-20 289,-20 289,-143 289,-143 289,-149 283,-155 277,-155 277,-155 123,-155 123,-155 117,-155 111,-149 111,-143 111,-143 111,-20 111,-20 111,-14 117,-8 123,-8"/>
<text text-anchor="middle" x="200" y="-139.8" font-family="Times,serif" font-size="14.00">Data: UnsafeAction</text>
</g>
<!-- 1 -->
<g id="node1" class="node"><title>1</title>
<polygon fill="goldenrod" stroke="black" stroke-width="2" points="267,-52 137,-52 133,-48 133,-16 263,-16 267,-20 267,-52"/>
<polyline fill="none" stroke="black" stroke-width="2" points="263,-48 133,-48 "/>
<polyline fill="none" stroke="black" stroke-width="2" points="263,-48 263,-16 "/>
<polyline fill="none" stroke="black" stroke-width="2" points="263,-48 267,-52 "/>
<text text-anchor="middle" x="200" y="-30.3" font-family="Times,serif" font-size="14.00">UnsafeAction</text>
</g>
<!-- 3 -->
<g id="node2" class="node"><title>3</title>
<polygon fill="goldenrod" stroke="black" stroke-width="2" points="280.5,-124 119.5,-124 119.5,-120 115.5,-120 115.5,-116 119.5,-116 119.5,-96 115.5,-96 115.5,-92 119.5,-92 119.5,-88 280.5,-88 280.5,-124"/>
<polyline fill="none" stroke="black" stroke-width="2" points="119.5,-120 123.5,-120 123.5,-116 119.5,-116 "/>
<polyline fill="none" stroke="black" stroke-width="2" points="119.5,-96 123.5,-96 123.5,-92 119.5,-92 "/>
<text text-anchor="middle" x="200" y="-102.3" font-family="Times,serif" font-size="14.00">fromUnsafeAction</text>
</g>
<!-- 3&#45;&gt;1 -->
<g id="edge1" class="edge"><title>3&#45;&gt;1</title>
<path fill="none" stroke="magenta" d="M200,-87.6966C200,-79.9827 200,-70.7125 200,-62.1124"/>
<polygon fill="magenta" stroke="magenta" points="200,-52.1043 204.5,-62.1043 200,-57.1043 200,-62.1043 200,-62.1043 200,-62.1043 200,-57.1043 195.5,-62.1044 200,-52.1043 200,-52.1043"/>
</g>
<!-- 2 -->
<g id="node3" class="node"><title>2</title>
<polygon fill="goldenrod" stroke="black" stroke-width="2" points="116,-199 7.10543e-15,-199 7.10543e-15,-163 116,-163 116,-199"/>
<text text-anchor="middle" x="58" y="-177.3" font-family="Times,serif" font-size="14.00">assertAuth</text>
</g>
<!-- 4 -->
<g id="node4" class="node"><title>4</title>
<polygon fill="gold" stroke="black" stroke-width="2" points="251.5,-271 74.5,-271 74.5,-235 251.5,-235 251.5,-271"/>
<text text-anchor="middle" x="163" y="-249.3" font-family="Times,serif" font-size="14.00">guardedUnsafeAction</text>
</g>
<!-- 4&#45;&gt;2 -->
<g id="edge2" class="edge"><title>4&#45;&gt;2</title>
<path fill="none" stroke="black" d="M137.314,-234.876C123.712,-225.808 106.828,-214.552 92.1388,-204.759"/>
<polygon fill="black" stroke="black" points="94.0466,-201.825 83.7846,-199.19 90.1637,-207.649 94.0466,-201.825"/>
</g>
<!-- 9 -->
<g id="node9" class="node"><title>9</title>
<polygon fill="goldenrod" stroke="black" stroke-width="2" points="265.5,-199 134.5,-199 134.5,-163 265.5,-163 265.5,-199"/>
<text text-anchor="middle" x="200" y="-177.3" font-family="Times,serif" font-size="14.00">unsafeAction</text>
</g>
<!-- 4&#45;&gt;9 -->
<g id="edge3" class="edge"><title>4&#45;&gt;9</title>
<path fill="none" stroke="black" d="M172.146,-234.697C176.403,-226.644 181.556,-216.894 186.266,-207.982"/>
<polygon fill="black" stroke="black" points="189.38,-209.581 190.959,-199.104 183.192,-206.31 189.38,-209.581"/>
</g>
<!-- 5 -->
<g id="node5" class="node"><title>5</title>
<polygon fill="gold" stroke="black" stroke-width="2" points="447,-271 337,-271 337,-235 447,-235 447,-271"/>
<text text-anchor="middle" x="392" y="-249.3" font-family="Times,serif" font-size="14.00">hasAgent</text>
</g>
<!-- 7 -->
<g id="node7" class="node"><title>7</title>
<polygon fill="goldenrod" stroke="black" stroke-width="2" points="419,-199 291,-199 291,-163 419,-163 419,-199"/>
<text text-anchor="middle" x="355" y="-177.3" font-family="Times,serif" font-size="14.00">hasServiceId</text>
</g>
<!-- 5&#45;&gt;7 -->
<g id="edge4" class="edge"><title>5&#45;&gt;7</title>
<path fill="none" stroke="black" d="M382.854,-234.697C378.597,-226.644 373.444,-216.894 368.734,-207.982"/>
<polygon fill="black" stroke="black" points="371.808,-206.31 364.041,-199.104 365.62,-209.581 371.808,-206.31"/>
</g>
<!-- 8 -->
<g id="node8" class="node"><title>8</title>
<polygon fill="goldenrod" stroke="black" stroke-width="2" points="550.5,-199 437.5,-199 437.5,-163 550.5,-163 550.5,-199"/>
<text text-anchor="middle" x="494" y="-177.3" font-family="Times,serif" font-size="14.00">hasUserId</text>
</g>
<!-- 5&#45;&gt;8 -->
<g id="edge5" class="edge"><title>5&#45;&gt;8</title>
<path fill="none" stroke="black" d="M416.952,-234.876C430.042,-225.893 446.26,-214.763 460.436,-205.034"/>
<polygon fill="black" stroke="black" points="462.687,-207.734 468.952,-199.19 458.726,-201.962 462.687,-207.734"/>
</g>
<!-- 6 -->
<g id="node6" class="node"><title>6</title>
<polygon fill="gold" stroke="black" stroke-width="2" points="567,-271 465,-271 465,-235 567,-235 567,-271"/>
<text text-anchor="middle" x="516" y="-249.3" font-family="Times,serif" font-size="14.00">hasRole</text>
</g>
<!-- 9&#45;&gt;3 -->
<g id="edge6" class="edge"><title>9&#45;&gt;3</title>
<path fill="none" stroke="chartreuse" d="M200,-162.7C200,-154.245 200,-143.869 200,-134.373"/>
<polygon fill="chartreuse" stroke="chartreuse" points="203.5,-134.176 200,-124.176 196.5,-134.176 203.5,-134.176"/>
</g>
</g>
</svg>
