<?xml version="1.0" encoding="UTF-8" standalone="no"?>
<!DOCTYPE svg PUBLIC "-//W3C//DTD SVG 1.1//EN"
 "http://www.w3.org/Graphics/SVG/1.1/DTD/svg11.dtd">
<!-- Generated by graphviz version 2.38.0 (20140413.2041)
 -->
<!-- Title: Diagram of: Thentos.Frontend.Handlers Pages: 1 -->
<svg width="2956pt" height="278pt"
 viewBox="0.00 0.00 2955.50 277.74" xmlns="http://www.w3.org/2000/svg" xmlns:xlink="http://www.w3.org/1999/xlink">
<g id="graph0" class="graph" transform="scale(1 1) rotate(0) translate(4 273.744)">
<title>Diagram of: Thentos.Frontend.Handlers</title>
<polygon fill="white" stroke="none" points="-4,4 -4,-273.744 2951.5,-273.744 2951.5,4 -4,4"/>
<g id="clust1" class="cluster"><title>cluster_Class_HasServer</title>
<path fill="#ffc1c1" stroke="black" d="M20,-56C20,-56 263,-56 263,-56 269,-56 275,-62 275,-68 275,-68 275,-249.744 275,-249.744 275,-255.744 269,-261.744 263,-261.744 263,-261.744 20,-261.744 20,-261.744 14,-261.744 8,-255.744 8,-249.744 8,-249.744 8,-68 8,-68 8,-62 14,-56 20,-56"/>
<text text-anchor="middle" x="141.5" y="-246.544" font-family="Times,serif" font-size="14.00">Class: HasServer</text>
</g>
<g id="clust2" class="cluster"><title>cluster_Class_HasServer_Data_FormReqBodysublayout</title>
<path fill="#c6e2ff" stroke="black" d="M28,-64C28,-64 255,-64 255,-64 261,-64 267,-70 267,-76 267,-76 267,-135.391 267,-135.391 267,-141.391 261,-147.391 255,-147.391 255,-147.391 28,-147.391 28,-147.391 22,-147.391 16,-141.391 16,-135.391 16,-135.391 16,-76 16,-76 16,-70 22,-64 28,-64"/>
<text text-anchor="middle" x="141.5" y="-132.191" font-family="Times,serif" font-size="14.00">Instance for: (FormReqBody :&gt; sublayout)</text>
</g>
<!-- 11 -->
<g id="node1" class="node"><title>11</title>
<polygon fill="cyan" stroke="black" stroke-width="2" points="206.644,-84.9201 206.644,-103.471 168.19,-116.589 113.81,-116.589 75.3564,-103.471 75.3564,-84.9201 113.81,-71.8026 168.19,-71.8026 206.644,-84.9201"/>
<text text-anchor="middle" x="141" y="-90.4956" font-family="Times,serif" font-size="14.00">route</text>
</g>
<!-- 26 -->
<g id="node2" class="node"><title>26</title>
<polygon fill="khaki" stroke="black" stroke-dasharray="1,5" points="261.858,-179.053 261.858,-207.082 191.061,-226.902 90.9389,-226.902 20.1417,-207.082 20.1417,-179.053 90.9389,-159.233 191.061,-159.233 261.858,-179.053"/>
<polygon fill="none" stroke="black" stroke-dasharray="1,5" points="265.856,-176 265.856,-210.135 191.607,-230.921 90.3926,-230.921 16.144,-210.135 16.144,-176 90.3926,-155.214 191.607,-155.214 265.856,-176"/>
<text text-anchor="middle" x="141" y="-196.867" font-family="Times,serif" font-size="14.00">Unknown Module</text>
<text text-anchor="middle" x="141" y="-181.867" font-family="Times,serif" font-size="14.00">route</text>
</g>
<!-- 26&#45;&gt;11 -->
<g id="edge18" class="edge"><title>26&#45;&gt;11</title>
<path fill="none" stroke="navy" d="M141,-155.168C141,-142.122 141,-127.89 141,-116.565"/>
</g>
<!-- 1 -->
<g id="node3" class="node"><title>1</title>
<polygon fill="gold" stroke="black" stroke-width="2" points="408,-211.067 284,-211.067 284,-175.067 408,-175.067 408,-211.067"/>
<text text-anchor="middle" x="346" y="-189.367" font-family="Times,serif" font-size="14.00">dashboardH</text>
</g>
<!-- 2 -->
<g id="node4" class="node"><title>2</title>
<polygon fill="cyan" stroke="black" stroke-width="2" points="554,-112.196 402,-112.196 402,-76.1956 554,-76.1956 554,-112.196"/>
<text text-anchor="middle" x="478" y="-90.4956" font-family="Times,serif" font-size="14.00">defaultUserRoles</text>
</g>
<!-- 3 -->
<g id="node5" class="node"><title>3</title>
<polygon fill="gold" stroke="black" stroke-width="2" points="2146,-211.067 2004,-211.067 2004,-175.067 2146,-175.067 2146,-211.067"/>
<text text-anchor="middle" x="2075" y="-189.367" font-family="Times,serif" font-size="14.00">disableCaching</text>
</g>
<!-- 4 -->
<g id="node6" class="node"><title>4</title>
<polygon fill="gold" stroke="black" stroke-width="2" points="2349.5,-211.067 2164.5,-211.067 2164.5,-175.067 2349.5,-175.067 2349.5,-211.067"/>
<text text-anchor="middle" x="2257" y="-189.367" font-family="Times,serif" font-size="14.00">emailUpdateConfirmH</text>
</g>
<!-- 5 -->
<g id="node7" class="node"><title>5</title>
<polygon fill="gold" stroke="black" stroke-width="2" points="1115,-211.067 977,-211.067 977,-175.067 1115,-175.067 1115,-211.067"/>
<text text-anchor="middle" x="1046" y="-189.367" font-family="Times,serif" font-size="14.00">emailUpdateH</text>
</g>
<!-- 6 -->
<g id="node8" class="node"><title>6</title>
<polygon fill="cyan" stroke="black" stroke-width="2" points="1344.5,-112.196 1249.5,-112.196 1249.5,-76.1956 1344.5,-76.1956 1344.5,-112.196"/>
<text text-anchor="middle" x="1297" y="-90.4956" font-family="Times,serif" font-size="14.00">formH</text>
</g>
<!-- 5&#45;&gt;6 -->
<g id="edge1" class="edge"><title>5&#45;&gt;6</title>
<path fill="none" stroke="black" d="M1080.21,-175.032C1093.71,-168.56 1109.45,-161.324 1124,-155.391 1161.92,-139.927 1205.47,-124.788 1239.39,-113.56"/>
<polygon fill="black" stroke="black" points="1240.73,-116.803 1249.14,-110.353 1238.55,-110.153 1240.73,-116.803"/>
</g>
<!-- 7 -->
<g id="node9" class="node"><title>7</title>
<polygon fill="gold" stroke="black" stroke-width="2" points="1291,-211.067 1133,-211.067 1133,-175.067 1291,-175.067 1291,-211.067"/>
<text text-anchor="middle" x="1212" y="-189.367" font-family="Times,serif" font-size="14.00">passwordUpdateH</text>
</g>
<!-- 7&#45;&gt;6 -->
<g id="edge2" class="edge"><title>7&#45;&gt;6</title>
<path fill="none" stroke="black" d="M1227.2,-174.749C1240.49,-159.596 1259.97,-137.397 1274.98,-120.296"/>
<polygon fill="black" stroke="black" points="1277.97,-122.19 1281.94,-112.364 1272.71,-117.573 1277.97,-122.19"/>
</g>
<!-- 8 -->
<g id="node10" class="node"><title>8</title>
<polygon fill="cyan" stroke="black" stroke-width="2" points="760,-36 532,-36 532,-0 760,-0 760,-36"/>
<text text-anchor="middle" x="646" y="-14.3" font-family="Times,serif" font-size="14.00">redirectToDashboardOrService</text>
</g>
<!-- 9 -->
<g id="node11" class="node"><title>9</title>
<polygon fill="gold" stroke="black" stroke-width="2" points="1455,-211.067 1309,-211.067 1309,-175.067 1455,-175.067 1455,-211.067"/>
<text text-anchor="middle" x="1382" y="-189.367" font-family="Times,serif" font-size="14.00">resetPasswordH</text>
</g>
<!-- 9&#45;&gt;6 -->
<g id="edge3" class="edge"><title>9&#45;&gt;6</title>
<path fill="none" stroke="black" d="M1366.8,-174.749C1353.51,-159.596 1334.03,-137.397 1319.02,-120.296"/>
<polygon fill="black" stroke="black" points="1321.29,-117.573 1312.06,-112.364 1316.03,-122.19 1321.29,-117.573"/>
</g>
<!-- 10 -->
<g id="node12" class="node"><title>10</title>
<polygon fill="gold" stroke="black" stroke-width="2" points="1822.5,-211.067 1633.5,-211.067 1633.5,-175.067 1822.5,-175.067 1822.5,-211.067"/>
<text text-anchor="middle" x="1728" y="-189.367" font-family="Times,serif" font-size="14.00">resetPasswordRequestH</text>
</g>
<!-- 10&#45;&gt;6 -->
<g id="edge4" class="edge"><title>10&#45;&gt;6</title>
<path fill="none" stroke="black" d="M1684.45,-174.994C1666.01,-168.214 1644.16,-160.767 1624,-155.391 1531.08,-130.619 1420.62,-112.597 1354.8,-103.03"/>
<polygon fill="black" stroke="black" points="1355.03,-99.5264 1344.63,-101.567 1354.03,-106.455 1355.03,-99.5264"/>
</g>
<!-- 12 -->
<g id="node13" class="node"><title>12</title>
<polygon fill="cyan" stroke="black" stroke-width="2" points="1813.5,-112.196 1622.5,-112.196 1622.5,-76.1956 1813.5,-76.1956 1813.5,-112.196"/>
<text text-anchor="middle" x="1718" y="-90.4956" font-family="Times,serif" font-size="14.00">sendPasswordResetMail</text>
</g>
<!-- 10&#45;&gt;12 -->
<g id="edge5" class="edge"><title>10&#45;&gt;12</title>
<path fill="none" stroke="black" d="M1726.21,-174.749C1724.72,-160.284 1722.56,-139.4 1720.83,-122.659"/>
<polygon fill="black" stroke="black" points="1724.28,-121.952 1719.77,-112.364 1717.32,-122.671 1724.28,-121.952"/>
</g>
<!-- 13 -->
<g id="node14" class="node"><title>13</title>
<polygon fill="cyan" stroke="black" stroke-width="2" points="2040.5,-112.196 1831.5,-112.196 1831.5,-76.1956 2040.5,-76.1956 2040.5,-112.196"/>
<text text-anchor="middle" x="1936" y="-90.4956" font-family="Times,serif" font-size="14.00">sendUserConfirmationMail</text>
</g>
<!-- 14 -->
<g id="node15" class="node"><title>14</title>
<polygon fill="crimson" stroke="black" stroke-width="2" points="2535,-211.067 2367,-211.067 2367,-175.067 2535,-175.067 2535,-211.067"/>
<text text-anchor="middle" x="2451" y="-189.367" font-family="Times,serif" font-size="14.00">sendUserExistsMail</text>
</g>
<!-- 15 -->
<g id="node16" class="node"><title>15</title>
<polygon fill="gold" stroke="black" stroke-width="2" points="1615,-211.067 1473,-211.067 1473,-175.067 1615,-175.067 1615,-211.067"/>
<text text-anchor="middle" x="1544" y="-189.367" font-family="Times,serif" font-size="14.00">serviceCreateH</text>
</g>
<!-- 15&#45;&gt;6 -->
<g id="edge6" class="edge"><title>15&#45;&gt;6</title>
<path fill="none" stroke="black" d="M1508.44,-174.989C1494.67,-168.582 1478.71,-161.402 1464,-155.391 1427.93,-140.654 1386.76,-125.792 1354.32,-114.523"/>
<polygon fill="black" stroke="black" points="1355.15,-111.104 1344.55,-111.145 1352.86,-117.72 1355.15,-111.104"/>
</g>
<!-- 16 -->
<g id="node17" class="node"><title>16</title>
<polygon fill="gold" stroke="black" stroke-width="2" points="2692.5,-211.067 2553.5,-211.067 2553.5,-175.067 2692.5,-175.067 2692.5,-211.067"/>
<text text-anchor="middle" x="2623" y="-189.367" font-family="Times,serif" font-size="14.00">serviceLoginH</text>
</g>
<!-- 17 -->
<g id="node18" class="node"><title>17</title>
<polygon fill="gold" stroke="black" stroke-width="2" points="959,-211.067 807,-211.067 807,-175.067 959,-175.067 959,-211.067"/>
<text text-anchor="middle" x="883" y="-189.367" font-family="Times,serif" font-size="14.00">serviceRegisterH</text>
</g>
<!-- 17&#45;&gt;6 -->
<g id="edge7" class="edge"><title>17&#45;&gt;6</title>
<path fill="none" stroke="black" d="M917.896,-174.888C933.007,-168.009 951.08,-160.517 968,-155.391 1060.84,-127.266 1172.62,-110.213 1239.08,-101.76"/>
<polygon fill="black" stroke="black" points="1239.86,-105.19 1249.35,-100.476 1238.99,-98.2436 1239.86,-105.19"/>
</g>
<!-- 18 -->
<g id="node19" class="node"><title>18</title>
<polygon fill="cyan" stroke="black" stroke-width="2" points="872,-112.196 738,-112.196 738,-76.1956 872,-76.1956 872,-112.196"/>
<text text-anchor="middle" x="805" y="-90.4956" font-family="Times,serif" font-size="14.00">userFailLogin</text>
</g>
<!-- 19 -->
<g id="node20" class="node"><title>19</title>
<polygon fill="bisque" stroke="black" stroke-width="2" points="719.5,-112.196 572.5,-112.196 572.5,-76.1956 719.5,-76.1956 719.5,-112.196"/>
<text text-anchor="middle" x="646" y="-90.4956" font-family="Times,serif" font-size="14.00">userFinishLogin</text>
</g>
<!-- 19&#45;&gt;8 -->
<g id="edge8" class="edge"><title>19&#45;&gt;8</title>
<path fill="none" stroke="chartreuse" d="M646,-75.9872C646,-67.1846 646,-56.2609 646,-46.3396"/>
<polygon fill="chartreuse" stroke="chartreuse" points="649.5,-46.1151 646,-36.1151 642.5,-46.1152 649.5,-46.1151"/>
</g>
<!-- 20 -->
<g id="node21" class="node"><title>20</title>
<polygon fill="gold" stroke="black" stroke-width="2" points="788.5,-211.067 665.5,-211.067 665.5,-175.067 788.5,-175.067 788.5,-211.067"/>
<text text-anchor="middle" x="727" y="-189.367" font-family="Times,serif" font-size="14.00">userLoginH</text>
</g>
<!-- 20&#45;&gt;6 -->
<g id="edge9" class="edge"><title>20&#45;&gt;6</title>
<path fill="none" stroke="black" d="M753.961,-175.048C766.813,-167.758 782.695,-159.899 798,-155.391 833.55,-144.92 844.166,-151.476 881,-147.391 1008.91,-133.205 1158.58,-113.716 1238.93,-103.017"/>
<polygon fill="black" stroke="black" points="1239.88,-106.422 1249.32,-101.63 1238.95,-99.483 1239.88,-106.422"/>
</g>
<!-- 20&#45;&gt;18 -->
<g id="edge10" class="edge"><title>20&#45;&gt;18</title>
<path fill="none" stroke="black" d="M740.945,-174.749C753.146,-159.596 771.02,-137.397 784.789,-120.296"/>
<polygon fill="black" stroke="black" points="787.63,-122.348 791.176,-112.364 782.178,-117.958 787.63,-122.348"/>
</g>
<!-- 20&#45;&gt;19 -->
<g id="edge11" class="edge"><title>20&#45;&gt;19</title>
<path fill="none" stroke="black" d="M712.519,-174.749C699.849,-159.596 681.287,-137.397 666.988,-120.296"/>
<polygon fill="black" stroke="black" points="669.456,-117.791 660.356,-112.364 664.085,-122.281 669.456,-117.791"/>
</g>
<!-- 21 -->
<g id="node22" class="node"><title>21</title>
<polygon fill="cyan" stroke="black" stroke-width="2" points="2771,-112.196 2595,-112.196 2595,-76.1956 2771,-76.1956 2771,-112.196"/>
<text text-anchor="middle" x="2683" y="-90.4956" font-family="Times,serif" font-size="14.00">userLogoutConfirmH</text>
</g>
<!-- 22 -->
<g id="node23" class="node"><title>22</title>
<polygon fill="cyan" stroke="black" stroke-width="2" points="2947.5,-112.196 2788.5,-112.196 2788.5,-76.1956 2947.5,-76.1956 2947.5,-112.196"/>
<text text-anchor="middle" x="2868" y="-90.4956" font-family="Times,serif" font-size="14.00">userLogoutDoneH</text>
</g>
<!-- 23 -->
<g id="node24" class="node"><title>23</title>
<polygon fill="gold" stroke="black" stroke-width="2" points="2841,-211.067 2711,-211.067 2711,-175.067 2841,-175.067 2841,-211.067"/>
<text text-anchor="middle" x="2776" y="-189.367" font-family="Times,serif" font-size="14.00">userLogoutH</text>
</g>
<!-- 23&#45;&gt;21 -->
<g id="edge12" class="edge"><title>23&#45;&gt;21</title>
<path fill="none" stroke="black" d="M2759.37,-174.749C2744.69,-159.458 2723.13,-136.992 2706.65,-119.831"/>
<polygon fill="black" stroke="black" points="2708.93,-117.154 2699.48,-112.364 2703.88,-122.002 2708.93,-117.154"/>
</g>
<!-- 23&#45;&gt;22 -->
<g id="edge13" class="edge"><title>23&#45;&gt;22</title>
<path fill="none" stroke="black" d="M2792.45,-174.749C2806.97,-159.458 2828.31,-136.992 2844.6,-119.831"/>
<polygon fill="black" stroke="black" points="2847.35,-122.026 2851.69,-112.364 2842.27,-117.205 2847.35,-122.026"/>
</g>
<!-- 24 -->
<g id="node25" class="node"><title>24</title>
<polygon fill="gold" stroke="black" stroke-width="2" points="608,-211.067 426,-211.067 426,-175.067 608,-175.067 608,-211.067"/>
<text text-anchor="middle" x="517" y="-189.367" font-family="Times,serif" font-size="14.00">userRegisterConfirmH</text>
</g>
<!-- 24&#45;&gt;2 -->
<g id="edge14" class="edge"><title>24&#45;&gt;2</title>
<path fill="none" stroke="black" d="M510.028,-174.749C504.093,-160.009 495.475,-138.602 488.673,-121.707"/>
<polygon fill="black" stroke="black" points="491.894,-120.334 484.912,-112.364 485.4,-122.948 491.894,-120.334"/>
</g>
<!-- 24&#45;&gt;19 -->
<g id="edge15" class="edge"><title>24&#45;&gt;19</title>
<path fill="none" stroke="black" d="M539.766,-174.972C560.638,-159.298 591.727,-135.951 614.888,-118.559"/>
<polygon fill="black" stroke="black" points="617.133,-121.25 623.028,-112.446 612.93,-115.652 617.133,-121.25"/>
</g>
<!-- 25 -->
<g id="node26" class="node"><title>25</title>
<polygon fill="gold" stroke="black" stroke-width="2" points="1986,-211.067 1850,-211.067 1850,-175.067 1986,-175.067 1986,-211.067"/>
<text text-anchor="middle" x="1918" y="-189.367" font-family="Times,serif" font-size="14.00">userRegisterH</text>
</g>
<!-- 25&#45;&gt;6 -->
<g id="edge16" class="edge"><title>25&#45;&gt;6</title>
<path fill="none" stroke="black" d="M1885.86,-175.035C1870.09,-167.551 1850.53,-159.534 1832,-155.391 1784.69,-144.817 1662.24,-152.228 1614,-147.391 1522.79,-138.246 1418.04,-119.33 1354.73,-106.959"/>
<polygon fill="black" stroke="black" points="1355.03,-103.452 1344.55,-104.956 1353.68,-110.321 1355.03,-103.452"/>
</g>
<!-- 25&#45;&gt;13 -->
<g id="edge17" class="edge"><title>25&#45;&gt;13</title>
<path fill="none" stroke="black" d="M1921.22,-174.749C1923.91,-160.284 1927.79,-139.4 1930.9,-122.659"/>
<polygon fill="black" stroke="black" points="1934.42,-122.836 1932.81,-112.364 1927.54,-121.557 1934.42,-122.836"/>
</g>
</g>
</svg>
