<?xml version="1.0" encoding="UTF-8" standalone="no"?>
<!DOCTYPE svg PUBLIC "-//W3C//DTD SVG 1.1//EN"
 "http://www.w3.org/Graphics/SVG/1.1/DTD/svg11.dtd">
<!-- Generated by graphviz version 2.38.0 (20140413.2041)
 -->
<!-- Title: Diagram of: Application Pages: 1 -->
<svg width="623pt" height="230pt"
 viewBox="0.00 0.00 623.00 229.74" xmlns="http://www.w3.org/2000/svg" xmlns:xlink="http://www.w3.org/1999/xlink">
<g id="graph0" class="graph" transform="scale(1 1) rotate(0) translate(4 225.744)">
<title>Diagram of: Application</title>
<polygon fill="white" stroke="none" points="-4,4 -4,-225.744 619,-225.744 619,4 -4,4"/>
<g id="clust1" class="cluster"><title>cluster_Class_HasHeist</title>
<path fill="#ffc1c1" stroke="black" d="M20,-8C20,-8 268,-8 268,-8 274,-8 280,-14 280,-20 280,-20 280,-201.744 280,-201.744 280,-207.744 274,-213.744 268,-213.744 268,-213.744 20,-213.744 20,-213.744 14,-213.744 8,-207.744 8,-201.744 8,-201.744 8,-20 8,-20 8,-14 14,-8 20,-8"/>
<text text-anchor="middle" x="144" y="-198.544" font-family="Times,serif" font-size="14.00">Class: HasHeist</text>
</g>
<g id="clust2" class="cluster"><title>cluster_Class_HasHeist_Data_App</title>
<path fill="#c6e2ff" stroke="black" d="M64,-16C64,-16 224,-16 224,-16 230,-16 236,-22 236,-28 236,-28 236,-87.3913 236,-87.3913 236,-93.3913 230,-99.3913 224,-99.3913 224,-99.3913 64,-99.3913 64,-99.3913 58,-99.3913 52,-93.3913 52,-87.3913 52,-87.3913 52,-28 52,-28 52,-22 58,-16 64,-16"/>
<text text-anchor="middle" x="144" y="-84.1913" font-family="Times,serif" font-size="14.00">Instance for: App</text>
</g>
<g id="clust3" class="cluster"><title>cluster_Data_App</title>
<path fill="papayawhip" stroke="black" d="M300,-20.1956C300,-20.1956 595,-20.1956 595,-20.1956 601,-20.1956 607,-26.1956 607,-32.1956 607,-32.1956 607,-182.067 607,-182.067 607,-188.067 601,-194.067 595,-194.067 595,-194.067 300,-194.067 300,-194.067 294,-194.067 288,-188.067 288,-182.067 288,-182.067 288,-32.1956 288,-32.1956 288,-26.1956 294,-20.1956 300,-20.1956"/>
<text text-anchor="middle" x="447.5" y="-178.867" font-family="Times,serif" font-size="14.00">Data: App</text>
</g>
<!-- 5 -->
<g id="node1" class="node"><title>5</title>
<polygon fill="cyan" stroke="black" stroke-width="2" points="228.381,-36.9201 228.381,-55.4711 178.952,-68.5887 109.048,-68.5887 59.6189,-55.4711 59.6189,-36.9201 109.048,-23.8026 178.952,-23.8026 228.381,-36.9201"/>
<text text-anchor="middle" x="144" y="-42.4956" font-family="Times,serif" font-size="14.00">heistLens</text>
</g>
<!-- 6 -->
<g id="node2" class="node"><title>6</title>
<polygon fill="khaki" stroke="black" points="267.979,-131.053 267.979,-159.082 195.354,-178.902 92.6461,-178.902 20.0208,-159.082 20.0208,-131.053 92.6461,-111.233 195.354,-111.233 267.979,-131.053"/>
<polygon fill="none" stroke="black" points="271.979,-127.98 271.979,-162.155 195.887,-182.921 92.1126,-182.921 16.0211,-162.155 16.0211,-127.98 92.1126,-107.214 195.887,-107.214 271.979,-127.98"/>
<text text-anchor="middle" x="144" y="-148.867" font-family="Times,serif" font-size="14.00">Snap.Snaplet.Heist</text>
<text text-anchor="middle" x="144" y="-133.867" font-family="Times,serif" font-size="14.00">heistLens</text>
</g>
<!-- 6&#45;&gt;5 -->
<g id="edge4" class="edge"><title>6&#45;&gt;5</title>
<path fill="none" stroke="navy" d="M144,-107.168C144,-94.1217 144,-79.8897 144,-68.5651"/>
</g>
<!-- 1 -->
<g id="node3" class="node"><title>1</title>
<polygon fill="goldenrod" stroke="black" stroke-width="2" points="488,-64.1956 410,-64.1956 406,-60.1956 406,-28.1956 484,-28.1956 488,-32.1956 488,-64.1956"/>
<polyline fill="none" stroke="black" stroke-width="2" points="484,-60.1956 406,-60.1956 "/>
<polyline fill="none" stroke="black" stroke-width="2" points="484,-60.1956 484,-28.1956 "/>
<polyline fill="none" stroke="black" stroke-width="2" points="484,-60.1956 488,-64.1956 "/>
<text text-anchor="middle" x="447" y="-42.4956" font-family="Times,serif" font-size="14.00">App</text>
</g>
<!-- 2 -->
<g id="node4" class="node"><title>2</title>
<polygon fill="gold" stroke="black" stroke-width="2" points="599.5,-163.067 510.5,-163.067 510.5,-159.067 506.5,-159.067 506.5,-155.067 510.5,-155.067 510.5,-135.067 506.5,-135.067 506.5,-131.067 510.5,-131.067 510.5,-127.067 599.5,-127.067 599.5,-163.067"/>
<polyline fill="none" stroke="black" stroke-width="2" points="510.5,-159.067 514.5,-159.067 514.5,-155.067 510.5,-155.067 "/>
<polyline fill="none" stroke="black" stroke-width="2" points="510.5,-135.067 514.5,-135.067 514.5,-131.067 510.5,-131.067 "/>
<text text-anchor="middle" x="555" y="-141.367" font-family="Times,serif" font-size="14.00">_auth</text>
</g>
<!-- 2&#45;&gt;1 -->
<g id="edge1" class="edge"><title>2&#45;&gt;1</title>
<path fill="none" stroke="magenta" d="M535.94,-126.972C518.696,-111.504 493.121,-88.5644 473.816,-71.2489"/>
<polygon fill="magenta" stroke="magenta" points="466.232,-64.4463 476.681,-67.7736 469.954,-67.7849 473.677,-71.1235 473.677,-71.1235 473.677,-71.1235 469.954,-67.7849 470.672,-74.4734 466.232,-64.4463 466.232,-64.4463"/>
</g>
<!-- 3 -->
<g id="node5" class="node"><title>3</title>
<polygon fill="gold" stroke="black" stroke-width="2" points="492.5,-163.067 401.5,-163.067 401.5,-159.067 397.5,-159.067 397.5,-155.067 401.5,-155.067 401.5,-135.067 397.5,-135.067 397.5,-131.067 401.5,-131.067 401.5,-127.067 492.5,-127.067 492.5,-163.067"/>
<polyline fill="none" stroke="black" stroke-width="2" points="401.5,-159.067 405.5,-159.067 405.5,-155.067 401.5,-155.067 "/>
<polyline fill="none" stroke="black" stroke-width="2" points="401.5,-135.067 405.5,-135.067 405.5,-131.067 401.5,-131.067 "/>
<text text-anchor="middle" x="447" y="-141.367" font-family="Times,serif" font-size="14.00">_heist</text>
</g>
<!-- 3&#45;&gt;1 -->
<g id="edge2" class="edge"><title>3&#45;&gt;1</title>
<path fill="none" stroke="magenta" d="M447,-126.749C447,-112.284 447,-91.4001 447,-74.6586"/>
<polygon fill="magenta" stroke="magenta" points="447,-64.3644 451.5,-74.3644 447,-69.3644 447,-74.3644 447,-74.3644 447,-74.3644 447,-69.3644 442.5,-74.3645 447,-64.3644 447,-64.3644"/>
</g>
<!-- 4 -->
<g id="node6" class="node"><title>4</title>
<polygon fill="gold" stroke="black" stroke-width="2" points="383.5,-163.067 296.5,-163.067 296.5,-159.067 292.5,-159.067 292.5,-155.067 296.5,-155.067 296.5,-135.067 292.5,-135.067 292.5,-131.067 296.5,-131.067 296.5,-127.067 383.5,-127.067 383.5,-163.067"/>
<polyline fill="none" stroke="black" stroke-width="2" points="296.5,-159.067 300.5,-159.067 300.5,-155.067 296.5,-155.067 "/>
<polyline fill="none" stroke="black" stroke-width="2" points="296.5,-135.067 300.5,-135.067 300.5,-131.067 296.5,-131.067 "/>
<text text-anchor="middle" x="340" y="-141.367" font-family="Times,serif" font-size="14.00">_sess</text>
</g>
<!-- 4&#45;&gt;1 -->
<g id="edge3" class="edge"><title>4&#45;&gt;1</title>
<path fill="none" stroke="magenta" d="M359.129,-126.749C376.247,-111.251 401.505,-88.3838 420.554,-71.1384"/>
<polygon fill="magenta" stroke="magenta" points="428.036,-64.3644 423.643,-74.4119 424.33,-67.7202 420.623,-71.076 420.623,-71.076 420.623,-71.076 424.33,-67.7202 417.603,-67.74 428.036,-64.3644 428.036,-64.3644"/>
</g>
</g>
</svg>
