<?xml version="1.0" encoding="UTF-8" standalone="no"?>
<!DOCTYPE svg PUBLIC "-//W3C//DTD SVG 1.1//EN"
 "http://www.w3.org/Graphics/SVG/1.1/DTD/svg11.dtd">
<!-- Generated by graphviz version 2.38.0 (20140413.2041)
 -->
<!-- Title: Levels within Blackbox.EmbeddedSnaplet Pages: 1 -->
<svg width="906pt" height="294pt"
 viewBox="0.00 0.00 906.00 293.74" xmlns="http://www.w3.org/2000/svg" xmlns:xlink="http://www.w3.org/1999/xlink">
<g id="graph0" class="graph" transform="scale(1 1) rotate(0) translate(4 289.744)">
<title>Levels within Blackbox.EmbeddedSnaplet</title>
<polygon fill="white" stroke="none" points="-4,4 -4,-289.744 902,-289.744 902,4 -4,4"/>
<g id="clust1" class="cluster"><title>cluster_0</title>
<polygon fill="lavender" stroke="black" points="8,-8 8,-277.744 432,-277.744 432,-8 8,-8"/>
<text text-anchor="middle" x="220" y="-262.544" font-family="Times,serif" font-size="14.00">Exported root entities</text>
</g>
<g id="clust2" class="cluster"><title>cluster_1</title>
<polygon fill="lavender" stroke="black" points="440,-80 440,-163.391 890,-163.391 890,-80 440,-80"/>
<text text-anchor="middle" x="665" y="-148.191" font-family="Times,serif" font-size="14.00">Level = 1</text>
</g>
<!-- 1 -->
<g id="node1" class="node"><title>1</title>
<polygon fill="goldenrod" stroke="black" stroke-width="2" points="223.5,-52 36.5,-52 32.5,-48 32.5,-16 219.5,-16 223.5,-20 223.5,-52"/>
<polyline fill="none" stroke="black" stroke-width="2" points="219.5,-48 32.5,-48 "/>
<polyline fill="none" stroke="black" stroke-width="2" points="219.5,-48 219.5,-16 "/>
<polyline fill="none" stroke="black" stroke-width="2" points="219.5,-48 223.5,-52 "/>
<text text-anchor="middle" x="128" y="-30.3" font-family="Times,serif" font-size="14.00">Data: EmbeddedSnaplet</text>
</g>
<!-- 4 -->
<g id="node2" class="node"><title>4</title>
<polygon fill="gold" stroke="black" stroke-width="2" points="150,-227.067 16,-227.067 16,-191.067 150,-191.067 150,-227.067"/>
<text text-anchor="middle" x="83" y="-205.367" font-family="Times,serif" font-size="14.00">embeddedInit</text>
</g>
<!-- 4&#45;&gt;1 -->
<g id="edge1" class="edge"><title>4&#45;&gt;1</title>
<path fill="none" stroke="black" d="M77.2355,-190.97C69.6822,-165.498 59.2456,-116.656 76,-80 79.6742,-71.9614 85.572,-64.8089 92.1001,-58.7021"/>
<polygon fill="black" stroke="black" points="94.6049,-61.1666 99.9575,-52.0233 90.0713,-55.833 94.6049,-61.1666"/>
</g>
<!-- 5 -->
<g id="node3" class="node"><title>5</title>
<polygon fill="goldenrod" stroke="black" stroke-width="2" points="234.5,-128.196 85.5,-128.196 85.5,-92.1956 234.5,-92.1956 234.5,-128.196"/>
<text text-anchor="middle" x="160" y="-106.496" font-family="Times,serif" font-size="14.00">embeddedSplice</text>
</g>
<!-- 4&#45;&gt;5 -->
<g id="edge2" class="edge"><title>4&#45;&gt;5</title>
<path fill="none" stroke="black" d="M96.7661,-190.749C108.811,-175.596 126.456,-153.397 140.048,-136.296"/>
<polygon fill="black" stroke="black" points="142.871,-138.371 146.353,-128.364 137.391,-134.015 142.871,-138.371"/>
</g>
<!-- 5&#45;&gt;1 -->
<g id="edge3" class="edge"><title>5&#45;&gt;1</title>
<path fill="none" stroke="black" d="M152.578,-91.9872C148.66,-82.9037 143.769,-71.5615 139.383,-61.3928"/>
<polygon fill="black" stroke="black" points="142.556,-59.9114 135.382,-52.1151 136.128,-62.6837 142.556,-59.9114"/>
</g>
<!-- 7 -->
<g id="node4" class="node"><title>7</title>
<polygon fill="khaki" stroke="black" points="419.979,-195.053 419.979,-223.082 347.354,-242.902 244.646,-242.902 172.021,-223.082 172.021,-195.053 244.646,-175.233 347.354,-175.233 419.979,-195.053"/>
<polygon fill="none" stroke="black" points="423.979,-191.98 423.979,-226.155 347.887,-246.921 244.113,-246.921 168.021,-226.155 168.021,-191.98 244.113,-171.214 347.887,-171.214 423.979,-191.98"/>
<text text-anchor="middle" x="296" y="-212.867" font-family="Times,serif" font-size="14.00">Snap.Snaplet.Heist</text>
<text text-anchor="middle" x="296" y="-197.867" font-family="Times,serif" font-size="14.00">Class: HasHeist</text>
</g>
<!-- 6 -->
<g id="node5" class="node"><title>6</title>
<polygon fill="cyan" stroke="black" stroke-width="2" points="882.228,-100.92 882.228,-119.471 754.979,-132.589 575.021,-132.589 447.772,-119.471 447.772,-100.92 575.021,-87.8026 754.979,-87.8026 882.228,-100.92"/>
<text text-anchor="middle" x="665" y="-106.496" font-family="Times,serif" font-size="14.00">Class: HasHeist, Data: EmbeddedSnaplet</text>
</g>
<!-- 7&#45;&gt;6 -->
<g id="edge4" class="edge"><title>7&#45;&gt;6</title>
<path fill="none" stroke="navy" d="M391.507,-182.995C451.298,-167.298 527.487,-147.296 584.257,-132.393"/>
</g>
</g>
</svg>
