<?xml version="1.0" encoding="UTF-8" standalone="no"?>
<!DOCTYPE svg PUBLIC "-//W3C//DTD SVG 1.1//EN"
 "http://www.w3.org/Graphics/SVG/1.1/DTD/svg11.dtd">
<!-- Generated by graphviz version 2.38.0 (20140413.2041)
 -->
<!-- Title: Levels within Blackbox.App Pages: 1 -->
<svg width="769pt" height="171pt"
 viewBox="0.00 0.00 769.00 171.00" xmlns="http://www.w3.org/2000/svg" xmlns:xlink="http://www.w3.org/1999/xlink">
<g id="graph0" class="graph" transform="scale(1 1) rotate(0) translate(4 167)">
<title>Levels within Blackbox.App</title>
<polygon fill="white" stroke="none" points="-4,4 -4,-167 765,-167 765,4 -4,4"/>
<g id="clust1" class="cluster"><title>cluster_0</title>
<polygon fill="lavender" stroke="black" points="8,-8 8,-155 753,-155 753,-8 8,-8"/>
<text text-anchor="middle" x="380.5" y="-139.8" font-family="Times,serif" font-size="14.00">Exported root entities</text>
</g>
<!-- 1 -->
<g id="node1" class="node"><title>1</title>
<polygon fill="gold" stroke="black" stroke-width="2" points="421,-124 343,-124 343,-88 421,-88 421,-124"/>
<text text-anchor="middle" x="382" y="-102.3" font-family="Times,serif" font-size="14.00">app</text>
</g>
<!-- 2 -->
<g id="node2" class="node"><title>2</title>
<polygon fill="goldenrod" stroke="black" stroke-width="2" points="119.5,-52 16.5,-52 16.5,-16 119.5,-16 119.5,-52"/>
<text text-anchor="middle" x="68" y="-30.3" font-family="Times,serif" font-size="14.00">fooMod</text>
</g>
<!-- 1&#45;&gt;2 -->
<g id="edge1" class="edge"><title>1&#45;&gt;2</title>
<path fill="none" stroke="black" d="M342.814,-97.6151C294.884,-88.401 211.082,-71.7067 129.463,-52.0279"/>
<polygon fill="black" stroke="black" points="130.066,-48.5728 119.523,-49.6136 128.414,-55.375 130.066,-48.5728"/>
</g>
<!-- 3 -->
<g id="node3" class="node"><title>3</title>
<polygon fill="goldenrod" stroke="black" stroke-width="2" points="290,-52 138,-52 138,-16 290,-16 290,-52"/>
<text text-anchor="middle" x="214" y="-30.3" font-family="Times,serif" font-size="14.00">routeWithConfig</text>
</g>
<!-- 1&#45;&gt;3 -->
<g id="edge2" class="edge"><title>1&#45;&gt;3</title>
<path fill="none" stroke="black" d="M342.611,-88.5881C319.22,-78.8417 289.327,-66.3863 264.248,-55.9368"/>
<polygon fill="black" stroke="black" points="265.473,-52.6554 254.896,-52.04 262.781,-59.117 265.473,-52.6554"/>
</g>
<!-- 4 -->
<g id="node4" class="node"><title>4</title>
<polygon fill="goldenrod" stroke="black" stroke-width="2" points="456,-52 308,-52 308,-16 456,-16 456,-52"/>
<text text-anchor="middle" x="382" y="-30.3" font-family="Times,serif" font-size="14.00">routeWithSplice</text>
</g>
<!-- 1&#45;&gt;4 -->
<g id="edge3" class="edge"><title>1&#45;&gt;4</title>
<path fill="none" stroke="black" d="M382,-87.6966C382,-79.9827 382,-70.7125 382,-62.1124"/>
<polygon fill="black" stroke="black" points="385.5,-62.1043 382,-52.1043 378.5,-62.1044 385.5,-62.1043"/>
</g>
<!-- 5 -->
<g id="node5" class="node"><title>5</title>
<polygon fill="goldenrod" stroke="black" stroke-width="2" points="605.5,-52 474.5,-52 474.5,-16 605.5,-16 605.5,-52"/>
<text text-anchor="middle" x="540" y="-30.3" font-family="Times,serif" font-size="14.00">sessionDemo</text>
</g>
<!-- 1&#45;&gt;5 -->
<g id="edge4" class="edge"><title>1&#45;&gt;5</title>
<path fill="none" stroke="black" d="M420.651,-87.8761C442.251,-78.3066 469.351,-66.3001 492.266,-56.1478"/>
<polygon fill="black" stroke="black" points="493.749,-59.319 501.474,-52.0683 490.914,-52.919 493.749,-59.319"/>
</g>
<!-- 6 -->
<g id="node6" class="node"><title>6</title>
<polygon fill="goldenrod" stroke="black" stroke-width="2" points="744.5,-52 623.5,-52 623.5,-16 744.5,-16 744.5,-52"/>
<text text-anchor="middle" x="684" y="-30.3" font-family="Times,serif" font-size="14.00">sessionTest</text>
</g>
<!-- 1&#45;&gt;6 -->
<g id="edge5" class="edge"><title>1&#45;&gt;6</title>
<path fill="none" stroke="black" d="M421.214,-96.305C465.568,-86.4204 540.217,-69.635 613.564,-52.322"/>
<polygon fill="black" stroke="black" points="614.507,-55.6956 623.433,-49.9874 612.896,-48.8836 614.507,-55.6956"/>
</g>
</g>
</svg>
