<?xml version="1.0" encoding="UTF-8" standalone="no"?>
<!DOCTYPE svg PUBLIC "-//W3C//DTD SVG 1.1//EN"
 "http://www.w3.org/Graphics/SVG/1.1/DTD/svg11.dtd">
<!-- Generated by graphviz version 2.38.0 (20140413.2041)
 -->
<!-- Title: Levels within Blackbox.BarSnaplet Pages: 1 -->
<svg width="317pt" height="171pt"
 viewBox="0.00 0.00 317.00 171.00" xmlns="http://www.w3.org/2000/svg" xmlns:xlink="http://www.w3.org/1999/xlink">
<g id="graph0" class="graph" transform="scale(1 1) rotate(0) translate(4 167)">
<title>Levels within Blackbox.BarSnaplet</title>
<polygon fill="white" stroke="none" points="-4,4 -4,-167 313,-167 313,4 -4,4"/>
<g id="clust1" class="cluster"><title>cluster_0</title>
<polygon fill="lavender" stroke="black" points="8,-8 8,-155 301,-155 301,-8 8,-8"/>
<text text-anchor="middle" x="154.5" y="-139.8" font-family="Times,serif" font-size="14.00">Exported root entities</text>
</g>
<!-- 1 -->
<g id="node1" class="node"><title>1</title>
<polygon fill="goldenrod" stroke="black" stroke-width="2" points="168,-52 20,-52 16,-48 16,-16 164,-16 168,-20 168,-52"/>
<polyline fill="none" stroke="black" stroke-width="2" points="164,-48 16,-48 "/>
<polyline fill="none" stroke="black" stroke-width="2" points="164,-48 164,-16 "/>
<polyline fill="none" stroke="black" stroke-width="2" points="164,-48 168,-52 "/>
<text text-anchor="middle" x="92" y="-30.3" font-family="Times,serif" font-size="14.00">Data: BarSnaplet</text>
</g>
<!-- 3 -->
<g id="node2" class="node"><title>3</title>
<polygon fill="gold" stroke="black" stroke-width="2" points="213.5,-124 118.5,-124 118.5,-88 213.5,-88 213.5,-124"/>
<text text-anchor="middle" x="166" y="-102.3" font-family="Times,serif" font-size="14.00">barInit</text>
</g>
<!-- 3&#45;&gt;1 -->
<g id="edge1" class="edge"><title>3&#45;&gt;1</title>
<path fill="none" stroke="black" d="M147.708,-87.6966C138.567,-79.0503 127.36,-68.4486 117.4,-59.027"/>
<polygon fill="black" stroke="black" points="119.752,-56.4337 110.082,-52.1043 114.941,-61.519 119.752,-56.4337"/>
</g>
<!-- 4 -->
<g id="node3" class="node"><title>4</title>
<polygon fill="goldenrod" stroke="black" stroke-width="2" points="293.5,-52 186.5,-52 186.5,-16 293.5,-16 293.5,-52"/>
<text text-anchor="middle" x="240" y="-30.3" font-family="Times,serif" font-size="14.00">barsplice</text>
</g>
<!-- 3&#45;&gt;4 -->
<g id="edge2" class="edge"><title>3&#45;&gt;4</title>
<path fill="none" stroke="black" d="M184.292,-87.6966C193.433,-79.0503 204.64,-68.4486 214.6,-59.027"/>
<polygon fill="black" stroke="black" points="217.059,-61.519 221.918,-52.1043 212.248,-56.4337 217.059,-61.519"/>
</g>
</g>
</svg>
