<?xml version="1.0" encoding="UTF-8" standalone="no"?>
<!DOCTYPE svg PUBLIC "-//W3C//DTD SVG 1.1//EN"
 "http://www.w3.org/Graphics/SVG/1.1/DTD/svg11.dtd">
<!-- Generated by graphviz version 2.38.0 (20140413.2041)
 -->
<!-- Title: Levels within Blackbox.Types Pages: 1 -->
<svg width="461pt" height="230pt"
 viewBox="0.00 0.00 461.00 229.74" xmlns="http://www.w3.org/2000/svg" xmlns:xlink="http://www.w3.org/1999/xlink">
<g id="graph0" class="graph" transform="scale(1 1) rotate(0) translate(4 225.744)">
<title>Levels within Blackbox.Types</title>
<polygon fill="white" stroke="none" points="-4,4 -4,-225.744 457,-225.744 457,4 -4,4"/>
<g id="clust1" class="cluster"><title>cluster_0</title>
<polygon fill="lavender" stroke="black" points="40,-99.3913 40,-213.744 445,-213.744 445,-99.3913 40,-99.3913"/>
<text text-anchor="middle" x="242.5" y="-198.544" font-family="Times,serif" font-size="14.00">Exported root entities</text>
</g>
<g id="clust2" class="cluster"><title>cluster_1</title>
<polygon fill="lavender" stroke="black" points="8,-8 8,-91.3913 344,-91.3913 344,-8 8,-8"/>
<text text-anchor="middle" x="176" y="-76.1913" font-family="Times,serif" font-size="14.00">Level = 1</text>
</g>
<!-- 1 -->
<g id="node1" class="node"><title>1</title>
<polygon fill="gold" stroke="black" stroke-width="2" points="436.5,-163.067 325.5,-163.067 321.5,-159.067 321.5,-127.067 432.5,-127.067 436.5,-131.067 436.5,-163.067"/>
<polyline fill="none" stroke="black" stroke-width="2" points="432.5,-159.067 321.5,-159.067 "/>
<polyline fill="none" stroke="black" stroke-width="2" points="432.5,-159.067 432.5,-127.067 "/>
<polyline fill="none" stroke="black" stroke-width="2" points="432.5,-159.067 436.5,-163.067 "/>
<text text-anchor="middle" x="379" y="-141.367" font-family="Times,serif" font-size="14.00">Data: App</text>
</g>
<!-- 8 -->
<g id="node2" class="node"><title>8</title>
<polygon fill="khaki" stroke="black" points="299.979,-131.053 299.979,-159.082 227.354,-178.902 124.646,-178.902 52.0208,-159.082 52.0208,-131.053 124.646,-111.233 227.354,-111.233 299.979,-131.053"/>
<polygon fill="none" stroke="black" points="303.979,-127.98 303.979,-162.155 227.887,-182.921 124.113,-182.921 48.0211,-162.155 48.0211,-127.98 124.113,-107.214 227.887,-107.214 303.979,-127.98"/>
<text text-anchor="middle" x="176" y="-148.867" font-family="Times,serif" font-size="14.00">Snap.Snaplet.Heist</text>
<text text-anchor="middle" x="176" y="-133.867" font-family="Times,serif" font-size="14.00">Class: HasHeist</text>
</g>
<!-- 7 -->
<g id="node3" class="node"><title>7</title>
<polygon fill="cyan" stroke="black" stroke-width="2" points="335.923,-28.9201 335.923,-47.4711 242.242,-60.5887 109.758,-60.5887 16.0766,-47.4711 16.0766,-28.9201 109.758,-15.8026 242.242,-15.8026 335.923,-28.9201"/>
<text text-anchor="middle" x="176" y="-34.4956" font-family="Times,serif" font-size="14.00">Class: HasHeist, Data: App</text>
</g>
<!-- 8&#45;&gt;7 -->
<g id="edge1" class="edge"><title>8&#45;&gt;7</title>
<path fill="none" stroke="navy" d="M176,-107.388C176,-91.6767 176,-73.8844 176,-60.4141"/>
</g>
</g>
</svg>
