<?xml version="1.0" encoding="UTF-8" standalone="no"?>
<!DOCTYPE svg PUBLIC "-//W3C//DTD SVG 1.1//EN"
 "http://www.w3.org/Graphics/SVG/1.1/DTD/svg11.dtd">
<!-- Generated by graphviz version 2.38.0 (20140413.2041)
 -->
<!-- Title: Diagram of: Blackbox.EmbeddedSnaplet Pages: 1 -->
<svg width="701pt" height="385pt"
 viewBox="0.00 0.00 701.00 384.74" xmlns="http://www.w3.org/2000/svg" xmlns:xlink="http://www.w3.org/1999/xlink">
<g id="graph0" class="graph" transform="scale(1 1) rotate(0) translate(4 380.744)">
<title>Diagram of: Blackbox.EmbeddedSnaplet</title>
<polygon fill="white" stroke="none" points="-4,4 -4,-380.744 697,-380.744 697,4 -4,4"/>
<g id="clust1" class="cluster"><title>cluster_Class_HasHeist</title>
<path fill="#ffc1c1" stroke="black" d="M20,-163C20,-163 268,-163 268,-163 274,-163 280,-169 280,-175 280,-175 280,-356.744 280,-356.744 280,-362.744 274,-368.744 268,-368.744 268,-368.744 20,-368.744 20,-368.744 14,-368.744 8,-362.744 8,-356.744 8,-356.744 8,-175 8,-175 8,-169 14,-163 20,-163"/>
<text text-anchor="middle" x="144" y="-353.544" font-family="Times,serif" font-size="14.00">Class: HasHeist</text>
</g>
<g id="clust2" class="cluster"><title>cluster_Class_HasHeist_Data_EmbeddedSnaplet</title>
<path fill="#c6e2ff" stroke="black" d="M62,-171C62,-171 226,-171 226,-171 232,-171 238,-177 238,-183 238,-183 238,-242.391 238,-242.391 238,-248.391 232,-254.391 226,-254.391 226,-254.391 62,-254.391 62,-254.391 56,-254.391 50,-248.391 50,-242.391 50,-242.391 50,-183 50,-183 50,-177 56,-171 62,-171"/>
<text text-anchor="middle" x="144" y="-239.191" font-family="Times,serif" font-size="14.00">Instance for: EmbeddedSnaplet</text>
</g>
<g id="clust3" class="cluster"><title>cluster_Data_EmbeddedSnaplet</title>
<path fill="papayawhip" stroke="black" d="M371,-8C371,-8 673,-8 673,-8 679,-8 685,-14 685,-20 685,-20 685,-143 685,-143 685,-149 679,-155 673,-155 673,-155 371,-155 371,-155 365,-155 359,-149 359,-143 359,-143 359,-20 359,-20 359,-14 365,-8 371,-8"/>
<text text-anchor="middle" x="522" y="-139.8" font-family="Times,serif" font-size="14.00">Data: EmbeddedSnaplet</text>
</g>
<!-- 6 -->
<g id="node1" class="node"><title>6</title>
<polygon fill="cyan" stroke="black" stroke-width="2" points="228.381,-191.92 228.381,-210.471 178.952,-223.589 109.048,-223.589 59.6189,-210.471 59.6189,-191.92 109.048,-178.803 178.952,-178.803 228.381,-191.92"/>
<text text-anchor="middle" x="144" y="-197.496" font-family="Times,serif" font-size="14.00">heistLens</text>
</g>
<!-- 7 -->
<g id="node2" class="node"><title>7</title>
<polygon fill="khaki" stroke="black" points="267.979,-286.053 267.979,-314.082 195.354,-333.902 92.6461,-333.902 20.0208,-314.082 20.0208,-286.053 92.6461,-266.233 195.354,-266.233 267.979,-286.053"/>
<polygon fill="none" stroke="black" points="271.979,-282.98 271.979,-317.155 195.887,-337.921 92.1126,-337.921 16.0211,-317.155 16.0211,-282.98 92.1126,-262.214 195.887,-262.214 271.979,-282.98"/>
<text text-anchor="middle" x="144" y="-303.867" font-family="Times,serif" font-size="14.00">Snap.Snaplet.Heist</text>
<text text-anchor="middle" x="144" y="-288.867" font-family="Times,serif" font-size="14.00">heistLens</text>
</g>
<!-- 7&#45;&gt;6 -->
<g id="edge6" class="edge"><title>7&#45;&gt;6</title>
<path fill="none" stroke="navy" d="M144,-262.168C144,-249.122 144,-234.89 144,-223.565"/>
</g>
<!-- 1 -->
<g id="node3" class="node"><title>1</title>
<polygon fill="goldenrod" stroke="black" stroke-width="2" points="525,-52 371,-52 367,-48 367,-16 521,-16 525,-20 525,-52"/>
<polyline fill="none" stroke="black" stroke-width="2" points="521,-48 367,-48 "/>
<polyline fill="none" stroke="black" stroke-width="2" points="521,-48 521,-16 "/>
<polyline fill="none" stroke="black" stroke-width="2" points="521,-48 525,-52 "/>
<text text-anchor="middle" x="446" y="-30.3" font-family="Times,serif" font-size="14.00">EmbeddedSnaplet</text>
</g>
<!-- 2 -->
<g id="node4" class="node"><title>2</title>
<polygon fill="gold" stroke="black" stroke-width="2" points="677,-124 527,-124 527,-120 523,-120 523,-116 527,-116 527,-96 523,-96 523,-92 527,-92 527,-88 677,-88 677,-124"/>
<polyline fill="none" stroke="black" stroke-width="2" points="527,-120 531,-120 531,-116 527,-116 "/>
<polyline fill="none" stroke="black" stroke-width="2" points="527,-96 531,-96 531,-92 527,-92 "/>
<text text-anchor="middle" x="602" y="-102.3" font-family="Times,serif" font-size="14.00">_embeddedHeist</text>
</g>
<!-- 2&#45;&gt;1 -->
<g id="edge1" class="edge"><title>2&#45;&gt;1</title>
<path fill="none" stroke="magenta" d="M563.838,-87.8761C542.607,-78.3492 515.992,-66.4068 493.431,-56.2833"/>
<polygon fill="magenta" stroke="magenta" points="484.038,-52.0683 495.004,-52.0567 488.6,-54.1153 493.162,-56.1623 493.162,-56.1623 493.162,-56.1623 488.6,-54.1153 491.319,-60.2679 484.038,-52.0683 484.038,-52.0683"/>
</g>
<!-- 3 -->
<g id="node5" class="node"><title>3</title>
<polygon fill="goldenrod" stroke="black" stroke-width="2" points="508.5,-124 367.5,-124 367.5,-120 363.5,-120 363.5,-116 367.5,-116 367.5,-96 363.5,-96 363.5,-92 367.5,-92 367.5,-88 508.5,-88 508.5,-124"/>
<polyline fill="none" stroke="black" stroke-width="2" points="367.5,-120 371.5,-120 371.5,-116 367.5,-116 "/>
<polyline fill="none" stroke="black" stroke-width="2" points="367.5,-96 371.5,-96 371.5,-92 367.5,-92 "/>
<text text-anchor="middle" x="438" y="-102.3" font-family="Times,serif" font-size="14.00">_embeddedVal</text>
</g>
<!-- 3&#45;&gt;1 -->
<g id="edge2" class="edge"><title>3&#45;&gt;1</title>
<path fill="none" stroke="magenta" d="M439.978,-87.6966C440.859,-79.9827 441.919,-70.7125 442.901,-62.1124"/>
<polygon fill="magenta" stroke="magenta" points="444.045,-52.1043 447.381,-62.5507 443.477,-57.072 442.91,-62.0397 442.91,-62.0397 442.91,-62.0397 443.477,-57.072 438.439,-61.5287 444.045,-52.1043 444.045,-52.1043"/>
</g>
<!-- 4 -->
<g id="node6" class="node"><title>4</title>
<polygon fill="gold" stroke="black" stroke-width="2" points="445,-318.067 311,-318.067 311,-282.067 445,-282.067 445,-318.067"/>
<text text-anchor="middle" x="378" y="-296.367" font-family="Times,serif" font-size="14.00">embeddedInit</text>
</g>
<!-- 4&#45;&gt;1 -->
<g id="edge3" class="edge"><title>4&#45;&gt;1</title>
<path fill="none" stroke="black" d="M367.266,-281.94C362.842,-273.9 358.235,-263.991 356,-254.391 339.227,-182.361 320.76,-151.897 358,-88 365.515,-75.1048 377.521,-64.9767 390.279,-57.1846"/>
<polygon fill="black" stroke="black" points="392.197,-60.1212 399.185,-52.1579 388.756,-54.0251 392.197,-60.1212"/>
</g>
<!-- 5 -->
<g id="node7" class="node"><title>5</title>
<polygon fill="goldenrod" stroke="black" stroke-width="2" points="514.5,-219.196 365.5,-219.196 365.5,-183.196 514.5,-183.196 514.5,-219.196"/>
<text text-anchor="middle" x="440" y="-197.496" font-family="Times,serif" font-size="14.00">embeddedSplice</text>
</g>
<!-- 4&#45;&gt;5 -->
<g id="edge4" class="edge"><title>4&#45;&gt;5</title>
<path fill="none" stroke="black" d="M389.084,-281.749C398.606,-266.871 412.475,-245.201 423.335,-228.234"/>
<polygon fill="black" stroke="black" points="426.569,-229.674 429.012,-219.364 420.673,-225.9 426.569,-229.674"/>
</g>
<!-- 5&#45;&gt;3 -->
<g id="edge5" class="edge"><title>5&#45;&gt;3</title>
<path fill="none" stroke="chartreuse" d="M439.633,-183.102C439.342,-169.525 438.929,-150.271 438.591,-134.527"/>
<polygon fill="chartreuse" stroke="chartreuse" points="442.085,-134.223 438.371,-124.301 435.087,-134.374 442.085,-134.223"/>
</g>
</g>
</svg>
