<?xml version="1.0" encoding="UTF-8" standalone="no"?>
<!DOCTYPE svg PUBLIC "-//W3C//DTD SVG 1.1//EN"
 "http://www.w3.org/Graphics/SVG/1.1/DTD/svg11.dtd">
<!-- Generated by graphviz version 2.38.0 (20140413.2041)
 -->
<!-- Title: Diagram of: Blackbox.App Pages: 1 -->
<svg width="736pt" height="116pt"
 viewBox="0.00 0.00 736.00 116.00" xmlns="http://www.w3.org/2000/svg" xmlns:xlink="http://www.w3.org/1999/xlink">
<g id="graph0" class="graph" transform="scale(1 1) rotate(0) translate(4 112)">
<title>Diagram of: Blackbox.App</title>
<polygon fill="white" stroke="none" points="-4,4 -4,-112 732,-112 732,4 -4,4"/>
<!-- 1 -->
<g id="node1" class="node"><title>1</title>
<polygon fill="gold" stroke="black" stroke-width="2" points="404.5,-108 326.5,-108 326.5,-72 404.5,-72 404.5,-108"/>
<text text-anchor="middle" x="365.5" y="-86.3" font-family="Times,serif" font-size="14.00">app</text>
</g>
<!-- 2 -->
<g id="node2" class="node"><title>2</title>
<polygon fill="goldenrod" stroke="black" stroke-width="2" points="103,-36 0,-36 0,-0 103,-0 103,-36"/>
<text text-anchor="middle" x="51.5" y="-14.3" font-family="Times,serif" font-size="14.00">fooMod</text>
</g>
<!-- 1&#45;&gt;2 -->
<g id="edge1" class="edge"><title>1&#45;&gt;2</title>
<path fill="none" stroke="black" d="M326.314,-81.6151C278.384,-72.401 194.582,-55.7067 112.963,-36.0279"/>
<polygon fill="black" stroke="black" points="113.566,-32.5728 103.023,-33.6136 111.914,-39.375 113.566,-32.5728"/>
</g>
<!-- 3 -->
<g id="node3" class="node"><title>3</title>
<polygon fill="goldenrod" stroke="black" stroke-width="2" points="273.5,-36 121.5,-36 121.5,-0 273.5,-0 273.5,-36"/>
<text text-anchor="middle" x="197.5" y="-14.3" font-family="Times,serif" font-size="14.00">routeWithConfig</text>
</g>
<!-- 1&#45;&gt;3 -->
<g id="edge2" class="edge"><title>1&#45;&gt;3</title>
<path fill="none" stroke="black" d="M326.111,-72.5881C302.72,-62.8417 272.827,-50.3863 247.748,-39.9368"/>
<polygon fill="black" stroke="black" points="248.973,-36.6554 238.396,-36.04 246.281,-43.117 248.973,-36.6554"/>
</g>
<!-- 4 -->
<g id="node4" class="node"><title>4</title>
<polygon fill="goldenrod" stroke="black" stroke-width="2" points="439.5,-36 291.5,-36 291.5,-0 439.5,-0 439.5,-36"/>
<text text-anchor="middle" x="365.5" y="-14.3" font-family="Times,serif" font-size="14.00">routeWithSplice</text>
</g>
<!-- 1&#45;&gt;4 -->
<g id="edge3" class="edge"><title>1&#45;&gt;4</title>
<path fill="none" stroke="black" d="M365.5,-71.6966C365.5,-63.9827 365.5,-54.7125 365.5,-46.1124"/>
<polygon fill="black" stroke="black" points="369,-46.1043 365.5,-36.1043 362,-46.1044 369,-46.1043"/>
</g>
<!-- 5 -->
<g id="node5" class="node"><title>5</title>
<polygon fill="goldenrod" stroke="black" stroke-width="2" points="589,-36 458,-36 458,-0 589,-0 589,-36"/>
<text text-anchor="middle" x="523.5" y="-14.3" font-family="Times,serif" font-size="14.00">sessionDemo</text>
</g>
<!-- 1&#45;&gt;5 -->
<g id="edge4" class="edge"><title>1&#45;&gt;5</title>
<path fill="none" stroke="black" d="M404.151,-71.8761C425.751,-62.3066 452.851,-50.3001 475.766,-40.1478"/>
<polygon fill="black" stroke="black" points="477.249,-43.319 484.974,-36.0683 474.414,-36.919 477.249,-43.319"/>
</g>
<!-- 6 -->
<g id="node6" class="node"><title>6</title>
<polygon fill="goldenrod" stroke="black" stroke-width="2" points="728,-36 607,-36 607,-0 728,-0 728,-36"/>
<text text-anchor="middle" x="667.5" y="-14.3" font-family="Times,serif" font-size="14.00">sessionTest</text>
</g>
<!-- 1&#45;&gt;6 -->
<g id="edge5" class="edge"><title>1&#45;&gt;6</title>
<path fill="none" stroke="black" d="M404.714,-80.305C449.068,-70.4204 523.717,-53.635 597.064,-36.322"/>
<polygon fill="black" stroke="black" points="598.007,-39.6956 606.933,-33.9874 596.396,-32.8836 598.007,-39.6956"/>
</g>
</g>
</svg>
