<?xml version="1.0" encoding="UTF-8" standalone="no"?>
<!DOCTYPE svg PUBLIC "-//W3C//DTD SVG 1.1//EN"
 "http://www.w3.org/Graphics/SVG/1.1/DTD/svg11.dtd">
<!-- Generated by graphviz version 2.38.0 (20140413.2041)
 -->
<!-- Title: Diagram of: Blackbox.BarSnaplet Pages: 1 -->
<svg width="380pt" height="171pt"
 viewBox="0.00 0.00 379.50 171.00" xmlns="http://www.w3.org/2000/svg" xmlns:xlink="http://www.w3.org/1999/xlink">
<g id="graph0" class="graph" transform="scale(1 1) rotate(0) translate(4 167)">
<title>Diagram of: Blackbox.BarSnaplet</title>
<polygon fill="white" stroke="none" points="-4,4 -4,-167 375.5,-167 375.5,4 -4,4"/>
<g id="clust1" class="cluster"><title>cluster_Data_BarSnaplet</title>
<path fill="papayawhip" stroke="black" d="M20,-8C20,-8 244,-8 244,-8 250,-8 256,-14 256,-20 256,-20 256,-143 256,-143 256,-149 250,-155 244,-155 244,-155 20,-155 20,-155 14,-155 8,-149 8,-143 8,-143 8,-20 8,-20 8,-14 14,-8 20,-8"/>
<text text-anchor="middle" x="132" y="-139.8" font-family="Times,serif" font-size="14.00">Data: BarSnaplet</text>
</g>
<!-- 1 -->
<g id="node1" class="node"><title>1</title>
<polygon fill="goldenrod" stroke="black" stroke-width="2" points="246.5,-52 131.5,-52 127.5,-48 127.5,-16 242.5,-16 246.5,-20 246.5,-52"/>
<polyline fill="none" stroke="black" stroke-width="2" points="242.5,-48 127.5,-48 "/>
<polyline fill="none" stroke="black" stroke-width="2" points="242.5,-48 242.5,-16 "/>
<polyline fill="none" stroke="black" stroke-width="2" points="242.5,-48 246.5,-52 "/>
<text text-anchor="middle" x="187" y="-30.3" font-family="Times,serif" font-size="14.00">BarSnaplet</text>
</g>
<!-- 2 -->
<g id="node2" class="node"><title>2</title>
<polygon fill="gold" stroke="black" stroke-width="2" points="248,-124 138,-124 138,-120 134,-120 134,-116 138,-116 138,-96 134,-96 134,-92 138,-92 138,-88 248,-88 248,-124"/>
<polyline fill="none" stroke="black" stroke-width="2" points="138,-120 142,-120 142,-116 138,-116 "/>
<polyline fill="none" stroke="black" stroke-width="2" points="138,-96 142,-96 142,-92 138,-92 "/>
<text text-anchor="middle" x="193" y="-102.3" font-family="Times,serif" font-size="14.00">_barField</text>
</g>
<!-- 2&#45;&gt;1 -->
<g id="edge1" class="edge"><title>2&#45;&gt;1</title>
<path fill="none" stroke="magenta" d="M191.517,-87.6966C190.856,-79.9827 190.061,-70.7125 189.324,-62.1124"/>
<polygon fill="magenta" stroke="magenta" points="188.466,-52.1043 193.804,-61.6835 188.893,-57.0861 189.32,-62.0678 189.32,-62.0678 189.32,-62.0678 188.893,-57.0861 184.837,-62.4521 188.466,-52.1043 188.466,-52.1043"/>
</g>
<!-- 5 -->
<g id="node3" class="node"><title>5</title>
<polygon fill="gold" stroke="black" stroke-width="2" points="119.5,-124 16.5,-124 16.5,-120 12.5,-120 12.5,-116 16.5,-116 16.5,-96 12.5,-96 12.5,-92 16.5,-92 16.5,-88 119.5,-88 119.5,-124"/>
<polyline fill="none" stroke="black" stroke-width="2" points="16.5,-120 20.5,-120 20.5,-116 16.5,-116 "/>
<polyline fill="none" stroke="black" stroke-width="2" points="16.5,-96 20.5,-96 20.5,-92 16.5,-92 "/>
<text text-anchor="middle" x="68" y="-102.3" font-family="Times,serif" font-size="14.00">fooLens</text>
</g>
<!-- 5&#45;&gt;1 -->
<g id="edge4" class="edge"><title>5&#45;&gt;1</title>
<path fill="none" stroke="magenta" d="M97.1107,-87.8761C112.67,-78.7236 132.019,-67.3417 148.776,-57.485"/>
<polygon fill="magenta" stroke="magenta" points="157.777,-52.1898 151.44,-61.1387 153.468,-54.7249 149.158,-57.26 149.158,-57.26 149.158,-57.26 153.468,-54.7249 146.876,-53.3813 157.777,-52.1898 157.777,-52.1898"/>
</g>
<!-- 3 -->
<g id="node4" class="node"><title>3</title>
<polygon fill="gold" stroke="black" stroke-width="2" points="363.5,-124 268.5,-124 268.5,-88 363.5,-88 363.5,-124"/>
<text text-anchor="middle" x="316" y="-102.3" font-family="Times,serif" font-size="14.00">barInit</text>
</g>
<!-- 3&#45;&gt;1 -->
<g id="edge2" class="edge"><title>3&#45;&gt;1</title>
<path fill="none" stroke="black" d="M284.443,-87.8761C267.342,-78.5965 246.018,-67.0251 227.681,-57.0752"/>
<polygon fill="black" stroke="black" points="229.137,-53.8829 218.678,-52.1898 225.798,-60.0355 229.137,-53.8829"/>
</g>
<!-- 4 -->
<g id="node5" class="node"><title>4</title>
<polygon fill="goldenrod" stroke="black" stroke-width="2" points="371.5,-52 264.5,-52 264.5,-16 371.5,-16 371.5,-52"/>
<text text-anchor="middle" x="318" y="-30.3" font-family="Times,serif" font-size="14.00">barsplice</text>
</g>
<!-- 3&#45;&gt;4 -->
<g id="edge3" class="edge"><title>3&#45;&gt;4</title>
<path fill="none" stroke="black" d="M316.494,-87.6966C316.715,-79.9827 316.98,-70.7125 317.225,-62.1124"/>
<polygon fill="black" stroke="black" points="320.724,-62.2002 317.511,-52.1043 313.727,-62.0003 320.724,-62.2002"/>
</g>
</g>
</svg>
