<?xml version="1.0" encoding="UTF-8" standalone="no"?>
<!DOCTYPE svg PUBLIC "-//W3C//DTD SVG 1.1//EN"
 "http://www.w3.org/Graphics/SVG/1.1/DTD/svg11.dtd">
<!-- Generated by graphviz version 2.38.0 (20140413.2041)
 -->
<!-- Title: Diagram of: Blackbox.Types Pages: 1 -->
<svg width="877pt" height="230pt"
 viewBox="0.00 0.00 877.00 229.74" xmlns="http://www.w3.org/2000/svg" xmlns:xlink="http://www.w3.org/1999/xlink">
<g id="graph0" class="graph" transform="scale(1 1) rotate(0) translate(4 225.744)">
<title>Diagram of: Blackbox.Types</title>
<polygon fill="white" stroke="none" points="-4,4 -4,-225.744 873,-225.744 873,4 -4,4"/>
<g id="clust1" class="cluster"><title>cluster_Class_HasHeist</title>
<path fill="#ffc1c1" stroke="black" d="M20,-8C20,-8 268,-8 268,-8 274,-8 280,-14 280,-20 280,-20 280,-201.744 280,-201.744 280,-207.744 274,-213.744 268,-213.744 268,-213.744 20,-213.744 20,-213.744 14,-213.744 8,-207.744 8,-201.744 8,-201.744 8,-20 8,-20 8,-14 14,-8 20,-8"/>
<text text-anchor="middle" x="144" y="-198.544" font-family="Times,serif" font-size="14.00">Class: HasHeist</text>
</g>
<g id="clust2" class="cluster"><title>cluster_Class_HasHeist_Data_App</title>
<path fill="#c6e2ff" stroke="black" d="M64,-16C64,-16 224,-16 224,-16 230,-16 236,-22 236,-28 236,-28 236,-87.3913 236,-87.3913 236,-93.3913 230,-99.3913 224,-99.3913 224,-99.3913 64,-99.3913 64,-99.3913 58,-99.3913 52,-93.3913 52,-87.3913 52,-87.3913 52,-28 52,-28 52,-22 58,-16 64,-16"/>
<text text-anchor="middle" x="144" y="-84.1913" font-family="Times,serif" font-size="14.00">Instance for: App</text>
</g>
<g id="clust3" class="cluster"><title>cluster_Data_App</title>
<path fill="papayawhip" stroke="black" d="M300,-20.1956C300,-20.1956 849,-20.1956 849,-20.1956 855,-20.1956 861,-26.1956 861,-32.1956 861,-32.1956 861,-182.067 861,-182.067 861,-188.067 855,-194.067 849,-194.067 849,-194.067 300,-194.067 300,-194.067 294,-194.067 288,-188.067 288,-182.067 288,-182.067 288,-32.1956 288,-32.1956 288,-26.1956 294,-20.1956 300,-20.1956"/>
<text text-anchor="middle" x="574.5" y="-178.867" font-family="Times,serif" font-size="14.00">Data: App</text>
</g>
<!-- 7 -->
<g id="node1" class="node"><title>7</title>
<polygon fill="cyan" stroke="black" stroke-width="2" points="228.381,-36.9201 228.381,-55.4711 178.952,-68.5887 109.048,-68.5887 59.6189,-55.4711 59.6189,-36.9201 109.048,-23.8026 178.952,-23.8026 228.381,-36.9201"/>
<text text-anchor="middle" x="144" y="-42.4956" font-family="Times,serif" font-size="14.00">heistLens</text>
</g>
<!-- 8 -->
<g id="node2" class="node"><title>8</title>
<polygon fill="khaki" stroke="black" points="267.979,-131.053 267.979,-159.082 195.354,-178.902 92.6461,-178.902 20.0208,-159.082 20.0208,-131.053 92.6461,-111.233 195.354,-111.233 267.979,-131.053"/>
<polygon fill="none" stroke="black" points="271.979,-127.98 271.979,-162.155 195.887,-182.921 92.1126,-182.921 16.0211,-162.155 16.0211,-127.98 92.1126,-107.214 195.887,-107.214 271.979,-127.98"/>
<text text-anchor="middle" x="144" y="-148.867" font-family="Times,serif" font-size="14.00">Snap.Snaplet.Heist</text>
<text text-anchor="middle" x="144" y="-133.867" font-family="Times,serif" font-size="14.00">heistLens</text>
</g>
<!-- 8&#45;&gt;7 -->
<g id="edge6" class="edge"><title>8&#45;&gt;7</title>
<path fill="none" stroke="navy" d="M144,-107.168C144,-94.1217 144,-79.8897 144,-68.5651"/>
</g>
<!-- 1 -->
<g id="node3" class="node"><title>1</title>
<polygon fill="goldenrod" stroke="black" stroke-width="2" points="610,-64.1956 532,-64.1956 528,-60.1956 528,-28.1956 606,-28.1956 610,-32.1956 610,-64.1956"/>
<polyline fill="none" stroke="black" stroke-width="2" points="606,-60.1956 528,-60.1956 "/>
<polyline fill="none" stroke="black" stroke-width="2" points="606,-60.1956 606,-28.1956 "/>
<polyline fill="none" stroke="black" stroke-width="2" points="606,-60.1956 610,-64.1956 "/>
<text text-anchor="middle" x="569" y="-42.4956" font-family="Times,serif" font-size="14.00">App</text>
</g>
<!-- 2 -->
<g id="node4" class="node"><title>2</title>
<polygon fill="gold" stroke="black" stroke-width="2" points="852.5,-163.067 769.5,-163.067 769.5,-159.067 765.5,-159.067 765.5,-155.067 769.5,-155.067 769.5,-135.067 765.5,-135.067 765.5,-131.067 769.5,-131.067 769.5,-127.067 852.5,-127.067 852.5,-163.067"/>
<polyline fill="none" stroke="black" stroke-width="2" points="769.5,-159.067 773.5,-159.067 773.5,-155.067 769.5,-155.067 "/>
<polyline fill="none" stroke="black" stroke-width="2" points="769.5,-135.067 773.5,-135.067 773.5,-131.067 769.5,-131.067 "/>
<text text-anchor="middle" x="811" y="-141.367" font-family="Times,serif" font-size="14.00">_bar</text>
</g>
<!-- 2&#45;&gt;1 -->
<g id="edge1" class="edge"><title>2&#45;&gt;1</title>
<path fill="none" stroke="magenta" d="M790.131,-126.756C781.253,-120.018 770.531,-112.666 760,-107.391 714.961,-84.8303 659.722,-68.5251 620.256,-58.6212"/>
<polygon fill="magenta" stroke="magenta" points="610.325,-56.1804 621.11,-54.1973 615.181,-57.3739 620.036,-58.5673 620.036,-58.5673 620.036,-58.5673 615.181,-57.3739 618.962,-62.9372 610.325,-56.1804 610.325,-56.1804"/>
</g>
<!-- 3 -->
<g id="node5" class="node"><title>3</title>
<polygon fill="gold" stroke="black" stroke-width="2" points="751,-163.067 629,-163.067 629,-159.067 625,-159.067 625,-155.067 629,-155.067 629,-135.067 625,-135.067 625,-131.067 629,-131.067 629,-127.067 751,-127.067 751,-163.067"/>
<polyline fill="none" stroke="black" stroke-width="2" points="629,-159.067 633,-159.067 633,-155.067 629,-155.067 "/>
<polyline fill="none" stroke="black" stroke-width="2" points="629,-135.067 633,-135.067 633,-131.067 629,-131.067 "/>
<text text-anchor="middle" x="690" y="-141.367" font-family="Times,serif" font-size="14.00">_embedded</text>
</g>
<!-- 3&#45;&gt;1 -->
<g id="edge2" class="edge"><title>3&#45;&gt;1</title>
<path fill="none" stroke="magenta" d="M668.646,-126.972C649.154,-111.367 620.162,-88.156 598.469,-70.7885"/>
<polygon fill="magenta" stroke="magenta" points="590.547,-64.4463 601.166,-67.1832 594.451,-67.5712 598.354,-70.6961 598.354,-70.6961 598.354,-70.6961 594.451,-67.5712 595.541,-74.209 590.547,-64.4463 590.547,-64.4463"/>
</g>
<!-- 4 -->
<g id="node6" class="node"><title>4</title>
<polygon fill="gold" stroke="black" stroke-width="2" points="610.5,-163.067 527.5,-163.067 527.5,-159.067 523.5,-159.067 523.5,-155.067 527.5,-155.067 527.5,-135.067 523.5,-135.067 523.5,-131.067 527.5,-131.067 527.5,-127.067 610.5,-127.067 610.5,-163.067"/>
<polyline fill="none" stroke="black" stroke-width="2" points="527.5,-159.067 531.5,-159.067 531.5,-155.067 527.5,-155.067 "/>
<polyline fill="none" stroke="black" stroke-width="2" points="527.5,-135.067 531.5,-135.067 531.5,-131.067 527.5,-131.067 "/>
<text text-anchor="middle" x="569" y="-141.367" font-family="Times,serif" font-size="14.00">_foo</text>
</g>
<!-- 4&#45;&gt;1 -->
<g id="edge3" class="edge"><title>4&#45;&gt;1</title>
<path fill="none" stroke="magenta" d="M569,-126.749C569,-112.284 569,-91.4001 569,-74.6586"/>
<polygon fill="magenta" stroke="magenta" points="569,-64.3644 573.5,-74.3644 569,-69.3644 569,-74.3644 569,-74.3644 569,-74.3644 569,-69.3644 564.5,-74.3645 569,-64.3644 569,-64.3644"/>
</g>
<!-- 5 -->
<g id="node7" class="node"><title>5</title>
<polygon fill="gold" stroke="black" stroke-width="2" points="509.5,-163.067 418.5,-163.067 418.5,-159.067 414.5,-159.067 414.5,-155.067 418.5,-155.067 418.5,-135.067 414.5,-135.067 414.5,-131.067 418.5,-131.067 418.5,-127.067 509.5,-127.067 509.5,-163.067"/>
<polyline fill="none" stroke="black" stroke-width="2" points="418.5,-159.067 422.5,-159.067 422.5,-155.067 418.5,-155.067 "/>
<polyline fill="none" stroke="black" stroke-width="2" points="418.5,-135.067 422.5,-135.067 422.5,-131.067 418.5,-131.067 "/>
<text text-anchor="middle" x="464" y="-141.367" font-family="Times,serif" font-size="14.00">_heist</text>
</g>
<!-- 5&#45;&gt;1 -->
<g id="edge4" class="edge"><title>5&#45;&gt;1</title>
<path fill="none" stroke="magenta" d="M482.772,-126.749C499.495,-111.32 524.136,-88.5869 542.799,-71.3687"/>
<polygon fill="magenta" stroke="magenta" points="550.391,-64.3644 546.092,-74.4528 546.716,-67.7549 543.041,-71.1453 543.041,-71.1453 543.041,-71.1453 546.716,-67.7549 539.989,-67.8379 550.391,-64.3644 550.391,-64.3644"/>
</g>
<!-- 6 -->
<g id="node8" class="node"><title>6</title>
<polygon fill="gold" stroke="black" stroke-width="2" points="400,-163.067 296,-163.067 296,-159.067 292,-159.067 292,-155.067 296,-155.067 296,-135.067 292,-135.067 292,-131.067 296,-131.067 296,-127.067 400,-127.067 400,-163.067"/>
<polyline fill="none" stroke="black" stroke-width="2" points="296,-159.067 300,-159.067 300,-155.067 296,-155.067 "/>
<polyline fill="none" stroke="black" stroke-width="2" points="296,-135.067 300,-135.067 300,-131.067 296,-131.067 "/>
<text text-anchor="middle" x="348" y="-141.367" font-family="Times,serif" font-size="14.00">_session</text>
</g>
<!-- 6&#45;&gt;1 -->
<g id="edge5" class="edge"><title>6&#45;&gt;1</title>
<path fill="none" stroke="magenta" d="M374.607,-126.963C385.369,-120.409 398.052,-113.134 410,-107.391 445.199,-90.473 486.486,-74.9629 518.166,-63.9248"/>
<polygon fill="magenta" stroke="magenta" points="527.672,-60.6462 519.686,-68.1609 522.946,-62.2765 518.219,-63.9068 518.219,-63.9068 518.219,-63.9068 522.946,-62.2765 516.751,-59.6528 527.672,-60.6462 527.672,-60.6462"/>
</g>
</g>
</svg>
