<?xml version="1.0" encoding="UTF-8" standalone="no"?>
<!DOCTYPE svg PUBLIC "-//W3C//DTD SVG 1.1//EN"
 "http://www.w3.org/Graphics/SVG/1.1/DTD/svg11.dtd">
<!-- Generated by graphviz version 2.38.0 (20140413.2041)
 -->
<!-- Title: Levels within Blackbox.FooSnaplet Pages: 1 -->
<svg width="278pt" height="171pt"
 viewBox="0.00 0.00 278.00 171.00" xmlns="http://www.w3.org/2000/svg" xmlns:xlink="http://www.w3.org/1999/xlink">
<g id="graph0" class="graph" transform="scale(1 1) rotate(0) translate(4 167)">
<title>Levels within Blackbox.FooSnaplet</title>
<polygon fill="white" stroke="none" points="-4,4 -4,-167 274,-167 274,4 -4,4"/>
<g id="clust1" class="cluster"><title>cluster_0</title>
<polygon fill="lavender" stroke="black" points="8,-8 8,-155 262,-155 262,-8 8,-8"/>
<text text-anchor="middle" x="135" y="-139.8" font-family="Times,serif" font-size="14.00">Exported root entities</text>
</g>
<!-- 1 -->
<g id="node1" class="node"><title>1</title>
<polygon fill="goldenrod" stroke="black" stroke-width="2" points="211.5,-52 62.5,-52 58.5,-48 58.5,-16 207.5,-16 211.5,-20 211.5,-52"/>
<polyline fill="none" stroke="black" stroke-width="2" points="207.5,-48 58.5,-48 "/>
<polyline fill="none" stroke="black" stroke-width="2" points="207.5,-48 207.5,-16 "/>
<polyline fill="none" stroke="black" stroke-width="2" points="207.5,-48 211.5,-52 "/>
<text text-anchor="middle" x="135" y="-30.3" font-family="Times,serif" font-size="14.00">Data: FooSnaplet</text>
</g>
<!-- 3 -->
<g id="node2" class="node"><title>3</title>
<polygon fill="gold" stroke="black" stroke-width="2" points="253.5,-124 158.5,-124 158.5,-88 253.5,-88 253.5,-124"/>
<text text-anchor="middle" x="206" y="-102.3" font-family="Times,serif" font-size="14.00">fooInit</text>
</g>
<!-- 3&#45;&gt;1 -->
<g id="edge1" class="edge"><title>3&#45;&gt;1</title>
<path fill="none" stroke="black" d="M188.449,-87.6966C179.766,-79.135 169.137,-68.6562 159.652,-59.3045"/>
<polygon fill="black" stroke="black" points="161.927,-56.6327 152.349,-52.1043 157.012,-61.6175 161.927,-56.6327"/>
</g>
<!-- 4 -->
<g id="node3" class="node"><title>4</title>
<polygon fill="gold" stroke="black" stroke-width="2" points="140,-124 16,-124 16,-88 140,-88 140,-124"/>
<text text-anchor="middle" x="78" y="-102.3" font-family="Times,serif" font-size="14.00">getFooField</text>
</g>
<!-- 4&#45;&gt;1 -->
<g id="edge2" class="edge"><title>4&#45;&gt;1</title>
<path fill="none" stroke="black" d="M92.0899,-87.6966C98.9234,-79.3046 107.257,-69.0705 114.756,-59.8613"/>
<polygon fill="black" stroke="black" points="117.472,-62.0687 121.072,-52.1043 112.044,-57.6487 117.472,-62.0687"/>
</g>
</g>
</svg>
