<?xml version="1.0" encoding="UTF-8" standalone="no"?>
<!DOCTYPE svg PUBLIC "-//W3C//DTD SVG 1.1//EN"
 "http://www.w3.org/Graphics/SVG/1.1/DTD/svg11.dtd">
<!-- Generated by graphviz version 2.38.0 (20140413.2041)
 -->
<!-- Title: Diagram of: Blackbox.FooSnaplet Pages: 1 -->
<svg width="256pt" height="207pt"
 viewBox="0.00 0.00 255.50 207.00" xmlns="http://www.w3.org/2000/svg" xmlns:xlink="http://www.w3.org/1999/xlink">
<g id="graph0" class="graph" transform="scale(1 1) rotate(0) translate(4 203)">
<title>Diagram of: Blackbox.FooSnaplet</title>
<polygon fill="white" stroke="none" points="-4,4 -4,-203 251.5,-203 251.5,4 -4,4"/>
<g id="clust1" class="cluster"><title>cluster_Data_FooSnaplet</title>
<path fill="papayawhip" stroke="black" d="M20,-8C20,-8 132,-8 132,-8 138,-8 144,-14 144,-20 144,-20 144,-143 144,-143 144,-149 138,-155 132,-155 132,-155 20,-155 20,-155 14,-155 8,-149 8,-143 8,-143 8,-20 8,-20 8,-14 14,-8 20,-8"/>
<text text-anchor="middle" x="76" y="-139.8" font-family="Times,serif" font-size="14.00">Data: FooSnaplet</text>
</g>
<!-- 1 -->
<g id="node1" class="node"><title>1</title>
<polygon fill="goldenrod" stroke="black" stroke-width="2" points="136,-52 20,-52 16,-48 16,-16 132,-16 136,-20 136,-52"/>
<polyline fill="none" stroke="black" stroke-width="2" points="132,-48 16,-48 "/>
<polyline fill="none" stroke="black" stroke-width="2" points="132,-48 132,-16 "/>
<polyline fill="none" stroke="black" stroke-width="2" points="132,-48 136,-52 "/>
<text text-anchor="middle" x="76" y="-30.3" font-family="Times,serif" font-size="14.00">FooSnaplet</text>
</g>
<!-- 2 -->
<g id="node2" class="node"><title>2</title>
<polygon fill="goldenrod" stroke="black" stroke-width="2" points="128,-124 24,-124 24,-120 20,-120 20,-116 24,-116 24,-96 20,-96 20,-92 24,-92 24,-88 128,-88 128,-124"/>
<polyline fill="none" stroke="black" stroke-width="2" points="24,-120 28,-120 28,-116 24,-116 "/>
<polyline fill="none" stroke="black" stroke-width="2" points="24,-96 28,-96 28,-92 24,-92 "/>
<text text-anchor="middle" x="76" y="-102.3" font-family="Times,serif" font-size="14.00">fooField</text>
</g>
<!-- 2&#45;&gt;1 -->
<g id="edge1" class="edge"><title>2&#45;&gt;1</title>
<path fill="none" stroke="magenta" d="M76,-87.6966C76,-79.9827 76,-70.7125 76,-62.1124"/>
<polygon fill="magenta" stroke="magenta" points="76,-52.1043 80.5001,-62.1043 76,-57.1043 76.0001,-62.1043 76.0001,-62.1043 76.0001,-62.1043 76,-57.1043 71.5001,-62.1044 76,-52.1043 76,-52.1043"/>
</g>
<!-- 3 -->
<g id="node3" class="node"><title>3</title>
<polygon fill="gold" stroke="black" stroke-width="2" points="247.5,-124 152.5,-124 152.5,-88 247.5,-88 247.5,-124"/>
<text text-anchor="middle" x="200" y="-102.3" font-family="Times,serif" font-size="14.00">fooInit</text>
</g>
<!-- 3&#45;&gt;1 -->
<g id="edge2" class="edge"><title>3&#45;&gt;1</title>
<path fill="none" stroke="chartreuse" d="M169.666,-87.8761C153.303,-78.6388 132.917,-67.1308 115.346,-57.2116"/>
<polygon fill="chartreuse" stroke="chartreuse" points="116.879,-54.0579 106.45,-52.1898 113.438,-60.1536 116.879,-54.0579"/>
</g>
<!-- 4 -->
<g id="node4" class="node"><title>4</title>
<polygon fill="gold" stroke="black" stroke-width="2" points="138,-199 14,-199 14,-163 138,-163 138,-199"/>
<text text-anchor="middle" x="76" y="-177.3" font-family="Times,serif" font-size="14.00">getFooField</text>
</g>
<!-- 4&#45;&gt;2 -->
<g id="edge3" class="edge"><title>4&#45;&gt;2</title>
<path fill="none" stroke="chartreuse" d="M76,-162.7C76,-154.245 76,-143.869 76,-134.373"/>
<polygon fill="chartreuse" stroke="chartreuse" points="79.5001,-134.176 76,-124.176 72.5001,-134.176 79.5001,-134.176"/>
</g>
</g>
</svg>
