<?xml version="1.0" encoding="UTF-8" standalone="no"?>
<!DOCTYPE svg PUBLIC "-//W3C//DTD SVG 1.1//EN"
 "http://www.w3.org/Graphics/SVG/1.1/DTD/svg11.dtd">
<!-- Generated by graphviz version 2.38.0 (20140413.2041)
 -->
<!-- Title: Diagram of: Cabbage Pages: 1 -->
<svg width="847pt" height="279pt"
 viewBox="0.00 0.00 846.50 279.00" xmlns="http://www.w3.org/2000/svg" xmlns:xlink="http://www.w3.org/1999/xlink">
<g id="graph0" class="graph" transform="scale(1 1) rotate(0) translate(4 275)">
<title>Diagram of: Cabbage</title>
<polygon fill="white" stroke="none" points="-4,4 -4,-275 842.5,-275 842.5,4 -4,4"/>
<g id="clust1" class="cluster"><title>cluster_Data_Item</title>
<path fill="papayawhip" stroke="black" d="M20,-8C20,-8 450,-8 450,-8 456,-8 462,-14 462,-20 462,-20 462,-71 462,-71 462,-77 456,-83 450,-83 450,-83 20,-83 20,-83 14,-83 8,-77 8,-71 8,-71 8,-20 8,-20 8,-14 14,-8 20,-8"/>
<text text-anchor="middle" x="235" y="-67.8" font-family="Times,serif" font-size="14.00">Data: Item</text>
</g>
<!-- 1 -->
<g id="node1" class="node"><title>1</title>
<polygon fill="goldenrod" stroke="black" stroke-width="2" points="338,-52 236,-52 232,-48 232,-16 334,-16 338,-20 338,-52"/>
<polyline fill="none" stroke="black" stroke-width="2" points="334,-48 232,-48 "/>
<polyline fill="none" stroke="black" stroke-width="2" points="334,-48 334,-16 "/>
<polyline fill="none" stroke="black" stroke-width="2" points="334,-48 338,-52 "/>
<text text-anchor="middle" x="285" y="-30.3" font-family="Times,serif" font-size="14.00">Cabbage</text>
</g>
<!-- 2 -->
<g id="node2" class="node"><title>2</title>
<polygon fill="goldenrod" stroke="black" stroke-width="2" points="454,-52 360,-52 356,-48 356,-16 450,-16 454,-20 454,-52"/>
<polyline fill="none" stroke="black" stroke-width="2" points="450,-48 356,-48 "/>
<polyline fill="none" stroke="black" stroke-width="2" points="450,-48 450,-16 "/>
<polyline fill="none" stroke="black" stroke-width="2" points="450,-48 454,-52 "/>
<text text-anchor="middle" x="405" y="-30.3" font-family="Times,serif" font-size="14.00">Farmer</text>
</g>
<!-- 3 -->
<g id="node3" class="node"><title>3</title>
<polygon fill="goldenrod" stroke="black" stroke-width="2" points="108,-52 20,-52 16,-48 16,-16 104,-16 108,-20 108,-52"/>
<polyline fill="none" stroke="black" stroke-width="2" points="104,-48 16,-48 "/>
<polyline fill="none" stroke="black" stroke-width="2" points="104,-48 104,-16 "/>
<polyline fill="none" stroke="black" stroke-width="2" points="104,-48 108,-52 "/>
<text text-anchor="middle" x="62" y="-30.3" font-family="Times,serif" font-size="14.00">Sheep</text>
</g>
<!-- 4 -->
<g id="node4" class="node"><title>4</title>
<polygon fill="goldenrod" stroke="black" stroke-width="2" points="213.5,-52 130.5,-52 126.5,-48 126.5,-16 209.5,-16 213.5,-20 213.5,-52"/>
<polyline fill="none" stroke="black" stroke-width="2" points="209.5,-48 126.5,-48 "/>
<polyline fill="none" stroke="black" stroke-width="2" points="209.5,-48 209.5,-16 "/>
<polyline fill="none" stroke="black" stroke-width="2" points="209.5,-48 213.5,-52 "/>
<text text-anchor="middle" x="170" y="-30.3" font-family="Times,serif" font-size="14.00">Wolf</text>
</g>
<!-- 5 -->
<g id="node5" class="node"><title>5</title>
<polygon fill="goldenrod" stroke="black" stroke-width="2" points="267,-127 187,-127 187,-91 267,-91 267,-127"/>
<text text-anchor="middle" x="227" y="-105.3" font-family="Times,serif" font-size="14.00">eats</text>
</g>
<!-- 5&#45;&gt;1 -->
<g id="edge1" class="edge"><title>5&#45;&gt;1</title>
<path fill="none" stroke="black" d="M240.745,-90.7C247.968,-81.6088 256.957,-70.2959 264.942,-60.2452"/>
<polygon fill="black" stroke="black" points="267.873,-62.1827 271.353,-52.1758 262.392,-57.8281 267.873,-62.1827"/>
</g>
<!-- 5&#45;&gt;3 -->
<g id="edge2" class="edge"><title>5&#45;&gt;3</title>
<path fill="none" stroke="black" stroke-width="1.69315" d="M186.948,-103.737C165.344,-100.269 138.733,-94.0535 117,-83 105.174,-76.9852 93.8226,-67.8628 84.5353,-59.1802"/>
<polygon fill="black" stroke="black" stroke-width="1.69315" points="86.8535,-56.552 77.2543,-52.0682 81.9622,-61.5596 86.8535,-56.552"/>
</g>
<!-- 5&#45;&gt;4 -->
<g id="edge3" class="edge"><title>5&#45;&gt;4</title>
<path fill="none" stroke="black" d="M213.492,-90.7C206.393,-81.6088 197.56,-70.2959 189.712,-60.2452"/>
<polygon fill="black" stroke="black" points="192.324,-57.9037 183.411,-52.1758 186.807,-62.2117 192.324,-57.9037"/>
</g>
<!-- 6 -->
<g id="node6" class="node"><title>6</title>
<polygon fill="goldenrod" stroke="black" stroke-width="2" points="336,-199 246,-199 246,-163 336,-163 336,-199"/>
<text text-anchor="middle" x="291" y="-177.3" font-family="Times,serif" font-size="14.00">initial</text>
</g>
<!-- 6&#45;&gt;1 -->
<g id="edge4" class="edge"><title>6&#45;&gt;1</title>
<path fill="none" stroke="black" d="M290.288,-162.797C289.26,-137.943 287.348,-91.7421 286.127,-62.2284"/>
<polygon fill="black" stroke="black" points="289.621,-62.0271 285.711,-52.1804 282.627,-62.3166 289.621,-62.0271"/>
</g>
<!-- 6&#45;&gt;2 -->
<g id="edge5" class="edge"><title>6&#45;&gt;2</title>
<path fill="none" stroke="black" d="M304.525,-162.797C324.494,-137.398 361.99,-89.7055 385.1,-60.3112"/>
<polygon fill="black" stroke="black" points="388.063,-62.205 391.493,-52.1804 382.561,-57.8785 388.063,-62.205"/>
</g>
<!-- 6&#45;&gt;3 -->
<g id="edge6" class="edge"><title>6&#45;&gt;3</title>
<path fill="none" stroke="black" d="M245.808,-165.874C220.144,-156.787 188.043,-143.575 162,-127 132.308,-108.102 103.259,-79.9837 84.1895,-59.8107"/>
<polygon fill="black" stroke="black" points="86.5183,-57.1755 77.1446,-52.2374 81.393,-61.9432 86.5183,-57.1755"/>
</g>
<!-- 6&#45;&gt;4 -->
<g id="edge7" class="edge"><title>6&#45;&gt;4</title>
<path fill="none" stroke="black" d="M245.838,-170.378C221.687,-162.784 193.753,-149.564 178,-127 164.991,-108.366 163.935,-82.1608 165.585,-62.4821"/>
<polygon fill="black" stroke="black" points="169.089,-62.6372 166.72,-52.3105 162.132,-61.8603 169.089,-62.6372"/>
</g>
<!-- 7 -->
<g id="node7" class="node"><title>7</title>
<polygon fill="goldenrod" stroke="black" stroke-width="2" points="443.5,-199 354.5,-199 354.5,-163 443.5,-163 443.5,-199"/>
<text text-anchor="middle" x="399" y="-177.3" font-family="Times,serif" font-size="14.00">move</text>
</g>
<!-- 7&#45;&gt;2 -->
<g id="edge8" class="edge"><title>7&#45;&gt;2</title>
<path fill="none" stroke="black" stroke-width="2.60944" d="M399.712,-162.797C400.74,-137.943 402.652,-91.7421 403.873,-62.2284"/>
<polygon fill="black" stroke="black" stroke-width="2.60944" points="407.373,-62.3166 404.289,-52.1804 400.379,-62.0271 407.373,-62.3166"/>
</g>
<!-- 7&#45;&gt;5 -->
<g id="edge9" class="edge"><title>7&#45;&gt;5</title>
<path fill="none" stroke="black" d="M356.924,-162.876C332.672,-153.006 302.051,-140.544 276.628,-130.197"/>
<polygon fill="black" stroke="black" points="277.744,-126.873 267.163,-126.345 275.106,-133.357 277.744,-126.873"/>
</g>
<!-- 9 -->
<g id="node9" class="node"><title>9</title>
<polygon fill="goldenrod" stroke="black" stroke-width="2" points="541,-127 423,-127 423,-91 541,-91 541,-127"/>
<text text-anchor="middle" x="482" y="-105.3" font-family="Times,serif" font-size="14.00">singleOut1</text>
</g>
<!-- 7&#45;&gt;9 -->
<g id="edge10" class="edge"><title>7&#45;&gt;9</title>
<path fill="none" stroke="black" stroke-width="1.69315" d="M419.517,-162.697C429.869,-153.965 442.586,-143.24 453.839,-133.75"/>
<polygon fill="black" stroke="black" stroke-width="1.69315" points="456.331,-136.227 461.719,-127.104 451.818,-130.876 456.331,-136.227"/>
</g>
<!-- 10 -->
<g id="node10" class="node"><title>10</title>
<polygon fill="goldenrod" stroke="black" stroke-width="2" points="687,-127 559,-127 559,-91 687,-91 687,-127"/>
<text text-anchor="middle" x="623" y="-105.3" font-family="Times,serif" font-size="14.00">singleOutAll</text>
</g>
<!-- 7&#45;&gt;10 -->
<g id="edge11" class="edge"><title>7&#45;&gt;10</title>
<path fill="none" stroke="black" d="M443.523,-165.684C446.391,-164.773 449.235,-163.872 452,-163 486.922,-151.988 525.917,-139.886 557.841,-130.031"/>
<polygon fill="black" stroke="black" points="558.985,-133.341 567.508,-127.048 556.921,-126.652 558.985,-133.341"/>
</g>
<!-- 8 -->
<g id="node8" class="node"><title>8</title>
<polygon fill="goldenrod" stroke="black" stroke-width="2" points="618.5,-52 501.5,-52 501.5,-16 618.5,-16 618.5,-52"/>
<text text-anchor="middle" x="560" y="-30.3" font-family="Times,serif" font-size="14.00">plusTailOf</text>
</g>
<!-- 9&#45;&gt;8 -->
<g id="edge12" class="edge"><title>9&#45;&gt;8</title>
<path fill="none" stroke="black" d="M500.485,-90.7C510.587,-81.2451 523.257,-69.3874 534.308,-59.0453"/>
<polygon fill="black" stroke="black" points="536.738,-61.5644 541.648,-52.1758 531.955,-56.4536 536.738,-61.5644"/>
</g>
<!-- 10&#45;&gt;8 -->
<g id="edge13" class="edge"><title>10&#45;&gt;8</title>
<path fill="none" stroke="black" d="M608.07,-90.7C600.146,-81.5179 590.265,-70.0695 581.527,-59.944"/>
<polygon fill="black" stroke="black" points="584.006,-57.4597 574.823,-52.1758 578.707,-62.0331 584.006,-57.4597"/>
</g>
<!-- 11 -->
<g id="node11" class="node"><title>11</title>
<polygon fill="gold" stroke="black" stroke-width="2" points="707.5,-271 598.5,-271 598.5,-235 707.5,-235 707.5,-271"/>
<text text-anchor="middle" x="653" y="-249.3" font-family="Times,serif" font-size="14.00">solution1</text>
</g>
<!-- 11&#45;&gt;6 -->
<g id="edge14" class="edge"><title>11&#45;&gt;6</title>
<path fill="none" stroke="black" d="M598.459,-236.861C595.605,-236.201 592.773,-235.576 590,-235 485.397,-213.28 454.096,-222.988 346.211,-199.072"/>
<polygon fill="black" stroke="black" points="346.755,-195.607 336.23,-196.813 345.21,-202.434 346.755,-195.607"/>
</g>
<!-- 11&#45;&gt;7 -->
<g id="edge15" class="edge"><title>11&#45;&gt;7</title>
<path fill="none" stroke="black" d="M598.372,-237.229C595.541,-236.473 592.737,-235.726 590,-235 531.726,-219.537 514.526,-216.921 453.519,-199.375"/>
<polygon fill="black" stroke="black" points="454.345,-195.97 443.766,-196.551 452.398,-202.694 454.345,-195.97"/>
</g>
<!-- 16 -->
<g id="node16" class="node"><title>16</title>
<polygon fill="goldenrod" stroke="black" stroke-width="2" points="560.5,-199 461.5,-199 461.5,-163 560.5,-163 560.5,-199"/>
<text text-anchor="middle" x="511" y="-177.3" font-family="Times,serif" font-size="14.00">success</text>
</g>
<!-- 11&#45;&gt;16 -->
<g id="edge16" class="edge"><title>11&#45;&gt;16</title>
<path fill="none" stroke="black" d="M618.263,-234.876C599.181,-225.469 575.321,-213.708 554.953,-203.667"/>
<polygon fill="black" stroke="black" points="556.388,-200.472 545.871,-199.19 553.292,-206.751 556.388,-200.472"/>
</g>
<!-- 12 -->
<g id="node12" class="node"><title>12</title>
<polygon fill="gold" stroke="black" stroke-width="2" points="199.5,-271 90.5,-271 90.5,-235 199.5,-235 199.5,-271"/>
<text text-anchor="middle" x="145" y="-249.3" font-family="Times,serif" font-size="14.00">solution2</text>
</g>
<!-- 12&#45;&gt;6 -->
<g id="edge17" class="edge"><title>12&#45;&gt;6</title>
<path fill="none" stroke="black" d="M180.716,-234.876C200.497,-225.392 225.272,-213.513 246.326,-203.419"/>
<polygon fill="black" stroke="black" points="247.896,-206.548 255.4,-199.068 244.87,-200.236 247.896,-206.548"/>
</g>
<!-- 12&#45;&gt;7 -->
<g id="edge18" class="edge"><title>12&#45;&gt;7</title>
<path fill="none" stroke="black" d="M199.63,-237.235C202.46,-236.477 205.263,-235.729 208,-235 265.865,-219.59 282.874,-216.719 344.419,-199.1"/>
<polygon fill="black" stroke="black" points="345.62,-202.397 354.261,-196.266 343.683,-195.67 345.62,-202.397"/>
</g>
<!-- 12&#45;&gt;16 -->
<g id="edge19" class="edge"><title>12&#45;&gt;16</title>
<path fill="none" stroke="black" d="M199.542,-236.863C202.395,-236.203 205.227,-235.577 208,-235 312.178,-213.337 343.073,-221.695 451.219,-198.992"/>
<polygon fill="black" stroke="black" points="452.18,-202.366 461.226,-196.85 450.715,-195.521 452.18,-202.366"/>
</g>
<!-- 13 -->
<g id="node13" class="node"><title>13</title>
<polygon fill="gold" stroke="black" stroke-width="2" points="326.5,-271 217.5,-271 217.5,-235 326.5,-235 326.5,-271"/>
<text text-anchor="middle" x="272" y="-249.3" font-family="Times,serif" font-size="14.00">solution3</text>
</g>
<!-- 13&#45;&gt;6 -->
<g id="edge20" class="edge"><title>13&#45;&gt;6</title>
<path fill="none" stroke="black" d="M276.697,-234.697C278.813,-226.898 281.362,-217.509 283.718,-208.829"/>
<polygon fill="black" stroke="black" points="287.116,-209.672 286.357,-199.104 280.36,-207.838 287.116,-209.672"/>
</g>
<!-- 13&#45;&gt;7 -->
<g id="edge21" class="edge"><title>13&#45;&gt;7</title>
<path fill="none" stroke="black" d="M303.068,-234.876C319.827,-225.639 340.706,-214.131 358.702,-204.212"/>
<polygon fill="black" stroke="black" points="360.745,-207.082 367.813,-199.19 357.366,-200.952 360.745,-207.082"/>
</g>
<!-- 13&#45;&gt;16 -->
<g id="edge22" class="edge"><title>13&#45;&gt;16</title>
<path fill="none" stroke="black" d="M326.532,-236.028C363.714,-225.138 412.952,-210.717 451.205,-199.513"/>
<polygon fill="black" stroke="black" points="452.568,-202.761 461.181,-196.591 450.6,-196.043 452.568,-202.761"/>
</g>
<!-- 14 -->
<g id="node14" class="node"><title>14</title>
<polygon fill="gold" stroke="black" stroke-width="2" points="453.5,-271 344.5,-271 344.5,-235 453.5,-235 453.5,-271"/>
<text text-anchor="middle" x="399" y="-249.3" font-family="Times,serif" font-size="14.00">solution4</text>
</g>
<!-- 14&#45;&gt;6 -->
<g id="edge23" class="edge"><title>14&#45;&gt;6</title>
<path fill="none" stroke="black" d="M372.58,-234.876C358.59,-225.808 341.224,-214.552 326.114,-204.759"/>
<polygon fill="black" stroke="black" points="327.817,-201.692 317.521,-199.19 324.009,-207.566 327.817,-201.692"/>
</g>
<!-- 14&#45;&gt;7 -->
<g id="edge24" class="edge"><title>14&#45;&gt;7</title>
<path fill="none" stroke="black" d="M399,-234.697C399,-226.983 399,-217.712 399,-209.112"/>
<polygon fill="black" stroke="black" points="402.5,-209.104 399,-199.104 395.5,-209.104 402.5,-209.104"/>
</g>
<!-- 14&#45;&gt;16 -->
<g id="edge25" class="edge"><title>14&#45;&gt;16</title>
<path fill="none" stroke="black" d="M426.398,-234.876C440.907,-225.808 458.916,-214.552 474.585,-204.759"/>
<polygon fill="black" stroke="black" points="476.871,-207.458 483.496,-199.19 473.161,-201.522 476.871,-207.458"/>
</g>
<!-- 15 -->
<g id="node15" class="node"><title>15</title>
<polygon fill="gold" stroke="black" stroke-width="2" points="580.5,-271 471.5,-271 471.5,-235 580.5,-235 580.5,-271"/>
<text text-anchor="middle" x="526" y="-249.3" font-family="Times,serif" font-size="14.00">solution5</text>
</g>
<!-- 15&#45;&gt;6 -->
<g id="edge26" class="edge"><title>15&#45;&gt;6</title>
<path fill="none" stroke="black" d="M471.263,-236.283C437.633,-226.555 393.435,-213.643 345.924,-199.254"/>
<polygon fill="black" stroke="black" points="346.646,-195.816 336.06,-196.26 344.612,-202.514 346.646,-195.816"/>
</g>
<!-- 15&#45;&gt;7 -->
<g id="edge27" class="edge"><title>15&#45;&gt;7</title>
<path fill="none" stroke="black" d="M494.932,-234.876C478.173,-225.639 457.294,-214.131 439.298,-204.212"/>
<polygon fill="black" stroke="black" points="440.634,-200.952 430.187,-199.19 437.255,-207.082 440.634,-200.952"/>
</g>
<!-- 15&#45;&gt;16 -->
<g id="edge28" class="edge"><title>15&#45;&gt;16</title>
<path fill="none" stroke="black" d="M522.292,-234.697C520.639,-226.983 518.653,-217.712 516.81,-209.112"/>
<polygon fill="black" stroke="black" points="520.183,-208.149 514.665,-199.104 513.338,-209.616 520.183,-208.149"/>
</g>
<!-- 17 -->
<g id="node17" class="node"><title>17</title>
<polygon fill="gold" stroke="black" stroke-width="2" points="838.5,-271 725.5,-271 725.5,-235 838.5,-235 838.5,-271"/>
<text text-anchor="middle" x="782" y="-249.3" font-family="Times,serif" font-size="14.00">unsafeIter</text>
</g>
</g>
</svg>
