<?xml version="1.0" encoding="UTF-8" standalone="no"?>
<!DOCTYPE svg PUBLIC "-//W3C//DTD SVG 1.1//EN"
 "http://www.w3.org/Graphics/SVG/1.1/DTD/svg11.dtd">
<!-- Generated by graphviz version 2.38.0 (20140413.2041)
 -->
<!-- Title: Levels within Cabbage Pages: 1 -->
<svg width="789pt" height="315pt"
 viewBox="0.00 0.00 789.00 315.00" xmlns="http://www.w3.org/2000/svg" xmlns:xlink="http://www.w3.org/1999/xlink">
<g id="graph0" class="graph" transform="scale(1 1) rotate(0) translate(4 311)">
<title>Levels within Cabbage</title>
<polygon fill="white" stroke="none" points="-4,4 -4,-311 785,-311 785,4 -4,4"/>
<g id="clust1" class="cluster"><title>cluster_0</title>
<polygon fill="lavender" stroke="black" points="8,-8 8,-299 773,-299 773,-8 8,-8"/>
<text text-anchor="middle" x="390.5" y="-283.8" font-family="Times,serif" font-size="14.00">Exported root entities</text>
</g>
<!-- 1 -->
<g id="node1" class="node"><title>1</title>
<polygon fill="goldenrod" stroke="black" stroke-width="2" points="442.5,-52 329.5,-52 325.5,-48 325.5,-16 438.5,-16 442.5,-20 442.5,-52"/>
<polyline fill="none" stroke="black" stroke-width="2" points="438.5,-48 325.5,-48 "/>
<polyline fill="none" stroke="black" stroke-width="2" points="438.5,-48 438.5,-16 "/>
<polyline fill="none" stroke="black" stroke-width="2" points="438.5,-48 442.5,-52 "/>
<text text-anchor="middle" x="384" y="-30.3" font-family="Times,serif" font-size="14.00">Data: Item</text>
</g>
<!-- 5 -->
<g id="node2" class="node"><title>5</title>
<polygon fill="goldenrod" stroke="black" stroke-width="2" points="483,-124 403,-124 403,-88 483,-88 483,-124"/>
<text text-anchor="middle" x="443" y="-102.3" font-family="Times,serif" font-size="14.00">eats</text>
</g>
<!-- 5&#45;&gt;1 -->
<g id="edge1" class="edge"><title>5&#45;&gt;1</title>
<path fill="none" stroke="black" stroke-width="2.38629" d="M428.416,-87.6966C421.342,-79.3046 412.717,-69.0705 404.955,-59.8613"/>
<polygon fill="black" stroke="black" stroke-width="2.38629" points="407.537,-57.495 398.417,-52.1043 402.185,-62.0063 407.537,-57.495"/>
</g>
<!-- 6 -->
<g id="node3" class="node"><title>6</title>
<polygon fill="goldenrod" stroke="black" stroke-width="2" points="492,-196 402,-196 402,-160 492,-160 492,-196"/>
<text text-anchor="middle" x="447" y="-174.3" font-family="Times,serif" font-size="14.00">initial</text>
</g>
<!-- 6&#45;&gt;1 -->
<g id="edge2" class="edge"><title>6&#45;&gt;1</title>
<path fill="none" stroke="black" stroke-width="2.38629" d="M413.642,-159.855C400.293,-151.091 386.358,-139.063 379,-124 369.588,-104.73 371.83,-80.2443 375.868,-61.8353"/>
<polygon fill="black" stroke="black" stroke-width="2.38629" points="379.286,-62.5943 378.305,-52.0449 372.493,-60.9032 379.286,-62.5943"/>
</g>
<!-- 7 -->
<g id="node4" class="node"><title>7</title>
<polygon fill="goldenrod" stroke="black" stroke-width="2" points="599.5,-196 510.5,-196 510.5,-160 599.5,-160 599.5,-196"/>
<text text-anchor="middle" x="555" y="-174.3" font-family="Times,serif" font-size="14.00">move</text>
</g>
<!-- 7&#45;&gt;1 -->
<g id="edge3" class="edge"><title>7&#45;&gt;1</title>
<path fill="none" stroke="black" stroke-width="2.60944" d="M510.432,-162.967C463.455,-148.081 395.931,-126.377 394,-124 380.101,-106.895 378.528,-81.445 379.893,-62.1363"/>
<polygon fill="black" stroke="black" stroke-width="2.60944" points="383.381,-62.4317 380.893,-52.133 376.415,-61.735 383.381,-62.4317"/>
</g>
<!-- 7&#45;&gt;5 -->
<g id="edge4" class="edge"><title>7&#45;&gt;5</title>
<path fill="none" stroke="black" d="M527.602,-159.876C513.093,-150.808 495.084,-139.552 479.415,-129.759"/>
<polygon fill="black" stroke="black" points="480.839,-126.522 470.504,-124.19 477.129,-132.458 480.839,-126.522"/>
</g>
<!-- 9 -->
<g id="node6" class="node"><title>9</title>
<polygon fill="goldenrod" stroke="black" stroke-width="2" points="619,-124 501,-124 501,-88 619,-88 619,-124"/>
<text text-anchor="middle" x="560" y="-102.3" font-family="Times,serif" font-size="14.00">singleOut1</text>
</g>
<!-- 7&#45;&gt;9 -->
<g id="edge5" class="edge"><title>7&#45;&gt;9</title>
<path fill="none" stroke="black" stroke-width="1.69315" d="M556.236,-159.697C556.787,-151.983 557.449,-142.712 558.063,-134.112"/>
<polygon fill="black" stroke="black" stroke-width="1.69315" points="561.557,-134.328 558.778,-124.104 554.575,-133.83 561.557,-134.328"/>
</g>
<!-- 10 -->
<g id="node7" class="node"><title>10</title>
<polygon fill="goldenrod" stroke="black" stroke-width="2" points="765,-124 637,-124 637,-88 765,-88 765,-124"/>
<text text-anchor="middle" x="701" y="-102.3" font-family="Times,serif" font-size="14.00">singleOutAll</text>
</g>
<!-- 7&#45;&gt;10 -->
<g id="edge6" class="edge"><title>7&#45;&gt;10</title>
<path fill="none" stroke="black" d="M590.716,-159.876C610.497,-150.392 635.272,-138.513 656.326,-128.419"/>
<polygon fill="black" stroke="black" points="657.896,-131.548 665.4,-124.068 654.87,-125.236 657.896,-131.548"/>
</g>
<!-- 8 -->
<g id="node5" class="node"><title>8</title>
<polygon fill="goldenrod" stroke="black" stroke-width="2" points="688.5,-52 571.5,-52 571.5,-16 688.5,-16 688.5,-52"/>
<text text-anchor="middle" x="630" y="-30.3" font-family="Times,serif" font-size="14.00">plusTailOf</text>
</g>
<!-- 9&#45;&gt;8 -->
<g id="edge7" class="edge"><title>9&#45;&gt;8</title>
<path fill="none" stroke="black" d="M577.303,-87.6966C585.865,-79.135 596.344,-68.6562 605.696,-59.3045"/>
<polygon fill="black" stroke="black" points="608.299,-61.6503 612.896,-52.1043 603.35,-56.7005 608.299,-61.6503"/>
</g>
<!-- 10&#45;&gt;8 -->
<g id="edge8" class="edge"><title>10&#45;&gt;8</title>
<path fill="none" stroke="black" d="M683.449,-87.6966C674.766,-79.135 664.137,-68.6562 654.652,-59.3045"/>
<polygon fill="black" stroke="black" points="656.927,-56.6327 647.349,-52.1043 652.012,-61.6175 656.927,-56.6327"/>
</g>
<!-- 11 -->
<g id="node8" class="node"><title>11</title>
<polygon fill="gold" stroke="black" stroke-width="2" points="510.5,-268 401.5,-268 401.5,-232 510.5,-232 510.5,-268"/>
<text text-anchor="middle" x="456" y="-246.3" font-family="Times,serif" font-size="14.00">solution1</text>
</g>
<!-- 11&#45;&gt;6 -->
<g id="edge9" class="edge"><title>11&#45;&gt;6</title>
<path fill="none" stroke="black" d="M453.775,-231.697C452.783,-223.983 451.592,-214.712 450.486,-206.112"/>
<polygon fill="black" stroke="black" points="453.946,-205.576 449.199,-196.104 447.003,-206.469 453.946,-205.576"/>
</g>
<!-- 11&#45;&gt;7 -->
<g id="edge10" class="edge"><title>11&#45;&gt;7</title>
<path fill="none" stroke="black" d="M480.218,-231.876C492.923,-222.893 508.664,-211.763 522.423,-202.034"/>
<polygon fill="black" stroke="black" points="524.544,-204.821 530.689,-196.19 520.503,-199.105 524.544,-204.821"/>
</g>
<!-- 16 -->
<g id="node13" class="node"><title>16</title>
<polygon fill="goldenrod" stroke="black" stroke-width="2" points="383.5,-196 284.5,-196 284.5,-160 383.5,-160 383.5,-196"/>
<text text-anchor="middle" x="334" y="-174.3" font-family="Times,serif" font-size="14.00">success</text>
</g>
<!-- 11&#45;&gt;16 -->
<g id="edge11" class="edge"><title>11&#45;&gt;16</title>
<path fill="none" stroke="black" d="M426.155,-231.876C410.056,-222.639 389.999,-211.131 372.712,-201.212"/>
<polygon fill="black" stroke="black" points="374.375,-198.131 363.959,-196.19 370.891,-204.202 374.375,-198.131"/>
</g>
<!-- 12 -->
<g id="node9" class="node"><title>12</title>
<polygon fill="gold" stroke="black" stroke-width="2" points="383.5,-268 274.5,-268 274.5,-232 383.5,-232 383.5,-268"/>
<text text-anchor="middle" x="329" y="-246.3" font-family="Times,serif" font-size="14.00">solution2</text>
</g>
<!-- 12&#45;&gt;6 -->
<g id="edge12" class="edge"><title>12&#45;&gt;6</title>
<path fill="none" stroke="black" d="M357.866,-231.876C373.295,-222.724 392.481,-211.342 409.097,-201.485"/>
<polygon fill="black" stroke="black" points="411.208,-204.302 418.023,-196.19 407.637,-198.282 411.208,-204.302"/>
</g>
<!-- 12&#45;&gt;7 -->
<g id="edge13" class="edge"><title>12&#45;&gt;7</title>
<path fill="none" stroke="black" d="M383.638,-232.257C415.213,-222.559 455.931,-210.018 500.622,-196.109"/>
<polygon fill="black" stroke="black" points="501.71,-199.436 510.218,-193.121 499.629,-192.753 501.71,-199.436"/>
</g>
<!-- 12&#45;&gt;16 -->
<g id="edge14" class="edge"><title>12&#45;&gt;16</title>
<path fill="none" stroke="black" d="M330.236,-231.697C330.787,-223.983 331.449,-214.712 332.063,-206.112"/>
<polygon fill="black" stroke="black" points="335.557,-206.328 332.778,-196.104 328.575,-205.83 335.557,-206.328"/>
</g>
<!-- 13 -->
<g id="node10" class="node"><title>13</title>
<polygon fill="gold" stroke="black" stroke-width="2" points="256.5,-268 147.5,-268 147.5,-232 256.5,-232 256.5,-268"/>
<text text-anchor="middle" x="202" y="-246.3" font-family="Times,serif" font-size="14.00">solution3</text>
</g>
<!-- 13&#45;&gt;6 -->
<g id="edge15" class="edge"><title>13&#45;&gt;6</title>
<path fill="none" stroke="black" d="M256.702,-234.046C299.418,-222.33 356.237,-206.655 392.01,-196.232"/>
<polygon fill="black" stroke="black" points="393.348,-199.487 401.954,-193.308 391.373,-192.771 393.348,-199.487"/>
</g>
<!-- 13&#45;&gt;7 -->
<g id="edge16" class="edge"><title>13&#45;&gt;7</title>
<path fill="none" stroke="black" d="M256.545,-233.88C259.398,-233.215 262.229,-232.583 265,-232 365.684,-210.806 395.834,-219.434 500.347,-195.932"/>
<polygon fill="black" stroke="black" points="501.393,-199.283 510.357,-193.635 499.828,-192.461 501.393,-199.283"/>
</g>
<!-- 13&#45;&gt;16 -->
<g id="edge17" class="edge"><title>13&#45;&gt;16</title>
<path fill="none" stroke="black" d="M234.291,-231.876C251.869,-222.554 273.809,-210.919 292.629,-200.939"/>
<polygon fill="black" stroke="black" points="294.39,-203.967 301.585,-196.19 291.111,-197.783 294.39,-203.967"/>
</g>
<!-- 14 -->
<g id="node11" class="node"><title>14</title>
<polygon fill="gold" stroke="black" stroke-width="2" points="764.5,-268 655.5,-268 655.5,-232 764.5,-232 764.5,-268"/>
<text text-anchor="middle" x="710" y="-246.3" font-family="Times,serif" font-size="14.00">solution4</text>
</g>
<!-- 14&#45;&gt;6 -->
<g id="edge18" class="edge"><title>14&#45;&gt;6</title>
<path fill="none" stroke="black" d="M655.382,-234.189C652.549,-233.444 649.742,-232.71 647,-232 582.721,-215.35 565.967,-213.811 502,-196 501.901,-195.972 501.801,-195.945 501.702,-195.917"/>
<polygon fill="black" stroke="black" points="502.838,-192.602 492.261,-193.211 500.91,-199.331 502.838,-192.602"/>
</g>
<!-- 14&#45;&gt;7 -->
<g id="edge19" class="edge"><title>14&#45;&gt;7</title>
<path fill="none" stroke="black" d="M672.083,-231.876C650.987,-222.349 624.544,-210.407 602.127,-200.283"/>
<polygon fill="black" stroke="black" points="603.348,-196.994 592.794,-196.068 600.467,-203.374 603.348,-196.994"/>
</g>
<!-- 14&#45;&gt;16 -->
<g id="edge20" class="edge"><title>14&#45;&gt;16</title>
<path fill="none" stroke="black" d="M655.462,-233.844C652.608,-233.188 649.774,-232.569 647,-232 538.468,-209.753 506.306,-219.261 393.814,-195.99"/>
<polygon fill="black" stroke="black" points="394.277,-192.511 383.769,-193.87 392.831,-199.36 394.277,-192.511"/>
</g>
<!-- 15 -->
<g id="node12" class="node"><title>15</title>
<polygon fill="gold" stroke="black" stroke-width="2" points="637.5,-268 528.5,-268 528.5,-232 637.5,-232 637.5,-268"/>
<text text-anchor="middle" x="583" y="-246.3" font-family="Times,serif" font-size="14.00">solution5</text>
</g>
<!-- 15&#45;&gt;6 -->
<g id="edge21" class="edge"><title>15&#45;&gt;6</title>
<path fill="none" stroke="black" d="M549.731,-231.876C531.537,-222.512 508.809,-210.814 489.36,-200.803"/>
<polygon fill="black" stroke="black" points="490.89,-197.654 480.397,-196.19 487.687,-203.878 490.89,-197.654"/>
</g>
<!-- 15&#45;&gt;7 -->
<g id="edge22" class="edge"><title>15&#45;&gt;7</title>
<path fill="none" stroke="black" d="M576.079,-231.697C572.925,-223.813 569.122,-214.304 565.619,-205.546"/>
<polygon fill="black" stroke="black" points="568.805,-204.089 561.842,-196.104 562.306,-206.689 568.805,-204.089"/>
</g>
<!-- 15&#45;&gt;16 -->
<g id="edge23" class="edge"><title>15&#45;&gt;16</title>
<path fill="none" stroke="black" d="M528.09,-233.816C492.425,-223.923 444.672,-210.62 393.5,-196.13"/>
<polygon fill="black" stroke="black" points="394.141,-192.674 383.566,-193.315 392.232,-199.409 394.141,-192.674"/>
</g>
<!-- 17 -->
<g id="node14" class="node"><title>17</title>
<polygon fill="gold" stroke="black" stroke-width="2" points="129.5,-268 16.5,-268 16.5,-232 129.5,-232 129.5,-268"/>
<text text-anchor="middle" x="73" y="-246.3" font-family="Times,serif" font-size="14.00">unsafeIter</text>
</g>
</g>
</svg>
