<?xml version="1.0" encoding="UTF-8" standalone="no"?>
<!DOCTYPE svg PUBLIC "-//W3C//DTD SVG 1.1//EN"
 "http://www.w3.org/Graphics/SVG/1.1/DTD/svg11.dtd">
<!-- Generated by graphviz version 2.38.0 (20140413.2041)
 -->
<!-- Title: Overall core Pages: 1 -->
<svg width="2760pt" height="273pt"
 viewBox="0.00 0.00 2760.00 272.70" xmlns="http://www.w3.org/2000/svg" xmlns:xlink="http://www.w3.org/1999/xlink">
<g id="graph0" class="graph" transform="scale(1 1) rotate(0) translate(4 268.705)">
<title>Overall core</title>
<polygon fill="white" stroke="none" points="-4,4 -4,-268.705 2756,-268.705 2756,4 -4,4"/>
<g id="clust1" class="cluster"><title>cluster_Class_Arbitrary</title>
<path fill="#ffc1c1" stroke="black" d="M20,-8C20,-8 1164,-8 1164,-8 1170,-8 1176,-14 1176,-20 1176,-20 1176,-244.705 1176,-244.705 1176,-250.705 1170,-256.705 1164,-256.705 1164,-256.705 20,-256.705 20,-256.705 14,-256.705 8,-250.705 8,-244.705 8,-244.705 8,-20 8,-20 8,-14 14,-8 20,-8"/>
<text text-anchor="middle" x="592" y="-241.505" font-family="Times,serif" font-size="14.00">Class: Arbitrary</text>
</g>
<g id="clust2" class="cluster"><title>cluster_Class_Arbitrary_Data_HashedSecreta</title>
<path fill="#c6e2ff" stroke="black" d="M956,-119.352C956,-119.352 1156,-119.352 1156,-119.352 1162,-119.352 1168,-125.352 1168,-131.352 1168,-131.352 1168,-213.705 1168,-213.705 1168,-219.705 1162,-225.705 1156,-225.705 1156,-225.705 956,-225.705 956,-225.705 950,-225.705 944,-219.705 944,-213.705 944,-213.705 944,-131.352 944,-131.352 944,-125.352 950,-119.352 956,-119.352"/>
<text text-anchor="middle" x="1056" y="-210.505" font-family="Times,serif" font-size="14.00">Instance for: (HashedSecret a)</text>
</g>
<g id="clust3" class="cluster"><title>cluster_Class_Arbitrary_Data_CNF</title>
<path fill="#c6e2ff" stroke="black" d="M724,-119.352C724,-119.352 924,-119.352 924,-119.352 930,-119.352 936,-125.352 936,-131.352 936,-131.352 936,-213.705 936,-213.705 936,-219.705 930,-225.705 924,-225.705 924,-225.705 724,-225.705 724,-225.705 718,-225.705 712,-219.705 712,-213.705 712,-213.705 712,-131.352 712,-131.352 712,-125.352 718,-119.352 724,-119.352"/>
<text text-anchor="middle" x="824" y="-210.505" font-family="Times,serif" font-size="14.00">Instance for: CNF</text>
</g>
<g id="clust4" class="cluster"><title>cluster_Class_Arbitrary_Data_DCLabel</title>
<path fill="#c6e2ff" stroke="black" d="M492,-119.352C492,-119.352 692,-119.352 692,-119.352 698,-119.352 704,-125.352 704,-131.352 704,-131.352 704,-213.705 704,-213.705 704,-219.705 698,-225.705 692,-225.705 692,-225.705 492,-225.705 492,-225.705 486,-225.705 480,-219.705 480,-213.705 480,-213.705 480,-131.352 480,-131.352 480,-125.352 486,-119.352 492,-119.352"/>
<text text-anchor="middle" x="592" y="-210.505" font-family="Times,serif" font-size="14.00">Instance for: DCLabel</text>
</g>
<g id="clust5" class="cluster"><title>cluster_Class_Arbitrary_Data_ThentosClearance</title>
<path fill="#c6e2ff" stroke="black" d="M260,-119.352C260,-119.352 460,-119.352 460,-119.352 466,-119.352 472,-125.352 472,-131.352 472,-131.352 472,-213.705 472,-213.705 472,-219.705 466,-225.705 460,-225.705 460,-225.705 260,-225.705 260,-225.705 254,-225.705 248,-219.705 248,-213.705 248,-213.705 248,-131.352 248,-131.352 248,-125.352 254,-119.352 260,-119.352"/>
<text text-anchor="middle" x="360" y="-210.505" font-family="Times,serif" font-size="14.00">Instance for: ThentosClearance</text>
</g>
<g id="clust6" class="cluster"><title>cluster_Class_Arbitrary_Data_ThentosLabel</title>
<path fill="#c6e2ff" stroke="black" d="M28,-119.352C28,-119.352 228,-119.352 228,-119.352 234,-119.352 240,-125.352 240,-131.352 240,-131.352 240,-213.705 240,-213.705 240,-219.705 234,-225.705 228,-225.705 228,-225.705 28,-225.705 28,-225.705 22,-225.705 16,-219.705 16,-213.705 16,-213.705 16,-131.352 16,-131.352 16,-125.352 22,-119.352 28,-119.352"/>
<text text-anchor="middle" x="128" y="-210.505" font-family="Times,serif" font-size="14.00">Instance for: ThentosLabel</text>
</g>
<g id="clust7" class="cluster"><title>cluster_Class_Monoid</title>
<path fill="#ffc1c1" stroke="black" d="M1196,-8C1196,-8 1438,-8 1438,-8 1444,-8 1450,-14 1450,-20 1450,-20 1450,-244.705 1450,-244.705 1450,-250.705 1444,-256.705 1438,-256.705 1438,-256.705 1196,-256.705 1196,-256.705 1190,-256.705 1184,-250.705 1184,-244.705 1184,-244.705 1184,-20 1184,-20 1184,-14 1190,-8 1196,-8"/>
<text text-anchor="middle" x="1317" y="-241.505" font-family="Times,serif" font-size="14.00">Class: Monoid</text>
</g>
<g id="clust8" class="cluster"><title>cluster_Class_Monoid_Data_ThentosConfigBuilder</title>
<path fill="#c6e2ff" stroke="black" d="M1212,-119.352C1212,-119.352 1422,-119.352 1422,-119.352 1428,-119.352 1434,-125.352 1434,-131.352 1434,-131.352 1434,-213.705 1434,-213.705 1434,-219.705 1428,-225.705 1422,-225.705 1422,-225.705 1212,-225.705 1212,-225.705 1206,-225.705 1200,-219.705 1200,-213.705 1200,-213.705 1200,-131.352 1200,-131.352 1200,-125.352 1206,-119.352 1212,-119.352"/>
<text text-anchor="middle" x="1317" y="-210.505" font-family="Times,serif" font-size="14.00">Instance for: ThentosConfigBuilder</text>
</g>
<g id="clust9" class="cluster"><title>cluster_Class_PushActionC</title>
<path fill="#ffc1c1" stroke="black" d="M1470,-8C1470,-8 2056,-8 2056,-8 2062,-8 2068,-14 2068,-20 2068,-20 2068,-244.705 2068,-244.705 2068,-250.705 2062,-256.705 2056,-256.705 2056,-256.705 1470,-256.705 1470,-256.705 1464,-256.705 1458,-250.705 1458,-244.705 1458,-244.705 1458,-20 1458,-20 1458,-14 1464,-8 1470,-8"/>
<text text-anchor="middle" x="1763" y="-241.505" font-family="Times,serif" font-size="14.00">Class: PushActionC</text>
</g>
<g id="clust10" class="cluster"><title>cluster_Class_PushActionC_Data_ab</title>
<path fill="#c6e2ff" stroke="black" d="M1478,-119.352C1478,-119.352 2048,-119.352 2048,-119.352 2054,-119.352 2060,-125.352 2060,-131.352 2060,-131.352 2060,-213.705 2060,-213.705 2060,-219.705 2054,-225.705 2048,-225.705 2048,-225.705 1478,-225.705 1478,-225.705 1472,-225.705 1466,-219.705 1466,-213.705 1466,-213.705 1466,-131.352 1466,-131.352 1466,-125.352 1472,-119.352 1478,-119.352"/>
<text text-anchor="middle" x="1763" y="-210.505" font-family="Times,serif" font-size="14.00">Instance for: (a :&lt;|&gt; b)</text>
</g>
<g id="clust11" class="cluster"><title>cluster_Class_ToSample</title>
<path fill="#ffc1c1" stroke="black" d="M2088,-8C2088,-8 2732,-8 2732,-8 2738,-8 2744,-14 2744,-20 2744,-20 2744,-244.705 2744,-244.705 2744,-250.705 2738,-256.705 2732,-256.705 2732,-256.705 2088,-256.705 2088,-256.705 2082,-256.705 2076,-250.705 2076,-244.705 2076,-244.705 2076,-20 2076,-20 2076,-14 2082,-8 2088,-8"/>
<text text-anchor="middle" x="2410" y="-241.505" font-family="Times,serif" font-size="14.00">Class: ToSample</text>
</g>
<g id="clust12" class="cluster"><title>cluster_Class_ToSample_Data_UserIdServiceId</title>
<path fill="#c6e2ff" stroke="black" d="M2536,-119.352C2536,-119.352 2724,-119.352 2724,-119.352 2730,-119.352 2736,-125.352 2736,-131.352 2736,-131.352 2736,-213.705 2736,-213.705 2736,-219.705 2730,-225.705 2724,-225.705 2724,-225.705 2536,-225.705 2536,-225.705 2530,-225.705 2524,-219.705 2524,-213.705 2524,-213.705 2524,-131.352 2524,-131.352 2524,-125.352 2530,-119.352 2536,-119.352"/>
<text text-anchor="middle" x="2630" y="-210.505" font-family="Times,serif" font-size="14.00">Instance for: (UserId, ServiceId)</text>
</g>
<g id="clust13" class="cluster"><title>cluster_Class_ToSample_Data_UserIdTimeout</title>
<path fill="#c6e2ff" stroke="black" d="M2316,-119.352C2316,-119.352 2504,-119.352 2504,-119.352 2510,-119.352 2516,-125.352 2516,-131.352 2516,-131.352 2516,-213.705 2516,-213.705 2516,-219.705 2510,-225.705 2504,-225.705 2504,-225.705 2316,-225.705 2316,-225.705 2310,-225.705 2304,-219.705 2304,-213.705 2304,-213.705 2304,-131.352 2304,-131.352 2304,-125.352 2310,-119.352 2316,-119.352"/>
<text text-anchor="middle" x="2410" y="-210.505" font-family="Times,serif" font-size="14.00">Instance for: (UserId, Timeout)</text>
</g>
<g id="clust14" class="cluster"><title>cluster_Class_ToSample_Data_Session</title>
<path fill="#c6e2ff" stroke="black" d="M2096,-119.352C2096,-119.352 2284,-119.352 2284,-119.352 2290,-119.352 2296,-125.352 2296,-131.352 2296,-131.352 2296,-213.705 2296,-213.705 2296,-219.705 2290,-225.705 2284,-225.705 2284,-225.705 2096,-225.705 2096,-225.705 2090,-225.705 2084,-219.705 2084,-213.705 2084,-213.705 2084,-131.352 2084,-131.352 2084,-125.352 2090,-119.352 2096,-119.352"/>
<text text-anchor="middle" x="2190" y="-210.505" font-family="Times,serif" font-size="14.00">Instance for: Session</text>
</g>
<!-- 36 -->
<g id="node1" class="node"><title>36</title>
<polygon fill="bisque" stroke="black" points="1160.18,-147.006 1160.18,-175.051 1099.15,-194.882 1012.85,-194.882 951.82,-175.051 951.82,-147.006 1012.85,-127.175 1099.15,-127.175 1160.18,-147.006"/>
<text text-anchor="middle" x="1056" y="-164.828" font-family="Times,serif" font-size="14.00">Test.Arbitrary</text>
<text text-anchor="middle" x="1056" y="-149.828" font-family="Times,serif" font-size="14.00">arbitrary</text>
</g>
<!-- 473 -->
<g id="node6" class="node"><title>473</title>
<polygon fill="khaki" stroke="black" stroke-dasharray="1,5" points="712.858,-39.6615 712.858,-67.6908 642.061,-87.5105 541.939,-87.5105 471.142,-67.6908 471.142,-39.6615 541.939,-19.8418 642.061,-19.8418 712.858,-39.6615"/>
<polygon fill="none" stroke="black" stroke-dasharray="1,5" points="716.856,-36.609 716.856,-70.7433 642.607,-91.5293 541.393,-91.5293 467.144,-70.7433 467.144,-36.609 541.393,-15.823 642.607,-15.823 716.856,-36.609"/>
<text text-anchor="middle" x="592" y="-57.4761" font-family="Times,serif" font-size="14.00">Unknown Module</text>
<text text-anchor="middle" x="592" y="-42.4761" font-family="Times,serif" font-size="14.00">arbitrary</text>
</g>
<!-- 36&#45;&gt;473 -->
<g id="edge1" class="edge"><title>36&#45;&gt;473</title>
<path fill="none" stroke="black" d="M984.972,-136.187C967.424,-130.15 948.631,-124.052 931,-119.352 861.533,-100.835 782.88,-85.7349 718.804,-74.7961"/>
<polygon fill="black" stroke="black" points="719.093,-71.2953 708.649,-73.0764 717.924,-78.1971 719.093,-71.2953"/>
</g>
<!-- 37 -->
<g id="node2" class="node"><title>37</title>
<polygon fill="bisque" stroke="black" points="928.18,-147.006 928.18,-175.051 867.153,-194.882 780.847,-194.882 719.82,-175.051 719.82,-147.006 780.847,-127.175 867.153,-127.175 928.18,-147.006"/>
<text text-anchor="middle" x="824" y="-164.828" font-family="Times,serif" font-size="14.00">Test.Arbitrary</text>
<text text-anchor="middle" x="824" y="-149.828" font-family="Times,serif" font-size="14.00">arbitrary</text>
</g>
<!-- 37&#45;&gt;473 -->
<g id="edge2" class="edge"><title>37&#45;&gt;473</title>
<path fill="none" stroke="black" stroke-width="1.69315" d="M760.121,-133.715C731.288,-121.012 697.062,-105.552 667.023,-91.6858"/>
<polygon fill="black" stroke="black" stroke-width="1.69315" points="668.391,-88.4621 657.845,-87.4384 665.451,-94.8148 668.391,-88.4621"/>
</g>
<!-- 38 -->
<g id="node3" class="node"><title>38</title>
<polygon fill="bisque" stroke="black" points="696.18,-147.006 696.18,-175.051 635.153,-194.882 548.847,-194.882 487.82,-175.051 487.82,-147.006 548.847,-127.175 635.153,-127.175 696.18,-147.006"/>
<text text-anchor="middle" x="592" y="-164.828" font-family="Times,serif" font-size="14.00">Test.Arbitrary</text>
<text text-anchor="middle" x="592" y="-149.828" font-family="Times,serif" font-size="14.00">arbitrary</text>
</g>
<!-- 38&#45;&gt;473 -->
<g id="edge3" class="edge"><title>38&#45;&gt;473</title>
<path fill="none" stroke="black" stroke-width="1.69315" d="M585.699,-127.272C585.314,-119.11 585.176,-110.2 585.287,-101.505"/>
<polygon fill="black" stroke="black" stroke-width="1.69315" points="588.787,-101.536 585.531,-91.4539 581.789,-101.366 588.787,-101.536"/>
</g>
<!-- 39 -->
<g id="node4" class="node"><title>39</title>
<polygon fill="bisque" stroke="black" points="464.18,-147.006 464.18,-175.051 403.153,-194.882 316.847,-194.882 255.82,-175.051 255.82,-147.006 316.847,-127.175 403.153,-127.175 464.18,-147.006"/>
<text text-anchor="middle" x="360" y="-164.828" font-family="Times,serif" font-size="14.00">Test.Arbitrary</text>
<text text-anchor="middle" x="360" y="-149.828" font-family="Times,serif" font-size="14.00">arbitrary</text>
</g>
<!-- 39&#45;&gt;473 -->
<g id="edge4" class="edge"><title>39&#45;&gt;473</title>
<path fill="none" stroke="black" d="M416.708,-131.519C444.508,-118.541 478.485,-103.064 509.116,-89.4128"/>
<polygon fill="black" stroke="black" points="510.788,-92.4998 518.504,-85.2396 507.945,-86.1032 510.788,-92.4998"/>
</g>
<!-- 40 -->
<g id="node5" class="node"><title>40</title>
<polygon fill="bisque" stroke="black" points="232.18,-147.006 232.18,-175.051 171.153,-194.882 84.8473,-194.882 23.8201,-175.051 23.8201,-147.006 84.8473,-127.175 171.153,-127.175 232.18,-147.006"/>
<text text-anchor="middle" x="128" y="-164.828" font-family="Times,serif" font-size="14.00">Test.Arbitrary</text>
<text text-anchor="middle" x="128" y="-149.828" font-family="Times,serif" font-size="14.00">arbitrary</text>
</g>
<!-- 40&#45;&gt;473 -->
<g id="edge5" class="edge"><title>40&#45;&gt;473</title>
<path fill="none" stroke="black" d="M190.13,-133.223C204.699,-128.19 220.256,-123.283 235,-119.352 308.29,-99.8158 391.805,-84.0832 459.656,-73.0281"/>
<polygon fill="black" stroke="black" points="460.236,-76.4799 469.55,-71.431 459.12,-69.5693 460.236,-76.4799"/>
</g>
<!-- 473&#45;&gt;36 -->
<g id="edge17" class="edge"><title>473&#45;&gt;36</title>
<path fill="none" stroke="navy" d="M714.45,-71.431C783.956,-82.545 872.106,-98.855 949,-119.352 963.744,-123.283 979.301,-128.19 993.87,-133.223"/>
</g>
<!-- 473&#45;&gt;37 -->
<g id="edge18" class="edge"><title>473&#45;&gt;37</title>
<path fill="none" stroke="navy" d="M665.496,-85.2396C698.42,-99.8352 736.616,-117.198 767.292,-131.519"/>
</g>
<!-- 473&#45;&gt;38 -->
<g id="edge19" class="edge"><title>473&#45;&gt;38</title>
<path fill="none" stroke="navy" d="M598.469,-91.4539C598.893,-103.112 598.837,-115.916 598.301,-127.272"/>
</g>
<!-- 473&#45;&gt;39 -->
<g id="edge20" class="edge"><title>473&#45;&gt;39</title>
<path fill="none" stroke="navy" d="M526.155,-87.4384C494.077,-102.324 455.695,-119.698 423.879,-133.715"/>
</g>
<!-- 473&#45;&gt;40 -->
<g id="edge21" class="edge"><title>473&#45;&gt;40</title>
<path fill="none" stroke="navy" d="M475.351,-73.0764C409.562,-84.1291 326.183,-99.8443 253,-119.352 235.369,-124.052 216.576,-130.15 199.028,-136.187"/>
</g>
<!-- 178 -->
<g id="node7" class="node"><title>178</title>
<polygon fill="bisque" stroke="black" points="1426.39,-147.006 1426.39,-175.051 1362.31,-194.882 1271.69,-194.882 1207.61,-175.051 1207.61,-147.006 1271.69,-127.175 1362.31,-127.175 1426.39,-147.006"/>
<text text-anchor="middle" x="1317" y="-164.828" font-family="Times,serif" font-size="14.00">Thentos.Config</text>
<text text-anchor="middle" x="1317" y="-149.828" font-family="Times,serif" font-size="14.00">mempty</text>
</g>
<!-- 480 -->
<g id="node8" class="node"><title>480</title>
<polygon fill="khaki" stroke="black" stroke-dasharray="1,5" points="1437.86,-39.6615 1437.86,-67.6908 1367.06,-87.5105 1266.94,-87.5105 1196.14,-67.6908 1196.14,-39.6615 1266.94,-19.8418 1367.06,-19.8418 1437.86,-39.6615"/>
<polygon fill="none" stroke="black" stroke-dasharray="1,5" points="1441.86,-36.609 1441.86,-70.7433 1367.61,-91.5293 1266.39,-91.5293 1192.14,-70.7433 1192.14,-36.609 1266.39,-15.823 1367.61,-15.823 1441.86,-36.609"/>
<text text-anchor="middle" x="1317" y="-57.4761" font-family="Times,serif" font-size="14.00">Unknown Module</text>
<text text-anchor="middle" x="1317" y="-42.4761" font-family="Times,serif" font-size="14.00">mempty</text>
</g>
<!-- 178&#45;&gt;480 -->
<g id="edge10" class="edge"><title>178&#45;&gt;480</title>
<path fill="none" stroke="black" stroke-width="2.09861" d="M1310.7,-127.272C1310.31,-119.11 1310.18,-110.2 1310.29,-101.505"/>
<polygon fill="black" stroke="black" stroke-width="2.09861" points="1313.79,-101.536 1310.53,-91.4539 1306.79,-101.366 1313.79,-101.536"/>
</g>
<!-- 480&#45;&gt;178 -->
<g id="edge22" class="edge"><title>480&#45;&gt;178</title>
<path fill="none" stroke="navy" d="M1323.47,-91.4539C1323.89,-103.112 1323.84,-115.916 1323.3,-127.272"/>
</g>
<!-- 125 -->
<g id="node9" class="node"><title>125</title>
<polygon fill="bisque" stroke="black" points="2052.12,-147.006 2052.12,-175.051 1970.04,-194.882 1853.96,-194.882 1771.88,-175.051 1771.88,-147.006 1853.96,-127.175 1970.04,-127.175 2052.12,-147.006"/>
<text text-anchor="middle" x="1912" y="-164.828" font-family="Times,serif" font-size="14.00">Thentos.Backend.Core</text>
<text text-anchor="middle" x="1912" y="-149.828" font-family="Times,serif" font-size="14.00">pushAction</text>
</g>
<!-- 122 -->
<g id="node11" class="node"><title>122</title>
<polygon fill="bisque" stroke="black" points="1903.12,-39.6615 1903.12,-67.6908 1821.04,-87.5105 1704.96,-87.5105 1622.88,-67.6908 1622.88,-39.6615 1704.96,-19.8418 1821.04,-19.8418 1903.12,-39.6615"/>
<polygon fill="none" stroke="black" points="1907.12,-36.4945 1907.12,-70.8578 1821.51,-91.5293 1704.49,-91.5293 1618.88,-70.8578 1618.88,-36.4945 1704.49,-15.823 1821.51,-15.823 1907.12,-36.4945"/>
<text text-anchor="middle" x="1763" y="-57.4761" font-family="Times,serif" font-size="14.00">Thentos.Backend.Core</text>
<text text-anchor="middle" x="1763" y="-42.4761" font-family="Times,serif" font-size="14.00">pushAction</text>
</g>
<!-- 125&#45;&gt;122 -->
<g id="edge8" class="edge"><title>125&#45;&gt;122</title>
<path fill="none" stroke="black" d="M1859.37,-127.272C1845.63,-117.868 1830.81,-107.47 1817,-97.5534"/>
<polygon fill="black" stroke="black" points="1818.7,-94.4687 1808.55,-91.4539 1814.61,-100.145 1818.7,-94.4687"/>
</g>
<!-- 126 -->
<g id="node10" class="node"><title>126</title>
<polygon fill="bisque" stroke="black" points="1754.12,-147.006 1754.12,-175.051 1672.04,-194.882 1555.96,-194.882 1473.88,-175.051 1473.88,-147.006 1555.96,-127.175 1672.04,-127.175 1754.12,-147.006"/>
<text text-anchor="middle" x="1614" y="-164.828" font-family="Times,serif" font-size="14.00">Thentos.Backend.Core</text>
<text text-anchor="middle" x="1614" y="-149.828" font-family="Times,serif" font-size="14.00">pushAction</text>
</g>
<!-- 126&#45;&gt;122 -->
<g id="edge9" class="edge"><title>126&#45;&gt;122</title>
<path fill="none" stroke="black" stroke-width="1.69315" d="M1654.03,-127.272C1667,-117.779 1681.75,-107.274 1696.12,-97.2729"/>
<polygon fill="black" stroke="black" stroke-width="1.69315" points="1698.29,-100.026 1704.52,-91.4539 1694.3,-94.2715 1698.29,-100.026"/>
</g>
<!-- 122&#45;&gt;125 -->
<g id="edge6" class="edge"><title>122&#45;&gt;125</title>
<path fill="none" stroke="navy" d="M1821.48,-91.4539C1838.4,-103.112 1856.45,-115.916 1871.97,-127.272"/>
</g>
<!-- 122&#45;&gt;126 -->
<g id="edge7" class="edge"><title>122&#45;&gt;126</title>
<path fill="none" stroke="navy" d="M1717.45,-91.4539C1701.39,-103.112 1683.23,-115.916 1666.63,-127.272"/>
</g>
<!-- 331 -->
<g id="node12" class="node"><title>331</title>
<polygon fill="bisque" stroke="black" points="2727.93,-147.006 2727.93,-175.051 2670.57,-194.882 2589.43,-194.882 2532.07,-175.051 2532.07,-147.006 2589.43,-127.175 2670.57,-127.175 2727.93,-147.006"/>
<text text-anchor="middle" x="2630" y="-164.828" font-family="Times,serif" font-size="14.00">Thentos.Doc</text>
<text text-anchor="middle" x="2630" y="-149.828" font-family="Times,serif" font-size="14.00">toSample</text>
</g>
<!-- 471 -->
<g id="node15" class="node"><title>471</title>
<polygon fill="khaki" stroke="black" stroke-dasharray="5,2" points="2510.04,-39.6615 2510.04,-67.6908 2451.44,-87.5105 2368.56,-87.5105 2309.96,-67.6908 2309.96,-39.6615 2368.56,-19.8418 2451.44,-19.8418 2510.04,-39.6615"/>
<polygon fill="none" stroke="black" stroke-dasharray="5,2" points="2514.03,-36.7719 2514.03,-70.5804 2452.09,-91.5293 2367.91,-91.5293 2305.97,-70.5804 2305.97,-36.7719 2367.91,-15.823 2452.09,-15.823 2514.03,-36.7719"/>
<text text-anchor="middle" x="2410" y="-57.4761" font-family="Times,serif" font-size="14.00">Servant.Docs</text>
<text text-anchor="middle" x="2410" y="-42.4761" font-family="Times,serif" font-size="14.00">toSample</text>
</g>
<!-- 331&#45;&gt;471 -->
<g id="edge11" class="edge"><title>331&#45;&gt;471</title>
<path fill="none" stroke="black" stroke-width="1.69315" d="M2569.7,-133.986C2541.36,-120.845 2507.48,-104.704 2478.21,-90.4203"/>
<polygon fill="black" stroke="black" stroke-width="1.69315" points="2479.4,-87.1072 2468.88,-85.8544 2476.33,-93.3944 2479.4,-87.1072"/>
</g>
<!-- 332 -->
<g id="node13" class="node"><title>332</title>
<polygon fill="bisque" stroke="black" points="2507.93,-147.006 2507.93,-175.051 2450.57,-194.882 2369.43,-194.882 2312.07,-175.051 2312.07,-147.006 2369.43,-127.175 2450.57,-127.175 2507.93,-147.006"/>
<text text-anchor="middle" x="2410" y="-164.828" font-family="Times,serif" font-size="14.00">Thentos.Doc</text>
<text text-anchor="middle" x="2410" y="-149.828" font-family="Times,serif" font-size="14.00">toSample</text>
</g>
<!-- 332&#45;&gt;471 -->
<g id="edge12" class="edge"><title>332&#45;&gt;471</title>
<path fill="none" stroke="black" d="M2403.7,-127.272C2403.31,-119.11 2403.18,-110.2 2403.29,-101.505"/>
<polygon fill="black" stroke="black" points="2406.79,-101.536 2403.53,-91.4539 2399.79,-101.366 2406.79,-101.536"/>
</g>
<!-- 336 -->
<g id="node14" class="node"><title>336</title>
<polygon fill="bisque" stroke="black" points="2287.93,-147.006 2287.93,-175.051 2230.57,-194.882 2149.43,-194.882 2092.07,-175.051 2092.07,-147.006 2149.43,-127.175 2230.57,-127.175 2287.93,-147.006"/>
<text text-anchor="middle" x="2190" y="-164.828" font-family="Times,serif" font-size="14.00">Thentos.Doc</text>
<text text-anchor="middle" x="2190" y="-149.828" font-family="Times,serif" font-size="14.00">toSample</text>
</g>
<!-- 336&#45;&gt;471 -->
<g id="edge13" class="edge"><title>336&#45;&gt;471</title>
<path fill="none" stroke="black" d="M2243.46,-131.519C2270.79,-118.044 2304.47,-101.875 2334.4,-87.8526"/>
<polygon fill="black" stroke="black" points="2335.98,-90.9789 2343.55,-83.5751 2333.01,-84.6369 2335.98,-90.9789"/>
</g>
<!-- 471&#45;&gt;331 -->
<g id="edge14" class="edge"><title>471&#45;&gt;331</title>
<path fill="none" stroke="navy" d="M2476.45,-83.5751C2508.49,-98.5008 2546.38,-116.65 2576.54,-131.519"/>
</g>
<!-- 471&#45;&gt;332 -->
<g id="edge15" class="edge"><title>471&#45;&gt;332</title>
<path fill="none" stroke="navy" d="M2416.47,-91.4539C2416.89,-103.112 2416.84,-115.916 2416.3,-127.272"/>
</g>
<!-- 471&#45;&gt;336 -->
<g id="edge16" class="edge"><title>471&#45;&gt;336</title>
<path fill="none" stroke="navy" d="M2351.12,-85.8544C2319.92,-101.175 2281.71,-119.423 2250.3,-133.986"/>
</g>
</g>
</svg>
