<?xml version="1.0" encoding="UTF-8" standalone="no"?>
<!DOCTYPE svg PUBLIC "-//W3C//DTD SVG 1.1//EN"
 "http://www.w3.org/Graphics/SVG/1.1/DTD/svg11.dtd">
<!-- Generated by graphviz version 2.38.0 (20140413.2041)
 -->
<!-- Title: Diagram of: Control.Access.RoleBased.Internal.Types Pages: 1 -->
<svg width="318pt" height="171pt"
 viewBox="0.00 0.00 318.00 171.00" xmlns="http://www.w3.org/2000/svg" xmlns:xlink="http://www.w3.org/1999/xlink">
<g id="graph0" class="graph" transform="scale(1 1) rotate(0) translate(4 167)">
<title>Diagram of: Control.Access.RoleBased.Internal.Types</title>
<polygon fill="white" stroke="none" points="-4,4 -4,-167 314,-167 314,4 -4,4"/>
<g id="clust1" class="cluster"><title>cluster_Data_RoleMonad</title>
<path fill="papayawhip" stroke="black" d="M20,-8C20,-8 136,-8 136,-8 142,-8 148,-14 148,-20 148,-20 148,-143 148,-143 148,-149 142,-155 136,-155 136,-155 20,-155 20,-155 14,-155 8,-149 8,-143 8,-143 8,-20 8,-20 8,-14 14,-8 20,-8"/>
<text text-anchor="middle" x="78" y="-139.8" font-family="Times,serif" font-size="14.00">Data: RoleMonad</text>
</g>
<g id="clust2" class="cluster"><title>cluster_Data_RuleChecker</title>
<path fill="papayawhip" stroke="black" d="M168,-80C168,-80 290,-80 290,-80 296,-80 302,-86 302,-92 302,-92 302,-143 302,-143 302,-149 296,-155 290,-155 290,-155 168,-155 168,-155 162,-155 156,-149 156,-143 156,-143 156,-92 156,-92 156,-86 162,-80 168,-80"/>
<text text-anchor="middle" x="229" y="-139.8" font-family="Times,serif" font-size="14.00">Data: RuleChecker</text>
</g>
<!-- 1 -->
<g id="node1" class="node"><title>1</title>
<polygon fill="goldenrod" stroke="black" stroke-width="2" points="139.5,-52 20.5,-52 16.5,-48 16.5,-16 135.5,-16 139.5,-20 139.5,-52"/>
<polyline fill="none" stroke="black" stroke-width="2" points="135.5,-48 16.5,-48 "/>
<polyline fill="none" stroke="black" stroke-width="2" points="135.5,-48 135.5,-16 "/>
<polyline fill="none" stroke="black" stroke-width="2" points="135.5,-48 139.5,-52 "/>
<text text-anchor="middle" x="78" y="-30.3" font-family="Times,serif" font-size="14.00">RoleMonad</text>
</g>
<!-- 3 -->
<g id="node2" class="node"><title>3</title>
<polygon fill="gold" stroke="black" stroke-width="2" points="126.5,-124 29.5,-124 29.5,-120 25.5,-120 25.5,-116 29.5,-116 29.5,-96 25.5,-96 25.5,-92 29.5,-92 29.5,-88 126.5,-88 126.5,-124"/>
<polyline fill="none" stroke="black" stroke-width="2" points="29.5,-120 33.5,-120 33.5,-116 29.5,-116 "/>
<polyline fill="none" stroke="black" stroke-width="2" points="29.5,-96 33.5,-96 33.5,-92 29.5,-92 "/>
<text text-anchor="middle" x="78" y="-102.3" font-family="Times,serif" font-size="14.00">_unRC</text>
</g>
<!-- 3&#45;&gt;1 -->
<g id="edge1" class="edge"><title>3&#45;&gt;1</title>
<path fill="none" stroke="magenta" d="M78,-87.6966C78,-79.9827 78,-70.7125 78,-62.1124"/>
<polygon fill="magenta" stroke="magenta" points="78,-52.1043 82.5001,-62.1043 78,-57.1043 78.0001,-62.1043 78.0001,-62.1043 78.0001,-62.1043 78,-57.1043 73.5001,-62.1044 78,-52.1043 78,-52.1043"/>
</g>
<!-- 2 -->
<g id="node3" class="node"><title>2</title>
<polygon fill="gold" stroke="black" stroke-width="2" points="293.5,-124 168.5,-124 164.5,-120 164.5,-88 289.5,-88 293.5,-92 293.5,-124"/>
<polyline fill="none" stroke="black" stroke-width="2" points="289.5,-120 164.5,-120 "/>
<polyline fill="none" stroke="black" stroke-width="2" points="289.5,-120 289.5,-88 "/>
<polyline fill="none" stroke="black" stroke-width="2" points="289.5,-120 293.5,-124 "/>
<text text-anchor="middle" x="229" y="-102.3" font-family="Times,serif" font-size="14.00">RuleChecker</text>
</g>
</g>
</svg>
