<?xml version="1.0" encoding="UTF-8" standalone="no"?>
<!DOCTYPE svg PUBLIC "-//W3C//DTD SVG 1.1//EN"
 "http://www.w3.org/Graphics/SVG/1.1/DTD/svg11.dtd">
<!-- Generated by graphviz version 2.38.0 (20140413.2041)
 -->
<!-- Title: Diagram of: Control.Access.RoleBased.Internal.Rule Pages: 1 -->
<svg width="710pt" height="349pt"
 viewBox="0.00 0.00 710.00 348.74" xmlns="http://www.w3.org/2000/svg" xmlns:xlink="http://www.w3.org/1999/xlink">
<g id="graph0" class="graph" transform="scale(1 1) rotate(0) translate(4 344.744)">
<title>Diagram of: Control.Access.RoleBased.Internal.Rule</title>
<polygon fill="white" stroke="none" points="-4,4 -4,-344.744 706,-344.744 706,4 -4,4"/>
<g id="clust1" class="cluster"><title>cluster_Class_Monoid</title>
<path fill="#ffc1c1" stroke="black" d="M20,-91C20,-91 530,-91 530,-91 536,-91 542,-97 542,-103 542,-103 542,-284.744 542,-284.744 542,-290.744 536,-296.744 530,-296.744 530,-296.744 20,-296.744 20,-296.744 14,-296.744 8,-290.744 8,-284.744 8,-284.744 8,-103 8,-103 8,-97 14,-91 20,-91"/>
<text text-anchor="middle" x="275" y="-281.544" font-family="Times,serif" font-size="14.00">Class: Monoid</text>
</g>
<g id="clust2" class="cluster"><title>cluster_Class_Monoid_Data_RuleSet</title>
<path fill="#c6e2ff" stroke="black" d="M169,-99C169,-99 505,-99 505,-99 511,-99 517,-105 517,-111 517,-111 517,-170.391 517,-170.391 517,-176.391 511,-182.391 505,-182.391 505,-182.391 169,-182.391 169,-182.391 163,-182.391 157,-176.391 157,-170.391 157,-170.391 157,-111 157,-111 157,-105 163,-99 169,-99"/>
<text text-anchor="middle" x="337" y="-167.191" font-family="Times,serif" font-size="14.00">Instance for: RuleSet</text>
</g>
<g id="clust3" class="cluster"><title>cluster_Data_Rule</title>
<path fill="papayawhip" stroke="black" d="M594,-103.196C594,-103.196 670,-103.196 670,-103.196 676,-103.196 682,-109.196 682,-115.196 682,-115.196 682,-166.196 682,-166.196 682,-172.196 676,-178.196 670,-178.196 670,-178.196 594,-178.196 594,-178.196 588,-178.196 582,-172.196 582,-166.196 582,-166.196 582,-115.196 582,-115.196 582,-109.196 588,-103.196 594,-103.196"/>
<text text-anchor="middle" x="632" y="-162.996" font-family="Times,serif" font-size="14.00">Data: Rule</text>
</g>
<g id="clust4" class="cluster"><title>cluster_Data_RuleSet</title>
<path fill="papayawhip" stroke="black" d="M447,-8C447,-8 541,-8 541,-8 547,-8 553,-14 553,-20 553,-20 553,-71 553,-71 553,-77 547,-83 541,-83 541,-83 447,-83 447,-83 441,-83 435,-77 435,-71 435,-71 435,-20 435,-20 435,-14 441,-8 447,-8"/>
<text text-anchor="middle" x="494" y="-67.8" font-family="Times,serif" font-size="14.00">Data: RuleSet</text>
</g>
<!-- 3 -->
<g id="node1" class="node"><title>3</title>
<polygon fill="bisque" stroke="black" stroke-width="2" points="509.35,-119.92 509.35,-138.471 460.525,-151.589 391.475,-151.589 342.65,-138.471 342.65,-119.92 391.475,-106.803 460.525,-106.803 509.35,-119.92"/>
<text text-anchor="middle" x="426" y="-125.496" font-family="Times,serif" font-size="14.00">mappend</text>
</g>
<!-- 2 -->
<g id="node6" class="node"><title>2</title>
<polygon fill="goldenrod" stroke="black" stroke-width="2" points="544.5,-52 447.5,-52 443.5,-48 443.5,-16 540.5,-16 544.5,-20 544.5,-52"/>
<polyline fill="none" stroke="black" stroke-width="2" points="540.5,-48 443.5,-48 "/>
<polyline fill="none" stroke="black" stroke-width="2" points="540.5,-48 540.5,-16 "/>
<polyline fill="none" stroke="black" stroke-width="2" points="540.5,-48 544.5,-52 "/>
<text text-anchor="middle" x="494" y="-30.3" font-family="Times,serif" font-size="14.00">RuleSet</text>
</g>
<!-- 3&#45;&gt;2 -->
<g id="edge1" class="edge"><title>3&#45;&gt;2</title>
<path fill="none" stroke="black" stroke-width="2.09861" d="M441.771,-106.58C451.779,-92.8654 464.777,-75.0509 475.303,-60.625"/>
<polygon fill="black" stroke="black" stroke-width="2.09861" points="478.421,-62.289 481.488,-52.1478 472.766,-58.163 478.421,-62.289"/>
</g>
<!-- 4 -->
<g id="node2" class="node"><title>4</title>
<polygon fill="bisque" stroke="black" stroke-width="2" points="324.696,-119.92 324.696,-138.471 278.011,-151.589 211.989,-151.589 165.304,-138.471 165.304,-119.92 211.989,-106.803 278.011,-106.803 324.696,-119.92"/>
<text text-anchor="middle" x="245" y="-125.496" font-family="Times,serif" font-size="14.00">mempty</text>
</g>
<!-- 4&#45;&gt;2 -->
<g id="edge2" class="edge"><title>4&#45;&gt;2</title>
<path fill="none" stroke="black" d="M288.25,-109.516C302.722,-103.428 318.99,-96.7576 334,-91 366.729,-78.4459 403.638,-65.4512 433.753,-55.1436"/>
<polygon fill="black" stroke="black" points="434.943,-58.4358 443.278,-51.8954 432.684,-51.8105 434.943,-58.4358"/>
</g>
<!-- 7 -->
<g id="node3" class="node"><title>7</title>
<polygon fill="khaki" stroke="black" stroke-dasharray="1,5" points="529.858,-214.053 529.858,-242.082 459.061,-261.902 358.939,-261.902 288.142,-242.082 288.142,-214.053 358.939,-194.233 459.061,-194.233 529.858,-214.053"/>
<polygon fill="none" stroke="black" stroke-dasharray="1,5" points="533.856,-211 533.856,-245.135 459.607,-265.921 358.393,-265.921 284.144,-245.135 284.144,-211 358.393,-190.214 459.607,-190.214 533.856,-211"/>
<text text-anchor="middle" x="409" y="-231.867" font-family="Times,serif" font-size="14.00">Unknown Module</text>
<text text-anchor="middle" x="409" y="-216.867" font-family="Times,serif" font-size="14.00">mappend</text>
</g>
<!-- 7&#45;&gt;3 -->
<g id="edge8" class="edge"><title>7&#45;&gt;3</title>
<path fill="none" stroke="navy" d="M415.475,-190.168C417.765,-177.122 420.263,-162.89 422.25,-151.565"/>
</g>
<!-- 8 -->
<g id="node4" class="node"><title>8</title>
<polygon fill="khaki" stroke="black" stroke-dasharray="1,5" points="261.858,-214.053 261.858,-242.082 191.061,-261.902 90.9389,-261.902 20.1417,-242.082 20.1417,-214.053 90.9389,-194.233 191.061,-194.233 261.858,-214.053"/>
<polygon fill="none" stroke="black" stroke-dasharray="1,5" points="265.856,-211 265.856,-245.135 191.607,-265.921 90.3926,-265.921 16.144,-245.135 16.144,-211 90.3926,-190.214 191.607,-190.214 265.856,-211"/>
<text text-anchor="middle" x="141" y="-231.867" font-family="Times,serif" font-size="14.00">Unknown Module</text>
<text text-anchor="middle" x="141" y="-216.867" font-family="Times,serif" font-size="14.00">mempty</text>
</g>
<!-- 8&#45;&gt;4 -->
<g id="edge9" class="edge"><title>8&#45;&gt;4</title>
<path fill="none" stroke="navy" d="M180.615,-190.168C194.621,-177.122 209.9,-162.89 222.058,-151.565"/>
</g>
<!-- 1 -->
<g id="node5" class="node"><title>1</title>
<polygon fill="goldenrod" stroke="black" stroke-width="2" points="674,-147.196 594,-147.196 590,-143.196 590,-111.196 670,-111.196 674,-115.196 674,-147.196"/>
<polyline fill="none" stroke="black" stroke-width="2" points="670,-143.196 590,-143.196 "/>
<polyline fill="none" stroke="black" stroke-width="2" points="670,-143.196 670,-111.196 "/>
<polyline fill="none" stroke="black" stroke-width="2" points="670,-143.196 674,-147.196 "/>
<text text-anchor="middle" x="632" y="-125.496" font-family="Times,serif" font-size="14.00">Rule</text>
</g>
<!-- 5 -->
<g id="node7" class="node"><title>5</title>
<polygon fill="goldenrod" stroke="black" stroke-width="2" points="702,-246.067 590,-246.067 590,-210.067 702,-210.067 702,-246.067"/>
<text text-anchor="middle" x="646" y="-224.367" font-family="Times,serif" font-size="14.00">ruleToSet</text>
</g>
<!-- 5&#45;&gt;1 -->
<g id="edge3" class="edge"><title>5&#45;&gt;1</title>
<path fill="none" stroke="black" d="M643.497,-209.749C641.407,-195.284 638.388,-174.4 635.969,-157.659"/>
<polygon fill="black" stroke="black" points="639.376,-156.761 634.481,-147.364 632.448,-157.762 639.376,-156.761"/>
</g>
<!-- 5&#45;&gt;2 -->
<g id="edge4" class="edge"><title>5&#45;&gt;2</title>
<path fill="none" stroke="black" d="M666.624,-210.067C674.239,-202.486 681.985,-192.894 686,-182.391 700.503,-144.45 710.371,-123.495 686,-91 670.115,-69.8203 605.027,-54.0025 554.99,-44.6739"/>
<polygon fill="black" stroke="black" points="555.348,-41.1818 544.884,-42.8387 554.098,-48.0692 555.348,-41.1818"/>
</g>
<!-- 6 -->
<g id="node8" class="node"><title>6</title>
<polygon fill="gold" stroke="black" stroke-width="2" points="620.5,-340.744 503.5,-340.744 503.5,-304.744 620.5,-304.744 620.5,-340.744"/>
<text text-anchor="middle" x="562" y="-319.044" font-family="Times,serif" font-size="14.00">rulesToSet</text>
</g>
<!-- 6&#45;&gt;7 -->
<g id="edge7" class="edge"><title>6&#45;&gt;7</title>
<path fill="none" stroke="black" d="M533.58,-304.529C517.172,-294.59 495.8,-281.644 475.403,-269.289"/>
<polygon fill="black" stroke="black" points="477.105,-266.228 466.738,-264.041 473.478,-272.215 477.105,-266.228"/>
</g>
<!-- 6&#45;&gt;2 -->
<g id="edge5" class="edge"><title>6&#45;&gt;2</title>
<path fill="none" stroke="black" d="M560.975,-304.724C558.207,-265.793 548.807,-167.692 521,-91 517.396,-81.0593 512.596,-70.5257 508.043,-61.3088"/>
<polygon fill="black" stroke="black" points="511.097,-59.5925 503.449,-52.2606 504.856,-62.7616 511.097,-59.5925"/>
</g>
<!-- 6&#45;&gt;5 -->
<g id="edge6" class="edge"><title>6&#45;&gt;5</title>
<path fill="none" stroke="black" d="M577.8,-304.312C590.787,-289.983 609.34,-269.514 623.818,-253.541"/>
<polygon fill="black" stroke="black" points="626.432,-255.868 630.555,-246.108 621.246,-251.167 626.432,-255.868"/>
</g>
</g>
</svg>
