<?xml version="1.0" encoding="UTF-8" standalone="no"?>
<!DOCTYPE svg PUBLIC "-//W3C//DTD SVG 1.1//EN"
 "http://www.w3.org/Graphics/SVG/1.1/DTD/svg11.dtd">
<!-- Generated by graphviz version 2.38.0 (20140413.2041)
 -->
<!-- Title: Diagram of: Control.Access.RoleBased.Internal.Role Pages: 1 -->
<svg width="3677pt" height="250pt"
 viewBox="0.00 0.00 3676.50 249.74" xmlns="http://www.w3.org/2000/svg" xmlns:xlink="http://www.w3.org/1999/xlink">
<g id="graph0" class="graph" transform="scale(1 1) rotate(0) translate(4 245.744)">
<title>Diagram of: Control.Access.RoleBased.Internal.Role</title>
<polygon fill="white" stroke="none" points="-4,4 -4,-245.744 3672.5,-245.744 3672.5,4 -4,4"/>
<g id="clust1" class="cluster"><title>cluster_Class_Hashable</title>
<path fill="#ffc1c1" stroke="black" d="M145.5,-8C145.5,-8 581.5,-8 581.5,-8 587.5,-8 593.5,-14 593.5,-20 593.5,-20 593.5,-221.744 593.5,-221.744 593.5,-227.744 587.5,-233.744 581.5,-233.744 581.5,-233.744 145.5,-233.744 145.5,-233.744 139.5,-233.744 133.5,-227.744 133.5,-221.744 133.5,-221.744 133.5,-20 133.5,-20 133.5,-14 139.5,-8 145.5,-8"/>
<text text-anchor="middle" x="363.5" y="-218.544" font-family="Times,serif" font-size="14.00">Class: Hashable</text>
</g>
<g id="clust2" class="cluster"><title>cluster_Class_Hashable_Data_Role</title>
<path fill="#c6e2ff" stroke="black" d="M153.5,-119.352C153.5,-119.352 347.5,-119.352 347.5,-119.352 353.5,-119.352 359.5,-125.352 359.5,-131.352 359.5,-131.352 359.5,-190.744 359.5,-190.744 359.5,-196.744 353.5,-202.744 347.5,-202.744 347.5,-202.744 153.5,-202.744 153.5,-202.744 147.5,-202.744 141.5,-196.744 141.5,-190.744 141.5,-190.744 141.5,-131.352 141.5,-131.352 141.5,-125.352 147.5,-119.352 153.5,-119.352"/>
<text text-anchor="middle" x="250.5" y="-187.544" font-family="Times,serif" font-size="14.00">Instance for: Role</text>
</g>
<g id="clust3" class="cluster"><title>cluster_Class_Hashable_Data_RoleValue</title>
<path fill="#c6e2ff" stroke="black" d="M379.5,-119.352C379.5,-119.352 573.5,-119.352 573.5,-119.352 579.5,-119.352 585.5,-125.352 585.5,-131.352 585.5,-131.352 585.5,-190.744 585.5,-190.744 585.5,-196.744 579.5,-202.744 573.5,-202.744 573.5,-202.744 379.5,-202.744 379.5,-202.744 373.5,-202.744 367.5,-196.744 367.5,-190.744 367.5,-190.744 367.5,-131.352 367.5,-131.352 367.5,-125.352 373.5,-119.352 379.5,-119.352"/>
<text text-anchor="middle" x="476.5" y="-187.544" font-family="Times,serif" font-size="14.00">Instance for: RoleValue</text>
</g>
<g id="clust4" class="cluster"><title>cluster_Class_IsString</title>
<path fill="#ffc1c1" stroke="black" d="M1408.5,-8C1408.5,-8 1804.5,-8 1804.5,-8 1810.5,-8 1816.5,-14 1816.5,-20 1816.5,-20 1816.5,-221.744 1816.5,-221.744 1816.5,-227.744 1810.5,-233.744 1804.5,-233.744 1804.5,-233.744 1408.5,-233.744 1408.5,-233.744 1402.5,-233.744 1396.5,-227.744 1396.5,-221.744 1396.5,-221.744 1396.5,-20 1396.5,-20 1396.5,-14 1402.5,-8 1408.5,-8"/>
<text text-anchor="middle" x="1606.5" y="-218.544" font-family="Times,serif" font-size="14.00">Class: IsString</text>
</g>
<g id="clust5" class="cluster"><title>cluster_Class_IsString_Data_Role</title>
<path fill="#c6e2ff" stroke="black" d="M1622.5,-119.352C1622.5,-119.352 1796.5,-119.352 1796.5,-119.352 1802.5,-119.352 1808.5,-125.352 1808.5,-131.352 1808.5,-131.352 1808.5,-190.744 1808.5,-190.744 1808.5,-196.744 1802.5,-202.744 1796.5,-202.744 1796.5,-202.744 1622.5,-202.744 1622.5,-202.744 1616.5,-202.744 1610.5,-196.744 1610.5,-190.744 1610.5,-190.744 1610.5,-131.352 1610.5,-131.352 1610.5,-125.352 1616.5,-119.352 1622.5,-119.352"/>
<text text-anchor="middle" x="1709.5" y="-187.544" font-family="Times,serif" font-size="14.00">Instance for: Role</text>
</g>
<g id="clust6" class="cluster"><title>cluster_Class_IsString_Data_RoleValue</title>
<path fill="#c6e2ff" stroke="black" d="M1416.5,-119.352C1416.5,-119.352 1590.5,-119.352 1590.5,-119.352 1596.5,-119.352 1602.5,-125.352 1602.5,-131.352 1602.5,-131.352 1602.5,-190.744 1602.5,-190.744 1602.5,-196.744 1596.5,-202.744 1590.5,-202.744 1590.5,-202.744 1416.5,-202.744 1416.5,-202.744 1410.5,-202.744 1404.5,-196.744 1404.5,-190.744 1404.5,-190.744 1404.5,-131.352 1404.5,-131.352 1404.5,-125.352 1410.5,-119.352 1416.5,-119.352"/>
<text text-anchor="middle" x="1503.5" y="-187.544" font-family="Times,serif" font-size="14.00">Instance for: RoleValue</text>
</g>
<g id="clust7" class="cluster"><title>cluster_Data_Role</title>
<path fill="papayawhip" stroke="black" d="M1134.5,-27.6761C1134.5,-27.6761 1376.5,-27.6761 1376.5,-27.6761 1382.5,-27.6761 1388.5,-33.6761 1388.5,-39.6761 1388.5,-39.6761 1388.5,-186.548 1388.5,-186.548 1388.5,-192.548 1382.5,-198.548 1376.5,-198.548 1376.5,-198.548 1134.5,-198.548 1134.5,-198.548 1128.5,-198.548 1122.5,-192.548 1122.5,-186.548 1122.5,-186.548 1122.5,-39.6761 1122.5,-39.6761 1122.5,-33.6761 1128.5,-27.6761 1134.5,-27.6761"/>
<text text-anchor="middle" x="1255.5" y="-183.348" font-family="Times,serif" font-size="14.00">Data: Role</text>
</g>
<g id="clust8" class="cluster"><title>cluster_Data_RoleDataDefinition</title>
<path fill="papayawhip" stroke="black" d="M1836.5,-27.6761C1836.5,-27.6761 2332.5,-27.6761 2332.5,-27.6761 2338.5,-27.6761 2344.5,-33.6761 2344.5,-39.6761 2344.5,-39.6761 2344.5,-186.548 2344.5,-186.548 2344.5,-192.548 2338.5,-198.548 2332.5,-198.548 2332.5,-198.548 1836.5,-198.548 1836.5,-198.548 1830.5,-198.548 1824.5,-192.548 1824.5,-186.548 1824.5,-186.548 1824.5,-39.6761 1824.5,-39.6761 1824.5,-33.6761 1830.5,-27.6761 1836.5,-27.6761"/>
<text text-anchor="middle" x="2084.5" y="-183.348" font-family="Times,serif" font-size="14.00">Data: RoleDataDefinition</text>
</g>
<g id="clust9" class="cluster"><title>cluster_Data_RoleMetadata</title>
<path fill="papayawhip" stroke="black" d="M2364.5,-27.6761C2364.5,-27.6761 2848.5,-27.6761 2848.5,-27.6761 2854.5,-27.6761 2860.5,-33.6761 2860.5,-39.6761 2860.5,-39.6761 2860.5,-186.548 2860.5,-186.548 2860.5,-192.548 2854.5,-198.548 2848.5,-198.548 2848.5,-198.548 2364.5,-198.548 2364.5,-198.548 2358.5,-198.548 2352.5,-192.548 2352.5,-186.548 2352.5,-186.548 2352.5,-39.6761 2352.5,-39.6761 2352.5,-33.6761 2358.5,-27.6761 2364.5,-27.6761"/>
<text text-anchor="middle" x="2606.5" y="-183.348" font-family="Times,serif" font-size="14.00">Data: RoleMetadata</text>
</g>
<g id="clust10" class="cluster"><title>cluster_Data_RoleValue</title>
<path fill="papayawhip" stroke="black" d="M613.5,-27.6761C613.5,-27.6761 1102.5,-27.6761 1102.5,-27.6761 1108.5,-27.6761 1114.5,-33.6761 1114.5,-39.6761 1114.5,-39.6761 1114.5,-90.6761 1114.5,-90.6761 1114.5,-96.6761 1108.5,-102.676 1102.5,-102.676 1102.5,-102.676 613.5,-102.676 613.5,-102.676 607.5,-102.676 601.5,-96.6761 601.5,-90.6761 601.5,-90.6761 601.5,-39.6761 601.5,-39.6761 601.5,-33.6761 607.5,-27.6761 613.5,-27.6761"/>
<text text-anchor="middle" x="858" y="-87.4761" font-family="Times,serif" font-size="14.00">Data: RoleValue</text>
</g>
<g id="clust11" class="cluster"><title>cluster_Data_RoleValueMeta</title>
<path fill="papayawhip" stroke="black" d="M2880.5,-123.548C2880.5,-123.548 3648.5,-123.548 3648.5,-123.548 3654.5,-123.548 3660.5,-129.548 3660.5,-135.548 3660.5,-135.548 3660.5,-186.548 3660.5,-186.548 3660.5,-192.548 3654.5,-198.548 3648.5,-198.548 3648.5,-198.548 2880.5,-198.548 2880.5,-198.548 2874.5,-198.548 2868.5,-192.548 2868.5,-186.548 2868.5,-186.548 2868.5,-135.548 2868.5,-135.548 2868.5,-129.548 2874.5,-123.548 2880.5,-123.548"/>
<text text-anchor="middle" x="3264.5" y="-183.348" font-family="Times,serif" font-size="14.00">Data: RoleValueMeta</text>
</g>
<!-- 23 -->
<g id="node1" class="node"><title>23</title>
<polygon fill="bisque" stroke="black" stroke-width="2" points="351.557,-140.272 351.557,-158.823 292.359,-171.941 208.641,-171.941 149.443,-158.823 149.443,-140.272 208.641,-127.155 292.359,-127.155 351.557,-140.272"/>
<text text-anchor="middle" x="250.5" y="-145.848" font-family="Times,serif" font-size="14.00">hashWithSalt</text>
</g>
<!-- 27 -->
<g id="node3" class="node"><title>27</title>
<polygon fill="khaki" stroke="black" stroke-dasharray="1,5" points="484.358,-39.6615 484.358,-67.6908 413.561,-87.5105 313.439,-87.5105 242.642,-67.6908 242.642,-39.6615 313.439,-19.8418 413.561,-19.8418 484.358,-39.6615"/>
<polygon fill="none" stroke="black" stroke-dasharray="1,5" points="488.356,-36.609 488.356,-70.7433 414.107,-91.5293 312.893,-91.5293 238.644,-70.7433 238.644,-36.609 312.893,-15.823 414.107,-15.823 488.356,-36.609"/>
<text text-anchor="middle" x="363.5" y="-57.4761" font-family="Times,serif" font-size="14.00">Unknown Module</text>
<text text-anchor="middle" x="363.5" y="-42.4761" font-family="Times,serif" font-size="14.00">hashWithSalt</text>
</g>
<!-- 23&#45;&gt;27 -->
<g id="edge15" class="edge"><title>23&#45;&gt;27</title>
<path fill="none" stroke="black" stroke-width="1.69315" d="M270.381,-127.247C280.195,-118.467 292.519,-107.96 304.975,-97.7043"/>
<polygon fill="black" stroke="black" stroke-width="1.69315" points="307.198,-100.407 312.726,-91.3685 302.768,-94.9875 307.198,-100.407"/>
</g>
<!-- 1 -->
<g id="node7" class="node"><title>1</title>
<polygon fill="goldenrod" stroke="black" stroke-width="2" points="1299.5,-71.6761 1219.5,-71.6761 1215.5,-67.6761 1215.5,-35.6761 1295.5,-35.6761 1299.5,-39.6761 1299.5,-71.6761"/>
<polyline fill="none" stroke="black" stroke-width="2" points="1295.5,-67.6761 1215.5,-67.6761 "/>
<polyline fill="none" stroke="black" stroke-width="2" points="1295.5,-67.6761 1295.5,-35.6761 "/>
<polyline fill="none" stroke="black" stroke-width="2" points="1295.5,-67.6761 1299.5,-71.6761 "/>
<text text-anchor="middle" x="1257.5" y="-49.9761" font-family="Times,serif" font-size="14.00">Role</text>
</g>
<!-- 23&#45;&gt;1 -->
<g id="edge13" class="edge"><title>23&#45;&gt;1</title>
<path fill="none" stroke="black" d="M308.926,-130.716C326.322,-126.153 345.536,-121.837 363.5,-119.352 529.736,-96.3562 953.312,-132.274 1118.5,-102.676 1149.5,-97.122 1182.9,-85.7761 1209.18,-75.5093"/>
<polygon fill="black" stroke="black" points="1210.53,-78.7392 1218.53,-71.7884 1207.94,-72.2357 1210.53,-78.7392"/>
</g>
<!-- 25 -->
<g id="node27" class="node"><title>25</title>
<polygon fill="goldenrod" stroke="black" stroke-width="2" points="125,-71.6761 7.10543e-15,-71.6761 7.10543e-15,-35.6761 125,-35.6761 125,-71.6761"/>
<text text-anchor="middle" x="62.5" y="-49.9761" font-family="Times,serif" font-size="14.00">toSortedList</text>
</g>
<!-- 23&#45;&gt;25 -->
<g id="edge14" class="edge"><title>23&#45;&gt;25</title>
<path fill="none" stroke="black" d="M193.441,-130.362C172.78,-122.889 149.598,-113.448 129.5,-102.676 116.435,-95.6737 102.973,-86.4784 91.5736,-78.0116"/>
<polygon fill="black" stroke="black" points="93.3802,-74.9887 83.2998,-71.7275 89.1463,-80.5631 93.3802,-74.9887"/>
</g>
<!-- 24 -->
<g id="node2" class="node"><title>24</title>
<polygon fill="bisque" stroke="black" stroke-width="2" points="577.557,-140.272 577.557,-158.823 518.359,-171.941 434.641,-171.941 375.443,-158.823 375.443,-140.272 434.641,-127.155 518.359,-127.155 577.557,-140.272"/>
<text text-anchor="middle" x="476.5" y="-145.848" font-family="Times,serif" font-size="14.00">hashWithSalt</text>
</g>
<!-- 24&#45;&gt;27 -->
<g id="edge20" class="edge"><title>24&#45;&gt;27</title>
<path fill="none" stroke="black" stroke-width="3.07944" d="M445.098,-127.247C433.88,-118.55 421.048,-108.158 408.913,-97.9946"/>
<polygon fill="black" stroke="black" stroke-width="3.07944" points="410.963,-95.1447 401.064,-91.3685 406.448,-100.494 410.963,-95.1447"/>
</g>
<!-- 2 -->
<g id="node18" class="node"><title>2</title>
<polygon fill="goldenrod" stroke="black" stroke-width="2" points="861.5,-71.6761 755.5,-71.6761 751.5,-67.6761 751.5,-35.6761 857.5,-35.6761 861.5,-39.6761 861.5,-71.6761"/>
<polyline fill="none" stroke="black" stroke-width="2" points="857.5,-67.6761 751.5,-67.6761 "/>
<polyline fill="none" stroke="black" stroke-width="2" points="857.5,-67.6761 857.5,-35.6761 "/>
<polyline fill="none" stroke="black" stroke-width="2" points="857.5,-67.6761 861.5,-71.6761 "/>
<text text-anchor="middle" x="806.5" y="-49.9761" font-family="Times,serif" font-size="14.00">RoleBool</text>
</g>
<!-- 24&#45;&gt;2 -->
<g id="edge16" class="edge"><title>24&#45;&gt;2</title>
<path fill="none" stroke="black" d="M577.595,-142.392C628.673,-136.51 690.647,-125.037 742.5,-102.676 756.22,-96.7596 769.711,-87.3393 780.742,-78.4048"/>
<polygon fill="black" stroke="black" points="783.269,-80.8529 788.662,-71.7333 778.759,-75.4993 783.269,-80.8529"/>
</g>
<!-- 5 -->
<g id="node19" class="node"><title>5</title>
<polygon fill="goldenrod" stroke="black" stroke-width="2" points="733.5,-71.6761 613.5,-71.6761 609.5,-67.6761 609.5,-35.6761 729.5,-35.6761 733.5,-39.6761 733.5,-71.6761"/>
<polyline fill="none" stroke="black" stroke-width="2" points="729.5,-67.6761 609.5,-67.6761 "/>
<polyline fill="none" stroke="black" stroke-width="2" points="729.5,-67.6761 729.5,-35.6761 "/>
<polyline fill="none" stroke="black" stroke-width="2" points="729.5,-67.6761 733.5,-71.6761 "/>
<text text-anchor="middle" x="671.5" y="-49.9761" font-family="Times,serif" font-size="14.00">RoleDouble</text>
</g>
<!-- 24&#45;&gt;5 -->
<g id="edge17" class="edge"><title>24&#45;&gt;5</title>
<path fill="none" stroke="black" d="M532.379,-130.183C553.238,-122.601 576.858,-113.133 597.5,-102.676 611.818,-95.423 626.816,-86.063 639.537,-77.5371"/>
<polygon fill="black" stroke="black" points="641.655,-80.3297 647.944,-71.8039 637.711,-74.5465 641.655,-80.3297"/>
</g>
<!-- 8 -->
<g id="node20" class="node"><title>8</title>
<polygon fill="goldenrod" stroke="black" stroke-width="2" points="979,-71.6761 884,-71.6761 880,-67.6761 880,-35.6761 975,-35.6761 979,-39.6761 979,-71.6761"/>
<polyline fill="none" stroke="black" stroke-width="2" points="975,-67.6761 880,-67.6761 "/>
<polyline fill="none" stroke="black" stroke-width="2" points="975,-67.6761 975,-35.6761 "/>
<polyline fill="none" stroke="black" stroke-width="2" points="975,-67.6761 979,-71.6761 "/>
<text text-anchor="middle" x="929.5" y="-49.9761" font-family="Times,serif" font-size="14.00">RoleInt</text>
</g>
<!-- 24&#45;&gt;8 -->
<g id="edge18" class="edge"><title>24&#45;&gt;8</title>
<path fill="none" stroke="black" d="M577.905,-143.192C676.759,-136.82 819.428,-124.235 870.5,-102.676 883.555,-97.1654 896.032,-87.8402 906.122,-78.8669"/>
<polygon fill="black" stroke="black" points="908.745,-81.2069 913.668,-71.8254 903.969,-76.0891 908.745,-81.2069"/>
</g>
<!-- 11 -->
<g id="node21" class="node"><title>11</title>
<polygon fill="goldenrod" stroke="black" stroke-width="2" points="1106,-71.6761 1001,-71.6761 997,-67.6761 997,-35.6761 1102,-35.6761 1106,-39.6761 1106,-71.6761"/>
<polyline fill="none" stroke="black" stroke-width="2" points="1102,-67.6761 997,-67.6761 "/>
<polyline fill="none" stroke="black" stroke-width="2" points="1102,-67.6761 1102,-35.6761 "/>
<polyline fill="none" stroke="black" stroke-width="2" points="1102,-67.6761 1106,-71.6761 "/>
<text text-anchor="middle" x="1051.5" y="-49.9761" font-family="Times,serif" font-size="14.00">RoleText</text>
</g>
<!-- 24&#45;&gt;11 -->
<g id="edge19" class="edge"><title>24&#45;&gt;11</title>
<path fill="none" stroke="black" d="M577.657,-146.001C704.782,-141.674 915.102,-130.467 987.5,-102.676 1001.79,-97.1891 1015.65,-87.5265 1026.79,-78.3021"/>
<polygon fill="black" stroke="black" points="1029.11,-80.918 1034.38,-71.7288 1024.53,-75.6238 1029.11,-80.918"/>
</g>
<!-- 27&#45;&gt;23 -->
<g id="edge23" class="edge"><title>27&#45;&gt;23</title>
<path fill="none" stroke="navy" d="M325.936,-91.3685C311.652,-103.525 295.577,-116.645 281.902,-127.247"/>
</g>
<!-- 27&#45;&gt;24 -->
<g id="edge24" class="edge"><title>27&#45;&gt;24</title>
<path fill="none" stroke="navy" stroke-width="2.38629" d="M414.274,-91.3685C429.257,-103.525 444.768,-116.645 456.619,-127.247"/>
</g>
<!-- 21 -->
<g id="node4" class="node"><title>21</title>
<polygon fill="bisque" stroke="black" stroke-width="2" points="1800.66,-140.272 1800.66,-158.823 1747.26,-171.941 1671.74,-171.941 1618.34,-158.823 1618.34,-140.272 1671.74,-127.155 1747.26,-127.155 1800.66,-140.272"/>
<text text-anchor="middle" x="1709.5" y="-145.848" font-family="Times,serif" font-size="14.00">fromString</text>
</g>
<!-- 26 -->
<g id="node6" class="node"><title>26</title>
<polygon fill="khaki" stroke="black" stroke-dasharray="1,5" points="1727.36,-39.6615 1727.36,-67.6908 1656.56,-87.5105 1556.44,-87.5105 1485.64,-67.6908 1485.64,-39.6615 1556.44,-19.8418 1656.56,-19.8418 1727.36,-39.6615"/>
<polygon fill="none" stroke="black" stroke-dasharray="1,5" points="1731.36,-36.609 1731.36,-70.7433 1657.11,-91.5293 1555.89,-91.5293 1481.64,-70.7433 1481.64,-36.609 1555.89,-15.823 1657.11,-15.823 1731.36,-36.609"/>
<text text-anchor="middle" x="1606.5" y="-57.4761" font-family="Times,serif" font-size="14.00">Unknown Module</text>
<text text-anchor="middle" x="1606.5" y="-42.4761" font-family="Times,serif" font-size="14.00">fromString</text>
</g>
<!-- 21&#45;&gt;26 -->
<g id="edge10" class="edge"><title>21&#45;&gt;26</title>
<path fill="none" stroke="black" d="M1680.37,-127.247C1670.17,-118.632 1658.57,-108.356 1647.61,-98.2851"/>
<polygon fill="black" stroke="black" points="1649.87,-95.6014 1640.16,-91.3685 1645.11,-100.734 1649.87,-95.6014"/>
</g>
<!-- 21&#45;&gt;1 -->
<g id="edge9" class="edge"><title>21&#45;&gt;1</title>
<path fill="none" stroke="black" d="M1655.45,-131.051C1639.8,-126.582 1622.6,-122.232 1606.5,-119.352 1512.59,-102.556 1485.81,-122.534 1392.5,-102.676 1363.16,-96.4319 1331.5,-85.4191 1306.23,-75.516"/>
<polygon fill="black" stroke="black" points="1307.45,-72.2376 1296.87,-71.7871 1304.86,-78.7403 1307.45,-72.2376"/>
</g>
<!-- 22 -->
<g id="node5" class="node"><title>22</title>
<polygon fill="bisque" stroke="black" stroke-width="2" points="1594.66,-140.272 1594.66,-158.823 1541.26,-171.941 1465.74,-171.941 1412.34,-158.823 1412.34,-140.272 1465.74,-127.155 1541.26,-127.155 1594.66,-140.272"/>
<text text-anchor="middle" x="1503.5" y="-145.848" font-family="Times,serif" font-size="14.00">fromString</text>
</g>
<!-- 22&#45;&gt;26 -->
<g id="edge12" class="edge"><title>22&#45;&gt;26</title>
<path fill="none" stroke="black" d="M1521.11,-127.247C1529.82,-118.632 1540.77,-108.356 1551.92,-98.2851"/>
<polygon fill="black" stroke="black" points="1554.52,-100.649 1559.63,-91.3685 1549.85,-95.4353 1554.52,-100.649"/>
</g>
<!-- 22&#45;&gt;11 -->
<g id="edge11" class="edge"><title>22&#45;&gt;11</title>
<path fill="none" stroke="black" d="M1447.49,-131.527C1430.03,-126.842 1410.6,-122.255 1392.5,-119.352 1332.27,-109.694 1175.98,-123.09 1118.5,-102.676 1103.63,-97.3974 1089.15,-87.7636 1077.47,-78.5047"/>
<polygon fill="black" stroke="black" points="1079.43,-75.5836 1069.5,-71.8966 1074.96,-80.9729 1079.43,-75.5836"/>
</g>
<!-- 26&#45;&gt;21 -->
<g id="edge21" class="edge"><title>26&#45;&gt;21</title>
<path fill="none" stroke="navy" d="M1653.37,-91.3685C1667.05,-103.525 1681.17,-116.645 1691.89,-127.247"/>
</g>
<!-- 26&#45;&gt;22 -->
<g id="edge22" class="edge"><title>26&#45;&gt;22</title>
<path fill="none" stroke="navy" d="M1572.84,-91.3685C1559.86,-103.525 1545.18,-116.645 1532.63,-127.247"/>
</g>
<!-- 13 -->
<g id="node8" class="node"><title>13</title>
<polygon fill="gold" stroke="black" stroke-width="2" points="1380.5,-167.548 1268.5,-167.548 1268.5,-163.548 1264.5,-163.548 1264.5,-159.548 1268.5,-159.548 1268.5,-139.548 1264.5,-139.548 1264.5,-135.548 1268.5,-135.548 1268.5,-131.548 1380.5,-131.548 1380.5,-167.548"/>
<polyline fill="none" stroke="black" stroke-width="2" points="1268.5,-163.548 1272.5,-163.548 1272.5,-159.548 1268.5,-159.548 "/>
<polyline fill="none" stroke="black" stroke-width="2" points="1268.5,-139.548 1272.5,-139.548 1272.5,-135.548 1268.5,-135.548 "/>
<text text-anchor="middle" x="1324.5" y="-145.848" font-family="Times,serif" font-size="14.00">_roleData</text>
</g>
<!-- 13&#45;&gt;1 -->
<g id="edge1" class="edge"><title>13&#45;&gt;1</title>
<path fill="none" stroke="magenta" d="M1312.21,-131.33C1302.01,-117.039 1287.35,-96.504 1275.78,-80.2844"/>
<polygon fill="magenta" stroke="magenta" points="1269.71,-71.7845 1279.18,-77.3097 1272.62,-75.8542 1275.52,-79.924 1275.52,-79.924 1275.52,-79.924 1272.62,-75.8542 1271.86,-82.5382 1269.71,-71.7845 1269.71,-71.7845"/>
</g>
<!-- 19 -->
<g id="node9" class="node"><title>19</title>
<polygon fill="gold" stroke="black" stroke-width="2" points="1250,-167.548 1131,-167.548 1131,-163.548 1127,-163.548 1127,-159.548 1131,-159.548 1131,-139.548 1127,-139.548 1127,-135.548 1131,-135.548 1131,-131.548 1250,-131.548 1250,-167.548"/>
<polyline fill="none" stroke="black" stroke-width="2" points="1131,-163.548 1135,-163.548 1135,-159.548 1131,-159.548 "/>
<polyline fill="none" stroke="black" stroke-width="2" points="1131,-139.548 1135,-139.548 1135,-135.548 1131,-135.548 "/>
<text text-anchor="middle" x="1190.5" y="-145.848" font-family="Times,serif" font-size="14.00">_roleName</text>
</g>
<!-- 19&#45;&gt;1 -->
<g id="edge7" class="edge"><title>19&#45;&gt;1</title>
<path fill="none" stroke="magenta" d="M1202.79,-131.33C1212.99,-117.039 1227.65,-96.504 1239.22,-80.2844"/>
<polygon fill="magenta" stroke="magenta" points="1245.29,-71.7845 1243.14,-82.5382 1242.38,-75.8542 1239.48,-79.924 1239.48,-79.924 1239.48,-79.924 1242.38,-75.8542 1235.82,-77.3097 1245.29,-71.7845 1245.29,-71.7845"/>
</g>
<!-- 4 -->
<g id="node10" class="node"><title>4</title>
<polygon fill="goldenrod" stroke="black" stroke-width="2" points="2166,-71.6761 2005,-71.6761 2001,-67.6761 2001,-35.6761 2162,-35.6761 2166,-39.6761 2166,-71.6761"/>
<polyline fill="none" stroke="black" stroke-width="2" points="2162,-67.6761 2001,-67.6761 "/>
<polyline fill="none" stroke="black" stroke-width="2" points="2162,-67.6761 2162,-35.6761 "/>
<polyline fill="none" stroke="black" stroke-width="2" points="2162,-67.6761 2166,-71.6761 "/>
<text text-anchor="middle" x="2083.5" y="-49.9761" font-family="Times,serif" font-size="14.00">RoleDataDefinition</text>
</g>
<!-- 15 -->
<g id="node11" class="node"><title>15</title>
<polygon fill="gold" stroke="black" stroke-width="2" points="2171,-167.548 1996,-167.548 1996,-163.548 1992,-163.548 1992,-159.548 1996,-159.548 1996,-139.548 1992,-139.548 1992,-135.548 1996,-135.548 1996,-131.548 2171,-131.548 2171,-167.548"/>
<polyline fill="none" stroke="black" stroke-width="2" points="1996,-163.548 2000,-163.548 2000,-159.548 1996,-159.548 "/>
<polyline fill="none" stroke="black" stroke-width="2" points="1996,-139.548 2000,-139.548 2000,-135.548 1996,-135.548 "/>
<text text-anchor="middle" x="2083.5" y="-145.848" font-family="Times,serif" font-size="14.00">_roleDataDescription</text>
</g>
<!-- 15&#45;&gt;4 -->
<g id="edge3" class="edge"><title>15&#45;&gt;4</title>
<path fill="none" stroke="magenta" d="M2083.5,-131.33C2083.5,-117.569 2083.5,-98.0166 2083.5,-82.1038"/>
<polygon fill="magenta" stroke="magenta" points="2083.5,-71.7845 2088,-81.7845 2083.5,-76.7845 2083.5,-81.7845 2083.5,-81.7845 2083.5,-81.7845 2083.5,-76.7845 2079,-81.7846 2083.5,-71.7845 2083.5,-71.7845"/>
</g>
<!-- 16 -->
<g id="node12" class="node"><title>16</title>
<polygon fill="gold" stroke="black" stroke-width="2" points="1978,-167.548 1833,-167.548 1833,-163.548 1829,-163.548 1829,-159.548 1833,-159.548 1833,-139.548 1829,-139.548 1829,-135.548 1833,-135.548 1833,-131.548 1978,-131.548 1978,-167.548"/>
<polyline fill="none" stroke="black" stroke-width="2" points="1833,-163.548 1837,-163.548 1837,-159.548 1833,-159.548 "/>
<polyline fill="none" stroke="black" stroke-width="2" points="1833,-139.548 1837,-139.548 1837,-135.548 1833,-135.548 "/>
<text text-anchor="middle" x="1905.5" y="-145.848" font-family="Times,serif" font-size="14.00">_roleDataName</text>
</g>
<!-- 16&#45;&gt;4 -->
<g id="edge4" class="edge"><title>16&#45;&gt;4</title>
<path fill="none" stroke="magenta" d="M1938.15,-131.33C1967.38,-115.915 2010.39,-93.2329 2042.04,-76.5401"/>
<polygon fill="magenta" stroke="magenta" points="2051.06,-71.7845 2044.31,-80.4297 2046.64,-74.1169 2042.21,-76.4493 2042.21,-76.4493 2042.21,-76.4493 2046.64,-74.1169 2040.11,-72.4689 2051.06,-71.7845 2051.06,-71.7845"/>
</g>
<!-- 20 -->
<g id="node13" class="node"><title>20</title>
<polygon fill="gold" stroke="black" stroke-width="2" points="2336,-167.548 2189,-167.548 2189,-163.548 2185,-163.548 2185,-159.548 2189,-159.548 2189,-139.548 2185,-139.548 2185,-135.548 2189,-135.548 2189,-131.548 2336,-131.548 2336,-167.548"/>
<polyline fill="none" stroke="black" stroke-width="2" points="2189,-163.548 2193,-163.548 2193,-159.548 2189,-159.548 "/>
<polyline fill="none" stroke="black" stroke-width="2" points="2189,-139.548 2193,-139.548 2193,-135.548 2189,-135.548 "/>
<text text-anchor="middle" x="2262.5" y="-145.848" font-family="Times,serif" font-size="14.00">_roleValueMeta</text>
</g>
<!-- 20&#45;&gt;4 -->
<g id="edge8" class="edge"><title>20&#45;&gt;4</title>
<path fill="none" stroke="magenta" d="M2229.67,-131.33C2200.27,-115.915 2157.02,-93.2329 2125.19,-76.5401"/>
<polygon fill="magenta" stroke="magenta" points="2116.12,-71.7845 2127.07,-72.4437 2120.55,-74.1067 2124.98,-76.4289 2124.98,-76.4289 2124.98,-76.4289 2120.55,-74.1067 2122.89,-80.4141 2116.12,-71.7845 2116.12,-71.7845"/>
</g>
<!-- 10 -->
<g id="node14" class="node"><title>10</title>
<polygon fill="goldenrod" stroke="black" stroke-width="2" points="2663,-71.6761 2532,-71.6761 2528,-67.6761 2528,-35.6761 2659,-35.6761 2663,-39.6761 2663,-71.6761"/>
<polyline fill="none" stroke="black" stroke-width="2" points="2659,-67.6761 2528,-67.6761 "/>
<polyline fill="none" stroke="black" stroke-width="2" points="2659,-67.6761 2659,-35.6761 "/>
<polyline fill="none" stroke="black" stroke-width="2" points="2659,-67.6761 2663,-71.6761 "/>
<text text-anchor="middle" x="2595.5" y="-49.9761" font-family="Times,serif" font-size="14.00">RoleMetadata</text>
</g>
<!-- 14 -->
<g id="node15" class="node"><title>14</title>
<polygon fill="gold" stroke="black" stroke-width="2" points="2664,-167.548 2527,-167.548 2527,-163.548 2523,-163.548 2523,-159.548 2527,-159.548 2527,-139.548 2523,-139.548 2523,-135.548 2527,-135.548 2527,-131.548 2664,-131.548 2664,-167.548"/>
<polyline fill="none" stroke="black" stroke-width="2" points="2527,-163.548 2531,-163.548 2531,-159.548 2527,-159.548 "/>
<polyline fill="none" stroke="black" stroke-width="2" points="2527,-139.548 2531,-139.548 2531,-135.548 2527,-135.548 "/>
<text text-anchor="middle" x="2595.5" y="-145.848" font-family="Times,serif" font-size="14.00">_roleDataDefs</text>
</g>
<!-- 14&#45;&gt;10 -->
<g id="edge2" class="edge"><title>14&#45;&gt;10</title>
<path fill="none" stroke="magenta" d="M2595.5,-131.33C2595.5,-117.569 2595.5,-98.0166 2595.5,-82.1038"/>
<polygon fill="magenta" stroke="magenta" points="2595.5,-71.7845 2600,-81.7845 2595.5,-76.7845 2595.5,-81.7845 2595.5,-81.7845 2595.5,-81.7845 2595.5,-76.7845 2591,-81.7846 2595.5,-71.7845 2595.5,-71.7845"/>
</g>
<!-- 17 -->
<g id="node16" class="node"><title>17</title>
<polygon fill="gold" stroke="black" stroke-width="2" points="2509,-167.548 2360,-167.548 2360,-163.548 2356,-163.548 2356,-159.548 2360,-159.548 2360,-139.548 2356,-139.548 2356,-135.548 2360,-135.548 2360,-131.548 2509,-131.548 2509,-167.548"/>
<polyline fill="none" stroke="black" stroke-width="2" points="2360,-163.548 2364,-163.548 2364,-159.548 2360,-159.548 "/>
<polyline fill="none" stroke="black" stroke-width="2" points="2360,-139.548 2364,-139.548 2364,-135.548 2360,-135.548 "/>
<text text-anchor="middle" x="2434.5" y="-145.848" font-family="Times,serif" font-size="14.00">_roleDescription</text>
</g>
<!-- 17&#45;&gt;10 -->
<g id="edge5" class="edge"><title>17&#45;&gt;10</title>
<path fill="none" stroke="magenta" d="M2464.03,-131.33C2490.24,-116.047 2528.7,-93.6218 2557.26,-76.9713"/>
<polygon fill="magenta" stroke="magenta" points="2566.16,-71.7845 2559.79,-80.709 2561.84,-74.303 2557.52,-76.8215 2557.52,-76.8215 2557.52,-76.8215 2561.84,-74.303 2555.25,-72.934 2566.16,-71.7845 2566.16,-71.7845"/>
</g>
<!-- 18 -->
<g id="node17" class="node"><title>18</title>
<polygon fill="gold" stroke="black" stroke-width="2" points="2852.5,-167.548 2682.5,-167.548 2682.5,-163.548 2678.5,-163.548 2678.5,-159.548 2682.5,-159.548 2682.5,-139.548 2678.5,-139.548 2678.5,-135.548 2682.5,-135.548 2682.5,-131.548 2852.5,-131.548 2852.5,-167.548"/>
<polyline fill="none" stroke="black" stroke-width="2" points="2682.5,-163.548 2686.5,-163.548 2686.5,-159.548 2682.5,-159.548 "/>
<polyline fill="none" stroke="black" stroke-width="2" points="2682.5,-139.548 2686.5,-139.548 2686.5,-135.548 2682.5,-135.548 "/>
<text text-anchor="middle" x="2767.5" y="-145.848" font-family="Times,serif" font-size="14.00">_roleMetadataName</text>
</g>
<!-- 18&#45;&gt;10 -->
<g id="edge6" class="edge"><title>18&#45;&gt;10</title>
<path fill="none" stroke="magenta" d="M2735.95,-131.33C2707.83,-115.981 2666.5,-93.4275 2635.96,-76.7553"/>
<polygon fill="magenta" stroke="magenta" points="2626.85,-71.7845 2637.78,-72.6252 2631.24,-74.1799 2635.63,-76.5752 2635.63,-76.5752 2635.63,-76.5752 2631.24,-74.1799 2633.47,-80.5252 2626.85,-71.7845 2626.85,-71.7845"/>
</g>
<!-- 3 -->
<g id="node22" class="node"><title>3</title>
<polygon fill="gold" stroke="black" stroke-width="2" points="3652,-167.548 3517,-167.548 3513,-163.548 3513,-131.548 3648,-131.548 3652,-135.548 3652,-167.548"/>
<polyline fill="none" stroke="black" stroke-width="2" points="3648,-163.548 3513,-163.548 "/>
<polyline fill="none" stroke="black" stroke-width="2" points="3648,-163.548 3648,-131.548 "/>
<polyline fill="none" stroke="black" stroke-width="2" points="3648,-163.548 3652,-167.548 "/>
<text text-anchor="middle" x="3582.5" y="-145.848" font-family="Times,serif" font-size="14.00">RoleBoolMeta</text>
</g>
<!-- 6 -->
<g id="node23" class="node"><title>6</title>
<polygon fill="gold" stroke="black" stroke-width="2" points="3494.5,-167.548 3346.5,-167.548 3342.5,-163.548 3342.5,-131.548 3490.5,-131.548 3494.5,-135.548 3494.5,-167.548"/>
<polyline fill="none" stroke="black" stroke-width="2" points="3490.5,-163.548 3342.5,-163.548 "/>
<polyline fill="none" stroke="black" stroke-width="2" points="3490.5,-163.548 3490.5,-131.548 "/>
<polyline fill="none" stroke="black" stroke-width="2" points="3490.5,-163.548 3494.5,-167.548 "/>
<text text-anchor="middle" x="3418.5" y="-145.848" font-family="Times,serif" font-size="14.00">RoleDoubleMeta</text>
</g>
<!-- 7 -->
<g id="node24" class="node"><title>7</title>
<polygon fill="gold" stroke="black" stroke-width="2" points="3324.5,-167.548 3182.5,-167.548 3178.5,-163.548 3178.5,-131.548 3320.5,-131.548 3324.5,-135.548 3324.5,-167.548"/>
<polyline fill="none" stroke="black" stroke-width="2" points="3320.5,-163.548 3178.5,-163.548 "/>
<polyline fill="none" stroke="black" stroke-width="2" points="3320.5,-163.548 3320.5,-131.548 "/>
<polyline fill="none" stroke="black" stroke-width="2" points="3320.5,-163.548 3324.5,-167.548 "/>
<text text-anchor="middle" x="3251.5" y="-145.848" font-family="Times,serif" font-size="14.00">RoleEnumMeta</text>
</g>
<!-- 9 -->
<g id="node25" class="node"><title>9</title>
<polygon fill="gold" stroke="black" stroke-width="2" points="3160.5,-167.548 3036.5,-167.548 3032.5,-163.548 3032.5,-131.548 3156.5,-131.548 3160.5,-135.548 3160.5,-167.548"/>
<polyline fill="none" stroke="black" stroke-width="2" points="3156.5,-163.548 3032.5,-163.548 "/>
<polyline fill="none" stroke="black" stroke-width="2" points="3156.5,-163.548 3156.5,-131.548 "/>
<polyline fill="none" stroke="black" stroke-width="2" points="3156.5,-163.548 3160.5,-167.548 "/>
<text text-anchor="middle" x="3096.5" y="-145.848" font-family="Times,serif" font-size="14.00">RoleIntMeta</text>
</g>
<!-- 12 -->
<g id="node26" class="node"><title>12</title>
<polygon fill="gold" stroke="black" stroke-width="2" points="3014,-167.548 2881,-167.548 2877,-163.548 2877,-131.548 3010,-131.548 3014,-135.548 3014,-167.548"/>
<polyline fill="none" stroke="black" stroke-width="2" points="3010,-163.548 2877,-163.548 "/>
<polyline fill="none" stroke="black" stroke-width="2" points="3010,-163.548 3010,-131.548 "/>
<polyline fill="none" stroke="black" stroke-width="2" points="3010,-163.548 3014,-167.548 "/>
<text text-anchor="middle" x="2945.5" y="-145.848" font-family="Times,serif" font-size="14.00">RoleTextMeta</text>
</g>
</g>
</svg>
