<?xml version="1.0" encoding="UTF-8" standalone="no"?>
<!DOCTYPE svg PUBLIC "-//W3C//DTD SVG 1.1//EN"
 "http://www.w3.org/Graphics/SVG/1.1/DTD/svg11.dtd">
<!-- Generated by graphviz version 2.38.0 (20140413.2041)
 -->
<!-- Title: Levels within Control.Access.RoleBased.Checker Pages: 1 -->
<svg width="1505pt" height="459pt"
 viewBox="0.00 0.00 1505.00 459.00" xmlns="http://www.w3.org/2000/svg" xmlns:xlink="http://www.w3.org/1999/xlink">
<g id="graph0" class="graph" transform="scale(1 1) rotate(0) translate(4 455)">
<title>Levels within Control.Access.RoleBased.Checker</title>
<polygon fill="white" stroke="none" points="-4,4 -4,-455 1501,-455 1501,4 -4,4"/>
<g id="clust1" class="cluster"><title>cluster_0</title>
<polygon fill="lavender" stroke="black" points="8,-8 8,-443 1489,-443 1489,-8 8,-8"/>
<text text-anchor="middle" x="748.5" y="-427.8" font-family="Times,serif" font-size="14.00">Exported root entities</text>
</g>
<!-- 1 -->
<g id="node1" class="node"><title>1</title>
<polygon fill="gold" stroke="black" stroke-width="2" points="1376,-412 1262,-412 1262,-376 1376,-376 1376,-412"/>
<text text-anchor="middle" x="1319" y="-390.3" font-family="Times,serif" font-size="14.00">applyRule</text>
</g>
<!-- 2 -->
<g id="node2" class="node"><title>2</title>
<polygon fill="goldenrod" stroke="black" stroke-width="2" points="1026.5,-52 895.5,-52 895.5,-16 1026.5,-16 1026.5,-52"/>
<text text-anchor="middle" x="961" y="-30.3" font-family="Times,serif" font-size="14.00">applyRuleSet</text>
</g>
<!-- 3 -->
<g id="node3" class="node"><title>3</title>
<polygon fill="gold" stroke="black" stroke-width="2" points="1282,-124 1166,-124 1166,-88 1282,-88 1282,-124"/>
<text text-anchor="middle" x="1224" y="-102.3" font-family="Times,serif" font-size="14.00">checkSeen</text>
</g>
<!-- 4 -->
<g id="node4" class="node"><title>4</title>
<polygon fill="goldenrod" stroke="black" stroke-width="2" points="1232.5,-52 1101.5,-52 1101.5,-16 1232.5,-16 1232.5,-52"/>
<text text-anchor="middle" x="1167" y="-30.3" font-family="Times,serif" font-size="14.00">checkUnseen</text>
</g>
<!-- 3&#45;&gt;4 -->
<g id="edge1" class="edge"><title>3&#45;&gt;4</title>
<path fill="none" stroke="black" d="M1209.91,-87.6966C1203.08,-79.3046 1194.74,-69.0705 1187.24,-59.8613"/>
<polygon fill="black" stroke="black" points="1189.96,-57.6487 1180.93,-52.1043 1184.53,-62.0687 1189.96,-57.6487"/>
</g>
<!-- 5 -->
<g id="node5" class="node"><title>5</title>
<polygon fill="goldenrod" stroke="black" stroke-width="2" points="885,-124 757,-124 757,-88 885,-88 885,-124"/>
<text text-anchor="middle" x="821" y="-102.3" font-family="Times,serif" font-size="14.00">expandRoles</text>
</g>
<!-- 5&#45;&gt;2 -->
<g id="edge2" class="edge"><title>5&#45;&gt;2</title>
<path fill="none" stroke="black" d="M855.248,-87.8761C874.061,-78.4693 897.585,-66.7077 917.666,-56.6672"/>
<polygon fill="black" stroke="black" points="919.241,-59.7924 926.62,-52.1898 916.111,-53.5314 919.241,-59.7924"/>
</g>
<!-- 5&#45;&gt;4 -->
<g id="edge3" class="edge"><title>5&#45;&gt;4</title>
<path fill="none" stroke="black" d="M885.146,-90.1259C888.477,-89.3968 891.776,-88.6842 895,-88 961.235,-73.9429 1036.85,-59.3232 1091.52,-49.0081"/>
<polygon fill="black" stroke="black" points="1092.29,-52.4234 1101.47,-47.1332 1091,-45.5443 1092.29,-52.4234"/>
</g>
<!-- 11 -->
<g id="node11" class="node"><title>11</title>
<polygon fill="goldenrod" stroke="black" stroke-width="2" points="728,-52 642,-52 642,-16 728,-16 728,-52"/>
<text text-anchor="middle" x="685" y="-30.3" font-family="Times,serif" font-size="14.00">isum</text>
</g>
<!-- 5&#45;&gt;11 -->
<g id="edge4" class="edge"><title>5&#45;&gt;11</title>
<path fill="none" stroke="black" d="M787.731,-87.8761C769.537,-78.5117 746.809,-66.8136 727.36,-56.803"/>
<polygon fill="black" stroke="black" points="728.89,-53.6543 718.397,-52.1898 725.687,-59.8782 728.89,-53.6543"/>
</g>
<!-- 12 -->
<g id="node12" class="node"><title>12</title>
<polygon fill="goldenrod" stroke="black" stroke-width="2" points="877.5,-52 764.5,-52 764.5,-16 877.5,-16 877.5,-52"/>
<text text-anchor="middle" x="821" y="-30.3" font-family="Times,serif" font-size="14.00">markSeen</text>
</g>
<!-- 5&#45;&gt;12 -->
<g id="edge5" class="edge"><title>5&#45;&gt;12</title>
<path fill="none" stroke="black" d="M821,-87.6966C821,-79.9827 821,-70.7125 821,-62.1124"/>
<polygon fill="black" stroke="black" points="824.5,-62.1043 821,-52.1043 817.5,-62.1044 824.5,-62.1043"/>
</g>
<!-- 6 -->
<g id="node6" class="node"><title>6</title>
<polygon fill="goldenrod" stroke="black" stroke-width="2" points="1141.5,-268 1016.5,-268 1016.5,-232 1141.5,-232 1141.5,-268"/>
<text text-anchor="middle" x="1079" y="-246.3" font-family="Times,serif" font-size="14.00">hasAllRoles</text>
</g>
<!-- 7 -->
<g id="node7" class="node"><title>7</title>
<polygon fill="goldenrod" stroke="black" stroke-width="2" points="1417.5,-268 1286.5,-268 1286.5,-232 1417.5,-232 1417.5,-268"/>
<text text-anchor="middle" x="1352" y="-246.3" font-family="Times,serif" font-size="14.00">hasAnyRoles</text>
</g>
<!-- 8 -->
<g id="node8" class="node"><title>8</title>
<polygon fill="goldenrod" stroke="black" stroke-width="2" points="492,-268 390,-268 390,-232 492,-232 492,-268"/>
<text text-anchor="middle" x="441" y="-246.3" font-family="Times,serif" font-size="14.00">hasRole</text>
</g>
<!-- 9 -->
<g id="node9" class="node"><title>9</title>
<polygon fill="goldenrod" stroke="black" stroke-width="2" points="1002.5,-124 903.5,-124 903.5,-88 1002.5,-88 1002.5,-124"/>
<text text-anchor="middle" x="953" y="-102.3" font-family="Times,serif" font-size="14.00">implies</text>
</g>
<!-- 10 -->
<g id="node10" class="node"><title>10</title>
<polygon fill="goldenrod" stroke="black" stroke-width="2" points="1147.5,-124 1020.5,-124 1020.5,-88 1147.5,-88 1147.5,-124"/>
<text text-anchor="middle" x="1084" y="-102.3" font-family="Times,serif" font-size="14.00">impliesWith</text>
</g>
<!-- 11&#45;&gt;11 -->
<g id="edge6" class="edge"><title>11&#45;&gt;11</title>
<path fill="none" stroke="black" d="M728.036,-47.2619C738.355,-46.2253 746,-41.8047 746,-34 746,-29.0001 742.862,-25.3891 737.894,-23.1668"/>
<polygon fill="black" stroke="black" points="738.583,-19.7319 728.036,-20.7381 736.909,-26.5287 738.583,-19.7319"/>
</g>
<!-- 13 -->
<g id="node13" class="node"><title>13</title>
<polygon fill="goldenrod" stroke="black" stroke-width="2" points="163.5,-340 36.5,-340 36.5,-304 163.5,-304 163.5,-340"/>
<text text-anchor="middle" x="100" y="-318.3" font-family="Times,serif" font-size="14.00">missingRole</text>
</g>
<!-- 13&#45;&gt;8 -->
<g id="edge7" class="edge"><title>13&#45;&gt;8</title>
<path fill="none" stroke="black" d="M163.673,-306.039C166.825,-305.341 169.947,-304.657 173,-304 243.713,-288.779 325.287,-272.883 379.685,-262.519"/>
<polygon fill="black" stroke="black" points="380.347,-265.956 389.517,-260.65 379.039,-259.079 380.347,-265.956"/>
</g>
<!-- 14 -->
<g id="node14" class="node"><title>14</title>
<polygon fill="gold" stroke="black" stroke-width="2" points="1139,-412 1037,-412 1037,-376 1139,-376 1139,-412"/>
<text text-anchor="middle" x="1088" y="-390.3" font-family="Times,serif" font-size="14.00">mkRule</text>
</g>
<!-- 15 -->
<g id="node15" class="node"><title>15</title>
<polygon fill="goldenrod" stroke="black" stroke-width="2" points="894.5,-196 747.5,-196 747.5,-160 894.5,-160 894.5,-196"/>
<text text-anchor="middle" x="821" y="-174.3" font-family="Times,serif" font-size="14.00">runRuleChecker</text>
</g>
<!-- 15&#45;&gt;5 -->
<g id="edge8" class="edge"><title>15&#45;&gt;5</title>
<path fill="none" stroke="chartreuse" d="M821,-159.697C821,-151.983 821,-142.712 821,-134.112"/>
<polygon fill="chartreuse" stroke="chartreuse" points="824.5,-134.104 821,-124.104 817.5,-134.104 824.5,-134.104"/>
</g>
<!-- 16 -->
<g id="node16" class="node"><title>16</title>
<polygon fill="gold" stroke="black" stroke-width="2" points="1386.5,-340 1317.5,-340 1317.5,-304 1386.5,-304 1386.5,-340"/>
<text text-anchor="middle" x="1352" y="-318.3" font-family="Times,serif" font-size="14.00">t1</text>
</g>
<!-- 16&#45;&gt;7 -->
<g id="edge9" class="edge"><title>16&#45;&gt;7</title>
<path fill="none" stroke="black" d="M1352,-303.697C1352,-295.983 1352,-286.712 1352,-278.112"/>
<polygon fill="black" stroke="black" points="1355.5,-278.104 1352,-268.104 1348.5,-278.104 1355.5,-278.104"/>
</g>
<!-- 33 -->
<g id="node33" class="node"><title>33</title>
<polygon fill="goldenrod" stroke="black" stroke-width="2" points="930,-268 858,-268 858,-232 930,-232 930,-268"/>
<text text-anchor="middle" x="894" y="-246.3" font-family="Times,serif" font-size="14.00">tX</text>
</g>
<!-- 16&#45;&gt;33 -->
<g id="edge10" class="edge"><title>16&#45;&gt;33</title>
<path fill="none" stroke="black" d="M1317.19,-306.648C1314.11,-305.655 1311.02,-304.752 1308,-304 1177.69,-271.549 1141.09,-285.905 1008,-268 985.69,-264.999 960.974,-261.352 940.275,-258.208"/>
<polygon fill="black" stroke="black" points="940.572,-254.712 930.159,-256.662 939.515,-261.632 940.572,-254.712"/>
</g>
<!-- 17 -->
<g id="node17" class="node"><title>17</title>
<polygon fill="gold" stroke="black" stroke-width="2" points="258,-340 182,-340 182,-304 258,-304 258,-340"/>
<text text-anchor="middle" x="220" y="-318.3" font-family="Times,serif" font-size="14.00">t10</text>
</g>
<!-- 17&#45;&gt;8 -->
<g id="edge11" class="edge"><title>17&#45;&gt;8</title>
<path fill="none" stroke="black" d="M258.162,-307.011C261.146,-305.974 264.118,-304.959 267,-304 304.36,-291.563 346.606,-278.667 380.115,-268.711"/>
<polygon fill="black" stroke="black" points="381.175,-272.047 389.769,-265.851 379.187,-265.335 381.175,-272.047"/>
</g>
<!-- 17&#45;&gt;33 -->
<g id="edge12" class="edge"><title>17&#45;&gt;33</title>
<path fill="none" stroke="black" d="M258.232,-306.244C261.173,-305.395 264.118,-304.631 267,-304 480.3,-257.265 742.761,-251.2 847.575,-250.787"/>
<polygon fill="black" stroke="black" points="847.816,-254.286 857.808,-250.763 847.799,-247.286 847.816,-254.286"/>
</g>
<!-- 18 -->
<g id="node18" class="node"><title>18</title>
<polygon fill="gold" stroke="black" stroke-width="2" points="875,-340 799,-340 799,-304 875,-304 875,-340"/>
<text text-anchor="middle" x="837" y="-318.3" font-family="Times,serif" font-size="14.00">t11</text>
</g>
<!-- 18&#45;&gt;8 -->
<g id="edge13" class="edge"><title>18&#45;&gt;8</title>
<path fill="none" stroke="black" d="M798.976,-306.539C795.96,-305.609 792.943,-304.748 790,-304 690.787,-278.784 572.463,-263.91 502.205,-256.618"/>
<polygon fill="black" stroke="black" points="502.5,-253.13 492.196,-255.596 501.789,-260.094 502.5,-253.13"/>
</g>
<!-- 18&#45;&gt;33 -->
<g id="edge14" class="edge"><title>18&#45;&gt;33</title>
<path fill="none" stroke="black" d="M851.09,-303.697C857.923,-295.305 866.257,-285.07 873.756,-275.861"/>
<polygon fill="black" stroke="black" points="876.472,-278.069 880.072,-268.104 871.044,-273.649 876.472,-278.069"/>
</g>
<!-- 19 -->
<g id="node19" class="node"><title>19</title>
<polygon fill="gold" stroke="black" stroke-width="2" points="1117,-340 1041,-340 1041,-304 1117,-304 1117,-340"/>
<text text-anchor="middle" x="1079" y="-318.3" font-family="Times,serif" font-size="14.00">t12</text>
</g>
<!-- 19&#45;&gt;6 -->
<g id="edge15" class="edge"><title>19&#45;&gt;6</title>
<path fill="none" stroke="black" d="M1079,-303.697C1079,-295.983 1079,-286.712 1079,-278.112"/>
<polygon fill="black" stroke="black" points="1082.5,-278.104 1079,-268.104 1075.5,-278.104 1082.5,-278.104"/>
</g>
<!-- 19&#45;&gt;33 -->
<g id="edge16" class="edge"><title>19&#45;&gt;33</title>
<path fill="none" stroke="black" d="M1040.67,-306.496C1011.35,-295.402 970.821,-280.068 939.796,-268.328"/>
<polygon fill="black" stroke="black" points="940.675,-264.919 930.083,-264.653 938.197,-271.466 940.675,-264.919"/>
</g>
<!-- 20 -->
<g id="node20" class="node"><title>20</title>
<polygon fill="gold" stroke="black" stroke-width="2" points="1299,-340 1223,-340 1223,-304 1299,-304 1299,-340"/>
<text text-anchor="middle" x="1261" y="-318.3" font-family="Times,serif" font-size="14.00">t13</text>
</g>
<!-- 20&#45;&gt;7 -->
<g id="edge17" class="edge"><title>20&#45;&gt;7</title>
<path fill="none" stroke="black" d="M1283.49,-303.697C1294.96,-294.881 1309.06,-284.032 1321.48,-274.474"/>
<polygon fill="black" stroke="black" points="1323.97,-276.976 1329.76,-268.104 1319.7,-271.427 1323.97,-276.976"/>
</g>
<!-- 20&#45;&gt;33 -->
<g id="edge18" class="edge"><title>20&#45;&gt;33</title>
<path fill="none" stroke="black" d="M1222.96,-306.583C1219.95,-305.643 1216.94,-304.768 1214,-304 1187.97,-297.199 1022.52,-271.024 940.282,-258.185"/>
<polygon fill="black" stroke="black" points="940.623,-254.696 930.203,-256.613 939.544,-261.612 940.623,-254.696"/>
</g>
<!-- 21 -->
<g id="node21" class="node"><title>21</title>
<polygon fill="gold" stroke="black" stroke-width="2" points="1481,-340 1405,-340 1405,-304 1481,-304 1481,-340"/>
<text text-anchor="middle" x="1443" y="-318.3" font-family="Times,serif" font-size="14.00">t14</text>
</g>
<!-- 21&#45;&gt;7 -->
<g id="edge19" class="edge"><title>21&#45;&gt;7</title>
<path fill="none" stroke="black" d="M1420.51,-303.697C1409.04,-294.881 1394.94,-284.032 1382.52,-274.474"/>
<polygon fill="black" stroke="black" points="1384.3,-271.427 1374.24,-268.104 1380.03,-276.976 1384.3,-271.427"/>
</g>
<!-- 21&#45;&gt;33 -->
<g id="edge20" class="edge"><title>21&#45;&gt;33</title>
<path fill="none" stroke="black" d="M1404.76,-306.271C1401.82,-305.415 1398.88,-304.643 1396,-304 1226.98,-266.241 1179.93,-288.78 1008,-268 985.652,-265.299 960.931,-261.689 940.239,-258.491"/>
<polygon fill="black" stroke="black" points="940.547,-254.997 930.127,-256.911 939.467,-261.913 940.547,-254.997"/>
</g>
<!-- 22 -->
<g id="node22" class="node"><title>22</title>
<polygon fill="gold" stroke="black" stroke-width="2" points="810,-412 734,-412 734,-376 810,-376 810,-412"/>
<text text-anchor="middle" x="772" y="-390.3" font-family="Times,serif" font-size="14.00">t15</text>
</g>
<!-- 22&#45;&gt;13 -->
<g id="edge21" class="edge"><title>22&#45;&gt;13</title>
<path fill="none" stroke="black" d="M733.853,-389.774C613.728,-379.595 247.333,-348.404 173.795,-339.715"/>
<polygon fill="black" stroke="black" points="173.97,-336.208 163.597,-338.365 173.051,-343.147 173.97,-336.208"/>
</g>
<!-- 22&#45;&gt;33 -->
<g id="edge22" class="edge"><title>22&#45;&gt;33</title>
<path fill="none" stroke="black" d="M810.298,-390.949C845.092,-386.813 894.595,-374.742 919,-340 932.161,-321.265 922.891,-295.773 912.102,-276.873"/>
<polygon fill="black" stroke="black" points="914.985,-274.879 906.775,-268.182 909.017,-278.537 914.985,-274.879"/>
</g>
<!-- 23 -->
<g id="node23" class="node"><title>23</title>
<polygon fill="gold" stroke="black" stroke-width="2" points="138,-412 62,-412 62,-376 138,-376 138,-412"/>
<text text-anchor="middle" x="100" y="-390.3" font-family="Times,serif" font-size="14.00">t16</text>
</g>
<!-- 23&#45;&gt;8 -->
<g id="edge23" class="edge"><title>23&#45;&gt;8</title>
<path fill="none" stroke="black" d="M63.4858,-375.924C49.4021,-367.293 34.8238,-355.349 27,-340 19.7337,-325.745 16.429,-316.011 27,-304 49.8993,-277.982 269.818,-261.25 379.47,-254.457"/>
<polygon fill="black" stroke="black" points="379.959,-257.934 389.727,-253.831 379.532,-250.947 379.959,-257.934"/>
</g>
<!-- 23&#45;&gt;13 -->
<g id="edge24" class="edge"><title>23&#45;&gt;13</title>
<path fill="none" stroke="black" d="M100,-375.697C100,-367.983 100,-358.712 100,-350.112"/>
<polygon fill="black" stroke="black" points="103.5,-350.104 100,-340.104 96.5001,-350.104 103.5,-350.104"/>
</g>
<!-- 23&#45;&gt;33 -->
<g id="edge25" class="edge"><title>23&#45;&gt;33</title>
<path fill="none" stroke="black" d="M138.135,-391.083C293.395,-383.196 870.353,-353.055 884,-340 892.633,-331.742 894.505,-301.331 894.622,-278.337"/>
<polygon fill="black" stroke="black" points="898.121,-278.068 894.566,-268.088 891.121,-278.107 898.121,-278.068"/>
</g>
<!-- 24 -->
<g id="node24" class="node"><title>24</title>
<polygon fill="gold" stroke="black" stroke-width="2" points="555,-412 479,-412 479,-376 555,-376 555,-412"/>
<text text-anchor="middle" x="517" y="-390.3" font-family="Times,serif" font-size="14.00">t17</text>
</g>
<!-- 24&#45;&gt;13 -->
<g id="edge26" class="edge"><title>24&#45;&gt;13</title>
<path fill="none" stroke="black" d="M478.914,-388.095C417.038,-379.916 290.659,-362.343 173.498,-340.015"/>
<polygon fill="black" stroke="black" points="174.121,-336.57 163.64,-338.12 172.8,-343.445 174.121,-336.57"/>
</g>
<!-- 24&#45;&gt;33 -->
<g id="edge27" class="edge"><title>24&#45;&gt;33</title>
<path fill="none" stroke="black" d="M555.105,-390.516C647.316,-384.117 876.575,-365.751 899,-340 913.626,-323.204 910.228,-297.166 904.448,-277.585"/>
<polygon fill="black" stroke="black" points="907.748,-276.416 901.291,-268.017 901.101,-278.61 907.748,-276.416"/>
</g>
<!-- 25 -->
<g id="node25" class="node"><title>25</title>
<polygon fill="gold" stroke="black" stroke-width="2" points="1022.5,-340 953.5,-340 953.5,-304 1022.5,-304 1022.5,-340"/>
<text text-anchor="middle" x="988" y="-318.3" font-family="Times,serif" font-size="14.00">t2</text>
</g>
<!-- 25&#45;&gt;6 -->
<g id="edge28" class="edge"><title>25&#45;&gt;6</title>
<path fill="none" stroke="black" d="M1010.49,-303.697C1021.96,-294.881 1036.06,-284.032 1048.48,-274.474"/>
<polygon fill="black" stroke="black" points="1050.97,-276.976 1056.76,-268.104 1046.7,-271.427 1050.97,-276.976"/>
</g>
<!-- 25&#45;&gt;33 -->
<g id="edge29" class="edge"><title>25&#45;&gt;33</title>
<path fill="none" stroke="black" d="M964.764,-303.697C952.812,-294.796 938.077,-283.823 925.153,-274.199"/>
<polygon fill="black" stroke="black" points="927.08,-271.27 916.969,-268.104 922.899,-276.884 927.08,-271.27"/>
</g>
<!-- 26 -->
<g id="node26" class="node"><title>26</title>
<polygon fill="gold" stroke="black" stroke-width="2" points="1204.5,-340 1135.5,-340 1135.5,-304 1204.5,-304 1204.5,-340"/>
<text text-anchor="middle" x="1170" y="-318.3" font-family="Times,serif" font-size="14.00">t3</text>
</g>
<!-- 26&#45;&gt;6 -->
<g id="edge30" class="edge"><title>26&#45;&gt;6</title>
<path fill="none" stroke="black" d="M1147.51,-303.697C1136.04,-294.881 1121.94,-284.032 1109.52,-274.474"/>
<polygon fill="black" stroke="black" points="1111.3,-271.427 1101.24,-268.104 1107.03,-276.976 1111.3,-271.427"/>
</g>
<!-- 26&#45;&gt;33 -->
<g id="edge31" class="edge"><title>26&#45;&gt;33</title>
<path fill="none" stroke="black" d="M1135.09,-306.991C1132.04,-305.924 1128.98,-304.91 1126,-304 1062.5,-284.591 987.3,-268.664 940.111,-259.496"/>
<polygon fill="black" stroke="black" points="940.673,-256.04 930.192,-257.588 939.351,-262.914 940.673,-256.04"/>
</g>
<!-- 27 -->
<g id="node27" class="node"><title>27</title>
<polygon fill="gold" stroke="black" stroke-width="2" points="693.5,-340 624.5,-340 624.5,-304 693.5,-304 693.5,-340"/>
<text text-anchor="middle" x="659" y="-318.3" font-family="Times,serif" font-size="14.00">t4</text>
</g>
<!-- 27&#45;&gt;8 -->
<g id="edge32" class="edge"><title>27&#45;&gt;8</title>
<path fill="none" stroke="black" d="M624.358,-307.021C621.541,-305.971 618.729,-304.951 616,-304 578.485,-290.928 535.827,-277.971 502.021,-268.14"/>
<polygon fill="black" stroke="black" points="502.86,-264.74 492.281,-265.323 500.915,-271.464 502.86,-264.74"/>
</g>
<!-- 27&#45;&gt;33 -->
<g id="edge33" class="edge"><title>27&#45;&gt;33</title>
<path fill="none" stroke="black" d="M693.952,-307.14C696.999,-306.04 700.046,-304.978 703,-304 751.882,-287.818 808.873,-272.446 847.794,-262.466"/>
<polygon fill="black" stroke="black" points="848.95,-265.783 857.777,-259.922 847.222,-259 848.95,-265.783"/>
</g>
<!-- 28 -->
<g id="node28" class="node"><title>28</title>
<polygon fill="gold" stroke="black" stroke-width="2" points="606.5,-340 537.5,-340 537.5,-304 606.5,-304 606.5,-340"/>
<text text-anchor="middle" x="572" y="-318.3" font-family="Times,serif" font-size="14.00">t5</text>
</g>
<!-- 28&#45;&gt;8 -->
<g id="edge34" class="edge"><title>28&#45;&gt;8</title>
<path fill="none" stroke="black" d="M539.954,-303.876C522.508,-294.554 500.735,-282.919 482.057,-272.939"/>
<polygon fill="black" stroke="black" points="483.639,-269.816 473.169,-268.19 480.34,-275.99 483.639,-269.816"/>
</g>
<!-- 28&#45;&gt;33 -->
<g id="edge35" class="edge"><title>28&#45;&gt;33</title>
<path fill="none" stroke="black" d="M606.87,-306.874C609.935,-305.832 613.008,-304.856 616,-304 696.105,-281.092 792.063,-265.278 847.726,-257.211"/>
<polygon fill="black" stroke="black" points="848.567,-260.626 857.971,-255.748 847.577,-253.697 848.567,-260.626"/>
</g>
<!-- 29 -->
<g id="node29" class="node"><title>29</title>
<polygon fill="gold" stroke="black" stroke-width="2" points="519.5,-340 450.5,-340 450.5,-304 519.5,-304 519.5,-340"/>
<text text-anchor="middle" x="485" y="-318.3" font-family="Times,serif" font-size="14.00">t6</text>
</g>
<!-- 29&#45;&gt;8 -->
<g id="edge36" class="edge"><title>29&#45;&gt;8</title>
<path fill="none" stroke="black" stroke-width="1.69315" d="M474.124,-303.697C469.008,-295.559 462.805,-285.689 457.155,-276.701"/>
<polygon fill="black" stroke="black" stroke-width="1.69315" points="460.036,-274.708 451.751,-268.104 454.11,-278.433 460.036,-274.708"/>
</g>
<!-- 29&#45;&gt;33 -->
<g id="edge37" class="edge"><title>29&#45;&gt;33</title>
<path fill="none" stroke="black" d="M519.831,-306.73C522.904,-305.719 525.99,-304.789 529,-304 641.379,-274.532 777.805,-260.212 847.744,-254.37"/>
<polygon fill="black" stroke="black" points="848.294,-257.837 857.977,-253.536 847.726,-250.86 848.294,-257.837"/>
</g>
<!-- 30 -->
<g id="node30" class="node"><title>30</title>
<polygon fill="gold" stroke="black" stroke-width="2" points="432.5,-340 363.5,-340 363.5,-304 432.5,-304 432.5,-340"/>
<text text-anchor="middle" x="398" y="-318.3" font-family="Times,serif" font-size="14.00">t7</text>
</g>
<!-- 30&#45;&gt;8 -->
<g id="edge38" class="edge"><title>30&#45;&gt;8</title>
<path fill="none" stroke="black" stroke-width="1.69315" d="M408.629,-303.697C413.628,-295.559 419.691,-285.689 425.212,-276.701"/>
<polygon fill="black" stroke="black" stroke-width="1.69315" points="428.241,-278.457 430.493,-268.104 422.277,-274.793 428.241,-278.457"/>
</g>
<!-- 30&#45;&gt;33 -->
<g id="edge39" class="edge"><title>30&#45;&gt;33</title>
<path fill="none" stroke="black" d="M432.955,-306.322C435.651,-305.455 438.353,-304.666 441,-304 586.622,-267.362 765.082,-255.921 847.818,-252.452"/>
<polygon fill="black" stroke="black" points="848.046,-255.946 857.898,-252.049 847.766,-248.951 848.046,-255.946"/>
</g>
<!-- 31 -->
<g id="node31" class="node"><title>31</title>
<polygon fill="gold" stroke="black" stroke-width="2" points="345.5,-340 276.5,-340 276.5,-304 345.5,-304 345.5,-340"/>
<text text-anchor="middle" x="311" y="-318.3" font-family="Times,serif" font-size="14.00">t8</text>
</g>
<!-- 31&#45;&gt;8 -->
<g id="edge40" class="edge"><title>31&#45;&gt;8</title>
<path fill="none" stroke="black" d="M342.802,-303.876C360.114,-294.554 381.721,-282.919 400.256,-272.939"/>
<polygon fill="black" stroke="black" points="401.931,-276.012 409.076,-268.19 398.612,-269.849 401.931,-276.012"/>
</g>
<!-- 31&#45;&gt;33 -->
<g id="edge41" class="edge"><title>31&#45;&gt;33</title>
<path fill="none" stroke="black" d="M345.941,-306.267C348.64,-305.412 351.347,-304.641 354,-304 532.937,-260.749 753.363,-252.646 847.66,-251.233"/>
<polygon fill="black" stroke="black" points="847.771,-254.732 857.724,-251.101 847.679,-247.733 847.771,-254.732"/>
</g>
<!-- 32 -->
<g id="node32" class="node"><title>32</title>
<polygon fill="gold" stroke="black" stroke-width="2" points="780.5,-340 711.5,-340 711.5,-304 780.5,-304 780.5,-340"/>
<text text-anchor="middle" x="746" y="-318.3" font-family="Times,serif" font-size="14.00">t9</text>
</g>
<!-- 32&#45;&gt;8 -->
<g id="edge42" class="edge"><title>32&#45;&gt;8</title>
<path fill="none" stroke="black" d="M711.451,-306.733C708.613,-305.747 705.771,-304.821 703,-304 635.491,-283.998 555.975,-269.089 502.396,-260.261"/>
<polygon fill="black" stroke="black" points="502.803,-256.781 492.37,-258.631 501.679,-263.691 502.803,-256.781"/>
</g>
<!-- 32&#45;&gt;33 -->
<g id="edge43" class="edge"><title>32&#45;&gt;33</title>
<path fill="none" stroke="black" d="M780.699,-304.588C801.034,-294.971 826.945,-282.715 848.855,-272.352"/>
<polygon fill="black" stroke="black" points="850.429,-275.48 857.973,-268.04 847.436,-269.152 850.429,-275.48"/>
</g>
<!-- 33&#45;&gt;15 -->
<g id="edge44" class="edge"><title>33&#45;&gt;15</title>
<path fill="none" stroke="black" d="M875.955,-231.697C866.938,-223.05 855.882,-212.449 846.057,-203.027"/>
<polygon fill="black" stroke="black" points="848.478,-200.499 838.837,-196.104 843.633,-205.552 848.478,-200.499"/>
</g>
<!-- 34 -->
<g id="node34" class="node"><title>34</title>
<polygon fill="goldenrod" stroke="black" stroke-width="2" points="1021,-196 913,-196 913,-160 1021,-160 1021,-196"/>
<text text-anchor="middle" x="967" y="-174.3" font-family="Times,serif" font-size="14.00">testRules</text>
</g>
<!-- 33&#45;&gt;34 -->
<g id="edge45" class="edge"><title>33&#45;&gt;34</title>
<path fill="none" stroke="black" d="M912.045,-231.697C921.062,-223.05 932.118,-212.449 941.943,-203.027"/>
<polygon fill="black" stroke="black" points="944.367,-205.552 949.163,-196.104 939.522,-200.499 944.367,-205.552"/>
</g>
<!-- 34&#45;&gt;9 -->
<g id="edge46" class="edge"><title>34&#45;&gt;9</title>
<path fill="none" stroke="black" stroke-width="2.38629" d="M963.539,-159.697C961.997,-151.983 960.142,-142.712 958.422,-134.112"/>
<polygon fill="black" stroke="black" stroke-width="2.38629" points="961.814,-133.224 956.421,-124.104 954.95,-134.597 961.814,-133.224"/>
</g>
<!-- 34&#45;&gt;10 -->
<g id="edge47" class="edge"><title>34&#45;&gt;10</title>
<path fill="none" stroke="black" d="M995.621,-159.876C1010.92,-150.724 1029.94,-139.342 1046.42,-129.485"/>
<polygon fill="black" stroke="black" points="1048.48,-132.327 1055.27,-124.19 1044.89,-126.32 1048.48,-132.327"/>
</g>
</g>
</svg>
