<?xml version="1.0" encoding="UTF-8" standalone="no"?>
<!DOCTYPE svg PUBLIC "-//W3C//DTD SVG 1.1//EN"
 "http://www.w3.org/Graphics/SVG/1.1/DTD/svg11.dtd">
<!-- Generated by graphviz version 2.38.0 (20140413.2041)
 -->
<!-- Title: Levels within Control.Access.RoleBased.Internal.RoleMap Pages: 1 -->
<svg width="687pt" height="171pt"
 viewBox="0.00 0.00 687.00 171.00" xmlns="http://www.w3.org/2000/svg" xmlns:xlink="http://www.w3.org/1999/xlink">
<g id="graph0" class="graph" transform="scale(1 1) rotate(0) translate(4 167)">
<title>Levels within Control.Access.RoleBased.Internal.RoleMap</title>
<polygon fill="white" stroke="none" points="-4,4 -4,-167 683,-167 683,4 -4,4"/>
<g id="clust1" class="cluster"><title>cluster_0</title>
<polygon fill="lavender" stroke="black" points="8,-8 8,-155 671,-155 671,-8 8,-8"/>
<text text-anchor="middle" x="339.5" y="-139.8" font-family="Times,serif" font-size="14.00">Exported root entities</text>
</g>
<!-- 1 -->
<g id="node1" class="node"><title>1</title>
<polygon fill="goldenrod" stroke="black" stroke-width="2" points="402.5,-52 263.5,-52 259.5,-48 259.5,-16 398.5,-16 402.5,-20 402.5,-52"/>
<polyline fill="none" stroke="black" stroke-width="2" points="398.5,-48 259.5,-48 "/>
<polyline fill="none" stroke="black" stroke-width="2" points="398.5,-48 398.5,-16 "/>
<polyline fill="none" stroke="black" stroke-width="2" points="398.5,-48 402.5,-52 "/>
<text text-anchor="middle" x="331" y="-30.3" font-family="Times,serif" font-size="14.00">Data: RoleMap</text>
</g>
<!-- 2 -->
<g id="node2" class="node"><title>2</title>
<polygon fill="gold" stroke="black" stroke-width="2" points="662.5,-124 571.5,-124 571.5,-88 662.5,-88 662.5,-124"/>
<text text-anchor="middle" x="617" y="-102.3" font-family="Times,serif" font-size="14.00">delete</text>
</g>
<!-- 2&#45;&gt;1 -->
<g id="edge1" class="edge"><title>2&#45;&gt;1</title>
<path fill="none" stroke="black" stroke-width="1.69315" d="M571.411,-90.3646C568.572,-89.541 565.751,-88.7459 563,-88 513.417,-74.5549 457.265,-61.6668 412.625,-51.9667"/>
<polygon fill="black" stroke="black" stroke-width="1.69315" points="413.216,-48.5136 402.702,-49.8217 411.737,-55.3556 413.216,-48.5136"/>
</g>
<!-- 3 -->
<g id="node3" class="node"><title>3</title>
<polygon fill="gold" stroke="black" stroke-width="2" points="553.5,-124 460.5,-124 460.5,-88 553.5,-88 553.5,-124"/>
<text text-anchor="middle" x="507" y="-102.3" font-family="Times,serif" font-size="14.00">empty</text>
</g>
<!-- 3&#45;&gt;1 -->
<g id="edge2" class="edge"><title>3&#45;&gt;1</title>
<path fill="none" stroke="black" d="M463.946,-87.8761C439.671,-78.2216 409.16,-66.0865 383.492,-55.8775"/>
<polygon fill="black" stroke="black" points="384.5,-52.5119 373.915,-52.0683 381.913,-59.0163 384.5,-52.5119"/>
</g>
<!-- 4 -->
<g id="node4" class="node"><title>4</title>
<polygon fill="gold" stroke="black" stroke-width="2" points="442.5,-124 335.5,-124 335.5,-88 442.5,-88 442.5,-124"/>
<text text-anchor="middle" x="389" y="-102.3" font-family="Times,serif" font-size="14.00">fromList</text>
</g>
<!-- 4&#45;&gt;1 -->
<g id="edge3" class="edge"><title>4&#45;&gt;1</title>
<path fill="none" stroke="black" d="M374.663,-87.6966C367.709,-79.3046 359.23,-69.0705 351.599,-59.8613"/>
<polygon fill="black" stroke="black" points="354.247,-57.5715 345.172,-52.1043 348.857,-62.0376 354.247,-57.5715"/>
</g>
<!-- 5 -->
<g id="node5" class="node"><title>5</title>
<polygon fill="gold" stroke="black" stroke-width="2" points="317.5,-124 228.5,-124 228.5,-88 317.5,-88 317.5,-124"/>
<text text-anchor="middle" x="273" y="-102.3" font-family="Times,serif" font-size="14.00">insert</text>
</g>
<!-- 5&#45;&gt;1 -->
<g id="edge4" class="edge"><title>5&#45;&gt;1</title>
<path fill="none" stroke="black" stroke-width="1.69315" d="M287.337,-87.6966C294.291,-79.3046 302.77,-69.0705 310.401,-59.8613"/>
<polygon fill="black" stroke="black" stroke-width="1.69315" points="313.143,-62.0376 316.828,-52.1043 307.753,-57.5715 313.143,-62.0376"/>
</g>
<!-- 6 -->
<g id="node6" class="node"><title>6</title>
<polygon fill="gold" stroke="black" stroke-width="2" points="210,-124 114,-124 114,-88 210,-88 210,-124"/>
<text text-anchor="middle" x="162" y="-102.3" font-family="Times,serif" font-size="14.00">lookup</text>
</g>
<!-- 6&#45;&gt;1 -->
<g id="edge5" class="edge"><title>6&#45;&gt;1</title>
<path fill="none" stroke="black" d="M203.342,-87.8761C226.548,-78.2641 255.69,-66.1934 280.27,-56.0125"/>
<polygon fill="black" stroke="black" points="281.893,-59.1287 289.792,-52.0683 279.214,-52.6615 281.893,-59.1287"/>
</g>
<!-- 7 -->
<g id="node7" class="node"><title>7</title>
<polygon fill="gold" stroke="black" stroke-width="2" points="96,-124 16,-124 16,-88 96,-88 96,-124"/>
<text text-anchor="middle" x="56" y="-102.3" font-family="Times,serif" font-size="14.00">null</text>
</g>
<!-- 7&#45;&gt;1 -->
<g id="edge6" class="edge"><title>7&#45;&gt;1</title>
<path fill="none" stroke="black" d="M96.0029,-90.7429C99.0359,-89.7782 102.06,-88.8524 105,-88 152.401,-74.2593 206.168,-61.5367 249.364,-52.0023"/>
<polygon fill="black" stroke="black" points="250.239,-55.3937 259.258,-49.8334 248.74,-48.556 250.239,-55.3937"/>
</g>
</g>
</svg>
