<?xml version="1.0" encoding="UTF-8" standalone="no"?>
<!DOCTYPE svg PUBLIC "-//W3C//DTD SVG 1.1//EN"
 "http://www.w3.org/Graphics/SVG/1.1/DTD/svg11.dtd">
<!-- Generated by graphviz version 2.38.0 (20140413.2041)
 -->
<!-- Title: Core of Control.Access.RoleBased.Internal.Role Pages: 1 -->
<svg width="912pt" height="250pt"
 viewBox="0.00 0.00 912.00 249.74" xmlns="http://www.w3.org/2000/svg" xmlns:xlink="http://www.w3.org/1999/xlink">
<g id="graph0" class="graph" transform="scale(1 1) rotate(0) translate(4 245.744)">
<title>Core of Control.Access.RoleBased.Internal.Role</title>
<polygon fill="white" stroke="none" points="-4,4 -4,-245.744 908,-245.744 908,4 -4,4"/>
<g id="clust1" class="cluster"><title>cluster_Class_Hashable</title>
<path fill="#ffc1c1" stroke="black" d="M20,-8C20,-8 456,-8 456,-8 462,-8 468,-14 468,-20 468,-20 468,-221.744 468,-221.744 468,-227.744 462,-233.744 456,-233.744 456,-233.744 20,-233.744 20,-233.744 14,-233.744 8,-227.744 8,-221.744 8,-221.744 8,-20 8,-20 8,-14 14,-8 20,-8"/>
<text text-anchor="middle" x="238" y="-218.544" font-family="Times,serif" font-size="14.00">Class: Hashable</text>
</g>
<g id="clust2" class="cluster"><title>cluster_Class_Hashable_Data_Role</title>
<path fill="#c6e2ff" stroke="black" d="M254,-119.352C254,-119.352 448,-119.352 448,-119.352 454,-119.352 460,-125.352 460,-131.352 460,-131.352 460,-190.744 460,-190.744 460,-196.744 454,-202.744 448,-202.744 448,-202.744 254,-202.744 254,-202.744 248,-202.744 242,-196.744 242,-190.744 242,-190.744 242,-131.352 242,-131.352 242,-125.352 248,-119.352 254,-119.352"/>
<text text-anchor="middle" x="351" y="-187.544" font-family="Times,serif" font-size="14.00">Instance for: Role</text>
</g>
<g id="clust3" class="cluster"><title>cluster_Class_Hashable_Data_RoleValue</title>
<path fill="#c6e2ff" stroke="black" d="M28,-119.352C28,-119.352 222,-119.352 222,-119.352 228,-119.352 234,-125.352 234,-131.352 234,-131.352 234,-190.744 234,-190.744 234,-196.744 228,-202.744 222,-202.744 222,-202.744 28,-202.744 28,-202.744 22,-202.744 16,-196.744 16,-190.744 16,-190.744 16,-131.352 16,-131.352 16,-125.352 22,-119.352 28,-119.352"/>
<text text-anchor="middle" x="125" y="-187.544" font-family="Times,serif" font-size="14.00">Instance for: RoleValue</text>
</g>
<g id="clust4" class="cluster"><title>cluster_Class_IsString</title>
<path fill="#ffc1c1" stroke="black" d="M488,-8C488,-8 884,-8 884,-8 890,-8 896,-14 896,-20 896,-20 896,-221.744 896,-221.744 896,-227.744 890,-233.744 884,-233.744 884,-233.744 488,-233.744 488,-233.744 482,-233.744 476,-227.744 476,-221.744 476,-221.744 476,-20 476,-20 476,-14 482,-8 488,-8"/>
<text text-anchor="middle" x="686" y="-218.544" font-family="Times,serif" font-size="14.00">Class: IsString</text>
</g>
<g id="clust5" class="cluster"><title>cluster_Class_IsString_Data_Role</title>
<path fill="#c6e2ff" stroke="black" d="M702,-119.352C702,-119.352 876,-119.352 876,-119.352 882,-119.352 888,-125.352 888,-131.352 888,-131.352 888,-190.744 888,-190.744 888,-196.744 882,-202.744 876,-202.744 876,-202.744 702,-202.744 702,-202.744 696,-202.744 690,-196.744 690,-190.744 690,-190.744 690,-131.352 690,-131.352 690,-125.352 696,-119.352 702,-119.352"/>
<text text-anchor="middle" x="789" y="-187.544" font-family="Times,serif" font-size="14.00">Instance for: Role</text>
</g>
<g id="clust6" class="cluster"><title>cluster_Class_IsString_Data_RoleValue</title>
<path fill="#c6e2ff" stroke="black" d="M496,-119.352C496,-119.352 670,-119.352 670,-119.352 676,-119.352 682,-125.352 682,-131.352 682,-131.352 682,-190.744 682,-190.744 682,-196.744 676,-202.744 670,-202.744 670,-202.744 496,-202.744 496,-202.744 490,-202.744 484,-196.744 484,-190.744 484,-190.744 484,-131.352 484,-131.352 484,-125.352 490,-119.352 496,-119.352"/>
<text text-anchor="middle" x="583" y="-187.544" font-family="Times,serif" font-size="14.00">Instance for: RoleValue</text>
</g>
<!-- 23 -->
<g id="node1" class="node"><title>23</title>
<polygon fill="bisque" stroke="black" stroke-width="2" points="452.057,-140.272 452.057,-158.823 392.859,-171.941 309.141,-171.941 249.943,-158.823 249.943,-140.272 309.141,-127.155 392.859,-127.155 452.057,-140.272"/>
<text text-anchor="middle" x="351" y="-145.848" font-family="Times,serif" font-size="14.00">hashWithSalt</text>
</g>
<!-- 27 -->
<g id="node3" class="node"><title>27</title>
<polygon fill="khaki" stroke="black" stroke-dasharray="1,5" points="358.858,-39.6615 358.858,-67.6908 288.061,-87.5105 187.939,-87.5105 117.142,-67.6908 117.142,-39.6615 187.939,-19.8418 288.061,-19.8418 358.858,-39.6615"/>
<polygon fill="none" stroke="black" stroke-dasharray="1,5" points="362.856,-36.609 362.856,-70.7433 288.607,-91.5293 187.393,-91.5293 113.144,-70.7433 113.144,-36.609 187.393,-15.823 288.607,-15.823 362.856,-36.609"/>
<text text-anchor="middle" x="238" y="-57.4761" font-family="Times,serif" font-size="14.00">Unknown Module</text>
<text text-anchor="middle" x="238" y="-42.4761" font-family="Times,serif" font-size="14.00">hashWithSalt</text>
</g>
<!-- 23&#45;&gt;27 -->
<g id="edge3" class="edge"><title>23&#45;&gt;27</title>
<path fill="none" stroke="black" stroke-width="1.69315" d="M319.598,-127.247C308.38,-118.55 295.548,-108.158 283.413,-97.9946"/>
<polygon fill="black" stroke="black" stroke-width="1.69315" points="285.463,-95.1447 275.564,-91.3685 280.948,-100.494 285.463,-95.1447"/>
</g>
<!-- 24 -->
<g id="node2" class="node"><title>24</title>
<polygon fill="bisque" stroke="black" stroke-width="2" points="226.057,-140.272 226.057,-158.823 166.859,-171.941 83.1409,-171.941 23.9431,-158.823 23.9431,-140.272 83.1409,-127.155 166.859,-127.155 226.057,-140.272"/>
<text text-anchor="middle" x="125" y="-145.848" font-family="Times,serif" font-size="14.00">hashWithSalt</text>
</g>
<!-- 24&#45;&gt;27 -->
<g id="edge4" class="edge"><title>24&#45;&gt;27</title>
<path fill="none" stroke="black" stroke-width="3.07944" d="M144.881,-127.247C154.695,-118.467 167.019,-107.96 179.475,-97.7043"/>
<polygon fill="black" stroke="black" stroke-width="3.07944" points="181.698,-100.407 187.226,-91.3685 177.268,-94.9875 181.698,-100.407"/>
</g>
<!-- 27&#45;&gt;23 -->
<g id="edge7" class="edge"><title>27&#45;&gt;23</title>
<path fill="none" stroke="navy" d="M288.774,-91.3685C303.757,-103.525 319.268,-116.645 331.119,-127.247"/>
</g>
<!-- 27&#45;&gt;24 -->
<g id="edge8" class="edge"><title>27&#45;&gt;24</title>
<path fill="none" stroke="navy" stroke-width="2.38629" d="M200.436,-91.3685C186.152,-103.525 170.077,-116.645 156.402,-127.247"/>
</g>
<!-- 21 -->
<g id="node4" class="node"><title>21</title>
<polygon fill="bisque" stroke="black" stroke-width="2" points="880.157,-140.272 880.157,-158.823 826.759,-171.941 751.241,-171.941 697.843,-158.823 697.843,-140.272 751.241,-127.155 826.759,-127.155 880.157,-140.272"/>
<text text-anchor="middle" x="789" y="-145.848" font-family="Times,serif" font-size="14.00">fromString</text>
</g>
<!-- 26 -->
<g id="node6" class="node"><title>26</title>
<polygon fill="khaki" stroke="black" stroke-dasharray="1,5" points="806.858,-39.6615 806.858,-67.6908 736.061,-87.5105 635.939,-87.5105 565.142,-67.6908 565.142,-39.6615 635.939,-19.8418 736.061,-19.8418 806.858,-39.6615"/>
<polygon fill="none" stroke="black" stroke-dasharray="1,5" points="810.856,-36.609 810.856,-70.7433 736.607,-91.5293 635.393,-91.5293 561.144,-70.7433 561.144,-36.609 635.393,-15.823 736.607,-15.823 810.856,-36.609"/>
<text text-anchor="middle" x="686" y="-57.4761" font-family="Times,serif" font-size="14.00">Unknown Module</text>
<text text-anchor="middle" x="686" y="-42.4761" font-family="Times,serif" font-size="14.00">fromString</text>
</g>
<!-- 21&#45;&gt;26 -->
<g id="edge1" class="edge"><title>21&#45;&gt;26</title>
<path fill="none" stroke="black" d="M759.867,-127.247C749.674,-118.632 738.073,-108.356 727.115,-98.2851"/>
<polygon fill="black" stroke="black" points="729.368,-95.6014 719.655,-91.3685 724.608,-100.734 729.368,-95.6014"/>
</g>
<!-- 22 -->
<g id="node5" class="node"><title>22</title>
<polygon fill="bisque" stroke="black" stroke-width="2" points="674.157,-140.272 674.157,-158.823 620.759,-171.941 545.241,-171.941 491.843,-158.823 491.843,-140.272 545.241,-127.155 620.759,-127.155 674.157,-140.272"/>
<text text-anchor="middle" x="583" y="-145.848" font-family="Times,serif" font-size="14.00">fromString</text>
</g>
<!-- 22&#45;&gt;26 -->
<g id="edge2" class="edge"><title>22&#45;&gt;26</title>
<path fill="none" stroke="black" d="M600.611,-127.247C609.323,-118.632 620.274,-108.356 631.416,-98.2851"/>
<polygon fill="black" stroke="black" points="634.023,-100.649 639.135,-91.3685 629.351,-95.4353 634.023,-100.649"/>
</g>
<!-- 26&#45;&gt;21 -->
<g id="edge5" class="edge"><title>26&#45;&gt;21</title>
<path fill="none" stroke="navy" d="M732.865,-91.3685C746.553,-103.525 760.667,-116.645 771.389,-127.247"/>
</g>
<!-- 26&#45;&gt;22 -->
<g id="edge6" class="edge"><title>26&#45;&gt;22</title>
<path fill="none" stroke="navy" d="M652.345,-91.3685C639.355,-103.525 624.678,-116.645 612.133,-127.247"/>
</g>
</g>
</svg>
