<?xml version="1.0" encoding="UTF-8" standalone="no"?>
<!DOCTYPE svg PUBLIC "-//W3C//DTD SVG 1.1//EN"
 "http://www.w3.org/Graphics/SVG/1.1/DTD/svg11.dtd">
<!-- Generated by graphviz version 2.38.0 (20140413.2041)
 -->
<!-- Title: Diagram of: Control.Access.RoleBased.Internal.RoleMap Pages: 1 -->
<svg width="655pt" height="135pt"
 viewBox="0.00 0.00 654.50 135.00" xmlns="http://www.w3.org/2000/svg" xmlns:xlink="http://www.w3.org/1999/xlink">
<g id="graph0" class="graph" transform="scale(1 1) rotate(0) translate(4 131)">
<title>Diagram of: Control.Access.RoleBased.Internal.RoleMap</title>
<polygon fill="white" stroke="none" points="-4,4 -4,-131 650.5,-131 650.5,4 -4,4"/>
<g id="clust1" class="cluster"><title>cluster_Data_RoleMap</title>
<path fill="papayawhip" stroke="black" d="M280.5,-8C280.5,-8 382.5,-8 382.5,-8 388.5,-8 394.5,-14 394.5,-20 394.5,-20 394.5,-71 394.5,-71 394.5,-77 388.5,-83 382.5,-83 382.5,-83 280.5,-83 280.5,-83 274.5,-83 268.5,-77 268.5,-71 268.5,-71 268.5,-20 268.5,-20 268.5,-14 274.5,-8 280.5,-8"/>
<text text-anchor="middle" x="331.5" y="-67.8" font-family="Times,serif" font-size="14.00">Data: RoleMap</text>
</g>
<!-- 1 -->
<g id="node1" class="node"><title>1</title>
<polygon fill="goldenrod" stroke="black" stroke-width="2" points="386.5,-52 280.5,-52 276.5,-48 276.5,-16 382.5,-16 386.5,-20 386.5,-52"/>
<polyline fill="none" stroke="black" stroke-width="2" points="382.5,-48 276.5,-48 "/>
<polyline fill="none" stroke="black" stroke-width="2" points="382.5,-48 382.5,-16 "/>
<polyline fill="none" stroke="black" stroke-width="2" points="382.5,-48 386.5,-52 "/>
<text text-anchor="middle" x="331.5" y="-30.3" font-family="Times,serif" font-size="14.00">RoleMap</text>
</g>
<!-- 2 -->
<g id="node2" class="node"><title>2</title>
<polygon fill="gold" stroke="black" stroke-width="2" points="91,-127 0,-127 0,-91 91,-91 91,-127"/>
<text text-anchor="middle" x="45.5" y="-105.3" font-family="Times,serif" font-size="14.00">delete</text>
</g>
<!-- 2&#45;&gt;1 -->
<g id="edge1" class="edge"><title>2&#45;&gt;1</title>
<path fill="none" stroke="black" stroke-width="1.69315" d="M91.1,-93.4043C93.9366,-92.5709 96.7537,-91.7628 99.5,-91 155.477,-75.4524 219.732,-60.1369 266.404,-49.4633"/>
<polygon fill="black" stroke="black" stroke-width="1.69315" points="267.411,-52.8237 276.384,-47.1904 265.857,-45.9985 267.411,-52.8237"/>
</g>
<!-- 3 -->
<g id="node3" class="node"><title>3</title>
<polygon fill="gold" stroke="black" stroke-width="2" points="202,-127 109,-127 109,-91 202,-91 202,-127"/>
<text text-anchor="middle" x="155.5" y="-105.3" font-family="Times,serif" font-size="14.00">empty</text>
</g>
<!-- 3&#45;&gt;1 -->
<g id="edge2" class="edge"><title>3&#45;&gt;1</title>
<path fill="none" stroke="black" d="M196.764,-90.8847C221.92,-80.4507 254.254,-67.0394 280.942,-55.9703"/>
<polygon fill="black" stroke="black" points="282.598,-59.0723 290.494,-52.008 279.916,-52.6064 282.598,-59.0723"/>
</g>
<!-- 4 -->
<g id="node4" class="node"><title>4</title>
<polygon fill="gold" stroke="black" stroke-width="2" points="327,-127 220,-127 220,-91 327,-91 327,-127"/>
<text text-anchor="middle" x="273.5" y="-105.3" font-family="Times,serif" font-size="14.00">fromList</text>
</g>
<!-- 4&#45;&gt;1 -->
<g id="edge3" class="edge"><title>4&#45;&gt;1</title>
<path fill="none" stroke="black" d="M287.245,-90.7C294.468,-81.6088 303.457,-70.2959 311.442,-60.2452"/>
<polygon fill="black" stroke="black" points="314.373,-62.1827 317.853,-52.1758 308.892,-57.8281 314.373,-62.1827"/>
</g>
<!-- 5 -->
<g id="node5" class="node"><title>5</title>
<polygon fill="gold" stroke="black" stroke-width="2" points="434,-127 345,-127 345,-91 434,-91 434,-127"/>
<text text-anchor="middle" x="389.5" y="-105.3" font-family="Times,serif" font-size="14.00">insert</text>
</g>
<!-- 5&#45;&gt;1 -->
<g id="edge4" class="edge"><title>5&#45;&gt;1</title>
<path fill="none" stroke="black" stroke-width="1.69315" d="M375.755,-90.7C368.532,-81.6088 359.543,-70.2959 351.558,-60.2452"/>
<polygon fill="black" stroke="black" stroke-width="1.69315" points="354.108,-57.8281 345.147,-52.1758 348.627,-62.1827 354.108,-57.8281"/>
</g>
<!-- 6 -->
<g id="node6" class="node"><title>6</title>
<polygon fill="gold" stroke="black" stroke-width="2" points="548.5,-127 452.5,-127 452.5,-91 548.5,-91 548.5,-127"/>
<text text-anchor="middle" x="500.5" y="-105.3" font-family="Times,serif" font-size="14.00">lookup</text>
</g>
<!-- 6&#45;&gt;1 -->
<g id="edge5" class="edge"><title>6&#45;&gt;1</title>
<path fill="none" stroke="black" d="M460.877,-90.8847C436.827,-80.4965 405.946,-67.157 380.385,-56.1161"/>
<polygon fill="black" stroke="black" points="381.443,-52.7604 370.875,-52.008 378.667,-59.1865 381.443,-52.7604"/>
</g>
<!-- 7 -->
<g id="node7" class="node"><title>7</title>
<polygon fill="gold" stroke="black" stroke-width="2" points="646.5,-127 566.5,-127 566.5,-91 646.5,-91 646.5,-127"/>
<text text-anchor="middle" x="606.5" y="-105.3" font-family="Times,serif" font-size="14.00">null</text>
</g>
<!-- 7&#45;&gt;1 -->
<g id="edge6" class="edge"><title>7&#45;&gt;1</title>
<path fill="none" stroke="black" d="M566.485,-93.7845C563.455,-92.8102 560.435,-91.8708 557.5,-91 503.818,-75.0729 442.059,-59.9857 396.683,-49.4929"/>
<polygon fill="black" stroke="black" points="397.209,-46.0226 386.679,-47.1926 395.64,-52.8446 397.209,-46.0226"/>
</g>
</g>
</svg>
