<?xml version="1.0" encoding="UTF-8" standalone="no"?>
<!DOCTYPE svg PUBLIC "-//W3C//DTD SVG 1.1//EN"
 "http://www.w3.org/Graphics/SVG/1.1/DTD/svg11.dtd">
<!-- Generated by graphviz version 2.38.0 (20140413.2041)
 -->
<!-- Title: Levels within Control.Access.RoleBased.Internal.Types Pages: 1 -->
<svg width="376pt" height="99pt"
 viewBox="0.00 0.00 376.00 99.00" xmlns="http://www.w3.org/2000/svg" xmlns:xlink="http://www.w3.org/1999/xlink">
<g id="graph0" class="graph" transform="scale(1 1) rotate(0) translate(4 95)">
<title>Levels within Control.Access.RoleBased.Internal.Types</title>
<polygon fill="white" stroke="none" points="-4,4 -4,-95 372,-95 372,4 -4,4"/>
<g id="clust1" class="cluster"><title>cluster_0</title>
<polygon fill="lavender" stroke="black" points="8,-8 8,-83 360,-83 360,-8 8,-8"/>
<text text-anchor="middle" x="184" y="-67.8" font-family="Times,serif" font-size="14.00">Exported root entities</text>
</g>
<!-- 1 -->
<g id="node1" class="node"><title>1</title>
<polygon fill="gold" stroke="black" stroke-width="2" points="352,-52 200,-52 196,-48 196,-16 348,-16 352,-20 352,-52"/>
<polyline fill="none" stroke="black" stroke-width="2" points="348,-48 196,-48 "/>
<polyline fill="none" stroke="black" stroke-width="2" points="348,-48 348,-16 "/>
<polyline fill="none" stroke="black" stroke-width="2" points="348,-48 352,-52 "/>
<text text-anchor="middle" x="274" y="-30.3" font-family="Times,serif" font-size="14.00">Data: RoleMonad</text>
</g>
<!-- 2 -->
<g id="node2" class="node"><title>2</title>
<polygon fill="gold" stroke="black" stroke-width="2" points="178,-52 20,-52 16,-48 16,-16 174,-16 178,-20 178,-52"/>
<polyline fill="none" stroke="black" stroke-width="2" points="174,-48 16,-48 "/>
<polyline fill="none" stroke="black" stroke-width="2" points="174,-48 174,-16 "/>
<polyline fill="none" stroke="black" stroke-width="2" points="174,-48 178,-52 "/>
<text text-anchor="middle" x="97" y="-30.3" font-family="Times,serif" font-size="14.00">Data: RuleChecker</text>
</g>
</g>
</svg>
