<?xml version="1.0" encoding="UTF-8" standalone="no"?>
<!DOCTYPE svg PUBLIC "-//W3C//DTD SVG 1.1//EN"
 "http://www.w3.org/Graphics/SVG/1.1/DTD/svg11.dtd">
<!-- Generated by graphviz version 2.38.0 (20140413.2041)
 -->
<!-- Title: Levels within Control.Access.RoleBased.Internal.Role Pages: 1 -->
<svg width="1700pt" height="230pt"
 viewBox="0.00 0.00 1700.00 229.74" xmlns="http://www.w3.org/2000/svg" xmlns:xlink="http://www.w3.org/1999/xlink">
<g id="graph0" class="graph" transform="scale(1 1) rotate(0) translate(4 225.744)">
<title>Levels within Control.Access.RoleBased.Internal.Role</title>
<polygon fill="white" stroke="none" points="-4,4 -4,-225.744 1696,-225.744 1696,4 -4,4"/>
<g id="clust1" class="cluster"><title>cluster_0</title>
<polygon fill="lavender" stroke="black" points="107,-8 107,-122.352 1684,-122.352 1684,-8 107,-8"/>
<text text-anchor="middle" x="895.5" y="-107.152" font-family="Times,serif" font-size="14.00">Exported root entities</text>
</g>
<g id="clust2" class="cluster"><title>cluster_1</title>
<polygon fill="lavender" stroke="black" points="8,-130.352 8,-213.744 1450,-213.744 1450,-130.352 8,-130.352"/>
<text text-anchor="middle" x="729" y="-198.544" font-family="Times,serif" font-size="14.00">Level = 1</text>
</g>
<!-- 1 -->
<g id="node1" class="node"><title>1</title>
<polygon fill="goldenrod" stroke="black" stroke-width="2" points="1509.5,-71.6761 1396.5,-71.6761 1392.5,-67.6761 1392.5,-35.6761 1505.5,-35.6761 1509.5,-39.6761 1509.5,-71.6761"/>
<polyline fill="none" stroke="black" stroke-width="2" points="1505.5,-67.6761 1392.5,-67.6761 "/>
<polyline fill="none" stroke="black" stroke-width="2" points="1505.5,-67.6761 1505.5,-35.6761 "/>
<polyline fill="none" stroke="black" stroke-width="2" points="1505.5,-67.6761 1509.5,-71.6761 "/>
<text text-anchor="middle" x="1451" y="-49.9761" font-family="Times,serif" font-size="14.00">Data: Role</text>
</g>
<!-- 2 -->
<g id="node2" class="node"><title>2</title>
<polygon fill="goldenrod" stroke="black" stroke-width="2" points="1676.5,-71.6761 1531.5,-71.6761 1527.5,-67.6761 1527.5,-35.6761 1672.5,-35.6761 1676.5,-39.6761 1676.5,-71.6761"/>
<polyline fill="none" stroke="black" stroke-width="2" points="1672.5,-67.6761 1527.5,-67.6761 "/>
<polyline fill="none" stroke="black" stroke-width="2" points="1672.5,-67.6761 1672.5,-35.6761 "/>
<polyline fill="none" stroke="black" stroke-width="2" points="1672.5,-67.6761 1676.5,-71.6761 "/>
<text text-anchor="middle" x="1602" y="-49.9761" font-family="Times,serif" font-size="14.00">Data: RoleValue</text>
</g>
<!-- 3 -->
<g id="node3" class="node"><title>3</title>
<polygon fill="gold" stroke="black" stroke-width="2" points="1374,-71.6761 1200,-71.6761 1196,-67.6761 1196,-35.6761 1370,-35.6761 1374,-39.6761 1374,-71.6761"/>
<polyline fill="none" stroke="black" stroke-width="2" points="1370,-67.6761 1196,-67.6761 "/>
<polyline fill="none" stroke="black" stroke-width="2" points="1370,-67.6761 1370,-35.6761 "/>
<polyline fill="none" stroke="black" stroke-width="2" points="1370,-67.6761 1374,-71.6761 "/>
<text text-anchor="middle" x="1285" y="-49.9761" font-family="Times,serif" font-size="14.00">Data: RoleValueMeta</text>
</g>
<!-- 4 -->
<g id="node4" class="node"><title>4</title>
<polygon fill="gold" stroke="black" stroke-width="2" points="1178,-71.6761 984,-71.6761 980,-67.6761 980,-35.6761 1174,-35.6761 1178,-39.6761 1178,-71.6761"/>
<polyline fill="none" stroke="black" stroke-width="2" points="1174,-67.6761 980,-67.6761 "/>
<polyline fill="none" stroke="black" stroke-width="2" points="1174,-67.6761 1174,-35.6761 "/>
<polyline fill="none" stroke="black" stroke-width="2" points="1174,-67.6761 1178,-71.6761 "/>
<text text-anchor="middle" x="1079" y="-49.9761" font-family="Times,serif" font-size="14.00">Data: RoleDataDefinition</text>
</g>
<!-- 10 -->
<g id="node5" class="node"><title>10</title>
<polygon fill="gold" stroke="black" stroke-width="2" points="962,-71.6761 798,-71.6761 794,-67.6761 794,-35.6761 958,-35.6761 962,-39.6761 962,-71.6761"/>
<polyline fill="none" stroke="black" stroke-width="2" points="958,-67.6761 794,-67.6761 "/>
<polyline fill="none" stroke="black" stroke-width="2" points="958,-67.6761 958,-35.6761 "/>
<polyline fill="none" stroke="black" stroke-width="2" points="958,-67.6761 962,-71.6761 "/>
<text text-anchor="middle" x="878" y="-49.9761" font-family="Times,serif" font-size="14.00">Data: RoleMetadata</text>
</g>
<!-- 25 -->
<g id="node6" class="node"><title>25</title>
<polygon fill="goldenrod" stroke="black" stroke-width="2" points="240.5,-71.6761 115.5,-71.6761 115.5,-35.6761 240.5,-35.6761 240.5,-71.6761"/>
<text text-anchor="middle" x="178" y="-49.9761" font-family="Times,serif" font-size="14.00">toSortedList</text>
</g>
<!-- 26 -->
<g id="node7" class="node"><title>26</title>
<polygon fill="khaki" stroke="black" stroke-dasharray="1,5" points="771.858,-39.6615 771.858,-67.6908 701.061,-87.5105 600.939,-87.5105 530.142,-67.6908 530.142,-39.6615 600.939,-19.8418 701.061,-19.8418 771.858,-39.6615"/>
<polygon fill="none" stroke="black" stroke-dasharray="1,5" points="775.856,-36.609 775.856,-70.7433 701.607,-91.5293 600.393,-91.5293 526.144,-70.7433 526.144,-36.609 600.393,-15.823 701.607,-15.823 775.856,-36.609"/>
<text text-anchor="middle" x="651" y="-57.4761" font-family="Times,serif" font-size="14.00">Unknown Module</text>
<text text-anchor="middle" x="651" y="-42.4761" font-family="Times,serif" font-size="14.00">Class: IsString</text>
</g>
<!-- 21 -->
<g id="node9" class="node"><title>21</title>
<polygon fill="bisque" stroke="black" stroke-width="2" points="1062.27,-151.272 1062.27,-169.823 970.729,-182.941 841.271,-182.941 749.73,-169.823 749.73,-151.272 841.271,-138.155 970.729,-138.155 1062.27,-151.272"/>
<text text-anchor="middle" x="906" y="-156.848" font-family="Times,serif" font-size="14.00">Class: IsString, Data: Role</text>
</g>
<!-- 26&#45;&gt;21 -->
<g id="edge10" class="edge"><title>26&#45;&gt;21</title>
<path fill="none" stroke="navy" d="M718.089,-87.0357C741.771,-99.0302 768.737,-112.175 794,-122.352 808.372,-128.142 824.004,-133.563 838.925,-138.381"/>
</g>
<!-- 22 -->
<g id="node10" class="node"><title>22</title>
<polygon fill="bisque" stroke="black" stroke-width="2" points="1441.75,-151.272 1441.75,-169.823 1335.87,-182.941 1186.13,-182.941 1080.25,-169.823 1080.25,-151.272 1186.13,-138.155 1335.87,-138.155 1441.75,-151.272"/>
<text text-anchor="middle" x="1261" y="-156.848" font-family="Times,serif" font-size="14.00">Class: IsString, Data: RoleValue</text>
</g>
<!-- 26&#45;&gt;22 -->
<g id="edge11" class="edge"><title>26&#45;&gt;22</title>
<path fill="none" stroke="navy" d="M712.874,-88.5646C737.298,-101.713 766.081,-115.288 794,-122.352 855.638,-137.948 1016.68,-124.624 1080,-130.352 1107.25,-132.818 1136.54,-136.699 1163.47,-140.837"/>
</g>
<!-- 27 -->
<g id="node8" class="node"><title>27</title>
<polygon fill="khaki" stroke="black" stroke-dasharray="1,5" points="503.858,-39.6615 503.858,-67.6908 433.061,-87.5105 332.939,-87.5105 262.142,-67.6908 262.142,-39.6615 332.939,-19.8418 433.061,-19.8418 503.858,-39.6615"/>
<polygon fill="none" stroke="black" stroke-dasharray="1,5" points="507.856,-36.609 507.856,-70.7433 433.607,-91.5293 332.393,-91.5293 258.144,-70.7433 258.144,-36.609 332.393,-15.823 433.607,-15.823 507.856,-36.609"/>
<text text-anchor="middle" x="383" y="-57.4761" font-family="Times,serif" font-size="14.00">Unknown Module</text>
<text text-anchor="middle" x="383" y="-42.4761" font-family="Times,serif" font-size="14.00">Class: Hashable</text>
</g>
<!-- 23 -->
<g id="node11" class="node"><title>23</title>
<polygon fill="bisque" stroke="black" stroke-width="2" points="340.016,-151.272 340.016,-169.823 245.109,-182.941 110.891,-182.941 15.9841,-169.823 15.9841,-151.272 110.891,-138.155 245.109,-138.155 340.016,-151.272"/>
<text text-anchor="middle" x="178" y="-156.848" font-family="Times,serif" font-size="14.00">Class: Hashable, Data: Role</text>
</g>
<!-- 27&#45;&gt;23 -->
<g id="edge12" class="edge"><title>27&#45;&gt;23</title>
<path fill="none" stroke="navy" d="M322.528,-88.8722C291.38,-105.165 254.011,-124.141 225.033,-138.326"/>
</g>
<!-- 24 -->
<g id="node12" class="node"><title>24</title>
<polygon fill="bisque" stroke="black" stroke-width="2" points="731.999,-151.272 731.999,-169.823 622.458,-182.941 467.542,-182.941 358.001,-169.823 358.001,-151.272 467.542,-138.155 622.458,-138.155 731.999,-151.272"/>
<text text-anchor="middle" x="545" y="-156.848" font-family="Times,serif" font-size="14.00">Class: Hashable, Data: RoleValue</text>
</g>
<!-- 27&#45;&gt;24 -->
<g id="edge13" class="edge"><title>27&#45;&gt;24</title>
<path fill="none" stroke="navy" stroke-width="2.38629" d="M442.525,-89.0786C468.31,-105.325 497.19,-124.201 517.766,-138.326"/>
</g>
<!-- 21&#45;&gt;1 -->
<g id="edge1" class="edge"><title>21&#45;&gt;1</title>
<path fill="none" stroke="black" d="M994.289,-141.416C1019.01,-137.025 1045.96,-132.874 1071,-130.352 1105.5,-126.877 1351.12,-135.995 1383,-122.352 1403.54,-113.562 1421.23,-95.399 1433.41,-80.101"/>
<polygon fill="black" stroke="black" points="1436.33,-82.0518 1439.6,-71.9746 1430.76,-77.8124 1436.33,-82.0518"/>
</g>
<!-- 21&#45;&gt;26 -->
<g id="edge2" class="edge"><title>21&#45;&gt;26</title>
<path fill="none" stroke="black" d="M826.817,-140.096C809.792,-134.865 792.104,-128.84 776,-122.352 756.16,-114.36 735.269,-104.536 716.336,-94.8774"/>
<polygon fill="black" stroke="black" points="717.702,-91.6437 707.212,-90.1577 714.486,-97.8611 717.702,-91.6437"/>
</g>
<!-- 22&#45;&gt;2 -->
<g id="edge3" class="edge"><title>22&#45;&gt;2</title>
<path fill="none" stroke="black" d="M1426.08,-149.277C1457.79,-143.574 1490.1,-135.039 1519,-122.352 1541.76,-112.362 1563.39,-94.3479 1578.85,-79.4162"/>
<polygon fill="black" stroke="black" points="1581.74,-81.4837 1586.35,-71.9476 1576.8,-76.5234 1581.74,-81.4837"/>
</g>
<!-- 22&#45;&gt;26 -->
<g id="edge4" class="edge"><title>22&#45;&gt;26</title>
<path fill="none" stroke="black" d="M1154.06,-142.054C1124.28,-137.47 1091.91,-133.058 1062,-130.352 998.678,-124.624 837.638,-137.948 776,-122.352 753.542,-116.67 730.524,-106.775 710.42,-96.2771"/>
<polygon fill="black" stroke="black" points="711.866,-93.0802 701.401,-91.4245 708.549,-99.2447 711.866,-93.0802"/>
</g>
<!-- 23&#45;&gt;1 -->
<g id="edge5" class="edge"><title>23&#45;&gt;1</title>
<path fill="none" stroke="black" d="M268.609,-141.278C294.468,-136.826 322.75,-132.679 349,-130.352 377.611,-127.816 1356.49,-133.415 1383,-122.352 1403.75,-113.692 1421.53,-95.3454 1433.69,-79.9369"/>
<polygon fill="black" stroke="black" points="1436.63,-81.851 1439.86,-71.7591 1431.04,-77.6366 1436.63,-81.851"/>
</g>
<!-- 23&#45;&gt;25 -->
<g id="edge6" class="edge"><title>23&#45;&gt;25</title>
<path fill="none" stroke="black" d="M178,-138.326C178,-122.068 178,-99.5177 178,-81.9266"/>
<polygon fill="black" stroke="black" points="181.5,-81.7151 178,-71.7152 174.5,-81.7152 181.5,-81.7151"/>
</g>
<!-- 23&#45;&gt;27 -->
<g id="edge7" class="edge"><title>23&#45;&gt;27</title>
<path fill="none" stroke="black" stroke-width="1.69315" d="M213.936,-138.326C239.154,-124.816 273.752,-106.96 305.106,-91.2162"/>
<polygon fill="black" stroke="black" stroke-width="1.69315" points="306.909,-94.2279 314.284,-86.6218 303.775,-87.9684 306.909,-94.2279"/>
</g>
<!-- 24&#45;&gt;2 -->
<g id="edge8" class="edge"><title>24&#45;&gt;2</title>
<path fill="none" stroke="black" stroke-width="2.38629" d="M649.212,-141.305C678.784,-136.87 711.077,-132.723 741,-130.352 762.545,-128.645 1498.68,-129.705 1519,-122.352 1543.04,-113.654 1565.2,-94.7762 1580.56,-79.1629"/>
<polygon fill="black" stroke="black" stroke-width="2.38629" points="1583.19,-81.4804 1587.54,-71.8194 1578.11,-76.6596 1583.19,-81.4804"/>
</g>
<!-- 24&#45;&gt;27 -->
<g id="edge9" class="edge"><title>24&#45;&gt;27</title>
<path fill="none" stroke="black" stroke-width="3.07944" d="M506.668,-138.326C487.256,-126.437 463.33,-111.183 441.688,-96.9641"/>
<polygon fill="black" stroke="black" stroke-width="3.07944" points="443.48,-93.9534 433.206,-91.3667 439.624,-99.7959 443.48,-93.9534"/>
</g>
</g>
</svg>
