<?xml version="1.0" encoding="UTF-8" standalone="no"?>
<!DOCTYPE svg PUBLIC "-//W3C//DTD SVG 1.1//EN"
 "http://www.w3.org/Graphics/SVG/1.1/DTD/svg11.dtd">
<!-- Generated by graphviz version 2.38.0 (20140413.2041)
 -->
<!-- Title: Levels within Control.Access.RoleBased.Internal.Rule Pages: 1 -->
<svg width="804pt" height="294pt"
 viewBox="0.00 0.00 804.00 293.74" xmlns="http://www.w3.org/2000/svg" xmlns:xlink="http://www.w3.org/1999/xlink">
<g id="graph0" class="graph" transform="scale(1 1) rotate(0) translate(4 289.744)">
<title>Levels within Control.Access.RoleBased.Internal.Rule</title>
<polygon fill="white" stroke="none" points="-4,4 -4,-289.744 800,-289.744 800,4 -4,4"/>
<g id="clust1" class="cluster"><title>cluster_0</title>
<polygon fill="lavender" stroke="black" points="8,-12.1956 8,-277.744 424,-277.744 424,-12.1956 8,-12.1956"/>
<text text-anchor="middle" x="216" y="-262.544" font-family="Times,serif" font-size="14.00">Exported root entities</text>
</g>
<g id="clust2" class="cluster"><title>cluster_1</title>
<polygon fill="lavender" stroke="black" points="432,-8 432,-91.3913 788,-91.3913 788,-8 432,-8"/>
<text text-anchor="middle" x="610" y="-76.1913" font-family="Times,serif" font-size="14.00">Level = 1</text>
</g>
<!-- 1 -->
<g id="node1" class="node"><title>1</title>
<polygon fill="goldenrod" stroke="black" stroke-width="2" points="289.5,-56.1956 176.5,-56.1956 172.5,-52.1956 172.5,-20.1956 285.5,-20.1956 289.5,-24.1956 289.5,-56.1956"/>
<polyline fill="none" stroke="black" stroke-width="2" points="285.5,-52.1956 172.5,-52.1956 "/>
<polyline fill="none" stroke="black" stroke-width="2" points="285.5,-52.1956 285.5,-20.1956 "/>
<polyline fill="none" stroke="black" stroke-width="2" points="285.5,-52.1956 289.5,-56.1956 "/>
<text text-anchor="middle" x="231" y="-34.4956" font-family="Times,serif" font-size="14.00">Data: Rule</text>
</g>
<!-- 2 -->
<g id="node2" class="node"><title>2</title>
<polygon fill="goldenrod" stroke="black" stroke-width="2" points="154,-56.1956 24,-56.1956 20,-52.1956 20,-20.1956 150,-20.1956 154,-24.1956 154,-56.1956"/>
<polyline fill="none" stroke="black" stroke-width="2" points="150,-52.1956 20,-52.1956 "/>
<polyline fill="none" stroke="black" stroke-width="2" points="150,-52.1956 150,-20.1956 "/>
<polyline fill="none" stroke="black" stroke-width="2" points="150,-52.1956 154,-56.1956 "/>
<text text-anchor="middle" x="87" y="-34.4956" font-family="Times,serif" font-size="14.00">Data: RuleSet</text>
</g>
<!-- 5 -->
<g id="node3" class="node"><title>5</title>
<polygon fill="goldenrod" stroke="black" stroke-width="2" points="148,-155.067 36,-155.067 36,-119.067 148,-119.067 148,-155.067"/>
<text text-anchor="middle" x="92" y="-133.367" font-family="Times,serif" font-size="14.00">ruleToSet</text>
</g>
<!-- 5&#45;&gt;1 -->
<g id="edge2" class="edge"><title>5&#45;&gt;1</title>
<path fill="none" stroke="black" d="M120.38,-119.047C133.531,-110.948 149.255,-100.96 163,-91.3913 175.875,-82.4278 189.677,-71.996 201.459,-62.825"/>
<polygon fill="black" stroke="black" points="203.931,-65.3344 209.64,-56.4089 199.611,-59.8265 203.931,-65.3344"/>
</g>
<!-- 5&#45;&gt;2 -->
<g id="edge3" class="edge"><title>5&#45;&gt;2</title>
<path fill="none" stroke="black" d="M91.1061,-118.749C90.3595,-104.284 89.2816,-83.4001 88.4175,-66.6586"/>
<polygon fill="black" stroke="black" points="91.8971,-66.1707 87.8862,-56.3644 84.9064,-66.5316 91.8971,-66.1707"/>
</g>
<!-- 6 -->
<g id="node4" class="node"><title>6</title>
<polygon fill="gold" stroke="black" stroke-width="2" points="150.5,-246.744 33.5,-246.744 33.5,-210.744 150.5,-210.744 150.5,-246.744"/>
<text text-anchor="middle" x="92" y="-225.044" font-family="Times,serif" font-size="14.00">rulesToSet</text>
</g>
<!-- 6&#45;&gt;2 -->
<g id="edge4" class="edge"><title>6&#45;&gt;2</title>
<path fill="none" stroke="black" d="M60.4204,-210.519C47.5501,-201.674 34.0583,-189.606 27,-174.744 12.6332,-144.492 14.2092,-130.342 27,-99.3913 32.8046,-85.3453 43.6512,-72.8575 54.5428,-62.9477"/>
<polygon fill="black" stroke="black" points="57.0968,-65.3683 62.4101,-56.2021 52.5404,-60.0542 57.0968,-65.3683"/>
</g>
<!-- 6&#45;&gt;5 -->
<g id="edge5" class="edge"><title>6&#45;&gt;5</title>
<path fill="none" stroke="black" d="M92,-210.453C92,-197.675 92,-180.023 92,-165.35"/>
<polygon fill="black" stroke="black" points="95.5001,-165.305 92,-155.305 88.5001,-165.305 95.5001,-165.305"/>
</g>
<!-- 7 -->
<g id="node5" class="node"><title>7</title>
<polygon fill="khaki" stroke="black" stroke-dasharray="1,5" points="411.858,-123.053 411.858,-151.082 341.061,-170.902 240.939,-170.902 170.142,-151.082 170.142,-123.053 240.939,-103.233 341.061,-103.233 411.858,-123.053"/>
<polygon fill="none" stroke="black" stroke-dasharray="1,5" points="415.856,-120 415.856,-154.135 341.607,-174.921 240.393,-174.921 166.144,-154.135 166.144,-120 240.393,-99.2143 341.607,-99.2143 415.856,-120"/>
<text text-anchor="middle" x="291" y="-140.867" font-family="Times,serif" font-size="14.00">Unknown Module</text>
<text text-anchor="middle" x="291" y="-125.867" font-family="Times,serif" font-size="14.00">Class: Monoid</text>
</g>
<!-- 6&#45;&gt;7 -->
<g id="edge6" class="edge"><title>6&#45;&gt;7</title>
<path fill="none" stroke="black" d="M129.899,-210.665C152.999,-200.255 183.402,-186.555 211.567,-173.862"/>
<polygon fill="black" stroke="black" points="213.34,-176.903 221.019,-169.603 210.464,-170.521 213.34,-176.903"/>
</g>
<!-- 3 -->
<g id="node6" class="node"><title>3</title>
<polygon fill="bisque" stroke="black" stroke-width="2" points="779.823,-28.9201 779.823,-47.4711 680.343,-60.5887 539.657,-60.5887 440.177,-47.4711 440.177,-28.9201 539.657,-15.8026 680.343,-15.8026 779.823,-28.9201"/>
<text text-anchor="middle" x="610" y="-34.4956" font-family="Times,serif" font-size="14.00">Class: Monoid, Data: RuleSet</text>
</g>
<!-- 7&#45;&gt;3 -->
<g id="edge7" class="edge"><title>7&#45;&gt;3</title>
<path fill="none" stroke="navy" stroke-width="1.69315" d="M378.59,-109.469C429.405,-94.0375 492.536,-74.8663 540.016,-60.4479"/>
</g>
<!-- 3&#45;&gt;2 -->
<g id="edge1" class="edge"><title>3&#45;&gt;2</title>
<path fill="none" stroke="black" stroke-width="2.38629" d="M551.639,-60.4967C514.325,-73.5403 464.551,-88.7175 419,-95.3913 391.845,-99.3698 198.847,-101.089 172,-95.3913 149.627,-90.6434 128.284,-76.235 112.582,-63.0687"/>
<polygon fill="black" stroke="black" stroke-width="2.38629" points="114.739,-60.3058 104.909,-56.3545 110.13,-65.5738 114.739,-60.3058"/>
</g>
</g>
</svg>
