<?xml version="1.0" encoding="UTF-8" standalone="no"?>
<!DOCTYPE svg PUBLIC "-//W3C//DTD SVG 1.1//EN"
 "http://www.w3.org/Graphics/SVG/1.1/DTD/svg11.dtd">
<!-- Generated by graphviz version 2.38.0 (20140413.2041)
 -->
<!-- Title: Diagram of: Control.Access.RoleBased.Checker Pages: 1 -->
<svg width="1600pt" height="404pt"
 viewBox="0.00 0.00 1599.50 404.00" xmlns="http://www.w3.org/2000/svg" xmlns:xlink="http://www.w3.org/1999/xlink">
<g id="graph0" class="graph" transform="scale(1 1) rotate(0) translate(4 400)">
<title>Diagram of: Control.Access.RoleBased.Checker</title>
<polygon fill="white" stroke="none" points="-4,4 -4,-400 1595.5,-400 1595.5,4 -4,4"/>
<!-- 1 -->
<g id="node1" class="node"><title>1</title>
<polygon fill="gold" stroke="black" stroke-width="2" points="671.5,-396 557.5,-396 557.5,-360 671.5,-360 671.5,-396"/>
<text text-anchor="middle" x="614.5" y="-374.3" font-family="Times,serif" font-size="14.00">applyRule</text>
</g>
<!-- 2 -->
<g id="node2" class="node"><title>2</title>
<polygon fill="goldenrod" stroke="black" stroke-width="2" points="560,-36 429,-36 429,-0 560,-0 560,-36"/>
<text text-anchor="middle" x="494.5" y="-14.3" font-family="Times,serif" font-size="14.00">applyRuleSet</text>
</g>
<!-- 3 -->
<g id="node3" class="node"><title>3</title>
<polygon fill="gold" stroke="black" stroke-width="2" points="403.5,-108 287.5,-108 287.5,-72 403.5,-72 403.5,-108"/>
<text text-anchor="middle" x="345.5" y="-86.3" font-family="Times,serif" font-size="14.00">checkSeen</text>
</g>
<!-- 4 -->
<g id="node4" class="node"><title>4</title>
<polygon fill="goldenrod" stroke="black" stroke-width="2" points="411,-36 280,-36 280,-0 411,-0 411,-36"/>
<text text-anchor="middle" x="345.5" y="-14.3" font-family="Times,serif" font-size="14.00">checkUnseen</text>
</g>
<!-- 3&#45;&gt;4 -->
<g id="edge1" class="edge"><title>3&#45;&gt;4</title>
<path fill="none" stroke="black" d="M345.5,-71.6966C345.5,-63.9827 345.5,-54.7125 345.5,-46.1124"/>
<polygon fill="black" stroke="black" points="349,-46.1043 345.5,-36.1043 342,-46.1044 349,-46.1043"/>
</g>
<!-- 5 -->
<g id="node5" class="node"><title>5</title>
<polygon fill="goldenrod" stroke="black" stroke-width="2" points="621.5,-108 493.5,-108 493.5,-72 621.5,-72 621.5,-108"/>
<text text-anchor="middle" x="557.5" y="-86.3" font-family="Times,serif" font-size="14.00">expandRoles</text>
</g>
<!-- 5&#45;&gt;2 -->
<g id="edge2" class="edge"><title>5&#45;&gt;2</title>
<path fill="none" stroke="black" d="M541.927,-71.6966C534.298,-63.2198 524.977,-52.8636 516.624,-43.5826"/>
<polygon fill="black" stroke="black" points="519.185,-41.1959 509.894,-36.1043 513.982,-45.8787 519.185,-41.1959"/>
</g>
<!-- 5&#45;&gt;4 -->
<g id="edge3" class="edge"><title>5&#45;&gt;4</title>
<path fill="none" stroke="black" d="M505.91,-71.9656C476.031,-62.1 438.24,-49.6215 406.844,-39.255"/>
<polygon fill="black" stroke="black" points="407.914,-35.9227 397.321,-36.1108 405.72,-42.5698 407.914,-35.9227"/>
</g>
<!-- 11 -->
<g id="node11" class="node"><title>11</title>
<polygon fill="goldenrod" stroke="black" stroke-width="2" points="664.5,-36 578.5,-36 578.5,-0 664.5,-0 664.5,-36"/>
<text text-anchor="middle" x="621.5" y="-14.3" font-family="Times,serif" font-size="14.00">isum</text>
</g>
<!-- 5&#45;&gt;11 -->
<g id="edge4" class="edge"><title>5&#45;&gt;11</title>
<path fill="none" stroke="black" d="M573.32,-71.6966C581.07,-63.2198 590.539,-52.8636 599.024,-43.5826"/>
<polygon fill="black" stroke="black" points="601.697,-45.8464 605.862,-36.1043 596.531,-41.1229 601.697,-45.8464"/>
</g>
<!-- 12 -->
<g id="node12" class="node"><title>12</title>
<polygon fill="goldenrod" stroke="black" stroke-width="2" points="814,-36 701,-36 701,-0 814,-0 814,-36"/>
<text text-anchor="middle" x="757.5" y="-14.3" font-family="Times,serif" font-size="14.00">markSeen</text>
</g>
<!-- 5&#45;&gt;12 -->
<g id="edge5" class="edge"><title>5&#45;&gt;12</title>
<path fill="none" stroke="black" d="M606.17,-71.9656C634.114,-62.185 669.396,-49.8365 698.861,-39.5236"/>
<polygon fill="black" stroke="black" points="700.33,-42.7179 708.612,-36.1108 698.017,-36.1109 700.33,-42.7179"/>
</g>
<!-- 6 -->
<g id="node6" class="node"><title>6</title>
<polygon fill="goldenrod" stroke="black" stroke-width="2" points="467,-252 342,-252 342,-216 467,-216 467,-252"/>
<text text-anchor="middle" x="404.5" y="-230.3" font-family="Times,serif" font-size="14.00">hasAllRoles</text>
</g>
<!-- 7 -->
<g id="node7" class="node"><title>7</title>
<polygon fill="goldenrod" stroke="black" stroke-width="2" points="191,-252 60,-252 60,-216 191,-216 191,-252"/>
<text text-anchor="middle" x="125.5" y="-230.3" font-family="Times,serif" font-size="14.00">hasAnyRoles</text>
</g>
<!-- 8 -->
<g id="node8" class="node"><title>8</title>
<polygon fill="goldenrod" stroke="black" stroke-width="2" points="1135.5,-252 1033.5,-252 1033.5,-216 1135.5,-216 1135.5,-252"/>
<text text-anchor="middle" x="1084.5" y="-230.3" font-family="Times,serif" font-size="14.00">hasRole</text>
</g>
<!-- 9 -->
<g id="node9" class="node"><title>9</title>
<polygon fill="goldenrod" stroke="black" stroke-width="2" points="746,-108 647,-108 647,-72 746,-72 746,-108"/>
<text text-anchor="middle" x="696.5" y="-86.3" font-family="Times,serif" font-size="14.00">implies</text>
</g>
<!-- 10 -->
<g id="node10" class="node"><title>10</title>
<polygon fill="goldenrod" stroke="black" stroke-width="2" points="891,-108 764,-108 764,-72 891,-72 891,-108"/>
<text text-anchor="middle" x="827.5" y="-86.3" font-family="Times,serif" font-size="14.00">impliesWith</text>
</g>
<!-- 11&#45;&gt;11 -->
<g id="edge6" class="edge"><title>11&#45;&gt;11</title>
<path fill="none" stroke="black" d="M664.536,-31.2619C674.855,-30.2253 682.5,-25.8047 682.5,-18 682.5,-13.0001 679.362,-9.38907 674.394,-7.16683"/>
<polygon fill="black" stroke="black" points="675.083,-3.73195 664.536,-4.73813 673.409,-10.5287 675.083,-3.73195"/>
</g>
<!-- 13 -->
<g id="node13" class="node"><title>13</title>
<polygon fill="goldenrod" stroke="black" stroke-width="2" points="1497,-324 1370,-324 1370,-288 1497,-288 1497,-324"/>
<text text-anchor="middle" x="1433.5" y="-302.3" font-family="Times,serif" font-size="14.00">missingRole</text>
</g>
<!-- 13&#45;&gt;8 -->
<g id="edge7" class="edge"><title>13&#45;&gt;8</title>
<path fill="none" stroke="black" d="M1369.83,-290.019C1366.68,-289.325 1363.55,-288.649 1360.5,-288 1286.93,-272.375 1201.88,-256.35 1145.86,-246.072"/>
<polygon fill="black" stroke="black" points="1146.21,-242.578 1135.74,-244.221 1144.95,-249.464 1146.21,-242.578"/>
</g>
<!-- 14 -->
<g id="node14" class="node"><title>14</title>
<polygon fill="gold" stroke="black" stroke-width="2" points="1591.5,-396 1489.5,-396 1489.5,-360 1591.5,-360 1591.5,-396"/>
<text text-anchor="middle" x="1540.5" y="-374.3" font-family="Times,serif" font-size="14.00">mkRule</text>
</g>
<!-- 15 -->
<g id="node15" class="node"><title>15</title>
<polygon fill="goldenrod" stroke="black" stroke-width="2" points="631,-180 484,-180 484,-144 631,-144 631,-180"/>
<text text-anchor="middle" x="557.5" y="-158.3" font-family="Times,serif" font-size="14.00">runRuleChecker</text>
</g>
<!-- 15&#45;&gt;5 -->
<g id="edge8" class="edge"><title>15&#45;&gt;5</title>
<path fill="none" stroke="chartreuse" d="M557.5,-143.697C557.5,-135.983 557.5,-126.712 557.5,-118.112"/>
<polygon fill="chartreuse" stroke="chartreuse" points="561,-118.104 557.5,-108.104 554,-118.104 561,-118.104"/>
</g>
<!-- 16 -->
<g id="node16" class="node"><title>16</title>
<polygon fill="gold" stroke="black" stroke-width="2" points="69,-324 0,-324 0,-288 69,-288 69,-324"/>
<text text-anchor="middle" x="34.5" y="-302.3" font-family="Times,serif" font-size="14.00">t1</text>
</g>
<!-- 16&#45;&gt;7 -->
<g id="edge9" class="edge"><title>16&#45;&gt;7</title>
<path fill="none" stroke="black" d="M56.9944,-287.697C68.4551,-278.881 82.5583,-268.032 94.9835,-258.474"/>
<polygon fill="black" stroke="black" points="97.4721,-260.976 103.264,-252.104 93.2041,-255.427 97.4721,-260.976"/>
</g>
<!-- 33 -->
<g id="node33" class="node"><title>33</title>
<polygon fill="goldenrod" stroke="black" stroke-width="2" points="666.5,-252 594.5,-252 594.5,-216 666.5,-216 666.5,-252"/>
<text text-anchor="middle" x="630.5" y="-230.3" font-family="Times,serif" font-size="14.00">tX</text>
</g>
<!-- 16&#45;&gt;33 -->
<g id="edge10" class="edge"><title>16&#45;&gt;33</title>
<path fill="none" stroke="black" d="M69.2871,-290.553C72.3696,-289.581 75.4697,-288.708 78.5,-288 251.02,-247.685 299.214,-269.659 475.5,-252 512.043,-248.34 553.384,-243.785 584.176,-240.311"/>
<polygon fill="black" stroke="black" points="584.648,-243.78 594.191,-239.177 583.861,-236.824 584.648,-243.78"/>
</g>
<!-- 17 -->
<g id="node17" class="node"><title>17</title>
<polygon fill="gold" stroke="black" stroke-width="2" points="1257.5,-324 1181.5,-324 1181.5,-288 1257.5,-288 1257.5,-324"/>
<text text-anchor="middle" x="1219.5" y="-302.3" font-family="Times,serif" font-size="14.00">t10</text>
</g>
<!-- 17&#45;&gt;8 -->
<g id="edge11" class="edge"><title>17&#45;&gt;8</title>
<path fill="none" stroke="black" d="M1186.48,-287.876C1168.42,-278.512 1145.85,-266.814 1126.55,-256.803"/>
<polygon fill="black" stroke="black" points="1128.14,-253.686 1117.65,-252.19 1124.92,-259.9 1128.14,-253.686"/>
</g>
<!-- 17&#45;&gt;33 -->
<g id="edge12" class="edge"><title>17&#45;&gt;33</title>
<path fill="none" stroke="black" d="M1181.26,-290.287C1178.32,-289.428 1175.38,-288.65 1172.5,-288 992.057,-247.219 770.82,-237.816 676.559,-235.649"/>
<polygon fill="black" stroke="black" points="676.575,-232.148 666.502,-235.434 676.425,-239.147 676.575,-232.148"/>
</g>
<!-- 18 -->
<g id="node18" class="node"><title>18</title>
<polygon fill="gold" stroke="black" stroke-width="2" points="1351.5,-324 1275.5,-324 1275.5,-288 1351.5,-288 1351.5,-324"/>
<text text-anchor="middle" x="1313.5" y="-302.3" font-family="Times,serif" font-size="14.00">t11</text>
</g>
<!-- 18&#45;&gt;8 -->
<g id="edge13" class="edge"><title>18&#45;&gt;8</title>
<path fill="none" stroke="black" d="M1275.35,-290.971C1272.36,-289.943 1269.39,-288.942 1266.5,-288 1226.46,-274.944 1180.97,-261.697 1145.49,-251.713"/>
<polygon fill="black" stroke="black" points="1146.33,-248.314 1135.76,-248.986 1144.44,-255.055 1146.33,-248.314"/>
</g>
<!-- 18&#45;&gt;33 -->
<g id="edge14" class="edge"><title>18&#45;&gt;33</title>
<path fill="none" stroke="black" d="M1275.27,-290.241C1272.33,-289.392 1269.38,-288.63 1266.5,-288 1153.84,-263.387 803.926,-243.76 677.048,-237.283"/>
<polygon fill="black" stroke="black" points="677.051,-233.779 666.887,-236.768 676.697,-240.77 677.051,-233.779"/>
</g>
<!-- 19 -->
<g id="node19" class="node"><title>19</title>
<polygon fill="gold" stroke="black" stroke-width="2" points="351.5,-324 275.5,-324 275.5,-288 351.5,-288 351.5,-324"/>
<text text-anchor="middle" x="313.5" y="-302.3" font-family="Times,serif" font-size="14.00">t12</text>
</g>
<!-- 19&#45;&gt;6 -->
<g id="edge15" class="edge"><title>19&#45;&gt;6</title>
<path fill="none" stroke="black" d="M335.994,-287.697C347.455,-278.881 361.558,-268.032 373.984,-258.474"/>
<polygon fill="black" stroke="black" points="376.472,-260.976 382.264,-252.104 372.204,-255.427 376.472,-260.976"/>
</g>
<!-- 19&#45;&gt;33 -->
<g id="edge16" class="edge"><title>19&#45;&gt;33</title>
<path fill="none" stroke="black" d="M351.561,-290.68C354.569,-289.719 357.573,-288.811 360.5,-288 437.91,-266.539 530.125,-250.403 584.293,-241.857"/>
<polygon fill="black" stroke="black" points="584.937,-245.299 594.278,-240.3 583.858,-238.383 584.937,-245.299"/>
</g>
<!-- 20 -->
<g id="node20" class="node"><title>20</title>
<polygon fill="gold" stroke="black" stroke-width="2" points="163.5,-324 87.5,-324 87.5,-288 163.5,-288 163.5,-324"/>
<text text-anchor="middle" x="125.5" y="-302.3" font-family="Times,serif" font-size="14.00">t13</text>
</g>
<!-- 20&#45;&gt;7 -->
<g id="edge17" class="edge"><title>20&#45;&gt;7</title>
<path fill="none" stroke="black" d="M125.5,-287.697C125.5,-279.983 125.5,-270.712 125.5,-262.112"/>
<polygon fill="black" stroke="black" points="129,-262.104 125.5,-252.104 122,-262.104 129,-262.104"/>
</g>
<!-- 20&#45;&gt;33 -->
<g id="edge18" class="edge"><title>20&#45;&gt;33</title>
<path fill="none" stroke="black" d="M163.754,-290.345C166.69,-289.472 169.628,-288.676 172.5,-288 192.381,-283.321 471.755,-252.406 584.156,-240.07"/>
<polygon fill="black" stroke="black" points="584.623,-243.54 594.182,-238.97 583.86,-236.582 584.623,-243.54"/>
</g>
<!-- 21 -->
<g id="node21" class="node"><title>21</title>
<polygon fill="gold" stroke="black" stroke-width="2" points="257.5,-324 181.5,-324 181.5,-288 257.5,-288 257.5,-324"/>
<text text-anchor="middle" x="219.5" y="-302.3" font-family="Times,serif" font-size="14.00">t14</text>
</g>
<!-- 21&#45;&gt;7 -->
<g id="edge19" class="edge"><title>21&#45;&gt;7</title>
<path fill="none" stroke="black" d="M196.264,-287.697C184.312,-278.796 169.577,-267.823 156.653,-258.199"/>
<polygon fill="black" stroke="black" points="158.58,-255.27 148.469,-252.104 154.399,-260.884 158.58,-255.27"/>
</g>
<!-- 21&#45;&gt;33 -->
<g id="edge20" class="edge"><title>21&#45;&gt;33</title>
<path fill="none" stroke="black" d="M257.519,-290.519C260.536,-289.594 263.554,-288.739 266.5,-288 325.887,-273.1 500.53,-250.786 584.449,-240.524"/>
<polygon fill="black" stroke="black" points="584.958,-243.988 594.462,-239.304 584.112,-237.039 584.958,-243.988"/>
</g>
<!-- 22 -->
<g id="node22" class="node"><title>22</title>
<polygon fill="gold" stroke="black" stroke-width="2" points="765.5,-396 689.5,-396 689.5,-360 765.5,-360 765.5,-396"/>
<text text-anchor="middle" x="727.5" y="-374.3" font-family="Times,serif" font-size="14.00">t15</text>
</g>
<!-- 22&#45;&gt;13 -->
<g id="edge21" class="edge"><title>22&#45;&gt;13</title>
<path fill="none" stroke="black" d="M765.544,-375.741C862.885,-372.111 1128.95,-359.609 1359.97,-323.935"/>
<polygon fill="black" stroke="black" points="1360.57,-327.385 1369.91,-322.383 1359.49,-320.468 1360.57,-327.385"/>
</g>
<!-- 22&#45;&gt;33 -->
<g id="edge22" class="edge"><title>22&#45;&gt;33</title>
<path fill="none" stroke="black" d="M689.289,-363.151C686.316,-362.082 683.36,-361.022 680.5,-360 635.229,-343.824 606.266,-363.245 578.5,-324 563.627,-302.978 581.904,-277.469 600.763,-259.159"/>
<polygon fill="black" stroke="black" points="603.249,-261.627 608.228,-252.275 598.504,-256.481 603.249,-261.627"/>
</g>
<!-- 23 -->
<g id="node23" class="node"><title>23</title>
<polygon fill="gold" stroke="black" stroke-width="2" points="1471.5,-396 1395.5,-396 1395.5,-360 1471.5,-360 1471.5,-396"/>
<text text-anchor="middle" x="1433.5" y="-374.3" font-family="Times,serif" font-size="14.00">t16</text>
</g>
<!-- 23&#45;&gt;8 -->
<g id="edge23" class="edge"><title>23&#45;&gt;8</title>
<path fill="none" stroke="black" d="M1470.01,-359.924C1484.1,-351.293 1498.68,-339.349 1506.5,-324 1513.77,-309.745 1517.09,-299.998 1506.5,-288 1483.02,-261.388 1256.82,-244.856 1145.61,-238.272"/>
<polygon fill="black" stroke="black" points="1145.73,-234.773 1135.54,-237.685 1145.32,-241.762 1145.73,-234.773"/>
</g>
<!-- 23&#45;&gt;13 -->
<g id="edge24" class="edge"><title>23&#45;&gt;13</title>
<path fill="none" stroke="black" d="M1433.5,-359.697C1433.5,-351.983 1433.5,-342.712 1433.5,-334.112"/>
<polygon fill="black" stroke="black" points="1437,-334.104 1433.5,-324.104 1430,-334.104 1437,-334.104"/>
</g>
<!-- 23&#45;&gt;33 -->
<g id="edge25" class="edge"><title>23&#45;&gt;33</title>
<path fill="none" stroke="black" d="M1395.36,-373.898C1351.49,-370.367 1277.32,-364.506 1213.5,-360 1150.97,-355.585 698.167,-364.707 650.5,-324 633.044,-309.093 628.944,-282.534 628.671,-262.297"/>
<polygon fill="black" stroke="black" points="632.174,-262.16 628.84,-252.103 625.175,-262.044 632.174,-262.16"/>
</g>
<!-- 24 -->
<g id="node24" class="node"><title>24</title>
<polygon fill="gold" stroke="black" stroke-width="2" points="1204.5,-396 1128.5,-396 1128.5,-360 1204.5,-360 1204.5,-396"/>
<text text-anchor="middle" x="1166.5" y="-374.3" font-family="Times,serif" font-size="14.00">t17</text>
</g>
<!-- 24&#45;&gt;13 -->
<g id="edge26" class="edge"><title>24&#45;&gt;13</title>
<path fill="none" stroke="black" d="M1204.75,-366.971C1245.11,-356.392 1309.68,-339.461 1359.95,-326.283"/>
<polygon fill="black" stroke="black" points="1361.01,-329.622 1369.8,-323.7 1359.24,-322.851 1361.01,-329.622"/>
</g>
<!-- 24&#45;&gt;33 -->
<g id="edge27" class="edge"><title>24&#45;&gt;33</title>
<path fill="none" stroke="black" d="M1128.49,-376.227C1009.63,-373.421 650.885,-361.857 616.5,-324 601.227,-307.184 607.789,-280.803 616.327,-261.123"/>
<polygon fill="black" stroke="black" points="619.496,-262.609 620.59,-252.071 613.163,-259.626 619.496,-262.609"/>
</g>
<!-- 25 -->
<g id="node25" class="node"><title>25</title>
<polygon fill="gold" stroke="black" stroke-width="2" points="439,-324 370,-324 370,-288 439,-288 439,-324"/>
<text text-anchor="middle" x="404.5" y="-302.3" font-family="Times,serif" font-size="14.00">t2</text>
</g>
<!-- 25&#45;&gt;6 -->
<g id="edge28" class="edge"><title>25&#45;&gt;6</title>
<path fill="none" stroke="black" d="M404.5,-287.697C404.5,-279.983 404.5,-270.712 404.5,-262.112"/>
<polygon fill="black" stroke="black" points="408,-262.104 404.5,-252.104 401,-262.104 408,-262.104"/>
</g>
<!-- 25&#45;&gt;33 -->
<g id="edge29" class="edge"><title>25&#45;&gt;33</title>
<path fill="none" stroke="black" d="M439.129,-290.984C441.949,-289.942 444.765,-288.934 447.5,-288 493.563,-272.264 547.141,-257.105 584.372,-247.06"/>
<polygon fill="black" stroke="black" points="585.667,-250.337 594.42,-244.367 583.855,-243.576 585.667,-250.337"/>
</g>
<!-- 26 -->
<g id="node26" class="node"><title>26</title>
<polygon fill="gold" stroke="black" stroke-width="2" points="526,-324 457,-324 457,-288 526,-288 526,-324"/>
<text text-anchor="middle" x="491.5" y="-302.3" font-family="Times,serif" font-size="14.00">t3</text>
</g>
<!-- 26&#45;&gt;6 -->
<g id="edge30" class="edge"><title>26&#45;&gt;6</title>
<path fill="none" stroke="black" d="M469.994,-287.697C459.037,-278.881 445.554,-268.032 433.675,-258.474"/>
<polygon fill="black" stroke="black" points="435.744,-255.646 425.758,-252.104 431.355,-261.1 435.744,-255.646"/>
</g>
<!-- 26&#45;&gt;33 -->
<g id="edge31" class="edge"><title>26&#45;&gt;33</title>
<path fill="none" stroke="black" d="M525.503,-287.876C544.098,-278.512 567.327,-266.814 587.206,-256.803"/>
<polygon fill="black" stroke="black" points="589.009,-259.814 596.366,-252.19 585.86,-253.562 589.009,-259.814"/>
</g>
<!-- 27 -->
<g id="node27" class="node"><title>27</title>
<polygon fill="gold" stroke="black" stroke-width="2" points="728,-324 659,-324 659,-288 728,-288 728,-324"/>
<text text-anchor="middle" x="693.5" y="-302.3" font-family="Times,serif" font-size="14.00">t4</text>
</g>
<!-- 27&#45;&gt;8 -->
<g id="edge32" class="edge"><title>27&#45;&gt;8</title>
<path fill="none" stroke="black" d="M728.337,-290.754C731.409,-289.738 734.493,-288.8 737.5,-288 835.729,-261.855 953.263,-247.28 1023.25,-240.297"/>
<polygon fill="black" stroke="black" points="1023.61,-243.779 1033.22,-239.322 1022.93,-236.812 1023.61,-243.779"/>
</g>
<!-- 27&#45;&gt;33 -->
<g id="edge33" class="edge"><title>27&#45;&gt;33</title>
<path fill="none" stroke="black" d="M677.927,-287.697C670.298,-279.22 660.977,-268.864 652.624,-259.583"/>
<polygon fill="black" stroke="black" points="655.185,-257.196 645.894,-252.104 649.982,-261.879 655.185,-257.196"/>
</g>
<!-- 28 -->
<g id="node28" class="node"><title>28</title>
<polygon fill="gold" stroke="black" stroke-width="2" points="815,-324 746,-324 746,-288 815,-288 815,-324"/>
<text text-anchor="middle" x="780.5" y="-302.3" font-family="Times,serif" font-size="14.00">t5</text>
</g>
<!-- 28&#45;&gt;8 -->
<g id="edge34" class="edge"><title>28&#45;&gt;8</title>
<path fill="none" stroke="black" d="M815.382,-290.915C818.444,-289.864 821.514,-288.875 824.5,-288 891.369,-268.417 969.982,-253.473 1023.12,-244.523"/>
<polygon fill="black" stroke="black" points="1023.78,-247.962 1033.07,-242.867 1022.63,-241.057 1023.78,-247.962"/>
</g>
<!-- 28&#45;&gt;33 -->
<g id="edge35" class="edge"><title>28&#45;&gt;33</title>
<path fill="none" stroke="black" d="M745.71,-288.765C724.961,-279.082 698.381,-266.678 675.982,-256.225"/>
<polygon fill="black" stroke="black" points="677.209,-252.935 666.667,-251.878 674.249,-259.279 677.209,-252.935"/>
</g>
<!-- 29 -->
<g id="node29" class="node"><title>29</title>
<polygon fill="gold" stroke="black" stroke-width="2" points="902,-324 833,-324 833,-288 902,-288 902,-324"/>
<text text-anchor="middle" x="867.5" y="-302.3" font-family="Times,serif" font-size="14.00">t6</text>
</g>
<!-- 29&#45;&gt;8 -->
<g id="edge36" class="edge"><title>29&#45;&gt;8</title>
<path fill="none" stroke="black" stroke-width="1.69315" d="M902.001,-291.402C905.202,-290.222 908.404,-289.071 911.5,-288 948.517,-275.197 990.517,-262.292 1023.86,-252.422"/>
<polygon fill="black" stroke="black" stroke-width="1.69315" points="1024.87,-255.775 1033.47,-249.591 1022.89,-249.06 1024.87,-255.775"/>
</g>
<!-- 29&#45;&gt;33 -->
<g id="edge37" class="edge"><title>29&#45;&gt;33</title>
<path fill="none" stroke="black" d="M832.886,-290.938C830.063,-289.906 827.242,-288.913 824.5,-288 774.525,-271.351 716.076,-255.918 676.498,-246.05"/>
<polygon fill="black" stroke="black" points="677.157,-242.608 666.609,-243.603 675.475,-249.403 677.157,-242.608"/>
</g>
<!-- 30 -->
<g id="node30" class="node"><title>30</title>
<polygon fill="gold" stroke="black" stroke-width="2" points="989,-324 920,-324 920,-288 989,-288 989,-324"/>
<text text-anchor="middle" x="954.5" y="-302.3" font-family="Times,serif" font-size="14.00">t7</text>
</g>
<!-- 30&#45;&gt;8 -->
<g id="edge38" class="edge"><title>30&#45;&gt;8</title>
<path fill="none" stroke="black" stroke-width="1.69315" d="M986.302,-287.876C1003.61,-278.554 1025.22,-266.919 1043.76,-256.939"/>
<polygon fill="black" stroke="black" stroke-width="1.69315" points="1045.43,-260.012 1052.58,-252.19 1042.11,-253.849 1045.43,-260.012"/>
</g>
<!-- 30&#45;&gt;33 -->
<g id="edge39" class="edge"><title>30&#45;&gt;33</title>
<path fill="none" stroke="black" d="M919.963,-290.692C917.122,-289.716 914.276,-288.803 911.5,-288 830.461,-264.569 733.2,-248.892 676.956,-240.999"/>
<polygon fill="black" stroke="black" points="677.33,-237.518 666.945,-239.616 676.371,-244.452 677.33,-237.518"/>
</g>
<!-- 31 -->
<g id="node31" class="node"><title>31</title>
<polygon fill="gold" stroke="black" stroke-width="2" points="1076,-324 1007,-324 1007,-288 1076,-288 1076,-324"/>
<text text-anchor="middle" x="1041.5" y="-302.3" font-family="Times,serif" font-size="14.00">t8</text>
</g>
<!-- 31&#45;&gt;8 -->
<g id="edge40" class="edge"><title>31&#45;&gt;8</title>
<path fill="none" stroke="black" d="M1052.13,-287.697C1057.13,-279.559 1063.19,-269.689 1068.71,-260.701"/>
<polygon fill="black" stroke="black" points="1071.74,-262.457 1073.99,-252.104 1065.78,-258.793 1071.74,-262.457"/>
</g>
<!-- 31&#45;&gt;33 -->
<g id="edge41" class="edge"><title>31&#45;&gt;33</title>
<path fill="none" stroke="black" d="M1007,-290.559C1004.15,-289.612 1001.29,-288.742 998.5,-288 885.167,-257.88 747.358,-243.818 676.889,-238.192"/>
<polygon fill="black" stroke="black" points="676.822,-234.676 666.581,-237.391 676.28,-241.655 676.822,-234.676"/>
</g>
<!-- 32 -->
<g id="node32" class="node"><title>32</title>
<polygon fill="gold" stroke="black" stroke-width="2" points="1163,-324 1094,-324 1094,-288 1163,-288 1163,-324"/>
<text text-anchor="middle" x="1128.5" y="-302.3" font-family="Times,serif" font-size="14.00">t9</text>
</g>
<!-- 32&#45;&gt;8 -->
<g id="edge42" class="edge"><title>32&#45;&gt;8</title>
<path fill="none" stroke="black" d="M1117.62,-287.697C1112.51,-279.559 1106.3,-269.689 1100.66,-260.701"/>
<polygon fill="black" stroke="black" points="1103.54,-258.708 1095.25,-252.104 1097.61,-262.433 1103.54,-258.708"/>
</g>
<!-- 32&#45;&gt;33 -->
<g id="edge43" class="edge"><title>32&#45;&gt;33</title>
<path fill="none" stroke="black" d="M1093.55,-290.321C1090.85,-289.454 1088.15,-288.665 1085.5,-288 939.234,-251.24 759.987,-239.858 676.886,-236.427"/>
<polygon fill="black" stroke="black" points="676.891,-232.925 666.761,-236.029 676.616,-239.92 676.891,-232.925"/>
</g>
<!-- 33&#45;&gt;15 -->
<g id="edge44" class="edge"><title>33&#45;&gt;15</title>
<path fill="none" stroke="black" d="M612.455,-215.697C603.438,-207.05 592.382,-196.449 582.557,-187.027"/>
<polygon fill="black" stroke="black" points="584.978,-184.499 575.337,-180.104 580.133,-189.552 584.978,-184.499"/>
</g>
<!-- 34 -->
<g id="node34" class="node"><title>34</title>
<polygon fill="goldenrod" stroke="black" stroke-width="2" points="757.5,-180 649.5,-180 649.5,-144 757.5,-144 757.5,-180"/>
<text text-anchor="middle" x="703.5" y="-158.3" font-family="Times,serif" font-size="14.00">testRules</text>
</g>
<!-- 33&#45;&gt;34 -->
<g id="edge45" class="edge"><title>33&#45;&gt;34</title>
<path fill="none" stroke="black" d="M648.545,-215.697C657.562,-207.05 668.618,-196.449 678.443,-187.027"/>
<polygon fill="black" stroke="black" points="680.867,-189.552 685.663,-180.104 676.022,-184.499 680.867,-189.552"/>
</g>
<!-- 34&#45;&gt;9 -->
<g id="edge46" class="edge"><title>34&#45;&gt;9</title>
<path fill="none" stroke="black" stroke-width="2.38629" d="M701.77,-143.697C700.998,-135.983 700.071,-126.712 699.211,-118.112"/>
<polygon fill="black" stroke="black" stroke-width="2.38629" points="702.688,-117.706 698.21,-108.104 695.723,-118.403 702.688,-117.706"/>
</g>
<!-- 34&#45;&gt;10 -->
<g id="edge47" class="edge"><title>34&#45;&gt;10</title>
<path fill="none" stroke="black" d="M733.834,-143.876C750.197,-134.639 770.583,-123.131 788.154,-113.212"/>
<polygon fill="black" stroke="black" points="790.062,-116.154 797.05,-108.19 786.621,-110.058 790.062,-116.154"/>
</g>
</g>
</svg>
