<?xml version="1.0" encoding="UTF-8" standalone="no"?>
<!DOCTYPE svg PUBLIC "-//W3C//DTD SVG 1.1//EN"
 "http://www.w3.org/Graphics/SVG/1.1/DTD/svg11.dtd">
<!-- Generated by graphviz version 2.38.0 (20140413.2041)
 -->
<!-- Title: Import visualisation Pages: 1 -->
<svg width="2188pt" height="891pt"
 viewBox="0.00 0.00 2188.00 891.00" xmlns="http://www.w3.org/2000/svg" xmlns:xlink="http://www.w3.org/1999/xlink">
<g id="graph0" class="graph" transform="scale(1 1) rotate(0) translate(4 887)">
<title>Import visualisation</title>
<polygon fill="white" stroke="none" points="-4,4 -4,-887 2184,-887 2184,4 -4,4"/>
<g id="clust1" class="cluster"><title>cluster_Network</title>
<polygon fill="lavender" stroke="black" points="132,-194 132,-347 284,-347 284,-194 132,-194"/>
<text text-anchor="middle" x="208" y="-331.8" font-family="Times,serif" font-size="14.00">Network</text>
</g>
<g id="clust2" class="cluster"><title>cluster_Mail</title>
<polygon fill="snow" stroke="black" points="140,-202 140,-316 276,-316 276,-202 140,-202"/>
<text text-anchor="middle" x="208" y="-300.8" font-family="Times,serif" font-size="14.00">Mail</text>
</g>
<g id="clust3" class="cluster"><title>cluster_Mime</title>
<polygon fill="lavender" stroke="black" points="148,-210 148,-285 268,-285 268,-210 148,-210"/>
<text text-anchor="middle" x="208" y="-269.8" font-family="Times,serif" font-size="14.00">Mime</text>
</g>
<g id="clust4" class="cluster"><title>cluster_System</title>
<polygon fill="lavender" stroke="black" points="27,-8 27,-122 163,-122 163,-8 27,-8"/>
<text text-anchor="middle" x="95" y="-106.8" font-family="Times,serif" font-size="14.00">System</text>
</g>
<g id="clust5" class="cluster"><title>cluster_Log</title>
<polygon fill="snow" stroke="black" points="35,-16 35,-91 155,-91 155,-16 35,-16"/>
<text text-anchor="middle" x="95" y="-75.8" font-family="Times,serif" font-size="14.00">Log</text>
</g>
<g id="clust6" class="cluster"><title>cluster_Test</title>
<polygon fill="lavender" stroke="black" points="1488,-510 1488,-839 1998,-839 1998,-510 1488,-510"/>
<text text-anchor="middle" x="1743" y="-823.8" font-family="Times,serif" font-size="14.00">Test</text>
</g>
<g id="clust7" class="cluster"><title>cluster_Thentos</title>
<polygon fill="snow" stroke="black" points="1600,-655 1600,-808 1990,-808 1990,-655 1600,-655"/>
<text text-anchor="middle" x="1795" y="-792.8" font-family="Times,serif" font-size="14.00">Thentos</text>
</g>
<g id="clust8" class="cluster"><title>cluster_Backend</title>
<polygon fill="lavender" stroke="black" points="1608,-663 1608,-777 1882,-777 1882,-663 1608,-663"/>
<text text-anchor="middle" x="1745" y="-761.8" font-family="Times,serif" font-size="14.00">Backend</text>
</g>
<g id="clust9" class="cluster"><title>cluster_Api</title>
<polygon fill="snow" stroke="black" points="1616,-671 1616,-746 1874,-746 1874,-671 1616,-671"/>
<text text-anchor="middle" x="1745" y="-730.8" font-family="Times,serif" font-size="14.00">Api</text>
</g>
<g id="clust10" class="cluster"><title>cluster_Thentos</title>
<polygon fill="lavender" stroke="black" points="292,-130 292,-647 1384,-647 1384,-130 292,-130"/>
<text text-anchor="middle" x="838" y="-631.8" font-family="Times,serif" font-size="14.00">Thentos</text>
</g>
<g id="clust11" class="cluster"><title>cluster_Backend</title>
<polygon fill="snow" stroke="black" points="1102,-355 1102,-616 1376,-616 1376,-355 1102,-355"/>
<text text-anchor="middle" x="1239" y="-600.8" font-family="Times,serif" font-size="14.00">Backend</text>
</g>
<g id="clust12" class="cluster"><title>cluster_Api</title>
<polygon fill="lavender" stroke="black" points="1110,-438 1110,-585 1368,-585 1368,-438 1110,-438"/>
<text text-anchor="middle" x="1239" y="-569.8" font-family="Times,serif" font-size="14.00">Api</text>
</g>
<g id="clust13" class="cluster"><title>cluster_DB</title>
<polygon fill="snow" stroke="black" points="500,-138 500,-430 624,-430 624,-138 500,-138"/>
<text text-anchor="middle" x="562" y="-414.8" font-family="Times,serif" font-size="14.00">DB</text>
</g>
<g id="clust14" class="cluster"><title>cluster_Frontend</title>
<polygon fill="snow" stroke="black" points="632,-355 632,-430 836,-430 836,-355 632,-355"/>
<text text-anchor="middle" x="734" y="-414.8" font-family="Times,serif" font-size="14.00">Frontend</text>
</g>
<!-- 3 -->
<g id="node1" class="node"><title>3</title>
<polygon fill="crimson" stroke="black" points="259.5,-254 168.5,-254 168.5,-258 156.5,-258 156.5,-218 259.5,-218 259.5,-254"/>
<polyline fill="none" stroke="black" points="156.5,-254 168.5,-254 "/>
<text text-anchor="middle" x="208" y="-232.3" font-family="Times,serif" font-size="14.00">Missing</text>
</g>
<!-- 6 -->
<g id="node2" class="node"><title>6</title>
<polygon fill="crimson" stroke="black" points="146.5,-60 55.5,-60 55.5,-64 43.5,-64 43.5,-24 146.5,-24 146.5,-60"/>
<polyline fill="none" stroke="black" points="43.5,-60 55.5,-60 "/>
<text text-anchor="middle" x="95" y="-38.3" font-family="Times,serif" font-size="14.00">Missing</text>
</g>
<!-- 9 -->
<g id="node3" class="node"><title>9</title>
<polygon fill="crimson" stroke="black" points="1749.5,-715 1636.5,-715 1636.5,-719 1624.5,-719 1624.5,-679 1749.5,-679 1749.5,-715"/>
<polyline fill="none" stroke="black" points="1624.5,-715 1636.5,-715 "/>
<text text-anchor="middle" x="1687" y="-693.3" font-family="Times,serif" font-size="14.00">Adhocracy3</text>
</g>
<!-- 7 -->
<g id="node6" class="node"><title>7</title>
<polygon fill="crimson" stroke="black" points="1797.5,-554 1700.5,-554 1700.5,-558 1688.5,-558 1688.5,-518 1797.5,-518 1797.5,-554"/>
<polyline fill="none" stroke="black" points="1688.5,-554 1700.5,-554 "/>
<text text-anchor="middle" x="1743" y="-532.3" font-family="Times,serif" font-size="14.00">Arbitrary</text>
</g>
<!-- 9&#45;&gt;7 -->
<g id="edge2" class="edge"><title>9&#45;&gt;7</title>
<path fill="none" stroke="black" d="M1692.99,-678.984C1702.71,-651.395 1721.98,-596.686 1733.55,-563.82"/>
<polygon fill="black" stroke="black" points="1736.86,-564.97 1736.88,-554.375 1730.26,-562.645 1736.86,-564.97"/>
</g>
<!-- 14 -->
<g id="node8" class="node"><title>14</title>
<polygon fill="crimson" stroke="black" points="1359.5,-554 1246.5,-554 1246.5,-558 1234.5,-558 1234.5,-518 1359.5,-518 1359.5,-554"/>
<polyline fill="none" stroke="black" points="1234.5,-554 1246.5,-554 "/>
<text text-anchor="middle" x="1297" y="-532.3" font-family="Times,serif" font-size="14.00">Adhocracy3</text>
</g>
<!-- 9&#45;&gt;14 -->
<g id="edge3" class="edge"><title>9&#45;&gt;14</title>
<path fill="none" stroke="black" d="M1665.44,-678.876C1652.93,-669.995 1636.44,-659.985 1620,-655 1577.01,-641.966 1459.57,-664.026 1418,-647 1374.85,-629.33 1337.27,-589.062 1315.87,-562.462"/>
<polygon fill="black" stroke="black" points="1318.43,-560.056 1309.5,-554.351 1312.92,-564.379 1318.43,-560.056"/>
</g>
<!-- 18 -->
<g id="node17" class="node"><title>18</title>
<polygon fill="crimson" stroke="black" points="492,-399 408,-399 408,-403 396,-403 396,-363 492,-363 492,-399"/>
<polyline fill="none" stroke="black" points="396,-399 408,-399 "/>
<text text-anchor="middle" x="444" y="-377.3" font-family="Times,serif" font-size="14.00">Config</text>
</g>
<!-- 9&#45;&gt;18 -->
<g id="edge4" class="edge"><title>9&#45;&gt;18</title>
<path fill="none" stroke="black" d="M1665.03,-678.991C1652.53,-670.261 1636.18,-660.361 1620,-655 1601.36,-648.825 1547.8,-658.656 1532,-647 1451.17,-587.374 1529.22,-494.253 1446,-438 1424.14,-423.221 520.537,-439.713 496,-430 483.684,-425.125 472.519,-415.843 463.719,-406.73"/>
<polygon fill="black" stroke="black" points="466.219,-404.276 456.911,-399.216 461.032,-408.976 466.219,-404.276"/>
</g>
<!-- 19 -->
<g id="node18" class="node"><title>19</title>
<polygon fill="crimson" stroke="black" points="377.5,-399 312.5,-399 312.5,-403 300.5,-403 300.5,-363 377.5,-363 377.5,-399"/>
<polyline fill="none" stroke="black" points="300.5,-399 312.5,-399 "/>
<text text-anchor="middle" x="339" y="-377.3" font-family="Times,serif" font-size="14.00">DB</text>
</g>
<!-- 9&#45;&gt;19 -->
<g id="edge5" class="edge"><title>9&#45;&gt;19</title>
<path fill="none" stroke="black" d="M1665.1,-678.79C1652.62,-670 1636.26,-660.105 1620,-655 1591.33,-645.999 1510.35,-663.146 1485,-647 1395.94,-590.269 1462.48,-492.439 1372,-438 1348.55,-423.894 412.236,-440.574 387,-430 375.398,-425.139 365.127,-415.988 357.093,-406.968"/>
<polygon fill="black" stroke="black" points="359.713,-404.645 350.632,-399.187 354.328,-409.117 359.713,-404.645"/>
</g>
<!-- 28 -->
<g id="node22" class="node"><title>28</title>
<polygon fill="crimson" stroke="black" points="1039,-182 959,-182 959,-186 947,-186 947,-146 1039,-146 1039,-182"/>
<polyline fill="none" stroke="black" points="947,-182 959,-182 "/>
<text text-anchor="middle" x="993" y="-160.3" font-family="Times,serif" font-size="14.00">Types</text>
</g>
<!-- 9&#45;&gt;28 -->
<g id="edge6" class="edge"><title>9&#45;&gt;28</title>
<path fill="none" stroke="black" d="M1658.95,-678.904C1636.63,-665.249 1608.95,-648.2 1608,-647 1554.8,-580.124 1546,-550.454 1546,-465 1546,-465 1546,-465 1546,-380 1546,-296.648 1583.07,-250.732 1522,-194 1504.9,-178.114 1182.28,-169.187 1049.43,-166.172"/>
<polygon fill="black" stroke="black" points="1049.14,-162.664 1039.06,-165.94 1048.98,-169.663 1049.14,-162.664"/>
</g>
<!-- 10 -->
<g id="node4" class="node"><title>10</title>
<polygon fill="crimson" stroke="black" points="1866,-715 1780,-715 1780,-719 1768,-719 1768,-679 1866,-679 1866,-715"/>
<polyline fill="none" stroke="black" points="1768,-715 1780,-715 "/>
<text text-anchor="middle" x="1817" y="-693.3" font-family="Times,serif" font-size="14.00">Simple</text>
</g>
<!-- 10&#45;&gt;28 -->
<g id="edge7" class="edge"><title>10&#45;&gt;28</title>
<path fill="none" stroke="black" d="M1798.01,-678.856C1787.11,-670.086 1772.7,-660.189 1758,-655 1734.47,-646.695 1664.16,-664.109 1646,-647 1586.61,-591.058 1622,-546.589 1622,-465 1622,-465 1622,-465 1622,-380 1622,-291.982 1624.81,-246.279 1554,-194 1514.09,-164.537 1183.3,-163.588 1049.17,-164.44"/>
<polygon fill="black" stroke="black" points="1049.07,-160.94 1039.09,-164.51 1049.12,-167.94 1049.07,-160.94"/>
</g>
<!-- 11 -->
<g id="node5" class="node"><title>11</title>
<polygon fill="crimson" stroke="black" points="1982,-715 1902,-715 1902,-719 1890,-719 1890,-679 1982,-679 1982,-715"/>
<polyline fill="none" stroke="black" points="1890,-715 1902,-715 "/>
<text text-anchor="middle" x="1936" y="-693.3" font-family="Times,serif" font-size="14.00">Types</text>
</g>
<!-- 11&#45;&gt;7 -->
<g id="edge8" class="edge"><title>11&#45;&gt;7</title>
<path fill="none" stroke="black" d="M1915.35,-678.984C1880.76,-650.488 1811.05,-593.058 1771.71,-560.65"/>
<polygon fill="black" stroke="black" points="1773.74,-557.791 1763.8,-554.134 1769.29,-563.194 1773.74,-557.791"/>
</g>
<!-- 11&#45;&gt;28 -->
<g id="edge9" class="edge"><title>11&#45;&gt;28</title>
<path fill="none" stroke="black" d="M1917.7,-678.884C1906.99,-670.005 1892.71,-659.995 1878,-655 1856.52,-647.708 1690.34,-662.736 1674,-647 1615.57,-590.722 1660,-546.128 1660,-465 1660,-465 1660,-465 1660,-380 1660,-293.407 1670.51,-246.958 1602,-194 1580.35,-177.267 1196.32,-168.645 1049.46,-165.948"/>
<polygon fill="black" stroke="black" points="1049.37,-162.446 1039.31,-165.764 1049.24,-169.445 1049.37,-162.446"/>
</g>
<!-- 7&#45;&gt;28 -->
<g id="edge1" class="edge"><title>7&#45;&gt;28</title>
<path fill="none" stroke="black" d="M1745.92,-517.655C1754.38,-460.683 1772.52,-278.142 1674,-194 1650.41,-173.848 1208.23,-167.25 1049.3,-165.524"/>
<polygon fill="black" stroke="black" points="1049.28,-162.024 1039.25,-165.417 1049.21,-169.023 1049.28,-162.024"/>
</g>
<!-- 8 -->
<g id="node7" class="node"><title>8</title>
<polygon fill="crimson" stroke="black" points="1592,-715 1508,-715 1508,-719 1496,-719 1496,-679 1592,-679 1592,-715"/>
<polyline fill="none" stroke="black" points="1496,-715 1508,-715 "/>
<text text-anchor="middle" x="1544" y="-693.3" font-family="Times,serif" font-size="14.00">Config</text>
</g>
<!-- 14&#45;&gt;6 -->
<g id="edge22" class="edge"><title>14&#45;&gt;6</title>
<path fill="none" stroke="black" d="M1359.63,-529.184C1444.08,-517.507 1584,-482.93 1584,-382 1584,-382 1584,-382 1584,-235 1584,-147.07 1449.19,-143.528 1388,-130 1148.77,-77.1113 380.743,-51.2441 156.82,-44.701"/>
<polygon fill="black" stroke="black" points="156.67,-41.1953 146.572,-44.404 156.467,-48.1923 156.67,-41.1953"/>
</g>
<!-- 15 -->
<g id="node9" class="node"><title>15</title>
<polygon fill="crimson" stroke="black" points="1209.5,-482 1130.5,-482 1130.5,-486 1118.5,-486 1118.5,-446 1209.5,-446 1209.5,-482"/>
<polyline fill="none" stroke="black" points="1118.5,-482 1130.5,-482 "/>
<text text-anchor="middle" x="1164" y="-460.3" font-family="Times,serif" font-size="14.00">Proxy</text>
</g>
<!-- 14&#45;&gt;15 -->
<g id="edge23" class="edge"><title>14&#45;&gt;15</title>
<path fill="none" stroke="black" d="M1264.46,-517.876C1246.75,-508.554 1224.65,-496.919 1205.68,-486.939"/>
<polygon fill="black" stroke="black" points="1207.14,-483.75 1196.66,-482.19 1203.88,-489.944 1207.14,-483.75"/>
</g>
<!-- 17 -->
<g id="node11" class="node"><title>17</title>
<polygon fill="crimson" stroke="black" points="1257.5,-399 1184.5,-399 1184.5,-403 1172.5,-403 1172.5,-363 1257.5,-363 1257.5,-399"/>
<polyline fill="none" stroke="black" points="1172.5,-399 1184.5,-399 "/>
<text text-anchor="middle" x="1215" y="-377.3" font-family="Times,serif" font-size="14.00">Core</text>
</g>
<!-- 14&#45;&gt;17 -->
<g id="edge24" class="edge"><title>14&#45;&gt;17</title>
<path fill="none" stroke="black" d="M1287.75,-517.746C1273.48,-491.116 1245.98,-439.807 1229.18,-408.462"/>
<polygon fill="black" stroke="black" points="1232.15,-406.586 1224.34,-399.425 1225.98,-409.893 1232.15,-406.586"/>
</g>
<!-- 14&#45;&gt;18 -->
<g id="edge25" class="edge"><title>14&#45;&gt;18</title>
<path fill="none" stroke="black" d="M1254.14,-517.899C1244.68,-514.752 1234.61,-511.873 1225,-510 983.886,-463.019 910.427,-545.023 673,-482 631.12,-470.883 627.662,-449.91 586,-438 547.389,-426.962 532.716,-446.266 496,-430 484.065,-424.712 473.08,-415.546 464.311,-406.63"/>
<polygon fill="black" stroke="black" points="466.865,-404.237 457.495,-399.292 461.736,-409.001 466.865,-404.237"/>
</g>
<!-- 14&#45;&gt;19 -->
<g id="edge26" class="edge"><title>14&#45;&gt;19</title>
<path fill="none" stroke="black" d="M1254.54,-517.976C1244.96,-514.782 1234.75,-511.864 1225,-510 945.789,-456.593 861.488,-552.125 586,-482 542.852,-471.017 538.982,-449.618 496,-438 472.554,-431.663 409.083,-440.11 387,-430 375.842,-424.892 365.82,-415.998 357.856,-407.243"/>
<polygon fill="black" stroke="black" points="360.292,-404.705 351.147,-399.355 354.959,-409.24 360.292,-404.705"/>
</g>
<!-- 23 -->
<g id="node19" class="node"><title>23</title>
<polygon fill="crimson" stroke="black" points="1093.5,-399 1024.5,-399 1024.5,-403 1012.5,-403 1012.5,-363 1093.5,-363 1093.5,-399"/>
<polyline fill="none" stroke="black" points="1012.5,-399 1024.5,-399 "/>
<text text-anchor="middle" x="1053" y="-377.3" font-family="Times,serif" font-size="14.00">Doc</text>
</g>
<!-- 14&#45;&gt;23 -->
<g id="edge27" class="edge"><title>14&#45;&gt;23</title>
<path fill="none" stroke="black" d="M1249.96,-517.931C1241.69,-515.14 1233.13,-512.385 1225,-510 1174.11,-495.062 1151.27,-514.037 1109,-482 1084.83,-463.677 1069.59,-431.717 1061.21,-408.858"/>
<polygon fill="black" stroke="black" points="1064.51,-407.69 1057.94,-399.381 1057.89,-409.976 1064.51,-407.69"/>
</g>
<!-- 27 -->
<g id="node21" class="node"><title>27</title>
<polygon fill="crimson" stroke="black" points="974,-399 898,-399 898,-403 886,-403 886,-363 974,-363 974,-399"/>
<polyline fill="none" stroke="black" points="886,-399 898,-399 "/>
<text text-anchor="middle" x="930" y="-377.3" font-family="Times,serif" font-size="14.00">Smtp</text>
</g>
<!-- 14&#45;&gt;27 -->
<g id="edge28" class="edge"><title>14&#45;&gt;27</title>
<path fill="none" stroke="black" d="M1252.89,-517.999C1243.77,-514.964 1234.16,-512.104 1225,-510 1173.31,-498.122 1032.32,-511.126 988,-482 962.14,-465.005 946.391,-432.208 937.954,-408.807"/>
<polygon fill="black" stroke="black" points="941.197,-407.471 934.68,-399.118 934.565,-409.712 941.197,-407.471"/>
</g>
<!-- 14&#45;&gt;28 -->
<g id="edge29" class="edge"><title>14&#45;&gt;28</title>
<path fill="none" stroke="black" d="M1251.23,-517.926C1242.59,-515.04 1233.57,-512.254 1225,-510 1123.57,-483.34 1052.27,-522.583 1003,-430 981.467,-389.539 987.38,-251.713 991.072,-192.452"/>
<polygon fill="black" stroke="black" points="994.573,-192.548 991.728,-182.342 987.587,-192.094 994.573,-192.548"/>
</g>
<!-- 15&#45;&gt;6 -->
<g id="edge30" class="edge"><title>15&#45;&gt;6</title>
<path fill="none" stroke="black" d="M1135.5,-445.995C1128.68,-442.712 1121.26,-439.752 1114,-438 1069.39,-427.24 333.193,-437.972 288,-430 178.917,-410.758 116.966,-437.431 53,-347 -8.07869,-260.651 50.8254,-125.418 80.3588,-69.0393"/>
<polygon fill="black" stroke="black" points="83.5259,-70.539 85.1606,-60.071 77.3548,-67.2348 83.5259,-70.539"/>
</g>
<!-- 15&#45;&gt;17 -->
<g id="edge31" class="edge"><title>15&#45;&gt;17</title>
<path fill="none" stroke="black" d="M1174.82,-445.822C1181.78,-434.761 1190.96,-420.179 1198.79,-407.746"/>
<polygon fill="black" stroke="black" points="1201.83,-409.48 1204.2,-399.153 1195.91,-405.751 1201.83,-409.48"/>
</g>
<!-- 15&#45;&gt;18 -->
<g id="edge32" class="edge"><title>15&#45;&gt;18</title>
<path fill="none" stroke="black" d="M1135.23,-445.884C1128.49,-442.652 1121.17,-439.741 1114,-438 1080.63,-429.895 527.897,-442.71 496,-430 483.695,-425.097 472.532,-415.81 463.731,-406.702"/>
<polygon fill="black" stroke="black" points="466.231,-404.249 456.92,-399.193 461.046,-408.952 466.231,-404.249"/>
</g>
<!-- 15&#45;&gt;19 -->
<g id="edge33" class="edge"><title>15&#45;&gt;19</title>
<path fill="none" stroke="black" d="M1135.24,-445.874C1128.49,-442.642 1121.17,-439.734 1114,-438 1074.74,-428.504 424.231,-445.662 387,-430 375.405,-425.122 365.135,-415.968 357.1,-406.951"/>
<polygon fill="black" stroke="black" points="359.721,-404.628 350.638,-399.174 354.337,-409.102 359.721,-404.628"/>
</g>
<!-- 15&#45;&gt;23 -->
<g id="edge34" class="edge"><title>15&#45;&gt;23</title>
<path fill="none" stroke="black" d="M1140.46,-445.822C1124.27,-434.009 1102.58,-418.18 1084.85,-405.242"/>
<polygon fill="black" stroke="black" points="1086.65,-402.221 1076.51,-399.153 1082.52,-407.875 1086.65,-402.221"/>
</g>
<!-- 15&#45;&gt;28 -->
<g id="edge35" class="edge"><title>15&#45;&gt;28</title>
<path fill="none" stroke="black" d="M1153.12,-445.699C1150.08,-440.687 1146.83,-435.171 1144,-430 1087.88,-327.481 1100.38,-285.764 1028,-194 1026.75,-192.42 1025.41,-190.867 1024,-189.352"/>
<polygon fill="black" stroke="black" points="1026.15,-186.565 1016.53,-182.132 1021.28,-191.598 1026.15,-186.565"/>
</g>
<!-- 16 -->
<g id="node10" class="node"><title>16</title>
<polygon fill="crimson" stroke="black" points="1216,-554 1130,-554 1130,-558 1118,-558 1118,-518 1216,-518 1216,-554"/>
<polyline fill="none" stroke="black" points="1118,-554 1130,-554 "/>
<text text-anchor="middle" x="1167" y="-532.3" font-family="Times,serif" font-size="14.00">Simple</text>
</g>
<!-- 16&#45;&gt;15 -->
<g id="edge36" class="edge"><title>16&#45;&gt;15</title>
<path fill="none" stroke="black" d="M1166.26,-517.697C1165.93,-509.983 1165.53,-500.712 1165.16,-492.112"/>
<polygon fill="black" stroke="black" points="1168.66,-491.945 1164.73,-482.104 1161.66,-492.245 1168.66,-491.945"/>
</g>
<!-- 16&#45;&gt;17 -->
<g id="edge37" class="edge"><title>16&#45;&gt;17</title>
<path fill="none" stroke="black" d="M1190.3,-517.819C1200.9,-508.538 1212.32,-496.094 1218,-482 1227.4,-458.678 1225.21,-429.755 1221.53,-409.023"/>
<polygon fill="black" stroke="black" points="1224.92,-408.12 1219.52,-399.002 1218.06,-409.494 1224.92,-408.12"/>
</g>
<!-- 16&#45;&gt;19 -->
<g id="edge38" class="edge"><title>16&#45;&gt;19</title>
<path fill="none" stroke="black" d="M1136.08,-517.971C1129.01,-514.777 1121.4,-511.861 1114,-510 881.795,-451.604 812.367,-520.204 576,-482 489.995,-468.099 462.303,-473.813 387,-430 376.705,-424.01 367.058,-415.269 359.152,-406.882"/>
<polygon fill="black" stroke="black" points="361.694,-404.475 352.411,-399.369 356.484,-409.15 361.694,-404.475"/>
</g>
<!-- 16&#45;&gt;23 -->
<g id="edge39" class="edge"><title>16&#45;&gt;23</title>
<path fill="none" stroke="black" d="M1132.87,-517.983C1106.98,-504.771 1075.13,-487.763 1071,-482 1055.87,-460.909 1052.19,-431.027 1051.79,-409.427"/>
<polygon fill="black" stroke="black" points="1055.29,-409.285 1051.83,-399.271 1048.29,-409.257 1055.29,-409.285"/>
</g>
<!-- 16&#45;&gt;28 -->
<g id="edge40" class="edge"><title>16&#45;&gt;28</title>
<path fill="none" stroke="black" d="M1132.19,-517.883C1126.17,-515.127 1119.94,-512.396 1114,-510 1010.89,-468.439 941.833,-520.311 877,-430 831.724,-366.931 924.917,-207.642 937,-194 938.778,-191.992 940.729,-190.103 942.804,-188.328"/>
<polygon fill="black" stroke="black" points="945.349,-190.799 951.31,-182.04 941.188,-185.17 945.349,-190.799"/>
</g>
<!-- 17&#45;&gt;19 -->
<g id="edge41" class="edge"><title>17&#45;&gt;19</title>
<path fill="none" stroke="black" d="M1203.86,-399.144C1194.07,-412.816 1178.38,-429.887 1159,-434 1138.27,-438.4 416.733,-438.4 396,-434 380.105,-430.627 366.566,-418.729 356.677,-407.058"/>
<polygon fill="black" stroke="black" points="359.365,-404.815 350.429,-399.123 353.865,-409.145 359.365,-404.815"/>
</g>
<!-- 20 -->
<g id="node12" class="node"><title>20</title>
<polygon fill="crimson" stroke="black" points="594.5,-182 521.5,-182 521.5,-186 509.5,-186 509.5,-146 594.5,-146 594.5,-182"/>
<polyline fill="none" stroke="black" points="509.5,-182 521.5,-182 "/>
<text text-anchor="middle" x="552" y="-160.3" font-family="Times,serif" font-size="14.00">Core</text>
</g>
<!-- 20&#45;&gt;6 -->
<g id="edge48" class="edge"><title>20&#45;&gt;6</title>
<path fill="none" stroke="black" d="M509.417,-151.818C428.176,-130.486 250.778,-83.9044 156.597,-59.1744"/>
<polygon fill="black" stroke="black" points="157.204,-55.715 146.643,-56.5604 155.426,-62.4855 157.204,-55.715"/>
</g>
<!-- 20&#45;&gt;28 -->
<g id="edge49" class="edge"><title>20&#45;&gt;28</title>
<path fill="none" stroke="black" d="M594.636,-164C708.554,-164 822.473,-164 936.391,-164"/>
<polygon fill="black" stroke="black" points="936.706,-167.5 946.706,-164 936.706,-160.5 936.706,-167.5"/>
</g>
<!-- 21 -->
<g id="node13" class="node"><title>21</title>
<polygon fill="crimson" stroke="black" points="607.5,-399 522.5,-399 522.5,-403 510.5,-403 510.5,-363 607.5,-363 607.5,-399"/>
<polyline fill="none" stroke="black" points="510.5,-399 522.5,-399 "/>
<text text-anchor="middle" x="559" y="-377.3" font-family="Times,serif" font-size="14.00">Protect</text>
</g>
<!-- 21&#45;&gt;6 -->
<g id="edge50" class="edge"><title>21&#45;&gt;6</title>
<path fill="none" stroke="black" d="M528.402,-362.932C521.254,-359.697 513.526,-356.773 506,-355 486.42,-350.386 159.169,-360.212 144,-347 102.758,-311.08 96.1403,-138.381 95.1452,-70.4911"/>
<polygon fill="black" stroke="black" points="98.6413,-70.128 95.0262,-60.169 91.6418,-70.2087 98.6413,-70.128"/>
</g>
<!-- 21&#45;&gt;20 -->
<g id="edge51" class="edge"><title>21&#45;&gt;20</title>
<path fill="none" stroke="black" d="M591.587,-362.746C596.995,-358.362 601.858,-353.121 605,-347 620.527,-316.752 622.336,-223.248 605,-194 604.081,-192.449 603.046,-190.976 601.916,-189.577"/>
<polygon fill="black" stroke="black" points="604.125,-186.842 594.53,-182.35 599.229,-191.845 604.125,-186.842"/>
</g>
<!-- 22 -->
<g id="node14" class="node"><title>22</title>
<polygon fill="crimson" stroke="black" points="596.5,-254 519.5,-254 519.5,-258 507.5,-258 507.5,-218 596.5,-218 596.5,-254"/>
<polyline fill="none" stroke="black" points="507.5,-254 519.5,-254 "/>
<text text-anchor="middle" x="552" y="-232.3" font-family="Times,serif" font-size="14.00">Trans</text>
</g>
<!-- 21&#45;&gt;22 -->
<g id="edge52" class="edge"><title>21&#45;&gt;22</title>
<path fill="none" stroke="black" d="M558.156,-362.751C556.963,-338.379 554.771,-293.607 553.35,-264.586"/>
<polygon fill="black" stroke="black" points="556.832,-264.127 552.847,-254.31 549.841,-264.47 556.832,-264.127"/>
</g>
<!-- 21&#45;&gt;28 -->
<g id="edge53" class="edge"><title>21&#45;&gt;28</title>
<path fill="none" stroke="black" d="M604.073,-362.974C612.003,-360.178 620.21,-357.41 628,-355 641.593,-350.794 647.515,-355.4 659,-347 723.795,-299.608 687.235,-237.039 755,-194 784.23,-175.436 875.991,-168.752 936.66,-166.348"/>
<polygon fill="black" stroke="black" points="936.994,-169.839 946.859,-165.973 936.737,-162.843 936.994,-169.839"/>
</g>
<!-- 22&#45;&gt;20 -->
<g id="edge54" class="edge"><title>22&#45;&gt;20</title>
<path fill="none" stroke="black" d="M552,-217.697C552,-209.983 552,-200.712 552,-192.112"/>
<polygon fill="black" stroke="black" points="555.5,-192.104 552,-182.104 548.5,-192.104 555.5,-192.104"/>
</g>
<!-- 22&#45;&gt;28 -->
<g id="edge55" class="edge"><title>22&#45;&gt;28</title>
<path fill="none" stroke="black" d="M567.1,-217.663C575.778,-208.951 587.432,-199.17 600,-194 659.383,-169.571 842.982,-165.375 936.704,-164.875"/>
<polygon fill="black" stroke="black" points="936.869,-168.374 946.854,-164.833 936.84,-161.374 936.869,-168.374"/>
</g>
<!-- 25 -->
<g id="node15" class="node"><title>25</title>
<polygon fill="crimson" stroke="black" points="730,-399 652,-399 652,-403 640,-403 640,-363 730,-363 730,-399"/>
<polyline fill="none" stroke="black" points="640,-399 652,-399 "/>
<text text-anchor="middle" x="685" y="-377.3" font-family="Times,serif" font-size="14.00">Pages</text>
</g>
<!-- 25&#45;&gt;28 -->
<g id="edge63" class="edge"><title>25&#45;&gt;28</title>
<path fill="none" stroke="black" d="M721.841,-362.913C738.315,-355.223 754.248,-347.696 755,-347 812.388,-293.842 778.414,-239.563 842,-194 857.074,-183.199 900.263,-175.58 936.609,-170.87"/>
<polygon fill="black" stroke="black" points="937.16,-174.329 946.651,-169.619 936.294,-167.383 937.16,-174.329"/>
</g>
<!-- 26 -->
<g id="node16" class="node"><title>26</title>
<polygon fill="crimson" stroke="black" points="828,-399 760,-399 760,-403 748,-403 748,-363 828,-363 828,-399"/>
<polyline fill="none" stroke="black" points="748,-399 760,-399 "/>
<text text-anchor="middle" x="788" y="-377.3" font-family="Times,serif" font-size="14.00">Util</text>
</g>
<!-- 18&#45;&gt;3 -->
<g id="edge42" class="edge"><title>18&#45;&gt;3</title>
<path fill="none" stroke="black" d="M415.533,-362.751C372.804,-336.86 292.078,-287.946 244.888,-259.351"/>
<polygon fill="black" stroke="black" points="246.567,-256.277 236.201,-254.088 242.939,-262.263 246.567,-256.277"/>
</g>
<!-- 18&#45;&gt;6 -->
<g id="edge43" class="edge"><title>18&#45;&gt;6</title>
<path fill="none" stroke="black" d="M410.369,-362.969C402.555,-359.732 394.137,-356.798 386,-355 370.479,-351.571 111.175,-358.304 100,-347 25.96,-272.102 64.293,-129.293 84.8111,-69.9252"/>
<polygon fill="black" stroke="black" points="88.2286,-70.7614 88.2861,-60.1667 81.6342,-68.4131 88.2286,-70.7614"/>
</g>
<!-- 18&#45;&gt;28 -->
<g id="edge44" class="edge"><title>18&#45;&gt;28</title>
<path fill="none" stroke="black" d="M474.599,-362.887C481.454,-359.741 488.826,-356.865 496,-355 510.221,-351.303 616.912,-356.641 628,-347 680.357,-301.475 607.241,-240.204 659,-194 679.225,-175.945 846.933,-168.81 936.731,-166.263"/>
<polygon fill="black" stroke="black" points="936.852,-169.761 946.753,-165.989 936.661,-162.764 936.852,-169.761"/>
</g>
<!-- 19&#45;&gt;20 -->
<g id="edge45" class="edge"><title>19&#45;&gt;20</title>
<path fill="none" stroke="black" d="M350.423,-362.746C374.403,-327.516 433.159,-246.238 498,-194 500.861,-191.695 503.934,-189.484 507.107,-187.383"/>
<polygon fill="black" stroke="black" points="509.002,-190.327 515.671,-182.094 505.324,-184.371 509.002,-190.327"/>
</g>
<!-- 19&#45;&gt;21 -->
<g id="edge46" class="edge"><title>19&#45;&gt;21</title>
<path fill="none" stroke="black" d="M354.028,-399.453C362.855,-409.438 374.675,-421.442 387,-430 390.595,-432.497 391.718,-433.091 396,-434 417.956,-438.659 475.044,-438.659 497,-434 513.818,-430.431 528.628,-418.327 539.553,-406.586"/>
<polygon fill="black" stroke="black" points="542.219,-408.854 546.153,-399.017 536.943,-404.254 542.219,-408.854"/>
</g>
<!-- 19&#45;&gt;22 -->
<g id="edge47" class="edge"><title>19&#45;&gt;22</title>
<path fill="none" stroke="black" d="M367.139,-362.917C373.473,-359.769 380.307,-356.885 387,-355 411.872,-347.996 481.825,-361.809 503,-347 530.254,-327.94 542.558,-290.091 547.967,-264.165"/>
<polygon fill="black" stroke="black" points="551.431,-264.681 549.832,-254.208 544.551,-263.393 551.431,-264.681"/>
</g>
<!-- 23&#45;&gt;28 -->
<g id="edge56" class="edge"><title>23&#45;&gt;28</title>
<path fill="none" stroke="black" d="M1048.19,-362.769C1037.76,-325.408 1013.01,-236.708 1000.51,-191.897"/>
<polygon fill="black" stroke="black" points="1003.81,-190.706 997.748,-182.015 997.065,-192.587 1003.81,-190.706"/>
</g>
<!-- 24 -->
<g id="node20" class="node"><title>24</title>
<polygon fill="crimson" stroke="black" points="789.5,-482 694.5,-482 694.5,-486 682.5,-486 682.5,-446 789.5,-446 789.5,-482"/>
<polyline fill="none" stroke="black" points="682.5,-482 694.5,-482 "/>
<text text-anchor="middle" x="736" y="-460.3" font-family="Times,serif" font-size="14.00">Frontend</text>
</g>
<!-- 24&#45;&gt;25 -->
<g id="edge59" class="edge"><title>24&#45;&gt;25</title>
<path fill="none" stroke="black" d="M725.184,-445.822C718.22,-434.761 709.038,-420.179 701.21,-407.746"/>
<polygon fill="black" stroke="black" points="704.09,-405.751 695.8,-399.153 698.167,-409.48 704.09,-405.751"/>
</g>
<!-- 24&#45;&gt;26 -->
<g id="edge60" class="edge"><title>24&#45;&gt;26</title>
<path fill="none" stroke="black" d="M747.028,-445.822C754.129,-434.761 763.49,-420.179 771.472,-407.746"/>
<polygon fill="black" stroke="black" points="774.531,-409.459 776.988,-399.153 768.64,-405.678 774.531,-409.459"/>
</g>
<!-- 24&#45;&gt;18 -->
<g id="edge57" class="edge"><title>24&#45;&gt;18</title>
<path fill="none" stroke="black" d="M687.653,-445.931C677.017,-442.782 665.725,-439.894 655,-438 620.161,-431.847 528.615,-443.707 496,-430 483.789,-424.868 472.64,-415.545 463.825,-406.472"/>
<polygon fill="black" stroke="black" points="466.328,-404.023 456.997,-399.006 461.163,-408.748 466.328,-404.023"/>
</g>
<!-- 24&#45;&gt;19 -->
<g id="edge58" class="edge"><title>24&#45;&gt;19</title>
<path fill="none" stroke="black" d="M682.415,-452.399C653.9,-447.181 618.171,-441.314 586,-438 563.988,-435.732 407.27,-438.877 387,-430 375.478,-424.954 365.22,-415.772 357.174,-406.779"/>
<polygon fill="black" stroke="black" points="359.798,-404.461 350.698,-399.035 354.428,-408.951 359.798,-404.461"/>
</g>
<!-- 24&#45;&gt;27 -->
<g id="edge61" class="edge"><title>24&#45;&gt;27</title>
<path fill="none" stroke="black" d="M789.622,-451.033C809.626,-445.722 832.259,-438.684 852,-430 867.64,-423.12 883.894,-413.558 897.49,-404.778"/>
<polygon fill="black" stroke="black" points="899.589,-407.587 906.008,-399.158 895.734,-401.744 899.589,-407.587"/>
</g>
<!-- 24&#45;&gt;28 -->
<g id="edge62" class="edge"><title>24&#45;&gt;28</title>
<path fill="none" stroke="black" d="M789.652,-458.073C808.345,-453.583 827.699,-445.266 840,-430 906.095,-347.972 792.305,-272.993 862,-194 872.038,-182.623 905.784,-175.315 936.508,-170.881"/>
<polygon fill="black" stroke="black" points="937.336,-174.301 946.774,-169.486 936.393,-167.365 937.336,-174.301"/>
</g>
<!-- 27&#45;&gt;28 -->
<g id="edge64" class="edge"><title>27&#45;&gt;28</title>
<path fill="none" stroke="black" d="M935.049,-362.769C946.02,-325.329 972.098,-236.333 985.202,-191.614"/>
<polygon fill="black" stroke="black" points="988.561,-192.595 988.014,-182.015 981.844,-190.627 988.561,-192.595"/>
</g>
<!-- 1 -->
<g id="node23" class="node"><title>1</title>
<polygon fill="crimson" stroke="black" points="1866,-883 1772,-883 1772,-887 1760,-887 1760,-847 1866,-847 1866,-883"/>
<polyline fill="none" stroke="black" points="1760,-883 1772,-883 "/>
<text text-anchor="middle" x="1813" y="-861.3" font-family="Times,serif" font-size="14.00">Cabbage</text>
</g>
<!-- 2 -->
<g id="node24" class="node"><title>2</title>
<polygon fill="gold" stroke="black" points="1972,-883 1896,-883 1896,-887 1884,-887 1884,-847 1972,-847 1972,-883"/>
<polyline fill="none" stroke="black" points="1884,-883 1896,-883 "/>
<text text-anchor="middle" x="1928" y="-861.3" font-family="Times,serif" font-size="14.00">Main</text>
</g>
<!-- 4 -->
<g id="node25" class="node"><title>4</title>
<polygon fill="crimson" stroke="black" points="2081.5,-883 2002.5,-883 2002.5,-887 1990.5,-887 1990.5,-847 2081.5,-847 2081.5,-883"/>
<polyline fill="none" stroke="black" points="1990.5,-883 2002.5,-883 "/>
<text text-anchor="middle" x="2036" y="-861.3" font-family="Times,serif" font-size="14.00">Pronk</text>
</g>
<!-- 5 -->
<g id="node26" class="node"><title>5</title>
<polygon fill="crimson" stroke="black" points="2180,-883 2112,-883 2112,-887 2100,-887 2100,-847 2180,-847 2180,-883"/>
<polyline fill="none" stroke="black" points="2100,-883 2112,-883 "/>
<text text-anchor="middle" x="2140" y="-861.3" font-family="Times,serif" font-size="14.00">Site</text>
</g>
<!-- 12 -->
<g id="node27" class="node"><title>12</title>
<polygon fill="crimson" stroke="black" points="1742.5,-883 1643.5,-883 1643.5,-887 1631.5,-887 1631.5,-847 1742.5,-847 1742.5,-883"/>
<polyline fill="none" stroke="black" points="1631.5,-883 1643.5,-883 "/>
<text text-anchor="middle" x="1687" y="-861.3" font-family="Times,serif" font-size="14.00">TestMain</text>
</g>
<!-- 12&#45;&gt;9 -->
<g id="edge10" class="edge"><title>12&#45;&gt;9</title>
<path fill="none" stroke="black" d="M1687,-846.86C1687,-818.157 1687,-760.126 1687,-725.609"/>
<polygon fill="black" stroke="black" points="1690.5,-725.295 1687,-715.295 1683.5,-725.295 1690.5,-725.295"/>
</g>
<!-- 12&#45;&gt;10 -->
<g id="edge11" class="edge"><title>12&#45;&gt;10</title>
<path fill="none" stroke="black" d="M1742.77,-849.649C1748.31,-846.726 1753.53,-843.216 1758,-839 1790.59,-808.235 1805.86,-756.686 1812.48,-725.173"/>
<polygon fill="black" stroke="black" points="1815.92,-725.797 1814.4,-715.312 1809.05,-724.457 1815.92,-725.797"/>
</g>
<!-- 12&#45;&gt;11 -->
<g id="edge12" class="edge"><title>12&#45;&gt;11</title>
<path fill="none" stroke="black" d="M1742.71,-848.512C1745.5,-847.952 1748.28,-847.443 1751,-847 1764.96,-844.73 1866.51,-847.235 1878,-839 1914.73,-812.683 1928.26,-758.769 1933.21,-725.764"/>
<polygon fill="black" stroke="black" points="1936.73,-725.816 1934.57,-715.442 1929.79,-724.896 1936.73,-725.816"/>
</g>
<!-- 12&#45;&gt;19 -->
<g id="edge13" class="edge"><title>12&#45;&gt;19</title>
<path fill="none" stroke="black" d="M1631.19,-863.56C1425.77,-861.819 721.302,-854.726 676,-839 541.642,-792.361 501.886,-763.283 420,-647 366.841,-571.511 347.863,-460.272 341.693,-409.311"/>
<polygon fill="black" stroke="black" points="345.14,-408.646 340.533,-399.105 338.184,-409.436 345.14,-408.646"/>
</g>
<!-- 12&#45;&gt;28 -->
<g id="edge14" class="edge"><title>12&#45;&gt;28</title>
<path fill="none" stroke="black" d="M1631.38,-864.422C1578.61,-863.579 1504.42,-858.751 1484,-839 1327.49,-687.608 1486.1,-558.26 1408,-355 1377.36,-275.255 1376.14,-238.148 1303,-194 1261.65,-169.037 1126.94,-164.795 1049.38,-164.508"/>
<polygon fill="black" stroke="black" points="1049.3,-161.008 1039.29,-164.492 1049.29,-168.008 1049.3,-161.008"/>
</g>
<!-- 13 -->
<g id="node28" class="node"><title>13</title>
<polygon fill="crimson" stroke="black" points="787,-715 697,-715 697,-719 685,-719 685,-679 787,-679 787,-715"/>
<polyline fill="none" stroke="black" points="685,-715 697,-715 "/>
<text text-anchor="middle" x="736" y="-693.3" font-family="Times,serif" font-size="14.00">Thentos</text>
</g>
<!-- 13&#45;&gt;6 -->
<g id="edge15" class="edge"><title>13&#45;&gt;6</title>
<path fill="none" stroke="black" d="M684.757,-680.605C651.522,-671.36 607.097,-660.378 567,-655 303.587,-619.668 0,-730.772 0,-465 0,-465 0,-465 0,-235 0,-169.238 45.3239,-102.72 73.3595,-67.8654"/>
<polygon fill="black" stroke="black" points="76.0888,-70.0569 79.7366,-60.1098 70.6819,-65.611 76.0888,-70.0569"/>
</g>
<!-- 13&#45;&gt;14 -->
<g id="edge16" class="edge"><title>13&#45;&gt;14</title>
<path fill="none" stroke="black" d="M787.139,-696.346C897.198,-696.225 1152.43,-691.051 1225,-647 1256.31,-627.992 1276.66,-589.582 1287.49,-563.569"/>
<polygon fill="black" stroke="black" points="1290.74,-564.858 1291.17,-554.272 1284.24,-562.279 1290.74,-564.858"/>
</g>
<!-- 13&#45;&gt;16 -->
<g id="edge17" class="edge"><title>13&#45;&gt;16</title>
<path fill="none" stroke="black" d="M787.18,-695.273C878.05,-693.038 1062.83,-683.946 1114,-647 1141.34,-627.259 1155.17,-589.576 1161.72,-563.872"/>
<polygon fill="black" stroke="black" points="1165.16,-564.543 1164.03,-554.009 1158.34,-562.947 1165.16,-564.543"/>
</g>
<!-- 13&#45;&gt;18 -->
<g id="edge18" class="edge"><title>13&#45;&gt;18</title>
<path fill="none" stroke="black" d="M719.885,-678.671C671.027,-626.131 524.41,-468.469 467.212,-406.961"/>
<polygon fill="black" stroke="black" points="469.438,-404.215 460.065,-399.276 464.312,-408.982 469.438,-404.215"/>
</g>
<!-- 13&#45;&gt;19 -->
<g id="edge19" class="edge"><title>13&#45;&gt;19</title>
<path fill="none" stroke="black" d="M684.72,-689.741C648.194,-683.415 599.186,-670.986 562,-647 462.852,-583.046 384.683,-461.446 353.582,-408.141"/>
<polygon fill="black" stroke="black" points="356.518,-406.225 348.495,-399.305 350.451,-409.718 356.518,-406.225"/>
</g>
<!-- 13&#45;&gt;24 -->
<g id="edge20" class="edge"><title>13&#45;&gt;24</title>
<path fill="none" stroke="black" d="M736,-678.637C736,-638.824 736,-540.686 736,-492.539"/>
<polygon fill="black" stroke="black" points="739.5,-492.249 736,-482.249 732.5,-492.249 739.5,-492.249"/>
</g>
<!-- 13&#45;&gt;28 -->
<g id="edge21" class="edge"><title>13&#45;&gt;28</title>
<path fill="none" stroke="black" d="M787.182,-695.708C930.844,-694.389 1330.11,-687.114 1372,-647 1430.85,-590.65 1394,-546.478 1394,-465 1394,-465 1394,-465 1394,-380 1394,-225.456 1159.8,-181.556 1049.36,-169.446"/>
<polygon fill="black" stroke="black" points="1049.7,-165.963 1039.39,-168.403 1048.97,-172.925 1049.7,-165.963"/>
</g>
</g>
</svg>
