<?xml version="1.0" encoding="UTF-8" standalone="no"?>
<!DOCTYPE svg PUBLIC "-//W3C//DTD SVG 1.1//EN"
 "http://www.w3.org/Graphics/SVG/1.1/DTD/svg11.dtd">
<!-- Generated by graphviz version 2.38.0 (20140413.2041)
 -->
<!-- Title: Import visualisation Pages: 1 -->
<svg width="4769pt" height="1074pt"
 viewBox="0.00 0.00 4769.45 1074.00" xmlns="http://www.w3.org/2000/svg" xmlns:xlink="http://www.w3.org/1999/xlink">
<g id="graph0" class="graph" transform="scale(1 1) rotate(0) translate(4 1070)">
<title>Import visualisation</title>
<polygon fill="white" stroke="none" points="-4,4 -4,-1070 4765.45,-1070 4765.45,4 -4,4"/>
<g id="clust1" class="cluster"><title>cluster_Blackbox</title>
<polygon fill="lavender" stroke="black" points="1981.45,-450 1981.45,-921 2333.45,-921 2333.45,-450 1981.45,-450"/>
<text text-anchor="middle" x="2157.45" y="-905.8" font-family="Times,serif" font-size="14.00">Blackbox</text>
</g>
<g id="clust2" class="cluster"><title>cluster_Control</title>
<polygon fill="lavender" stroke="black" points="4151.45,-426 4151.45,-1058 4541.45,-1058 4541.45,-426 4151.45,-426"/>
<text text-anchor="middle" x="4346.45" y="-1042.8" font-family="Times,serif" font-size="14.00">Control</text>
</g>
<g id="clust3" class="cluster"><title>cluster_Access</title>
<polygon fill="snow" stroke="black" points="4159.45,-434 4159.45,-1027 4533.45,-1027 4533.45,-434 4159.45,-434"/>
<text text-anchor="middle" x="4346.45" y="-1011.8" font-family="Times,serif" font-size="14.00">Access</text>
</g>
<g id="clust4" class="cluster"><title>cluster_RoleBased</title>
<polygon fill="lavender" stroke="black" points="4167.45,-442 4167.45,-996 4525.45,-996 4525.45,-442 4167.45,-442"/>
<text text-anchor="middle" x="4346.45" y="-980.8" font-family="Times,serif" font-size="14.00">RoleBased</text>
</g>
<g id="clust5" class="cluster"><title>cluster_Internal</title>
<polygon fill="snow" stroke="black" points="4379.45,-450 4379.45,-921 4505.45,-921 4505.45,-450 4379.45,-450"/>
<text text-anchor="middle" x="4442.45" y="-905.8" font-family="Times,serif" font-size="14.00">Internal</text>
</g>
<g id="clust6" class="cluster"><title>cluster_Snap</title>
<polygon fill="lavender" stroke="black" points="204.447,-8 204.447,-846 1672.45,-846 1672.45,-8 204.447,-8"/>
<text text-anchor="middle" x="938.447" y="-830.8" font-family="Times,serif" font-size="14.00">Snap</text>
</g>
<g id="clust7" class="cluster"><title>cluster_Snaplet</title>
<polygon fill="snow" stroke="black" points="486.447,-16 486.447,-815 1664.45,-815 1664.45,-16 486.447,-16"/>
<text text-anchor="middle" x="1075.45" y="-799.8" font-family="Times,serif" font-size="14.00">Snaplet</text>
</g>
<g id="clust11" class="cluster"><title>cluster_Internal</title>
<polygon fill="lavender" stroke="black" points="1222.45,-450 1222.45,-784 1560.45,-784 1560.45,-450 1222.45,-450"/>
<text text-anchor="middle" x="1391.45" y="-768.8" font-family="Times,serif" font-size="14.00">Internal</text>
</g>
<g id="clust12" class="cluster"><title>cluster_LensT</title>
<polygon fill="snow" stroke="black" points="1448.45,-678 1448.45,-753 1552.45,-753 1552.45,-678 1448.45,-678"/>
<text text-anchor="middle" x="1500.45" y="-737.8" font-family="Times,serif" font-size="14.00">LensT</text>
</g>
<g id="clust13" class="cluster"><title>cluster_Lensed</title>
<polygon fill="snow" stroke="black" points="1336.45,-678 1336.45,-753 1440.45,-753 1440.45,-678 1336.45,-678"/>
<text text-anchor="middle" x="1388.45" y="-737.8" font-family="Times,serif" font-size="14.00">Lensed</text>
</g>
<g id="clust14" class="cluster"><title>cluster_RST</title>
<polygon fill="snow" stroke="black" points="1230.45,-533 1230.45,-608 1334.45,-608 1334.45,-533 1230.45,-533"/>
<text text-anchor="middle" x="1282.45" y="-592.8" font-family="Times,serif" font-size="14.00">RST</text>
</g>
<g id="clust8" class="cluster"><title>cluster_Auth</title>
<polygon fill="lavender" stroke="black" points="920.447,-260 920.447,-608 1214.45,-608 1214.45,-260 920.447,-260"/>
<text text-anchor="middle" x="1067.45" y="-592.8" font-family="Times,serif" font-size="14.00">Auth</text>
</g>
<g id="clust9" class="cluster"><title>cluster_Backends</title>
<polygon fill="snow" stroke="black" points="1086.45,-450 1086.45,-525 1206.45,-525 1206.45,-450 1086.45,-450"/>
<text text-anchor="middle" x="1146.45" y="-509.8" font-family="Times,serif" font-size="14.00">Backends</text>
</g>
<g id="clust10" class="cluster"><title>cluster_Heist</title>
<polygon fill="lavender" stroke="black" points="494.447,-450 494.447,-608 880.447,-608 880.447,-450 494.447,-450"/>
<text text-anchor="middle" x="687.447" y="-592.8" font-family="Times,serif" font-size="14.00">Heist</text>
</g>
<g id="clust15" class="cluster"><title>cluster_Session</title>
<polygon fill="lavender" stroke="black" points="1197.45,-24 1197.45,-252 1641.45,-252 1641.45,-24 1197.45,-24"/>
<text text-anchor="middle" x="1419.45" y="-236.8" font-family="Times,serif" font-size="14.00">Session</text>
</g>
<g id="clust16" class="cluster"><title>cluster_Backends</title>
<polygon fill="snow" stroke="black" points="1477.45,-146 1477.45,-221 1633.45,-221 1633.45,-146 1477.45,-146"/>
<text text-anchor="middle" x="1555.45" y="-205.8" font-family="Times,serif" font-size="14.00">Backends</text>
</g>
<g id="clust17" class="cluster"><title>cluster_System</title>
<polygon fill="lavender" stroke="black" points="2514.45,-16 2514.45,-130 2650.45,-130 2650.45,-16 2514.45,-16"/>
<text text-anchor="middle" x="2582.45" y="-114.8" font-family="Times,serif" font-size="14.00">System</text>
</g>
<g id="clust18" class="cluster"><title>cluster_Log</title>
<polygon fill="snow" stroke="black" points="2522.45,-24 2522.45,-99 2642.45,-99 2642.45,-24 2522.45,-24"/>
<text text-anchor="middle" x="2582.45" y="-83.8" font-family="Times,serif" font-size="14.00">Log</text>
</g>
<g id="clust19" class="cluster"><title>cluster_Test</title>
<polygon fill="lavender" stroke="black" points="3797.45,-260 3797.45,-335 4037.45,-335 4037.45,-260 3797.45,-260"/>
<text text-anchor="middle" x="3917.45" y="-319.8" font-family="Times,serif" font-size="14.00">Test</text>
</g>
<g id="clust20" class="cluster"><title>cluster_Thentos</title>
<polygon fill="lavender" stroke="black" points="2621.45,-138 2621.45,-670 3789.45,-670 3789.45,-138 2621.45,-138"/>
<text text-anchor="middle" x="3205.45" y="-654.8" font-family="Times,serif" font-size="14.00">Thentos</text>
</g>
<g id="clust21" class="cluster"><title>cluster_Backend</title>
<polygon fill="snow" stroke="black" points="2815.45,-260 2815.45,-639 3141.45,-639 3141.45,-260 2815.45,-260"/>
<text text-anchor="middle" x="2978.45" y="-623.8" font-family="Times,serif" font-size="14.00">Backend</text>
</g>
<g id="clust22" class="cluster"><title>cluster_Api</title>
<polygon fill="lavender" stroke="black" points="2823.45,-343 2823.45,-608 3133.45,-608 3133.45,-343 2823.45,-343"/>
<text text-anchor="middle" x="2978.45" y="-592.8" font-family="Times,serif" font-size="14.00">Api</text>
</g>
<g id="clust23" class="cluster"><title>cluster_DB</title>
<polygon fill="snow" stroke="black" points="3571.45,-146 3571.45,-418 3695.45,-418 3695.45,-146 3571.45,-146"/>
<text text-anchor="middle" x="3633.45" y="-402.8" font-family="Times,serif" font-size="14.00">DB</text>
</g>
<g id="clust24" class="cluster"><title>cluster_Frontend</title>
<polygon fill="snow" stroke="black" points="3327.45,-343 3327.45,-418 3531.45,-418 3531.45,-343 3327.45,-343"/>
<text text-anchor="middle" x="3429.45" y="-402.8" font-family="Times,serif" font-size="14.00">Frontend</text>
</g>
<!-- 2 -->
<g id="node1" class="node"><title>2</title>
<polygon fill="crimson" stroke="black" points="2177.45,-890 2107.45,-890 2107.45,-894 2095.45,-894 2095.45,-854 2177.45,-854 2177.45,-890"/>
<polyline fill="none" stroke="black" points="2095.45,-890 2107.45,-890 "/>
<text text-anchor="middle" x="2136.45" y="-868.3" font-family="Times,serif" font-size="14.00">App</text>
</g>
<!-- 3 -->
<g id="node2" class="node"><title>3</title>
<polygon fill="crimson" stroke="black" points="2304.95,-577 2197.95,-577 2197.95,-581 2185.95,-581 2185.95,-541 2304.95,-541 2304.95,-577"/>
<polyline fill="none" stroke="black" points="2185.95,-577 2197.95,-577 "/>
<text text-anchor="middle" x="2245.45" y="-555.3" font-family="Times,serif" font-size="14.00">BarSnaplet</text>
</g>
<!-- 2&#45;&gt;3 -->
<g id="edge5" class="edge"><title>2&#45;&gt;3</title>
<path fill="none" stroke="black" d="M2177.52,-857.857C2182.81,-854.686 2187.69,-850.786 2191.45,-846 2252.42,-768.3 2251.77,-642.515 2248.05,-587.376"/>
<polygon fill="black" stroke="black" points="2251.53,-587.029 2247.28,-577.325 2244.55,-587.562 2251.53,-587.029"/>
</g>
<!-- 4 -->
<g id="node3" class="node"><title>4</title>
<polygon fill="crimson" stroke="black" points="2147.45,-577 2001.45,-577 2001.45,-581 1989.45,-581 1989.45,-541 2147.45,-541 2147.45,-577"/>
<polyline fill="none" stroke="black" points="1989.45,-577 2001.45,-577 "/>
<text text-anchor="middle" x="2068.45" y="-555.3" font-family="Times,serif" font-size="14.00">EmbeddedSnaplet</text>
</g>
<!-- 2&#45;&gt;4 -->
<g id="edge6" class="edge"><title>2&#45;&gt;4</title>
<path fill="none" stroke="black" d="M2095.3,-858.643C2089.87,-855.355 2084.97,-851.212 2081.45,-846 2027.01,-765.529 2048.12,-641.205 2061.15,-586.911"/>
<polygon fill="black" stroke="black" points="2064.6,-587.57 2063.63,-577.02 2057.8,-585.872 2064.6,-587.57"/>
</g>
<!-- 5 -->
<g id="node4" class="node"><title>5</title>
<polygon fill="crimson" stroke="black" points="2147.45,-494 2039.45,-494 2039.45,-498 2027.45,-498 2027.45,-458 2147.45,-458 2147.45,-494"/>
<polyline fill="none" stroke="black" points="2027.45,-494 2039.45,-494 "/>
<text text-anchor="middle" x="2087.45" y="-472.3" font-family="Times,serif" font-size="14.00">FooSnaplet</text>
</g>
<!-- 2&#45;&gt;5 -->
<g id="edge7" class="edge"><title>2&#45;&gt;5</title>
<path fill="none" stroke="black" d="M2177.85,-866.441C2193.81,-862.955 2211.34,-856.814 2224.45,-846 2336.02,-753.973 2402.57,-646.902 2313.45,-533 2294.29,-508.511 2216.53,-493.231 2157.53,-484.936"/>
<polygon fill="black" stroke="black" points="2157.87,-481.45 2147.49,-483.566 2156.93,-488.386 2157.87,-481.45"/>
</g>
<!-- 7 -->
<g id="node6" class="node"><title>7</title>
<polygon fill="crimson" stroke="black" points="2182.45,-722 2102.45,-722 2102.45,-726 2090.45,-726 2090.45,-686 2182.45,-686 2182.45,-722"/>
<polyline fill="none" stroke="black" points="2090.45,-722 2102.45,-722 "/>
<text text-anchor="middle" x="2136.45" y="-700.3" font-family="Times,serif" font-size="14.00">Types</text>
</g>
<!-- 2&#45;&gt;7 -->
<g id="edge8" class="edge"><title>2&#45;&gt;7</title>
<path fill="none" stroke="black" d="M2136.45,-853.86C2136.45,-825.157 2136.45,-767.126 2136.45,-732.609"/>
<polygon fill="black" stroke="black" points="2139.95,-732.295 2136.45,-722.295 2132.95,-732.295 2139.95,-732.295"/>
</g>
<!-- 41 -->
<g id="node29" class="node"><title>41</title>
<polygon fill="crimson" stroke="black" points="1624.95,-190 1497.95,-190 1497.95,-194 1485.95,-194 1485.95,-154 1624.95,-154 1624.95,-190"/>
<polyline fill="none" stroke="black" points="1485.95,-190 1497.95,-190 "/>
<text text-anchor="middle" x="1555.45" y="-168.3" font-family="Times,serif" font-size="14.00">CookieSession</text>
</g>
<!-- 2&#45;&gt;41 -->
<g id="edge13" class="edge"><title>2&#45;&gt;41</title>
<path fill="none" stroke="black" d="M2095.4,-856.776C2092.05,-855.781 2088.7,-854.841 2085.45,-854 2066.63,-849.137 2057.21,-858.642 2042.45,-846 1979.45,-792.065 1994.42,-751.747 1980.45,-670 1961.95,-561.818 1937.08,-499.653 2018.45,-426 2143.68,-312.645 2283.28,-467.972 2387.45,-335 2408,-308.759 2409.76,-284.766 2387.45,-260 2337.61,-204.684 1833.78,-182.164 1635.25,-175.393"/>
<polygon fill="black" stroke="black" points="1635.28,-171.892 1625.17,-175.054 1635.05,-178.888 1635.28,-171.892"/>
</g>
<!-- 28 -->
<g id="node34" class="node"><title>28</title>
<polygon fill="crimson" stroke="black" points="1655.95,-494 1580.95,-494 1580.95,-498 1568.95,-498 1568.95,-458 1655.95,-458 1655.95,-494"/>
<polyline fill="none" stroke="black" points="1568.95,-494 1580.95,-494 "/>
<text text-anchor="middle" x="1612.45" y="-472.3" font-family="Times,serif" font-size="14.00">Heist</text>
</g>
<!-- 2&#45;&gt;28 -->
<g id="edge10" class="edge"><title>2&#45;&gt;28</title>
<path fill="none" stroke="black" d="M2095.24,-856.124C2091.96,-855.289 2088.66,-854.562 2085.45,-854 2067.44,-850.852 1770.83,-857.281 1756.45,-846 1643.01,-757.055 1745.35,-656.762 1671.45,-533 1664.23,-520.922 1653.7,-509.765 1643.53,-500.641"/>
<polygon fill="black" stroke="black" points="1645.74,-497.931 1635.87,-494.078 1641.19,-503.245 1645.74,-497.931"/>
</g>
<!-- 33 -->
<g id="node35" class="node"><title>33</title>
<polygon fill="crimson" stroke="black" points="700.947,-387 579.947,-387 579.947,-391 567.947,-391 567.947,-351 700.947,-351 700.947,-387"/>
<polyline fill="none" stroke="black" points="567.947,-387 579.947,-387 "/>
<text text-anchor="middle" x="634.447" y="-365.3" font-family="Times,serif" font-size="14.00">HeistNoClass</text>
</g>
<!-- 2&#45;&gt;33 -->
<g id="edge11" class="edge"><title>2&#45;&gt;33</title>
<path fill="none" stroke="black" d="M2095.24,-856.151C2091.95,-855.309 2088.66,-854.574 2085.45,-854 2071.66,-851.537 1844.93,-854.024 1833.45,-846 1668.52,-730.735 1830.57,-539.524 1664.45,-426 1647.29,-414.276 937.143,-419.86 916.447,-418 846.338,-411.698 767.416,-397.66 710.932,-386.384"/>
<polygon fill="black" stroke="black" points="711.502,-382.929 701.008,-384.385 710.12,-389.791 711.502,-382.929"/>
</g>
<!-- 40 -->
<g id="node36" class="node"><title>40</title>
<polygon fill="crimson" stroke="black" points="1322.45,-304 1234.45,-304 1234.45,-308 1222.45,-308 1222.45,-268 1322.45,-268 1322.45,-304"/>
<polyline fill="none" stroke="black" points="1222.45,-304 1234.45,-304 "/>
<text text-anchor="middle" x="1272.45" y="-282.3" font-family="Times,serif" font-size="14.00">Session</text>
</g>
<!-- 2&#45;&gt;40 -->
<g id="edge12" class="edge"><title>2&#45;&gt;40</title>
<path fill="none" stroke="black" d="M2095.23,-856.171C2091.95,-855.325 2088.66,-854.583 2085.45,-854 2062.04,-849.75 1890.64,-860.062 1871.45,-846 1856.55,-835.086 1766.07,-550.24 1759.45,-533 1741,-485.003 1753.34,-460.761 1715.45,-426 1606.53,-326.075 1426.34,-297.984 1332.88,-290.087"/>
<polygon fill="black" stroke="black" points="1332.99,-286.585 1322.74,-289.282 1332.43,-293.563 1332.99,-286.585"/>
</g>
<!-- 21 -->
<g id="node38" class="node"><title>21</title>
<polygon fill="crimson" stroke="black" points="477.947,-190 390.947,-190 390.947,-194 378.947,-194 378.947,-154 477.947,-154 477.947,-190"/>
<polyline fill="none" stroke="black" points="378.947,-190 390.947,-190 "/>
<text text-anchor="middle" x="428.447" y="-168.3" font-family="Times,serif" font-size="14.00">Snaplet</text>
</g>
<!-- 2&#45;&gt;21 -->
<g id="edge9" class="edge"><title>2&#45;&gt;21</title>
<path fill="none" stroke="black" d="M2095.21,-856.304C2091.93,-855.428 2088.65,-854.643 2085.45,-854 2062.07,-849.305 1998.4,-859.056 1978.45,-846 1855.17,-765.336 1794,-337.069 1668.45,-260 1657.2,-253.097 1206.62,-252.79 1193.45,-252 929.699,-236.19 616.588,-197.616 488.032,-180.92"/>
<polygon fill="black" stroke="black" points="488.367,-177.434 477.999,-179.612 487.463,-184.375 488.367,-177.434"/>
</g>
<!-- 3&#45;&gt;5 -->
<g id="edge14" class="edge"><title>3&#45;&gt;5</title>
<path fill="none" stroke="black" d="M2197.18,-540.956C2185.29,-536.237 2172.73,-530.803 2161.45,-525 2147.17,-517.661 2132.18,-508.286 2119.46,-499.771"/>
<polygon fill="black" stroke="black" points="2121.28,-496.779 2111.04,-494.05 2117.34,-502.568 2121.28,-496.779"/>
</g>
<!-- 3&#45;&gt;28 -->
<g id="edge16" class="edge"><title>3&#45;&gt;28</title>
<path fill="none" stroke="black" d="M2192.24,-540.915C2180.56,-537.767 2168.17,-534.883 2156.45,-533 2077.82,-520.371 2056.78,-531.976 1977.45,-525 1866.4,-515.235 1737.23,-496.494 1666.19,-485.541"/>
<polygon fill="black" stroke="black" points="1666.55,-482.057 1656.14,-483.984 1665.48,-488.974 1666.55,-482.057"/>
</g>
<!-- 3&#45;&gt;21 -->
<g id="edge15" class="edge"><title>3&#45;&gt;21</title>
<path fill="none" stroke="black" d="M2234,-540.859C2210.49,-505.695 2158.8,-428.474 2156.45,-426 2110.11,-377.208 2081.2,-384.343 2035.45,-335 2008.54,-305.98 2022.07,-279.174 1987.45,-260 1968.15,-249.314 1215.47,-253.245 1193.45,-252 929.647,-237.082 616.565,-198.022 488.024,-181.057"/>
<polygon fill="black" stroke="black" points="488.365,-177.572 477.992,-179.729 487.446,-184.511 488.365,-177.572"/>
</g>
<!-- 4&#45;&gt;28 -->
<g id="edge18" class="edge"><title>4&#45;&gt;28</title>
<path fill="none" stroke="black" d="M1989.28,-543.937C1896.77,-527.505 1746.21,-500.761 1666.28,-486.563"/>
<polygon fill="black" stroke="black" points="1666.41,-483.031 1655.95,-484.728 1665.19,-489.923 1666.41,-483.031"/>
</g>
<!-- 4&#45;&gt;21 -->
<g id="edge17" class="edge"><title>4&#45;&gt;21</title>
<path fill="none" stroke="black" d="M2036.21,-540.893C2029.72,-536.371 2023.39,-531.038 2018.45,-525 1998.34,-500.421 1937.67,-277.906 1911.45,-260 1894.97,-248.753 1213.36,-253.137 1193.45,-252 929.655,-236.942 616.568,-197.958 488.026,-181.036"/>
<polygon fill="black" stroke="black" points="488.365,-177.55 477.993,-179.71 487.449,-184.49 488.365,-177.55"/>
</g>
<!-- 5&#45;&gt;28 -->
<g id="edge20" class="edge"><title>5&#45;&gt;28</title>
<path fill="none" stroke="black" d="M2027.2,-476C1906.87,-476 1786.53,-476 1666.2,-476"/>
<polygon fill="black" stroke="black" points="1666.05,-472.5 1656.05,-476 1666.05,-479.5 1666.05,-472.5"/>
</g>
<!-- 5&#45;&gt;21 -->
<g id="edge19" class="edge"><title>5&#45;&gt;21</title>
<path fill="none" stroke="black" d="M2076.35,-457.765C2059.35,-431.351 2025.84,-379.265 1997.45,-335 1976.08,-301.688 1984.06,-279.183 1949.45,-260 1931.08,-249.821 1214.41,-253.191 1193.45,-252 929.651,-237.015 616.566,-197.991 488.025,-181.047"/>
<polygon fill="black" stroke="black" points="488.365,-177.562 477.993,-179.72 487.447,-184.501 488.365,-177.562"/>
</g>
<!-- 6 -->
<g id="node5" class="node"><title>6</title>
<polygon fill="crimson" stroke="black" points="2076.95,-890 2001.95,-890 2001.95,-894 1989.95,-894 1989.95,-854 2076.95,-854 2076.95,-890"/>
<polyline fill="none" stroke="black" points="1989.95,-890 2001.95,-890 "/>
<text text-anchor="middle" x="2033.45" y="-868.3" font-family="Times,serif" font-size="14.00">Tests</text>
</g>
<!-- 7&#45;&gt;3 -->
<g id="edge21" class="edge"><title>7&#45;&gt;3</title>
<path fill="none" stroke="black" d="M2156.1,-685.916C2161.33,-680.998 2166.8,-675.477 2171.45,-670 2194.22,-643.158 2216.19,-609.131 2230.19,-586.082"/>
<polygon fill="black" stroke="black" points="2233.36,-587.603 2235.51,-577.228 2227.36,-584 2233.36,-587.603"/>
</g>
<!-- 7&#45;&gt;4 -->
<g id="edge22" class="edge"><title>7&#45;&gt;4</title>
<path fill="none" stroke="black" d="M2128.24,-685.751C2116.5,-661.057 2094.8,-615.42 2081.02,-586.444"/>
<polygon fill="black" stroke="black" points="2084.13,-584.838 2076.68,-577.31 2077.81,-587.844 2084.13,-584.838"/>
</g>
<!-- 7&#45;&gt;5 -->
<g id="edge23" class="edge"><title>7&#45;&gt;5</title>
<path fill="none" stroke="black" d="M2149.35,-685.667C2152.26,-680.836 2154.93,-675.42 2156.45,-670 2172.83,-611.357 2182.63,-587.972 2156.45,-533 2150.2,-519.886 2139.22,-508.844 2127.82,-500.123"/>
<polygon fill="black" stroke="black" points="2129.69,-497.154 2119.52,-494.187 2125.62,-502.849 2129.69,-497.154"/>
</g>
<!-- 7&#45;&gt;28 -->
<g id="edge25" class="edge"><title>7&#45;&gt;28</title>
<path fill="none" stroke="black" d="M2090.1,-702.36C2043.09,-700.326 1968.98,-693.261 1909.45,-670 1809.09,-630.79 1800.61,-590.422 1709.45,-533 1690.95,-521.351 1670,-509.135 1652.31,-499.096"/>
<polygon fill="black" stroke="black" points="1653.82,-495.928 1643.39,-494.059 1650.37,-502.023 1653.82,-495.928"/>
</g>
<!-- 7&#45;&gt;40 -->
<g id="edge26" class="edge"><title>7&#45;&gt;40</title>
<path fill="none" stroke="black" d="M2090.16,-697.9C2050.44,-692.695 1997.06,-683.462 1980.45,-670 1856.92,-569.917 1964.26,-436.184 1835.45,-343 1795.41,-314.032 1470.36,-296 1333.18,-289.613"/>
<polygon fill="black" stroke="black" points="1333,-286.101 1322.85,-289.138 1332.68,-293.094 1333,-286.101"/>
</g>
<!-- 7&#45;&gt;21 -->
<g id="edge24" class="edge"><title>7&#45;&gt;21</title>
<path fill="none" stroke="black" d="M2182.68,-700.887C2229.45,-697.665 2297.12,-689.656 2313.45,-670 2352.36,-623.165 2337.01,-589.146 2313.45,-533 2265.63,-419.051 2220.73,-398.76 2110.45,-343 2095.43,-335.408 2087.26,-344.6 2073.45,-335 2040.95,-312.419 2060.07,-279.166 2025.45,-260 2005.23,-248.807 1216.52,-253.3 1193.45,-252 929.644,-237.143 616.563,-198.049 488.024,-181.067"/>
<polygon fill="black" stroke="black" points="488.365,-177.581 477.992,-179.737 487.445,-184.521 488.365,-177.581"/>
</g>
<!-- 10 -->
<g id="node7" class="node"><title>10</title>
<polygon fill="crimson" stroke="black" points="4482.45,-494 4410.45,-494 4410.45,-498 4398.45,-498 4398.45,-458 4482.45,-458 4482.45,-494"/>
<polyline fill="none" stroke="black" points="4398.45,-494 4410.45,-494 "/>
<text text-anchor="middle" x="4440.45" y="-472.3" font-family="Times,serif" font-size="14.00">Role</text>
</g>
<!-- 11 -->
<g id="node8" class="node"><title>11</title>
<polygon fill="crimson" stroke="black" points="4497.45,-890 4399.45,-890 4399.45,-894 4387.45,-894 4387.45,-854 4497.45,-854 4497.45,-890"/>
<polyline fill="none" stroke="black" points="4387.45,-890 4399.45,-890 "/>
<text text-anchor="middle" x="4442.45" y="-868.3" font-family="Times,serif" font-size="14.00">RoleMap</text>
</g>
<!-- 13 -->
<g id="node10" class="node"><title>13</title>
<polygon fill="crimson" stroke="black" points="4483.45,-722 4403.45,-722 4403.45,-726 4391.45,-726 4391.45,-686 4483.45,-686 4483.45,-722"/>
<polyline fill="none" stroke="black" points="4391.45,-722 4403.45,-722 "/>
<text text-anchor="middle" x="4437.45" y="-700.3" font-family="Times,serif" font-size="14.00">Types</text>
</g>
<!-- 11&#45;&gt;13 -->
<g id="edge30" class="edge"><title>11&#45;&gt;13</title>
<path fill="none" stroke="black" d="M4441.93,-853.86C4441.07,-825.157 4439.32,-767.126 4438.28,-732.609"/>
<polygon fill="black" stroke="black" points="4441.77,-732.185 4437.97,-722.295 4434.77,-732.396 4441.77,-732.185"/>
</g>
<!-- 14 -->
<g id="node12" class="node"><title>14</title>
<polygon fill="crimson" stroke="black" points="4369.45,-890 4297.45,-890 4297.45,-894 4285.45,-894 4285.45,-854 4369.45,-854 4369.45,-890"/>
<polyline fill="none" stroke="black" points="4285.45,-890 4297.45,-890 "/>
<text text-anchor="middle" x="4327.45" y="-868.3" font-family="Times,serif" font-size="14.00">Role</text>
</g>
<!-- 11&#45;&gt;14 -->
<g id="edge31" class="edge"><title>11&#45;&gt;14</title>
<path fill="none" stroke="black" d="M4387.3,-872C4384.82,-872 4382.34,-872 4379.86,-872"/>
<polygon fill="black" stroke="black" points="4379.67,-868.5 4369.67,-872 4379.67,-875.5 4379.67,-868.5"/>
</g>
<!-- 12 -->
<g id="node9" class="node"><title>12</title>
<polygon fill="crimson" stroke="black" points="4494.45,-577 4422.45,-577 4422.45,-581 4410.45,-581 4410.45,-541 4494.45,-541 4494.45,-577"/>
<polyline fill="none" stroke="black" points="4410.45,-577 4422.45,-577 "/>
<text text-anchor="middle" x="4452.45" y="-555.3" font-family="Times,serif" font-size="14.00">Rule</text>
</g>
<!-- 12&#45;&gt;10 -->
<g id="edge32" class="edge"><title>12&#45;&gt;10</title>
<path fill="none" stroke="black" d="M4449.9,-540.822C4448.33,-530.19 4446.27,-516.306 4444.48,-504.204"/>
<polygon fill="black" stroke="black" points="4447.92,-503.532 4442.99,-494.153 4440.99,-504.558 4447.92,-503.532"/>
</g>
<!-- 13&#45;&gt;10 -->
<g id="edge33" class="edge"><title>13&#45;&gt;10</title>
<path fill="none" stroke="black" d="M4412.93,-685.746C4408.27,-681.203 4404.04,-675.898 4401.45,-670 4376.93,-614.265 4383.21,-591.094 4401.45,-533 4404.89,-522.035 4411.32,-511.34 4417.98,-502.284"/>
<polygon fill="black" stroke="black" points="4420.95,-504.18 4424.35,-494.148 4415.43,-499.865 4420.95,-504.18"/>
</g>
<!-- 13&#45;&gt;12 -->
<g id="edge34" class="edge"><title>13&#45;&gt;12</title>
<path fill="none" stroke="black" d="M4439.26,-685.751C4441.81,-661.379 4446.51,-616.607 4449.55,-587.586"/>
<polygon fill="black" stroke="black" points="4453.07,-587.621 4450.63,-577.31 4446.11,-586.891 4453.07,-587.621"/>
</g>
<!-- 9 -->
<g id="node11" class="node"><title>9</title>
<polygon fill="crimson" stroke="black" points="4494.45,-965 4402.45,-965 4402.45,-969 4390.45,-969 4390.45,-929 4494.45,-929 4494.45,-965"/>
<polyline fill="none" stroke="black" points="4390.45,-965 4402.45,-965 "/>
<text text-anchor="middle" x="4442.45" y="-943.3" font-family="Times,serif" font-size="14.00">Checker</text>
</g>
<!-- 9&#45;&gt;11 -->
<g id="edge27" class="edge"><title>9&#45;&gt;11</title>
<path fill="none" stroke="black" d="M4442.45,-928.7C4442.45,-920.245 4442.45,-909.869 4442.45,-900.373"/>
<polygon fill="black" stroke="black" points="4445.95,-900.176 4442.45,-890.176 4438.95,-900.176 4445.95,-900.176"/>
</g>
<!-- 9&#45;&gt;13 -->
<g id="edge28" class="edge"><title>9&#45;&gt;13</title>
<path fill="none" stroke="black" d="M4494.74,-932.279C4499.3,-929.241 4503.35,-925.531 4506.45,-921 4523.24,-896.41 4512.85,-883.08 4506.45,-854 4496.32,-808.029 4470.55,-759.369 4453.53,-730.617"/>
<polygon fill="black" stroke="black" points="4456.5,-728.768 4448.34,-722.01 4450.51,-732.381 4456.5,-728.768"/>
</g>
<!-- 9&#45;&gt;14 -->
<g id="edge29" class="edge"><title>9&#45;&gt;14</title>
<path fill="none" stroke="black" d="M4390.16,-929.039C4385.04,-926.631 4380.04,-923.954 4375.45,-921 4365.68,-914.722 4356.32,-906.168 4348.5,-898.019"/>
<polygon fill="black" stroke="black" points="4350.86,-895.412 4341.52,-890.417 4345.71,-900.148 4350.86,-895.412"/>
</g>
<!-- 14&#45;&gt;13 -->
<g id="edge35" class="edge"><title>14&#45;&gt;13</title>
<path fill="none" stroke="black" d="M4338.8,-853.86C4358.15,-824.66 4397.62,-765.107 4420.33,-730.837"/>
<polygon fill="black" stroke="black" points="4423.38,-732.564 4425.99,-722.295 4417.54,-728.698 4423.38,-732.564"/>
</g>
<!-- 15 -->
<g id="node13" class="node"><title>15</title>
<polygon fill="crimson" stroke="black" points="4267.45,-890 4187.45,-890 4187.45,-894 4175.45,-894 4175.45,-854 4267.45,-854 4267.45,-890"/>
<polyline fill="none" stroke="black" points="4175.45,-890 4187.45,-890 "/>
<text text-anchor="middle" x="4221.45" y="-868.3" font-family="Times,serif" font-size="14.00">Types</text>
</g>
<!-- 15&#45;&gt;13 -->
<g id="edge36" class="edge"><title>15&#45;&gt;13</title>
<path fill="none" stroke="black" d="M4243.75,-853.86C4282.74,-823.899 4363.3,-761.982 4407.25,-728.209"/>
<polygon fill="black" stroke="black" points="4409.47,-730.915 4415.27,-722.046 4405.2,-725.365 4409.47,-730.915"/>
</g>
<!-- 24 -->
<g id="node14" class="node"><title>24</title>
<polygon fill="crimson" stroke="black" points="1198.45,-494 1106.45,-494 1106.45,-498 1094.45,-498 1094.45,-458 1198.45,-458 1198.45,-494"/>
<polyline fill="none" stroke="black" points="1094.45,-494 1106.45,-494 "/>
<text text-anchor="middle" x="1146.45" y="-472.3" font-family="Times,serif" font-size="14.00">JsonFile</text>
</g>
<!-- 23 -->
<g id="node15" class="node"><title>23</title>
<polygon fill="crimson" stroke="black" points="1082.45,-387 960.447,-387 960.447,-391 948.447,-391 948.447,-351 1082.45,-351 1082.45,-387"/>
<polyline fill="none" stroke="black" points="948.447,-387 960.447,-387 "/>
<text text-anchor="middle" x="1015.45" y="-365.3" font-family="Times,serif" font-size="14.00">AuthManager</text>
</g>
<!-- 24&#45;&gt;23 -->
<g id="edge53" class="edge"><title>24&#45;&gt;23</title>
<path fill="none" stroke="black" d="M1127.58,-457.845C1116.87,-448.266 1103.1,-436.236 1090.45,-426 1076.77,-414.935 1061.24,-403.211 1047.88,-393.366"/>
<polygon fill="black" stroke="black" points="1049.59,-390.279 1039.45,-387.193 1045.45,-395.926 1049.59,-390.279"/>
</g>
<!-- 27 -->
<g id="node18" class="node"><title>27</title>
<polygon fill="crimson" stroke="black" points="1040.45,-304 960.447,-304 960.447,-308 948.447,-308 948.447,-268 1040.45,-268 1040.45,-304"/>
<polyline fill="none" stroke="black" points="948.447,-304 960.447,-304 "/>
<text text-anchor="middle" x="994.447" y="-282.3" font-family="Times,serif" font-size="14.00">Types</text>
</g>
<!-- 24&#45;&gt;27 -->
<g id="edge54" class="edge"><title>24&#45;&gt;27</title>
<path fill="none" stroke="black" d="M1143.16,-457.659C1136.68,-425.359 1121.31,-357.9 1103.45,-343 1083.13,-326.047 1068.28,-346.507 1044.45,-335 1033.05,-329.496 1022.58,-320.411 1014.19,-311.617"/>
<polygon fill="black" stroke="black" points="1016.68,-309.153 1007.39,-304.062 1011.48,-313.836 1016.68,-309.153"/>
</g>
<!-- 24&#45;&gt;40 -->
<g id="edge55" class="edge"><title>24&#45;&gt;40</title>
<path fill="none" stroke="black" d="M1174.29,-457.998C1189,-447.875 1206.45,-433.912 1218.45,-418 1242.48,-386.128 1257.74,-342.027 1265.7,-314.006"/>
<polygon fill="black" stroke="black" points="1269.14,-314.681 1268.39,-304.113 1262.39,-312.842 1269.14,-314.681"/>
</g>
<!-- 24&#45;&gt;21 -->
<g id="edge52" class="edge"><title>24&#45;&gt;21</title>
<path fill="none" stroke="black" d="M1132.77,-457.928C1122.5,-446.53 1107.33,-432.483 1090.45,-426 1076,-420.454 545.343,-427.896 533.447,-418 507.314,-396.26 525.952,-376.155 518.447,-343 510.046,-305.888 520.907,-289.959 497.447,-260 492.789,-254.051 488.074,-257.042 482.447,-252 465.794,-237.08 451.726,-216.013 442.128,-199.386"/>
<polygon fill="black" stroke="black" points="444.93,-197.224 437.007,-190.189 438.814,-200.629 444.93,-197.224"/>
</g>
<!-- 23&#45;&gt;27 -->
<g id="edge50" class="edge"><title>23&#45;&gt;27</title>
<path fill="none" stroke="black" d="M1010.99,-350.822C1008.21,-340.083 1004.56,-326.025 1001.4,-313.837"/>
<polygon fill="black" stroke="black" points="1004.79,-312.955 998.894,-304.153 998.016,-314.712 1004.79,-312.955"/>
</g>
<!-- 23&#45;&gt;40 -->
<g id="edge51" class="edge"><title>23&#45;&gt;40</title>
<path fill="none" stroke="black" d="M1057.71,-350.966C1067.04,-347.815 1076.97,-344.917 1086.45,-343 1115.25,-337.175 1191.31,-346.27 1218.45,-335 1230.76,-329.889 1242.15,-320.752 1251.27,-311.812"/>
<polygon fill="black" stroke="black" points="1253.95,-314.073 1258.36,-304.44 1248.9,-309.219 1253.95,-314.073"/>
</g>
<!-- 23&#45;&gt;21 -->
<g id="edge49" class="edge"><title>23&#45;&gt;21</title>
<path fill="none" stroke="black" d="M975.975,-350.932C964.214,-345.827 951.301,-340.204 939.447,-335 864.203,-301.968 850.593,-278.151 770.447,-260 739.225,-252.929 510.548,-267.333 482.447,-252 461.803,-240.736 447.478,-217.773 438.796,-199.494"/>
<polygon fill="black" stroke="black" points="441.919,-197.903 434.658,-190.187 435.523,-200.747 441.919,-197.903"/>
</g>
<!-- 25 -->
<g id="node16" class="node"><title>25</title>
<polygon fill="crimson" stroke="black" points="1075.95,-494 980.947,-494 980.947,-498 968.947,-498 968.947,-458 1075.95,-458 1075.95,-494"/>
<polyline fill="none" stroke="black" points="968.947,-494 980.947,-494 "/>
<text text-anchor="middle" x="1022.45" y="-472.3" font-family="Times,serif" font-size="14.00">Handlers</text>
</g>
<!-- 25&#45;&gt;23 -->
<g id="edge57" class="edge"><title>25&#45;&gt;23</title>
<path fill="none" stroke="black" d="M1021.29,-457.661C1020.2,-441.225 1018.53,-416.278 1017.26,-397.194"/>
<polygon fill="black" stroke="black" points="1020.74,-396.761 1016.58,-387.016 1013.75,-397.227 1020.74,-396.761"/>
</g>
<!-- 25&#45;&gt;27 -->
<g id="edge58" class="edge"><title>25&#45;&gt;27</title>
<path fill="none" stroke="black" d="M1043.63,-457.862C1063.66,-441.595 1090.78,-419.414 1091.45,-418 1105.65,-387.844 1112.95,-368.471 1091.45,-343 1077.78,-326.809 1063.37,-344.536 1044.45,-335 1033.31,-329.388 1023,-320.452 1014.66,-311.805"/>
<polygon fill="black" stroke="black" points="1017.21,-309.398 1007.88,-304.37 1012.03,-314.116 1017.21,-309.398"/>
</g>
<!-- 25&#45;&gt;40 -->
<g id="edge59" class="edge"><title>25&#45;&gt;40</title>
<path fill="none" stroke="black" d="M1040.22,-457.904C1051.61,-447.638 1067.08,-434.889 1082.45,-426 1091.09,-420.999 1094.66,-422.741 1103.45,-418 1158.93,-388.081 1169.27,-374.434 1218.45,-335 1227.74,-327.55 1237.56,-319.024 1246.25,-311.245"/>
<polygon fill="black" stroke="black" points="1248.79,-313.667 1253.86,-304.364 1244.1,-308.475 1248.79,-313.667"/>
</g>
<!-- 25&#45;&gt;21 -->
<g id="edge56" class="edge"><title>25&#45;&gt;21</title>
<path fill="none" stroke="black" d="M984.685,-457.896C957.445,-446.482 919.455,-432.431 884.447,-426 864.717,-422.376 539.102,-430.543 523.447,-418 509.335,-406.694 491.604,-276.606 484.447,-260 474.881,-237.806 459.901,-214.909 447.841,-198.179"/>
<polygon fill="black" stroke="black" points="450.59,-196.009 441.845,-190.029 444.952,-200.158 450.59,-196.009"/>
</g>
<!-- 26 -->
<g id="node17" class="node"><title>26</title>
<polygon fill="crimson" stroke="black" points="1064.45,-577 942.447,-577 942.447,-581 930.447,-581 930.447,-541 1064.45,-541 1064.45,-577"/>
<polyline fill="none" stroke="black" points="930.447,-577 942.447,-577 "/>
<text text-anchor="middle" x="997.447" y="-555.3" font-family="Times,serif" font-size="14.00">SpliceHelpers</text>
</g>
<!-- 26&#45;&gt;23 -->
<g id="edge61" class="edge"><title>26&#45;&gt;23</title>
<path fill="none" stroke="black" d="M971.592,-540.96C966.671,-536.405 962.202,-531.042 959.447,-525 941.191,-484.966 942.609,-466.651 959.447,-426 964.512,-413.772 973.687,-402.821 983.164,-393.917"/>
<polygon fill="black" stroke="black" points="985.565,-396.465 990.756,-387.229 980.939,-391.213 985.565,-396.465"/>
</g>
<!-- 26&#45;&gt;25 -->
<g id="edge62" class="edge"><title>26&#45;&gt;25</title>
<path fill="none" stroke="black" d="M1002.75,-540.822C1006.06,-530.083 1010.4,-516.025 1014.16,-503.837"/>
<polygon fill="black" stroke="black" points="1017.55,-504.741 1017.15,-494.153 1010.86,-502.676 1017.55,-504.741"/>
</g>
<!-- 26&#45;&gt;27 -->
<g id="edge63" class="edge"><title>26&#45;&gt;27</title>
<path fill="none" stroke="black" d="M957.661,-540.933C951.61,-536.61 946.157,-531.344 942.447,-525 922.026,-490.083 924.136,-380.44 939.447,-343 942.565,-335.375 955.006,-322.461 967.268,-310.955"/>
<polygon fill="black" stroke="black" points="969.804,-313.378 974.795,-304.033 965.065,-308.226 969.804,-313.378"/>
</g>
<!-- 26&#45;&gt;28 -->
<g id="edge64" class="edge"><title>26&#45;&gt;28</title>
<path fill="none" stroke="black" d="M1064.45,-549.166C1110.04,-543.53 1171.78,-536.625 1226.45,-533 1245.19,-531.757 1547.18,-532.393 1564.45,-525 1576.01,-520.049 1586.28,-510.883 1594.31,-501.877"/>
<polygon fill="black" stroke="black" points="1597.07,-504.036 1600.78,-494.113 1591.69,-499.555 1597.07,-504.036"/>
</g>
<!-- 26&#45;&gt;21 -->
<g id="edge60" class="edge"><title>26&#45;&gt;21</title>
<path fill="none" stroke="black" d="M930.899,-540.991C915.728,-537.753 899.609,-534.813 884.447,-533 873.578,-531.7 498.76,-532.122 490.447,-525 487.325,-522.326 446.861,-282.722 433.039,-200.404"/>
<polygon fill="black" stroke="black" points="436.451,-199.586 431.344,-190.303 429.547,-200.745 436.451,-199.586"/>
</g>
<!-- 27&#45;&gt;21 -->
<g id="edge65" class="edge"><title>27&#45;&gt;21</title>
<path fill="none" stroke="black" d="M965.676,-267.907C958.928,-264.674 951.611,-261.757 944.447,-260 919.515,-253.886 505.045,-264.178 482.447,-252 461.744,-240.844 447.426,-217.87 438.761,-199.559"/>
<polygon fill="black" stroke="black" points="441.881,-197.961 434.633,-190.234 435.481,-200.795 441.881,-197.961"/>
</g>
<!-- 29 -->
<g id="node19" class="node"><title>29</title>
<polygon fill="crimson" stroke="black" points="615.947,-577 514.947,-577 514.947,-581 502.947,-581 502.947,-541 615.947,-541 615.947,-577"/>
<polyline fill="none" stroke="black" points="502.947,-577 514.947,-577 "/>
<text text-anchor="middle" x="559.447" y="-555.3" font-family="Times,serif" font-size="14.00">Compiled</text>
</g>
<!-- 31 -->
<g id="node21" class="node"><title>31</title>
<polygon fill="crimson" stroke="black" points="611.947,-494 522.947,-494 522.947,-498 510.947,-498 510.947,-458 611.947,-458 611.947,-494"/>
<polyline fill="none" stroke="black" points="510.947,-494 522.947,-494 "/>
<text text-anchor="middle" x="561.447" y="-472.3" font-family="Times,serif" font-size="14.00">Internal</text>
</g>
<!-- 29&#45;&gt;31 -->
<g id="edge71" class="edge"><title>29&#45;&gt;31</title>
<path fill="none" stroke="black" d="M559.871,-540.822C560.134,-530.19 560.476,-516.306 560.775,-504.204"/>
<polygon fill="black" stroke="black" points="564.275,-504.237 561.023,-494.153 557.278,-504.064 564.275,-504.237"/>
</g>
<!-- 29&#45;&gt;28 -->
<g id="edge70" class="edge"><title>29&#45;&gt;28</title>
<path fill="none" stroke="black" d="M597.525,-540.974C606.508,-537.693 616.174,-534.738 625.447,-533 651.085,-528.194 1540.39,-535.085 1564.45,-525 1576.05,-520.137 1586.32,-510.985 1594.35,-501.966"/>
<polygon fill="black" stroke="black" points="1597.12,-504.115 1600.81,-494.186 1591.73,-499.643 1597.12,-504.115"/>
</g>
<!-- 29&#45;&gt;33 -->
<g id="edge72" class="edge"><title>29&#45;&gt;33</title>
<path fill="none" stroke="black" d="M604.067,-540.813C610.461,-536.55 616.274,-531.335 620.447,-525 645.819,-486.483 643.58,-430.415 639.27,-397.328"/>
<polygon fill="black" stroke="black" points="642.677,-396.435 637.766,-387.047 635.751,-397.448 642.677,-396.435"/>
</g>
<!-- 29&#45;&gt;21 -->
<g id="edge69" class="edge"><title>29&#45;&gt;21</title>
<path fill="none" stroke="black" d="M520.42,-540.899C513.19,-538.048 505.648,-535.282 498.447,-533 483.236,-528.18 474,-536.969 463.447,-525 452.731,-512.846 435.893,-281.444 430.312,-200.596"/>
<polygon fill="black" stroke="black" points="433.777,-199.963 429.602,-190.226 426.794,-200.442 433.777,-199.963"/>
</g>
<!-- 30 -->
<g id="node20" class="node"><title>30</title>
<polygon fill="crimson" stroke="black" points="871.947,-577 782.947,-577 782.947,-581 770.947,-581 770.947,-541 871.947,-541 871.947,-577"/>
<polyline fill="none" stroke="black" points="770.947,-577 782.947,-577 "/>
<text text-anchor="middle" x="821.447" y="-555.3" font-family="Times,serif" font-size="14.00">Generic</text>
</g>
<!-- 30&#45;&gt;28 -->
<g id="edge73" class="edge"><title>30&#45;&gt;28</title>
<path fill="none" stroke="black" d="M872.26,-542.177C886.423,-538.44 901.913,-534.972 916.447,-533 952.123,-528.16 1531.27,-538.983 1564.45,-525 1576.04,-520.115 1586.31,-510.959 1594.34,-501.943"/>
<polygon fill="black" stroke="black" points="1597.11,-504.095 1600.81,-494.167 1591.72,-499.621 1597.11,-504.095"/>
</g>
<!-- 31&#45;&gt;21 -->
<g id="edge74" class="edge"><title>31&#45;&gt;21</title>
<path fill="none" stroke="black" d="M538.255,-457.969C526.014,-447.742 511.832,-433.688 503.447,-418 469.753,-354.963 496.777,-327.562 473.447,-260 466.048,-238.572 454.151,-215.868 444.449,-199.029"/>
<polygon fill="black" stroke="black" points="447.414,-197.166 439.326,-190.322 441.38,-200.716 447.414,-197.166"/>
</g>
<!-- 32 -->
<g id="node22" class="node"><title>32</title>
<polygon fill="crimson" stroke="black" points="752.447,-577 646.447,-577 646.447,-581 634.447,-581 634.447,-541 752.447,-541 752.447,-577"/>
<polyline fill="none" stroke="black" points="634.447,-577 646.447,-577 "/>
<text text-anchor="middle" x="693.447" y="-555.3" font-family="Times,serif" font-size="14.00">Interpreted</text>
</g>
<!-- 32&#45;&gt;28 -->
<g id="edge75" class="edge"><title>32&#45;&gt;28</title>
<path fill="none" stroke="black" d="M732.719,-540.984C741.973,-537.702 751.92,-534.745 761.447,-533 783.389,-528.982 1543.88,-533.639 1564.45,-525 1576.04,-520.128 1586.31,-510.975 1594.35,-501.957"/>
<polygon fill="black" stroke="black" points="1597.11,-504.107 1600.81,-494.179 1591.73,-499.634 1597.11,-504.107"/>
</g>
<!-- 35 -->
<g id="node23" class="node"><title>35</title>
<polygon fill="crimson" stroke="black" points="1543.95,-722 1468.95,-722 1468.95,-726 1456.95,-726 1456.95,-686 1543.95,-686 1543.95,-722"/>
<polyline fill="none" stroke="black" points="1456.95,-722 1468.95,-722 "/>
<text text-anchor="middle" x="1500.45" y="-700.3" font-family="Times,serif" font-size="14.00">Tests</text>
</g>
<!-- 34 -->
<g id="node26" class="node"><title>34</title>
<polygon fill="crimson" stroke="black" points="1552.95,-577 1471.95,-577 1471.95,-581 1459.95,-581 1459.95,-541 1552.95,-541 1552.95,-577"/>
<polyline fill="none" stroke="black" points="1459.95,-577 1471.95,-577 "/>
<text text-anchor="middle" x="1506.45" y="-555.3" font-family="Times,serif" font-size="14.00">LensT</text>
</g>
<!-- 35&#45;&gt;34 -->
<g id="edge79" class="edge"><title>35&#45;&gt;34</title>
<path fill="none" stroke="chartreuse" d="M1501.17,-685.751C1502.19,-661.379 1504.07,-616.607 1505.29,-587.586"/>
<polygon fill="chartreuse" stroke="chartreuse" points="1508.8,-587.448 1505.72,-577.31 1501.8,-587.155 1508.8,-587.448"/>
</g>
<!-- 37 -->
<g id="node24" class="node"><title>37</title>
<polygon fill="crimson" stroke="black" points="1431.95,-722 1356.95,-722 1356.95,-726 1344.95,-726 1344.95,-686 1431.95,-686 1431.95,-722"/>
<polyline fill="none" stroke="black" points="1344.95,-722 1356.95,-722 "/>
<text text-anchor="middle" x="1388.45" y="-700.3" font-family="Times,serif" font-size="14.00">Tests</text>
</g>
<!-- 36 -->
<g id="node27" class="node"><title>36</title>
<polygon fill="crimson" stroke="black" points="1442.45,-577 1356.45,-577 1356.45,-581 1344.45,-581 1344.45,-541 1442.45,-541 1442.45,-577"/>
<polyline fill="none" stroke="black" points="1344.45,-577 1356.45,-577 "/>
<text text-anchor="middle" x="1393.45" y="-555.3" font-family="Times,serif" font-size="14.00">Lensed</text>
</g>
<!-- 37&#45;&gt;36 -->
<g id="edge80" class="edge"><title>37&#45;&gt;36</title>
<path fill="none" stroke="chartreuse" d="M1389.05,-685.751C1389.9,-661.379 1391.47,-616.607 1392.48,-587.586"/>
<polygon fill="chartreuse" stroke="chartreuse" points="1395.99,-587.427 1392.84,-577.31 1388.99,-587.182 1395.99,-587.427"/>
</g>
<!-- 39 -->
<g id="node25" class="node"><title>39</title>
<polygon fill="crimson" stroke="black" points="1325.95,-577 1250.95,-577 1250.95,-581 1238.95,-581 1238.95,-541 1325.95,-541 1325.95,-577"/>
<polyline fill="none" stroke="black" points="1238.95,-577 1250.95,-577 "/>
<text text-anchor="middle" x="1282.45" y="-555.3" font-family="Times,serif" font-size="14.00">Tests</text>
</g>
<!-- 38 -->
<g id="node28" class="node"><title>38</title>
<polygon fill="crimson" stroke="black" points="1435.95,-494 1364.95,-494 1364.95,-498 1352.95,-498 1352.95,-458 1435.95,-458 1435.95,-494"/>
<polyline fill="none" stroke="black" points="1352.95,-494 1364.95,-494 "/>
<text text-anchor="middle" x="1394.45" y="-472.3" font-family="Times,serif" font-size="14.00">RST</text>
</g>
<!-- 39&#45;&gt;38 -->
<g id="edge81" class="edge"><title>39&#45;&gt;38</title>
<path fill="none" stroke="black" d="M1306.2,-540.822C1322.53,-529.009 1344.42,-513.18 1362.31,-500.242"/>
<polygon fill="black" stroke="black" points="1364.68,-502.85 1370.73,-494.153 1360.57,-497.177 1364.68,-502.85"/>
</g>
<!-- 34&#45;&gt;38 -->
<g id="edge78" class="edge"><title>34&#45;&gt;38</title>
<path fill="none" stroke="black" d="M1465.75,-540.878C1456.73,-536.297 1447.47,-530.944 1439.45,-525 1430.5,-518.37 1421.84,-509.827 1414.55,-501.791"/>
<polygon fill="black" stroke="black" points="1416.96,-499.24 1407.75,-494.013 1411.69,-503.846 1416.96,-499.24"/>
</g>
<!-- 44 -->
<g id="node32" class="node"><title>44</title>
<polygon fill="crimson" stroke="black" points="1491.95,-68 1354.95,-68 1354.95,-72 1342.95,-72 1342.95,-32 1491.95,-32 1491.95,-68"/>
<polyline fill="none" stroke="black" points="1342.95,-68 1354.95,-68 "/>
<text text-anchor="middle" x="1417.45" y="-46.3" font-family="Times,serif" font-size="14.00">SessionManager</text>
</g>
<!-- 41&#45;&gt;44 -->
<g id="edge88" class="edge"><title>41&#45;&gt;44</title>
<path fill="none" stroke="black" d="M1535.67,-153.807C1511.9,-133.134 1471.86,-98.3128 1445.05,-74.9988"/>
<polygon fill="black" stroke="black" points="1447.03,-72.0819 1437.18,-68.1612 1442.43,-77.3641 1447.03,-72.0819"/>
</g>
<!-- 41&#45;&gt;40 -->
<g id="edge87" class="edge"><title>41&#45;&gt;40</title>
<path fill="none" stroke="black" d="M1544.66,-190.01C1531.94,-208.511 1509.01,-237.392 1481.45,-252 1456.34,-265.304 1385.27,-274.579 1332.94,-279.837"/>
<polygon fill="black" stroke="black" points="1332.36,-276.377 1322.75,-280.835 1333.04,-283.344 1332.36,-276.377"/>
</g>
<!-- 41&#45;&gt;21 -->
<g id="edge86" class="edge"><title>41&#45;&gt;21</title>
<path fill="none" stroke="black" d="M1546.1,-190.055C1533.15,-212.45 1507.34,-248.595 1472.45,-256 1443.1,-262.228 1232.4,-257.621 1202.45,-256 935.032,-241.532 617.916,-199.142 488.218,-180.718"/>
<polygon fill="black" stroke="black" points="488.492,-177.221 478.098,-179.274 487.504,-184.151 488.492,-177.221"/>
</g>
<!-- 42 -->
<g id="node30" class="node"><title>42</title>
<polygon fill="crimson" stroke="black" points="1467.45,-190 1369.45,-190 1369.45,-194 1357.45,-194 1357.45,-154 1467.45,-154 1467.45,-190"/>
<polyline fill="none" stroke="black" points="1357.45,-190 1369.45,-190 "/>
<text text-anchor="middle" x="1412.45" y="-168.3" font-family="Times,serif" font-size="14.00">Common</text>
</g>
<!-- 43 -->
<g id="node31" class="node"><title>43</title>
<polygon fill="crimson" stroke="black" points="1339.45,-190 1217.45,-190 1217.45,-194 1205.45,-194 1205.45,-154 1339.45,-154 1339.45,-190"/>
<polyline fill="none" stroke="black" points="1205.45,-190 1217.45,-190 "/>
<text text-anchor="middle" x="1272.45" y="-168.3" font-family="Times,serif" font-size="14.00">SecureCookie</text>
</g>
<!-- 22 -->
<g id="node33" class="node"><title>22</title>
<polygon fill="crimson" stroke="black" points="1040.45,-722 966.447,-722 966.447,-726 954.447,-726 954.447,-686 1040.45,-686 1040.45,-722"/>
<polyline fill="none" stroke="black" points="954.447,-722 966.447,-722 "/>
<text text-anchor="middle" x="997.447" y="-700.3" font-family="Times,serif" font-size="14.00">Auth</text>
</g>
<!-- 22&#45;&gt;23 -->
<g id="edge45" class="edge"><title>22&#45;&gt;23</title>
<path fill="none" stroke="black" d="M954.37,-693.973C941.603,-689.074 929.021,-681.547 921.447,-670 888.049,-619.088 915.556,-593.603 921.447,-533 926.136,-484.765 916.905,-467.186 942.447,-426 950.587,-412.875 962.991,-401.676 975.278,-392.821"/>
<polygon fill="black" stroke="black" points="977.421,-395.595 983.711,-387.069 973.477,-389.812 977.421,-395.595"/>
</g>
<!-- 22&#45;&gt;25 -->
<g id="edge46" class="edge"><title>22&#45;&gt;25</title>
<path fill="none" stroke="black" d="M1040.52,-693.973C1053.29,-689.074 1065.87,-681.547 1073.45,-670 1106.84,-619.088 1095.43,-589.783 1073.45,-533 1068.85,-521.12 1060.43,-510.212 1051.73,-501.242"/>
<polygon fill="black" stroke="black" points="1054.06,-498.627 1044.45,-494.184 1049.19,-503.655 1054.06,-498.627"/>
</g>
<!-- 22&#45;&gt;26 -->
<g id="edge47" class="edge"><title>22&#45;&gt;26</title>
<path fill="none" stroke="black" d="M997.447,-685.751C997.447,-661.379 997.447,-616.607 997.447,-587.586"/>
<polygon fill="black" stroke="black" points="1000.95,-587.31 997.447,-577.31 993.947,-587.31 1000.95,-587.31"/>
</g>
<!-- 22&#45;&gt;27 -->
<g id="edge48" class="edge"><title>22&#45;&gt;27</title>
<path fill="none" stroke="black" d="M954.365,-699.327C934.868,-695.261 913.528,-686.927 901.447,-670 872.4,-629.3 921.853,-346.374 924.447,-343 930.282,-335.41 936.401,-340.188 944.447,-335 954.512,-328.509 964.309,-319.81 972.525,-311.601"/>
<polygon fill="black" stroke="black" points="975.165,-313.904 979.587,-304.276 970.126,-309.045 975.165,-313.904"/>
</g>
<!-- 28&#45;&gt;31 -->
<g id="edge67" class="edge"><title>28&#45;&gt;31</title>
<path fill="none" stroke="black" d="M1601.02,-494.123C1591,-507.783 1575.01,-524.848 1555.45,-529 1521.21,-536.266 960.356,-531.528 925.447,-529 818.145,-521.229 694.436,-500.734 622.381,-487.627"/>
<polygon fill="black" stroke="black" points="622.6,-484.109 612.133,-485.749 621.338,-490.994 622.6,-484.109"/>
</g>
<!-- 28&#45;&gt;33 -->
<g id="edge68" class="edge"><title>28&#45;&gt;33</title>
<path fill="none" stroke="black" d="M1601.25,-457.972C1592.69,-446.594 1579.78,-432.554 1564.45,-426 1547.89,-418.923 934.375,-419.626 916.447,-418 846.343,-411.64 767.421,-397.608 710.935,-386.35"/>
<polygon fill="black" stroke="black" points="711.504,-382.894 701.01,-384.354 710.124,-389.757 711.504,-382.894"/>
</g>
<!-- 28&#45;&gt;21 -->
<g id="edge66" class="edge"><title>28&#45;&gt;21</title>
<path fill="none" stroke="black" d="M1601.26,-457.952C1592.71,-446.564 1579.79,-432.52 1564.45,-426 1538.73,-415.071 580.732,-434.861 558.447,-418 500.122,-373.871 564.747,-311.126 512.447,-260 502.579,-250.354 493.711,-259.972 482.447,-252 463.682,-238.72 449.426,-216.715 440.287,-199.297"/>
<polygon fill="black" stroke="black" points="443.334,-197.565 435.74,-190.177 437.07,-200.688 443.334,-197.565"/>
</g>
<!-- 33&#45;&gt;31 -->
<g id="edge77" class="edge"><title>33&#45;&gt;31</title>
<path fill="none" stroke="black" d="M622.617,-387.016C610.898,-403.872 592.801,-429.902 579.327,-449.282"/>
<polygon fill="black" stroke="black" points="576.336,-447.453 573.501,-457.661 582.084,-451.449 576.336,-447.453"/>
</g>
<!-- 33&#45;&gt;21 -->
<g id="edge76" class="edge"><title>33&#45;&gt;21</title>
<path fill="none" stroke="black" d="M626.95,-350.636C615.233,-325.834 590.063,-280.953 553.447,-260 525.885,-244.228 509.656,-268.373 482.447,-252 462.509,-240.003 448.224,-217.485 439.374,-199.551"/>
<polygon fill="black" stroke="black" points="442.398,-197.753 435.015,-190.155 436.048,-200.699 442.398,-197.753"/>
</g>
<!-- 40&#45;&gt;42 -->
<g id="edge83" class="edge"><title>40&#45;&gt;42</title>
<path fill="none" stroke="black" d="M1321.41,-267.888C1330.85,-263.469 1340.32,-258.179 1348.45,-252 1367.84,-237.268 1384.91,-215.472 1396.54,-198.504"/>
<polygon fill="black" stroke="black" points="1399.48,-200.399 1402.11,-190.134 1393.65,-196.523 1399.48,-200.399"/>
</g>
<!-- 40&#45;&gt;43 -->
<g id="edge84" class="edge"><title>40&#45;&gt;43</title>
<path fill="none" stroke="black" d="M1272.45,-267.99C1272.45,-250.063 1272.45,-221.555 1272.45,-200.442"/>
<polygon fill="black" stroke="black" points="1275.95,-200.17 1272.45,-190.17 1268.95,-200.171 1275.95,-200.17"/>
</g>
<!-- 40&#45;&gt;44 -->
<g id="edge85" class="edge"><title>40&#45;&gt;44</title>
<path fill="none" stroke="black" d="M1236.62,-267.896C1230.59,-265.168 1224.37,-262.442 1218.45,-260 1208.83,-256.033 1202.42,-260.522 1196.45,-252 1181.91,-231.25 1182.19,-158.939 1196.45,-138 1226.9,-93.282 1284.19,-71.5488 1332.81,-60.9866"/>
<polygon fill="black" stroke="black" points="1333.63,-64.3918 1342.73,-58.9587 1332.23,-57.5338 1333.63,-64.3918"/>
</g>
<!-- 40&#45;&gt;21 -->
<g id="edge82" class="edge"><title>40&#45;&gt;21</title>
<path fill="none" stroke="black" d="M1241.54,-267.996C1234.18,-264.714 1226.21,-261.753 1218.45,-260 1198.5,-255.494 500.477,-261.641 482.447,-252 461.708,-240.911 447.394,-217.93 438.74,-199.599"/>
<polygon fill="black" stroke="black" points="441.858,-197.997 434.618,-190.262 435.455,-200.824 441.858,-197.997"/>
</g>
<!-- 45 -->
<g id="node37" class="node"><title>45</title>
<polygon fill="crimson" stroke="black" points="578.447,-722 508.447,-722 508.447,-726 496.447,-726 496.447,-686 578.447,-686 578.447,-722"/>
<polyline fill="none" stroke="black" points="496.447,-722 508.447,-722 "/>
<text text-anchor="middle" x="537.447" y="-700.3" font-family="Times,serif" font-size="14.00">Test</text>
</g>
<!-- 45&#45;&gt;21 -->
<g id="edge89" class="edge"><title>45&#45;&gt;21</title>
<path fill="none" stroke="black" d="M506.592,-685.686C500.595,-681.205 494.822,-675.941 490.447,-670 437.024,-597.453 428.447,-567.095 428.447,-477 428.447,-477 428.447,-477 428.447,-368 428.447,-308.224 428.447,-238.14 428.447,-200.404"/>
<polygon fill="black" stroke="black" points="431.947,-200.216 428.447,-190.216 424.947,-200.216 431.947,-200.216"/>
</g>
<!-- 46 -->
<g id="node39" class="node"><title>46</title>
<polygon fill="crimson" stroke="black" points="477.947,-722 376.947,-722 376.947,-726 364.947,-726 364.947,-686 477.947,-686 477.947,-722"/>
<polyline fill="none" stroke="black" points="364.947,-722 376.947,-722 "/>
<text text-anchor="middle" x="421.447" y="-700.3" font-family="Times,serif" font-size="14.00">StarterTH</text>
</g>
<!-- 47 -->
<g id="node40" class="node"><title>47</title>
<polygon fill="crimson" stroke="black" points="346.447,-722 224.447,-722 224.447,-726 212.447,-726 212.447,-686 346.447,-686 346.447,-722"/>
<polyline fill="none" stroke="black" points="212.447,-722 224.447,-722 "/>
<text text-anchor="middle" x="279.447" y="-700.3" font-family="Times,serif" font-size="14.00">TestCommon</text>
</g>
<!-- 18 -->
<g id="node65" class="node"><title>18</title>
<polygon fill="crimson" stroke="black" points="195.947,-577 92.947,-577 92.947,-581 80.947,-581 80.947,-541 195.947,-541 195.947,-577"/>
<polyline fill="none" stroke="black" points="80.947,-577 92.947,-577 "/>
<text text-anchor="middle" x="138.447" y="-555.3" font-family="Times,serif" font-size="14.00">SafeCWD</text>
</g>
<!-- 47&#45;&gt;18 -->
<g id="edge90" class="edge"><title>47&#45;&gt;18</title>
<path fill="none" stroke="chartreuse" d="M224.789,-685.821C216.05,-681.542 207.557,-676.32 200.447,-670 174.814,-647.216 157.355,-611.198 147.654,-586.631"/>
<polygon fill="chartreuse" stroke="chartreuse" points="150.895,-585.308 144.084,-577.193 144.348,-587.784 150.895,-585.308"/>
</g>
<!-- 48 -->
<g id="node41" class="node"><title>48</title>
<polygon fill="crimson" stroke="black" points="2633.95,-68 2542.95,-68 2542.95,-72 2530.95,-72 2530.95,-32 2633.95,-32 2633.95,-68"/>
<polyline fill="none" stroke="black" points="2530.95,-68 2542.95,-68 "/>
<text text-anchor="middle" x="2582.45" y="-46.3" font-family="Times,serif" font-size="14.00">Missing</text>
</g>
<!-- 49 -->
<g id="node42" class="node"><title>49</title>
<polygon fill="crimson" stroke="black" points="4028.95,-304 3931.95,-304 3931.95,-308 3919.95,-308 3919.95,-268 4028.95,-268 4028.95,-304"/>
<polyline fill="none" stroke="black" points="3919.95,-304 3931.95,-304 "/>
<text text-anchor="middle" x="3974.45" y="-282.3" font-family="Times,serif" font-size="14.00">Arbitrary</text>
</g>
<!-- 67 -->
<g id="node59" class="node"><title>67</title>
<polygon fill="crimson" stroke="black" points="3345.45,-190 3265.45,-190 3265.45,-194 3253.45,-194 3253.45,-154 3345.45,-154 3345.45,-190"/>
<polyline fill="none" stroke="black" points="3253.45,-190 3265.45,-190 "/>
<text text-anchor="middle" x="3299.45" y="-168.3" font-family="Times,serif" font-size="14.00">Types</text>
</g>
<!-- 49&#45;&gt;67 -->
<g id="edge91" class="edge"><title>49&#45;&gt;67</title>
<path fill="none" stroke="black" d="M3937.2,-267.945C3928.59,-264.709 3919.34,-261.782 3910.45,-260 3835.69,-245.013 3642.78,-263.77 3567.45,-252 3491.65,-240.157 3407.22,-212.795 3353.75,-193.609"/>
<polygon fill="black" stroke="black" points="3354.73,-190.242 3344.14,-190.128 3352.35,-196.824 3354.73,-190.242"/>
</g>
<!-- 50 -->
<g id="node43" class="node"><title>50</title>
<polygon fill="crimson" stroke="black" points="3901.45,-304 3817.45,-304 3817.45,-308 3805.45,-308 3805.45,-268 3901.45,-268 3901.45,-304"/>
<polyline fill="none" stroke="black" points="3805.45,-304 3817.45,-304 "/>
<text text-anchor="middle" x="3853.45" y="-282.3" font-family="Times,serif" font-size="14.00">Config</text>
</g>
<!-- 52 -->
<g id="node44" class="node"><title>52</title>
<polygon fill="crimson" stroke="black" points="3008.95,-494 2895.95,-494 2895.95,-498 2883.95,-498 2883.95,-458 3008.95,-458 3008.95,-494"/>
<polyline fill="none" stroke="black" points="2883.95,-494 2895.95,-494 "/>
<text text-anchor="middle" x="2946.45" y="-472.3" font-family="Times,serif" font-size="14.00">Adhocracy3</text>
</g>
<!-- 52&#45;&gt;48 -->
<g id="edge100" class="edge"><title>52&#45;&gt;48</title>
<path fill="none" stroke="black" d="M2883.71,-471.997C2761.31,-465.494 2500.23,-448.208 2473.45,-418 2432.17,-371.445 2446.46,-194.066 2473.45,-138 2487.01,-109.826 2514.62,-87.9373 2538.67,-73.1627"/>
<polygon fill="black" stroke="black" points="2540.5,-76.144 2547.33,-68.0428 2536.94,-70.1178 2540.5,-76.144"/>
</g>
<!-- 54 -->
<g id="node46" class="node"><title>54</title>
<polygon fill="crimson" stroke="black" points="3036.95,-387 2957.95,-387 2957.95,-391 2945.95,-391 2945.95,-351 3036.95,-351 3036.95,-387"/>
<polyline fill="none" stroke="black" points="2945.95,-387 2957.95,-387 "/>
<text text-anchor="middle" x="2991.45" y="-365.3" font-family="Times,serif" font-size="14.00">Proxy</text>
</g>
<!-- 52&#45;&gt;54 -->
<g id="edge101" class="edge"><title>52&#45;&gt;54</title>
<path fill="none" stroke="black" d="M2953.88,-457.661C2961.02,-440.995 2971.91,-415.58 2980.13,-396.399"/>
<polygon fill="black" stroke="black" points="2983.43,-397.586 2984.15,-387.016 2977,-394.829 2983.43,-397.586"/>
</g>
<!-- 57 -->
<g id="node49" class="node"><title>57</title>
<polygon fill="crimson" stroke="black" points="3108.95,-304 3035.95,-304 3035.95,-308 3023.95,-308 3023.95,-268 3108.95,-268 3108.95,-304"/>
<polyline fill="none" stroke="black" points="3023.95,-304 3035.95,-304 "/>
<text text-anchor="middle" x="3066.45" y="-282.3" font-family="Times,serif" font-size="14.00">Core</text>
</g>
<!-- 52&#45;&gt;57 -->
<g id="edge102" class="edge"><title>52&#45;&gt;57</title>
<path fill="none" stroke="black" d="M2967.75,-457.902C2981.55,-447.506 3000.28,-434.617 3018.45,-426 3029.76,-420.637 3037.19,-427.402 3045.45,-418 3058.62,-403.011 3063.58,-348.311 3065.41,-314.515"/>
<polygon fill="black" stroke="black" points="3068.92,-314.511 3065.9,-304.354 3061.92,-314.173 3068.92,-314.511"/>
</g>
<!-- 58 -->
<g id="node55" class="node"><title>58</title>
<polygon fill="crimson" stroke="black" points="3277.45,-304 3193.45,-304 3193.45,-308 3181.45,-308 3181.45,-268 3277.45,-268 3277.45,-304"/>
<polyline fill="none" stroke="black" points="3181.45,-304 3193.45,-304 "/>
<text text-anchor="middle" x="3229.45" y="-282.3" font-family="Times,serif" font-size="14.00">Config</text>
</g>
<!-- 52&#45;&gt;58 -->
<g id="edge103" class="edge"><title>52&#45;&gt;58</title>
<path fill="none" stroke="black" d="M2965.01,-457.991C2978.68,-446.622 2998.33,-432.585 3018.45,-426 3030.49,-422.057 3237.64,-427.118 3246.45,-418 3273.07,-390.429 3257.69,-343.033 3243.8,-313.442"/>
<polygon fill="black" stroke="black" points="3246.78,-311.562 3239.21,-304.144 3240.5,-314.66 3246.78,-311.562"/>
</g>
<!-- 59 -->
<g id="node56" class="node"><title>59</title>
<polygon fill="crimson" stroke="black" points="3780.95,-387 3715.95,-387 3715.95,-391 3703.95,-391 3703.95,-351 3780.95,-351 3780.95,-387"/>
<polyline fill="none" stroke="black" points="3703.95,-387 3715.95,-387 "/>
<text text-anchor="middle" x="3742.45" y="-365.3" font-family="Times,serif" font-size="14.00">DB</text>
</g>
<!-- 52&#45;&gt;59 -->
<g id="edge104" class="edge"><title>52&#45;&gt;59</title>
<path fill="none" stroke="black" d="M2964.96,-457.846C2978.61,-446.409 2998.25,-432.35 3018.45,-426 3054.54,-414.651 3664.99,-433.636 3699.45,-418 3710.1,-413.165 3719.23,-404.27 3726.29,-395.439"/>
<polygon fill="black" stroke="black" points="3729.31,-397.252 3732.42,-387.126 3723.67,-393.099 3729.31,-397.252"/>
</g>
<!-- 66 -->
<g id="node58" class="node"><title>66</title>
<polygon fill="crimson" stroke="black" points="3237.45,-387 3161.45,-387 3161.45,-391 3149.45,-391 3149.45,-351 3237.45,-351 3237.45,-387"/>
<polyline fill="none" stroke="black" points="3149.45,-387 3161.45,-387 "/>
<text text-anchor="middle" x="3193.45" y="-365.3" font-family="Times,serif" font-size="14.00">Smtp</text>
</g>
<!-- 52&#45;&gt;66 -->
<g id="edge105" class="edge"><title>52&#45;&gt;66</title>
<path fill="none" stroke="black" d="M2965.37,-457.947C2979.06,-446.714 2998.58,-432.857 3018.45,-426 3068.55,-408.706 3088.38,-438.049 3137.45,-418 3150.17,-412.803 3162.06,-403.528 3171.59,-394.508"/>
<polygon fill="black" stroke="black" points="3174.09,-396.955 3178.7,-387.411 3169.15,-392.003 3174.09,-396.955"/>
</g>
<!-- 52&#45;&gt;67 -->
<g id="edge106" class="edge"><title>52&#45;&gt;67</title>
<path fill="none" stroke="black" d="M2965,-457.979C2978.68,-446.605 2998.32,-432.566 3018.45,-426 3043.92,-417.69 3238.27,-434.413 3259.45,-418 3286.9,-396.72 3267.22,-374.691 3281.45,-343 3283.16,-339.175 3285.13,-338.981 3286.45,-335 3301.49,-289.511 3302.3,-233.093 3301.13,-200.258"/>
<polygon fill="black" stroke="black" points="3304.62,-199.912 3300.68,-190.077 3297.63,-200.222 3304.62,-199.912"/>
</g>
<!-- 20 -->
<g id="node67" class="node"><title>20</title>
<polygon fill="crimson" stroke="black" points="2201.45,-304 2127.45,-304 2127.45,-308 2115.45,-308 2115.45,-268 2201.45,-268 2201.45,-304"/>
<polyline fill="none" stroke="black" points="2115.45,-304 2127.45,-304 "/>
<text text-anchor="middle" x="2158.45" y="-282.3" font-family="Times,serif" font-size="14.00">Snap</text>
</g>
<!-- 52&#45;&gt;20 -->
<g id="edge99" class="edge"><title>52&#45;&gt;20</title>
<path fill="none" stroke="black" d="M2883.79,-473.315C2758.82,-469.173 2483.23,-455.914 2397.45,-418 2351.67,-397.768 2359.44,-362.727 2313.45,-343 2273.28,-325.775 2255.85,-351.642 2215.45,-335 2202.61,-329.713 2190.52,-320.424 2180.8,-311.417"/>
<polygon fill="black" stroke="black" points="2183.15,-308.819 2173.55,-304.336 2178.26,-313.827 2183.15,-308.819"/>
</g>
<!-- 53 -->
<g id="node45" class="node"><title>53</title>
<polygon fill="crimson" stroke="black" points="3124.95,-577 2985.95,-577 2985.95,-581 2973.95,-581 2973.95,-541 3124.95,-541 3124.95,-577"/>
<polyline fill="none" stroke="black" points="2973.95,-577 2985.95,-577 "/>
<text text-anchor="middle" x="3049.45" y="-555.3" font-family="Times,serif" font-size="14.00">Adhocracy3Spec</text>
</g>
<!-- 53&#45;&gt;49 -->
<g id="edge107" class="edge"><title>53&#45;&gt;49</title>
<path fill="none" stroke="black" d="M3125.09,-558.257C3302.62,-558.349 3735.39,-555.406 3793.45,-525 3839.4,-500.93 3923.93,-369.366 3958.79,-312.834"/>
<polygon fill="black" stroke="black" points="3961.89,-314.475 3964.13,-304.121 3955.92,-310.815 3961.89,-314.475"/>
</g>
<!-- 53&#45;&gt;52 -->
<g id="edge108" class="edge"><title>53&#45;&gt;52</title>
<path fill="none" stroke="black" d="M3027.6,-540.822C3012.72,-529.116 2992.82,-513.468 2976.45,-500.596"/>
<polygon fill="black" stroke="black" points="2978.28,-497.584 2968.26,-494.153 2973.96,-503.086 2978.28,-497.584"/>
</g>
<!-- 53&#45;&gt;58 -->
<g id="edge109" class="edge"><title>53&#45;&gt;58</title>
<path fill="none" stroke="black" d="M3102.55,-540.945C3154.49,-520.934 3229.95,-482.082 3259.45,-418 3273.39,-387.721 3267.56,-375.331 3259.45,-343 3256.83,-332.57 3251.85,-321.961 3246.7,-312.824"/>
<polygon fill="black" stroke="black" points="3249.7,-311.021 3241.56,-304.237 3243.69,-314.615 3249.7,-311.021"/>
</g>
<!-- 53&#45;&gt;59 -->
<g id="edge110" class="edge"><title>53&#45;&gt;59</title>
<path fill="none" stroke="black" d="M3125.03,-557.692C3243.16,-556.411 3465.78,-550.553 3540.45,-525 3621.04,-497.421 3635.2,-473.929 3699.45,-418 3707.26,-411.202 3715.04,-403.048 3721.79,-395.405"/>
<polygon fill="black" stroke="black" points="3724.81,-397.267 3728.67,-387.402 3719.5,-392.705 3724.81,-397.267"/>
</g>
<!-- 53&#45;&gt;67 -->
<g id="edge111" class="edge"><title>53&#45;&gt;67</title>
<path fill="none" stroke="black" d="M2997.25,-540.889C2986.49,-537.863 2975.18,-535.034 2964.45,-533 2924.99,-525.52 2911.32,-540.91 2874.45,-525 2757.67,-474.61 2712.58,-451.012 2660.45,-335 2646.78,-304.596 2638.52,-285.11 2660.45,-260 2698.6,-216.296 3093.88,-186.33 3242.96,-176.506"/>
<polygon fill="black" stroke="black" points="3243.51,-179.977 3253.26,-175.833 3243.05,-172.992 3243.51,-179.977"/>
</g>
<!-- 54&#45;&gt;48 -->
<g id="edge112" class="edge"><title>54&#45;&gt;48</title>
<path fill="none" stroke="black" d="M2945.87,-368.023C2838.38,-367.602 2576.01,-363.623 2549.45,-335 2482.57,-262.948 2538.92,-132.411 2567.86,-76.999"/>
<polygon fill="black" stroke="black" points="2570.95,-78.6319 2572.57,-68.162 2564.78,-75.335 2570.95,-78.6319"/>
</g>
<!-- 54&#45;&gt;57 -->
<g id="edge113" class="edge"><title>54&#45;&gt;57</title>
<path fill="none" stroke="black" d="M3007.35,-350.822C3017.89,-339.439 3031.89,-324.326 3043.61,-311.665"/>
<polygon fill="black" stroke="black" points="3046.34,-313.869 3050.56,-304.153 3041.2,-309.113 3046.34,-313.869"/>
</g>
<!-- 54&#45;&gt;58 -->
<g id="edge114" class="edge"><title>54&#45;&gt;58</title>
<path fill="none" stroke="black" d="M3020.21,-350.958C3026.68,-347.807 3033.64,-344.912 3040.45,-343 3085.5,-330.34 3100.7,-348.723 3145.45,-335 3163.84,-329.36 3182.58,-319.16 3197.69,-309.608"/>
<polygon fill="black" stroke="black" points="3199.67,-312.495 3206.13,-304.099 3195.84,-306.633 3199.67,-312.495"/>
</g>
<!-- 54&#45;&gt;59 -->
<g id="edge115" class="edge"><title>54&#45;&gt;59</title>
<path fill="none" stroke="black" d="M3003.16,-387.102C3013.4,-400.75 3029.7,-417.809 3049.45,-422 3066.86,-425.696 3673.03,-425.696 3690.45,-422 3705.46,-418.813 3717.76,-407.121 3726.62,-395.527"/>
<polygon fill="black" stroke="black" points="3729.57,-397.419 3732.46,-387.225 3723.84,-393.395 3729.57,-397.419"/>
</g>
<!-- 54&#45;&gt;67 -->
<g id="edge116" class="edge"><title>54&#45;&gt;67</title>
<path fill="none" stroke="black" d="M2962.66,-350.978C2955.91,-347.741 2948.6,-344.804 2941.45,-343 2927.38,-339.451 2690.55,-345.414 2680.45,-335 2657.24,-311.071 2658.58,-285.157 2680.45,-260 2717.21,-217.709 3097.58,-187.028 3243.18,-176.751"/>
<polygon fill="black" stroke="black" points="3243.52,-180.236 3253.25,-176.047 3243.03,-173.253 3243.52,-180.236"/>
</g>
<!-- 55 -->
<g id="node47" class="node"><title>55</title>
<polygon fill="crimson" stroke="black" points="3125.45,-494 3039.45,-494 3039.45,-498 3027.45,-498 3027.45,-458 3125.45,-458 3125.45,-494"/>
<polyline fill="none" stroke="black" points="3027.45,-494 3039.45,-494 "/>
<text text-anchor="middle" x="3076.45" y="-472.3" font-family="Times,serif" font-size="14.00">Simple</text>
</g>
<!-- 55&#45;&gt;54 -->
<g id="edge117" class="edge"><title>55&#45;&gt;54</title>
<path fill="none" stroke="black" d="M3062.41,-457.661C3048.55,-440.536 3027.21,-414.174 3011.55,-394.829"/>
<polygon fill="black" stroke="black" points="3014.23,-392.586 3005.22,-387.016 3008.79,-396.991 3014.23,-392.586"/>
</g>
<!-- 55&#45;&gt;57 -->
<g id="edge118" class="edge"><title>55&#45;&gt;57</title>
<path fill="none" stroke="black" d="M3075.54,-457.985C3073.81,-425.35 3070,-353.714 3067.9,-314.312"/>
<polygon fill="black" stroke="black" points="3071.38,-313.912 3067.36,-304.112 3064.39,-314.284 3071.38,-313.912"/>
</g>
<!-- 55&#45;&gt;59 -->
<g id="edge119" class="edge"><title>55&#45;&gt;59</title>
<path fill="none" stroke="black" d="M3089.2,-457.945C3098.83,-446.554 3113.16,-432.509 3129.45,-426 3158.86,-414.25 3670.62,-431.12 3699.45,-418 3710.1,-413.153 3719.22,-404.255 3726.29,-395.426"/>
<polygon fill="black" stroke="black" points="3729.3,-397.241 3732.42,-387.116 3723.67,-393.086 3729.3,-397.241"/>
</g>
<!-- 55&#45;&gt;67 -->
<g id="edge120" class="edge"><title>55&#45;&gt;67</title>
<path fill="none" stroke="black" d="M3089.69,-457.651C3099.36,-446.438 3113.51,-432.725 3129.45,-426 3145.03,-419.424 3268.44,-428.81 3281.45,-418 3344.96,-365.206 3322.68,-252.084 3308.06,-200.119"/>
<polygon fill="black" stroke="black" points="3311.36,-198.901 3305.18,-190.289 3304.64,-200.87 3311.36,-198.901"/>
</g>
<!-- 56 -->
<g id="node48" class="node"><title>56</title>
<polygon fill="crimson" stroke="black" points="2955.45,-577 2843.45,-577 2843.45,-581 2831.45,-581 2831.45,-541 2955.45,-541 2955.45,-577"/>
<polyline fill="none" stroke="black" points="2831.45,-577 2843.45,-577 "/>
<text text-anchor="middle" x="2893.45" y="-555.3" font-family="Times,serif" font-size="14.00">SimpleSpec</text>
</g>
<!-- 56&#45;&gt;67 -->
<g id="edge121" class="edge"><title>56&#45;&gt;67</title>
<path fill="none" stroke="black" d="M2831.31,-552.872C2786.17,-548.031 2729.9,-539.33 2711.45,-525 2615.42,-450.414 2563.32,-351.457 2643.45,-260 2682.83,-215.046 3091.64,-185.69 3243.26,-176.277"/>
<polygon fill="black" stroke="black" points="3243.54,-179.767 3253.3,-175.66 3243.11,-172.78 3243.54,-179.767"/>
</g>
<!-- 57&#45;&gt;67 -->
<g id="edge122" class="edge"><title>57&#45;&gt;67</title>
<path fill="none" stroke="black" d="M3097.49,-267.791C3102.46,-265.13 3107.58,-262.454 3112.45,-260 3159.17,-236.462 3213.48,-211.451 3251.49,-194.316"/>
<polygon fill="black" stroke="black" points="3253.1,-197.429 3260.79,-190.136 3250.23,-191.044 3253.1,-197.429"/>
</g>
<!-- 60 -->
<g id="node50" class="node"><title>60</title>
<polygon fill="crimson" stroke="black" points="3674.95,-190 3601.95,-190 3601.95,-194 3589.95,-194 3589.95,-154 3674.95,-154 3674.95,-190"/>
<polyline fill="none" stroke="black" points="3589.95,-190 3601.95,-190 "/>
<text text-anchor="middle" x="3632.45" y="-168.3" font-family="Times,serif" font-size="14.00">Core</text>
</g>
<!-- 60&#45;&gt;67 -->
<g id="edge128" class="edge"><title>60&#45;&gt;67</title>
<path fill="none" stroke="black" d="M3589.87,-172C3511.8,-172 3433.72,-172 3355.64,-172"/>
<polygon fill="black" stroke="black" points="3355.62,-168.5 3345.62,-172 3355.62,-175.5 3355.62,-168.5"/>
</g>
<!-- 61 -->
<g id="node51" class="node"><title>61</title>
<polygon fill="crimson" stroke="black" points="3678.95,-387 3593.95,-387 3593.95,-391 3581.95,-391 3581.95,-351 3678.95,-351 3678.95,-387"/>
<polyline fill="none" stroke="black" points="3581.95,-387 3593.95,-387 "/>
<text text-anchor="middle" x="3630.45" y="-365.3" font-family="Times,serif" font-size="14.00">Protect</text>
</g>
<!-- 61&#45;&gt;48 -->
<g id="edge129" class="edge"><title>61&#45;&gt;48</title>
<path fill="none" stroke="black" d="M3581.61,-352.665C3566.92,-348.73 3550.66,-345.036 3535.45,-343 3522.81,-341.309 2626.96,-343.488 2617.45,-335 2579.86,-301.471 2579.86,-142.883 2581.48,-78.3813"/>
<polygon fill="black" stroke="black" points="2584.99,-78.2697 2581.77,-68.174 2577.99,-78.0701 2584.99,-78.2697"/>
</g>
<!-- 61&#45;&gt;60 -->
<g id="edge130" class="edge"><title>61&#45;&gt;60</title>
<path fill="none" stroke="black" d="M3602.17,-350.925C3597.02,-346.429 3592.37,-341.099 3589.45,-335 3575.05,-304.935 3581.86,-292.459 3589.45,-260 3594.56,-238.128 3606.01,-215.443 3615.81,-198.723"/>
<polygon fill="black" stroke="black" points="3618.85,-200.458 3621.03,-190.091 3612.86,-196.834 3618.85,-200.458"/>
</g>
<!-- 62 -->
<g id="node52" class="node"><title>62</title>
<polygon fill="crimson" stroke="black" points="3687.95,-304 3610.95,-304 3610.95,-308 3598.95,-308 3598.95,-268 3687.95,-268 3687.95,-304"/>
<polyline fill="none" stroke="black" points="3598.95,-304 3610.95,-304 "/>
<text text-anchor="middle" x="3643.45" y="-282.3" font-family="Times,serif" font-size="14.00">Trans</text>
</g>
<!-- 61&#45;&gt;62 -->
<g id="edge131" class="edge"><title>61&#45;&gt;62</title>
<path fill="none" stroke="black" d="M3633.2,-350.822C3634.91,-340.19 3637.14,-326.306 3639.08,-314.204"/>
<polygon fill="black" stroke="black" points="3642.57,-314.582 3640.69,-304.153 3635.65,-313.472 3642.57,-314.582"/>
</g>
<!-- 61&#45;&gt;67 -->
<g id="edge132" class="edge"><title>61&#45;&gt;67</title>
<path fill="none" stroke="black" d="M3596.09,-350.913C3589.3,-346.417 3582.67,-341.09 3577.45,-335 3553.86,-307.483 3571.87,-284.802 3545.45,-260 3492.74,-210.531 3410.16,-188.93 3355.43,-179.676"/>
<polygon fill="black" stroke="black" points="3355.98,-176.219 3345.55,-178.088 3354.87,-183.13 3355.98,-176.219"/>
</g>
<!-- 62&#45;&gt;60 -->
<g id="edge133" class="edge"><title>62&#45;&gt;60</title>
<path fill="none" stroke="black" d="M3641.78,-267.99C3640.01,-249.981 3637.19,-221.293 3635.11,-200.152"/>
<polygon fill="black" stroke="black" points="3638.59,-199.78 3634.13,-190.17 3631.63,-200.465 3638.59,-199.78"/>
</g>
<!-- 62&#45;&gt;67 -->
<g id="edge134" class="edge"><title>62&#45;&gt;67</title>
<path fill="none" stroke="black" d="M3612.21,-267.985C3606.4,-265.126 3600.3,-262.334 3594.45,-260 3593.73,-259.715 3440.91,-214.678 3355.53,-189.524"/>
<polygon fill="black" stroke="black" points="3356.31,-186.102 3345.72,-186.633 3354.33,-192.817 3356.31,-186.102"/>
</g>
<!-- 64 -->
<g id="node53" class="node"><title>64</title>
<polygon fill="crimson" stroke="black" points="3523.45,-387 3445.45,-387 3445.45,-391 3433.45,-391 3433.45,-351 3523.45,-351 3523.45,-387"/>
<polyline fill="none" stroke="black" points="3433.45,-387 3445.45,-387 "/>
<text text-anchor="middle" x="3478.45" y="-365.3" font-family="Times,serif" font-size="14.00">Pages</text>
</g>
<!-- 64&#45;&gt;67 -->
<g id="edge143" class="edge"><title>64&#45;&gt;67</title>
<path fill="none" stroke="black" d="M3462.56,-350.695C3430.72,-316.003 3358.98,-237.85 3322.17,-197.754"/>
<polygon fill="black" stroke="black" points="3324.64,-195.266 3315.3,-190.266 3319.48,-200 3324.64,-195.266"/>
</g>
<!-- 65 -->
<g id="node54" class="node"><title>65</title>
<polygon fill="crimson" stroke="black" points="3415.45,-387 3347.45,-387 3347.45,-391 3335.45,-391 3335.45,-351 3415.45,-351 3415.45,-387"/>
<polyline fill="none" stroke="black" points="3335.45,-387 3347.45,-387 "/>
<text text-anchor="middle" x="3375.45" y="-365.3" font-family="Times,serif" font-size="14.00">Util</text>
</g>
<!-- 65&#45;&gt;20 -->
<g id="edge144" class="edge"><title>65&#45;&gt;20</title>
<path fill="none" stroke="black" d="M3350.34,-350.867C3344.39,-347.636 3337.9,-344.73 3331.45,-343 3273.33,-327.413 2306.76,-349.808 2248.45,-335 2228.32,-329.889 2207.74,-319.386 2191.35,-309.505"/>
<polygon fill="black" stroke="black" points="2193.05,-306.437 2182.71,-304.118 2189.35,-312.377 2193.05,-306.437"/>
</g>
<!-- 58&#45;&gt;48 -->
<g id="edge123" class="edge"><title>58&#45;&gt;48</title>
<path fill="none" stroke="black" d="M3182.4,-267.983C3066.06,-225.906 2765.21,-117.1 2639.24,-71.5409"/>
<polygon fill="black" stroke="black" points="2640.35,-68.221 2629.76,-68.1112 2637.97,-74.8037 2640.35,-68.221"/>
</g>
<!-- 58&#45;&gt;67 -->
<g id="edge124" class="edge"><title>58&#45;&gt;67</title>
<path fill="none" stroke="black" d="M3240.08,-267.99C3251.59,-249.57 3270.09,-219.978 3283.37,-198.716"/>
<polygon fill="black" stroke="black" points="3286.38,-200.505 3288.72,-190.17 3280.45,-196.795 3286.38,-200.505"/>
</g>
<!-- 59&#45;&gt;60 -->
<g id="edge125" class="edge"><title>59&#45;&gt;60</title>
<path fill="none" stroke="black" d="M3736.59,-350.961C3728.78,-329.179 3713.92,-290.624 3696.45,-260 3683.95,-238.087 3666.91,-215.176 3653.55,-198.369"/>
<polygon fill="black" stroke="black" points="3655.95,-195.764 3646.95,-190.174 3650.5,-200.157 3655.95,-195.764"/>
</g>
<!-- 59&#45;&gt;61 -->
<g id="edge126" class="edge"><title>59&#45;&gt;61</title>
<path fill="none" stroke="black" d="M3703.79,-369C3698.89,-369 3693.98,-369 3689.08,-369"/>
<polygon fill="black" stroke="black" points="3689.01,-365.5 3679.01,-369 3689.01,-372.5 3689.01,-365.5"/>
</g>
<!-- 59&#45;&gt;62 -->
<g id="edge127" class="edge"><title>59&#45;&gt;62</title>
<path fill="none" stroke="black" d="M3713.65,-350.869C3706.2,-346.037 3698.34,-340.569 3691.45,-335 3682.79,-327.998 3673.98,-319.625 3666.31,-311.847"/>
<polygon fill="black" stroke="black" points="3668.54,-309.11 3659.08,-304.34 3663.5,-313.969 3668.54,-309.11"/>
</g>
<!-- 63 -->
<g id="node57" class="node"><title>63</title>
<polygon fill="crimson" stroke="black" points="3531.95,-494 3436.95,-494 3436.95,-498 3424.95,-498 3424.95,-458 3531.95,-458 3531.95,-494"/>
<polyline fill="none" stroke="black" points="3424.95,-494 3436.95,-494 "/>
<text text-anchor="middle" x="3478.45" y="-472.3" font-family="Times,serif" font-size="14.00">Frontend</text>
</g>
<!-- 63&#45;&gt;21 -->
<g id="edge135" class="edge"><title>63&#45;&gt;21</title>
<path fill="none" stroke="black" d="M3424.94,-465.1C3358,-453.226 3239.71,-433.929 3137.45,-426 3100.67,-423.148 2508.48,-429.549 2473.45,-418 2419.32,-400.159 2423.07,-362.295 2369.45,-343 2344.09,-333.876 2270.93,-349.856 2248.45,-335 2217.27,-314.399 2242.21,-279.686 2210.45,-260 2198.44,-252.559 1207.55,-252.782 1193.45,-252 929.631,-237.374 616.557,-198.154 488.022,-181.102"/>
<polygon fill="black" stroke="black" points="488.364,-177.617 477.99,-179.767 487.44,-184.556 488.364,-177.617"/>
</g>
<!-- 63&#45;&gt;48 -->
<g id="edge136" class="edge"><title>63&#45;&gt;48</title>
<path fill="none" stroke="black" d="M3424.92,-465.319C3357.96,-453.668 3239.66,-434.599 3137.45,-426 2998.25,-414.289 2600.89,-445.515 2515.45,-335 2508.43,-325.928 2507.48,-158.218 2514.45,-138 2522.71,-114.012 2540.6,-91.5749 2555.96,-75.496"/>
<polygon fill="black" stroke="black" points="2558.7,-77.7052 2563.24,-68.1345 2553.72,-72.7822 2558.7,-77.7052"/>
</g>
<!-- 63&#45;&gt;64 -->
<g id="edge139" class="edge"><title>63&#45;&gt;64</title>
<path fill="none" stroke="black" d="M3478.45,-457.661C3478.45,-441.225 3478.45,-416.278 3478.45,-397.194"/>
<polygon fill="black" stroke="black" points="3481.95,-397.016 3478.45,-387.016 3474.95,-397.016 3481.95,-397.016"/>
</g>
<!-- 63&#45;&gt;65 -->
<g id="edge140" class="edge"><title>63&#45;&gt;65</title>
<path fill="none" stroke="black" d="M3461.44,-457.661C3444.49,-440.384 3418.32,-413.703 3399.3,-394.313"/>
<polygon fill="black" stroke="black" points="3401.64,-391.704 3392.14,-387.016 3396.64,-396.606 3401.64,-391.704"/>
</g>
<!-- 63&#45;&gt;58 -->
<g id="edge137" class="edge"><title>63&#45;&gt;58</title>
<path fill="none" stroke="black" d="M3502.99,-457.952C3515.23,-447.907 3528.81,-434.033 3535.45,-418 3548.2,-387.204 3556.79,-368.604 3535.45,-343 3504.59,-305.978 3368.01,-293.359 3288.13,-289.111"/>
<polygon fill="black" stroke="black" points="3287.89,-285.594 3277.73,-288.588 3287.54,-292.586 3287.89,-285.594"/>
</g>
<!-- 63&#45;&gt;59 -->
<g id="edge138" class="edge"><title>63&#45;&gt;59</title>
<path fill="none" stroke="black" d="M3531.55,-457.994C3565.1,-447.698 3609.5,-434.884 3649.45,-426 3671.41,-421.114 3679.69,-428.779 3699.45,-418 3709.42,-412.558 3718.25,-403.881 3725.27,-395.392"/>
<polygon fill="black" stroke="black" points="3728.08,-397.475 3731.42,-387.421 3722.54,-393.196 3728.08,-397.475"/>
</g>
<!-- 63&#45;&gt;66 -->
<g id="edge141" class="edge"><title>63&#45;&gt;66</title>
<path fill="none" stroke="black" d="M3431.98,-457.931C3401.19,-446.615 3359.9,-431.433 3323.45,-418 3298.35,-408.751 3270.53,-398.482 3247.09,-389.824"/>
<polygon fill="black" stroke="black" points="3248.26,-386.526 3237.67,-386.344 3245.83,-393.092 3248.26,-386.526"/>
</g>
<!-- 63&#45;&gt;67 -->
<g id="edge142" class="edge"><title>63&#45;&gt;67</title>
<path fill="none" stroke="black" d="M3498.02,-457.856C3509.12,-448.281 3523.38,-436.251 3536.45,-426 3541.2,-422.269 3544.7,-423.387 3547.45,-418 3562.57,-388.296 3562.99,-372.49 3547.45,-343 3507.08,-266.396 3414.91,-217.69 3355.01,-192.891"/>
<polygon fill="black" stroke="black" points="3356.27,-189.625 3345.68,-189.115 3353.64,-196.113 3356.27,-189.625"/>
</g>
<!-- 66&#45;&gt;48 -->
<g id="edge145" class="edge"><title>66&#45;&gt;48</title>
<path fill="none" stroke="black" d="M3161.04,-350.888C3153.49,-347.656 3145.35,-344.744 3137.45,-343 3122.53,-339.707 2598.27,-345.788 2587.45,-335 2518.41,-266.17 2553.02,-134.28 2572.36,-77.7731"/>
<polygon fill="black" stroke="black" points="2575.74,-78.7264 2575.77,-68.1316 2569.14,-76.3945 2575.74,-78.7264"/>
</g>
<!-- 66&#45;&gt;58 -->
<g id="edge146" class="edge"><title>66&#45;&gt;58</title>
<path fill="none" stroke="black" d="M3201.08,-350.822C3205.9,-339.976 3212.23,-325.744 3217.68,-313.472"/>
<polygon fill="black" stroke="black" points="3220.96,-314.713 3221.82,-304.153 3214.56,-311.87 3220.96,-314.713"/>
</g>
<!-- 66&#45;&gt;67 -->
<g id="edge147" class="edge"><title>66&#45;&gt;67</title>
<path fill="none" stroke="black" d="M3179.91,-350.744C3176.85,-345.912 3174.04,-340.477 3172.45,-335 3163.13,-302.996 3156.9,-289.488 3172.45,-260 3188.12,-230.262 3219.05,-208.744 3246.46,-194.547"/>
<polygon fill="black" stroke="black" points="3248.2,-197.594 3255.6,-190.012 3245.08,-191.325 3248.2,-197.594"/>
</g>
<!-- 67&#45;&gt;48 -->
<g id="edge148" class="edge"><title>67&#45;&gt;48</title>
<path fill="none" stroke="black" d="M3253.23,-163.265C3128.6,-142.406 2785.48,-84.9812 2644.34,-61.3581"/>
<polygon fill="black" stroke="black" points="2644.57,-57.848 2634.13,-59.6492 2643.41,-64.7519 2644.57,-57.848"/>
</g>
<!-- 68 -->
<g id="node60" class="node"><title>68</title>
<polygon fill="crimson" stroke="black" points="2807.45,-304 2701.45,-304 2701.45,-308 2689.45,-308 2689.45,-268 2807.45,-268 2807.45,-304"/>
<polyline fill="none" stroke="black" points="2689.45,-304 2701.45,-304 "/>
<text text-anchor="middle" x="2748.45" y="-282.3" font-family="Times,serif" font-size="14.00">TypesSpec</text>
</g>
<!-- 68&#45;&gt;49 -->
<g id="edge149" class="edge"><title>68&#45;&gt;49</title>
<path fill="none" stroke="black" d="M2764.35,-304.067C2777.7,-317.491 2798.13,-334.263 2820.45,-339 2835.13,-342.117 3886.76,-342.117 3901.45,-339 3920.1,-335.042 3937.52,-322.864 3950.66,-311.178"/>
<polygon fill="black" stroke="black" points="3953.37,-313.439 3958.26,-304.044 3948.58,-308.334 3953.37,-313.439"/>
</g>
<!-- 68&#45;&gt;67 -->
<g id="edge150" class="edge"><title>68&#45;&gt;67</title>
<path fill="none" stroke="black" d="M2788.02,-267.896C2795.7,-264.979 2803.75,-262.189 2811.45,-260 2964.68,-216.419 3151.47,-190.375 3243.17,-179.293"/>
<polygon fill="black" stroke="black" points="3243.82,-182.74 3253.34,-178.078 3242.99,-175.789 3243.82,-182.74"/>
</g>
<!-- 1 -->
<g id="node61" class="node"><title>1</title>
<polygon fill="crimson" stroke="black" points="1058.45,-890 948.447,-890 948.447,-894 936.447,-894 936.447,-854 1058.45,-854 1058.45,-890"/>
<polyline fill="none" stroke="black" points="936.447,-890 948.447,-890 "/>
<text text-anchor="middle" x="997.447" y="-868.3" font-family="Times,serif" font-size="14.00">Application</text>
</g>
<!-- 1&#45;&gt;22 -->
<g id="edge2" class="edge"><title>1&#45;&gt;22</title>
<path fill="none" stroke="black" d="M997.447,-853.86C997.447,-825.157 997.447,-767.126 997.447,-732.609"/>
<polygon fill="black" stroke="black" points="1000.95,-732.295 997.447,-722.295 993.947,-732.295 1000.95,-732.295"/>
</g>
<!-- 1&#45;&gt;28 -->
<g id="edge3" class="edge"><title>1&#45;&gt;28</title>
<path fill="none" stroke="black" d="M1058.61,-870.328C1199.87,-868.5 1538.19,-862.423 1556.45,-846 1655.23,-757.164 1631.7,-573.932 1618.42,-504.492"/>
<polygon fill="black" stroke="black" points="1621.78,-503.478 1616.39,-494.356 1614.92,-504.848 1621.78,-503.478"/>
</g>
<!-- 1&#45;&gt;40 -->
<g id="edge4" class="edge"><title>1&#45;&gt;40</title>
<path fill="none" stroke="black" d="M936.187,-870.54C755.087,-868.987 232.809,-863.047 200.447,-846 73.8188,-779.297 52.447,-703.122 52.447,-560 52.447,-560 52.447,-560 52.447,-475 52.447,-358.792 443.276,-358.485 558.447,-343 594.789,-338.114 1184.25,-348.239 1218.45,-335 1231.06,-330.118 1242.62,-320.834 1251.79,-311.723"/>
<polygon fill="black" stroke="black" points="1254.57,-313.881 1258.89,-304.21 1249.48,-309.071 1254.57,-313.881"/>
</g>
<!-- 1&#45;&gt;21 -->
<g id="edge1" class="edge"><title>1&#45;&gt;21</title>
<path fill="none" stroke="black" d="M936.333,-870.419C730.576,-868.329 74.9447,-860.539 58.447,-846 -38.0379,-760.969 14.447,-688.607 14.447,-560 14.447,-560 14.447,-560 14.447,-368 14.447,-213.179 254.333,-181.07 368.899,-174.563"/>
<polygon fill="black" stroke="black" points="369.116,-178.056 378.92,-174.041 368.752,-171.066 369.116,-178.056"/>
</g>
<!-- 8 -->
<g id="node62" class="node"><title>8</title>
<polygon fill="crimson" stroke="black" points="4655.45,-965 4561.45,-965 4561.45,-969 4549.45,-969 4549.45,-929 4655.45,-929 4655.45,-965"/>
<polyline fill="none" stroke="black" points="4549.45,-965 4561.45,-965 "/>
<text text-anchor="middle" x="4602.45" y="-943.3" font-family="Times,serif" font-size="14.00">Cabbage</text>
</g>
<!-- 16 -->
<g id="node63" class="node"><title>16</title>
<polygon fill="gold" stroke="black" points="4761.45,-965 4685.45,-965 4685.45,-969 4673.45,-969 4673.45,-929 4761.45,-929 4761.45,-965"/>
<polyline fill="none" stroke="black" points="4673.45,-965 4685.45,-965 "/>
<text text-anchor="middle" x="4717.45" y="-943.3" font-family="Times,serif" font-size="14.00">Main</text>
</g>
<!-- 17 -->
<g id="node64" class="node"><title>17</title>
<polygon fill="crimson" stroke="black" points="2344.95,-304 2269.95,-304 2269.95,-308 2257.95,-308 2257.95,-268 2344.95,-268 2344.95,-304"/>
<polyline fill="none" stroke="black" points="2257.95,-304 2269.95,-304 "/>
<text text-anchor="middle" x="2301.45" y="-282.3" font-family="Times,serif" font-size="14.00">Part2</text>
</g>
<!-- 17&#45;&gt;21 -->
<g id="edge37" class="edge"><title>17&#45;&gt;21</title>
<path fill="none" stroke="black" d="M2268.15,-267.973C2260.25,-264.692 2251.71,-261.738 2243.45,-260 2186.36,-247.994 1251.69,-255.222 1193.45,-252 929.629,-237.406 616.557,-198.169 488.022,-181.108"/>
<polygon fill="black" stroke="black" points="488.364,-177.622 477.99,-179.771 487.44,-184.561 488.364,-177.622"/>
</g>
<!-- 19 -->
<g id="node66" class="node"><title>19</title>
<polygon fill="crimson" stroke="black" points="1676.45,-965 1608.45,-965 1608.45,-969 1596.45,-969 1596.45,-929 1676.45,-929 1676.45,-965"/>
<polyline fill="none" stroke="black" points="1596.45,-965 1608.45,-965 "/>
<text text-anchor="middle" x="1636.45" y="-943.3" font-family="Times,serif" font-size="14.00">Site</text>
</g>
<!-- 19&#45;&gt;24 -->
<g id="edge41" class="edge"><title>19&#45;&gt;24</title>
<path fill="none" stroke="black" d="M1634.08,-928.877C1623.43,-852.527 1579.89,-546.294 1564.45,-533 1549.87,-520.457 1236.78,-530.784 1218.45,-525 1202.23,-519.884 1186.27,-509.907 1173.52,-500.368"/>
<polygon fill="black" stroke="black" points="1175.67,-497.606 1165.63,-494.218 1171.37,-503.127 1175.67,-497.606"/>
</g>
<!-- 19&#45;&gt;41 -->
<g id="edge43" class="edge"><title>19&#45;&gt;41</title>
<path fill="none" stroke="black" d="M1653.77,-928.977C1656.11,-926.387 1658.41,-923.682 1660.45,-921 1736.42,-821.059 1737.75,-784.357 1804.45,-678 1899.34,-526.678 1870.13,-429.416 2026.45,-343 2042.35,-334.208 2340.76,-348.006 2353.45,-335 2376.73,-311.143 2375.7,-284.815 2353.45,-260 2306,-207.095 1827.55,-183.265 1635.04,-175.764"/>
<polygon fill="black" stroke="black" points="1635.12,-172.264 1624.99,-175.377 1634.85,-179.259 1635.12,-172.264"/>
</g>
<!-- 19&#45;&gt;22 -->
<g id="edge40" class="edge"><title>19&#45;&gt;22</title>
<path fill="none" stroke="black" d="M1596.25,-933.912C1537.73,-916.055 1425.85,-880.954 1332.45,-846 1228.45,-807.083 1109.14,-755.047 1044.71,-726.315"/>
<polygon fill="black" stroke="black" points="1045.79,-722.963 1035.23,-722.079 1042.93,-729.354 1045.79,-722.963"/>
</g>
<!-- 19&#45;&gt;28 -->
<g id="edge42" class="edge"><title>19&#45;&gt;28</title>
<path fill="none" stroke="black" d="M1639.67,-928.74C1649.74,-871.403 1677.85,-682.442 1641.45,-533 1638.95,-522.736 1634.21,-512.255 1629.28,-503.177"/>
<polygon fill="black" stroke="black" points="1632.19,-501.208 1624.16,-494.294 1626.12,-504.705 1632.19,-501.208"/>
</g>
<!-- 19&#45;&gt;21 -->
<g id="edge39" class="edge"><title>19&#45;&gt;21</title>
<path fill="none" stroke="black" d="M1676.68,-946.089C1822.27,-946.218 2314.4,-944.88 2337.45,-921 2490.21,-762.689 2466.08,-604.473 2337.45,-426 2330.87,-416.879 2323.66,-422.698 2313.45,-418 2254.59,-390.928 2249.97,-363.309 2188.45,-343 2171.06,-337.261 2121.82,-344.937 2106.45,-335 2074.18,-314.145 2096.6,-279.414 2063.45,-260 2053.02,-253.894 1205.51,-252.677 1193.45,-252 929.64,-237.198 616.562,-198.074 488.023,-181.075"/>
<polygon fill="black" stroke="black" points="488.365,-177.59 477.991,-179.744 487.444,-184.529 488.365,-177.59"/>
</g>
<!-- 19&#45;&gt;1 -->
<g id="edge38" class="edge"><title>19&#45;&gt;1</title>
<path fill="none" stroke="black" d="M1596.33,-943.73C1536.09,-940.119 1418.73,-932.301 1319.45,-921 1232.96,-911.155 1133.99,-895.783 1068.87,-885.097"/>
<polygon fill="black" stroke="black" points="1069.15,-881.597 1058.71,-883.424 1068.01,-888.504 1069.15,-881.597"/>
</g>
<!-- 20&#45;&gt;21 -->
<g id="edge44" class="edge"><title>20&#45;&gt;21</title>
<path fill="none" stroke="black" d="M2125.75,-267.981C2117.98,-264.699 2109.58,-261.743 2101.45,-260 2052.12,-249.431 1243.81,-254.816 1193.45,-252 929.638,-237.249 616.56,-198.097 488.023,-181.083"/>
<polygon fill="black" stroke="black" points="488.365,-177.598 477.991,-179.751 487.443,-184.537 488.365,-177.598"/>
</g>
<!-- 51 -->
<g id="node68" class="node"><title>51</title>
<polygon fill="crimson" stroke="black" points="3899.45,-577 3809.45,-577 3809.45,-581 3797.45,-581 3797.45,-541 3899.45,-541 3899.45,-577"/>
<polyline fill="none" stroke="black" points="3797.45,-577 3809.45,-577 "/>
<text text-anchor="middle" x="3848.45" y="-555.3" font-family="Times,serif" font-size="14.00">Thentos</text>
</g>
<!-- 51&#45;&gt;48 -->
<g id="edge92" class="edge"><title>51&#45;&gt;48</title>
<path fill="none" stroke="black" d="M3899.56,-557.451C3962.02,-555.715 4062.82,-549.126 4090.45,-525 4144.3,-477.976 4133.45,-441.491 4133.45,-370 4133.45,-370 4133.45,-370 4133.45,-285 4133.45,-175.363 5122.35,-405.526 3699.45,-138 3302.3,-63.3303 2814.09,-52.5576 2644.19,-51.1492"/>
<polygon fill="black" stroke="black" points="2644.21,-47.6493 2634.18,-51.0741 2644.15,-54.6491 2644.21,-47.6493"/>
</g>
<!-- 51&#45;&gt;52 -->
<g id="edge93" class="edge"><title>51&#45;&gt;52</title>
<path fill="none" stroke="black" d="M3797.21,-556.336C3619.14,-550.506 3037.03,-531.032 3018.45,-525 3002.43,-519.799 2986.63,-509.946 2973.93,-500.514"/>
<polygon fill="black" stroke="black" points="2975.72,-497.472 2965.67,-494.113 2971.43,-503.005 2975.72,-497.472"/>
</g>
<!-- 51&#45;&gt;55 -->
<g id="edge94" class="edge"><title>51&#45;&gt;55</title>
<path fill="none" stroke="black" d="M3797.18,-557.644C3643.05,-556.298 3190.64,-550.219 3129.45,-525 3117.07,-519.9 3105.72,-510.583 3096.73,-501.504"/>
<polygon fill="black" stroke="black" points="3099.13,-498.956 3089.75,-494.033 3094.02,-503.732 3099.13,-498.956"/>
</g>
<!-- 51&#45;&gt;58 -->
<g id="edge95" class="edge"><title>51&#45;&gt;58</title>
<path fill="none" stroke="black" d="M3849.81,-540.749C3852.06,-498.908 3851.21,-391.882 3789.45,-343 3779.77,-335.341 3579.74,-336.091 3567.45,-335 3468.76,-326.239 3354.83,-308.452 3287.65,-297.163"/>
<polygon fill="black" stroke="black" points="3288.12,-293.694 3277.68,-295.478 3286.96,-300.596 3288.12,-293.694"/>
</g>
<!-- 51&#45;&gt;59 -->
<g id="edge96" class="edge"><title>51&#45;&gt;59</title>
<path fill="none" stroke="black" d="M3826.17,-540.889C3820.9,-536.135 3815.61,-530.7 3811.45,-525 3781.83,-484.428 3761.05,-429.124 3750.48,-396.722"/>
<polygon fill="black" stroke="black" points="3753.77,-395.525 3747.41,-387.054 3747.1,-397.645 3753.77,-395.525"/>
</g>
<!-- 51&#45;&gt;63 -->
<g id="edge97" class="edge"><title>51&#45;&gt;63</title>
<path fill="none" stroke="black" d="M3797.39,-546.822C3730.74,-532.232 3614.11,-506.699 3541.87,-490.884"/>
<polygon fill="black" stroke="black" points="3542.49,-487.438 3531.98,-488.719 3541,-494.276 3542.49,-487.438"/>
</g>
<!-- 51&#45;&gt;67 -->
<g id="edge98" class="edge"><title>51&#45;&gt;67</title>
<path fill="none" stroke="black" d="M3899.61,-556.192C3950.95,-553.231 4025.13,-545.442 4044.45,-525 4125.59,-439.122 4148.32,-344.211 4065.45,-260 4055.74,-250.139 3581.12,-254.086 3567.45,-252 3491.38,-240.398 3406.68,-212.842 3353.26,-193.558"/>
<polygon fill="black" stroke="black" points="3354.25,-190.194 3343.65,-190.059 3351.85,-196.771 3354.25,-190.194"/>
</g>
<!-- 69 -->
<g id="node69" class="node"><title>69</title>
<polygon fill="crimson" stroke="black" points="4035.45,-494 3919.45,-494 3919.45,-498 3907.45,-498 3907.45,-458 4035.45,-458 4035.45,-494"/>
<polyline fill="none" stroke="black" points="3907.45,-494 3919.45,-494 "/>
<text text-anchor="middle" x="3971.45" y="-472.3" font-family="Times,serif" font-size="14.00">ThentosSpec</text>
</g>
<!-- 69&#45;&gt;59 -->
<g id="edge151" class="edge"><title>69&#45;&gt;59</title>
<path fill="none" stroke="black" d="M3934.14,-457.896C3894.55,-439.744 3831.92,-411.023 3789.09,-391.387"/>
<polygon fill="black" stroke="black" points="3790.28,-388.083 3779.73,-387.096 3787.36,-394.446 3790.28,-388.083"/>
</g>
<!-- 69&#45;&gt;67 -->
<g id="edge152" class="edge"><title>69&#45;&gt;67</title>
<path fill="none" stroke="black" d="M3986.9,-457.884C4021.32,-417.717 4097.04,-316.541 4041.45,-260 4032.21,-250.61 3580.46,-253.991 3567.45,-252 3491.39,-240.367 3406.69,-212.818 3353.26,-193.545"/>
<polygon fill="black" stroke="black" points="3354.25,-190.181 3343.65,-190.048 3351.85,-196.758 3354.25,-190.181"/>
</g>
</g>
</svg>
