<?xml version="1.0" encoding="UTF-8" standalone="no"?>
<!DOCTYPE svg PUBLIC "-//W3C//DTD SVG 1.1//EN"
 "http://www.w3.org/Graphics/SVG/1.1/DTD/svg11.dtd">
<!-- Generated by graphviz version 2.38.0 (20140413.2041)
 -->
<!-- Title: Diagram of: Part2 Pages: 1 -->
<svg width="232pt" height="135pt"
 viewBox="0.00 0.00 232.00 135.00" xmlns="http://www.w3.org/2000/svg" xmlns:xlink="http://www.w3.org/1999/xlink">
<g id="graph0" class="graph" transform="scale(1 1) rotate(0) translate(4 131)">
<title>Diagram of: Part2</title>
<polygon fill="white" stroke="none" points="-4,4 -4,-131 228,-131 228,4 -4,4"/>
<g id="clust1" class="cluster"><title>cluster_Data_Bar</title>
<path fill="papayawhip" stroke="black" d="M20,-8C20,-8 90,-8 90,-8 96,-8 102,-14 102,-20 102,-20 102,-71 102,-71 102,-77 96,-83 90,-83 90,-83 20,-83 20,-83 14,-83 8,-77 8,-71 8,-71 8,-20 8,-20 8,-14 14,-8 20,-8"/>
<text text-anchor="middle" x="55" y="-67.8" font-family="Times,serif" font-size="14.00">Data: Bar</text>
</g>
<g id="clust2" class="cluster"><title>cluster_Data_Foo</title>
<path fill="papayawhip" stroke="black" d="M132,-8C132,-8 204,-8 204,-8 210,-8 216,-14 216,-20 216,-20 216,-71 216,-71 216,-77 210,-83 204,-83 204,-83 132,-83 132,-83 126,-83 120,-77 120,-71 120,-71 120,-20 120,-20 120,-14 126,-8 132,-8"/>
<text text-anchor="middle" x="168" y="-67.8" font-family="Times,serif" font-size="14.00">Data: Foo</text>
</g>
<!-- 1 -->
<g id="node1" class="node"><title>1</title>
<polygon fill="goldenrod" stroke="black" stroke-width="2" points="94,-52 20,-52 16,-48 16,-16 90,-16 94,-20 94,-52"/>
<polyline fill="none" stroke="black" stroke-width="2" points="90,-48 16,-48 "/>
<polyline fill="none" stroke="black" stroke-width="2" points="90,-48 90,-16 "/>
<polyline fill="none" stroke="black" stroke-width="2" points="90,-48 94,-52 "/>
<text text-anchor="middle" x="55" y="-30.3" font-family="Times,serif" font-size="14.00">Bar</text>
</g>
<!-- 2 -->
<g id="node2" class="node"><title>2</title>
<polygon fill="goldenrod" stroke="black" stroke-width="2" points="208,-52 132,-52 128,-48 128,-16 204,-16 208,-20 208,-52"/>
<polyline fill="none" stroke="black" stroke-width="2" points="204,-48 128,-48 "/>
<polyline fill="none" stroke="black" stroke-width="2" points="204,-48 204,-16 "/>
<polyline fill="none" stroke="black" stroke-width="2" points="204,-48 208,-52 "/>
<text text-anchor="middle" x="168" y="-30.3" font-family="Times,serif" font-size="14.00">Foo</text>
</g>
<!-- 3 -->
<g id="node3" class="node"><title>3</title>
<polygon fill="gold" stroke="black" stroke-width="2" points="102.5,-127 7.5,-127 7.5,-91 102.5,-91 102.5,-127"/>
<text text-anchor="middle" x="55" y="-105.3" font-family="Times,serif" font-size="14.00">barInit</text>
</g>
<!-- 3&#45;&gt;1 -->
<g id="edge1" class="edge"><title>3&#45;&gt;1</title>
<path fill="none" stroke="chartreuse" d="M55,-90.7C55,-82.2452 55,-71.8688 55,-62.3732"/>
<polygon fill="chartreuse" stroke="chartreuse" points="58.5001,-62.1758 55,-52.1758 51.5001,-62.1758 58.5001,-62.1758"/>
</g>
<!-- 4 -->
<g id="node4" class="node"><title>4</title>
<polygon fill="gold" stroke="black" stroke-width="2" points="215.5,-127 120.5,-127 120.5,-91 215.5,-91 215.5,-127"/>
<text text-anchor="middle" x="168" y="-105.3" font-family="Times,serif" font-size="14.00">fooInit</text>
</g>
<!-- 4&#45;&gt;2 -->
<g id="edge2" class="edge"><title>4&#45;&gt;2</title>
<path fill="none" stroke="chartreuse" d="M168,-90.7C168,-82.2452 168,-71.8688 168,-62.3732"/>
<polygon fill="chartreuse" stroke="chartreuse" points="171.5,-62.1758 168,-52.1758 164.5,-62.1758 171.5,-62.1758"/>
</g>
</g>
</svg>
