<?xml version="1.0" encoding="UTF-8" standalone="no"?>
<!DOCTYPE svg PUBLIC "-//W3C//DTD SVG 1.1//EN"
 "http://www.w3.org/Graphics/SVG/1.1/DTD/svg11.dtd">
<!-- Generated by graphviz version 2.38.0 (20140413.2041)
 -->
<!-- Title: Levels within Part2 Pages: 1 -->
<svg width="282pt" height="171pt"
 viewBox="0.00 0.00 282.00 171.00" xmlns="http://www.w3.org/2000/svg" xmlns:xlink="http://www.w3.org/1999/xlink">
<g id="graph0" class="graph" transform="scale(1 1) rotate(0) translate(4 167)">
<title>Levels within Part2</title>
<polygon fill="white" stroke="none" points="-4,4 -4,-167 278,-167 278,4 -4,4"/>
<g id="clust1" class="cluster"><title>cluster_0</title>
<polygon fill="lavender" stroke="black" points="8,-8 8,-155 266,-155 266,-8 8,-8"/>
<text text-anchor="middle" x="137" y="-139.8" font-family="Times,serif" font-size="14.00">Exported root entities</text>
</g>
<!-- 1 -->
<g id="node1" class="node"><title>1</title>
<polygon fill="goldenrod" stroke="black" stroke-width="2" points="258.5,-52 151.5,-52 147.5,-48 147.5,-16 254.5,-16 258.5,-20 258.5,-52"/>
<polyline fill="none" stroke="black" stroke-width="2" points="254.5,-48 147.5,-48 "/>
<polyline fill="none" stroke="black" stroke-width="2" points="254.5,-48 254.5,-16 "/>
<polyline fill="none" stroke="black" stroke-width="2" points="254.5,-48 258.5,-52 "/>
<text text-anchor="middle" x="203" y="-30.3" font-family="Times,serif" font-size="14.00">Data: Bar</text>
</g>
<!-- 2 -->
<g id="node2" class="node"><title>2</title>
<polygon fill="goldenrod" stroke="black" stroke-width="2" points="129.5,-52 20.5,-52 16.5,-48 16.5,-16 125.5,-16 129.5,-20 129.5,-52"/>
<polyline fill="none" stroke="black" stroke-width="2" points="125.5,-48 16.5,-48 "/>
<polyline fill="none" stroke="black" stroke-width="2" points="125.5,-48 125.5,-16 "/>
<polyline fill="none" stroke="black" stroke-width="2" points="125.5,-48 129.5,-52 "/>
<text text-anchor="middle" x="73" y="-30.3" font-family="Times,serif" font-size="14.00">Data: Foo</text>
</g>
<!-- 3 -->
<g id="node3" class="node"><title>3</title>
<polygon fill="gold" stroke="black" stroke-width="2" points="250.5,-124 155.5,-124 155.5,-88 250.5,-88 250.5,-124"/>
<text text-anchor="middle" x="203" y="-102.3" font-family="Times,serif" font-size="14.00">barInit</text>
</g>
<!-- 3&#45;&gt;1 -->
<g id="edge1" class="edge"><title>3&#45;&gt;1</title>
<path fill="none" stroke="chartreuse" d="M203,-87.6966C203,-79.9827 203,-70.7125 203,-62.1124"/>
<polygon fill="chartreuse" stroke="chartreuse" points="206.5,-62.1043 203,-52.1043 199.5,-62.1044 206.5,-62.1043"/>
</g>
<!-- 4 -->
<g id="node4" class="node"><title>4</title>
<polygon fill="gold" stroke="black" stroke-width="2" points="120.5,-124 25.5,-124 25.5,-88 120.5,-88 120.5,-124"/>
<text text-anchor="middle" x="73" y="-102.3" font-family="Times,serif" font-size="14.00">fooInit</text>
</g>
<!-- 4&#45;&gt;2 -->
<g id="edge2" class="edge"><title>4&#45;&gt;2</title>
<path fill="none" stroke="chartreuse" d="M73,-87.6966C73,-79.9827 73,-70.7125 73,-62.1124"/>
<polygon fill="chartreuse" stroke="chartreuse" points="76.5001,-62.1043 73,-52.1043 69.5001,-62.1044 76.5001,-62.1043"/>
</g>
</g>
</svg>
