<?xml version="1.0" encoding="UTF-8" standalone="no"?>
<!DOCTYPE svg PUBLIC "-//W3C//DTD SVG 1.1//EN"
 "http://www.w3.org/Graphics/SVG/1.1/DTD/svg11.dtd">
<!-- Generated by graphviz version 2.38.0 (20140413.2041)
 -->
<!-- Title: Diagram of: SafeCWD Pages: 1 -->
<svg width="338pt" height="116pt"
 viewBox="0.00 0.00 337.50 116.00" xmlns="http://www.w3.org/2000/svg" xmlns:xlink="http://www.w3.org/1999/xlink">
<g id="graph0" class="graph" transform="scale(1 1) rotate(0) translate(4 112)">
<title>Diagram of: SafeCWD</title>
<polygon fill="white" stroke="none" points="-4,4 -4,-112 333.5,-112 333.5,4 -4,4"/>
<!-- 1 -->
<g id="node1" class="node"><title>1</title>
<polygon fill="gold" stroke="black" stroke-width="2" points="245.5,-108 158.5,-108 158.5,-72 245.5,-72 245.5,-108"/>
<text text-anchor="middle" x="202" y="-86.3" font-family="Times,serif" font-size="14.00">inDir</text>
</g>
<!-- 2 -->
<g id="node2" class="node"><title>2</title>
<polygon fill="goldenrod" stroke="black" stroke-width="2" points="230,-36 1.42109e-14,-36 1.42109e-14,-0 230,-0 230,-36"/>
<text text-anchor="middle" x="115" y="-14.3" font-family="Times,serif" font-size="14.00">removeDirectoryRecursiveSafe</text>
</g>
<!-- 1&#45;&gt;2 -->
<g id="edge1" class="edge"><title>1&#45;&gt;2</title>
<path fill="none" stroke="black" d="M180.494,-71.6966C169.537,-62.8807 156.054,-52.0321 144.175,-42.4742"/>
<polygon fill="black" stroke="black" points="146.244,-39.6462 136.258,-36.1043 141.855,-45.1001 146.244,-39.6462"/>
</g>
<!-- 3 -->
<g id="node3" class="node"><title>3</title>
<polygon fill="cyan" stroke="black" stroke-width="2" points="329.5,-36 248.5,-36 248.5,-0 329.5,-0 329.5,-36"/>
<text text-anchor="middle" x="289" y="-14.3" font-family="Times,serif" font-size="14.00">sem</text>
</g>
<!-- 1&#45;&gt;3 -->
<g id="edge2" class="edge"><title>1&#45;&gt;3</title>
<path fill="none" stroke="black" stroke-width="1.69315" d="M223.506,-71.6966C234.463,-62.8807 247.946,-52.0321 259.825,-42.4742"/>
<polygon fill="black" stroke="black" stroke-width="1.69315" points="262.145,-45.1001 267.742,-36.1043 257.756,-39.6462 262.145,-45.1001"/>
</g>
</g>
</svg>
