<?xml version="1.0" encoding="UTF-8" standalone="no"?>
<!DOCTYPE svg PUBLIC "-//W3C//DTD SVG 1.1//EN"
 "http://www.w3.org/Graphics/SVG/1.1/DTD/svg11.dtd">
<!-- Generated by graphviz version 2.38.0 (20140413.2041)
 -->
<!-- Title: Levels within SafeCWD Pages: 1 -->
<svg width="376pt" height="174pt"
 viewBox="0.00 0.00 376.00 174.00" xmlns="http://www.w3.org/2000/svg" xmlns:xlink="http://www.w3.org/1999/xlink">
<g id="graph0" class="graph" transform="scale(1 1) rotate(0) translate(4 170)">
<title>Levels within SafeCWD</title>
<polygon fill="white" stroke="none" points="-4,4 -4,-170 372,-170 372,4 -4,4"/>
<g id="clust1" class="cluster"><title>cluster_0</title>
<polygon fill="lavender" stroke="black" points="8,-8 8,-158 254,-158 254,-8 8,-8"/>
<text text-anchor="middle" x="131" y="-142.8" font-family="Times,serif" font-size="14.00">Exported root entities</text>
</g>
<g id="clust2" class="cluster"><title>cluster_1</title>
<polygon fill="lavender" stroke="black" points="262,-8 262,-83 360,-83 360,-8 262,-8"/>
<text text-anchor="middle" x="311" y="-67.8" font-family="Times,serif" font-size="14.00">Level = 1</text>
</g>
<!-- 1 -->
<g id="node1" class="node"><title>1</title>
<polygon fill="gold" stroke="black" stroke-width="2" points="209.5,-127 122.5,-127 122.5,-91 209.5,-91 209.5,-127"/>
<text text-anchor="middle" x="166" y="-105.3" font-family="Times,serif" font-size="14.00">inDir</text>
</g>
<!-- 2 -->
<g id="node2" class="node"><title>2</title>
<polygon fill="goldenrod" stroke="black" stroke-width="2" points="246,-52 16,-52 16,-16 246,-16 246,-52"/>
<text text-anchor="middle" x="131" y="-30.3" font-family="Times,serif" font-size="14.00">removeDirectoryRecursiveSafe</text>
</g>
<!-- 1&#45;&gt;2 -->
<g id="edge1" class="edge"><title>1&#45;&gt;2</title>
<path fill="none" stroke="black" d="M157.705,-90.7C153.521,-81.9724 148.355,-71.1974 143.685,-61.4571"/>
<polygon fill="black" stroke="black" points="146.714,-59.6798 139.235,-52.1758 140.402,-62.7061 146.714,-59.6798"/>
</g>
<!-- 3 -->
<g id="node3" class="node"><title>3</title>
<polygon fill="cyan" stroke="black" stroke-width="2" points="351.5,-52 270.5,-52 270.5,-16 351.5,-16 351.5,-52"/>
<text text-anchor="middle" x="311" y="-30.3" font-family="Times,serif" font-size="14.00">sem</text>
</g>
<!-- 1&#45;&gt;3 -->
<g id="edge2" class="edge"><title>1&#45;&gt;3</title>
<path fill="none" stroke="black" stroke-width="1.69315" d="M209.744,-100.541C225.576,-96.718 243.189,-91.1033 258,-83 269.119,-76.9167 279.798,-68.0514 288.621,-59.5905"/>
<polygon fill="black" stroke="black" stroke-width="1.69315" points="291.272,-61.8891 295.86,-52.3393 286.318,-56.9433 291.272,-61.8891"/>
</g>
</g>
</svg>
