<?xml version="1.0" encoding="UTF-8" standalone="no"?>
<!DOCTYPE svg PUBLIC "-//W3C//DTD SVG 1.1//EN"
 "http://www.w3.org/Graphics/SVG/1.1/DTD/svg11.dtd">
<!-- Generated by graphviz version 2.38.0 (20140413.2041)
 -->
<!-- Title: Levels within Site Pages: 1 -->
<svg width="690pt" height="182pt"
 viewBox="0.00 0.00 690.00 182.00" xmlns="http://www.w3.org/2000/svg" xmlns:xlink="http://www.w3.org/1999/xlink">
<g id="graph0" class="graph" transform="scale(1 1) rotate(0) translate(4 178)">
<title>Levels within Site</title>
<polygon fill="white" stroke="none" points="-4,4 -4,-178 686,-178 686,4 -4,4"/>
<g id="clust1" class="cluster"><title>cluster_0</title>
<polygon fill="lavender" stroke="black" points="8,-91 8,-166 142,-166 142,-91 8,-91"/>
<text text-anchor="middle" x="75" y="-150.8" font-family="Times,serif" font-size="14.00">Exported root entities</text>
</g>
<g id="clust2" class="cluster"><title>cluster_1</title>
<polygon fill="lavender" stroke="black" points="10,-8 10,-83 422,-83 422,-8 10,-8"/>
<text text-anchor="middle" x="216" y="-67.8" font-family="Times,serif" font-size="14.00">Level = 1</text>
</g>
<g id="clust3" class="cluster"><title>cluster_2</title>
<polygon fill="lavender" stroke="black" points="150,-91 150,-166 634,-166 634,-91 150,-91"/>
<text text-anchor="middle" x="392" y="-150.8" font-family="Times,serif" font-size="14.00">Level = 2</text>
</g>
<g id="clust4" class="cluster"><title>cluster_3</title>
<polygon fill="lavender" stroke="black" points="430,-8 430,-83 674,-83 674,-8 430,-8"/>
<text text-anchor="middle" x="552" y="-67.8" font-family="Times,serif" font-size="14.00">Level = 3</text>
</g>
<!-- 4 -->
<g id="node1" class="node"><title>4</title>
<polygon fill="gold" stroke="black" stroke-width="2" points="134,-135 56,-135 56,-99 134,-99 134,-135"/>
<text text-anchor="middle" x="95" y="-113.3" font-family="Times,serif" font-size="14.00">app</text>
</g>
<!-- 1 -->
<g id="node2" class="node"><title>1</title>
<polygon fill="cyan" stroke="black" stroke-width="2" points="303.5,-52 192.5,-52 188.5,-48 188.5,-16 299.5,-16 303.5,-20 303.5,-52"/>
<polyline fill="none" stroke="black" stroke-width="2" points="299.5,-48 188.5,-48 "/>
<polyline fill="none" stroke="black" stroke-width="2" points="299.5,-48 299.5,-16 "/>
<polyline fill="none" stroke="black" stroke-width="2" points="299.5,-48 303.5,-52 "/>
<text text-anchor="middle" x="246" y="-30.3" font-family="Times,serif" font-size="14.00">Data: App</text>
</g>
<!-- 4&#45;&gt;1 -->
<g id="edge1" class="edge"><title>4&#45;&gt;1</title>
<path fill="none" stroke="black" d="M127.189,-98.9128C133.332,-96.0282 139.787,-93.2456 146,-91 160.193,-85.8705 165.281,-89.2877 179,-83 192.921,-76.6196 206.913,-67.1848 218.482,-58.3646"/>
<polygon fill="black" stroke="black" points="220.747,-61.0364 226.443,-52.1032 216.419,-55.5343 220.747,-61.0364"/>
</g>
<!-- 2 -->
<g id="node3" class="node"><title>2</title>
<polygon fill="cyan" stroke="black" stroke-width="2" points="170,-52 22,-52 18,-48 18,-16 166,-16 170,-20 170,-52"/>
<polyline fill="none" stroke="black" stroke-width="2" points="166,-48 18,-48 "/>
<polyline fill="none" stroke="black" stroke-width="2" points="166,-48 166,-16 "/>
<polyline fill="none" stroke="black" stroke-width="2" points="166,-48 170,-52 "/>
<text text-anchor="middle" x="94" y="-30.3" font-family="Times,serif" font-size="14.00">Data: HWConfig</text>
</g>
<!-- 4&#45;&gt;2 -->
<g id="edge2" class="edge"><title>4&#45;&gt;2</title>
<path fill="none" stroke="black" d="M94.7879,-98.822C94.6567,-88.1903 94.4853,-74.306 94.3358,-62.2035"/>
<polygon fill="black" stroke="black" points="97.835,-62.1093 94.2118,-52.1533 90.8356,-62.1957 97.835,-62.1093"/>
</g>
<!-- 10 -->
<g id="node4" class="node"><title>10</title>
<polygon fill="bisque" stroke="black" stroke-width="2" points="414,-52 322,-52 322,-16 414,-16 414,-52"/>
<text text-anchor="middle" x="368" y="-30.3" font-family="Times,serif" font-size="14.00">routes</text>
</g>
<!-- 4&#45;&gt;10 -->
<g id="edge3" class="edge"><title>4&#45;&gt;10</title>
<path fill="none" stroke="black" d="M124.692,-98.9451C131.495,-95.753 138.838,-92.8438 146,-91 181.766,-81.7927 277.681,-96.6435 312,-83 324.957,-77.849 337.023,-68.3955 346.612,-59.2317"/>
<polygon fill="black" stroke="black" points="349.192,-61.6008 353.741,-52.0323 344.218,-56.6755 349.192,-61.6008"/>
</g>
<!-- 6 -->
<g id="node5" class="node"><title>6</title>
<polygon fill="bisque" stroke="black" stroke-width="2" points="626,-135 508,-135 508,-99 626,-99 626,-135"/>
<text text-anchor="middle" x="567" y="-113.3" font-family="Times,serif" font-size="14.00">handleApp</text>
</g>
<!-- 10&#45;&gt;6 -->
<g id="edge8" class="edge"><title>10&#45;&gt;6</title>
<path fill="none" stroke="black" d="M383.493,-52.1873C394.283,-62.9597 409.629,-76.0737 426,-83 456.059,-95.7175 467.226,-83.5359 499,-91 504.434,-92.2764 510.027,-93.8615 515.561,-95.6099"/>
<polygon fill="black" stroke="black" points="514.817,-99.0516 525.411,-98.902 517.036,-92.4126 514.817,-99.0516"/>
</g>
<!-- 7 -->
<g id="node6" class="node"><title>7</title>
<polygon fill="bisque" stroke="black" stroke-width="2" points="311.5,-135 158.5,-135 158.5,-99 311.5,-99 311.5,-135"/>
<text text-anchor="middle" x="235" y="-113.3" font-family="Times,serif" font-size="14.00">helloWorldLogin</text>
</g>
<!-- 10&#45;&gt;7 -->
<g id="edge9" class="edge"><title>10&#45;&gt;7</title>
<path fill="none" stroke="black" d="M350.927,-52.0447C340.352,-61.9629 326.132,-74.2034 312,-83 305.315,-87.161 298.014,-91.038 290.656,-94.565"/>
<polygon fill="black" stroke="black" points="288.974,-91.486 281.347,-98.8404 291.895,-97.8471 288.974,-91.486"/>
</g>
<!-- 8 -->
<g id="node7" class="node"><title>8</title>
<polygon fill="cyan" stroke="black" stroke-width="2" points="490,-135 330,-135 330,-99 490,-99 490,-135"/>
<text text-anchor="middle" x="410" y="-113.3" font-family="Times,serif" font-size="14.00">helloWorldLogout</text>
</g>
<!-- 10&#45;&gt;8 -->
<g id="edge10" class="edge"><title>10&#45;&gt;8</title>
<path fill="none" stroke="black" d="M376.894,-52.1533C382.571,-63.1019 390.041,-77.5074 396.448,-89.8637"/>
<polygon fill="black" stroke="black" points="393.383,-91.5556 401.093,-98.822 399.597,-88.3333 393.383,-91.5556"/>
</g>
<!-- 5 -->
<g id="node8" class="node"><title>5</title>
<polygon fill="cyan" stroke="black" stroke-width="2" points="666,-52 562,-52 562,-16 666,-16 666,-52"/>
<text text-anchor="middle" x="614" y="-30.3" font-family="Times,serif" font-size="14.00">appPage</text>
</g>
<!-- 6&#45;&gt;5 -->
<g id="edge4" class="edge"><title>6&#45;&gt;5</title>
<path fill="none" stroke="black" d="M576.967,-98.822C583.323,-87.8682 591.683,-73.4616 598.851,-61.1084"/>
<polygon fill="black" stroke="black" points="602.055,-62.5592 604.047,-52.1533 596.001,-59.0461 602.055,-62.5592"/>
</g>
<!-- 15 -->
<g id="node9" class="node"><title>15</title>
<polygon fill="bisque" stroke="black" stroke-width="2" points="543.5,-52 438.5,-52 438.5,-16 543.5,-16 543.5,-52"/>
<text text-anchor="middle" x="491" y="-30.3" font-family="Times,serif" font-size="14.00">tokenOk</text>
</g>
<!-- 6&#45;&gt;15 -->
<g id="edge5" class="edge"><title>6&#45;&gt;15</title>
<path fill="none" stroke="black" d="M550.882,-98.822C540.202,-87.4386 526.022,-72.3263 514.142,-59.6649"/>
<polygon fill="black" stroke="black" points="516.489,-57.051 507.094,-52.1533 511.384,-61.8407 516.489,-57.051"/>
</g>
<!-- 7&#45;&gt;1 -->
<g id="edge6" class="edge"><title>7&#45;&gt;1</title>
<path fill="none" stroke="black" d="M237.333,-98.822C238.777,-88.1903 240.662,-74.306 242.306,-62.2035"/>
<polygon fill="black" stroke="black" points="245.793,-62.5333 243.671,-52.1533 238.857,-61.5913 245.793,-62.5333"/>
</g>
<!-- 7&#45;&gt;2 -->
<g id="edge7" class="edge"><title>7&#45;&gt;2</title>
<path fill="none" stroke="black" stroke-width="2.09861" d="M205.098,-98.822C183.973,-86.6869 155.473,-70.3141 132.628,-57.1903"/>
<polygon fill="black" stroke="black" stroke-width="2.09861" points="134.274,-54.0997 123.859,-52.1533 130.787,-60.1694 134.274,-54.0997"/>
</g>
<!-- 15&#45;&gt;1 -->
<g id="edge11" class="edge"><title>15&#45;&gt;1</title>
<path fill="none" stroke="black" d="M469.609,-52.0854C457.33,-61.9549 441.345,-73.9662 426,-83 422.228,-85.2207 421.282,-86.0913 417,-87 396.349,-91.3825 342.651,-91.3825 322,-87 302.795,-82.9245 284.628,-70.6887 270.875,-58.9998"/>
<polygon fill="black" stroke="black" points="273.102,-56.2967 263.312,-52.2465 268.44,-61.5179 273.102,-56.2967"/>
</g>
<!-- 15&#45;&gt;2 -->
<g id="edge12" class="edge"><title>15&#45;&gt;2</title>
<path fill="none" stroke="black" stroke-width="2.09861" d="M474.536,-52.0203C460.75,-65.418 439.724,-82.1777 417,-87 392.11,-92.2821 212.89,-92.2821 188,-87 165.371,-82.1978 142.703,-69.698 125.298,-58.0434"/>
<polygon fill="black" stroke="black" stroke-width="2.09861" points="126.913,-54.9038 116.704,-52.0711 122.918,-60.652 126.913,-54.9038"/>
</g>
</g>
</svg>
