<?xml version="1.0" encoding="UTF-8" standalone="no"?>
<!DOCTYPE svg PUBLIC "-//W3C//DTD SVG 1.1//EN"
 "http://www.w3.org/Graphics/SVG/1.1/DTD/svg11.dtd">
<!-- Generated by graphviz version 2.38.0 (20140413.2041)
 -->
<!-- Title: Diagram of: Site Pages: 1 -->
<svg width="492pt" height="260pt"
 viewBox="0.00 0.00 491.50 260.00" xmlns="http://www.w3.org/2000/svg" xmlns:xlink="http://www.w3.org/1999/xlink">
<g id="graph0" class="graph" transform="scale(1 1) rotate(0) translate(4 256)">
<title>Diagram of: Site</title>
<polygon fill="white" stroke="none" points="-4,4 -4,-256 487.5,-256 487.5,4 -4,4"/>
<!-- 1 -->
<g id="node1" class="node"><title>1</title>
<polygon fill="gold" stroke="black" stroke-width="2" points="291.5,-252 213.5,-252 213.5,-216 291.5,-216 291.5,-252"/>
<text text-anchor="middle" x="252.5" y="-230.3" font-family="Times,serif" font-size="14.00">app</text>
</g>
<!-- 6 -->
<g id="node6" class="node"><title>6</title>
<polygon fill="bisque" stroke="black" stroke-width="2" points="298.5,-180 206.5,-180 206.5,-144 298.5,-144 298.5,-180"/>
<text text-anchor="middle" x="252.5" y="-158.3" font-family="Times,serif" font-size="14.00">routes</text>
</g>
<!-- 1&#45;&gt;6 -->
<g id="edge1" class="edge"><title>1&#45;&gt;6</title>
<path fill="none" stroke="chartreuse" d="M252.5,-215.697C252.5,-207.983 252.5,-198.712 252.5,-190.112"/>
<polygon fill="chartreuse" stroke="chartreuse" points="256,-190.104 252.5,-180.104 249,-190.104 256,-190.104"/>
</g>
<!-- 2 -->
<g id="node2" class="node"><title>2</title>
<polygon fill="cyan" stroke="black" stroke-width="2" points="147,-36 20,-36 20,-0 147,-0 147,-36"/>
<text text-anchor="middle" x="83.5" y="-14.3" font-family="Times,serif" font-size="14.00">handleLogin</text>
</g>
<!-- 3 -->
<g id="node3" class="node"><title>3</title>
<polygon fill="bisque" stroke="black" stroke-width="2" points="167,-108 0,-108 0,-72 167,-72 167,-108"/>
<text text-anchor="middle" x="83.5" y="-86.3" font-family="Times,serif" font-size="14.00">handleLoginSubmit</text>
</g>
<!-- 3&#45;&gt;2 -->
<g id="edge2" class="edge"><title>3&#45;&gt;2</title>
<path fill="none" stroke="chartreuse" d="M83.5,-71.6966C83.5,-63.9827 83.5,-54.7125 83.5,-46.1124"/>
<polygon fill="chartreuse" stroke="chartreuse" points="87.0001,-46.1043 83.5,-36.1043 80.0001,-46.1044 87.0001,-46.1043"/>
</g>
<!-- 4 -->
<g id="node4" class="node"><title>4</title>
<polygon fill="cyan" stroke="black" stroke-width="2" points="319.5,-108 185.5,-108 185.5,-72 319.5,-72 319.5,-108"/>
<text text-anchor="middle" x="252.5" y="-86.3" font-family="Times,serif" font-size="14.00">handleLogout</text>
</g>
<!-- 5 -->
<g id="node5" class="node"><title>5</title>
<polygon fill="cyan" stroke="black" stroke-width="2" points="483.5,-108 337.5,-108 337.5,-72 483.5,-72 483.5,-108"/>
<text text-anchor="middle" x="410.5" y="-86.3" font-family="Times,serif" font-size="14.00">handleNewUser</text>
</g>
<!-- 6&#45;&gt;3 -->
<g id="edge3" class="edge"><title>6&#45;&gt;3</title>
<path fill="none" stroke="black" d="M211.158,-143.876C187.952,-134.264 158.81,-122.193 134.23,-112.013"/>
<polygon fill="black" stroke="black" points="135.286,-108.662 124.708,-108.068 132.607,-115.129 135.286,-108.662"/>
</g>
<!-- 6&#45;&gt;4 -->
<g id="edge4" class="edge"><title>6&#45;&gt;4</title>
<path fill="none" stroke="black" d="M252.5,-143.697C252.5,-135.983 252.5,-126.712 252.5,-118.112"/>
<polygon fill="black" stroke="black" points="256,-118.104 252.5,-108.104 249,-118.104 256,-118.104"/>
</g>
<!-- 6&#45;&gt;5 -->
<g id="edge5" class="edge"><title>6&#45;&gt;5</title>
<path fill="none" stroke="black" d="M291.151,-143.876C312.751,-134.307 339.851,-122.3 362.766,-112.148"/>
<polygon fill="black" stroke="black" points="364.249,-115.319 371.974,-108.068 361.414,-108.919 364.249,-115.319"/>
</g>
</g>
</svg>
