<?xml version="1.0" encoding="UTF-8" standalone="no"?>
<!DOCTYPE svg PUBLIC "-//W3C//DTD SVG 1.1//EN"
 "http://www.w3.org/Graphics/SVG/1.1/DTD/svg11.dtd">
<!-- Generated by graphviz version 2.38.0 (20140413.2041)
 -->
<!-- Title: Diagram of: Site Pages: 1 -->
<svg width="984pt" height="423pt"
 viewBox="0.00 0.00 984.27 423.00" xmlns="http://www.w3.org/2000/svg" xmlns:xlink="http://www.w3.org/1999/xlink">
<g id="graph0" class="graph" transform="scale(1 1) rotate(0) translate(4 419)">
<title>Diagram of: Site</title>
<polygon fill="white" stroke="none" points="-4,4 -4,-419 980.269,-419 980.269,4 -4,4"/>
<g id="clust1" class="cluster"><title>cluster_Data_App</title>
<path fill="papayawhip" stroke="black" d="M32.5228,-8C32.5228,-8 150.523,-8 150.523,-8 156.523,-8 162.523,-14 162.523,-20 162.523,-20 162.523,-143 162.523,-143 162.523,-149 156.523,-155 150.523,-155 150.523,-155 32.5228,-155 32.5228,-155 26.5228,-155 20.5228,-149 20.5228,-143 20.5228,-143 20.5228,-20 20.5228,-20 20.5228,-14 26.5228,-8 32.5228,-8"/>
<text text-anchor="middle" x="91.5228" y="-139.8" font-family="Times,serif" font-size="14.00">Data: App</text>
</g>
<g id="clust2" class="cluster"><title>cluster_Data_HWConfig</title>
<path fill="papayawhip" stroke="black" d="M182.523,-8C182.523,-8 941.523,-8 941.523,-8 947.523,-8 953.523,-14 953.523,-20 953.523,-20 953.523,-143 953.523,-143 953.523,-149 947.523,-155 941.523,-155 941.523,-155 182.523,-155 182.523,-155 176.523,-155 170.523,-149 170.523,-143 170.523,-143 170.523,-20 170.523,-20 170.523,-14 176.523,-8 182.523,-8"/>
<text text-anchor="middle" x="562.023" y="-139.8" font-family="Times,serif" font-size="14.00">Data: HWConfig</text>
</g>
<!-- 1 -->
<g id="node1" class="node"><title>1</title>
<polygon fill="cyan" stroke="black" stroke-width="2" points="121.523,-52 43.5228,-52 39.5228,-48 39.5228,-16 117.523,-16 121.523,-20 121.523,-52"/>
<polyline fill="none" stroke="black" stroke-width="2" points="117.523,-48 39.5228,-48 "/>
<polyline fill="none" stroke="black" stroke-width="2" points="117.523,-48 117.523,-16 "/>
<polyline fill="none" stroke="black" stroke-width="2" points="117.523,-48 121.523,-52 "/>
<text text-anchor="middle" x="80.5228" y="-30.3" font-family="Times,serif" font-size="14.00">App</text>
</g>
<!-- 3 -->
<g id="node2" class="node"><title>3</title>
<polygon fill="bisque" stroke="black" stroke-width="2" points="154.023,-124 29.0228,-124 29.0228,-120 25.0228,-120 25.0228,-116 29.0228,-116 29.0228,-96 25.0228,-96 25.0228,-92 29.0228,-92 29.0228,-88 154.023,-88 154.023,-124"/>
<polyline fill="none" stroke="black" stroke-width="2" points="29.0228,-120 33.0228,-120 33.0228,-116 29.0228,-116 "/>
<polyline fill="none" stroke="black" stroke-width="2" points="29.0228,-96 33.0228,-96 33.0228,-92 29.0228,-92 "/>
<text text-anchor="middle" x="91.5228" y="-102.3" font-family="Times,serif" font-size="14.00">aHWConfig</text>
</g>
<!-- 3&#45;&gt;1 -->
<g id="edge1" class="edge"><title>3&#45;&gt;1</title>
<path fill="none" stroke="magenta" d="M88.8037,-87.6966C87.5915,-79.9827 86.1347,-70.7125 84.7833,-62.1124"/>
<polygon fill="magenta" stroke="magenta" points="83.2106,-52.1043 89.2085,-61.2845 83.9868,-57.0437 84.763,-61.9831 84.763,-61.9831 84.763,-61.9831 83.9868,-57.0437 80.3176,-62.6817 83.2106,-52.1043 83.2106,-52.1043"/>
</g>
<!-- 2 -->
<g id="node3" class="node"><title>2</title>
<polygon fill="cyan" stroke="black" stroke-width="2" points="709.023,-52 594.023,-52 590.023,-48 590.023,-16 705.023,-16 709.023,-20 709.023,-52"/>
<polyline fill="none" stroke="black" stroke-width="2" points="705.023,-48 590.023,-48 "/>
<polyline fill="none" stroke="black" stroke-width="2" points="705.023,-48 705.023,-16 "/>
<polyline fill="none" stroke="black" stroke-width="2" points="705.023,-48 709.023,-52 "/>
<text text-anchor="middle" x="649.523" y="-30.3" font-family="Times,serif" font-size="14.00">HWConfig</text>
</g>
<!-- 9 -->
<g id="node4" class="node"><title>9</title>
<polygon fill="bisque" stroke="black" stroke-width="2" points="500.023,-124 361.023,-124 361.023,-120 357.023,-120 357.023,-116 361.023,-116 361.023,-96 357.023,-96 357.023,-92 361.023,-92 361.023,-88 500.023,-88 500.023,-124"/>
<polyline fill="none" stroke="black" stroke-width="2" points="361.023,-120 365.023,-120 365.023,-116 361.023,-116 "/>
<polyline fill="none" stroke="black" stroke-width="2" points="361.023,-96 365.023,-96 365.023,-92 361.023,-92 "/>
<text text-anchor="middle" x="430.523" y="-102.3" font-family="Times,serif" font-size="14.00">helloWorldUrl</text>
</g>
<!-- 9&#45;&gt;2 -->
<g id="edge11" class="edge"><title>9&#45;&gt;2</title>
<path fill="none" stroke="magenta" d="M483.816,-87.9656C514.681,-78.1 553.721,-65.6215 586.154,-55.255"/>
<polygon fill="magenta" stroke="magenta" points="595.99,-52.1108 587.835,-59.4418 591.228,-53.6331 586.465,-55.1555 586.465,-55.1555 586.465,-55.1555 591.228,-53.6331 585.095,-50.8691 595.99,-52.1108 595.99,-52.1108"/>
</g>
<!-- 11 -->
<g id="node5" class="node"><title>11</title>
<polygon fill="bisque" stroke="black" stroke-width="2" points="626.523,-124 518.523,-124 518.523,-120 514.523,-120 514.523,-116 518.523,-116 518.523,-96 514.523,-96 514.523,-92 518.523,-92 518.523,-88 626.523,-88 626.523,-124"/>
<polyline fill="none" stroke="black" stroke-width="2" points="518.523,-120 522.523,-120 522.523,-116 518.523,-116 "/>
<polyline fill="none" stroke="black" stroke-width="2" points="518.523,-96 522.523,-96 522.523,-92 518.523,-92 "/>
<text text-anchor="middle" x="572.523" y="-102.3" font-family="Times,serif" font-size="14.00">serviceId</text>
</g>
<!-- 11&#45;&gt;2 -->
<g id="edge15" class="edge"><title>11&#45;&gt;2</title>
<path fill="none" stroke="magenta" d="M591.556,-87.6966C601.067,-79.0503 612.729,-68.4486 623.093,-59.027"/>
<polygon fill="magenta" stroke="magenta" points="630.708,-52.1043 626.336,-62.1608 627.008,-55.4677 623.309,-58.8311 623.309,-58.8311 623.309,-58.8311 627.008,-55.4677 620.282,-55.5014 630.708,-52.1043 630.708,-52.1043"/>
</g>
<!-- 12 -->
<g id="node6" class="node"><title>12</title>
<polygon fill="bisque" stroke="black" stroke-width="2" points="945.023,-124 826.023,-124 826.023,-120 822.023,-120 822.023,-116 826.023,-116 826.023,-96 822.023,-96 822.023,-92 826.023,-92 826.023,-88 945.023,-88 945.023,-124"/>
<polyline fill="none" stroke="black" stroke-width="2" points="826.023,-120 830.023,-120 830.023,-116 826.023,-116 "/>
<polyline fill="none" stroke="black" stroke-width="2" points="826.023,-96 830.023,-96 830.023,-92 826.023,-92 "/>
<text text-anchor="middle" x="885.523" y="-102.3" font-family="Times,serif" font-size="14.00">serviceKey</text>
</g>
<!-- 12&#45;&gt;2 -->
<g id="edge16" class="edge"><title>12&#45;&gt;2</title>
<path fill="none" stroke="magenta" d="M828.092,-87.9656C794.544,-78.0149 752.035,-65.4062 716.909,-54.9874"/>
<polygon fill="magenta" stroke="magenta" points="707.211,-52.1108 718.077,-50.6403 712.004,-53.5327 716.798,-54.9545 716.798,-54.9545 716.798,-54.9545 712.004,-53.5327 715.518,-59.2688 707.211,-52.1108 707.211,-52.1108"/>
</g>
<!-- 13 -->
<g id="node7" class="node"><title>13</title>
<polygon fill="bisque" stroke="black" stroke-width="2" points="808.023,-124 645.023,-124 645.023,-120 641.023,-120 641.023,-116 645.023,-116 645.023,-96 641.023,-96 641.023,-92 645.023,-92 645.023,-88 808.023,-88 808.023,-124"/>
<polyline fill="none" stroke="black" stroke-width="2" points="645.023,-120 649.023,-120 649.023,-116 645.023,-116 "/>
<polyline fill="none" stroke="black" stroke-width="2" points="645.023,-96 649.023,-96 649.023,-92 645.023,-92 "/>
<text text-anchor="middle" x="726.523" y="-102.3" font-family="Times,serif" font-size="14.00">thentosBackendUrl</text>
</g>
<!-- 13&#45;&gt;2 -->
<g id="edge17" class="edge"><title>13&#45;&gt;2</title>
<path fill="none" stroke="magenta" d="M707.489,-87.6966C697.978,-79.0503 686.316,-68.4486 675.952,-59.027"/>
<polygon fill="magenta" stroke="magenta" points="668.338,-52.1043 678.764,-55.5014 672.037,-55.4677 675.737,-58.8311 675.737,-58.8311 675.737,-58.8311 672.037,-55.4677 672.71,-62.1608 668.338,-52.1043 668.338,-52.1043"/>
</g>
<!-- 14 -->
<g id="node8" class="node"><title>14</title>
<polygon fill="bisque" stroke="black" stroke-width="2" points="342.523,-124 178.523,-124 178.523,-120 174.523,-120 174.523,-116 178.523,-116 178.523,-96 174.523,-96 174.523,-92 178.523,-92 178.523,-88 342.523,-88 342.523,-124"/>
<polyline fill="none" stroke="black" stroke-width="2" points="178.523,-120 182.523,-120 182.523,-116 178.523,-116 "/>
<polyline fill="none" stroke="black" stroke-width="2" points="178.523,-96 182.523,-96 182.523,-92 178.523,-92 "/>
<text text-anchor="middle" x="260.523" y="-102.3" font-family="Times,serif" font-size="14.00">thentosFrontendUrl</text>
</g>
<!-- 14&#45;&gt;2 -->
<g id="edge18" class="edge"><title>14&#45;&gt;2</title>
<path fill="none" stroke="magenta" d="M342.857,-89.5858C345.781,-89.0489 348.677,-88.5189 351.523,-88 429.59,-73.766 519.252,-57.8823 579.663,-47.2484"/>
<polygon fill="magenta" stroke="magenta" points="589.846,-45.4569 580.777,-51.6216 584.922,-46.3233 579.997,-47.1896 579.997,-47.1896 579.997,-47.1896 584.922,-46.3233 579.218,-42.7577 589.846,-45.4569 589.846,-45.4569"/>
</g>
<!-- 4 -->
<g id="node9" class="node"><title>4</title>
<polygon fill="gold" stroke="black" stroke-width="2" points="546.523,-415 468.523,-415 468.523,-379 546.523,-379 546.523,-415"/>
<text text-anchor="middle" x="507.523" y="-393.3" font-family="Times,serif" font-size="14.00">app</text>
</g>
<!-- 4&#45;&gt;1 -->
<g id="edge2" class="edge"><title>4&#45;&gt;1</title>
<path fill="none" stroke="black" d="M468.161,-393.475C349.039,-384.769 0.522752,-351.007 0.522752,-254 0.522752,-254 0.522752,-254 0.522752,-180 0.522752,-138.248 -1.56826,-124.033 19.5228,-88 26.1213,-76.7266 35.9893,-66.6427 45.8756,-58.3742"/>
<polygon fill="black" stroke="black" points="48.0774,-61.0951 53.746,-52.1442 43.7328,-55.6065 48.0774,-61.0951"/>
</g>
<!-- 4&#45;&gt;2 -->
<g id="edge3" class="edge"><title>4&#45;&gt;2</title>
<path fill="none" stroke="black" d="M546.852,-392.534C659.198,-381.56 973.523,-342.91 973.523,-254 973.523,-254 973.523,-254 973.523,-180 973.523,-138.248 984.509,-117.053 954.523,-88 921.876,-56.3696 799.208,-43.3994 719.737,-38.2395"/>
<polygon fill="black" stroke="black" points="719.504,-34.7183 709.306,-37.5908 719.07,-41.7048 719.504,-34.7183"/>
</g>
<!-- 10 -->
<g id="node14" class="node"><title>10</title>
<polygon fill="bisque" stroke="black" stroke-width="2" points="553.523,-343 461.523,-343 461.523,-307 553.523,-307 553.523,-343"/>
<text text-anchor="middle" x="507.523" y="-321.3" font-family="Times,serif" font-size="14.00">routes</text>
</g>
<!-- 4&#45;&gt;10 -->
<g id="edge4" class="edge"><title>4&#45;&gt;10</title>
<path fill="none" stroke="black" d="M507.523,-378.697C507.523,-370.983 507.523,-361.712 507.523,-353.112"/>
<polygon fill="black" stroke="black" points="511.023,-353.104 507.523,-343.104 504.023,-353.104 511.023,-353.104"/>
</g>
<!-- 5 -->
<g id="node10" class="node"><title>5</title>
<polygon fill="cyan" stroke="black" stroke-width="2" points="808.523,-199 704.523,-199 704.523,-163 808.523,-163 808.523,-199"/>
<text text-anchor="middle" x="756.523" y="-177.3" font-family="Times,serif" font-size="14.00">appPage</text>
</g>
<!-- 6 -->
<g id="node11" class="node"><title>6</title>
<polygon fill="bisque" stroke="black" stroke-width="2" points="723.523,-271 605.523,-271 605.523,-235 723.523,-235 723.523,-271"/>
<text text-anchor="middle" x="664.523" y="-249.3" font-family="Times,serif" font-size="14.00">handleApp</text>
</g>
<!-- 6&#45;&gt;5 -->
<g id="edge5" class="edge"><title>6&#45;&gt;5</title>
<path fill="none" stroke="black" d="M687.264,-234.697C698.962,-225.796 713.384,-214.823 726.033,-205.199"/>
<polygon fill="black" stroke="black" points="728.204,-207.945 734.043,-199.104 723.965,-202.374 728.204,-207.945"/>
</g>
<!-- 15 -->
<g id="node15" class="node"><title>15</title>
<polygon fill="bisque" stroke="black" stroke-width="2" points="686.023,-199 581.023,-199 581.023,-163 686.023,-163 686.023,-199"/>
<text text-anchor="middle" x="633.523" y="-177.3" font-family="Times,serif" font-size="14.00">tokenOk</text>
</g>
<!-- 6&#45;&gt;15 -->
<g id="edge6" class="edge"><title>6&#45;&gt;15</title>
<path fill="none" stroke="black" d="M656.86,-234.697C653.331,-226.728 649.067,-217.1 645.154,-208.264"/>
<polygon fill="black" stroke="black" points="648.347,-206.831 641.098,-199.104 641.947,-209.665 648.347,-206.831"/>
</g>
<!-- 7 -->
<g id="node12" class="node"><title>7</title>
<polygon fill="bisque" stroke="black" stroke-width="2" points="476.023,-199 323.023,-199 323.023,-163 476.023,-163 476.023,-199"/>
<text text-anchor="middle" x="399.523" y="-177.3" font-family="Times,serif" font-size="14.00">helloWorldLogin</text>
</g>
<!-- 7&#45;&gt;3 -->
<g id="edge7" class="edge"><title>7&#45;&gt;3</title>
<path fill="none" stroke="black" d="M322.954,-175.576C266.385,-171.597 194.54,-164.851 166.523,-155 150.252,-149.279 133.92,-139.429 120.669,-130.134"/>
<polygon fill="black" stroke="black" points="122.585,-127.201 112.437,-124.156 118.472,-132.865 122.585,-127.201"/>
</g>
<!-- 7&#45;&gt;9 -->
<g id="edge8" class="edge"><title>7&#45;&gt;9</title>
<path fill="none" stroke="black" d="M406.869,-162.7C410.576,-153.972 415.151,-143.197 419.288,-133.457"/>
<polygon fill="black" stroke="black" points="422.542,-134.748 423.229,-124.176 416.099,-132.012 422.542,-134.748"/>
</g>
<!-- 7&#45;&gt;11 -->
<g id="edge9" class="edge"><title>7&#45;&gt;11</title>
<path fill="none" stroke="black" d="M476.092,-167.064C487.57,-163.859 499.055,-159.893 509.523,-155 522.725,-148.829 535.794,-139.54 546.577,-130.773"/>
<polygon fill="black" stroke="black" points="548.949,-133.351 554.341,-124.231 544.439,-127.998 548.949,-133.351"/>
</g>
<!-- 7&#45;&gt;14 -->
<g id="edge10" class="edge"><title>7&#45;&gt;14</title>
<path fill="none" stroke="black" d="M366.719,-162.944C361.629,-160.289 356.433,-157.574 351.523,-155 335.256,-146.474 317.377,-137.054 301.804,-128.833"/>
<polygon fill="black" stroke="black" points="303.408,-125.722 292.931,-124.147 300.139,-131.912 303.408,-125.722"/>
</g>
<!-- 8 -->
<g id="node13" class="node"><title>8</title>
<polygon fill="cyan" stroke="black" stroke-width="2" points="587.523,-271 427.523,-271 427.523,-235 587.523,-235 587.523,-271"/>
<text text-anchor="middle" x="507.523" y="-249.3" font-family="Times,serif" font-size="14.00">helloWorldLogout</text>
</g>
<!-- 10&#45;&gt;6 -->
<g id="edge12" class="edge"><title>10&#45;&gt;6</title>
<path fill="none" stroke="black" d="M545.929,-306.876C567.392,-297.307 594.321,-285.3 617.091,-275.148"/>
<polygon fill="black" stroke="black" points="618.533,-278.337 626.241,-271.068 615.682,-271.944 618.533,-278.337"/>
</g>
<!-- 10&#45;&gt;7 -->
<g id="edge13" class="edge"><title>10&#45;&gt;7</title>
<path fill="none" stroke="black" d="M463.564,-306.93C447.122,-298.463 429.735,-286.639 418.523,-271 405.611,-252.991 401.144,-228.001 399.744,-209.085"/>
<polygon fill="black" stroke="black" points="403.236,-208.829 399.241,-199.016 396.245,-209.178 403.236,-208.829"/>
</g>
<!-- 10&#45;&gt;8 -->
<g id="edge14" class="edge"><title>10&#45;&gt;8</title>
<path fill="none" stroke="black" d="M507.523,-306.697C507.523,-298.983 507.523,-289.712 507.523,-281.112"/>
<polygon fill="black" stroke="black" points="511.023,-281.104 507.523,-271.104 504.023,-281.104 511.023,-281.104"/>
</g>
<!-- 15&#45;&gt;3 -->
<g id="edge19" class="edge"><title>15&#45;&gt;3</title>
<path fill="none" stroke="black" d="M580.886,-172.797C552.663,-169.227 517.257,-165.216 485.523,-163 450.153,-160.53 200.424,-165.383 166.523,-155 149.79,-149.875 133.19,-139.897 119.877,-130.36"/>
<polygon fill="black" stroke="black" points="121.744,-127.385 111.635,-124.211 117.558,-132.996 121.744,-127.385"/>
</g>
<!-- 15&#45;&gt;11 -->
<g id="edge20" class="edge"><title>15&#45;&gt;11</title>
<path fill="none" stroke="black" d="M619.067,-162.7C611.394,-153.518 601.827,-142.069 593.366,-131.944"/>
<polygon fill="black" stroke="black" points="595.973,-129.605 586.875,-124.176 590.602,-134.094 595.973,-129.605"/>
</g>
<!-- 15&#45;&gt;12 -->
<g id="edge21" class="edge"><title>15&#45;&gt;12</title>
<path fill="none" stroke="black" d="M686.126,-164.798C689.291,-164.126 692.441,-163.518 695.523,-163 722.316,-158.496 791.909,-164.062 817.523,-155 832.687,-149.635 847.52,-139.86 859.443,-130.525"/>
<polygon fill="black" stroke="black" points="861.668,-133.227 867.201,-124.192 857.241,-127.805 861.668,-133.227"/>
</g>
<!-- 15&#45;&gt;13 -->
<g id="edge22" class="edge"><title>15&#45;&gt;13</title>
<path fill="none" stroke="black" d="M655.562,-162.7C667.839,-153.063 683.296,-140.93 696.648,-130.45"/>
<polygon fill="black" stroke="black" points="698.936,-133.103 704.641,-124.176 694.614,-127.597 698.936,-133.103"/>
</g>
</g>
</svg>
