<?xml version="1.0" encoding="UTF-8" standalone="no"?>
<!DOCTYPE svg PUBLIC "-//W3C//DTD SVG 1.1//EN"
 "http://www.w3.org/Graphics/SVG/1.1/DTD/svg11.dtd">
<!-- Generated by graphviz version 2.38.0 (20140413.2041)
 -->
<!-- Title: Levels within Site Pages: 1 -->
<svg width="523pt" height="348pt"
 viewBox="0.00 0.00 523.00 348.00" xmlns="http://www.w3.org/2000/svg" xmlns:xlink="http://www.w3.org/1999/xlink">
<g id="graph0" class="graph" transform="scale(1 1) rotate(0) translate(4 344)">
<title>Levels within Site</title>
<polygon fill="white" stroke="none" points="-4,4 -4,-344 519,-344 519,4 -4,4"/>
<g id="clust1" class="cluster"><title>cluster_0</title>
<polygon fill="lavender" stroke="black" points="180,-257 180,-332 314,-332 314,-257 180,-257"/>
<text text-anchor="middle" x="247" y="-316.8" font-family="Times,serif" font-size="14.00">Exported root entities</text>
</g>
<g id="clust2" class="cluster"><title>cluster_1</title>
<polygon fill="lavender" stroke="black" points="193,-174 193,-249 301,-249 301,-174 193,-174"/>
<text text-anchor="middle" x="247" y="-233.8" font-family="Times,serif" font-size="14.00">Level = 1</text>
</g>
<g id="clust3" class="cluster"><title>cluster_2</title>
<polygon fill="lavender" stroke="black" points="8,-91 8,-166 507,-166 507,-91 8,-91"/>
<text text-anchor="middle" x="257.5" y="-150.8" font-family="Times,serif" font-size="14.00">Level = 2</text>
</g>
<g id="clust4" class="cluster"><title>cluster_3</title>
<polygon fill="lavender" stroke="black" points="344,-8 344,-83 488,-83 488,-8 344,-8"/>
<text text-anchor="middle" x="416" y="-67.8" font-family="Times,serif" font-size="14.00">Level = 3</text>
</g>
<!-- 1 -->
<g id="node1" class="node"><title>1</title>
<polygon fill="gold" stroke="black" stroke-width="2" points="286,-301 208,-301 208,-265 286,-265 286,-301"/>
<text text-anchor="middle" x="247" y="-279.3" font-family="Times,serif" font-size="14.00">app</text>
</g>
<!-- 6 -->
<g id="node2" class="node"><title>6</title>
<polygon fill="bisque" stroke="black" stroke-width="2" points="293,-218 201,-218 201,-182 293,-182 293,-218"/>
<text text-anchor="middle" x="247" y="-196.3" font-family="Times,serif" font-size="14.00">routes</text>
</g>
<!-- 1&#45;&gt;6 -->
<g id="edge1" class="edge"><title>1&#45;&gt;6</title>
<path fill="none" stroke="chartreuse" d="M247,-264.822C247,-254.19 247,-240.306 247,-228.204"/>
<polygon fill="chartreuse" stroke="chartreuse" points="250.5,-228.153 247,-218.153 243.5,-228.153 250.5,-228.153"/>
</g>
<!-- 3 -->
<g id="node3" class="node"><title>3</title>
<polygon fill="bisque" stroke="black" stroke-width="2" points="499.5,-135 332.5,-135 332.5,-99 499.5,-99 499.5,-135"/>
<text text-anchor="middle" x="416" y="-113.3" font-family="Times,serif" font-size="14.00">handleLoginSubmit</text>
</g>
<!-- 6&#45;&gt;3 -->
<g id="edge3" class="edge"><title>6&#45;&gt;3</title>
<path fill="none" stroke="black" d="M287.851,-181.858C299.295,-176.895 311.694,-171.365 323,-166 340.153,-157.861 358.797,-148.369 374.858,-139.985"/>
<polygon fill="black" stroke="black" points="376.756,-142.941 383.985,-135.195 373.503,-136.743 376.756,-142.941"/>
</g>
<!-- 4 -->
<g id="node4" class="node"><title>4</title>
<polygon fill="cyan" stroke="black" stroke-width="2" points="314,-135 180,-135 180,-99 314,-99 314,-135"/>
<text text-anchor="middle" x="247" y="-113.3" font-family="Times,serif" font-size="14.00">handleLogout</text>
</g>
<!-- 6&#45;&gt;4 -->
<g id="edge4" class="edge"><title>6&#45;&gt;4</title>
<path fill="none" stroke="black" d="M247,-181.822C247,-171.19 247,-157.306 247,-145.204"/>
<polygon fill="black" stroke="black" points="250.5,-145.153 247,-135.153 243.5,-145.153 250.5,-145.153"/>
</g>
<!-- 5 -->
<g id="node5" class="node"><title>5</title>
<polygon fill="cyan" stroke="black" stroke-width="2" points="162,-135 16,-135 16,-99 162,-99 162,-135"/>
<text text-anchor="middle" x="89" y="-113.3" font-family="Times,serif" font-size="14.00">handleNewUser</text>
</g>
<!-- 6&#45;&gt;5 -->
<g id="edge5" class="edge"><title>6&#45;&gt;5</title>
<path fill="none" stroke="black" d="M205.166,-181.905C193.945,-177.03 181.903,-171.533 171,-166 155.675,-158.223 139.243,-148.826 125.143,-140.416"/>
<polygon fill="black" stroke="black" points="126.621,-137.221 116.249,-135.059 123.01,-143.217 126.621,-137.221"/>
</g>
<!-- 2 -->
<g id="node6" class="node"><title>2</title>
<polygon fill="cyan" stroke="black" stroke-width="2" points="479.5,-52 352.5,-52 352.5,-16 479.5,-16 479.5,-52"/>
<text text-anchor="middle" x="416" y="-30.3" font-family="Times,serif" font-size="14.00">handleLogin</text>
</g>
<!-- 3&#45;&gt;2 -->
<g id="edge2" class="edge"><title>3&#45;&gt;2</title>
<path fill="none" stroke="chartreuse" d="M416,-98.822C416,-88.1903 416,-74.306 416,-62.2035"/>
<polygon fill="chartreuse" stroke="chartreuse" points="419.5,-62.1532 416,-52.1533 412.5,-62.1533 419.5,-62.1532"/>
</g>
</g>
</svg>
