<?xml version="1.0" encoding="UTF-8" standalone="no"?>
<!DOCTYPE svg PUBLIC "-//W3C//DTD SVG 1.1//EN"
 "http://www.w3.org/Graphics/SVG/1.1/DTD/svg11.dtd">
<!-- Generated by graphviz version 2.38.0 (20140413.2041)
 -->
<!-- Title: Levels within Snap.Snaplet.Auth.SpliceHelpers Pages: 1 -->
<svg width="650pt" height="243pt"
 viewBox="0.00 0.00 650.00 243.00" xmlns="http://www.w3.org/2000/svg" xmlns:xlink="http://www.w3.org/1999/xlink">
<g id="graph0" class="graph" transform="scale(1 1) rotate(0) translate(4 239)">
<title>Levels within Snap.Snaplet.Auth.SpliceHelpers</title>
<polygon fill="white" stroke="none" points="-4,4 -4,-239 646,-239 646,4 -4,4"/>
<g id="clust1" class="cluster"><title>cluster_0</title>
<polygon fill="lavender" stroke="black" points="8,-8 8,-227 634,-227 634,-8 8,-8"/>
<text text-anchor="middle" x="321" y="-211.8" font-family="Times,serif" font-size="14.00">Exported root entities</text>
</g>
<!-- 1 -->
<g id="node1" class="node"><title>1</title>
<polygon fill="gold" stroke="black" stroke-width="2" points="479,-196 335,-196 335,-160 479,-160 479,-196"/>
<text text-anchor="middle" x="407" y="-174.3" font-family="Times,serif" font-size="14.00">addAuthSplices</text>
</g>
<!-- 5 -->
<g id="node5" class="node"><title>5</title>
<polygon fill="goldenrod" stroke="black" stroke-width="2" points="192,-124 16,-124 16,-88 192,-88 192,-124"/>
<text text-anchor="middle" x="104" y="-102.3" font-family="Times,serif" font-size="14.00">compiledAuthSplices</text>
</g>
<!-- 1&#45;&gt;5 -->
<g id="edge1" class="edge"><title>1&#45;&gt;5</title>
<path fill="none" stroke="black" d="M334.809,-160.322C290.615,-150.112 233.883,-137.006 187.724,-126.342"/>
<polygon fill="black" stroke="black" points="188.274,-122.877 177.743,-124.036 186.699,-129.698 188.274,-122.877"/>
</g>
<!-- 6 -->
<g id="node6" class="node"><title>6</title>
<polygon fill="goldenrod" stroke="black" stroke-width="2" points="329.5,-124 210.5,-124 210.5,-88 329.5,-88 329.5,-124"/>
<text text-anchor="middle" x="270" y="-102.3" font-family="Times,serif" font-size="14.00">ifLoggedIn</text>
</g>
<!-- 1&#45;&gt;6 -->
<g id="edge2" class="edge"><title>1&#45;&gt;6</title>
<path fill="none" stroke="black" d="M373.486,-159.876C355.159,-150.512 332.264,-138.814 312.672,-128.803"/>
<polygon fill="black" stroke="black" points="314.14,-125.623 303.643,-124.19 310.955,-131.857 314.14,-125.623"/>
</g>
<!-- 7 -->
<g id="node7" class="node"><title>7</title>
<polygon fill="goldenrod" stroke="black" stroke-width="2" points="476,-124 348,-124 348,-88 476,-88 476,-124"/>
<text text-anchor="middle" x="412" y="-102.3" font-family="Times,serif" font-size="14.00">ifLoggedOut</text>
</g>
<!-- 1&#45;&gt;7 -->
<g id="edge3" class="edge"><title>1&#45;&gt;7</title>
<path fill="none" stroke="black" d="M408.236,-159.697C408.787,-151.983 409.449,-142.712 410.063,-134.112"/>
<polygon fill="black" stroke="black" points="413.557,-134.328 410.778,-124.104 406.575,-133.83 413.557,-134.328"/>
</g>
<!-- 8 -->
<g id="node8" class="node"><title>8</title>
<polygon fill="goldenrod" stroke="black" stroke-width="2" points="626,-124 494,-124 494,-88 626,-88 626,-124"/>
<text text-anchor="middle" x="560" y="-102.3" font-family="Times,serif" font-size="14.00">loggedInUser</text>
</g>
<!-- 1&#45;&gt;8 -->
<g id="edge4" class="edge"><title>1&#45;&gt;8</title>
<path fill="none" stroke="black" d="M444.428,-159.876C465.251,-150.349 491.354,-138.407 513.481,-128.283"/>
<polygon fill="black" stroke="black" points="515.056,-131.411 522.694,-124.068 512.144,-125.046 515.056,-131.411"/>
</g>
<!-- 2 -->
<g id="node2" class="node"><title>2</title>
<polygon fill="goldenrod" stroke="black" stroke-width="2" points="142,-52 16,-52 16,-16 142,-16 142,-52"/>
<text text-anchor="middle" x="79" y="-30.3" font-family="Times,serif" font-size="14.00">cIfLoggedIn</text>
</g>
<!-- 3 -->
<g id="node3" class="node"><title>3</title>
<polygon fill="goldenrod" stroke="black" stroke-width="2" points="295.5,-52 160.5,-52 160.5,-16 295.5,-16 295.5,-52"/>
<text text-anchor="middle" x="228" y="-30.3" font-family="Times,serif" font-size="14.00">cIfLoggedOut</text>
</g>
<!-- 4 -->
<g id="node4" class="node"><title>4</title>
<polygon fill="goldenrod" stroke="black" stroke-width="2" points="456.5,-52 313.5,-52 313.5,-16 456.5,-16 456.5,-52"/>
<text text-anchor="middle" x="385" y="-30.3" font-family="Times,serif" font-size="14.00">cLoggedInUser</text>
</g>
<!-- 5&#45;&gt;2 -->
<g id="edge5" class="edge"><title>5&#45;&gt;2</title>
<path fill="none" stroke="black" d="M97.8202,-87.6966C95.0047,-79.8132 91.6087,-70.3042 88.4809,-61.5464"/>
<polygon fill="black" stroke="black" points="91.7682,-60.3446 85.1087,-52.1043 85.176,-62.699 91.7682,-60.3446"/>
</g>
<!-- 5&#45;&gt;3 -->
<g id="edge6" class="edge"><title>5&#45;&gt;3</title>
<path fill="none" stroke="black" d="M134.334,-87.8761C150.697,-78.6388 171.083,-67.1308 188.654,-57.2116"/>
<polygon fill="black" stroke="black" points="190.562,-60.1536 197.55,-52.1898 187.121,-54.0579 190.562,-60.1536"/>
</g>
<!-- 5&#45;&gt;4 -->
<g id="edge7" class="edge"><title>5&#45;&gt;4</title>
<path fill="none" stroke="black" d="M172.381,-87.9656C212.838,-77.8874 264.24,-65.0825 306.369,-54.5877"/>
<polygon fill="black" stroke="black" points="307.455,-57.9243 316.312,-52.1108 305.763,-51.1319 307.455,-57.9243"/>
</g>
<!-- 9 -->
<g id="node9" class="node"><title>9</title>
<polygon fill="gold" stroke="black" stroke-width="2" points="312.5,-196 183.5,-196 183.5,-160 312.5,-160 312.5,-196"/>
<text text-anchor="middle" x="248" y="-174.3" font-family="Times,serif" font-size="14.00">userCSplices</text>
</g>
<!-- 10 -->
<g id="node10" class="node"><title>10</title>
<polygon fill="gold" stroke="black" stroke-width="2" points="157.5,-196 32.5,-196 32.5,-160 157.5,-160 157.5,-196"/>
<text text-anchor="middle" x="95" y="-174.3" font-family="Times,serif" font-size="14.00">userISplices</text>
</g>
</g>
</svg>
