<?xml version="1.0" encoding="UTF-8" standalone="no"?>
<!DOCTYPE svg PUBLIC "-//W3C//DTD SVG 1.1//EN"
 "http://www.w3.org/Graphics/SVG/1.1/DTD/svg11.dtd">
<!-- Generated by graphviz version 2.38.0 (20140413.2041)
 -->
<!-- Title: Core of Snap.Snaplet.Internal.RST Pages: 1 -->
<svg width="2464pt" height="494pt"
 viewBox="0.00 0.00 2464.00 494.49" xmlns="http://www.w3.org/2000/svg" xmlns:xlink="http://www.w3.org/1999/xlink">
<g id="graph0" class="graph" transform="scale(1 1) rotate(0) translate(4 490.487)">
<title>Core of Snap.Snaplet.Internal.RST</title>
<polygon fill="white" stroke="none" points="-4,4 -4,-490.487 2460,-490.487 2460,4 -4,4"/>
<g id="clust1" class="cluster"><title>cluster_Class_Functor</title>
<path fill="#ffc1c1" stroke="black" d="M20,-241.744C20,-241.744 262,-241.744 262,-241.744 268,-241.744 274,-247.744 274,-253.744 274,-253.744 274,-466.487 274,-466.487 274,-472.487 268,-478.487 262,-478.487 262,-478.487 20,-478.487 20,-478.487 14,-478.487 8,-472.487 8,-466.487 8,-466.487 8,-253.744 8,-253.744 8,-247.744 14,-241.744 20,-241.744"/>
<text text-anchor="middle" x="141" y="-463.287" font-family="Times,serif" font-size="14.00">Class: Functor</text>
</g>
<g id="clust2" class="cluster"><title>cluster_Class_Functor_Data_RSTrsm</title>
<path fill="#c6e2ff" stroke="black" d="M76,-364.096C76,-364.096 207,-364.096 207,-364.096 213,-364.096 219,-370.096 219,-376.096 219,-376.096 219,-435.487 219,-435.487 219,-441.487 213,-447.487 207,-447.487 207,-447.487 76,-447.487 76,-447.487 70,-447.487 64,-441.487 64,-435.487 64,-435.487 64,-376.096 64,-376.096 64,-370.096 70,-364.096 76,-364.096"/>
<text text-anchor="middle" x="141.5" y="-432.287" font-family="Times,serif" font-size="14.00">Instance for: (RST r s m)</text>
</g>
<g id="clust3" class="cluster"><title>cluster_Class_Monad</title>
<path fill="#ffc1c1" stroke="black" d="M26,-8C26,-8 536,-8 536,-8 542,-8 548,-14 548,-20 548,-20 548,-221.744 548,-221.744 548,-227.744 542,-233.744 536,-233.744 536,-233.744 26,-233.744 26,-233.744 20,-233.744 14,-227.744 14,-221.744 14,-221.744 14,-20 14,-20 14,-14 20,-8 26,-8"/>
<text text-anchor="middle" x="281" y="-218.544" font-family="Times,serif" font-size="14.00">Class: Monad</text>
</g>
<g id="clust4" class="cluster"><title>cluster_Class_Monad_Data_RSTrsm</title>
<path fill="#c6e2ff" stroke="black" d="M152,-119.352C152,-119.352 420,-119.352 420,-119.352 426,-119.352 432,-125.352 432,-131.352 432,-131.352 432,-190.744 432,-190.744 432,-196.744 426,-202.744 420,-202.744 420,-202.744 152,-202.744 152,-202.744 146,-202.744 140,-196.744 140,-190.744 140,-190.744 140,-131.352 140,-131.352 140,-125.352 146,-119.352 152,-119.352"/>
<text text-anchor="middle" x="286" y="-187.544" font-family="Times,serif" font-size="14.00">Instance for: (RST r s m)</text>
</g>
<g id="clust5" class="cluster"><title>cluster_Class_MonadCatchIO</title>
<path fill="#ffc1c1" stroke="black" d="M1116,-241.744C1116,-241.744 1894,-241.744 1894,-241.744 1900,-241.744 1906,-247.744 1906,-253.744 1906,-253.744 1906,-466.487 1906,-466.487 1906,-472.487 1900,-478.487 1894,-478.487 1894,-478.487 1116,-478.487 1116,-478.487 1110,-478.487 1104,-472.487 1104,-466.487 1104,-466.487 1104,-253.744 1104,-253.744 1104,-247.744 1110,-241.744 1116,-241.744"/>
<text text-anchor="middle" x="1505" y="-463.287" font-family="Times,serif" font-size="14.00">Class: MonadCatchIO</text>
</g>
<g id="clust6" class="cluster"><title>cluster_Class_MonadCatchIO_Data_RSTrsm</title>
<path fill="#c6e2ff" stroke="black" d="M1288,-364.096C1288,-364.096 1742,-364.096 1742,-364.096 1748,-364.096 1754,-370.096 1754,-376.096 1754,-376.096 1754,-435.487 1754,-435.487 1754,-441.487 1748,-447.487 1742,-447.487 1742,-447.487 1288,-447.487 1288,-447.487 1282,-447.487 1276,-441.487 1276,-435.487 1276,-435.487 1276,-376.096 1276,-376.096 1276,-370.096 1282,-364.096 1288,-364.096"/>
<text text-anchor="middle" x="1515" y="-432.287" font-family="Times,serif" font-size="14.00">Instance for: (RST r s m)</text>
</g>
<g id="clust7" class="cluster"><title>cluster_Class_MonadIO</title>
<path fill="#ffc1c1" stroke="black" d="M294,-241.744C294,-241.744 536,-241.744 536,-241.744 542,-241.744 548,-247.744 548,-253.744 548,-253.744 548,-466.487 548,-466.487 548,-472.487 542,-478.487 536,-478.487 536,-478.487 294,-478.487 294,-478.487 288,-478.487 282,-472.487 282,-466.487 282,-466.487 282,-253.744 282,-253.744 282,-247.744 288,-241.744 294,-241.744"/>
<text text-anchor="middle" x="415" y="-463.287" font-family="Times,serif" font-size="14.00">Class: MonadIO</text>
</g>
<g id="clust8" class="cluster"><title>cluster_Class_MonadIO_Data_RSTrsm</title>
<path fill="#c6e2ff" stroke="black" d="M373,-364.096C373,-364.096 504,-364.096 504,-364.096 510,-364.096 516,-370.096 516,-376.096 516,-376.096 516,-435.487 516,-435.487 516,-441.487 510,-447.487 504,-447.487 504,-447.487 373,-447.487 373,-447.487 367,-447.487 361,-441.487 361,-435.487 361,-435.487 361,-376.096 361,-376.096 361,-370.096 367,-364.096 373,-364.096"/>
<text text-anchor="middle" x="438.5" y="-432.287" font-family="Times,serif" font-size="14.00">Instance for: (RST r s m)</text>
</g>
<g id="clust9" class="cluster"><title>cluster_Class_MonadPlus</title>
<path fill="#ffc1c1" stroke="black" d="M1926,-241.744C1926,-241.744 2436,-241.744 2436,-241.744 2442,-241.744 2448,-247.744 2448,-253.744 2448,-253.744 2448,-466.487 2448,-466.487 2448,-472.487 2442,-478.487 2436,-478.487 2436,-478.487 1926,-478.487 1926,-478.487 1920,-478.487 1914,-472.487 1914,-466.487 1914,-466.487 1914,-253.744 1914,-253.744 1914,-247.744 1920,-241.744 1926,-241.744"/>
<text text-anchor="middle" x="2181" y="-463.287" font-family="Times,serif" font-size="14.00">Class: MonadPlus</text>
</g>
<g id="clust10" class="cluster"><title>cluster_Class_MonadPlus_Data_RSTrsm</title>
<path fill="#c6e2ff" stroke="black" d="M2035,-364.096C2035,-364.096 2328,-364.096 2328,-364.096 2334,-364.096 2340,-370.096 2340,-376.096 2340,-376.096 2340,-435.487 2340,-435.487 2340,-441.487 2334,-447.487 2328,-447.487 2328,-447.487 2035,-447.487 2035,-447.487 2029,-447.487 2023,-441.487 2023,-435.487 2023,-435.487 2023,-376.096 2023,-376.096 2023,-370.096 2029,-364.096 2035,-364.096"/>
<text text-anchor="middle" x="2181.5" y="-432.287" font-family="Times,serif" font-size="14.00">Instance for: (RST r s m)</text>
</g>
<g id="clust11" class="cluster"><title>cluster_Class_MonadSnap</title>
<path fill="#ffc1c1" stroke="black" d="M842,-241.744C842,-241.744 1084,-241.744 1084,-241.744 1090,-241.744 1096,-247.744 1096,-253.744 1096,-253.744 1096,-466.487 1096,-466.487 1096,-472.487 1090,-478.487 1084,-478.487 1084,-478.487 842,-478.487 842,-478.487 836,-478.487 830,-472.487 830,-466.487 830,-466.487 830,-253.744 830,-253.744 830,-247.744 836,-241.744 842,-241.744"/>
<text text-anchor="middle" x="963" y="-463.287" font-family="Times,serif" font-size="14.00">Class: MonadSnap</text>
</g>
<g id="clust12" class="cluster"><title>cluster_Class_MonadSnap_Data_RSTrsm</title>
<path fill="#c6e2ff" stroke="black" d="M870,-364.096C870,-364.096 1016,-364.096 1016,-364.096 1022,-364.096 1028,-370.096 1028,-376.096 1028,-376.096 1028,-435.487 1028,-435.487 1028,-441.487 1022,-447.487 1016,-447.487 1016,-447.487 870,-447.487 870,-447.487 864,-447.487 858,-441.487 858,-435.487 858,-435.487 858,-376.096 858,-376.096 858,-370.096 864,-364.096 870,-364.096"/>
<text text-anchor="middle" x="943" y="-432.287" font-family="Times,serif" font-size="14.00">Instance for: (RST r s m)</text>
</g>
<g id="clust13" class="cluster"><title>cluster_Class_MonadTrans</title>
<path fill="#ffc1c1" stroke="black" d="M568,-111.352C568,-111.352 810,-111.352 810,-111.352 816,-111.352 822,-117.352 822,-123.352 822,-123.352 822,-344.096 822,-344.096 822,-350.096 816,-356.096 810,-356.096 810,-356.096 568,-356.096 568,-356.096 562,-356.096 556,-350.096 556,-344.096 556,-344.096 556,-123.352 556,-123.352 556,-117.352 562,-111.352 568,-111.352"/>
<text text-anchor="middle" x="689" y="-340.896" font-family="Times,serif" font-size="14.00">Class: MonadTrans</text>
</g>
<g id="clust14" class="cluster"><title>cluster_Class_MonadTrans_Data_RSTrs</title>
<path fill="#c6e2ff" stroke="black" d="M606,-119.352C606,-119.352 722,-119.352 722,-119.352 728,-119.352 734,-125.352 734,-131.352 734,-131.352 734,-190.744 734,-190.744 734,-196.744 728,-202.744 722,-202.744 722,-202.744 606,-202.744 606,-202.744 600,-202.744 594,-196.744 594,-190.744 594,-190.744 594,-131.352 594,-131.352 594,-125.352 600,-119.352 606,-119.352"/>
<text text-anchor="middle" x="664" y="-187.544" font-family="Times,serif" font-size="14.00">Instance for: (RST r s)</text>
</g>
<!-- 12 -->
<g id="node1" class="node"><title>12</title>
<polygon fill="bisque" stroke="black" stroke-width="2" points="207.674,-385.016 207.674,-403.567 168.617,-416.685 113.383,-416.685 74.3261,-403.567 74.3261,-385.016 113.383,-371.898 168.617,-371.898 207.674,-385.016"/>
<text text-anchor="middle" x="141" y="-390.591" font-family="Times,serif" font-size="14.00">fmap</text>
</g>
<!-- 36 -->
<g id="node2" class="node"><title>36</title>
<polygon fill="khaki" stroke="black" stroke-dasharray="1,5" points="261.858,-273.405 261.858,-301.434 191.061,-321.254 90.9389,-321.254 20.1417,-301.434 20.1417,-273.405 90.9389,-253.585 191.061,-253.585 261.858,-273.405"/>
<polygon fill="none" stroke="black" stroke-dasharray="1,5" points="265.856,-270.353 265.856,-304.487 191.607,-325.273 90.3926,-325.273 16.144,-304.487 16.144,-270.353 90.3926,-249.567 191.607,-249.567 265.856,-270.353"/>
<text text-anchor="middle" x="141" y="-291.22" font-family="Times,serif" font-size="14.00">Unknown Module</text>
<text text-anchor="middle" x="141" y="-276.22" font-family="Times,serif" font-size="14.00">fmap</text>
</g>
<!-- 12&#45;&gt;36 -->
<g id="edge4" class="edge"><title>12&#45;&gt;36</title>
<path fill="none" stroke="black" d="M135.451,-372.069C134.52,-361.49 134.13,-348.247 134.282,-335.439"/>
<polygon fill="black" stroke="black" points="137.784,-335.4 134.521,-325.32 130.786,-335.235 137.784,-335.4"/>
</g>
<!-- 36&#45;&gt;12 -->
<g id="edge17" class="edge"><title>36&#45;&gt;12</title>
<path fill="none" stroke="navy" d="M147.479,-325.32C148.04,-340.976 147.73,-358.662 146.549,-372.069"/>
</g>
<!-- 11 -->
<g id="node3" class="node"><title>11</title>
<polygon fill="bisque" stroke="black" stroke-width="2" points="265.867,-140.272 265.867,-158.823 231.383,-171.941 182.617,-171.941 148.133,-158.823 148.133,-140.272 182.617,-127.155 231.383,-127.155 265.867,-140.272"/>
<text text-anchor="middle" x="207" y="-145.848" font-family="Times,serif" font-size="14.00">fail</text>
</g>
<!-- 35 -->
<g id="node5" class="node"><title>35</title>
<polygon fill="khaki" stroke="black" stroke-dasharray="1,5" points="267.858,-39.6615 267.858,-67.6908 197.061,-87.5105 96.9389,-87.5105 26.1417,-67.6908 26.1417,-39.6615 96.9389,-19.8418 197.061,-19.8418 267.858,-39.6615"/>
<polygon fill="none" stroke="black" stroke-dasharray="1,5" points="271.856,-36.609 271.856,-70.7433 197.607,-91.5293 96.3926,-91.5293 22.144,-70.7433 22.144,-36.609 96.3926,-15.823 197.607,-15.823 271.856,-36.609"/>
<text text-anchor="middle" x="147" y="-57.4761" font-family="Times,serif" font-size="14.00">Unknown Module</text>
<text text-anchor="middle" x="147" y="-42.4761" font-family="Times,serif" font-size="14.00">fail</text>
</g>
<!-- 11&#45;&gt;35 -->
<g id="edge3" class="edge"><title>11&#45;&gt;35</title>
<path fill="none" stroke="black" d="M187.624,-127.247C181.738,-119.129 175.277,-109.536 169.242,-100.03"/>
<polygon fill="black" stroke="black" points="172.105,-98.0064 163.848,-91.3685 166.163,-101.707 172.105,-98.0064"/>
</g>
<!-- 23 -->
<g id="node4" class="node"><title>23</title>
<polygon fill="bisque" stroke="black" stroke-width="2" points="423.797,-140.272 423.797,-158.823 382.911,-171.941 325.089,-171.941 284.203,-158.823 284.203,-140.272 325.089,-127.155 382.911,-127.155 423.797,-140.272"/>
<text text-anchor="middle" x="354" y="-145.848" font-family="Times,serif" font-size="14.00">return</text>
</g>
<!-- 46 -->
<g id="node6" class="node"><title>46</title>
<polygon fill="khaki" stroke="black" stroke-dasharray="1,5" points="535.858,-39.6615 535.858,-67.6908 465.061,-87.5105 364.939,-87.5105 294.142,-67.6908 294.142,-39.6615 364.939,-19.8418 465.061,-19.8418 535.858,-39.6615"/>
<polygon fill="none" stroke="black" stroke-dasharray="1,5" points="539.856,-36.609 539.856,-70.7433 465.607,-91.5293 364.393,-91.5293 290.144,-70.7433 290.144,-36.609 364.393,-15.823 465.607,-15.823 539.856,-36.609"/>
<text text-anchor="middle" x="415" y="-57.4761" font-family="Times,serif" font-size="14.00">Unknown Module</text>
<text text-anchor="middle" x="415" y="-42.4761" font-family="Times,serif" font-size="14.00">return</text>
</g>
<!-- 23&#45;&gt;46 -->
<g id="edge12" class="edge"><title>23&#45;&gt;46</title>
<path fill="none" stroke="black" d="M362.081,-127.247C366.704,-119.047 372.684,-109.34 378.972,-99.7388"/>
<polygon fill="black" stroke="black" points="381.917,-101.631 384.551,-91.3685 376.093,-97.7482 381.917,-101.631"/>
</g>
<!-- 35&#45;&gt;11 -->
<g id="edge16" class="edge"><title>35&#45;&gt;11</title>
<path fill="none" stroke="navy" d="M177.058,-91.3685C185.177,-103.525 193.281,-116.645 199.146,-127.247"/>
</g>
<!-- 46&#45;&gt;23 -->
<g id="edge23" class="edge"><title>46&#45;&gt;23</title>
<path fill="none" stroke="navy" d="M397.761,-91.3685C390.211,-103.525 381.404,-116.645 373.603,-127.247"/>
</g>
<!-- 6 -->
<g id="node7" class="node"><title>6</title>
<polygon fill="bisque" stroke="black" stroke-width="2" points="1420.24,-385.016 1420.24,-403.567 1380.26,-416.685 1323.74,-416.685 1283.76,-403.567 1283.76,-385.016 1323.74,-371.898 1380.26,-371.898 1420.24,-385.016"/>
<text text-anchor="middle" x="1352" y="-390.591" font-family="Times,serif" font-size="14.00">block</text>
</g>
<!-- 32 -->
<g id="node10" class="node"><title>32</title>
<polygon fill="khaki" stroke="black" stroke-dasharray="1,5" points="1357.86,-273.405 1357.86,-301.434 1287.06,-321.254 1186.94,-321.254 1116.14,-301.434 1116.14,-273.405 1186.94,-253.585 1287.06,-253.585 1357.86,-273.405"/>
<polygon fill="none" stroke="black" stroke-dasharray="1,5" points="1361.86,-270.353 1361.86,-304.487 1287.61,-325.273 1186.39,-325.273 1112.14,-304.487 1112.14,-270.353 1186.39,-249.567 1287.61,-249.567 1361.86,-270.353"/>
<text text-anchor="middle" x="1237" y="-291.22" font-family="Times,serif" font-size="14.00">Unknown Module</text>
<text text-anchor="middle" x="1237" y="-276.22" font-family="Times,serif" font-size="14.00">block</text>
</g>
<!-- 6&#45;&gt;32 -->
<g id="edge1" class="edge"><title>6&#45;&gt;32</title>
<path fill="none" stroke="black" d="M1323.18,-372.069C1309.65,-360.652 1293.36,-346.132 1278.56,-332.405"/>
<polygon fill="black" stroke="black" points="1280.68,-329.593 1270.98,-325.32 1275.9,-334.706 1280.68,-329.593"/>
</g>
<!-- 7 -->
<g id="node8" class="node"><title>7</title>
<polygon fill="bisque" stroke="black" stroke-width="2" points="1571.67,-385.016 1571.67,-403.567 1532.62,-416.685 1477.38,-416.685 1438.33,-403.567 1438.33,-385.016 1477.38,-371.898 1532.62,-371.898 1571.67,-385.016"/>
<text text-anchor="middle" x="1505" y="-390.591" font-family="Times,serif" font-size="14.00">catch</text>
</g>
<!-- 33 -->
<g id="node11" class="node"><title>33</title>
<polygon fill="khaki" stroke="black" stroke-dasharray="1,5" points="1625.86,-273.405 1625.86,-301.434 1555.06,-321.254 1454.94,-321.254 1384.14,-301.434 1384.14,-273.405 1454.94,-253.585 1555.06,-253.585 1625.86,-273.405"/>
<polygon fill="none" stroke="black" stroke-dasharray="1,5" points="1629.86,-270.353 1629.86,-304.487 1555.61,-325.273 1454.39,-325.273 1380.14,-304.487 1380.14,-270.353 1454.39,-249.567 1555.61,-249.567 1629.86,-270.353"/>
<text text-anchor="middle" x="1505" y="-291.22" font-family="Times,serif" font-size="14.00">Unknown Module</text>
<text text-anchor="middle" x="1505" y="-276.22" font-family="Times,serif" font-size="14.00">catch</text>
</g>
<!-- 7&#45;&gt;33 -->
<g id="edge2" class="edge"><title>7&#45;&gt;33</title>
<path fill="none" stroke="black" d="M1499.45,-372.069C1498.52,-361.49 1498.13,-348.247 1498.28,-335.439"/>
<polygon fill="black" stroke="black" points="1501.78,-335.4 1498.52,-325.32 1494.79,-335.235 1501.78,-335.4"/>
</g>
<!-- 26 -->
<g id="node9" class="node"><title>26</title>
<polygon fill="bisque" stroke="black" stroke-width="2" points="1746.13,-385.016 1746.13,-403.567 1700.36,-416.685 1635.64,-416.685 1589.87,-403.567 1589.87,-385.016 1635.64,-371.898 1700.36,-371.898 1746.13,-385.016"/>
<text text-anchor="middle" x="1668" y="-390.591" font-family="Times,serif" font-size="14.00">unblock</text>
</g>
<!-- 47 -->
<g id="node12" class="node"><title>47</title>
<polygon fill="khaki" stroke="black" stroke-dasharray="1,5" points="1893.86,-273.405 1893.86,-301.434 1823.06,-321.254 1722.94,-321.254 1652.14,-301.434 1652.14,-273.405 1722.94,-253.585 1823.06,-253.585 1893.86,-273.405"/>
<polygon fill="none" stroke="black" stroke-dasharray="1,5" points="1897.86,-270.353 1897.86,-304.487 1823.61,-325.273 1722.39,-325.273 1648.14,-304.487 1648.14,-270.353 1722.39,-249.567 1823.61,-249.567 1897.86,-270.353"/>
<text text-anchor="middle" x="1773" y="-291.22" font-family="Times,serif" font-size="14.00">Unknown Module</text>
<text text-anchor="middle" x="1773" y="-276.22" font-family="Times,serif" font-size="14.00">unblock</text>
</g>
<!-- 26&#45;&gt;47 -->
<g id="edge13" class="edge"><title>26&#45;&gt;47</title>
<path fill="none" stroke="black" d="M1683.7,-372.069C1694.12,-360.652 1708.29,-346.132 1722.29,-332.405"/>
<polygon fill="black" stroke="black" points="1724.85,-334.801 1729.58,-325.32 1719.97,-329.782 1724.85,-334.801"/>
</g>
<!-- 32&#45;&gt;6 -->
<g id="edge14" class="edge"><title>32&#45;&gt;6</title>
<path fill="none" stroke="navy" d="M1283.94,-325.32C1301.67,-340.976 1320.76,-358.662 1334.28,-372.069"/>
</g>
<!-- 33&#45;&gt;7 -->
<g id="edge15" class="edge"><title>33&#45;&gt;7</title>
<path fill="none" stroke="navy" d="M1511.48,-325.32C1512.04,-340.976 1511.73,-358.662 1510.55,-372.069"/>
</g>
<!-- 47&#45;&gt;26 -->
<g id="edge24" class="edge"><title>47&#45;&gt;26</title>
<path fill="none" stroke="navy" d="M1742.53,-325.32C1727.42,-340.976 1709.4,-358.662 1694.8,-372.069"/>
</g>
<!-- 15 -->
<g id="node13" class="node"><title>15</title>
<polygon fill="bisque" stroke="black" stroke-width="2" points="506.236,-385.016 506.236,-403.567 466.264,-416.685 409.736,-416.685 369.764,-403.567 369.764,-385.016 409.736,-371.898 466.264,-371.898 506.236,-385.016"/>
<text text-anchor="middle" x="438" y="-390.591" font-family="Times,serif" font-size="14.00">liftIO</text>
</g>
<!-- 39 -->
<g id="node14" class="node"><title>39</title>
<polygon fill="khaki" stroke="black" stroke-dasharray="1,5" points="535.858,-273.405 535.858,-301.434 465.061,-321.254 364.939,-321.254 294.142,-301.434 294.142,-273.405 364.939,-253.585 465.061,-253.585 535.858,-273.405"/>
<polygon fill="none" stroke="black" stroke-dasharray="1,5" points="539.856,-270.353 539.856,-304.487 465.607,-325.273 364.393,-325.273 290.144,-304.487 290.144,-270.353 364.393,-249.567 465.607,-249.567 539.856,-270.353"/>
<text text-anchor="middle" x="415" y="-291.22" font-family="Times,serif" font-size="14.00">Unknown Module</text>
<text text-anchor="middle" x="415" y="-276.22" font-family="Times,serif" font-size="14.00">liftIO</text>
</g>
<!-- 15&#45;&gt;39 -->
<g id="edge7" class="edge"><title>15&#45;&gt;39</title>
<path fill="none" stroke="black" d="M427.797,-372.069C424.545,-361.49 421.251,-348.247 418.594,-335.439"/>
<polygon fill="black" stroke="black" points="421.969,-334.461 416.613,-325.32 415.1,-335.806 421.969,-334.461"/>
</g>
<!-- 38 -->
<g id="node22" class="node"><title>38</title>
<polygon fill="khaki" stroke="black" stroke-dasharray="1,5" points="809.858,-273.405 809.858,-301.434 739.061,-321.254 638.939,-321.254 568.142,-301.434 568.142,-273.405 638.939,-253.585 739.061,-253.585 809.858,-273.405"/>
<polygon fill="none" stroke="black" stroke-dasharray="1,5" points="813.856,-270.353 813.856,-304.487 739.607,-325.273 638.393,-325.273 564.144,-304.487 564.144,-270.353 638.393,-249.567 739.607,-249.567 813.856,-270.353"/>
<text text-anchor="middle" x="689" y="-291.22" font-family="Times,serif" font-size="14.00">Unknown Module</text>
<text text-anchor="middle" x="689" y="-276.22" font-family="Times,serif" font-size="14.00">lift</text>
</g>
<!-- 15&#45;&gt;38 -->
<g id="edge6" class="edge"><title>15&#45;&gt;38</title>
<path fill="none" stroke="black" d="M487.656,-378.793C507.855,-372.456 531.276,-364.544 552,-356.096 573.506,-347.328 596.324,-336.643 617.043,-326.377"/>
<polygon fill="black" stroke="black" points="618.711,-329.456 626.092,-321.854 615.582,-323.194 618.711,-329.456"/>
</g>
<!-- 39&#45;&gt;15 -->
<g id="edge19" class="edge"><title>39&#45;&gt;15</title>
<path fill="none" stroke="navy" d="M429.572,-325.32C433.566,-340.976 437.135,-358.662 438.894,-372.069"/>
</g>
<!-- 19 -->
<g id="node15" class="node"><title>19</title>
<polygon fill="bisque" stroke="black" stroke-width="2" points="2171.33,-385.016 2171.33,-403.567 2130.13,-416.685 2071.87,-416.685 2030.67,-403.567 2030.67,-385.016 2071.87,-371.898 2130.13,-371.898 2171.33,-385.016"/>
<text text-anchor="middle" x="2101" y="-390.591" font-family="Times,serif" font-size="14.00">mplus</text>
</g>
<!-- 42 -->
<g id="node17" class="node"><title>42</title>
<polygon fill="khaki" stroke="black" stroke-dasharray="1,5" points="2167.86,-273.405 2167.86,-301.434 2097.06,-321.254 1996.94,-321.254 1926.14,-301.434 1926.14,-273.405 1996.94,-253.585 2097.06,-253.585 2167.86,-273.405"/>
<polygon fill="none" stroke="black" stroke-dasharray="1,5" points="2171.86,-270.353 2171.86,-304.487 2097.61,-325.273 1996.39,-325.273 1922.14,-304.487 1922.14,-270.353 1996.39,-249.567 2097.61,-249.567 2171.86,-270.353"/>
<text text-anchor="middle" x="2047" y="-291.22" font-family="Times,serif" font-size="14.00">Unknown Module</text>
<text text-anchor="middle" x="2047" y="-276.22" font-family="Times,serif" font-size="14.00">mplus</text>
</g>
<!-- 19&#45;&gt;42 -->
<g id="edge10" class="edge"><title>19&#45;&gt;42</title>
<path fill="none" stroke="black" d="M2084.52,-372.069C2078.02,-361.281 2070.65,-347.721 2064.11,-334.679"/>
<polygon fill="black" stroke="black" points="2067.07,-332.757 2059.52,-325.32 2060.78,-335.839 2067.07,-332.757"/>
</g>
<!-- 20 -->
<g id="node16" class="node"><title>20</title>
<polygon fill="bisque" stroke="black" stroke-width="2" points="2332.36,-385.016 2332.36,-403.567 2290.56,-416.685 2231.44,-416.685 2189.64,-403.567 2189.64,-385.016 2231.44,-371.898 2290.56,-371.898 2332.36,-385.016"/>
<text text-anchor="middle" x="2261" y="-390.591" font-family="Times,serif" font-size="14.00">mzero</text>
</g>
<!-- 43 -->
<g id="node18" class="node"><title>43</title>
<polygon fill="khaki" stroke="black" stroke-dasharray="1,5" points="2435.86,-273.405 2435.86,-301.434 2365.06,-321.254 2264.94,-321.254 2194.14,-301.434 2194.14,-273.405 2264.94,-253.585 2365.06,-253.585 2435.86,-273.405"/>
<polygon fill="none" stroke="black" stroke-dasharray="1,5" points="2439.86,-270.353 2439.86,-304.487 2365.61,-325.273 2264.39,-325.273 2190.14,-304.487 2190.14,-270.353 2264.39,-249.567 2365.61,-249.567 2439.86,-270.353"/>
<text text-anchor="middle" x="2315" y="-291.22" font-family="Times,serif" font-size="14.00">Unknown Module</text>
<text text-anchor="middle" x="2315" y="-276.22" font-family="Times,serif" font-size="14.00">mzero</text>
</g>
<!-- 20&#45;&gt;43 -->
<g id="edge11" class="edge"><title>20&#45;&gt;43</title>
<path fill="none" stroke="black" d="M2266.38,-372.069C2271.03,-361.176 2277.71,-347.458 2284.67,-334.299"/>
<polygon fill="black" stroke="black" points="2287.85,-335.782 2289.52,-325.32 2281.69,-332.457 2287.85,-335.782"/>
</g>
<!-- 42&#45;&gt;19 -->
<g id="edge21" class="edge"><title>42&#45;&gt;19</title>
<path fill="none" stroke="navy" d="M2072.48,-325.32C2081.1,-340.976 2089.9,-358.662 2095.62,-372.069"/>
</g>
<!-- 43&#45;&gt;20 -->
<g id="edge22" class="edge"><title>43&#45;&gt;20</title>
<path fill="none" stroke="navy" d="M2302.48,-325.32C2294.98,-340.976 2285.56,-358.662 2277.48,-372.069"/>
</g>
<!-- 16 -->
<g id="node19" class="node"><title>16</title>
<polygon fill="bisque" stroke="black" stroke-width="2" points="1020.1,-385.016 1020.1,-403.567 974.938,-416.685 911.062,-416.685 865.895,-403.567 865.895,-385.016 911.062,-371.898 974.938,-371.898 1020.1,-385.016"/>
<text text-anchor="middle" x="943" y="-390.591" font-family="Times,serif" font-size="14.00">liftSnap</text>
</g>
<!-- 40 -->
<g id="node20" class="node"><title>40</title>
<polygon fill="khaki" stroke="black" stroke-dasharray="1,5" points="1083.86,-273.405 1083.86,-301.434 1013.06,-321.254 912.939,-321.254 842.142,-301.434 842.142,-273.405 912.939,-253.585 1013.06,-253.585 1083.86,-273.405"/>
<polygon fill="none" stroke="black" stroke-dasharray="1,5" points="1087.86,-270.353 1087.86,-304.487 1013.61,-325.273 912.393,-325.273 838.144,-304.487 838.144,-270.353 912.393,-249.567 1013.61,-249.567 1087.86,-270.353"/>
<text text-anchor="middle" x="963" y="-291.22" font-family="Times,serif" font-size="14.00">Unknown Module</text>
<text text-anchor="middle" x="963" y="-276.22" font-family="Times,serif" font-size="14.00">liftSnap</text>
</g>
<!-- 16&#45;&gt;40 -->
<g id="edge9" class="edge"><title>16&#45;&gt;40</title>
<path fill="none" stroke="black" d="M941.499,-372.069C942.584,-361.49 944.72,-348.247 947.315,-335.439"/>
<polygon fill="black" stroke="black" points="950.81,-335.831 949.483,-325.32 943.966,-334.365 950.81,-335.831"/>
</g>
<!-- 16&#45;&gt;38 -->
<g id="edge8" class="edge"><title>16&#45;&gt;38</title>
<path fill="none" stroke="black" d="M889.397,-378.113C869.277,-371.931 846.361,-364.306 826,-356.096 804.461,-347.41 781.632,-336.75 760.914,-326.483"/>
<polygon fill="black" stroke="black" points="762.376,-323.3 751.866,-321.958 759.245,-329.561 762.376,-323.3"/>
</g>
<!-- 40&#45;&gt;16 -->
<g id="edge20" class="edge"><title>40&#45;&gt;16</title>
<path fill="none" stroke="navy" d="M962.442,-325.32C960.017,-340.976 956.334,-358.662 952.596,-372.069"/>
</g>
<!-- 14 -->
<g id="node21" class="node"><title>14</title>
<polygon fill="bisque" stroke="black" stroke-width="2" points="720.775,-140.272 720.775,-158.823 687.517,-171.941 640.483,-171.941 607.225,-158.823 607.225,-140.272 640.483,-127.155 687.517,-127.155 720.775,-140.272"/>
<text text-anchor="middle" x="664" y="-145.848" font-family="Times,serif" font-size="14.00">lift</text>
</g>
<!-- 14&#45;&gt;46 -->
<g id="edge5" class="edge"><title>14&#45;&gt;46</title>
<path fill="none" stroke="black" d="M623.994,-133.466C591.28,-121.133 543.83,-103.244 502.408,-87.6284"/>
<polygon fill="black" stroke="black" points="503.439,-84.2769 492.847,-84.0243 500.97,-90.8269 503.439,-84.2769"/>
</g>
<!-- 38&#45;&gt;14 -->
<g id="edge18" class="edge"><title>38&#45;&gt;14</title>
<path fill="none" stroke="navy" d="M682.235,-249.651C677.665,-224.816 671.79,-192.886 667.962,-172.08"/>
</g>
</g>
</svg>
