<?xml version="1.0" encoding="UTF-8" standalone="no"?>
<!DOCTYPE svg PUBLIC "-//W3C//DTD SVG 1.1//EN"
 "http://www.w3.org/Graphics/SVG/1.1/DTD/svg11.dtd">
<!-- Generated by graphviz version 2.38.0 (20140413.2041)
 -->
<!-- Title: Diagram of: Snap.Snaplet.Heist.Compiled Pages: 1 -->
<svg width="649pt" height="44pt"
 viewBox="0.00 0.00 648.50 44.00" xmlns="http://www.w3.org/2000/svg" xmlns:xlink="http://www.w3.org/1999/xlink">
<g id="graph0" class="graph" transform="scale(1 1) rotate(0) translate(4 40)">
<title>Diagram of: Snap.Snaplet.Heist.Compiled</title>
<polygon fill="white" stroke="none" points="-4,4 -4,-40 644.5,-40 644.5,4 -4,4"/>
<!-- 1 -->
<g id="node1" class="node"><title>1</title>
<polygon fill="gold" stroke="black" stroke-width="2" points="103,-36 0,-36 0,-0 103,-0 103,-36"/>
<text text-anchor="middle" x="51.5" y="-14.3" font-family="Times,serif" font-size="14.00">heistInit</text>
</g>
<!-- 2 -->
<g id="node2" class="node"><title>2</title>
<polygon fill="gold" stroke="black" stroke-width="2" points="236,-36 121,-36 121,-0 236,-0 236,-36"/>
<text text-anchor="middle" x="178.5" y="-14.3" font-family="Times,serif" font-size="14.00">heistServe</text>
</g>
<!-- 3 -->
<g id="node3" class="node"><title>3</title>
<polygon fill="gold" stroke="black" stroke-width="2" points="403,-36 254,-36 254,-0 403,-0 403,-36"/>
<text text-anchor="middle" x="328.5" y="-14.3" font-family="Times,serif" font-size="14.00">heistServeSingle</text>
</g>
<!-- 4 -->
<g id="node4" class="node"><title>4</title>
<polygon fill="gold" stroke="black" stroke-width="2" points="514,-36 421,-36 421,-0 514,-0 514,-36"/>
<text text-anchor="middle" x="467.5" y="-14.3" font-family="Times,serif" font-size="14.00">render</text>
</g>
<!-- 5 -->
<g id="node5" class="node"><title>5</title>
<polygon fill="gold" stroke="black" stroke-width="2" points="640.5,-36 532.5,-36 532.5,-0 640.5,-0 640.5,-36"/>
<text text-anchor="middle" x="586.5" y="-14.3" font-family="Times,serif" font-size="14.00">renderAs</text>
</g>
</g>
</svg>
