<?xml version="1.0" encoding="UTF-8" standalone="no"?>
<!DOCTYPE svg PUBLIC "-//W3C//DTD SVG 1.1//EN"
 "http://www.w3.org/Graphics/SVG/1.1/DTD/svg11.dtd">
<!-- Generated by graphviz version 2.38.0 (20140413.2041)
 -->
<!-- Title: Levels within Snap.Snaplet.Auth.Backends.JsonFile Pages: 1 -->
<svg width="4029pt" height="377pt"
 viewBox="0.00 0.00 4029.00 376.74" xmlns="http://www.w3.org/2000/svg" xmlns:xlink="http://www.w3.org/1999/xlink">
<g id="graph0" class="graph" transform="scale(1 1) rotate(0) translate(4 372.744)">
<title>Levels within Snap.Snaplet.Auth.Backends.JsonFile</title>
<polygon fill="white" stroke="none" points="-4,4 -4,-372.744 4025,-372.744 4025,4 -4,4"/>
<g id="clust1" class="cluster"><title>cluster_0</title>
<polygon fill="lavender" stroke="black" points="8,-167.196 8,-360.744 1151,-360.744 1151,-167.196 8,-167.196"/>
<text text-anchor="middle" x="579.5" y="-345.544" font-family="Times,serif" font-size="14.00">Exported root entities</text>
</g>
<g id="clust2" class="cluster"><title>cluster_1</title>
<polygon fill="lavender" stroke="black" points="1458,-163 1458,-246.391 4013,-246.391 4013,-163 1458,-163"/>
<text text-anchor="middle" x="2735.5" y="-231.191" font-family="Times,serif" font-size="14.00">Level = 1</text>
</g>
<g id="clust3" class="cluster"><title>cluster_2</title>
<polygon fill="lavender" stroke="black" points="1159,-8 1159,-242.196 1450,-242.196 1450,-8 1159,-8"/>
<text text-anchor="middle" x="1304.5" y="-226.996" font-family="Times,serif" font-size="14.00">Level = 2</text>
</g>
<g id="clust4" class="cluster"><title>cluster_3</title>
<polygon fill="lavender" stroke="black" points="1039,-80 1039,-155 1151,-155 1151,-80 1039,-80"/>
<text text-anchor="middle" x="1095" y="-139.8" font-family="Times,serif" font-size="14.00">Level = 3</text>
</g>
<!-- 1 -->
<g id="node1" class="node"><title>1</title>
<polygon fill="khaki" stroke="black" points="602.872,-278.053 602.872,-306.082 495.162,-325.902 342.838,-325.902 235.128,-306.082 235.128,-278.053 342.838,-258.233 495.162,-258.233 602.872,-278.053"/>
<polygon fill="none" stroke="black" points="606.876,-274.704 606.876,-309.431 495.526,-329.921 342.474,-329.921 231.124,-309.431 231.124,-274.704 342.474,-254.214 495.526,-254.214 606.876,-274.704"/>
<text text-anchor="middle" x="419" y="-295.867" font-family="Times,serif" font-size="14.00">Snap.Snaplet.Auth.AuthManager</text>
<text text-anchor="middle" x="419" y="-280.867" font-family="Times,serif" font-size="14.00">Class: IAuthBackend</text>
</g>
<!-- 10 -->
<g id="node7" class="node"><title>10</title>
<polygon fill="bisque" stroke="black" stroke-width="2" points="2138.3,-183.92 2138.3,-202.471 1988.16,-215.589 1775.84,-215.589 1625.7,-202.471 1625.7,-183.92 1775.84,-170.803 1988.16,-170.803 2138.3,-183.92"/>
<text text-anchor="middle" x="1882" y="-189.496" font-family="Times,serif" font-size="14.00">Class: IAuthBackend, Data: JsonFileAuthManager</text>
</g>
<!-- 1&#45;&gt;10 -->
<g id="edge1" class="edge"><title>1&#45;&gt;10</title>
<path fill="none" stroke="navy" stroke-width="2.60944" d="M547.555,-263.769C570.261,-259.912 593.751,-256.534 616,-254.391 837.427,-233.062 1395.69,-268.872 1617,-246.391 1677.3,-240.266 1744.26,-227.021 1795.78,-215.407"/>
</g>
<!-- 12 -->
<g id="node2" class="node"><title>12</title>
<polygon fill="gold" stroke="black" stroke-width="2" points="213.5,-310.067 16.5,-310.067 16.5,-274.067 213.5,-274.067 213.5,-310.067"/>
<text text-anchor="middle" x="115" y="-288.367" font-family="Times,serif" font-size="14.00">initJsonFileAuthManager</text>
</g>
<!-- 20 -->
<g id="node3" class="node"><title>20</title>
<polygon fill="goldenrod" stroke="black" stroke-width="2" points="1143,-211.196 991,-211.196 991,-175.196 1143,-175.196 1143,-211.196"/>
<text text-anchor="middle" x="1067" y="-189.496" font-family="Times,serif" font-size="14.00">mkJsonAuthMgr</text>
</g>
<!-- 12&#45;&gt;20 -->
<g id="edge8" class="edge"><title>12&#45;&gt;20</title>
<path fill="none" stroke="chartreuse" d="M156.482,-274.042C176.03,-266.751 199.87,-258.893 222,-254.391 365.216,-225.26 795.347,-205.08 980.59,-197.511"/>
<polygon fill="chartreuse" stroke="chartreuse" points="980.98,-200.998 990.83,-197.095 980.696,-194.004 980.98,-200.998"/>
</g>
<!-- 6 -->
<g id="node6" class="node"><title>6</title>
<polygon fill="cyan" stroke="black" stroke-width="2" points="2368,-211.196 2160,-211.196 2156,-207.196 2156,-175.196 2364,-175.196 2368,-179.196 2368,-211.196"/>
<polyline fill="none" stroke="black" stroke-width="2" points="2364,-207.196 2156,-207.196 "/>
<polyline fill="none" stroke="black" stroke-width="2" points="2364,-207.196 2364,-175.196 "/>
<polyline fill="none" stroke="black" stroke-width="2" points="2364,-207.196 2368,-211.196 "/>
<text text-anchor="middle" x="2262" y="-189.496" font-family="Times,serif" font-size="14.00">Data: JsonFileAuthManager</text>
</g>
<!-- 20&#45;&gt;6 -->
<g id="edge15" class="edge"><title>20&#45;&gt;6</title>
<path fill="none" stroke="black" stroke-width="2.09861" d="M1088.36,-211.362C1106.94,-225.713 1135.31,-244.304 1164,-250.391 1177.23,-253.2 2124.77,-253.2 2138,-250.391 2168.3,-243.961 2199.97,-229.196 2223.72,-216.279"/>
<polygon fill="black" stroke="black" stroke-width="2.09861" points="2225.71,-219.18 2232.74,-211.256 2222.3,-213.065 2225.71,-219.18"/>
</g>
<!-- 14 -->
<g id="node8" class="node"><title>14</title>
<polygon fill="bisque" stroke="black" stroke-width="2" points="1607.5,-211.196 1466.5,-211.196 1466.5,-175.196 1607.5,-175.196 1607.5,-211.196"/>
<text text-anchor="middle" x="1537" y="-189.496" font-family="Times,serif" font-size="14.00">loadUserCache</text>
</g>
<!-- 20&#45;&gt;14 -->
<g id="edge16" class="edge"><title>20&#45;&gt;14</title>
<path fill="none" stroke="black" d="M1088.36,-211.362C1106.94,-225.713 1135.31,-244.304 1164,-250.391 1179.27,-253.632 1429.73,-253.632 1445,-250.391 1468.72,-245.358 1491.87,-230.892 1509.02,-217.768"/>
<polygon fill="black" stroke="black" points="1511.28,-220.443 1516.94,-211.481 1506.93,-214.962 1511.28,-220.443"/>
</g>
<!-- 31 -->
<g id="node4" class="node"><title>31</title>
<polygon fill="khaki" stroke="black" stroke-dasharray="1,5" points="1138.86,-278.053 1138.86,-306.082 1068.06,-325.902 967.939,-325.902 897.142,-306.082 897.142,-278.053 967.939,-258.233 1068.06,-258.233 1138.86,-278.053"/>
<polygon fill="none" stroke="black" stroke-dasharray="1,5" points="1142.86,-275 1142.86,-309.135 1068.61,-329.921 967.393,-329.921 893.144,-309.135 893.144,-275 967.393,-254.214 1068.61,-254.214 1142.86,-275"/>
<text text-anchor="middle" x="1018" y="-295.867" font-family="Times,serif" font-size="14.00">Unknown Module</text>
<text text-anchor="middle" x="1018" y="-280.867" font-family="Times,serif" font-size="14.00">Class: FromJSON</text>
</g>
<!-- 21 -->
<g id="node9" class="node"><title>21</title>
<polygon fill="bisque" stroke="black" stroke-width="2" points="3574.9,-183.92 3574.9,-202.471 3459.56,-215.589 3296.44,-215.589 3181.1,-202.471 3181.1,-183.92 3296.44,-170.803 3459.56,-170.803 3574.9,-183.92"/>
<text text-anchor="middle" x="3378" y="-189.496" font-family="Times,serif" font-size="14.00">Class: FromJSON, Data: UserCache</text>
</g>
<!-- 31&#45;&gt;21 -->
<g id="edge22" class="edge"><title>31&#45;&gt;21</title>
<path fill="none" stroke="navy" stroke-width="1.69315" d="M1143.18,-290.131C1572.75,-286.688 2971.61,-273.496 3172,-246.391 3218.98,-240.037 3270.7,-226.91 3310.56,-215.412"/>
</g>
<!-- 22 -->
<g id="node10" class="node"><title>22</title>
<polygon fill="bisque" stroke="black" stroke-width="2" points="4004.77,-183.92 4004.77,-202.471 3884.23,-215.589 3713.77,-215.589 3593.23,-202.471 3593.23,-183.92 3713.77,-170.803 3884.23,-170.803 4004.77,-183.92"/>
<text text-anchor="middle" x="3799" y="-189.496" font-family="Times,serif" font-size="14.00">Class: FromJSON, Data: UserIdCache</text>
</g>
<!-- 31&#45;&gt;22 -->
<g id="edge23" class="edge"><title>31&#45;&gt;22</title>
<path fill="none" stroke="navy" d="M1143.18,-290.526C1625.67,-288.193 3349.67,-277.656 3593,-246.391 3641.96,-240.101 3695.93,-226.975 3736.42,-215.46"/>
</g>
<!-- 32 -->
<g id="node5" class="node"><title>32</title>
<polygon fill="khaki" stroke="black" stroke-dasharray="1,5" points="870.858,-278.053 870.858,-306.082 800.061,-325.902 699.939,-325.902 629.142,-306.082 629.142,-278.053 699.939,-258.233 800.061,-258.233 870.858,-278.053"/>
<polygon fill="none" stroke="black" stroke-dasharray="1,5" points="874.856,-275 874.856,-309.135 800.607,-329.921 699.393,-329.921 625.144,-309.135 625.144,-275 699.393,-254.214 800.607,-254.214 874.856,-275"/>
<text text-anchor="middle" x="750" y="-295.867" font-family="Times,serif" font-size="14.00">Unknown Module</text>
<text text-anchor="middle" x="750" y="-280.867" font-family="Times,serif" font-size="14.00">Class: ToJSON</text>
</g>
<!-- 25 -->
<g id="node11" class="node"><title>25</title>
<polygon fill="bisque" stroke="black" stroke-width="2" points="3163.44,-183.92 3163.44,-202.471 3054.81,-215.589 2901.19,-215.589 2792.56,-202.471 2792.56,-183.92 2901.19,-170.803 3054.81,-170.803 3163.44,-183.92"/>
<text text-anchor="middle" x="2978" y="-189.496" font-family="Times,serif" font-size="14.00">Class: ToJSON, Data: UserCache</text>
</g>
<!-- 32&#45;&gt;25 -->
<g id="edge24" class="edge"><title>32&#45;&gt;25</title>
<path fill="none" stroke="navy" d="M835.808,-264.006C851.681,-260.025 868.227,-256.545 884,-254.391 988.531,-240.12 2678.43,-260.369 2783,-246.391 2827.98,-240.379 2877.36,-227.092 2915.17,-215.43"/>
</g>
<!-- 26 -->
<g id="node12" class="node"><title>26</title>
<polygon fill="bisque" stroke="black" stroke-width="2" points="2774.31,-183.92 2774.31,-202.471 2660.48,-215.589 2499.52,-215.589 2385.69,-202.471 2385.69,-183.92 2499.52,-170.803 2660.48,-170.803 2774.31,-183.92"/>
<text text-anchor="middle" x="2580" y="-189.496" font-family="Times,serif" font-size="14.00">Class: ToJSON, Data: UserIdCache</text>
</g>
<!-- 32&#45;&gt;26 -->
<g id="edge25" class="edge"><title>32&#45;&gt;26</title>
<path fill="none" stroke="navy" d="M839.937,-265.211C857.416,-260.738 875.675,-256.767 893,-254.391 1057.35,-231.857 2221.48,-267.652 2386,-246.391 2432.74,-240.352 2484.13,-227.066 2522.35,-215.411"/>
</g>
<!-- 7 -->
<g id="node13" class="node"><title>7</title>
<polygon fill="cyan" stroke="black" stroke-width="2" points="1441.5,-52 1294.5,-52 1290.5,-48 1290.5,-16 1437.5,-16 1441.5,-20 1441.5,-52"/>
<polyline fill="none" stroke="black" stroke-width="2" points="1437.5,-48 1290.5,-48 "/>
<polyline fill="none" stroke="black" stroke-width="2" points="1437.5,-48 1437.5,-16 "/>
<polyline fill="none" stroke="black" stroke-width="2" points="1437.5,-48 1441.5,-52 "/>
<text text-anchor="middle" x="1366" y="-30.3" font-family="Times,serif" font-size="14.00">Data: UserCache</text>
</g>
<!-- 10&#45;&gt;7 -->
<g id="edge3" class="edge"><title>10&#45;&gt;7</title>
<path fill="none" stroke="black" stroke-width="1.69315" d="M1812.41,-170.996C1712.41,-140.531 1529.38,-84.7721 1431.63,-54.993"/>
<polygon fill="black" stroke="black" stroke-width="1.69315" points="1432.45,-51.585 1421.86,-52.0188 1430.41,-58.2812 1432.45,-51.585"/>
</g>
<!-- 11 -->
<g id="node15" class="node"><title>11</title>
<polygon fill="bisque" stroke="black" stroke-width="2" points="1288.5,-124 1187.5,-124 1187.5,-88 1288.5,-88 1288.5,-124"/>
<text text-anchor="middle" x="1238" y="-102.3" font-family="Times,serif" font-size="14.00">getUser</text>
</g>
<!-- 10&#45;&gt;11 -->
<g id="edge4" class="edge"><title>10&#45;&gt;11</title>
<path fill="none" stroke="black" stroke-width="2.09861" d="M1737.79,-174.063C1698.65,-169.756 1656.25,-165.648 1617,-163 1581.51,-160.606 1330.36,-167.328 1297,-155 1283.38,-149.967 1270.57,-140.4 1260.4,-131.124"/>
<polygon fill="black" stroke="black" stroke-width="2.09861" points="1262.79,-128.572 1253.16,-124.167 1257.94,-133.619 1262.79,-128.572"/>
</g>
<!-- 13 -->
<g id="node16" class="node"><title>13</title>
<polygon fill="bisque" stroke="black" stroke-width="2" points="1299,-211.196 1171,-211.196 1171,-175.196 1299,-175.196 1299,-211.196"/>
<text text-anchor="middle" x="1235" y="-189.496" font-family="Times,serif" font-size="14.00">jsonFileSave</text>
</g>
<!-- 10&#45;&gt;13 -->
<g id="edge5" class="edge"><title>10&#45;&gt;13</title>
<path fill="none" stroke="black" d="M1797.85,-215.448C1744,-228.517 1672.41,-243.74 1608,-250.391 1576.83,-253.61 1356.65,-256.896 1326,-250.391 1302.31,-245.365 1279.26,-230.738 1262.28,-217.535"/>
<polygon fill="black" stroke="black" points="1264.44,-214.777 1254.46,-211.216 1260.04,-220.223 1264.44,-214.777"/>
</g>
<!-- 30 -->
<g id="node17" class="node"><title>30</title>
<polygon fill="bisque" stroke="black" stroke-width="2" points="1442,-211.196 1326,-211.196 1326,-175.196 1442,-175.196 1442,-211.196"/>
<text text-anchor="middle" x="1384" y="-189.496" font-family="Times,serif" font-size="14.00">withCache</text>
</g>
<!-- 10&#45;&gt;30 -->
<g id="edge6" class="edge"><title>10&#45;&gt;30</title>
<path fill="none" stroke="black" stroke-width="2.09861" d="M1797.85,-215.448C1744,-228.517 1672.41,-243.74 1608,-250.391 1575.95,-253.701 1494.52,-257.08 1463,-250.391 1441.76,-245.883 1421.97,-231.537 1407.51,-218.342"/>
<polygon fill="black" stroke="black" stroke-width="2.09861" points="1409.7,-215.588 1400.06,-211.199 1404.86,-220.643 1409.7,-215.588"/>
</g>
<!-- 9 -->
<g id="node14" class="node"><title>9</title>
<polygon fill="bisque" stroke="black" stroke-width="2" points="1441.5,-124 1306.5,-124 1306.5,-88 1441.5,-88 1441.5,-124"/>
<text text-anchor="middle" x="1374" y="-102.3" font-family="Times,serif" font-size="14.00">defUserCache</text>
</g>
<!-- 14&#45;&gt;9 -->
<g id="edge14" class="edge"><title>14&#45;&gt;9</title>
<path fill="none" stroke="chartreuse" d="M1504.41,-175.16C1478.86,-161.81 1443.15,-143.145 1415.56,-128.721"/>
<polygon fill="chartreuse" stroke="chartreuse" points="1417.02,-125.537 1406.54,-124.006 1413.78,-131.74 1417.02,-125.537"/>
</g>
<!-- 21&#45;&gt;7 -->
<g id="edge17" class="edge"><title>21&#45;&gt;7</title>
<path fill="none" stroke="black" d="M3261,-174.794C3231.95,-170.7 3200.86,-166.51 3172,-163 2809.69,-118.939 2719,-106.75 2355,-80 2021.55,-55.4953 1623.81,-42.2483 1452.01,-37.2993"/>
<polygon fill="black" stroke="black" points="1451.87,-33.7937 1441.77,-37.0063 1451.67,-40.7909 1451.87,-33.7937"/>
</g>
<!-- 22&#45;&gt;31 -->
<g id="edge18" class="edge"><title>22&#45;&gt;31</title>
<path fill="none" stroke="chartreuse" d="M3720.7,-215.46C3677.93,-226.975 3623.96,-240.101 3575,-246.391 3334.43,-277.301 1646.6,-287.951 1153.15,-290.444"/>
<polygon fill="chartreuse" stroke="chartreuse" points="1153.12,-286.944 1143.14,-290.494 1153.15,-293.943 1153.12,-286.944"/>
</g>
<!-- 25&#45;&gt;7 -->
<g id="edge19" class="edge"><title>25&#45;&gt;7</title>
<path fill="none" stroke="black" stroke-width="2.38629" d="M2868.83,-174.7C2840.89,-170.539 2810.87,-166.342 2783,-163 2279.94,-102.672 1673.32,-56.8438 1452.06,-41.0098"/>
<polygon fill="black" stroke="black" stroke-width="2.38629" points="1452.04,-37.4996 1441.82,-40.2785 1451.54,-44.4818 1452.04,-37.4996"/>
</g>
<!-- 26&#45;&gt;32 -->
<g id="edge20" class="edge"><title>26&#45;&gt;32</title>
<path fill="none" stroke="chartreuse" d="M2506.68,-215.411C2466.13,-227.066 2414.74,-240.352 2368,-246.391 2203.48,-267.652 1039.35,-231.857 875,-254.391 864.003,-255.899 852.63,-258.05 841.423,-260.564"/>
<polygon fill="chartreuse" stroke="chartreuse" points="840.568,-257.169 831.631,-262.86 842.166,-263.985 840.568,-257.169"/>
</g>
<!-- 9&#45;&gt;7 -->
<g id="edge2" class="edge"><title>9&#45;&gt;7</title>
<path fill="none" stroke="black" stroke-width="2.60944" d="M1372.02,-87.6966C1371.14,-79.9827 1370.08,-70.7125 1369.1,-62.1124"/>
<polygon fill="black" stroke="black" stroke-width="2.60944" points="1372.57,-61.6422 1367.95,-52.1043 1365.61,-62.4371 1372.57,-61.6422"/>
</g>
<!-- 11&#45;&gt;7 -->
<g id="edge7" class="edge"><title>11&#45;&gt;7</title>
<path fill="none" stroke="black" d="M1269.31,-87.8761C1286.2,-78.6388 1307.25,-67.1308 1325.38,-57.2116"/>
<polygon fill="black" stroke="black" points="1327.47,-60.0587 1334.57,-52.1898 1324.11,-53.9171 1327.47,-60.0587"/>
</g>
<!-- 13&#45;&gt;1 -->
<g id="edge9" class="edge"><title>13&#45;&gt;1</title>
<path fill="none" stroke="black" stroke-width="1.69315" d="M1215.58,-211.42C1200.3,-223.772 1177.84,-239.415 1155,-246.391 1126.36,-255.14 645.8,-251.418 616,-254.391 597.207,-256.266 577.526,-258.996 558.178,-262.132"/>
<polygon fill="black" stroke="black" stroke-width="1.69315" points="557.388,-258.715 548.097,-263.807 558.536,-265.621 557.388,-258.715"/>
</g>
<!-- 13&#45;&gt;6 -->
<g id="edge10" class="edge"><title>13&#45;&gt;6</title>
<path fill="none" stroke="black" stroke-width="2.09861" d="M1254.46,-211.216C1271.73,-225.694 1298.44,-244.542 1326,-250.391 1348.06,-255.074 2115.94,-255.074 2138,-250.391 2168.3,-243.961 2199.97,-229.196 2223.72,-216.279"/>
<polygon fill="black" stroke="black" stroke-width="2.09861" points="2225.71,-219.18 2232.74,-211.256 2222.3,-213.065 2225.71,-219.18"/>
</g>
<!-- 13&#45;&gt;7 -->
<g id="edge11" class="edge"><title>13&#45;&gt;7</title>
<path fill="none" stroke="black" stroke-width="3.94444" d="M1197.02,-175.01C1189.39,-169.724 1182.39,-163.105 1178,-155 1162.13,-125.689 1157.35,-106.17 1178,-80 1191.14,-63.347 1237.14,-52.1682 1280.34,-45.1177"/>
<polygon fill="black" stroke="black" stroke-width="3.94444" points="1281.03,-48.552 1290.37,-43.5446 1279.95,-41.6366 1281.03,-48.552"/>
</g>
<!-- 13&#45;&gt;11 -->
<g id="edge12" class="edge"><title>13&#45;&gt;11</title>
<path fill="none" stroke="black" d="M1235.61,-174.955C1236.02,-163.292 1236.57,-147.641 1237.04,-134.299"/>
<polygon fill="black" stroke="black" points="1240.54,-134.332 1237.39,-124.215 1233.54,-134.086 1240.54,-134.332"/>
</g>
<!-- 24 -->
<g id="node18" class="node"><title>24</title>
<polygon fill="cyan" stroke="black" stroke-width="2" points="1142.5,-124 1047.5,-124 1047.5,-88 1142.5,-88 1142.5,-124"/>
<text text-anchor="middle" x="1095" y="-102.3" font-family="Times,serif" font-size="14.00">showT</text>
</g>
<!-- 13&#45;&gt;24 -->
<g id="edge13" class="edge"><title>13&#45;&gt;24</title>
<path fill="none" stroke="black" stroke-width="1.69315" d="M1193.32,-175.101C1180.68,-169.317 1166.98,-162.425 1155,-155 1143.46,-147.845 1131.61,-138.791 1121.52,-130.48"/>
<polygon fill="black" stroke="black" stroke-width="1.69315" points="1123.76,-127.784 1113.85,-124.024 1119.25,-133.14 1123.76,-127.784"/>
</g>
<!-- 30&#45;&gt;6 -->
<g id="edge21" class="edge"><title>30&#45;&gt;6</title>
<path fill="none" stroke="black" d="M1400.06,-211.199C1414.69,-225.887 1437.82,-245.048 1463,-250.391 1481.34,-254.284 2119.66,-254.284 2138,-250.391 2168.3,-243.961 2199.97,-229.196 2223.72,-216.279"/>
<polygon fill="black" stroke="black" points="2225.71,-219.18 2232.74,-211.256 2222.3,-213.065 2225.71,-219.18"/>
</g>
</g>
</svg>
