<?xml version="1.0" encoding="UTF-8" standalone="no"?>
<!DOCTYPE svg PUBLIC "-//W3C//DTD SVG 1.1//EN"
 "http://www.w3.org/Graphics/SVG/1.1/DTD/svg11.dtd">
<!-- Generated by graphviz version 2.38.0 (20140413.2041)
 -->
<!-- Title: Levels within Snap.Snaplet.Session.Common Pages: 1 -->
<svg width="308pt" height="326pt"
 viewBox="0.00 0.00 308.00 326.00" xmlns="http://www.w3.org/2000/svg" xmlns:xlink="http://www.w3.org/1999/xlink">
<g id="graph0" class="graph" transform="scale(1 1) rotate(0) translate(4 322)">
<title>Levels within Snap.Snaplet.Session.Common</title>
<polygon fill="white" stroke="none" points="-4,4 -4,-322 304,-322 304,4 -4,4"/>
<g id="clust1" class="cluster"><title>cluster_0</title>
<polygon fill="lavender" stroke="black" points="8,-91 8,-310 292,-310 292,-91 8,-91"/>
<text text-anchor="middle" x="150" y="-294.8" font-family="Times,serif" font-size="14.00">Exported root entities</text>
</g>
<g id="clust2" class="cluster"><title>cluster_1</title>
<polygon fill="lavender" stroke="black" points="108,-8 108,-83 244,-83 244,-8 108,-8"/>
<text text-anchor="middle" x="176" y="-67.8" font-family="Times,serif" font-size="14.00">Level = 1</text>
</g>
<!-- 2 -->
<g id="node1" class="node"><title>2</title>
<polygon fill="gold" stroke="black" stroke-width="2" points="160,-279 16,-279 16,-243 160,-243 160,-279"/>
<text text-anchor="middle" x="88" y="-257.3" font-family="Times,serif" font-size="14.00">mkCSRFToken</text>
</g>
<!-- 4 -->
<g id="node3" class="node"><title>4</title>
<polygon fill="goldenrod" stroke="black" stroke-width="2" points="167.5,-207 32.5,-207 32.5,-171 167.5,-171 167.5,-207"/>
<text text-anchor="middle" x="100" y="-185.3" font-family="Times,serif" font-size="14.00">randomToken</text>
</g>
<!-- 2&#45;&gt;4 -->
<g id="edge1" class="edge"><title>2&#45;&gt;4</title>
<path fill="none" stroke="chartreuse" d="M90.9663,-242.697C92.2887,-234.983 93.8779,-225.712 95.3522,-217.112"/>
<polygon fill="chartreuse" stroke="chartreuse" points="98.8278,-217.552 97.0678,-207.104 91.9284,-216.369 98.8278,-217.552"/>
</g>
<!-- 3 -->
<g id="node2" class="node"><title>3</title>
<polygon fill="gold" stroke="black" stroke-width="2" points="283.5,-279 178.5,-279 178.5,-243 283.5,-243 283.5,-279"/>
<text text-anchor="middle" x="231" y="-257.3" font-family="Times,serif" font-size="14.00">mkRNG</text>
</g>
<!-- 1 -->
<g id="node5" class="node"><title>1</title>
<polygon fill="cyan" stroke="black" stroke-width="2" points="236,-52 120,-52 116,-48 116,-16 232,-16 236,-20 236,-52"/>
<polyline fill="none" stroke="black" stroke-width="2" points="232,-48 116,-48 "/>
<polyline fill="none" stroke="black" stroke-width="2" points="232,-48 232,-16 "/>
<polyline fill="none" stroke="black" stroke-width="2" points="232,-48 236,-52 "/>
<text text-anchor="middle" x="176" y="-30.3" font-family="Times,serif" font-size="14.00">Data: RNG</text>
</g>
<!-- 3&#45;&gt;1 -->
<g id="edge2" class="edge"><title>3&#45;&gt;1</title>
<path fill="none" stroke="black" d="M226.776,-242.718C217.234,-203.686 193.962,-108.481 182.541,-61.7568"/>
<polygon fill="black" stroke="black" points="185.938,-60.9155 180.164,-52.0327 179.138,-62.5778 185.938,-60.9155"/>
</g>
<!-- 5 -->
<g id="node4" class="node"><title>5</title>
<polygon fill="goldenrod" stroke="black" stroke-width="2" points="172.5,-135 61.5,-135 61.5,-99 172.5,-99 172.5,-135"/>
<text text-anchor="middle" x="117" y="-113.3" font-family="Times,serif" font-size="14.00">withRNG</text>
</g>
<!-- 4&#45;&gt;5 -->
<g id="edge3" class="edge"><title>4&#45;&gt;5</title>
<path fill="none" stroke="chartreuse" d="M104.202,-170.697C106.096,-162.898 108.377,-153.509 110.484,-144.829"/>
<polygon fill="chartreuse" stroke="chartreuse" points="113.887,-145.648 112.846,-135.104 107.085,-143.996 113.887,-145.648"/>
</g>
<!-- 5&#45;&gt;1 -->
<g id="edge4" class="edge"><title>5&#45;&gt;1</title>
<path fill="none" stroke="black" d="M129.512,-98.822C137.648,-87.6534 148.397,-72.8953 157.51,-60.3841"/>
<polygon fill="black" stroke="black" points="160.447,-62.297 163.506,-52.1533 154.789,-58.1756 160.447,-62.297"/>
</g>
</g>
</svg>
