<?xml version="1.0" encoding="UTF-8" standalone="no"?>
<!DOCTYPE svg PUBLIC "-//W3C//DTD SVG 1.1//EN"
 "http://www.w3.org/Graphics/SVG/1.1/DTD/svg11.dtd">
<!-- Generated by graphviz version 2.38.0 (20140413.2041)
 -->
<!-- Title: Diagram of: Snap.Snaplet.Internal.RST Pages: 1 -->
<svg width="5813pt" height="597pt"
 viewBox="0.00 0.00 5813.00 597.49" xmlns="http://www.w3.org/2000/svg" xmlns:xlink="http://www.w3.org/1999/xlink">
<g id="graph0" class="graph" transform="scale(1 1) rotate(0) translate(4 593.487)">
<title>Diagram of: Snap.Snaplet.Internal.RST</title>
<polygon fill="white" stroke="none" points="-4,4 -4,-593.487 5809,-593.487 5809,4 -4,4"/>
<g id="clust1" class="cluster"><title>cluster_Class_Alternative</title>
<path fill="#ffc1c1" stroke="black" d="M20,-198.833C20,-198.833 530,-198.833 530,-198.833 536,-198.833 542,-204.833 542,-210.833 542,-210.833 542,-431.576 542,-431.576 542,-437.576 536,-443.576 530,-443.576 530,-443.576 20,-443.576 20,-443.576 14,-443.576 8,-437.576 8,-431.576 8,-431.576 8,-210.833 8,-210.833 8,-204.833 14,-198.833 20,-198.833"/>
<text text-anchor="middle" x="275" y="-428.376" font-family="Times,serif" font-size="14.00">Class: Alternative</text>
</g>
<g id="clust2" class="cluster"><title>cluster_Class_Alternative_Data_RSTrsm</title>
<path fill="#c6e2ff" stroke="black" d="M221,-206.833C221,-206.833 493,-206.833 493,-206.833 499,-206.833 505,-212.833 505,-218.833 505,-218.833 505,-278.224 505,-278.224 505,-284.224 499,-290.224 493,-290.224 493,-290.224 221,-290.224 221,-290.224 215,-290.224 209,-284.224 209,-278.224 209,-278.224 209,-218.833 209,-218.833 209,-212.833 215,-206.833 221,-206.833"/>
<text text-anchor="middle" x="357" y="-275.024" font-family="Times,serif" font-size="14.00">Instance for: (RST r s m)</text>
</g>
<g id="clust3" class="cluster"><title>cluster_Class_Applicative</title>
<path fill="#ffc1c1" stroke="black" d="M4727,-198.833C4727,-198.833 5237,-198.833 5237,-198.833 5243,-198.833 5249,-204.833 5249,-210.833 5249,-210.833 5249,-431.576 5249,-431.576 5249,-437.576 5243,-443.576 5237,-443.576 5237,-443.576 4727,-443.576 4727,-443.576 4721,-443.576 4715,-437.576 4715,-431.576 4715,-431.576 4715,-210.833 4715,-210.833 4715,-204.833 4721,-198.833 4727,-198.833"/>
<text text-anchor="middle" x="4982" y="-428.376" font-family="Times,serif" font-size="14.00">Class: Applicative</text>
</g>
<g id="clust4" class="cluster"><title>cluster_Class_Applicative_Data_RSTrsm</title>
<path fill="#c6e2ff" stroke="black" d="M4788,-206.833C4788,-206.833 5051,-206.833 5051,-206.833 5057,-206.833 5063,-212.833 5063,-218.833 5063,-218.833 5063,-278.224 5063,-278.224 5063,-284.224 5057,-290.224 5051,-290.224 5051,-290.224 4788,-290.224 4788,-290.224 4782,-290.224 4776,-284.224 4776,-278.224 4776,-278.224 4776,-218.833 4776,-218.833 4776,-212.833 4782,-206.833 4788,-206.833"/>
<text text-anchor="middle" x="4919.5" y="-275.024" font-family="Times,serif" font-size="14.00">Instance for: (RST r s m)</text>
</g>
<g id="clust5" class="cluster"><title>cluster_Class_Functor</title>
<path fill="#ffc1c1" stroke="black" d="M1174,-80C1174,-80 1416,-80 1416,-80 1422,-80 1428,-86 1428,-92 1428,-92 1428,-309.224 1428,-309.224 1428,-315.224 1422,-321.224 1416,-321.224 1416,-321.224 1174,-321.224 1174,-321.224 1168,-321.224 1162,-315.224 1162,-309.224 1162,-309.224 1162,-92 1162,-92 1162,-86 1168,-80 1174,-80"/>
<text text-anchor="middle" x="1295" y="-306.024" font-family="Times,serif" font-size="14.00">Class: Functor</text>
</g>
<g id="clust6" class="cluster"><title>cluster_Class_Functor_Data_RSTrsm</title>
<path fill="#c6e2ff" stroke="black" d="M1277,-206.833C1277,-206.833 1408,-206.833 1408,-206.833 1414,-206.833 1420,-212.833 1420,-218.833 1420,-218.833 1420,-278.224 1420,-278.224 1420,-284.224 1414,-290.224 1408,-290.224 1408,-290.224 1277,-290.224 1277,-290.224 1271,-290.224 1265,-284.224 1265,-278.224 1265,-278.224 1265,-218.833 1265,-218.833 1265,-212.833 1271,-206.833 1277,-206.833"/>
<text text-anchor="middle" x="1342.5" y="-275.024" font-family="Times,serif" font-size="14.00">Instance for: (RST r s m)</text>
</g>
<g id="clust7" class="cluster"><title>cluster_Class_Monad</title>
<path fill="#ffc1c1" stroke="black" d="M3369,-80C3369,-80 3879,-80 3879,-80 3885,-80 3891,-86 3891,-92 3891,-92 3891,-431.576 3891,-431.576 3891,-437.576 3885,-443.576 3879,-443.576 3879,-443.576 3369,-443.576 3369,-443.576 3363,-443.576 3357,-437.576 3357,-431.576 3357,-431.576 3357,-92 3357,-92 3357,-86 3363,-80 3369,-80"/>
<text text-anchor="middle" x="3624" y="-428.376" font-family="Times,serif" font-size="14.00">Class: Monad</text>
</g>
<g id="clust8" class="cluster"><title>cluster_Class_Monad_Data_RSTrsm</title>
<path fill="#c6e2ff" stroke="black" d="M3377,-206.833C3377,-206.833 3790,-206.833 3790,-206.833 3796,-206.833 3802,-212.833 3802,-218.833 3802,-218.833 3802,-278.224 3802,-278.224 3802,-284.224 3796,-290.224 3790,-290.224 3790,-290.224 3377,-290.224 3377,-290.224 3371,-290.224 3365,-284.224 3365,-278.224 3365,-278.224 3365,-218.833 3365,-218.833 3365,-212.833 3371,-206.833 3377,-206.833"/>
<text text-anchor="middle" x="3583.5" y="-275.024" font-family="Times,serif" font-size="14.00">Instance for: (RST r s m)</text>
</g>
<g id="clust9" class="cluster"><title>cluster_Class_MonadCatchIO</title>
<path fill="#ffc1c1" stroke="black" d="M1990,-191.352C1990,-191.352 2768,-191.352 2768,-191.352 2774,-191.352 2780,-197.352 2780,-203.352 2780,-203.352 2780,-447.096 2780,-447.096 2780,-453.096 2774,-459.096 2768,-459.096 2768,-459.096 1990,-459.096 1990,-459.096 1984,-459.096 1978,-453.096 1978,-447.096 1978,-447.096 1978,-203.352 1978,-203.352 1978,-197.352 1984,-191.352 1990,-191.352"/>
<text text-anchor="middle" x="2379" y="-443.896" font-family="Times,serif" font-size="14.00">Class: MonadCatchIO</text>
</g>
<g id="clust10" class="cluster"><title>cluster_Class_MonadCatchIO_Data_RSTrsm</title>
<path fill="#c6e2ff" stroke="black" d="M2306,-344.705C2306,-344.705 2760,-344.705 2760,-344.705 2766,-344.705 2772,-350.705 2772,-356.705 2772,-356.705 2772,-416.096 2772,-416.096 2772,-422.096 2766,-428.096 2760,-428.096 2760,-428.096 2306,-428.096 2306,-428.096 2300,-428.096 2294,-422.096 2294,-416.096 2294,-416.096 2294,-356.705 2294,-356.705 2294,-350.705 2300,-344.705 2306,-344.705"/>
<text text-anchor="middle" x="2533" y="-412.896" font-family="Times,serif" font-size="14.00">Instance for: (RST r s m)</text>
</g>
<g id="clust11" class="cluster"><title>cluster_Class_MonadIO</title>
<path fill="#ffc1c1" stroke="black" d="M5269,-329.224C5269,-329.224 5511,-329.224 5511,-329.224 5517,-329.224 5523,-335.224 5523,-341.224 5523,-341.224 5523,-569.487 5523,-569.487 5523,-575.487 5517,-581.487 5511,-581.487 5511,-581.487 5269,-581.487 5269,-581.487 5263,-581.487 5257,-575.487 5257,-569.487 5257,-569.487 5257,-341.224 5257,-341.224 5257,-335.224 5263,-329.224 5269,-329.224"/>
<text text-anchor="middle" x="5390" y="-566.287" font-family="Times,serif" font-size="14.00">Class: MonadIO</text>
</g>
<g id="clust12" class="cluster"><title>cluster_Class_MonadIO_Data_RSTrsm</title>
<path fill="#c6e2ff" stroke="black" d="M5301,-467.096C5301,-467.096 5432,-467.096 5432,-467.096 5438,-467.096 5444,-473.096 5444,-479.096 5444,-479.096 5444,-538.487 5444,-538.487 5444,-544.487 5438,-550.487 5432,-550.487 5432,-550.487 5301,-550.487 5301,-550.487 5295,-550.487 5289,-544.487 5289,-538.487 5289,-538.487 5289,-479.096 5289,-479.096 5289,-473.096 5295,-467.096 5301,-467.096"/>
<text text-anchor="middle" x="5366.5" y="-535.287" font-family="Times,serif" font-size="14.00">Instance for: (RST r s m)</text>
</g>
<g id="clust13" class="cluster"><title>cluster_Class_MonadPlus</title>
<path fill="#ffc1c1" stroke="black" d="M562,-80C562,-80 1072,-80 1072,-80 1078,-80 1084,-86 1084,-92 1084,-92 1084,-309.224 1084,-309.224 1084,-315.224 1078,-321.224 1072,-321.224 1072,-321.224 562,-321.224 562,-321.224 556,-321.224 550,-315.224 550,-309.224 550,-309.224 550,-92 550,-92 550,-86 556,-80 562,-80"/>
<text text-anchor="middle" x="817" y="-306.024" font-family="Times,serif" font-size="14.00">Class: MonadPlus</text>
</g>
<g id="clust14" class="cluster"><title>cluster_Class_MonadPlus_Data_RSTrsm</title>
<path fill="#c6e2ff" stroke="black" d="M771,-206.833C771,-206.833 1064,-206.833 1064,-206.833 1070,-206.833 1076,-212.833 1076,-218.833 1076,-218.833 1076,-278.224 1076,-278.224 1076,-284.224 1070,-290.224 1064,-290.224 1064,-290.224 771,-290.224 771,-290.224 765,-290.224 759,-284.224 759,-278.224 759,-278.224 759,-218.833 759,-218.833 759,-212.833 765,-206.833 771,-206.833"/>
<text text-anchor="middle" x="917.5" y="-275.024" font-family="Times,serif" font-size="14.00">Instance for: (RST r s m)</text>
</g>
<g id="clust15" class="cluster"><title>cluster_Class_MonadReader</title>
<path fill="#ffc1c1" stroke="black" d="M1448,-198.833C1448,-198.833 1958,-198.833 1958,-198.833 1964,-198.833 1970,-204.833 1970,-210.833 1970,-210.833 1970,-431.576 1970,-431.576 1970,-437.576 1964,-443.576 1958,-443.576 1958,-443.576 1448,-443.576 1448,-443.576 1442,-443.576 1436,-437.576 1436,-431.576 1436,-431.576 1436,-210.833 1436,-210.833 1436,-204.833 1442,-198.833 1448,-198.833"/>
<text text-anchor="middle" x="1703" y="-428.376" font-family="Times,serif" font-size="14.00">Class: MonadReader</text>
</g>
<g id="clust16" class="cluster"><title>cluster_Class_MonadReader_Data_rRSTrsm</title>
<path fill="#c6e2ff" stroke="black" d="M1692,-206.833C1692,-206.833 1950,-206.833 1950,-206.833 1956,-206.833 1962,-212.833 1962,-218.833 1962,-218.833 1962,-278.224 1962,-278.224 1962,-284.224 1956,-290.224 1950,-290.224 1950,-290.224 1692,-290.224 1692,-290.224 1686,-290.224 1680,-284.224 1680,-278.224 1680,-278.224 1680,-218.833 1680,-218.833 1680,-212.833 1686,-206.833 1692,-206.833"/>
<text text-anchor="middle" x="1821" y="-275.024" font-family="Times,serif" font-size="14.00">Instance for: r (RST r s m)</text>
</g>
<g id="clust17" class="cluster"><title>cluster_Class_MonadSnap</title>
<path fill="#ffc1c1" stroke="black" d="M5543,-329.224C5543,-329.224 5785,-329.224 5785,-329.224 5791,-329.224 5797,-335.224 5797,-341.224 5797,-341.224 5797,-569.487 5797,-569.487 5797,-575.487 5791,-581.487 5785,-581.487 5785,-581.487 5543,-581.487 5543,-581.487 5537,-581.487 5531,-575.487 5531,-569.487 5531,-569.487 5531,-341.224 5531,-341.224 5531,-335.224 5537,-329.224 5543,-329.224"/>
<text text-anchor="middle" x="5664" y="-566.287" font-family="Times,serif" font-size="14.00">Class: MonadSnap</text>
</g>
<g id="clust18" class="cluster"><title>cluster_Class_MonadSnap_Data_RSTrsm</title>
<path fill="#c6e2ff" stroke="black" d="M5571,-467.096C5571,-467.096 5717,-467.096 5717,-467.096 5723,-467.096 5729,-473.096 5729,-479.096 5729,-479.096 5729,-538.487 5729,-538.487 5729,-544.487 5723,-550.487 5717,-550.487 5717,-550.487 5571,-550.487 5571,-550.487 5565,-550.487 5559,-544.487 5559,-538.487 5559,-538.487 5559,-479.096 5559,-479.096 5559,-473.096 5565,-467.096 5571,-467.096"/>
<text text-anchor="middle" x="5644" y="-535.287" font-family="Times,serif" font-size="14.00">Instance for: (RST r s m)</text>
</g>
<g id="clust19" class="cluster"><title>cluster_Class_MonadState</title>
<path fill="#ffc1c1" stroke="black" d="M3911,-198.833C3911,-198.833 4421,-198.833 4421,-198.833 4427,-198.833 4433,-204.833 4433,-210.833 4433,-210.833 4433,-431.576 4433,-431.576 4433,-437.576 4427,-443.576 4421,-443.576 4421,-443.576 3911,-443.576 3911,-443.576 3905,-443.576 3899,-437.576 3899,-431.576 3899,-431.576 3899,-210.833 3899,-210.833 3899,-204.833 3905,-198.833 3911,-198.833"/>
<text text-anchor="middle" x="4166" y="-428.376" font-family="Times,serif" font-size="14.00">Class: MonadState</text>
</g>
<g id="clust20" class="cluster"><title>cluster_Class_MonadState_Data_sRSTrsm</title>
<path fill="#c6e2ff" stroke="black" d="M3919,-206.833C3919,-206.833 4160,-206.833 4160,-206.833 4166,-206.833 4172,-212.833 4172,-218.833 4172,-218.833 4172,-278.224 4172,-278.224 4172,-284.224 4166,-290.224 4160,-290.224 4160,-290.224 3919,-290.224 3919,-290.224 3913,-290.224 3907,-284.224 3907,-278.224 3907,-278.224 3907,-218.833 3907,-218.833 3907,-212.833 3913,-206.833 3919,-206.833"/>
<text text-anchor="middle" x="4039.5" y="-275.024" font-family="Times,serif" font-size="14.00">Instance for: s (RST r s m)</text>
</g>
<g id="clust21" class="cluster"><title>cluster_Class_MonadTrans</title>
<path fill="#ffc1c1" stroke="black" d="M4453,-198.833C4453,-198.833 4695,-198.833 4695,-198.833 4701,-198.833 4707,-204.833 4707,-210.833 4707,-210.833 4707,-431.576 4707,-431.576 4707,-437.576 4701,-443.576 4695,-443.576 4695,-443.576 4453,-443.576 4453,-443.576 4447,-443.576 4441,-437.576 4441,-431.576 4441,-431.576 4441,-210.833 4441,-210.833 4441,-204.833 4447,-198.833 4453,-198.833"/>
<text text-anchor="middle" x="4574" y="-428.376" font-family="Times,serif" font-size="14.00">Class: MonadTrans</text>
</g>
<g id="clust22" class="cluster"><title>cluster_Class_MonadTrans_Data_RSTrs</title>
<path fill="#c6e2ff" stroke="black" d="M4461,-206.833C4461,-206.833 4577,-206.833 4577,-206.833 4583,-206.833 4589,-212.833 4589,-218.833 4589,-218.833 4589,-278.224 4589,-278.224 4589,-284.224 4583,-290.224 4577,-290.224 4577,-290.224 4461,-290.224 4461,-290.224 4455,-290.224 4449,-284.224 4449,-278.224 4449,-278.224 4449,-218.833 4449,-218.833 4449,-212.833 4455,-206.833 4461,-206.833"/>
<text text-anchor="middle" x="4519" y="-275.024" font-family="Times,serif" font-size="14.00">Instance for: (RST r s)</text>
</g>
<g id="clust23" class="cluster"><title>cluster_Data_RST</title>
<path fill="papayawhip" stroke="black" d="M2843,-8C2843,-8 2937,-8 2937,-8 2943,-8 2949,-14 2949,-20 2949,-20 2949,-162.676 2949,-162.676 2949,-168.676 2943,-174.676 2937,-174.676 2937,-174.676 2843,-174.676 2843,-174.676 2837,-174.676 2831,-168.676 2831,-162.676 2831,-162.676 2831,-20 2831,-20 2831,-14 2837,-8 2843,-8"/>
<text text-anchor="middle" x="2890" y="-159.476" font-family="Times,serif" font-size="14.00">Data: RST</text>
</g>
<!-- 2 -->
<g id="node1" class="node"><title>2</title>
<polygon fill="bisque" stroke="black" stroke-width="2" points="496.898,-227.753 496.898,-246.304 461.811,-259.421 412.189,-259.421 377.102,-246.304 377.102,-227.753 412.189,-214.635 461.811,-214.635 496.898,-227.753"/>
<text text-anchor="middle" x="437" y="-233.328" font-family="Times,serif" font-size="14.00">&lt;|&gt;</text>
</g>
<!-- 42 -->
<g id="node27" class="node"><title>42</title>
<polygon fill="khaki" stroke="black" stroke-dasharray="1,5" points="1071.86,-111.662 1071.86,-139.691 1001.06,-159.51 900.939,-159.51 830.142,-139.691 830.142,-111.662 900.939,-91.8418 1001.06,-91.8418 1071.86,-111.662"/>
<polygon fill="none" stroke="black" stroke-dasharray="1,5" points="1075.86,-108.609 1075.86,-142.743 1001.61,-163.529 900.393,-163.529 826.144,-142.743 826.144,-108.609 900.393,-87.823 1001.61,-87.823 1075.86,-108.609"/>
<text text-anchor="middle" x="951" y="-129.476" font-family="Times,serif" font-size="14.00">Unknown Module</text>
<text text-anchor="middle" x="951" y="-114.476" font-family="Times,serif" font-size="14.00">mplus</text>
</g>
<!-- 2&#45;&gt;42 -->
<g id="edge1" class="edge"><title>2&#45;&gt;42</title>
<path fill="none" stroke="black" d="M496.937,-229.804C572.414,-221.181 705.689,-203.338 817,-174.676 832.854,-170.594 849.477,-165.41 865.408,-159.968"/>
<polygon fill="black" stroke="black" points="866.93,-163.144 875.226,-156.553 864.631,-156.532 866.93,-163.144"/>
</g>
<!-- 8 -->
<g id="node2" class="node"><title>8</title>
<polygon fill="bisque" stroke="black" stroke-width="2" points="359.359,-227.753 359.359,-246.304 317.558,-259.421 258.442,-259.421 216.641,-246.304 216.641,-227.753 258.442,-214.635 317.558,-214.635 359.359,-227.753"/>
<text text-anchor="middle" x="288" y="-233.328" font-family="Times,serif" font-size="14.00">empty</text>
</g>
<!-- 43 -->
<g id="node28" class="node"><title>43</title>
<polygon fill="khaki" stroke="black" stroke-dasharray="1,5" points="803.858,-111.662 803.858,-139.691 733.061,-159.51 632.939,-159.51 562.142,-139.691 562.142,-111.662 632.939,-91.8418 733.061,-91.8418 803.858,-111.662"/>
<polygon fill="none" stroke="black" stroke-dasharray="1,5" points="807.856,-108.609 807.856,-142.743 733.607,-163.529 632.393,-163.529 558.144,-142.743 558.144,-108.609 632.393,-87.823 733.607,-87.823 807.856,-108.609"/>
<text text-anchor="middle" x="683" y="-129.476" font-family="Times,serif" font-size="14.00">Unknown Module</text>
<text text-anchor="middle" x="683" y="-114.476" font-family="Times,serif" font-size="14.00">mzero</text>
</g>
<!-- 8&#45;&gt;43 -->
<g id="edge10" class="edge"><title>8&#45;&gt;43</title>
<path fill="none" stroke="black" d="M319.992,-215.188C334.21,-206.721 351.449,-197.505 368,-191.352 425.634,-169.927 491.981,-154.966 548.877,-144.873"/>
<polygon fill="black" stroke="black" points="549.767,-148.271 559.019,-143.107 548.567,-141.375 549.767,-148.271"/>
</g>
<!-- 29 -->
<g id="node3" class="node"><title>29</title>
<polygon fill="khaki" stroke="black" stroke-dasharray="1,5" points="529.858,-360.886 529.858,-388.915 459.061,-408.735 358.939,-408.735 288.142,-388.915 288.142,-360.886 358.939,-341.066 459.061,-341.066 529.858,-360.886"/>
<polygon fill="none" stroke="black" stroke-dasharray="1,5" points="533.856,-357.833 533.856,-391.967 459.607,-412.753 358.393,-412.753 284.144,-391.967 284.144,-357.833 358.393,-337.047 459.607,-337.047 533.856,-357.833"/>
<text text-anchor="middle" x="409" y="-378.7" font-family="Times,serif" font-size="14.00">Unknown Module</text>
<text text-anchor="middle" x="409" y="-363.7" font-family="Times,serif" font-size="14.00">&lt;|&gt;</text>
</g>
<!-- 29&#45;&gt;2 -->
<g id="edge50" class="edge"><title>29&#45;&gt;2</title>
<path fill="none" stroke="navy" d="M416.577,-337.131C421.695,-312.296 428.275,-280.367 432.563,-259.56"/>
</g>
<!-- 34 -->
<g id="node4" class="node"><title>34</title>
<polygon fill="khaki" stroke="black" stroke-dasharray="1,5" points="261.858,-360.886 261.858,-388.915 191.061,-408.735 90.9389,-408.735 20.1417,-388.915 20.1417,-360.886 90.9389,-341.066 191.061,-341.066 261.858,-360.886"/>
<polygon fill="none" stroke="black" stroke-dasharray="1,5" points="265.856,-357.833 265.856,-391.967 191.607,-412.753 90.3926,-412.753 16.144,-391.967 16.144,-357.833 90.3926,-337.047 191.607,-337.047 265.856,-357.833"/>
<text text-anchor="middle" x="141" y="-378.7" font-family="Times,serif" font-size="14.00">Unknown Module</text>
<text text-anchor="middle" x="141" y="-363.7" font-family="Times,serif" font-size="14.00">empty</text>
</g>
<!-- 34&#45;&gt;8 -->
<g id="edge55" class="edge"><title>34&#45;&gt;8</title>
<path fill="none" stroke="navy" d="M180.78,-337.131C207.649,-312.296 242.194,-280.367 264.705,-259.56"/>
</g>
<!-- 1 -->
<g id="node5" class="node"><title>1</title>
<polygon fill="cyan" stroke="black" stroke-width="2" points="5054.52,-227.753 5054.52,-246.304 5017.9,-259.421 4966.1,-259.421 4929.48,-246.304 4929.48,-227.753 4966.1,-214.635 5017.9,-214.635 5054.52,-227.753"/>
<text text-anchor="middle" x="4992" y="-233.328" font-family="Times,serif" font-size="14.00">&lt;*&gt;</text>
</g>
<!-- 21 -->
<g id="node6" class="node"><title>21</title>
<polygon fill="bisque" stroke="black" stroke-width="2" points="4911.55,-227.753 4911.55,-246.304 4874.32,-259.421 4821.68,-259.421 4784.45,-246.304 4784.45,-227.753 4821.68,-214.635 4874.32,-214.635 4911.55,-227.753"/>
<text text-anchor="middle" x="4848" y="-233.328" font-family="Times,serif" font-size="14.00">pure</text>
</g>
<!-- 46 -->
<g id="node16" class="node"><title>46</title>
<polygon fill="khaki" stroke="black" stroke-dasharray="1,5" points="3878.86,-111.662 3878.86,-139.691 3808.06,-159.51 3707.94,-159.51 3637.14,-139.691 3637.14,-111.662 3707.94,-91.8418 3808.06,-91.8418 3878.86,-111.662"/>
<polygon fill="none" stroke="black" stroke-dasharray="1,5" points="3882.86,-108.609 3882.86,-142.743 3808.61,-163.529 3707.39,-163.529 3633.14,-142.743 3633.14,-108.609 3707.39,-87.823 3808.61,-87.823 3882.86,-108.609"/>
<text text-anchor="middle" x="3758" y="-129.476" font-family="Times,serif" font-size="14.00">Unknown Module</text>
<text text-anchor="middle" x="3758" y="-114.476" font-family="Times,serif" font-size="14.00">return</text>
</g>
<!-- 21&#45;&gt;46 -->
<g id="edge37" class="edge"><title>21&#45;&gt;46</title>
<path fill="none" stroke="black" d="M4792.52,-224.721C4741.02,-214.604 4662.12,-200.063 4593,-191.352 4347.14,-160.366 4058.55,-141.972 3893.1,-133.137"/>
<polygon fill="black" stroke="black" points="3893.04,-129.63 3882.87,-132.595 3892.67,-136.62 3893.04,-129.63"/>
</g>
<!-- 28 -->
<g id="node7" class="node"><title>28</title>
<polygon fill="khaki" stroke="black" stroke-dasharray="1,5" points="5236.86,-360.886 5236.86,-388.915 5166.06,-408.735 5065.94,-408.735 4995.14,-388.915 4995.14,-360.886 5065.94,-341.066 5166.06,-341.066 5236.86,-360.886"/>
<polygon fill="none" stroke="black" stroke-dasharray="1,5" points="5240.86,-357.833 5240.86,-391.967 5166.61,-412.753 5065.39,-412.753 4991.14,-391.967 4991.14,-357.833 5065.39,-337.047 5166.61,-337.047 5240.86,-357.833"/>
<text text-anchor="middle" x="5116" y="-378.7" font-family="Times,serif" font-size="14.00">Unknown Module</text>
<text text-anchor="middle" x="5116" y="-363.7" font-family="Times,serif" font-size="14.00">&lt;*&gt;</text>
</g>
<!-- 28&#45;&gt;1 -->
<g id="edge49" class="edge"><title>28&#45;&gt;1</title>
<path fill="none" stroke="navy" d="M5082.44,-337.131C5059.78,-312.296 5030.64,-280.367 5011.65,-259.56"/>
</g>
<!-- 44 -->
<g id="node8" class="node"><title>44</title>
<polygon fill="khaki" stroke="black" stroke-dasharray="1,5" points="4968.86,-360.886 4968.86,-388.915 4898.06,-408.735 4797.94,-408.735 4727.14,-388.915 4727.14,-360.886 4797.94,-341.066 4898.06,-341.066 4968.86,-360.886"/>
<polygon fill="none" stroke="black" stroke-dasharray="1,5" points="4972.86,-357.833 4972.86,-391.967 4898.61,-412.753 4797.39,-412.753 4723.14,-391.967 4723.14,-357.833 4797.39,-337.047 4898.61,-337.047 4972.86,-357.833"/>
<text text-anchor="middle" x="4848" y="-378.7" font-family="Times,serif" font-size="14.00">Unknown Module</text>
<text text-anchor="middle" x="4848" y="-363.7" font-family="Times,serif" font-size="14.00">pure</text>
</g>
<!-- 44&#45;&gt;21 -->
<g id="edge65" class="edge"><title>44&#45;&gt;21</title>
<path fill="none" stroke="navy" d="M4848,-337.131C4848,-312.296 4848,-280.367 4848,-259.56"/>
</g>
<!-- 12 -->
<g id="node9" class="node"><title>12</title>
<polygon fill="bisque" stroke="black" stroke-width="2" points="1411.67,-227.753 1411.67,-246.304 1372.62,-259.421 1317.38,-259.421 1278.33,-246.304 1278.33,-227.753 1317.38,-214.635 1372.62,-214.635 1411.67,-227.753"/>
<text text-anchor="middle" x="1345" y="-233.328" font-family="Times,serif" font-size="14.00">fmap</text>
</g>
<!-- 36 -->
<g id="node10" class="node"><title>36</title>
<polygon fill="khaki" stroke="black" stroke-dasharray="1,5" points="1415.86,-111.662 1415.86,-139.691 1345.06,-159.51 1244.94,-159.51 1174.14,-139.691 1174.14,-111.662 1244.94,-91.8418 1345.06,-91.8418 1415.86,-111.662"/>
<polygon fill="none" stroke="black" stroke-dasharray="1,5" points="1419.86,-108.609 1419.86,-142.743 1345.61,-163.529 1244.39,-163.529 1170.14,-142.743 1170.14,-108.609 1244.39,-87.823 1345.61,-87.823 1419.86,-108.609"/>
<text text-anchor="middle" x="1295" y="-129.476" font-family="Times,serif" font-size="14.00">Unknown Module</text>
<text text-anchor="middle" x="1295" y="-114.476" font-family="Times,serif" font-size="14.00">fmap</text>
</g>
<!-- 12&#45;&gt;36 -->
<g id="edge19" class="edge"><title>12&#45;&gt;36</title>
<path fill="none" stroke="black" d="M1329.76,-214.685C1323.26,-202.754 1315.84,-187.399 1309.44,-172.864"/>
<polygon fill="black" stroke="black" points="1312.57,-171.281 1305.41,-163.475 1306.14,-174.045 1312.57,-171.281"/>
</g>
<!-- 4 -->
<g id="node41" class="node"><title>4</title>
<polygon fill="goldenrod" stroke="black" stroke-width="2" points="2940.5,-52 2861.5,-52 2857.5,-48 2857.5,-16 2936.5,-16 2940.5,-20 2940.5,-52"/>
<polyline fill="none" stroke="black" stroke-width="2" points="2936.5,-48 2857.5,-48 "/>
<polyline fill="none" stroke="black" stroke-width="2" points="2936.5,-48 2936.5,-16 "/>
<polyline fill="none" stroke="black" stroke-width="2" points="2936.5,-48 2940.5,-52 "/>
<text text-anchor="middle" x="2899" y="-30.3" font-family="Times,serif" font-size="14.00">RST</text>
</g>
<!-- 12&#45;&gt;4 -->
<g id="edge17" class="edge"><title>12&#45;&gt;4</title>
<path fill="none" stroke="black" d="M1386.66,-219.127C1471.93,-185.446 1673.23,-110.575 1850,-80 2044.92,-46.2864 2663.32,-37.3932 2847.04,-35.467"/>
<polygon fill="black" stroke="black" points="2847.28,-38.9649 2857.24,-35.3626 2847.21,-31.9652 2847.28,-38.9649"/>
</g>
<!-- 24 -->
<g id="node42" class="node"><title>24</title>
<polygon fill="goldenrod" stroke="black" stroke-width="2" points="2940.5,-143.676 2839.5,-143.676 2839.5,-139.676 2835.5,-139.676 2835.5,-135.676 2839.5,-135.676 2839.5,-115.676 2835.5,-115.676 2835.5,-111.676 2839.5,-111.676 2839.5,-107.676 2940.5,-107.676 2940.5,-143.676"/>
<polyline fill="none" stroke="black" stroke-width="2" points="2839.5,-139.676 2843.5,-139.676 2843.5,-135.676 2839.5,-135.676 "/>
<polyline fill="none" stroke="black" stroke-width="2" points="2839.5,-115.676 2843.5,-115.676 2843.5,-111.676 2839.5,-111.676 "/>
<text text-anchor="middle" x="2890" y="-121.976" font-family="Times,serif" font-size="14.00">runRST</text>
</g>
<!-- 12&#45;&gt;24 -->
<g id="edge18" class="edge"><title>12&#45;&gt;24</title>
<path fill="none" stroke="black" d="M1407.05,-226.125C1473.44,-215.889 1581.9,-200.195 1676,-191.352 2117.17,-149.896 2651.21,-132.938 2829.09,-128.178"/>
<polygon fill="black" stroke="black" points="2829.39,-131.671 2839.3,-127.908 2829.21,-124.673 2829.39,-131.671"/>
</g>
<!-- 36&#45;&gt;12 -->
<g id="edge57" class="edge"><title>36&#45;&gt;12</title>
<path fill="none" stroke="navy" d="M1318.24,-163.475C1326.69,-180.507 1335.35,-200.14 1340.72,-214.685"/>
</g>
<!-- 3 -->
<g id="node11" class="node"><title>3</title>
<polygon fill="bisque" stroke="black" stroke-width="2" points="3500.55,-227.753 3500.55,-246.304 3463.32,-259.421 3410.68,-259.421 3373.45,-246.304 3373.45,-227.753 3410.68,-214.635 3463.32,-214.635 3500.55,-227.753"/>
<text text-anchor="middle" x="3437" y="-233.328" font-family="Times,serif" font-size="14.00">&gt;&gt;=</text>
</g>
<!-- 25 -->
<g id="node46" class="node"><title>25</title>
<polygon fill="goldenrod" stroke="black" stroke-width="2" points="3271,-143.676 3167,-143.676 3167,-107.676 3271,-107.676 3271,-143.676"/>
<text text-anchor="middle" x="3219" y="-121.976" font-family="Times,serif" font-size="14.00">rwsBind</text>
</g>
<!-- 3&#45;&gt;25 -->
<g id="edge2" class="edge"><title>3&#45;&gt;25</title>
<path fill="none" stroke="chartreuse" d="M3406.51,-216.03C3392.25,-207.411 3374.75,-197.842 3358,-191.352 3326.97,-179.329 3315.3,-188.45 3285,-174.676 3271.2,-168.401 3257.4,-158.983 3246.02,-150.147"/>
<polygon fill="chartreuse" stroke="chartreuse" points="3248.18,-147.395 3238.19,-143.87 3243.8,-152.856 3248.18,-147.395"/>
</g>
<!-- 11 -->
<g id="node12" class="node"><title>11</title>
<polygon fill="bisque" stroke="black" stroke-width="2" points="3635.87,-227.753 3635.87,-246.304 3601.38,-259.421 3552.62,-259.421 3518.13,-246.304 3518.13,-227.753 3552.62,-214.635 3601.38,-214.635 3635.87,-227.753"/>
<text text-anchor="middle" x="3577" y="-233.328" font-family="Times,serif" font-size="14.00">fail</text>
</g>
<!-- 35 -->
<g id="node15" class="node"><title>35</title>
<polygon fill="khaki" stroke="black" stroke-dasharray="1,5" points="3610.86,-111.662 3610.86,-139.691 3540.06,-159.51 3439.94,-159.51 3369.14,-139.691 3369.14,-111.662 3439.94,-91.8418 3540.06,-91.8418 3610.86,-111.662"/>
<polygon fill="none" stroke="black" stroke-dasharray="1,5" points="3614.86,-108.609 3614.86,-142.743 3540.61,-163.529 3439.39,-163.529 3365.14,-142.743 3365.14,-108.609 3439.39,-87.823 3540.61,-87.823 3614.86,-108.609"/>
<text text-anchor="middle" x="3490" y="-129.476" font-family="Times,serif" font-size="14.00">Unknown Module</text>
<text text-anchor="middle" x="3490" y="-114.476" font-family="Times,serif" font-size="14.00">fail</text>
</g>
<!-- 11&#45;&gt;35 -->
<g id="edge16" class="edge"><title>11&#45;&gt;35</title>
<path fill="none" stroke="black" d="M3554.54,-214.685C3543.7,-202.413 3530.66,-186.518 3519.1,-171.62"/>
<polygon fill="black" stroke="black" points="3521.72,-169.282 3512.86,-163.475 3516.17,-173.541 3521.72,-169.282"/>
</g>
<!-- 11&#45;&gt;4 -->
<g id="edge15" class="edge"><title>11&#45;&gt;4</title>
<path fill="none" stroke="black" d="M3551.59,-214.693C3539.7,-205.918 3524.9,-196.599 3510,-191.352 3470.65,-177.497 3357.04,-198.805 3323,-174.676 3285.3,-147.948 3317.32,-107.265 3280,-80 3228.73,-42.5414 3042.51,-35.9179 2950.78,-34.9772"/>
<polygon fill="black" stroke="black" points="2950.64,-31.476 2940.61,-34.8923 2950.58,-38.4758 2950.64,-31.476"/>
</g>
<!-- 23 -->
<g id="node13" class="node"><title>23</title>
<polygon fill="bisque" stroke="black" stroke-width="2" points="3793.8,-227.753 3793.8,-246.304 3752.91,-259.421 3695.09,-259.421 3654.2,-246.304 3654.2,-227.753 3695.09,-214.635 3752.91,-214.635 3793.8,-227.753"/>
<text text-anchor="middle" x="3724" y="-233.328" font-family="Times,serif" font-size="14.00">return</text>
</g>
<!-- 23&#45;&gt;46 -->
<g id="edge41" class="edge"><title>23&#45;&gt;46</title>
<path fill="none" stroke="black" d="M3725.16,-214.685C3727.79,-202.867 3732.11,-187.691 3736.83,-173.279"/>
<polygon fill="black" stroke="black" points="3740.25,-174.069 3740.14,-163.475 3733.62,-171.828 3740.25,-174.069"/>
</g>
<!-- 23&#45;&gt;4 -->
<g id="edge40" class="edge"><title>23&#45;&gt;4</title>
<path fill="none" stroke="black" d="M3693.95,-214.715C3679.78,-205.831 3662.23,-196.417 3645,-191.352 3613.82,-182.188 3379.3,-193.76 3353,-174.676 3316.43,-148.146 3351.89,-107.444 3316,-80 3259.93,-37.1182 3049.59,-33.3789 2950.83,-34.0887"/>
<polygon fill="black" stroke="black" points="2950.74,-30.5892 2940.77,-34.1792 2950.8,-37.5889 2950.74,-30.5892"/>
</g>
<!-- 30 -->
<g id="node14" class="node"><title>30</title>
<polygon fill="khaki" stroke="black" stroke-dasharray="1,5" points="3610.86,-360.886 3610.86,-388.915 3540.06,-408.735 3439.94,-408.735 3369.14,-388.915 3369.14,-360.886 3439.94,-341.066 3540.06,-341.066 3610.86,-360.886"/>
<polygon fill="none" stroke="black" stroke-dasharray="1,5" points="3614.86,-357.833 3614.86,-391.967 3540.61,-412.753 3439.39,-412.753 3365.14,-391.967 3365.14,-357.833 3439.39,-337.047 3540.61,-337.047 3614.86,-357.833"/>
<text text-anchor="middle" x="3490" y="-378.7" font-family="Times,serif" font-size="14.00">Unknown Module</text>
<text text-anchor="middle" x="3490" y="-363.7" font-family="Times,serif" font-size="14.00">&gt;&gt;=</text>
</g>
<!-- 30&#45;&gt;3 -->
<g id="edge51" class="edge"><title>30&#45;&gt;3</title>
<path fill="none" stroke="navy" d="M3475.66,-337.131C3465.97,-312.296 3453.52,-280.367 3445.4,-259.56"/>
</g>
<!-- 35&#45;&gt;11 -->
<g id="edge56" class="edge"><title>35&#45;&gt;11</title>
<path fill="none" stroke="navy" d="M3525.7,-163.475C3539.9,-180.507 3555.21,-200.14 3565.5,-214.685"/>
</g>
<!-- 46&#45;&gt;23 -->
<g id="edge67" class="edge"><title>46&#45;&gt;23</title>
<path fill="none" stroke="navy" d="M3752.98,-163.475C3748.33,-180.507 3741.92,-200.14 3736.12,-214.685"/>
</g>
<!-- 6 -->
<g id="node17" class="node"><title>6</title>
<polygon fill="bisque" stroke="black" stroke-width="2" points="2438.24,-365.625 2438.24,-384.176 2398.26,-397.293 2341.74,-397.293 2301.76,-384.176 2301.76,-365.625 2341.74,-352.507 2398.26,-352.507 2438.24,-365.625"/>
<text text-anchor="middle" x="2370" y="-371.2" font-family="Times,serif" font-size="14.00">block</text>
</g>
<!-- 32 -->
<g id="node20" class="node"><title>32</title>
<polygon fill="khaki" stroke="black" stroke-dasharray="1,5" points="2231.86,-223.014 2231.86,-251.043 2161.06,-270.863 2060.94,-270.863 1990.14,-251.043 1990.14,-223.014 2060.94,-203.194 2161.06,-203.194 2231.86,-223.014"/>
<polygon fill="none" stroke="black" stroke-dasharray="1,5" points="2235.86,-219.961 2235.86,-254.096 2161.61,-274.882 2060.39,-274.882 1986.14,-254.096 1986.14,-219.961 2060.39,-199.175 2161.61,-199.175 2235.86,-219.961"/>
<text text-anchor="middle" x="2111" y="-240.828" font-family="Times,serif" font-size="14.00">Unknown Module</text>
<text text-anchor="middle" x="2111" y="-225.828" font-family="Times,serif" font-size="14.00">block</text>
</g>
<!-- 6&#45;&gt;32 -->
<g id="edge6" class="edge"><title>6&#45;&gt;32</title>
<path fill="none" stroke="black" d="M2322.1,-358.846C2295.98,-349.061 2263.61,-335.502 2236,-321.224 2212.48,-309.064 2187.62,-294.223 2166.26,-280.46"/>
<polygon fill="black" stroke="black" points="2167.93,-277.373 2157.65,-274.843 2164.11,-283.237 2167.93,-277.373"/>
</g>
<!-- 18 -->
<g id="node45" class="node"><title>18</title>
<polygon fill="goldenrod" stroke="black" stroke-width="2" points="3060.5,-255.028 2953.5,-255.028 2953.5,-219.028 3060.5,-219.028 3060.5,-255.028"/>
<text text-anchor="middle" x="3007" y="-233.328" font-family="Times,serif" font-size="14.00">mapRST</text>
</g>
<!-- 6&#45;&gt;18 -->
<g id="edge5" class="edge"><title>6&#45;&gt;18</title>
<path fill="none" stroke="black" d="M2398.76,-352.5C2412.6,-343.479 2429.87,-333.981 2447,-329.224 2473.61,-321.834 2919.37,-333.715 2944,-321.224 2967.61,-309.251 2984.79,-283.849 2995.19,-264.244"/>
<polygon fill="black" stroke="black" points="2998.38,-265.677 2999.75,-255.17 2992.13,-262.534 2998.38,-265.677"/>
</g>
<!-- 7 -->
<g id="node18" class="node"><title>7</title>
<polygon fill="bisque" stroke="black" stroke-width="2" points="2763.67,-365.625 2763.67,-384.176 2724.62,-397.293 2669.38,-397.293 2630.33,-384.176 2630.33,-365.625 2669.38,-352.507 2724.62,-352.507 2763.67,-365.625"/>
<text text-anchor="middle" x="2697" y="-371.2" font-family="Times,serif" font-size="14.00">catch</text>
</g>
<!-- 33 -->
<g id="node21" class="node"><title>33</title>
<polygon fill="khaki" stroke="black" stroke-dasharray="1,5" points="2767.86,-223.014 2767.86,-251.043 2697.06,-270.863 2596.94,-270.863 2526.14,-251.043 2526.14,-223.014 2596.94,-203.194 2697.06,-203.194 2767.86,-223.014"/>
<polygon fill="none" stroke="black" stroke-dasharray="1,5" points="2771.86,-219.961 2771.86,-254.096 2697.61,-274.882 2596.39,-274.882 2522.14,-254.096 2522.14,-219.961 2596.39,-199.175 2697.61,-199.175 2771.86,-219.961"/>
<text text-anchor="middle" x="2647" y="-240.828" font-family="Times,serif" font-size="14.00">Unknown Module</text>
<text text-anchor="middle" x="2647" y="-225.828" font-family="Times,serif" font-size="14.00">catch</text>
</g>
<!-- 7&#45;&gt;33 -->
<g id="edge9" class="edge"><title>7&#45;&gt;33</title>
<path fill="none" stroke="black" d="M2684.12,-352.67C2675.81,-334.45 2665.45,-307.541 2657.62,-284.372"/>
<polygon fill="black" stroke="black" points="2660.89,-283.107 2654.43,-274.708 2654.24,-285.301 2660.89,-283.107"/>
</g>
<!-- 7&#45;&gt;4 -->
<g id="edge7" class="edge"><title>7&#45;&gt;4</title>
<path fill="none" stroke="black" d="M2763.66,-371.73C2892.93,-366.831 3167.59,-352.79 3196,-321.224 3234.61,-278.32 3227.57,-239.677 3196,-191.352 3185.91,-175.911 3174.38,-183.162 3158,-174.676 3085.65,-137.187 3073.31,-117.56 3001,-80 2984.78,-71.5724 2966.64,-63.2373 2950.21,-56.0739"/>
<polygon fill="black" stroke="black" points="2951.32,-52.7449 2940.76,-51.9997 2948.55,-59.1729 2951.32,-52.7449"/>
</g>
<!-- 7&#45;&gt;24 -->
<g id="edge8" class="edge"><title>7&#45;&gt;24</title>
<path fill="none" stroke="black" stroke-width="1.69315" d="M2738.67,-356.956C2754.94,-348.439 2772.43,-336.606 2784,-321.224 2819.93,-273.447 2787.88,-242.391 2819,-191.352 2828.63,-175.555 2843.26,-161.301 2856.73,-150.22"/>
<polygon fill="black" stroke="black" stroke-width="1.69315" points="2859.25,-152.693 2864.92,-143.745 2854.91,-147.202 2859.25,-152.693"/>
</g>
<!-- 26 -->
<g id="node19" class="node"><title>26</title>
<polygon fill="bisque" stroke="black" stroke-width="2" points="2612.13,-365.625 2612.13,-384.176 2566.36,-397.293 2501.64,-397.293 2455.87,-384.176 2455.87,-365.625 2501.64,-352.507 2566.36,-352.507 2612.13,-365.625"/>
<text text-anchor="middle" x="2534" y="-371.2" font-family="Times,serif" font-size="14.00">unblock</text>
</g>
<!-- 47 -->
<g id="node22" class="node"><title>47</title>
<polygon fill="khaki" stroke="black" stroke-dasharray="1,5" points="2499.86,-223.014 2499.86,-251.043 2429.06,-270.863 2328.94,-270.863 2258.14,-251.043 2258.14,-223.014 2328.94,-203.194 2429.06,-203.194 2499.86,-223.014"/>
<polygon fill="none" stroke="black" stroke-dasharray="1,5" points="2503.86,-219.961 2503.86,-254.096 2429.61,-274.882 2328.39,-274.882 2254.14,-254.096 2254.14,-219.961 2328.39,-199.175 2429.61,-199.175 2503.86,-219.961"/>
<text text-anchor="middle" x="2379" y="-240.828" font-family="Times,serif" font-size="14.00">Unknown Module</text>
<text text-anchor="middle" x="2379" y="-225.828" font-family="Times,serif" font-size="14.00">unblock</text>
</g>
<!-- 26&#45;&gt;47 -->
<g id="edge46" class="edge"><title>26&#45;&gt;47</title>
<path fill="none" stroke="black" d="M2504.72,-352.67C2481.42,-333.718 2448.65,-305.365 2422.36,-281.598"/>
<polygon fill="black" stroke="black" points="2424.53,-278.843 2414.77,-274.708 2419.82,-284.023 2424.53,-278.843"/>
</g>
<!-- 26&#45;&gt;18 -->
<g id="edge45" class="edge"><title>26&#45;&gt;18</title>
<path fill="none" stroke="black" d="M2566.88,-352.56C2582.6,-343.552 2602.08,-334.047 2621,-329.224 2655.79,-320.357 2912.05,-337.601 2944,-321.224 2967.55,-309.149 2984.74,-283.761 2995.16,-264.188"/>
<polygon fill="black" stroke="black" points="2998.35,-265.635 2999.73,-255.13 2992.1,-262.483 2998.35,-265.635"/>
</g>
<!-- 32&#45;&gt;6 -->
<g id="edge53" class="edge"><title>32&#45;&gt;6</title>
<path fill="none" stroke="navy" d="M2170.57,-272.573C2195.89,-288.344 2225.91,-306.697 2254,-321.224 2279,-334.15 2307.9,-346.486 2330.69,-355.967"/>
</g>
<!-- 33&#45;&gt;7 -->
<g id="edge54" class="edge"><title>33&#45;&gt;7</title>
<path fill="none" stroke="navy" d="M2666.57,-274.708C2676.92,-299.676 2688.43,-331.847 2694.25,-352.67"/>
</g>
<!-- 47&#45;&gt;26 -->
<g id="edge68" class="edge"><title>47&#45;&gt;26</title>
<path fill="none" stroke="navy" d="M2426.91,-274.708C2456.56,-299.676 2492.93,-331.847 2514.84,-352.67"/>
</g>
<!-- 15 -->
<g id="node23" class="node"><title>15</title>
<polygon fill="bisque" stroke="black" stroke-width="2" points="5434.24,-488.016 5434.24,-506.567 5394.26,-519.685 5337.74,-519.685 5297.76,-506.567 5297.76,-488.016 5337.74,-474.898 5394.26,-474.898 5434.24,-488.016"/>
<text text-anchor="middle" x="5366" y="-493.591" font-family="Times,serif" font-size="14.00">liftIO</text>
</g>
<!-- 39 -->
<g id="node24" class="node"><title>39</title>
<polygon fill="khaki" stroke="black" stroke-dasharray="1,5" points="5510.86,-360.886 5510.86,-388.915 5440.06,-408.735 5339.94,-408.735 5269.14,-388.915 5269.14,-360.886 5339.94,-341.066 5440.06,-341.066 5510.86,-360.886"/>
<polygon fill="none" stroke="black" stroke-dasharray="1,5" points="5514.86,-357.833 5514.86,-391.967 5440.61,-412.753 5339.39,-412.753 5265.14,-391.967 5265.14,-357.833 5339.39,-337.047 5440.61,-337.047 5514.86,-357.833"/>
<text text-anchor="middle" x="5390" y="-378.7" font-family="Times,serif" font-size="14.00">Unknown Module</text>
<text text-anchor="middle" x="5390" y="-363.7" font-family="Times,serif" font-size="14.00">liftIO</text>
</g>
<!-- 15&#45;&gt;39 -->
<g id="edge25" class="edge"><title>15&#45;&gt;39</title>
<path fill="none" stroke="black" d="M5364.94,-475.045C5366.55,-460.578 5370.04,-440.851 5374.05,-422.803"/>
<polygon fill="black" stroke="black" points="5377.47,-423.524 5376.32,-412.992 5370.65,-421.946 5377.47,-423.524"/>
</g>
<!-- 38 -->
<g id="node40" class="node"><title>38</title>
<polygon fill="khaki" stroke="black" stroke-dasharray="1,5" points="4694.86,-360.886 4694.86,-388.915 4624.06,-408.735 4523.94,-408.735 4453.14,-388.915 4453.14,-360.886 4523.94,-341.066 4624.06,-341.066 4694.86,-360.886"/>
<polygon fill="none" stroke="black" stroke-dasharray="1,5" points="4698.86,-357.833 4698.86,-391.967 4624.61,-412.753 4523.39,-412.753 4449.14,-391.967 4449.14,-357.833 4523.39,-337.047 4624.61,-337.047 4698.86,-357.833"/>
<text text-anchor="middle" x="4574" y="-378.7" font-family="Times,serif" font-size="14.00">Unknown Module</text>
<text text-anchor="middle" x="4574" y="-363.7" font-family="Times,serif" font-size="14.00">lift</text>
</g>
<!-- 15&#45;&gt;38 -->
<g id="edge24" class="edge"><title>15&#45;&gt;38</title>
<path fill="none" stroke="black" d="M5297.78,-496.581C5152.88,-496.521 4818.89,-492.615 4711,-459.096 4682.48,-450.235 4653.8,-434.182 4630.1,-418.525"/>
<polygon fill="black" stroke="black" points="4631.85,-415.483 4621.6,-412.788 4627.93,-421.285 4631.85,-415.483"/>
</g>
<!-- 39&#45;&gt;15 -->
<g id="edge60" class="edge"><title>39&#45;&gt;15</title>
<path fill="none" stroke="navy" d="M5388.89,-412.992C5385.69,-433.365 5380.47,-457.899 5375.53,-475.045"/>
</g>
<!-- 19 -->
<g id="node25" class="node"><title>19</title>
<polygon fill="bisque" stroke="black" stroke-width="2" points="1068.33,-227.753 1068.33,-246.304 1027.13,-259.421 968.869,-259.421 927.672,-246.304 927.672,-227.753 968.869,-214.635 1027.13,-214.635 1068.33,-227.753"/>
<text text-anchor="middle" x="998" y="-233.328" font-family="Times,serif" font-size="14.00">mplus</text>
</g>
<!-- 19&#45;&gt;42 -->
<g id="edge34" class="edge"><title>19&#45;&gt;42</title>
<path fill="none" stroke="black" d="M983.345,-214.685C977.169,-202.754 970.17,-187.399 964.174,-172.864"/>
<polygon fill="black" stroke="black" points="967.377,-171.447 960.398,-163.475 960.883,-174.059 967.377,-171.447"/>
</g>
<!-- 19&#45;&gt;4 -->
<g id="edge32" class="edge"><title>19&#45;&gt;4</title>
<path fill="none" stroke="black" d="M1045.94,-220.503C1070.17,-210.619 1098.48,-195.669 1118,-174.676 1149.1,-141.22 1120.26,-105.734 1158,-80 1229.49,-31.2559 2565.41,-33.7051 2847.12,-34.768"/>
<polygon fill="black" stroke="black" points="2847.44,-38.2692 2857.46,-34.8082 2847.47,-31.2693 2847.44,-38.2692"/>
</g>
<!-- 19&#45;&gt;24 -->
<g id="edge33" class="edge"><title>19&#45;&gt;24</title>
<path fill="none" stroke="black" stroke-width="1.69315" d="M1056.46,-223.877C1109.56,-213.371 1190.18,-198.743 1261,-191.352 1870.34,-127.768 2613.85,-125.47 2829.02,-126.278"/>
<polygon fill="black" stroke="black" stroke-width="1.69315" points="2829.15,-129.778 2839.16,-126.319 2829.17,-122.778 2829.15,-129.778"/>
</g>
<!-- 20 -->
<g id="node26" class="node"><title>20</title>
<polygon fill="bisque" stroke="black" stroke-width="2" points="909.359,-227.753 909.359,-246.304 867.558,-259.421 808.442,-259.421 766.641,-246.304 766.641,-227.753 808.442,-214.635 867.558,-214.635 909.359,-227.753"/>
<text text-anchor="middle" x="838" y="-233.328" font-family="Times,serif" font-size="14.00">mzero</text>
</g>
<!-- 20&#45;&gt;43 -->
<g id="edge36" class="edge"><title>20&#45;&gt;43</title>
<path fill="none" stroke="black" d="M803.821,-215.716C784.22,-202.736 759.256,-185.411 737.085,-169.494"/>
<polygon fill="black" stroke="black" points="738.899,-166.487 728.741,-163.475 734.803,-172.164 738.899,-166.487"/>
</g>
<!-- 20&#45;&gt;4 -->
<g id="edge35" class="edge"><title>20&#45;&gt;4</title>
<path fill="none" stroke="black" d="M868.98,-215.053C883.541,-206.237 901.516,-196.784 919,-191.352 955.039,-180.157 1058.68,-198.439 1088,-174.676 1122.29,-146.882 1082.72,-106.523 1118,-80 1153.47,-53.3375 2557.17,-38.3101 2846.98,-35.4884"/>
<polygon fill="black" stroke="black" points="2847.25,-38.9861 2857.21,-35.3894 2847.18,-31.9864 2847.25,-38.9861"/>
</g>
<!-- 42&#45;&gt;19 -->
<g id="edge63" class="edge"><title>42&#45;&gt;19</title>
<path fill="none" stroke="navy" d="M973.235,-163.475C981.209,-180.507 989.335,-200.14 994.307,-214.685"/>
</g>
<!-- 43&#45;&gt;20 -->
<g id="edge64" class="edge"><title>43&#45;&gt;20</title>
<path fill="none" stroke="navy" d="M739.361,-161.954C764.721,-179.328 793.312,-199.705 813.227,-214.685"/>
</g>
<!-- 5 -->
<g id="node29" class="node"><title>5</title>
<polygon fill="bisque" stroke="black" stroke-width="2" points="1953.87,-227.753 1953.87,-246.304 1919.38,-259.421 1870.62,-259.421 1836.13,-246.304 1836.13,-227.753 1870.62,-214.635 1919.38,-214.635 1953.87,-227.753"/>
<text text-anchor="middle" x="1895" y="-233.328" font-family="Times,serif" font-size="14.00">ask</text>
</g>
<!-- 5&#45;&gt;46 -->
<g id="edge4" class="edge"><title>5&#45;&gt;46</title>
<path fill="none" stroke="black" d="M1922.74,-215.751C1937.24,-206.38 1955.74,-196.257 1974,-191.352 2062.53,-167.573 3533.76,-190.821 3624,-174.676 3641.08,-171.62 3658.87,-166.629 3675.7,-160.995"/>
<polygon fill="black" stroke="black" points="3677.18,-164.188 3685.49,-157.613 3674.89,-157.572 3677.18,-164.188"/>
</g>
<!-- 5&#45;&gt;4 -->
<g id="edge3" class="edge"><title>5&#45;&gt;4</title>
<path fill="none" stroke="black" d="M1924.21,-216.272C1938.63,-207.38 1956.63,-197.519 1974,-191.352 2015.87,-176.491 2658.57,-73.3431 2847.28,-43.2336"/>
<polygon fill="black" stroke="black" points="2847.91,-46.6783 2857.23,-41.6469 2846.8,-39.7657 2847.91,-46.6783"/>
</g>
<!-- 17 -->
<g id="node30" class="node"><title>17</title>
<polygon fill="bisque" stroke="black" stroke-width="2" points="1818.11,-227.753 1818.11,-246.304 1779.97,-259.421 1726.03,-259.421 1687.89,-246.304 1687.89,-227.753 1726.03,-214.635 1779.97,-214.635 1818.11,-227.753"/>
<text text-anchor="middle" x="1753" y="-233.328" font-family="Times,serif" font-size="14.00">local</text>
</g>
<!-- 17&#45;&gt;4 -->
<g id="edge28" class="edge"><title>17&#45;&gt;4</title>
<path fill="none" stroke="black" d="M1782.9,-215.559C1836.79,-179.986 1955.07,-107.893 2067,-80 2215.79,-42.9228 2688.74,-36.3941 2846.91,-35.2452"/>
<polygon fill="black" stroke="black" points="2847.33,-38.7425 2857.31,-35.1742 2847.28,-31.7426 2847.33,-38.7425"/>
</g>
<!-- 17&#45;&gt;24 -->
<g id="edge29" class="edge"><title>17&#45;&gt;24</title>
<path fill="none" stroke="black" d="M1780.97,-214.736C1794.21,-205.856 1810.67,-196.44 1827,-191.352 1851.08,-183.851 2606.96,-142.119 2829.15,-129.985"/>
<polygon fill="black" stroke="black" points="2829.53,-133.47 2839.32,-129.43 2829.15,-126.48 2829.53,-133.47"/>
</g>
<!-- 31 -->
<g id="node31" class="node"><title>31</title>
<polygon fill="khaki" stroke="black" stroke-dasharray="1,5" points="1957.86,-360.886 1957.86,-388.915 1887.06,-408.735 1786.94,-408.735 1716.14,-388.915 1716.14,-360.886 1786.94,-341.066 1887.06,-341.066 1957.86,-360.886"/>
<polygon fill="none" stroke="black" stroke-dasharray="1,5" points="1961.86,-357.833 1961.86,-391.967 1887.61,-412.753 1786.39,-412.753 1712.14,-391.967 1712.14,-357.833 1786.39,-337.047 1887.61,-337.047 1961.86,-357.833"/>
<text text-anchor="middle" x="1837" y="-378.7" font-family="Times,serif" font-size="14.00">Unknown Module</text>
<text text-anchor="middle" x="1837" y="-363.7" font-family="Times,serif" font-size="14.00">ask</text>
</g>
<!-- 31&#45;&gt;5 -->
<g id="edge52" class="edge"><title>31&#45;&gt;5</title>
<path fill="none" stroke="navy" d="M1852.7,-337.131C1863.3,-312.296 1876.93,-280.367 1885.81,-259.56"/>
</g>
<!-- 41 -->
<g id="node32" class="node"><title>41</title>
<polygon fill="khaki" stroke="black" stroke-dasharray="1,5" points="1689.86,-360.886 1689.86,-388.915 1619.06,-408.735 1518.94,-408.735 1448.14,-388.915 1448.14,-360.886 1518.94,-341.066 1619.06,-341.066 1689.86,-360.886"/>
<polygon fill="none" stroke="black" stroke-dasharray="1,5" points="1693.86,-357.833 1693.86,-391.967 1619.61,-412.753 1518.39,-412.753 1444.14,-391.967 1444.14,-357.833 1518.39,-337.047 1619.61,-337.047 1693.86,-357.833"/>
<text text-anchor="middle" x="1569" y="-378.7" font-family="Times,serif" font-size="14.00">Unknown Module</text>
<text text-anchor="middle" x="1569" y="-363.7" font-family="Times,serif" font-size="14.00">local</text>
</g>
<!-- 41&#45;&gt;17 -->
<g id="edge62" class="edge"><title>41&#45;&gt;17</title>
<path fill="none" stroke="navy" d="M1618.79,-337.131C1652.74,-312.061 1696.49,-279.76 1724.64,-258.97"/>
</g>
<!-- 16 -->
<g id="node33" class="node"><title>16</title>
<polygon fill="bisque" stroke="black" stroke-width="2" points="5721.1,-488.016 5721.1,-506.567 5675.94,-519.685 5612.06,-519.685 5566.9,-506.567 5566.9,-488.016 5612.06,-474.898 5675.94,-474.898 5721.1,-488.016"/>
<text text-anchor="middle" x="5644" y="-493.591" font-family="Times,serif" font-size="14.00">liftSnap</text>
</g>
<!-- 40 -->
<g id="node34" class="node"><title>40</title>
<polygon fill="khaki" stroke="black" stroke-dasharray="1,5" points="5784.86,-360.886 5784.86,-388.915 5714.06,-408.735 5613.94,-408.735 5543.14,-388.915 5543.14,-360.886 5613.94,-341.066 5714.06,-341.066 5784.86,-360.886"/>
<polygon fill="none" stroke="black" stroke-dasharray="1,5" points="5788.86,-357.833 5788.86,-391.967 5714.61,-412.753 5613.39,-412.753 5539.14,-391.967 5539.14,-357.833 5613.39,-337.047 5714.61,-337.047 5788.86,-357.833"/>
<text text-anchor="middle" x="5664" y="-378.7" font-family="Times,serif" font-size="14.00">Unknown Module</text>
<text text-anchor="middle" x="5664" y="-363.7" font-family="Times,serif" font-size="14.00">liftSnap</text>
</g>
<!-- 16&#45;&gt;40 -->
<g id="edge27" class="edge"><title>16&#45;&gt;40</title>
<path fill="none" stroke="black" d="M5642.24,-475.045C5643.36,-460.578 5646.2,-440.851 5649.61,-422.803"/>
<polygon fill="black" stroke="black" points="5653.04,-423.482 5651.55,-412.992 5646.17,-422.121 5653.04,-423.482"/>
</g>
<!-- 16&#45;&gt;38 -->
<g id="edge26" class="edge"><title>16&#45;&gt;38</title>
<path fill="none" stroke="black" d="M5579.37,-484.387C5541.28,-477.943 5492.07,-470.601 5448,-467.096 5407.18,-463.85 4750.37,-470.345 4711,-459.096 4681.93,-450.789 4652.85,-434.547 4629.02,-418.601"/>
<polygon fill="black" stroke="black" points="4630.71,-415.518 4620.48,-412.755 4626.75,-421.293 4630.71,-415.518"/>
</g>
<!-- 40&#45;&gt;16 -->
<g id="edge61" class="edge"><title>40&#45;&gt;16</title>
<path fill="none" stroke="navy" d="M5664.13,-412.992C5661.6,-433.365 5657.19,-457.899 5652.82,-475.045"/>
</g>
<!-- 13 -->
<g id="node35" class="node"><title>13</title>
<polygon fill="bisque" stroke="black" stroke-width="2" points="4164.31,-227.753 4164.31,-246.304 4130.74,-259.421 4083.26,-259.421 4049.69,-246.304 4049.69,-227.753 4083.26,-214.635 4130.74,-214.635 4164.31,-227.753"/>
<text text-anchor="middle" x="4107" y="-233.328" font-family="Times,serif" font-size="14.00">get</text>
</g>
<!-- 13&#45;&gt;46 -->
<g id="edge21" class="edge"><title>13&#45;&gt;46</title>
<path fill="none" stroke="black" d="M4080.9,-215.404C4069,-206.873 4054.38,-197.548 4040,-191.352 3992.2,-170.761 3936.9,-156.243 3888,-146.256"/>
<polygon fill="black" stroke="black" points="3888.48,-142.783 3877.99,-144.255 3887.11,-149.647 3888.48,-142.783"/>
</g>
<!-- 13&#45;&gt;4 -->
<g id="edge20" class="edge"><title>13&#45;&gt;4</title>
<path fill="none" stroke="black" d="M4092.38,-214.678C4066.62,-179.111 4009.34,-108.797 3941,-80 3849.4,-41.4035 3148.38,-35.9112 2950.73,-35.1297"/>
<polygon fill="black" stroke="black" points="2950.62,-31.6293 2940.61,-35.0921 2950.6,-38.6293 2950.62,-31.6293"/>
</g>
<!-- 22 -->
<g id="node36" class="node"><title>22</title>
<polygon fill="bisque" stroke="black" stroke-width="2" points="4031.34,-227.753 4031.34,-246.304 3997.16,-259.421 3948.84,-259.421 3914.66,-246.304 3914.66,-227.753 3948.84,-214.635 3997.16,-214.635 4031.34,-227.753"/>
<text text-anchor="middle" x="3973" y="-233.328" font-family="Times,serif" font-size="14.00">put</text>
</g>
<!-- 22&#45;&gt;46 -->
<g id="edge39" class="edge"><title>22&#45;&gt;46</title>
<path fill="none" stroke="black" d="M3938.46,-218.459C3909.79,-203.877 3868.01,-182.627 3831.87,-164.246"/>
<polygon fill="black" stroke="black" points="3833.31,-161.055 3822.81,-159.641 3830.14,-167.294 3833.31,-161.055"/>
</g>
<!-- 22&#45;&gt;4 -->
<g id="edge38" class="edge"><title>22&#45;&gt;4</title>
<path fill="none" stroke="black" d="M3969.35,-214.577C3962.11,-179.518 3942.36,-110.772 3895,-80 3855.12,-54.0874 3149.38,-39.4967 2950.68,-35.8898"/>
<polygon fill="black" stroke="black" points="2950.57,-32.3873 2940.5,-35.7067 2950.44,-39.3862 2950.57,-32.3873"/>
</g>
<!-- 37 -->
<g id="node37" class="node"><title>37</title>
<polygon fill="khaki" stroke="black" stroke-dasharray="1,5" points="4420.86,-360.886 4420.86,-388.915 4350.06,-408.735 4249.94,-408.735 4179.14,-388.915 4179.14,-360.886 4249.94,-341.066 4350.06,-341.066 4420.86,-360.886"/>
<polygon fill="none" stroke="black" stroke-dasharray="1,5" points="4424.86,-357.833 4424.86,-391.967 4350.61,-412.753 4249.39,-412.753 4175.14,-391.967 4175.14,-357.833 4249.39,-337.047 4350.61,-337.047 4424.86,-357.833"/>
<text text-anchor="middle" x="4300" y="-378.7" font-family="Times,serif" font-size="14.00">Unknown Module</text>
<text text-anchor="middle" x="4300" y="-363.7" font-family="Times,serif" font-size="14.00">get</text>
</g>
<!-- 37&#45;&gt;13 -->
<g id="edge58" class="edge"><title>37&#45;&gt;13</title>
<path fill="none" stroke="navy" d="M4248.03,-337.31C4211.74,-311.765 4164.7,-278.647 4135.17,-257.863"/>
</g>
<!-- 45 -->
<g id="node38" class="node"><title>45</title>
<polygon fill="khaki" stroke="black" stroke-dasharray="1,5" points="4152.86,-360.886 4152.86,-388.915 4082.06,-408.735 3981.94,-408.735 3911.14,-388.915 3911.14,-360.886 3981.94,-341.066 4082.06,-341.066 4152.86,-360.886"/>
<polygon fill="none" stroke="black" stroke-dasharray="1,5" points="4156.86,-357.833 4156.86,-391.967 4082.61,-412.753 3981.39,-412.753 3907.14,-391.967 3907.14,-357.833 3981.39,-337.047 4082.61,-337.047 4156.86,-357.833"/>
<text text-anchor="middle" x="4032" y="-378.7" font-family="Times,serif" font-size="14.00">Unknown Module</text>
<text text-anchor="middle" x="4032" y="-363.7" font-family="Times,serif" font-size="14.00">put</text>
</g>
<!-- 45&#45;&gt;22 -->
<g id="edge66" class="edge"><title>45&#45;&gt;22</title>
<path fill="none" stroke="navy" d="M4016.03,-337.131C4005.25,-312.296 3991.38,-280.367 3982.35,-259.56"/>
</g>
<!-- 14 -->
<g id="node39" class="node"><title>14</title>
<polygon fill="bisque" stroke="black" stroke-width="2" points="4570.77,-227.753 4570.77,-246.304 4537.52,-259.421 4490.48,-259.421 4457.23,-246.304 4457.23,-227.753 4490.48,-214.635 4537.52,-214.635 4570.77,-227.753"/>
<text text-anchor="middle" x="4514" y="-233.328" font-family="Times,serif" font-size="14.00">lift</text>
</g>
<!-- 14&#45;&gt;46 -->
<g id="edge23" class="edge"><title>14&#45;&gt;46</title>
<path fill="none" stroke="black" d="M4457.18,-227.809C4337.27,-210.465 4055.7,-169.738 3888.76,-145.59"/>
<polygon fill="black" stroke="black" points="3888.83,-142.063 3878.43,-144.095 3887.82,-148.991 3888.83,-142.063"/>
</g>
<!-- 14&#45;&gt;4 -->
<g id="edge22" class="edge"><title>14&#45;&gt;4</title>
<path fill="none" stroke="black" d="M4475.95,-220.36C4393.49,-187.253 4191.41,-110.711 4014,-80 3805.58,-43.9215 3141.5,-36.6507 2950.71,-35.2925"/>
<polygon fill="black" stroke="black" points="2950.69,-31.7924 2940.67,-35.2234 2950.65,-38.7923 2950.69,-31.7924"/>
</g>
<!-- 38&#45;&gt;14 -->
<g id="edge59" class="edge"><title>38&#45;&gt;14</title>
<path fill="none" stroke="navy" d="M4557.76,-337.131C4546.8,-312.296 4532.7,-280.367 4523.51,-259.56"/>
</g>
<!-- 24&#45;&gt;4 -->
<g id="edge42" class="edge"><title>24&#45;&gt;4</title>
<path fill="none" stroke="magenta" d="M2891.74,-107.386C2893.02,-94.6076 2894.79,-76.956 2896.26,-62.283"/>
<polygon fill="magenta" stroke="magenta" points="2897.27,-52.2374 2900.75,-62.6368 2896.77,-57.2124 2896.27,-62.1874 2896.27,-62.1874 2896.27,-62.1874 2896.77,-57.2124 2891.79,-61.738 2897.27,-52.2374 2897.27,-52.2374"/>
</g>
<!-- 9 -->
<g id="node43" class="node"><title>9</title>
<polygon fill="gold" stroke="black" stroke-width="2" points="3349,-255.028 3243,-255.028 3243,-219.028 3349,-219.028 3349,-255.028"/>
<text text-anchor="middle" x="3296" y="-233.328" font-family="Times,serif" font-size="14.00">evalRST</text>
</g>
<!-- 9&#45;&gt;46 -->
<g id="edge12" class="edge"><title>9&#45;&gt;46</title>
<path fill="none" stroke="black" d="M3314.95,-218.893C3327.17,-208.95 3343.92,-197.256 3361,-191.352 3471.7,-153.095 3509.3,-198.363 3624,-174.676 3640.69,-171.23 3658.11,-166.156 3674.66,-160.583"/>
<polygon fill="black" stroke="black" points="3675.99,-163.829 3684.29,-157.253 3673.7,-157.213 3675.99,-163.829"/>
</g>
<!-- 9&#45;&gt;24 -->
<g id="edge11" class="edge"><title>9&#45;&gt;24</title>
<path fill="none" stroke="black" d="M3262.46,-218.896C3243.37,-209.696 3218.79,-198.757 3196,-191.352 3112.84,-164.326 3013.22,-145.709 2950.75,-135.616"/>
<polygon fill="black" stroke="black" points="2951.1,-132.128 2940.68,-134.01 2950,-139.04 2951.1,-132.128"/>
</g>
<!-- 10 -->
<g id="node44" class="node"><title>10</title>
<polygon fill="gold" stroke="black" stroke-width="2" points="3187,-255.028 3079,-255.028 3079,-219.028 3187,-219.028 3187,-255.028"/>
<text text-anchor="middle" x="3133" y="-233.328" font-family="Times,serif" font-size="14.00">execRST</text>
</g>
<!-- 10&#45;&gt;46 -->
<g id="edge14" class="edge"><title>10&#45;&gt;46</title>
<path fill="none" stroke="black" d="M3163.35,-219.018C3182.88,-208.988 3209.17,-197.156 3234,-191.352 3402.94,-151.868 3453.74,-208.012 3624,-174.676 3640.93,-171.362 3658.59,-166.286 3675.32,-160.657"/>
<polygon fill="black" stroke="black" points="3676.75,-163.866 3685.05,-157.287 3674.46,-157.251 3676.75,-163.866"/>
</g>
<!-- 10&#45;&gt;24 -->
<g id="edge13" class="edge"><title>10&#45;&gt;24</title>
<path fill="none" stroke="black" d="M3111.69,-219.027C3099.65,-209.979 3084.04,-199.145 3069,-191.352 3031.19,-171.76 2986.08,-155.502 2950.61,-144.187"/>
<polygon fill="black" stroke="black" points="2951.46,-140.787 2940.87,-141.128 2949.36,-147.465 2951.46,-140.787"/>
</g>
<!-- 18&#45;&gt;4 -->
<g id="edge30" class="edge"><title>18&#45;&gt;4</title>
<path fill="none" stroke="black" d="M3007.01,-218.852C3006.21,-188.155 3000.71,-123.07 2970,-80 2963.77,-71.2652 2955.27,-63.8364 2946.31,-57.6837"/>
<polygon fill="black" stroke="black" points="2947.95,-54.5826 2937.63,-52.1749 2944.2,-60.4913 2947.95,-54.5826"/>
</g>
<!-- 18&#45;&gt;24 -->
<g id="edge31" class="edge"><title>18&#45;&gt;24</title>
<path fill="none" stroke="black" d="M2988.72,-218.942C2969.17,-200.673 2938.01,-171.551 2915.94,-150.916"/>
<polygon fill="black" stroke="black" points="2918.23,-148.275 2908.54,-144.003 2913.45,-153.389 2918.23,-148.275"/>
</g>
<!-- 25&#45;&gt;4 -->
<g id="edge43" class="edge"><title>25&#45;&gt;4</title>
<path fill="none" stroke="black" d="M3198.6,-107.552C3186.17,-97.9987 3169.54,-86.7068 3153,-80 3086.47,-53.0235 3003.66,-42.1866 2951.05,-37.8543"/>
<polygon fill="black" stroke="black" points="2951.18,-34.3544 2940.94,-37.0718 2950.64,-41.3335 2951.18,-34.3544"/>
</g>
<!-- 25&#45;&gt;24 -->
<g id="edge44" class="edge"><title>25&#45;&gt;24</title>
<path fill="none" stroke="black" stroke-width="1.69315" d="M3166.83,-125.676C3094.86,-125.676 3022.89,-125.676 2950.92,-125.676"/>
<polygon fill="black" stroke="black" stroke-width="1.69315" points="2950.76,-122.176 2940.76,-125.676 2950.76,-129.176 2950.76,-122.176"/>
</g>
<!-- 27 -->
<g id="node47" class="node"><title>27</title>
<polygon fill="gold" stroke="black" stroke-width="2" points="2935.5,-255.028 2828.5,-255.028 2828.5,-219.028 2935.5,-219.028 2935.5,-255.028"/>
<text text-anchor="middle" x="2882" y="-233.328" font-family="Times,serif" font-size="14.00">withRST</text>
</g>
<!-- 27&#45;&gt;4 -->
<g id="edge47" class="edge"><title>27&#45;&gt;4</title>
<path fill="none" stroke="black" d="M2909.74,-218.958C2924.38,-208.251 2940.93,-193.009 2949,-174.676 2965.95,-136.164 2966.12,-118.439 2949,-80 2945.45,-72.0254 2939.71,-64.8712 2933.36,-58.7382"/>
<polygon fill="black" stroke="black" points="2935.54,-55.9971 2925.72,-52.0197 2930.92,-61.2528 2935.54,-55.9971"/>
</g>
<!-- 27&#45;&gt;24 -->
<g id="edge48" class="edge"><title>27&#45;&gt;24</title>
<path fill="none" stroke="black" d="M2883.25,-218.942C2884.52,-201.63 2886.5,-174.573 2887.98,-154.227"/>
<polygon fill="black" stroke="black" points="2891.49,-154.232 2888.73,-144.003 2884.51,-153.721 2891.49,-154.232"/>
</g>
</g>
</svg>
