<?xml version="1.0" encoding="UTF-8" standalone="no"?>
<!DOCTYPE svg PUBLIC "-//W3C//DTD SVG 1.1//EN"
 "http://www.w3.org/Graphics/SVG/1.1/DTD/svg11.dtd">
<!-- Generated by graphviz version 2.38.0 (20140413.2041)
 -->
<!-- Title: Levels within Snap.Snaplet.Heist.Internal Pages: 1 -->
<svg width="404pt" height="315pt"
 viewBox="0.00 0.00 404.00 315.00" xmlns="http://www.w3.org/2000/svg" xmlns:xlink="http://www.w3.org/1999/xlink">
<g id="graph0" class="graph" transform="scale(1 1) rotate(0) translate(4 311)">
<title>Levels within Snap.Snaplet.Heist.Internal</title>
<polygon fill="white" stroke="none" points="-4,4 -4,-311 400,-311 400,4 -4,4"/>
<g id="clust1" class="cluster"><title>cluster_0</title>
<polygon fill="lavender" stroke="black" points="8,-8 8,-299 388,-299 388,-8 8,-8"/>
<text text-anchor="middle" x="198" y="-283.8" font-family="Times,serif" font-size="14.00">Exported root entities</text>
</g>
<!-- 1 -->
<g id="node1" class="node"><title>1</title>
<polygon fill="goldenrod" stroke="black" stroke-width="2" points="180,-124 20,-124 16,-120 16,-88 176,-88 180,-92 180,-124"/>
<polyline fill="none" stroke="black" stroke-width="2" points="176,-120 16,-120 "/>
<polyline fill="none" stroke="black" stroke-width="2" points="176,-120 176,-88 "/>
<polyline fill="none" stroke="black" stroke-width="2" points="176,-120 180,-124 "/>
<text text-anchor="middle" x="98" y="-102.3" font-family="Times,serif" font-size="14.00">Data: DefaultMode</text>
</g>
<!-- 2 -->
<g id="node2" class="node"><title>2</title>
<polygon fill="goldenrod" stroke="black" stroke-width="2" points="349,-52 233,-52 229,-48 229,-16 345,-16 349,-20 349,-52"/>
<polyline fill="none" stroke="black" stroke-width="2" points="345,-48 229,-48 "/>
<polyline fill="none" stroke="black" stroke-width="2" points="345,-48 345,-16 "/>
<polyline fill="none" stroke="black" stroke-width="2" points="345,-48 349,-52 "/>
<text text-anchor="middle" x="289" y="-30.3" font-family="Times,serif" font-size="14.00">Data: Heist</text>
</g>
<!-- 10 -->
<g id="node3" class="node"><title>10</title>
<polygon fill="goldenrod" stroke="black" stroke-width="2" points="359.5,-124 218.5,-124 218.5,-88 359.5,-88 359.5,-124"/>
<text text-anchor="middle" x="289" y="-102.3" font-family="Times,serif" font-size="14.00">finalLoadHook</text>
</g>
<!-- 10&#45;&gt;2 -->
<g id="edge1" class="edge"><title>10&#45;&gt;2</title>
<path fill="none" stroke="black" stroke-width="2.09861" d="M289,-87.6966C289,-79.9827 289,-70.7125 289,-62.1124"/>
<polygon fill="black" stroke="black" stroke-width="2.09861" points="292.5,-62.1043 289,-52.1043 285.5,-62.1044 292.5,-62.1043"/>
</g>
<!-- 11 -->
<g id="node4" class="node"><title>11</title>
<polygon fill="gold" stroke="black" stroke-width="2" points="290.5,-268 177.5,-268 177.5,-232 290.5,-232 290.5,-268"/>
<text text-anchor="middle" x="234" y="-246.3" font-family="Times,serif" font-size="14.00">gHeistInit</text>
</g>
<!-- 12 -->
<g id="node5" class="node"><title>12</title>
<polygon fill="goldenrod" stroke="black" stroke-width="2" points="228.5,-196 83.5,-196 83.5,-160 228.5,-160 228.5,-196"/>
<text text-anchor="middle" x="156" y="-174.3" font-family="Times,serif" font-size="14.00">heistInitWorker</text>
</g>
<!-- 11&#45;&gt;12 -->
<g id="edge2" class="edge"><title>11&#45;&gt;12</title>
<path fill="none" stroke="black" d="M214.719,-231.697C205.085,-223.05 193.271,-212.449 182.773,-203.027"/>
<polygon fill="black" stroke="black" points="184.839,-200.179 175.059,-196.104 180.164,-205.388 184.839,-200.179"/>
</g>
<!-- 13 -->
<g id="node6" class="node"><title>13</title>
<polygon fill="goldenrod" stroke="black" stroke-width="2" points="379.5,-196 246.5,-196 246.5,-160 379.5,-160 379.5,-196"/>
<text text-anchor="middle" x="313" y="-174.3" font-family="Times,serif" font-size="14.00">heistReloader</text>
</g>
<!-- 11&#45;&gt;13 -->
<g id="edge3" class="edge"><title>11&#45;&gt;13</title>
<path fill="none" stroke="black" d="M253.528,-231.697C263.382,-222.965 275.486,-212.24 286.196,-202.75"/>
<polygon fill="black" stroke="black" points="288.533,-205.356 293.697,-196.104 283.891,-200.117 288.533,-205.356"/>
</g>
<!-- 12&#45;&gt;1 -->
<g id="edge4" class="edge"><title>12&#45;&gt;1</title>
<path fill="none" stroke="black" d="M141.663,-159.697C134.709,-151.305 126.23,-141.07 118.599,-131.861"/>
<polygon fill="black" stroke="black" points="121.247,-129.571 112.172,-124.104 115.857,-134.038 121.247,-129.571"/>
</g>
<!-- 12&#45;&gt;2 -->
<g id="edge5" class="edge"><title>12&#45;&gt;2</title>
<path fill="none" stroke="black" d="M166.919,-159.946C173.454,-149.621 181.852,-136.144 189,-124 198.285,-108.226 196.572,-101.437 209,-88 219.95,-76.1607 234.057,-65.6972 247.368,-57.2618"/>
<polygon fill="black" stroke="black" points="249.247,-60.2151 255.959,-52.0172 245.6,-54.2404 249.247,-60.2151"/>
</g>
<!-- 12&#45;&gt;10 -->
<g id="edge6" class="edge"><title>12&#45;&gt;10</title>
<path fill="none" stroke="black" d="M188.535,-159.876C206.247,-150.554 228.353,-138.919 247.316,-128.939"/>
<polygon fill="black" stroke="black" points="249.12,-131.944 256.339,-124.19 245.86,-125.75 249.12,-131.944"/>
</g>
<!-- 13&#45;&gt;2 -->
<g id="edge7" class="edge"><title>13&#45;&gt;2</title>
<path fill="none" stroke="black" d="M339.124,-159.816C350.579,-150.692 362.808,-138.386 369,-124 375.326,-109.304 376.57,-102.096 369,-88 362.213,-75.3623 350.942,-65.2302 338.97,-57.3479"/>
<polygon fill="black" stroke="black" points="340.546,-54.2097 330.184,-52.0022 336.908,-60.1899 340.546,-54.2097"/>
</g>
</g>
</svg>
