<?xml version="1.0" encoding="UTF-8" standalone="no"?>
<!DOCTYPE svg PUBLIC "-//W3C//DTD SVG 1.1//EN"
 "http://www.w3.org/Graphics/SVG/1.1/DTD/svg11.dtd">
<!-- Generated by graphviz version 2.38.0 (20140413.2041)
 -->
<!-- Title: Levels within Snap.Snaplet.Internal.RST Pages: 1 -->
<svg width="8055pt" height="278pt"
 viewBox="0.00 0.00 8055.00 277.54" xmlns="http://www.w3.org/2000/svg" xmlns:xlink="http://www.w3.org/1999/xlink">
<g id="graph0" class="graph" transform="scale(1 1) rotate(0) translate(4 273.538)">
<title>Levels within Snap.Snaplet.Internal.RST</title>
<polygon fill="white" stroke="none" points="-4,4 -4,-273.538 8051,-273.538 8051,4 -4,4"/>
<g id="clust1" class="cluster"><title>cluster_0</title>
<polygon fill="lavender" stroke="black" points="8,-8 8,-233.705 3382,-233.705 3382,-8 8,-8"/>
<text text-anchor="middle" x="1695" y="-218.505" font-family="Times,serif" font-size="14.00">Exported root entities</text>
</g>
<g id="clust2" class="cluster"><title>cluster_1</title>
<polygon fill="lavender" stroke="black" points="3390,-134.833 3390,-218.224 8039,-218.224 8039,-134.833 3390,-134.833"/>
<text text-anchor="middle" x="5714.5" y="-203.024" font-family="Times,serif" font-size="14.00">Level = 1</text>
</g>
<!-- 4 -->
<g id="node1" class="node"><title>4</title>
<polygon fill="goldenrod" stroke="black" stroke-width="2" points="3106,-71.6761 2994,-71.6761 2990,-67.6761 2990,-35.6761 3102,-35.6761 3106,-39.6761 3106,-71.6761"/>
<polyline fill="none" stroke="black" stroke-width="2" points="3102,-67.6761 2990,-67.6761 "/>
<polyline fill="none" stroke="black" stroke-width="2" points="3102,-67.6761 3102,-35.6761 "/>
<polyline fill="none" stroke="black" stroke-width="2" points="3102,-67.6761 3106,-71.6761 "/>
<text text-anchor="middle" x="3048" y="-49.9761" font-family="Times,serif" font-size="14.00">Data: RST</text>
</g>
<!-- 9 -->
<g id="node2" class="node"><title>9</title>
<polygon fill="gold" stroke="black" stroke-width="2" points="3374,-183.028 3268,-183.028 3268,-147.028 3374,-147.028 3374,-183.028"/>
<text text-anchor="middle" x="3321" y="-161.328" font-family="Times,serif" font-size="14.00">evalRST</text>
</g>
<!-- 9&#45;&gt;4 -->
<g id="edge11" class="edge"><title>9&#45;&gt;4</title>
<path fill="none" stroke="black" d="M3295.92,-146.946C3284.96,-140.083 3271.73,-132.577 3259,-127.352 3197.97,-102.297 3176.44,-115.387 3115,-91.3523 3104.8,-87.3616 3094.21,-82.1278 3084.54,-76.8686"/>
<polygon fill="black" stroke="black" points="3086.02,-73.691 3075.59,-71.8582 3082.6,-79.7984 3086.02,-73.691"/>
</g>
<!-- 30 -->
<g id="node9" class="node"><title>30</title>
<polygon fill="khaki" stroke="black" stroke-dasharray="1,5" points="3369.86,-39.6615 3369.86,-67.6908 3299.06,-87.5105 3198.94,-87.5105 3128.14,-67.6908 3128.14,-39.6615 3198.94,-19.8418 3299.06,-19.8418 3369.86,-39.6615"/>
<polygon fill="none" stroke="black" stroke-dasharray="1,5" points="3373.86,-36.609 3373.86,-70.7433 3299.61,-91.5293 3198.39,-91.5293 3124.14,-70.7433 3124.14,-36.609 3198.39,-15.823 3299.61,-15.823 3373.86,-36.609"/>
<text text-anchor="middle" x="3249" y="-57.4761" font-family="Times,serif" font-size="14.00">Unknown Module</text>
<text text-anchor="middle" x="3249" y="-42.4761" font-family="Times,serif" font-size="14.00">Class: Monad</text>
</g>
<!-- 9&#45;&gt;30 -->
<g id="edge12" class="edge"><title>9&#45;&gt;30</title>
<path fill="none" stroke="black" d="M3309.75,-146.942C3301.46,-134.359 3289.79,-116.627 3278.89,-100.066"/>
<polygon fill="black" stroke="black" points="3281.7,-97.9728 3273.28,-91.5454 3275.85,-101.822 3281.7,-97.9728"/>
</g>
<!-- 10 -->
<g id="node3" class="node"><title>10</title>
<polygon fill="gold" stroke="black" stroke-width="2" points="3250,-183.028 3142,-183.028 3142,-147.028 3250,-147.028 3250,-183.028"/>
<text text-anchor="middle" x="3196" y="-161.328" font-family="Times,serif" font-size="14.00">execRST</text>
</g>
<!-- 10&#45;&gt;4 -->
<g id="edge13" class="edge"><title>10&#45;&gt;4</title>
<path fill="none" stroke="black" d="M3172.88,-146.942C3147.82,-128.433 3107.7,-98.7859 3079.72,-78.1098"/>
<polygon fill="black" stroke="black" points="3081.57,-75.1309 3071.45,-72.0033 3077.41,-80.7609 3081.57,-75.1309"/>
</g>
<!-- 10&#45;&gt;30 -->
<g id="edge14" class="edge"><title>10&#45;&gt;30</title>
<path fill="none" stroke="black" d="M3204.28,-146.942C3210.27,-134.59 3218.66,-117.276 3226.56,-100.978"/>
<polygon fill="black" stroke="black" points="3229.92,-102.071 3231.13,-91.5454 3223.62,-99.0176 3229.92,-102.071"/>
</g>
<!-- 18 -->
<g id="node4" class="node"><title>18</title>
<polygon fill="goldenrod" stroke="black" stroke-width="2" points="245.5,-183.028 138.5,-183.028 138.5,-147.028 245.5,-147.028 245.5,-183.028"/>
<text text-anchor="middle" x="192" y="-161.328" font-family="Times,serif" font-size="14.00">mapRST</text>
</g>
<!-- 18&#45;&gt;4 -->
<g id="edge25" class="edge"><title>18&#45;&gt;4</title>
<path fill="none" stroke="black" stroke-width="1.69315" d="M214.952,-146.909C226.372,-139.404 240.755,-131.396 255,-127.352 524.195,-50.9319 2577.51,-53.2315 2979.76,-54.4277"/>
<polygon fill="black" stroke="black" stroke-width="1.69315" points="2979.78,-57.9277 2989.79,-54.4583 2979.8,-50.9277 2979.78,-57.9277"/>
</g>
<!-- 25 -->
<g id="node5" class="node"><title>25</title>
<polygon fill="goldenrod" stroke="black" stroke-width="2" points="120,-183.028 16,-183.028 16,-147.028 120,-147.028 120,-183.028"/>
<text text-anchor="middle" x="68" y="-161.328" font-family="Times,serif" font-size="14.00">rwsBind</text>
</g>
<!-- 25&#45;&gt;4 -->
<g id="edge28" class="edge"><title>25&#45;&gt;4</title>
<path fill="none" stroke="black" stroke-width="2.09861" d="M90.1439,-146.904C101.183,-139.399 115.118,-131.391 129,-127.352 270.189,-86.2763 2553.85,-59.9522 2979.86,-55.3867"/>
<polygon fill="black" stroke="black" stroke-width="2.09861" points="2979.91,-58.8865 2989.87,-55.2798 2979.83,-51.8869 2979.91,-58.8865"/>
</g>
<!-- 27 -->
<g id="node6" class="node"><title>27</title>
<polygon fill="gold" stroke="black" stroke-width="2" points="370.5,-183.028 263.5,-183.028 263.5,-147.028 370.5,-147.028 370.5,-183.028"/>
<text text-anchor="middle" x="317" y="-161.328" font-family="Times,serif" font-size="14.00">withRST</text>
</g>
<!-- 27&#45;&gt;4 -->
<g id="edge29" class="edge"><title>27&#45;&gt;4</title>
<path fill="none" stroke="black" stroke-width="1.69315" d="M339.551,-146.917C350.782,-139.415 364.94,-131.406 379,-127.352 635.267,-53.4665 2587.9,-53.6906 2979.68,-54.4894"/>
<polygon fill="black" stroke="black" stroke-width="1.69315" points="2979.72,-57.9894 2989.73,-54.5108 2979.74,-50.9894 2979.72,-57.9894"/>
</g>
<!-- 28 -->
<g id="node7" class="node"><title>28</title>
<polygon fill="khaki" stroke="black" stroke-dasharray="1,5" points="2271.86,-151.014 2271.86,-179.043 2201.06,-198.863 2100.94,-198.863 2030.14,-179.043 2030.14,-151.014 2100.94,-131.194 2201.06,-131.194 2271.86,-151.014"/>
<polygon fill="none" stroke="black" stroke-dasharray="1,5" points="2275.86,-147.961 2275.86,-182.096 2201.61,-202.882 2100.39,-202.882 2026.14,-182.096 2026.14,-147.961 2100.39,-127.175 2201.61,-127.175 2275.86,-147.961"/>
<text text-anchor="middle" x="2151" y="-168.828" font-family="Times,serif" font-size="14.00">Unknown Module</text>
<text text-anchor="middle" x="2151" y="-153.828" font-family="Times,serif" font-size="14.00">Class: Applicative</text>
</g>
<!-- 1 -->
<g id="node18" class="node"><title>1</title>
<polygon fill="bisque" stroke="black" stroke-width="2" points="8030.64,-155.753 8030.64,-174.304 7911.94,-187.421 7744.06,-187.421 7625.36,-174.304 7625.36,-155.753 7744.06,-142.635 7911.94,-142.635 8030.64,-155.753"/>
<text text-anchor="middle" x="7828" y="-161.328" font-family="Times,serif" font-size="14.00">Class: Applicative, Data: (RST r s m)</text>
</g>
<!-- 28&#45;&gt;1 -->
<g id="edge30" class="edge"><title>28&#45;&gt;1</title>
<path fill="none" stroke="navy" stroke-width="1.69315" d="M2198.52,-202.897C2224.97,-221.545 2259.47,-242.057 2294,-251.705 2365.07,-271.562 7534.49,-265.415 7607,-251.705 7671.79,-239.453 7741.92,-208.658 7785.41,-187.285"/>
</g>
<!-- 29 -->
<g id="node8" class="node"><title>29</title>
<polygon fill="khaki" stroke="black" stroke-dasharray="1,5" points="2003.86,-151.014 2003.86,-179.043 1933.06,-198.863 1832.94,-198.863 1762.14,-179.043 1762.14,-151.014 1832.94,-131.194 1933.06,-131.194 2003.86,-151.014"/>
<polygon fill="none" stroke="black" stroke-dasharray="1,5" points="2007.86,-147.961 2007.86,-182.096 1933.61,-202.882 1832.39,-202.882 1758.14,-182.096 1758.14,-147.961 1832.39,-127.175 1933.61,-127.175 2007.86,-147.961"/>
<text text-anchor="middle" x="1883" y="-168.828" font-family="Times,serif" font-size="14.00">Unknown Module</text>
<text text-anchor="middle" x="1883" y="-153.828" font-family="Times,serif" font-size="14.00">Class: Alternative</text>
</g>
<!-- 2 -->
<g id="node19" class="node"><title>2</title>
<polygon fill="bisque" stroke="black" stroke-width="2" points="7607.08,-155.753 7607.08,-174.304 7489.29,-187.421 7322.71,-187.421 7204.92,-174.304 7204.92,-155.753 7322.71,-142.635 7489.29,-142.635 7607.08,-155.753"/>
<text text-anchor="middle" x="7406" y="-161.328" font-family="Times,serif" font-size="14.00">Class: Alternative, Data: (RST r s m)</text>
</g>
<!-- 29&#45;&gt;2 -->
<g id="edge31" class="edge"><title>29&#45;&gt;2</title>
<path fill="none" stroke="navy" stroke-width="1.69315" d="M1930.52,-202.897C1956.97,-221.545 1991.47,-242.057 2026,-251.705 2095.02,-270.99 7115.59,-265.074 7186,-251.705 7250.53,-239.451 7320.33,-208.657 7363.61,-187.284"/>
</g>
<!-- 3 -->
<g id="node20" class="node"><title>3</title>
<polygon fill="bisque" stroke="black" stroke-width="2" points="7186.41,-155.753 7186.41,-174.304 7078.38,-187.421 6925.62,-187.421 6817.59,-174.304 6817.59,-155.753 6925.62,-142.635 7078.38,-142.635 7186.41,-155.753"/>
<text text-anchor="middle" x="7002" y="-161.328" font-family="Times,serif" font-size="14.00">Class: Monad, Data: (RST r s m)</text>
</g>
<!-- 30&#45;&gt;3 -->
<g id="edge32" class="edge"><title>30&#45;&gt;3</title>
<path fill="none" stroke="navy" stroke-width="2.09861" d="M3374.04,-54.4247C3923.92,-53.7258 6129.96,-55.4657 6818,-127.352 6851.24,-130.826 6887.32,-137.014 6918.68,-143.331"/>
</g>
<!-- 31 -->
<g id="node10" class="node"><title>31</title>
<polygon fill="khaki" stroke="black" stroke-dasharray="1,5" points="1736.32,-151.014 1736.32,-179.043 1658.81,-198.863 1549.19,-198.863 1471.68,-179.043 1471.68,-151.014 1549.19,-131.194 1658.81,-131.194 1736.32,-151.014"/>
<polygon fill="none" stroke="black" stroke-dasharray="1,5" points="1740.32,-147.889 1740.32,-182.168 1659.31,-202.882 1548.69,-202.882 1467.68,-182.168 1467.68,-147.889 1548.69,-127.175 1659.31,-127.175 1740.32,-147.889"/>
<text text-anchor="middle" x="1604" y="-168.828" font-family="Times,serif" font-size="14.00">Unknown Module</text>
<text text-anchor="middle" x="1604" y="-153.828" font-family="Times,serif" font-size="14.00">Class: MonadReader</text>
</g>
<!-- 5 -->
<g id="node21" class="node"><title>5</title>
<polygon fill="bisque" stroke="black" stroke-width="2" points="6799.82,-155.753 6799.82,-174.304 6671.05,-187.421 6488.95,-187.421 6360.18,-174.304 6360.18,-155.753 6488.95,-142.635 6671.05,-142.635 6799.82,-155.753"/>
<text text-anchor="middle" x="6580" y="-161.328" font-family="Times,serif" font-size="14.00">Class: MonadReader, Data: r (RST r s m)</text>
</g>
<!-- 31&#45;&gt;5 -->
<g id="edge33" class="edge"><title>31&#45;&gt;5</title>
<path fill="none" stroke="navy" stroke-width="1.69315" d="M1655.6,-202.931C1684.22,-221.589 1721.35,-242.099 1758,-251.705 1819.59,-267.846 6279.3,-262.766 6342,-251.705 6411.29,-239.48 6486.94,-208.678 6533.93,-187.296"/>
</g>
<!-- 32 -->
<g id="node11" class="node"><title>32</title>
<polygon fill="khaki" stroke="black" stroke-dasharray="1,5" points="3119.54,-151.014 3119.54,-179.043 3038.97,-198.863 2925.03,-198.863 2844.46,-179.043 2844.46,-151.014 2925.03,-131.194 3038.97,-131.194 3119.54,-151.014"/>
<polygon fill="none" stroke="black" stroke-dasharray="1,5" points="3123.53,-147.859 3123.53,-182.198 3039.45,-202.882 2924.55,-202.882 2840.47,-182.198 2840.47,-147.859 2924.55,-127.175 3039.45,-127.175 3123.53,-147.859"/>
<text text-anchor="middle" x="2982" y="-168.828" font-family="Times,serif" font-size="14.00">Unknown Module</text>
<text text-anchor="middle" x="2982" y="-153.828" font-family="Times,serif" font-size="14.00">Class: MonadCatchIO</text>
</g>
<!-- 6 -->
<g id="node22" class="node"><title>6</title>
<polygon fill="bisque" stroke="black" stroke-width="2" points="3837.82,-155.753 3837.82,-174.304 3709.05,-187.421 3526.95,-187.421 3398.18,-174.304 3398.18,-155.753 3526.95,-142.635 3709.05,-142.635 3837.82,-155.753"/>
<text text-anchor="middle" x="3618" y="-161.328" font-family="Times,serif" font-size="14.00">Class: MonadCatchIO, Data: (RST r s m)</text>
</g>
<!-- 32&#45;&gt;6 -->
<g id="edge34" class="edge"><title>32&#45;&gt;6</title>
<path fill="none" stroke="navy" stroke-width="2.09861" d="M3035.46,-202.721C3065.3,-221.443 3104.03,-242.08 3142,-251.705 3243.24,-277.366 3274.11,-269.645 3377,-251.705 3447.09,-239.485 3523.7,-208.682 3571.31,-187.298"/>
</g>
<!-- 36 -->
<g id="node12" class="node"><title>36</title>
<polygon fill="khaki" stroke="black" stroke-dasharray="1,5" points="2817.86,-151.014 2817.86,-179.043 2747.06,-198.863 2646.94,-198.863 2576.14,-179.043 2576.14,-151.014 2646.94,-131.194 2747.06,-131.194 2817.86,-151.014"/>
<polygon fill="none" stroke="black" stroke-dasharray="1,5" points="2821.86,-147.961 2821.86,-182.096 2747.61,-202.882 2646.39,-202.882 2572.14,-182.096 2572.14,-147.961 2646.39,-127.175 2747.61,-127.175 2821.86,-147.961"/>
<text text-anchor="middle" x="2697" y="-168.828" font-family="Times,serif" font-size="14.00">Unknown Module</text>
<text text-anchor="middle" x="2697" y="-153.828" font-family="Times,serif" font-size="14.00">Class: Functor</text>
</g>
<!-- 12 -->
<g id="node23" class="node"><title>12</title>
<polygon fill="bisque" stroke="black" stroke-width="2" points="4652,-155.753 4652,-174.304 4542.46,-187.421 4387.54,-187.421 4278,-174.304 4278,-155.753 4387.54,-142.635 4542.46,-142.635 4652,-155.753"/>
<text text-anchor="middle" x="4465" y="-161.328" font-family="Times,serif" font-size="14.00">Class: Functor, Data: (RST r s m)</text>
</g>
<!-- 36&#45;&gt;12 -->
<g id="edge35" class="edge"><title>36&#45;&gt;12</title>
<path fill="none" stroke="navy" d="M2744.52,-202.897C2770.97,-221.545 2805.47,-242.057 2840,-251.705 2915.98,-272.933 4182.68,-267.378 4260,-251.705 4320.59,-239.421 4385.52,-208.634 4425.7,-187.271"/>
</g>
<!-- 37 -->
<g id="node13" class="node"><title>37</title>
<polygon fill="khaki" stroke="black" stroke-dasharray="1,5" points="906.441,-151.014 906.441,-179.043 834.131,-198.863 731.869,-198.863 659.559,-179.043 659.559,-151.014 731.869,-131.194 834.131,-131.194 906.441,-151.014"/>
<polygon fill="none" stroke="black" stroke-dasharray="1,5" points="910.449,-147.946 910.449,-182.111 834.669,-202.882 731.331,-202.882 655.551,-182.111 655.551,-147.946 731.331,-127.175 834.669,-127.175 910.449,-147.946"/>
<text text-anchor="middle" x="783" y="-168.828" font-family="Times,serif" font-size="14.00">Unknown Module</text>
<text text-anchor="middle" x="783" y="-153.828" font-family="Times,serif" font-size="14.00">Class: MonadState</text>
</g>
<!-- 13 -->
<g id="node24" class="node"><title>13</title>
<polygon fill="bisque" stroke="black" stroke-width="2" points="6342.01,-155.753 6342.01,-174.304 6217.82,-187.421 6042.18,-187.421 5917.99,-174.304 5917.99,-155.753 6042.18,-142.635 6217.82,-142.635 6342.01,-155.753"/>
<text text-anchor="middle" x="6130" y="-161.328" font-family="Times,serif" font-size="14.00">Class: MonadState, Data: s (RST r s m)</text>
</g>
<!-- 37&#45;&gt;13 -->
<g id="edge36" class="edge"><title>37&#45;&gt;13</title>
<path fill="none" stroke="navy" stroke-width="1.69315" d="M831.263,-202.904C858.112,-221.554 893.086,-242.065 928,-251.705 994.565,-270.083 5832.06,-264.081 5900,-251.705 5967.17,-239.468 6040.22,-208.669 6085.56,-187.291"/>
</g>
<!-- 38 -->
<g id="node14" class="node"><title>38</title>
<polygon fill="khaki" stroke="black" stroke-dasharray="1,5" points="2550.08,-151.014 2550.08,-179.043 2476.22,-198.863 2371.78,-198.863 2297.92,-179.043 2297.92,-151.014 2371.78,-131.194 2476.22,-131.194 2550.08,-151.014"/>
<polygon fill="none" stroke="black" stroke-dasharray="1,5" points="2554.07,-147.926 2554.07,-182.131 2476.75,-202.882 2371.25,-202.882 2293.93,-182.131 2293.93,-147.926 2371.25,-127.175 2476.75,-127.175 2554.07,-147.926"/>
<text text-anchor="middle" x="2424" y="-168.828" font-family="Times,serif" font-size="14.00">Unknown Module</text>
<text text-anchor="middle" x="2424" y="-153.828" font-family="Times,serif" font-size="14.00">Class: MonadTrans</text>
</g>
<!-- 14 -->
<g id="node25" class="node"><title>14</title>
<polygon fill="bisque" stroke="black" stroke-width="2" points="5899.9,-155.753 5899.9,-174.304 5784.56,-187.421 5621.44,-187.421 5506.1,-174.304 5506.1,-155.753 5621.44,-142.635 5784.56,-142.635 5899.9,-155.753"/>
<text text-anchor="middle" x="5703" y="-161.328" font-family="Times,serif" font-size="14.00">Class: MonadTrans, Data: (RST r s)</text>
</g>
<!-- 38&#45;&gt;14 -->
<g id="edge37" class="edge"><title>38&#45;&gt;14</title>
<path fill="none" stroke="navy" d="M2473.38,-202.913C2500.82,-221.566 2536.51,-242.077 2572,-251.705 2650.17,-272.911 5408.48,-267.13 5488,-251.705 5551.21,-239.442 5619.4,-208.65 5661.64,-187.28"/>
</g>
<!-- 39 -->
<g id="node15" class="node"><title>39</title>
<polygon fill="khaki" stroke="black" stroke-dasharray="1,5" points="1445.86,-151.014 1445.86,-179.043 1375.06,-198.863 1274.94,-198.863 1204.14,-179.043 1204.14,-151.014 1274.94,-131.194 1375.06,-131.194 1445.86,-151.014"/>
<polygon fill="none" stroke="black" stroke-dasharray="1,5" points="1449.86,-147.961 1449.86,-182.096 1375.61,-202.882 1274.39,-202.882 1200.14,-182.096 1200.14,-147.961 1274.39,-127.175 1375.61,-127.175 1449.86,-147.961"/>
<text text-anchor="middle" x="1325" y="-168.828" font-family="Times,serif" font-size="14.00">Unknown Module</text>
<text text-anchor="middle" x="1325" y="-153.828" font-family="Times,serif" font-size="14.00">Class: MonadIO</text>
</g>
<!-- 15 -->
<g id="node26" class="node"><title>15</title>
<polygon fill="bisque" stroke="black" stroke-width="2" points="5488.34,-155.753 5488.34,-174.304 5373.91,-187.421 5212.09,-187.421 5097.66,-174.304 5097.66,-155.753 5212.09,-142.635 5373.91,-142.635 5488.34,-155.753"/>
<text text-anchor="middle" x="5293" y="-161.328" font-family="Times,serif" font-size="14.00">Class: MonadIO, Data: (RST r s m)</text>
</g>
<!-- 39&#45;&gt;15 -->
<g id="edge38" class="edge"><title>39&#45;&gt;15</title>
<path fill="none" stroke="navy" d="M1372.52,-202.897C1398.97,-221.545 1433.47,-242.057 1468,-251.705 1564.63,-278.704 4981.53,-270.972 5080,-251.705 5142.69,-239.438 5210.22,-208.647 5252.05,-187.278"/>
</g>
<!-- 40 -->
<g id="node16" class="node"><title>40</title>
<polygon fill="khaki" stroke="black" stroke-dasharray="1,5" points="1178.44,-151.014 1178.44,-179.043 1106.13,-198.863 1003.87,-198.863 931.559,-179.043 931.559,-151.014 1003.87,-131.194 1106.13,-131.194 1178.44,-151.014"/>
<polygon fill="none" stroke="black" stroke-dasharray="1,5" points="1182.45,-147.946 1182.45,-182.111 1106.67,-202.882 1003.33,-202.882 927.551,-182.111 927.551,-147.946 1003.33,-127.175 1106.67,-127.175 1182.45,-147.946"/>
<text text-anchor="middle" x="1055" y="-168.828" font-family="Times,serif" font-size="14.00">Unknown Module</text>
<text text-anchor="middle" x="1055" y="-153.828" font-family="Times,serif" font-size="14.00">Class: MonadSnap</text>
</g>
<!-- 16 -->
<g id="node27" class="node"><title>16</title>
<polygon fill="bisque" stroke="black" stroke-width="2" points="5080.24,-155.753 5080.24,-174.304 4960.01,-187.421 4789.99,-187.421 4669.76,-174.304 4669.76,-155.753 4789.99,-142.635 4960.01,-142.635 5080.24,-155.753"/>
<text text-anchor="middle" x="4875" y="-161.328" font-family="Times,serif" font-size="14.00">Class: MonadSnap, Data: (RST r s m)</text>
</g>
<!-- 40&#45;&gt;16 -->
<g id="edge39" class="edge"><title>40&#45;&gt;16</title>
<path fill="none" stroke="navy" d="M1103.26,-202.904C1130.11,-221.554 1165.09,-242.065 1200,-251.705 1292.43,-277.225 4557.75,-269.377 4652,-251.705 4717.32,-239.456 4788.1,-208.661 4832,-187.286"/>
</g>
<!-- 42 -->
<g id="node17" class="node"><title>42</title>
<polygon fill="khaki" stroke="black" stroke-dasharray="1,5" points="633.858,-151.014 633.858,-179.043 563.061,-198.863 462.939,-198.863 392.142,-179.043 392.142,-151.014 462.939,-131.194 563.061,-131.194 633.858,-151.014"/>
<polygon fill="none" stroke="black" stroke-dasharray="1,5" points="637.856,-147.961 637.856,-182.096 563.607,-202.882 462.393,-202.882 388.144,-182.096 388.144,-147.961 462.393,-127.175 563.607,-127.175 637.856,-147.961"/>
<text text-anchor="middle" x="513" y="-168.828" font-family="Times,serif" font-size="14.00">Unknown Module</text>
<text text-anchor="middle" x="513" y="-153.828" font-family="Times,serif" font-size="14.00">Class: MonadPlus</text>
</g>
<!-- 19 -->
<g id="node28" class="node"><title>19</title>
<polygon fill="bisque" stroke="black" stroke-width="2" points="4260.11,-155.753 4260.11,-174.304 4141.72,-187.421 3974.28,-187.421 3855.89,-174.304 3855.89,-155.753 3974.28,-142.635 4141.72,-142.635 4260.11,-155.753"/>
<text text-anchor="middle" x="4058" y="-161.328" font-family="Times,serif" font-size="14.00">Class: MonadPlus, Data: (RST r s m)</text>
</g>
<!-- 42&#45;&gt;19 -->
<g id="edge40" class="edge"><title>42&#45;&gt;19</title>
<path fill="none" stroke="navy" stroke-width="1.69315" d="M560.518,-202.897C586.975,-221.545 621.469,-242.057 656,-251.705 741.128,-275.49 3751.16,-268.194 3838,-251.705 3902.53,-239.451 3972.33,-208.657 4015.61,-187.284"/>
</g>
<!-- 1&#45;&gt;30 -->
<g id="edge1" class="edge"><title>1&#45;&gt;30</title>
<path fill="none" stroke="black" d="M7731.06,-144.013C7695.09,-137.444 7653.84,-130.919 7616,-127.352 7186.79,-86.8994 4073.85,-60.9654 3384.1,-55.6788"/>
<polygon fill="black" stroke="black" points="3383.9,-52.1773 3373.87,-55.6006 3383.85,-59.1771 3383.9,-52.1773"/>
</g>
<!-- 2&#45;&gt;42 -->
<g id="edge2" class="edge"><title>2&#45;&gt;42</title>
<path fill="none" stroke="black" stroke-width="1.69315" d="M7363.61,-187.284C7320.33,-208.657 7250.53,-239.451 7186,-251.705 7096.9,-268.624 743.349,-276.11 656,-251.705 624.976,-243.036 593.982,-225.599 568.819,-208.623"/>
<polygon fill="black" stroke="black" stroke-width="1.69315" points="570.737,-205.694 560.518,-202.897 566.762,-211.456 570.737,-205.694"/>
</g>
<!-- 3&#45;&gt;4 -->
<g id="edge3" class="edge"><title>3&#45;&gt;4</title>
<path fill="none" stroke="black" stroke-width="1.69315" d="M6914.09,-143.904C6881.29,-137.302 6843.62,-130.783 6809,-127.352 6604.77,-107.115 3313.58,-143.18 3115,-91.3523 3103.29,-88.296 3091.41,-82.7575 3080.98,-76.895"/>
<polygon fill="black" stroke="black" stroke-width="1.69315" points="3082.61,-73.7926 3072.22,-71.714 3079.04,-79.8175 3082.61,-73.7926"/>
</g>
<!-- 3&#45;&gt;25 -->
<g id="edge4" class="edge"><title>3&#45;&gt;25</title>
<path fill="none" stroke="black" d="M6963.32,-187.269C6923.76,-208.629 6859.81,-239.415 6800,-251.705 6754.68,-261.017 179.744,-271.649 138,-251.705 112.422,-239.484 93.1887,-212.849 81.4181,-192.308"/>
<polygon fill="black" stroke="black" points="84.4037,-190.473 76.5392,-183.373 78.2599,-193.828 84.4037,-190.473"/>
</g>
<!-- 3&#45;&gt;30 -->
<g id="edge5" class="edge"><title>3&#45;&gt;30</title>
<path fill="none" stroke="black" stroke-width="1.69315" d="M6908.57,-144.685C6874.49,-137.912 6835.62,-131.074 6800,-127.352 6118.64,-56.1639 3948.62,-53.7662 3384.21,-54.4051"/>
<polygon fill="black" stroke="black" stroke-width="1.69315" points="3383.99,-50.9052 3373.99,-54.4172 3383.99,-57.9052 3383.99,-50.9052"/>
</g>
<!-- 5&#45;&gt;4 -->
<g id="edge6" class="edge"><title>5&#45;&gt;4</title>
<path fill="none" stroke="black" stroke-width="2.09861" d="M6475.52,-143.964C6436.59,-137.368 6391.92,-130.838 6351,-127.352 6171.86,-112.095 3288.93,-136.875 3115,-91.3523 3103.29,-88.2879 3091.42,-82.7471 3080.98,-76.885"/>
<polygon fill="black" stroke="black" stroke-width="2.09861" points="3082.61,-73.7825 3072.22,-71.7049 3079.05,-79.8078 3082.61,-73.7825"/>
</g>
<!-- 5&#45;&gt;30 -->
<g id="edge7" class="edge"><title>5&#45;&gt;30</title>
<path fill="none" stroke="black" d="M6474.63,-144.092C6435.9,-137.574 6391.6,-131.062 6351,-127.352 5762.29,-73.5621 3902.93,-58.5854 3384.42,-55.4072"/>
<polygon fill="black" stroke="black" points="3384.3,-51.9064 3374.28,-55.3454 3384.26,-58.9063 3384.3,-51.9064"/>
</g>
<!-- 6&#45;&gt;4 -->
<g id="edge8" class="edge"><title>6&#45;&gt;4</title>
<path fill="none" stroke="black" stroke-width="2.09861" d="M3502.14,-145.136C3465.07,-139.245 3423.83,-132.855 3386,-127.352 3265.76,-109.865 3230.47,-129.164 3115,-91.3523 3104.1,-87.782 3092.91,-82.436 3082.88,-76.9224"/>
<polygon fill="black" stroke="black" stroke-width="2.09861" points="3084.45,-73.7881 3074.03,-71.8578 3080.97,-79.8632 3084.45,-73.7881"/>
</g>
<!-- 6&#45;&gt;18 -->
<g id="edge9" class="edge"><title>6&#45;&gt;18</title>
<path fill="none" stroke="black" stroke-width="1.69315" d="M3571.31,-187.298C3523.7,-208.682 3447.09,-239.485 3377,-251.705 3334.41,-259.131 303.14,-270.074 264,-251.705 238.047,-239.524 218.212,-212.883 205.996,-192.33"/>
<polygon fill="black" stroke="black" stroke-width="1.69315" points="208.903,-190.361 200.925,-183.389 202.814,-193.814 208.903,-190.361"/>
</g>
<!-- 6&#45;&gt;32 -->
<g id="edge10" class="edge"><title>6&#45;&gt;32</title>
<path fill="none" stroke="black" stroke-width="2.09861" d="M3571.31,-187.298C3523.7,-208.682 3447.09,-239.485 3377,-251.705 3274.11,-269.645 3243.24,-277.366 3142,-251.705 3107.59,-242.982 3072.56,-225.216 3044.08,-208.026"/>
<polygon fill="black" stroke="black" stroke-width="2.09861" points="3045.81,-204.982 3035.46,-202.721 3042.14,-210.943 3045.81,-204.982"/>
</g>
<!-- 12&#45;&gt;4 -->
<g id="edge15" class="edge"><title>12&#45;&gt;4</title>
<path fill="none" stroke="black" stroke-width="1.69315" d="M4374.68,-144.122C4341.6,-137.629 4303.76,-131.124 4269,-127.352 4013.93,-99.675 3362.54,-158.802 3115,-91.3523 3103.42,-88.1976 3091.66,-82.6905 3081.29,-76.8881"/>
<polygon fill="black" stroke="black" stroke-width="1.69315" points="3082.96,-73.8144 3072.57,-71.7649 3079.42,-79.8493 3082.96,-73.8144"/>
</g>
<!-- 12&#45;&gt;36 -->
<g id="edge16" class="edge"><title>12&#45;&gt;36</title>
<path fill="none" stroke="black" d="M4425.7,-187.271C4385.52,-208.634 4320.59,-239.421 4260,-251.705 4182.68,-267.378 2915.98,-272.933 2840,-251.705 2808.98,-243.036 2777.98,-225.599 2752.82,-208.623"/>
<polygon fill="black" stroke="black" points="2754.74,-205.694 2744.52,-202.897 2750.76,-211.456 2754.74,-205.694"/>
</g>
<!-- 13&#45;&gt;4 -->
<g id="edge17" class="edge"><title>13&#45;&gt;4</title>
<path fill="none" stroke="black" stroke-width="1.69315" d="M6029.19,-143.994C5991.63,-137.401 5948.51,-130.865 5909,-127.352 5754.37,-113.606 3265.14,-130.79 3115,-91.3523 3103.29,-88.2776 3091.42,-82.7338 3080.98,-76.8722"/>
<polygon fill="black" stroke="black" stroke-width="1.69315" points="3082.61,-73.7697 3072.22,-71.6933 3079.05,-79.7954 3082.61,-73.7697"/>
</g>
<!-- 13&#45;&gt;30 -->
<g id="edge18" class="edge"><title>13&#45;&gt;30</title>
<path fill="none" stroke="black" stroke-width="1.69315" d="M6028.06,-144.11C5990.75,-137.615 5948.1,-131.113 5909,-127.352 5411.29,-79.4818 3853.41,-60.6044 3384.11,-55.9156"/>
<polygon fill="black" stroke="black" stroke-width="1.69315" points="3383.94,-52.4138 3373.9,-55.8141 3383.87,-59.4134 3383.94,-52.4138"/>
</g>
<!-- 14&#45;&gt;4 -->
<g id="edge19" class="edge"><title>14&#45;&gt;4</title>
<path fill="none" stroke="black" d="M5609.09,-144.022C5574.08,-137.432 5533.88,-130.891 5497,-127.352 5233.51,-102.072 3370.94,-158.884 3115,-91.3523 3103.3,-88.2646 3091.42,-82.7171 3080.99,-76.856"/>
<polygon fill="black" stroke="black" points="3082.62,-73.7535 3072.23,-71.6786 3079.06,-79.7797 3082.62,-73.7535"/>
</g>
<!-- 14&#45;&gt;30 -->
<g id="edge20" class="edge"><title>14&#45;&gt;30</title>
<path fill="none" stroke="black" d="M5607.77,-144.125C5573.06,-137.652 5533.4,-131.161 5497,-127.352 5083.72,-84.1085 3803.82,-62.5354 3383.94,-56.4898"/>
<polygon fill="black" stroke="black" points="3383.93,-52.9893 3373.88,-56.3455 3383.83,-59.9886 3383.93,-52.9893"/>
</g>
<!-- 15&#45;&gt;38 -->
<g id="edge21" class="edge"><title>15&#45;&gt;38</title>
<path fill="none" stroke="black" d="M5252.05,-187.278C5210.22,-208.647 5142.69,-239.438 5080,-251.705 5011.63,-265.083 2639.24,-269.944 2572,-251.705 2540.11,-243.054 2508.06,-225.62 2481.98,-208.641"/>
<polygon fill="black" stroke="black" points="2483.64,-205.54 2473.38,-202.913 2479.76,-211.367 2483.64,-205.54"/>
</g>
<!-- 15&#45;&gt;39 -->
<g id="edge22" class="edge"><title>15&#45;&gt;39</title>
<path fill="none" stroke="black" d="M5252.05,-187.278C5210.22,-208.647 5142.69,-239.438 5080,-251.705 4981.53,-270.972 1564.63,-278.704 1468,-251.705 1436.98,-243.036 1405.98,-225.599 1380.82,-208.623"/>
<polygon fill="black" stroke="black" points="1382.74,-205.694 1372.52,-202.897 1378.76,-211.456 1382.74,-205.694"/>
</g>
<!-- 16&#45;&gt;38 -->
<g id="edge23" class="edge"><title>16&#45;&gt;38</title>
<path fill="none" stroke="black" d="M4832,-187.286C4788.1,-208.661 4717.32,-239.456 4652,-251.705 4595.21,-262.353 2627.76,-266.832 2572,-251.705 2540.11,-243.054 2508.06,-225.62 2481.98,-208.641"/>
<polygon fill="black" stroke="black" points="2483.64,-205.54 2473.38,-202.913 2479.76,-211.367 2483.64,-205.54"/>
</g>
<!-- 16&#45;&gt;40 -->
<g id="edge24" class="edge"><title>16&#45;&gt;40</title>
<path fill="none" stroke="black" d="M4832,-187.286C4788.1,-208.661 4717.32,-239.456 4652,-251.705 4557.75,-269.377 1292.43,-277.225 1200,-251.705 1168.63,-243.044 1137.22,-225.608 1111.69,-208.63"/>
<polygon fill="black" stroke="black" points="1113.5,-205.632 1103.26,-202.904 1109.56,-211.421 1113.5,-205.632"/>
</g>
<!-- 19&#45;&gt;4 -->
<g id="edge26" class="edge"><title>19&#45;&gt;4</title>
<path fill="none" stroke="black" stroke-width="2.38629" d="M3959.07,-144.246C3923.83,-137.886 3883.77,-131.436 3847,-127.352 3685.13,-109.373 3271.74,-135.576 3115,-91.3523 3103.55,-88.1217 3091.9,-82.6507 3081.59,-76.9066"/>
<polygon fill="black" stroke="black" stroke-width="2.38629" points="3083.31,-73.8616 3072.91,-71.8378 3079.78,-79.9053 3083.31,-73.8616"/>
</g>
<!-- 19&#45;&gt;42 -->
<g id="edge27" class="edge"><title>19&#45;&gt;42</title>
<path fill="none" stroke="black" stroke-width="1.69315" d="M4015.61,-187.284C3972.33,-208.657 3902.53,-239.451 3838,-251.705 3751.16,-268.194 741.128,-275.49 656,-251.705 624.976,-243.036 593.982,-225.599 568.819,-208.623"/>
<polygon fill="black" stroke="black" stroke-width="1.69315" points="570.737,-205.694 560.518,-202.897 566.762,-211.456 570.737,-205.694"/>
</g>
</g>
</svg>
