<?xml version="1.0" encoding="UTF-8" standalone="no"?>
<!DOCTYPE svg PUBLIC "-//W3C//DTD SVG 1.1//EN"
 "http://www.w3.org/Graphics/SVG/1.1/DTD/svg11.dtd">
<!-- Generated by graphviz version 2.38.0 (20140413.2041)
 -->
<!-- Title: Levels within Snap.Snaplet.Internal.Lensed Pages: 1 -->
<svg width="7789pt" height="433pt"
 viewBox="0.00 0.00 7789.00 433.06" xmlns="http://www.w3.org/2000/svg" xmlns:xlink="http://www.w3.org/1999/xlink">
<g id="graph0" class="graph" transform="scale(1 1) rotate(0) translate(4 429.057)">
<title>Levels within Snap.Snaplet.Internal.Lensed</title>
<polygon fill="white" stroke="none" points="-4,4 -4,-429.057 7785,-429.057 7785,4 -4,4"/>
<g id="clust1" class="cluster"><title>cluster_0</title>
<polygon fill="lavender" stroke="black" points="8,-8 8,-417.057 2715,-417.057 2715,-8 8,-8"/>
<text text-anchor="middle" x="1361.5" y="-401.857" font-family="Times,serif" font-size="14.00">Exported root entities</text>
</g>
<g id="clust2" class="cluster"><title>cluster_1</title>
<polygon fill="lavender" stroke="black" points="2723,-206.833 2723,-290.224 7773,-290.224 7773,-206.833 2723,-206.833"/>
<text text-anchor="middle" x="5248" y="-275.024" font-family="Times,serif" font-size="14.00">Level = 1</text>
</g>
<!-- 4 -->
<g id="node1" class="node"><title>4</title>
<polygon fill="goldenrod" stroke="black" stroke-width="2" points="2706.5,-71.6761 2579.5,-71.6761 2575.5,-67.6761 2575.5,-35.6761 2702.5,-35.6761 2706.5,-39.6761 2706.5,-71.6761"/>
<polyline fill="none" stroke="black" stroke-width="2" points="2702.5,-67.6761 2575.5,-67.6761 "/>
<polyline fill="none" stroke="black" stroke-width="2" points="2702.5,-67.6761 2702.5,-35.6761 "/>
<polyline fill="none" stroke="black" stroke-width="2" points="2702.5,-67.6761 2706.5,-71.6761 "/>
<text text-anchor="middle" x="2641" y="-49.9761" font-family="Times,serif" font-size="14.00">Data: Lensed</text>
</g>
<!-- 8 -->
<g id="node2" class="node"><title>8</title>
<polygon fill="gold" stroke="black" stroke-width="2" points="2317.5,-255.028 2222.5,-255.028 2222.5,-219.028 2317.5,-219.028 2317.5,-255.028"/>
<text text-anchor="middle" x="2270" y="-233.328" font-family="Times,serif" font-size="14.00">embed</text>
</g>
<!-- 14 -->
<g id="node5" class="node"><title>14</title>
<polygon fill="goldenrod" stroke="black" stroke-width="2" points="2337.5,-163.352 2202.5,-163.352 2202.5,-127.352 2337.5,-127.352 2337.5,-163.352"/>
<text text-anchor="middle" x="2270" y="-141.652" font-family="Times,serif" font-size="14.00">lensedAsState</text>
</g>
<!-- 8&#45;&gt;14 -->
<g id="edge13" class="edge"><title>8&#45;&gt;14</title>
<path fill="none" stroke="black" d="M2270,-218.738C2270,-205.96 2270,-188.308 2270,-173.635"/>
<polygon fill="black" stroke="black" points="2273.5,-173.59 2270,-163.59 2266.5,-173.59 2273.5,-173.59"/>
</g>
<!-- 20 -->
<g id="node7" class="node"><title>20</title>
<polygon fill="goldenrod" stroke="black" stroke-width="2" points="2706.5,-163.352 2611.5,-163.352 2611.5,-127.352 2706.5,-127.352 2706.5,-163.352"/>
<text text-anchor="middle" x="2659" y="-141.652" font-family="Times,serif" font-size="14.00">locally</text>
</g>
<!-- 8&#45;&gt;20 -->
<g id="edge14" class="edge"><title>8&#45;&gt;20</title>
<path fill="none" stroke="black" d="M2291.53,-218.948C2301.72,-211.738 2314.4,-203.961 2327,-199.352 2440.11,-157.97 2479.96,-187.743 2601.43,-163.455"/>
<polygon fill="black" stroke="black" points="2602.41,-166.827 2611.48,-161.361 2600.98,-159.975 2602.41,-166.827"/>
</g>
<!-- 12 -->
<g id="node3" class="node"><title>12</title>
<polygon fill="gold" stroke="black" stroke-width="2" points="2184.5,-163.352 2083.5,-163.352 2083.5,-127.352 2184.5,-127.352 2184.5,-163.352"/>
<text text-anchor="middle" x="2134" y="-141.652" font-family="Times,serif" font-size="14.00">getBase</text>
</g>
<!-- 12&#45;&gt;4 -->
<g id="edge18" class="edge"><title>12&#45;&gt;4</title>
<path fill="none" stroke="black" d="M2184.7,-129.099C2187.5,-128.46 2190.28,-127.871 2193,-127.352 2357.04,-96.1018 2406.42,-137.188 2567,-91.3523 2579.51,-87.781 2592.45,-82.1333 2603.94,-76.33"/>
<polygon fill="black" stroke="black" points="2605.58,-79.4227 2612.81,-71.6793 2602.33,-73.2231 2605.58,-79.4227"/>
</g>
<!-- 33 -->
<g id="node13" class="node"><title>33</title>
<polygon fill="khaki" stroke="black" stroke-dasharray="1,5" points="2553.86,-39.6615 2553.86,-67.6908 2483.06,-87.5105 2382.94,-87.5105 2312.14,-67.6908 2312.14,-39.6615 2382.94,-19.8418 2483.06,-19.8418 2553.86,-39.6615"/>
<polygon fill="none" stroke="black" stroke-dasharray="1,5" points="2557.86,-36.609 2557.86,-70.7433 2483.61,-91.5293 2382.39,-91.5293 2308.14,-70.7433 2308.14,-36.609 2382.39,-15.823 2483.61,-15.823 2557.86,-36.609"/>
<text text-anchor="middle" x="2433" y="-57.4761" font-family="Times,serif" font-size="14.00">Unknown Module</text>
<text text-anchor="middle" x="2433" y="-42.4761" font-family="Times,serif" font-size="14.00">Class: Monad</text>
</g>
<!-- 12&#45;&gt;33 -->
<g id="edge19" class="edge"><title>12&#45;&gt;33</title>
<path fill="none" stroke="black" d="M2184.72,-129.14C2225.81,-116.817 2284.91,-99.0898 2335.15,-84.0233"/>
<polygon fill="black" stroke="black" points="2336.17,-87.3709 2344.75,-81.1456 2334.16,-80.666 2336.17,-87.3709"/>
</g>
<!-- 13 -->
<g id="node4" class="node"><title>13</title>
<polygon fill="goldenrod" stroke="black" stroke-width="2" points="2593.5,-163.352 2490.5,-163.352 2490.5,-127.352 2593.5,-127.352 2593.5,-163.352"/>
<text text-anchor="middle" x="2542" y="-141.652" font-family="Times,serif" font-size="14.00">globally</text>
</g>
<!-- 13&#45;&gt;4 -->
<g id="edge20" class="edge"><title>13&#45;&gt;4</title>
<path fill="none" stroke="black" d="M2561.09,-127.062C2576.15,-113.415 2597.36,-94.2104 2614.13,-79.0112"/>
<polygon fill="black" stroke="black" points="2616.91,-81.221 2621.97,-71.9135 2612.21,-76.033 2616.91,-81.221"/>
</g>
<!-- 14&#45;&gt;4 -->
<g id="edge21" class="edge"><title>14&#45;&gt;4</title>
<path fill="none" stroke="black" d="M2337.56,-129.215C2340.75,-128.571 2343.91,-127.946 2347,-127.352 2444.3,-108.665 2472.68,-121.687 2567,-91.3523 2578.94,-87.511 2591.37,-82.0109 2602.55,-76.4347"/>
<polygon fill="black" stroke="black" points="2604.32,-79.4579 2611.61,-71.7675 2601.12,-73.2348 2604.32,-79.4579"/>
</g>
<!-- 14&#45;&gt;33 -->
<g id="edge22" class="edge"><title>14&#45;&gt;33</title>
<path fill="none" stroke="black" d="M2301.04,-127.274C2318.5,-117.671 2341.04,-105.268 2362.54,-93.439"/>
<polygon fill="black" stroke="black" points="2364.28,-96.4782 2371.35,-88.5913 2360.91,-90.3451 2364.28,-96.4782"/>
</g>
<!-- 15 -->
<g id="node6" class="node"><title>15</title>
<polygon fill="goldenrod" stroke="black" stroke-width="2" points="242,-366.381 118,-366.381 118,-330.381 242,-330.381 242,-366.381"/>
<text text-anchor="middle" x="180" y="-344.681" font-family="Times,serif" font-size="14.00">lensedLocal</text>
</g>
<!-- 30 -->
<g id="node10" class="node"><title>30</title>
<polygon fill="goldenrod" stroke="black" stroke-width="2" points="1218,-255.028 1114,-255.028 1114,-219.028 1218,-219.028 1218,-255.028"/>
<text text-anchor="middle" x="1166" y="-233.328" font-family="Times,serif" font-size="14.00">withTop</text>
</g>
<!-- 15&#45;&gt;30 -->
<g id="edge23" class="edge"><title>15&#45;&gt;30</title>
<path fill="none" stroke="black" d="M206.927,-330.244C219.772,-322.93 235.658,-315.084 251,-310.705 411.933,-264.77 924.769,-245.287 1103.69,-239.773"/>
<polygon fill="black" stroke="black" points="1103.84,-243.27 1113.73,-239.467 1103.63,-236.273 1103.84,-243.27"/>
</g>
<!-- 34 -->
<g id="node14" class="node"><title>34</title>
<polygon fill="khaki" stroke="black" stroke-dasharray="1,5" points="2604.32,-223.014 2604.32,-251.043 2526.81,-270.863 2417.19,-270.863 2339.68,-251.043 2339.68,-223.014 2417.19,-203.194 2526.81,-203.194 2604.32,-223.014"/>
<polygon fill="none" stroke="black" stroke-dasharray="1,5" points="2608.32,-219.889 2608.32,-254.168 2527.31,-274.882 2416.69,-274.882 2335.68,-254.168 2335.68,-219.889 2416.69,-199.175 2527.31,-199.175 2608.32,-219.889"/>
<text text-anchor="middle" x="2472" y="-240.828" font-family="Times,serif" font-size="14.00">Unknown Module</text>
<text text-anchor="middle" x="2472" y="-225.828" font-family="Times,serif" font-size="14.00">Class: MonadReader</text>
</g>
<!-- 15&#45;&gt;34 -->
<g id="edge24" class="edge"><title>15&#45;&gt;34</title>
<path fill="none" stroke="black" d="M205.8,-330.337C218.785,-322.75 235.111,-314.649 251,-310.705 362.887,-282.927 2212.51,-310.478 2326,-290.224 2346.5,-286.566 2367.93,-280.354 2387.87,-273.465"/>
<polygon fill="black" stroke="black" points="2389.28,-276.681 2397.53,-270.037 2386.94,-270.084 2389.28,-276.681"/>
</g>
<!-- 20&#45;&gt;4 -->
<g id="edge31" class="edge"><title>20&#45;&gt;4</title>
<path fill="none" stroke="black" d="M2655.53,-127.062C2652.96,-114.284 2649.42,-96.6321 2646.48,-81.9591"/>
<polygon fill="black" stroke="black" points="2649.86,-81.0292 2644.46,-71.9135 2643,-82.4068 2649.86,-81.0292"/>
</g>
<!-- 26 -->
<g id="node8" class="node"><title>26</title>
<polygon fill="gold" stroke="black" stroke-width="2" points="2472,-163.352 2356,-163.352 2356,-127.352 2472,-127.352 2472,-163.352"/>
<text text-anchor="middle" x="2414" y="-141.652" font-family="Times,serif" font-size="14.00">runLensed</text>
</g>
<!-- 26&#45;&gt;4 -->
<g id="edge35" class="edge"><title>26&#45;&gt;4</title>
<path fill="none" stroke="black" d="M2468.8,-127.238C2498.25,-117.576 2534.98,-104.77 2567,-91.3523 2577.74,-86.852 2589.11,-81.5161 2599.64,-76.3276"/>
<polygon fill="black" stroke="black" points="2601.25,-79.4339 2608.63,-71.8306 2598.12,-73.1732 2601.25,-79.4339"/>
</g>
<!-- 26&#45;&gt;33 -->
<g id="edge36" class="edge"><title>26&#45;&gt;33</title>
<path fill="none" stroke="black" d="M2417.66,-127.062C2419.23,-119.661 2421.15,-110.626 2423.08,-101.481"/>
<polygon fill="black" stroke="black" points="2426.53,-102.096 2425.18,-91.5876 2419.68,-100.645 2426.53,-102.096"/>
</g>
<!-- 29 -->
<g id="node9" class="node"><title>29</title>
<polygon fill="gold" stroke="black" stroke-width="2" points="99.5,-366.381 16.5,-366.381 16.5,-330.381 99.5,-330.381 99.5,-366.381"/>
<text text-anchor="middle" x="58" y="-344.681" font-family="Times,serif" font-size="14.00">with</text>
</g>
<!-- 29&#45;&gt;30 -->
<g id="edge37" class="edge"><title>29&#45;&gt;30</title>
<path fill="none" stroke="black" d="M76.3977,-330.321C85.5119,-322.928 97.0991,-314.996 109,-310.705 293.763,-244.086 905.816,-238.039 1103.7,-237.865"/>
<polygon fill="black" stroke="black" points="1103.92,-241.366 1113.92,-237.861 1103.92,-234.366 1103.92,-241.366"/>
</g>
<!-- 29&#45;&gt;34 -->
<g id="edge38" class="edge"><title>29&#45;&gt;34</title>
<path fill="none" stroke="black" d="M76.2881,-330.003C85.3782,-322.54 96.9769,-314.64 109,-310.705 226.06,-272.386 2204.74,-311.826 2326,-290.224 2346.5,-286.573 2367.94,-280.363 2387.88,-273.475"/>
<polygon fill="black" stroke="black" points="2389.28,-276.69 2397.53,-270.047 2386.94,-270.094 2389.28,-276.69"/>
</g>
<!-- 30&#45;&gt;13 -->
<g id="edge39" class="edge"><title>30&#45;&gt;13</title>
<path fill="none" stroke="black" d="M1218.32,-234.651C1428.32,-228.889 2211.2,-205.138 2480.14,-163.22"/>
<polygon fill="black" stroke="black" points="2480.94,-166.637 2490.26,-161.594 2479.83,-159.726 2480.94,-166.637"/>
</g>
<!-- 30&#45;&gt;14 -->
<g id="edge40" class="edge"><title>30&#45;&gt;14</title>
<path fill="none" stroke="black" d="M1218.12,-235.036C1368.17,-231.607 1814.03,-217.396 2192.45,-163.291"/>
<polygon fill="black" stroke="black" points="2193.1,-166.734 2202.5,-161.843 2192.1,-159.805 2193.1,-166.734"/>
</g>
<!-- 31 -->
<g id="node11" class="node"><title>31</title>
<polygon fill="khaki" stroke="black" stroke-dasharray="1,5" points="505.858,-334.366 505.858,-362.395 435.061,-382.215 334.939,-382.215 264.142,-362.395 264.142,-334.366 334.939,-314.546 435.061,-314.546 505.858,-334.366"/>
<polygon fill="none" stroke="black" stroke-dasharray="1,5" points="509.856,-331.314 509.856,-365.448 435.607,-386.234 334.393,-386.234 260.144,-365.448 260.144,-331.314 334.393,-310.528 435.607,-310.528 509.856,-331.314"/>
<text text-anchor="middle" x="385" y="-352.181" font-family="Times,serif" font-size="14.00">Unknown Module</text>
<text text-anchor="middle" x="385" y="-337.181" font-family="Times,serif" font-size="14.00">Class: Applicative</text>
</g>
<!-- 1 -->
<g id="node22" class="node"><title>1</title>
<polygon fill="bisque" stroke="black" stroke-width="2" points="4161.7,-227.753 4161.7,-246.304 4034.76,-259.421 3855.24,-259.421 3728.3,-246.304 3728.3,-227.753 3855.24,-214.635 4034.76,-214.635 4161.7,-227.753"/>
<text text-anchor="middle" x="3945" y="-233.328" font-family="Times,serif" font-size="14.00">Class: Applicative, Data: (Lensed b v m)</text>
</g>
<!-- 31&#45;&gt;1 -->
<g id="edge41" class="edge"><title>31&#45;&gt;1</title>
<path fill="none" stroke="navy" stroke-width="1.69315" d="M470.812,-320.348C486.684,-316.364 503.23,-312.875 519,-310.705 871.242,-262.222 3365.86,-331.62 3719,-290.224 3770.69,-284.165 3827.8,-270.919 3871.67,-259.288"/>
</g>
<!-- 32 -->
<g id="node12" class="node"><title>32</title>
<polygon fill="khaki" stroke="black" stroke-dasharray="1,5" points="1075.86,-334.366 1075.86,-362.395 1005.06,-382.215 904.939,-382.215 834.142,-362.395 834.142,-334.366 904.939,-314.546 1005.06,-314.546 1075.86,-334.366"/>
<polygon fill="none" stroke="black" stroke-dasharray="1,5" points="1079.86,-331.314 1079.86,-365.448 1005.61,-386.234 904.393,-386.234 830.144,-365.448 830.144,-331.314 904.393,-310.528 1005.61,-310.528 1079.86,-331.314"/>
<text text-anchor="middle" x="955" y="-352.181" font-family="Times,serif" font-size="14.00">Unknown Module</text>
<text text-anchor="middle" x="955" y="-337.181" font-family="Times,serif" font-size="14.00">Class: Alternative</text>
</g>
<!-- 2 -->
<g id="node23" class="node"><title>2</title>
<polygon fill="bisque" stroke="black" stroke-width="2" points="5095.14,-227.753 5095.14,-246.304 4969.11,-259.421 4790.89,-259.421 4664.86,-246.304 4664.86,-227.753 4790.89,-214.635 4969.11,-214.635 5095.14,-227.753"/>
<text text-anchor="middle" x="4880" y="-233.328" font-family="Times,serif" font-size="14.00">Class: Alternative, Data: (Lensed b v m)</text>
</g>
<!-- 32&#45;&gt;2 -->
<g id="edge42" class="edge"><title>32&#45;&gt;2</title>
<path fill="none" stroke="navy" stroke-width="1.69315" d="M1044.94,-321.53C1062.42,-317.056 1080.68,-313.083 1098,-310.705 1490.55,-256.806 4270.47,-336.417 4664,-290.224 4715.58,-284.17 4772.55,-270.885 4815.09,-259.233"/>
</g>
<!-- 3 -->
<g id="node24" class="node"><title>3</title>
<polygon fill="bisque" stroke="black" stroke-width="2" points="3127.46,-227.753 3127.46,-246.304 3011.2,-259.421 2846.8,-259.421 2730.54,-246.304 2730.54,-227.753 2846.8,-214.635 3011.2,-214.635 3127.46,-227.753"/>
<text text-anchor="middle" x="2929" y="-233.328" font-family="Times,serif" font-size="14.00">Class: Monad, Data: (Lensed b v m)</text>
</g>
<!-- 33&#45;&gt;3 -->
<g id="edge43" class="edge"><title>33&#45;&gt;3</title>
<path fill="none" stroke="navy" stroke-width="1.69315" d="M2523.26,-80.5959C2537.51,-84.3912 2552.12,-88.1084 2566,-91.3523 2648.42,-110.617 2675.78,-92.6929 2753,-127.352 2777.01,-138.127 2778.04,-148.859 2800,-163.352 2828.43,-182.113 2861.99,-200.923 2887.75,-214.704"/>
</g>
<!-- 5 -->
<g id="node25" class="node"><title>5</title>
<polygon fill="bisque" stroke="black" stroke-width="2" points="3710.34,-227.753 3710.34,-246.304 3544.95,-259.421 3311.05,-259.421 3145.66,-246.304 3145.66,-227.753 3311.05,-214.635 3544.95,-214.635 3710.34,-227.753"/>
<text text-anchor="middle" x="3428" y="-233.328" font-family="Times,serif" font-size="14.00">Class: MonadReader, Data: (ALens&#39; b v) (Lensed b v m)</text>
</g>
<!-- 34&#45;&gt;5 -->
<g id="edge44" class="edge"><title>34&#45;&gt;5</title>
<path fill="none" stroke="navy" stroke-width="1.69315" d="M2564.01,-265.579C2612.31,-279.093 2672.78,-293.724 2728,-300.464 2816.01,-311.207 3038.81,-309.656 3127,-300.464 3201.76,-292.672 3285.3,-274.272 3345.37,-259.285"/>
</g>
<!-- 35 -->
<g id="node15" class="node"><title>35</title>
<polygon fill="khaki" stroke="black" stroke-dasharray="1,5" points="807.539,-334.366 807.539,-362.395 726.971,-382.215 613.029,-382.215 532.461,-362.395 532.461,-334.366 613.029,-314.546 726.971,-314.546 807.539,-334.366"/>
<polygon fill="none" stroke="black" stroke-dasharray="1,5" points="811.532,-331.211 811.532,-365.55 727.452,-386.234 612.548,-386.234 528.468,-365.55 528.468,-331.211 612.548,-310.528 727.452,-310.528 811.532,-331.211"/>
<text text-anchor="middle" x="670" y="-352.181" font-family="Times,serif" font-size="14.00">Unknown Module</text>
<text text-anchor="middle" x="670" y="-337.181" font-family="Times,serif" font-size="14.00">Class: MonadCatchIO</text>
</g>
<!-- 6 -->
<g id="node26" class="node"><title>6</title>
<polygon fill="bisque" stroke="black" stroke-width="2" points="4646.37,-227.753 4646.37,-246.304 4509.67,-259.421 4316.33,-259.421 4179.63,-246.304 4179.63,-227.753 4316.33,-214.635 4509.67,-214.635 4646.37,-227.753"/>
<text text-anchor="middle" x="4413" y="-233.328" font-family="Times,serif" font-size="14.00">Class: MonadCatchIO, Data: (Lensed b v m)</text>
</g>
<!-- 35&#45;&gt;6 -->
<g id="edge45" class="edge"><title>35&#45;&gt;6</title>
<path fill="none" stroke="navy" stroke-width="2.09861" d="M771.621,-321.261C790.908,-316.9 810.989,-313.039 830,-310.705 1199.45,-265.334 3809.99,-330.817 4180,-290.224 4235.22,-284.166 4296.37,-270.92 4342.22,-259.289"/>
</g>
<!-- 38 -->
<g id="node16" class="node"><title>38</title>
<polygon fill="khaki" stroke="black" stroke-dasharray="1,5" points="2430.86,-334.366 2430.86,-362.395 2360.06,-382.215 2259.94,-382.215 2189.14,-362.395 2189.14,-334.366 2259.94,-314.546 2360.06,-314.546 2430.86,-334.366"/>
<polygon fill="none" stroke="black" stroke-dasharray="1,5" points="2434.86,-331.314 2434.86,-365.448 2360.61,-386.234 2259.39,-386.234 2185.14,-365.448 2185.14,-331.314 2259.39,-310.528 2360.61,-310.528 2434.86,-331.314"/>
<text text-anchor="middle" x="2310" y="-352.181" font-family="Times,serif" font-size="14.00">Unknown Module</text>
<text text-anchor="middle" x="2310" y="-337.181" font-family="Times,serif" font-size="14.00">Class: Functor</text>
</g>
<!-- 10 -->
<g id="node27" class="node"><title>10</title>
<polygon fill="bisque" stroke="black" stroke-width="2" points="7293.55,-227.753 7293.55,-246.304 7176.07,-259.421 7009.93,-259.421 6892.45,-246.304 6892.45,-227.753 7009.93,-214.635 7176.07,-214.635 7293.55,-227.753"/>
<text text-anchor="middle" x="7093" y="-233.328" font-family="Times,serif" font-size="14.00">Class: Functor, Data: (Lensed b v m)</text>
</g>
<!-- 38&#45;&gt;10 -->
<g id="edge46" class="edge"><title>38&#45;&gt;10</title>
<path fill="none" stroke="navy" d="M2395.81,-320.325C2411.68,-316.343 2428.23,-312.861 2444,-310.705 2688.4,-277.289 6639.25,-320.898 6884,-290.224 6932.06,-284.202 6984.97,-270.916 7025.54,-259.256"/>
</g>
<!-- 39 -->
<g id="node17" class="node"><title>39</title>
<polygon fill="khaki" stroke="black" stroke-dasharray="1,5" points="2703.44,-334.366 2703.44,-362.395 2631.13,-382.215 2528.87,-382.215 2456.56,-362.395 2456.56,-334.366 2528.87,-314.546 2631.13,-314.546 2703.44,-334.366"/>
<polygon fill="none" stroke="black" stroke-dasharray="1,5" points="2707.45,-331.298 2707.45,-365.463 2631.67,-386.234 2528.33,-386.234 2452.55,-365.463 2452.55,-331.298 2528.33,-310.528 2631.67,-310.528 2707.45,-331.298"/>
<text text-anchor="middle" x="2580" y="-352.181" font-family="Times,serif" font-size="14.00">Unknown Module</text>
<text text-anchor="middle" x="2580" y="-337.181" font-family="Times,serif" font-size="14.00">Class: MonadState</text>
</g>
<!-- 11 -->
<g id="node28" class="node"><title>11</title>
<polygon fill="bisque" stroke="black" stroke-width="2" points="7764.6,-227.753 7764.6,-246.304 7631.86,-259.421 7444.14,-259.421 7311.4,-246.304 7311.4,-227.753 7444.14,-214.635 7631.86,-214.635 7764.6,-227.753"/>
<text text-anchor="middle" x="7538" y="-233.328" font-family="Times,serif" font-size="14.00">Class: MonadState, Data: v (Lensed b v m)</text>
</g>
<!-- 39&#45;&gt;11 -->
<g id="edge47" class="edge"><title>39&#45;&gt;11</title>
<path fill="none" stroke="navy" stroke-width="1.69315" d="M2707.48,-347.411C3414.17,-347.366 6835.89,-344.336 7303,-290.224 7356.55,-284.02 7415.81,-270.815 7461.42,-259.24"/>
</g>
<!-- 40 -->
<g id="node18" class="node"><title>40</title>
<polygon fill="khaki" stroke="black" stroke-dasharray="1,5" points="1622.08,-334.366 1622.08,-362.395 1548.22,-382.215 1443.78,-382.215 1369.92,-362.395 1369.92,-334.366 1443.78,-314.546 1548.22,-314.546 1622.08,-334.366"/>
<polygon fill="none" stroke="black" stroke-dasharray="1,5" points="1626.07,-331.279 1626.07,-365.483 1548.75,-386.234 1443.25,-386.234 1365.93,-365.483 1365.93,-331.279 1443.25,-310.528 1548.75,-310.528 1626.07,-331.279"/>
<text text-anchor="middle" x="1496" y="-352.181" font-family="Times,serif" font-size="14.00">Unknown Module</text>
<text text-anchor="middle" x="1496" y="-337.181" font-family="Times,serif" font-size="14.00">Class: MonadTrans</text>
</g>
<!-- 16 -->
<g id="node29" class="node"><title>16</title>
<polygon fill="bisque" stroke="black" stroke-width="2" points="5983.45,-227.753 5983.45,-246.304 5860.17,-259.421 5685.83,-259.421 5562.55,-246.304 5562.55,-227.753 5685.83,-214.635 5860.17,-214.635 5983.45,-227.753"/>
<text text-anchor="middle" x="5773" y="-233.328" font-family="Times,serif" font-size="14.00">Class: MonadTrans, Data: (Lensed b v)</text>
</g>
<!-- 40&#45;&gt;16 -->
<g id="edge48" class="edge"><title>40&#45;&gt;16</title>
<path fill="none" stroke="navy" d="M1585.71,-320.333C1602.29,-316.351 1619.56,-312.866 1636,-310.705 2067.63,-253.959 5121.77,-342.166 5554,-290.224 5604.25,-284.185 5659.71,-270.899 5702.24,-259.244"/>
</g>
<!-- 41 -->
<g id="node19" class="node"><title>41</title>
<polygon fill="khaki" stroke="black" stroke-dasharray="1,5" points="2162.86,-334.366 2162.86,-362.395 2092.06,-382.215 1991.94,-382.215 1921.14,-362.395 1921.14,-334.366 1991.94,-314.546 2092.06,-314.546 2162.86,-334.366"/>
<polygon fill="none" stroke="black" stroke-dasharray="1,5" points="2166.86,-331.314 2166.86,-365.448 2092.61,-386.234 1991.39,-386.234 1917.14,-365.448 1917.14,-331.314 1991.39,-310.528 2092.61,-310.528 2166.86,-331.314"/>
<text text-anchor="middle" x="2042" y="-352.181" font-family="Times,serif" font-size="14.00">Unknown Module</text>
<text text-anchor="middle" x="2042" y="-337.181" font-family="Times,serif" font-size="14.00">Class: MonadIO</text>
</g>
<!-- 17 -->
<g id="node30" class="node"><title>17</title>
<polygon fill="bisque" stroke="black" stroke-width="2" points="6874.89,-227.753 6874.89,-246.304 6752.53,-259.421 6579.47,-259.421 6457.11,-246.304 6457.11,-227.753 6579.47,-214.635 6752.53,-214.635 6874.89,-227.753"/>
<text text-anchor="middle" x="6666" y="-233.328" font-family="Times,serif" font-size="14.00">Class: MonadIO, Data: (Lensed b v m)</text>
</g>
<!-- 41&#45;&gt;17 -->
<g id="edge49" class="edge"><title>41&#45;&gt;17</title>
<path fill="none" stroke="navy" d="M2131.94,-321.517C2149.42,-317.044 2167.67,-313.075 2185,-310.705 2420.15,-278.532 6221.37,-318.612 6457,-290.224 6507.04,-284.196 6562.23,-270.91 6603.4,-259.252"/>
</g>
<!-- 42 -->
<g id="node20" class="node"><title>42</title>
<polygon fill="khaki" stroke="black" stroke-dasharray="1,5" points="1895.44,-334.366 1895.44,-362.395 1823.13,-382.215 1720.87,-382.215 1648.56,-362.395 1648.56,-334.366 1720.87,-314.546 1823.13,-314.546 1895.44,-334.366"/>
<polygon fill="none" stroke="black" stroke-dasharray="1,5" points="1899.45,-331.298 1899.45,-365.463 1823.67,-386.234 1720.33,-386.234 1644.55,-365.463 1644.55,-331.298 1720.33,-310.528 1823.67,-310.528 1899.45,-331.298"/>
<text text-anchor="middle" x="1772" y="-352.181" font-family="Times,serif" font-size="14.00">Unknown Module</text>
<text text-anchor="middle" x="1772" y="-337.181" font-family="Times,serif" font-size="14.00">Class: MonadSnap</text>
</g>
<!-- 18 -->
<g id="node31" class="node"><title>18</title>
<polygon fill="bisque" stroke="black" stroke-width="2" points="6438.79,-227.753 6438.79,-246.304 6310.63,-259.421 6129.37,-259.421 6001.21,-246.304 6001.21,-227.753 6129.37,-214.635 6310.63,-214.635 6438.79,-227.753"/>
<text text-anchor="middle" x="6220" y="-233.328" font-family="Times,serif" font-size="14.00">Class: MonadSnap, Data: (Lensed b v m)</text>
</g>
<!-- 42&#45;&gt;18 -->
<g id="edge50" class="edge"><title>42&#45;&gt;18</title>
<path fill="none" stroke="navy" d="M1863.54,-321.428C1881.16,-316.993 1899.55,-313.061 1917,-310.705 2141.85,-280.344 5775.61,-316.266 6001,-290.224 6053.24,-284.188 6110.97,-270.902 6154.11,-259.246"/>
</g>
<!-- 44 -->
<g id="node21" class="node"><title>44</title>
<polygon fill="khaki" stroke="black" stroke-dasharray="1,5" points="1343.86,-334.366 1343.86,-362.395 1273.06,-382.215 1172.94,-382.215 1102.14,-362.395 1102.14,-334.366 1172.94,-314.546 1273.06,-314.546 1343.86,-334.366"/>
<polygon fill="none" stroke="black" stroke-dasharray="1,5" points="1347.86,-331.314 1347.86,-365.448 1273.61,-386.234 1172.39,-386.234 1098.14,-365.448 1098.14,-331.314 1172.39,-310.528 1273.61,-310.528 1347.86,-331.314"/>
<text text-anchor="middle" x="1223" y="-352.181" font-family="Times,serif" font-size="14.00">Unknown Module</text>
<text text-anchor="middle" x="1223" y="-337.181" font-family="Times,serif" font-size="14.00">Class: MonadPlus</text>
</g>
<!-- 21 -->
<g id="node32" class="node"><title>21</title>
<polygon fill="bisque" stroke="black" stroke-width="2" points="5544.67,-227.753 5544.67,-246.304 5418.33,-259.421 5239.67,-259.421 5113.33,-246.304 5113.33,-227.753 5239.67,-214.635 5418.33,-214.635 5544.67,-227.753"/>
<text text-anchor="middle" x="5329" y="-233.328" font-family="Times,serif" font-size="14.00">Class: MonadPlus, Data: (Lensed b v m)</text>
</g>
<!-- 44&#45;&gt;21 -->
<g id="edge51" class="edge"><title>44&#45;&gt;21</title>
<path fill="none" stroke="navy" stroke-width="1.69315" d="M1312.94,-321.526C1330.42,-317.053 1348.68,-313.081 1366,-310.705 1778.48,-254.128 4699.49,-338.704 5113,-290.224 5164.58,-284.177 5221.55,-270.892 5264.09,-259.238"/>
</g>
<!-- 1&#45;&gt;4 -->
<g id="edge1" class="edge"><title>1&#45;&gt;4</title>
<path fill="none" stroke="black" stroke-width="2.38629" d="M3831.86,-217.043C3795.82,-211.163 3755.76,-204.801 3719,-199.352 3343.37,-143.678 2892.69,-86.1975 2716.65,-64.103"/>
<polygon fill="black" stroke="black" stroke-width="2.38629" points="2717.07,-60.6282 2706.71,-62.8566 2716.2,-67.5738 2717.07,-60.6282"/>
</g>
<!-- 1&#45;&gt;33 -->
<g id="edge2" class="edge"><title>1&#45;&gt;33</title>
<path fill="none" stroke="black" d="M3839.28,-216.22C3801.46,-209.838 3758.44,-203.381 3719,-199.352 3532.47,-180.301 3052.58,-226.428 2876,-163.352 2850.89,-154.382 2852.66,-137.491 2828,-127.352 2719.29,-82.6627 2681.13,-115.027 2566,-91.3523 2554.73,-89.0342 2543,-86.2944 2531.39,-83.3728"/>
<polygon fill="black" stroke="black" points="2532.23,-79.9752 2521.67,-80.8811 2530.49,-86.7557 2532.23,-79.9752"/>
</g>
<!-- 2&#45;&gt;4 -->
<g id="edge3" class="edge"><title>2&#45;&gt;4</title>
<path fill="none" stroke="black" stroke-width="2.09861" d="M4772.41,-216.52C4735.3,-210.317 4693.42,-203.896 4655,-199.352 3902.22,-110.321 2984.21,-68.4719 2717.19,-57.6194"/>
<polygon fill="black" stroke="black" stroke-width="2.09861" points="2716.97,-54.1078 2706.84,-57.2009 2716.69,-61.1021 2716.97,-54.1078"/>
</g>
<!-- 2&#45;&gt;32 -->
<g id="edge4" class="edge"><title>2&#45;&gt;32</title>
<path fill="none" stroke="black" stroke-width="1.69315" d="M4799.42,-259.233C4754.55,-270.885 4697.58,-284.17 4646,-290.224 4252.47,-336.417 1472.55,-256.806 1080,-310.705 1069,-312.214 1057.63,-314.367 1046.42,-316.882"/>
<polygon fill="black" stroke="black" stroke-width="1.69315" points="1045.57,-313.487 1036.63,-319.178 1047.17,-320.302 1045.57,-313.487"/>
</g>
<!-- 2&#45;&gt;40 -->
<g id="edge5" class="edge"><title>2&#45;&gt;40</title>
<path fill="none" stroke="black" d="M4807,-259.281C4763.32,-270.909 4706.47,-284.155 4655,-290.224 4321.86,-329.504 1968.56,-266.72 1636,-310.705 1622.77,-312.454 1609.01,-315.056 1595.5,-318.082"/>
<polygon fill="black" stroke="black" points="1594.66,-314.682 1585.71,-320.354 1596.25,-321.501 1594.66,-314.682"/>
</g>
<!-- 3&#45;&gt;4 -->
<g id="edge6" class="edge"><title>3&#45;&gt;4</title>
<path fill="none" stroke="black" stroke-width="2.38629" d="M2905.04,-214.751C2878.21,-191.546 2832.86,-154.144 2790,-127.352 2758.4,-107.598 2720.65,-89.2336 2691.05,-75.9074"/>
<polygon fill="black" stroke="black" stroke-width="2.38629" points="2692.3,-72.6346 2681.74,-71.7624 2689.45,-79.0288 2692.3,-72.6346"/>
</g>
<!-- 3&#45;&gt;33 -->
<g id="edge7" class="edge"><title>3&#45;&gt;33</title>
<path fill="none" stroke="black" d="M2870.41,-214.767C2837.54,-201.808 2796.36,-183.823 2762,-163.352 2739.7,-150.066 2739.38,-138.64 2716,-127.352 2654.26,-97.5438 2632.39,-108.468 2566,-91.3523 2555.61,-88.6742 2544.79,-85.8105 2534,-82.9082"/>
<polygon fill="black" stroke="black" points="2534.68,-79.4667 2524.11,-80.2361 2532.85,-86.2242 2534.68,-79.4667"/>
</g>
<!-- 5&#45;&gt;4 -->
<g id="edge8" class="edge"><title>5&#45;&gt;4</title>
<path fill="none" stroke="black" d="M3335.79,-214.781C3178.63,-178.564 2861.8,-105.557 2716.7,-72.1192"/>
<polygon fill="black" stroke="black" points="2717.08,-68.6161 2706.55,-69.7811 2715.51,-75.4373 2717.08,-68.6161"/>
</g>
<!-- 5&#45;&gt;15 -->
<g id="edge9" class="edge"><title>5&#45;&gt;15</title>
<path fill="none" stroke="black" d="M3332.88,-259.247C3276.07,-270.864 3202.28,-284.11 3136,-290.224 2976.4,-304.948 406.613,-272.301 251,-310.705 238.583,-313.769 225.901,-319.383 214.756,-325.312"/>
<polygon fill="black" stroke="black" points="212.819,-322.385 205.796,-330.318 216.233,-328.496 212.819,-322.385"/>
</g>
<!-- 5&#45;&gt;33 -->
<g id="edge10" class="edge"><title>5&#45;&gt;33</title>
<path fill="none" stroke="black" d="M3278.72,-217.14C3232.93,-211.384 3182.4,-205.069 3136,-199.352 3003.59,-183.039 2961.8,-213.066 2838,-163.352 2813.25,-153.415 2814.55,-137.772 2790,-127.352 2697.18,-87.9536 2664.53,-112.787 2566,-91.3523 2555.05,-88.9697 2543.66,-86.2328 2532.35,-83.3507"/>
<polygon fill="black" stroke="black" points="2533.01,-79.9059 2522.45,-80.7857 2531.26,-86.6822 2533.01,-79.9059"/>
</g>
<!-- 6&#45;&gt;4 -->
<g id="edge11" class="edge"><title>6&#45;&gt;4</title>
<path fill="none" stroke="black" stroke-width="2.94591" d="M4294.4,-216.696C4255.18,-210.666 4211.28,-204.305 4171,-199.352 3614.45,-130.92 2940.54,-77.3406 2717.06,-60.3479"/>
<polygon fill="black" stroke="black" stroke-width="2.94591" points="2716.99,-56.8332 2706.76,-59.5665 2716.46,-63.8131 2716.99,-56.8332"/>
</g>
<!-- 6&#45;&gt;35 -->
<g id="edge12" class="edge"><title>6&#45;&gt;35</title>
<path fill="none" stroke="black" stroke-width="2.09861" d="M4326.54,-259.289C4278.37,-270.92 4217.22,-284.166 4162,-290.224 3791.99,-330.817 1181.45,-265.334 812,-310.705 799.304,-312.264 786.132,-314.503 773.151,-317.118"/>
<polygon fill="black" stroke="black" stroke-width="2.09861" points="772.344,-313.711 763.274,-319.186 773.779,-320.563 772.344,-313.711"/>
</g>
<!-- 10&#45;&gt;4 -->
<g id="edge15" class="edge"><title>10&#45;&gt;4</title>
<path fill="none" stroke="black" stroke-width="1.69315" d="M6995.83,-216.162C6960.74,-209.735 6920.72,-203.263 6884,-199.352 6030.28,-108.45 3216.61,-63.1823 2717.15,-55.7716"/>
<polygon fill="black" stroke="black" stroke-width="1.69315" points="2716.87,-52.2672 2706.82,-55.6188 2716.77,-59.2664 2716.87,-52.2672"/>
</g>
<!-- 11&#45;&gt;4 -->
<g id="edge16" class="edge"><title>11&#45;&gt;4</title>
<path fill="none" stroke="black" stroke-width="1.69315" d="M7441.98,-214.789C7318.65,-188.601 7097.62,-145.353 6906,-127.352 6473.74,-86.7459 3254.52,-59.5489 2717,-55.2683"/>
<polygon fill="black" stroke="black" stroke-width="1.69315" points="2716.69,-51.7658 2706.66,-55.1861 2716.63,-58.7656 2716.69,-51.7658"/>
</g>
<!-- 11&#45;&gt;33 -->
<g id="edge17" class="edge"><title>11&#45;&gt;33</title>
<path fill="none" stroke="black" stroke-width="1.69315" d="M7429.56,-216.042C7389.88,-209.54 7344.54,-203.051 7303,-199.352 7171.9,-187.679 2696.22,-110.492 2566,-91.3523 2553.85,-89.5659 2541.22,-87.0231 2528.81,-84.0988"/>
<polygon fill="black" stroke="black" stroke-width="1.69315" points="2529.45,-80.6536 2518.91,-81.6789 2527.79,-87.4534 2529.45,-80.6536"/>
</g>
<!-- 16&#45;&gt;4 -->
<g id="edge25" class="edge"><title>16&#45;&gt;4</title>
<path fill="none" stroke="black" d="M5668.58,-216.471C5632.4,-210.246 5591.51,-203.823 5554,-199.352 4431.51,-65.5757 3051.45,-55.0971 2716.71,-54.6055"/>
<polygon fill="black" stroke="black" points="2716.65,-51.1055 2706.65,-54.5933 2716.64,-58.1055 2716.65,-51.1055"/>
</g>
<!-- 16&#45;&gt;33 -->
<g id="edge26" class="edge"><title>16&#45;&gt;33</title>
<path fill="none" stroke="black" d="M5671.15,-216.149C5634.37,-209.72 5592.45,-203.25 5554,-199.352 4892.95,-132.339 3222.71,-192.352 2566,-91.3523 2553.95,-89.4992 2541.44,-86.9334 2529.12,-84.0114"/>
<polygon fill="black" stroke="black" points="2529.84,-80.5846 2519.29,-81.5985 2528.17,-87.3826 2529.84,-80.5846"/>
</g>
<!-- 17&#45;&gt;40 -->
<g id="edge27" class="edge"><title>17&#45;&gt;40</title>
<path fill="none" stroke="black" d="M6595.57,-259.262C6553.24,-270.923 6498.04,-284.209 6448,-290.224 6182.57,-322.129 1901.07,-275.986 1636,-310.705 1622.77,-312.438 1609,-315.03 1595.49,-318.051"/>
<polygon fill="black" stroke="black" points="1594.66,-314.65 1585.71,-320.32 1596.24,-321.469 1594.66,-314.65"/>
</g>
<!-- 17&#45;&gt;41 -->
<g id="edge28" class="edge"><title>17&#45;&gt;41</title>
<path fill="none" stroke="black" d="M6587.73,-259.252C6544.23,-270.91 6489.04,-284.196 6439,-290.224 6203.37,-318.612 2402.15,-278.532 2167,-310.705 2156,-312.209 2144.63,-314.358 2133.42,-316.871"/>
<polygon fill="black" stroke="black" points="2132.57,-313.476 2123.63,-319.166 2134.16,-320.292 2132.57,-313.476"/>
</g>
<!-- 18&#45;&gt;40 -->
<g id="edge29" class="edge"><title>18&#45;&gt;40</title>
<path fill="none" stroke="black" d="M6146.27,-259.252C6101.97,-270.911 6044.24,-284.196 5992,-290.224 5751.59,-317.963 1875.95,-279.223 1636,-310.705 1622.77,-312.44 1609,-315.035 1595.49,-318.056"/>
<polygon fill="black" stroke="black" points="1594.66,-314.656 1585.71,-320.326 1596.24,-321.475 1594.66,-314.656"/>
</g>
<!-- 18&#45;&gt;42 -->
<g id="edge30" class="edge"><title>18&#45;&gt;42</title>
<path fill="none" stroke="black" d="M6138.44,-259.246C6092.97,-270.902 6035.24,-284.188 5983,-290.224 5757.61,-316.266 2123.85,-280.344 1899,-310.705 1887.94,-312.198 1876.5,-314.324 1865.22,-316.81"/>
<polygon fill="black" stroke="black" points="1864.33,-313.425 1855.37,-319.081 1865.9,-320.247 1864.33,-313.425"/>
</g>
<!-- 21&#45;&gt;4 -->
<g id="edge32" class="edge"><title>21&#45;&gt;4</title>
<path fill="none" stroke="black" stroke-width="2.09861" d="M5221.41,-216.497C5184.31,-210.293 5142.42,-203.876 5104,-199.352 4167.52,-89.09 3020.34,-61.4786 2717.32,-55.9066"/>
<polygon fill="black" stroke="black" stroke-width="2.09861" points="2716.96,-52.3996 2706.9,-55.7176 2716.83,-59.3985 2716.96,-52.3996"/>
</g>
<!-- 21&#45;&gt;40 -->
<g id="edge33" class="edge"><title>21&#45;&gt;40</title>
<path fill="none" stroke="black" d="M5256.26,-259.23C5212.55,-270.88 5155.57,-284.166 5104,-290.224 4721.29,-335.178 2018.04,-260.346 1636,-310.705 1622.77,-312.448 1609,-315.047 1595.49,-318.071"/>
<polygon fill="black" stroke="black" points="1594.66,-314.671 1585.71,-320.342 1596.25,-321.49 1594.66,-314.671"/>
</g>
<!-- 21&#45;&gt;44 -->
<g id="edge34" class="edge"><title>21&#45;&gt;44</title>
<path fill="none" stroke="black" stroke-width="1.69315" d="M5248.42,-259.238C5203.55,-270.892 5146.58,-284.177 5095,-290.224 4681.49,-338.704 1760.48,-254.128 1348,-310.705 1337,-312.213 1325.63,-314.364 1314.42,-316.878"/>
<polygon fill="black" stroke="black" stroke-width="1.69315" points="1313.57,-313.484 1304.63,-319.174 1315.17,-320.299 1313.57,-313.484"/>
</g>
</g>
</svg>
