<?xml version="1.0" encoding="UTF-8" standalone="no"?>
<!DOCTYPE svg PUBLIC "-//W3C//DTD SVG 1.1//EN"
 "http://www.w3.org/Graphics/SVG/1.1/DTD/svg11.dtd">
<!-- Generated by graphviz version 2.38.0 (20140413.2041)
 -->
<!-- Title: Diagram of: Snap.Snaplet.Internal.Lensed Pages: 1 -->
<svg width="5097pt" height="494pt"
 viewBox="0.00 0.00 5097.00 494.49" xmlns="http://www.w3.org/2000/svg" xmlns:xlink="http://www.w3.org/1999/xlink">
<g id="graph0" class="graph" transform="scale(1 1) rotate(0) translate(4 490.487)">
<title>Diagram of: Snap.Snaplet.Internal.Lensed</title>
<polygon fill="white" stroke="none" points="-4,4 -4,-490.487 5093,-490.487 5093,4 -4,4"/>
<g id="clust1" class="cluster"><title>cluster_Class_Alternative</title>
<path fill="#ffc1c1" stroke="black" d="M20,-241.744C20,-241.744 530,-241.744 530,-241.744 536,-241.744 542,-247.744 542,-253.744 542,-253.744 542,-466.487 542,-466.487 542,-472.487 536,-478.487 530,-478.487 530,-478.487 20,-478.487 20,-478.487 14,-478.487 8,-472.487 8,-466.487 8,-466.487 8,-253.744 8,-253.744 8,-247.744 14,-241.744 20,-241.744"/>
<text text-anchor="middle" x="275" y="-463.287" font-family="Times,serif" font-size="14.00">Class: Alternative</text>
</g>
<g id="clust2" class="cluster"><title>cluster_Class_Alternative_Data_Lensedbvm</title>
<path fill="#c6e2ff" stroke="black" d="M227,-364.096C227,-364.096 499,-364.096 499,-364.096 505,-364.096 511,-370.096 511,-376.096 511,-376.096 511,-435.487 511,-435.487 511,-441.487 505,-447.487 499,-447.487 499,-447.487 227,-447.487 227,-447.487 221,-447.487 215,-441.487 215,-435.487 215,-435.487 215,-376.096 215,-376.096 215,-370.096 221,-364.096 227,-364.096"/>
<text text-anchor="middle" x="363" y="-432.287" font-family="Times,serif" font-size="14.00">Instance for: (Lensed b v m)</text>
</g>
<g id="clust3" class="cluster"><title>cluster_Class_Applicative</title>
<path fill="#ffc1c1" stroke="black" d="M1663,-111.352C1663,-111.352 2173,-111.352 2173,-111.352 2179,-111.352 2185,-117.352 2185,-123.352 2185,-123.352 2185,-344.096 2185,-344.096 2185,-350.096 2179,-356.096 2173,-356.096 2173,-356.096 1663,-356.096 1663,-356.096 1657,-356.096 1651,-350.096 1651,-344.096 1651,-344.096 1651,-123.352 1651,-123.352 1651,-117.352 1657,-111.352 1663,-111.352"/>
<text text-anchor="middle" x="1918" y="-340.896" font-family="Times,serif" font-size="14.00">Class: Applicative</text>
</g>
<g id="clust4" class="cluster"><title>cluster_Class_Applicative_Data_Lensedbvm</title>
<path fill="#c6e2ff" stroke="black" d="M1848,-119.352C1848,-119.352 2111,-119.352 2111,-119.352 2117,-119.352 2123,-125.352 2123,-131.352 2123,-131.352 2123,-190.744 2123,-190.744 2123,-196.744 2117,-202.744 2111,-202.744 2111,-202.744 1848,-202.744 1848,-202.744 1842,-202.744 1836,-196.744 1836,-190.744 1836,-190.744 1836,-131.352 1836,-131.352 1836,-125.352 1842,-119.352 1848,-119.352"/>
<text text-anchor="middle" x="1979.5" y="-187.544" font-family="Times,serif" font-size="14.00">Instance for: (Lensed b v m)</text>
</g>
<g id="clust5" class="cluster"><title>cluster_Class_Functor</title>
<path fill="#ffc1c1" stroke="black" d="M3856,-111.352C3856,-111.352 4098,-111.352 4098,-111.352 4104,-111.352 4110,-117.352 4110,-123.352 4110,-123.352 4110,-344.096 4110,-344.096 4110,-350.096 4104,-356.096 4098,-356.096 4098,-356.096 3856,-356.096 3856,-356.096 3850,-356.096 3844,-350.096 3844,-344.096 3844,-344.096 3844,-123.352 3844,-123.352 3844,-117.352 3850,-111.352 3856,-111.352"/>
<text text-anchor="middle" x="3977" y="-340.896" font-family="Times,serif" font-size="14.00">Class: Functor</text>
</g>
<g id="clust6" class="cluster"><title>cluster_Class_Functor_Data_Lensedbvm</title>
<path fill="#c6e2ff" stroke="black" d="M3922,-119.352C3922,-119.352 4071,-119.352 4071,-119.352 4077,-119.352 4083,-125.352 4083,-131.352 4083,-131.352 4083,-190.744 4083,-190.744 4083,-196.744 4077,-202.744 4071,-202.744 4071,-202.744 3922,-202.744 3922,-202.744 3916,-202.744 3910,-196.744 3910,-190.744 3910,-190.744 3910,-131.352 3910,-131.352 3910,-125.352 3916,-119.352 3922,-119.352"/>
<text text-anchor="middle" x="3996.5" y="-187.544" font-family="Times,serif" font-size="14.00">Instance for: (Lensed b v m)</text>
</g>
<g id="clust7" class="cluster"><title>cluster_Class_Monad</title>
<path fill="#ffc1c1" stroke="black" d="M562,-8C562,-8 855,-8 855,-8 861,-8 867,-14 867,-20 867,-20 867,-344.096 867,-344.096 867,-350.096 861,-356.096 855,-356.096 855,-356.096 562,-356.096 562,-356.096 556,-356.096 550,-350.096 550,-344.096 550,-344.096 550,-20 550,-20 550,-14 556,-8 562,-8"/>
<text text-anchor="middle" x="708.5" y="-340.896" font-family="Times,serif" font-size="14.00">Class: Monad</text>
</g>
<g id="clust8" class="cluster"><title>cluster_Class_Monad_Data_Lensedbvm</title>
<path fill="#c6e2ff" stroke="black" d="M570,-119.352C570,-119.352 847,-119.352 847,-119.352 853,-119.352 859,-125.352 859,-131.352 859,-131.352 859,-190.744 859,-190.744 859,-196.744 853,-202.744 847,-202.744 847,-202.744 570,-202.744 570,-202.744 564,-202.744 558,-196.744 558,-190.744 558,-190.744 558,-131.352 558,-131.352 558,-125.352 564,-119.352 570,-119.352"/>
<text text-anchor="middle" x="708.5" y="-187.544" font-family="Times,serif" font-size="14.00">Instance for: (Lensed b v m)</text>
</g>
<g id="clust9" class="cluster"><title>cluster_Class_MonadCatchIO</title>
<path fill="#ffc1c1" stroke="black" d="M4291,-8C4291,-8 5069,-8 5069,-8 5075,-8 5081,-14 5081,-20 5081,-20 5081,-221.744 5081,-221.744 5081,-227.744 5075,-233.744 5069,-233.744 5069,-233.744 4291,-233.744 4291,-233.744 4285,-233.744 4279,-227.744 4279,-221.744 4279,-221.744 4279,-20 4279,-20 4279,-14 4285,-8 4291,-8"/>
<text text-anchor="middle" x="4680" y="-218.544" font-family="Times,serif" font-size="14.00">Class: MonadCatchIO</text>
</g>
<g id="clust10" class="cluster"><title>cluster_Class_MonadCatchIO_Data_Lensedbvm</title>
<path fill="#c6e2ff" stroke="black" d="M4323,-119.352C4323,-119.352 4777,-119.352 4777,-119.352 4783,-119.352 4789,-125.352 4789,-131.352 4789,-131.352 4789,-190.744 4789,-190.744 4789,-196.744 4783,-202.744 4777,-202.744 4777,-202.744 4323,-202.744 4323,-202.744 4317,-202.744 4311,-196.744 4311,-190.744 4311,-190.744 4311,-131.352 4311,-131.352 4311,-125.352 4317,-119.352 4323,-119.352"/>
<text text-anchor="middle" x="4550" y="-187.544" font-family="Times,serif" font-size="14.00">Instance for: (Lensed b v m)</text>
</g>
<g id="clust11" class="cluster"><title>cluster_Class_MonadIO</title>
<path fill="#ffc1c1" stroke="black" d="M4200,-241.744C4200,-241.744 4442,-241.744 4442,-241.744 4448,-241.744 4454,-247.744 4454,-253.744 4454,-253.744 4454,-466.487 4454,-466.487 4454,-472.487 4448,-478.487 4442,-478.487 4442,-478.487 4200,-478.487 4200,-478.487 4194,-478.487 4188,-472.487 4188,-466.487 4188,-466.487 4188,-253.744 4188,-253.744 4188,-247.744 4194,-241.744 4200,-241.744"/>
<text text-anchor="middle" x="4321" y="-463.287" font-family="Times,serif" font-size="14.00">Class: MonadIO</text>
</g>
<g id="clust12" class="cluster"><title>cluster_Class_MonadIO_Data_Lensedbvm</title>
<path fill="#c6e2ff" stroke="black" d="M4232,-364.096C4232,-364.096 4381,-364.096 4381,-364.096 4387,-364.096 4393,-370.096 4393,-376.096 4393,-376.096 4393,-435.487 4393,-435.487 4393,-441.487 4387,-447.487 4381,-447.487 4381,-447.487 4232,-447.487 4232,-447.487 4226,-447.487 4220,-441.487 4220,-435.487 4220,-435.487 4220,-376.096 4220,-376.096 4220,-370.096 4226,-364.096 4232,-364.096"/>
<text text-anchor="middle" x="4306.5" y="-432.287" font-family="Times,serif" font-size="14.00">Instance for: (Lensed b v m)</text>
</g>
<g id="clust13" class="cluster"><title>cluster_Class_MonadPlus</title>
<path fill="#ffc1c1" stroke="black" d="M2350,-241.744C2350,-241.744 2860,-241.744 2860,-241.744 2866,-241.744 2872,-247.744 2872,-253.744 2872,-253.744 2872,-466.487 2872,-466.487 2872,-472.487 2866,-478.487 2860,-478.487 2860,-478.487 2350,-478.487 2350,-478.487 2344,-478.487 2338,-472.487 2338,-466.487 2338,-466.487 2338,-253.744 2338,-253.744 2338,-247.744 2344,-241.744 2350,-241.744"/>
<text text-anchor="middle" x="2605" y="-463.287" font-family="Times,serif" font-size="14.00">Class: MonadPlus</text>
</g>
<g id="clust14" class="cluster"><title>cluster_Class_MonadPlus_Data_Lensedbvm</title>
<path fill="#c6e2ff" stroke="black" d="M2559,-364.096C2559,-364.096 2852,-364.096 2852,-364.096 2858,-364.096 2864,-370.096 2864,-376.096 2864,-376.096 2864,-435.487 2864,-435.487 2864,-441.487 2858,-447.487 2852,-447.487 2852,-447.487 2559,-447.487 2559,-447.487 2553,-447.487 2547,-441.487 2547,-435.487 2547,-435.487 2547,-376.096 2547,-376.096 2547,-370.096 2553,-364.096 2559,-364.096"/>
<text text-anchor="middle" x="2705.5" y="-432.287" font-family="Times,serif" font-size="14.00">Instance for: (Lensed b v m)</text>
</g>
<g id="clust15" class="cluster"><title>cluster_Class_MonadReader</title>
<path fill="#ffc1c1" stroke="black" d="M3282,-111.352C3282,-111.352 3792,-111.352 3792,-111.352 3798,-111.352 3804,-117.352 3804,-123.352 3804,-123.352 3804,-344.096 3804,-344.096 3804,-350.096 3798,-356.096 3792,-356.096 3792,-356.096 3282,-356.096 3282,-356.096 3276,-356.096 3270,-350.096 3270,-344.096 3270,-344.096 3270,-123.352 3270,-123.352 3270,-117.352 3276,-111.352 3282,-111.352"/>
<text text-anchor="middle" x="3537" y="-340.896" font-family="Times,serif" font-size="14.00">Class: MonadReader</text>
</g>
<g id="clust16" class="cluster"><title>cluster_Class_MonadReader_Data_ALensbvLensedbvm</title>
<path fill="#c6e2ff" stroke="black" d="M3474,-119.352C3474,-119.352 3732,-119.352 3732,-119.352 3738,-119.352 3744,-125.352 3744,-131.352 3744,-131.352 3744,-190.744 3744,-190.744 3744,-196.744 3738,-202.744 3732,-202.744 3732,-202.744 3474,-202.744 3474,-202.744 3468,-202.744 3462,-196.744 3462,-190.744 3462,-190.744 3462,-131.352 3462,-131.352 3462,-125.352 3468,-119.352 3474,-119.352"/>
<text text-anchor="middle" x="3603" y="-187.544" font-family="Times,serif" font-size="14.00">Instance for: (ALens&#39; b v) (Lensed b v m)</text>
</g>
<g id="clust17" class="cluster"><title>cluster_Class_MonadSnap</title>
<path fill="#ffc1c1" stroke="black" d="M4474,-241.744C4474,-241.744 4716,-241.744 4716,-241.744 4722,-241.744 4728,-247.744 4728,-253.744 4728,-253.744 4728,-466.487 4728,-466.487 4728,-472.487 4722,-478.487 4716,-478.487 4716,-478.487 4474,-478.487 4474,-478.487 4468,-478.487 4462,-472.487 4462,-466.487 4462,-466.487 4462,-253.744 4462,-253.744 4462,-247.744 4468,-241.744 4474,-241.744"/>
<text text-anchor="middle" x="4595" y="-463.287" font-family="Times,serif" font-size="14.00">Class: MonadSnap</text>
</g>
<g id="clust18" class="cluster"><title>cluster_Class_MonadSnap_Data_Lensedbvm</title>
<path fill="#c6e2ff" stroke="black" d="M4502,-364.096C4502,-364.096 4651,-364.096 4651,-364.096 4657,-364.096 4663,-370.096 4663,-376.096 4663,-376.096 4663,-435.487 4663,-435.487 4663,-441.487 4657,-447.487 4651,-447.487 4651,-447.487 4502,-447.487 4502,-447.487 4496,-447.487 4490,-441.487 4490,-435.487 4490,-435.487 4490,-376.096 4490,-376.096 4490,-370.096 4496,-364.096 4502,-364.096"/>
<text text-anchor="middle" x="4576.5" y="-432.287" font-family="Times,serif" font-size="14.00">Instance for: (Lensed b v m)</text>
</g>
<g id="clust19" class="cluster"><title>cluster_Class_MonadState</title>
<path fill="#ffc1c1" stroke="black" d="M997,-111.352C997,-111.352 1507,-111.352 1507,-111.352 1513,-111.352 1519,-117.352 1519,-123.352 1519,-123.352 1519,-344.096 1519,-344.096 1519,-350.096 1513,-356.096 1507,-356.096 1507,-356.096 997,-356.096 997,-356.096 991,-356.096 985,-350.096 985,-344.096 985,-344.096 985,-123.352 985,-123.352 985,-117.352 991,-111.352 997,-111.352"/>
<text text-anchor="middle" x="1252" y="-340.896" font-family="Times,serif" font-size="14.00">Class: MonadState</text>
</g>
<g id="clust20" class="cluster"><title>cluster_Class_MonadState_Data_vLensedbvm</title>
<path fill="#c6e2ff" stroke="black" d="M1131,-119.352C1131,-119.352 1372,-119.352 1372,-119.352 1378,-119.352 1384,-125.352 1384,-131.352 1384,-131.352 1384,-190.744 1384,-190.744 1384,-196.744 1378,-202.744 1372,-202.744 1372,-202.744 1131,-202.744 1131,-202.744 1125,-202.744 1119,-196.744 1119,-190.744 1119,-190.744 1119,-131.352 1119,-131.352 1119,-125.352 1125,-119.352 1131,-119.352"/>
<text text-anchor="middle" x="1251.5" y="-187.544" font-family="Times,serif" font-size="14.00">Instance for: v (Lensed b v m)</text>
</g>
<g id="clust21" class="cluster"><title>cluster_Class_MonadTrans</title>
<path fill="#ffc1c1" stroke="black" d="M3008,-111.352C3008,-111.352 3250,-111.352 3250,-111.352 3256,-111.352 3262,-117.352 3262,-123.352 3262,-123.352 3262,-344.096 3262,-344.096 3262,-350.096 3256,-356.096 3250,-356.096 3250,-356.096 3008,-356.096 3008,-356.096 3002,-356.096 2996,-350.096 2996,-344.096 2996,-344.096 2996,-123.352 2996,-123.352 2996,-117.352 3002,-111.352 3008,-111.352"/>
<text text-anchor="middle" x="3129" y="-340.896" font-family="Times,serif" font-size="14.00">Class: MonadTrans</text>
</g>
<g id="clust22" class="cluster"><title>cluster_Class_MonadTrans_Data_Lensedbv</title>
<path fill="#c6e2ff" stroke="black" d="M3062,-119.352C3062,-119.352 3196,-119.352 3196,-119.352 3202,-119.352 3208,-125.352 3208,-131.352 3208,-131.352 3208,-190.744 3208,-190.744 3208,-196.744 3202,-202.744 3196,-202.744 3196,-202.744 3062,-202.744 3062,-202.744 3056,-202.744 3050,-196.744 3050,-190.744 3050,-190.744 3050,-131.352 3050,-131.352 3050,-125.352 3056,-119.352 3062,-119.352"/>
<text text-anchor="middle" x="3129" y="-187.544" font-family="Times,serif" font-size="14.00">Instance for: (Lensed b v)</text>
</g>
<g id="clust23" class="cluster"><title>cluster_Data_Lensed</title>
<path fill="papayawhip" stroke="black" d="M4161,-27.6761C4161,-27.6761 4259,-27.6761 4259,-27.6761 4265,-27.6761 4271,-33.6761 4271,-39.6761 4271,-39.6761 4271,-186.548 4271,-186.548 4271,-192.548 4265,-198.548 4259,-198.548 4259,-198.548 4161,-198.548 4161,-198.548 4155,-198.548 4149,-192.548 4149,-186.548 4149,-186.548 4149,-39.6761 4149,-39.6761 4149,-33.6761 4155,-27.6761 4161,-27.6761"/>
<text text-anchor="middle" x="4210" y="-183.348" font-family="Times,serif" font-size="14.00">Data: Lensed</text>
</g>
<!-- 2 -->
<g id="node1" class="node"><title>2</title>
<polygon fill="bisque" stroke="black" stroke-width="2" points="342.898,-385.016 342.898,-403.567 307.811,-416.685 258.189,-416.685 223.102,-403.567 223.102,-385.016 258.189,-371.898 307.811,-371.898 342.898,-385.016"/>
<text text-anchor="middle" x="283" y="-390.591" font-family="Times,serif" font-size="14.00">&lt;|&gt;</text>
</g>
<!-- 32 -->
<g id="node3" class="node"><title>32</title>
<polygon fill="khaki" stroke="black" stroke-dasharray="1,5" points="261.858,-273.405 261.858,-301.434 191.061,-321.254 90.9389,-321.254 20.1417,-301.434 20.1417,-273.405 90.9389,-253.585 191.061,-253.585 261.858,-273.405"/>
<polygon fill="none" stroke="black" stroke-dasharray="1,5" points="265.856,-270.353 265.856,-304.487 191.607,-325.273 90.3926,-325.273 16.144,-304.487 16.144,-270.353 90.3926,-249.567 191.607,-249.567 265.856,-270.353"/>
<text text-anchor="middle" x="141" y="-291.22" font-family="Times,serif" font-size="14.00">Unknown Module</text>
<text text-anchor="middle" x="141" y="-276.22" font-family="Times,serif" font-size="14.00">&lt;|&gt;</text>
</g>
<!-- 2&#45;&gt;32 -->
<g id="edge3" class="edge"><title>2&#45;&gt;32</title>
<path fill="none" stroke="black" d="M251.591,-374.056C234.16,-362.051 212.136,-346.101 192.309,-331.223"/>
<polygon fill="black" stroke="black" points="194.348,-328.376 184.257,-325.147 190.131,-333.964 194.348,-328.376"/>
</g>
<!-- 4 -->
<g id="node39" class="node"><title>4</title>
<polygon fill="goldenrod" stroke="black" stroke-width="2" points="4255,-71.6761 4161,-71.6761 4157,-67.6761 4157,-35.6761 4251,-35.6761 4255,-39.6761 4255,-71.6761"/>
<polyline fill="none" stroke="black" stroke-width="2" points="4251,-67.6761 4157,-67.6761 "/>
<polyline fill="none" stroke="black" stroke-width="2" points="4251,-67.6761 4251,-35.6761 "/>
<polyline fill="none" stroke="black" stroke-width="2" points="4251,-67.6761 4255,-71.6761 "/>
<text text-anchor="middle" x="4206" y="-49.9761" font-family="Times,serif" font-size="14.00">Lensed</text>
</g>
<!-- 2&#45;&gt;4 -->
<g id="edge2" class="edge"><title>2&#45;&gt;4</title>
<path fill="none" stroke="black" stroke-width="2.09861" d="M317.591,-375.503C328.334,-370.849 340.404,-366.473 352,-364.096 365.239,-361.382 2287.12,-364.112 2298,-356.096 2340.9,-324.492 2292.15,-274.719 2334,-241.744 2344.15,-233.748 2437.28,-235.992 2450,-233.744 2643.14,-199.606 2680.42,-142.944 2874,-111.352 3124.31,-70.5028 3922.17,-58.0584 4146.7,-55.322"/>
<polygon fill="black" stroke="black" stroke-width="2.09861" points="4146.99,-58.8187 4156.95,-55.1989 4146.91,-51.8192 4146.99,-58.8187"/>
</g>
<!-- 9 -->
<g id="node2" class="node"><title>9</title>
<polygon fill="bisque" stroke="black" stroke-width="2" points="503.359,-385.016 503.359,-403.567 461.558,-416.685 402.442,-416.685 360.641,-403.567 360.641,-385.016 402.442,-371.898 461.558,-371.898 503.359,-385.016"/>
<text text-anchor="middle" x="432" y="-390.591" font-family="Times,serif" font-size="14.00">empty</text>
</g>
<!-- 37 -->
<g id="node4" class="node"><title>37</title>
<polygon fill="khaki" stroke="black" stroke-dasharray="1,5" points="529.858,-273.405 529.858,-301.434 459.061,-321.254 358.939,-321.254 288.142,-301.434 288.142,-273.405 358.939,-253.585 459.061,-253.585 529.858,-273.405"/>
<polygon fill="none" stroke="black" stroke-dasharray="1,5" points="533.856,-270.353 533.856,-304.487 459.607,-325.273 358.393,-325.273 284.144,-304.487 284.144,-270.353 358.393,-249.567 459.607,-249.567 533.856,-270.353"/>
<text text-anchor="middle" x="409" y="-291.22" font-family="Times,serif" font-size="14.00">Unknown Module</text>
<text text-anchor="middle" x="409" y="-276.22" font-family="Times,serif" font-size="14.00">empty</text>
</g>
<!-- 9&#45;&gt;37 -->
<g id="edge14" class="edge"><title>9&#45;&gt;37</title>
<path fill="none" stroke="black" d="M421.797,-372.069C418.545,-361.49 415.251,-348.247 412.594,-335.439"/>
<polygon fill="black" stroke="black" points="415.969,-334.461 410.613,-325.32 409.1,-335.806 415.969,-334.461"/>
</g>
<!-- 40 -->
<g id="node38" class="node"><title>40</title>
<polygon fill="khaki" stroke="black" stroke-dasharray="1,5" points="3249.86,-273.405 3249.86,-301.434 3179.06,-321.254 3078.94,-321.254 3008.14,-301.434 3008.14,-273.405 3078.94,-253.585 3179.06,-253.585 3249.86,-273.405"/>
<polygon fill="none" stroke="black" stroke-dasharray="1,5" points="3253.86,-270.353 3253.86,-304.487 3179.61,-325.273 3078.39,-325.273 3004.14,-304.487 3004.14,-270.353 3078.39,-249.567 3179.61,-249.567 3253.86,-270.353"/>
<text text-anchor="middle" x="3129" y="-291.22" font-family="Times,serif" font-size="14.00">Unknown Module</text>
<text text-anchor="middle" x="3129" y="-276.22" font-family="Times,serif" font-size="14.00">lift</text>
</g>
<!-- 9&#45;&gt;40 -->
<g id="edge15" class="edge"><title>9&#45;&gt;40</title>
<path fill="none" stroke="black" d="M503.329,-392.31C916.74,-386.616 2987.22,-358.009 2995,-356.096 3018.58,-350.297 3042.75,-339.752 3063.96,-328.685"/>
<polygon fill="black" stroke="black" points="3065.69,-331.728 3072.85,-323.923 3062.39,-325.557 3065.69,-331.728"/>
</g>
<!-- 32&#45;&gt;2 -->
<g id="edge55" class="edge"><title>32&#45;&gt;2</title>
<path fill="none" stroke="navy" d="M195.989,-324.275C218.144,-340.184 242.462,-358.363 259.813,-372.069"/>
</g>
<!-- 37&#45;&gt;9 -->
<g id="edge60" class="edge"><title>37&#45;&gt;9</title>
<path fill="none" stroke="navy" d="M423.572,-325.32C427.566,-340.976 431.135,-358.662 432.894,-372.069"/>
</g>
<!-- 1 -->
<g id="node5" class="node"><title>1</title>
<polygon fill="bisque" stroke="black" stroke-width="2" points="2114.52,-140.272 2114.52,-158.823 2077.9,-171.941 2026.1,-171.941 1989.48,-158.823 1989.48,-140.272 2026.1,-127.155 2077.9,-127.155 2114.52,-140.272"/>
<text text-anchor="middle" x="2052" y="-145.848" font-family="Times,serif" font-size="14.00">&lt;*&gt;</text>
</g>
<!-- 1&#45;&gt;4 -->
<g id="edge1" class="edge"><title>1&#45;&gt;4</title>
<path fill="none" stroke="black" stroke-width="2.09861" d="M2095.4,-133.396C2120.87,-125.246 2153.87,-115.947 2184,-111.352 2576.87,-51.4366 3855.51,-53.1638 4146.64,-54.3691"/>
<polygon fill="black" stroke="black" stroke-width="2.09861" points="4146.96,-57.8704 4156.98,-54.4134 4146.99,-50.8705 4146.96,-57.8704"/>
</g>
<!-- 23 -->
<g id="node6" class="node"><title>23</title>
<polygon fill="bisque" stroke="black" stroke-width="2" points="1971.55,-140.272 1971.55,-158.823 1934.32,-171.941 1881.68,-171.941 1844.45,-158.823 1844.45,-140.272 1881.68,-127.155 1934.32,-127.155 1971.55,-140.272"/>
<text text-anchor="middle" x="1908" y="-145.848" font-family="Times,serif" font-size="14.00">pure</text>
</g>
<!-- 48 -->
<g id="node14" class="node"><title>48</title>
<polygon fill="khaki" stroke="black" stroke-dasharray="1,5" points="854.858,-39.6615 854.858,-67.6908 784.061,-87.5105 683.939,-87.5105 613.142,-67.6908 613.142,-39.6615 683.939,-19.8418 784.061,-19.8418 854.858,-39.6615"/>
<polygon fill="none" stroke="black" stroke-dasharray="1,5" points="858.856,-36.609 858.856,-70.7433 784.607,-91.5293 683.393,-91.5293 609.144,-70.7433 609.144,-36.609 683.393,-15.823 784.607,-15.823 858.856,-36.609"/>
<text text-anchor="middle" x="734" y="-57.4761" font-family="Times,serif" font-size="14.00">Unknown Module</text>
<text text-anchor="middle" x="734" y="-42.4761" font-family="Times,serif" font-size="14.00">return</text>
</g>
<!-- 23&#45;&gt;48 -->
<g id="edge40" class="edge"><title>23&#45;&gt;48</title>
<path fill="none" stroke="black" d="M1849.2,-138.594C1797.42,-130.167 1719.9,-118.369 1652,-111.352 1374.52,-82.6783 1048.25,-66.746 869.002,-59.5183"/>
<polygon fill="black" stroke="black" points="869.127,-56.0205 858.995,-59.1176 868.847,-63.0149 869.127,-56.0205"/>
</g>
<!-- 23&#45;&gt;4 -->
<g id="edge39" class="edge"><title>23&#45;&gt;4</title>
<path fill="none" stroke="black" d="M1939.02,-128.627C1951.29,-121.809 1965.83,-114.989 1980,-111.352 2194.85,-56.2286 3813.59,-54.3905 4146.32,-54.6004"/>
<polygon fill="black" stroke="black" points="4146.7,-58.1006 4156.7,-54.6079 4146.7,-51.1006 4146.7,-58.1006"/>
</g>
<!-- 31 -->
<g id="node7" class="node"><title>31</title>
<polygon fill="khaki" stroke="black" stroke-dasharray="1,5" points="2172.86,-273.405 2172.86,-301.434 2102.06,-321.254 2001.94,-321.254 1931.14,-301.434 1931.14,-273.405 2001.94,-253.585 2102.06,-253.585 2172.86,-273.405"/>
<polygon fill="none" stroke="black" stroke-dasharray="1,5" points="2176.86,-270.353 2176.86,-304.487 2102.61,-325.273 2001.39,-325.273 1927.14,-304.487 1927.14,-270.353 2001.39,-249.567 2102.61,-249.567 2176.86,-270.353"/>
<text text-anchor="middle" x="2052" y="-291.22" font-family="Times,serif" font-size="14.00">Unknown Module</text>
<text text-anchor="middle" x="2052" y="-276.22" font-family="Times,serif" font-size="14.00">&lt;*&gt;</text>
</g>
<!-- 31&#45;&gt;1 -->
<g id="edge54" class="edge"><title>31&#45;&gt;1</title>
<path fill="none" stroke="navy" d="M2052,-249.651C2052,-224.816 2052,-192.886 2052,-172.08"/>
</g>
<!-- 46 -->
<g id="node8" class="node"><title>46</title>
<polygon fill="khaki" stroke="black" stroke-dasharray="1,5" points="1904.86,-273.405 1904.86,-301.434 1834.06,-321.254 1733.94,-321.254 1663.14,-301.434 1663.14,-273.405 1733.94,-253.585 1834.06,-253.585 1904.86,-273.405"/>
<polygon fill="none" stroke="black" stroke-dasharray="1,5" points="1908.86,-270.353 1908.86,-304.487 1834.61,-325.273 1733.39,-325.273 1659.14,-304.487 1659.14,-270.353 1733.39,-249.567 1834.61,-249.567 1908.86,-270.353"/>
<text text-anchor="middle" x="1784" y="-291.22" font-family="Times,serif" font-size="14.00">Unknown Module</text>
<text text-anchor="middle" x="1784" y="-276.22" font-family="Times,serif" font-size="14.00">pure</text>
</g>
<!-- 46&#45;&gt;23 -->
<g id="edge69" class="edge"><title>46&#45;&gt;23</title>
<path fill="none" stroke="navy" d="M1817.56,-249.651C1840.22,-224.816 1869.36,-192.886 1888.35,-172.08"/>
</g>
<!-- 10 -->
<g id="node9" class="node"><title>10</title>
<polygon fill="bisque" stroke="black" stroke-width="2" points="4062.67,-140.272 4062.67,-158.823 4023.62,-171.941 3968.38,-171.941 3929.33,-158.823 3929.33,-140.272 3968.38,-127.155 4023.62,-127.155 4062.67,-140.272"/>
<text text-anchor="middle" x="3996" y="-145.848" font-family="Times,serif" font-size="14.00">fmap</text>
</g>
<!-- 10&#45;&gt;4 -->
<g id="edge16" class="edge"><title>10&#45;&gt;4</title>
<path fill="none" stroke="black" stroke-width="1.69315" d="M4035.5,-130.891C4070.29,-115.339 4121.06,-92.6457 4158.15,-76.0671"/>
<polygon fill="black" stroke="black" stroke-width="1.69315" points="4160.04,-79.0548 4167.74,-71.7786 4157.18,-72.6642 4160.04,-79.0548"/>
</g>
<!-- 38 -->
<g id="node10" class="node"><title>38</title>
<polygon fill="khaki" stroke="black" stroke-dasharray="1,5" points="4097.86,-273.405 4097.86,-301.434 4027.06,-321.254 3926.94,-321.254 3856.14,-301.434 3856.14,-273.405 3926.94,-253.585 4027.06,-253.585 4097.86,-273.405"/>
<polygon fill="none" stroke="black" stroke-dasharray="1,5" points="4101.86,-270.353 4101.86,-304.487 4027.61,-325.273 3926.39,-325.273 3852.14,-304.487 3852.14,-270.353 3926.39,-249.567 4027.61,-249.567 4101.86,-270.353"/>
<text text-anchor="middle" x="3977" y="-291.22" font-family="Times,serif" font-size="14.00">Unknown Module</text>
<text text-anchor="middle" x="3977" y="-276.22" font-family="Times,serif" font-size="14.00">fmap</text>
</g>
<!-- 38&#45;&gt;10 -->
<g id="edge61" class="edge"><title>38&#45;&gt;10</title>
<path fill="none" stroke="navy" d="M3982.14,-249.651C3985.61,-224.816 3990.08,-192.886 3992.99,-172.08"/>
</g>
<!-- 3 -->
<g id="node11" class="node"><title>3</title>
<polygon fill="bisque" stroke="black" stroke-width="2" points="850.551,-140.272 850.551,-158.823 813.324,-171.941 760.676,-171.941 723.449,-158.823 723.449,-140.272 760.676,-127.155 813.324,-127.155 850.551,-140.272"/>
<text text-anchor="middle" x="787" y="-145.848" font-family="Times,serif" font-size="14.00">&gt;&gt;=</text>
</g>
<!-- 3&#45;&gt;4 -->
<g id="edge4" class="edge"><title>3&#45;&gt;4</title>
<path fill="none" stroke="black" stroke-width="1.69315" d="M819.693,-129.345C833.501,-122.26 850.053,-115.061 866,-111.352 1032.08,-72.7272 3712.62,-57.2338 4146.81,-54.9725"/>
<polygon fill="black" stroke="black" stroke-width="1.69315" points="4146.96,-58.4718 4156.94,-54.92 4146.92,-51.4719 4146.96,-58.4718"/>
</g>
<!-- 28 -->
<g id="node40" class="node"><title>28</title>
<polygon fill="goldenrod" stroke="black" stroke-width="2" points="4263.5,-167.548 4156.5,-167.548 4156.5,-163.548 4152.5,-163.548 4152.5,-159.548 4156.5,-159.548 4156.5,-139.548 4152.5,-139.548 4152.5,-135.548 4156.5,-135.548 4156.5,-131.548 4263.5,-131.548 4263.5,-167.548"/>
<polyline fill="none" stroke="black" stroke-width="2" points="4156.5,-163.548 4160.5,-163.548 4160.5,-159.548 4156.5,-159.548 "/>
<polyline fill="none" stroke="black" stroke-width="2" points="4156.5,-139.548 4160.5,-139.548 4160.5,-135.548 4156.5,-135.548 "/>
<text text-anchor="middle" x="4210" y="-145.848" font-family="Times,serif" font-size="14.00">unlensed</text>
</g>
<!-- 3&#45;&gt;28 -->
<g id="edge5" class="edge"><title>3&#45;&gt;28</title>
<path fill="none" stroke="black" d="M798.958,-171.822C813.302,-195.419 839.876,-230.29 875,-237.744 897.132,-242.44 4110.87,-242.44 4133,-237.744 4163.76,-231.216 4185.46,-200.376 4197.82,-176.987"/>
<polygon fill="black" stroke="black" points="4201.06,-178.338 4202.39,-167.828 4194.79,-175.209 4201.06,-178.338"/>
</g>
<!-- 25 -->
<g id="node12" class="node"><title>25</title>
<polygon fill="bisque" stroke="black" stroke-width="2" points="705.797,-140.272 705.797,-158.823 664.911,-171.941 607.089,-171.941 566.203,-158.823 566.203,-140.272 607.089,-127.155 664.911,-127.155 705.797,-140.272"/>
<text text-anchor="middle" x="636" y="-145.848" font-family="Times,serif" font-size="14.00">return</text>
</g>
<!-- 25&#45;&gt;48 -->
<g id="edge44" class="edge"><title>25&#45;&gt;48</title>
<path fill="none" stroke="black" d="M652.477,-127.247C660.729,-118.632 671.133,-108.356 681.738,-98.2851"/>
<polygon fill="black" stroke="black" points="684.205,-100.77 689.089,-91.3685 679.408,-95.6723 684.205,-100.77"/>
</g>
<!-- 25&#45;&gt;4 -->
<g id="edge43" class="edge"><title>25&#45;&gt;4</title>
<path fill="none" stroke="black" d="M669.775,-128.552C683.089,-121.726 698.81,-114.918 714,-111.352 887.916,-70.5209 3701.89,-56.8321 4146.93,-54.9184"/>
<polygon fill="black" stroke="black" points="4147.01,-58.4181 4157,-54.8754 4146.98,-51.4182 4147.01,-58.4181"/>
</g>
<!-- 33 -->
<g id="node13" class="node"><title>33</title>
<polygon fill="khaki" stroke="black" stroke-dasharray="1,5" points="854.858,-273.405 854.858,-301.434 784.061,-321.254 683.939,-321.254 613.142,-301.434 613.142,-273.405 683.939,-253.585 784.061,-253.585 854.858,-273.405"/>
<polygon fill="none" stroke="black" stroke-dasharray="1,5" points="858.856,-270.353 858.856,-304.487 784.607,-325.273 683.393,-325.273 609.144,-304.487 609.144,-270.353 683.393,-249.567 784.607,-249.567 858.856,-270.353"/>
<text text-anchor="middle" x="734" y="-291.22" font-family="Times,serif" font-size="14.00">Unknown Module</text>
<text text-anchor="middle" x="734" y="-276.22" font-family="Times,serif" font-size="14.00">&gt;&gt;=</text>
</g>
<!-- 33&#45;&gt;3 -->
<g id="edge56" class="edge"><title>33&#45;&gt;3</title>
<path fill="none" stroke="navy" d="M748.343,-249.651C758.03,-224.816 770.485,-192.886 778.601,-172.08"/>
</g>
<!-- 48&#45;&gt;25 -->
<g id="edge71" class="edge"><title>48&#45;&gt;25</title>
<path fill="none" stroke="navy" d="M702.299,-91.3685C689.957,-103.525 675.979,-116.645 663.999,-127.247"/>
</g>
<!-- 6 -->
<g id="node15" class="node"><title>6</title>
<polygon fill="bisque" stroke="black" stroke-width="2" points="4455.24,-140.272 4455.24,-158.823 4415.26,-171.941 4358.74,-171.941 4318.76,-158.823 4318.76,-140.272 4358.74,-127.155 4415.26,-127.155 4455.24,-140.272"/>
<text text-anchor="middle" x="4387" y="-145.848" font-family="Times,serif" font-size="14.00">block</text>
</g>
<!-- 35 -->
<g id="node18" class="node"><title>35</title>
<polygon fill="khaki" stroke="black" stroke-dasharray="1,5" points="4532.86,-39.6615 4532.86,-67.6908 4462.06,-87.5105 4361.94,-87.5105 4291.14,-67.6908 4291.14,-39.6615 4361.94,-19.8418 4462.06,-19.8418 4532.86,-39.6615"/>
<polygon fill="none" stroke="black" stroke-dasharray="1,5" points="4536.86,-36.609 4536.86,-70.7433 4462.61,-91.5293 4361.39,-91.5293 4287.14,-70.7433 4287.14,-36.609 4361.39,-15.823 4462.61,-15.823 4536.86,-36.609"/>
<text text-anchor="middle" x="4412" y="-57.4761" font-family="Times,serif" font-size="14.00">Unknown Module</text>
<text text-anchor="middle" x="4412" y="-42.4761" font-family="Times,serif" font-size="14.00">block</text>
</g>
<!-- 6&#45;&gt;35 -->
<g id="edge9" class="edge"><title>6&#45;&gt;35</title>
<path fill="none" stroke="black" d="M4386.91,-127.247C4388.32,-119.461 4390.42,-110.317 4392.86,-101.194"/>
<polygon fill="black" stroke="black" points="4396.29,-101.943 4395.62,-91.3685 4389.55,-100.049 4396.29,-101.943"/>
</g>
<!-- 6&#45;&gt;4 -->
<g id="edge8" class="edge"><title>6&#45;&gt;4</title>
<path fill="none" stroke="black" stroke-width="1.69315" d="M4350.1,-129.894C4328.22,-118.789 4299.98,-104.367 4275,-91.3523 4265.89,-86.6036 4256.13,-81.454 4246.9,-76.5564"/>
<polygon fill="black" stroke="black" stroke-width="1.69315" points="4248.36,-73.372 4237.89,-71.7671 4245.08,-79.5525 4248.36,-73.372"/>
</g>
<!-- 7 -->
<g id="node16" class="node"><title>7</title>
<polygon fill="bisque" stroke="black" stroke-width="2" points="4606.67,-140.272 4606.67,-158.823 4567.62,-171.941 4512.38,-171.941 4473.33,-158.823 4473.33,-140.272 4512.38,-127.155 4567.62,-127.155 4606.67,-140.272"/>
<text text-anchor="middle" x="4540" y="-145.848" font-family="Times,serif" font-size="14.00">catch</text>
</g>
<!-- 36 -->
<g id="node19" class="node"><title>36</title>
<polygon fill="khaki" stroke="black" stroke-dasharray="1,5" points="4800.86,-39.6615 4800.86,-67.6908 4730.06,-87.5105 4629.94,-87.5105 4559.14,-67.6908 4559.14,-39.6615 4629.94,-19.8418 4730.06,-19.8418 4800.86,-39.6615"/>
<polygon fill="none" stroke="black" stroke-dasharray="1,5" points="4804.86,-36.609 4804.86,-70.7433 4730.61,-91.5293 4629.39,-91.5293 4555.14,-70.7433 4555.14,-36.609 4629.39,-15.823 4730.61,-15.823 4804.86,-36.609"/>
<text text-anchor="middle" x="4680" y="-57.4761" font-family="Times,serif" font-size="14.00">Unknown Module</text>
<text text-anchor="middle" x="4680" y="-42.4761" font-family="Times,serif" font-size="14.00">catch</text>
</g>
<!-- 7&#45;&gt;36 -->
<g id="edge11" class="edge"><title>7&#45;&gt;36</title>
<path fill="none" stroke="black" d="M4566.01,-127.247C4579.34,-117.758 4596.19,-106.252 4612.83,-95.2252"/>
<polygon fill="black" stroke="black" points="4615.07,-97.9415 4621.49,-89.5159 4611.22,-92.0968 4615.07,-97.9415"/>
</g>
<!-- 7&#45;&gt;4 -->
<g id="edge10" class="edge"><title>7&#45;&gt;4</title>
<path fill="none" stroke="black" stroke-width="2.09861" d="M4506.59,-129.056C4493.68,-122.377 4478.54,-115.538 4464,-111.352 4382.83,-87.9856 4355.77,-116.072 4275,-91.3523 4263.56,-87.8518 4251.82,-82.4118 4241.34,-76.7836"/>
<polygon fill="black" stroke="black" stroke-width="2.09861" points="4242.92,-73.6616 4232.49,-71.8332 4239.51,-79.7704 4242.92,-73.6616"/>
</g>
<!-- 27 -->
<g id="node17" class="node"><title>27</title>
<polygon fill="bisque" stroke="black" stroke-width="2" points="4781.13,-140.272 4781.13,-158.823 4735.36,-171.941 4670.64,-171.941 4624.87,-158.823 4624.87,-140.272 4670.64,-127.155 4735.36,-127.155 4781.13,-140.272"/>
<text text-anchor="middle" x="4703" y="-145.848" font-family="Times,serif" font-size="14.00">unblock</text>
</g>
<!-- 49 -->
<g id="node20" class="node"><title>49</title>
<polygon fill="khaki" stroke="black" stroke-dasharray="1,5" points="5068.86,-39.6615 5068.86,-67.6908 4998.06,-87.5105 4897.94,-87.5105 4827.14,-67.6908 4827.14,-39.6615 4897.94,-19.8418 4998.06,-19.8418 5068.86,-39.6615"/>
<polygon fill="none" stroke="black" stroke-dasharray="1,5" points="5072.86,-36.609 5072.86,-70.7433 4998.61,-91.5293 4897.39,-91.5293 4823.14,-70.7433 4823.14,-36.609 4897.39,-15.823 4998.61,-15.823 5072.86,-36.609"/>
<text text-anchor="middle" x="4948" y="-57.4761" font-family="Times,serif" font-size="14.00">Unknown Module</text>
<text text-anchor="middle" x="4948" y="-42.4761" font-family="Times,serif" font-size="14.00">unblock</text>
</g>
<!-- 27&#45;&gt;49 -->
<g id="edge48" class="edge"><title>27&#45;&gt;49</title>
<path fill="none" stroke="black" d="M4745.9,-130.002C4776.8,-117.688 4819.52,-101.197 4857.76,-86.7848"/>
<polygon fill="black" stroke="black" points="4859.24,-89.9654 4867.37,-83.1693 4856.78,-83.4134 4859.24,-89.9654"/>
</g>
<!-- 27&#45;&gt;4 -->
<g id="edge47" class="edge"><title>27&#45;&gt;4</title>
<path fill="none" stroke="black" stroke-width="1.69315" d="M4664.57,-128.727C4649.77,-122.01 4632.47,-115.231 4616,-111.352 4468.23,-76.5495 4421.17,-132.369 4275,-91.3523 4263.28,-88.0639 4251.3,-82.5757 4240.68,-76.8335"/>
<polygon fill="black" stroke="black" stroke-width="1.69315" points="4242.17,-73.6529 4231.74,-71.7708 4238.72,-79.7441 4242.17,-73.6529"/>
</g>
<!-- 35&#45;&gt;6 -->
<g id="edge58" class="edge"><title>35&#45;&gt;6</title>
<path fill="none" stroke="navy" d="M4408.83,-91.3685C4405.94,-103.525 4402.17,-116.645 4398.43,-127.247"/>
</g>
<!-- 36&#45;&gt;7 -->
<g id="edge59" class="edge"><title>36&#45;&gt;7</title>
<path fill="none" stroke="navy" d="M4631.65,-91.5278C4612.75,-104.447 4591.54,-118.436 4574.24,-129.325"/>
</g>
<!-- 49&#45;&gt;27 -->
<g id="edge72" class="edge"><title>49&#45;&gt;27</title>
<path fill="none" stroke="navy" d="M4874.31,-85.3524C4834.77,-100.787 4787.14,-118.898 4752.12,-131.766"/>
</g>
<!-- 17 -->
<g id="node21" class="node"><title>17</title>
<polygon fill="bisque" stroke="black" stroke-width="2" points="4374.24,-385.016 4374.24,-403.567 4334.26,-416.685 4277.74,-416.685 4237.76,-403.567 4237.76,-385.016 4277.74,-371.898 4334.26,-371.898 4374.24,-385.016"/>
<text text-anchor="middle" x="4306" y="-390.591" font-family="Times,serif" font-size="14.00">liftIO</text>
</g>
<!-- 41 -->
<g id="node22" class="node"><title>41</title>
<polygon fill="khaki" stroke="black" stroke-dasharray="1,5" points="4441.86,-273.405 4441.86,-301.434 4371.06,-321.254 4270.94,-321.254 4200.14,-301.434 4200.14,-273.405 4270.94,-253.585 4371.06,-253.585 4441.86,-273.405"/>
<polygon fill="none" stroke="black" stroke-dasharray="1,5" points="4445.86,-270.353 4445.86,-304.487 4371.61,-325.273 4270.39,-325.273 4196.14,-304.487 4196.14,-270.353 4270.39,-249.567 4371.61,-249.567 4445.86,-270.353"/>
<text text-anchor="middle" x="4321" y="-291.22" font-family="Times,serif" font-size="14.00">Unknown Module</text>
<text text-anchor="middle" x="4321" y="-276.22" font-family="Times,serif" font-size="14.00">liftIO</text>
</g>
<!-- 17&#45;&gt;41 -->
<g id="edge29" class="edge"><title>17&#45;&gt;41</title>
<path fill="none" stroke="black" d="M4303.49,-372.069C4304.07,-361.49 4305.57,-348.247 4307.56,-335.439"/>
<polygon fill="black" stroke="black" points="4311.05,-335.759 4309.24,-325.32 4304.15,-334.609 4311.05,-335.759"/>
</g>
<!-- 17&#45;&gt;40 -->
<g id="edge28" class="edge"><title>17&#45;&gt;40</title>
<path fill="none" stroke="black" d="M4237.58,-390.892C4006.46,-382.779 3268.95,-356.842 3266,-356.096 3241.92,-350.016 3217.13,-339.332 3195.37,-328.224"/>
<polygon fill="black" stroke="black" points="3196.72,-324.982 3186.24,-323.449 3193.48,-331.185 3196.72,-324.982"/>
</g>
<!-- 41&#45;&gt;17 -->
<g id="edge64" class="edge"><title>41&#45;&gt;17</title>
<path fill="none" stroke="navy" d="M4322.2,-325.32C4320.52,-340.976 4317.68,-358.662 4314.58,-372.069"/>
</g>
<!-- 21 -->
<g id="node23" class="node"><title>21</title>
<polygon fill="bisque" stroke="black" stroke-width="2" points="2856.33,-385.016 2856.33,-403.567 2815.13,-416.685 2756.87,-416.685 2715.67,-403.567 2715.67,-385.016 2756.87,-371.898 2815.13,-371.898 2856.33,-385.016"/>
<text text-anchor="middle" x="2786" y="-390.591" font-family="Times,serif" font-size="14.00">mplus</text>
</g>
<!-- 44 -->
<g id="node25" class="node"><title>44</title>
<polygon fill="khaki" stroke="black" stroke-dasharray="1,5" points="2859.86,-273.405 2859.86,-301.434 2789.06,-321.254 2688.94,-321.254 2618.14,-301.434 2618.14,-273.405 2688.94,-253.585 2789.06,-253.585 2859.86,-273.405"/>
<polygon fill="none" stroke="black" stroke-dasharray="1,5" points="2863.86,-270.353 2863.86,-304.487 2789.61,-325.273 2688.39,-325.273 2614.14,-304.487 2614.14,-270.353 2688.39,-249.567 2789.61,-249.567 2863.86,-270.353"/>
<text text-anchor="middle" x="2739" y="-291.22" font-family="Times,serif" font-size="14.00">Unknown Module</text>
<text text-anchor="middle" x="2739" y="-276.22" font-family="Times,serif" font-size="14.00">mplus</text>
</g>
<!-- 21&#45;&gt;44 -->
<g id="edge36" class="edge"><title>21&#45;&gt;44</title>
<path fill="none" stroke="black" d="M2770.94,-372.069C2765.15,-361.281 2758.69,-347.721 2753.02,-334.679"/>
<polygon fill="black" stroke="black" points="2756.18,-333.162 2749.06,-325.32 2749.74,-335.893 2756.18,-333.162"/>
</g>
<!-- 21&#45;&gt;4 -->
<g id="edge34" class="edge"><title>21&#45;&gt;4</title>
<path fill="none" stroke="black" d="M2853.53,-384.091C2908.05,-377.122 2986.81,-368.088 3056,-364.096 3070.67,-363.249 4102.97,-365.809 4114,-356.096 4155.18,-319.82 4122.16,-160.287 4147,-111.352 4153.35,-98.8378 4163.59,-87.5402 4173.77,-78.3846"/>
<polygon fill="black" stroke="black" points="4176.14,-80.9667 4181.48,-71.8161 4171.6,-75.6393 4176.14,-80.9667"/>
</g>
<!-- 21&#45;&gt;28 -->
<g id="edge35" class="edge"><title>21&#45;&gt;28</title>
<path fill="none" stroke="black" stroke-width="1.69315" d="M2853.53,-384.088C2908.05,-377.116 2986.81,-368.081 3056,-364.096 3071.09,-363.227 4131.82,-365.044 4144,-356.096 4151.43,-350.636 4186.45,-232.078 4202.24,-177.551"/>
<polygon fill="black" stroke="black" stroke-width="1.69315" points="4205.63,-178.433 4205.04,-167.854 4198.9,-176.49 4205.63,-178.433"/>
</g>
<!-- 22 -->
<g id="node24" class="node"><title>22</title>
<polygon fill="bisque" stroke="black" stroke-width="2" points="2697.36,-385.016 2697.36,-403.567 2655.56,-416.685 2596.44,-416.685 2554.64,-403.567 2554.64,-385.016 2596.44,-371.898 2655.56,-371.898 2697.36,-385.016"/>
<text text-anchor="middle" x="2626" y="-390.591" font-family="Times,serif" font-size="14.00">mzero</text>
</g>
<!-- 45 -->
<g id="node26" class="node"><title>45</title>
<polygon fill="khaki" stroke="black" stroke-dasharray="1,5" points="2591.86,-273.405 2591.86,-301.434 2521.06,-321.254 2420.94,-321.254 2350.14,-301.434 2350.14,-273.405 2420.94,-253.585 2521.06,-253.585 2591.86,-273.405"/>
<polygon fill="none" stroke="black" stroke-dasharray="1,5" points="2595.86,-270.353 2595.86,-304.487 2521.61,-325.273 2420.39,-325.273 2346.14,-304.487 2346.14,-270.353 2420.39,-249.567 2521.61,-249.567 2595.86,-270.353"/>
<text text-anchor="middle" x="2471" y="-291.22" font-family="Times,serif" font-size="14.00">Unknown Module</text>
<text text-anchor="middle" x="2471" y="-276.22" font-family="Times,serif" font-size="14.00">mzero</text>
</g>
<!-- 22&#45;&gt;45 -->
<g id="edge38" class="edge"><title>22&#45;&gt;45</title>
<path fill="none" stroke="black" d="M2591.05,-373.319C2572.24,-361.357 2548.67,-345.679 2527.37,-331.056"/>
<polygon fill="black" stroke="black" points="2529.25,-328.098 2519.03,-325.299 2525.27,-333.859 2529.25,-328.098"/>
</g>
<!-- 22&#45;&gt;40 -->
<g id="edge37" class="edge"><title>22&#45;&gt;40</title>
<path fill="none" stroke="black" d="M2667.33,-375.537C2679.85,-370.946 2693.78,-366.595 2707,-364.096 2769.91,-352.202 2932.93,-371.795 2995,-356.096 3018.55,-350.141 3042.71,-339.554 3063.91,-328.496"/>
<polygon fill="black" stroke="black" points="3065.64,-331.541 3072.81,-323.74 3062.34,-325.367 3065.64,-331.541"/>
</g>
<!-- 44&#45;&gt;21 -->
<g id="edge67" class="edge"><title>44&#45;&gt;21</title>
<path fill="none" stroke="navy" d="M2762.02,-325.32C2769.59,-340.976 2777.21,-358.662 2782.04,-372.069"/>
</g>
<!-- 45&#45;&gt;22 -->
<g id="edge68" class="edge"><title>45&#45;&gt;22</title>
<path fill="none" stroke="navy" d="M2529.17,-323.443C2553.63,-339.547 2580.8,-358.124 2600.18,-372.069"/>
</g>
<!-- 5 -->
<g id="node27" class="node"><title>5</title>
<polygon fill="bisque" stroke="black" stroke-width="2" points="3587.87,-140.272 3587.87,-158.823 3553.38,-171.941 3504.62,-171.941 3470.13,-158.823 3470.13,-140.272 3504.62,-127.155 3553.38,-127.155 3587.87,-140.272"/>
<text text-anchor="middle" x="3529" y="-145.848" font-family="Times,serif" font-size="14.00">ask</text>
</g>
<!-- 5&#45;&gt;48 -->
<g id="edge7" class="edge"><title>5&#45;&gt;48</title>
<path fill="none" stroke="black" d="M3470.73,-140.046C3407.25,-131.175 3302.65,-117.693 3212,-111.352 2750.7,-79.0847 1317.38,-61.0499 869.291,-56.0931"/>
<polygon fill="black" stroke="black" points="869.251,-52.5926 859.213,-55.982 869.173,-59.5921 869.251,-52.5926"/>
</g>
<!-- 5&#45;&gt;4 -->
<g id="edge6" class="edge"><title>5&#45;&gt;4</title>
<path fill="none" stroke="black" d="M3558.63,-128.913C3570.15,-122.217 3583.75,-115.404 3597,-111.352 3698.71,-80.2602 4014.15,-63.1236 4146.55,-57.1404"/>
<polygon fill="black" stroke="black" points="4147.06,-60.6211 4156.89,-56.6788 4146.75,-53.6281 4147.06,-60.6211"/>
</g>
<!-- 19 -->
<g id="node28" class="node"><title>19</title>
<polygon fill="bisque" stroke="black" stroke-width="2" points="3736.11,-140.272 3736.11,-158.823 3697.97,-171.941 3644.03,-171.941 3605.89,-158.823 3605.89,-140.272 3644.03,-127.155 3697.97,-127.155 3736.11,-140.272"/>
<text text-anchor="middle" x="3671" y="-145.848" font-family="Times,serif" font-size="14.00">local</text>
</g>
<!-- 15 -->
<g id="node45" class="node"><title>15</title>
<polygon fill="goldenrod" stroke="black" stroke-width="2" points="3465,-412.291 3341,-412.291 3341,-376.291 3465,-376.291 3465,-412.291"/>
<text text-anchor="middle" x="3403" y="-390.591" font-family="Times,serif" font-size="14.00">lensedLocal</text>
</g>
<!-- 19&#45;&gt;15 -->
<g id="edge32" class="edge"><title>19&#45;&gt;15</title>
<path fill="none" stroke="chartreuse" d="M3714.57,-166.369C3746.8,-180.648 3788.37,-205.097 3808,-241.744 3832,-286.545 3842.25,-318.551 3808,-356.096 3786.08,-380.122 3585.92,-388.831 3475.45,-391.826"/>
<polygon fill="chartreuse" stroke="chartreuse" points="3475.27,-388.329 3465.37,-392.09 3475.46,-395.327 3475.27,-388.329"/>
</g>
<!-- 34 -->
<g id="node29" class="node"><title>34</title>
<polygon fill="khaki" stroke="black" stroke-dasharray="1,5" points="3523.86,-273.405 3523.86,-301.434 3453.06,-321.254 3352.94,-321.254 3282.14,-301.434 3282.14,-273.405 3352.94,-253.585 3453.06,-253.585 3523.86,-273.405"/>
<polygon fill="none" stroke="black" stroke-dasharray="1,5" points="3527.86,-270.353 3527.86,-304.487 3453.61,-325.273 3352.39,-325.273 3278.14,-304.487 3278.14,-270.353 3352.39,-249.567 3453.61,-249.567 3527.86,-270.353"/>
<text text-anchor="middle" x="3403" y="-291.22" font-family="Times,serif" font-size="14.00">Unknown Module</text>
<text text-anchor="middle" x="3403" y="-276.22" font-family="Times,serif" font-size="14.00">ask</text>
</g>
<!-- 34&#45;&gt;5 -->
<g id="edge57" class="edge"><title>34&#45;&gt;5</title>
<path fill="none" stroke="navy" d="M3437.1,-249.651C3460.13,-224.816 3489.74,-192.886 3509.03,-172.08"/>
</g>
<!-- 43 -->
<g id="node30" class="node"><title>43</title>
<polygon fill="khaki" stroke="black" stroke-dasharray="1,5" points="3791.86,-273.405 3791.86,-301.434 3721.06,-321.254 3620.94,-321.254 3550.14,-301.434 3550.14,-273.405 3620.94,-253.585 3721.06,-253.585 3791.86,-273.405"/>
<polygon fill="none" stroke="black" stroke-dasharray="1,5" points="3795.86,-270.353 3795.86,-304.487 3721.61,-325.273 3620.39,-325.273 3546.14,-304.487 3546.14,-270.353 3620.39,-249.567 3721.61,-249.567 3795.86,-270.353"/>
<text text-anchor="middle" x="3671" y="-291.22" font-family="Times,serif" font-size="14.00">Unknown Module</text>
<text text-anchor="middle" x="3671" y="-276.22" font-family="Times,serif" font-size="14.00">local</text>
</g>
<!-- 43&#45;&gt;19 -->
<g id="edge66" class="edge"><title>43&#45;&gt;19</title>
<path fill="none" stroke="navy" d="M3671,-249.651C3671,-224.816 3671,-192.886 3671,-172.08"/>
</g>
<!-- 18 -->
<g id="node31" class="node"><title>18</title>
<polygon fill="bisque" stroke="black" stroke-width="2" points="4653.1,-385.016 4653.1,-403.567 4607.94,-416.685 4544.06,-416.685 4498.9,-403.567 4498.9,-385.016 4544.06,-371.898 4607.94,-371.898 4653.1,-385.016"/>
<text text-anchor="middle" x="4576" y="-390.591" font-family="Times,serif" font-size="14.00">liftSnap</text>
</g>
<!-- 42 -->
<g id="node32" class="node"><title>42</title>
<polygon fill="khaki" stroke="black" stroke-dasharray="1,5" points="4715.86,-273.405 4715.86,-301.434 4645.06,-321.254 4544.94,-321.254 4474.14,-301.434 4474.14,-273.405 4544.94,-253.585 4645.06,-253.585 4715.86,-273.405"/>
<polygon fill="none" stroke="black" stroke-dasharray="1,5" points="4719.86,-270.353 4719.86,-304.487 4645.61,-325.273 4544.39,-325.273 4470.14,-304.487 4470.14,-270.353 4544.39,-249.567 4645.61,-249.567 4719.86,-270.353"/>
<text text-anchor="middle" x="4595" y="-291.22" font-family="Times,serif" font-size="14.00">Unknown Module</text>
<text text-anchor="middle" x="4595" y="-276.22" font-family="Times,serif" font-size="14.00">liftSnap</text>
</g>
<!-- 18&#45;&gt;42 -->
<g id="edge31" class="edge"><title>18&#45;&gt;42</title>
<path fill="none" stroke="black" d="M4574.3,-372.069C4575.28,-361.49 4577.29,-348.247 4579.76,-335.439"/>
<polygon fill="black" stroke="black" points="4583.26,-335.819 4581.84,-325.32 4576.4,-334.415 4583.26,-335.819"/>
</g>
<!-- 18&#45;&gt;40 -->
<g id="edge30" class="edge"><title>18&#45;&gt;40</title>
<path fill="none" stroke="black" d="M4513.34,-380.634C4479.12,-374.339 4435.91,-367.386 4397,-364.096 4334.39,-358.8 3327.14,-370.601 3266,-356.096 3241.61,-350.31 3216.56,-339.576 3194.67,-328.335"/>
<polygon fill="black" stroke="black" points="3196.28,-325.231 3185.8,-323.672 3193.02,-331.426 3196.28,-325.231"/>
</g>
<!-- 42&#45;&gt;18 -->
<g id="edge65" class="edge"><title>42&#45;&gt;18</title>
<path fill="none" stroke="navy" d="M4594.79,-325.32C4592.52,-340.976 4589,-358.662 4585.39,-372.069"/>
</g>
<!-- 11 -->
<g id="node33" class="node"><title>11</title>
<polygon fill="bisque" stroke="black" stroke-width="2" points="1376.31,-140.272 1376.31,-158.823 1342.74,-171.941 1295.26,-171.941 1261.69,-158.823 1261.69,-140.272 1295.26,-127.155 1342.74,-127.155 1376.31,-140.272"/>
<text text-anchor="middle" x="1319" y="-145.848" font-family="Times,serif" font-size="14.00">get</text>
</g>
<!-- 11&#45;&gt;48 -->
<g id="edge18" class="edge"><title>11&#45;&gt;48</title>
<path fill="none" stroke="black" d="M1289.8,-129.021C1278.46,-122.337 1265.06,-115.505 1252,-111.352 1183.05,-89.4255 998.026,-72.7725 868.904,-63.3635"/>
<polygon fill="black" stroke="black" points="869.155,-59.8726 858.929,-62.6429 868.651,-66.8544 869.155,-59.8726"/>
</g>
<!-- 11&#45;&gt;4 -->
<g id="edge17" class="edge"><title>11&#45;&gt;4</title>
<path fill="none" stroke="black" d="M1368.15,-137.038C1408.23,-128.215 1466.43,-116.679 1518,-111.352 2052.92,-56.097 3802.56,-54.3942 4146.87,-54.6056"/>
<polygon fill="black" stroke="black" points="4146.88,-58.1055 4156.88,-54.6126 4146.89,-51.1055 4146.88,-58.1055"/>
</g>
<!-- 24 -->
<g id="node34" class="node"><title>24</title>
<polygon fill="bisque" stroke="black" stroke-width="2" points="1243.34,-140.272 1243.34,-158.823 1209.16,-171.941 1160.84,-171.941 1126.66,-158.823 1126.66,-140.272 1160.84,-127.155 1209.16,-127.155 1243.34,-140.272"/>
<text text-anchor="middle" x="1185" y="-145.848" font-family="Times,serif" font-size="14.00">put</text>
</g>
<!-- 24&#45;&gt;48 -->
<g id="edge42" class="edge"><title>24&#45;&gt;48</title>
<path fill="none" stroke="black" d="M1132.82,-137.688C1063.7,-123.299 939.844,-97.5208 848.439,-78.4957"/>
<polygon fill="black" stroke="black" points="849.084,-75.055 838.581,-76.4438 847.658,-81.9082 849.084,-75.055"/>
</g>
<!-- 24&#45;&gt;4 -->
<g id="edge41" class="edge"><title>24&#45;&gt;4</title>
<path fill="none" stroke="black" d="M1213.81,-128.781C1225.45,-121.892 1239.35,-114.983 1253,-111.352 1397.86,-72.8373 3742.36,-57.3936 4146.81,-55.0103"/>
<polygon fill="black" stroke="black" points="4146.85,-58.5103 4156.83,-54.9516 4146.81,-51.5104 4146.85,-58.5103"/>
</g>
<!-- 39 -->
<g id="node35" class="node"><title>39</title>
<polygon fill="khaki" stroke="black" stroke-dasharray="1,5" points="1506.86,-273.405 1506.86,-301.434 1436.06,-321.254 1335.94,-321.254 1265.14,-301.434 1265.14,-273.405 1335.94,-253.585 1436.06,-253.585 1506.86,-273.405"/>
<polygon fill="none" stroke="black" stroke-dasharray="1,5" points="1510.86,-270.353 1510.86,-304.487 1436.61,-325.273 1335.39,-325.273 1261.14,-304.487 1261.14,-270.353 1335.39,-249.567 1436.61,-249.567 1510.86,-270.353"/>
<text text-anchor="middle" x="1386" y="-291.22" font-family="Times,serif" font-size="14.00">Unknown Module</text>
<text text-anchor="middle" x="1386" y="-276.22" font-family="Times,serif" font-size="14.00">get</text>
</g>
<!-- 39&#45;&gt;11 -->
<g id="edge62" class="edge"><title>39&#45;&gt;11</title>
<path fill="none" stroke="navy" d="M1367.87,-249.651C1355.62,-224.816 1339.88,-192.886 1329.62,-172.08"/>
</g>
<!-- 47 -->
<g id="node36" class="node"><title>47</title>
<polygon fill="khaki" stroke="black" stroke-dasharray="1,5" points="1238.86,-273.405 1238.86,-301.434 1168.06,-321.254 1067.94,-321.254 997.142,-301.434 997.142,-273.405 1067.94,-253.585 1168.06,-253.585 1238.86,-273.405"/>
<polygon fill="none" stroke="black" stroke-dasharray="1,5" points="1242.86,-270.353 1242.86,-304.487 1168.61,-325.273 1067.39,-325.273 993.144,-304.487 993.144,-270.353 1067.39,-249.567 1168.61,-249.567 1242.86,-270.353"/>
<text text-anchor="middle" x="1118" y="-291.22" font-family="Times,serif" font-size="14.00">Unknown Module</text>
<text text-anchor="middle" x="1118" y="-276.22" font-family="Times,serif" font-size="14.00">put</text>
</g>
<!-- 47&#45;&gt;24 -->
<g id="edge70" class="edge"><title>47&#45;&gt;24</title>
<path fill="none" stroke="navy" d="M1136.13,-249.651C1148.38,-224.816 1164.12,-192.886 1174.38,-172.08"/>
</g>
<!-- 16 -->
<g id="node37" class="node"><title>16</title>
<polygon fill="bisque" stroke="black" stroke-width="2" points="3185.77,-140.272 3185.77,-158.823 3152.52,-171.941 3105.48,-171.941 3072.23,-158.823 3072.23,-140.272 3105.48,-127.155 3152.52,-127.155 3185.77,-140.272"/>
<text text-anchor="middle" x="3129" y="-145.848" font-family="Times,serif" font-size="14.00">lift</text>
</g>
<!-- 16&#45;&gt;48 -->
<g id="edge27" class="edge"><title>16&#45;&gt;48</title>
<path fill="none" stroke="black" d="M3087.33,-134.127C3061.16,-125.791 3026.52,-116.049 2995,-111.352 2785.66,-80.161 1325.17,-61.3075 869.48,-56.1344"/>
<polygon fill="black" stroke="black" points="869.27,-52.6319 859.231,-56.0184 869.19,-59.6314 869.27,-52.6319"/>
</g>
<!-- 16&#45;&gt;4 -->
<g id="edge26" class="edge"><title>16&#45;&gt;4</title>
<path fill="none" stroke="black" d="M3185.7,-141.493C3251.21,-133.492 3362.29,-120.386 3458,-111.352 3714.01,-87.1901 4020.08,-66.5842 4146.69,-58.4224"/>
<polygon fill="black" stroke="black" points="4147.18,-61.8981 4156.94,-57.7638 4146.73,-54.9125 4147.18,-61.8981"/>
</g>
<!-- 40&#45;&gt;16 -->
<g id="edge63" class="edge"><title>40&#45;&gt;16</title>
<path fill="none" stroke="navy" d="M3129,-249.651C3129,-224.816 3129,-192.886 3129,-172.08"/>
</g>
<!-- 28&#45;&gt;4 -->
<g id="edge49" class="edge"><title>28&#45;&gt;4</title>
<path fill="none" stroke="magenta" d="M4209.27,-131.33C4208.68,-117.569 4207.85,-98.0166 4207.17,-82.1038"/>
<polygon fill="magenta" stroke="magenta" points="4206.73,-71.7845 4211.65,-81.5838 4206.94,-76.78 4207.15,-81.7755 4207.15,-81.7755 4207.15,-81.7755 4206.94,-76.78 4202.66,-81.9671 4206.73,-71.7845 4206.73,-71.7845"/>
</g>
<!-- 8 -->
<g id="node41" class="node"><title>8</title>
<polygon fill="gold" stroke="black" stroke-width="2" points="2289.5,-305.42 2194.5,-305.42 2194.5,-269.42 2289.5,-269.42 2289.5,-305.42"/>
<text text-anchor="middle" x="2242" y="-283.72" font-family="Times,serif" font-size="14.00">embed</text>
</g>
<!-- 14 -->
<g id="node44" class="node"><title>14</title>
<polygon fill="goldenrod" stroke="black" stroke-width="2" points="2441.5,-167.548 2306.5,-167.548 2306.5,-131.548 2441.5,-131.548 2441.5,-167.548"/>
<text text-anchor="middle" x="2374" y="-145.848" font-family="Times,serif" font-size="14.00">lensedAsState</text>
</g>
<!-- 8&#45;&gt;14 -->
<g id="edge12" class="edge"><title>8&#45;&gt;14</title>
<path fill="none" stroke="black" d="M2260.6,-269.133C2271.39,-258.981 2285.14,-245.812 2297,-233.744 2315.85,-214.567 2336.52,-192.159 2351.69,-175.434"/>
<polygon fill="black" stroke="black" points="2354.55,-177.484 2358.66,-167.718 2349.36,-172.79 2354.55,-177.484"/>
</g>
<!-- 20 -->
<g id="node46" class="node"><title>20</title>
<polygon fill="goldenrod" stroke="black" stroke-width="2" points="2288.5,-167.548 2193.5,-167.548 2193.5,-131.548 2288.5,-131.548 2288.5,-167.548"/>
<text text-anchor="middle" x="2241" y="-145.848" font-family="Times,serif" font-size="14.00">locally</text>
</g>
<!-- 8&#45;&gt;20 -->
<g id="edge13" class="edge"><title>8&#45;&gt;20</title>
<path fill="none" stroke="black" d="M2241.87,-269.211C2241.7,-246.139 2241.4,-204.929 2241.2,-177.663"/>
<polygon fill="black" stroke="black" points="2244.7,-177.59 2241.13,-167.616 2237.7,-177.642 2244.7,-177.59"/>
</g>
<!-- 12 -->
<g id="node42" class="node"><title>12</title>
<polygon fill="gold" stroke="black" stroke-width="2" points="976.5,-167.548 875.5,-167.548 875.5,-131.548 976.5,-131.548 976.5,-167.548"/>
<text text-anchor="middle" x="926" y="-145.848" font-family="Times,serif" font-size="14.00">getBase</text>
</g>
<!-- 12&#45;&gt;48 -->
<g id="edge20" class="edge"><title>12&#45;&gt;48</title>
<path fill="none" stroke="black" d="M898.799,-131.528C887.842,-124.926 874.981,-117.494 863,-111.352 848.398,-103.868 832.591,-96.4142 817.214,-89.4894"/>
<polygon fill="black" stroke="black" points="818.268,-86.1272 807.709,-85.2504 815.416,-92.5202 818.268,-86.1272"/>
</g>
<!-- 12&#45;&gt;4 -->
<g id="edge19" class="edge"><title>12&#45;&gt;4</title>
<path fill="none" stroke="black" d="M976.568,-136.079C1014.42,-127.362 1067.61,-116.41 1115,-111.352 1426.78,-78.0764 3744.83,-58.326 4146.71,-55.1347"/>
<polygon fill="black" stroke="black" points="4146.97,-58.6329 4156.94,-55.0538 4146.91,-51.6331 4146.97,-58.6329"/>
</g>
<!-- 13 -->
<g id="node43" class="node"><title>13</title>
<polygon fill="goldenrod" stroke="black" stroke-width="2" points="2986.5,-167.548 2883.5,-167.548 2883.5,-131.548 2986.5,-131.548 2986.5,-167.548"/>
<text text-anchor="middle" x="2935" y="-145.848" font-family="Times,serif" font-size="14.00">globally</text>
</g>
<!-- 13&#45;&gt;4 -->
<g id="edge21" class="edge"><title>13&#45;&gt;4</title>
<path fill="none" stroke="black" d="M2976.71,-131.546C2997.22,-123.969 3022.53,-115.77 3046,-111.352 3260.36,-70.9978 3940.98,-58.3717 4146.6,-55.4292"/>
<polygon fill="black" stroke="black" points="4146.94,-58.9249 4156.89,-55.2844 4146.84,-51.9256 4146.94,-58.9249"/>
</g>
<!-- 14&#45;&gt;48 -->
<g id="edge23" class="edge"><title>14&#45;&gt;48</title>
<path fill="none" stroke="black" d="M2345.82,-131.452C2331.69,-123.802 2314,-115.57 2297,-111.352 2160.65,-77.5329 1223.33,-61.3545 869.143,-56.3962"/>
<polygon fill="black" stroke="black" points="869.14,-52.8959 859.092,-56.2563 869.042,-59.8953 869.14,-52.8959"/>
</g>
<!-- 14&#45;&gt;4 -->
<g id="edge22" class="edge"><title>14&#45;&gt;4</title>
<path fill="none" stroke="black" d="M2404.13,-131.427C2419.21,-123.772 2438.04,-115.542 2456,-111.352 2623.32,-72.3322 3859.97,-58.029 4146.73,-55.2187"/>
<polygon fill="black" stroke="black" points="4146.96,-58.7167 4156.93,-55.1197 4146.89,-51.7171 4146.96,-58.7167"/>
</g>
<!-- 15&#45;&gt;34 -->
<g id="edge25" class="edge"><title>15&#45;&gt;34</title>
<path fill="none" stroke="black" d="M3403,-375.974C3403,-364.926 3403,-350.028 3403,-335.657"/>
<polygon fill="black" stroke="black" points="3406.5,-335.347 3403,-325.347 3399.5,-335.348 3406.5,-335.347"/>
</g>
<!-- 30 -->
<g id="node49" class="node"><title>30</title>
<polygon fill="goldenrod" stroke="black" stroke-width="2" points="2986,-305.42 2882,-305.42 2882,-269.42 2986,-269.42 2986,-305.42"/>
<text text-anchor="middle" x="2934" y="-283.72" font-family="Times,serif" font-size="14.00">withTop</text>
</g>
<!-- 15&#45;&gt;30 -->
<g id="edge24" class="edge"><title>15&#45;&gt;30</title>
<path fill="none" stroke="black" d="M3340.94,-384.713C3291.28,-378.141 3219.79,-369.337 3157,-364.096 3138.71,-362.569 3008.48,-364.168 2992,-356.096 2973.53,-347.051 2958.6,-329.155 2948.52,-314.037"/>
<polygon fill="black" stroke="black" points="2951.45,-312.129 2943.15,-305.545 2945.54,-315.868 2951.45,-312.129"/>
</g>
<!-- 20&#45;&gt;4 -->
<g id="edge33" class="edge"><title>20&#45;&gt;4</title>
<path fill="none" stroke="black" d="M2260.83,-131.415C2270.95,-123.756 2283.88,-115.527 2297,-111.352 2476.55,-54.2346 3842.27,-53.865 4146.19,-54.4999"/>
<polygon fill="black" stroke="black" points="4146.54,-58.0005 4156.55,-54.5228 4146.56,-51.0006 4146.54,-58.0005"/>
</g>
<!-- 26 -->
<g id="node47" class="node"><title>26</title>
<polygon fill="gold" stroke="black" stroke-width="2" points="1643,-167.548 1527,-167.548 1527,-131.548 1643,-131.548 1643,-167.548"/>
<text text-anchor="middle" x="1585" y="-145.848" font-family="Times,serif" font-size="14.00">runLensed</text>
</g>
<!-- 26&#45;&gt;48 -->
<g id="edge46" class="edge"><title>26&#45;&gt;48</title>
<path fill="none" stroke="black" d="M1526.63,-135.938C1487.56,-127.89 1434.9,-117.795 1388,-111.352 1209.32,-86.8049 1001.63,-70.9485 869.082,-62.4185"/>
<polygon fill="black" stroke="black" points="869.08,-58.9113 858.877,-61.7667 868.633,-65.8971 869.08,-58.9113"/>
</g>
<!-- 26&#45;&gt;4 -->
<g id="edge45" class="edge"><title>26&#45;&gt;4</title>
<path fill="none" stroke="black" d="M1643.14,-137.682C1693.04,-128.864 1766.98,-117.002 1832,-111.352 2301.54,-70.5558 3826.07,-57.4229 4146.55,-55.0819"/>
<polygon fill="black" stroke="black" points="4146.58,-58.5818 4156.56,-55.0094 4146.53,-51.582 4146.58,-58.5818"/>
</g>
<!-- 29 -->
<g id="node48" class="node"><title>29</title>
<polygon fill="gold" stroke="black" stroke-width="2" points="3148.5,-412.291 3065.5,-412.291 3065.5,-376.291 3148.5,-376.291 3148.5,-412.291"/>
<text text-anchor="middle" x="3107" y="-390.591" font-family="Times,serif" font-size="14.00">with</text>
</g>
<!-- 29&#45;&gt;34 -->
<g id="edge51" class="edge"><title>29&#45;&gt;34</title>
<path fill="none" stroke="black" d="M3148.6,-386.266C3181.12,-380.131 3227.17,-370.019 3266,-356.096 3288.19,-348.139 3311.48,-337.554 3332.43,-327.122"/>
<polygon fill="black" stroke="black" points="3334.22,-330.14 3341.57,-322.51 3331.06,-323.891 3334.22,-330.14"/>
</g>
<!-- 29&#45;&gt;30 -->
<g id="edge50" class="edge"><title>29&#45;&gt;30</title>
<path fill="none" stroke="black" d="M3065.45,-385.662C3042.43,-380.064 3014.09,-370.81 2992,-356.096 2975.47,-345.086 2960.93,-328.103 2950.55,-313.904"/>
<polygon fill="black" stroke="black" points="2953.25,-311.667 2944.64,-305.502 2947.53,-315.695 2953.25,-311.667"/>
</g>
<!-- 30&#45;&gt;13 -->
<g id="edge52" class="edge"><title>30&#45;&gt;13</title>
<path fill="none" stroke="black" d="M2934.13,-269.211C2934.3,-246.139 2934.6,-204.929 2934.8,-177.663"/>
<polygon fill="black" stroke="black" points="2938.3,-177.642 2934.87,-167.616 2931.3,-177.59 2938.3,-177.642"/>
</g>
<!-- 30&#45;&gt;14 -->
<g id="edge53" class="edge"><title>30&#45;&gt;14</title>
<path fill="none" stroke="black" d="M2916.15,-269.035C2905.37,-259.517 2890.87,-248.348 2876,-241.744 2734.93,-179.078 2553.3,-159.47 2451.7,-153.337"/>
<polygon fill="black" stroke="black" points="2451.71,-149.831 2441.52,-152.751 2451.3,-156.82 2451.71,-149.831"/>
</g>
</g>
</svg>
