<?xml version="1.0" encoding="UTF-8" standalone="no"?>
<!DOCTYPE svg PUBLIC "-//W3C//DTD SVG 1.1//EN"
 "http://www.w3.org/Graphics/SVG/1.1/DTD/svg11.dtd">
<!-- Generated by graphviz version 2.38.0 (20140413.2041)
 -->
<!-- Title: Levels within Snap.StarterTH Pages: 1 -->
<svg width="158pt" height="315pt"
 viewBox="0.00 0.00 158.00 315.00" xmlns="http://www.w3.org/2000/svg" xmlns:xlink="http://www.w3.org/1999/xlink">
<g id="graph0" class="graph" transform="scale(1 1) rotate(0) translate(4 311)">
<title>Levels within Snap.StarterTH</title>
<polygon fill="white" stroke="none" points="-4,4 -4,-311 154,-311 154,4 -4,4"/>
<g id="clust1" class="cluster"><title>cluster_0</title>
<polygon fill="lavender" stroke="black" points="8,-8 8,-299 142,-299 142,-8 8,-8"/>
<text text-anchor="middle" x="75" y="-283.8" font-family="Times,serif" font-size="14.00">Exported root entities</text>
</g>
<!-- 1 -->
<g id="node1" class="node"><title>1</title>
<polygon fill="gold" stroke="black" stroke-width="2" points="128,-268 16,-268 16,-232 128,-232 128,-268"/>
<text text-anchor="middle" x="72" y="-246.3" font-family="Times,serif" font-size="14.00">buildData</text>
</g>
<!-- 2 -->
<g id="node2" class="node"><title>2</title>
<polygon fill="goldenrod" stroke="black" stroke-width="2" points="112.5,-196 29.5,-196 29.5,-160 112.5,-160 112.5,-196"/>
<text text-anchor="middle" x="71" y="-174.3" font-family="Times,serif" font-size="14.00">dirQ</text>
</g>
<!-- 1&#45;&gt;2 -->
<g id="edge1" class="edge"><title>1&#45;&gt;2</title>
<path fill="none" stroke="chartreuse" d="M71.7528,-231.697C71.6426,-223.983 71.5102,-214.712 71.3873,-206.112"/>
<polygon fill="chartreuse" stroke="chartreuse" points="74.8869,-206.053 71.2443,-196.104 67.8876,-206.153 74.8869,-206.053"/>
</g>
<!-- 4 -->
<g id="node4" class="node"><title>4</title>
<polygon fill="goldenrod" stroke="black" stroke-width="2" points="123.5,-124 16.5,-124 16.5,-88 123.5,-88 123.5,-124"/>
<text text-anchor="middle" x="70" y="-102.3" font-family="Times,serif" font-size="14.00">readTree</text>
</g>
<!-- 2&#45;&gt;4 -->
<g id="edge2" class="edge"><title>2&#45;&gt;4</title>
<path fill="none" stroke="chartreuse" d="M70.7528,-159.697C70.6426,-151.983 70.5102,-142.712 70.3873,-134.112"/>
<polygon fill="chartreuse" stroke="chartreuse" points="73.8869,-134.053 70.2443,-124.104 66.8876,-134.153 73.8869,-134.053"/>
</g>
<!-- 3 -->
<g id="node3" class="node"><title>3</title>
<polygon fill="goldenrod" stroke="black" stroke-width="2" points="116,-52 18,-52 18,-16 116,-16 116,-52"/>
<text text-anchor="middle" x="67" y="-30.3" font-family="Times,serif" font-size="14.00">getDirs</text>
</g>
<!-- 3&#45;&gt;3 -->
<g id="edge3" class="edge"><title>3&#45;&gt;3</title>
<path fill="none" stroke="black" d="M116.08,-47.0641C126.486,-45.7375 134,-41.3828 134,-34 134,-29.2704 130.916,-25.7835 125.964,-23.5394"/>
<polygon fill="black" stroke="black" points="126.642,-20.0987 116.08,-20.9359 124.859,-26.8678 126.642,-20.0987"/>
</g>
<!-- 4&#45;&gt;3 -->
<g id="edge4" class="edge"><title>4&#45;&gt;3</title>
<path fill="none" stroke="chartreuse" d="M69.2584,-87.6966C68.9278,-79.9827 68.5305,-70.7125 68.162,-62.1124"/>
<polygon fill="chartreuse" stroke="chartreuse" points="71.6581,-61.9453 67.733,-52.1043 64.6645,-62.2451 71.6581,-61.9453"/>
</g>
</g>
</svg>
