<?xml version="1.0" encoding="UTF-8" standalone="no"?>
<!DOCTYPE svg PUBLIC "-//W3C//DTD SVG 1.1//EN"
 "http://www.w3.org/Graphics/SVG/1.1/DTD/svg11.dtd">
<!-- Generated by graphviz version 2.38.0 (20140413.2041)
 -->
<!-- Title: Levels within Snap.Snaplet.Auth.Types Pages: 1 -->
<svg width="2654pt" height="374pt"
 viewBox="0.00 0.00 2654.00 373.74" xmlns="http://www.w3.org/2000/svg" xmlns:xlink="http://www.w3.org/1999/xlink">
<g id="graph0" class="graph" transform="scale(1 1) rotate(0) translate(4 369.744)">
<title>Levels within Snap.Snaplet.Auth.Types</title>
<polygon fill="white" stroke="none" points="-4,4 -4,-369.744 2650,-369.744 2650,4 -4,4"/>
<g id="clust1" class="cluster"><title>cluster_0</title>
<polygon fill="lavender" stroke="black" points="107,-8 107,-266.352 2195,-266.352 2195,-8 107,-8"/>
<text text-anchor="middle" x="1151" y="-251.152" font-family="Times,serif" font-size="14.00">Exported root entities</text>
</g>
<g id="clust2" class="cluster"><title>cluster_1</title>
<polygon fill="lavender" stroke="black" points="8,-274.352 8,-357.744 2638,-357.744 2638,-274.352 8,-274.352"/>
<text text-anchor="middle" x="1323" y="-342.544" font-family="Times,serif" font-size="14.00">Level = 1</text>
</g>
<!-- 1 -->
<g id="node1" class="node"><title>1</title>
<polygon fill="goldenrod" stroke="black" stroke-width="2" points="272.5,-215.676 119.5,-215.676 115.5,-211.676 115.5,-179.676 268.5,-179.676 272.5,-183.676 272.5,-215.676"/>
<polyline fill="none" stroke="black" stroke-width="2" points="268.5,-211.676 115.5,-211.676 "/>
<polyline fill="none" stroke="black" stroke-width="2" points="268.5,-211.676 268.5,-179.676 "/>
<polyline fill="none" stroke="black" stroke-width="2" points="268.5,-211.676 272.5,-215.676 "/>
<text text-anchor="middle" x="194" y="-193.976" font-family="Times,serif" font-size="14.00">Data: AuthFailure</text>
</g>
<!-- 2 -->
<g id="node2" class="node"><title>2</title>
<polygon fill="goldenrod" stroke="black" stroke-width="2" points="1309,-52 1151,-52 1147,-48 1147,-16 1305,-16 1309,-20 1309,-52"/>
<polyline fill="none" stroke="black" stroke-width="2" points="1305,-48 1147,-48 "/>
<polyline fill="none" stroke="black" stroke-width="2" points="1305,-48 1305,-16 "/>
<polyline fill="none" stroke="black" stroke-width="2" points="1305,-48 1309,-52 "/>
<text text-anchor="middle" x="1228" y="-30.3" font-family="Times,serif" font-size="14.00">Data: AuthSettings</text>
</g>
<!-- 3 -->
<g id="node3" class="node"><title>3</title>
<polygon fill="goldenrod" stroke="black" stroke-width="2" points="1850,-124 1710,-124 1706,-120 1706,-88 1846,-88 1850,-92 1850,-124"/>
<polyline fill="none" stroke="black" stroke-width="2" points="1846,-120 1706,-120 "/>
<polyline fill="none" stroke="black" stroke-width="2" points="1846,-120 1846,-88 "/>
<polyline fill="none" stroke="black" stroke-width="2" points="1846,-120 1850,-124 "/>
<text text-anchor="middle" x="1778" y="-102.3" font-family="Times,serif" font-size="14.00">Data: AuthUser</text>
</g>
<!-- 5 -->
<g id="node4" class="node"><title>5</title>
<polygon fill="goldenrod" stroke="black" stroke-width="2" points="1139.5,-124 1000.5,-124 996.5,-120 996.5,-88 1135.5,-88 1139.5,-92 1139.5,-124"/>
<polyline fill="none" stroke="black" stroke-width="2" points="1135.5,-120 996.5,-120 "/>
<polyline fill="none" stroke="black" stroke-width="2" points="1135.5,-120 1135.5,-88 "/>
<polyline fill="none" stroke="black" stroke-width="2" points="1135.5,-120 1139.5,-124 "/>
<text text-anchor="middle" x="1068" y="-102.3" font-family="Times,serif" font-size="14.00">Data: Password</text>
</g>
<!-- 12 -->
<g id="node5" class="node"><title>12</title>
<polygon fill="goldenrod" stroke="black" stroke-width="2" points="407.5,-215.676 294.5,-215.676 290.5,-211.676 290.5,-179.676 403.5,-179.676 407.5,-183.676 407.5,-215.676"/>
<polyline fill="none" stroke="black" stroke-width="2" points="403.5,-211.676 290.5,-211.676 "/>
<polyline fill="none" stroke="black" stroke-width="2" points="403.5,-211.676 403.5,-179.676 "/>
<polyline fill="none" stroke="black" stroke-width="2" points="403.5,-211.676 407.5,-215.676 "/>
<text text-anchor="middle" x="349" y="-193.976" font-family="Times,serif" font-size="14.00">Data: Role</text>
</g>
<!-- 13 -->
<g id="node6" class="node"><title>13</title>
<polygon fill="gold" stroke="black" stroke-width="2" points="1651,-215.676 1527,-215.676 1523,-211.676 1523,-179.676 1647,-179.676 1651,-183.676 1651,-215.676"/>
<polyline fill="none" stroke="black" stroke-width="2" points="1647,-211.676 1523,-211.676 "/>
<polyline fill="none" stroke="black" stroke-width="2" points="1647,-211.676 1647,-179.676 "/>
<polyline fill="none" stroke="black" stroke-width="2" points="1647,-211.676 1651,-215.676 "/>
<text text-anchor="middle" x="1587" y="-193.976" font-family="Times,serif" font-size="14.00">Data: UserId</text>
</g>
<!-- 21 -->
<g id="node7" class="node"><title>21</title>
<polygon fill="gold" stroke="black" stroke-width="2" points="1358.5,-215.676 1165.5,-215.676 1165.5,-179.676 1358.5,-179.676 1358.5,-215.676"/>
<text text-anchor="middle" x="1262" y="-193.976" font-family="Times,serif" font-size="14.00">authSettingsFromConfig</text>
</g>
<!-- 21&#45;&gt;2 -->
<g id="edge1" class="edge"><title>21&#45;&gt;2</title>
<path fill="none" stroke="black" stroke-width="2.60944" d="M1237.56,-179.444C1221.25,-166.349 1201.17,-146.746 1192,-124 1186.02,-109.161 1187.3,-103.293 1192,-88 1195.01,-78.2153 1200.51,-68.6161 1206.32,-60.3336"/>
<polygon fill="black" stroke="black" stroke-width="2.60944" points="1209.19,-62.3279 1212.39,-52.2264 1203.59,-58.1306 1209.19,-62.3279"/>
</g>
<!-- 23 -->
<g id="node9" class="node"><title>23</title>
<polygon fill="goldenrod" stroke="black" stroke-width="2" points="1347,-124 1201,-124 1201,-88 1347,-88 1347,-124"/>
<text text-anchor="middle" x="1274" y="-102.3" font-family="Times,serif" font-size="14.00">defAuthSettings</text>
</g>
<!-- 21&#45;&gt;23 -->
<g id="edge2" class="edge"><title>21&#45;&gt;23</title>
<path fill="none" stroke="black" d="M1264.31,-179.386C1266.02,-166.608 1268.39,-148.956 1270.35,-134.283"/>
<polygon fill="black" stroke="black" points="1273.84,-134.613 1271.69,-124.237 1266.9,-133.685 1273.84,-134.613"/>
</g>
<!-- 22 -->
<g id="node8" class="node"><title>22</title>
<polygon fill="gold" stroke="black" stroke-width="2" points="835,-215.676 693,-215.676 693,-179.676 835,-179.676 835,-215.676"/>
<text text-anchor="middle" x="764" y="-193.976" font-family="Times,serif" font-size="14.00">checkPassword</text>
</g>
<!-- 22&#45;&gt;5 -->
<g id="edge3" class="edge"><title>22&#45;&gt;5</title>
<path fill="none" stroke="black" stroke-width="2.79176" d="M797.262,-179.64C811.41,-172.867 828.251,-165.414 844,-160 870.184,-150.999 933.652,-136.214 986.37,-124.543"/>
<polygon fill="black" stroke="black" stroke-width="2.79176" points="987.404,-127.899 996.416,-122.328 985.896,-121.064 987.404,-127.899"/>
</g>
<!-- 57 -->
<g id="node15" class="node"><title>57</title>
<polygon fill="goldenrod" stroke="black" stroke-width="2" points="809.5,-124 718.5,-124 718.5,-88 809.5,-88 809.5,-124"/>
<text text-anchor="middle" x="764" y="-102.3" font-family="Times,serif" font-size="14.00">verify</text>
</g>
<!-- 22&#45;&gt;57 -->
<g id="edge4" class="edge"><title>22&#45;&gt;57</title>
<path fill="none" stroke="black" d="M764,-179.386C764,-166.608 764,-148.956 764,-134.283"/>
<polygon fill="black" stroke="black" points="767.5,-134.237 764,-124.237 760.5,-134.237 767.5,-134.237"/>
</g>
<!-- 23&#45;&gt;2 -->
<g id="edge5" class="edge"><title>23&#45;&gt;2</title>
<path fill="none" stroke="black" stroke-width="2.79176" d="M1262.63,-87.6966C1257.28,-79.5589 1250.8,-69.689 1244.89,-60.7013"/>
<polygon fill="black" stroke="black" stroke-width="2.79176" points="1247.66,-58.5393 1239.24,-52.1043 1241.81,-62.3835 1247.66,-58.5393"/>
</g>
<!-- 24 -->
<g id="node10" class="node"><title>24</title>
<polygon fill="gold" stroke="black" stroke-width="2" points="1505,-215.676 1377,-215.676 1377,-179.676 1505,-179.676 1505,-215.676"/>
<text text-anchor="middle" x="1441" y="-193.976" font-family="Times,serif" font-size="14.00">defAuthUser</text>
</g>
<!-- 24&#45;&gt;3 -->
<g id="edge6" class="edge"><title>24&#45;&gt;3</title>
<path fill="none" stroke="black" stroke-width="4.04452" d="M1470.4,-179.643C1483.41,-172.706 1499.12,-165.129 1514,-160 1573.27,-139.575 1642.89,-126.005 1695.75,-117.713"/>
<polygon fill="black" stroke="black" stroke-width="4.04452" points="1696.41,-121.193 1705.76,-116.175 1695.34,-114.197 1696.41,-121.193"/>
</g>
<!-- 25 -->
<g id="node11" class="node"><title>25</title>
<polygon fill="goldenrod" stroke="black" stroke-width="2" points="1064,-52 922,-52 922,-16 1064,-16 1064,-52"/>
<text text-anchor="middle" x="993" y="-30.3" font-family="Times,serif" font-size="14.00">defaultStrength</text>
</g>
<!-- 26 -->
<g id="node12" class="node"><title>26</title>
<polygon fill="goldenrod" stroke="black" stroke-width="2" points="978.5,-124 879.5,-124 879.5,-88 978.5,-88 978.5,-124"/>
<text text-anchor="middle" x="929" y="-102.3" font-family="Times,serif" font-size="14.00">encrypt</text>
</g>
<!-- 26&#45;&gt;25 -->
<g id="edge7" class="edge"><title>26&#45;&gt;25</title>
<path fill="none" stroke="black" d="M944.82,-87.6966C952.57,-79.2198 962.039,-68.8636 970.524,-59.5826"/>
<polygon fill="black" stroke="black" points="973.197,-61.8464 977.362,-52.1043 968.031,-57.1229 973.197,-61.8464"/>
</g>
<!-- 27 -->
<g id="node13" class="node"><title>27</title>
<polygon fill="gold" stroke="black" stroke-width="2" points="1004.5,-215.676 853.5,-215.676 853.5,-179.676 1004.5,-179.676 1004.5,-215.676"/>
<text text-anchor="middle" x="929" y="-193.976" font-family="Times,serif" font-size="14.00">encryptPassword</text>
</g>
<!-- 27&#45;&gt;5 -->
<g id="edge8" class="edge"><title>27&#45;&gt;5</title>
<path fill="none" stroke="black" stroke-width="2.09861" d="M955.472,-179.598C977.5,-165.386 1009.04,-145.041 1033.12,-129.502"/>
<polygon fill="black" stroke="black" stroke-width="2.09861" points="1035.12,-132.377 1041.63,-124.015 1031.33,-126.495 1035.12,-132.377"/>
</g>
<!-- 27&#45;&gt;26 -->
<g id="edge9" class="edge"><title>27&#45;&gt;26</title>
<path fill="none" stroke="black" d="M929,-179.386C929,-166.608 929,-148.956 929,-134.283"/>
<polygon fill="black" stroke="black" points="932.5,-134.237 929,-124.237 925.5,-134.237 932.5,-134.237"/>
</g>
<!-- 31 -->
<g id="node14" class="node"><title>31</title>
<polygon fill="gold" stroke="black" stroke-width="2" points="1147.5,-215.676 1022.5,-215.676 1022.5,-179.676 1147.5,-179.676 1147.5,-215.676"/>
<text text-anchor="middle" x="1085" y="-193.976" font-family="Times,serif" font-size="14.00">setPassword</text>
</g>
<!-- 31&#45;&gt;3 -->
<g id="edge15" class="edge"><title>31&#45;&gt;3</title>
<path fill="none" stroke="black" d="M1111.94,-179.579C1124.79,-172.274 1140.67,-164.423 1156,-160 1255.08,-131.411 1550.59,-116.038 1695.72,-110.031"/>
<polygon fill="black" stroke="black" points="1696.06,-113.52 1705.9,-109.615 1695.77,-106.526 1696.06,-113.52"/>
</g>
<!-- 31&#45;&gt;5 -->
<g id="edge16" class="edge"><title>31&#45;&gt;5</title>
<path fill="none" stroke="black" d="M1081.72,-179.386C1079.3,-166.608 1075.95,-148.956 1073.17,-134.283"/>
<polygon fill="black" stroke="black" points="1076.57,-133.41 1071.27,-124.237 1069.69,-134.714 1076.57,-133.41"/>
</g>
<!-- 31&#45;&gt;25 -->
<g id="edge17" class="edge"><title>31&#45;&gt;25</title>
<path fill="none" stroke="black" d="M1107.49,-179.491C1133.46,-157.532 1169.94,-118.692 1148,-88 1130.84,-63.9936 1102.12,-50.7407 1074.04,-43.468"/>
<polygon fill="black" stroke="black" points="1074.69,-40.0252 1064.15,-41.1371 1073.08,-46.8384 1074.69,-40.0252"/>
</g>
<!-- 58 -->
<g id="node16" class="node"><title>58</title>
<polygon fill="khaki" stroke="black" stroke-dasharray="1,5" points="2182.86,-183.662 2182.86,-211.691 2112.06,-231.51 2011.94,-231.51 1941.14,-211.691 1941.14,-183.662 2011.94,-163.842 2112.06,-163.842 2182.86,-183.662"/>
<polygon fill="none" stroke="black" stroke-dasharray="1,5" points="2186.86,-180.609 2186.86,-214.743 2112.61,-235.529 2011.39,-235.529 1937.14,-214.743 1937.14,-180.609 2011.39,-159.823 2112.61,-159.823 2186.86,-180.609"/>
<text text-anchor="middle" x="2062" y="-201.476" font-family="Times,serif" font-size="14.00">Unknown Module</text>
<text text-anchor="middle" x="2062" y="-186.476" font-family="Times,serif" font-size="14.00">Class: FromJSON</text>
</g>
<!-- 28 -->
<g id="node19" class="node"><title>28</title>
<polygon fill="bisque" stroke="black" stroke-width="2" points="2630.21,-295.272 2630.21,-313.823 2517.62,-326.941 2358.38,-326.941 2245.79,-313.823 2245.79,-295.272 2358.38,-282.155 2517.62,-282.155 2630.21,-295.272"/>
<text text-anchor="middle" x="2438" y="-300.848" font-family="Times,serif" font-size="14.00">Class: FromJSON, Data: AuthUser</text>
</g>
<!-- 58&#45;&gt;28 -->
<g id="edge25" class="edge"><title>58&#45;&gt;28</title>
<path fill="none" stroke="navy" stroke-width="1.69315" d="M2153.58,-224.219C2217.46,-242.037 2301.72,-265.537 2361.91,-282.326"/>
</g>
<!-- 29 -->
<g id="node20" class="node"><title>29</title>
<polygon fill="bisque" stroke="black" stroke-width="2" points="1848.18,-295.272 1848.18,-313.823 1736.19,-326.941 1577.81,-326.941 1465.82,-313.823 1465.82,-295.272 1577.81,-282.155 1736.19,-282.155 1848.18,-295.272"/>
<text text-anchor="middle" x="1657" y="-300.848" font-family="Times,serif" font-size="14.00">Class: FromJSON, Data: Password</text>
</g>
<!-- 58&#45;&gt;29 -->
<g id="edge26" class="edge"><title>58&#45;&gt;29</title>
<path fill="none" stroke="navy" d="M2009.65,-235.14C1987.88,-246.945 1961.97,-258.901 1937,-266.352 1906.57,-275.431 1897.49,-270.28 1866,-274.352 1836.85,-278.121 1805.37,-282.548 1775.89,-286.8"/>
</g>
<!-- 30 -->
<g id="node21" class="node"><title>30</title>
<polygon fill="bisque" stroke="black" stroke-width="2" points="1070.38,-295.272 1070.38,-313.823 969.99,-326.941 828.01,-326.941 727.616,-313.823 727.616,-295.272 828.01,-282.155 969.99,-282.155 1070.38,-295.272"/>
<text text-anchor="middle" x="899" y="-300.848" font-family="Times,serif" font-size="14.00">Class: FromJSON, Data: Role</text>
</g>
<!-- 58&#45;&gt;30 -->
<g id="edge27" class="edge"><title>58&#45;&gt;30</title>
<path fill="none" stroke="navy" d="M2011.99,-235.504C1989.87,-247.815 1963.08,-260.009 1937,-266.352 1891.17,-277.498 1135,-270.343 1088,-274.352 1059.14,-276.815 1027.91,-281.247 999.289,-285.926"/>
</g>
<!-- 59 -->
<g id="node17" class="node"><title>59</title>
<polygon fill="khaki" stroke="black" stroke-dasharray="1,5" points="1914.86,-183.662 1914.86,-211.691 1844.06,-231.51 1743.94,-231.51 1673.14,-211.691 1673.14,-183.662 1743.94,-163.842 1844.06,-163.842 1914.86,-183.662"/>
<polygon fill="none" stroke="black" stroke-dasharray="1,5" points="1918.86,-180.609 1918.86,-214.743 1844.61,-235.529 1743.39,-235.529 1669.14,-214.743 1669.14,-180.609 1743.39,-159.823 1844.61,-159.823 1918.86,-180.609"/>
<text text-anchor="middle" x="1794" y="-201.476" font-family="Times,serif" font-size="14.00">Unknown Module</text>
<text text-anchor="middle" x="1794" y="-186.476" font-family="Times,serif" font-size="14.00">Class: Show</text>
</g>
<!-- 32 -->
<g id="node22" class="node"><title>32</title>
<polygon fill="bisque" stroke="black" stroke-width="2" points="371.63,-295.272 371.63,-313.823 267.577,-326.941 120.423,-326.941 16.3698,-313.823 16.3698,-295.272 120.423,-282.155 267.577,-282.155 371.63,-295.272"/>
<text text-anchor="middle" x="194" y="-300.848" font-family="Times,serif" font-size="14.00">Class: Show, Data: AuthFailure</text>
</g>
<!-- 59&#45;&gt;32 -->
<g id="edge28" class="edge"><title>59&#45;&gt;32</title>
<path fill="none" stroke="navy" stroke-width="3.19722" d="M1744.32,-235.369C1722.14,-247.746 1695.22,-260.02 1669,-266.352 1634.46,-274.693 425.413,-271.493 390,-274.352 360.032,-276.772 327.597,-281.192 297.876,-285.873"/>
</g>
<!-- 60 -->
<g id="node18" class="node"><title>60</title>
<polygon fill="khaki" stroke="black" stroke-dasharray="1,5" points="670.858,-183.662 670.858,-211.691 600.061,-231.51 499.939,-231.51 429.142,-211.691 429.142,-183.662 499.939,-163.842 600.061,-163.842 670.858,-183.662"/>
<polygon fill="none" stroke="black" stroke-dasharray="1,5" points="674.856,-180.609 674.856,-214.743 600.607,-235.529 499.393,-235.529 425.144,-214.743 425.144,-180.609 499.393,-159.823 600.607,-159.823 674.856,-180.609"/>
<text text-anchor="middle" x="550" y="-201.476" font-family="Times,serif" font-size="14.00">Unknown Module</text>
<text text-anchor="middle" x="550" y="-186.476" font-family="Times,serif" font-size="14.00">Class: ToJSON</text>
</g>
<!-- 33 -->
<g id="node23" class="node"><title>33</title>
<polygon fill="bisque" stroke="black" stroke-width="2" points="2227.75,-295.272 2227.75,-313.823 2121.87,-326.941 1972.13,-326.941 1866.25,-313.823 1866.25,-295.272 1972.13,-282.155 2121.87,-282.155 2227.75,-295.272"/>
<text text-anchor="middle" x="2047" y="-300.848" font-family="Times,serif" font-size="14.00">Class: ToJSON, Data: AuthUser</text>
</g>
<!-- 60&#45;&gt;33 -->
<g id="edge29" class="edge"><title>60&#45;&gt;33</title>
<path fill="none" stroke="navy" d="M605.793,-234.106C629.038,-246.9 656.894,-259.798 684,-266.352 747.343,-281.669 1792.04,-269.167 1857,-274.352 1886.11,-276.676 1917.52,-280.821 1946.25,-285.273"/>
</g>
<!-- 34 -->
<g id="node24" class="node"><title>34</title>
<polygon fill="bisque" stroke="black" stroke-width="2" points="1447.72,-295.272 1447.72,-313.823 1342.44,-326.941 1193.56,-326.941 1088.28,-313.823 1088.28,-295.272 1193.56,-282.155 1342.44,-282.155 1447.72,-295.272"/>
<text text-anchor="middle" x="1268" y="-300.848" font-family="Times,serif" font-size="14.00">Class: ToJSON, Data: Password</text>
</g>
<!-- 60&#45;&gt;34 -->
<g id="edge30" class="edge"><title>60&#45;&gt;34</title>
<path fill="none" stroke="navy" stroke-width="1.69315" d="M611.517,-232.49C636.006,-245.713 664.927,-259.364 693,-266.352 735.598,-276.956 1044.27,-270.549 1088,-274.352 1115.29,-276.726 1144.62,-280.601 1171.54,-284.765"/>
</g>
<!-- 35 -->
<g id="node25" class="node"><title>35</title>
<polygon fill="bisque" stroke="black" stroke-width="2" points="709.923,-295.272 709.923,-313.823 616.242,-326.941 483.758,-326.941 390.077,-313.823 390.077,-295.272 483.758,-282.155 616.242,-282.155 709.923,-295.272"/>
<text text-anchor="middle" x="550" y="-300.848" font-family="Times,serif" font-size="14.00">Class: ToJSON, Data: Role</text>
</g>
<!-- 60&#45;&gt;35 -->
<g id="edge31" class="edge"><title>60&#45;&gt;35</title>
<path fill="none" stroke="navy" d="M556.479,-235.576C557.04,-251.232 556.73,-268.919 555.549,-282.326"/>
</g>
<!-- 28&#45;&gt;3 -->
<g id="edge10" class="edge"><title>28&#45;&gt;3</title>
<path fill="none" stroke="black" d="M2423.7,-282.212C2400.44,-249.486 2351.02,-187.774 2292,-160 2217.59,-124.983 1986.12,-112.938 1860.72,-108.922"/>
<polygon fill="black" stroke="black" points="1860.51,-105.414 1850.4,-108.602 1860.29,-112.411 1860.51,-105.414"/>
</g>
<!-- 29&#45;&gt;5 -->
<g id="edge11" class="edge"><title>29&#45;&gt;5</title>
<path fill="none" stroke="black" d="M1764.15,-285.425C1794.11,-281.034 1826.75,-276.881 1857,-274.352 1867.13,-273.505 2215.89,-273.621 2223,-266.352 2256.06,-232.566 2255.83,-194.001 2223,-160 2183.19,-118.773 1249.1,-128.899 1192,-124 1178.32,-122.827 1163.85,-121.198 1149.8,-119.409"/>
<polygon fill="black" stroke="black" points="1150.03,-115.909 1139.66,-118.082 1149.12,-122.85 1150.03,-115.909"/>
</g>
<!-- 29&#45;&gt;58 -->
<g id="edge12" class="edge"><title>29&#45;&gt;58</title>
<path fill="none" stroke="black" d="M1766.33,-285.654C1792.99,-281.76 1821.46,-277.783 1848,-274.352 1879.49,-270.28 1888.57,-275.431 1919,-266.352 1942.82,-259.247 1967.48,-248.044 1989.53,-236.783"/>
<polygon fill="black" stroke="black" points="1991.22,-239.849 1998.48,-232.135 1987.99,-233.636 1991.22,-239.849"/>
</g>
<!-- 30&#45;&gt;12 -->
<g id="edge13" class="edge"><title>30&#45;&gt;12</title>
<path fill="none" stroke="black" d="M802.622,-285.466C775.655,-281.075 746.265,-276.912 719,-274.352 685.469,-271.205 446.908,-279.728 416,-266.352 395.644,-257.543 378.223,-239.381 366.251,-224.088"/>
<polygon fill="black" stroke="black" points="368.968,-221.878 360.177,-215.965 363.362,-226.07 368.968,-221.878"/>
</g>
<!-- 30&#45;&gt;58 -->
<g id="edge14" class="edge"><title>30&#45;&gt;58</title>
<path fill="none" stroke="black" d="M989.943,-284.629C1015.69,-280.44 1043.82,-276.586 1070,-274.352 1117,-270.343 1873.17,-277.498 1919,-266.352 1943.71,-260.344 1969.04,-249.087 1991.44,-237.454"/>
<polygon fill="black" stroke="black" points="1993.33,-240.415 2000.52,-232.637 1990.04,-234.231 1993.33,-240.415"/>
</g>
<!-- 32&#45;&gt;1 -->
<g id="edge18" class="edge"><title>32&#45;&gt;1</title>
<path fill="none" stroke="black" stroke-width="3.19722" d="M194,-282.326C194,-266.068 194,-243.518 194,-225.927"/>
<polygon fill="black" stroke="black" stroke-width="3.19722" points="197.5,-225.715 194,-215.715 190.5,-225.715 197.5,-225.715"/>
</g>
<!-- 32&#45;&gt;59 -->
<g id="edge19" class="edge"><title>32&#45;&gt;59</title>
<path fill="none" stroke="black" d="M288.355,-284.652C315.25,-280.434 344.652,-276.56 372,-274.352 407.413,-271.493 1616.46,-274.693 1651,-266.352 1675.72,-260.383 1701.05,-249.135 1723.45,-237.499"/>
<polygon fill="black" stroke="black" points="1725.34,-240.459 1732.53,-232.679 1722.06,-234.276 1725.34,-240.459"/>
</g>
<!-- 33&#45;&gt;3 -->
<g id="edge20" class="edge"><title>33&#45;&gt;3</title>
<path fill="none" stroke="black" stroke-width="3.99573" d="M2157.1,-286.47C2211.07,-277.837 2265.02,-268.696 2267,-266.352 2297.51,-230.25 2298.57,-195.178 2267,-160 2240.37,-130.328 1992.34,-115.742 1860.12,-110.022"/>
<polygon fill="black" stroke="black" stroke-width="3.99573" points="1860.17,-106.521 1850.03,-109.593 1859.87,-113.515 1860.17,-106.521"/>
</g>
<!-- 34&#45;&gt;5 -->
<g id="edge21" class="edge"><title>34&#45;&gt;5</title>
<path fill="none" stroke="black" stroke-width="1.69315" d="M1368.22,-285.347C1396.81,-280.897 1428.05,-276.733 1457,-274.352 1467.23,-273.511 2188.78,-273.65 2196,-266.352 2229.24,-232.749 2228.82,-194.017 2196,-160 2157.25,-119.833 1247.61,-128.797 1192,-124 1178.32,-122.82 1163.85,-121.188 1149.8,-119.398"/>
<polygon fill="black" stroke="black" stroke-width="1.69315" points="1150.03,-115.898 1139.66,-118.071 1149.12,-122.839 1150.03,-115.898"/>
</g>
<!-- 34&#45;&gt;60 -->
<g id="edge22" class="edge"><title>34&#45;&gt;60</title>
<path fill="none" stroke="black" d="M1162.09,-285.983C1132.32,-281.367 1099.93,-276.956 1070,-274.352 1026.27,-270.549 717.598,-276.956 675,-266.352 652.41,-260.729 629.271,-250.791 609.099,-240.234"/>
<polygon fill="black" stroke="black" points="610.514,-237.021 600.051,-235.353 607.19,-243.182 610.514,-237.021"/>
</g>
<!-- 35&#45;&gt;12 -->
<g id="edge23" class="edge"><title>35&#45;&gt;12</title>
<path fill="none" stroke="black" d="M459.78,-285.475C444.601,-280.503 429.431,-274.233 416,-266.352 397.523,-255.512 380.586,-238.308 368.364,-223.959"/>
<polygon fill="black" stroke="black" points="370.795,-221.406 361.736,-215.911 365.391,-225.855 370.795,-221.406"/>
</g>
<!-- 35&#45;&gt;60 -->
<g id="edge24" class="edge"><title>35&#45;&gt;60</title>
<path fill="none" stroke="black" d="M544.451,-282.326C543.52,-271.747 543.13,-258.503 543.282,-245.695"/>
<polygon fill="black" stroke="black" points="546.784,-245.656 543.521,-235.576 539.786,-245.491 546.784,-245.656"/>
</g>
</g>
</svg>
