<?xml version="1.0" encoding="UTF-8" standalone="no"?>
<!DOCTYPE svg PUBLIC "-//W3C//DTD SVG 1.1//EN"
 "http://www.w3.org/Graphics/SVG/1.1/DTD/svg11.dtd">
<!-- Generated by graphviz version 2.38.0 (20140413.2041)
 -->
<!-- Title: Levels within Snap.Snaplet.Heist Pages: 1 -->
<svg width="3113pt" height="187pt"
 viewBox="0.00 0.00 3113.00 187.39" xmlns="http://www.w3.org/2000/svg" xmlns:xlink="http://www.w3.org/1999/xlink">
<g id="graph0" class="graph" transform="scale(1 1) rotate(0) translate(4 183.391)">
<title>Levels within Snap.Snaplet.Heist</title>
<polygon fill="white" stroke="none" points="-4,4 -4,-183.391 3109,-183.391 3109,4 -4,4"/>
<g id="clust1" class="cluster"><title>cluster_0</title>
<polygon fill="lavender" stroke="black" points="8,-8 8,-171.391 3097,-171.391 3097,-8 8,-8"/>
<text text-anchor="middle" x="1552.5" y="-156.191" font-family="Times,serif" font-size="14.00">Exported root entities</text>
</g>
<!-- 1 -->
<g id="node1" class="node"><title>1</title>
<polygon fill="gold" stroke="black" stroke-width="2" points="3088.5,-140.391 2953.5,-140.391 2953.5,-104.391 3088.5,-104.391 3088.5,-140.391"/>
<text text-anchor="middle" x="3021" y="-118.691" font-family="Times,serif" font-size="14.00">addTemplates</text>
</g>
<!-- 13 -->
<g id="node13" class="node"><title>13</title>
<polygon fill="goldenrod" stroke="black" stroke-width="2" points="1652.96,-32.9327 1652.96,-51.4586 1587.96,-64.5583 1496.04,-64.5583 1431.04,-51.4586 1431.04,-32.9327 1496.04,-19.833 1587.96,-19.833 1652.96,-32.9327"/>
<polygon fill="none" stroke="black" stroke-width="2" points="1656.96,-29.6288 1656.96,-54.7624 1588.36,-68.5884 1495.64,-68.5884 1427.04,-54.7624 1427.04,-29.6288 1495.64,-15.8029 1588.36,-15.8029 1656.96,-29.6288"/>
<text text-anchor="middle" x="1542" y="-38.4956" font-family="Times,serif" font-size="14.00">Class: HasHeist</text>
</g>
<!-- 1&#45;&gt;13 -->
<g id="edge1" class="edge"><title>1&#45;&gt;13</title>
<path fill="none" stroke="black" d="M2953.15,-105.593C2950.41,-105.15 2947.68,-104.747 2945,-104.391 2700.09,-71.9179 1963.69,-52.5081 1667.45,-45.8294"/>
<polygon fill="black" stroke="black" points="1667.18,-42.3224 1657.1,-45.5972 1667.02,-49.3207 1667.18,-42.3224"/>
</g>
<!-- 2 -->
<g id="node2" class="node"><title>2</title>
<polygon fill="gold" stroke="black" stroke-width="2" points="2935.5,-140.391 2786.5,-140.391 2786.5,-104.391 2935.5,-104.391 2935.5,-140.391"/>
<text text-anchor="middle" x="2861" y="-118.691" font-family="Times,serif" font-size="14.00">addTemplatesAt</text>
</g>
<!-- 2&#45;&gt;13 -->
<g id="edge2" class="edge"><title>2&#45;&gt;13</title>
<path fill="none" stroke="black" d="M2786.43,-105.56C2783.59,-105.134 2780.77,-104.742 2778,-104.391 2374.16,-53.3399 1891.08,-44.3348 1667.24,-43.1025"/>
<polygon fill="black" stroke="black" points="1667.12,-39.602 1657.11,-43.0511 1667.09,-46.6019 1667.12,-39.602"/>
</g>
<!-- 3 -->
<g id="node3" class="node"><title>3</title>
<polygon fill="gold" stroke="black" stroke-width="2" points="2769,-140.391 2645,-140.391 2645,-104.391 2769,-104.391 2769,-140.391"/>
<text text-anchor="middle" x="2707" y="-118.691" font-family="Times,serif" font-size="14.00">cHeistServe</text>
</g>
<!-- 3&#45;&gt;13 -->
<g id="edge3" class="edge"><title>3&#45;&gt;13</title>
<path fill="none" stroke="black" d="M2644.78,-105.828C2641.82,-105.298 2638.88,-104.814 2636,-104.391 2287.79,-53.3857 1871.52,-44.1409 1667.42,-42.9362"/>
<polygon fill="black" stroke="black" points="1667.28,-39.4355 1657.26,-42.8819 1667.24,-46.4354 1667.28,-39.4355"/>
</g>
<!-- 4 -->
<g id="node4" class="node"><title>4</title>
<polygon fill="gold" stroke="black" stroke-width="2" points="2627,-140.391 2469,-140.391 2469,-104.391 2627,-104.391 2627,-140.391"/>
<text text-anchor="middle" x="2548" y="-118.691" font-family="Times,serif" font-size="14.00">cHeistServeSingle</text>
</g>
<!-- 4&#45;&gt;13 -->
<g id="edge4" class="edge"><title>4&#45;&gt;13</title>
<path fill="none" stroke="black" d="M2468.92,-105.634C2465.91,-105.187 2462.93,-104.771 2460,-104.391 2178.16,-67.9175 1844.66,-52.5832 1667.44,-46.6223"/>
<polygon fill="black" stroke="black" points="1667.41,-43.1194 1657.3,-46.2857 1667.18,-50.1156 1667.41,-43.1194"/>
</g>
<!-- 5 -->
<g id="node5" class="node"><title>5</title>
<polygon fill="gold" stroke="black" stroke-width="2" points="2451,-140.391 2347,-140.391 2347,-104.391 2451,-104.391 2451,-140.391"/>
<text text-anchor="middle" x="2399" y="-118.691" font-family="Times,serif" font-size="14.00">cRender</text>
</g>
<!-- 5&#45;&gt;13 -->
<g id="edge5" class="edge"><title>5&#45;&gt;13</title>
<path fill="none" stroke="black" d="M2346.91,-106.154C2343.91,-105.501 2340.92,-104.906 2338,-104.391 2103.42,-63.0939 1825.08,-49.665 1667.44,-45.2987"/>
<polygon fill="black" stroke="black" points="1667.32,-41.7944 1657.23,-45.024 1667.13,-48.7919 1667.32,-41.7944"/>
</g>
<!-- 6 -->
<g id="node6" class="node"><title>6</title>
<polygon fill="gold" stroke="black" stroke-width="2" points="2328.5,-140.391 2209.5,-140.391 2209.5,-104.391 2328.5,-104.391 2328.5,-140.391"/>
<text text-anchor="middle" x="2269" y="-118.691" font-family="Times,serif" font-size="14.00">cRenderAs</text>
</g>
<!-- 6&#45;&gt;13 -->
<g id="edge6" class="edge"><title>6&#45;&gt;13</title>
<path fill="none" stroke="black" d="M2209.27,-106.099C2206.15,-105.479 2203.04,-104.904 2200,-104.391 2016.01,-73.3472 1800.22,-57.0487 1667.3,-49.2897"/>
<polygon fill="black" stroke="black" points="1667.27,-45.7821 1657.08,-48.7006 1666.86,-52.7705 1667.27,-45.7821"/>
</g>
<!-- 7 -->
<g id="node7" class="node"><title>7</title>
<polygon fill="gold" stroke="black" stroke-width="2" points="2191,-140.391 2063,-140.391 2063,-104.391 2191,-104.391 2191,-140.391"/>
<text text-anchor="middle" x="2127" y="-118.691" font-family="Times,serif" font-size="14.00">chooseMode</text>
</g>
<!-- 7&#45;&gt;13 -->
<g id="edge7" class="edge"><title>7&#45;&gt;13</title>
<path fill="none" stroke="black" d="M2062.99,-106.065C2059.96,-105.471 2056.95,-104.909 2054,-104.391 1922.91,-81.3653 1771.4,-64.4443 1667.4,-54.3034"/>
<polygon fill="black" stroke="black" points="1667.46,-50.7931 1657.17,-53.3129 1666.78,-57.7605 1667.46,-50.7931"/>
</g>
<!-- 8 -->
<g id="node8" class="node"><title>8</title>
<polygon fill="gold" stroke="black" stroke-width="2" points="2044.5,-140.391 1919.5,-140.391 1919.5,-104.391 2044.5,-104.391 2044.5,-140.391"/>
<text text-anchor="middle" x="1982" y="-118.691" font-family="Times,serif" font-size="14.00">gHeistServe</text>
</g>
<!-- 8&#45;&gt;13 -->
<g id="edge8" class="edge"><title>8&#45;&gt;13</title>
<path fill="none" stroke="black" d="M1919.33,-106.133C1916.52,-105.528 1913.73,-104.944 1911,-104.391 1824.53,-86.8916 1725.91,-70.7307 1652.39,-59.4163"/>
<polygon fill="black" stroke="black" points="1652.61,-55.908 1642.19,-57.8523 1651.55,-62.8272 1652.61,-55.908"/>
</g>
<!-- 9 -->
<g id="node9" class="node"><title>9</title>
<polygon fill="gold" stroke="black" stroke-width="2" points="1901.5,-140.391 1742.5,-140.391 1742.5,-104.391 1901.5,-104.391 1901.5,-140.391"/>
<text text-anchor="middle" x="1822" y="-118.691" font-family="Times,serif" font-size="14.00">gHeistServeSingle</text>
</g>
<!-- 9&#45;&gt;13 -->
<g id="edge9" class="edge"><title>9&#45;&gt;13</title>
<path fill="none" stroke="black" d="M1760.9,-104.328C1720.81,-93.131 1667.9,-78.3549 1624.14,-66.1346"/>
<polygon fill="black" stroke="black" points="1624.95,-62.7273 1614.38,-63.4084 1623.07,-69.4693 1624.95,-62.7273"/>
</g>
<!-- 10 -->
<g id="node10" class="node"><title>10</title>
<polygon fill="gold" stroke="black" stroke-width="2" points="1724,-140.391 1620,-140.391 1620,-104.391 1724,-104.391 1724,-140.391"/>
<text text-anchor="middle" x="1672" y="-118.691" font-family="Times,serif" font-size="14.00">gRender</text>
</g>
<!-- 10&#45;&gt;13 -->
<g id="edge10" class="edge"><title>10&#45;&gt;13</title>
<path fill="none" stroke="black" d="M1643.47,-104.231C1628.7,-95.349 1610.23,-84.2339 1593.1,-73.9315"/>
<polygon fill="black" stroke="black" points="1594.66,-70.7894 1584.29,-68.6342 1591.06,-76.7879 1594.66,-70.7894"/>
</g>
<!-- 11 -->
<g id="node11" class="node"><title>11</title>
<polygon fill="gold" stroke="black" stroke-width="2" points="1601.5,-140.391 1482.5,-140.391 1482.5,-104.391 1601.5,-104.391 1601.5,-140.391"/>
<text text-anchor="middle" x="1542" y="-118.691" font-family="Times,serif" font-size="14.00">gRenderAs</text>
</g>
<!-- 11&#45;&gt;13 -->
<g id="edge11" class="edge"><title>11&#45;&gt;13</title>
<path fill="none" stroke="black" d="M1542,-104.037C1542,-96.5343 1542,-87.4652 1542,-78.6457"/>
<polygon fill="black" stroke="black" points="1545.5,-78.516 1542,-68.516 1538.5,-78.5161 1545.5,-78.516"/>
</g>
<!-- 12 -->
<g id="node12" class="node"><title>12</title>
<polygon fill="gold" stroke="black" stroke-width="2" points="1464.5,-140.391 1333.5,-140.391 1333.5,-104.391 1464.5,-104.391 1464.5,-140.391"/>
<text text-anchor="middle" x="1399" y="-118.691" font-family="Times,serif" font-size="14.00">getHeistState</text>
</g>
<!-- 12&#45;&gt;13 -->
<g id="edge12" class="edge"><title>12&#45;&gt;13</title>
<path fill="none" stroke="black" d="M1430.38,-104.231C1446.92,-95.188 1467.69,-83.8301 1486.82,-73.3719"/>
<polygon fill="black" stroke="black" points="1488.66,-76.3522 1495.75,-68.4835 1485.3,-70.2105 1488.66,-76.3522"/>
</g>
<!-- 14 -->
<g id="node14" class="node"><title>14</title>
<polygon fill="gold" stroke="black" stroke-width="2" points="1315.5,-140.391 1200.5,-140.391 1200.5,-104.391 1315.5,-104.391 1315.5,-140.391"/>
<text text-anchor="middle" x="1258" y="-118.691" font-family="Times,serif" font-size="14.00">heistLocal</text>
</g>
<!-- 14&#45;&gt;13 -->
<g id="edge13" class="edge"><title>14&#45;&gt;13</title>
<path fill="none" stroke="black" d="M1315.81,-105.473C1357.15,-94.0918 1413.38,-78.6092 1459.43,-65.9289"/>
<polygon fill="black" stroke="black" points="1460.39,-69.2972 1469.1,-63.2681 1458.53,-62.5483 1460.39,-69.2972"/>
</g>
<!-- 15 -->
<g id="node15" class="node"><title>15</title>
<polygon fill="gold" stroke="black" stroke-width="2" points="1182.5,-140.391 1067.5,-140.391 1067.5,-104.391 1182.5,-104.391 1182.5,-140.391"/>
<text text-anchor="middle" x="1125" y="-118.691" font-family="Times,serif" font-size="14.00">heistServe</text>
</g>
<!-- 15&#45;&gt;13 -->
<g id="edge14" class="edge"><title>15&#45;&gt;13</title>
<path fill="none" stroke="black" d="M1182.68,-106.463C1185.83,-105.74 1188.95,-105.044 1192,-104.391 1272.78,-87.1074 1364.82,-71.1606 1434.23,-59.8816"/>
<polygon fill="black" stroke="black" points="1434.99,-63.3041 1444.31,-58.2518 1433.88,-56.394 1434.99,-63.3041"/>
</g>
<!-- 16 -->
<g id="node16" class="node"><title>16</title>
<polygon fill="gold" stroke="black" stroke-width="2" points="1049.5,-140.391 900.5,-140.391 900.5,-104.391 1049.5,-104.391 1049.5,-140.391"/>
<text text-anchor="middle" x="975" y="-118.691" font-family="Times,serif" font-size="14.00">heistServeSingle</text>
</g>
<!-- 16&#45;&gt;13 -->
<g id="edge15" class="edge"><title>16&#45;&gt;13</title>
<path fill="none" stroke="black" d="M1049.6,-105.996C1052.77,-105.436 1055.92,-104.898 1059,-104.391 1180.64,-84.4047 1320.44,-67.3298 1418.23,-56.3355"/>
<polygon fill="black" stroke="black" points="1418.9,-59.7821 1428.45,-55.1913 1418.13,-52.8256 1418.9,-59.7821"/>
</g>
<!-- 17 -->
<g id="node17" class="node"><title>17</title>
<polygon fill="gold" stroke="black" stroke-width="2" points="882,-140.391 728,-140.391 728,-104.391 882,-104.391 882,-140.391"/>
<text text-anchor="middle" x="805" y="-118.691" font-family="Times,serif" font-size="14.00">modifyHeistState</text>
</g>
<!-- 17&#45;&gt;13 -->
<g id="edge16" class="edge"><title>17&#45;&gt;13</title>
<path fill="none" stroke="black" d="M882.253,-105.883C885.542,-105.354 888.801,-104.853 892,-104.391 1073.63,-78.1615 1285.51,-60.632 1416.73,-51.2894"/>
<polygon fill="black" stroke="black" points="1417.09,-54.7728 1426.82,-50.5759 1416.6,-47.7902 1417.09,-54.7728"/>
</g>
<!-- 18 -->
<g id="node18" class="node"><title>18</title>
<polygon fill="gold" stroke="black" stroke-width="2" points="709.5,-140.391 616.5,-140.391 616.5,-104.391 709.5,-104.391 709.5,-140.391"/>
<text text-anchor="middle" x="663" y="-118.691" font-family="Times,serif" font-size="14.00">render</text>
</g>
<!-- 18&#45;&gt;13 -->
<g id="edge17" class="edge"><title>18&#45;&gt;13</title>
<path fill="none" stroke="black" d="M709.56,-106.418C712.736,-105.656 715.904,-104.969 719,-104.391 963.356,-58.7952 1254.5,-46.8943 1416.79,-43.9594"/>
<polygon fill="black" stroke="black" points="1416.87,-47.4586 1426.81,-43.7866 1416.75,-40.4596 1416.87,-47.4586"/>
</g>
<!-- 19 -->
<g id="node19" class="node"><title>19</title>
<polygon fill="gold" stroke="black" stroke-width="2" points="598,-140.391 490,-140.391 490,-104.391 598,-104.391 598,-140.391"/>
<text text-anchor="middle" x="544" y="-118.691" font-family="Times,serif" font-size="14.00">renderAs</text>
</g>
<!-- 19&#45;&gt;13 -->
<g id="edge18" class="edge"><title>19&#45;&gt;13</title>
<path fill="none" stroke="black" d="M598.312,-106.196C601.576,-105.522 604.823,-104.912 608,-104.391 894.831,-57.3583 1236.81,-46.1746 1416.84,-43.7051"/>
<polygon fill="black" stroke="black" points="1416.93,-47.2044 1426.88,-43.5742 1416.84,-40.205 1416.93,-47.2044"/>
</g>
<!-- 20 -->
<g id="node20" class="node"><title>20</title>
<polygon fill="gold" stroke="black" stroke-width="2" points="472,-140.391 312,-140.391 312,-104.391 472,-104.391 472,-140.391"/>
<text text-anchor="middle" x="392" y="-118.691" font-family="Times,serif" font-size="14.00">renderWithSplices</text>
</g>
<!-- 20&#45;&gt;13 -->
<g id="edge19" class="edge"><title>20&#45;&gt;13</title>
<path fill="none" stroke="black" d="M472.455,-105.534C475.335,-105.122 478.19,-104.739 481,-104.391 817.563,-62.724 1217.78,-49.3432 1416.75,-45.1099"/>
<polygon fill="black" stroke="black" points="1417.02,-48.6051 1426.94,-44.8973 1416.87,-41.6066 1417.02,-48.6051"/>
</g>
<!-- 21 -->
<g id="node21" class="node"><title>21</title>
<polygon fill="gold" stroke="black" stroke-width="2" points="294,-140.391 156,-140.391 156,-104.391 294,-104.391 294,-140.391"/>
<text text-anchor="middle" x="225" y="-118.691" font-family="Times,serif" font-size="14.00">withHeistState</text>
</g>
<!-- 21&#45;&gt;13 -->
<g id="edge20" class="edge"><title>21&#45;&gt;13</title>
<path fill="none" stroke="black" d="M294.218,-105.684C297.178,-105.209 300.115,-104.774 303,-104.391 707.754,-50.6628 1192.53,-42.9513 1416.82,-42.5663"/>
<polygon fill="black" stroke="black" points="1416.98,-46.0662 1426.98,-42.5536 1416.98,-39.0662 1416.98,-46.0662"/>
</g>
<!-- 22 -->
<g id="node22" class="node"><title>22</title>
<polygon fill="gold" stroke="black" stroke-width="2" points="138,-140.391 16,-140.391 16,-104.391 138,-104.391 138,-140.391"/>
<text text-anchor="middle" x="77" y="-118.691" font-family="Times,serif" font-size="14.00">withSplices</text>
</g>
<!-- 22&#45;&gt;13 -->
<g id="edge21" class="edge"><title>22&#45;&gt;13</title>
<path fill="none" stroke="black" d="M138.329,-105.783C141.251,-105.265 144.152,-104.796 147,-104.391 390.056,-69.8809 1121.69,-51.6727 1416.68,-45.5725"/>
<polygon fill="black" stroke="black" points="1417.07,-49.0655 1426.99,-45.3606 1416.92,-42.0669 1417.07,-49.0655"/>
</g>
</g>
</svg>
