<?xml version="1.0" encoding="UTF-8" standalone="no"?>
<!DOCTYPE svg PUBLIC "-//W3C//DTD SVG 1.1//EN"
 "http://www.w3.org/Graphics/SVG/1.1/DTD/svg11.dtd">
<!-- Generated by graphviz version 2.38.0 (20140413.2041)
 -->
<!-- Title: Levels within Snap.Snaplet.Auth.Handlers Pages: 1 -->
<svg width="1627pt" height="531pt"
 viewBox="0.00 0.00 1627.00 531.00" xmlns="http://www.w3.org/2000/svg" xmlns:xlink="http://www.w3.org/1999/xlink">
<g id="graph0" class="graph" transform="scale(1 1) rotate(0) translate(4 527)">
<title>Levels within Snap.Snaplet.Auth.Handlers</title>
<polygon fill="white" stroke="none" points="-4,4 -4,-527 1623,-527 1623,4 -4,4"/>
<g id="clust1" class="cluster"><title>cluster_0</title>
<polygon fill="lavender" stroke="black" points="8,-8 8,-515 1611,-515 1611,-8 8,-8"/>
<text text-anchor="middle" x="809.5" y="-499.8" font-family="Times,serif" font-size="14.00">Exported root entities</text>
</g>
<!-- 1 -->
<g id="node1" class="node"><title>1</title>
<polygon fill="goldenrod" stroke="black" stroke-width="2" points="1063,-196 887,-196 887,-160 1063,-160 1063,-196"/>
<text text-anchor="middle" x="975" y="-174.3" font-family="Times,serif" font-size="14.00">authenticatePassword</text>
</g>
<!-- 2 -->
<g id="node2" class="node"><title>2</title>
<polygon fill="goldenrod" stroke="black" stroke-width="2" points="549,-196 403,-196 403,-160 549,-160 549,-196"/>
<text text-anchor="middle" x="476" y="-174.3" font-family="Times,serif" font-size="14.00">cacheOrLookup</text>
</g>
<!-- 3 -->
<g id="node3" class="node"><title>3</title>
<polygon fill="goldenrod" stroke="black" stroke-width="2" points="1219.5,-268 1022.5,-268 1022.5,-232 1219.5,-232 1219.5,-268"/>
<text text-anchor="middle" x="1121" y="-246.3" font-family="Times,serif" font-size="14.00">checkPasswordAndLogin</text>
</g>
<!-- 3&#45;&gt;1 -->
<g id="edge1" class="edge"><title>3&#45;&gt;1</title>
<path fill="none" stroke="black" d="M1085.28,-231.876C1065.5,-222.392 1040.73,-210.513 1019.67,-200.419"/>
<polygon fill="black" stroke="black" points="1021.13,-197.236 1010.6,-196.068 1018.1,-203.548 1021.13,-197.236"/>
</g>
<!-- 8 -->
<g id="node8" class="node"><title>8</title>
<polygon fill="goldenrod" stroke="black" stroke-width="2" points="612.5,-124 493.5,-124 493.5,-88 612.5,-88 612.5,-124"/>
<text text-anchor="middle" x="553" y="-102.3" font-family="Times,serif" font-size="14.00">forceLogin</text>
</g>
<!-- 3&#45;&gt;8 -->
<g id="edge2" class="edge"><title>3&#45;&gt;8</title>
<path fill="none" stroke="black" d="M1111.73,-231.688C1098,-206.114 1073.68,-161.113 1072,-160 1035.33,-135.732 755.656,-117.785 622.742,-110.533"/>
<polygon fill="black" stroke="black" points="622.834,-107.033 612.66,-109.988 622.456,-114.023 622.834,-107.033"/>
</g>
<!-- 19 -->
<g id="node19" class="node"><title>19</title>
<polygon fill="goldenrod" stroke="black" stroke-width="2" points="868.5,-196 733.5,-196 733.5,-160 868.5,-160 868.5,-196"/>
<text text-anchor="middle" x="801" y="-174.3" font-family="Times,serif" font-size="14.00">markAuthFail</text>
</g>
<!-- 3&#45;&gt;19 -->
<g id="edge3" class="edge"><title>3&#45;&gt;19</title>
<path fill="none" stroke="black" d="M1042.74,-231.984C997.529,-222.141 939.306,-209.445 878.4,-196.085"/>
<polygon fill="black" stroke="black" points="879.122,-192.66 868.604,-193.936 877.621,-199.498 879.122,-192.66"/>
</g>
<!-- 20 -->
<g id="node20" class="node"><title>20</title>
<polygon fill="goldenrod" stroke="black" stroke-width="2" points="1258.5,-196 1101.5,-196 1101.5,-160 1258.5,-160 1258.5,-196"/>
<text text-anchor="middle" x="1180" y="-174.3" font-family="Times,serif" font-size="14.00">markAuthSuccess</text>
</g>
<!-- 3&#45;&gt;20 -->
<g id="edge4" class="edge"><title>3&#45;&gt;20</title>
<path fill="none" stroke="black" d="M1135.58,-231.697C1142.66,-223.305 1151.28,-213.07 1159.05,-203.861"/>
<polygon fill="black" stroke="black" points="1161.81,-206.006 1165.58,-196.104 1156.46,-201.495 1161.81,-206.006"/>
</g>
<!-- 4 -->
<g id="node4" class="node"><title>4</title>
<polygon fill="gold" stroke="black" stroke-width="2" points="688.5,-340 487.5,-340 487.5,-304 688.5,-304 688.5,-340"/>
<text text-anchor="middle" x="588" y="-318.3" font-family="Times,serif" font-size="14.00">clearPasswordResetToken</text>
</g>
<!-- 21 -->
<g id="node21" class="node"><title>21</title>
<polygon fill="goldenrod" stroke="black" stroke-width="2" points="688,-268 488,-268 488,-232 688,-232 688,-268"/>
<text text-anchor="middle" x="588" y="-246.3" font-family="Times,serif" font-size="14.00">modPasswordResetToken</text>
</g>
<!-- 4&#45;&gt;21 -->
<g id="edge5" class="edge"><title>4&#45;&gt;21</title>
<path fill="none" stroke="black" d="M588,-303.697C588,-295.983 588,-286.712 588,-278.112"/>
<polygon fill="black" stroke="black" points="591.5,-278.104 588,-268.104 584.5,-278.104 591.5,-278.104"/>
</g>
<!-- 5 -->
<g id="node5" class="node"><title>5</title>
<polygon fill="goldenrod" stroke="black" stroke-width="2" points="1472,-268 1356,-268 1356,-232 1472,-232 1472,-268"/>
<text text-anchor="middle" x="1414" y="-246.3" font-family="Times,serif" font-size="14.00">createUser</text>
</g>
<!-- 29 -->
<g id="node29" class="node"><title>29</title>
<polygon fill="goldenrod" stroke="black" stroke-width="2" points="1441,-196 1297,-196 1297,-160 1441,-160 1441,-196"/>
<text text-anchor="middle" x="1369" y="-174.3" font-family="Times,serif" font-size="14.00">usernameExists</text>
</g>
<!-- 5&#45;&gt;29 -->
<g id="edge6" class="edge"><title>5&#45;&gt;29</title>
<path fill="none" stroke="black" d="M1402.88,-231.697C1397.64,-223.559 1391.3,-213.689 1385.52,-204.701"/>
<polygon fill="black" stroke="black" points="1388.35,-202.623 1380,-196.104 1382.46,-206.409 1388.35,-202.623"/>
</g>
<!-- 30 -->
<g id="node30" class="node"><title>30</title>
<polygon fill="goldenrod" stroke="black" stroke-width="2" points="1055,-124 925,-124 925,-88 1055,-88 1055,-124"/>
<text text-anchor="middle" x="990" y="-102.3" font-family="Times,serif" font-size="14.00">withBackend</text>
</g>
<!-- 5&#45;&gt;30 -->
<g id="edge7" class="edge"><title>5&#45;&gt;30</title>
<path fill="none" stroke="black" d="M1430.74,-231.743C1447.56,-212.321 1468.52,-180.778 1450,-160 1424.9,-131.837 1189.26,-116.479 1065.35,-110.289"/>
<polygon fill="black" stroke="black" points="1065.33,-106.784 1055.17,-109.789 1064.99,-113.776 1065.33,-106.784"/>
</g>
<!-- 6 -->
<g id="node6" class="node"><title>6</title>
<polygon fill="goldenrod" stroke="black" stroke-width="2" points="347,-268 225,-268 225,-232 347,-232 347,-268"/>
<text text-anchor="middle" x="286" y="-246.3" font-family="Times,serif" font-size="14.00">currentUser</text>
</g>
<!-- 6&#45;&gt;2 -->
<g id="edge8" class="edge"><title>6&#45;&gt;2</title>
<path fill="none" stroke="black" d="M332.479,-231.876C358.915,-222.137 392.203,-209.872 420.064,-199.608"/>
<polygon fill="black" stroke="black" points="421.498,-202.81 429.672,-196.068 419.078,-196.241 421.498,-202.81"/>
</g>
<!-- 11 -->
<g id="node11" class="node"><title>11</title>
<polygon fill="goldenrod" stroke="black" stroke-width="2" points="169.5,-196 16.5,-196 16.5,-160 169.5,-160 169.5,-196"/>
<text text-anchor="middle" x="93" y="-174.3" font-family="Times,serif" font-size="14.00">getSessionUserId</text>
</g>
<!-- 6&#45;&gt;11 -->
<g id="edge9" class="edge"><title>6&#45;&gt;11</title>
<path fill="none" stroke="black" d="M238.787,-231.876C211.934,-222.137 178.12,-209.872 149.82,-199.608"/>
<polygon fill="black" stroke="black" points="150.654,-196.188 140.06,-196.068 148.267,-202.768 150.654,-196.188"/>
</g>
<!-- 13 -->
<g id="node13" class="node"><title>13</title>
<polygon fill="goldenrod" stroke="black" stroke-width="2" points="384.5,-196 187.5,-196 187.5,-160 384.5,-160 384.5,-196"/>
<text text-anchor="middle" x="286" y="-174.3" font-family="Times,serif" font-size="14.00">loginByRememberToken</text>
</g>
<!-- 6&#45;&gt;13 -->
<g id="edge10" class="edge"><title>6&#45;&gt;13</title>
<path fill="none" stroke="black" d="M286,-231.697C286,-223.983 286,-214.712 286,-206.112"/>
<polygon fill="black" stroke="black" points="289.5,-206.104 286,-196.104 282.5,-206.104 289.5,-206.104"/>
</g>
<!-- 6&#45;&gt;30 -->
<g id="edge11" class="edge"><title>6&#45;&gt;30</title>
<path fill="none" stroke="black" d="M347.016,-242.871C416.451,-234.913 524.568,-219.235 558,-196 573.398,-185.299 564.268,-170.204 580,-160 633.759,-125.131 811.981,-113.12 914.894,-109.043"/>
<polygon fill="black" stroke="black" points="915.057,-112.54 924.917,-108.662 914.791,-105.545 915.057,-112.54"/>
</g>
<!-- 7 -->
<g id="node7" class="node"><title>7</title>
<polygon fill="gold" stroke="black" stroke-width="2" points="1603,-196 1479,-196 1479,-160 1603,-160 1603,-196"/>
<text text-anchor="middle" x="1541" y="-174.3" font-family="Times,serif" font-size="14.00">destroyUser</text>
</g>
<!-- 7&#45;&gt;30 -->
<g id="edge12" class="edge"><title>7&#45;&gt;30</title>
<path fill="none" stroke="black" d="M1478.89,-162.529C1474.2,-161.614 1469.53,-160.758 1465,-160 1324.64,-136.543 1159.16,-120.728 1065.21,-112.844"/>
<polygon fill="black" stroke="black" points="1065.49,-109.355 1055.23,-112.014 1064.91,-116.331 1065.49,-109.355"/>
</g>
<!-- 28 -->
<g id="node28" class="node"><title>28</title>
<polygon fill="goldenrod" stroke="black" stroke-width="2" points="629,-52 477,-52 477,-16 629,-16 629,-52"/>
<text text-anchor="middle" x="553" y="-30.3" font-family="Times,serif" font-size="14.00">setSessionUserId</text>
</g>
<!-- 8&#45;&gt;28 -->
<g id="edge13" class="edge"><title>8&#45;&gt;28</title>
<path fill="none" stroke="chartreuse" d="M553,-87.6966C553,-79.9827 553,-70.7125 553,-62.1124"/>
<polygon fill="chartreuse" stroke="chartreuse" points="556.5,-62.1043 553,-52.1043 549.5,-62.1044 556.5,-62.1043"/>
</g>
<!-- 9 -->
<g id="node9" class="node"><title>9</title>
<polygon fill="goldenrod" stroke="black" stroke-width="2" points="893,-340 707,-340 707,-304 893,-304 893,-340"/>
<text text-anchor="middle" x="800" y="-318.3" font-family="Times,serif" font-size="14.00">forgetRememberToken</text>
</g>
<!-- 10 -->
<g id="node10" class="node"><title>10</title>
<polygon fill="goldenrod" stroke="black" stroke-width="2" points="371,-124 201,-124 201,-88 371,-88 371,-124"/>
<text text-anchor="middle" x="286" y="-102.3" font-family="Times,serif" font-size="14.00">getRememberToken</text>
</g>
<!-- 12 -->
<g id="node12" class="node"><title>12</title>
<polygon fill="goldenrod" stroke="black" stroke-width="2" points="261,-340 141,-340 141,-304 261,-304 261,-340"/>
<text text-anchor="middle" x="201" y="-318.3" font-family="Times,serif" font-size="14.00">isLoggedIn</text>
</g>
<!-- 12&#45;&gt;6 -->
<g id="edge14" class="edge"><title>12&#45;&gt;6</title>
<path fill="none" stroke="chartreuse" d="M222.011,-303.697C232.716,-294.881 245.89,-284.032 257.496,-274.474"/>
<polygon fill="chartreuse" stroke="chartreuse" points="259.736,-277.163 265.23,-268.104 255.286,-271.76 259.736,-277.163"/>
</g>
<!-- 13&#45;&gt;8 -->
<g id="edge15" class="edge"><title>13&#45;&gt;8</title>
<path fill="none" stroke="black" d="M350.974,-159.966C391.046,-149.46 442.418,-135.992 483.33,-125.265"/>
<polygon fill="black" stroke="black" points="484.439,-128.593 493.225,-122.671 482.664,-121.822 484.439,-128.593"/>
</g>
<!-- 13&#45;&gt;10 -->
<g id="edge16" class="edge"><title>13&#45;&gt;10</title>
<path fill="none" stroke="black" d="M286,-159.697C286,-151.983 286,-142.712 286,-134.112"/>
<polygon fill="black" stroke="black" points="289.5,-134.104 286,-124.104 282.5,-134.104 289.5,-134.104"/>
</g>
<!-- 13&#45;&gt;30 -->
<g id="edge17" class="edge"><title>13&#45;&gt;30</title>
<path fill="none" stroke="black" d="M384.55,-161.207C387.735,-160.786 390.892,-160.382 394,-160 580.466,-137.06 800.926,-120.081 914.286,-112.089"/>
<polygon fill="black" stroke="black" points="914.855,-115.558 924.586,-111.367 914.366,-108.575 914.855,-115.558"/>
</g>
<!-- 14 -->
<g id="node14" class="node"><title>14</title>
<polygon fill="goldenrod" stroke="black" stroke-width="2" points="1265,-340 1107,-340 1107,-304 1265,-304 1265,-340"/>
<text text-anchor="middle" x="1186" y="-318.3" font-family="Times,serif" font-size="14.00">loginByUsername</text>
</g>
<!-- 14&#45;&gt;3 -->
<g id="edge18" class="edge"><title>14&#45;&gt;3</title>
<path fill="none" stroke="black" d="M1169.93,-303.697C1162.06,-295.22 1152.44,-284.864 1143.83,-275.583"/>
<polygon fill="black" stroke="black" points="1146.25,-273.051 1136.88,-268.104 1141.12,-277.814 1146.25,-273.051"/>
</g>
<!-- 25 -->
<g id="node25" class="node"><title>25</title>
<polygon fill="goldenrod" stroke="black" stroke-width="2" points="715,-196 607,-196 607,-160 715,-160 715,-196"/>
<text text-anchor="middle" x="661" y="-174.3" font-family="Times,serif" font-size="14.00">saveUser</text>
</g>
<!-- 14&#45;&gt;25 -->
<g id="edge19" class="edge"><title>14&#45;&gt;25</title>
<path fill="none" stroke="black" d="M1112.21,-303.942C1073,-293.785 1029.73,-280.48 1014,-268 999.49,-256.485 1008.41,-242.273 993,-232 895.275,-166.867 844.949,-216.965 725.083,-195.97"/>
<polygon fill="black" stroke="black" points="725.665,-192.518 715.19,-194.104 724.368,-199.397 725.665,-192.518"/>
</g>
<!-- 27 -->
<g id="node27" class="node"><title>27</title>
<polygon fill="goldenrod" stroke="black" stroke-width="2" points="984.5,-268 815.5,-268 815.5,-232 984.5,-232 984.5,-268"/>
<text text-anchor="middle" x="900" y="-246.3" font-family="Times,serif" font-size="14.00">setRememberToken</text>
</g>
<!-- 14&#45;&gt;27 -->
<g id="edge20" class="edge"><title>14&#45;&gt;27</title>
<path fill="none" stroke="black" d="M1116.4,-303.966C1075.14,-293.866 1022.69,-281.028 979.759,-270.521"/>
<polygon fill="black" stroke="black" points="980.455,-267.089 969.91,-268.111 978.791,-273.888 980.455,-267.089"/>
</g>
<!-- 14&#45;&gt;30 -->
<g id="edge21" class="edge"><title>14&#45;&gt;30</title>
<path fill="none" stroke="black" d="M1206.84,-303.816C1242.09,-272.713 1306.09,-206.041 1268,-160 1242.69,-129.403 1138.5,-116.315 1065.14,-110.823"/>
<polygon fill="black" stroke="black" points="1065.23,-107.32 1055,-110.097 1064.73,-114.303 1065.23,-107.32"/>
</g>
<!-- 15 -->
<g id="node15" class="node"><title>15</title>
<polygon fill="gold" stroke="black" stroke-width="2" points="1242,-484 1130,-484 1130,-448 1242,-448 1242,-484"/>
<text text-anchor="middle" x="1186" y="-462.3" font-family="Times,serif" font-size="14.00">loginUser</text>
</g>
<!-- 16 -->
<g id="node16" class="node"><title>16</title>
<polygon fill="goldenrod" stroke="black" stroke-width="2" points="1243,-412 1129,-412 1129,-376 1243,-376 1243,-412"/>
<text text-anchor="middle" x="1186" y="-390.3" font-family="Times,serif" font-size="14.00">loginUser&#39;</text>
</g>
<!-- 15&#45;&gt;16 -->
<g id="edge22" class="edge"><title>15&#45;&gt;16</title>
<path fill="none" stroke="chartreuse" d="M1186,-447.697C1186,-439.983 1186,-430.712 1186,-422.112"/>
<polygon fill="chartreuse" stroke="chartreuse" points="1189.5,-422.104 1186,-412.104 1182.5,-422.104 1189.5,-422.104"/>
</g>
<!-- 16&#45;&gt;14 -->
<g id="edge23" class="edge"><title>16&#45;&gt;14</title>
<path fill="none" stroke="chartreuse" d="M1186,-375.697C1186,-367.983 1186,-358.712 1186,-350.112"/>
<polygon fill="chartreuse" stroke="chartreuse" points="1189.5,-350.104 1186,-340.104 1182.5,-350.104 1189.5,-350.104"/>
</g>
<!-- 17 -->
<g id="node17" class="node"><title>17</title>
<polygon fill="goldenrod" stroke="black" stroke-width="2" points="946.5,-412 853.5,-412 853.5,-376 946.5,-376 946.5,-412"/>
<text text-anchor="middle" x="900" y="-390.3" font-family="Times,serif" font-size="14.00">logout</text>
</g>
<!-- 17&#45;&gt;9 -->
<g id="edge24" class="edge"><title>17&#45;&gt;9</title>
<path fill="none" stroke="black" d="M875.537,-375.876C862.704,-366.893 846.804,-355.763 832.906,-346.034"/>
<polygon fill="black" stroke="black" points="834.756,-343.057 824.557,-340.19 830.742,-348.792 834.756,-343.057"/>
</g>
<!-- 23 -->
<g id="node23" class="node"><title>23</title>
<polygon fill="goldenrod" stroke="black" stroke-width="2" points="1089,-340 911,-340 911,-304 1089,-304 1089,-340"/>
<text text-anchor="middle" x="1000" y="-318.3" font-family="Times,serif" font-size="14.00">removeSessionUserId</text>
</g>
<!-- 17&#45;&gt;23 -->
<g id="edge25" class="edge"><title>17&#45;&gt;23</title>
<path fill="none" stroke="black" d="M924.463,-375.876C937.296,-366.893 953.196,-355.763 967.094,-346.034"/>
<polygon fill="black" stroke="black" points="969.258,-348.792 975.443,-340.19 965.244,-343.057 969.258,-348.792"/>
</g>
<!-- 18 -->
<g id="node18" class="node"><title>18</title>
<polygon fill="gold" stroke="black" stroke-width="2" points="959.5,-484 840.5,-484 840.5,-448 959.5,-448 959.5,-484"/>
<text text-anchor="middle" x="900" y="-462.3" font-family="Times,serif" font-size="14.00">logoutUser</text>
</g>
<!-- 18&#45;&gt;17 -->
<g id="edge26" class="edge"><title>18&#45;&gt;17</title>
<path fill="none" stroke="chartreuse" d="M900,-447.697C900,-439.983 900,-430.712 900,-422.112"/>
<polygon fill="chartreuse" stroke="chartreuse" points="903.5,-422.104 900,-412.104 896.5,-422.104 903.5,-422.104"/>
</g>
<!-- 19&#45;&gt;30 -->
<g id="edge27" class="edge"><title>19&#45;&gt;30</title>
<path fill="none" stroke="black" d="M847.235,-159.876C873.531,-150.137 906.644,-137.872 934.358,-127.608"/>
<polygon fill="black" stroke="black" points="935.754,-130.824 943.916,-124.068 933.322,-124.259 935.754,-130.824"/>
</g>
<!-- 20&#45;&gt;30 -->
<g id="edge28" class="edge"><title>20&#45;&gt;30</title>
<path fill="none" stroke="black" d="M1133.52,-159.876C1107.08,-150.137 1073.8,-137.872 1045.94,-127.608"/>
<polygon fill="black" stroke="black" points="1046.92,-124.241 1036.33,-124.068 1044.5,-130.81 1046.92,-124.241"/>
</g>
<!-- 21&#45;&gt;25 -->
<g id="edge29" class="edge"><title>21&#45;&gt;25</title>
<path fill="none" stroke="black" d="M606.045,-231.697C615.062,-223.05 626.118,-212.449 635.943,-203.027"/>
<polygon fill="black" stroke="black" points="638.367,-205.552 643.163,-196.104 633.522,-200.499 638.367,-205.552"/>
</g>
<!-- 21&#45;&gt;30 -->
<g id="edge30" class="edge"><title>21&#45;&gt;30</title>
<path fill="none" stroke="black" d="M584.315,-231.66C581.156,-211.557 579.629,-178.789 598,-160 640.704,-116.325 813.342,-107.756 914.716,-106.593"/>
<polygon fill="black" stroke="black" points="914.933,-110.092 924.9,-106.499 914.868,-103.092 914.933,-110.092"/>
</g>
<!-- 22 -->
<g id="node22" class="node"><title>22</title>
<polygon fill="gold" stroke="black" stroke-width="2" points="1476.5,-340 1351.5,-340 1351.5,-304 1476.5,-304 1476.5,-340"/>
<text text-anchor="middle" x="1414" y="-318.3" font-family="Times,serif" font-size="14.00">registerUser</text>
</g>
<!-- 22&#45;&gt;5 -->
<g id="edge31" class="edge"><title>22&#45;&gt;5</title>
<path fill="none" stroke="chartreuse" d="M1414,-303.697C1414,-295.983 1414,-286.712 1414,-278.112"/>
<polygon fill="chartreuse" stroke="chartreuse" points="1417.5,-278.104 1414,-268.104 1410.5,-278.104 1417.5,-278.104"/>
</g>
<!-- 24 -->
<g id="node24" class="node"><title>24</title>
<polygon fill="gold" stroke="black" stroke-width="2" points="262,-412 140,-412 140,-376 262,-376 262,-412"/>
<text text-anchor="middle" x="201" y="-390.3" font-family="Times,serif" font-size="14.00">requireUser</text>
</g>
<!-- 24&#45;&gt;12 -->
<g id="edge32" class="edge"><title>24&#45;&gt;12</title>
<path fill="none" stroke="chartreuse" d="M201,-375.697C201,-367.983 201,-358.712 201,-350.112"/>
<polygon fill="chartreuse" stroke="chartreuse" points="204.5,-350.104 201,-340.104 197.5,-350.104 204.5,-350.104"/>
</g>
<!-- 25&#45;&gt;30 -->
<g id="edge33" class="edge"><title>25&#45;&gt;30</title>
<path fill="none" stroke="black" d="M715.238,-162.117C718.197,-161.383 721.132,-160.672 724,-160 788.068,-144.991 861.452,-130.575 914.891,-120.577"/>
<polygon fill="black" stroke="black" points="915.777,-123.972 924.967,-118.7 914.495,-117.091 915.777,-123.972"/>
</g>
<!-- 26 -->
<g id="node26" class="node"><title>26</title>
<polygon fill="gold" stroke="black" stroke-width="2" points="469,-340 279,-340 279,-304 469,-304 469,-340"/>
<text text-anchor="middle" x="374" y="-318.3" font-family="Times,serif" font-size="14.00">setPasswordResetToken</text>
</g>
<!-- 26&#45;&gt;21 -->
<g id="edge34" class="edge"><title>26&#45;&gt;21</title>
<path fill="none" stroke="black" d="M426.077,-303.966C456.237,-294.1 494.386,-281.622 526.078,-271.255"/>
<polygon fill="black" stroke="black" points="527.274,-274.546 535.69,-268.111 525.097,-267.893 527.274,-274.546"/>
</g>
<!-- 29&#45;&gt;30 -->
<g id="edge35" class="edge"><title>29&#45;&gt;30</title>
<path fill="none" stroke="black" d="M1296.76,-162.631C1292.1,-161.733 1287.49,-160.849 1283,-160 1209.06,-146.005 1124.46,-130.788 1065.24,-120.264"/>
<polygon fill="black" stroke="black" points="1065.68,-116.788 1055.22,-118.486 1064.46,-123.68 1065.68,-116.788"/>
</g>
</g>
</svg>
