<?xml version="1.0" encoding="UTF-8" standalone="no"?>
<!DOCTYPE svg PUBLIC "-//W3C//DTD SVG 1.1//EN"
 "http://www.w3.org/Graphics/SVG/1.1/DTD/svg11.dtd">
<!-- Generated by graphviz version 2.38.0 (20140413.2041)
 -->
<!-- Title: Diagram of: Snap.Snaplet.Auth.Types Pages: 1 -->
<svg width="4171pt" height="504pt"
 viewBox="0.00 0.00 4170.85 504.13" xmlns="http://www.w3.org/2000/svg" xmlns:xlink="http://www.w3.org/1999/xlink">
<g id="graph0" class="graph" transform="scale(1 1) rotate(0) translate(4 500.135)">
<title>Diagram of: Snap.Snaplet.Auth.Types</title>
<polygon fill="white" stroke="none" points="-4,4 -4,-500.135 4166.85,-500.135 4166.85,4 -4,4"/>
<g id="clust1" class="cluster"><title>cluster_Class_FromJSON</title>
<path fill="#ffc1c1" stroke="black" d="M105.657,-163C105.657,-163 501.657,-163 501.657,-163 507.657,-163 513.657,-169 513.657,-175 513.657,-175 513.657,-476.135 513.657,-476.135 513.657,-482.135 507.657,-488.135 501.657,-488.135 501.657,-488.135 105.657,-488.135 105.657,-488.135 99.6568,-488.135 93.6568,-482.135 93.6568,-476.135 93.6568,-476.135 93.6568,-175 93.6568,-175 93.6568,-169 99.6568,-163 105.657,-163"/>
<text text-anchor="middle" x="303.657" y="-472.935" font-family="Times,serif" font-size="14.00">Class: FromJSON</text>
</g>
<g id="clust2" class="cluster"><title>cluster_Class_FromJSON_Data_AuthUser</title>
<path fill="#c6e2ff" stroke="black" d="M126.657,-171C126.657,-171 300.657,-171 300.657,-171 306.657,-171 312.657,-177 312.657,-183 312.657,-183 312.657,-242.391 312.657,-242.391 312.657,-248.391 306.657,-254.391 300.657,-254.391 300.657,-254.391 126.657,-254.391 126.657,-254.391 120.657,-254.391 114.657,-248.391 114.657,-242.391 114.657,-242.391 114.657,-183 114.657,-183 114.657,-177 120.657,-171 126.657,-171"/>
<text text-anchor="middle" x="213.657" y="-239.191" font-family="Times,serif" font-size="14.00">Instance for: AuthUser</text>
</g>
<g id="clust3" class="cluster"><title>cluster_Class_FromJSON_Data_Password</title>
<path fill="#c6e2ff" stroke="black" d="M319.657,-373.744C319.657,-373.744 493.657,-373.744 493.657,-373.744 499.657,-373.744 505.657,-379.744 505.657,-385.744 505.657,-385.744 505.657,-445.135 505.657,-445.135 505.657,-451.135 499.657,-457.135 493.657,-457.135 493.657,-457.135 319.657,-457.135 319.657,-457.135 313.657,-457.135 307.657,-451.135 307.657,-445.135 307.657,-445.135 307.657,-385.744 307.657,-385.744 307.657,-379.744 313.657,-373.744 319.657,-373.744"/>
<text text-anchor="middle" x="406.657" y="-441.935" font-family="Times,serif" font-size="14.00">Instance for: Password</text>
</g>
<g id="clust4" class="cluster"><title>cluster_Class_FromJSON_Data_Role</title>
<path fill="#c6e2ff" stroke="black" d="M113.657,-373.744C113.657,-373.744 287.657,-373.744 287.657,-373.744 293.657,-373.744 299.657,-379.744 299.657,-385.744 299.657,-385.744 299.657,-445.135 299.657,-445.135 299.657,-451.135 293.657,-457.135 287.657,-457.135 287.657,-457.135 113.657,-457.135 113.657,-457.135 107.657,-457.135 101.657,-451.135 101.657,-445.135 101.657,-445.135 101.657,-385.744 101.657,-385.744 101.657,-379.744 107.657,-373.744 113.657,-373.744"/>
<text text-anchor="middle" x="200.657" y="-441.935" font-family="Times,serif" font-size="14.00">Instance for: Role</text>
</g>
<g id="clust5" class="cluster"><title>cluster_Class_Show</title>
<path fill="#ffc1c1" stroke="black" d="M1620.66,-262.391C1620.66,-262.391 1862.66,-262.391 1862.66,-262.391 1868.66,-262.391 1874.66,-268.391 1874.66,-274.391 1874.66,-274.391 1874.66,-476.135 1874.66,-476.135 1874.66,-482.135 1868.66,-488.135 1862.66,-488.135 1862.66,-488.135 1620.66,-488.135 1620.66,-488.135 1614.66,-488.135 1608.66,-482.135 1608.66,-476.135 1608.66,-476.135 1608.66,-274.391 1608.66,-274.391 1608.66,-268.391 1614.66,-262.391 1620.66,-262.391"/>
<text text-anchor="middle" x="1741.66" y="-472.935" font-family="Times,serif" font-size="14.00">Class: Show</text>
</g>
<g id="clust6" class="cluster"><title>cluster_Class_Show_Data_AuthFailure</title>
<path fill="#c6e2ff" stroke="black" d="M1724.66,-373.744C1724.66,-373.744 1854.66,-373.744 1854.66,-373.744 1860.66,-373.744 1866.66,-379.744 1866.66,-385.744 1866.66,-385.744 1866.66,-445.135 1866.66,-445.135 1866.66,-451.135 1860.66,-457.135 1854.66,-457.135 1854.66,-457.135 1724.66,-457.135 1724.66,-457.135 1718.66,-457.135 1712.66,-451.135 1712.66,-445.135 1712.66,-445.135 1712.66,-385.744 1712.66,-385.744 1712.66,-379.744 1718.66,-373.744 1724.66,-373.744"/>
<text text-anchor="middle" x="1789.66" y="-441.935" font-family="Times,serif" font-size="14.00">Instance for: AuthFailure</text>
</g>
<g id="clust7" class="cluster"><title>cluster_Class_ToJSON</title>
<path fill="#ffc1c1" stroke="black" d="M1203.66,-163C1203.66,-163 1543.66,-163 1543.66,-163 1549.66,-163 1555.66,-169 1555.66,-175 1555.66,-175 1555.66,-476.135 1555.66,-476.135 1555.66,-482.135 1549.66,-488.135 1543.66,-488.135 1543.66,-488.135 1203.66,-488.135 1203.66,-488.135 1197.66,-488.135 1191.66,-482.135 1191.66,-476.135 1191.66,-476.135 1191.66,-175 1191.66,-175 1191.66,-169 1197.66,-163 1203.66,-163"/>
<text text-anchor="middle" x="1373.66" y="-472.935" font-family="Times,serif" font-size="14.00">Class: ToJSON</text>
</g>
<g id="clust8" class="cluster"><title>cluster_Class_ToJSON_Data_AuthUser</title>
<path fill="#c6e2ff" stroke="black" d="M1389.66,-171C1389.66,-171 1535.66,-171 1535.66,-171 1541.66,-171 1547.66,-177 1547.66,-183 1547.66,-183 1547.66,-242.391 1547.66,-242.391 1547.66,-248.391 1541.66,-254.391 1535.66,-254.391 1535.66,-254.391 1389.66,-254.391 1389.66,-254.391 1383.66,-254.391 1377.66,-248.391 1377.66,-242.391 1377.66,-242.391 1377.66,-183 1377.66,-183 1377.66,-177 1383.66,-171 1389.66,-171"/>
<text text-anchor="middle" x="1462.66" y="-239.191" font-family="Times,serif" font-size="14.00">Instance for: AuthUser</text>
</g>
<g id="clust9" class="cluster"><title>cluster_Class_ToJSON_Data_Password</title>
<path fill="#c6e2ff" stroke="black" d="M1389.66,-373.744C1389.66,-373.744 1535.66,-373.744 1535.66,-373.744 1541.66,-373.744 1547.66,-379.744 1547.66,-385.744 1547.66,-385.744 1547.66,-445.135 1547.66,-445.135 1547.66,-451.135 1541.66,-457.135 1535.66,-457.135 1535.66,-457.135 1389.66,-457.135 1389.66,-457.135 1383.66,-457.135 1377.66,-451.135 1377.66,-445.135 1377.66,-445.135 1377.66,-385.744 1377.66,-385.744 1377.66,-379.744 1383.66,-373.744 1389.66,-373.744"/>
<text text-anchor="middle" x="1462.66" y="-441.935" font-family="Times,serif" font-size="14.00">Instance for: Password</text>
</g>
<g id="clust10" class="cluster"><title>cluster_Class_ToJSON_Data_Role</title>
<path fill="#c6e2ff" stroke="black" d="M1211.66,-373.744C1211.66,-373.744 1357.66,-373.744 1357.66,-373.744 1363.66,-373.744 1369.66,-379.744 1369.66,-385.744 1369.66,-385.744 1369.66,-445.135 1369.66,-445.135 1369.66,-451.135 1363.66,-457.135 1357.66,-457.135 1357.66,-457.135 1211.66,-457.135 1211.66,-457.135 1205.66,-457.135 1199.66,-451.135 1199.66,-445.135 1199.66,-445.135 1199.66,-385.744 1199.66,-385.744 1199.66,-379.744 1205.66,-373.744 1211.66,-373.744"/>
<text text-anchor="middle" x="1284.66" y="-441.935" font-family="Times,serif" font-size="14.00">Instance for: Role</text>
</g>
<g id="clust11" class="cluster"><title>cluster_Data_AuthFailure</title>
<path fill="papayawhip" stroke="black" d="M1894.66,-282.067C1894.66,-282.067 3319.66,-282.067 3319.66,-282.067 3325.66,-282.067 3331.66,-288.067 3331.66,-294.067 3331.66,-294.067 3331.66,-345.067 3331.66,-345.067 3331.66,-351.067 3325.66,-357.067 3319.66,-357.067 3319.66,-357.067 1894.66,-357.067 1894.66,-357.067 1888.66,-357.067 1882.66,-351.067 1882.66,-345.067 1882.66,-345.067 1882.66,-294.067 1882.66,-294.067 1882.66,-288.067 1888.66,-282.067 1894.66,-282.067"/>
<text text-anchor="middle" x="2607.16" y="-341.867" font-family="Times,serif" font-size="14.00">Data: AuthFailure</text>
</g>
<g id="clust12" class="cluster"><title>cluster_Data_AuthSettings</title>
<path fill="papayawhip" stroke="black" d="M3311.66,-80C3311.66,-80 4129.66,-80 4129.66,-80 4135.66,-80 4141.66,-86 4141.66,-92 4141.66,-92 4141.66,-238.196 4141.66,-238.196 4141.66,-244.196 4135.66,-250.196 4129.66,-250.196 4129.66,-250.196 3311.66,-250.196 3311.66,-250.196 3305.66,-250.196 3299.66,-244.196 3299.66,-238.196 3299.66,-238.196 3299.66,-92 3299.66,-92 3299.66,-86 3305.66,-80 3311.66,-80"/>
<text text-anchor="middle" x="3720.66" y="-234.996" font-family="Times,serif" font-size="14.00">Data: AuthSettings</text>
</g>
<g id="clust13" class="cluster"><title>cluster_Data_AuthUser</title>
<path fill="papayawhip" stroke="black" d="M29.6568,-8C29.6568,-8 3249.66,-8 3249.66,-8 3255.66,-8 3261.66,-14 3261.66,-20 3261.66,-20 3261.66,-143 3261.66,-143 3261.66,-149 3255.66,-155 3249.66,-155 3249.66,-155 29.6568,-155 29.6568,-155 23.6568,-155 17.6568,-149 17.6568,-143 17.6568,-143 17.6568,-20 17.6568,-20 17.6568,-14 23.6568,-8 29.6568,-8"/>
<text text-anchor="middle" x="1639.66" y="-139.8" font-family="Times,serif" font-size="14.00">Data: AuthUser</text>
</g>
<g id="clust14" class="cluster"><title>cluster_Data_Password</title>
<path fill="papayawhip" stroke="black" d="M824.657,-282.067C824.657,-282.067 1062.66,-282.067 1062.66,-282.067 1068.66,-282.067 1074.66,-288.067 1074.66,-294.067 1074.66,-294.067 1074.66,-345.067 1074.66,-345.067 1074.66,-351.067 1068.66,-357.067 1062.66,-357.067 1062.66,-357.067 824.657,-357.067 824.657,-357.067 818.657,-357.067 812.657,-351.067 812.657,-345.067 812.657,-345.067 812.657,-294.067 812.657,-294.067 812.657,-288.067 818.657,-282.067 824.657,-282.067"/>
<text text-anchor="middle" x="943.657" y="-341.867" font-family="Times,serif" font-size="14.00">Data: Password</text>
</g>
<g id="clust15" class="cluster"><title>cluster_Data_Role</title>
<path fill="papayawhip" stroke="black" d="M612.657,-282.067C612.657,-282.067 688.657,-282.067 688.657,-282.067 694.657,-282.067 700.657,-288.067 700.657,-294.067 700.657,-294.067 700.657,-345.067 700.657,-345.067 700.657,-351.067 694.657,-357.067 688.657,-357.067 688.657,-357.067 612.657,-357.067 612.657,-357.067 606.657,-357.067 600.657,-351.067 600.657,-345.067 600.657,-345.067 600.657,-294.067 600.657,-294.067 600.657,-288.067 606.657,-282.067 612.657,-282.067"/>
<text text-anchor="middle" x="650.657" y="-341.867" font-family="Times,serif" font-size="14.00">Data: Role</text>
</g>
<g id="clust16" class="cluster"><title>cluster_Data_UserId</title>
<path fill="papayawhip" stroke="black" d="M4034.66,-282.067C4034.66,-282.067 4122.66,-282.067 4122.66,-282.067 4128.66,-282.067 4134.66,-288.067 4134.66,-294.067 4134.66,-294.067 4134.66,-440.939 4134.66,-440.939 4134.66,-446.939 4128.66,-452.939 4122.66,-452.939 4122.66,-452.939 4034.66,-452.939 4034.66,-452.939 4028.66,-452.939 4022.66,-446.939 4022.66,-440.939 4022.66,-440.939 4022.66,-294.067 4022.66,-294.067 4022.66,-288.067 4028.66,-282.067 4034.66,-282.067"/>
<text text-anchor="middle" x="4078.66" y="-437.739" font-family="Times,serif" font-size="14.00">Data: UserId</text>
</g>
<!-- 28 -->
<g id="node1" class="node"><title>28</title>
<polygon fill="bisque" stroke="black" stroke-width="2" points="304.814,-191.92 304.814,-210.471 251.415,-223.589 175.898,-223.589 122.499,-210.471 122.499,-191.92 175.898,-178.803 251.415,-178.803 304.814,-191.92"/>
<text text-anchor="middle" x="213.657" y="-197.496" font-family="Times,serif" font-size="14.00">parseJSON</text>
</g>
<!-- 3 -->
<g id="node26" class="node"><title>3</title>
<polygon fill="goldenrod" stroke="black" stroke-width="2" points="1679.16,-52 1572.16,-52 1568.16,-48 1568.16,-16 1675.16,-16 1679.16,-20 1679.16,-52"/>
<polyline fill="none" stroke="black" stroke-width="2" points="1675.16,-48 1568.16,-48 "/>
<polyline fill="none" stroke="black" stroke-width="2" points="1675.16,-48 1675.16,-16 "/>
<polyline fill="none" stroke="black" stroke-width="2" points="1675.16,-48 1679.16,-52 "/>
<text text-anchor="middle" x="1623.66" y="-30.3" font-family="Times,serif" font-size="14.00">AuthUser</text>
</g>
<!-- 28&#45;&gt;3 -->
<g id="edge46" class="edge"><title>28&#45;&gt;3</title>
<path fill="none" stroke="black" d="M126.455,-190.893C80.4774,-183.997 30.731,-172.669 16.6568,-155 -4.11167,-128.927 -6.58124,-103.898 16.6568,-80 43.9534,-51.9283 1258.84,-38.4879 1557.75,-35.6024"/>
<polygon fill="black" stroke="black" points="1558.02,-39.1 1567.99,-35.5042 1557.96,-32.1004 1558.02,-39.1"/>
</g>
<!-- 29 -->
<g id="node2" class="node"><title>29</title>
<polygon fill="bisque" stroke="black" stroke-width="2" points="497.814,-394.664 497.814,-413.215 444.415,-426.332 368.898,-426.332 315.499,-413.215 315.499,-394.664 368.898,-381.546 444.415,-381.546 497.814,-394.664"/>
<text text-anchor="middle" x="406.657" y="-400.239" font-family="Times,serif" font-size="14.00">parseJSON</text>
</g>
<!-- 58 -->
<g id="node4" class="node"><title>58</title>
<polygon fill="khaki" stroke="black" stroke-dasharray="1,5" points="347.515,-294.053 347.515,-322.082 276.718,-341.902 176.596,-341.902 105.798,-322.082 105.798,-294.053 176.596,-274.233 276.718,-274.233 347.515,-294.053"/>
<polygon fill="none" stroke="black" stroke-dasharray="1,5" points="351.513,-291 351.513,-325.135 277.264,-345.921 176.049,-345.921 101.801,-325.135 101.801,-291 176.049,-270.214 277.264,-270.214 351.513,-291"/>
<text text-anchor="middle" x="226.657" y="-311.867" font-family="Times,serif" font-size="14.00">Unknown Module</text>
<text text-anchor="middle" x="226.657" y="-296.867" font-family="Times,serif" font-size="14.00">parseJSON</text>
</g>
<!-- 29&#45;&gt;58 -->
<g id="edge48" class="edge"><title>29&#45;&gt;58</title>
<path fill="none" stroke="black" d="M362.847,-383.031C342.498,-372.911 317.872,-360.248 295.17,-348.275"/>
<polygon fill="black" stroke="black" points="296.721,-345.136 286.245,-343.551 293.446,-351.323 296.721,-345.136"/>
</g>
<!-- 7 -->
<g id="node48" class="node"><title>7</title>
<polygon fill="goldenrod" stroke="black" stroke-width="2" points="934.657,-326.067 824.657,-326.067 820.657,-322.067 820.657,-290.067 930.657,-290.067 934.657,-294.067 934.657,-326.067"/>
<polyline fill="none" stroke="black" stroke-width="2" points="930.657,-322.067 820.657,-322.067 "/>
<polyline fill="none" stroke="black" stroke-width="2" points="930.657,-322.067 930.657,-290.067 "/>
<polyline fill="none" stroke="black" stroke-width="2" points="930.657,-322.067 934.657,-326.067 "/>
<text text-anchor="middle" x="877.657" y="-304.367" font-family="Times,serif" font-size="14.00">Encrypted</text>
</g>
<!-- 29&#45;&gt;7 -->
<g id="edge47" class="edge"><title>29&#45;&gt;7</title>
<path fill="none" stroke="black" d="M461.18,-385.534C477.569,-380.953 495.703,-376.52 512.657,-373.744 578.111,-363.024 748.101,-379.11 810.657,-357.067 825.643,-351.787 840.235,-342.055 851.955,-332.728"/>
<polygon fill="black" stroke="black" points="854.498,-335.165 859.945,-326.078 850.02,-329.785 854.498,-335.165"/>
</g>
<!-- 30 -->
<g id="node3" class="node"><title>30</title>
<polygon fill="bisque" stroke="black" stroke-width="2" points="291.814,-394.664 291.814,-413.215 238.415,-426.332 162.898,-426.332 109.499,-413.215 109.499,-394.664 162.898,-381.546 238.415,-381.546 291.814,-394.664"/>
<text text-anchor="middle" x="200.657" y="-400.239" font-family="Times,serif" font-size="14.00">parseJSON</text>
</g>
<!-- 30&#45;&gt;58 -->
<g id="edge50" class="edge"><title>30&#45;&gt;58</title>
<path fill="none" stroke="black" d="M200.796,-381.638C202.283,-373.852 204.486,-364.708 207.023,-355.585"/>
<polygon fill="black" stroke="black" points="210.448,-356.34 209.889,-345.76 203.729,-354.38 210.448,-356.34"/>
</g>
<!-- 12 -->
<g id="node49" class="node"><title>12</title>
<polygon fill="goldenrod" stroke="black" stroke-width="2" points="692.657,-326.067 612.657,-326.067 608.657,-322.067 608.657,-290.067 688.657,-290.067 692.657,-294.067 692.657,-326.067"/>
<polyline fill="none" stroke="black" stroke-width="2" points="688.657,-322.067 608.657,-322.067 "/>
<polyline fill="none" stroke="black" stroke-width="2" points="688.657,-322.067 688.657,-290.067 "/>
<polyline fill="none" stroke="black" stroke-width="2" points="688.657,-322.067 692.657,-326.067 "/>
<text text-anchor="middle" x="650.657" y="-304.367" font-family="Times,serif" font-size="14.00">Role</text>
</g>
<!-- 30&#45;&gt;12 -->
<g id="edge49" class="edge"><title>30&#45;&gt;12</title>
<path fill="none" stroke="black" d="M254.71,-385.442C270.354,-380.973 287.556,-376.623 303.657,-373.744 397.566,-356.947 424.394,-377.147 517.657,-357.067 546.575,-350.841 577.739,-339.841 602.626,-329.941"/>
<polygon fill="black" stroke="black" points="604.229,-333.067 612.185,-326.07 601.602,-326.579 604.229,-333.067"/>
</g>
<!-- 58&#45;&gt;28 -->
<g id="edge110" class="edge"><title>58&#45;&gt;28</title>
<path fill="none" stroke="navy" stroke-width="1.69315" d="M222.11,-270.388C220.162,-254.677 217.957,-236.884 216.287,-223.414"/>
</g>
<!-- 58&#45;&gt;29 -->
<g id="edge111" class="edge"><title>58&#45;&gt;29</title>
<path fill="none" stroke="navy" d="M294.64,-341.162C320.844,-354.528 349.678,-369.683 371.573,-381.638"/>
</g>
<!-- 58&#45;&gt;30 -->
<g id="edge112" class="edge"><title>58&#45;&gt;30</title>
<path fill="none" stroke="navy" d="M223.099,-345.76C220.081,-357.916 216.166,-371.036 212.317,-381.638"/>
</g>
<!-- 32 -->
<g id="node5" class="node"><title>32</title>
<polygon fill="bisque" stroke="black" stroke-width="2" points="1858.33,-394.664 1858.33,-413.215 1819.27,-426.332 1764.04,-426.332 1724.98,-413.215 1724.98,-394.664 1764.04,-381.546 1819.27,-381.546 1858.33,-394.664"/>
<text text-anchor="middle" x="1791.66" y="-400.239" font-family="Times,serif" font-size="14.00">show</text>
</g>
<!-- 59 -->
<g id="node6" class="node"><title>59</title>
<polygon fill="khaki" stroke="black" stroke-dasharray="1,5" points="1862.52,-294.053 1862.52,-322.082 1791.72,-341.902 1691.6,-341.902 1620.8,-322.082 1620.8,-294.053 1691.6,-274.233 1791.72,-274.233 1862.52,-294.053"/>
<polygon fill="none" stroke="black" stroke-dasharray="1,5" points="1866.51,-291 1866.51,-325.135 1792.26,-345.921 1691.05,-345.921 1616.8,-325.135 1616.8,-291 1691.05,-270.214 1792.26,-270.214 1866.51,-291"/>
<text text-anchor="middle" x="1741.66" y="-311.867" font-family="Times,serif" font-size="14.00">Unknown Module</text>
<text text-anchor="middle" x="1741.66" y="-296.867" font-family="Times,serif" font-size="14.00">show</text>
</g>
<!-- 32&#45;&gt;59 -->
<g id="edge63" class="edge"><title>32&#45;&gt;59</title>
<path fill="none" stroke="black" d="M1774.55,-381.638C1769.58,-373.604 1764.2,-364.123 1759.22,-354.712"/>
<polygon fill="black" stroke="black" points="1762.3,-353.037 1754.6,-345.76 1756.08,-356.251 1762.3,-353.037"/>
</g>
<!-- 1 -->
<g id="node11" class="node"><title>1</title>
<polygon fill="goldenrod" stroke="black" stroke-width="2" points="2318.66,-326.067 2208.66,-326.067 2204.66,-322.067 2204.66,-290.067 2314.66,-290.067 2318.66,-294.067 2318.66,-326.067"/>
<polyline fill="none" stroke="black" stroke-width="2" points="2314.66,-322.067 2204.66,-322.067 "/>
<polyline fill="none" stroke="black" stroke-width="2" points="2314.66,-322.067 2314.66,-290.067 "/>
<polyline fill="none" stroke="black" stroke-width="2" points="2314.66,-322.067 2318.66,-326.067 "/>
<text text-anchor="middle" x="2261.66" y="-304.367" font-family="Times,serif" font-size="14.00">AuthError</text>
</g>
<!-- 32&#45;&gt;1 -->
<g id="edge54" class="edge"><title>32&#45;&gt;1</title>
<path fill="none" stroke="black" d="M1858.41,-399.493C1956.85,-393.714 2135.79,-380.352 2195.66,-357.067 2210.11,-351.447 2224.26,-341.86 2235.74,-332.725"/>
<polygon fill="black" stroke="black" points="2238.12,-335.295 2243.58,-326.216 2233.65,-329.907 2238.12,-335.295"/>
</g>
<!-- 4 -->
<g id="node12" class="node"><title>4</title>
<polygon fill="goldenrod" stroke="black" stroke-width="2" points="2186.66,-326.067 2056.66,-326.067 2052.66,-322.067 2052.66,-290.067 2182.66,-290.067 2186.66,-294.067 2186.66,-326.067"/>
<polyline fill="none" stroke="black" stroke-width="2" points="2182.66,-322.067 2052.66,-322.067 "/>
<polyline fill="none" stroke="black" stroke-width="2" points="2182.66,-322.067 2182.66,-290.067 "/>
<polyline fill="none" stroke="black" stroke-width="2" points="2182.66,-322.067 2186.66,-326.067 "/>
<text text-anchor="middle" x="2119.66" y="-304.367" font-family="Times,serif" font-size="14.00">BackendError</text>
</g>
<!-- 32&#45;&gt;4 -->
<g id="edge55" class="edge"><title>32&#45;&gt;4</title>
<path fill="none" stroke="black" d="M1858.25,-397.645C1909.93,-391.919 1982.65,-380.281 2042.66,-357.067 2058.81,-350.82 2075.28,-341.088 2088.83,-332.016"/>
<polygon fill="black" stroke="black" points="2091.03,-334.751 2097.28,-326.192 2087.06,-328.988 2091.03,-334.751"/>
</g>
<!-- 6 -->
<g id="node13" class="node"><title>6</title>
<polygon fill="goldenrod" stroke="black" stroke-width="2" points="2034.16,-326.067 1895.16,-326.067 1891.16,-322.067 1891.16,-290.067 2030.16,-290.067 2034.16,-294.067 2034.16,-326.067"/>
<polyline fill="none" stroke="black" stroke-width="2" points="2030.16,-322.067 1891.16,-322.067 "/>
<polyline fill="none" stroke="black" stroke-width="2" points="2030.16,-322.067 2030.16,-290.067 "/>
<polyline fill="none" stroke="black" stroke-width="2" points="2030.16,-322.067 2034.16,-326.067 "/>
<text text-anchor="middle" x="1962.66" y="-304.367" font-family="Times,serif" font-size="14.00">DuplicateLogin</text>
</g>
<!-- 32&#45;&gt;6 -->
<g id="edge56" class="edge"><title>32&#45;&gt;6</title>
<path fill="none" stroke="black" d="M1827.78,-384.241C1843.48,-376.026 1862.04,-366.19 1878.66,-357.067 1893.63,-348.844 1909.97,-339.577 1924.22,-331.395"/>
<polygon fill="black" stroke="black" points="1926.33,-334.219 1933.25,-326.196 1922.84,-328.153 1926.33,-334.219"/>
</g>
<!-- 8 -->
<g id="node14" class="node"><title>8</title>
<polygon fill="goldenrod" stroke="black" stroke-width="2" points="3323.66,-326.067 3161.66,-326.067 3157.66,-322.067 3157.66,-290.067 3319.66,-290.067 3323.66,-294.067 3323.66,-326.067"/>
<polyline fill="none" stroke="black" stroke-width="2" points="3319.66,-322.067 3157.66,-322.067 "/>
<polyline fill="none" stroke="black" stroke-width="2" points="3319.66,-322.067 3319.66,-290.067 "/>
<polyline fill="none" stroke="black" stroke-width="2" points="3319.66,-322.067 3323.66,-326.067 "/>
<text text-anchor="middle" x="3240.66" y="-304.367" font-family="Times,serif" font-size="14.00">EncryptedPassword</text>
</g>
<!-- 32&#45;&gt;8 -->
<g id="edge57" class="edge"><title>32&#45;&gt;8</title>
<path fill="none" stroke="black" d="M1858.43,-402.401C2114.06,-400.105 3022.51,-389.709 3147.66,-357.067 3168.13,-351.728 3189.22,-341.316 3206.13,-331.55"/>
<polygon fill="black" stroke="black" points="3208.26,-334.352 3215.06,-326.227 3204.68,-328.339 3208.26,-334.352"/>
</g>
<!-- 9 -->
<g id="node15" class="node"><title>9</title>
<polygon fill="goldenrod" stroke="black" stroke-width="2" points="3139.16,-326.067 2984.16,-326.067 2980.16,-322.067 2980.16,-290.067 3135.16,-290.067 3139.16,-294.067 3139.16,-326.067"/>
<polyline fill="none" stroke="black" stroke-width="2" points="3135.16,-322.067 2980.16,-322.067 "/>
<polyline fill="none" stroke="black" stroke-width="2" points="3135.16,-322.067 3135.16,-290.067 "/>
<polyline fill="none" stroke="black" stroke-width="2" points="3135.16,-322.067 3139.16,-326.067 "/>
<text text-anchor="middle" x="3059.66" y="-304.367" font-family="Times,serif" font-size="14.00">IncorrectPassword</text>
</g>
<!-- 32&#45;&gt;9 -->
<g id="edge58" class="edge"><title>32&#45;&gt;9</title>
<path fill="none" stroke="black" d="M1858.35,-402.104C2091.75,-398.938 2863.52,-386.343 2970.66,-357.067 2990.37,-351.679 3010.57,-341.263 3026.72,-331.506"/>
<polygon fill="black" stroke="black" points="3028.62,-334.449 3035.26,-326.19 3024.92,-328.508 3028.62,-334.449"/>
</g>
<!-- 10 -->
<g id="node16" class="node"><title>10</title>
<polygon fill="goldenrod" stroke="black" stroke-width="2" points="2962.16,-326.067 2847.16,-326.067 2843.16,-322.067 2843.16,-290.067 2958.16,-290.067 2962.16,-294.067 2962.16,-326.067"/>
<polyline fill="none" stroke="black" stroke-width="2" points="2958.16,-322.067 2843.16,-322.067 "/>
<polyline fill="none" stroke="black" stroke-width="2" points="2958.16,-322.067 2958.16,-290.067 "/>
<polyline fill="none" stroke="black" stroke-width="2" points="2958.16,-322.067 2962.16,-326.067 "/>
<text text-anchor="middle" x="2902.66" y="-304.367" font-family="Times,serif" font-size="14.00">LockedOut</text>
</g>
<!-- 32&#45;&gt;10 -->
<g id="edge59" class="edge"><title>32&#45;&gt;10</title>
<path fill="none" stroke="black" d="M1858.43,-402.155C2073.84,-399.326 2741.77,-388.12 2833.66,-357.067 2849.16,-351.829 2864.32,-341.971 2876.46,-332.546"/>
<polygon fill="black" stroke="black" points="2878.79,-335.166 2884.35,-326.151 2874.38,-329.727 2878.79,-335.166"/>
</g>
<!-- 11 -->
<g id="node17" class="node"><title>11</title>
<polygon fill="goldenrod" stroke="black" stroke-width="2" points="2825.16,-326.067 2674.16,-326.067 2670.16,-322.067 2670.16,-290.067 2821.16,-290.067 2825.16,-294.067 2825.16,-326.067"/>
<polyline fill="none" stroke="black" stroke-width="2" points="2821.16,-322.067 2670.16,-322.067 "/>
<polyline fill="none" stroke="black" stroke-width="2" points="2821.16,-322.067 2821.16,-290.067 "/>
<polyline fill="none" stroke="black" stroke-width="2" points="2821.16,-322.067 2825.16,-326.067 "/>
<text text-anchor="middle" x="2747.66" y="-304.367" font-family="Times,serif" font-size="14.00">PasswordMissing</text>
</g>
<!-- 32&#45;&gt;11 -->
<g id="edge60" class="edge"><title>32&#45;&gt;11</title>
<path fill="none" stroke="black" d="M1858.46,-403.265C2034.93,-403.513 2510.31,-400.047 2660.66,-357.067 2679.79,-351.598 2699.35,-341.31 2715.06,-331.658"/>
<polygon fill="black" stroke="black" points="2717.27,-334.403 2723.83,-326.09 2713.51,-328.493 2717.27,-334.403"/>
</g>
<!-- 14 -->
<g id="node18" class="node"><title>14</title>
<polygon fill="goldenrod" stroke="black" stroke-width="2" points="2652.16,-326.067 2517.16,-326.067 2513.16,-322.067 2513.16,-290.067 2648.16,-290.067 2652.16,-294.067 2652.16,-326.067"/>
<polyline fill="none" stroke="black" stroke-width="2" points="2648.16,-322.067 2513.16,-322.067 "/>
<polyline fill="none" stroke="black" stroke-width="2" points="2648.16,-322.067 2648.16,-290.067 "/>
<polyline fill="none" stroke="black" stroke-width="2" points="2648.16,-322.067 2652.16,-326.067 "/>
<text text-anchor="middle" x="2582.66" y="-304.367" font-family="Times,serif" font-size="14.00">UserNotFound</text>
</g>
<!-- 32&#45;&gt;14 -->
<g id="edge61" class="edge"><title>32&#45;&gt;14</title>
<path fill="none" stroke="black" d="M1858.26,-402.688C2011.4,-401.46 2384.55,-394.585 2503.66,-357.067 2521.02,-351.597 2538.51,-341.548 2552.61,-332.053"/>
<polygon fill="black" stroke="black" points="2554.71,-334.851 2560.91,-326.258 2550.71,-329.11 2554.71,-334.851"/>
</g>
<!-- 15 -->
<g id="node19" class="node"><title>15</title>
<polygon fill="goldenrod" stroke="black" stroke-width="2" points="2494.66,-326.067 2340.66,-326.067 2336.66,-322.067 2336.66,-290.067 2490.66,-290.067 2494.66,-294.067 2494.66,-326.067"/>
<polyline fill="none" stroke="black" stroke-width="2" points="2490.66,-322.067 2336.66,-322.067 "/>
<polyline fill="none" stroke="black" stroke-width="2" points="2490.66,-322.067 2490.66,-290.067 "/>
<polyline fill="none" stroke="black" stroke-width="2" points="2490.66,-322.067 2494.66,-326.067 "/>
<text text-anchor="middle" x="2415.66" y="-304.367" font-family="Times,serif" font-size="14.00">UsernameMissing</text>
</g>
<!-- 32&#45;&gt;15 -->
<g id="edge62" class="edge"><title>32&#45;&gt;15</title>
<path fill="none" stroke="black" d="M1858.34,-400.654C1981.88,-395.858 2241.58,-382.976 2327.66,-357.067 2346.74,-351.323 2366.36,-341.112 2382.22,-331.581"/>
<polygon fill="black" stroke="black" points="2384.43,-334.328 2391.09,-326.086 2380.74,-328.377 2384.43,-334.328"/>
</g>
<!-- 59&#45;&gt;32 -->
<g id="edge113" class="edge"><title>59&#45;&gt;32</title>
<path fill="none" stroke="navy" stroke-width="3.19722" d="M1767.81,-345.76C1774.63,-357.916 1781.34,-371.036 1786.07,-381.638"/>
</g>
<!-- 33 -->
<g id="node7" class="node"><title>33</title>
<polygon fill="bisque" stroke="black" stroke-width="2" points="1539.76,-191.92 1539.76,-210.471 1494.59,-223.589 1430.72,-223.589 1385.55,-210.471 1385.55,-191.92 1430.72,-178.803 1494.59,-178.803 1539.76,-191.92"/>
<text text-anchor="middle" x="1462.66" y="-197.496" font-family="Times,serif" font-size="14.00">toJSON</text>
</g>
<!-- 37 -->
<g id="node27" class="node"><title>37</title>
<polygon fill="goldenrod" stroke="black" stroke-width="2" points="1943.16,-124 1796.16,-124 1796.16,-120 1792.16,-120 1792.16,-116 1796.16,-116 1796.16,-96 1792.16,-96 1792.16,-92 1796.16,-92 1796.16,-88 1943.16,-88 1943.16,-124"/>
<polyline fill="none" stroke="black" stroke-width="2" points="1796.16,-120 1800.16,-120 1800.16,-116 1796.16,-116 "/>
<polyline fill="none" stroke="black" stroke-width="2" points="1796.16,-96 1800.16,-96 1800.16,-92 1796.16,-92 "/>
<text text-anchor="middle" x="1869.66" y="-102.3" font-family="Times,serif" font-size="14.00">userActivatedAt</text>
</g>
<!-- 33&#45;&gt;37 -->
<g id="edge64" class="edge"><title>33&#45;&gt;37</title>
<path fill="none" stroke="black" d="M1519.08,-185.78C1552.94,-177.719 1597,-168.263 1636.66,-163 1669.75,-158.608 1754.66,-164.507 1786.66,-155 1805.06,-149.531 1823.74,-139.244 1838.7,-129.592"/>
<polygon fill="black" stroke="black" points="1840.67,-132.484 1847.05,-124.023 1836.78,-126.66 1840.67,-132.484"/>
</g>
<!-- 38 -->
<g id="node28" class="node"><title>38</title>
<polygon fill="goldenrod" stroke="black" stroke-width="2" points="1778.16,-124 1641.16,-124 1641.16,-120 1637.16,-120 1637.16,-116 1641.16,-116 1641.16,-96 1637.16,-96 1637.16,-92 1641.16,-92 1641.16,-88 1778.16,-88 1778.16,-124"/>
<polyline fill="none" stroke="black" stroke-width="2" points="1641.16,-120 1645.16,-120 1645.16,-116 1641.16,-116 "/>
<polyline fill="none" stroke="black" stroke-width="2" points="1641.16,-96 1645.16,-96 1645.16,-92 1641.16,-92 "/>
<text text-anchor="middle" x="1709.66" y="-102.3" font-family="Times,serif" font-size="14.00">userCreatedAt</text>
</g>
<!-- 33&#45;&gt;38 -->
<g id="edge65" class="edge"><title>33&#45;&gt;38</title>
<path fill="none" stroke="black" d="M1525.92,-187.868C1558.3,-180.422 1597.9,-169.53 1631.66,-155 1647.47,-148.193 1663.86,-138.556 1677.51,-129.702"/>
<polygon fill="black" stroke="black" points="1679.66,-132.48 1686.05,-124.034 1675.79,-126.648 1679.66,-132.48"/>
</g>
<!-- 39 -->
<g id="node29" class="node"><title>39</title>
<polygon fill="goldenrod" stroke="black" stroke-width="2" points="1622.66,-124 1454.66,-124 1454.66,-120 1450.66,-120 1450.66,-116 1454.66,-116 1454.66,-96 1450.66,-96 1450.66,-92 1454.66,-92 1454.66,-88 1622.66,-88 1622.66,-124"/>
<polyline fill="none" stroke="black" stroke-width="2" points="1454.66,-120 1458.66,-120 1458.66,-116 1454.66,-116 "/>
<polyline fill="none" stroke="black" stroke-width="2" points="1454.66,-96 1458.66,-96 1458.66,-92 1454.66,-92 "/>
<text text-anchor="middle" x="1538.66" y="-102.3" font-family="Times,serif" font-size="14.00">userCurrentLoginAt</text>
</g>
<!-- 33&#45;&gt;39 -->
<g id="edge66" class="edge"><title>33&#45;&gt;39</title>
<path fill="none" stroke="black" d="M1480.28,-178.58C1491.57,-164.736 1506.27,-146.714 1518.09,-132.218"/>
<polygon fill="black" stroke="black" points="1521.07,-134.11 1524.67,-124.148 1515.64,-129.686 1521.07,-134.11"/>
</g>
<!-- 40 -->
<g id="node30" class="node"><title>40</title>
<polygon fill="goldenrod" stroke="black" stroke-width="2" points="1436.66,-124 1270.66,-124 1270.66,-120 1266.66,-120 1266.66,-116 1270.66,-116 1270.66,-96 1266.66,-96 1266.66,-92 1270.66,-92 1270.66,-88 1436.66,-88 1436.66,-124"/>
<polyline fill="none" stroke="black" stroke-width="2" points="1270.66,-120 1274.66,-120 1274.66,-116 1270.66,-116 "/>
<polyline fill="none" stroke="black" stroke-width="2" points="1270.66,-96 1274.66,-96 1274.66,-92 1270.66,-92 "/>
<text text-anchor="middle" x="1353.66" y="-102.3" font-family="Times,serif" font-size="14.00">userCurrentLoginIp</text>
</g>
<!-- 33&#45;&gt;40 -->
<g id="edge67" class="edge"><title>33&#45;&gt;40</title>
<path fill="none" stroke="black" d="M1437.65,-178.815C1421.01,-164.591 1399.13,-145.88 1381.87,-131.124"/>
<polygon fill="black" stroke="black" points="1383.69,-128.073 1373.81,-124.234 1379.14,-133.393 1383.69,-128.073"/>
</g>
<!-- 41 -->
<g id="node31" class="node"><title>41</title>
<polygon fill="goldenrod" stroke="black" stroke-width="2" points="1252.66,-124 1138.66,-124 1138.66,-120 1134.66,-120 1134.66,-116 1138.66,-116 1138.66,-96 1134.66,-96 1134.66,-92 1138.66,-92 1138.66,-88 1252.66,-88 1252.66,-124"/>
<polyline fill="none" stroke="black" stroke-width="2" points="1138.66,-120 1142.66,-120 1142.66,-116 1138.66,-116 "/>
<polyline fill="none" stroke="black" stroke-width="2" points="1138.66,-96 1142.66,-96 1142.66,-92 1138.66,-92 "/>
<text text-anchor="middle" x="1195.66" y="-102.3" font-family="Times,serif" font-size="14.00">userEmail</text>
</g>
<!-- 33&#45;&gt;41 -->
<g id="edge68" class="edge"><title>33&#45;&gt;41</title>
<path fill="none" stroke="black" d="M1388.73,-190.962C1349.7,-184.281 1301.74,-173.139 1261.66,-155 1247.84,-148.748 1234.04,-139.334 1222.66,-130.495"/>
<polygon fill="black" stroke="black" points="1224.82,-127.743 1214.83,-124.214 1220.44,-133.203 1224.82,-127.743"/>
</g>
<!-- 42 -->
<g id="node32" class="node"><title>42</title>
<polygon fill="goldenrod" stroke="black" stroke-width="2" points="1120.66,-124 940.657,-124 940.657,-120 936.657,-120 936.657,-116 940.657,-116 940.657,-96 936.657,-96 936.657,-92 940.657,-92 940.657,-88 1120.66,-88 1120.66,-124"/>
<polyline fill="none" stroke="black" stroke-width="2" points="940.657,-120 944.657,-120 944.657,-116 940.657,-116 "/>
<polyline fill="none" stroke="black" stroke-width="2" points="940.657,-96 944.657,-96 944.657,-92 940.657,-92 "/>
<text text-anchor="middle" x="1030.66" y="-102.3" font-family="Times,serif" font-size="14.00">userFailedLoginCount</text>
</g>
<!-- 33&#45;&gt;42 -->
<g id="edge69" class="edge"><title>33&#45;&gt;42</title>
<path fill="none" stroke="black" d="M1385.48,-196.639C1317.03,-191.866 1214.97,-180.755 1129.66,-155 1108.63,-148.654 1086.53,-138.328 1068.55,-128.876"/>
<polygon fill="black" stroke="black" points="1070.02,-125.692 1059.56,-124.039 1066.71,-131.857 1070.02,-125.692"/>
</g>
<!-- 43 -->
<g id="node33" class="node"><title>43</title>
<polygon fill="goldenrod" stroke="black" stroke-width="2" points="922.657,-124 830.657,-124 830.657,-120 826.657,-120 826.657,-116 830.657,-116 830.657,-96 826.657,-96 826.657,-92 830.657,-92 830.657,-88 922.657,-88 922.657,-124"/>
<polyline fill="none" stroke="black" stroke-width="2" points="830.657,-120 834.657,-120 834.657,-116 830.657,-116 "/>
<polyline fill="none" stroke="black" stroke-width="2" points="830.657,-96 834.657,-96 834.657,-92 830.657,-92 "/>
<text text-anchor="middle" x="876.657" y="-102.3" font-family="Times,serif" font-size="14.00">userId</text>
</g>
<!-- 33&#45;&gt;43 -->
<g id="edge70" class="edge"><title>33&#45;&gt;43</title>
<path fill="none" stroke="black" d="M1385.34,-199.483C1258.25,-197.339 1011.35,-188.808 931.657,-155 919.26,-149.741 907.68,-140.579 898.373,-131.66"/>
<polygon fill="black" stroke="black" points="900.639,-128.973 891.123,-124.316 895.658,-133.891 900.639,-128.973"/>
</g>
<!-- 44 -->
<g id="node34" class="node"><title>44</title>
<polygon fill="goldenrod" stroke="black" stroke-width="2" points="812.657,-124 662.657,-124 662.657,-120 658.657,-120 658.657,-116 662.657,-116 662.657,-96 658.657,-96 658.657,-92 662.657,-92 662.657,-88 812.657,-88 812.657,-124"/>
<polyline fill="none" stroke="black" stroke-width="2" points="662.657,-120 666.657,-120 666.657,-116 662.657,-116 "/>
<polyline fill="none" stroke="black" stroke-width="2" points="662.657,-96 666.657,-96 666.657,-92 662.657,-92 "/>
<text text-anchor="middle" x="737.657" y="-102.3" font-family="Times,serif" font-size="14.00">userLastLoginAt</text>
</g>
<!-- 33&#45;&gt;44 -->
<g id="edge71" class="edge"><title>33&#45;&gt;44</title>
<path fill="none" stroke="black" d="M1385.22,-194.211C1285.63,-186.587 1107.3,-173.179 954.657,-163 925.113,-161.03 850.033,-163.456 821.657,-155 803.222,-149.507 784.47,-139.322 769.375,-129.743"/>
<polygon fill="black" stroke="black" points="771.221,-126.768 760.939,-124.213 767.383,-132.623 771.221,-126.768"/>
</g>
<!-- 45 -->
<g id="node35" class="node"><title>45</title>
<polygon fill="goldenrod" stroke="black" stroke-width="2" points="644.657,-124 496.657,-124 496.657,-120 492.657,-120 492.657,-116 496.657,-116 496.657,-96 492.657,-96 492.657,-92 496.657,-92 496.657,-88 644.657,-88 644.657,-124"/>
<polyline fill="none" stroke="black" stroke-width="2" points="496.657,-120 500.657,-120 500.657,-116 496.657,-116 "/>
<polyline fill="none" stroke="black" stroke-width="2" points="496.657,-96 500.657,-96 500.657,-92 496.657,-92 "/>
<text text-anchor="middle" x="570.657" y="-102.3" font-family="Times,serif" font-size="14.00">userLastLoginIp</text>
</g>
<!-- 33&#45;&gt;45 -->
<g id="edge72" class="edge"><title>33&#45;&gt;45</title>
<path fill="none" stroke="black" d="M1385.27,-193.404C1285.73,-184.928 1107.45,-170.62 954.657,-163 921.242,-161.334 685.852,-164.099 653.657,-155 635.178,-149.777 616.499,-139.515 601.553,-129.815"/>
<polygon fill="black" stroke="black" points="603.466,-126.884 593.214,-124.211 599.562,-132.694 603.466,-126.884"/>
</g>
<!-- 46 -->
<g id="node36" class="node"><title>46</title>
<polygon fill="goldenrod" stroke="black" stroke-width="2" points="478.657,-124 308.657,-124 308.657,-120 304.657,-120 304.657,-116 308.657,-116 308.657,-96 304.657,-96 304.657,-92 308.657,-92 308.657,-88 478.657,-88 478.657,-124"/>
<polyline fill="none" stroke="black" stroke-width="2" points="308.657,-120 312.657,-120 312.657,-116 308.657,-116 "/>
<polyline fill="none" stroke="black" stroke-width="2" points="308.657,-96 312.657,-96 312.657,-92 308.657,-92 "/>
<text text-anchor="middle" x="393.657" y="-102.3" font-family="Times,serif" font-size="14.00">userLockedOutUntil</text>
</g>
<!-- 33&#45;&gt;46 -->
<g id="edge73" class="edge"><title>33&#45;&gt;46</title>
<path fill="none" stroke="black" d="M1385.28,-193.177C1285.75,-184.46 1107.49,-169.899 954.657,-163 902.813,-160.66 538.008,-167.569 487.657,-155 466.806,-149.795 445.331,-139.285 428.18,-129.423"/>
<polygon fill="black" stroke="black" points="429.513,-126.144 419.128,-124.048 425.94,-132.163 429.513,-126.144"/>
</g>
<!-- 47 -->
<g id="node37" class="node"><title>47</title>
<polygon fill="goldenrod" stroke="black" stroke-width="2" points="290.157,-124 177.157,-124 177.157,-120 173.157,-120 173.157,-116 177.157,-116 177.157,-96 173.157,-96 173.157,-92 177.157,-92 177.157,-88 290.157,-88 290.157,-124"/>
<polyline fill="none" stroke="black" stroke-width="2" points="177.157,-120 181.157,-120 181.157,-116 177.157,-116 "/>
<polyline fill="none" stroke="black" stroke-width="2" points="177.157,-96 181.157,-96 181.157,-92 177.157,-92 "/>
<text text-anchor="middle" x="233.657" y="-102.3" font-family="Times,serif" font-size="14.00">userLogin</text>
</g>
<!-- 33&#45;&gt;47 -->
<g id="edge74" class="edge"><title>33&#45;&gt;47</title>
<path fill="none" stroke="black" d="M1385.28,-193.058C1285.76,-184.216 1107.5,-169.523 954.657,-163 918.298,-161.448 334.195,-166.465 299.657,-155 284.616,-150.007 270.12,-140.214 258.563,-130.769"/>
<polygon fill="black" stroke="black" points="260.57,-127.88 250.701,-124.026 256.013,-133.193 260.57,-127.88"/>
</g>
<!-- 48 -->
<g id="node38" class="node"><title>48</title>
<polygon fill="goldenrod" stroke="black" stroke-width="2" points="3253.66,-124 3107.66,-124 3107.66,-120 3103.66,-120 3103.66,-116 3107.66,-116 3107.66,-96 3103.66,-96 3103.66,-92 3107.66,-92 3107.66,-88 3253.66,-88 3253.66,-124"/>
<polyline fill="none" stroke="black" stroke-width="2" points="3107.66,-120 3111.66,-120 3111.66,-116 3107.66,-116 "/>
<polyline fill="none" stroke="black" stroke-width="2" points="3107.66,-96 3111.66,-96 3111.66,-92 3107.66,-92 "/>
<text text-anchor="middle" x="3180.66" y="-102.3" font-family="Times,serif" font-size="14.00">userLoginCount</text>
</g>
<!-- 33&#45;&gt;48 -->
<g id="edge75" class="edge"><title>33&#45;&gt;48</title>
<path fill="none" stroke="black" d="M1517.82,-185.372C1551.81,-177.001 1596.43,-167.363 1636.66,-163 1677.03,-158.621 3059.49,-165.736 3098.66,-155 3117.14,-149.933 3135.74,-139.577 3150.54,-129.777"/>
<polygon fill="black" stroke="black" points="3152.52,-132.661 3158.79,-124.116 3148.56,-126.891 3152.52,-132.661"/>
</g>
<!-- 49 -->
<g id="node39" class="node"><title>49</title>
<polygon fill="goldenrod" stroke="black" stroke-width="2" points="3089.66,-124 2979.66,-124 2979.66,-120 2975.66,-120 2975.66,-116 2979.66,-116 2979.66,-96 2975.66,-96 2975.66,-92 2979.66,-92 2979.66,-88 3089.66,-88 3089.66,-124"/>
<polyline fill="none" stroke="black" stroke-width="2" points="2979.66,-120 2983.66,-120 2983.66,-116 2979.66,-116 "/>
<polyline fill="none" stroke="black" stroke-width="2" points="2979.66,-96 2983.66,-96 2983.66,-92 2979.66,-92 "/>
<text text-anchor="middle" x="3034.66" y="-102.3" font-family="Times,serif" font-size="14.00">userMeta</text>
</g>
<!-- 33&#45;&gt;49 -->
<g id="edge76" class="edge"><title>33&#45;&gt;49</title>
<path fill="none" stroke="black" d="M1517.82,-185.38C1551.81,-177.011 1596.43,-167.374 1636.66,-163 1673.5,-158.995 2935.54,-166.824 2970.66,-155 2985.38,-150.043 2999.45,-140.255 3010.64,-130.803"/>
<polygon fill="black" stroke="black" points="3013.08,-133.311 3018.24,-124.054 3008.44,-128.077 3013.08,-133.311"/>
</g>
<!-- 50 -->
<g id="node40" class="node"><title>50</title>
<polygon fill="goldenrod" stroke="black" stroke-width="2" points="159.157,-124 26.1568,-124 26.1568,-120 22.1568,-120 22.1568,-116 26.1568,-116 26.1568,-96 22.1568,-96 22.1568,-92 26.1568,-92 26.1568,-88 159.157,-88 159.157,-124"/>
<polyline fill="none" stroke="black" stroke-width="2" points="26.1568,-120 30.1568,-120 30.1568,-116 26.1568,-116 "/>
<polyline fill="none" stroke="black" stroke-width="2" points="26.1568,-96 30.1568,-96 30.1568,-92 26.1568,-92 "/>
<text text-anchor="middle" x="92.6568" y="-102.3" font-family="Times,serif" font-size="14.00">userPassword</text>
</g>
<!-- 33&#45;&gt;50 -->
<g id="edge77" class="edge"><title>33&#45;&gt;50</title>
<path fill="none" stroke="black" d="M1385.29,-193.009C1285.77,-184.115 1107.51,-169.366 954.657,-163 932.813,-162.09 188.608,-161.246 167.657,-155 150.764,-149.964 134.041,-139.892 120.687,-130.268"/>
<polygon fill="black" stroke="black" points="122.528,-127.274 112.431,-124.067 118.325,-132.871 122.528,-127.274"/>
</g>
<!-- 51 -->
<g id="node41" class="node"><title>51</title>
<polygon fill="goldenrod" stroke="black" stroke-width="2" points="2961.66,-124 2785.66,-124 2785.66,-120 2781.66,-120 2781.66,-116 2785.66,-116 2785.66,-96 2781.66,-96 2781.66,-92 2785.66,-92 2785.66,-88 2961.66,-88 2961.66,-124"/>
<polyline fill="none" stroke="black" stroke-width="2" points="2785.66,-120 2789.66,-120 2789.66,-116 2785.66,-116 "/>
<polyline fill="none" stroke="black" stroke-width="2" points="2785.66,-96 2789.66,-96 2789.66,-92 2785.66,-92 "/>
<text text-anchor="middle" x="2873.66" y="-102.3" font-family="Times,serif" font-size="14.00">userRememberToken</text>
</g>
<!-- 33&#45;&gt;51 -->
<g id="edge78" class="edge"><title>33&#45;&gt;51</title>
<path fill="none" stroke="black" d="M1517.83,-185.395C1551.81,-177.031 1596.43,-167.395 1636.66,-163 1699.56,-156.128 2714.06,-169.502 2775.66,-155 2797.48,-149.861 2820.08,-139.212 2838.06,-129.248"/>
<polygon fill="black" stroke="black" points="2840.07,-132.131 2847.02,-124.132 2836.6,-126.053 2840.07,-132.131"/>
</g>
<!-- 52 -->
<g id="node42" class="node"><title>52</title>
<polygon fill="goldenrod" stroke="black" stroke-width="2" points="2767.16,-124 2586.16,-124 2586.16,-120 2582.16,-120 2582.16,-116 2586.16,-116 2586.16,-96 2582.16,-96 2582.16,-92 2586.16,-92 2586.16,-88 2767.16,-88 2767.16,-124"/>
<polyline fill="none" stroke="black" stroke-width="2" points="2586.16,-120 2590.16,-120 2590.16,-116 2586.16,-116 "/>
<polyline fill="none" stroke="black" stroke-width="2" points="2586.16,-96 2590.16,-96 2590.16,-92 2586.16,-92 "/>
<text text-anchor="middle" x="2676.66" y="-102.3" font-family="Times,serif" font-size="14.00">userResetRequestedAt</text>
</g>
<!-- 33&#45;&gt;52 -->
<g id="edge79" class="edge"><title>33&#45;&gt;52</title>
<path fill="none" stroke="black" d="M1517.83,-185.416C1551.81,-177.061 1596.43,-167.424 1636.66,-163 1688.57,-157.29 2525.78,-166.805 2576.66,-155 2598.96,-149.824 2622.12,-139.1 2640.53,-129.099"/>
<polygon fill="black" stroke="black" points="2642.41,-132.059 2649.43,-124.122 2638.99,-125.95 2642.41,-132.059"/>
</g>
<!-- 53 -->
<g id="node43" class="node"><title>53</title>
<polygon fill="goldenrod" stroke="black" stroke-width="2" points="2567.66,-124 2421.66,-124 2421.66,-120 2417.66,-120 2417.66,-116 2421.66,-116 2421.66,-96 2417.66,-96 2417.66,-92 2421.66,-92 2421.66,-88 2567.66,-88 2567.66,-124"/>
<polyline fill="none" stroke="black" stroke-width="2" points="2421.66,-120 2425.66,-120 2425.66,-116 2421.66,-116 "/>
<polyline fill="none" stroke="black" stroke-width="2" points="2421.66,-96 2425.66,-96 2425.66,-92 2421.66,-92 "/>
<text text-anchor="middle" x="2494.66" y="-102.3" font-family="Times,serif" font-size="14.00">userResetToken</text>
</g>
<!-- 33&#45;&gt;53 -->
<g id="edge80" class="edge"><title>33&#45;&gt;53</title>
<path fill="none" stroke="black" d="M1517.83,-185.442C1551.82,-177.096 1596.44,-167.461 1636.66,-163 1679.51,-158.248 2371.1,-166.498 2412.66,-155 2431.13,-149.888 2449.73,-139.528 2464.53,-129.737"/>
<polygon fill="black" stroke="black" points="2466.51,-132.624 2472.78,-124.082 2462.55,-126.851 2466.51,-132.624"/>
</g>
<!-- 54 -->
<g id="node44" class="node"><title>54</title>
<polygon fill="goldenrod" stroke="black" stroke-width="2" points="2403.66,-124 2291.66,-124 2291.66,-120 2287.66,-120 2287.66,-116 2291.66,-116 2291.66,-96 2287.66,-96 2287.66,-92 2291.66,-92 2291.66,-88 2403.66,-88 2403.66,-124"/>
<polyline fill="none" stroke="black" stroke-width="2" points="2291.66,-120 2295.66,-120 2295.66,-116 2291.66,-116 "/>
<polyline fill="none" stroke="black" stroke-width="2" points="2291.66,-96 2295.66,-96 2295.66,-92 2291.66,-92 "/>
<text text-anchor="middle" x="2347.66" y="-102.3" font-family="Times,serif" font-size="14.00">userRoles</text>
</g>
<!-- 33&#45;&gt;54 -->
<g id="edge81" class="edge"><title>33&#45;&gt;54</title>
<path fill="none" stroke="black" d="M1517.83,-185.472C1551.82,-177.137 1596.44,-167.503 1636.66,-163 1672.27,-159.013 2247.65,-166.293 2281.66,-155 2296.7,-150.006 2311.19,-140.213 2322.75,-130.767"/>
<polygon fill="black" stroke="black" points="2325.3,-133.192 2330.61,-124.025 2320.74,-127.878 2325.3,-133.192"/>
</g>
<!-- 55 -->
<g id="node45" class="node"><title>55</title>
<polygon fill="goldenrod" stroke="black" stroke-width="2" points="2273.16,-124 2120.16,-124 2120.16,-120 2116.16,-120 2116.16,-116 2120.16,-116 2120.16,-96 2116.16,-96 2116.16,-92 2120.16,-92 2120.16,-88 2273.16,-88 2273.16,-124"/>
<polyline fill="none" stroke="black" stroke-width="2" points="2120.16,-120 2124.16,-120 2124.16,-116 2120.16,-116 "/>
<polyline fill="none" stroke="black" stroke-width="2" points="2120.16,-96 2124.16,-96 2124.16,-92 2120.16,-92 "/>
<text text-anchor="middle" x="2196.66" y="-102.3" font-family="Times,serif" font-size="14.00">userSuspendedAt</text>
</g>
<!-- 33&#45;&gt;55 -->
<g id="edge82" class="edge"><title>33&#45;&gt;55</title>
<path fill="none" stroke="black" d="M1517.84,-185.536C1551.83,-177.225 1596.45,-167.593 1636.66,-163 1688.99,-157.022 2059.79,-168.693 2110.66,-155 2129.84,-149.835 2149.33,-139.47 2164.89,-129.69"/>
<polygon fill="black" stroke="black" points="2167.1,-132.431 2173.57,-124.042 2163.28,-126.564 2167.1,-132.431"/>
</g>
<!-- 56 -->
<g id="node46" class="node"><title>56</title>
<polygon fill="goldenrod" stroke="black" stroke-width="2" points="2101.66,-124 1961.66,-124 1961.66,-120 1957.66,-120 1957.66,-116 1961.66,-116 1961.66,-96 1957.66,-96 1957.66,-92 1961.66,-92 1961.66,-88 2101.66,-88 2101.66,-124"/>
<polyline fill="none" stroke="black" stroke-width="2" points="1961.66,-120 1965.66,-120 1965.66,-116 1961.66,-116 "/>
<polyline fill="none" stroke="black" stroke-width="2" points="1961.66,-96 1965.66,-96 1965.66,-92 1961.66,-92 "/>
<text text-anchor="middle" x="2031.66" y="-102.3" font-family="Times,serif" font-size="14.00">userUpdatedAt</text>
</g>
<!-- 33&#45;&gt;56 -->
<g id="edge83" class="edge"><title>33&#45;&gt;56</title>
<path fill="none" stroke="black" d="M1518.25,-185.564C1552.19,-177.319 1596.62,-167.746 1636.66,-163 1671.42,-158.878 1918.04,-164.773 1951.66,-155 1969.43,-149.833 1987.28,-139.714 2001.59,-130.093"/>
<polygon fill="black" stroke="black" points="2003.82,-132.809 2010.02,-124.216 1999.81,-127.068 2003.82,-132.809"/>
</g>
<!-- 34 -->
<g id="node8" class="node"><title>34</title>
<polygon fill="bisque" stroke="black" stroke-width="2" points="1539.76,-394.664 1539.76,-413.215 1494.59,-426.332 1430.72,-426.332 1385.55,-413.215 1385.55,-394.664 1430.72,-381.546 1494.59,-381.546 1539.76,-394.664"/>
<text text-anchor="middle" x="1462.66" y="-400.239" font-family="Times,serif" font-size="14.00">toJSON</text>
</g>
<!-- 60 -->
<g id="node10" class="node"><title>60</title>
<polygon fill="khaki" stroke="black" stroke-dasharray="1,5" points="1543.52,-294.053 1543.52,-322.082 1472.72,-341.902 1372.6,-341.902 1301.8,-322.082 1301.8,-294.053 1372.6,-274.233 1472.72,-274.233 1543.52,-294.053"/>
<polygon fill="none" stroke="black" stroke-dasharray="1,5" points="1547.51,-291 1547.51,-325.135 1473.26,-345.921 1372.05,-345.921 1297.8,-325.135 1297.8,-291 1372.05,-270.214 1473.26,-270.214 1547.51,-291"/>
<text text-anchor="middle" x="1422.66" y="-311.867" font-family="Times,serif" font-size="14.00">Unknown Module</text>
<text text-anchor="middle" x="1422.66" y="-296.867" font-family="Times,serif" font-size="14.00">toJSON</text>
</g>
<!-- 34&#45;&gt;60 -->
<g id="edge86" class="edge"><title>34&#45;&gt;60</title>
<path fill="none" stroke="black" d="M1447.82,-381.638C1443.79,-373.769 1439.52,-364.514 1435.61,-355.294"/>
<polygon fill="black" stroke="black" points="1438.73,-353.679 1431.69,-345.76 1432.25,-356.34 1438.73,-353.679"/>
</g>
<!-- 5 -->
<g id="node47" class="node"><title>5</title>
<polygon fill="goldenrod" stroke="black" stroke-width="2" points="1066.16,-326.067 957.157,-326.067 953.157,-322.067 953.157,-290.067 1062.16,-290.067 1066.16,-294.067 1066.16,-326.067"/>
<polyline fill="none" stroke="black" stroke-width="2" points="1062.16,-322.067 953.157,-322.067 "/>
<polyline fill="none" stroke="black" stroke-width="2" points="1062.16,-322.067 1062.16,-290.067 "/>
<polyline fill="none" stroke="black" stroke-width="2" points="1062.16,-322.067 1066.16,-326.067 "/>
<text text-anchor="middle" x="1009.66" y="-304.367" font-family="Times,serif" font-size="14.00">ClearText</text>
</g>
<!-- 34&#45;&gt;5 -->
<g id="edge84" class="edge"><title>34&#45;&gt;5</title>
<path fill="none" stroke="black" d="M1417.06,-385.452C1403.31,-380.869 1388.04,-376.455 1373.66,-373.744 1308.26,-361.414 1137.26,-379.63 1074.66,-357.067 1060,-351.786 1045.83,-342.055 1034.48,-332.728"/>
<polygon fill="black" stroke="black" points="1036.61,-329.944 1026.75,-326.077 1032.05,-335.252 1036.61,-329.944"/>
</g>
<!-- 34&#45;&gt;7 -->
<g id="edge85" class="edge"><title>34&#45;&gt;7</title>
<path fill="none" stroke="black" d="M1417.09,-385.298C1403.34,-380.71 1388.06,-376.333 1373.66,-373.744 1279.54,-356.824 1034.01,-388.396 943.657,-357.067 928.792,-351.913 914.404,-342.198 902.877,-332.85"/>
<polygon fill="black" stroke="black" points="904.91,-329.985 895.023,-326.178 900.378,-335.32 904.91,-329.985"/>
</g>
<!-- 35 -->
<g id="node9" class="node"><title>35</title>
<polygon fill="bisque" stroke="black" stroke-width="2" points="1361.76,-394.664 1361.76,-413.215 1316.59,-426.332 1252.72,-426.332 1207.55,-413.215 1207.55,-394.664 1252.72,-381.546 1316.59,-381.546 1361.76,-394.664"/>
<text text-anchor="middle" x="1284.66" y="-400.239" font-family="Times,serif" font-size="14.00">toJSON</text>
</g>
<!-- 35&#45;&gt;60 -->
<g id="edge88" class="edge"><title>35&#45;&gt;60</title>
<path fill="none" stroke="black" d="M1310.21,-381.638C1323.28,-372.195 1339.79,-360.755 1356.11,-349.777"/>
<polygon fill="black" stroke="black" points="1358.25,-352.56 1364.61,-344.092 1354.36,-346.741 1358.25,-352.56"/>
</g>
<!-- 35&#45;&gt;12 -->
<g id="edge87" class="edge"><title>35&#45;&gt;12</title>
<path fill="none" stroke="black" d="M1221.73,-390.494C1188.53,-384.422 1147.04,-377.61 1109.66,-373.744 1064.53,-369.075 743.482,-374.651 701.657,-357.067 689.572,-351.987 678.621,-342.672 669.992,-333.591"/>
<polygon fill="black" stroke="black" points="672.587,-331.243 663.315,-326.116 667.366,-335.906 672.587,-331.243"/>
</g>
<!-- 60&#45;&gt;33 -->
<g id="edge114" class="edge"><title>60&#45;&gt;33</title>
<path fill="none" stroke="navy" d="M1436.65,-270.388C1442.64,-254.677 1449.43,-236.884 1454.56,-223.414"/>
</g>
<!-- 60&#45;&gt;34 -->
<g id="edge115" class="edge"><title>60&#45;&gt;34</title>
<path fill="none" stroke="navy" stroke-width="1.69315" d="M1444.9,-345.76C1450.43,-357.916 1455.74,-371.036 1459.34,-381.638"/>
</g>
<!-- 60&#45;&gt;35 -->
<g id="edge116" class="edge"><title>60&#45;&gt;35</title>
<path fill="none" stroke="navy" d="M1375.18,-345.86C1357.17,-358.347 1337.03,-371.84 1320.28,-382.57"/>
</g>
<!-- 2 -->
<g id="node20" class="node"><title>2</title>
<polygon fill="goldenrod" stroke="black" stroke-width="2" points="3929.16,-124 3804.16,-124 3800.16,-120 3800.16,-88 3925.16,-88 3929.16,-92 3929.16,-124"/>
<polyline fill="none" stroke="black" stroke-width="2" points="3925.16,-120 3800.16,-120 "/>
<polyline fill="none" stroke="black" stroke-width="2" points="3925.16,-120 3925.16,-88 "/>
<polyline fill="none" stroke="black" stroke-width="2" points="3925.16,-120 3929.16,-124 "/>
<text text-anchor="middle" x="3864.66" y="-102.3" font-family="Times,serif" font-size="14.00">AuthSettings</text>
</g>
<!-- 16 -->
<g id="node21" class="node"><title>16</title>
<polygon fill="goldenrod" stroke="black" stroke-width="2" points="4133.16,-219.196 4018.16,-219.196 4018.16,-215.196 4014.16,-215.196 4014.16,-211.196 4018.16,-211.196 4018.16,-191.196 4014.16,-191.196 4014.16,-187.196 4018.16,-187.196 4018.16,-183.196 4133.16,-183.196 4133.16,-219.196"/>
<polyline fill="none" stroke="black" stroke-width="2" points="4018.16,-215.196 4022.16,-215.196 4022.16,-211.196 4018.16,-211.196 "/>
<polyline fill="none" stroke="black" stroke-width="2" points="4018.16,-191.196 4022.16,-191.196 4022.16,-187.196 4018.16,-187.196 "/>
<text text-anchor="middle" x="4075.66" y="-197.496" font-family="Times,serif" font-size="14.00">asLockout</text>
</g>
<!-- 16&#45;&gt;2 -->
<g id="edge1" class="edge"><title>16&#45;&gt;2</title>
<path fill="none" stroke="magenta" d="M4047.54,-183.165C4036,-176.489 4022.38,-169.006 4009.66,-163 3981.94,-149.923 3950.29,-137.429 3923.64,-127.574"/>
<polygon fill="magenta" stroke="magenta" points="3914.06,-124.066 3925,-123.28 3918.76,-125.786 3923.45,-127.506 3923.45,-127.506 3923.45,-127.506 3918.76,-125.786 3921.9,-131.731 3914.06,-124.066 3914.06,-124.066"/>
</g>
<!-- 17 -->
<g id="node22" class="node"><title>17</title>
<polygon fill="goldenrod" stroke="black" stroke-width="2" points="3463.16,-219.196 3308.16,-219.196 3308.16,-215.196 3304.16,-215.196 3304.16,-211.196 3308.16,-211.196 3308.16,-191.196 3304.16,-191.196 3304.16,-187.196 3308.16,-187.196 3308.16,-183.196 3463.16,-183.196 3463.16,-219.196"/>
<polyline fill="none" stroke="black" stroke-width="2" points="3308.16,-215.196 3312.16,-215.196 3312.16,-211.196 3308.16,-211.196 "/>
<polyline fill="none" stroke="black" stroke-width="2" points="3308.16,-191.196 3312.16,-191.196 3312.16,-187.196 3308.16,-187.196 "/>
<text text-anchor="middle" x="3385.66" y="-197.496" font-family="Times,serif" font-size="14.00">asMinPasswdLen</text>
</g>
<!-- 17&#45;&gt;2 -->
<g id="edge2" class="edge"><title>17&#45;&gt;2</title>
<path fill="none" stroke="magenta" d="M3419.62,-183.014C3435.14,-175.821 3453.96,-167.989 3471.66,-163 3579.95,-132.459 3709.96,-118.096 3789.94,-111.698"/>
<polygon fill="magenta" stroke="magenta" points="3799.93,-110.92 3790.31,-116.184 3794.94,-111.309 3789.96,-111.697 3789.96,-111.697 3789.96,-111.697 3794.94,-111.309 3789.61,-107.211 3799.93,-110.92 3799.93,-110.92"/>
</g>
<!-- 18 -->
<g id="node23" class="node"><title>18</title>
<polygon fill="goldenrod" stroke="black" stroke-width="2" points="3684.16,-219.196 3481.16,-219.196 3481.16,-215.196 3477.16,-215.196 3477.16,-211.196 3481.16,-211.196 3481.16,-191.196 3477.16,-191.196 3477.16,-187.196 3481.16,-187.196 3481.16,-183.196 3684.16,-183.196 3684.16,-219.196"/>
<polyline fill="none" stroke="black" stroke-width="2" points="3481.16,-215.196 3485.16,-215.196 3485.16,-211.196 3481.16,-211.196 "/>
<polyline fill="none" stroke="black" stroke-width="2" points="3481.16,-191.196 3485.16,-191.196 3485.16,-187.196 3481.16,-187.196 "/>
<text text-anchor="middle" x="3582.66" y="-197.496" font-family="Times,serif" font-size="14.00">asRememberCookieName</text>
</g>
<!-- 18&#45;&gt;2 -->
<g id="edge3" class="edge"><title>18&#45;&gt;2</title>
<path fill="none" stroke="magenta" d="M3633.19,-183.18C3652.15,-176.819 3673.88,-169.551 3693.66,-163 3729.67,-151.07 3769.99,-137.857 3802.44,-127.263"/>
<polygon fill="magenta" stroke="magenta" points="3812.24,-124.064 3804.13,-131.444 3807.48,-125.615 3802.73,-127.167 3802.73,-127.167 3802.73,-127.167 3807.48,-125.615 3801.34,-122.889 3812.24,-124.064 3812.24,-124.064"/>
</g>
<!-- 19 -->
<g id="node24" class="node"><title>19</title>
<polygon fill="goldenrod" stroke="black" stroke-width="2" points="3868.66,-219.196 3702.66,-219.196 3702.66,-215.196 3698.66,-215.196 3698.66,-211.196 3702.66,-211.196 3702.66,-191.196 3698.66,-191.196 3698.66,-187.196 3702.66,-187.196 3702.66,-183.196 3868.66,-183.196 3868.66,-219.196"/>
<polyline fill="none" stroke="black" stroke-width="2" points="3702.66,-215.196 3706.66,-215.196 3706.66,-211.196 3702.66,-211.196 "/>
<polyline fill="none" stroke="black" stroke-width="2" points="3702.66,-191.196 3706.66,-191.196 3706.66,-187.196 3702.66,-187.196 "/>
<text text-anchor="middle" x="3785.66" y="-197.496" font-family="Times,serif" font-size="14.00">asRememberPeriod</text>
</g>
<!-- 19&#45;&gt;2 -->
<g id="edge4" class="edge"><title>19&#45;&gt;2</title>
<path fill="none" stroke="magenta" d="M3800.15,-183.102C3812.21,-168.872 3829.56,-148.406 3843.23,-132.281"/>
<polygon fill="magenta" stroke="magenta" points="3849.99,-124.301 3846.96,-134.839 3846.76,-128.115 3843.53,-131.929 3843.53,-131.929 3843.53,-131.929 3846.76,-128.115 3840.09,-129.019 3849.99,-124.301 3849.99,-124.301"/>
</g>
<!-- 20 -->
<g id="node25" class="node"><title>20</title>
<polygon fill="goldenrod" stroke="black" stroke-width="2" points="4000.16,-219.196 3887.16,-219.196 3887.16,-215.196 3883.16,-215.196 3883.16,-211.196 3887.16,-211.196 3887.16,-191.196 3883.16,-191.196 3883.16,-187.196 3887.16,-187.196 3887.16,-183.196 4000.16,-183.196 4000.16,-219.196"/>
<polyline fill="none" stroke="black" stroke-width="2" points="3887.16,-215.196 3891.16,-215.196 3891.16,-211.196 3887.16,-211.196 "/>
<polyline fill="none" stroke="black" stroke-width="2" points="3887.16,-191.196 3891.16,-191.196 3891.16,-187.196 3887.16,-187.196 "/>
<text text-anchor="middle" x="3943.66" y="-197.496" font-family="Times,serif" font-size="14.00">asSiteKey</text>
</g>
<!-- 20&#45;&gt;2 -->
<g id="edge5" class="edge"><title>20&#45;&gt;2</title>
<path fill="none" stroke="magenta" d="M3929.17,-183.102C3917.1,-168.872 3899.76,-148.406 3886.09,-132.281"/>
<polygon fill="magenta" stroke="magenta" points="3879.32,-124.301 3889.22,-129.019 3882.56,-128.115 3885.79,-131.929 3885.79,-131.929 3885.79,-131.929 3882.56,-128.115 3882.36,-134.839 3879.32,-124.301 3879.32,-124.301"/>
</g>
<!-- 37&#45;&gt;3 -->
<g id="edge90" class="edge"><title>37&#45;&gt;3</title>
<path fill="none" stroke="magenta" d="M1813.45,-87.879C1804.5,-85.2071 1795.33,-82.5037 1786.66,-80 1754.6,-70.7485 1718.88,-60.8422 1689.07,-52.6859"/>
<polygon fill="magenta" stroke="magenta" points="1679.2,-49.9904 1690.03,-48.284 1684.02,-51.3077 1688.84,-52.625 1688.84,-52.625 1688.84,-52.625 1684.02,-51.3077 1687.66,-56.966 1679.2,-49.9904 1679.2,-49.9904"/>
</g>
<!-- 38&#45;&gt;3 -->
<g id="edge91" class="edge"><title>38&#45;&gt;3</title>
<path fill="none" stroke="magenta" d="M1688.4,-87.6966C1677.57,-78.8807 1664.24,-68.0321 1652.5,-58.4742"/>
<polygon fill="magenta" stroke="magenta" points="1644.67,-52.1043 1655.27,-54.927 1648.55,-55.2607 1652.43,-58.4171 1652.43,-58.4171 1652.43,-58.4171 1648.55,-55.2607 1649.59,-61.9071 1644.67,-52.1043 1644.67,-52.1043"/>
</g>
<!-- 39&#45;&gt;3 -->
<g id="edge92" class="edge"><title>39&#45;&gt;3</title>
<path fill="none" stroke="magenta" d="M1559.67,-87.6966C1570.37,-78.8807 1583.55,-68.0321 1595.15,-58.4742"/>
<polygon fill="magenta" stroke="magenta" points="1602.89,-52.1043 1598.03,-61.9351 1599.03,-55.2829 1595.17,-58.4614 1595.17,-58.4614 1595.17,-58.4614 1599.03,-55.2829 1592.31,-54.9877 1602.89,-52.1043 1602.89,-52.1043"/>
</g>
<!-- 40&#45;&gt;3 -->
<g id="edge93" class="edge"><title>40&#45;&gt;3</title>
<path fill="none" stroke="magenta" d="M1415.97,-87.9063C1425.89,-85.2308 1436.05,-82.5192 1445.66,-80 1482.84,-70.2488 1524.49,-59.6986 1558.15,-51.2662"/>
<polygon fill="magenta" stroke="magenta" points="1567.87,-48.8337 1559.26,-55.6264 1563.02,-50.0473 1558.17,-51.261 1558.17,-51.261 1558.17,-51.261 1563.02,-50.0473 1557.08,-46.8955 1567.87,-48.8337 1567.87,-48.8337"/>
</g>
<!-- 41&#45;&gt;3 -->
<g id="edge94" class="edge"><title>41&#45;&gt;3</title>
<path fill="none" stroke="magenta" d="M1236.01,-87.9802C1244.38,-84.9469 1253.21,-82.0922 1261.66,-80 1363.37,-54.7975 1484.83,-43.3746 1558.02,-38.4473"/>
<polygon fill="magenta" stroke="magenta" points="1568.02,-37.7944 1558.34,-42.9365 1563.03,-38.1202 1558.04,-38.4461 1558.04,-38.4461 1558.04,-38.4461 1563.03,-38.1202 1557.75,-33.9556 1568.02,-37.7944 1568.02,-37.7944"/>
</g>
<!-- 42&#45;&gt;3 -->
<g id="edge95" class="edge"><title>42&#45;&gt;3</title>
<path fill="none" stroke="magenta" d="M1091.86,-87.9567C1104.3,-84.9441 1117.34,-82.1033 1129.66,-80 1281.8,-54.0252 1463.03,-42.3643 1558.06,-37.706"/>
<polygon fill="magenta" stroke="magenta" points="1568.1,-37.2244 1558.32,-42.1986 1563.1,-37.4641 1558.11,-37.7037 1558.11,-37.7037 1558.11,-37.7037 1563.1,-37.4641 1557.89,-33.2089 1568.1,-37.2244 1568.1,-37.2244"/>
</g>
<!-- 43&#45;&gt;3 -->
<g id="edge96" class="edge"><title>43&#45;&gt;3</title>
<path fill="none" stroke="magenta" d="M909.111,-87.9227C916.357,-84.7742 924.128,-81.8885 931.657,-80 1048.97,-50.5707 1408.42,-39.6168 1557.65,-36.2658"/>
<polygon fill="magenta" stroke="magenta" points="1568.02,-36.0375 1558.12,-40.7565 1563.02,-36.1475 1558.03,-36.2576 1558.03,-36.2576 1558.03,-36.2576 1563.02,-36.1475 1557.93,-31.7587 1568.02,-36.0375 1568.02,-36.0375"/>
</g>
<!-- 44&#45;&gt;3 -->
<g id="edge97" class="edge"><title>44&#45;&gt;3</title>
<path fill="none" stroke="magenta" d="M787.839,-87.9923C798.866,-84.8394 810.565,-81.9344 821.657,-80 962.613,-55.4176 1392.9,-41.3309 1558.11,-36.7085"/>
<polygon fill="magenta" stroke="magenta" points="1568.13,-36.4306 1558.26,-41.2061 1563.13,-36.5693 1558.14,-36.7079 1558.14,-36.7079 1558.14,-36.7079 1563.13,-36.5693 1558.01,-32.2096 1568.13,-36.4306 1568.13,-36.4306"/>
</g>
<!-- 45&#45;&gt;3 -->
<g id="edge98" class="edge"><title>45&#45;&gt;3</title>
<path fill="none" stroke="magenta" d="M620.216,-87.907C631.114,-84.7594 642.68,-81.8782 653.657,-80 828.143,-50.1451 1369.14,-38.9892 1557.89,-35.9445"/>
<polygon fill="magenta" stroke="magenta" points="1567.94,-35.7846 1558.01,-40.4431 1562.94,-35.8642 1557.94,-35.9437 1557.94,-35.9437 1557.94,-35.9437 1562.94,-35.8642 1557.87,-31.4443 1567.94,-35.7846 1567.94,-35.7846"/>
</g>
<!-- 46&#45;&gt;3 -->
<g id="edge99" class="edge"><title>46&#45;&gt;3</title>
<path fill="none" stroke="magenta" d="M449.899,-87.8863C462.233,-84.74 475.3,-81.8645 487.657,-80 696.138,-48.541 1347.83,-38.249 1557.77,-35.7044"/>
<polygon fill="magenta" stroke="magenta" points="1568.02,-35.5821 1558.08,-40.2012 1563.02,-35.6418 1558.02,-35.7015 1558.02,-35.7015 1558.02,-35.7015 1563.02,-35.6418 1557.97,-31.2018 1568.02,-35.5821 1568.02,-35.5821"/>
</g>
<!-- 47&#45;&gt;3 -->
<g id="edge100" class="edge"><title>47&#45;&gt;3</title>
<path fill="none" stroke="magenta" d="M272.469,-87.8914C281.251,-84.7023 290.647,-81.808 299.657,-80 423.376,-55.1745 1307.97,-39.8426 1557.99,-35.9714"/>
<polygon fill="magenta" stroke="magenta" points="1568.02,-35.8171 1558.09,-40.4706 1563.02,-35.8941 1558.02,-35.9711 1558.02,-35.9711 1558.02,-35.9711 1563.02,-35.8941 1557.95,-31.4716 1568.02,-35.8171 1568.02,-35.8171"/>
</g>
<!-- 48&#45;&gt;3 -->
<g id="edge101" class="edge"><title>48&#45;&gt;3</title>
<path fill="none" stroke="magenta" d="M3132.16,-87.9001C3121.27,-84.7105 3109.67,-81.8137 3098.66,-80 2821.72,-34.3949 1938.37,-33.8908 1689.49,-34.6928"/>
<polygon fill="magenta" stroke="magenta" points="1679.16,-34.7281 1689.14,-30.1939 1684.16,-34.711 1689.16,-34.6939 1689.16,-34.6939 1689.16,-34.6939 1684.16,-34.711 1689.17,-39.1938 1679.16,-34.7281 1679.16,-34.7281"/>
</g>
<!-- 49&#45;&gt;3 -->
<g id="edge102" class="edge"><title>49&#45;&gt;3</title>
<path fill="none" stroke="magenta" d="M2997.06,-87.8836C2988.54,-84.695 2979.42,-81.8028 2970.66,-80 2844.77,-54.1025 1942.84,-39.5121 1689.62,-35.8955"/>
<polygon fill="magenta" stroke="magenta" points="1679.46,-35.7514 1689.53,-31.3938 1684.46,-35.8224 1689.46,-35.8934 1689.46,-35.8934 1689.46,-35.8934 1684.46,-35.8224 1689.4,-40.3929 1679.46,-35.7514 1679.46,-35.7514"/>
</g>
<!-- 50&#45;&gt;3 -->
<g id="edge103" class="edge"><title>50&#45;&gt;3</title>
<path fill="none" stroke="magenta" d="M136.919,-87.8879C146.889,-84.6991 157.522,-81.8057 167.657,-80 305.323,-55.4715 1291.88,-39.7375 1557.78,-35.9102"/>
<polygon fill="magenta" stroke="magenta" points="1568.05,-35.7631 1558.11,-40.406 1563.05,-35.8348 1558.05,-35.9064 1558.05,-35.9064 1558.05,-35.9064 1563.05,-35.8348 1557.98,-31.4069 1568.05,-35.7631 1568.05,-35.7631"/>
</g>
<!-- 51&#45;&gt;3 -->
<g id="edge104" class="edge"><title>51&#45;&gt;3</title>
<path fill="none" stroke="magenta" d="M2815.25,-87.9582C2802.31,-84.7866 2788.6,-81.8825 2775.66,-80 2563.73,-49.181 1901.14,-38.4421 1689.41,-35.7478"/>
<polygon fill="magenta" stroke="magenta" points="1679.37,-35.6218 1689.43,-31.2478 1684.37,-35.6846 1689.37,-35.7474 1689.37,-35.7474 1689.37,-35.7474 1684.37,-35.6846 1689.31,-40.2471 1679.37,-35.6218 1679.37,-35.6218"/>
</g>
<!-- 52&#45;&gt;3 -->
<g id="edge105" class="edge"><title>52&#45;&gt;3</title>
<path fill="none" stroke="magenta" d="M2616.76,-87.982C2603.64,-84.8298 2589.76,-81.9276 2576.66,-80 2404.97,-54.7398 1875.87,-40.6829 1689.47,-36.4126"/>
<polygon fill="magenta" stroke="magenta" points="1679.27,-36.1809 1689.37,-31.9092 1684.27,-36.2945 1689.27,-36.4081 1689.27,-36.4081 1689.27,-36.4081 1684.27,-36.2945 1689.16,-40.9069 1679.27,-36.1809 1679.27,-36.1809"/>
</g>
<!-- 53&#45;&gt;3 -->
<g id="edge106" class="edge"><title>53&#45;&gt;3</title>
<path fill="none" stroke="magenta" d="M2445.69,-87.9905C2434.93,-84.8378 2423.5,-81.9332 2412.66,-80 2274.54,-55.3732 1853.57,-41.375 1689.81,-36.7403"/>
<polygon fill="magenta" stroke="magenta" points="1679.4,-36.4485 1689.52,-32.2306 1684.4,-36.5887 1689.4,-36.7288 1689.4,-36.7288 1689.4,-36.7288 1684.4,-36.5887 1689.27,-41.227 1679.4,-36.4485 1679.4,-36.4485"/>
</g>
<!-- 54&#45;&gt;3 -->
<g id="edge107" class="edge"><title>54&#45;&gt;3</title>
<path fill="none" stroke="magenta" d="M2308.44,-87.9948C2299.77,-84.8418 2290.51,-81.9361 2281.66,-80 2170.14,-55.6255 1833.19,-41.9219 1689.6,-37.0528"/>
<polygon fill="magenta" stroke="magenta" points="1679.19,-36.7038 1689.34,-32.5415 1684.19,-36.8714 1689.19,-37.039 1689.19,-37.039 1689.19,-37.039 1684.19,-36.8714 1689.04,-41.5365 1679.19,-36.7038 1679.19,-36.7038"/>
</g>
<!-- 55&#45;&gt;3 -->
<g id="edge108" class="edge"><title>55&#45;&gt;3</title>
<path fill="none" stroke="magenta" d="M2143.83,-87.9266C2132.95,-84.8975 2121.5,-82.058 2110.66,-80 1961.7,-51.7363 1783.62,-41.0078 1689.5,-37.1032"/>
<polygon fill="magenta" stroke="magenta" points="1679.28,-36.6923 1689.45,-32.5976 1684.27,-36.8932 1689.27,-37.094 1689.27,-37.094 1689.27,-37.094 1684.27,-36.8932 1689.09,-41.5904 1679.28,-36.6923 1679.28,-36.6923"/>
</g>
<!-- 56&#45;&gt;3 -->
<g id="edge109" class="edge"><title>56&#45;&gt;3</title>
<path fill="none" stroke="magenta" d="M1981.65,-87.9709C1971.78,-85.0117 1961.46,-82.1873 1951.66,-80 1861.93,-59.9723 1756.29,-47.4047 1689.64,-40.7931"/>
<polygon fill="magenta" stroke="magenta" points="1679.29,-39.7829 1689.68,-36.2754 1684.27,-40.2685 1689.24,-40.7541 1689.24,-40.7541 1689.24,-40.7541 1684.27,-40.2685 1688.81,-45.2329 1679.29,-39.7829 1679.29,-39.7829"/>
</g>
<!-- 13 -->
<g id="node50" class="node"><title>13</title>
<polygon fill="goldenrod" stroke="black" stroke-width="2" points="4126.16,-326.067 4035.16,-326.067 4031.16,-322.067 4031.16,-290.067 4122.16,-290.067 4126.16,-294.067 4126.16,-326.067"/>
<polyline fill="none" stroke="black" stroke-width="2" points="4122.16,-322.067 4031.16,-322.067 "/>
<polyline fill="none" stroke="black" stroke-width="2" points="4122.16,-322.067 4122.16,-290.067 "/>
<polyline fill="none" stroke="black" stroke-width="2" points="4122.16,-322.067 4126.16,-326.067 "/>
<text text-anchor="middle" x="4078.66" y="-304.367" font-family="Times,serif" font-size="14.00">UserId</text>
</g>
<!-- 36 -->
<g id="node51" class="node"><title>36</title>
<polygon fill="gold" stroke="black" stroke-width="2" points="4124.66,-421.939 4032.66,-421.939 4032.66,-417.939 4028.66,-417.939 4028.66,-413.939 4032.66,-413.939 4032.66,-393.939 4028.66,-393.939 4028.66,-389.939 4032.66,-389.939 4032.66,-385.939 4124.66,-385.939 4124.66,-421.939"/>
<polyline fill="none" stroke="black" stroke-width="2" points="4032.66,-417.939 4036.66,-417.939 4036.66,-413.939 4032.66,-413.939 "/>
<polyline fill="none" stroke="black" stroke-width="2" points="4032.66,-393.939 4036.66,-393.939 4036.66,-389.939 4032.66,-389.939 "/>
<text text-anchor="middle" x="4078.66" y="-400.239" font-family="Times,serif" font-size="14.00">unUid</text>
</g>
<!-- 36&#45;&gt;13 -->
<g id="edge89" class="edge"><title>36&#45;&gt;13</title>
<path fill="none" stroke="magenta" d="M4078.66,-385.722C4078.66,-371.96 4078.66,-352.408 4078.66,-336.495"/>
<polygon fill="magenta" stroke="magenta" points="4078.66,-326.176 4083.16,-336.176 4078.66,-331.176 4078.66,-336.176 4078.66,-336.176 4078.66,-336.176 4078.66,-331.176 4074.16,-336.176 4078.66,-326.176 4078.66,-326.176"/>
</g>
<!-- 21 -->
<g id="node52" class="node"><title>21</title>
<polygon fill="gold" stroke="black" stroke-width="2" points="3888.16,-421.939 3695.16,-421.939 3695.16,-385.939 3888.16,-385.939 3888.16,-421.939"/>
<text text-anchor="middle" x="3791.66" y="-400.239" font-family="Times,serif" font-size="14.00">authSettingsFromConfig</text>
</g>
<!-- 21&#45;&gt;16 -->
<g id="edge6" class="edge"><title>21&#45;&gt;16</title>
<path fill="none" stroke="black" d="M3888.4,-386.113C3910.15,-379.41 3932.23,-370.069 3950.66,-357.067 3992.99,-327.202 3985.66,-302.331 4018.66,-262.391 4028.76,-250.159 4040.73,-237.299 4051.09,-226.621"/>
<polygon fill="black" stroke="black" points="4053.8,-228.861 4058.3,-219.27 4048.8,-223.961 4053.8,-228.861"/>
</g>
<!-- 21&#45;&gt;17 -->
<g id="edge7" class="edge"><title>21&#45;&gt;17</title>
<path fill="none" stroke="black" d="M3726.16,-385.836C3700.56,-378.259 3671.26,-368.465 3645.66,-357.067 3563.62,-320.555 3548.71,-300.503 3471.66,-254.391 3455.37,-244.644 3437.41,-233.767 3422.14,-224.475"/>
<polygon fill="black" stroke="black" points="3423.85,-221.42 3413.49,-219.208 3420.21,-227.398 3423.85,-221.42"/>
</g>
<!-- 21&#45;&gt;18 -->
<g id="edge8" class="edge"><title>21&#45;&gt;18</title>
<path fill="none" stroke="black" d="M3773.84,-385.824C3736.67,-350.12 3650.76,-267.606 3607.91,-226.45"/>
<polygon fill="black" stroke="black" points="3610.07,-223.671 3600.43,-219.268 3605.22,-228.719 3610.07,-223.671"/>
</g>
<!-- 21&#45;&gt;19 -->
<g id="edge9" class="edge"><title>21&#45;&gt;19</title>
<path fill="none" stroke="black" d="M3776.59,-385.926C3770.36,-377.787 3763.87,-367.545 3760.66,-357.067 3748.34,-316.833 3752.43,-303.657 3760.66,-262.391 3762.95,-250.87 3767.5,-238.793 3772.09,-228.506"/>
<polygon fill="black" stroke="black" points="3775.35,-229.807 3776.44,-219.269 3769.01,-226.827 3775.35,-229.807"/>
</g>
<!-- 21&#45;&gt;20 -->
<g id="edge10" class="edge"><title>21&#45;&gt;20</title>
<path fill="none" stroke="black" d="M3884.92,-385.799C3900.14,-379.13 3914.29,-369.883 3924.66,-357.067 3954.03,-320.776 3952.46,-263.155 3948.3,-229.373"/>
<polygon fill="black" stroke="black" points="3951.75,-228.72 3946.9,-219.3 3944.81,-229.688 3951.75,-228.72"/>
</g>
<!-- 23 -->
<g id="node54" class="node"><title>23</title>
<polygon fill="goldenrod" stroke="black" stroke-width="2" points="3915.66,-326.067 3769.66,-326.067 3769.66,-290.067 3915.66,-290.067 3915.66,-326.067"/>
<text text-anchor="middle" x="3842.66" y="-304.367" font-family="Times,serif" font-size="14.00">defAuthSettings</text>
</g>
<!-- 21&#45;&gt;23 -->
<g id="edge11" class="edge"><title>21&#45;&gt;23</title>
<path fill="none" stroke="black" d="M3801.01,-385.722C3808.7,-371.563 3819.73,-351.275 3828.5,-335.127"/>
<polygon fill="black" stroke="black" points="3831.66,-336.634 3833.36,-326.176 3825.51,-333.292 3831.66,-336.634"/>
</g>
<!-- 22 -->
<g id="node53" class="node"><title>22</title>
<polygon fill="gold" stroke="black" stroke-width="2" points="931.657,-421.939 789.657,-421.939 789.657,-385.939 931.657,-385.939 931.657,-421.939"/>
<text text-anchor="middle" x="860.657" y="-400.239" font-family="Times,serif" font-size="14.00">checkPassword</text>
</g>
<!-- 22&#45;&gt;5 -->
<g id="edge12" class="edge"><title>22&#45;&gt;5</title>
<path fill="none" stroke="black" stroke-width="2.09861" d="M893.921,-385.774C909.313,-377.524 927.684,-367.234 943.657,-357.067 955.658,-349.429 968.397,-340.398 979.451,-332.242"/>
<polygon fill="black" stroke="black" stroke-width="2.09861" points="981.61,-334.998 987.534,-326.214 977.425,-329.387 981.61,-334.998"/>
</g>
<!-- 22&#45;&gt;7 -->
<g id="edge13" class="edge"><title>22&#45;&gt;7</title>
<path fill="none" stroke="black" stroke-width="2.09861" d="M863.775,-385.722C866.291,-371.828 869.876,-352.031 872.773,-336.037"/>
<polygon fill="black" stroke="black" stroke-width="2.09861" points="876.22,-336.639 874.558,-326.176 869.332,-335.392 876.22,-336.639"/>
</g>
<!-- 57 -->
<g id="node60" class="node"><title>57</title>
<polygon fill="goldenrod" stroke="black" stroke-width="2" points="802.157,-326.067 711.157,-326.067 711.157,-290.067 802.157,-290.067 802.157,-326.067"/>
<text text-anchor="middle" x="756.657" y="-304.367" font-family="Times,serif" font-size="14.00">verify</text>
</g>
<!-- 22&#45;&gt;57 -->
<g id="edge14" class="edge"><title>22&#45;&gt;57</title>
<path fill="none" stroke="black" d="M840.81,-385.617C831.075,-377.074 819.203,-366.584 808.657,-357.067 800.224,-349.458 791.1,-341.084 782.884,-333.49"/>
<polygon fill="black" stroke="black" points="785.052,-330.728 775.337,-326.5 780.295,-335.863 785.052,-330.728"/>
</g>
<!-- 23&#45;&gt;2 -->
<g id="edge15" class="edge"><title>23&#45;&gt;2</title>
<path fill="none" stroke="black" d="M3898.78,-290.007C3933.08,-280.288 3978.02,-268.804 4018.66,-262.391 4032.29,-260.239 4133.21,-264.463 4142.66,-254.391 4170.44,-224.76 4168.39,-194.43 4142.66,-163 4117.41,-132.164 4012.93,-117.934 3939.51,-111.638"/>
<polygon fill="black" stroke="black" points="3939.63,-108.136 3929.37,-110.802 3939.05,-115.112 3939.63,-108.136"/>
</g>
<!-- 23&#45;&gt;16 -->
<g id="edge16" class="edge"><title>23&#45;&gt;16</title>
<path fill="none" stroke="black" d="M3894.35,-290.01C3920.46,-281.507 3952.67,-271.188 3981.66,-262.391 3994.04,-258.633 3998.14,-260.296 4009.66,-254.391 4024.23,-246.919 4038.7,-235.979 4050.36,-226.043"/>
<polygon fill="black" stroke="black" points="4052.75,-228.607 4057.95,-219.379 4048.13,-223.347 4052.75,-228.607"/>
</g>
<!-- 23&#45;&gt;17 -->
<g id="edge17" class="edge"><title>23&#45;&gt;17</title>
<path fill="none" stroke="black" d="M3769.6,-295.288C3709.34,-285.771 3621.57,-272.367 3544.66,-262.391 3512.29,-258.193 3502.56,-264.885 3471.66,-254.391 3451.84,-247.663 3431.74,-235.8 3415.95,-225.082"/>
<polygon fill="black" stroke="black" points="3417.86,-222.145 3407.66,-219.285 3413.85,-227.882 3417.86,-222.145"/>
</g>
<!-- 23&#45;&gt;18 -->
<g id="edge18" class="edge"><title>23&#45;&gt;18</title>
<path fill="none" stroke="black" d="M3790.46,-290.039C3761.65,-280.285 3725.38,-267.42 3693.66,-254.391 3670.94,-245.061 3646.16,-233.543 3625.79,-223.703"/>
<polygon fill="black" stroke="black" points="3627.29,-220.539 3616.76,-219.314 3624.22,-226.834 3627.29,-220.539"/>
</g>
<!-- 23&#45;&gt;19 -->
<g id="edge19" class="edge"><title>23&#45;&gt;19</title>
<path fill="none" stroke="black" d="M3833.24,-289.75C3824.17,-273.051 3810.31,-247.559 3799.89,-228.38"/>
<polygon fill="black" stroke="black" points="3802.93,-226.653 3795.08,-219.539 3796.78,-229.996 3802.93,-226.653"/>
</g>
<!-- 23&#45;&gt;20 -->
<g id="edge20" class="edge"><title>23&#45;&gt;20</title>
<path fill="none" stroke="black" d="M3859.33,-289.75C3875.86,-272.596 3901.31,-246.162 3919.94,-226.826"/>
<polygon fill="black" stroke="black" points="3922.54,-229.17 3926.95,-219.539 3917.5,-224.314 3922.54,-229.17"/>
</g>
<!-- 24 -->
<g id="node55" class="node"><title>24</title>
<polygon fill="gold" stroke="black" stroke-width="2" points="1773.66,-219.196 1645.66,-219.196 1645.66,-183.196 1773.66,-183.196 1773.66,-219.196"/>
<text text-anchor="middle" x="1709.66" y="-197.496" font-family="Times,serif" font-size="14.00">defAuthUser</text>
</g>
<!-- 24&#45;&gt;3 -->
<g id="edge21" class="edge"><title>24&#45;&gt;3</title>
<path fill="none" stroke="black" d="M1773.7,-199.539C2063.15,-196.423 3236.3,-182.133 3262.66,-155 3285.88,-131.089 3285.9,-103.891 3262.66,-80 3234.78,-51.3458 1993.01,-38.3235 1689.88,-35.5682"/>
<polygon fill="black" stroke="black" points="1689.52,-32.065 1679.49,-35.4745 1689.46,-39.0647 1689.52,-32.065"/>
</g>
<!-- 24&#45;&gt;37 -->
<g id="edge22" class="edge"><title>24&#45;&gt;37</title>
<path fill="none" stroke="black" d="M1739,-183.102C1764.97,-167.976 1803.04,-145.804 1831.39,-129.29"/>
<polygon fill="black" stroke="black" points="1833.35,-132.2 1840.23,-124.143 1829.82,-126.152 1833.35,-132.2"/>
</g>
<!-- 24&#45;&gt;38 -->
<g id="edge23" class="edge"><title>24&#45;&gt;38</title>
<path fill="none" stroke="black" d="M1709.66,-183.102C1709.66,-169.525 1709.66,-150.271 1709.66,-134.527"/>
<polygon fill="black" stroke="black" points="1713.16,-134.301 1709.66,-124.301 1706.16,-134.301 1713.16,-134.301"/>
</g>
<!-- 24&#45;&gt;39 -->
<g id="edge24" class="edge"><title>24&#45;&gt;39</title>
<path fill="none" stroke="black" d="M1678.29,-183.102C1650.42,-167.911 1609.5,-145.612 1579.16,-129.076"/>
<polygon fill="black" stroke="black" points="1580.57,-125.855 1570.11,-124.143 1577.22,-132.001 1580.57,-125.855"/>
</g>
<!-- 24&#45;&gt;40 -->
<g id="edge25" class="edge"><title>24&#45;&gt;40</title>
<path fill="none" stroke="black" d="M1647.43,-183.181C1618.52,-175.886 1583.55,-167.926 1551.66,-163 1504.97,-155.787 1491.09,-167.971 1445.66,-155 1425.63,-149.283 1404.93,-138.942 1388.25,-129.319"/>
<polygon fill="black" stroke="black" points="1389.81,-126.176 1379.43,-124.081 1386.24,-132.195 1389.81,-126.176"/>
</g>
<!-- 24&#45;&gt;41 -->
<g id="edge26" class="edge"><title>24&#45;&gt;41</title>
<path fill="none" stroke="black" d="M1650.16,-183.163C1620.78,-175.529 1584.63,-167.291 1551.66,-163 1519.69,-158.841 1292.17,-165.39 1261.66,-155 1246.76,-149.929 1232.37,-140.225 1220.85,-130.862"/>
<polygon fill="black" stroke="black" points="1222.88,-127.997 1213,-124.176 1218.34,-133.325 1222.88,-127.997"/>
</g>
<!-- 24&#45;&gt;42 -->
<g id="edge27" class="edge"><title>24&#45;&gt;42</title>
<path fill="none" stroke="black" d="M1650.55,-183.137C1621.1,-175.445 1584.79,-167.166 1551.66,-163 1505.13,-157.149 1175.26,-165.929 1129.66,-155 1107.67,-149.731 1084.85,-139.073 1066.67,-129.135"/>
<polygon fill="black" stroke="black" points="1068.04,-125.893 1057.61,-124.037 1064.61,-131.992 1068.04,-125.893"/>
</g>
<!-- 24&#45;&gt;43 -->
<g id="edge28" class="edge"><title>24&#45;&gt;43</title>
<path fill="none" stroke="black" d="M1650.94,-183.147C1621.42,-175.407 1584.94,-167.083 1551.66,-163 1517.47,-158.806 963.832,-167.303 931.657,-155 918.767,-150.071 906.891,-140.651 897.5,-131.452"/>
<polygon fill="black" stroke="black" points="899.986,-128.988 890.528,-124.212 894.943,-133.843 899.986,-128.988"/>
</g>
<!-- 24&#45;&gt;44 -->
<g id="edge29" class="edge"><title>24&#45;&gt;44</title>
<path fill="none" stroke="black" d="M1650.94,-183.12C1621.43,-175.373 1584.95,-167.051 1551.66,-163 1511.4,-158.101 860.798,-165.625 821.657,-155 802.822,-149.887 783.779,-139.527 768.598,-129.736"/>
<polygon fill="black" stroke="black" points="770.396,-126.728 760.137,-124.081 766.506,-132.548 770.396,-126.728"/>
</g>
<!-- 24&#45;&gt;45 -->
<g id="edge30" class="edge"><title>24&#45;&gt;45</title>
<path fill="none" stroke="black" d="M1651.31,-183.188C1621.74,-175.406 1585.09,-167.033 1551.66,-163 1502.13,-157.025 701.785,-168.145 653.657,-155 634.998,-149.904 616.178,-139.545 601.188,-129.751"/>
<polygon fill="black" stroke="black" points="603.076,-126.803 592.834,-124.094 599.151,-132.599 603.076,-126.803"/>
</g>
<!-- 24&#45;&gt;46 -->
<g id="edge31" class="edge"><title>24&#45;&gt;46</title>
<path fill="none" stroke="black" d="M1651.32,-183.168C1621.74,-175.381 1585.09,-167.01 1551.66,-163 1492.96,-155.961 545.078,-169.041 487.657,-155 466.781,-149.895 445.304,-139.394 428.158,-129.511"/>
<polygon fill="black" stroke="black" points="429.492,-126.232 419.109,-124.123 425.911,-132.246 429.492,-126.232"/>
</g>
<!-- 24&#45;&gt;47 -->
<g id="edge32" class="edge"><title>24&#45;&gt;47</title>
<path fill="none" stroke="black" d="M1651.32,-183.152C1621.74,-175.361 1585.1,-166.991 1551.66,-163 1517.12,-158.878 332.696,-165.861 299.657,-155 284.602,-150.051 270.103,-140.264 258.549,-130.81"/>
<polygon fill="black" stroke="black" points="260.556,-127.921 250.69,-124.06 255.995,-133.231 260.556,-127.921"/>
</g>
<!-- 24&#45;&gt;48 -->
<g id="edge33" class="edge"><title>24&#45;&gt;48</title>
<path fill="none" stroke="black" d="M1773.7,-199.964C2029.54,-198.785 2970.66,-191.954 3098.66,-155 3116.77,-149.771 3135.05,-139.645 3149.74,-130.036"/>
<polygon fill="black" stroke="black" points="3152.08,-132.679 3158.39,-124.169 3148.15,-126.886 3152.08,-132.679"/>
</g>
<!-- 24&#45;&gt;49 -->
<g id="edge34" class="edge"><title>24&#45;&gt;49</title>
<path fill="none" stroke="black" d="M1773.98,-200.14C2015.13,-199.626 2857.57,-194.96 2970.66,-155 2985.2,-149.861 2999.17,-140.149 3010.32,-130.798"/>
<polygon fill="black" stroke="black" points="3012.72,-133.354 3017.92,-124.123 3008.1,-128.096 3012.72,-133.354"/>
</g>
<!-- 24&#45;&gt;50 -->
<g id="edge35" class="edge"><title>24&#45;&gt;50</title>
<path fill="none" stroke="black" d="M1651.32,-183.143C1621.74,-175.35 1585.1,-166.981 1551.66,-163 1513.48,-158.455 204.523,-165.903 167.657,-155 150.753,-150.001 134.029,-139.933 120.677,-130.303"/>
<polygon fill="black" stroke="black" points="122.518,-127.308 112.422,-124.095 118.311,-132.903 122.518,-127.308"/>
</g>
<!-- 24&#45;&gt;51 -->
<g id="edge36" class="edge"><title>24&#45;&gt;51</title>
<path fill="none" stroke="black" d="M1773.99,-199.006C1989.66,-194.805 2678.94,-179.585 2775.66,-155 2797.23,-149.515 2819.65,-138.951 2837.59,-129.127"/>
<polygon fill="black" stroke="black" points="2839.54,-132.046 2846.54,-124.088 2836.11,-125.947 2839.54,-132.046"/>
</g>
<!-- 24&#45;&gt;52 -->
<g id="edge37" class="edge"><title>24&#45;&gt;52</title>
<path fill="none" stroke="black" d="M1773.96,-200.11C1947.92,-199.361 2424.86,-193.728 2576.66,-155 2598.69,-149.38 2621.66,-138.735 2640.03,-128.896"/>
<polygon fill="black" stroke="black" points="2641.84,-131.893 2648.92,-124.006 2638.47,-125.76 2641.84,-131.893"/>
</g>
<!-- 24&#45;&gt;53 -->
<g id="edge38" class="edge"><title>24&#45;&gt;53</title>
<path fill="none" stroke="black" d="M1773.7,-199.843C1923.75,-198.412 2294.32,-191.204 2412.66,-155 2430.55,-149.525 2448.69,-139.475 2463.34,-129.981"/>
<polygon fill="black" stroke="black" points="2465.63,-132.664 2471.98,-124.187 2461.73,-126.85 2465.63,-132.664"/>
</g>
<!-- 24&#45;&gt;54 -->
<g id="edge39" class="edge"><title>24&#45;&gt;54</title>
<path fill="none" stroke="black" d="M1774.1,-199.486C1903.43,-197.348 2190.08,-188.825 2281.66,-155 2296.31,-149.588 2310.58,-139.936 2322.08,-130.699"/>
<polygon fill="black" stroke="black" points="2324.52,-133.221 2329.93,-124.113 2320.02,-127.858 2324.52,-133.221"/>
</g>
<!-- 24&#45;&gt;55 -->
<g id="edge40" class="edge"><title>24&#45;&gt;55</title>
<path fill="none" stroke="black" d="M1773.79,-200.688C1854.35,-199.575 1995.92,-191.835 2110.66,-155 2129.17,-149.058 2148.2,-138.927 2163.63,-129.5"/>
<polygon fill="black" stroke="black" points="2165.67,-132.352 2172.28,-124.067 2161.95,-126.425 2165.67,-132.352"/>
</g>
<!-- 24&#45;&gt;56 -->
<g id="edge41" class="edge"><title>24&#45;&gt;56</title>
<path fill="none" stroke="black" d="M1773.75,-194.5C1823.53,-188.598 1893.61,-177.016 1951.66,-155 1968.46,-148.626 1985.73,-138.759 1999.9,-129.624"/>
<polygon fill="black" stroke="black" points="2001.89,-132.508 2008.29,-124.069 1998.02,-126.671 2001.89,-132.508"/>
</g>
<!-- 25 -->
<g id="node56" class="node"><title>25</title>
<polygon fill="goldenrod" stroke="black" stroke-width="2" points="945.657,-219.196 803.657,-219.196 803.657,-183.196 945.657,-183.196 945.657,-219.196"/>
<text text-anchor="middle" x="874.657" y="-197.496" font-family="Times,serif" font-size="14.00">defaultStrength</text>
</g>
<!-- 26 -->
<g id="node57" class="node"><title>26</title>
<polygon fill="goldenrod" stroke="black" stroke-width="2" points="1183.16,-326.067 1084.16,-326.067 1084.16,-290.067 1183.16,-290.067 1183.16,-326.067"/>
<text text-anchor="middle" x="1133.66" y="-304.367" font-family="Times,serif" font-size="14.00">encrypt</text>
</g>
<!-- 26&#45;&gt;25 -->
<g id="edge42" class="edge"><title>26&#45;&gt;25</title>
<path fill="none" stroke="black" d="M1116.12,-289.792C1105.91,-280.547 1092.37,-269.612 1078.66,-262.391 1040.41,-242.259 994.498,-227.953 955.92,-218.354"/>
<polygon fill="black" stroke="black" points="956.307,-214.847 945.764,-215.893 954.658,-221.65 956.307,-214.847"/>
</g>
<!-- 27 -->
<g id="node58" class="node"><title>27</title>
<polygon fill="gold" stroke="black" stroke-width="2" points="1101.16,-421.939 950.157,-421.939 950.157,-385.939 1101.16,-385.939 1101.16,-421.939"/>
<text text-anchor="middle" x="1025.66" y="-400.239" font-family="Times,serif" font-size="14.00">encryptPassword</text>
</g>
<!-- 27&#45;&gt;5 -->
<g id="edge43" class="edge"><title>27&#45;&gt;5</title>
<path fill="none" stroke="black" d="M1022.72,-385.722C1020.35,-371.828 1016.98,-352.031 1014.25,-336.037"/>
<polygon fill="black" stroke="black" points="1017.7,-335.446 1012.57,-326.176 1010.8,-336.622 1017.7,-335.446"/>
</g>
<!-- 27&#45;&gt;7 -->
<g id="edge44" class="edge"><title>27&#45;&gt;7</title>
<path fill="none" stroke="black" stroke-width="1.69315" d="M992.811,-385.726C977.608,-377.465 959.456,-367.181 943.657,-357.067 931.676,-349.398 918.94,-340.36 907.885,-332.208"/>
<polygon fill="black" stroke="black" stroke-width="1.69315" points="909.909,-329.352 899.799,-326.184 905.727,-334.965 909.909,-329.352"/>
</g>
<!-- 27&#45;&gt;26 -->
<g id="edge45" class="edge"><title>27&#45;&gt;26</title>
<path fill="none" stroke="black" d="M1045.56,-385.75C1055.51,-377.147 1067.73,-366.567 1078.66,-357.067 1087.66,-349.238 1097.49,-340.674 1106.31,-332.974"/>
<polygon fill="black" stroke="black" points="1108.84,-335.407 1114.07,-326.193 1104.24,-330.134 1108.84,-335.407"/>
</g>
<!-- 31 -->
<g id="node59" class="node"><title>31</title>
<polygon fill="gold" stroke="black" stroke-width="2" points="647.157,-421.939 522.157,-421.939 522.157,-385.939 647.157,-385.939 647.157,-421.939"/>
<text text-anchor="middle" x="584.657" y="-400.239" font-family="Times,serif" font-size="14.00">setPassword</text>
</g>
<!-- 31&#45;&gt;50 -->
<g id="edge53" class="edge"><title>31&#45;&gt;50</title>
<path fill="none" stroke="black" d="M578.11,-385.744C565.199,-352.517 536.111,-281.113 517.657,-262.391 447.696,-191.417 413.056,-188.276 316.657,-163 252.508,-146.18 230.783,-175.324 167.657,-155 150.999,-149.637 134.407,-139.631 121.081,-130.137"/>
<polygon fill="black" stroke="black" points="122.947,-127.164 112.828,-124.026 118.782,-132.789 122.947,-127.164"/>
</g>
<!-- 31&#45;&gt;7 -->
<g id="edge51" class="edge"><title>31&#45;&gt;7</title>
<path fill="none" stroke="black" d="M647.206,-397.385C693.804,-391.572 758.172,-379.939 810.657,-357.067 824.801,-350.904 838.917,-341.417 850.519,-332.499"/>
<polygon fill="black" stroke="black" points="852.839,-335.126 858.487,-326.162 848.481,-329.647 852.839,-335.126"/>
</g>
<!-- 31&#45;&gt;25 -->
<g id="edge52" class="edge"><title>31&#45;&gt;25</title>
<path fill="none" stroke="black" d="M580.311,-385.775C574.032,-356.556 566.251,-296.963 596.657,-262.391 622.237,-233.306 720.856,-217.263 793.395,-209.2"/>
<polygon fill="black" stroke="black" points="793.88,-212.668 803.447,-208.115 793.129,-205.708 793.88,-212.668"/>
</g>
</g>
</svg>
