<?xml version="1.0" encoding="UTF-8" standalone="no"?>
<!DOCTYPE svg PUBLIC "-//W3C//DTD SVG 1.1//EN"
 "http://www.w3.org/Graphics/SVG/1.1/DTD/svg11.dtd">
<!-- Generated by graphviz version 2.38.0 (20140413.2041)
 -->
<!-- Title: Diagram of: Snap.StarterTH Pages: 1 -->
<svg width="131pt" height="260pt"
 viewBox="0.00 0.00 131.00 260.00" xmlns="http://www.w3.org/2000/svg" xmlns:xlink="http://www.w3.org/1999/xlink">
<g id="graph0" class="graph" transform="scale(1 1) rotate(0) translate(4 256)">
<title>Diagram of: Snap.StarterTH</title>
<polygon fill="white" stroke="none" points="-4,4 -4,-256 127,-256 127,4 -4,4"/>
<!-- 1 -->
<g id="node1" class="node"><title>1</title>
<polygon fill="gold" stroke="black" stroke-width="2" points="112,-252 -7.10543e-15,-252 -7.10543e-15,-216 112,-216 112,-252"/>
<text text-anchor="middle" x="56" y="-230.3" font-family="Times,serif" font-size="14.00">buildData</text>
</g>
<!-- 2 -->
<g id="node2" class="node"><title>2</title>
<polygon fill="goldenrod" stroke="black" stroke-width="2" points="97.5,-180 14.5,-180 14.5,-144 97.5,-144 97.5,-180"/>
<text text-anchor="middle" x="56" y="-158.3" font-family="Times,serif" font-size="14.00">dirQ</text>
</g>
<!-- 1&#45;&gt;2 -->
<g id="edge1" class="edge"><title>1&#45;&gt;2</title>
<path fill="none" stroke="chartreuse" d="M56,-215.697C56,-207.983 56,-198.712 56,-190.112"/>
<polygon fill="chartreuse" stroke="chartreuse" points="59.5001,-190.104 56,-180.104 52.5001,-190.104 59.5001,-190.104"/>
</g>
<!-- 4 -->
<g id="node4" class="node"><title>4</title>
<polygon fill="goldenrod" stroke="black" stroke-width="2" points="109.5,-108 2.5,-108 2.5,-72 109.5,-72 109.5,-108"/>
<text text-anchor="middle" x="56" y="-86.3" font-family="Times,serif" font-size="14.00">readTree</text>
</g>
<!-- 2&#45;&gt;4 -->
<g id="edge2" class="edge"><title>2&#45;&gt;4</title>
<path fill="none" stroke="chartreuse" d="M56,-143.697C56,-135.983 56,-126.712 56,-118.112"/>
<polygon fill="chartreuse" stroke="chartreuse" points="59.5001,-118.104 56,-108.104 52.5001,-118.104 59.5001,-118.104"/>
</g>
<!-- 3 -->
<g id="node3" class="node"><title>3</title>
<polygon fill="goldenrod" stroke="black" stroke-width="2" points="105,-36 7,-36 7,-0 105,-0 105,-36"/>
<text text-anchor="middle" x="56" y="-14.3" font-family="Times,serif" font-size="14.00">getDirs</text>
</g>
<!-- 3&#45;&gt;3 -->
<g id="edge3" class="edge"><title>3&#45;&gt;3</title>
<path fill="none" stroke="black" d="M105.08,-31.0641C115.486,-29.7375 123,-25.3828 123,-18 123,-13.2704 119.916,-9.78351 114.964,-7.53937"/>
<polygon fill="black" stroke="black" points="115.642,-4.09867 105.08,-4.93588 113.859,-10.8678 115.642,-4.09867"/>
</g>
<!-- 4&#45;&gt;3 -->
<g id="edge4" class="edge"><title>4&#45;&gt;3</title>
<path fill="none" stroke="chartreuse" d="M56,-71.6966C56,-63.9827 56,-54.7125 56,-46.1124"/>
<polygon fill="chartreuse" stroke="chartreuse" points="59.5001,-46.1043 56,-36.1043 52.5001,-46.1044 59.5001,-46.1043"/>
</g>
</g>
</svg>
