<?xml version="1.0" encoding="UTF-8" standalone="no"?>
<!DOCTYPE svg PUBLIC "-//W3C//DTD SVG 1.1//EN"
 "http://www.w3.org/Graphics/SVG/1.1/DTD/svg11.dtd">
<!-- Generated by graphviz version 2.38.0 (20140413.2041)
 -->
<!-- Title: Core of Snap.Snaplet.Auth.Backends.JsonFile Pages: 1 -->
<svg width="564pt" height="250pt"
 viewBox="0.00 0.00 564.00 249.74" xmlns="http://www.w3.org/2000/svg" xmlns:xlink="http://www.w3.org/1999/xlink">
<g id="graph0" class="graph" transform="scale(1 1) rotate(0) translate(4 245.744)">
<title>Core of Snap.Snaplet.Auth.Backends.JsonFile</title>
<polygon fill="white" stroke="none" points="-4,4 -4,-245.744 560,-245.744 560,4 -4,4"/>
<g id="clust1" class="cluster"><title>cluster_Class_FromJSON</title>
<path fill="#ffc1c1" stroke="black" d="M20,-8C20,-8 262,-8 262,-8 268,-8 274,-14 274,-20 274,-20 274,-221.744 274,-221.744 274,-227.744 268,-233.744 262,-233.744 262,-233.744 20,-233.744 20,-233.744 14,-233.744 8,-227.744 8,-221.744 8,-221.744 8,-20 8,-20 8,-14 14,-8 20,-8"/>
<text text-anchor="middle" x="141" y="-218.544" font-family="Times,serif" font-size="14.00">Class: FromJSON</text>
</g>
<g id="clust2" class="cluster"><title>cluster_Class_FromJSON_Data_UserIdCache</title>
<path fill="#c6e2ff" stroke="black" d="M54,-119.352C54,-119.352 228,-119.352 228,-119.352 234,-119.352 240,-125.352 240,-131.352 240,-131.352 240,-190.744 240,-190.744 240,-196.744 234,-202.744 228,-202.744 228,-202.744 54,-202.744 54,-202.744 48,-202.744 42,-196.744 42,-190.744 42,-190.744 42,-131.352 42,-131.352 42,-125.352 48,-119.352 54,-119.352"/>
<text text-anchor="middle" x="141" y="-187.544" font-family="Times,serif" font-size="14.00">Instance for: UserIdCache</text>
</g>
<g id="clust3" class="cluster"><title>cluster_Class_ToJSON</title>
<path fill="#ffc1c1" stroke="black" d="M294,-8C294,-8 536,-8 536,-8 542,-8 548,-14 548,-20 548,-20 548,-221.744 548,-221.744 548,-227.744 542,-233.744 536,-233.744 536,-233.744 294,-233.744 294,-233.744 288,-233.744 282,-227.744 282,-221.744 282,-221.744 282,-20 282,-20 282,-14 288,-8 294,-8"/>
<text text-anchor="middle" x="415" y="-218.544" font-family="Times,serif" font-size="14.00">Class: ToJSON</text>
</g>
<g id="clust4" class="cluster"><title>cluster_Class_ToJSON_Data_UserIdCache</title>
<path fill="#c6e2ff" stroke="black" d="M342,-119.352C342,-119.352 488,-119.352 488,-119.352 494,-119.352 500,-125.352 500,-131.352 500,-131.352 500,-190.744 500,-190.744 500,-196.744 494,-202.744 488,-202.744 488,-202.744 342,-202.744 342,-202.744 336,-202.744 330,-196.744 330,-190.744 330,-190.744 330,-131.352 330,-131.352 330,-125.352 336,-119.352 342,-119.352"/>
<text text-anchor="middle" x="415" y="-187.544" font-family="Times,serif" font-size="14.00">Instance for: UserIdCache</text>
</g>
<!-- 22 -->
<g id="node1" class="node"><title>22</title>
<polygon fill="bisque" stroke="black" stroke-width="2" points="232.157,-140.272 232.157,-158.823 178.759,-171.941 103.241,-171.941 49.8426,-158.823 49.8426,-140.272 103.241,-127.155 178.759,-127.155 232.157,-140.272"/>
<text text-anchor="middle" x="141" y="-145.848" font-family="Times,serif" font-size="14.00">parseJSON</text>
</g>
<!-- 31 -->
<g id="node2" class="node"><title>31</title>
<polygon fill="khaki" stroke="black" stroke-dasharray="1,5" points="261.858,-39.6615 261.858,-67.6908 191.061,-87.5105 90.9389,-87.5105 20.1417,-67.6908 20.1417,-39.6615 90.9389,-19.8418 191.061,-19.8418 261.858,-39.6615"/>
<polygon fill="none" stroke="black" stroke-dasharray="1,5" points="265.856,-36.609 265.856,-70.7433 191.607,-91.5293 90.3926,-91.5293 16.144,-70.7433 16.144,-36.609 90.3926,-15.823 191.607,-15.823 265.856,-36.609"/>
<text text-anchor="middle" x="141" y="-57.4761" font-family="Times,serif" font-size="14.00">Unknown Module</text>
<text text-anchor="middle" x="141" y="-42.4761" font-family="Times,serif" font-size="14.00">parseJSON</text>
</g>
<!-- 22&#45;&gt;31 -->
<g id="edge1" class="edge"><title>22&#45;&gt;31</title>
<path fill="none" stroke="chartreuse" d="M135.239,-127.247C134.577,-119.544 134.247,-110.511 134.25,-101.485"/>
<polygon fill="chartreuse" stroke="chartreuse" points="137.751,-101.418 134.395,-91.3685 130.752,-101.317 137.751,-101.418"/>
</g>
<!-- 31&#45;&gt;22 -->
<g id="edge3" class="edge"><title>31&#45;&gt;22</title>
<path fill="none" stroke="navy" d="M147.605,-91.3685C147.954,-103.525 147.673,-116.645 146.761,-127.247"/>
</g>
<!-- 26 -->
<g id="node3" class="node"><title>26</title>
<polygon fill="bisque" stroke="black" stroke-width="2" points="492.105,-140.272 492.105,-158.823 446.938,-171.941 383.062,-171.941 337.895,-158.823 337.895,-140.272 383.062,-127.155 446.938,-127.155 492.105,-140.272"/>
<text text-anchor="middle" x="415" y="-145.848" font-family="Times,serif" font-size="14.00">toJSON</text>
</g>
<!-- 32 -->
<g id="node4" class="node"><title>32</title>
<polygon fill="khaki" stroke="black" stroke-dasharray="1,5" points="535.858,-39.6615 535.858,-67.6908 465.061,-87.5105 364.939,-87.5105 294.142,-67.6908 294.142,-39.6615 364.939,-19.8418 465.061,-19.8418 535.858,-39.6615"/>
<polygon fill="none" stroke="black" stroke-dasharray="1,5" points="539.856,-36.609 539.856,-70.7433 465.607,-91.5293 364.393,-91.5293 290.144,-70.7433 290.144,-36.609 364.393,-15.823 465.607,-15.823 539.856,-36.609"/>
<text text-anchor="middle" x="415" y="-57.4761" font-family="Times,serif" font-size="14.00">Unknown Module</text>
<text text-anchor="middle" x="415" y="-42.4761" font-family="Times,serif" font-size="14.00">toJSON</text>
</g>
<!-- 26&#45;&gt;32 -->
<g id="edge2" class="edge"><title>26&#45;&gt;32</title>
<path fill="none" stroke="chartreuse" d="M409.239,-127.247C408.577,-119.544 408.247,-110.511 408.25,-101.485"/>
<polygon fill="chartreuse" stroke="chartreuse" points="411.751,-101.418 408.395,-91.3685 404.752,-101.317 411.751,-101.418"/>
</g>
<!-- 32&#45;&gt;26 -->
<g id="edge4" class="edge"><title>32&#45;&gt;26</title>
<path fill="none" stroke="navy" d="M421.605,-91.3685C421.954,-103.525 421.673,-116.645 420.761,-127.247"/>
</g>
</g>
</svg>
