<?xml version="1.0" encoding="UTF-8" standalone="no"?>
<!DOCTYPE svg PUBLIC "-//W3C//DTD SVG 1.1//EN"
 "http://www.w3.org/Graphics/SVG/1.1/DTD/svg11.dtd">
<!-- Generated by graphviz version 2.38.0 (20140413.2041)
 -->
<!-- Title: Diagram of: Snap.Snaplet.Internal.LensT Pages: 1 -->
<svg width="851pt" height="338pt"
 viewBox="0.00 0.00 850.68 337.74" xmlns="http://www.w3.org/2000/svg" xmlns:xlink="http://www.w3.org/1999/xlink">
<g id="graph0" class="graph" transform="scale(1 1) rotate(0) translate(4 333.744)">
<title>Diagram of: Snap.Snaplet.Internal.LensT</title>
<polygon fill="white" stroke="none" points="-4,4 -4,-333.744 846.685,-333.744 846.685,4 -4,4"/>
<g id="clust1" class="cluster"><title>cluster_Class_MonadState</title>
<path fill="#ffc1c1" stroke="black" d="M294.5,-8C294.5,-8 804.5,-8 804.5,-8 810.5,-8 816.5,-14 816.5,-20 816.5,-20 816.5,-201.744 816.5,-201.744 816.5,-207.744 810.5,-213.744 804.5,-213.744 804.5,-213.744 294.5,-213.744 294.5,-213.744 288.5,-213.744 282.5,-207.744 282.5,-201.744 282.5,-201.744 282.5,-20 282.5,-20 282.5,-14 288.5,-8 294.5,-8"/>
<text text-anchor="middle" x="549.5" y="-198.544" font-family="Times,serif" font-size="14.00">Class: MonadState</text>
</g>
<g id="clust2" class="cluster"><title>cluster_Class_MonadState_Data_vLensTbvbm</title>
<path fill="#c6e2ff" stroke="black" d="M429.5,-16C429.5,-16 670.5,-16 670.5,-16 676.5,-16 682.5,-22 682.5,-28 682.5,-28 682.5,-87.3913 682.5,-87.3913 682.5,-93.3913 676.5,-99.3913 670.5,-99.3913 670.5,-99.3913 429.5,-99.3913 429.5,-99.3913 423.5,-99.3913 417.5,-93.3913 417.5,-87.3913 417.5,-87.3913 417.5,-28 417.5,-28 417.5,-22 423.5,-16 429.5,-16"/>
<text text-anchor="middle" x="550" y="-84.1913" font-family="Times,serif" font-size="14.00">Instance for: v (LensT b v b m)</text>
</g>
<g id="clust3" class="cluster"><title>cluster_Data_LensT</title>
<path fill="papayawhip" stroke="black" d="M178.5,-119.067C178.5,-119.067 262.5,-119.067 262.5,-119.067 268.5,-119.067 274.5,-125.067 274.5,-131.067 274.5,-131.067 274.5,-182.067 274.5,-182.067 274.5,-188.067 268.5,-194.067 262.5,-194.067 262.5,-194.067 178.5,-194.067 178.5,-194.067 172.5,-194.067 166.5,-188.067 166.5,-182.067 166.5,-182.067 166.5,-131.067 166.5,-131.067 166.5,-125.067 172.5,-119.067 178.5,-119.067"/>
<text text-anchor="middle" x="220.5" y="-178.867" font-family="Times,serif" font-size="14.00">Data: LensT</text>
</g>
<!-- 2 -->
<g id="node1" class="node"><title>2</title>
<polygon fill="bisque" stroke="black" stroke-width="2" points="539.805,-36.9201 539.805,-55.4711 506.237,-68.5887 458.763,-68.5887 425.195,-55.4711 425.195,-36.9201 458.763,-23.8026 506.237,-23.8026 539.805,-36.9201"/>
<text text-anchor="middle" x="482.5" y="-42.4956" font-family="Times,serif" font-size="14.00">get</text>
</g>
<!-- 4 -->
<g id="node7" class="node"><title>4</title>
<polygon fill="goldenrod" stroke="black" stroke-width="2" points="346.5,-257.744 264.5,-257.744 264.5,-221.744 346.5,-221.744 346.5,-257.744"/>
<text text-anchor="middle" x="305.5" y="-236.044" font-family="Times,serif" font-size="14.00">lGet</text>
</g>
<!-- 2&#45;&gt;4 -->
<g id="edge1" class="edge"><title>2&#45;&gt;4</title>
<path fill="none" stroke="chartreuse" d="M424.949,-49.5094C342.008,-54.1891 195.206,-67.9595 162.5,-107.391 132.324,-143.773 130.557,-178.903 162.5,-213.744 169.434,-221.307 244.452,-219.662 254.5,-221.744 254.6,-221.764 254.7,-221.785 254.8,-221.806"/>
<polygon fill="chartreuse" stroke="chartreuse" points="253.708,-225.143 264.251,-224.091 255.353,-218.339 253.708,-225.143"/>
</g>
<!-- 6 -->
<g id="node2" class="node"><title>6</title>
<polygon fill="bisque" stroke="black" stroke-width="2" points="674.836,-36.9201 674.836,-55.4711 640.664,-68.5887 592.336,-68.5887 558.164,-55.4711 558.164,-36.9201 592.336,-23.8026 640.664,-23.8026 674.836,-36.9201"/>
<text text-anchor="middle" x="616.5" y="-42.4956" font-family="Times,serif" font-size="14.00">put</text>
</g>
<!-- 5 -->
<g id="node8" class="node"><title>5</title>
<polygon fill="goldenrod" stroke="black" stroke-width="2" points="713.5,-257.744 633.5,-257.744 633.5,-221.744 713.5,-221.744 713.5,-257.744"/>
<text text-anchor="middle" x="673.5" y="-236.044" font-family="Times,serif" font-size="14.00">lPut</text>
</g>
<!-- 6&#45;&gt;5 -->
<g id="edge9" class="edge"><title>6&#45;&gt;5</title>
<path fill="none" stroke="chartreuse" d="M673.08,-56.1678C727.076,-66.0219 802.757,-83.6567 820.5,-107.391 848.801,-145.25 850.993,-177.627 820.5,-213.744 808.212,-228.298 761.473,-234.381 723.954,-236.922"/>
<polygon fill="chartreuse" stroke="chartreuse" points="723.421,-233.448 713.652,-237.549 723.846,-240.435 723.421,-233.448"/>
</g>
<!-- 12 -->
<g id="node3" class="node"><title>12</title>
<polygon fill="khaki" stroke="black" stroke-dasharray="1,5" points="536.358,-131.053 536.358,-159.082 465.561,-178.902 365.439,-178.902 294.642,-159.082 294.642,-131.053 365.439,-111.233 465.561,-111.233 536.358,-131.053"/>
<polygon fill="none" stroke="black" stroke-dasharray="1,5" points="540.356,-128 540.356,-162.135 466.107,-182.921 364.893,-182.921 290.644,-162.135 290.644,-128 364.893,-107.214 466.107,-107.214 540.356,-128"/>
<text text-anchor="middle" x="415.5" y="-148.867" font-family="Times,serif" font-size="14.00">Unknown Module</text>
<text text-anchor="middle" x="415.5" y="-133.867" font-family="Times,serif" font-size="14.00">get</text>
</g>
<!-- 12&#45;&gt;2 -->
<g id="edge16" class="edge"><title>12&#45;&gt;2</title>
<path fill="none" stroke="navy" d="M441.021,-107.168C450.044,-94.1217 459.888,-79.8897 467.72,-68.5651"/>
</g>
<!-- 13 -->
<g id="node4" class="node"><title>13</title>
<polygon fill="khaki" stroke="black" stroke-dasharray="1,5" points="804.358,-131.053 804.358,-159.082 733.561,-178.902 633.439,-178.902 562.642,-159.082 562.642,-131.053 633.439,-111.233 733.561,-111.233 804.358,-131.053"/>
<polygon fill="none" stroke="black" stroke-dasharray="1,5" points="808.356,-128 808.356,-162.135 734.107,-182.921 632.893,-182.921 558.644,-162.135 558.644,-128 632.893,-107.214 734.107,-107.214 808.356,-128"/>
<text text-anchor="middle" x="683.5" y="-148.867" font-family="Times,serif" font-size="14.00">Unknown Module</text>
<text text-anchor="middle" x="683.5" y="-133.867" font-family="Times,serif" font-size="14.00">put</text>
</g>
<!-- 13&#45;&gt;6 -->
<g id="edge17" class="edge"><title>13&#45;&gt;6</title>
<path fill="none" stroke="navy" d="M657.979,-107.168C648.956,-94.1217 639.112,-79.8897 631.28,-68.5651"/>
</g>
<!-- 1 -->
<g id="node5" class="node"><title>1</title>
<polygon fill="goldenrod" stroke="black" stroke-width="2" points="267,-163.067 178,-163.067 174,-159.067 174,-127.067 263,-127.067 267,-131.067 267,-163.067"/>
<polyline fill="none" stroke="black" stroke-width="2" points="263,-159.067 174,-159.067 "/>
<polyline fill="none" stroke="black" stroke-width="2" points="263,-159.067 263,-127.067 "/>
<polyline fill="none" stroke="black" stroke-width="2" points="263,-159.067 267,-163.067 "/>
<text text-anchor="middle" x="220.5" y="-141.367" font-family="Times,serif" font-size="14.00">LensT</text>
</g>
<!-- 3 -->
<g id="node6" class="node"><title>3</title>
<polygon fill="gold" stroke="black" stroke-width="2" points="466,-257.744 365,-257.744 365,-221.744 466,-221.744 466,-257.744"/>
<text text-anchor="middle" x="415.5" y="-236.044" font-family="Times,serif" font-size="14.00">getBase</text>
</g>
<!-- 3&#45;&gt;12 -->
<g id="edge3" class="edge"><title>3&#45;&gt;12</title>
<path fill="none" stroke="black" d="M415.5,-221.312C415.5,-213.211 415.5,-203.147 415.5,-193.043"/>
<polygon fill="black" stroke="black" points="419,-192.997 415.5,-182.997 412,-192.997 419,-192.997"/>
</g>
<!-- 3&#45;&gt;1 -->
<g id="edge2" class="edge"><title>3&#45;&gt;1</title>
<path fill="none" stroke="black" d="M364.908,-223.746C361.738,-223.012 358.583,-222.336 355.5,-221.744 321.712,-215.252 308.972,-229.72 278.5,-213.744 260.568,-204.342 245.815,-186.872 235.676,-172.037"/>
<polygon fill="black" stroke="black" points="238.348,-169.724 229.972,-163.236 232.474,-173.531 238.348,-169.724"/>
</g>
<!-- 4&#45;&gt;12 -->
<g id="edge5" class="edge"><title>4&#45;&gt;12</title>
<path fill="none" stroke="black" d="M325.932,-221.529C336.735,-212.427 350.531,-200.805 364.04,-189.423"/>
<polygon fill="black" stroke="black" points="366.544,-191.89 371.936,-182.77 362.033,-186.537 366.544,-191.89"/>
</g>
<!-- 4&#45;&gt;1 -->
<g id="edge4" class="edge"><title>4&#45;&gt;1</title>
<path fill="none" stroke="black" d="M286.353,-221.529C283.668,-218.968 280.981,-216.321 278.5,-213.744 265.474,-200.207 251.758,-184.289 240.937,-171.293"/>
<polygon fill="black" stroke="black" points="243.345,-168.712 234.28,-163.228 237.947,-173.168 243.345,-168.712"/>
</g>
<!-- 5&#45;&gt;12 -->
<g id="edge7" class="edge"><title>5&#45;&gt;12</title>
<path fill="none" stroke="black" d="M633.382,-227.986C624.256,-225.742 614.576,-223.521 605.5,-221.744 580.827,-216.911 573.483,-221.288 549.5,-213.744 527.085,-206.692 503.839,-196.214 483.126,-185.596"/>
<polygon fill="black" stroke="black" points="484.592,-182.413 474.108,-180.884 481.35,-188.618 484.592,-182.413"/>
</g>
<!-- 5&#45;&gt;13 -->
<g id="edge8" class="edge"><title>5&#45;&gt;13</title>
<path fill="none" stroke="black" d="M675.381,-221.312C676.255,-213.211 677.341,-203.147 678.431,-193.043"/>
<polygon fill="black" stroke="black" points="681.922,-193.315 679.515,-182.997 674.962,-192.564 681.922,-193.315"/>
</g>
<!-- 5&#45;&gt;1 -->
<g id="edge6" class="edge"><title>5&#45;&gt;1</title>
<path fill="none" stroke="black" d="M633.153,-227.104C624.125,-224.936 614.544,-222.969 605.5,-221.744 587.493,-219.303 294.915,-221.539 278.5,-213.744 259.921,-204.921 245,-187.017 234.946,-171.839"/>
<polygon fill="black" stroke="black" points="237.875,-169.922 229.598,-163.307 231.944,-173.639 237.875,-169.922"/>
</g>
<!-- 7 -->
<g id="node9" class="node"><title>7</title>
<polygon fill="gold" stroke="black" stroke-width="2" points="596.5,-257.744 494.5,-257.744 494.5,-221.744 596.5,-221.744 596.5,-257.744"/>
<text text-anchor="middle" x="545.5" y="-236.044" font-family="Times,serif" font-size="14.00">putBase</text>
</g>
<!-- 7&#45;&gt;13 -->
<g id="edge11" class="edge"><title>7&#45;&gt;13</title>
<path fill="none" stroke="black" d="M571.133,-221.529C585.267,-212.037 603.484,-199.804 621.118,-187.961"/>
<polygon fill="black" stroke="black" points="623.358,-190.673 629.708,-182.192 619.455,-184.862 623.358,-190.673"/>
</g>
<!-- 7&#45;&gt;1 -->
<g id="edge10" class="edge"><title>7&#45;&gt;1</title>
<path fill="none" stroke="black" d="M494.148,-225.208C487.572,-223.841 480.903,-222.632 474.5,-221.744 452.911,-218.747 298.112,-223.254 278.5,-213.744 259.994,-204.77 245.07,-186.871 234.997,-171.734"/>
<polygon fill="black" stroke="black" points="237.929,-169.823 229.636,-163.229 232.007,-173.555 237.929,-169.823"/>
</g>
<!-- 8 -->
<g id="node10" class="node"><title>8</title>
<polygon fill="gold" stroke="black" stroke-width="2" points="111,-257.744 7.10543e-15,-257.744 7.10543e-15,-221.744 111,-221.744 111,-257.744"/>
<text text-anchor="middle" x="55.5" y="-236.044" font-family="Times,serif" font-size="14.00">runLensT</text>
</g>
<!-- 8&#45;&gt;1 -->
<g id="edge12" class="edge"><title>8&#45;&gt;1</title>
<path fill="none" stroke="black" d="M86.1485,-221.529C112.891,-206.509 151.857,-184.622 180.946,-168.284"/>
<polygon fill="black" stroke="black" points="183.011,-171.138 190.016,-163.19 179.583,-165.035 183.011,-171.138"/>
</g>
<!-- 9 -->
<g id="node11" class="node"><title>9</title>
<polygon fill="gold" stroke="black" stroke-width="2" points="173,-329.744 90,-329.744 90,-293.744 173,-293.744 173,-329.744"/>
<text text-anchor="middle" x="131.5" y="-308.044" font-family="Times,serif" font-size="14.00">with</text>
</g>
<!-- 10 -->
<g id="node12" class="node"><title>10</title>
<polygon fill="goldenrod" stroke="black" stroke-width="2" points="246,-257.744 129,-257.744 129,-221.744 246,-221.744 246,-257.744"/>
<text text-anchor="middle" x="187.5" y="-236.044" font-family="Times,serif" font-size="14.00">withLensT</text>
</g>
<!-- 9&#45;&gt;10 -->
<g id="edge13" class="edge"><title>9&#45;&gt;10</title>
<path fill="none" stroke="black" d="M145.343,-293.44C151.989,-285.133 160.078,-275.021 167.387,-265.884"/>
<polygon fill="black" stroke="black" points="170.303,-267.843 173.817,-257.848 164.836,-263.47 170.303,-267.843"/>
</g>
<!-- 10&#45;&gt;1 -->
<g id="edge14" class="edge"><title>10&#45;&gt;1</title>
<path fill="none" stroke="black" stroke-width="1.69315" d="M193.707,-221.312C198.577,-207.634 205.44,-188.362 211,-172.746"/>
<polygon fill="black" stroke="black" stroke-width="1.69315" points="214.375,-173.702 214.432,-163.108 207.781,-171.354 214.375,-173.702"/>
</g>
<!-- 11 -->
<g id="node13" class="node"><title>11</title>
<polygon fill="gold" stroke="black" stroke-width="2" points="295.5,-329.744 191.5,-329.744 191.5,-293.744 295.5,-293.744 295.5,-329.744"/>
<text text-anchor="middle" x="243.5" y="-308.044" font-family="Times,serif" font-size="14.00">withTop</text>
</g>
<!-- 11&#45;&gt;10 -->
<g id="edge15" class="edge"><title>11&#45;&gt;10</title>
<path fill="none" stroke="black" d="M229.657,-293.44C223.011,-285.133 214.922,-275.021 207.613,-265.884"/>
<polygon fill="black" stroke="black" points="210.164,-263.47 201.183,-257.848 204.697,-267.843 210.164,-263.47"/>
</g>
</g>
</svg>
