<?xml version="1.0" encoding="UTF-8" standalone="no"?>
<!DOCTYPE svg PUBLIC "-//W3C//DTD SVG 1.1//EN"
 "http://www.w3.org/Graphics/SVG/1.1/DTD/svg11.dtd">
<!-- Generated by graphviz version 2.38.0 (20140413.2041)
 -->
<!-- Title: Core of Snap.Snaplet.Internal.LensT Pages: 1 -->
<svg width="576pt" height="314pt"
 viewBox="0.00 0.00 575.51 313.74" xmlns="http://www.w3.org/2000/svg" xmlns:xlink="http://www.w3.org/1999/xlink">
<g id="graph0" class="graph" transform="scale(1 1) rotate(0) translate(4 309.744)">
<title>Core of Snap.Snaplet.Internal.LensT</title>
<polygon fill="white" stroke="none" points="-4,4 -4,-309.744 571.505,-309.744 571.505,4 -4,4"/>
<g id="clust1" class="cluster"><title>cluster_Class_MonadState</title>
<path fill="#ffc1c1" stroke="black" d="M37.5054,-56C37.5054,-56 547.505,-56 547.505,-56 553.505,-56 559.505,-62 559.505,-68 559.505,-68 559.505,-249.744 559.505,-249.744 559.505,-255.744 553.505,-261.744 547.505,-261.744 547.505,-261.744 37.5054,-261.744 37.5054,-261.744 31.5054,-261.744 25.5054,-255.744 25.5054,-249.744 25.5054,-249.744 25.5054,-68 25.5054,-68 25.5054,-62 31.5054,-56 37.5054,-56"/>
<text text-anchor="middle" x="292.505" y="-246.544" font-family="Times,serif" font-size="14.00">Class: MonadState</text>
</g>
<g id="clust2" class="cluster"><title>cluster_Class_MonadState_Data_vLensTbvbm</title>
<path fill="#c6e2ff" stroke="black" d="M116.505,-64C116.505,-64 357.505,-64 357.505,-64 363.505,-64 369.505,-70 369.505,-76 369.505,-76 369.505,-135.391 369.505,-135.391 369.505,-141.391 363.505,-147.391 357.505,-147.391 357.505,-147.391 116.505,-147.391 116.505,-147.391 110.505,-147.391 104.505,-141.391 104.505,-135.391 104.505,-135.391 104.505,-76 104.505,-76 104.505,-70 110.505,-64 116.505,-64"/>
<text text-anchor="middle" x="237.005" y="-132.191" font-family="Times,serif" font-size="14.00">Instance for: v (LensT b v b m)</text>
</g>
<!-- 2 -->
<g id="node1" class="node"><title>2</title>
<polygon fill="bisque" stroke="black" stroke-width="2" points="361.811,-84.9201 361.811,-103.471 328.242,-116.589 280.769,-116.589 247.2,-103.471 247.2,-84.9201 280.769,-71.8026 328.242,-71.8026 361.811,-84.9201"/>
<text text-anchor="middle" x="304.505" y="-90.4956" font-family="Times,serif" font-size="14.00">get</text>
</g>
<!-- 4 -->
<g id="node5" class="node"><title>4</title>
<polygon fill="goldenrod" stroke="black" stroke-width="2" points="399.505,-36 317.505,-36 317.505,-0 399.505,-0 399.505,-36"/>
<text text-anchor="middle" x="358.505" y="-14.3" font-family="Times,serif" font-size="14.00">lGet</text>
</g>
<!-- 2&#45;&gt;4 -->
<g id="edge1" class="edge"><title>2&#45;&gt;4</title>
<path fill="none" stroke="chartreuse" d="M320.124,-71.7352C326.356,-63.1728 333.578,-53.2501 340.065,-44.3375"/>
<polygon fill="chartreuse" stroke="chartreuse" points="342.947,-46.3242 346.002,-36.1793 337.288,-42.205 342.947,-46.3242"/>
</g>
<!-- 6 -->
<g id="node2" class="node"><title>6</title>
<polygon fill="bisque" stroke="black" stroke-width="2" points="228.842,-84.9201 228.842,-103.471 194.669,-116.589 146.342,-116.589 112.169,-103.471 112.169,-84.9201 146.342,-71.8026 194.669,-71.8026 228.842,-84.9201"/>
<text text-anchor="middle" x="170.505" y="-90.4956" font-family="Times,serif" font-size="14.00">put</text>
</g>
<!-- 5 -->
<g id="node6" class="node"><title>5</title>
<polygon fill="goldenrod" stroke="black" stroke-width="2" points="198.505,-305.744 118.505,-305.744 118.505,-269.744 198.505,-269.744 198.505,-305.744"/>
<text text-anchor="middle" x="158.505" y="-284.044" font-family="Times,serif" font-size="14.00">lPut</text>
</g>
<!-- 6&#45;&gt;5 -->
<g id="edge5" class="edge"><title>6&#45;&gt;5</title>
<path fill="none" stroke="chartreuse" d="M112.115,-102.823C79.6006,-110.386 41.7092,-125.439 21.5054,-155.391 -4.92685,-194.578 -8.76961,-225.444 21.5054,-261.744 32.522,-274.952 73.6119,-281.201 107.943,-284.146"/>
<polygon fill="chartreuse" stroke="chartreuse" points="108.098,-287.669 118.34,-284.958 108.643,-280.69 108.098,-287.669"/>
</g>
<!-- 12 -->
<g id="node3" class="node"><title>12</title>
<polygon fill="khaki" stroke="black" stroke-dasharray="1,5" points="547.364,-179.053 547.364,-207.082 476.567,-226.902 376.444,-226.902 305.647,-207.082 305.647,-179.053 376.444,-159.233 476.567,-159.233 547.364,-179.053"/>
<polygon fill="none" stroke="black" stroke-dasharray="1,5" points="551.361,-176 551.361,-210.135 477.113,-230.921 375.898,-230.921 301.649,-210.135 301.649,-176 375.898,-155.214 477.113,-155.214 551.361,-176"/>
<text text-anchor="middle" x="426.505" y="-196.867" font-family="Times,serif" font-size="14.00">Unknown Module</text>
<text text-anchor="middle" x="426.505" y="-181.867" font-family="Times,serif" font-size="14.00">get</text>
</g>
<!-- 12&#45;&gt;2 -->
<g id="edge6" class="edge"><title>12&#45;&gt;2</title>
<path fill="none" stroke="navy" d="M375.689,-155.302C372.221,-152.654 368.798,-150 365.505,-147.391 353.051,-137.525 339.592,-126.095 328.493,-116.451"/>
</g>
<!-- 13 -->
<g id="node4" class="node"><title>13</title>
<polygon fill="khaki" stroke="black" stroke-dasharray="1,5" points="279.364,-179.053 279.364,-207.082 208.567,-226.902 108.444,-226.902 37.6471,-207.082 37.6471,-179.053 108.444,-159.233 208.567,-159.233 279.364,-179.053"/>
<polygon fill="none" stroke="black" stroke-dasharray="1,5" points="283.361,-176 283.361,-210.135 209.113,-230.921 107.898,-230.921 33.6494,-210.135 33.6494,-176 107.898,-155.214 209.113,-155.214 283.361,-176"/>
<text text-anchor="middle" x="158.505" y="-196.867" font-family="Times,serif" font-size="14.00">Unknown Module</text>
<text text-anchor="middle" x="158.505" y="-181.867" font-family="Times,serif" font-size="14.00">put</text>
</g>
<!-- 13&#45;&gt;6 -->
<g id="edge7" class="edge"><title>13&#45;&gt;6</title>
<path fill="none" stroke="navy" d="M163.076,-155.168C164.692,-142.122 166.455,-127.89 167.858,-116.565"/>
</g>
<!-- 4&#45;&gt;12 -->
<g id="edge2" class="edge"><title>4&#45;&gt;12</title>
<path fill="none" stroke="black" d="M365.575,-36.2978C368.097,-42.5039 370.945,-49.5587 373.505,-56 385.389,-85.8998 398.516,-119.596 408.733,-145.975"/>
<polygon fill="black" stroke="black" points="405.484,-147.279 412.357,-155.342 412.012,-144.753 405.484,-147.279"/>
</g>
<!-- 5&#45;&gt;12 -->
<g id="edge3" class="edge"><title>5&#45;&gt;12</title>
<path fill="none" stroke="black" d="M198.541,-282.292C225.575,-278.558 261.792,-272.129 292.505,-261.744 314.55,-254.29 337.518,-243.803 358.083,-233.305"/>
<polygon fill="black" stroke="black" points="359.781,-236.367 367.044,-228.654 356.556,-230.154 359.781,-236.367"/>
</g>
<!-- 5&#45;&gt;13 -->
<g id="edge4" class="edge"><title>5&#45;&gt;13</title>
<path fill="none" stroke="black" d="M158.505,-269.312C158.505,-261.211 158.505,-251.147 158.505,-241.043"/>
<polygon fill="black" stroke="black" points="162.005,-240.997 158.505,-230.997 155.005,-240.997 162.005,-240.997"/>
</g>
</g>
</svg>
