<?xml version="1.0" encoding="UTF-8" standalone="no"?>
<!DOCTYPE svg PUBLIC "-//W3C//DTD SVG 1.1//EN"
 "http://www.w3.org/Graphics/SVG/1.1/DTD/svg11.dtd">
<!-- Generated by graphviz version 2.38.0 (20140413.2041)
 -->
<!-- Title: Levels within Snap.Snaplet.Session Pages: 1 -->
<svg width="1228pt" height="254pt"
 viewBox="0.00 0.00 1228.00 254.00" xmlns="http://www.w3.org/2000/svg" xmlns:xlink="http://www.w3.org/1999/xlink">
<g id="graph0" class="graph" transform="scale(1 1) rotate(0) translate(4 250)">
<title>Levels within Snap.Snaplet.Session</title>
<polygon fill="white" stroke="none" points="-4,4 -4,-250 1224,-250 1224,4 -4,4"/>
<g id="clust1" class="cluster"><title>cluster_0</title>
<polygon fill="lavender" stroke="black" points="8,-91 8,-238 1212,-238 1212,-91 8,-91"/>
<text text-anchor="middle" x="610" y="-222.8" font-family="Times,serif" font-size="14.00">Exported root entities</text>
</g>
<g id="clust2" class="cluster"><title>cluster_1</title>
<polygon fill="lavender" stroke="black" points="550,-8 550,-83 690,-83 690,-8 550,-8"/>
<text text-anchor="middle" x="620" y="-67.8" font-family="Times,serif" font-size="14.00">Level = 1</text>
</g>
<!-- 1 -->
<g id="node1" class="node"><title>1</title>
<polygon fill="goldenrod" stroke="black" stroke-width="2" points="223.5,-135 80.5,-135 80.5,-99 223.5,-99 223.5,-135"/>
<text text-anchor="middle" x="152" y="-113.3" font-family="Times,serif" font-size="14.00">commitSession</text>
</g>
<!-- 5 -->
<g id="node10" class="node"><title>5</title>
<polygon fill="cyan" stroke="black" stroke-width="2" points="681.5,-52 558.5,-52 558.5,-16 681.5,-16 681.5,-52"/>
<text text-anchor="middle" x="620" y="-30.3" font-family="Times,serif" font-size="14.00">loadSession</text>
</g>
<!-- 1&#45;&gt;5 -->
<g id="edge1" class="edge"><title>1&#45;&gt;5</title>
<path fill="none" stroke="black" d="M223.589,-103.61C311.608,-88.3755 460.125,-62.6706 548.229,-47.4219"/>
<polygon fill="black" stroke="black" points="548.882,-50.8609 558.139,-45.7067 547.689,-43.9635 548.882,-50.8609"/>
</g>
<!-- 2 -->
<g id="node2" class="node"><title>2</title>
<polygon fill="gold" stroke="black" stroke-width="2" points="271.5,-207 158.5,-207 158.5,-171 271.5,-171 271.5,-207"/>
<text text-anchor="middle" x="215" y="-185.3" font-family="Times,serif" font-size="14.00">csrfToken</text>
</g>
<!-- 2&#45;&gt;5 -->
<g id="edge2" class="edge"><title>2&#45;&gt;5</title>
<path fill="none" stroke="black" d="M254.885,-170.954C302.102,-150.974 383.262,-117.259 454,-91 487.705,-78.4879 525.677,-65.5908 556.788,-55.3321"/>
<polygon fill="black" stroke="black" points="558.226,-58.5439 566.635,-52.0979 556.042,-51.8935 558.226,-58.5439"/>
</g>
<!-- 3 -->
<g id="node3" class="node"><title>3</title>
<polygon fill="gold" stroke="black" stroke-width="2" points="452,-207 290,-207 290,-171 452,-171 452,-207"/>
<text text-anchor="middle" x="371" y="-185.3" font-family="Times,serif" font-size="14.00">deleteFromSession</text>
</g>
<!-- 3&#45;&gt;5 -->
<g id="edge3" class="edge"><title>3&#45;&gt;5</title>
<path fill="none" stroke="black" d="M399.079,-170.746C444.313,-142.952 533.3,-88.2733 583.431,-57.4698"/>
<polygon fill="black" stroke="black" points="585.335,-60.4079 592.023,-52.1906 581.671,-54.4438 585.335,-60.4079"/>
</g>
<!-- 4 -->
<g id="node4" class="node"><title>4</title>
<polygon fill="gold" stroke="black" stroke-width="2" points="616,-207 470,-207 470,-171 616,-171 616,-207"/>
<text text-anchor="middle" x="543" y="-185.3" font-family="Times,serif" font-size="14.00">getFromSession</text>
</g>
<!-- 4&#45;&gt;5 -->
<g id="edge4" class="edge"><title>4&#45;&gt;5</title>
<path fill="none" stroke="black" d="M551.683,-170.746C565.085,-144.116 590.908,-92.8067 606.682,-61.4624"/>
<polygon fill="black" stroke="black" points="609.861,-62.9313 611.23,-52.4253 603.608,-59.7845 609.861,-62.9313"/>
</g>
<!-- 6 -->
<g id="node5" class="node"><title>6</title>
<polygon fill="gold" stroke="black" stroke-width="2" points="759.5,-207 634.5,-207 634.5,-171 759.5,-171 759.5,-207"/>
<text text-anchor="middle" x="697" y="-185.3" font-family="Times,serif" font-size="14.00">resetSession</text>
</g>
<!-- 6&#45;&gt;5 -->
<g id="edge5" class="edge"><title>6&#45;&gt;5</title>
<path fill="none" stroke="black" d="M688.317,-170.746C674.915,-144.116 649.092,-92.8067 633.318,-61.4624"/>
<polygon fill="black" stroke="black" points="636.392,-59.7845 628.77,-52.4253 630.139,-62.9313 636.392,-59.7845"/>
</g>
<!-- 7 -->
<g id="node6" class="node"><title>7</title>
<polygon fill="gold" stroke="black" stroke-width="2" points="912,-207 778,-207 778,-171 912,-171 912,-207"/>
<text text-anchor="middle" x="845" y="-185.3" font-family="Times,serif" font-size="14.00">sessionToList</text>
</g>
<!-- 7&#45;&gt;5 -->
<g id="edge6" class="edge"><title>7&#45;&gt;5</title>
<path fill="none" stroke="black" d="M819.627,-170.746C778.922,-143.067 699.008,-88.7257 653.608,-57.8537"/>
<polygon fill="black" stroke="black" points="655.518,-54.9195 645.28,-52.1906 651.581,-60.708 655.518,-54.9195"/>
</g>
<!-- 8 -->
<g id="node7" class="node"><title>8</title>
<polygon fill="gold" stroke="black" stroke-width="2" points="1056,-207 930,-207 930,-171 1056,-171 1056,-207"/>
<text text-anchor="middle" x="993" y="-185.3" font-family="Times,serif" font-size="14.00">setInSession</text>
</g>
<!-- 8&#45;&gt;5 -->
<g id="edge7" class="edge"><title>8&#45;&gt;5</title>
<path fill="none" stroke="black" d="M951.298,-170.894C882.617,-142.722 745.907,-86.6456 671.371,-56.0715"/>
<polygon fill="black" stroke="black" points="672.299,-52.6694 661.719,-52.1125 669.642,-59.1457 672.299,-52.6694"/>
</g>
<!-- 9 -->
<g id="node8" class="node"><title>9</title>
<polygon fill="gold" stroke="black" stroke-width="2" points="1204,-207 1074,-207 1074,-171 1204,-171 1204,-207"/>
<text text-anchor="middle" x="1139" y="-185.3" font-family="Times,serif" font-size="14.00">touchSession</text>
</g>
<!-- 9&#45;&gt;5 -->
<g id="edge8" class="edge"><title>9&#45;&gt;5</title>
<path fill="none" stroke="black" d="M1085.82,-170.987C1023.5,-151.185 917.037,-117.779 825,-91 780.749,-78.1248 730.873,-64.4813 691.398,-53.8847"/>
<polygon fill="black" stroke="black" points="692.161,-50.4657 681.596,-51.2587 690.349,-57.2273 692.161,-50.4657"/>
</g>
<!-- 10 -->
<g id="node9" class="node"><title>10</title>
<polygon fill="gold" stroke="black" stroke-width="2" points="140,-207 16,-207 16,-171 140,-171 140,-207"/>
<text text-anchor="middle" x="78" y="-185.3" font-family="Times,serif" font-size="14.00">withSession</text>
</g>
<!-- 10&#45;&gt;1 -->
<g id="edge9" class="edge"><title>10&#45;&gt;1</title>
<path fill="none" stroke="chartreuse" d="M96.2921,-170.697C105.433,-162.05 116.64,-151.449 126.6,-142.027"/>
<polygon fill="chartreuse" stroke="chartreuse" points="129.059,-144.519 133.918,-135.104 124.248,-139.434 129.059,-144.519"/>
</g>
</g>
</svg>
