<?xml version="1.0" encoding="UTF-8" standalone="no"?>
<!DOCTYPE svg PUBLIC "-//W3C//DTD SVG 1.1//EN"
 "http://www.w3.org/Graphics/SVG/1.1/DTD/svg11.dtd">
<!-- Generated by graphviz version 2.38.0 (20140413.2041)
 -->
<!-- Title: Core of Snap.Snaplet.Internal.Lensed Pages: 1 -->
<svg width="2732pt" height="494pt"
 viewBox="0.00 0.00 2732.00 494.49" xmlns="http://www.w3.org/2000/svg" xmlns:xlink="http://www.w3.org/1999/xlink">
<g id="graph0" class="graph" transform="scale(1 1) rotate(0) translate(4 490.487)">
<title>Core of Snap.Snaplet.Internal.Lensed</title>
<polygon fill="white" stroke="none" points="-4,4 -4,-490.487 2728,-490.487 2728,4 -4,4"/>
<g id="clust1" class="cluster"><title>cluster_Class_Alternative</title>
<path fill="#ffc1c1" stroke="black" d="M20,-241.744C20,-241.744 530,-241.744 530,-241.744 536,-241.744 542,-247.744 542,-253.744 542,-253.744 542,-466.487 542,-466.487 542,-472.487 536,-478.487 530,-478.487 530,-478.487 20,-478.487 20,-478.487 14,-478.487 8,-472.487 8,-466.487 8,-466.487 8,-253.744 8,-253.744 8,-247.744 14,-241.744 20,-241.744"/>
<text text-anchor="middle" x="275" y="-463.287" font-family="Times,serif" font-size="14.00">Class: Alternative</text>
</g>
<g id="clust2" class="cluster"><title>cluster_Class_Alternative_Data_Lensedbvm</title>
<path fill="#c6e2ff" stroke="black" d="M204,-364.096C204,-364.096 476,-364.096 476,-364.096 482,-364.096 488,-370.096 488,-376.096 488,-376.096 488,-435.487 488,-435.487 488,-441.487 482,-447.487 476,-447.487 476,-447.487 204,-447.487 204,-447.487 198,-447.487 192,-441.487 192,-435.487 192,-435.487 192,-376.096 192,-376.096 192,-370.096 198,-364.096 204,-364.096"/>
<text text-anchor="middle" x="340" y="-432.287" font-family="Times,serif" font-size="14.00">Instance for: (Lensed b v m)</text>
</g>
<g id="clust3" class="cluster"><title>cluster_Class_Monad</title>
<path fill="#ffc1c1" stroke="black" d="M562,-8C562,-8 804,-8 804,-8 810,-8 816,-14 816,-20 816,-20 816,-221.744 816,-221.744 816,-227.744 810,-233.744 804,-233.744 804,-233.744 562,-233.744 562,-233.744 556,-233.744 550,-227.744 550,-221.744 550,-221.744 550,-20 550,-20 550,-14 556,-8 562,-8"/>
<text text-anchor="middle" x="683" y="-218.544" font-family="Times,serif" font-size="14.00">Class: Monad</text>
</g>
<g id="clust4" class="cluster"><title>cluster_Class_Monad_Data_Lensedbvm</title>
<path fill="#c6e2ff" stroke="black" d="M609,-119.352C609,-119.352 758,-119.352 758,-119.352 764,-119.352 770,-125.352 770,-131.352 770,-131.352 770,-190.744 770,-190.744 770,-196.744 764,-202.744 758,-202.744 758,-202.744 609,-202.744 609,-202.744 603,-202.744 597,-196.744 597,-190.744 597,-190.744 597,-131.352 597,-131.352 597,-125.352 603,-119.352 609,-119.352"/>
<text text-anchor="middle" x="683.5" y="-187.544" font-family="Times,serif" font-size="14.00">Instance for: (Lensed b v m)</text>
</g>
<g id="clust5" class="cluster"><title>cluster_Class_MonadCatchIO</title>
<path fill="#ffc1c1" stroke="black" d="M1926,-241.744C1926,-241.744 2704,-241.744 2704,-241.744 2710,-241.744 2716,-247.744 2716,-253.744 2716,-253.744 2716,-466.487 2716,-466.487 2716,-472.487 2710,-478.487 2704,-478.487 2704,-478.487 1926,-478.487 1926,-478.487 1920,-478.487 1914,-472.487 1914,-466.487 1914,-466.487 1914,-253.744 1914,-253.744 1914,-247.744 1920,-241.744 1926,-241.744"/>
<text text-anchor="middle" x="2315" y="-463.287" font-family="Times,serif" font-size="14.00">Class: MonadCatchIO</text>
</g>
<g id="clust6" class="cluster"><title>cluster_Class_MonadCatchIO_Data_Lensedbvm</title>
<path fill="#c6e2ff" stroke="black" d="M2098,-364.096C2098,-364.096 2552,-364.096 2552,-364.096 2558,-364.096 2564,-370.096 2564,-376.096 2564,-376.096 2564,-435.487 2564,-435.487 2564,-441.487 2558,-447.487 2552,-447.487 2552,-447.487 2098,-447.487 2098,-447.487 2092,-447.487 2086,-441.487 2086,-435.487 2086,-435.487 2086,-376.096 2086,-376.096 2086,-370.096 2092,-364.096 2098,-364.096"/>
<text text-anchor="middle" x="2325" y="-432.287" font-family="Times,serif" font-size="14.00">Instance for: (Lensed b v m)</text>
</g>
<g id="clust7" class="cluster"><title>cluster_Class_MonadIO</title>
<path fill="#ffc1c1" stroke="black" d="M562,-241.744C562,-241.744 804,-241.744 804,-241.744 810,-241.744 816,-247.744 816,-253.744 816,-253.744 816,-466.487 816,-466.487 816,-472.487 810,-478.487 804,-478.487 804,-478.487 562,-478.487 562,-478.487 556,-478.487 550,-472.487 550,-466.487 550,-466.487 550,-253.744 550,-253.744 550,-247.744 556,-241.744 562,-241.744"/>
<text text-anchor="middle" x="683" y="-463.287" font-family="Times,serif" font-size="14.00">Class: MonadIO</text>
</g>
<g id="clust8" class="cluster"><title>cluster_Class_MonadIO_Data_Lensedbvm</title>
<path fill="#c6e2ff" stroke="black" d="M628,-364.096C628,-364.096 777,-364.096 777,-364.096 783,-364.096 789,-370.096 789,-376.096 789,-376.096 789,-435.487 789,-435.487 789,-441.487 783,-447.487 777,-447.487 777,-447.487 628,-447.487 628,-447.487 622,-447.487 616,-441.487 616,-435.487 616,-435.487 616,-376.096 616,-376.096 616,-370.096 622,-364.096 628,-364.096"/>
<text text-anchor="middle" x="702.5" y="-432.287" font-family="Times,serif" font-size="14.00">Instance for: (Lensed b v m)</text>
</g>
<g id="clust9" class="cluster"><title>cluster_Class_MonadPlus</title>
<path fill="#ffc1c1" stroke="black" d="M1110,-241.744C1110,-241.744 1620,-241.744 1620,-241.744 1626,-241.744 1632,-247.744 1632,-253.744 1632,-253.744 1632,-466.487 1632,-466.487 1632,-472.487 1626,-478.487 1620,-478.487 1620,-478.487 1110,-478.487 1110,-478.487 1104,-478.487 1098,-472.487 1098,-466.487 1098,-466.487 1098,-253.744 1098,-253.744 1098,-247.744 1104,-241.744 1110,-241.744"/>
<text text-anchor="middle" x="1365" y="-463.287" font-family="Times,serif" font-size="14.00">Class: MonadPlus</text>
</g>
<g id="clust10" class="cluster"><title>cluster_Class_MonadPlus_Data_Lensedbvm</title>
<path fill="#c6e2ff" stroke="black" d="M1164,-364.096C1164,-364.096 1457,-364.096 1457,-364.096 1463,-364.096 1469,-370.096 1469,-376.096 1469,-376.096 1469,-435.487 1469,-435.487 1469,-441.487 1463,-447.487 1457,-447.487 1457,-447.487 1164,-447.487 1164,-447.487 1158,-447.487 1152,-441.487 1152,-435.487 1152,-435.487 1152,-376.096 1152,-376.096 1152,-370.096 1158,-364.096 1164,-364.096"/>
<text text-anchor="middle" x="1310.5" y="-432.287" font-family="Times,serif" font-size="14.00">Instance for: (Lensed b v m)</text>
</g>
<g id="clust11" class="cluster"><title>cluster_Class_MonadSnap</title>
<path fill="#ffc1c1" stroke="black" d="M1652,-241.744C1652,-241.744 1894,-241.744 1894,-241.744 1900,-241.744 1906,-247.744 1906,-253.744 1906,-253.744 1906,-466.487 1906,-466.487 1906,-472.487 1900,-478.487 1894,-478.487 1894,-478.487 1652,-478.487 1652,-478.487 1646,-478.487 1640,-472.487 1640,-466.487 1640,-466.487 1640,-253.744 1640,-253.744 1640,-247.744 1646,-241.744 1652,-241.744"/>
<text text-anchor="middle" x="1773" y="-463.287" font-family="Times,serif" font-size="14.00">Class: MonadSnap</text>
</g>
<g id="clust12" class="cluster"><title>cluster_Class_MonadSnap_Data_Lensedbvm</title>
<path fill="#c6e2ff" stroke="black" d="M1680,-364.096C1680,-364.096 1829,-364.096 1829,-364.096 1835,-364.096 1841,-370.096 1841,-376.096 1841,-376.096 1841,-435.487 1841,-435.487 1841,-441.487 1835,-447.487 1829,-447.487 1829,-447.487 1680,-447.487 1680,-447.487 1674,-447.487 1668,-441.487 1668,-435.487 1668,-435.487 1668,-376.096 1668,-376.096 1668,-370.096 1674,-364.096 1680,-364.096"/>
<text text-anchor="middle" x="1754.5" y="-432.287" font-family="Times,serif" font-size="14.00">Instance for: (Lensed b v m)</text>
</g>
<g id="clust13" class="cluster"><title>cluster_Class_MonadTrans</title>
<path fill="#ffc1c1" stroke="black" d="M836,-111.352C836,-111.352 1078,-111.352 1078,-111.352 1084,-111.352 1090,-117.352 1090,-123.352 1090,-123.352 1090,-344.096 1090,-344.096 1090,-350.096 1084,-356.096 1078,-356.096 1078,-356.096 836,-356.096 836,-356.096 830,-356.096 824,-350.096 824,-344.096 824,-344.096 824,-123.352 824,-123.352 824,-117.352 830,-111.352 836,-111.352"/>
<text text-anchor="middle" x="957" y="-340.896" font-family="Times,serif" font-size="14.00">Class: MonadTrans</text>
</g>
<g id="clust14" class="cluster"><title>cluster_Class_MonadTrans_Data_Lensedbv</title>
<path fill="#c6e2ff" stroke="black" d="M874,-119.352C874,-119.352 1008,-119.352 1008,-119.352 1014,-119.352 1020,-125.352 1020,-131.352 1020,-131.352 1020,-190.744 1020,-190.744 1020,-196.744 1014,-202.744 1008,-202.744 1008,-202.744 874,-202.744 874,-202.744 868,-202.744 862,-196.744 862,-190.744 862,-190.744 862,-131.352 862,-131.352 862,-125.352 868,-119.352 874,-119.352"/>
<text text-anchor="middle" x="941" y="-187.544" font-family="Times,serif" font-size="14.00">Instance for: (Lensed b v)</text>
</g>
<!-- 2 -->
<g id="node1" class="node"><title>2</title>
<polygon fill="bisque" stroke="black" stroke-width="2" points="319.898,-385.016 319.898,-403.567 284.811,-416.685 235.189,-416.685 200.102,-403.567 200.102,-385.016 235.189,-371.898 284.811,-371.898 319.898,-385.016"/>
<text text-anchor="middle" x="260" y="-390.591" font-family="Times,serif" font-size="14.00">&lt;|&gt;</text>
</g>
<!-- 32 -->
<g id="node3" class="node"><title>32</title>
<polygon fill="khaki" stroke="black" stroke-dasharray="1,5" points="261.858,-273.405 261.858,-301.434 191.061,-321.254 90.9389,-321.254 20.1417,-301.434 20.1417,-273.405 90.9389,-253.585 191.061,-253.585 261.858,-273.405"/>
<polygon fill="none" stroke="black" stroke-dasharray="1,5" points="265.856,-270.353 265.856,-304.487 191.607,-325.273 90.3926,-325.273 16.144,-304.487 16.144,-270.353 90.3926,-249.567 191.607,-249.567 265.856,-270.353"/>
<text text-anchor="middle" x="141" y="-291.22" font-family="Times,serif" font-size="14.00">Unknown Module</text>
<text text-anchor="middle" x="141" y="-276.22" font-family="Times,serif" font-size="14.00">&lt;|&gt;</text>
</g>
<!-- 2&#45;&gt;32 -->
<g id="edge1" class="edge"><title>2&#45;&gt;32</title>
<path fill="none" stroke="black" d="M231.598,-373.071C217.281,-361.409 199.707,-346.275 183.827,-332.035"/>
<polygon fill="black" stroke="black" points="185.956,-329.242 176.189,-325.136 181.264,-334.436 185.956,-329.242"/>
</g>
<!-- 9 -->
<g id="node2" class="node"><title>9</title>
<polygon fill="bisque" stroke="black" stroke-width="2" points="480.359,-385.016 480.359,-403.567 438.558,-416.685 379.442,-416.685 337.641,-403.567 337.641,-385.016 379.442,-371.898 438.558,-371.898 480.359,-385.016"/>
<text text-anchor="middle" x="409" y="-390.591" font-family="Times,serif" font-size="14.00">empty</text>
</g>
<!-- 37 -->
<g id="node4" class="node"><title>37</title>
<polygon fill="khaki" stroke="black" stroke-dasharray="1,5" points="529.858,-273.405 529.858,-301.434 459.061,-321.254 358.939,-321.254 288.142,-301.434 288.142,-273.405 358.939,-253.585 459.061,-253.585 529.858,-273.405"/>
<polygon fill="none" stroke="black" stroke-dasharray="1,5" points="533.856,-270.353 533.856,-304.487 459.607,-325.273 358.393,-325.273 284.144,-304.487 284.144,-270.353 358.393,-249.567 459.607,-249.567 533.856,-270.353"/>
<text text-anchor="middle" x="409" y="-291.22" font-family="Times,serif" font-size="14.00">Unknown Module</text>
<text text-anchor="middle" x="409" y="-276.22" font-family="Times,serif" font-size="14.00">empty</text>
</g>
<!-- 9&#45;&gt;37 -->
<g id="edge4" class="edge"><title>9&#45;&gt;37</title>
<path fill="none" stroke="black" d="M403.451,-372.069C402.52,-361.49 402.13,-348.247 402.282,-335.439"/>
<polygon fill="black" stroke="black" points="405.784,-335.4 402.521,-325.32 398.786,-335.235 405.784,-335.4"/>
</g>
<!-- 40 -->
<g id="node22" class="node"><title>40</title>
<polygon fill="khaki" stroke="black" stroke-dasharray="1,5" points="1077.86,-273.405 1077.86,-301.434 1007.06,-321.254 906.939,-321.254 836.142,-301.434 836.142,-273.405 906.939,-253.585 1007.06,-253.585 1077.86,-273.405"/>
<polygon fill="none" stroke="black" stroke-dasharray="1,5" points="1081.86,-270.353 1081.86,-304.487 1007.61,-325.273 906.393,-325.273 832.144,-304.487 832.144,-270.353 906.393,-249.567 1007.61,-249.567 1081.86,-270.353"/>
<text text-anchor="middle" x="957" y="-291.22" font-family="Times,serif" font-size="14.00">Unknown Module</text>
<text text-anchor="middle" x="957" y="-276.22" font-family="Times,serif" font-size="14.00">lift</text>
</g>
<!-- 9&#45;&gt;40 -->
<g id="edge5" class="edge"><title>9&#45;&gt;40</title>
<path fill="none" stroke="black" d="M472.346,-382.445C512.287,-376.037 565.016,-368.366 612,-364.096 658.067,-359.909 775.166,-367.479 820,-356.096 843.961,-350.012 868.631,-339.39 890.319,-328.34"/>
<polygon fill="black" stroke="black" points="892.175,-331.32 899.42,-323.59 888.936,-325.114 892.175,-331.32"/>
</g>
<!-- 32&#45;&gt;2 -->
<g id="edge16" class="edge"><title>32&#45;&gt;2</title>
<path fill="none" stroke="navy" d="M189.351,-325.32C207.676,-340.976 227.435,-358.662 241.467,-372.069"/>
</g>
<!-- 37&#45;&gt;9 -->
<g id="edge19" class="edge"><title>37&#45;&gt;9</title>
<path fill="none" stroke="navy" d="M415.479,-325.32C416.04,-340.976 415.73,-358.662 414.549,-372.069"/>
</g>
<!-- 25 -->
<g id="node5" class="node"><title>25</title>
<polygon fill="bisque" stroke="black" stroke-width="2" points="752.797,-140.272 752.797,-158.823 711.911,-171.941 654.089,-171.941 613.203,-158.823 613.203,-140.272 654.089,-127.155 711.911,-127.155 752.797,-140.272"/>
<text text-anchor="middle" x="683" y="-145.848" font-family="Times,serif" font-size="14.00">return</text>
</g>
<!-- 48 -->
<g id="node6" class="node"><title>48</title>
<polygon fill="khaki" stroke="black" stroke-dasharray="1,5" points="803.858,-39.6615 803.858,-67.6908 733.061,-87.5105 632.939,-87.5105 562.142,-67.6908 562.142,-39.6615 632.939,-19.8418 733.061,-19.8418 803.858,-39.6615"/>
<polygon fill="none" stroke="black" stroke-dasharray="1,5" points="807.856,-36.609 807.856,-70.7433 733.607,-91.5293 632.393,-91.5293 558.144,-70.7433 558.144,-36.609 632.393,-15.823 733.607,-15.823 807.856,-36.609"/>
<text text-anchor="middle" x="683" y="-57.4761" font-family="Times,serif" font-size="14.00">Unknown Module</text>
<text text-anchor="middle" x="683" y="-42.4761" font-family="Times,serif" font-size="14.00">return</text>
</g>
<!-- 25&#45;&gt;48 -->
<g id="edge14" class="edge"><title>25&#45;&gt;48</title>
<path fill="none" stroke="black" d="M677.239,-127.247C676.577,-119.544 676.247,-110.511 676.25,-101.485"/>
<polygon fill="black" stroke="black" points="679.751,-101.418 676.395,-91.3685 672.752,-101.317 679.751,-101.418"/>
</g>
<!-- 48&#45;&gt;25 -->
<g id="edge25" class="edge"><title>48&#45;&gt;25</title>
<path fill="none" stroke="navy" d="M689.605,-91.3685C689.954,-103.525 689.673,-116.645 688.761,-127.247"/>
</g>
<!-- 6 -->
<g id="node7" class="node"><title>6</title>
<polygon fill="bisque" stroke="black" stroke-width="2" points="2230.24,-385.016 2230.24,-403.567 2190.26,-416.685 2133.74,-416.685 2093.76,-403.567 2093.76,-385.016 2133.74,-371.898 2190.26,-371.898 2230.24,-385.016"/>
<text text-anchor="middle" x="2162" y="-390.591" font-family="Times,serif" font-size="14.00">block</text>
</g>
<!-- 35 -->
<g id="node10" class="node"><title>35</title>
<polygon fill="khaki" stroke="black" stroke-dasharray="1,5" points="2167.86,-273.405 2167.86,-301.434 2097.06,-321.254 1996.94,-321.254 1926.14,-301.434 1926.14,-273.405 1996.94,-253.585 2097.06,-253.585 2167.86,-273.405"/>
<polygon fill="none" stroke="black" stroke-dasharray="1,5" points="2171.86,-270.353 2171.86,-304.487 2097.61,-325.273 1996.39,-325.273 1922.14,-304.487 1922.14,-270.353 1996.39,-249.567 2097.61,-249.567 2171.86,-270.353"/>
<text text-anchor="middle" x="2047" y="-291.22" font-family="Times,serif" font-size="14.00">Unknown Module</text>
<text text-anchor="middle" x="2047" y="-276.22" font-family="Times,serif" font-size="14.00">block</text>
</g>
<!-- 6&#45;&gt;35 -->
<g id="edge2" class="edge"><title>6&#45;&gt;35</title>
<path fill="none" stroke="black" d="M2133.18,-372.069C2119.65,-360.652 2103.36,-346.132 2088.56,-332.405"/>
<polygon fill="black" stroke="black" points="2090.68,-329.593 2080.98,-325.32 2085.9,-334.706 2090.68,-329.593"/>
</g>
<!-- 7 -->
<g id="node8" class="node"><title>7</title>
<polygon fill="bisque" stroke="black" stroke-width="2" points="2381.67,-385.016 2381.67,-403.567 2342.62,-416.685 2287.38,-416.685 2248.33,-403.567 2248.33,-385.016 2287.38,-371.898 2342.62,-371.898 2381.67,-385.016"/>
<text text-anchor="middle" x="2315" y="-390.591" font-family="Times,serif" font-size="14.00">catch</text>
</g>
<!-- 36 -->
<g id="node11" class="node"><title>36</title>
<polygon fill="khaki" stroke="black" stroke-dasharray="1,5" points="2435.86,-273.405 2435.86,-301.434 2365.06,-321.254 2264.94,-321.254 2194.14,-301.434 2194.14,-273.405 2264.94,-253.585 2365.06,-253.585 2435.86,-273.405"/>
<polygon fill="none" stroke="black" stroke-dasharray="1,5" points="2439.86,-270.353 2439.86,-304.487 2365.61,-325.273 2264.39,-325.273 2190.14,-304.487 2190.14,-270.353 2264.39,-249.567 2365.61,-249.567 2439.86,-270.353"/>
<text text-anchor="middle" x="2315" y="-291.22" font-family="Times,serif" font-size="14.00">Unknown Module</text>
<text text-anchor="middle" x="2315" y="-276.22" font-family="Times,serif" font-size="14.00">catch</text>
</g>
<!-- 7&#45;&gt;36 -->
<g id="edge3" class="edge"><title>7&#45;&gt;36</title>
<path fill="none" stroke="black" d="M2309.45,-372.069C2308.52,-361.49 2308.13,-348.247 2308.28,-335.439"/>
<polygon fill="black" stroke="black" points="2311.78,-335.4 2308.52,-325.32 2304.79,-335.235 2311.78,-335.4"/>
</g>
<!-- 27 -->
<g id="node9" class="node"><title>27</title>
<polygon fill="bisque" stroke="black" stroke-width="2" points="2556.13,-385.016 2556.13,-403.567 2510.36,-416.685 2445.64,-416.685 2399.87,-403.567 2399.87,-385.016 2445.64,-371.898 2510.36,-371.898 2556.13,-385.016"/>
<text text-anchor="middle" x="2478" y="-390.591" font-family="Times,serif" font-size="14.00">unblock</text>
</g>
<!-- 49 -->
<g id="node12" class="node"><title>49</title>
<polygon fill="khaki" stroke="black" stroke-dasharray="1,5" points="2703.86,-273.405 2703.86,-301.434 2633.06,-321.254 2532.94,-321.254 2462.14,-301.434 2462.14,-273.405 2532.94,-253.585 2633.06,-253.585 2703.86,-273.405"/>
<polygon fill="none" stroke="black" stroke-dasharray="1,5" points="2707.86,-270.353 2707.86,-304.487 2633.61,-325.273 2532.39,-325.273 2458.14,-304.487 2458.14,-270.353 2532.39,-249.567 2633.61,-249.567 2707.86,-270.353"/>
<text text-anchor="middle" x="2583" y="-291.22" font-family="Times,serif" font-size="14.00">Unknown Module</text>
<text text-anchor="middle" x="2583" y="-276.22" font-family="Times,serif" font-size="14.00">unblock</text>
</g>
<!-- 27&#45;&gt;49 -->
<g id="edge15" class="edge"><title>27&#45;&gt;49</title>
<path fill="none" stroke="black" d="M2493.7,-372.069C2504.12,-360.652 2518.29,-346.132 2532.29,-332.405"/>
<polygon fill="black" stroke="black" points="2534.85,-334.801 2539.58,-325.32 2529.97,-329.782 2534.85,-334.801"/>
</g>
<!-- 35&#45;&gt;6 -->
<g id="edge17" class="edge"><title>35&#45;&gt;6</title>
<path fill="none" stroke="navy" d="M2093.94,-325.32C2111.67,-340.976 2130.76,-358.662 2144.28,-372.069"/>
</g>
<!-- 36&#45;&gt;7 -->
<g id="edge18" class="edge"><title>36&#45;&gt;7</title>
<path fill="none" stroke="navy" d="M2321.48,-325.32C2322.04,-340.976 2321.73,-358.662 2320.55,-372.069"/>
</g>
<!-- 49&#45;&gt;27 -->
<g id="edge26" class="edge"><title>49&#45;&gt;27</title>
<path fill="none" stroke="navy" d="M2552.53,-325.32C2537.42,-340.976 2519.4,-358.662 2504.8,-372.069"/>
</g>
<!-- 17 -->
<g id="node13" class="node"><title>17</title>
<polygon fill="bisque" stroke="black" stroke-width="2" points="770.236,-385.016 770.236,-403.567 730.264,-416.685 673.736,-416.685 633.764,-403.567 633.764,-385.016 673.736,-371.898 730.264,-371.898 770.236,-385.016"/>
<text text-anchor="middle" x="702" y="-390.591" font-family="Times,serif" font-size="14.00">liftIO</text>
</g>
<!-- 41 -->
<g id="node14" class="node"><title>41</title>
<polygon fill="khaki" stroke="black" stroke-dasharray="1,5" points="803.858,-273.405 803.858,-301.434 733.061,-321.254 632.939,-321.254 562.142,-301.434 562.142,-273.405 632.939,-253.585 733.061,-253.585 803.858,-273.405"/>
<polygon fill="none" stroke="black" stroke-dasharray="1,5" points="807.856,-270.353 807.856,-304.487 733.607,-325.273 632.393,-325.273 558.144,-304.487 558.144,-270.353 632.393,-249.567 733.607,-249.567 807.856,-270.353"/>
<text text-anchor="middle" x="683" y="-291.22" font-family="Times,serif" font-size="14.00">Unknown Module</text>
<text text-anchor="middle" x="683" y="-276.22" font-family="Times,serif" font-size="14.00">liftIO</text>
</g>
<!-- 17&#45;&gt;41 -->
<g id="edge8" class="edge"><title>17&#45;&gt;41</title>
<path fill="none" stroke="black" d="M692.606,-372.069C689.758,-361.49 686.969,-348.247 684.801,-335.439"/>
<polygon fill="black" stroke="black" points="688.22,-334.653 683.206,-325.32 681.306,-335.743 688.22,-334.653"/>
</g>
<!-- 17&#45;&gt;40 -->
<g id="edge7" class="edge"><title>17&#45;&gt;40</title>
<path fill="none" stroke="black" d="M752.841,-379.131C773.884,-372.791 798.375,-364.786 820,-356.096 841.55,-347.436 864.382,-336.785 885.1,-326.517"/>
<polygon fill="black" stroke="black" points="886.769,-329.595 894.147,-321.991 883.638,-323.335 886.769,-329.595"/>
</g>
<!-- 41&#45;&gt;17 -->
<g id="edge21" class="edge"><title>41&#45;&gt;17</title>
<path fill="none" stroke="navy" d="M696.165,-325.32C699.562,-340.976 702.456,-358.662 703.704,-372.069"/>
</g>
<!-- 21 -->
<g id="node15" class="node"><title>21</title>
<polygon fill="bisque" stroke="black" stroke-width="2" points="1461.33,-385.016 1461.33,-403.567 1420.13,-416.685 1361.87,-416.685 1320.67,-403.567 1320.67,-385.016 1361.87,-371.898 1420.13,-371.898 1461.33,-385.016"/>
<text text-anchor="middle" x="1391" y="-390.591" font-family="Times,serif" font-size="14.00">mplus</text>
</g>
<!-- 44 -->
<g id="node17" class="node"><title>44</title>
<polygon fill="khaki" stroke="black" stroke-dasharray="1,5" points="1619.86,-273.405 1619.86,-301.434 1549.06,-321.254 1448.94,-321.254 1378.14,-301.434 1378.14,-273.405 1448.94,-253.585 1549.06,-253.585 1619.86,-273.405"/>
<polygon fill="none" stroke="black" stroke-dasharray="1,5" points="1623.86,-270.353 1623.86,-304.487 1549.61,-325.273 1448.39,-325.273 1374.14,-304.487 1374.14,-270.353 1448.39,-249.567 1549.61,-249.567 1623.86,-270.353"/>
<text text-anchor="middle" x="1499" y="-291.22" font-family="Times,serif" font-size="14.00">Unknown Module</text>
<text text-anchor="middle" x="1499" y="-276.22" font-family="Times,serif" font-size="14.00">mplus</text>
</g>
<!-- 21&#45;&gt;44 -->
<g id="edge11" class="edge"><title>21&#45;&gt;44</title>
<path fill="none" stroke="black" d="M1407.31,-372.069C1418.06,-360.652 1432.64,-346.132 1447.03,-332.405"/>
<polygon fill="black" stroke="black" points="1449.66,-334.735 1454.52,-325.32 1444.85,-329.65 1449.66,-334.735"/>
</g>
<!-- 22 -->
<g id="node16" class="node"><title>22</title>
<polygon fill="bisque" stroke="black" stroke-width="2" points="1302.36,-385.016 1302.36,-403.567 1260.56,-416.685 1201.44,-416.685 1159.64,-403.567 1159.64,-385.016 1201.44,-371.898 1260.56,-371.898 1302.36,-385.016"/>
<text text-anchor="middle" x="1231" y="-390.591" font-family="Times,serif" font-size="14.00">mzero</text>
</g>
<!-- 45 -->
<g id="node18" class="node"><title>45</title>
<polygon fill="khaki" stroke="black" stroke-dasharray="1,5" points="1351.86,-273.405 1351.86,-301.434 1281.06,-321.254 1180.94,-321.254 1110.14,-301.434 1110.14,-273.405 1180.94,-253.585 1281.06,-253.585 1351.86,-273.405"/>
<polygon fill="none" stroke="black" stroke-dasharray="1,5" points="1355.86,-270.353 1355.86,-304.487 1281.61,-325.273 1180.39,-325.273 1106.14,-304.487 1106.14,-270.353 1180.39,-249.567 1281.61,-249.567 1355.86,-270.353"/>
<text text-anchor="middle" x="1231" y="-291.22" font-family="Times,serif" font-size="14.00">Unknown Module</text>
<text text-anchor="middle" x="1231" y="-276.22" font-family="Times,serif" font-size="14.00">mzero</text>
</g>
<!-- 22&#45;&gt;45 -->
<g id="edge13" class="edge"><title>22&#45;&gt;45</title>
<path fill="none" stroke="black" d="M1225.45,-372.069C1224.52,-361.49 1224.13,-348.247 1224.28,-335.439"/>
<polygon fill="black" stroke="black" points="1227.78,-335.4 1224.52,-325.32 1220.79,-335.235 1227.78,-335.4"/>
</g>
<!-- 22&#45;&gt;40 -->
<g id="edge12" class="edge"><title>22&#45;&gt;40</title>
<path fill="none" stroke="black" d="M1173.89,-380.419C1149,-374.137 1119.7,-365.827 1094,-356.096 1072.06,-347.79 1048.94,-337.149 1028.06,-326.776"/>
<polygon fill="black" stroke="black" points="1029.46,-323.561 1018.95,-322.197 1026.32,-329.815 1029.46,-323.561"/>
</g>
<!-- 44&#45;&gt;21 -->
<g id="edge23" class="edge"><title>44&#45;&gt;21</title>
<path fill="none" stroke="navy" d="M1467.48,-325.32C1451.92,-340.976 1433.39,-358.662 1418.4,-372.069"/>
</g>
<!-- 45&#45;&gt;22 -->
<g id="edge24" class="edge"><title>45&#45;&gt;22</title>
<path fill="none" stroke="navy" d="M1237.48,-325.32C1238.04,-340.976 1237.73,-358.662 1236.55,-372.069"/>
</g>
<!-- 18 -->
<g id="node19" class="node"><title>18</title>
<polygon fill="bisque" stroke="black" stroke-width="2" points="1831.1,-385.016 1831.1,-403.567 1785.94,-416.685 1722.06,-416.685 1676.9,-403.567 1676.9,-385.016 1722.06,-371.898 1785.94,-371.898 1831.1,-385.016"/>
<text text-anchor="middle" x="1754" y="-390.591" font-family="Times,serif" font-size="14.00">liftSnap</text>
</g>
<!-- 42 -->
<g id="node20" class="node"><title>42</title>
<polygon fill="khaki" stroke="black" stroke-dasharray="1,5" points="1893.86,-273.405 1893.86,-301.434 1823.06,-321.254 1722.94,-321.254 1652.14,-301.434 1652.14,-273.405 1722.94,-253.585 1823.06,-253.585 1893.86,-273.405"/>
<polygon fill="none" stroke="black" stroke-dasharray="1,5" points="1897.86,-270.353 1897.86,-304.487 1823.61,-325.273 1722.39,-325.273 1648.14,-304.487 1648.14,-270.353 1722.39,-249.567 1823.61,-249.567 1897.86,-270.353"/>
<text text-anchor="middle" x="1773" y="-291.22" font-family="Times,serif" font-size="14.00">Unknown Module</text>
<text text-anchor="middle" x="1773" y="-276.22" font-family="Times,serif" font-size="14.00">liftSnap</text>
</g>
<!-- 18&#45;&gt;42 -->
<g id="edge10" class="edge"><title>18&#45;&gt;42</title>
<path fill="none" stroke="black" d="M1752.3,-372.069C1753.28,-361.49 1755.29,-348.247 1757.76,-335.439"/>
<polygon fill="black" stroke="black" points="1761.26,-335.819 1759.84,-325.32 1754.4,-334.415 1761.26,-335.819"/>
</g>
<!-- 18&#45;&gt;40 -->
<g id="edge9" class="edge"><title>18&#45;&gt;40</title>
<path fill="none" stroke="black" d="M1680.18,-383.942C1623.59,-377.182 1543.49,-368.494 1473,-364.096 1430.96,-361.473 1134.91,-366.107 1094,-356.096 1069.87,-350.193 1045.07,-339.556 1023.31,-328.437"/>
<polygon fill="black" stroke="black" points="1024.67,-325.195 1014.19,-323.654 1021.42,-331.396 1024.67,-325.195"/>
</g>
<!-- 42&#45;&gt;18 -->
<g id="edge22" class="edge"><title>42&#45;&gt;18</title>
<path fill="none" stroke="navy" d="M1772.79,-325.32C1770.52,-340.976 1767,-358.662 1763.39,-372.069"/>
</g>
<!-- 16 -->
<g id="node21" class="node"><title>16</title>
<polygon fill="bisque" stroke="black" stroke-width="2" points="997.775,-140.272 997.775,-158.823 964.517,-171.941 917.483,-171.941 884.225,-158.823 884.225,-140.272 917.483,-127.155 964.517,-127.155 997.775,-140.272"/>
<text text-anchor="middle" x="941" y="-145.848" font-family="Times,serif" font-size="14.00">lift</text>
</g>
<!-- 16&#45;&gt;48 -->
<g id="edge6" class="edge"><title>16&#45;&gt;48</title>
<path fill="none" stroke="black" d="M900.404,-133.777C866.03,-121.271 815.521,-102.893 771.837,-86.999"/>
<polygon fill="black" stroke="black" points="772.935,-83.6739 762.34,-83.5437 770.541,-90.252 772.935,-83.6739"/>
</g>
<!-- 40&#45;&gt;16 -->
<g id="edge20" class="edge"><title>40&#45;&gt;16</title>
<path fill="none" stroke="navy" d="M952.67,-249.651C949.746,-224.816 945.986,-192.886 943.536,-172.08"/>
</g>
</g>
</svg>
