<?xml version="1.0" encoding="UTF-8" standalone="no"?>
<!DOCTYPE svg PUBLIC "-//W3C//DTD SVG 1.1//EN"
 "http://www.w3.org/Graphics/SVG/1.1/DTD/svg11.dtd">
<!-- Generated by graphviz version 2.38.0 (20140413.2041)
 -->
<!-- Title: Diagram of: Snap.Snaplet.Session.SessionManager Pages: 1 -->
<svg width="1654pt" height="115pt"
 viewBox="0.00 0.00 1654.00 115.39" xmlns="http://www.w3.org/2000/svg" xmlns:xlink="http://www.w3.org/1999/xlink">
<g id="graph0" class="graph" transform="scale(1 1) rotate(0) translate(4 111.391)">
<title>Diagram of: Snap.Snaplet.Session.SessionManager</title>
<polygon fill="white" stroke="none" points="-4,4 -4,-111.391 1650,-111.391 1650,4 -4,4"/>
<g id="clust1" class="cluster"><title>cluster_Class_ISessionManager</title>
<path fill="#ffc1c1" stroke="black" d="M20,-8C20,-8 1454,-8 1454,-8 1460,-8 1466,-14 1466,-20 1466,-20 1466,-87.3913 1466,-87.3913 1466,-93.3913 1460,-99.3913 1454,-99.3913 1454,-99.3913 20,-99.3913 20,-99.3913 14,-99.3913 8,-93.3913 8,-87.3913 8,-87.3913 8,-20 8,-20 8,-14 14,-8 20,-8"/>
<text text-anchor="middle" x="737" y="-84.1913" font-family="Times,serif" font-size="14.00">Class: ISessionManager</text>
</g>
<g id="clust2" class="cluster"><title>cluster_Data_SessionManager</title>
<path fill="papayawhip" stroke="black" d="M1486,-16.1956C1486,-16.1956 1626,-16.1956 1626,-16.1956 1632,-16.1956 1638,-22.1956 1638,-28.1956 1638,-28.1956 1638,-79.1956 1638,-79.1956 1638,-85.1956 1632,-91.1956 1626,-91.1956 1626,-91.1956 1486,-91.1956 1486,-91.1956 1480,-91.1956 1474,-85.1956 1474,-79.1956 1474,-79.1956 1474,-28.1956 1474,-28.1956 1474,-22.1956 1480,-16.1956 1486,-16.1956"/>
<text text-anchor="middle" x="1556" y="-75.9956" font-family="Times,serif" font-size="14.00">Data: SessionManager</text>
</g>
<!-- 2 -->
<g id="node1" class="node"><title>2</title>
<polygon fill="gold" stroke="black" stroke-width="2" points="1454.11,-32.9327 1454.11,-51.4586 1408.94,-64.5583 1345.06,-64.5583 1299.89,-51.4586 1299.89,-32.9327 1345.06,-19.833 1408.94,-19.833 1454.11,-32.9327"/>
<polygon fill="none" stroke="black" stroke-width="2" points="1458.1,-29.8969 1458.1,-54.4943 1409.5,-68.5884 1344.5,-68.5884 1295.9,-54.4943 1295.9,-29.8969 1344.5,-15.8029 1409.5,-15.8029 1458.1,-29.8969"/>
<text text-anchor="middle" x="1377" y="-38.4956" font-family="Times,serif" font-size="14.00">commit</text>
</g>
<!-- 3 -->
<g id="node2" class="node"><title>3</title>
<polygon fill="gold" stroke="black" stroke-width="2" points="1273.43,-32.9327 1273.43,-51.4586 1238.03,-64.5583 1187.97,-64.5583 1152.57,-51.4586 1152.57,-32.9327 1187.97,-19.833 1238.03,-19.833 1273.43,-32.9327"/>
<polygon fill="none" stroke="black" stroke-width="2" points="1277.43,-30.1191 1277.43,-54.2722 1238.74,-68.5884 1187.26,-68.5884 1148.57,-54.2722 1148.57,-30.1191 1187.26,-15.8029 1238.74,-15.8029 1277.43,-30.1191"/>
<text text-anchor="middle" x="1213" y="-38.4956" font-family="Times,serif" font-size="14.00">csrf</text>
</g>
<!-- 4 -->
<g id="node3" class="node"><title>4</title>
<polygon fill="gold" stroke="black" stroke-width="2" points="1126.79,-32.9327 1126.79,-51.4586 1085.91,-64.5583 1028.09,-64.5583 987.211,-51.4586 987.211,-32.9327 1028.09,-19.833 1085.91,-19.833 1126.79,-32.9327"/>
<polygon fill="none" stroke="black" stroke-width="2" points="1130.8,-29.9872 1130.8,-54.404 1086.53,-68.5884 1027.47,-68.5884 983.203,-54.404 983.203,-29.9872 1027.47,-15.8029 1086.53,-15.8029 1130.8,-29.9872"/>
<text text-anchor="middle" x="1057" y="-38.4956" font-family="Times,serif" font-size="14.00">delete</text>
</g>
<!-- 5 -->
<g id="node4" class="node"><title>5</title>
<polygon fill="gold" stroke="black" stroke-width="2" points="961.229,-32.9327 961.229,-51.4586 921.261,-64.5583 864.739,-64.5583 824.771,-51.4586 824.771,-32.9327 864.739,-19.833 921.261,-19.833 961.229,-32.9327"/>
<polygon fill="none" stroke="black" stroke-width="2" points="965.235,-30.0073 965.235,-54.384 921.898,-68.5884 864.102,-68.5884 820.765,-54.384 820.765,-30.0073 864.102,-15.8029 921.898,-15.8029 965.235,-30.0073"/>
<text text-anchor="middle" x="893" y="-38.4956" font-family="Times,serif" font-size="14.00">insert</text>
</g>
<!-- 6 -->
<g id="node5" class="node"><title>6</title>
<polygon fill="gold" stroke="black" stroke-width="2" points="798.535,-32.9327 798.535,-51.4586 761.903,-64.5583 710.097,-64.5583 673.465,-51.4586 673.465,-32.9327 710.097,-19.833 761.903,-19.833 798.535,-32.9327"/>
<polygon fill="none" stroke="black" stroke-width="2" points="802.521,-30.0833 802.521,-54.308 762.587,-68.5884 709.413,-68.5884 669.479,-54.308 669.479,-30.0833 709.413,-15.8029 762.587,-15.8029 802.521,-30.0833"/>
<text text-anchor="middle" x="736" y="-38.4956" font-family="Times,serif" font-size="14.00">load</text>
</g>
<!-- 7 -->
<g id="node6" class="node"><title>7</title>
<polygon fill="gold" stroke="black" stroke-width="2" points="647.452,-32.9327 647.452,-51.4586 604.425,-64.5583 543.575,-64.5583 500.548,-51.4586 500.548,-32.9327 543.575,-19.833 604.425,-19.833 647.452,-32.9327"/>
<polygon fill="none" stroke="black" stroke-width="2" points="651.45,-29.9402 651.45,-54.4511 605.015,-68.5884 542.985,-68.5884 496.55,-54.4511 496.55,-29.9402 542.985,-15.8029 605.015,-15.8029 651.45,-29.9402"/>
<text text-anchor="middle" x="574" y="-38.4956" font-family="Times,serif" font-size="14.00">lookup</text>
</g>
<!-- 8 -->
<g id="node7" class="node"><title>8</title>
<polygon fill="gold" stroke="black" stroke-width="2" points="474.094,-32.9327 474.094,-51.4586 436.549,-64.5583 383.451,-64.5583 345.906,-51.4586 345.906,-32.9327 383.451,-19.833 436.549,-19.833 474.094,-32.9327"/>
<polygon fill="none" stroke="black" stroke-width="2" points="478.082,-30.0606 478.082,-54.3307 437.218,-68.5884 382.782,-68.5884 341.918,-54.3307 341.918,-30.0606 382.782,-15.8029 437.218,-15.8029 478.082,-30.0606"/>
<text text-anchor="middle" x="410" y="-38.4956" font-family="Times,serif" font-size="14.00">reset</text>
</g>
<!-- 9 -->
<g id="node8" class="node"><title>9</title>
<polygon fill="gold" stroke="black" stroke-width="2" points="319.773,-32.9327 319.773,-51.4586 279.487,-64.5583 222.513,-64.5583 182.227,-51.4586 182.227,-32.9327 222.513,-19.833 279.487,-19.833 319.773,-32.9327"/>
<polygon fill="none" stroke="black" stroke-width="2" points="323.766,-29.9972 323.766,-54.3941 280.114,-68.5884 221.886,-68.5884 178.234,-54.3941 178.234,-29.9972 221.886,-15.8029 280.114,-15.8029 323.766,-29.9972"/>
<text text-anchor="middle" x="251" y="-38.4956" font-family="Times,serif" font-size="14.00">toList</text>
</g>
<!-- 10 -->
<g id="node9" class="node"><title>10</title>
<polygon fill="gold" stroke="black" stroke-width="2" points="156.229,-32.9327 156.229,-51.4586 116.261,-64.5583 59.7386,-64.5583 19.771,-51.4586 19.771,-32.9327 59.7386,-19.833 116.261,-19.833 156.229,-32.9327"/>
<polygon fill="none" stroke="black" stroke-width="2" points="160.235,-30.0073 160.235,-54.384 116.898,-68.5884 59.1024,-68.5884 15.7645,-54.384 15.7645,-30.0073 59.1024,-15.8029 116.898,-15.8029 160.235,-30.0073"/>
<text text-anchor="middle" x="88" y="-38.4956" font-family="Times,serif" font-size="14.00">touch</text>
</g>
<!-- 1 -->
<g id="node10" class="node"><title>1</title>
<polygon fill="gold" stroke="black" stroke-width="2" points="1630.5,-60.1956 1485.5,-60.1956 1481.5,-56.1956 1481.5,-24.1956 1626.5,-24.1956 1630.5,-28.1956 1630.5,-60.1956"/>
<polyline fill="none" stroke="black" stroke-width="2" points="1626.5,-56.1956 1481.5,-56.1956 "/>
<polyline fill="none" stroke="black" stroke-width="2" points="1626.5,-56.1956 1626.5,-24.1956 "/>
<polyline fill="none" stroke="black" stroke-width="2" points="1626.5,-56.1956 1630.5,-60.1956 "/>
<text text-anchor="middle" x="1556" y="-38.4956" font-family="Times,serif" font-size="14.00">SessionManager</text>
</g>
</g>
</svg>
