<?xml version="1.0" encoding="UTF-8" standalone="no"?>
<!DOCTYPE svg PUBLIC "-//W3C//DTD SVG 1.1//EN"
 "http://www.w3.org/Graphics/SVG/1.1/DTD/svg11.dtd">
<!-- Generated by graphviz version 2.38.0 (20140413.2041)
 -->
<!-- Title: Levels within Snap.Snaplet.Session.Backends.CookieSession Pages: 1 -->
<svg width="2159pt" height="449pt"
 viewBox="0.00 0.00 2158.52 448.74" xmlns="http://www.w3.org/2000/svg" xmlns:xlink="http://www.w3.org/1999/xlink">
<g id="graph0" class="graph" transform="scale(1 1) rotate(0) translate(4 444.744)">
<title>Levels within Snap.Snaplet.Session.Backends.CookieSession</title>
<polygon fill="white" stroke="none" points="-4,4 -4,-444.744 2154.52,-444.744 2154.52,4 -4,4"/>
<g id="clust1" class="cluster"><title>cluster_0</title>
<polygon fill="lavender" stroke="black" points="8,-318.391 8,-432.744 936,-432.744 936,-318.391 8,-318.391"/>
<text text-anchor="middle" x="472" y="-417.544" font-family="Times,serif" font-size="14.00">Exported root entities</text>
</g>
<g id="clust2" class="cluster"><title>cluster_1</title>
<polygon fill="lavender" stroke="black" points="139,-152 139,-310.391 1125,-310.391 1125,-152 139,-152"/>
<text text-anchor="middle" x="632" y="-295.191" font-family="Times,serif" font-size="14.00">Level = 1</text>
</g>
<g id="clust3" class="cluster"><title>cluster_2</title>
<polygon fill="lavender" stroke="black" points="1133,-8 1133,-227 2010,-227 2010,-8 1133,-8"/>
<text text-anchor="middle" x="1571.5" y="-211.8" font-family="Times,serif" font-size="14.00">Level = 2</text>
</g>
<!-- 14 -->
<g id="node1" class="node"><title>14</title>
<polygon fill="gold" stroke="black" stroke-width="2" points="222,-382.067 16,-382.067 16,-346.067 222,-346.067 222,-382.067"/>
<text text-anchor="middle" x="119" y="-360.367" font-family="Times,serif" font-size="14.00">initCookieSessionManager</text>
</g>
<!-- 2 -->
<g id="node4" class="node"><title>2</title>
<polygon fill="cyan" stroke="black" stroke-width="2" points="1117.5,-196 900.5,-196 896.5,-192 896.5,-160 1113.5,-160 1117.5,-164 1117.5,-196"/>
<polyline fill="none" stroke="black" stroke-width="2" points="1113.5,-192 896.5,-192 "/>
<polyline fill="none" stroke="black" stroke-width="2" points="1113.5,-192 1113.5,-160 "/>
<polyline fill="none" stroke="black" stroke-width="2" points="1113.5,-192 1117.5,-196 "/>
<text text-anchor="middle" x="1007" y="-174.3" font-family="Times,serif" font-size="14.00">Data: CookieSessionManager</text>
</g>
<!-- 14&#45;&gt;2 -->
<g id="edge13" class="edge"><title>14&#45;&gt;2</title>
<path fill="none" stroke="black" d="M115.585,-345.928C111.147,-318.089 107.237,-263.312 138,-235 191.786,-185.5 660.283,-178.83 886.183,-178.528"/>
<polygon fill="black" stroke="black" points="886.428,-182.028 896.425,-178.519 886.421,-175.028 886.428,-182.028"/>
</g>
<!-- 30 -->
<g id="node2" class="node"><title>30</title>
<polygon fill="khaki" stroke="black" points="655.77,-350.053 655.77,-378.082 535.233,-397.902 364.767,-397.902 244.23,-378.082 244.23,-350.053 364.767,-330.233 535.233,-330.233 655.77,-350.053"/>
<polygon fill="none" stroke="black" points="659.767,-346.638 659.767,-381.497 535.557,-401.921 364.443,-401.921 240.233,-381.497 240.233,-346.638 364.443,-326.214 535.557,-326.214 659.767,-346.638"/>
<text text-anchor="middle" x="450" y="-367.867" font-family="Times,serif" font-size="14.00">Snap.Snaplet.Session.SessionManager</text>
<text text-anchor="middle" x="450" y="-352.867" font-family="Times,serif" font-size="14.00">Class: ISessionManager</text>
</g>
<!-- 4 -->
<g id="node5" class="node"><title>4</title>
<polygon fill="bisque" stroke="black" stroke-width="2" points="696.534,-247.92 696.534,-266.471 535.716,-279.589 308.284,-279.589 147.466,-266.471 147.466,-247.92 308.284,-234.803 535.716,-234.803 696.534,-247.92"/>
<text text-anchor="middle" x="422" y="-253.496" font-family="Times,serif" font-size="14.00">Class: ISessionManager, Data: CookieSessionManager</text>
</g>
<!-- 30&#45;&gt;4 -->
<g id="edge19" class="edge"><title>30&#45;&gt;4</title>
<path fill="none" stroke="navy" stroke-width="3.19722" d="M440.207,-326.388C436.012,-310.677 431.262,-292.884 427.665,-279.414"/>
</g>
<!-- 39 -->
<g id="node3" class="node"><title>39</title>
<polygon fill="khaki" stroke="black" stroke-dasharray="1,5" points="923.858,-350.053 923.858,-378.082 853.061,-397.902 752.939,-397.902 682.142,-378.082 682.142,-350.053 752.939,-330.233 853.061,-330.233 923.858,-350.053"/>
<polygon fill="none" stroke="black" stroke-dasharray="1,5" points="927.856,-347 927.856,-381.135 853.607,-401.921 752.393,-401.921 678.144,-381.135 678.144,-347 752.393,-326.214 853.607,-326.214 927.856,-347"/>
<text text-anchor="middle" x="803" y="-367.867" font-family="Times,serif" font-size="14.00">Unknown Module</text>
<text text-anchor="middle" x="803" y="-352.867" font-family="Times,serif" font-size="14.00">Class: Serialize</text>
</g>
<!-- 12 -->
<g id="node6" class="node"><title>12</title>
<polygon fill="bisque" stroke="black" stroke-width="2" points="1117.08,-247.92 1117.08,-266.471 999.291,-279.589 832.709,-279.589 714.917,-266.471 714.917,-247.92 832.709,-234.803 999.291,-234.803 1117.08,-247.92"/>
<text text-anchor="middle" x="916" y="-253.496" font-family="Times,serif" font-size="14.00">Class: Serialize, Data: CookieSession</text>
</g>
<!-- 39&#45;&gt;12 -->
<g id="edge20" class="edge"><title>39&#45;&gt;12</title>
<path fill="none" stroke="navy" stroke-width="1.69315" d="M842.522,-326.388C859.451,-310.677 878.623,-292.884 893.137,-279.414"/>
</g>
<!-- 4&#45;&gt;2 -->
<g id="edge2" class="edge"><title>4&#45;&gt;2</title>
<path fill="none" stroke="black" stroke-width="3.48491" d="M565.856,-237.213C664.27,-224.226 793.259,-207.205 886.311,-194.926"/>
<polygon fill="black" stroke="black" stroke-width="3.48491" points="886.881,-198.381 896.337,-193.603 885.965,-191.441 886.881,-198.381"/>
</g>
<!-- 1 -->
<g id="node7" class="node"><title>1</title>
<polygon fill="cyan" stroke="black" stroke-width="2" points="2002,-52 1834,-52 1830,-48 1830,-16 1998,-16 2002,-20 2002,-52"/>
<polyline fill="none" stroke="black" stroke-width="2" points="1998,-48 1830,-48 "/>
<polyline fill="none" stroke="black" stroke-width="2" points="1998,-48 1998,-16 "/>
<polyline fill="none" stroke="black" stroke-width="2" points="1998,-48 2002,-52 "/>
<text text-anchor="middle" x="1916" y="-30.3" font-family="Times,serif" font-size="14.00">Data: CookieSession</text>
</g>
<!-- 4&#45;&gt;1 -->
<g id="edge1" class="edge"><title>4&#45;&gt;1</title>
<path fill="none" stroke="black" stroke-width="2.09861" d="M606.745,-240.563C639.774,-238.294 673.888,-236.292 706,-235 715.354,-234.624 2047.4,-233.639 2054,-227 2099.59,-181.139 2058.58,-131.796 2011,-88 1997.64,-75.7037 1980.92,-65.1686 1965.24,-56.806"/>
<polygon fill="black" stroke="black" stroke-width="2.09861" points="1966.66,-53.5994 1956.17,-52.1363 1963.46,-59.8238 1966.66,-53.5994"/>
</g>
<!-- 3 -->
<g id="node8" class="node"><title>3</title>
<polygon fill="cyan" stroke="black" stroke-width="2" points="1437.5,-196 1306.5,-196 1302.5,-192 1302.5,-160 1433.5,-160 1437.5,-164 1437.5,-196"/>
<polyline fill="none" stroke="black" stroke-width="2" points="1433.5,-192 1302.5,-192 "/>
<polyline fill="none" stroke="black" stroke-width="2" points="1433.5,-192 1433.5,-160 "/>
<polyline fill="none" stroke="black" stroke-width="2" points="1433.5,-192 1437.5,-196 "/>
<text text-anchor="middle" x="1370" y="-174.3" font-family="Times,serif" font-size="14.00">Data: Payload</text>
</g>
<!-- 4&#45;&gt;3 -->
<g id="edge3" class="edge"><title>4&#45;&gt;3</title>
<path fill="none" stroke="black" stroke-width="2.09861" d="M607.897,-240.69C640.569,-238.431 674.264,-236.399 706,-235 738.582,-233.563 1261.71,-236.186 1293,-227 1310.4,-221.893 1327.72,-211.674 1341.51,-201.972"/>
<polygon fill="black" stroke="black" stroke-width="2.09861" points="1343.61,-204.776 1349.62,-196.049 1339.48,-199.125 1343.61,-204.776"/>
</g>
<!-- 13 -->
<g id="node11" class="node"><title>13</title>
<polygon fill="bisque" stroke="black" stroke-width="2" points="1574.5,-196 1455.5,-196 1455.5,-160 1574.5,-160 1574.5,-196"/>
<text text-anchor="middle" x="1515" y="-174.3" font-family="Times,serif" font-size="14.00">getPayload</text>
</g>
<!-- 4&#45;&gt;13 -->
<g id="edge4" class="edge"><title>4&#45;&gt;13</title>
<path fill="none" stroke="black" d="M607.513,-240.641C640.304,-238.38 674.138,-236.36 706,-235 726.538,-234.123 1426.42,-233.257 1446,-227 1461.7,-221.983 1476.97,-212.051 1489.15,-202.517"/>
<polygon fill="black" stroke="black" points="1491.53,-205.09 1497.04,-196.045 1487.09,-199.676 1491.53,-205.09"/>
</g>
<!-- 17 -->
<g id="node12" class="node"><title>17</title>
<polygon fill="bisque" stroke="black" stroke-width="2" points="1284.5,-196 1141.5,-196 1141.5,-160 1284.5,-160 1284.5,-196"/>
<text text-anchor="middle" x="1213" y="-174.3" font-family="Times,serif" font-size="14.00">loadDefSession</text>
</g>
<!-- 4&#45;&gt;17 -->
<g id="edge5" class="edge"><title>4&#45;&gt;17</title>
<path fill="none" stroke="black" stroke-width="1.69315" d="M609.048,-240.752C641.361,-238.508 674.638,-236.466 706,-235 752.957,-232.805 1083.68,-239.495 1129,-227 1147.81,-221.813 1166.85,-211.446 1182.04,-201.669"/>
<polygon fill="black" stroke="black" stroke-width="1.69315" points="1184.13,-204.485 1190.5,-196.025 1180.24,-198.661 1184.13,-204.485"/>
</g>
<!-- 19 -->
<g id="node13" class="node"><title>19</title>
<polygon fill="bisque" stroke="black" stroke-width="2" points="1858.5,-124 1701.5,-124 1701.5,-88 1858.5,-88 1858.5,-124"/>
<text text-anchor="middle" x="1780" y="-102.3" font-family="Times,serif" font-size="14.00">mkCookieSession</text>
</g>
<!-- 4&#45;&gt;19 -->
<g id="edge6" class="edge"><title>4&#45;&gt;19</title>
<path fill="none" stroke="black" stroke-width="1.69315" d="M606.745,-240.568C639.774,-238.299 673.888,-236.295 706,-235 715.055,-234.635 2004.61,-233.428 2011,-227 2034.5,-203.358 2032.2,-177.725 2011,-152 2010.85,-151.818 1933.76,-136.825 1868.69,-124.196"/>
<polygon fill="black" stroke="black" stroke-width="1.69315" points="1869.26,-120.741 1858.78,-122.272 1867.93,-127.613 1869.26,-120.741"/>
</g>
<!-- 20 -->
<g id="node14" class="node"><title>20</title>
<polygon fill="bisque" stroke="black" stroke-width="2" points="2001.5,-124 1876.5,-124 1876.5,-88 2001.5,-88 2001.5,-124"/>
<text text-anchor="middle" x="1939" y="-102.3" font-family="Times,serif" font-size="14.00">modSession</text>
</g>
<!-- 4&#45;&gt;20 -->
<g id="edge7" class="edge"><title>4&#45;&gt;20</title>
<path fill="none" stroke="black" stroke-width="1.69315" d="M606.745,-240.566C639.774,-238.297 673.888,-236.294 706,-235 715.208,-234.629 2026.5,-233.536 2033,-227 2056.5,-203.359 2050.77,-180.204 2033,-152 2027.09,-142.623 2018.63,-135.158 2009.18,-129.225"/>
<polygon fill="black" stroke="black" stroke-width="1.69315" points="2010.69,-126.06 2000.26,-124.197 2007.25,-132.157 2010.69,-126.06"/>
</g>
<!-- 25 -->
<g id="node15" class="node"><title>25</title>
<polygon fill="bisque" stroke="black" stroke-width="2" points="1709.5,-196 1592.5,-196 1592.5,-160 1709.5,-160 1709.5,-196"/>
<text text-anchor="middle" x="1651" y="-174.3" font-family="Times,serif" font-size="14.00">setPayload</text>
</g>
<!-- 4&#45;&gt;25 -->
<g id="edge8" class="edge"><title>4&#45;&gt;25</title>
<path fill="none" stroke="black" d="M607.13,-240.622C640.04,-238.355 674.014,-236.338 706,-235 730.369,-233.981 1560.81,-234.565 1584,-227 1599.36,-221.987 1614.21,-212.056 1626.01,-202.52"/>
<polygon fill="black" stroke="black" points="1628.28,-205.18 1633.66,-196.048 1623.76,-199.836 1628.28,-205.18"/>
</g>
<!-- 12&#45;&gt;1 -->
<g id="edge9" class="edge"><title>12&#45;&gt;1</title>
<path fill="none" stroke="black" stroke-width="1.69315" d="M1117.37,-254.87C1455.58,-252.155 2102.76,-244.663 2120,-227 2163.15,-182.79 2157.79,-136.868 2120,-88 2106.18,-70.1344 2058.26,-57.175 2012.33,-48.5443"/>
<polygon fill="black" stroke="black" stroke-width="1.69315" points="2012.73,-45.0601 2002.27,-46.7142 2011.48,-51.9471 2012.73,-45.0601"/>
</g>
<!-- 9 -->
<g id="node9" class="node"><title>9</title>
<polygon fill="cyan" stroke="black" stroke-width="2" points="2002,-196 1874,-196 1874,-160 2002,-160 2002,-196"/>
<text text-anchor="middle" x="1938" y="-174.3" font-family="Times,serif" font-size="14.00">decodeTuple</text>
</g>
<!-- 12&#45;&gt;9 -->
<g id="edge10" class="edge"><title>12&#45;&gt;9</title>
<path fill="none" stroke="black" d="M1117.22,-255.822C1374.73,-254.444 1795.97,-248.824 1865,-227 1881.37,-221.824 1897.54,-211.84 1910.48,-202.312"/>
<polygon fill="black" stroke="black" points="1912.68,-205.034 1918.49,-196.171 1908.42,-199.478 1912.68,-205.034"/>
</g>
<!-- 11 -->
<g id="node10" class="node"><title>11</title>
<polygon fill="cyan" stroke="black" stroke-width="2" points="1856,-196 1728,-196 1728,-160 1856,-160 1856,-196"/>
<text text-anchor="middle" x="1792" y="-174.3" font-family="Times,serif" font-size="14.00">encodeTuple</text>
</g>
<!-- 12&#45;&gt;11 -->
<g id="edge11" class="edge"><title>12&#45;&gt;11</title>
<path fill="none" stroke="black" d="M1117.11,-254.516C1336.27,-251.792 1663.31,-244.778 1719,-227 1735.36,-221.778 1751.52,-211.789 1764.47,-202.269"/>
<polygon fill="black" stroke="black" points="1766.67,-204.994 1772.48,-196.136 1762.41,-199.436 1766.67,-204.994"/>
</g>
<!-- 13&#45;&gt;2 -->
<g id="edge12" class="edge"><title>13&#45;&gt;2</title>
<path fill="none" stroke="black" stroke-width="2.09861" d="M1497.12,-196.199C1482.46,-209.497 1460.38,-226.038 1437,-231 1420.75,-234.448 1154.31,-234.173 1138,-231 1107.57,-225.078 1075.27,-212.089 1050.35,-200.454"/>
<polygon fill="black" stroke="black" stroke-width="2.09861" points="1051.71,-197.226 1041.18,-196.078 1048.7,-203.544 1051.71,-197.226"/>
</g>
<!-- 17&#45;&gt;2 -->
<g id="edge14" class="edge"><title>17&#45;&gt;2</title>
<path fill="none" stroke="black" stroke-width="1.69315" d="M1141.48,-178C1136.89,-178 1132.3,-178 1127.7,-178"/>
<polygon fill="black" stroke="black" stroke-width="1.69315" points="1127.64,-174.5 1117.64,-178 1127.64,-181.5 1127.64,-174.5"/>
</g>
<!-- 17&#45;&gt;19 -->
<g id="edge15" class="edge"><title>17&#45;&gt;19</title>
<path fill="none" stroke="black" d="M1262.08,-159.879C1272.2,-156.853 1282.87,-154.027 1293,-152 1430.3,-124.522 1592.81,-113.772 1691.06,-109.601"/>
<polygon fill="black" stroke="black" points="1691.4,-113.09 1701.25,-109.182 1691.11,-106.096 1691.4,-113.09"/>
</g>
<!-- 19&#45;&gt;1 -->
<g id="edge16" class="edge"><title>19&#45;&gt;1</title>
<path fill="none" stroke="black" d="M1813.27,-87.8761C1831.46,-78.5117 1854.19,-66.8136 1873.64,-56.803"/>
<polygon fill="black" stroke="black" points="1875.31,-59.8782 1882.6,-52.1898 1872.11,-53.6543 1875.31,-59.8782"/>
</g>
<!-- 20&#45;&gt;1 -->
<g id="edge17" class="edge"><title>20&#45;&gt;1</title>
<path fill="none" stroke="black" stroke-width="1.69315" d="M1933.31,-87.6966C1930.75,-79.8979 1927.67,-70.5085 1924.82,-61.8292"/>
<polygon fill="black" stroke="black" stroke-width="1.69315" points="1928.07,-60.5121 1921.62,-52.1043 1921.42,-62.6972 1928.07,-60.5121"/>
</g>
<!-- 25&#45;&gt;2 -->
<g id="edge18" class="edge"><title>25&#45;&gt;2</title>
<path fill="none" stroke="black" stroke-width="2.09861" d="M1633.69,-196.247C1619.46,-209.572 1597.97,-226.125 1575,-231 1551.25,-236.04 1161.83,-235.638 1138,-231 1107.57,-225.078 1075.27,-212.089 1050.35,-200.454"/>
<polygon fill="black" stroke="black" stroke-width="2.09861" points="1051.71,-197.226 1041.18,-196.078 1048.7,-203.544 1051.71,-197.226"/>
</g>
</g>
</svg>
