<?xml version="1.0" encoding="UTF-8" standalone="no"?>
<!DOCTYPE svg PUBLIC "-//W3C//DTD SVG 1.1//EN"
 "http://www.w3.org/Graphics/SVG/1.1/DTD/svg11.dtd">
<!-- Generated by graphviz version 2.38.0 (20140413.2041)
 -->
<!-- Title: Core of Snap.Snaplet.Auth.AuthManager Pages: 1 -->
<svg width="1195pt" height="227pt"
 viewBox="0.00 0.00 1195.00 226.78" xmlns="http://www.w3.org/2000/svg" xmlns:xlink="http://www.w3.org/1999/xlink">
<g id="graph0" class="graph" transform="scale(1 1) rotate(0) translate(4 222.783)">
<title>Core of Snap.Snaplet.Auth.AuthManager</title>
<polygon fill="white" stroke="none" points="-4,4 -4,-222.783 1191,-222.783 1191,4 -4,4"/>
<g id="clust1" class="cluster"><title>cluster_Class_IAuthBackend</title>
<path fill="#ffc1c1" stroke="black" d="M20,-8C20,-8 1167,-8 1167,-8 1173,-8 1179,-14 1179,-20 1179,-20 1179,-198.783 1179,-198.783 1179,-204.783 1173,-210.783 1167,-210.783 1167,-210.783 20,-210.783 20,-210.783 14,-210.783 8,-204.783 8,-198.783 8,-198.783 8,-20 8,-20 8,-14 14,-8 20,-8"/>
<text text-anchor="middle" x="593.5" y="-195.583" font-family="Times,serif" font-size="14.00">Class: IAuthBackend</text>
</g>
<g id="clust2" class="cluster"><title>cluster_Class_IAuthBackend_Data_AuthManagerb</title>
<path fill="#c6e2ff" stroke="black" d="M40,-96.3913C40,-96.3913 1147,-96.3913 1147,-96.3913 1153,-96.3913 1159,-102.391 1159,-108.391 1159,-108.391 1159,-167.783 1159,-167.783 1159,-173.783 1153,-179.783 1147,-179.783 1147,-179.783 40,-179.783 40,-179.783 34,-179.783 28,-173.783 28,-167.783 28,-167.783 28,-108.391 28,-108.391 28,-102.391 34,-96.3913 40,-96.3913"/>
<text text-anchor="middle" x="593.5" y="-164.583" font-family="Times,serif" font-size="14.00">Instance for: (AuthManager b)</text>
</g>
<!-- 6 -->
<g id="node1" class="node"><title>6</title>
<polygon fill="bisque" stroke="black" stroke-width="2" points="186.012,-117.311 186.012,-135.862 142.071,-148.98 79.9291,-148.98 35.9881,-135.862 35.9881,-117.311 79.9291,-104.194 142.071,-104.194 186.012,-117.311"/>
<text text-anchor="middle" x="111" y="-122.887" font-family="Times,serif" font-size="14.00">destroy</text>
</g>
<!-- 5 -->
<g id="node6" class="node"><title>5</title>
<polygon fill="goldenrod" stroke="black" stroke-width="2" points="170.012,-32.9327 170.012,-51.4586 126.071,-64.5583 63.9292,-64.5583 19.9884,-51.4586 19.9884,-32.9327 63.9292,-19.833 126.071,-19.833 170.012,-32.9327"/>
<polygon fill="none" stroke="black" stroke-width="2" points="174.012,-29.9225 174.012,-54.4688 126.65,-68.5884 63.3497,-68.5884 15.9881,-54.4688 15.9881,-29.9225 63.3497,-15.8029 126.65,-15.8029 174.012,-29.9225"/>
<text text-anchor="middle" x="95" y="-38.4956" font-family="Times,serif" font-size="14.00">destroy</text>
</g>
<!-- 6&#45;&gt;5 -->
<g id="edge2" class="edge"><title>6&#45;&gt;5</title>
<path fill="none" stroke="black" d="M100.891,-104.369C98.7086,-96.4871 96.6945,-87.3176 95.1701,-78.5138"/>
<polygon fill="black" stroke="black" points="98.6014,-77.799 93.6246,-68.4458 91.6825,-78.8611 98.6014,-77.799"/>
</g>
<!-- 9 -->
<g id="node2" class="node"><title>9</title>
<polygon fill="bisque" stroke="black" stroke-width="2" points="424.426,-117.311 424.426,-135.862 359.74,-148.98 268.26,-148.98 203.574,-135.862 203.574,-117.311 268.26,-104.194 359.74,-104.194 424.426,-117.311"/>
<text text-anchor="middle" x="314" y="-122.887" font-family="Times,serif" font-size="14.00">lookupByLogin</text>
</g>
<!-- 8 -->
<g id="node7" class="node"><title>8</title>
<polygon fill="goldenrod" stroke="black" stroke-width="2" points="416.419,-32.9327 416.419,-51.4586 351.737,-64.5583 260.263,-64.5583 195.581,-51.4586 195.581,-32.9327 260.263,-19.833 351.737,-19.833 416.419,-32.9327"/>
<polygon fill="none" stroke="black" stroke-width="2" points="420.426,-29.6333 420.426,-54.7579 352.136,-68.5884 259.864,-68.5884 191.574,-54.7579 191.574,-29.6333 259.864,-15.8029 352.136,-15.8029 420.426,-29.6333"/>
<text text-anchor="middle" x="306" y="-38.4956" font-family="Times,serif" font-size="14.00">lookupByLogin</text>
</g>
<!-- 9&#45;&gt;8 -->
<g id="edge4" class="edge"><title>9&#45;&gt;8</title>
<path fill="none" stroke="black" d="M305.952,-104.369C304.534,-96.4871 303.41,-87.3176 302.741,-78.5138"/>
<polygon fill="black" stroke="black" points="306.231,-78.2328 302.173,-68.4458 299.242,-78.6271 306.231,-78.2328"/>
</g>
<!-- 11 -->
<g id="node3" class="node"><title>11</title>
<polygon fill="bisque" stroke="black" stroke-width="2" points="759.362,-117.311 759.362,-135.862 666.596,-148.98 535.404,-148.98 442.638,-135.862 442.638,-117.311 535.404,-104.194 666.596,-104.194 759.362,-117.311"/>
<text text-anchor="middle" x="601" y="-122.887" font-family="Times,serif" font-size="14.00">lookupByRememberToken</text>
</g>
<!-- 10 -->
<g id="node8" class="node"><title>10</title>
<polygon fill="goldenrod" stroke="black" stroke-width="2" points="759.364,-32.9327 759.364,-51.4586 666.596,-64.5583 535.404,-64.5583 442.636,-51.4586 442.636,-32.9327 535.404,-19.833 666.596,-19.833 759.364,-32.9327"/>
<polygon fill="none" stroke="black" stroke-width="2" points="763.362,-29.4279 763.362,-54.9634 666.875,-68.5884 535.125,-68.5884 438.638,-54.9634 438.638,-29.4279 535.125,-15.8029 666.875,-15.8029 763.362,-29.4279"/>
<text text-anchor="middle" x="601" y="-38.4956" font-family="Times,serif" font-size="14.00">lookupByRememberToken</text>
</g>
<!-- 11&#45;&gt;10 -->
<g id="edge6" class="edge"><title>11&#45;&gt;10</title>
<path fill="none" stroke="black" d="M595.012,-104.369C594.36,-96.4871 594.126,-87.3176 594.311,-78.5138"/>
<polygon fill="black" stroke="black" points="597.812,-78.5799 594.721,-68.4458 590.817,-78.2952 597.812,-78.5799"/>
</g>
<!-- 13 -->
<g id="node4" class="node"><title>13</title>
<polygon fill="bisque" stroke="black" stroke-width="2" points="1005.08,-117.311 1005.08,-135.862 938.253,-148.98 843.747,-148.98 776.921,-135.862 776.921,-117.311 843.747,-104.194 938.253,-104.194 1005.08,-117.311"/>
<text text-anchor="middle" x="891" y="-122.887" font-family="Times,serif" font-size="14.00">lookupByUserId</text>
</g>
<!-- 12 -->
<g id="node9" class="node"><title>12</title>
<polygon fill="goldenrod" stroke="black" stroke-width="2" points="1013.08,-32.9327 1013.08,-51.4586 946.253,-64.5583 851.747,-64.5583 784.922,-51.4586 784.922,-32.9327 851.747,-19.833 946.253,-19.833 1013.08,-32.9327"/>
<polygon fill="none" stroke="black" stroke-width="2" points="1017.08,-29.6114 1017.08,-54.7799 946.638,-68.5884 851.362,-68.5884 780.921,-54.7799 780.921,-29.6114 851.362,-15.8029 946.638,-15.8029 1017.08,-29.6114"/>
<text text-anchor="middle" x="899" y="-38.4956" font-family="Times,serif" font-size="14.00">lookupByUserId</text>
</g>
<!-- 13&#45;&gt;12 -->
<g id="edge8" class="edge"><title>13&#45;&gt;12</title>
<path fill="none" stroke="black" d="M887.072,-104.369C887.185,-96.4871 887.842,-87.3176 888.882,-78.5138"/>
<polygon fill="black" stroke="black" points="892.372,-78.83 890.269,-68.4458 885.437,-77.8745 892.372,-78.83"/>
</g>
<!-- 19 -->
<g id="node5" class="node"><title>19</title>
<polygon fill="bisque" stroke="black" stroke-width="2" points="1150.55,-117.311 1150.55,-135.862 1113.32,-148.98 1060.68,-148.98 1023.45,-135.862 1023.45,-117.311 1060.68,-104.194 1113.32,-104.194 1150.55,-117.311"/>
<text text-anchor="middle" x="1087" y="-122.887" font-family="Times,serif" font-size="14.00">save</text>
</g>
<!-- 18 -->
<g id="node10" class="node"><title>18</title>
<polygon fill="goldenrod" stroke="black" stroke-width="2" points="1166.55,-32.9327 1166.55,-51.4586 1129.32,-64.5583 1076.68,-64.5583 1039.45,-51.4586 1039.45,-32.9327 1076.68,-19.833 1129.32,-19.833 1166.55,-32.9327"/>
<polygon fill="none" stroke="black" stroke-width="2" points="1170.55,-30.0718 1170.55,-54.3195 1130,-68.5884 1076,-68.5884 1035.45,-54.3195 1035.45,-30.0718 1076,-15.8029 1130,-15.8029 1170.55,-30.0718"/>
<text text-anchor="middle" x="1103" y="-38.4956" font-family="Times,serif" font-size="14.00">save</text>
</g>
<!-- 19&#45;&gt;18 -->
<g id="edge10" class="edge"><title>19&#45;&gt;18</title>
<path fill="none" stroke="black" d="M1085.13,-104.369C1086.02,-96.4014 1087.59,-87.1181 1089.51,-78.2268"/>
<polygon fill="black" stroke="black" points="1092.93,-78.9818 1091.82,-68.4458 1086.12,-77.3775 1092.93,-78.9818"/>
</g>
<!-- 5&#45;&gt;6 -->
<g id="edge1" class="edge"><title>5&#45;&gt;6</title>
<path fill="none" stroke="navy" d="M106.182,-68.4458C109.129,-79.9444 111.645,-93.4028 112.868,-104.369"/>
</g>
<!-- 8&#45;&gt;9 -->
<g id="edge3" class="edge"><title>8&#45;&gt;9</title>
<path fill="none" stroke="navy" d="M314.731,-68.4458C316.561,-79.9444 317.77,-93.4028 317.928,-104.369"/>
</g>
<!-- 10&#45;&gt;11 -->
<g id="edge5" class="edge"><title>10&#45;&gt;11</title>
<path fill="none" stroke="navy" d="M607.279,-68.4458C607.992,-79.9444 607.895,-93.4028 606.988,-104.369"/>
</g>
<!-- 12&#45;&gt;13 -->
<g id="edge7" class="edge"><title>12&#45;&gt;13</title>
<path fill="none" stroke="navy" d="M902.827,-68.4458C902.424,-79.9444 901.02,-93.4028 899.048,-104.369"/>
</g>
<!-- 18&#45;&gt;19 -->
<g id="edge9" class="edge"><title>18&#45;&gt;19</title>
<path fill="none" stroke="navy" d="M1104.38,-68.4458C1102.86,-79.9444 1100.15,-93.4028 1097.11,-104.369"/>
</g>
</g>
</svg>
