<?xml version="1.0" encoding="UTF-8" standalone="no"?>
<!DOCTYPE svg PUBLIC "-//W3C//DTD SVG 1.1//EN"
 "http://www.w3.org/Graphics/SVG/1.1/DTD/svg11.dtd">
<!-- Generated by graphviz version 2.38.0 (20140413.2041)
 -->
<!-- Title: Core of Snap.Snaplet.Auth.Types Pages: 1 -->
<svg width="1090pt" height="250pt"
 viewBox="0.00 0.00 1090.00 249.74" xmlns="http://www.w3.org/2000/svg" xmlns:xlink="http://www.w3.org/1999/xlink">
<g id="graph0" class="graph" transform="scale(1 1) rotate(0) translate(4 245.744)">
<title>Core of Snap.Snaplet.Auth.Types</title>
<polygon fill="white" stroke="none" points="-4,4 -4,-245.744 1086,-245.744 1086,4 -4,4"/>
<g id="clust1" class="cluster"><title>cluster_Class_FromJSON</title>
<path fill="#ffc1c1" stroke="black" d="M20,-8C20,-8 416,-8 416,-8 422,-8 428,-14 428,-20 428,-20 428,-221.744 428,-221.744 428,-227.744 422,-233.744 416,-233.744 416,-233.744 20,-233.744 20,-233.744 14,-233.744 8,-227.744 8,-221.744 8,-221.744 8,-20 8,-20 8,-14 14,-8 20,-8"/>
<text text-anchor="middle" x="218" y="-218.544" font-family="Times,serif" font-size="14.00">Class: FromJSON</text>
</g>
<g id="clust2" class="cluster"><title>cluster_Class_FromJSON_Data_Password</title>
<path fill="#c6e2ff" stroke="black" d="M234,-119.352C234,-119.352 408,-119.352 408,-119.352 414,-119.352 420,-125.352 420,-131.352 420,-131.352 420,-190.744 420,-190.744 420,-196.744 414,-202.744 408,-202.744 408,-202.744 234,-202.744 234,-202.744 228,-202.744 222,-196.744 222,-190.744 222,-190.744 222,-131.352 222,-131.352 222,-125.352 228,-119.352 234,-119.352"/>
<text text-anchor="middle" x="321" y="-187.544" font-family="Times,serif" font-size="14.00">Instance for: Password</text>
</g>
<g id="clust3" class="cluster"><title>cluster_Class_FromJSON_Data_Role</title>
<path fill="#c6e2ff" stroke="black" d="M28,-119.352C28,-119.352 202,-119.352 202,-119.352 208,-119.352 214,-125.352 214,-131.352 214,-131.352 214,-190.744 214,-190.744 214,-196.744 208,-202.744 202,-202.744 202,-202.744 28,-202.744 28,-202.744 22,-202.744 16,-196.744 16,-190.744 16,-190.744 16,-131.352 16,-131.352 16,-125.352 22,-119.352 28,-119.352"/>
<text text-anchor="middle" x="115" y="-187.544" font-family="Times,serif" font-size="14.00">Instance for: Role</text>
</g>
<g id="clust4" class="cluster"><title>cluster_Class_Show</title>
<path fill="#ffc1c1" stroke="black" d="M448,-8C448,-8 690,-8 690,-8 696,-8 702,-14 702,-20 702,-20 702,-221.744 702,-221.744 702,-227.744 696,-233.744 690,-233.744 690,-233.744 448,-233.744 448,-233.744 442,-233.744 436,-227.744 436,-221.744 436,-221.744 436,-20 436,-20 436,-14 442,-8 448,-8"/>
<text text-anchor="middle" x="569" y="-218.544" font-family="Times,serif" font-size="14.00">Class: Show</text>
</g>
<g id="clust5" class="cluster"><title>cluster_Class_Show_Data_AuthFailure</title>
<path fill="#c6e2ff" stroke="black" d="M504,-119.352C504,-119.352 634,-119.352 634,-119.352 640,-119.352 646,-125.352 646,-131.352 646,-131.352 646,-190.744 646,-190.744 646,-196.744 640,-202.744 634,-202.744 634,-202.744 504,-202.744 504,-202.744 498,-202.744 492,-196.744 492,-190.744 492,-190.744 492,-131.352 492,-131.352 492,-125.352 498,-119.352 504,-119.352"/>
<text text-anchor="middle" x="569" y="-187.544" font-family="Times,serif" font-size="14.00">Instance for: AuthFailure</text>
</g>
<g id="clust6" class="cluster"><title>cluster_Class_ToJSON</title>
<path fill="#ffc1c1" stroke="black" d="M722,-8C722,-8 1062,-8 1062,-8 1068,-8 1074,-14 1074,-20 1074,-20 1074,-221.744 1074,-221.744 1074,-227.744 1068,-233.744 1062,-233.744 1062,-233.744 722,-233.744 722,-233.744 716,-233.744 710,-227.744 710,-221.744 710,-221.744 710,-20 710,-20 710,-14 716,-8 722,-8"/>
<text text-anchor="middle" x="892" y="-218.544" font-family="Times,serif" font-size="14.00">Class: ToJSON</text>
</g>
<g id="clust7" class="cluster"><title>cluster_Class_ToJSON_Data_Password</title>
<path fill="#c6e2ff" stroke="black" d="M908,-119.352C908,-119.352 1054,-119.352 1054,-119.352 1060,-119.352 1066,-125.352 1066,-131.352 1066,-131.352 1066,-190.744 1066,-190.744 1066,-196.744 1060,-202.744 1054,-202.744 1054,-202.744 908,-202.744 908,-202.744 902,-202.744 896,-196.744 896,-190.744 896,-190.744 896,-131.352 896,-131.352 896,-125.352 902,-119.352 908,-119.352"/>
<text text-anchor="middle" x="981" y="-187.544" font-family="Times,serif" font-size="14.00">Instance for: Password</text>
</g>
<g id="clust8" class="cluster"><title>cluster_Class_ToJSON_Data_Role</title>
<path fill="#c6e2ff" stroke="black" d="M730,-119.352C730,-119.352 876,-119.352 876,-119.352 882,-119.352 888,-125.352 888,-131.352 888,-131.352 888,-190.744 888,-190.744 888,-196.744 882,-202.744 876,-202.744 876,-202.744 730,-202.744 730,-202.744 724,-202.744 718,-196.744 718,-190.744 718,-190.744 718,-131.352 718,-131.352 718,-125.352 724,-119.352 730,-119.352"/>
<text text-anchor="middle" x="803" y="-187.544" font-family="Times,serif" font-size="14.00">Instance for: Role</text>
</g>
<!-- 29 -->
<g id="node1" class="node"><title>29</title>
<polygon fill="bisque" stroke="black" stroke-width="2" points="412.157,-140.272 412.157,-158.823 358.759,-171.941 283.241,-171.941 229.843,-158.823 229.843,-140.272 283.241,-127.155 358.759,-127.155 412.157,-140.272"/>
<text text-anchor="middle" x="321" y="-145.848" font-family="Times,serif" font-size="14.00">parseJSON</text>
</g>
<!-- 58 -->
<g id="node3" class="node"><title>58</title>
<polygon fill="khaki" stroke="black" stroke-dasharray="1,5" points="338.858,-39.6615 338.858,-67.6908 268.061,-87.5105 167.939,-87.5105 97.1417,-67.6908 97.1417,-39.6615 167.939,-19.8418 268.061,-19.8418 338.858,-39.6615"/>
<polygon fill="none" stroke="black" stroke-dasharray="1,5" points="342.856,-36.609 342.856,-70.7433 268.607,-91.5293 167.393,-91.5293 93.144,-70.7433 93.144,-36.609 167.393,-15.823 268.607,-15.823 342.856,-36.609"/>
<text text-anchor="middle" x="218" y="-57.4761" font-family="Times,serif" font-size="14.00">Unknown Module</text>
<text text-anchor="middle" x="218" y="-42.4761" font-family="Times,serif" font-size="14.00">parseJSON</text>
</g>
<!-- 29&#45;&gt;58 -->
<g id="edge1" class="edge"><title>29&#45;&gt;58</title>
<path fill="none" stroke="black" d="M291.867,-127.247C281.674,-118.632 270.073,-108.356 259.115,-98.2851"/>
<polygon fill="black" stroke="black" points="261.368,-95.6014 251.655,-91.3685 256.608,-100.734 261.368,-95.6014"/>
</g>
<!-- 30 -->
<g id="node2" class="node"><title>30</title>
<polygon fill="bisque" stroke="black" stroke-width="2" points="206.157,-140.272 206.157,-158.823 152.759,-171.941 77.2414,-171.941 23.8426,-158.823 23.8426,-140.272 77.2414,-127.155 152.759,-127.155 206.157,-140.272"/>
<text text-anchor="middle" x="115" y="-145.848" font-family="Times,serif" font-size="14.00">parseJSON</text>
</g>
<!-- 30&#45;&gt;58 -->
<g id="edge2" class="edge"><title>30&#45;&gt;58</title>
<path fill="none" stroke="black" d="M132.611,-127.247C141.323,-118.632 152.274,-108.356 163.416,-98.2851"/>
<polygon fill="black" stroke="black" points="166.023,-100.649 171.135,-91.3685 161.351,-95.4353 166.023,-100.649"/>
</g>
<!-- 58&#45;&gt;29 -->
<g id="edge6" class="edge"><title>58&#45;&gt;29</title>
<path fill="none" stroke="navy" d="M264.865,-91.3685C278.553,-103.525 292.667,-116.645 303.389,-127.247"/>
</g>
<!-- 58&#45;&gt;30 -->
<g id="edge7" class="edge"><title>58&#45;&gt;30</title>
<path fill="none" stroke="navy" d="M184.345,-91.3685C171.355,-103.525 156.678,-116.645 144.133,-127.247"/>
</g>
<!-- 32 -->
<g id="node4" class="node"><title>32</title>
<polygon fill="bisque" stroke="black" stroke-width="2" points="635.674,-140.272 635.674,-158.823 596.617,-171.941 541.383,-171.941 502.326,-158.823 502.326,-140.272 541.383,-127.155 596.617,-127.155 635.674,-140.272"/>
<text text-anchor="middle" x="569" y="-145.848" font-family="Times,serif" font-size="14.00">show</text>
</g>
<!-- 59 -->
<g id="node5" class="node"><title>59</title>
<polygon fill="khaki" stroke="black" stroke-dasharray="1,5" points="689.858,-39.6615 689.858,-67.6908 619.061,-87.5105 518.939,-87.5105 448.142,-67.6908 448.142,-39.6615 518.939,-19.8418 619.061,-19.8418 689.858,-39.6615"/>
<polygon fill="none" stroke="black" stroke-dasharray="1,5" points="693.856,-36.609 693.856,-70.7433 619.607,-91.5293 518.393,-91.5293 444.144,-70.7433 444.144,-36.609 518.393,-15.823 619.607,-15.823 693.856,-36.609"/>
<text text-anchor="middle" x="569" y="-57.4761" font-family="Times,serif" font-size="14.00">Unknown Module</text>
<text text-anchor="middle" x="569" y="-42.4761" font-family="Times,serif" font-size="14.00">show</text>
</g>
<!-- 32&#45;&gt;59 -->
<g id="edge3" class="edge"><title>32&#45;&gt;59</title>
<path fill="none" stroke="black" d="M563.239,-127.247C562.577,-119.544 562.247,-110.511 562.25,-101.485"/>
<polygon fill="black" stroke="black" points="565.751,-101.418 562.395,-91.3685 558.752,-101.317 565.751,-101.418"/>
</g>
<!-- 59&#45;&gt;32 -->
<g id="edge8" class="edge"><title>59&#45;&gt;32</title>
<path fill="none" stroke="navy" stroke-width="3.19722" d="M575.605,-91.3685C575.954,-103.525 575.673,-116.645 574.761,-127.247"/>
</g>
<!-- 34 -->
<g id="node6" class="node"><title>34</title>
<polygon fill="bisque" stroke="black" stroke-width="2" points="1058.1,-140.272 1058.1,-158.823 1012.94,-171.941 949.062,-171.941 903.895,-158.823 903.895,-140.272 949.062,-127.155 1012.94,-127.155 1058.1,-140.272"/>
<text text-anchor="middle" x="981" y="-145.848" font-family="Times,serif" font-size="14.00">toJSON</text>
</g>
<!-- 60 -->
<g id="node8" class="node"><title>60</title>
<polygon fill="khaki" stroke="black" stroke-dasharray="1,5" points="1012.86,-39.6615 1012.86,-67.6908 942.061,-87.5105 841.939,-87.5105 771.142,-67.6908 771.142,-39.6615 841.939,-19.8418 942.061,-19.8418 1012.86,-39.6615"/>
<polygon fill="none" stroke="black" stroke-dasharray="1,5" points="1016.86,-36.609 1016.86,-70.7433 942.607,-91.5293 841.393,-91.5293 767.144,-70.7433 767.144,-36.609 841.393,-15.823 942.607,-15.823 1016.86,-36.609"/>
<text text-anchor="middle" x="892" y="-57.4761" font-family="Times,serif" font-size="14.00">Unknown Module</text>
<text text-anchor="middle" x="892" y="-42.4761" font-family="Times,serif" font-size="14.00">toJSON</text>
</g>
<!-- 34&#45;&gt;60 -->
<g id="edge4" class="edge"><title>34&#45;&gt;60</title>
<path fill="none" stroke="black" d="M955.044,-127.247C946.307,-118.798 936.454,-108.751 927.157,-98.8663"/>
<polygon fill="black" stroke="black" points="929.557,-96.307 920.183,-91.3685 924.431,-101.075 929.557,-96.307"/>
</g>
<!-- 35 -->
<g id="node7" class="node"><title>35</title>
<polygon fill="bisque" stroke="black" stroke-width="2" points="880.105,-140.272 880.105,-158.823 834.938,-171.941 771.062,-171.941 725.895,-158.823 725.895,-140.272 771.062,-127.155 834.938,-127.155 880.105,-140.272"/>
<text text-anchor="middle" x="803" y="-145.848" font-family="Times,serif" font-size="14.00">toJSON</text>
</g>
<!-- 35&#45;&gt;60 -->
<g id="edge5" class="edge"><title>35&#45;&gt;60</title>
<path fill="none" stroke="black" d="M817.435,-127.247C824.79,-118.715 834.099,-108.554 843.641,-98.5756"/>
<polygon fill="black" stroke="black" points="846.174,-100.991 850.607,-91.3685 841.141,-96.1268 846.174,-100.991"/>
</g>
<!-- 60&#45;&gt;34 -->
<g id="edge9" class="edge"><title>60&#45;&gt;34</title>
<path fill="none" stroke="navy" stroke-width="1.69315" d="M933.393,-91.3685C945.268,-103.525 957.425,-116.645 966.565,-127.247"/>
</g>
<!-- 60&#45;&gt;35 -->
<g id="edge10" class="edge"><title>60&#45;&gt;35</title>
<path fill="none" stroke="navy" d="M863.817,-91.3685C852.641,-103.525 839.92,-116.645 828.956,-127.247"/>
</g>
</g>
</svg>
