<?xml version="1.0" encoding="UTF-8" standalone="no"?>
<!DOCTYPE svg PUBLIC "-//W3C//DTD SVG 1.1//EN"
 "http://www.w3.org/Graphics/SVG/1.1/DTD/svg11.dtd">
<!-- Generated by graphviz version 2.38.0 (20140413.2041)
 -->
<!-- Title: Diagram of: Snap.Snaplet.Session.Backends.CookieSession Pages: 1 -->
<svg width="3964pt" height="507pt"
 viewBox="0.00 0.00 3964.00 507.49" xmlns="http://www.w3.org/2000/svg" xmlns:xlink="http://www.w3.org/1999/xlink">
<g id="graph0" class="graph" transform="scale(1 1) rotate(0) translate(4 503.487)">
<title>Diagram of: Snap.Snaplet.Session.Backends.CookieSession</title>
<polygon fill="white" stroke="none" points="-4,4 -4,-503.487 3960,-503.487 3960,4 -4,4"/>
<g id="clust1" class="cluster"><title>cluster_Class_ISessionManager</title>
<path fill="#ffc1c1" stroke="black" d="M20,-285.744C20,-285.744 3936,-285.744 3936,-285.744 3942,-285.744 3948,-291.744 3948,-297.744 3948,-297.744 3948,-479.487 3948,-479.487 3948,-485.487 3942,-491.487 3936,-491.487 3936,-491.487 20,-491.487 20,-491.487 14,-491.487 8,-485.487 8,-479.487 8,-479.487 8,-297.744 8,-297.744 8,-291.744 14,-285.744 20,-285.744"/>
<text text-anchor="middle" x="1978" y="-476.287" font-family="Times,serif" font-size="14.00">Class: ISessionManager</text>
</g>
<g id="clust2" class="cluster"><title>cluster_Class_ISessionManager_Data_CookieSessionManager</title>
<path fill="#c6e2ff" stroke="black" d="M1309,-293.744C1309,-293.744 2671,-293.744 2671,-293.744 2677,-293.744 2683,-299.744 2683,-305.744 2683,-305.744 2683,-365.135 2683,-365.135 2683,-371.135 2677,-377.135 2671,-377.135 2671,-377.135 1309,-377.135 1309,-377.135 1303,-377.135 1297,-371.135 1297,-365.135 1297,-365.135 1297,-305.744 1297,-305.744 1297,-299.744 1303,-293.744 1309,-293.744"/>
<text text-anchor="middle" x="1990" y="-361.935" font-family="Times,serif" font-size="14.00">Instance for: CookieSessionManager</text>
</g>
<g id="clust3" class="cluster"><title>cluster_Class_Serialize</title>
<path fill="#ffc1c1" stroke="black" d="M482,-72C482,-72 992,-72 992,-72 998,-72 1004,-78 1004,-84 1004,-84 1004,-265.744 1004,-265.744 1004,-271.744 998,-277.744 992,-277.744 992,-277.744 482,-277.744 482,-277.744 476,-277.744 470,-271.744 470,-265.744 470,-265.744 470,-84 470,-84 470,-78 476,-72 482,-72"/>
<text text-anchor="middle" x="737" y="-262.544" font-family="Times,serif" font-size="14.00">Class: Serialize</text>
</g>
<g id="clust4" class="cluster"><title>cluster_Class_Serialize_Data_CookieSession</title>
<path fill="#c6e2ff" stroke="black" d="M713,-80C713,-80 954,-80 954,-80 960,-80 966,-86 966,-92 966,-92 966,-151.391 966,-151.391 966,-157.391 960,-163.391 954,-163.391 954,-163.391 713,-163.391 713,-163.391 707,-163.391 701,-157.391 701,-151.391 701,-151.391 701,-92 701,-92 701,-86 707,-80 713,-80"/>
<text text-anchor="middle" x="833.5" y="-148.191" font-family="Times,serif" font-size="14.00">Instance for: CookieSession</text>
</g>
<g id="clust5" class="cluster"><title>cluster_Data_CookieSession</title>
<path fill="papayawhip" stroke="black" d="M1229,-8C1229,-8 1487,-8 1487,-8 1493,-8 1499,-14 1499,-20 1499,-20 1499,-147.196 1499,-147.196 1499,-153.196 1493,-159.196 1487,-159.196 1487,-159.196 1229,-159.196 1229,-159.196 1223,-159.196 1217,-153.196 1217,-147.196 1217,-147.196 1217,-20 1217,-20 1217,-14 1223,-8 1229,-8"/>
<text text-anchor="middle" x="1358" y="-143.996" font-family="Times,serif" font-size="14.00">Data: CookieSession</text>
</g>
<g id="clust6" class="cluster"><title>cluster_Data_CookieSessionManager</title>
<path fill="papayawhip" stroke="black" d="M1552,-8C1552,-8 2246,-8 2246,-8 2252,-8 2258,-14 2258,-20 2258,-20 2258,-147.196 2258,-147.196 2258,-153.196 2252,-159.196 2246,-159.196 2246,-159.196 1552,-159.196 1552,-159.196 1546,-159.196 1540,-153.196 1540,-147.196 1540,-147.196 1540,-20 1540,-20 1540,-14 1546,-8 1552,-8"/>
<text text-anchor="middle" x="1899" y="-143.996" font-family="Times,serif" font-size="14.00">Data: CookieSessionManager</text>
</g>
<g id="clust7" class="cluster"><title>cluster_Data_Payload</title>
<path fill="papayawhip" stroke="black" d="M2762,-183.067C2762,-183.067 2856,-183.067 2856,-183.067 2862,-183.067 2868,-189.067 2868,-195.067 2868,-195.067 2868,-246.067 2868,-246.067 2868,-252.067 2862,-258.067 2856,-258.067 2856,-258.067 2762,-258.067 2762,-258.067 2756,-258.067 2750,-252.067 2750,-246.067 2750,-246.067 2750,-195.067 2750,-195.067 2750,-189.067 2756,-183.067 2762,-183.067"/>
<text text-anchor="middle" x="2809" y="-242.867" font-family="Times,serif" font-size="14.00">Data: Payload</text>
</g>
<!-- 4 -->
<g id="node1" class="node"><title>4</title>
<polygon fill="bisque" stroke="black" stroke-width="2" points="2675.1,-314.664 2675.1,-333.215 2629.94,-346.332 2566.06,-346.332 2520.9,-333.215 2520.9,-314.664 2566.06,-301.546 2629.94,-301.546 2675.1,-314.664"/>
<text text-anchor="middle" x="2598" y="-320.239" font-family="Times,serif" font-size="14.00">commit</text>
</g>
<!-- 2 -->
<g id="node26" class="node"><title>2</title>
<polygon fill="cyan" stroke="black" stroke-width="2" points="2250,-52 2066,-52 2062,-48 2062,-16 2246,-16 2250,-20 2250,-52"/>
<polyline fill="none" stroke="black" stroke-width="2" points="2246,-48 2062,-48 "/>
<polyline fill="none" stroke="black" stroke-width="2" points="2246,-48 2246,-16 "/>
<polyline fill="none" stroke="black" stroke-width="2" points="2246,-48 2250,-52 "/>
<text text-anchor="middle" x="2156" y="-30.3" font-family="Times,serif" font-size="14.00">CookieSessionManager</text>
</g>
<!-- 4&#45;&gt;2 -->
<g id="edge1" class="edge"><title>4&#45;&gt;2</title>
<path fill="none" stroke="black" d="M2659.43,-309.945C2676.4,-303.231 2692.91,-293.077 2703,-277.744 2753.28,-201.365 2765.44,-138.805 2703,-72 2673.5,-40.4336 2410.66,-35.0322 2260.33,-34.5595"/>
<polygon fill="black" stroke="black" points="2260.16,-31.0592 2250.15,-34.5345 2260.14,-38.0592 2260.16,-31.0592"/>
</g>
<!-- 3 -->
<g id="node32" class="node"><title>3</title>
<polygon fill="cyan" stroke="black" stroke-width="2" points="2860,-227.067 2762,-227.067 2758,-223.067 2758,-191.067 2856,-191.067 2860,-195.067 2860,-227.067"/>
<polyline fill="none" stroke="black" stroke-width="2" points="2856,-223.067 2758,-223.067 "/>
<polyline fill="none" stroke="black" stroke-width="2" points="2856,-223.067 2856,-191.067 "/>
<polyline fill="none" stroke="black" stroke-width="2" points="2856,-223.067 2860,-227.067 "/>
<text text-anchor="middle" x="2809" y="-205.367" font-family="Times,serif" font-size="14.00">Payload</text>
</g>
<!-- 4&#45;&gt;3 -->
<g id="edge2" class="edge"><title>4&#45;&gt;3</title>
<path fill="none" stroke="black" stroke-width="1.69315" d="M2661.7,-310.657C2688.44,-303.666 2719.05,-293.141 2744,-277.744 2761.96,-266.659 2778.39,-249.458 2790.24,-235.172"/>
<polygon fill="black" stroke="black" stroke-width="1.69315" points="2793.14,-237.156 2796.67,-227.166 2787.68,-232.775 2793.14,-237.156"/>
</g>
<!-- 19 -->
<g id="node38" class="node"><title>19</title>
<polygon fill="bisque" stroke="black" stroke-width="2" points="1207.5,-128.196 1050.5,-128.196 1050.5,-92.1956 1207.5,-92.1956 1207.5,-128.196"/>
<text text-anchor="middle" x="1129" y="-106.496" font-family="Times,serif" font-size="14.00">mkCookieSession</text>
</g>
<!-- 4&#45;&gt;19 -->
<g id="edge3" class="edge"><title>4&#45;&gt;19</title>
<path fill="none" stroke="black" d="M2560.55,-302.875C2545.85,-296.04 2528.55,-289.245 2512,-285.744 2462.21,-275.211 1645.2,-290.748 1596,-277.744 1502.06,-252.916 1498.51,-197.761 1405,-171.391 1363.9,-159.801 1253.81,-175.963 1213,-163.391 1193.06,-157.25 1173.13,-145.181 1157.69,-134.194"/>
<polygon fill="black" stroke="black" points="1159.73,-131.351 1149.6,-128.246 1155.58,-136.99 1159.73,-131.351"/>
</g>
<!-- 25 -->
<g id="node40" class="node"><title>25</title>
<polygon fill="bisque" stroke="black" stroke-width="2" points="2260.5,-227.067 2143.5,-227.067 2143.5,-191.067 2260.5,-191.067 2260.5,-227.067"/>
<text text-anchor="middle" x="2202" y="-205.367" font-family="Times,serif" font-size="14.00">setPayload</text>
</g>
<!-- 4&#45;&gt;25 -->
<g id="edge4" class="edge"><title>4&#45;&gt;25</title>
<path fill="none" stroke="black" d="M2557.86,-303.911C2543.59,-297.592 2527.27,-290.868 2512,-285.744 2430.49,-258.386 2333.88,-236.386 2270.43,-223.302"/>
<polygon fill="black" stroke="black" points="2271.04,-219.854 2260.54,-221.279 2269.63,-226.712 2271.04,-219.854"/>
</g>
<!-- 8 -->
<g id="node2" class="node"><title>8</title>
<polygon fill="bisque" stroke="black" stroke-width="2" points="2038.43,-314.664 2038.43,-333.215 2003.03,-346.332 1952.97,-346.332 1917.57,-333.215 1917.57,-314.664 1952.97,-301.546 2003.03,-301.546 2038.43,-314.664"/>
<text text-anchor="middle" x="1978" y="-320.239" font-family="Times,serif" font-size="14.00">csrf</text>
</g>
<!-- 6 -->
<g id="node24" class="node"><title>6</title>
<polygon fill="bisque" stroke="black" stroke-width="2" points="1362.5,-128.196 1225.5,-128.196 1225.5,-124.196 1221.5,-124.196 1221.5,-120.196 1225.5,-120.196 1225.5,-100.196 1221.5,-100.196 1221.5,-96.1956 1225.5,-96.1956 1225.5,-92.1956 1362.5,-92.1956 1362.5,-128.196"/>
<polyline fill="none" stroke="black" stroke-width="2" points="1225.5,-124.196 1229.5,-124.196 1229.5,-120.196 1225.5,-120.196 "/>
<polyline fill="none" stroke="black" stroke-width="2" points="1225.5,-100.196 1229.5,-100.196 1229.5,-96.1956 1225.5,-96.1956 "/>
<text text-anchor="middle" x="1294" y="-106.496" font-family="Times,serif" font-size="14.00">csCSRFToken</text>
</g>
<!-- 8&#45;&gt;6 -->
<g id="edge9" class="edge"><title>8&#45;&gt;6</title>
<path fill="none" stroke="black" d="M1948.26,-303.182C1936.27,-296.295 1921.98,-289.384 1908,-285.744 1866.81,-275.021 1564.64,-293.256 1525,-277.744 1458.64,-251.772 1468.27,-204.182 1405,-171.391 1391.22,-164.248 1385.22,-169.628 1371,-163.391 1353.98,-155.923 1336.69,-144.618 1322.83,-134.436"/>
<polygon fill="black" stroke="black" points="1324.76,-131.51 1314.67,-128.286 1320.55,-137.1 1324.76,-131.51"/>
</g>
<!-- 8&#45;&gt;2 -->
<g id="edge8" class="edge"><title>8&#45;&gt;2</title>
<path fill="none" stroke="black" d="M2007.73,-303.145C2019.72,-296.253 2034.01,-289.348 2048,-285.744 2061.61,-282.237 2544.14,-287.762 2554,-277.744 2586.07,-245.16 2584.8,-105.793 2554,-72 2534.54,-50.6438 2371.94,-41.415 2260.69,-37.573"/>
<polygon fill="black" stroke="black" points="2260.54,-34.0661 2250.43,-37.2287 2260.3,-41.0621 2260.54,-34.0661"/>
</g>
<!-- 10 -->
<g id="node3" class="node"><title>10</title>
<polygon fill="bisque" stroke="black" stroke-width="2" points="1744.8,-314.664 1744.8,-333.215 1703.91,-346.332 1646.09,-346.332 1605.2,-333.215 1605.2,-314.664 1646.09,-301.546 1703.91,-301.546 1744.8,-314.664"/>
<text text-anchor="middle" x="1675" y="-320.239" font-family="Times,serif" font-size="14.00">delete</text>
</g>
<!-- 10&#45;&gt;2 -->
<g id="edge10" class="edge"><title>10&#45;&gt;2</title>
<path fill="none" stroke="black" d="M1709.24,-302.937C1722.72,-296.11 1738.64,-289.304 1754,-285.744 1809.86,-272.796 2214.5,-292.158 2270,-277.744 2374,-250.734 2427.85,-255.602 2483,-163.391 2503.85,-128.533 2510.06,-102.293 2483,-72 2468.17,-55.3922 2350.12,-45.2901 2260.08,-39.9292"/>
<polygon fill="black" stroke="black" points="2260.26,-36.4342 2250.07,-39.3462 2259.85,-43.4223 2260.26,-36.4342"/>
</g>
<!-- 24 -->
<g id="node29" class="node"><title>24</title>
<polygon fill="bisque" stroke="black" stroke-width="2" points="1864,-128.196 1766,-128.196 1766,-124.196 1762,-124.196 1762,-120.196 1766,-120.196 1766,-100.196 1762,-100.196 1762,-96.1956 1766,-96.1956 1766,-92.1956 1864,-92.1956 1864,-128.196"/>
<polyline fill="none" stroke="black" stroke-width="2" points="1766,-124.196 1770,-124.196 1770,-120.196 1766,-120.196 "/>
<polyline fill="none" stroke="black" stroke-width="2" points="1766,-100.196 1770,-100.196 1770,-96.1956 1766,-96.1956 "/>
<text text-anchor="middle" x="1815" y="-106.496" font-family="Times,serif" font-size="14.00">session</text>
</g>
<!-- 10&#45;&gt;24 -->
<g id="edge12" class="edge"><title>10&#45;&gt;24</title>
<path fill="none" stroke="black" d="M1711.26,-303.753C1724.45,-297.345 1739.64,-290.606 1754,-285.744 1769.94,-280.348 1779.53,-290.048 1791,-277.744 1826.27,-239.922 1824.24,-174.768 1819.63,-138.168"/>
<polygon fill="black" stroke="black" points="1823.09,-137.63 1818.22,-128.218 1816.15,-138.61 1823.09,-137.63"/>
</g>
<!-- 20 -->
<g id="node39" class="node"><title>20</title>
<polygon fill="bisque" stroke="black" stroke-width="2" points="1396.5,-227.067 1271.5,-227.067 1271.5,-191.067 1396.5,-191.067 1396.5,-227.067"/>
<text text-anchor="middle" x="1334" y="-205.367" font-family="Times,serif" font-size="14.00">modSession</text>
</g>
<!-- 10&#45;&gt;20 -->
<g id="edge11" class="edge"><title>10&#45;&gt;20</title>
<path fill="none" stroke="black" d="M1640.71,-303.162C1627.22,-296.362 1611.31,-289.516 1596,-285.744 1556.05,-275.897 1449.18,-293.088 1411,-277.744 1388.64,-268.758 1368.39,-250.346 1354.28,-234.992"/>
<polygon fill="black" stroke="black" points="1356.73,-232.477 1347.48,-227.308 1351.48,-237.116 1356.73,-232.477"/>
</g>
<!-- 15 -->
<g id="node4" class="node"><title>15</title>
<polygon fill="bisque" stroke="black" stroke-width="2" points="1899.24,-314.664 1899.24,-333.215 1859.26,-346.332 1802.74,-346.332 1762.76,-333.215 1762.76,-314.664 1802.74,-301.546 1859.26,-301.546 1899.24,-314.664"/>
<text text-anchor="middle" x="1831" y="-320.239" font-family="Times,serif" font-size="14.00">insert</text>
</g>
<!-- 15&#45;&gt;2 -->
<g id="edge19" class="edge"><title>15&#45;&gt;2</title>
<path fill="none" stroke="black" d="M1864.39,-303.116C1877.78,-296.221 1893.66,-289.321 1909,-285.744 1925.42,-281.914 2504.16,-289.746 2516,-277.744 2548.12,-245.202 2546.63,-105.942 2516,-72 2499.03,-53.2014 2360.67,-43.4061 2260.54,-38.7296"/>
<polygon fill="black" stroke="black" points="2260.51,-35.2249 2250.36,-38.2657 2260.19,-42.2176 2260.51,-35.2249"/>
</g>
<!-- 15&#45;&gt;24 -->
<g id="edge21" class="edge"><title>15&#45;&gt;24</title>
<path fill="none" stroke="black" d="M1832.17,-301.259C1833.43,-271.754 1834.58,-217.364 1829,-171.391 1827.66,-160.367 1825.12,-148.418 1822.56,-138.093"/>
<polygon fill="black" stroke="black" points="1825.95,-137.204 1820.04,-128.405 1819.17,-138.963 1825.95,-137.204"/>
</g>
<!-- 15&#45;&gt;20 -->
<g id="edge20" class="edge"><title>15&#45;&gt;20</title>
<path fill="none" stroke="black" d="M1797.67,-303.001C1784.53,-296.181 1769.01,-289.364 1754,-285.744 1716.94,-276.806 1446.51,-291.606 1411,-277.744 1388.41,-268.925 1368.06,-250.324 1353.95,-234.85"/>
<polygon fill="black" stroke="black" points="1356.4,-232.325 1347.17,-227.112 1351.13,-236.939 1356.4,-232.325"/>
</g>
<!-- 16 -->
<g id="node5" class="node"><title>16</title>
<polygon fill="bisque" stroke="black" stroke-width="2" points="2502.52,-314.664 2502.52,-333.215 2465.9,-346.332 2414.1,-346.332 2377.48,-333.215 2377.48,-314.664 2414.1,-301.546 2465.9,-301.546 2502.52,-314.664"/>
<text text-anchor="middle" x="2440" y="-320.239" font-family="Times,serif" font-size="14.00">load</text>
</g>
<!-- 16&#45;&gt;2 -->
<g id="edge22" class="edge"><title>16&#45;&gt;2</title>
<path fill="none" stroke="black" d="M2471.07,-303.216C2483.35,-296.423 2497.88,-289.567 2512,-285.744 2528.54,-281.266 2654.2,-290.17 2666,-277.744 2728.96,-211.429 2728.28,-138.957 2666,-72 2639.02,-42.9866 2401.63,-36.4454 2260.43,-35.1435"/>
<polygon fill="black" stroke="black" points="2260.04,-31.6402 2250.01,-35.0553 2259.98,-38.6399 2260.04,-31.6402"/>
</g>
<!-- 16&#45;&gt;24 -->
<g id="edge26" class="edge"><title>16&#45;&gt;24</title>
<path fill="none" stroke="black" d="M2409.34,-303.186C2397,-296.3 2382.32,-289.387 2368,-285.744 2328.15,-275.601 2036.19,-292.996 1998,-277.744 1924.75,-248.487 1862.43,-175.521 1833.05,-136.596"/>
<polygon fill="black" stroke="black" points="1835.73,-134.329 1826.96,-128.382 1830.1,-138.499 1835.73,-134.329"/>
</g>
<!-- 16&#45;&gt;3 -->
<g id="edge23" class="edge"><title>16&#45;&gt;3</title>
<path fill="none" stroke="black" d="M2471.05,-303.136C2483.32,-296.333 2497.86,-289.491 2512,-285.744 2553.71,-274.692 2664.93,-290.958 2706,-277.744 2734.34,-268.627 2762.3,-249.431 2781.92,-233.804"/>
<polygon fill="black" stroke="black" points="2784.27,-236.405 2789.79,-227.365 2779.83,-230.985 2784.27,-236.405"/>
</g>
<!-- 13 -->
<g id="node35" class="node"><title>13</title>
<polygon fill="bisque" stroke="black" stroke-width="2" points="2125.5,-227.067 2006.5,-227.067 2006.5,-191.067 2125.5,-191.067 2125.5,-227.067"/>
<text text-anchor="middle" x="2066" y="-205.367" font-family="Times,serif" font-size="14.00">getPayload</text>
</g>
<!-- 16&#45;&gt;13 -->
<g id="edge24" class="edge"><title>16&#45;&gt;13</title>
<path fill="none" stroke="black" d="M2408.97,-303.084C2396.69,-296.275 2382.16,-289.443 2368,-285.744 2342.94,-279.195 2158.81,-287.951 2135,-277.744 2114.31,-268.874 2096.36,-250.715 2083.95,-235.438"/>
<polygon fill="black" stroke="black" points="2086.55,-233.075 2077.65,-227.325 2081.02,-237.37 2086.55,-233.075"/>
</g>
<!-- 17 -->
<g id="node37" class="node"><title>17</title>
<polygon fill="bisque" stroke="black" stroke-width="2" points="1748.5,-227.067 1605.5,-227.067 1605.5,-191.067 1748.5,-191.067 1748.5,-227.067"/>
<text text-anchor="middle" x="1677" y="-205.367" font-family="Times,serif" font-size="14.00">loadDefSession</text>
</g>
<!-- 16&#45;&gt;17 -->
<g id="edge25" class="edge"><title>16&#45;&gt;17</title>
<path fill="none" stroke="black" stroke-width="1.69315" d="M2409.35,-303.158C2397.01,-296.268 2382.32,-289.361 2368,-285.744 2319.73,-273.554 1969.27,-284.924 1920,-277.744 1855.13,-268.289 1783.04,-246.753 1734.36,-230.496"/>
<polygon fill="black" stroke="black" stroke-width="1.69315" points="1735.23,-227.097 1724.64,-227.217 1732.99,-233.73 1735.23,-227.097"/>
</g>
<!-- 18 -->
<g id="node6" class="node"><title>18</title>
<polygon fill="bisque" stroke="black" stroke-width="2" points="2203.45,-314.664 2203.45,-333.215 2160.42,-346.332 2099.58,-346.332 2056.55,-333.215 2056.55,-314.664 2099.58,-301.546 2160.42,-301.546 2203.45,-314.664"/>
<text text-anchor="middle" x="2130" y="-320.239" font-family="Times,serif" font-size="14.00">lookup</text>
</g>
<!-- 7 -->
<g id="node25" class="node"><title>7</title>
<polygon fill="bisque" stroke="black" stroke-width="2" points="1491.5,-128.196 1380.5,-128.196 1380.5,-124.196 1376.5,-124.196 1376.5,-120.196 1380.5,-120.196 1380.5,-100.196 1376.5,-100.196 1376.5,-96.1956 1380.5,-96.1956 1380.5,-92.1956 1491.5,-92.1956 1491.5,-128.196"/>
<polyline fill="none" stroke="black" stroke-width="2" points="1380.5,-124.196 1384.5,-124.196 1384.5,-120.196 1380.5,-120.196 "/>
<polyline fill="none" stroke="black" stroke-width="2" points="1380.5,-100.196 1384.5,-100.196 1384.5,-96.1956 1380.5,-96.1956 "/>
<text text-anchor="middle" x="1436" y="-106.496" font-family="Times,serif" font-size="14.00">csSession</text>
</g>
<!-- 18&#45;&gt;7 -->
<g id="edge31" class="edge"><title>18&#45;&gt;7</title>
<path fill="none" stroke="black" d="M2094.33,-303.141C2080.06,-296.249 2063.18,-289.344 2047,-285.744 2020.75,-279.903 1587,-289.873 1563,-277.744 1555.23,-273.815 1487.92,-182.428 1454.57,-136.732"/>
<polygon fill="black" stroke="black" points="1457.29,-134.521 1448.57,-128.502 1451.63,-138.644 1457.29,-134.521"/>
</g>
<!-- 18&#45;&gt;2 -->
<g id="edge30" class="edge"><title>18&#45;&gt;2</title>
<path fill="none" stroke="black" d="M2165.63,-302.982C2179.64,-296.16 2196.15,-289.346 2212,-285.744 2222.3,-283.404 2584.61,-285.287 2592,-277.744 2655.97,-212.408 2653.86,-139.337 2592,-72 2569.99,-48.0418 2382.2,-39.5796 2260.35,-36.6028"/>
<polygon fill="black" stroke="black" points="2260.32,-33.1011 2250.24,-36.3645 2260.15,-40.0991 2260.32,-33.1011"/>
</g>
<!-- 23 -->
<g id="node7" class="node"><title>23</title>
<polygon fill="bisque" stroke="black" stroke-width="2" points="1587.08,-314.664 1587.08,-333.215 1549.54,-346.332 1496.46,-346.332 1458.92,-333.215 1458.92,-314.664 1496.46,-301.546 1549.54,-301.546 1587.08,-314.664"/>
<text text-anchor="middle" x="1523" y="-320.239" font-family="Times,serif" font-size="14.00">reset</text>
</g>
<!-- 22 -->
<g id="node28" class="node"><title>22</title>
<polygon fill="bisque" stroke="black" stroke-width="2" points="1748,-128.196 1548,-128.196 1548,-124.196 1544,-124.196 1544,-120.196 1548,-120.196 1548,-100.196 1544,-100.196 1544,-96.1956 1548,-96.1956 1548,-92.1956 1748,-92.1956 1748,-128.196"/>
<polyline fill="none" stroke="black" stroke-width="2" points="1548,-124.196 1552,-124.196 1552,-120.196 1548,-120.196 "/>
<polyline fill="none" stroke="black" stroke-width="2" points="1548,-100.196 1552,-100.196 1552,-96.1956 1548,-96.1956 "/>
<text text-anchor="middle" x="1648" y="-106.496" font-family="Times,serif" font-size="14.00">randomNumberGenerator</text>
</g>
<!-- 23&#45;&gt;22 -->
<g id="edge38" class="edge"><title>23&#45;&gt;22</title>
<path fill="none" stroke="black" d="M1531.16,-301.665C1543.19,-271.459 1567.4,-214.975 1596,-171.391 1604.15,-158.97 1614.63,-146.358 1624.05,-135.91"/>
<polygon fill="black" stroke="black" points="1626.78,-138.106 1630.99,-128.38 1621.64,-133.364 1626.78,-138.106"/>
</g>
<!-- 23&#45;&gt;24 -->
<g id="edge39" class="edge"><title>23&#45;&gt;24</title>
<path fill="none" stroke="black" d="M1554.53,-303.199C1566.98,-296.403 1581.71,-289.551 1596,-285.744 1613.41,-281.105 1743.76,-288.788 1758,-277.744 1797.11,-247.414 1774.49,-218.047 1791,-171.391 1794.93,-160.3 1799.65,-148.225 1803.86,-137.821"/>
<polygon fill="black" stroke="black" points="1807.15,-139.025 1807.7,-128.444 1800.67,-136.371 1807.15,-139.025"/>
</g>
<!-- 23&#45;&gt;19 -->
<g id="edge37" class="edge"><title>23&#45;&gt;19</title>
<path fill="none" stroke="black" d="M1491.49,-303.147C1479.04,-296.345 1464.31,-289.502 1450,-285.744 1429.78,-280.432 1280.64,-287.207 1262,-277.744 1202.08,-247.326 1160.24,-176.248 1140.99,-137.507"/>
<polygon fill="black" stroke="black" points="1144.08,-135.877 1136.58,-128.399 1137.78,-138.925 1144.08,-135.877"/>
</g>
<!-- 28 -->
<g id="node8" class="node"><title>28</title>
<polygon fill="bisque" stroke="black" stroke-width="2" points="2358.77,-314.664 2358.77,-333.215 2318.48,-346.332 2261.52,-346.332 2221.23,-333.215 2221.23,-314.664 2261.52,-301.546 2318.48,-301.546 2358.77,-314.664"/>
<text text-anchor="middle" x="2290" y="-320.239" font-family="Times,serif" font-size="14.00">toList</text>
</g>
<!-- 28&#45;&gt;7 -->
<g id="edge47" class="edge"><title>28&#45;&gt;7</title>
<path fill="none" stroke="black" d="M2256.61,-303.115C2243.22,-296.219 2227.34,-289.319 2212,-285.744 2195.33,-281.859 1610.69,-286.522 1596,-277.744 1549.6,-250.015 1578.11,-206.483 1537,-171.391 1529.09,-164.637 1524.29,-168.069 1515,-163.391 1498.46,-155.067 1481.19,-143.965 1467.02,-134.14"/>
<polygon fill="black" stroke="black" points="1468.83,-131.131 1458.64,-128.224 1464.79,-136.85 1468.83,-131.131"/>
</g>
<!-- 28&#45;&gt;2 -->
<g id="edge46" class="edge"><title>28&#45;&gt;2</title>
<path fill="none" stroke="black" d="M2323.8,-303.059C2337.12,-296.247 2352.84,-289.419 2368,-285.744 2382.1,-282.326 2618.9,-288.157 2629,-277.744 2692.66,-212.102 2691.09,-139.133 2629,-72 2604.51,-45.5153 2392.03,-37.9518 2260.33,-35.8157"/>
<polygon fill="black" stroke="black" points="2260.25,-32.3143 2250.2,-35.6596 2260.15,-39.3135 2260.25,-32.3143"/>
</g>
<!-- 29 -->
<g id="node9" class="node"><title>29</title>
<polygon fill="cyan" stroke="black" stroke-width="2" points="1441.24,-314.664 1441.24,-333.215 1401.26,-346.332 1344.74,-346.332 1304.76,-333.215 1304.76,-314.664 1344.74,-301.546 1401.26,-301.546 1441.24,-314.664"/>
<text text-anchor="middle" x="1373" y="-320.239" font-family="Times,serif" font-size="14.00">touch</text>
</g>
<!-- 30 -->
<g id="node10" class="node"><title>30</title>
<polygon fill="khaki" stroke="black" points="3935.77,-408.796 3935.77,-436.826 3815.23,-456.645 3644.77,-456.645 3524.23,-436.826 3524.23,-408.796 3644.77,-388.977 3815.23,-388.977 3935.77,-408.796"/>
<polygon fill="none" stroke="black" points="3939.77,-405.382 3939.77,-440.24 3815.56,-460.664 3644.44,-460.664 3520.23,-440.24 3520.23,-405.382 3644.44,-384.958 3815.56,-384.958 3939.77,-405.382"/>
<text text-anchor="middle" x="3730" y="-426.611" font-family="Times,serif" font-size="14.00">Snap.Snaplet.Session.SessionManager</text>
<text text-anchor="middle" x="3730" y="-411.611" font-family="Times,serif" font-size="14.00">commit</text>
</g>
<!-- 30&#45;&gt;4 -->
<g id="edge48" class="edge"><title>30&#45;&gt;4</title>
<path fill="none" stroke="navy" d="M3582.74,-395.076C3558.82,-391.331 3534.26,-387.843 3511,-385.135 3202.53,-349.227 2832.74,-333.057 2675.19,-327.42"/>
</g>
<!-- 31 -->
<g id="node11" class="node"><title>31</title>
<polygon fill="khaki" stroke="black" points="2183.77,-408.796 2183.77,-436.826 2063.23,-456.645 1892.77,-456.645 1772.23,-436.826 1772.23,-408.796 1892.77,-388.977 2063.23,-388.977 2183.77,-408.796"/>
<polygon fill="none" stroke="black" points="2187.77,-405.382 2187.77,-440.24 2063.56,-460.664 1892.44,-460.664 1768.23,-440.24 1768.23,-405.382 1892.44,-384.958 2063.56,-384.958 2187.77,-405.382"/>
<text text-anchor="middle" x="1978" y="-426.611" font-family="Times,serif" font-size="14.00">Snap.Snaplet.Session.SessionManager</text>
<text text-anchor="middle" x="1978" y="-411.611" font-family="Times,serif" font-size="14.00">csrf</text>
</g>
<!-- 31&#45;&gt;8 -->
<g id="edge49" class="edge"><title>31&#45;&gt;8</title>
<path fill="none" stroke="navy" d="M1978,-384.912C1978,-371.865 1978,-357.633 1978,-346.309"/>
</g>
<!-- 32 -->
<g id="node12" class="node"><title>32</title>
<polygon fill="khaki" stroke="black" points="1307.77,-408.796 1307.77,-436.826 1187.23,-456.645 1016.77,-456.645 896.23,-436.826 896.23,-408.796 1016.77,-388.977 1187.23,-388.977 1307.77,-408.796"/>
<polygon fill="none" stroke="black" points="1311.77,-405.382 1311.77,-440.24 1187.56,-460.664 1016.44,-460.664 892.233,-440.24 892.233,-405.382 1016.44,-384.958 1187.56,-384.958 1311.77,-405.382"/>
<text text-anchor="middle" x="1102" y="-426.611" font-family="Times,serif" font-size="14.00">Snap.Snaplet.Session.SessionManager</text>
<text text-anchor="middle" x="1102" y="-411.611" font-family="Times,serif" font-size="14.00">delete</text>
</g>
<!-- 32&#45;&gt;10 -->
<g id="edge50" class="edge"><title>32&#45;&gt;10</title>
<path fill="none" stroke="navy" d="M1246.82,-394.691C1271.49,-390.894 1296.92,-387.49 1321,-385.135 1351.42,-382.159 1566.86,-386.357 1596,-377.135 1616.06,-370.787 1635.81,-357.738 1650.55,-346.276"/>
</g>
<!-- 33 -->
<g id="node13" class="node"><title>33</title>
<polygon fill="khaki" stroke="black" points="1745.77,-408.796 1745.77,-436.826 1625.23,-456.645 1454.77,-456.645 1334.23,-436.826 1334.23,-408.796 1454.77,-388.977 1625.23,-388.977 1745.77,-408.796"/>
<polygon fill="none" stroke="black" points="1749.77,-405.382 1749.77,-440.24 1625.56,-460.664 1454.44,-460.664 1330.23,-440.24 1330.23,-405.382 1454.44,-384.958 1625.56,-384.958 1749.77,-405.382"/>
<text text-anchor="middle" x="1540" y="-426.611" font-family="Times,serif" font-size="14.00">Snap.Snaplet.Session.SessionManager</text>
<text text-anchor="middle" x="1540" y="-411.611" font-family="Times,serif" font-size="14.00">insert</text>
</g>
<!-- 33&#45;&gt;15 -->
<g id="edge51" class="edge"><title>33&#45;&gt;15</title>
<path fill="none" stroke="navy" d="M1696.48,-396.584C1716.21,-391.249 1735.83,-384.834 1754,-377.135 1772.29,-369.385 1790.78,-357.033 1805.06,-346.29"/>
</g>
<!-- 34 -->
<g id="node14" class="node"><title>34</title>
<polygon fill="khaki" stroke="black" points="3497.77,-408.796 3497.77,-436.826 3377.23,-456.645 3206.77,-456.645 3086.23,-436.826 3086.23,-408.796 3206.77,-388.977 3377.23,-388.977 3497.77,-408.796"/>
<polygon fill="none" stroke="black" points="3501.77,-405.382 3501.77,-440.24 3377.56,-460.664 3206.44,-460.664 3082.23,-440.24 3082.23,-405.382 3206.44,-384.958 3377.56,-384.958 3501.77,-405.382"/>
<text text-anchor="middle" x="3292" y="-426.611" font-family="Times,serif" font-size="14.00">Snap.Snaplet.Session.SessionManager</text>
<text text-anchor="middle" x="3292" y="-411.611" font-family="Times,serif" font-size="14.00">load</text>
</g>
<!-- 34&#45;&gt;16 -->
<g id="edge52" class="edge"><title>34&#45;&gt;16</title>
<path fill="none" stroke="navy" d="M3148.09,-394.521C3123.14,-390.704 3097.38,-387.337 3073,-385.135 3041.96,-382.33 2541.58,-386.962 2512,-377.135 2493.25,-370.904 2475.25,-357.855 2461.93,-346.364"/>
</g>
<!-- 35 -->
<g id="node15" class="node"><title>35</title>
<polygon fill="khaki" stroke="black" points="2621.77,-408.796 2621.77,-436.826 2501.23,-456.645 2330.77,-456.645 2210.23,-436.826 2210.23,-408.796 2330.77,-388.977 2501.23,-388.977 2621.77,-408.796"/>
<polygon fill="none" stroke="black" points="2625.77,-405.382 2625.77,-440.24 2501.56,-460.664 2330.44,-460.664 2206.23,-440.24 2206.23,-405.382 2330.44,-384.958 2501.56,-384.958 2625.77,-405.382"/>
<text text-anchor="middle" x="2416" y="-426.611" font-family="Times,serif" font-size="14.00">Snap.Snaplet.Session.SessionManager</text>
<text text-anchor="middle" x="2416" y="-411.611" font-family="Times,serif" font-size="14.00">lookup</text>
</g>
<!-- 35&#45;&gt;18 -->
<g id="edge53" class="edge"><title>35&#45;&gt;18</title>
<path fill="none" stroke="navy" d="M2266.49,-395.462C2247.83,-390.318 2229.26,-384.255 2212,-377.135 2192.81,-369.22 2173.13,-356.861 2157.86,-346.156"/>
</g>
<!-- 36 -->
<g id="node16" class="node"><title>36</title>
<polygon fill="khaki" stroke="black" points="869.77,-408.796 869.77,-436.826 749.233,-456.645 578.767,-456.645 458.23,-436.826 458.23,-408.796 578.767,-388.977 749.233,-388.977 869.77,-408.796"/>
<polygon fill="none" stroke="black" points="873.767,-405.382 873.767,-440.24 749.557,-460.664 578.443,-460.664 454.233,-440.24 454.233,-405.382 578.443,-384.958 749.557,-384.958 873.767,-405.382"/>
<text text-anchor="middle" x="664" y="-426.611" font-family="Times,serif" font-size="14.00">Snap.Snaplet.Session.SessionManager</text>
<text text-anchor="middle" x="664" y="-411.611" font-family="Times,serif" font-size="14.00">reset</text>
</g>
<!-- 36&#45;&gt;23 -->
<g id="edge54" class="edge"><title>36&#45;&gt;23</title>
<path fill="none" stroke="navy" d="M807.905,-394.518C832.86,-390.701 858.62,-387.336 883,-385.135 914.376,-382.303 1420.07,-386.967 1450,-377.135 1468.95,-370.911 1487.2,-357.862 1500.71,-346.369"/>
</g>
<!-- 37 -->
<g id="node17" class="node"><title>37</title>
<polygon fill="khaki" stroke="black" points="3059.77,-408.796 3059.77,-436.826 2939.23,-456.645 2768.77,-456.645 2648.23,-436.826 2648.23,-408.796 2768.77,-388.977 2939.23,-388.977 3059.77,-408.796"/>
<polygon fill="none" stroke="black" points="3063.77,-405.382 3063.77,-440.24 2939.56,-460.664 2768.44,-460.664 2644.23,-440.24 2644.23,-405.382 2768.44,-384.958 2939.56,-384.958 3063.77,-405.382"/>
<text text-anchor="middle" x="2854" y="-426.611" font-family="Times,serif" font-size="14.00">Snap.Snaplet.Session.SessionManager</text>
<text text-anchor="middle" x="2854" y="-411.611" font-family="Times,serif" font-size="14.00">toList</text>
</g>
<!-- 37&#45;&gt;28 -->
<g id="edge55" class="edge"><title>37&#45;&gt;28</title>
<path fill="none" stroke="navy" d="M2708.88,-394.664C2684.3,-390.883 2658.98,-387.491 2635,-385.135 2605.46,-382.233 2396.27,-386.185 2368,-377.135 2348.14,-370.776 2328.64,-357.727 2314.1,-346.268"/>
</g>
<!-- 38 -->
<g id="node18" class="node"><title>38</title>
<polygon fill="khaki" stroke="black" points="431.77,-408.796 431.77,-436.826 311.233,-456.645 140.767,-456.645 20.2303,-436.826 20.2303,-408.796 140.767,-388.977 311.233,-388.977 431.77,-408.796"/>
<polygon fill="none" stroke="black" points="435.767,-405.382 435.767,-440.24 311.557,-460.664 140.443,-460.664 16.2326,-440.24 16.2326,-405.382 140.443,-384.958 311.557,-384.958 435.767,-405.382"/>
<text text-anchor="middle" x="226" y="-426.611" font-family="Times,serif" font-size="14.00">Snap.Snaplet.Session.SessionManager</text>
<text text-anchor="middle" x="226" y="-411.611" font-family="Times,serif" font-size="14.00">touch</text>
</g>
<!-- 38&#45;&gt;29 -->
<g id="edge56" class="edge"><title>38&#45;&gt;29</title>
<path fill="none" stroke="navy" d="M373.257,-395.055C397.181,-391.312 421.736,-387.83 445,-385.135 765.353,-348.016 1150.77,-332.174 1304.68,-327.005"/>
</g>
<!-- 12 -->
<g id="node19" class="node"><title>12</title>
<polygon fill="bisque" stroke="black" stroke-width="2" points="958.305,-100.92 958.305,-119.471 924.737,-132.589 877.263,-132.589 843.695,-119.471 843.695,-100.92 877.263,-87.8026 924.737,-87.8026 958.305,-100.92"/>
<text text-anchor="middle" x="901" y="-106.496" font-family="Times,serif" font-size="14.00">get</text>
</g>
<!-- 1 -->
<g id="node23" class="node"><title>1</title>
<polygon fill="cyan" stroke="black" stroke-width="2" points="1364.5,-52 1229.5,-52 1225.5,-48 1225.5,-16 1360.5,-16 1364.5,-20 1364.5,-52"/>
<polyline fill="none" stroke="black" stroke-width="2" points="1360.5,-48 1225.5,-48 "/>
<polyline fill="none" stroke="black" stroke-width="2" points="1360.5,-48 1360.5,-16 "/>
<polyline fill="none" stroke="black" stroke-width="2" points="1360.5,-48 1364.5,-52 "/>
<text text-anchor="middle" x="1295" y="-30.3" font-family="Times,serif" font-size="14.00">CookieSession</text>
</g>
<!-- 12&#45;&gt;1 -->
<g id="edge13" class="edge"><title>12&#45;&gt;1</title>
<path fill="none" stroke="black" d="M940.06,-93.4389C960.082,-85.9232 985.029,-77.4121 1008,-72 1076.96,-55.7517 1157.05,-46.1765 1215.07,-40.8533"/>
<polygon fill="black" stroke="black" points="1215.62,-44.3176 1225.27,-39.9399 1215,-37.3454 1215.62,-44.3176"/>
</g>
<!-- 9 -->
<g id="node33" class="node"><title>9</title>
<polygon fill="cyan" stroke="black" stroke-width="2" points="971,-52 843,-52 843,-16 971,-16 971,-52"/>
<text text-anchor="middle" x="907" y="-30.3" font-family="Times,serif" font-size="14.00">decodeTuple</text>
</g>
<!-- 12&#45;&gt;9 -->
<g id="edge14" class="edge"><title>12&#45;&gt;9</title>
<path fill="none" stroke="black" d="M902.735,-87.7352C903.378,-79.7907 904.115,-70.6752 904.794,-62.2819"/>
<polygon fill="black" stroke="black" points="908.293,-62.4289 905.611,-52.1793 901.316,-61.8646 908.293,-62.4289"/>
</g>
<!-- 21 -->
<g id="node20" class="node"><title>21</title>
<polygon fill="bisque" stroke="black" stroke-width="2" points="825.336,-100.92 825.336,-119.471 791.164,-132.589 742.836,-132.589 708.664,-119.471 708.664,-100.92 742.836,-87.8026 791.164,-87.8026 825.336,-100.92"/>
<text text-anchor="middle" x="767" y="-106.496" font-family="Times,serif" font-size="14.00">put</text>
</g>
<!-- 21&#45;&gt;1 -->
<g id="edge34" class="edge"><title>21&#45;&gt;1</title>
<path fill="none" stroke="black" d="M796.269,-89.6665C807.855,-82.8972 821.591,-76.0071 835,-72 870.373,-61.429 1093.27,-46.8996 1215.32,-39.5918"/>
<polygon fill="black" stroke="black" points="1215.59,-43.0818 1225.37,-38.9929 1215.18,-36.0942 1215.59,-43.0818"/>
</g>
<!-- 11 -->
<g id="node34" class="node"><title>11</title>
<polygon fill="cyan" stroke="black" stroke-width="2" points="825,-52 697,-52 697,-16 825,-16 825,-52"/>
<text text-anchor="middle" x="761" y="-30.3" font-family="Times,serif" font-size="14.00">encodeTuple</text>
</g>
<!-- 21&#45;&gt;11 -->
<g id="edge35" class="edge"><title>21&#45;&gt;11</title>
<path fill="none" stroke="black" d="M765.265,-87.7352C764.622,-79.7907 763.885,-70.6752 763.206,-62.2819"/>
<polygon fill="black" stroke="black" points="766.684,-61.8646 762.389,-52.1793 759.707,-62.4289 766.684,-61.8646"/>
</g>
<!-- 39 -->
<g id="node21" class="node"><title>39</title>
<polygon fill="khaki" stroke="black" stroke-dasharray="1,5" points="991.858,-195.053 991.858,-223.082 921.061,-242.902 820.939,-242.902 750.142,-223.082 750.142,-195.053 820.939,-175.233 921.061,-175.233 991.858,-195.053"/>
<polygon fill="none" stroke="black" stroke-dasharray="1,5" points="995.856,-192 995.856,-226.135 921.607,-246.921 820.393,-246.921 746.144,-226.135 746.144,-192 820.393,-171.214 921.607,-171.214 995.856,-192"/>
<text text-anchor="middle" x="871" y="-212.867" font-family="Times,serif" font-size="14.00">Unknown Module</text>
<text text-anchor="middle" x="871" y="-197.867" font-family="Times,serif" font-size="14.00">get</text>
</g>
<!-- 39&#45;&gt;12 -->
<g id="edge57" class="edge"><title>39&#45;&gt;12</title>
<path fill="none" stroke="navy" d="M882.427,-171.168C886.468,-158.122 890.875,-143.89 894.382,-132.565"/>
</g>
<!-- 40 -->
<g id="node22" class="node"><title>40</title>
<polygon fill="khaki" stroke="black" stroke-dasharray="1,5" points="723.858,-195.053 723.858,-223.082 653.061,-242.902 552.939,-242.902 482.142,-223.082 482.142,-195.053 552.939,-175.233 653.061,-175.233 723.858,-195.053"/>
<polygon fill="none" stroke="black" stroke-dasharray="1,5" points="727.856,-192 727.856,-226.135 653.607,-246.921 552.393,-246.921 478.144,-226.135 478.144,-192 552.393,-171.214 653.607,-171.214 727.856,-192"/>
<text text-anchor="middle" x="603" y="-212.867" font-family="Times,serif" font-size="14.00">Unknown Module</text>
<text text-anchor="middle" x="603" y="-197.867" font-family="Times,serif" font-size="14.00">put</text>
</g>
<!-- 40&#45;&gt;21 -->
<g id="edge58" class="edge"><title>40&#45;&gt;21</title>
<path fill="none" stroke="navy" d="M661.745,-173.368C686.56,-158.71 714.474,-142.222 735.317,-129.91"/>
</g>
<!-- 6&#45;&gt;1 -->
<g id="edge6" class="edge"><title>6&#45;&gt;1</title>
<path fill="none" stroke="magenta" d="M1294.23,-91.9872C1294.35,-83.1846 1294.5,-72.2609 1294.63,-62.3396"/>
<polygon fill="magenta" stroke="magenta" points="1294.77,-52.1151 1299.13,-62.1749 1294.7,-57.1147 1294.63,-62.1142 1294.63,-62.1142 1294.63,-62.1142 1294.7,-57.1147 1290.13,-62.0535 1294.77,-52.1151 1294.77,-52.1151"/>
</g>
<!-- 7&#45;&gt;1 -->
<g id="edge7" class="edge"><title>7&#45;&gt;1</title>
<path fill="none" stroke="magenta" d="M1407.11,-92.1135C1395.92,-85.6448 1382.95,-78.3209 1371,-72 1361.17,-66.8004 1350.49,-61.4362 1340.34,-56.4607"/>
<polygon fill="magenta" stroke="magenta" points="1331.2,-52.0166 1342.16,-52.3428 1335.7,-54.2031 1340.19,-56.3897 1340.19,-56.3897 1340.19,-56.3897 1335.7,-54.2031 1338.23,-60.4366 1331.2,-52.0166 1331.2,-52.0166"/>
</g>
<!-- 5 -->
<g id="node27" class="node"><title>5</title>
<polygon fill="bisque" stroke="black" stroke-width="2" points="2132,-128.196 2004,-128.196 2004,-124.196 2000,-124.196 2000,-120.196 2004,-120.196 2004,-100.196 2000,-100.196 2000,-96.1956 2004,-96.1956 2004,-92.1956 2132,-92.1956 2132,-128.196"/>
<polyline fill="none" stroke="black" stroke-width="2" points="2004,-124.196 2008,-124.196 2008,-120.196 2004,-120.196 "/>
<polyline fill="none" stroke="black" stroke-width="2" points="2004,-100.196 2008,-100.196 2008,-96.1956 2004,-96.1956 "/>
<text text-anchor="middle" x="2068" y="-106.496" font-family="Times,serif" font-size="14.00">cookieName</text>
</g>
<!-- 5&#45;&gt;2 -->
<g id="edge5" class="edge"><title>5&#45;&gt;2</title>
<path fill="none" stroke="magenta" d="M2088.41,-91.9872C2100.18,-82.0609 2115.16,-69.4373 2128.01,-58.5954"/>
<polygon fill="magenta" stroke="magenta" points="2135.7,-52.1151 2130.96,-62.0015 2131.88,-55.3381 2128.06,-58.5611 2128.06,-58.5611 2128.06,-58.5611 2131.88,-55.3381 2125.15,-55.1208 2135.7,-52.1151 2135.7,-52.1151"/>
</g>
<!-- 22&#45;&gt;2 -->
<g id="edge36" class="edge"><title>22&#45;&gt;2</title>
<path fill="none" stroke="magenta" d="M1690.31,-92.1502C1710.23,-84.8026 1734.51,-76.8083 1757,-72 1855.68,-50.9 1970.62,-41.8322 2051.72,-37.9356"/>
<polygon fill="magenta" stroke="magenta" points="2061.94,-37.4634 2052.16,-42.4204 2056.95,-37.6943 2051.95,-37.9251 2051.95,-37.9251 2051.95,-37.9251 2056.95,-37.6943 2051.74,-33.4299 2061.94,-37.4634 2061.94,-37.4634"/>
</g>
<!-- 24&#45;&gt;2 -->
<g id="edge40" class="edge"><title>24&#45;&gt;2</title>
<path fill="none" stroke="magenta" d="M1836.64,-92.0686C1847.06,-84.7039 1860.08,-76.7186 1873,-72 1929.96,-51.1995 1997.14,-41.8307 2051.74,-37.7174"/>
<polygon fill="magenta" stroke="magenta" points="2061.79,-37.0089 2052.13,-42.2014 2056.8,-37.3607 2051.81,-37.7126 2051.81,-37.7126 2051.81,-37.7126 2056.8,-37.3607 2051.5,-33.2237 2061.79,-37.0089 2061.79,-37.0089"/>
</g>
<!-- 26 -->
<g id="node30" class="node"><title>26</title>
<polygon fill="bisque" stroke="black" stroke-width="2" points="2250,-128.196 2150,-128.196 2150,-124.196 2146,-124.196 2146,-120.196 2150,-120.196 2150,-100.196 2146,-100.196 2146,-96.1956 2150,-96.1956 2150,-92.1956 2250,-92.1956 2250,-128.196"/>
<polyline fill="none" stroke="black" stroke-width="2" points="2150,-124.196 2154,-124.196 2154,-120.196 2150,-120.196 "/>
<polyline fill="none" stroke="black" stroke-width="2" points="2150,-100.196 2154,-100.196 2154,-96.1956 2150,-96.1956 "/>
<text text-anchor="middle" x="2200" y="-106.496" font-family="Times,serif" font-size="14.00">siteKey</text>
</g>
<!-- 26&#45;&gt;2 -->
<g id="edge44" class="edge"><title>26&#45;&gt;2</title>
<path fill="none" stroke="magenta" d="M2189.79,-91.9872C2184.3,-82.7164 2177.4,-71.0928 2171.28,-60.7654"/>
<polygon fill="magenta" stroke="magenta" points="2166.15,-52.1151 2175.12,-58.4211 2168.7,-56.4158 2171.25,-60.7164 2171.25,-60.7164 2171.25,-60.7164 2168.7,-56.4158 2167.38,-63.0118 2166.15,-52.1151 2166.15,-52.1151"/>
</g>
<!-- 27 -->
<g id="node31" class="node"><title>27</title>
<polygon fill="bisque" stroke="black" stroke-width="2" points="1986,-128.196 1882,-128.196 1882,-124.196 1878,-124.196 1878,-120.196 1882,-120.196 1882,-100.196 1878,-100.196 1878,-96.1956 1882,-96.1956 1882,-92.1956 1986,-92.1956 1986,-128.196"/>
<polyline fill="none" stroke="black" stroke-width="2" points="1882,-124.196 1886,-124.196 1886,-120.196 1882,-120.196 "/>
<polyline fill="none" stroke="black" stroke-width="2" points="1882,-100.196 1886,-100.196 1886,-96.1956 1882,-96.1956 "/>
<text text-anchor="middle" x="1934" y="-106.496" font-family="Times,serif" font-size="14.00">timeOut</text>
</g>
<!-- 27&#45;&gt;2 -->
<g id="edge45" class="edge"><title>27&#45;&gt;2</title>
<path fill="none" stroke="magenta" d="M1957.98,-92.1024C1968.85,-85.0141 1982.13,-77.2396 1995,-72 2012.95,-64.6896 2032.64,-58.6604 2051.91,-53.7454"/>
<polygon fill="magenta" stroke="magenta" points="2061.63,-51.3489 2053,-58.1126 2056.77,-52.5462 2051.92,-53.7435 2051.92,-53.7435 2051.92,-53.7435 2056.77,-52.5462 2050.84,-49.3744 2061.63,-51.3489 2061.63,-51.3489"/>
</g>
<!-- 13&#45;&gt;5 -->
<g id="edge15" class="edge"><title>13&#45;&gt;5</title>
<path fill="none" stroke="black" d="M2066.36,-190.749C2066.66,-176.284 2067.09,-155.4 2067.43,-138.659"/>
<polygon fill="black" stroke="black" points="2070.94,-138.435 2067.65,-128.364 2063.94,-138.29 2070.94,-138.435"/>
</g>
<!-- 13&#45;&gt;26 -->
<g id="edge16" class="edge"><title>13&#45;&gt;26</title>
<path fill="none" stroke="black" d="M2097.48,-191.065C2111.22,-183.205 2127.29,-173.402 2141,-163.391 2152.71,-154.843 2164.83,-144.427 2175.02,-135.154"/>
<polygon fill="black" stroke="black" points="2177.43,-137.693 2182.4,-128.336 2172.68,-132.552 2177.43,-137.693"/>
</g>
<!-- 13&#45;&gt;27 -->
<g id="edge17" class="edge"><title>13&#45;&gt;27</title>
<path fill="none" stroke="black" d="M2036.69,-190.955C2023.64,-182.997 2008.25,-173.149 1995,-163.391 1983.19,-154.698 1970.79,-144.337 1960.28,-135.145"/>
<polygon fill="black" stroke="black" points="1962.45,-132.397 1952.64,-128.392 1957.81,-137.64 1962.45,-132.397"/>
</g>
<!-- 14 -->
<g id="node36" class="node"><title>14</title>
<polygon fill="gold" stroke="black" stroke-width="2" points="2474,-128.196 2268,-128.196 2268,-92.1956 2474,-92.1956 2474,-128.196"/>
<text text-anchor="middle" x="2371" y="-106.496" font-family="Times,serif" font-size="14.00">initCookieSessionManager</text>
</g>
<!-- 14&#45;&gt;2 -->
<g id="edge18" class="edge"><title>14&#45;&gt;2</title>
<path fill="none" stroke="black" d="M2321.67,-92.1737C2289.97,-81.2316 2248.6,-66.9552 2215.13,-55.4058"/>
<polygon fill="black" stroke="black" points="2216.06,-52.0248 2205.47,-52.0711 2213.78,-58.6419 2216.06,-52.0248"/>
</g>
<!-- 17&#45;&gt;2 -->
<g id="edge27" class="edge"><title>17&#45;&gt;2</title>
<path fill="none" stroke="black" d="M1642.57,-191.043C1627.13,-184.022 1608.48,-176.378 1591,-171.391 1579.76,-168.184 1546.61,-172.265 1539,-163.391 1512.55,-132.563 1511.15,-101.569 1539,-72 1556.28,-53.6537 1880.53,-42.3073 2051.86,-37.568"/>
<polygon fill="black" stroke="black" points="2052.02,-41.0652 2061.92,-37.2927 2051.83,-34.0679 2052.02,-41.0652"/>
</g>
<!-- 17&#45;&gt;24 -->
<g id="edge29" class="edge"><title>17&#45;&gt;24</title>
<path fill="none" stroke="black" d="M1711.5,-190.984C1726,-183.254 1742.77,-173.573 1757,-163.391 1768.65,-155.057 1780.57,-144.703 1790.55,-135.42"/>
<polygon fill="black" stroke="black" points="1793.25,-137.684 1798.1,-128.263 1788.43,-132.605 1793.25,-137.684"/>
</g>
<!-- 17&#45;&gt;19 -->
<g id="edge28" class="edge"><title>17&#45;&gt;19</title>
<path fill="none" stroke="black" d="M1605.18,-192.18C1567.26,-184.483 1519.83,-175.941 1477,-171.391 1447.82,-168.291 1241.09,-171.871 1213,-163.391 1193.03,-157.363 1173.09,-145.3 1157.66,-134.288"/>
<polygon fill="black" stroke="black" points="1159.7,-131.444 1149.57,-128.323 1155.54,-137.077 1159.7,-131.444"/>
</g>
<!-- 19&#45;&gt;1 -->
<g id="edge32" class="edge"><title>19&#45;&gt;1</title>
<path fill="none" stroke="black" d="M1167.08,-92.1737C1191.04,-81.4665 1222.14,-67.5664 1247.67,-56.153"/>
<polygon fill="black" stroke="black" points="1249.11,-59.3471 1256.81,-52.0711 1246.25,-52.9564 1249.11,-59.3471"/>
</g>
<!-- 20&#45;&gt;1 -->
<g id="edge33" class="edge"><title>20&#45;&gt;1</title>
<path fill="none" stroke="black" stroke-width="1.69315" d="M1271.39,-207.688C1194.33,-205.735 1070.09,-197.251 1041,-163.391 1014.53,-132.581 1014.43,-102.722 1041,-72 1063.24,-46.2851 1149.21,-38.0797 1215.03,-35.6466"/>
<polygon fill="black" stroke="black" stroke-width="1.69315" points="1215.53,-39.1321 1225.41,-35.3039 1215.3,-32.1359 1215.53,-39.1321"/>
</g>
<!-- 25&#45;&gt;5 -->
<g id="edge41" class="edge"><title>25&#45;&gt;5</title>
<path fill="none" stroke="black" d="M2178.35,-190.972C2156.58,-175.229 2124.09,-151.746 2100,-134.331"/>
<polygon fill="black" stroke="black" points="2102.02,-131.469 2091.86,-128.446 2097.92,-137.141 2102.02,-131.469"/>
</g>
<!-- 25&#45;&gt;26 -->
<g id="edge42" class="edge"><title>25&#45;&gt;26</title>
<path fill="none" stroke="black" d="M2201.64,-190.749C2201.34,-176.284 2200.91,-155.4 2200.57,-138.659"/>
<polygon fill="black" stroke="black" points="2204.06,-138.29 2200.35,-128.364 2197.06,-138.435 2204.06,-138.29"/>
</g>
<!-- 25&#45;&gt;27 -->
<g id="edge43" class="edge"><title>25&#45;&gt;27</title>
<path fill="none" stroke="black" d="M2177.07,-190.958C2164.93,-183.555 2149.79,-175.627 2135,-171.391 2105.04,-162.811 2023.91,-175.02 1995,-163.391 1980.12,-157.406 1966.29,-146.256 1955.58,-135.793"/>
<polygon fill="black" stroke="black" points="1957.84,-133.1 1948.35,-128.379 1952.83,-137.984 1957.84,-133.1"/>
</g>
</g>
</svg>
