<?xml version="1.0" encoding="UTF-8" standalone="no"?>
<!DOCTYPE svg PUBLIC "-//W3C//DTD SVG 1.1//EN"
 "http://www.w3.org/Graphics/SVG/1.1/DTD/svg11.dtd">
<!-- Generated by graphviz version 2.38.0 (20140413.2041)
 -->
<!-- Title: Diagram of: Snap.Snaplet.Session.SecureCookie Pages: 1 -->
<svg width="326pt" height="116pt"
 viewBox="0.00 0.00 326.00 116.00" xmlns="http://www.w3.org/2000/svg" xmlns:xlink="http://www.w3.org/1999/xlink">
<g id="graph0" class="graph" transform="scale(1 1) rotate(0) translate(4 112)">
<title>Diagram of: Snap.Snaplet.Session.SecureCookie</title>
<polygon fill="white" stroke="none" points="-4,4 -4,-112 322,-112 322,4 -4,4"/>
<!-- 1 -->
<g id="node1" class="node"><title>1</title>
<polygon fill="goldenrod" stroke="black" stroke-width="2" points="144,-36 7,-36 7,-0 144,-0 144,-36"/>
<text text-anchor="middle" x="75.5" y="-14.3" font-family="Times,serif" font-size="14.00">checkTimeout</text>
</g>
<!-- 2 -->
<g id="node2" class="node"><title>2</title>
<polygon fill="gold" stroke="black" stroke-width="2" points="151,-108 0,-108 0,-72 151,-72 151,-108"/>
<text text-anchor="middle" x="75.5" y="-86.3" font-family="Times,serif" font-size="14.00">getSecureCookie</text>
</g>
<!-- 2&#45;&gt;1 -->
<g id="edge1" class="edge"><title>2&#45;&gt;1</title>
<path fill="none" stroke="chartreuse" d="M75.5,-71.6966C75.5,-63.9827 75.5,-54.7125 75.5,-46.1124"/>
<polygon fill="chartreuse" stroke="chartreuse" points="79.0001,-46.1043 75.5,-36.1043 72.0001,-46.1044 79.0001,-46.1043"/>
</g>
<!-- 3 -->
<g id="node3" class="node"><title>3</title>
<polygon fill="gold" stroke="black" stroke-width="2" points="318,-108 169,-108 169,-72 318,-72 318,-108"/>
<text text-anchor="middle" x="243.5" y="-86.3" font-family="Times,serif" font-size="14.00">setSecureCookie</text>
</g>
</g>
</svg>
