<?xml version="1.0" encoding="UTF-8" standalone="no"?>
<!DOCTYPE svg PUBLIC "-//W3C//DTD SVG 1.1//EN"
 "http://www.w3.org/Graphics/SVG/1.1/DTD/svg11.dtd">
<!-- Generated by graphviz version 2.38.0 (20140413.2041)
 -->
<!-- Title: Diagram of: Snap.Snaplet.Heist.Internal Pages: 1 -->
<svg width="1196pt" height="279pt"
 viewBox="0.00 0.00 1196.00 279.00" xmlns="http://www.w3.org/2000/svg" xmlns:xlink="http://www.w3.org/1999/xlink">
<g id="graph0" class="graph" transform="scale(1 1) rotate(0) translate(4 275)">
<title>Diagram of: Snap.Snaplet.Heist.Internal</title>
<polygon fill="white" stroke="none" points="-4,4 -4,-275 1192,-275 1192,4 -4,4"/>
<g id="clust1" class="cluster"><title>cluster_Data_DefaultMode</title>
<path fill="papayawhip" stroke="black" d="M20,-80C20,-80 262,-80 262,-80 268,-80 274,-86 274,-92 274,-92 274,-143 274,-143 274,-149 268,-155 262,-155 262,-155 20,-155 20,-155 14,-155 8,-149 8,-143 8,-143 8,-92 8,-92 8,-86 14,-80 20,-80"/>
<text text-anchor="middle" x="141" y="-139.8" font-family="Times,serif" font-size="14.00">Data: DefaultMode</text>
</g>
<g id="clust2" class="cluster"><title>cluster_Data_Heist</title>
<path fill="papayawhip" stroke="black" d="M486,-8C486,-8 1168,-8 1168,-8 1174,-8 1180,-14 1180,-20 1180,-20 1180,-143 1180,-143 1180,-149 1174,-155 1168,-155 1168,-155 486,-155 486,-155 480,-155 474,-149 474,-143 474,-143 474,-20 474,-20 474,-14 480,-8 486,-8"/>
<text text-anchor="middle" x="827" y="-139.8" font-family="Times,serif" font-size="14.00">Data: Heist</text>
</g>
<!-- 1 -->
<g id="node1" class="node"><title>1</title>
<polygon fill="goldenrod" stroke="black" stroke-width="2" points="265.5,-124 156.5,-124 152.5,-120 152.5,-88 261.5,-88 265.5,-92 265.5,-124"/>
<polyline fill="none" stroke="black" stroke-width="2" points="261.5,-120 152.5,-120 "/>
<polyline fill="none" stroke="black" stroke-width="2" points="261.5,-120 261.5,-88 "/>
<polyline fill="none" stroke="black" stroke-width="2" points="261.5,-120 265.5,-124 "/>
<text text-anchor="middle" x="209" y="-102.3" font-family="Times,serif" font-size="14.00">Compiled</text>
</g>
<!-- 3 -->
<g id="node2" class="node"><title>3</title>
<polygon fill="gold" stroke="black" stroke-width="2" points="134,-124 20,-124 16,-120 16,-88 130,-88 134,-92 134,-124"/>
<polyline fill="none" stroke="black" stroke-width="2" points="130,-120 16,-120 "/>
<polyline fill="none" stroke="black" stroke-width="2" points="130,-120 130,-88 "/>
<polyline fill="none" stroke="black" stroke-width="2" points="130,-120 134,-124 "/>
<text text-anchor="middle" x="75" y="-102.3" font-family="Times,serif" font-size="14.00">Interpreted</text>
</g>
<!-- 2 -->
<g id="node3" class="node"><title>2</title>
<polygon fill="goldenrod" stroke="black" stroke-width="2" points="607.5,-52 486.5,-52 482.5,-48 482.5,-16 603.5,-16 607.5,-20 607.5,-52"/>
<polyline fill="none" stroke="black" stroke-width="2" points="603.5,-48 482.5,-48 "/>
<polyline fill="none" stroke="black" stroke-width="2" points="603.5,-48 603.5,-16 "/>
<polyline fill="none" stroke="black" stroke-width="2" points="603.5,-48 607.5,-52 "/>
<text text-anchor="middle" x="545" y="-30.3" font-family="Times,serif" font-size="14.00">Configuring</text>
</g>
<!-- 4 -->
<g id="node4" class="node"><title>4</title>
<polygon fill="goldenrod" stroke="black" stroke-width="2" points="897.5,-52 796.5,-52 792.5,-48 792.5,-16 893.5,-16 897.5,-20 897.5,-52"/>
<polyline fill="none" stroke="black" stroke-width="2" points="893.5,-48 792.5,-48 "/>
<polyline fill="none" stroke="black" stroke-width="2" points="893.5,-48 893.5,-16 "/>
<polyline fill="none" stroke="black" stroke-width="2" points="893.5,-48 897.5,-52 "/>
<text text-anchor="middle" x="845" y="-30.3" font-family="Times,serif" font-size="14.00">Running</text>
</g>
<!-- 5 -->
<g id="node5" class="node"><title>5</title>
<polygon fill="gold" stroke="black" stroke-width="2" points="1171.5,-124 1056.5,-124 1056.5,-120 1052.5,-120 1052.5,-116 1056.5,-116 1056.5,-96 1052.5,-96 1052.5,-92 1056.5,-92 1056.5,-88 1171.5,-88 1171.5,-124"/>
<polyline fill="none" stroke="black" stroke-width="2" points="1056.5,-120 1060.5,-120 1060.5,-116 1056.5,-116 "/>
<polyline fill="none" stroke="black" stroke-width="2" points="1056.5,-96 1060.5,-96 1060.5,-92 1056.5,-92 "/>
<text text-anchor="middle" x="1114" y="-102.3" font-family="Times,serif" font-size="14.00">_defMode</text>
</g>
<!-- 5&#45;&gt;4 -->
<g id="edge1" class="edge"><title>5&#45;&gt;4</title>
<path fill="none" stroke="magenta" d="M1071.05,-87.9765C1063.11,-85.1183 1054.86,-82.3287 1047,-80 1000.95,-66.3511 947.919,-54.6868 907.749,-46.6559"/>
<polygon fill="magenta" stroke="magenta" points="897.825,-44.6934 908.508,-42.219 902.73,-45.6635 907.635,-46.6335 907.635,-46.6335 907.635,-46.6335 902.73,-45.6635 906.762,-51.048 897.825,-44.6934 897.825,-44.6934"/>
</g>
<!-- 6 -->
<g id="node6" class="node"><title>6</title>
<polygon fill="gold" stroke="black" stroke-width="2" points="1038,-124 922,-124 922,-120 918,-120 918,-116 922,-116 922,-96 918,-96 918,-92 922,-92 922,-88 1038,-88 1038,-124"/>
<polyline fill="none" stroke="black" stroke-width="2" points="922,-120 926,-120 926,-116 922,-116 "/>
<polyline fill="none" stroke="black" stroke-width="2" points="922,-96 926,-96 926,-92 922,-92 "/>
<text text-anchor="middle" x="980" y="-102.3" font-family="Times,serif" font-size="14.00">_heistCTS</text>
</g>
<!-- 6&#45;&gt;4 -->
<g id="edge2" class="edge"><title>6&#45;&gt;4</title>
<path fill="none" stroke="magenta" d="M946.975,-87.8761C928.915,-78.5117 906.355,-66.8136 887.049,-56.803"/>
<polygon fill="magenta" stroke="magenta" points="878.152,-52.1898 889.101,-52.7981 882.59,-54.4914 887.029,-56.793 887.029,-56.793 887.029,-56.793 882.59,-54.4914 884.958,-60.7879 878.152,-52.1898 878.152,-52.1898"/>
</g>
<!-- 7 -->
<g id="node7" class="node"><title>7</title>
<polygon fill="gold" stroke="black" stroke-width="2" points="610,-124 482,-124 482,-120 478,-120 478,-116 482,-116 482,-96 478,-96 478,-92 482,-92 482,-88 610,-88 610,-124"/>
<polyline fill="none" stroke="black" stroke-width="2" points="482,-120 486,-120 486,-116 482,-116 "/>
<polyline fill="none" stroke="black" stroke-width="2" points="482,-96 486,-96 486,-92 482,-92 "/>
<text text-anchor="middle" x="546" y="-102.3" font-family="Times,serif" font-size="14.00">_heistConfig</text>
</g>
<!-- 7&#45;&gt;2 -->
<g id="edge3" class="edge"><title>7&#45;&gt;2</title>
<path fill="none" stroke="magenta" d="M545.753,-87.6966C545.643,-79.9827 545.51,-70.7125 545.387,-62.1124"/>
<polygon fill="magenta" stroke="magenta" points="545.244,-52.1043 549.887,-62.039 545.316,-57.1038 545.387,-62.1033 545.387,-62.1033 545.387,-62.1033 545.316,-57.1038 540.888,-62.1676 545.244,-52.1043 545.244,-52.1043"/>
</g>
<!-- 8 -->
<g id="node8" class="node"><title>8</title>
<polygon fill="gold" stroke="black" stroke-width="2" points="904,-124 786,-124 786,-120 782,-120 782,-116 786,-116 786,-96 782,-96 782,-92 786,-92 786,-88 904,-88 904,-124"/>
<polyline fill="none" stroke="black" stroke-width="2" points="786,-120 790,-120 790,-116 786,-116 "/>
<polyline fill="none" stroke="black" stroke-width="2" points="786,-96 790,-96 790,-92 786,-92 "/>
<text text-anchor="middle" x="845" y="-102.3" font-family="Times,serif" font-size="14.00">_heistState</text>
</g>
<!-- 8&#45;&gt;4 -->
<g id="edge4" class="edge"><title>8&#45;&gt;4</title>
<path fill="none" stroke="magenta" d="M845,-87.6966C845,-79.9827 845,-70.7125 845,-62.1124"/>
<polygon fill="magenta" stroke="magenta" points="845,-52.1043 849.5,-62.1043 845,-57.1043 845,-62.1043 845,-62.1043 845,-62.1043 845,-57.1043 840.5,-62.1044 845,-52.1043 845,-52.1043"/>
</g>
<!-- 9 -->
<g id="node9" class="node"><title>9</title>
<polygon fill="goldenrod" stroke="black" stroke-width="2" points="768,-124 628,-124 628,-120 624,-120 624,-116 628,-116 628,-96 624,-96 624,-92 628,-92 628,-88 768,-88 768,-124"/>
<polyline fill="none" stroke="black" stroke-width="2" points="628,-120 632,-120 632,-116 628,-116 "/>
<polyline fill="none" stroke="black" stroke-width="2" points="628,-96 632,-96 632,-92 628,-92 "/>
<text text-anchor="middle" x="698" y="-102.3" font-family="Times,serif" font-size="14.00">_masterConfig</text>
</g>
<!-- 9&#45;&gt;4 -->
<g id="edge5" class="edge"><title>9&#45;&gt;4</title>
<path fill="none" stroke="magenta" d="M733.96,-87.8761C753.877,-78.3917 778.822,-66.5134 800.02,-56.419"/>
<polygon fill="magenta" stroke="magenta" points="809.157,-52.0683 802.063,-60.4306 804.642,-54.218 800.128,-56.3677 800.128,-56.3677 800.128,-56.3677 804.642,-54.218 798.193,-52.3048 809.157,-52.0683 809.157,-52.0683"/>
</g>
<!-- 10 -->
<g id="node10" class="node"><title>10</title>
<polygon fill="goldenrod" stroke="black" stroke-width="2" points="463.5,-124 322.5,-124 322.5,-88 463.5,-88 463.5,-124"/>
<text text-anchor="middle" x="393" y="-102.3" font-family="Times,serif" font-size="14.00">finalLoadHook</text>
</g>
<!-- 10&#45;&gt;2 -->
<g id="edge6" class="edge"><title>10&#45;&gt;2</title>
<path fill="none" stroke="black" d="M430.183,-87.8761C450.87,-78.3492 476.802,-66.4068 498.785,-56.2833"/>
<polygon fill="black" stroke="black" points="500.318,-59.4305 507.937,-52.0683 497.39,-53.0723 500.318,-59.4305"/>
</g>
<!-- 10&#45;&gt;4 -->
<g id="edge7" class="edge"><title>10&#45;&gt;4</title>
<path fill="none" stroke="black" stroke-width="1.69315" d="M440.66,-87.9352C450.281,-84.9428 460.392,-82.1152 470,-80 578.255,-56.1687 707.06,-44.1886 782.07,-38.7998"/>
<polygon fill="black" stroke="black" stroke-width="1.69315" points="782.558,-42.2742 792.289,-38.0826 782.068,-35.2913 782.558,-42.2742"/>
</g>
<!-- 11 -->
<g id="node11" class="node"><title>11</title>
<polygon fill="gold" stroke="black" stroke-width="2" points="539.5,-271 426.5,-271 426.5,-235 539.5,-235 539.5,-271"/>
<text text-anchor="middle" x="483" y="-249.3" font-family="Times,serif" font-size="14.00">gHeistInit</text>
</g>
<!-- 12 -->
<g id="node12" class="node"><title>12</title>
<polygon fill="goldenrod" stroke="black" stroke-width="2" points="415.5,-199 270.5,-199 270.5,-163 415.5,-163 415.5,-199"/>
<text text-anchor="middle" x="343" y="-177.3" font-family="Times,serif" font-size="14.00">heistInitWorker</text>
</g>
<!-- 11&#45;&gt;12 -->
<g id="edge8" class="edge"><title>11&#45;&gt;12</title>
<path fill="none" stroke="black" d="M448.752,-234.876C429.939,-225.469 406.415,-213.708 386.334,-203.667"/>
<polygon fill="black" stroke="black" points="387.889,-200.531 377.38,-199.19 384.759,-206.792 387.889,-200.531"/>
</g>
<!-- 13 -->
<g id="node13" class="node"><title>13</title>
<polygon fill="goldenrod" stroke="black" stroke-width="2" points="689.5,-199 556.5,-199 556.5,-163 689.5,-163 689.5,-199"/>
<text text-anchor="middle" x="623" y="-177.3" font-family="Times,serif" font-size="14.00">heistReloader</text>
</g>
<!-- 11&#45;&gt;13 -->
<g id="edge9" class="edge"><title>11&#45;&gt;13</title>
<path fill="none" stroke="black" d="M517.248,-234.876C536.061,-225.469 559.585,-213.708 579.666,-203.667"/>
<polygon fill="black" stroke="black" points="581.241,-206.792 588.62,-199.19 578.111,-200.531 581.241,-206.792"/>
</g>
<!-- 12&#45;&gt;1 -->
<g id="edge10" class="edge"><title>12&#45;&gt;1</title>
<path fill="none" stroke="black" d="M296.712,-162.975C290.998,-160.483 285.306,-157.804 280,-155 266.344,-147.784 252.089,-138.528 239.966,-130.073"/>
<polygon fill="black" stroke="black" points="241.734,-127.035 231.554,-124.098 237.68,-132.742 241.734,-127.035"/>
</g>
<!-- 12&#45;&gt;2 -->
<g id="edge11" class="edge"><title>12&#45;&gt;2</title>
<path fill="none" stroke="black" d="M318.228,-162.833C316.139,-160.441 314.323,-157.824 313,-155 298.861,-124.814 291.792,-105.717 313,-80 332.957,-55.8003 411.839,-44.4552 472.137,-39.2421"/>
<polygon fill="black" stroke="black" points="472.721,-42.7059 482.4,-38.3976 472.147,-35.7295 472.721,-42.7059"/>
</g>
<!-- 12&#45;&gt;10 -->
<g id="edge12" class="edge"><title>12&#45;&gt;10</title>
<path fill="none" stroke="black" d="M354.849,-162.7C361.014,-153.7 368.67,-142.522 375.502,-132.547"/>
<polygon fill="black" stroke="black" points="378.472,-134.404 381.236,-124.176 372.697,-130.448 378.472,-134.404"/>
</g>
<!-- 13&#45;&gt;9 -->
<g id="edge13" class="edge"><title>13&#45;&gt;9</title>
<path fill="none" stroke="chartreuse" d="M640.774,-162.7C650.394,-153.336 662.436,-141.615 672.989,-131.344"/>
<polygon fill="chartreuse" stroke="chartreuse" points="675.629,-133.659 680.354,-124.176 670.746,-128.643 675.629,-133.659"/>
</g>
</g>
</svg>
