<?xml version="1.0" encoding="UTF-8" standalone="no"?>
<!DOCTYPE svg PUBLIC "-//W3C//DTD SVG 1.1//EN"
 "http://www.w3.org/Graphics/SVG/1.1/DTD/svg11.dtd">
<!-- Generated by graphviz version 2.38.0 (20140413.2041)
 -->
<!-- Title: Levels within Snap.Snaplet.Heist.Compiled Pages: 1 -->
<svg width="681pt" height="99pt"
 viewBox="0.00 0.00 681.00 99.00" xmlns="http://www.w3.org/2000/svg" xmlns:xlink="http://www.w3.org/1999/xlink">
<g id="graph0" class="graph" transform="scale(1 1) rotate(0) translate(4 95)">
<title>Levels within Snap.Snaplet.Heist.Compiled</title>
<polygon fill="white" stroke="none" points="-4,4 -4,-95 677,-95 677,4 -4,4"/>
<g id="clust1" class="cluster"><title>cluster_0</title>
<polygon fill="lavender" stroke="black" points="8,-8 8,-83 665,-83 665,-8 8,-8"/>
<text text-anchor="middle" x="336.5" y="-67.8" font-family="Times,serif" font-size="14.00">Exported root entities</text>
</g>
<!-- 1 -->
<g id="node1" class="node"><title>1</title>
<polygon fill="gold" stroke="black" stroke-width="2" points="656.5,-52 553.5,-52 553.5,-16 656.5,-16 656.5,-52"/>
<text text-anchor="middle" x="605" y="-30.3" font-family="Times,serif" font-size="14.00">heistInit</text>
</g>
<!-- 2 -->
<g id="node2" class="node"><title>2</title>
<polygon fill="gold" stroke="black" stroke-width="2" points="535.5,-52 420.5,-52 420.5,-16 535.5,-16 535.5,-52"/>
<text text-anchor="middle" x="478" y="-30.3" font-family="Times,serif" font-size="14.00">heistServe</text>
</g>
<!-- 3 -->
<g id="node3" class="node"><title>3</title>
<polygon fill="gold" stroke="black" stroke-width="2" points="402.5,-52 253.5,-52 253.5,-16 402.5,-16 402.5,-52"/>
<text text-anchor="middle" x="328" y="-30.3" font-family="Times,serif" font-size="14.00">heistServeSingle</text>
</g>
<!-- 4 -->
<g id="node4" class="node"><title>4</title>
<polygon fill="gold" stroke="black" stroke-width="2" points="235.5,-52 142.5,-52 142.5,-16 235.5,-16 235.5,-52"/>
<text text-anchor="middle" x="189" y="-30.3" font-family="Times,serif" font-size="14.00">render</text>
</g>
<!-- 5 -->
<g id="node5" class="node"><title>5</title>
<polygon fill="gold" stroke="black" stroke-width="2" points="124,-52 16,-52 16,-16 124,-16 124,-52"/>
<text text-anchor="middle" x="70" y="-30.3" font-family="Times,serif" font-size="14.00">renderAs</text>
</g>
</g>
</svg>
