<?xml version="1.0" encoding="UTF-8" standalone="no"?>
<!DOCTYPE svg PUBLIC "-//W3C//DTD SVG 1.1//EN"
 "http://www.w3.org/Graphics/SVG/1.1/DTD/svg11.dtd">
<!-- Generated by graphviz version 2.38.0 (20140413.2041)
 -->
<!-- Title: Levels within Snap.Snaplet.Session.SessionManager Pages: 1 -->
<svg width="538pt" height="115pt"
 viewBox="0.00 0.00 538.00 115.39" xmlns="http://www.w3.org/2000/svg" xmlns:xlink="http://www.w3.org/1999/xlink">
<g id="graph0" class="graph" transform="scale(1 1) rotate(0) translate(4 111.391)">
<title>Levels within Snap.Snaplet.Session.SessionManager</title>
<polygon fill="white" stroke="none" points="-4,4 -4,-111.391 534,-111.391 534,4 -4,4"/>
<g id="clust1" class="cluster"><title>cluster_0</title>
<polygon fill="lavender" stroke="black" points="8,-8 8,-99.3913 522,-99.3913 522,-8 8,-8"/>
<text text-anchor="middle" x="265" y="-84.1913" font-family="Times,serif" font-size="14.00">Exported root entities</text>
</g>
<!-- 1 -->
<g id="node1" class="node"><title>1</title>
<polygon fill="gold" stroke="black" stroke-width="2" points="514,-60.1956 336,-60.1956 332,-56.1956 332,-24.1956 510,-24.1956 514,-28.1956 514,-60.1956"/>
<polyline fill="none" stroke="black" stroke-width="2" points="510,-56.1956 332,-56.1956 "/>
<polyline fill="none" stroke="black" stroke-width="2" points="510,-56.1956 510,-24.1956 "/>
<polyline fill="none" stroke="black" stroke-width="2" points="510,-56.1956 514,-60.1956 "/>
<text text-anchor="middle" x="423" y="-38.4956" font-family="Times,serif" font-size="14.00">Data: SessionManager</text>
</g>
<!-- 2 -->
<g id="node2" class="node"><title>2</title>
<polygon fill="gold" stroke="black" stroke-width="2" points="310.342,-32.9327 310.342,-51.4586 225.202,-64.5583 104.798,-64.5583 19.6584,-51.4586 19.6584,-32.9327 104.798,-19.833 225.202,-19.833 310.342,-32.9327"/>
<polygon fill="none" stroke="black" stroke-width="2" points="314.339,-29.4711 314.339,-54.9202 225.506,-68.5884 104.494,-68.5884 15.6605,-54.9202 15.6605,-29.4711 104.494,-15.8029 225.506,-15.8029 314.339,-29.4711"/>
<text text-anchor="middle" x="165" y="-38.4956" font-family="Times,serif" font-size="14.00">Class: ISessionManager</text>
</g>
</g>
</svg>
