<?xml version="1.0" encoding="UTF-8" standalone="no"?>
<!DOCTYPE svg PUBLIC "-//W3C//DTD SVG 1.1//EN"
 "http://www.w3.org/Graphics/SVG/1.1/DTD/svg11.dtd">
<!-- Generated by graphviz version 2.38.0 (20140413.2041)
 -->
<!-- Title: Levels within Snap.Snaplet.Auth.AuthManager Pages: 1 -->
<svg width="862pt" height="196pt"
 viewBox="0.00 0.00 862.00 195.78" xmlns="http://www.w3.org/2000/svg" xmlns:xlink="http://www.w3.org/1999/xlink">
<g id="graph0" class="graph" transform="scale(1 1) rotate(0) translate(4 191.783)">
<title>Levels within Snap.Snaplet.Auth.AuthManager</title>
<polygon fill="white" stroke="none" points="-4,4 -4,-191.783 858,-191.783 858,4 -4,4"/>
<g id="clust1" class="cluster"><title>cluster_0</title>
<polygon fill="lavender" stroke="black" points="8,-8 8,-175.587 348,-175.587 348,-8 8,-8"/>
<text text-anchor="middle" x="178" y="-160.387" font-family="Times,serif" font-size="14.00">Exported root entities</text>
</g>
<g id="clust2" class="cluster"><title>cluster_1</title>
<polygon fill="lavender" stroke="black" points="356,-96.3913 356,-179.783 846,-179.783 846,-96.3913 356,-96.3913"/>
<text text-anchor="middle" x="601" y="-164.583" font-family="Times,serif" font-size="14.00">Level = 1</text>
</g>
<!-- 1 -->
<g id="node1" class="node"><title>1</title>
<polygon fill="goldenrod" stroke="black" stroke-width="2" points="340.5,-144.587 177.5,-144.587 173.5,-140.587 173.5,-108.587 336.5,-108.587 340.5,-112.587 340.5,-144.587"/>
<polyline fill="none" stroke="black" stroke-width="2" points="336.5,-140.587 173.5,-140.587 "/>
<polyline fill="none" stroke="black" stroke-width="2" points="336.5,-140.587 336.5,-108.587 "/>
<polyline fill="none" stroke="black" stroke-width="2" points="336.5,-140.587 340.5,-144.587 "/>
<text text-anchor="middle" x="257" y="-122.887" font-family="Times,serif" font-size="14.00">Data: AuthManager</text>
</g>
<!-- 4 -->
<g id="node2" class="node"><title>4</title>
<polygon fill="gold" stroke="black" stroke-width="2" points="155.5,-144.587 16.5,-144.587 16.5,-108.587 155.5,-108.587 155.5,-144.587"/>
<text text-anchor="middle" x="86" y="-122.887" font-family="Times,serif" font-size="14.00">buildAuthUser</text>
</g>
<!-- 5 -->
<g id="node3" class="node"><title>5</title>
<polygon fill="goldenrod" stroke="black" stroke-width="2" points="311.343,-32.9327 311.343,-51.4586 233.232,-64.5583 122.768,-64.5583 44.6572,-51.4586 44.6572,-32.9327 122.768,-19.833 233.232,-19.833 311.343,-32.9327"/>
<polygon fill="none" stroke="black" stroke-width="2" points="315.348,-29.5187 315.348,-54.8726 233.564,-68.5884 122.436,-68.5884 40.6521,-54.8726 40.6521,-29.5187 122.436,-15.8029 233.564,-15.8029 315.348,-29.5187"/>
<text text-anchor="middle" x="178" y="-38.4956" font-family="Times,serif" font-size="14.00">Class: IAuthBackend</text>
</g>
<!-- 4&#45;&gt;5 -->
<g id="edge1" class="edge"><title>4&#45;&gt;5</title>
<path fill="none" stroke="black" d="M105.062,-108.515C115.697,-98.9913 129.298,-86.811 141.867,-75.5544"/>
<polygon fill="black" stroke="black" points="144.41,-77.9757 149.525,-68.697 139.74,-72.7611 144.41,-77.9757"/>
</g>
<!-- 6 -->
<g id="node4" class="node"><title>6</title>
<polygon fill="bisque" stroke="black" stroke-width="2" points="838.028,-117.311 838.028,-135.862 699.18,-148.98 502.82,-148.98 363.972,-135.862 363.972,-117.311 502.82,-104.194 699.18,-104.194 838.028,-117.311"/>
<text text-anchor="middle" x="601" y="-122.887" font-family="Times,serif" font-size="14.00">Class: IAuthBackend, Data: (AuthManager b)</text>
</g>
<!-- 5&#45;&gt;6 -->
<g id="edge2" class="edge"><title>5&#45;&gt;6</title>
<path fill="none" stroke="navy" stroke-width="2.60944" d="M276.858,-61.3397C343.605,-74.0881 431.444,-91.1798 498.866,-104.53"/>
</g>
<!-- 6&#45;&gt;1 -->
<g id="edge3" class="edge"><title>6&#45;&gt;1</title>
<path fill="none" stroke="black" stroke-width="3.30259" d="M363.785,-126.587C359.447,-126.587 355.109,-126.587 350.771,-126.587"/>
<polygon fill="black" stroke="black" stroke-width="3.30259" points="350.648,-123.087 340.648,-126.587 350.648,-130.087 350.648,-123.087"/>
</g>
<!-- 6&#45;&gt;5 -->
<g id="edge4" class="edge"><title>6&#45;&gt;5</title>
<path fill="none" stroke="black" stroke-width="2.60944" d="M490.799,-105.273C425.964,-92.8576 344.532,-77.0015 280.989,-64.4222"/>
<polygon fill="black" stroke="black" stroke-width="2.60944" points="281.439,-60.9434 270.95,-62.4324 280.078,-67.8099 281.439,-60.9434"/>
</g>
</g>
</svg>
