<?xml version="1.0" encoding="UTF-8" standalone="no"?>
<!DOCTYPE svg PUBLIC "-//W3C//DTD SVG 1.1//EN"
 "http://www.w3.org/Graphics/SVG/1.1/DTD/svg11.dtd">
<!-- Generated by graphviz version 2.38.0 (20140413.2041)
 -->
<!-- Title: Diagram of: Snap.Snaplet.Auth.Backends.JsonFile Pages: 1 -->
<svg width="3275pt" height="587pt"
 viewBox="0.00 0.00 3274.50 587.01" xmlns="http://www.w3.org/2000/svg" xmlns:xlink="http://www.w3.org/1999/xlink">
<g id="graph0" class="graph" transform="scale(1 1) rotate(0) translate(4 583.007)">
<title>Diagram of: Snap.Snaplet.Auth.Backends.JsonFile</title>
<polygon fill="white" stroke="none" points="-4,4 -4,-583.007 3270.5,-583.007 3270.5,4 -4,4"/>
<g id="clust1" class="cluster"><title>cluster_Class_FromJSON</title>
<path fill="#ffc1c1" stroke="black" d="M20,-72C20,-72 262,-72 262,-72 268,-72 274,-78 274,-84 274,-84 274,-393.135 274,-393.135 274,-399.135 268,-405.135 262,-405.135 262,-405.135 20,-405.135 20,-405.135 14,-405.135 8,-399.135 8,-393.135 8,-393.135 8,-84 8,-84 8,-78 14,-72 20,-72"/>
<text text-anchor="middle" x="141" y="-389.935" font-family="Times,serif" font-size="14.00">Class: FromJSON</text>
</g>
<g id="clust2" class="cluster"><title>cluster_Class_FromJSON_Data_UserCache</title>
<path fill="#c6e2ff" stroke="black" d="M67,-80C67,-80 241,-80 241,-80 247,-80 253,-86 253,-92 253,-92 253,-151.391 253,-151.391 253,-157.391 247,-163.391 241,-163.391 241,-163.391 67,-163.391 67,-163.391 61,-163.391 55,-157.391 55,-151.391 55,-151.391 55,-92 55,-92 55,-86 61,-80 67,-80"/>
<text text-anchor="middle" x="154" y="-148.191" font-family="Times,serif" font-size="14.00">Instance for: UserCache</text>
</g>
<g id="clust3" class="cluster"><title>cluster_Class_FromJSON_Data_UserIdCache</title>
<path fill="#c6e2ff" stroke="black" d="M54,-290.744C54,-290.744 228,-290.744 228,-290.744 234,-290.744 240,-296.744 240,-302.744 240,-302.744 240,-362.135 240,-362.135 240,-368.135 234,-374.135 228,-374.135 228,-374.135 54,-374.135 54,-374.135 48,-374.135 42,-368.135 42,-362.135 42,-362.135 42,-302.744 42,-302.744 42,-296.744 48,-290.744 54,-290.744"/>
<text text-anchor="middle" x="141" y="-358.935" font-family="Times,serif" font-size="14.00">Instance for: UserIdCache</text>
</g>
<g id="clust4" class="cluster"><title>cluster_Class_IAuthBackend</title>
<path fill="#ffc1c1" stroke="black" d="M818,-282.744C818,-282.744 2758,-282.744 2758,-282.744 2764,-282.744 2770,-288.744 2770,-294.744 2770,-294.744 2770,-507.487 2770,-507.487 2770,-513.487 2764,-519.487 2758,-519.487 2758,-519.487 818,-519.487 818,-519.487 812,-519.487 806,-513.487 806,-507.487 806,-507.487 806,-294.744 806,-294.744 806,-288.744 812,-282.744 818,-282.744"/>
<text text-anchor="middle" x="1788" y="-504.287" font-family="Times,serif" font-size="14.00">Class: IAuthBackend</text>
</g>
<g id="clust5" class="cluster"><title>cluster_Class_IAuthBackend_Data_JsonFileAuthManager</title>
<path fill="#c6e2ff" stroke="black" d="M900,-290.744C900,-290.744 2006,-290.744 2006,-290.744 2012,-290.744 2018,-296.744 2018,-302.744 2018,-302.744 2018,-362.135 2018,-362.135 2018,-368.135 2012,-374.135 2006,-374.135 2006,-374.135 900,-374.135 900,-374.135 894,-374.135 888,-368.135 888,-362.135 888,-362.135 888,-302.744 888,-302.744 888,-296.744 894,-290.744 900,-290.744"/>
<text text-anchor="middle" x="1453" y="-358.935" font-family="Times,serif" font-size="14.00">Instance for: JsonFileAuthManager</text>
</g>
<g id="clust6" class="cluster"><title>cluster_Class_ToJSON</title>
<path fill="#ffc1c1" stroke="black" d="M476,-171.391C476,-171.391 718,-171.391 718,-171.391 724,-171.391 730,-177.391 730,-183.391 730,-183.391 730,-523.007 730,-523.007 730,-529.007 724,-535.007 718,-535.007 718,-535.007 476,-535.007 476,-535.007 470,-535.007 464,-529.007 464,-523.007 464,-523.007 464,-183.391 464,-183.391 464,-177.391 470,-171.391 476,-171.391"/>
<text text-anchor="middle" x="597" y="-519.807" font-family="Times,serif" font-size="14.00">Class: ToJSON</text>
</g>
<g id="clust7" class="cluster"><title>cluster_Class_ToJSON_Data_UserCache</title>
<path fill="#c6e2ff" stroke="black" d="M564,-179.391C564,-179.391 710,-179.391 710,-179.391 716,-179.391 722,-185.391 722,-191.391 722,-191.391 722,-250.783 722,-250.783 722,-256.783 716,-262.783 710,-262.783 710,-262.783 564,-262.783 564,-262.783 558,-262.783 552,-256.783 552,-250.783 552,-250.783 552,-191.391 552,-191.391 552,-185.391 558,-179.391 564,-179.391"/>
<text text-anchor="middle" x="637" y="-247.583" font-family="Times,serif" font-size="14.00">Instance for: UserCache</text>
</g>
<g id="clust8" class="cluster"><title>cluster_Class_ToJSON_Data_UserIdCache</title>
<path fill="#c6e2ff" stroke="black" d="M524,-420.615C524,-420.615 670,-420.615 670,-420.615 676,-420.615 682,-426.615 682,-432.615 682,-432.615 682,-492.007 682,-492.007 682,-498.007 676,-504.007 670,-504.007 670,-504.007 524,-504.007 524,-504.007 518,-504.007 512,-498.007 512,-492.007 512,-492.007 512,-432.615 512,-432.615 512,-426.615 518,-420.615 524,-420.615"/>
<text text-anchor="middle" x="597" y="-488.807" font-family="Times,serif" font-size="14.00">Instance for: UserIdCache</text>
</g>
<g id="clust9" class="cluster"><title>cluster_Data_JsonFileAuthManager</title>
<path fill="papayawhip" stroke="black" d="M2917,-8C2917,-8 3135,-8 3135,-8 3141,-8 3147,-14 3147,-20 3147,-20 3147,-147.196 3147,-147.196 3147,-153.196 3141,-159.196 3135,-159.196 3135,-159.196 2917,-159.196 2917,-159.196 2911,-159.196 2905,-153.196 2905,-147.196 2905,-147.196 2905,-20 2905,-20 2905,-14 2911,-8 2917,-8"/>
<text text-anchor="middle" x="3026" y="-143.996" font-family="Times,serif" font-size="14.00">Data: JsonFileAuthManager</text>
</g>
<g id="clust10" class="cluster"><title>cluster_Data_UserCache</title>
<path fill="papayawhip" stroke="black" d="M570,-8C570,-8 1088,-8 1088,-8 1094,-8 1100,-14 1100,-20 1100,-20 1100,-147.196 1100,-147.196 1100,-153.196 1094,-159.196 1088,-159.196 1088,-159.196 570,-159.196 570,-159.196 564,-159.196 558,-153.196 558,-147.196 558,-147.196 558,-20 558,-20 558,-14 564,-8 570,-8"/>
<text text-anchor="middle" x="829" y="-143.996" font-family="Times,serif" font-size="14.00">Data: UserCache</text>
</g>
<!-- 21 -->
<g id="node1" class="node"><title>21</title>
<polygon fill="bisque" stroke="black" stroke-width="2" points="245.157,-100.92 245.157,-119.471 191.759,-132.589 116.241,-132.589 62.8426,-119.471 62.8426,-100.92 116.241,-87.8026 191.759,-87.8026 245.157,-100.92"/>
<text text-anchor="middle" x="154" y="-106.496" font-family="Times,serif" font-size="14.00">parseJSON</text>
</g>
<!-- 7 -->
<g id="node20" class="node"><title>7</title>
<polygon fill="cyan" stroke="black" stroke-width="2" points="886,-52 772,-52 768,-48 768,-16 882,-16 886,-20 886,-52"/>
<polyline fill="none" stroke="black" stroke-width="2" points="882,-48 768,-48 "/>
<polyline fill="none" stroke="black" stroke-width="2" points="882,-48 882,-16 "/>
<polyline fill="none" stroke="black" stroke-width="2" points="882,-48 886,-52 "/>
<text text-anchor="middle" x="827" y="-30.3" font-family="Times,serif" font-size="14.00">UserCache</text>
</g>
<!-- 21&#45;&gt;7 -->
<g id="edge39" class="edge"><title>21&#45;&gt;7</title>
<path fill="none" stroke="black" d="M240.262,-99.6856C375.325,-84.7954 634.038,-56.2733 757.764,-42.633"/>
<polygon fill="black" stroke="black" points="758.317,-46.0933 767.873,-41.5185 757.55,-39.1355 758.317,-46.0933"/>
</g>
<!-- 22 -->
<g id="node2" class="node"><title>22</title>
<polygon fill="bisque" stroke="black" stroke-width="2" points="232.157,-311.664 232.157,-330.215 178.759,-343.332 103.241,-343.332 49.8426,-330.215 49.8426,-311.664 103.241,-298.546 178.759,-298.546 232.157,-311.664"/>
<text text-anchor="middle" x="141" y="-317.239" font-family="Times,serif" font-size="14.00">parseJSON</text>
</g>
<!-- 31 -->
<g id="node3" class="node"><title>31</title>
<polygon fill="khaki" stroke="black" stroke-dasharray="1,5" points="261.858,-195.572 261.858,-223.602 191.061,-243.421 90.9389,-243.421 20.1417,-223.602 20.1417,-195.572 90.9389,-175.753 191.061,-175.753 261.858,-195.572"/>
<polygon fill="none" stroke="black" stroke-dasharray="1,5" points="265.856,-192.52 265.856,-226.654 191.607,-247.44 90.3926,-247.44 16.144,-226.654 16.144,-192.52 90.3926,-171.734 191.607,-171.734 265.856,-192.52"/>
<text text-anchor="middle" x="141" y="-213.387" font-family="Times,serif" font-size="14.00">Unknown Module</text>
<text text-anchor="middle" x="141" y="-198.387" font-family="Times,serif" font-size="14.00">parseJSON</text>
</g>
<!-- 22&#45;&gt;31 -->
<g id="edge40" class="edge"><title>22&#45;&gt;31</title>
<path fill="none" stroke="chartreuse" d="M135.519,-298.595C134.49,-286.892 134.087,-271.893 134.309,-257.606"/>
<polygon fill="chartreuse" stroke="chartreuse" points="137.814,-257.476 134.581,-247.386 130.816,-257.289 137.814,-257.476"/>
</g>
<!-- 31&#45;&gt;21 -->
<g id="edge51" class="edge"><title>31&#45;&gt;21</title>
<path fill="none" stroke="navy" stroke-width="1.69315" d="M145.915,-171.767C147.684,-158.516 149.619,-144.016 151.153,-132.525"/>
</g>
<!-- 31&#45;&gt;22 -->
<g id="edge52" class="edge"><title>31&#45;&gt;22</title>
<path fill="none" stroke="navy" d="M147.419,-247.386C148.072,-264.418 147.759,-284.051 146.481,-298.595"/>
</g>
<!-- 10 -->
<g id="node4" class="node"><title>10</title>
<polygon fill="cyan" stroke="black" stroke-width="2" points="1864.01,-311.664 1864.01,-330.215 1820.07,-343.332 1757.93,-343.332 1713.99,-330.215 1713.99,-311.664 1757.93,-298.546 1820.07,-298.546 1864.01,-311.664"/>
<text text-anchor="middle" x="1789" y="-317.239" font-family="Times,serif" font-size="14.00">destroy</text>
</g>
<!-- 16 -->
<g id="node5" class="node"><title>16</title>
<polygon fill="bisque" stroke="black" stroke-width="2" points="1696.43,-311.664 1696.43,-330.215 1631.74,-343.332 1540.26,-343.332 1475.57,-330.215 1475.57,-311.664 1540.26,-298.546 1631.74,-298.546 1696.43,-311.664"/>
<text text-anchor="middle" x="1586" y="-317.239" font-family="Times,serif" font-size="14.00">lookupByLogin</text>
</g>
<!-- 15 -->
<g id="node21" class="node"><title>15</title>
<polygon fill="bisque" stroke="black" stroke-width="2" points="1092,-128.196 972,-128.196 972,-124.196 968,-124.196 968,-120.196 972,-120.196 972,-100.196 968,-100.196 968,-96.1956 972,-96.1956 972,-92.1956 1092,-92.1956 1092,-128.196"/>
<polyline fill="none" stroke="black" stroke-width="2" points="972,-124.196 976,-124.196 976,-120.196 972,-120.196 "/>
<polyline fill="none" stroke="black" stroke-width="2" points="972,-100.196 976,-100.196 976,-96.1956 972,-96.1956 "/>
<text text-anchor="middle" x="1032" y="-106.496" font-family="Times,serif" font-size="14.00">loginCache</text>
</g>
<!-- 16&#45;&gt;15 -->
<g id="edge27" class="edge"><title>16&#45;&gt;15</title>
<path fill="none" stroke="black" d="M1573.45,-298.704C1552.5,-265.389 1507.03,-201.538 1450,-171.391 1391.11,-140.264 1205.24,-122.998 1102.31,-115.598"/>
<polygon fill="black" stroke="black" points="1102.54,-112.105 1092.31,-114.892 1102.04,-119.088 1102.54,-112.105"/>
</g>
<!-- 11 -->
<g id="node26" class="node"><title>11</title>
<polygon fill="bisque" stroke="black" stroke-width="2" points="946.5,-227.587 845.5,-227.587 845.5,-191.587 946.5,-191.587 946.5,-227.587"/>
<text text-anchor="middle" x="896" y="-205.887" font-family="Times,serif" font-size="14.00">getUser</text>
</g>
<!-- 16&#45;&gt;11 -->
<g id="edge26" class="edge"><title>16&#45;&gt;11</title>
<path fill="none" stroke="black" d="M1532.83,-300.026C1512.52,-293.299 1488.97,-286.536 1467,-282.744 1354.8,-263.372 1060.67,-305.189 955,-262.783 940.293,-256.881 926.812,-245.628 916.46,-235.077"/>
<polygon fill="black" stroke="black" points="918.879,-232.539 909.503,-227.605 913.756,-237.309 918.879,-232.539"/>
</g>
<!-- 30 -->
<g id="node32" class="node"><title>30</title>
<polygon fill="bisque" stroke="black" stroke-width="2" points="1441,-227.587 1325,-227.587 1325,-191.587 1441,-191.587 1441,-227.587"/>
<text text-anchor="middle" x="1383" y="-205.887" font-family="Times,serif" font-size="14.00">withCache</text>
</g>
<!-- 16&#45;&gt;30 -->
<g id="edge28" class="edge"><title>16&#45;&gt;30</title>
<path fill="none" stroke="black" d="M1546.38,-298.595C1511.11,-279.596 1459.72,-251.912 1424.02,-232.686"/>
<polygon fill="black" stroke="black" points="1425.32,-229.408 1414.86,-227.747 1422,-235.571 1425.32,-229.408"/>
</g>
<!-- 17 -->
<g id="node6" class="node"><title>17</title>
<polygon fill="bisque" stroke="black" stroke-width="2" points="1212.36,-311.664 1212.36,-330.215 1119.6,-343.332 988.404,-343.332 895.638,-330.215 895.638,-311.664 988.404,-298.546 1119.6,-298.546 1212.36,-311.664"/>
<text text-anchor="middle" x="1054" y="-317.239" font-family="Times,serif" font-size="14.00">lookupByRememberToken</text>
</g>
<!-- 27 -->
<g id="node22" class="node"><title>27</title>
<polygon fill="bisque" stroke="black" stroke-width="2" points="688,-128.196 566,-128.196 566,-124.196 562,-124.196 562,-120.196 566,-120.196 566,-100.196 562,-100.196 562,-96.1956 566,-96.1956 566,-92.1956 688,-92.1956 688,-128.196"/>
<polyline fill="none" stroke="black" stroke-width="2" points="566,-124.196 570,-124.196 570,-120.196 566,-120.196 "/>
<polyline fill="none" stroke="black" stroke-width="2" points="566,-100.196 570,-100.196 570,-96.1956 566,-96.1956 "/>
<text text-anchor="middle" x="627" y="-106.496" font-family="Times,serif" font-size="14.00">tokenCache</text>
</g>
<!-- 17&#45;&gt;27 -->
<g id="edge30" class="edge"><title>17&#45;&gt;27</title>
<path fill="none" stroke="black" d="M954.073,-303.345C915.777,-294.556 872.538,-281.565 836,-262.783 779.471,-233.723 782.342,-200.811 726,-171.391 714.148,-165.203 709.01,-169.266 697,-163.391 681.585,-155.851 666.115,-144.773 653.653,-134.76"/>
<polygon fill="black" stroke="black" points="655.868,-132.051 645.929,-128.382 651.411,-137.448 655.868,-132.051"/>
</g>
<!-- 17&#45;&gt;11 -->
<g id="edge29" class="edge"><title>17&#45;&gt;11</title>
<path fill="none" stroke="black" d="M1012.88,-298.625C994.623,-288.557 973.201,-275.885 955,-262.783 943.236,-254.314 931.101,-243.912 920.917,-234.628"/>
<polygon fill="black" stroke="black" points="923.262,-232.029 913.549,-227.797 918.503,-237.162 923.262,-232.029"/>
</g>
<!-- 17&#45;&gt;30 -->
<g id="edge31" class="edge"><title>17&#45;&gt;30</title>
<path fill="none" stroke="black" d="M1117.82,-298.725C1176.82,-279.115 1263.9,-250.174 1321.99,-230.867"/>
<polygon fill="black" stroke="black" points="1323.38,-234.092 1331.76,-227.616 1321.17,-227.449 1323.38,-234.092"/>
</g>
<!-- 18 -->
<g id="node7" class="node"><title>18</title>
<polygon fill="bisque" stroke="black" stroke-width="2" points="1458.08,-311.664 1458.08,-330.215 1391.25,-343.332 1296.75,-343.332 1229.92,-330.215 1229.92,-311.664 1296.75,-298.546 1391.25,-298.546 1458.08,-311.664"/>
<text text-anchor="middle" x="1344" y="-317.239" font-family="Times,serif" font-size="14.00">lookupByUserId</text>
</g>
<!-- 18&#45;&gt;11 -->
<g id="edge32" class="edge"><title>18&#45;&gt;11</title>
<path fill="none" stroke="black" d="M1288,-300.182C1267.2,-293.599 1243.26,-286.893 1221,-282.744 1162.73,-271.882 1009.61,-285.844 955,-262.783 940.503,-256.66 927.118,-245.496 916.774,-235.059"/>
<polygon fill="black" stroke="black" points="919.214,-232.546 909.807,-227.671 914.121,-237.348 919.214,-232.546"/>
</g>
<!-- 18&#45;&gt;30 -->
<g id="edge33" class="edge"><title>18&#45;&gt;30</title>
<path fill="none" stroke="black" d="M1351.61,-298.595C1357.85,-281.104 1366.71,-256.252 1373.43,-237.415"/>
<polygon fill="black" stroke="black" points="1376.76,-238.514 1376.82,-227.92 1370.16,-236.163 1376.76,-238.514"/>
</g>
<!-- 23 -->
<g id="node8" class="node"><title>23</title>
<polygon fill="bisque" stroke="black" stroke-width="2" points="2009.55,-311.664 2009.55,-330.215 1972.32,-343.332 1919.68,-343.332 1882.45,-330.215 1882.45,-311.664 1919.68,-298.546 1972.32,-298.546 2009.55,-311.664"/>
<text text-anchor="middle" x="1946" y="-317.239" font-family="Times,serif" font-size="14.00">save</text>
</g>
<!-- 13 -->
<g id="node28" class="node"><title>13</title>
<polygon fill="bisque" stroke="black" stroke-width="2" points="1459,-579.007 1331,-579.007 1331,-543.007 1459,-543.007 1459,-579.007"/>
<text text-anchor="middle" x="1395" y="-557.307" font-family="Times,serif" font-size="14.00">jsonFileSave</text>
</g>
<!-- 23&#45;&gt;13 -->
<g id="edge41" class="edge"><title>23&#45;&gt;13</title>
<path fill="none" stroke="chartreuse" d="M2009.7,-324.16C2194.87,-331.266 2723.16,-356.383 2774,-413.135 2810.14,-453.478 2811.95,-496.36 2774,-535.007 2750.98,-558.448 1753.3,-560.07 1469.56,-560.056"/>
<polygon fill="chartreuse" stroke="chartreuse" points="1469.37,-556.556 1459.37,-560.055 1469.37,-563.556 1469.37,-556.556"/>
</g>
<!-- 1 -->
<g id="node9" class="node"><title>1</title>
<polygon fill="khaki" stroke="black" points="2364.87,-436.796 2364.87,-464.826 2257.16,-484.645 2104.84,-484.645 1997.13,-464.826 1997.13,-436.796 2104.84,-416.977 2257.16,-416.977 2364.87,-436.796"/>
<polygon fill="none" stroke="black" points="2368.88,-433.447 2368.88,-468.175 2257.53,-488.664 2104.47,-488.664 1993.12,-468.175 1993.12,-433.447 2104.47,-412.958 2257.53,-412.958 2368.88,-433.447"/>
<text text-anchor="middle" x="2181" y="-454.611" font-family="Times,serif" font-size="14.00">Snap.Snaplet.Auth.AuthManager</text>
<text text-anchor="middle" x="2181" y="-439.611" font-family="Times,serif" font-size="14.00">destroy</text>
</g>
<!-- 1&#45;&gt;10 -->
<g id="edge1" class="edge"><title>1&#45;&gt;10</title>
<path fill="none" stroke="navy" d="M2049.27,-423.041C2027.85,-419.3 2005.86,-415.822 1985,-413.135 1960.25,-409.946 1895.72,-415.445 1873,-405.135 1843.47,-391.735 1818.39,-363.185 1803.52,-343.29"/>
</g>
<!-- 2 -->
<g id="node10" class="node"><title>2</title>
<polygon fill="khaki" stroke="black" points="1971.87,-436.796 1971.87,-464.826 1864.16,-484.645 1711.84,-484.645 1604.13,-464.826 1604.13,-436.796 1711.84,-416.977 1864.16,-416.977 1971.87,-436.796"/>
<polygon fill="none" stroke="black" points="1975.88,-433.447 1975.88,-468.175 1864.53,-488.664 1711.47,-488.664 1600.12,-468.175 1600.12,-433.447 1711.47,-412.958 1864.53,-412.958 1975.88,-433.447"/>
<text text-anchor="middle" x="1788" y="-454.611" font-family="Times,serif" font-size="14.00">Snap.Snaplet.Auth.AuthManager</text>
<text text-anchor="middle" x="1788" y="-439.611" font-family="Times,serif" font-size="14.00">lookupByLogin</text>
</g>
<!-- 2&#45;&gt;16 -->
<g id="edge2" class="edge"><title>2&#45;&gt;16</title>
<path fill="none" stroke="navy" d="M1718.37,-413.106C1713.81,-410.466 1709.32,-407.795 1705,-405.135 1673.23,-385.572 1638.42,-360.822 1614.71,-343.422"/>
</g>
<!-- 3 -->
<g id="node11" class="node"><title>3</title>
<polygon fill="khaki" stroke="black" points="1185.87,-436.796 1185.87,-464.826 1078.16,-484.645 925.838,-484.645 818.128,-464.826 818.128,-436.796 925.838,-416.977 1078.16,-416.977 1185.87,-436.796"/>
<polygon fill="none" stroke="black" points="1189.88,-433.447 1189.88,-468.175 1078.53,-488.664 925.474,-488.664 814.124,-468.175 814.124,-433.447 925.474,-412.958 1078.53,-412.958 1189.88,-433.447"/>
<text text-anchor="middle" x="1002" y="-454.611" font-family="Times,serif" font-size="14.00">Snap.Snaplet.Auth.AuthManager</text>
<text text-anchor="middle" x="1002" y="-439.611" font-family="Times,serif" font-size="14.00">lookupByRememberToken</text>
</g>
<!-- 3&#45;&gt;17 -->
<g id="edge3" class="edge"><title>3&#45;&gt;17</title>
<path fill="none" stroke="navy" d="M1017.04,-412.825C1026.22,-390.254 1037.63,-362.199 1045.32,-343.277"/>
</g>
<!-- 4 -->
<g id="node12" class="node"><title>4</title>
<polygon fill="khaki" stroke="black" points="1578.87,-436.796 1578.87,-464.826 1471.16,-484.645 1318.84,-484.645 1211.13,-464.826 1211.13,-436.796 1318.84,-416.977 1471.16,-416.977 1578.87,-436.796"/>
<polygon fill="none" stroke="black" points="1582.88,-433.447 1582.88,-468.175 1471.53,-488.664 1318.47,-488.664 1207.12,-468.175 1207.12,-433.447 1318.47,-412.958 1471.53,-412.958 1582.88,-433.447"/>
<text text-anchor="middle" x="1395" y="-454.611" font-family="Times,serif" font-size="14.00">Snap.Snaplet.Auth.AuthManager</text>
<text text-anchor="middle" x="1395" y="-439.611" font-family="Times,serif" font-size="14.00">lookupByUserId</text>
</g>
<!-- 4&#45;&gt;18 -->
<g id="edge4" class="edge"><title>4&#45;&gt;18</title>
<path fill="none" stroke="navy" d="M1380.25,-412.825C1371.25,-390.254 1360.06,-362.199 1352.51,-343.277"/>
</g>
<!-- 5 -->
<g id="node13" class="node"><title>5</title>
<polygon fill="khaki" stroke="black" points="2757.87,-436.796 2757.87,-464.826 2650.16,-484.645 2497.84,-484.645 2390.13,-464.826 2390.13,-436.796 2497.84,-416.977 2650.16,-416.977 2757.87,-436.796"/>
<polygon fill="none" stroke="black" points="2761.88,-433.447 2761.88,-468.175 2650.53,-488.664 2497.47,-488.664 2386.12,-468.175 2386.12,-433.447 2497.47,-412.958 2650.53,-412.958 2761.88,-433.447"/>
<text text-anchor="middle" x="2574" y="-454.611" font-family="Times,serif" font-size="14.00">Snap.Snaplet.Auth.AuthManager</text>
<text text-anchor="middle" x="2574" y="-439.611" font-family="Times,serif" font-size="14.00">save</text>
</g>
<!-- 5&#45;&gt;23 -->
<g id="edge5" class="edge"><title>5&#45;&gt;23</title>
<path fill="none" stroke="navy" d="M2442.35,-423.005C2306.04,-395.249 2099.56,-353.206 2001.48,-333.237"/>
</g>
<!-- 25 -->
<g id="node14" class="node"><title>25</title>
<polygon fill="bisque" stroke="black" stroke-width="2" points="714.105,-200.311 714.105,-218.862 668.938,-231.98 605.062,-231.98 559.895,-218.862 559.895,-200.311 605.062,-187.194 668.938,-187.194 714.105,-200.311"/>
<text text-anchor="middle" x="637" y="-205.887" font-family="Times,serif" font-size="14.00">toJSON</text>
</g>
<!-- 25&#45;&gt;15 -->
<g id="edge42" class="edge"><title>25&#45;&gt;15</title>
<path fill="none" stroke="black" d="M697.228,-195.359C736.542,-187.213 789.091,-177.242 836,-171.391 863.841,-167.919 935.664,-173.066 962,-163.391 978.692,-157.259 994.784,-145.788 1007.32,-135.157"/>
<polygon fill="black" stroke="black" points="1009.84,-137.602 1015.02,-128.358 1005.21,-132.356 1009.84,-137.602"/>
</g>
<!-- 25&#45;&gt;27 -->
<g id="edge43" class="edge"><title>25&#45;&gt;27</title>
<path fill="none" stroke="black" d="M634.781,-186.973C633.303,-172.584 631.351,-153.571 629.772,-138.19"/>
<polygon fill="black" stroke="black" points="633.252,-137.813 628.748,-128.223 626.288,-138.528 633.252,-137.813"/>
</g>
<!-- 28 -->
<g id="node23" class="node"><title>28</title>
<polygon fill="bisque" stroke="black" stroke-width="2" points="816,-128.196 706,-128.196 706,-124.196 702,-124.196 702,-120.196 706,-120.196 706,-100.196 702,-100.196 702,-96.1956 706,-96.1956 706,-92.1956 816,-92.1956 816,-128.196"/>
<polyline fill="none" stroke="black" stroke-width="2" points="706,-124.196 710,-124.196 710,-120.196 706,-120.196 "/>
<polyline fill="none" stroke="black" stroke-width="2" points="706,-100.196 710,-100.196 710,-96.1956 706,-96.1956 "/>
<text text-anchor="middle" x="761" y="-106.496" font-family="Times,serif" font-size="14.00">uidCache</text>
</g>
<!-- 25&#45;&gt;28 -->
<g id="edge44" class="edge"><title>25&#45;&gt;28</title>
<path fill="none" stroke="black" d="M665.86,-187.201C675.792,-179.747 686.942,-171.276 697,-163.391 708.689,-154.228 721.398,-143.933 732.388,-134.924"/>
<polygon fill="black" stroke="black" points="734.911,-137.38 740.411,-128.325 730.464,-131.974 734.911,-137.38"/>
</g>
<!-- 29 -->
<g id="node24" class="node"><title>29</title>
<polygon fill="bisque" stroke="black" stroke-width="2" points="953.5,-128.196 834.5,-128.196 834.5,-124.196 830.5,-124.196 830.5,-120.196 834.5,-120.196 834.5,-100.196 830.5,-100.196 830.5,-96.1956 834.5,-96.1956 834.5,-92.1956 953.5,-92.1956 953.5,-128.196"/>
<polyline fill="none" stroke="black" stroke-width="2" points="834.5,-124.196 838.5,-124.196 838.5,-120.196 834.5,-120.196 "/>
<polyline fill="none" stroke="black" stroke-width="2" points="834.5,-100.196 838.5,-100.196 838.5,-96.1956 834.5,-96.1956 "/>
<text text-anchor="middle" x="894" y="-106.496" font-family="Times,serif" font-size="14.00">uidCounter</text>
</g>
<!-- 25&#45;&gt;29 -->
<g id="edge45" class="edge"><title>25&#45;&gt;29</title>
<path fill="none" stroke="black" d="M679.108,-189.899C696.41,-182.981 716.847,-175.765 736,-171.391 774.718,-162.549 787.953,-177.702 825,-163.391 841.436,-157.042 857.297,-145.552 869.659,-134.966"/>
<polygon fill="black" stroke="black" points="872.111,-137.469 877.248,-128.203 867.454,-132.243 872.111,-137.469"/>
</g>
<!-- 26 -->
<g id="node15" class="node"><title>26</title>
<polygon fill="bisque" stroke="black" stroke-width="2" points="674.105,-441.535 674.105,-460.086 628.938,-473.204 565.062,-473.204 519.895,-460.086 519.895,-441.535 565.062,-428.418 628.938,-428.418 674.105,-441.535"/>
<text text-anchor="middle" x="597" y="-447.111" font-family="Times,serif" font-size="14.00">toJSON</text>
</g>
<!-- 32 -->
<g id="node16" class="node"><title>32</title>
<polygon fill="khaki" stroke="black" stroke-dasharray="1,5" points="717.858,-306.925 717.858,-334.954 647.061,-354.774 546.939,-354.774 476.142,-334.954 476.142,-306.925 546.939,-287.105 647.061,-287.105 717.858,-306.925"/>
<polygon fill="none" stroke="black" stroke-dasharray="1,5" points="721.856,-303.872 721.856,-338.006 647.607,-358.792 546.393,-358.792 472.144,-338.006 472.144,-303.872 546.393,-283.086 647.607,-283.086 721.856,-303.872"/>
<text text-anchor="middle" x="597" y="-324.739" font-family="Times,serif" font-size="14.00">Unknown Module</text>
<text text-anchor="middle" x="597" y="-309.739" font-family="Times,serif" font-size="14.00">toJSON</text>
</g>
<!-- 26&#45;&gt;32 -->
<g id="edge46" class="edge"><title>26&#45;&gt;32</title>
<path fill="none" stroke="chartreuse" d="M591.808,-428.408C590.38,-412.169 589.934,-389.229 590.469,-368.8"/>
<polygon fill="chartreuse" stroke="chartreuse" points="593.97,-368.821 590.824,-358.705 586.974,-368.575 593.97,-368.821"/>
</g>
<!-- 32&#45;&gt;25 -->
<g id="edge53" class="edge"><title>32&#45;&gt;25</title>
<path fill="none" stroke="navy" d="M610.431,-283.222C616.649,-266.221 623.821,-246.615 629.145,-232.06"/>
</g>
<!-- 32&#45;&gt;26 -->
<g id="edge54" class="edge"><title>32&#45;&gt;26</title>
<path fill="none" stroke="navy" d="M603.176,-358.705C604.189,-381.287 603.861,-409.425 602.192,-428.408"/>
</g>
<!-- 6 -->
<g id="node17" class="node"><title>6</title>
<polygon fill="cyan" stroke="black" stroke-width="2" points="3138.5,-52 2963.5,-52 2959.5,-48 2959.5,-16 3134.5,-16 3138.5,-20 3138.5,-52"/>
<polyline fill="none" stroke="black" stroke-width="2" points="3134.5,-48 2959.5,-48 "/>
<polyline fill="none" stroke="black" stroke-width="2" points="3134.5,-48 3134.5,-16 "/>
<polyline fill="none" stroke="black" stroke-width="2" points="3134.5,-48 3138.5,-52 "/>
<text text-anchor="middle" x="3049" y="-30.3" font-family="Times,serif" font-size="14.00">JsonFileAuthManager</text>
</g>
<!-- 8 -->
<g id="node18" class="node"><title>8</title>
<polygon fill="bisque" stroke="black" stroke-width="2" points="3139,-128.196 3049,-128.196 3049,-124.196 3045,-124.196 3045,-120.196 3049,-120.196 3049,-100.196 3045,-100.196 3045,-96.1956 3049,-96.1956 3049,-92.1956 3139,-92.1956 3139,-128.196"/>
<polyline fill="none" stroke="black" stroke-width="2" points="3049,-124.196 3053,-124.196 3053,-120.196 3049,-120.196 "/>
<polyline fill="none" stroke="black" stroke-width="2" points="3049,-100.196 3053,-100.196 3053,-96.1956 3049,-96.1956 "/>
<text text-anchor="middle" x="3094" y="-106.496" font-family="Times,serif" font-size="14.00">dbfile</text>
</g>
<!-- 8&#45;&gt;6 -->
<g id="edge6" class="edge"><title>8&#45;&gt;6</title>
<path fill="none" stroke="magenta" d="M3083.56,-91.9872C3077.94,-82.7164 3070.89,-71.0928 3064.63,-60.7654"/>
<polygon fill="magenta" stroke="magenta" points="3059.38,-52.1151 3068.41,-58.3318 3061.97,-56.3903 3064.57,-60.6654 3064.57,-60.6654 3064.57,-60.6654 3061.97,-56.3903 3060.72,-62.9991 3059.38,-52.1151 3059.38,-52.1151"/>
</g>
<!-- 19 -->
<g id="node19" class="node"><title>19</title>
<polygon fill="bisque" stroke="black" stroke-width="2" points="3031,-128.196 2913,-128.196 2913,-124.196 2909,-124.196 2909,-120.196 2913,-120.196 2913,-100.196 2909,-100.196 2909,-96.1956 2913,-96.1956 2913,-92.1956 3031,-92.1956 3031,-128.196"/>
<polyline fill="none" stroke="black" stroke-width="2" points="2913,-124.196 2917,-124.196 2917,-120.196 2913,-120.196 "/>
<polyline fill="none" stroke="black" stroke-width="2" points="2913,-100.196 2917,-100.196 2917,-96.1956 2913,-96.1956 "/>
<text text-anchor="middle" x="2972" y="-106.496" font-family="Times,serif" font-size="14.00">memcache</text>
</g>
<!-- 19&#45;&gt;6 -->
<g id="edge34" class="edge"><title>19&#45;&gt;6</title>
<path fill="none" stroke="magenta" d="M2989.86,-91.9872C2999.97,-82.2482 3012.77,-69.9127 3023.87,-59.211"/>
<polygon fill="magenta" stroke="magenta" points="3031.24,-52.1151 3027.16,-62.2943 3027.64,-55.5845 3024.04,-59.0539 3024.04,-59.0539 3024.04,-59.0539 3027.64,-55.5845 3020.91,-55.8134 3031.24,-52.1151 3031.24,-52.1151"/>
</g>
<!-- 15&#45;&gt;7 -->
<g id="edge25" class="edge"><title>15&#45;&gt;7</title>
<path fill="none" stroke="magenta" d="M1003.39,-92.1517C990.972,-85.2395 976.07,-77.5864 962,-72 940.944,-63.6397 917.322,-56.4618 895.794,-50.7138"/>
<polygon fill="magenta" stroke="magenta" points="886.067,-48.1743 896.879,-46.3464 890.904,-49.4374 895.742,-50.7005 895.742,-50.7005 895.742,-50.7005 890.904,-49.4374 894.606,-55.0545 886.067,-48.1743 886.067,-48.1743"/>
</g>
<!-- 27&#45;&gt;7 -->
<g id="edge47" class="edge"><title>27&#45;&gt;7</title>
<path fill="none" stroke="magenta" d="M655.972,-92.0304C668.33,-85.1787 683.086,-77.6037 697,-72 716.454,-64.1653 738.17,-57.2914 758.197,-51.6623"/>
<polygon fill="magenta" stroke="magenta" points="767.875,-49.0001 759.426,-55.9912 763.054,-50.3262 758.233,-51.6523 758.233,-51.6523 758.233,-51.6523 763.054,-50.3262 757.039,-47.3134 767.875,-49.0001 767.875,-49.0001"/>
</g>
<!-- 28&#45;&gt;7 -->
<g id="edge48" class="edge"><title>28&#45;&gt;7</title>
<path fill="none" stroke="magenta" d="M776.308,-91.9872C784.804,-82.4354 795.523,-70.3862 804.913,-59.8302"/>
<polygon fill="magenta" stroke="magenta" points="811.775,-52.1151 808.491,-62.5777 808.452,-55.851 805.129,-59.5868 805.129,-59.5868 805.129,-59.5868 808.452,-55.851 801.767,-56.596 811.775,-52.1151 811.775,-52.1151"/>
</g>
<!-- 29&#45;&gt;7 -->
<g id="edge49" class="edge"><title>29&#45;&gt;7</title>
<path fill="none" stroke="magenta" d="M878.46,-91.9872C869.835,-82.4354 858.954,-70.3862 849.422,-59.8302"/>
<polygon fill="magenta" stroke="magenta" points="842.455,-52.1151 852.497,-56.521 845.806,-55.826 849.157,-59.537 849.157,-59.537 849.157,-59.537 845.806,-55.826 845.818,-62.5529 842.455,-52.1151 842.455,-52.1151"/>
</g>
<!-- 9 -->
<g id="node25" class="node"><title>9</title>
<polygon fill="bisque" stroke="black" stroke-width="2" points="1099.5,-227.587 964.5,-227.587 964.5,-191.587 1099.5,-191.587 1099.5,-227.587"/>
<text text-anchor="middle" x="1032" y="-205.887" font-family="Times,serif" font-size="14.00">defUserCache</text>
</g>
<!-- 9&#45;&gt;7 -->
<g id="edge7" class="edge"><title>9&#45;&gt;7</title>
<path fill="none" stroke="black" d="M1072.23,-191.424C1083.6,-184.473 1094.6,-175.234 1101,-163.391 1120.31,-127.657 1127.73,-102.583 1101,-72 1074.96,-42.2028 968.788,-35.4404 896.517,-34.4012"/>
<polygon fill="black" stroke="black" points="896.151,-30.897 886.113,-34.2873 896.074,-37.8966 896.151,-30.897"/>
</g>
<!-- 9&#45;&gt;15 -->
<g id="edge8" class="edge"><title>9&#45;&gt;15</title>
<path fill="none" stroke="black" d="M1032,-191.175C1032,-176.634 1032,-155.637 1032,-138.806"/>
<polygon fill="black" stroke="black" points="1035.5,-138.456 1032,-128.457 1028.5,-138.457 1035.5,-138.456"/>
</g>
<!-- 9&#45;&gt;27 -->
<g id="edge9" class="edge"><title>9&#45;&gt;27</title>
<path fill="none" stroke="black" d="M1003.83,-191.452C989.703,-183.793 972.014,-175.564 955,-171.391 899.29,-157.729 751.156,-182.296 697,-163.391 680.094,-157.49 663.885,-145.921 651.33,-135.172"/>
<polygon fill="black" stroke="black" points="653.425,-132.35 643.637,-128.294 648.76,-137.569 653.425,-132.35"/>
</g>
<!-- 9&#45;&gt;28 -->
<g id="edge10" class="edge"><title>9&#45;&gt;28</title>
<path fill="none" stroke="black" d="M1003.41,-191.484C989.333,-183.932 971.805,-175.785 955,-171.391 926.998,-164.07 851.955,-173.933 825,-163.391 809.486,-157.324 794.871,-146.012 783.535,-135.466"/>
<polygon fill="black" stroke="black" points="785.845,-132.831 776.24,-128.362 780.962,-137.846 785.845,-132.831"/>
</g>
<!-- 9&#45;&gt;29 -->
<g id="edge11" class="edge"><title>9&#45;&gt;29</title>
<path fill="none" stroke="black" d="M1004.85,-191.404C992.02,-183.135 976.58,-172.958 963,-163.391 949.93,-154.183 935.801,-143.609 923.752,-134.397"/>
<polygon fill="black" stroke="black" points="925.843,-131.59 915.782,-128.27 921.577,-137.14 925.843,-131.59"/>
</g>
<!-- 11&#45;&gt;28 -->
<g id="edge12" class="edge"><title>11&#45;&gt;28</title>
<path fill="none" stroke="black" d="M867.508,-191.512C854.333,-183.35 838.622,-173.23 825,-163.391 812.654,-154.474 799.535,-143.971 788.41,-134.733"/>
<polygon fill="black" stroke="black" points="790.614,-132.013 780.702,-128.271 786.116,-137.377 790.614,-132.013"/>
</g>
<!-- 12 -->
<g id="node27" class="node"><title>12</title>
<polygon fill="gold" stroke="black" stroke-width="2" points="3266.5,-579.007 3069.5,-579.007 3069.5,-543.007 3266.5,-543.007 3266.5,-579.007"/>
<text text-anchor="middle" x="3168" y="-557.307" font-family="Times,serif" font-size="14.00">initJsonFileAuthManager</text>
</g>
<!-- 20 -->
<g id="node30" class="node"><title>20</title>
<polygon fill="goldenrod" stroke="black" stroke-width="2" points="3244,-468.811 3092,-468.811 3092,-432.811 3244,-432.811 3244,-468.811"/>
<text text-anchor="middle" x="3168" y="-447.111" font-family="Times,serif" font-size="14.00">mkJsonAuthMgr</text>
</g>
<!-- 12&#45;&gt;20 -->
<g id="edge13" class="edge"><title>12&#45;&gt;20</title>
<path fill="none" stroke="chartreuse" d="M3168,-542.623C3168,-525.509 3168,-499.112 3168,-479.18"/>
<polygon fill="chartreuse" stroke="chartreuse" points="3171.5,-479.151 3168,-469.151 3164.5,-479.151 3171.5,-479.151"/>
</g>
<!-- 13&#45;&gt;2 -->
<g id="edge14" class="edge"><title>13&#45;&gt;2</title>
<path fill="none" stroke="black" d="M1459.3,-556.332C1498.22,-553.006 1548.57,-546.739 1592,-535.007 1630.33,-524.653 1671,-508.343 1705.29,-492.898"/>
<polygon fill="black" stroke="black" points="1707.14,-495.902 1714.79,-488.57 1704.24,-489.532 1707.14,-495.902"/>
</g>
<!-- 13&#45;&gt;4 -->
<g id="edge15" class="edge"><title>13&#45;&gt;4</title>
<path fill="none" stroke="black" d="M1395,-542.623C1395,-530.765 1395,-514.45 1395,-498.917"/>
<polygon fill="black" stroke="black" points="1398.5,-498.878 1395,-488.878 1391.5,-498.878 1398.5,-498.878"/>
</g>
<!-- 13&#45;&gt;8 -->
<g id="edge16" class="edge"><title>13&#45;&gt;8</title>
<path fill="none" stroke="black" d="M1459.21,-560.007C1734.07,-559.867 2800.51,-557.85 2868,-535.007 2960.08,-503.842 2993.04,-487.921 3044,-405.135 3096.93,-319.148 3098.23,-193.542 3095.85,-138.616"/>
<polygon fill="black" stroke="black" points="3099.33,-138.114 3095.32,-128.306 3092.34,-138.473 3099.33,-138.114"/>
</g>
<!-- 13&#45;&gt;19 -->
<g id="edge19" class="edge"><title>13&#45;&gt;19</title>
<path fill="none" stroke="black" stroke-width="1.69315" d="M1459.05,-559.965C1734.19,-559.654 2803.14,-557.026 2830,-535.007 2918.74,-462.249 2846.51,-390.848 2885,-282.744 2904.16,-228.913 2936.58,-170.403 2955.97,-137.518"/>
<polygon fill="black" stroke="black" stroke-width="1.69315" points="2959.19,-138.941 2961.3,-128.558 2953.18,-135.359 2959.19,-138.941"/>
</g>
<!-- 13&#45;&gt;15 -->
<g id="edge18" class="edge"><title>13&#45;&gt;15</title>
<path fill="none" stroke="black" stroke-width="2.79176" d="M1459.29,-560.079C1731.74,-560.236 2778.18,-559.256 2802,-535.007 2839.96,-496.367 2836.59,-454.816 2802,-413.135 2580.29,-145.984 1404.5,-115.138 1102.67,-111.633"/>
<polygon fill="black" stroke="black" stroke-width="2.79176" points="1102.34,-108.129 1092.3,-111.519 1102.26,-115.129 1102.34,-108.129"/>
</g>
<!-- 13&#45;&gt;27 -->
<g id="edge21" class="edge"><title>13&#45;&gt;27</title>
<path fill="none" stroke="black" stroke-width="2.60944" d="M1330.65,-559.73C1099.81,-558.584 325.955,-553.38 308,-535.007 229.623,-454.806 269.377,-386.05 313,-282.744 339.58,-219.797 360.601,-206.864 419,-171.391 460.792,-146.006 513.813,-130.877 555.863,-122.135"/>
<polygon fill="black" stroke="black" stroke-width="2.60944" points="556.635,-125.55 565.753,-120.154 555.26,-118.686 556.635,-125.55"/>
</g>
<!-- 13&#45;&gt;28 -->
<g id="edge22" class="edge"><title>13&#45;&gt;28</title>
<path fill="none" stroke="black" stroke-width="2.38629" d="M1330.89,-559.668C1106.37,-558.33 368.178,-552.601 351,-535.007 208.953,-389.517 481.412,-205.244 548,-171.391 577.558,-156.364 666.072,-175.348 697,-163.391 712.538,-157.384 727.155,-146.078 738.487,-135.521"/>
<polygon fill="black" stroke="black" stroke-width="2.38629" points="741.065,-137.895 745.777,-128.406 736.176,-132.885 741.065,-137.895"/>
</g>
<!-- 13&#45;&gt;29 -->
<g id="edge23" class="edge"><title>13&#45;&gt;29</title>
<path fill="none" stroke="black" stroke-width="2.38629" d="M1330.86,-559.813C1174.92,-559.029 787.272,-555.062 768,-535.007 690.278,-454.124 745.243,-390.618 776,-282.744 791.414,-228.681 802.856,-216.799 836,-171.391 845.295,-158.657 857.145,-145.891 867.709,-135.413"/>
<polygon fill="black" stroke="black" stroke-width="2.38629" points="870.38,-137.698 875.118,-128.221 865.505,-132.675 870.38,-137.698"/>
</g>
<!-- 13&#45;&gt;11 -->
<g id="edge17" class="edge"><title>13&#45;&gt;11</title>
<path fill="none" stroke="black" d="M1330.77,-559.656C1181.03,-558.524 820.062,-553.846 802,-535.007 719.638,-449.099 826.948,-295.502 874.956,-235.537"/>
<polygon fill="black" stroke="black" points="877.722,-237.682 881.31,-227.714 872.289,-233.269 877.722,-237.682"/>
</g>
<!-- 24 -->
<g id="node31" class="node"><title>24</title>
<polygon fill="cyan" stroke="black" stroke-width="2" points="455.5,-468.811 360.5,-468.811 360.5,-432.811 455.5,-432.811 455.5,-468.811"/>
<text text-anchor="middle" x="408" y="-447.111" font-family="Times,serif" font-size="14.00">showT</text>
</g>
<!-- 13&#45;&gt;24 -->
<g id="edge20" class="edge"><title>13&#45;&gt;24</title>
<path fill="none" stroke="black" stroke-width="1.69315" d="M1330.88,-559.346C1133.56,-557.163 546.327,-549.479 508,-535.007 476.292,-523.034 447.393,-496.506 428.907,-476.604"/>
<polygon fill="black" stroke="black" stroke-width="1.69315" points="431.412,-474.156 422.114,-469.078 426.216,-478.846 431.412,-474.156"/>
</g>
<!-- 14 -->
<g id="node29" class="node"><title>14</title>
<polygon fill="bisque" stroke="black" stroke-width="2" points="3035.5,-338.939 2894.5,-338.939 2894.5,-302.939 3035.5,-302.939 3035.5,-338.939"/>
<text text-anchor="middle" x="2965" y="-317.239" font-family="Times,serif" font-size="14.00">loadUserCache</text>
</g>
<!-- 14&#45;&gt;9 -->
<g id="edge24" class="edge"><title>14&#45;&gt;9</title>
<path fill="none" stroke="chartreuse" d="M2894.33,-316.882C2737.42,-310.153 2348.06,-293.783 2022,-282.744 1708.28,-272.122 1628.17,-295.686 1316,-262.783 1245.57,-255.359 1166.39,-240.234 1109.56,-228.168"/>
<polygon fill="chartreuse" stroke="chartreuse" points="1110.08,-224.701 1099.57,-226.03 1108.62,-231.546 1110.08,-224.701"/>
</g>
<!-- 20&#45;&gt;6 -->
<g id="edge35" class="edge"><title>20&#45;&gt;6</title>
<path fill="none" stroke="black" d="M3173.07,-432.591C3188.94,-374.901 3231.77,-185.692 3148,-72 3143.83,-66.3428 3138.7,-61.5502 3132.97,-57.4901"/>
<polygon fill="black" stroke="black" points="3134.56,-54.3536 3124.22,-52.0503 3130.86,-60.2998 3134.56,-54.3536"/>
</g>
<!-- 20&#45;&gt;8 -->
<g id="edge36" class="edge"><title>20&#45;&gt;8</title>
<path fill="none" stroke="black" d="M3164.23,-432.553C3152.18,-377.416 3114.55,-205.213 3099.91,-138.231"/>
<polygon fill="black" stroke="black" points="3103.32,-137.441 3097.76,-128.418 3096.48,-138.935 3103.32,-137.441"/>
</g>
<!-- 20&#45;&gt;19 -->
<g id="edge38" class="edge"><title>20&#45;&gt;19</title>
<path fill="none" stroke="black" d="M3151.47,-432.739C3144.13,-424.711 3135.67,-414.795 3129,-405.135 3064.94,-312.317 3007.4,-190.418 2983.6,-137.546"/>
<polygon fill="black" stroke="black" points="2986.7,-135.911 2979.43,-128.21 2980.31,-138.768 2986.7,-135.911"/>
</g>
<!-- 20&#45;&gt;14 -->
<g id="edge37" class="edge"><title>20&#45;&gt;14</title>
<path fill="none" stroke="black" d="M3135.72,-432.601C3120.99,-424.544 3103.44,-414.645 3088,-405.135 3056.58,-385.786 3021.85,-362.067 2997.33,-344.913"/>
<polygon fill="black" stroke="black" points="2999.3,-342.02 2989.1,-339.137 2995.27,-347.749 2999.3,-342.02"/>
</g>
<!-- 30&#45;&gt;19 -->
<g id="edge50" class="edge"><title>30&#45;&gt;19</title>
<path fill="none" stroke="black" d="M1441.44,-205.005C1687.18,-189.944 2636.27,-131.773 2902.31,-115.467"/>
<polygon fill="black" stroke="black" points="2902.84,-118.941 2912.61,-114.836 2902.41,-111.954 2902.84,-118.941"/>
</g>
</g>
</svg>
