<?xml version="1.0" encoding="UTF-8" standalone="no"?>
<!DOCTYPE svg PUBLIC "-//W3C//DTD SVG 1.1//EN"
 "http://www.w3.org/Graphics/SVG/1.1/DTD/svg11.dtd">
<!-- Generated by graphviz version 2.38.0 (20140413.2041)
 -->
<!-- Title: Diagram of: Snap.Snaplet.Heist Pages: 1 -->
<svg width="3081pt" height="151pt"
 viewBox="0.00 0.00 3080.50 151.39" xmlns="http://www.w3.org/2000/svg" xmlns:xlink="http://www.w3.org/1999/xlink">
<g id="graph0" class="graph" transform="scale(1 1) rotate(0) translate(4 147.391)">
<title>Diagram of: Snap.Snaplet.Heist</title>
<polygon fill="white" stroke="none" points="-4,4 -4,-147.391 3076.5,-147.391 3076.5,4 -4,4"/>
<g id="clust1" class="cluster"><title>cluster_Class_HasHeist</title>
<path fill="#ffc1c1" stroke="black" d="M1462.5,-8C1462.5,-8 1630.5,-8 1630.5,-8 1636.5,-8 1642.5,-14 1642.5,-20 1642.5,-20 1642.5,-87.3913 1642.5,-87.3913 1642.5,-93.3913 1636.5,-99.3913 1630.5,-99.3913 1630.5,-99.3913 1462.5,-99.3913 1462.5,-99.3913 1456.5,-99.3913 1450.5,-93.3913 1450.5,-87.3913 1450.5,-87.3913 1450.5,-20 1450.5,-20 1450.5,-14 1456.5,-8 1462.5,-8"/>
<text text-anchor="middle" x="1546.5" y="-84.1913" font-family="Times,serif" font-size="14.00">Class: HasHeist</text>
</g>
<!-- 13 -->
<g id="node1" class="node"><title>13</title>
<polygon fill="goldenrod" stroke="black" stroke-width="2" points="1630.87,-32.9327 1630.87,-51.4586 1581.45,-64.5583 1511.55,-64.5583 1462.13,-51.4586 1462.13,-32.9327 1511.55,-19.833 1581.45,-19.833 1630.87,-32.9327"/>
<polygon fill="none" stroke="black" stroke-width="2" points="1634.88,-29.8274 1634.88,-54.5639 1581.97,-68.5884 1511.03,-68.5884 1458.12,-54.5639 1458.12,-29.8274 1511.03,-15.8029 1581.97,-15.8029 1634.88,-29.8274"/>
<text text-anchor="middle" x="1546.5" y="-38.4956" font-family="Times,serif" font-size="14.00">heistLens</text>
</g>
<!-- 1 -->
<g id="node2" class="node"><title>1</title>
<polygon fill="gold" stroke="black" stroke-width="2" points="135,-143.391 0,-143.391 0,-107.391 135,-107.391 135,-143.391"/>
<text text-anchor="middle" x="67.5" y="-121.691" font-family="Times,serif" font-size="14.00">addTemplates</text>
</g>
<!-- 1&#45;&gt;13 -->
<g id="edge1" class="edge"><title>1&#45;&gt;13</title>
<path fill="none" stroke="black" d="M135.347,-108.6C138.094,-108.156 140.82,-107.75 143.5,-107.391 396.132,-73.6193 1171.82,-52.194 1447.78,-45.4726"/>
<polygon fill="black" stroke="black" points="1448.26,-48.962 1458.17,-45.2206 1448.09,-41.9641 1448.26,-48.962"/>
</g>
<!-- 2 -->
<g id="node3" class="node"><title>2</title>
<polygon fill="gold" stroke="black" stroke-width="2" points="302,-143.391 153,-143.391 153,-107.391 302,-107.391 302,-143.391"/>
<text text-anchor="middle" x="227.5" y="-121.691" font-family="Times,serif" font-size="14.00">addTemplatesAt</text>
</g>
<!-- 2&#45;&gt;13 -->
<g id="edge2" class="edge"><title>2&#45;&gt;13</title>
<path fill="none" stroke="black" d="M302.068,-108.568C304.91,-108.14 307.728,-107.745 310.5,-107.391 731.228,-53.6875 1237.99,-44.6349 1447.97,-43.3048"/>
<polygon fill="black" stroke="black" points="1448.07,-46.8044 1458.05,-43.2455 1448.03,-39.8045 1448.07,-46.8044"/>
</g>
<!-- 3 -->
<g id="node4" class="node"><title>3</title>
<polygon fill="gold" stroke="black" stroke-width="2" points="443.5,-143.391 319.5,-143.391 319.5,-107.391 443.5,-107.391 443.5,-143.391"/>
<text text-anchor="middle" x="381.5" y="-121.691" font-family="Times,serif" font-size="14.00">cHeistServe</text>
</g>
<!-- 3&#45;&gt;13 -->
<g id="edge3" class="edge"><title>3&#45;&gt;13</title>
<path fill="none" stroke="black" d="M443.717,-108.838C446.677,-108.305 449.616,-107.818 452.5,-107.391 816.757,-53.5262 1255.52,-44.4151 1447.95,-43.1757"/>
<polygon fill="black" stroke="black" points="1448.06,-46.6752 1458.04,-43.1165 1448.02,-39.6753 1448.06,-46.6752"/>
</g>
<!-- 4 -->
<g id="node5" class="node"><title>4</title>
<polygon fill="gold" stroke="black" stroke-width="2" points="619.5,-143.391 461.5,-143.391 461.5,-107.391 619.5,-107.391 619.5,-143.391"/>
<text text-anchor="middle" x="540.5" y="-121.691" font-family="Times,serif" font-size="14.00">cHeistServeSingle</text>
</g>
<!-- 4&#45;&gt;13 -->
<g id="edge4" class="edge"><title>4&#45;&gt;13</title>
<path fill="none" stroke="black" d="M619.581,-108.646C622.588,-108.196 625.569,-107.775 628.5,-107.391 925.393,-68.4786 1279.61,-52.1346 1448.08,-46.1705"/>
<polygon fill="black" stroke="black" points="1448.3,-49.6651 1458.17,-45.8179 1448.05,-42.6694 1448.3,-49.6651"/>
</g>
<!-- 5 -->
<g id="node6" class="node"><title>5</title>
<polygon fill="gold" stroke="black" stroke-width="2" points="741.5,-143.391 637.5,-143.391 637.5,-107.391 741.5,-107.391 741.5,-143.391"/>
<text text-anchor="middle" x="689.5" y="-121.691" font-family="Times,serif" font-size="14.00">cRender</text>
</g>
<!-- 5&#45;&gt;13 -->
<g id="edge5" class="edge"><title>5&#45;&gt;13</title>
<path fill="none" stroke="black" d="M741.592,-109.167C744.593,-108.511 747.578,-107.911 750.5,-107.391 999.018,-63.1608 1296.66,-49.3733 1447.86,-45.0986"/>
<polygon fill="black" stroke="black" points="1448.14,-48.5922 1458.04,-44.8188 1447.95,-41.5948 1448.14,-48.5922"/>
</g>
<!-- 6 -->
<g id="node7" class="node"><title>6</title>
<polygon fill="gold" stroke="black" stroke-width="2" points="879,-143.391 760,-143.391 760,-107.391 879,-107.391 879,-143.391"/>
<text text-anchor="middle" x="819.5" y="-121.691" font-family="Times,serif" font-size="14.00">cRenderAs</text>
</g>
<!-- 6&#45;&gt;13 -->
<g id="edge6" class="edge"><title>6&#45;&gt;13</title>
<path fill="none" stroke="black" d="M879.228,-109.116C882.355,-108.492 885.46,-107.911 888.5,-107.391 1085.4,-73.7121 1318.69,-56.1559 1447.89,-48.3664"/>
<polygon fill="black" stroke="black" points="1448.38,-51.8435 1458.16,-47.7549 1447.97,-44.8558 1448.38,-51.8435"/>
</g>
<!-- 7 -->
<g id="node8" class="node"><title>7</title>
<polygon fill="gold" stroke="black" stroke-width="2" points="1025.5,-143.391 897.5,-143.391 897.5,-107.391 1025.5,-107.391 1025.5,-143.391"/>
<text text-anchor="middle" x="961.5" y="-121.691" font-family="Times,serif" font-size="14.00">chooseMode</text>
</g>
<!-- 7&#45;&gt;13 -->
<g id="edge7" class="edge"><title>7&#45;&gt;13</title>
<path fill="none" stroke="black" d="M1025.52,-109.086C1028.55,-108.487 1031.55,-107.918 1034.5,-107.391 1177.46,-81.8551 1344.66,-62.9189 1448.08,-52.4631"/>
<polygon fill="black" stroke="black" points="1448.6,-55.929 1458.2,-51.4469 1447.9,-48.964 1448.6,-55.929"/>
</g>
<!-- 8 -->
<g id="node9" class="node"><title>8</title>
<polygon fill="gold" stroke="black" stroke-width="2" points="1169,-143.391 1044,-143.391 1044,-107.391 1169,-107.391 1169,-143.391"/>
<text text-anchor="middle" x="1106.5" y="-121.691" font-family="Times,serif" font-size="14.00">gHeistServe</text>
</g>
<!-- 8&#45;&gt;13 -->
<g id="edge8" class="edge"><title>8&#45;&gt;13</title>
<path fill="none" stroke="black" d="M1169.17,-109.16C1171.98,-108.548 1174.77,-107.955 1177.5,-107.391 1270.86,-88.1133 1378.31,-69.862 1453.09,-57.7838"/>
<polygon fill="black" stroke="black" points="1454.1,-61.1658 1463.42,-56.121 1452.99,-54.2547 1454.1,-61.1658"/>
</g>
<!-- 9 -->
<g id="node10" class="node"><title>9</title>
<polygon fill="gold" stroke="black" stroke-width="2" points="1346,-143.391 1187,-143.391 1187,-107.391 1346,-107.391 1346,-143.391"/>
<text text-anchor="middle" x="1266.5" y="-121.691" font-family="Times,serif" font-size="14.00">gHeistServeSingle</text>
</g>
<!-- 9&#45;&gt;13 -->
<g id="edge9" class="edge"><title>9&#45;&gt;13</title>
<path fill="none" stroke="black" d="M1325.2,-107.37C1368.46,-94.8233 1427.59,-77.679 1473.84,-64.2669"/>
<polygon fill="black" stroke="black" points="1474.87,-67.6113 1483.5,-61.4646 1472.92,-60.8882 1474.87,-67.6113"/>
</g>
<!-- 10 -->
<g id="node11" class="node"><title>10</title>
<polygon fill="gold" stroke="black" stroke-width="2" points="1468.5,-143.391 1364.5,-143.391 1364.5,-107.391 1468.5,-107.391 1468.5,-143.391"/>
<text text-anchor="middle" x="1416.5" y="-121.691" font-family="Times,serif" font-size="14.00">gRender</text>
</g>
<!-- 10&#45;&gt;13 -->
<g id="edge10" class="edge"><title>10&#45;&gt;13</title>
<path fill="none" stroke="black" d="M1443.75,-107.37C1459.56,-97.4945 1479.94,-84.7706 1498.36,-73.2602"/>
<polygon fill="black" stroke="black" points="1500.32,-76.165 1506.95,-67.8989 1496.61,-70.2279 1500.32,-76.165"/>
</g>
<!-- 11 -->
<g id="node12" class="node"><title>11</title>
<polygon fill="gold" stroke="black" stroke-width="2" points="1606,-143.391 1487,-143.391 1487,-107.391 1606,-107.391 1606,-143.391"/>
<text text-anchor="middle" x="1546.5" y="-121.691" font-family="Times,serif" font-size="14.00">gRenderAs</text>
</g>
<!-- 11&#45;&gt;13 -->
<g id="edge11" class="edge"><title>11&#45;&gt;13</title>
<path fill="none" stroke="black" d="M1546.5,-107.172C1546.5,-98.8107 1546.5,-88.4429 1546.5,-78.5051"/>
<polygon fill="black" stroke="black" points="1550,-78.4066 1546.5,-68.4067 1543,-78.4067 1550,-78.4066"/>
</g>
<!-- 12 -->
<g id="node13" class="node"><title>12</title>
<polygon fill="gold" stroke="black" stroke-width="2" points="1755,-143.391 1624,-143.391 1624,-107.391 1755,-107.391 1755,-143.391"/>
<text text-anchor="middle" x="1689.5" y="-121.691" font-family="Times,serif" font-size="14.00">getHeistState</text>
</g>
<!-- 12&#45;&gt;13 -->
<g id="edge12" class="edge"><title>12&#45;&gt;13</title>
<path fill="none" stroke="black" d="M1659.52,-107.37C1641.46,-97.1163 1618,-83.7918 1597.13,-71.9434"/>
<polygon fill="black" stroke="black" points="1598.79,-68.8631 1588.37,-66.9691 1595.34,-74.9503 1598.79,-68.8631"/>
</g>
<!-- 14 -->
<g id="node14" class="node"><title>14</title>
<polygon fill="gold" stroke="black" stroke-width="2" points="1888,-143.391 1773,-143.391 1773,-107.391 1888,-107.391 1888,-143.391"/>
<text text-anchor="middle" x="1830.5" y="-121.691" font-family="Times,serif" font-size="14.00">heistLocal</text>
</g>
<!-- 14&#45;&gt;13 -->
<g id="edge13" class="edge"><title>14&#45;&gt;13</title>
<path fill="none" stroke="black" d="M1772.69,-107.862C1728.38,-95.1955 1666.96,-77.6362 1619.31,-64.0113"/>
<polygon fill="black" stroke="black" points="1620.24,-60.6379 1609.66,-61.2542 1618.32,-67.3683 1620.24,-60.6379"/>
</g>
<!-- 15 -->
<g id="node15" class="node"><title>15</title>
<polygon fill="gold" stroke="black" stroke-width="2" points="2021,-143.391 1906,-143.391 1906,-107.391 2021,-107.391 2021,-143.391"/>
<text text-anchor="middle" x="1963.5" y="-121.691" font-family="Times,serif" font-size="14.00">heistServe</text>
</g>
<!-- 15&#45;&gt;13 -->
<g id="edge14" class="edge"><title>15&#45;&gt;13</title>
<path fill="none" stroke="black" d="M1905.96,-109.314C1903.11,-108.646 1900.27,-108.001 1897.5,-107.391 1809.99,-88.1445 1709.32,-70.1542 1638.3,-58.1443"/>
<polygon fill="black" stroke="black" points="1638.48,-54.626 1628.04,-56.4163 1637.32,-61.5288 1638.48,-54.626"/>
</g>
<!-- 16 -->
<g id="node16" class="node"><title>16</title>
<polygon fill="gold" stroke="black" stroke-width="2" points="2188,-143.391 2039,-143.391 2039,-107.391 2188,-107.391 2188,-143.391"/>
<text text-anchor="middle" x="2113.5" y="-121.691" font-family="Times,serif" font-size="14.00">heistServeSingle</text>
</g>
<!-- 16&#45;&gt;13 -->
<g id="edge15" class="edge"><title>16&#45;&gt;13</title>
<path fill="none" stroke="black" d="M2038.89,-108.852C2036.06,-108.345 2033.26,-107.856 2030.5,-107.391 1897.7,-85.013 1743.32,-65.6855 1645.29,-54.2414"/>
<polygon fill="black" stroke="black" points="1645.44,-50.7348 1635.1,-53.0562 1644.63,-57.6879 1645.44,-50.7348"/>
</g>
<!-- 17 -->
<g id="node17" class="node"><title>17</title>
<polygon fill="gold" stroke="black" stroke-width="2" points="2360.5,-143.391 2206.5,-143.391 2206.5,-107.391 2360.5,-107.391 2360.5,-143.391"/>
<text text-anchor="middle" x="2283.5" y="-121.691" font-family="Times,serif" font-size="14.00">modifyHeistState</text>
</g>
<!-- 17&#45;&gt;13 -->
<g id="edge16" class="edge"><title>17&#45;&gt;13</title>
<path fill="none" stroke="black" d="M2206.21,-108.745C2203.27,-108.268 2200.36,-107.814 2197.5,-107.391 2002.52,-78.5754 1772.71,-59.3262 1644.91,-49.9161"/>
<polygon fill="black" stroke="black" points="1644.98,-46.4121 1634.75,-49.1732 1644.47,-53.3935 1644.98,-46.4121"/>
</g>
<!-- 18 -->
<g id="node18" class="node"><title>18</title>
<polygon fill="gold" stroke="black" stroke-width="2" points="2472,-143.391 2379,-143.391 2379,-107.391 2472,-107.391 2472,-143.391"/>
<text text-anchor="middle" x="2425.5" y="-121.691" font-family="Times,serif" font-size="14.00">render</text>
</g>
<!-- 18&#45;&gt;13 -->
<g id="edge17" class="edge"><title>18&#45;&gt;13</title>
<path fill="none" stroke="black" d="M2378.94,-109.431C2375.76,-108.666 2372.6,-107.975 2369.5,-107.391 2111.19,-58.7071 1800.57,-46.8308 1645.18,-44.01"/>
<polygon fill="black" stroke="black" points="1644.78,-40.5026 1634.72,-43.8296 1644.66,-47.5016 1644.78,-40.5026"/>
</g>
<!-- 19 -->
<g id="node19" class="node"><title>19</title>
<polygon fill="gold" stroke="black" stroke-width="2" points="2598.5,-143.391 2490.5,-143.391 2490.5,-107.391 2598.5,-107.391 2598.5,-143.391"/>
<text text-anchor="middle" x="2544.5" y="-121.691" font-family="Times,serif" font-size="14.00">renderAs</text>
</g>
<!-- 19&#45;&gt;13 -->
<g id="edge18" class="edge"><title>19&#45;&gt;13</title>
<path fill="none" stroke="black" d="M2490.35,-109.061C2487.37,-108.441 2484.4,-107.878 2481.5,-107.391 2179.41,-56.7615 1816.01,-45.8798 1644.82,-43.6662"/>
<polygon fill="black" stroke="black" points="1644.87,-40.1666 1634.82,-43.544 1644.78,-47.1661 1644.87,-40.1666"/>
</g>
<!-- 20 -->
<g id="node20" class="node"><title>20</title>
<polygon fill="gold" stroke="black" stroke-width="2" points="2776.5,-143.391 2616.5,-143.391 2616.5,-107.391 2776.5,-107.391 2776.5,-143.391"/>
<text text-anchor="middle" x="2696.5" y="-121.691" font-family="Times,serif" font-size="14.00">renderWithSplices</text>
</g>
<!-- 20&#45;&gt;13 -->
<g id="edge19" class="edge"><title>20&#45;&gt;13</title>
<path fill="none" stroke="black" d="M2616.04,-108.544C2613.16,-108.13 2610.31,-107.743 2607.5,-107.391 2255.09,-63.2582 1832.89,-49.2001 1645.01,-44.9403"/>
<polygon fill="black" stroke="black" points="1644.96,-41.4384 1634.88,-44.715 1644.8,-48.4366 1644.96,-41.4384"/>
</g>
<!-- 21 -->
<g id="node21" class="node"><title>21</title>
<polygon fill="gold" stroke="black" stroke-width="2" points="2932.5,-143.391 2794.5,-143.391 2794.5,-107.391 2932.5,-107.391 2932.5,-143.391"/>
<text text-anchor="middle" x="2863.5" y="-121.691" font-family="Times,serif" font-size="14.00">withHeistState</text>
</g>
<!-- 21&#45;&gt;13 -->
<g id="edge20" class="edge"><title>21&#45;&gt;13</title>
<path fill="none" stroke="black" d="M2794.28,-108.693C2791.32,-108.215 2788.38,-107.778 2785.5,-107.391 2363.83,-50.8996 1855.28,-43.3652 1644.93,-42.871"/>
<polygon fill="black" stroke="black" points="1644.84,-39.3709 1634.84,-42.8522 1644.83,-46.3709 1644.84,-39.3709"/>
</g>
<!-- 22 -->
<g id="node22" class="node"><title>22</title>
<polygon fill="gold" stroke="black" stroke-width="2" points="3072.5,-143.391 2950.5,-143.391 2950.5,-107.391 3072.5,-107.391 3072.5,-143.391"/>
<text text-anchor="middle" x="3011.5" y="-121.691" font-family="Times,serif" font-size="14.00">withSplices</text>
</g>
<!-- 22&#45;&gt;13 -->
<g id="edge21" class="edge"><title>22&#45;&gt;13</title>
<path fill="none" stroke="black" d="M2950.17,-108.791C2947.25,-108.27 2944.35,-107.799 2941.5,-107.391 2690.77,-71.5175 1920.07,-51.4392 1645.18,-45.2694"/>
<polygon fill="black" stroke="black" points="1644.9,-41.7624 1634.82,-45.0383 1644.74,-48.7606 1644.9,-41.7624"/>
</g>
</g>
</svg>
