<?xml version="1.0" encoding="UTF-8" standalone="no"?>
<!DOCTYPE svg PUBLIC "-//W3C//DTD SVG 1.1//EN"
 "http://www.w3.org/Graphics/SVG/1.1/DTD/svg11.dtd">
<!-- Generated by graphviz version 2.38.0 (20140413.2041)
 -->
<!-- Title: Diagram of: Snap.Snaplet.Auth.Handlers Pages: 1 -->
<svg width="2026pt" height="476pt"
 viewBox="0.00 0.00 2025.50 476.00" xmlns="http://www.w3.org/2000/svg" xmlns:xlink="http://www.w3.org/1999/xlink">
<g id="graph0" class="graph" transform="scale(1 1) rotate(0) translate(4 472)">
<title>Diagram of: Snap.Snaplet.Auth.Handlers</title>
<polygon fill="white" stroke="none" points="-4,4 -4,-472 2021.5,-472 2021.5,4 -4,4"/>
<!-- 1 -->
<g id="node1" class="node"><title>1</title>
<polygon fill="goldenrod" stroke="black" stroke-width="2" points="1017.5,-180 841.5,-180 841.5,-144 1017.5,-144 1017.5,-180"/>
<text text-anchor="middle" x="929.5" y="-158.3" font-family="Times,serif" font-size="14.00">authenticatePassword</text>
</g>
<!-- 2 -->
<g id="node2" class="node"><title>2</title>
<polygon fill="goldenrod" stroke="black" stroke-width="2" points="361.5,-180 215.5,-180 215.5,-144 361.5,-144 361.5,-180"/>
<text text-anchor="middle" x="288.5" y="-158.3" font-family="Times,serif" font-size="14.00">cacheOrLookup</text>
</g>
<!-- 3 -->
<g id="node3" class="node"><title>3</title>
<polygon fill="goldenrod" stroke="black" stroke-width="2" points="1020,-252 823,-252 823,-216 1020,-216 1020,-252"/>
<text text-anchor="middle" x="921.5" y="-230.3" font-family="Times,serif" font-size="14.00">checkPasswordAndLogin</text>
</g>
<!-- 3&#45;&gt;1 -->
<g id="edge1" class="edge"><title>3&#45;&gt;1</title>
<path fill="none" stroke="black" d="M923.478,-215.697C924.359,-207.983 925.419,-198.712 926.401,-190.112"/>
<polygon fill="black" stroke="black" points="929.887,-190.437 927.545,-180.104 922.932,-189.642 929.887,-190.437"/>
</g>
<!-- 8 -->
<g id="node8" class="node"><title>8</title>
<polygon fill="goldenrod" stroke="black" stroke-width="2" points="509,-108 390,-108 390,-72 509,-72 509,-108"/>
<text text-anchor="middle" x="449.5" y="-86.3" font-family="Times,serif" font-size="14.00">forceLogin</text>
</g>
<!-- 3&#45;&gt;8 -->
<g id="edge2" class="edge"><title>3&#45;&gt;8</title>
<path fill="none" stroke="black" d="M825.548,-215.98C763.085,-204.483 687.635,-189.69 656.5,-180 597.938,-161.774 533.464,-132.489 492.286,-112.529"/>
<polygon fill="black" stroke="black" points="493.623,-109.286 483.101,-108.043 490.551,-115.577 493.623,-109.286"/>
</g>
<!-- 19 -->
<g id="node19" class="node"><title>19</title>
<polygon fill="goldenrod" stroke="black" stroke-width="2" points="1171,-180 1036,-180 1036,-144 1171,-144 1171,-180"/>
<text text-anchor="middle" x="1103.5" y="-158.3" font-family="Times,serif" font-size="14.00">markAuthFail</text>
</g>
<!-- 3&#45;&gt;19 -->
<g id="edge3" class="edge"><title>3&#45;&gt;19</title>
<path fill="none" stroke="black" d="M966.022,-215.876C991.234,-206.179 1022.95,-193.98 1049.57,-183.743"/>
<polygon fill="black" stroke="black" points="1051.05,-186.925 1059.12,-180.068 1048.53,-180.391 1051.05,-186.925"/>
</g>
<!-- 20 -->
<g id="node20" class="node"><title>20</title>
<polygon fill="goldenrod" stroke="black" stroke-width="2" points="823,-180 666,-180 666,-144 823,-144 823,-180"/>
<text text-anchor="middle" x="744.5" y="-158.3" font-family="Times,serif" font-size="14.00">markAuthSuccess</text>
</g>
<!-- 3&#45;&gt;20 -->
<g id="edge4" class="edge"><title>3&#45;&gt;20</title>
<path fill="none" stroke="black" d="M878.201,-215.876C853.789,-206.222 823.104,-194.087 797.29,-183.878"/>
<polygon fill="black" stroke="black" points="798.245,-180.491 787.658,-180.068 795.67,-187.001 798.245,-180.491"/>
</g>
<!-- 4 -->
<g id="node4" class="node"><title>4</title>
<polygon fill="gold" stroke="black" stroke-width="2" points="1177,-324 976,-324 976,-288 1177,-288 1177,-324"/>
<text text-anchor="middle" x="1076.5" y="-302.3" font-family="Times,serif" font-size="14.00">clearPasswordResetToken</text>
</g>
<!-- 21 -->
<g id="node21" class="node"><title>21</title>
<polygon fill="goldenrod" stroke="black" stroke-width="2" points="1388.5,-252 1188.5,-252 1188.5,-216 1388.5,-216 1388.5,-252"/>
<text text-anchor="middle" x="1288.5" y="-230.3" font-family="Times,serif" font-size="14.00">modPasswordResetToken</text>
</g>
<!-- 4&#45;&gt;21 -->
<g id="edge5" class="edge"><title>4&#45;&gt;21</title>
<path fill="none" stroke="black" d="M1128.09,-287.966C1157.97,-278.1 1195.76,-265.622 1227.16,-255.255"/>
<polygon fill="black" stroke="black" points="1228.28,-258.57 1236.68,-252.111 1226.09,-251.923 1228.28,-258.57"/>
</g>
<!-- 5 -->
<g id="node5" class="node"><title>5</title>
<polygon fill="goldenrod" stroke="black" stroke-width="2" points="1613.5,-252 1497.5,-252 1497.5,-216 1613.5,-216 1613.5,-252"/>
<text text-anchor="middle" x="1555.5" y="-230.3" font-family="Times,serif" font-size="14.00">createUser</text>
</g>
<!-- 29 -->
<g id="node29" class="node"><title>29</title>
<polygon fill="goldenrod" stroke="black" stroke-width="2" points="1677.5,-180 1533.5,-180 1533.5,-144 1677.5,-144 1677.5,-180"/>
<text text-anchor="middle" x="1605.5" y="-158.3" font-family="Times,serif" font-size="14.00">usernameExists</text>
</g>
<!-- 5&#45;&gt;29 -->
<g id="edge6" class="edge"><title>5&#45;&gt;29</title>
<path fill="none" stroke="black" d="M1567.86,-215.697C1573.73,-207.474 1580.87,-197.483 1587.34,-188.421"/>
<polygon fill="black" stroke="black" points="1590.32,-190.276 1593.28,-180.104 1584.62,-186.207 1590.32,-190.276"/>
</g>
<!-- 30 -->
<g id="node30" class="node"><title>30</title>
<polygon fill="goldenrod" stroke="black" stroke-width="2" points="1238.5,-108 1108.5,-108 1108.5,-72 1238.5,-72 1238.5,-108"/>
<text text-anchor="middle" x="1173.5" y="-86.3" font-family="Times,serif" font-size="14.00">withBackend</text>
</g>
<!-- 5&#45;&gt;30 -->
<g id="edge7" class="edge"><title>5&#45;&gt;30</title>
<path fill="none" stroke="black" d="M1544.34,-215.738C1528.96,-192.475 1501.43,-152.939 1486.5,-144 1447.39,-120.581 1328.13,-105.298 1248.63,-97.4143"/>
<polygon fill="black" stroke="black" points="1248.95,-93.9289 1238.66,-96.4433 1248.27,-100.896 1248.95,-93.9289"/>
</g>
<!-- 6 -->
<g id="node6" class="node"><title>6</title>
<polygon fill="goldenrod" stroke="black" stroke-width="2" points="433.5,-252 311.5,-252 311.5,-216 433.5,-216 433.5,-252"/>
<text text-anchor="middle" x="372.5" y="-230.3" font-family="Times,serif" font-size="14.00">currentUser</text>
</g>
<!-- 6&#45;&gt;2 -->
<g id="edge8" class="edge"><title>6&#45;&gt;2</title>
<path fill="none" stroke="black" d="M351.736,-215.697C341.259,-206.965 328.389,-196.24 317,-186.75"/>
<polygon fill="black" stroke="black" points="318.948,-183.817 309.025,-180.104 314.467,-189.195 318.948,-183.817"/>
</g>
<!-- 11 -->
<g id="node11" class="node"><title>11</title>
<polygon fill="goldenrod" stroke="black" stroke-width="2" points="533,-180 380,-180 380,-144 533,-144 533,-180"/>
<text text-anchor="middle" x="456.5" y="-158.3" font-family="Times,serif" font-size="14.00">getSessionUserId</text>
</g>
<!-- 6&#45;&gt;11 -->
<g id="edge9" class="edge"><title>6&#45;&gt;11</title>
<path fill="none" stroke="black" d="M393.264,-215.697C403.741,-206.965 416.611,-196.24 428,-186.75"/>
<polygon fill="black" stroke="black" points="430.533,-189.195 435.975,-180.104 426.052,-183.817 430.533,-189.195"/>
</g>
<!-- 13 -->
<g id="node13" class="node"><title>13</title>
<polygon fill="goldenrod" stroke="black" stroke-width="2" points="197,-180 0,-180 0,-144 197,-144 197,-180"/>
<text text-anchor="middle" x="98.5" y="-158.3" font-family="Times,serif" font-size="14.00">loginByRememberToken</text>
</g>
<!-- 6&#45;&gt;13 -->
<g id="edge10" class="edge"><title>6&#45;&gt;13</title>
<path fill="none" stroke="black" d="M311.35,-217.378C271.111,-207.098 218.123,-193.561 175.084,-182.565"/>
<polygon fill="black" stroke="black" points="175.773,-179.129 165.218,-180.045 174.04,-185.911 175.773,-179.129"/>
</g>
<!-- 6&#45;&gt;30 -->
<g id="edge11" class="edge"><title>6&#45;&gt;30</title>
<path fill="none" stroke="black" d="M433.796,-219.804C466.917,-211.212 507.809,-198.179 541.5,-180 563.736,-168.002 562.109,-153.555 585.5,-144 676.507,-106.824 961.274,-95.6029 1098.33,-92.3133"/>
<polygon fill="black" stroke="black" points="1098.42,-95.8123 1108.34,-92.081 1098.26,-88.8142 1098.42,-95.8123"/>
</g>
<!-- 7 -->
<g id="node7" class="node"><title>7</title>
<polygon fill="gold" stroke="black" stroke-width="2" points="1477.5,-180 1353.5,-180 1353.5,-144 1477.5,-144 1477.5,-180"/>
<text text-anchor="middle" x="1415.5" y="-158.3" font-family="Times,serif" font-size="14.00">destroyUser</text>
</g>
<!-- 7&#45;&gt;30 -->
<g id="edge12" class="edge"><title>7&#45;&gt;30</title>
<path fill="none" stroke="black" d="M1356.61,-143.966C1322.21,-134.015 1278.62,-121.406 1242.6,-110.987"/>
<polygon fill="black" stroke="black" points="1243.23,-107.527 1232.65,-108.111 1241.29,-114.252 1243.23,-107.527"/>
</g>
<!-- 28 -->
<g id="node28" class="node"><title>28</title>
<polygon fill="goldenrod" stroke="black" stroke-width="2" points="525.5,-36 373.5,-36 373.5,-0 525.5,-0 525.5,-36"/>
<text text-anchor="middle" x="449.5" y="-14.3" font-family="Times,serif" font-size="14.00">setSessionUserId</text>
</g>
<!-- 8&#45;&gt;28 -->
<g id="edge13" class="edge"><title>8&#45;&gt;28</title>
<path fill="none" stroke="chartreuse" d="M449.5,-71.6966C449.5,-63.9827 449.5,-54.7125 449.5,-46.1124"/>
<polygon fill="chartreuse" stroke="chartreuse" points="453,-46.1043 449.5,-36.1043 446,-46.1044 453,-46.1043"/>
</g>
<!-- 9 -->
<g id="node9" class="node"><title>9</title>
<polygon fill="goldenrod" stroke="black" stroke-width="2" points="1821.5,-324 1635.5,-324 1635.5,-288 1821.5,-288 1821.5,-324"/>
<text text-anchor="middle" x="1728.5" y="-302.3" font-family="Times,serif" font-size="14.00">forgetRememberToken</text>
</g>
<!-- 10 -->
<g id="node10" class="node"><title>10</title>
<polygon fill="goldenrod" stroke="black" stroke-width="2" points="183.5,-108 13.5,-108 13.5,-72 183.5,-72 183.5,-108"/>
<text text-anchor="middle" x="98.5" y="-86.3" font-family="Times,serif" font-size="14.00">getRememberToken</text>
</g>
<!-- 12 -->
<g id="node12" class="node"><title>12</title>
<polygon fill="goldenrod" stroke="black" stroke-width="2" points="432.5,-324 312.5,-324 312.5,-288 432.5,-288 432.5,-324"/>
<text text-anchor="middle" x="372.5" y="-302.3" font-family="Times,serif" font-size="14.00">isLoggedIn</text>
</g>
<!-- 12&#45;&gt;6 -->
<g id="edge14" class="edge"><title>12&#45;&gt;6</title>
<path fill="none" stroke="chartreuse" d="M372.5,-287.697C372.5,-279.983 372.5,-270.712 372.5,-262.112"/>
<polygon fill="chartreuse" stroke="chartreuse" points="376,-262.104 372.5,-252.104 369,-262.104 376,-262.104"/>
</g>
<!-- 13&#45;&gt;8 -->
<g id="edge15" class="edge"><title>13&#45;&gt;8</title>
<path fill="none" stroke="black" d="M183.915,-143.966C244.12,-131.959 323.73,-116.082 380.04,-104.852"/>
<polygon fill="black" stroke="black" points="380.799,-108.27 389.922,-102.882 379.43,-101.405 380.799,-108.27"/>
</g>
<!-- 13&#45;&gt;10 -->
<g id="edge16" class="edge"><title>13&#45;&gt;10</title>
<path fill="none" stroke="black" d="M98.5,-143.697C98.5,-135.983 98.5,-126.712 98.5,-118.112"/>
<polygon fill="black" stroke="black" points="102,-118.104 98.5,-108.104 95.0001,-118.104 102,-118.104"/>
</g>
<!-- 13&#45;&gt;30 -->
<g id="edge17" class="edge"><title>13&#45;&gt;30</title>
<path fill="none" stroke="black" d="M197.034,-145.068C200.224,-144.687 203.386,-144.33 206.5,-144 537.397,-108.98 934.592,-96.4312 1097.83,-92.5391"/>
<polygon fill="black" stroke="black" points="1098.32,-96.0285 1108.24,-92.2951 1098.16,-89.0305 1098.32,-96.0285"/>
</g>
<!-- 14 -->
<g id="node14" class="node"><title>14</title>
<polygon fill="goldenrod" stroke="black" stroke-width="2" points="892.5,-324 734.5,-324 734.5,-288 892.5,-288 892.5,-324"/>
<text text-anchor="middle" x="813.5" y="-302.3" font-family="Times,serif" font-size="14.00">loginByUsername</text>
</g>
<!-- 14&#45;&gt;3 -->
<g id="edge18" class="edge"><title>14&#45;&gt;3</title>
<path fill="none" stroke="black" d="M839.92,-287.876C853.91,-278.808 871.276,-267.552 886.386,-257.759"/>
<polygon fill="black" stroke="black" points="888.491,-260.566 894.979,-252.19 884.683,-254.692 888.491,-260.566"/>
</g>
<!-- 25 -->
<g id="node25" class="node"><title>25</title>
<polygon fill="goldenrod" stroke="black" stroke-width="2" points="1297.5,-180 1189.5,-180 1189.5,-144 1297.5,-144 1297.5,-180"/>
<text text-anchor="middle" x="1243.5" y="-158.3" font-family="Times,serif" font-size="14.00">saveUser</text>
</g>
<!-- 14&#45;&gt;25 -->
<g id="edge19" class="edge"><title>14&#45;&gt;25</title>
<path fill="none" stroke="black" d="M892.683,-288.486C933.645,-279.19 984.211,-266.534 1028.5,-252 1088.09,-232.444 1154.48,-203.873 1197.51,-184.415"/>
<polygon fill="black" stroke="black" points="1199.2,-187.49 1206.85,-180.164 1196.3,-181.118 1199.2,-187.49"/>
</g>
<!-- 27 -->
<g id="node27" class="node"><title>27</title>
<polygon fill="goldenrod" stroke="black" stroke-width="2" points="805,-252 636,-252 636,-216 805,-216 805,-252"/>
<text text-anchor="middle" x="720.5" y="-230.3" font-family="Times,serif" font-size="14.00">setRememberToken</text>
</g>
<!-- 14&#45;&gt;27 -->
<g id="edge20" class="edge"><title>14&#45;&gt;27</title>
<path fill="none" stroke="black" d="M790.511,-287.697C778.686,-278.796 764.108,-267.823 751.321,-258.199"/>
<polygon fill="black" stroke="black" points="753.319,-255.322 743.224,-252.104 749.109,-260.915 753.319,-255.322"/>
</g>
<!-- 14&#45;&gt;30 -->
<g id="edge21" class="edge"><title>14&#45;&gt;30</title>
<path fill="none" stroke="black" d="M734.341,-292.348C689.602,-283.404 639.981,-269.833 626.5,-252 603.57,-221.668 652.972,-146.622 656.5,-144 691.173,-118.234 963.301,-101.358 1098.21,-94.4902"/>
<polygon fill="black" stroke="black" points="1098.65,-97.9722 1108.46,-93.9738 1098.3,-90.9811 1098.65,-97.9722"/>
</g>
<!-- 15 -->
<g id="node15" class="node"><title>15</title>
<polygon fill="gold" stroke="black" stroke-width="2" points="869.5,-468 757.5,-468 757.5,-432 869.5,-432 869.5,-468"/>
<text text-anchor="middle" x="813.5" y="-446.3" font-family="Times,serif" font-size="14.00">loginUser</text>
</g>
<!-- 16 -->
<g id="node16" class="node"><title>16</title>
<polygon fill="goldenrod" stroke="black" stroke-width="2" points="870.5,-396 756.5,-396 756.5,-360 870.5,-360 870.5,-396"/>
<text text-anchor="middle" x="813.5" y="-374.3" font-family="Times,serif" font-size="14.00">loginUser&#39;</text>
</g>
<!-- 15&#45;&gt;16 -->
<g id="edge22" class="edge"><title>15&#45;&gt;16</title>
<path fill="none" stroke="chartreuse" d="M813.5,-431.697C813.5,-423.983 813.5,-414.712 813.5,-406.112"/>
<polygon fill="chartreuse" stroke="chartreuse" points="817,-406.104 813.5,-396.104 810,-406.104 817,-406.104"/>
</g>
<!-- 16&#45;&gt;14 -->
<g id="edge23" class="edge"><title>16&#45;&gt;14</title>
<path fill="none" stroke="chartreuse" d="M813.5,-359.697C813.5,-351.983 813.5,-342.712 813.5,-334.112"/>
<polygon fill="chartreuse" stroke="chartreuse" points="817,-334.104 813.5,-324.104 810,-334.104 817,-334.104"/>
</g>
<!-- 17 -->
<g id="node17" class="node"><title>17</title>
<polygon fill="goldenrod" stroke="black" stroke-width="2" points="1875,-396 1782,-396 1782,-360 1875,-360 1875,-396"/>
<text text-anchor="middle" x="1828.5" y="-374.3" font-family="Times,serif" font-size="14.00">logout</text>
</g>
<!-- 17&#45;&gt;9 -->
<g id="edge24" class="edge"><title>17&#45;&gt;9</title>
<path fill="none" stroke="black" d="M1804.04,-359.876C1791.2,-350.893 1775.3,-339.763 1761.41,-330.034"/>
<polygon fill="black" stroke="black" points="1763.26,-327.057 1753.06,-324.19 1759.24,-332.792 1763.26,-327.057"/>
</g>
<!-- 23 -->
<g id="node23" class="node"><title>23</title>
<polygon fill="goldenrod" stroke="black" stroke-width="2" points="2017.5,-324 1839.5,-324 1839.5,-288 2017.5,-288 2017.5,-324"/>
<text text-anchor="middle" x="1928.5" y="-302.3" font-family="Times,serif" font-size="14.00">removeSessionUserId</text>
</g>
<!-- 17&#45;&gt;23 -->
<g id="edge25" class="edge"><title>17&#45;&gt;23</title>
<path fill="none" stroke="black" d="M1852.96,-359.876C1865.8,-350.893 1881.7,-339.763 1895.59,-330.034"/>
<polygon fill="black" stroke="black" points="1897.76,-332.792 1903.94,-324.19 1893.74,-327.057 1897.76,-332.792"/>
</g>
<!-- 18 -->
<g id="node18" class="node"><title>18</title>
<polygon fill="gold" stroke="black" stroke-width="2" points="1888,-468 1769,-468 1769,-432 1888,-432 1888,-468"/>
<text text-anchor="middle" x="1828.5" y="-446.3" font-family="Times,serif" font-size="14.00">logoutUser</text>
</g>
<!-- 18&#45;&gt;17 -->
<g id="edge26" class="edge"><title>18&#45;&gt;17</title>
<path fill="none" stroke="chartreuse" d="M1828.5,-431.697C1828.5,-423.983 1828.5,-414.712 1828.5,-406.112"/>
<polygon fill="chartreuse" stroke="chartreuse" points="1832,-406.104 1828.5,-396.104 1825,-406.104 1832,-406.104"/>
</g>
<!-- 19&#45;&gt;30 -->
<g id="edge27" class="edge"><title>19&#45;&gt;30</title>
<path fill="none" stroke="black" d="M1120.8,-143.697C1129.36,-135.135 1139.84,-124.656 1149.2,-115.304"/>
<polygon fill="black" stroke="black" points="1151.8,-117.65 1156.4,-108.104 1146.85,-112.701 1151.8,-117.65"/>
</g>
<!-- 20&#45;&gt;30 -->
<g id="edge28" class="edge"><title>20&#45;&gt;30</title>
<path fill="none" stroke="black" d="M823.156,-145.657C826.31,-145.089 829.434,-144.534 832.5,-144 923.776,-128.096 1029.21,-112.066 1098.39,-101.866"/>
<polygon fill="black" stroke="black" points="1098.94,-105.322 1108.33,-100.404 1097.93,-98.3969 1098.94,-105.322"/>
</g>
<!-- 21&#45;&gt;25 -->
<g id="edge29" class="edge"><title>21&#45;&gt;25</title>
<path fill="none" stroke="black" d="M1277.38,-215.697C1272.14,-207.559 1265.8,-197.689 1260.02,-188.701"/>
<polygon fill="black" stroke="black" points="1262.85,-186.623 1254.5,-180.104 1256.96,-190.409 1262.85,-186.623"/>
</g>
<!-- 21&#45;&gt;30 -->
<g id="edge30" class="edge"><title>21&#45;&gt;30</title>
<path fill="none" stroke="black" d="M1299.05,-215.765C1309.26,-196.652 1321.18,-165.66 1306.5,-144 1293.01,-124.108 1270.74,-111.682 1248.25,-103.919"/>
<polygon fill="black" stroke="black" points="1249.21,-100.552 1238.62,-100.87 1247.09,-107.225 1249.21,-100.552"/>
</g>
<!-- 22 -->
<g id="node22" class="node"><title>22</title>
<polygon fill="gold" stroke="black" stroke-width="2" points="1618,-324 1493,-324 1493,-288 1618,-288 1618,-324"/>
<text text-anchor="middle" x="1555.5" y="-302.3" font-family="Times,serif" font-size="14.00">registerUser</text>
</g>
<!-- 22&#45;&gt;5 -->
<g id="edge31" class="edge"><title>22&#45;&gt;5</title>
<path fill="none" stroke="chartreuse" d="M1555.5,-287.697C1555.5,-279.983 1555.5,-270.712 1555.5,-262.112"/>
<polygon fill="chartreuse" stroke="chartreuse" points="1559,-262.104 1555.5,-252.104 1552,-262.104 1559,-262.104"/>
</g>
<!-- 24 -->
<g id="node24" class="node"><title>24</title>
<polygon fill="gold" stroke="black" stroke-width="2" points="433.5,-396 311.5,-396 311.5,-360 433.5,-360 433.5,-396"/>
<text text-anchor="middle" x="372.5" y="-374.3" font-family="Times,serif" font-size="14.00">requireUser</text>
</g>
<!-- 24&#45;&gt;12 -->
<g id="edge32" class="edge"><title>24&#45;&gt;12</title>
<path fill="none" stroke="chartreuse" d="M372.5,-359.697C372.5,-351.983 372.5,-342.712 372.5,-334.112"/>
<polygon fill="chartreuse" stroke="chartreuse" points="376,-334.104 372.5,-324.104 369,-334.104 376,-334.104"/>
</g>
<!-- 25&#45;&gt;30 -->
<g id="edge33" class="edge"><title>25&#45;&gt;30</title>
<path fill="none" stroke="black" d="M1226.2,-143.697C1217.64,-135.135 1207.16,-124.656 1197.8,-115.304"/>
<polygon fill="black" stroke="black" points="1200.15,-112.701 1190.6,-108.104 1195.2,-117.65 1200.15,-112.701"/>
</g>
<!-- 26 -->
<g id="node26" class="node"><title>26</title>
<polygon fill="gold" stroke="black" stroke-width="2" points="1385.5,-324 1195.5,-324 1195.5,-288 1385.5,-288 1385.5,-324"/>
<text text-anchor="middle" x="1290.5" y="-302.3" font-family="Times,serif" font-size="14.00">setPasswordResetToken</text>
</g>
<!-- 26&#45;&gt;21 -->
<g id="edge34" class="edge"><title>26&#45;&gt;21</title>
<path fill="none" stroke="black" d="M1290.01,-287.697C1289.79,-279.983 1289.52,-270.712 1289.27,-262.112"/>
<polygon fill="black" stroke="black" points="1292.77,-262 1288.99,-252.104 1285.78,-262.2 1292.77,-262"/>
</g>
<!-- 29&#45;&gt;30 -->
<g id="edge35" class="edge"><title>29&#45;&gt;30</title>
<path fill="none" stroke="black" d="M1533.28,-146.489C1528.62,-145.626 1524,-144.789 1519.5,-144 1426.51,-127.694 1318.95,-111.66 1248.76,-101.573"/>
<polygon fill="black" stroke="black" points="1249.08,-98.0826 1238.68,-100.129 1248.09,-105.012 1249.08,-98.0826"/>
</g>
</g>
</svg>
