<?xml version="1.0" encoding="UTF-8" standalone="no"?>
<!DOCTYPE svg PUBLIC "-//W3C//DTD SVG 1.1//EN"
 "http://www.w3.org/Graphics/SVG/1.1/DTD/svg11.dtd">
<!-- Generated by graphviz version 2.38.0 (20140413.2041)
 -->
<!-- Title: Diagram of: Snap.Snaplet.Auth.SpliceHelpers Pages: 1 -->
<svg width="820pt" height="188pt"
 viewBox="0.00 0.00 819.50 188.00" xmlns="http://www.w3.org/2000/svg" xmlns:xlink="http://www.w3.org/1999/xlink">
<g id="graph0" class="graph" transform="scale(1 1) rotate(0) translate(4 184)">
<title>Diagram of: Snap.Snaplet.Auth.SpliceHelpers</title>
<polygon fill="white" stroke="none" points="-4,4 -4,-184 815.5,-184 815.5,4 -4,4"/>
<!-- 1 -->
<g id="node1" class="node"><title>1</title>
<polygon fill="gold" stroke="black" stroke-width="2" points="521,-180 377,-180 377,-144 521,-144 521,-180"/>
<text text-anchor="middle" x="449" y="-158.3" font-family="Times,serif" font-size="14.00">addAuthSplices</text>
</g>
<!-- 5 -->
<g id="node5" class="node"><title>5</title>
<polygon fill="goldenrod" stroke="black" stroke-width="2" points="300,-108 124,-108 124,-72 300,-72 300,-108"/>
<text text-anchor="middle" x="212" y="-86.3" font-family="Times,serif" font-size="14.00">compiledAuthSplices</text>
</g>
<!-- 1&#45;&gt;5 -->
<g id="edge1" class="edge"><title>1&#45;&gt;5</title>
<path fill="none" stroke="black" d="M391.326,-143.966C357.636,-134.015 314.947,-121.406 279.671,-110.987"/>
<polygon fill="black" stroke="black" points="280.514,-107.587 269.932,-108.111 278.531,-114.3 280.514,-107.587"/>
</g>
<!-- 6 -->
<g id="node6" class="node"><title>6</title>
<polygon fill="goldenrod" stroke="black" stroke-width="2" points="437.5,-108 318.5,-108 318.5,-72 437.5,-72 437.5,-108"/>
<text text-anchor="middle" x="378" y="-86.3" font-family="Times,serif" font-size="14.00">ifLoggedIn</text>
</g>
<!-- 1&#45;&gt;6 -->
<g id="edge2" class="edge"><title>1&#45;&gt;6</title>
<path fill="none" stroke="black" d="M431.449,-143.697C422.766,-135.135 412.137,-124.656 402.652,-115.304"/>
<polygon fill="black" stroke="black" points="404.927,-112.633 395.349,-108.104 400.012,-117.617 404.927,-112.633"/>
</g>
<!-- 7 -->
<g id="node7" class="node"><title>7</title>
<polygon fill="goldenrod" stroke="black" stroke-width="2" points="584,-108 456,-108 456,-72 584,-72 584,-108"/>
<text text-anchor="middle" x="520" y="-86.3" font-family="Times,serif" font-size="14.00">ifLoggedOut</text>
</g>
<!-- 1&#45;&gt;7 -->
<g id="edge3" class="edge"><title>1&#45;&gt;7</title>
<path fill="none" stroke="black" d="M466.551,-143.697C475.234,-135.135 485.863,-124.656 495.348,-115.304"/>
<polygon fill="black" stroke="black" points="497.988,-117.617 502.651,-108.104 493.073,-112.633 497.988,-117.617"/>
</g>
<!-- 8 -->
<g id="node8" class="node"><title>8</title>
<polygon fill="goldenrod" stroke="black" stroke-width="2" points="734,-108 602,-108 602,-72 734,-72 734,-108"/>
<text text-anchor="middle" x="668" y="-86.3" font-family="Times,serif" font-size="14.00">loggedInUser</text>
</g>
<!-- 1&#45;&gt;8 -->
<g id="edge4" class="edge"><title>1&#45;&gt;8</title>
<path fill="none" stroke="black" d="M502.293,-143.966C533.159,-134.1 572.198,-121.622 604.631,-111.255"/>
<polygon fill="black" stroke="black" points="606.008,-114.489 614.468,-108.111 603.877,-107.822 606.008,-114.489"/>
</g>
<!-- 2 -->
<g id="node2" class="node"><title>2</title>
<polygon fill="goldenrod" stroke="black" stroke-width="2" points="126,-36 0,-36 0,-0 126,-0 126,-36"/>
<text text-anchor="middle" x="63" y="-14.3" font-family="Times,serif" font-size="14.00">cIfLoggedIn</text>
</g>
<!-- 3 -->
<g id="node3" class="node"><title>3</title>
<polygon fill="goldenrod" stroke="black" stroke-width="2" points="279.5,-36 144.5,-36 144.5,-0 279.5,-0 279.5,-36"/>
<text text-anchor="middle" x="212" y="-14.3" font-family="Times,serif" font-size="14.00">cIfLoggedOut</text>
</g>
<!-- 4 -->
<g id="node4" class="node"><title>4</title>
<polygon fill="goldenrod" stroke="black" stroke-width="2" points="440.5,-36 297.5,-36 297.5,-0 440.5,-0 440.5,-36"/>
<text text-anchor="middle" x="369" y="-14.3" font-family="Times,serif" font-size="14.00">cLoggedInUser</text>
</g>
<!-- 5&#45;&gt;2 -->
<g id="edge5" class="edge"><title>5&#45;&gt;2</title>
<path fill="none" stroke="black" d="M175.55,-71.8761C155.362,-62.3917 130.079,-50.5134 108.592,-40.419"/>
<polygon fill="black" stroke="black" points="109.87,-37.1527 99.3311,-36.0683 106.894,-43.4883 109.87,-37.1527"/>
</g>
<!-- 5&#45;&gt;3 -->
<g id="edge6" class="edge"><title>5&#45;&gt;3</title>
<path fill="none" stroke="black" d="M212,-71.6966C212,-63.9827 212,-54.7125 212,-46.1124"/>
<polygon fill="black" stroke="black" points="215.5,-46.1043 212,-36.1043 208.5,-46.1044 215.5,-46.1043"/>
</g>
<!-- 5&#45;&gt;4 -->
<g id="edge7" class="edge"><title>5&#45;&gt;4</title>
<path fill="none" stroke="black" d="M250.407,-71.8761C271.869,-62.3066 298.798,-50.3001 321.568,-40.1478"/>
<polygon fill="black" stroke="black" points="323.01,-43.3372 330.718,-36.0683 320.16,-36.9439 323.01,-43.3372"/>
</g>
<!-- 9 -->
<g id="node9" class="node"><title>9</title>
<polygon fill="gold" stroke="black" stroke-width="2" points="668.5,-180 539.5,-180 539.5,-144 668.5,-144 668.5,-180"/>
<text text-anchor="middle" x="604" y="-158.3" font-family="Times,serif" font-size="14.00">userCSplices</text>
</g>
<!-- 10 -->
<g id="node10" class="node"><title>10</title>
<polygon fill="gold" stroke="black" stroke-width="2" points="811.5,-180 686.5,-180 686.5,-144 811.5,-144 811.5,-180"/>
<text text-anchor="middle" x="749" y="-158.3" font-family="Times,serif" font-size="14.00">userISplices</text>
</g>
</g>
</svg>
