<?xml version="1.0" encoding="UTF-8" standalone="no"?>
<!DOCTYPE svg PUBLIC "-//W3C//DTD SVG 1.1//EN"
 "http://www.w3.org/Graphics/SVG/1.1/DTD/svg11.dtd">
<!-- Generated by graphviz version 2.38.0 (20140413.2041)
 -->
<!-- Title: Levels within Snap.Snaplet.HeistNoClass Pages: 1 -->
<svg width="3583pt" height="366pt"
 viewBox="0.00 0.00 3583.00 365.74" xmlns="http://www.w3.org/2000/svg" xmlns:xlink="http://www.w3.org/1999/xlink">
<g id="graph0" class="graph" transform="scale(1 1) rotate(0) translate(4 361.744)">
<title>Levels within Snap.Snaplet.HeistNoClass</title>
<polygon fill="white" stroke="none" points="-4,4 -4,-361.744 3579,-361.744 3579,4 -4,4"/>
<g id="clust1" class="cluster"><title>cluster_0</title>
<polygon fill="lavender" stroke="black" points="8,-12.1956 8,-349.744 2541,-349.744 2541,-12.1956 8,-12.1956"/>
<text text-anchor="middle" x="1274.5" y="-334.544" font-family="Times,serif" font-size="14.00">Exported root entities</text>
</g>
<g id="clust2" class="cluster"><title>cluster_1</title>
<polygon fill="lavender" stroke="black" points="2549,-8 2549,-91.3913 3567,-91.3913 3567,-8 2549,-8"/>
<text text-anchor="middle" x="3058" y="-76.1913" font-family="Times,serif" font-size="14.00">Level = 1</text>
</g>
<!-- 1 -->
<g id="node1" class="node"><title>1</title>
<polygon fill="gold" stroke="black" stroke-width="2" points="2533,-299.067 2417,-299.067 2417,-263.067 2533,-263.067 2533,-299.067"/>
<text text-anchor="middle" x="2475" y="-277.367" font-family="Times,serif" font-size="14.00">addConfig</text>
</g>
<!-- 2 -->
<g id="node2" class="node"><title>2</title>
<polygon fill="gold" stroke="black" stroke-width="2" points="1961.5,-299.067 1826.5,-299.067 1826.5,-263.067 1961.5,-263.067 1961.5,-299.067"/>
<text text-anchor="middle" x="1894" y="-277.367" font-family="Times,serif" font-size="14.00">addTemplates</text>
</g>
<!-- 3 -->
<g id="node3" class="node"><title>3</title>
<polygon fill="goldenrod" stroke="black" stroke-width="2" points="2109.5,-207.391 1960.5,-207.391 1960.5,-171.391 2109.5,-171.391 2109.5,-207.391"/>
<text text-anchor="middle" x="2035" y="-185.691" font-family="Times,serif" font-size="14.00">addTemplatesAt</text>
</g>
<!-- 2&#45;&gt;3 -->
<g id="edge1" class="edge"><title>2&#45;&gt;3</title>
<path fill="none" stroke="chartreuse" d="M1920.85,-262.989C1943.2,-248.777 1975.19,-228.432 1999.62,-212.893"/>
<polygon fill="chartreuse" stroke="chartreuse" points="2001.69,-215.726 2008.25,-207.406 1997.93,-209.819 2001.69,-215.726"/>
</g>
<!-- 4 -->
<g id="node4" class="node"><title>4</title>
<polygon fill="goldenrod" stroke="black" stroke-width="2" points="1199,-207.391 1075,-207.391 1075,-171.391 1199,-171.391 1199,-207.391"/>
<text text-anchor="middle" x="1137" y="-185.691" font-family="Times,serif" font-size="14.00">cHeistServe</text>
</g>
<!-- 6 -->
<g id="node6" class="node"><title>6</title>
<polygon fill="goldenrod" stroke="black" stroke-width="2" points="1036,-135.391 932,-135.391 932,-99.3913 1036,-99.3913 1036,-135.391"/>
<text text-anchor="middle" x="984" y="-113.691" font-family="Times,serif" font-size="14.00">cRender</text>
</g>
<!-- 4&#45;&gt;6 -->
<g id="edge2" class="edge"><title>4&#45;&gt;6</title>
<path fill="none" stroke="black" stroke-width="1.69315" d="M1099.57,-171.267C1078.75,-161.74 1052.65,-149.798 1030.52,-139.675"/>
<polygon fill="black" stroke="black" stroke-width="1.69315" points="1031.86,-136.437 1021.31,-135.46 1028.94,-142.803 1031.86,-136.437"/>
</g>
<!-- 32 -->
<g id="node38" class="node"><title>32</title>
<polygon fill="cyan" stroke="black" stroke-width="2" points="2823,-56.1956 2713,-56.1956 2713,-20.1956 2823,-20.1956 2823,-56.1956"/>
<text text-anchor="middle" x="2768" y="-34.4956" font-family="Times,serif" font-size="14.00">serveURI</text>
</g>
<!-- 4&#45;&gt;32 -->
<g id="edge3" class="edge"><title>4&#45;&gt;32</title>
<path fill="none" stroke="black" d="M1199.25,-179.033C1330.82,-159.745 1647.03,-115.988 1914,-99.3913 1935.9,-98.0296 2683.36,-98.8574 2704,-91.3913 2719.77,-85.6842 2734.5,-74.2912 2745.84,-63.6017"/>
<polygon fill="black" stroke="black" points="2748.47,-65.9157 2753.12,-56.3922 2743.55,-60.9418 2748.47,-65.9157"/>
</g>
<!-- 5 -->
<g id="node5" class="node"><title>5</title>
<polygon fill="goldenrod" stroke="black" stroke-width="2" points="911,-207.391 753,-207.391 753,-171.391 911,-171.391 911,-207.391"/>
<text text-anchor="middle" x="832" y="-185.691" font-family="Times,serif" font-size="14.00">cHeistServeSingle</text>
</g>
<!-- 5&#45;&gt;6 -->
<g id="edge4" class="edge"><title>5&#45;&gt;6</title>
<path fill="none" stroke="black" d="M869.183,-171.267C889.87,-161.74 915.802,-149.798 937.785,-139.675"/>
<polygon fill="black" stroke="black" points="939.318,-142.822 946.937,-135.46 936.39,-136.464 939.318,-142.822"/>
</g>
<!-- 8 -->
<g id="node34" class="node"><title>8</title>
<polygon fill="cyan" stroke="black" stroke-width="2" points="2981,-56.1956 2841,-56.1956 2841,-20.1956 2981,-20.1956 2981,-56.1956"/>
<text text-anchor="middle" x="2911" y="-34.4956" font-family="Times,serif" font-size="14.00">cRenderHelper</text>
</g>
<!-- 6&#45;&gt;8 -->
<g id="edge5" class="edge"><title>6&#45;&gt;8</title>
<path fill="none" stroke="black" d="M1036.11,-115.354C1183.47,-112.451 1615.83,-104.148 1975,-99.3913 1998.8,-99.076 2809.23,-98.3492 2832,-91.3913 2851.06,-85.5677 2869.78,-73.5575 2884.21,-62.5246"/>
<polygon fill="black" stroke="black" points="2886.52,-65.1548 2892.18,-56.1957 2882.17,-59.6725 2886.52,-65.1548"/>
</g>
<!-- 7 -->
<g id="node7" class="node"><title>7</title>
<polygon fill="goldenrod" stroke="black" stroke-width="2" points="1767.5,-207.391 1648.5,-207.391 1648.5,-171.391 1767.5,-171.391 1767.5,-207.391"/>
<text text-anchor="middle" x="1708" y="-185.691" font-family="Times,serif" font-size="14.00">cRenderAs</text>
</g>
<!-- 7&#45;&gt;8 -->
<g id="edge6" class="edge"><title>7&#45;&gt;8</title>
<path fill="none" stroke="black" d="M1767.77,-173.319C1770.88,-172.642 1773.98,-171.994 1777,-171.391 1880.62,-150.732 2141.7,-108.135 2247,-99.3913 2279.39,-96.7017 2800.94,-100.958 2832,-91.3913 2850.91,-85.5669 2869.5,-73.6793 2883.9,-62.7184"/>
<polygon fill="black" stroke="black" points="2886.18,-65.3725 2891.86,-56.4247 2881.84,-59.8815 2886.18,-65.3725"/>
</g>
<!-- 10 -->
<g id="node8" class="node"><title>10</title>
<polygon fill="goldenrod" stroke="black" stroke-width="2" points="1057,-207.391 929,-207.391 929,-171.391 1057,-171.391 1057,-207.391"/>
<text text-anchor="middle" x="993" y="-185.691" font-family="Times,serif" font-size="14.00">chooseMode</text>
</g>
<!-- 11 -->
<g id="node9" class="node"><title>11</title>
<polygon fill="gold" stroke="black" stroke-width="2" points="2126.5,-299.067 1979.5,-299.067 1979.5,-263.067 2126.5,-263.067 2126.5,-299.067"/>
<text text-anchor="middle" x="2053" y="-277.367" font-family="Times,serif" font-size="14.00">clearHeistCache</text>
</g>
<!-- 12 -->
<g id="node10" class="node"><title>12</title>
<polygon fill="gold" stroke="black" stroke-width="2" points="1049.5,-299.067 924.5,-299.067 924.5,-263.067 1049.5,-263.067 1049.5,-299.067"/>
<text text-anchor="middle" x="987" y="-277.367" font-family="Times,serif" font-size="14.00">gHeistServe</text>
</g>
<!-- 12&#45;&gt;4 -->
<g id="edge7" class="edge"><title>12&#45;&gt;4</title>
<path fill="none" stroke="black" d="M1015.57,-262.989C1039.44,-248.715 1073.67,-228.253 1099.7,-212.689"/>
<polygon fill="black" stroke="black" points="1101.75,-215.542 1108.54,-207.406 1098.16,-209.533 1101.75,-215.542"/>
</g>
<!-- 12&#45;&gt;10 -->
<g id="edge8" class="edge"><title>12&#45;&gt;10</title>
<path fill="none" stroke="black" d="M988.157,-262.777C989.012,-249.999 990.193,-232.347 991.175,-217.674"/>
<polygon fill="black" stroke="black" points="994.671,-217.84 991.847,-207.629 987.687,-217.373 994.671,-217.84"/>
</g>
<!-- 22 -->
<g id="node20" class="node"><title>22</title>
<polygon fill="goldenrod" stroke="black" stroke-width="2" points="1415.5,-207.391 1300.5,-207.391 1300.5,-171.391 1415.5,-171.391 1415.5,-207.391"/>
<text text-anchor="middle" x="1358" y="-185.691" font-family="Times,serif" font-size="14.00">heistServe</text>
</g>
<!-- 12&#45;&gt;22 -->
<g id="edge9" class="edge"><title>12&#45;&gt;22</title>
<path fill="none" stroke="black" d="M1015.15,-263.03C1027.85,-256.007 1043.28,-248.365 1058,-243.391 1135.37,-217.25 1228.54,-203.362 1290.31,-196.457"/>
<polygon fill="black" stroke="black" points="1290.76,-199.928 1300.33,-195.367 1290.01,-192.969 1290.76,-199.928"/>
</g>
<!-- 13 -->
<g id="node11" class="node"><title>13</title>
<polygon fill="gold" stroke="black" stroke-width="2" points="783.5,-299.067 624.5,-299.067 624.5,-263.067 783.5,-263.067 783.5,-299.067"/>
<text text-anchor="middle" x="704" y="-277.367" font-family="Times,serif" font-size="14.00">gHeistServeSingle</text>
</g>
<!-- 13&#45;&gt;5 -->
<g id="edge10" class="edge"><title>13&#45;&gt;5</title>
<path fill="none" stroke="black" d="M728.377,-262.989C748.484,-248.902 777.193,-228.788 799.296,-213.303"/>
<polygon fill="black" stroke="black" points="801.532,-216.011 807.714,-207.406 797.515,-210.278 801.532,-216.011"/>
</g>
<!-- 13&#45;&gt;10 -->
<g id="edge11" class="edge"><title>13&#45;&gt;10</title>
<path fill="none" stroke="black" d="M741.682,-263.027C757.099,-256.408 775.225,-249.069 792,-243.391 815.536,-235.425 871.911,-220.694 918.985,-208.78"/>
<polygon fill="black" stroke="black" points="920.035,-212.125 928.874,-206.284 918.321,-205.338 920.035,-212.125"/>
</g>
<!-- 23 -->
<g id="node21" class="node"><title>23</title>
<polygon fill="goldenrod" stroke="black" stroke-width="2" points="735.5,-207.391 586.5,-207.391 586.5,-171.391 735.5,-171.391 735.5,-207.391"/>
<text text-anchor="middle" x="661" y="-185.691" font-family="Times,serif" font-size="14.00">heistServeSingle</text>
</g>
<!-- 13&#45;&gt;23 -->
<g id="edge12" class="edge"><title>13&#45;&gt;23</title>
<path fill="none" stroke="black" d="M695.709,-262.777C689.463,-249.751 680.788,-231.66 673.674,-216.823"/>
<polygon fill="black" stroke="black" points="676.745,-215.132 669.265,-207.629 670.433,-218.159 676.745,-215.132"/>
</g>
<!-- 14 -->
<g id="node12" class="node"><title>14</title>
<polygon fill="gold" stroke="black" stroke-width="2" points="606,-299.067 502,-299.067 502,-263.067 606,-263.067 606,-299.067"/>
<text text-anchor="middle" x="554" y="-277.367" font-family="Times,serif" font-size="14.00">gRender</text>
</g>
<!-- 14&#45;&gt;6 -->
<g id="edge13" class="edge"><title>14&#45;&gt;6</title>
<path fill="none" stroke="black" d="M555.264,-262.865C557.654,-235.417 563.826,-183.562 577,-171.391 601.844,-148.438 813.732,-130.377 921.537,-122.579"/>
<polygon fill="black" stroke="black" points="921.91,-126.061 931.635,-121.856 921.41,-119.079 921.91,-126.061"/>
</g>
<!-- 14&#45;&gt;10 -->
<g id="edge14" class="edge"><title>14&#45;&gt;10</title>
<path fill="none" stroke="black" d="M577.18,-262.939C588.116,-255.72 601.67,-247.948 615,-243.391 741.13,-200.271 783.556,-229.464 919.068,-207.402"/>
<polygon fill="black" stroke="black" points="919.713,-210.842 928.989,-205.723 918.545,-203.941 919.713,-210.842"/>
</g>
<!-- 28 -->
<g id="node24" class="node"><title>28</title>
<polygon fill="goldenrod" stroke="black" stroke-width="2" points="707.5,-135.391 614.5,-135.391 614.5,-99.3913 707.5,-99.3913 707.5,-135.391"/>
<text text-anchor="middle" x="661" y="-113.691" font-family="Times,serif" font-size="14.00">render</text>
</g>
<!-- 14&#45;&gt;28 -->
<g id="edge15" class="edge"><title>14&#45;&gt;28</title>
<path fill="none" stroke="black" d="M550.747,-263.033C547.354,-240.191 544.772,-199.284 563,-171.391 572.951,-156.164 588.816,-144.972 604.907,-136.906"/>
<polygon fill="black" stroke="black" points="606.771,-139.899 614.364,-132.51 603.821,-133.551 606.771,-139.899"/>
</g>
<!-- 15 -->
<g id="node13" class="node"><title>15</title>
<polygon fill="gold" stroke="black" stroke-width="2" points="1635.5,-299.067 1516.5,-299.067 1516.5,-263.067 1635.5,-263.067 1635.5,-299.067"/>
<text text-anchor="middle" x="1576" y="-277.367" font-family="Times,serif" font-size="14.00">gRenderAs</text>
</g>
<!-- 15&#45;&gt;7 -->
<g id="edge16" class="edge"><title>15&#45;&gt;7</title>
<path fill="none" stroke="black" d="M1601.14,-262.989C1621.97,-248.84 1651.74,-228.61 1674.58,-213.098"/>
<polygon fill="black" stroke="black" points="1676.65,-215.921 1682.95,-207.406 1672.72,-210.131 1676.65,-215.921"/>
</g>
<!-- 15&#45;&gt;10 -->
<g id="edge17" class="edge"><title>15&#45;&gt;10</title>
<path fill="none" stroke="black" d="M1549.89,-262.937C1537.42,-255.624 1521.97,-247.778 1507,-243.391 1321.41,-189.018 1262.25,-236.154 1067.37,-207.447"/>
<polygon fill="black" stroke="black" points="1067.8,-203.972 1057.39,-205.928 1066.75,-210.892 1067.8,-203.972"/>
</g>
<!-- 29 -->
<g id="node25" class="node"><title>29</title>
<polygon fill="goldenrod" stroke="black" stroke-width="2" points="1630,-207.391 1522,-207.391 1522,-171.391 1630,-171.391 1630,-207.391"/>
<text text-anchor="middle" x="1576" y="-185.691" font-family="Times,serif" font-size="14.00">renderAs</text>
</g>
<!-- 15&#45;&gt;29 -->
<g id="edge18" class="edge"><title>15&#45;&gt;29</title>
<path fill="none" stroke="black" d="M1576,-262.777C1576,-249.999 1576,-232.347 1576,-217.674"/>
<polygon fill="black" stroke="black" points="1579.5,-217.629 1576,-207.629 1572.5,-217.629 1579.5,-217.629"/>
</g>
<!-- 16 -->
<g id="node14" class="node"><title>16</title>
<polygon fill="gold" stroke="black" stroke-width="2" points="1377.5,-299.067 1216.5,-299.067 1216.5,-263.067 1377.5,-263.067 1377.5,-299.067"/>
<text text-anchor="middle" x="1297" y="-277.367" font-family="Times,serif" font-size="14.00">getCurHeistConfig</text>
</g>
<!-- 17 -->
<g id="node15" class="node"><title>17</title>
<polygon fill="gold" stroke="black" stroke-width="2" points="1198.5,-299.067 1067.5,-299.067 1067.5,-263.067 1198.5,-263.067 1198.5,-299.067"/>
<text text-anchor="middle" x="1133" y="-277.367" font-family="Times,serif" font-size="14.00">getHeistState</text>
</g>
<!-- 18 -->
<g id="node16" class="node"><title>18</title>
<polygon fill="gold" stroke="black" stroke-width="2" points="1498.5,-299.067 1395.5,-299.067 1395.5,-263.067 1498.5,-263.067 1498.5,-299.067"/>
<text text-anchor="middle" x="1447" y="-277.367" font-family="Times,serif" font-size="14.00">heistInit</text>
</g>
<!-- 18&#45;&gt;22 -->
<g id="edge19" class="edge"><title>18&#45;&gt;22</title>
<path fill="none" stroke="black" d="M1429.84,-262.777C1416.42,-249.254 1397.58,-230.274 1382.56,-215.142"/>
<polygon fill="black" stroke="black" points="1384.64,-212.261 1375.11,-207.629 1379.67,-217.192 1384.64,-212.261"/>
</g>
<!-- 19 -->
<g id="node17" class="node"><title>19</title>
<polygon fill="gold" stroke="black" stroke-width="2" points="906.5,-299.067 801.5,-299.067 801.5,-263.067 906.5,-263.067 906.5,-299.067"/>
<text text-anchor="middle" x="854" y="-277.367" font-family="Times,serif" font-size="14.00">heistInit&#39;</text>
</g>
<!-- 20 -->
<g id="node18" class="node"><title>20</title>
<polygon fill="gold" stroke="black" stroke-width="2" points="355.5,-135.391 240.5,-135.391 240.5,-99.3913 355.5,-99.3913 355.5,-135.391"/>
<text text-anchor="middle" x="298" y="-113.691" font-family="Times,serif" font-size="14.00">heistLocal</text>
</g>
<!-- 21 -->
<g id="node19" class="node"><title>21</title>
<polygon fill="goldenrod" stroke="black" stroke-width="2" points="494.5,-56.1956 377.5,-56.1956 377.5,-20.1956 494.5,-20.1956 494.5,-56.1956"/>
<text text-anchor="middle" x="436" y="-34.4956" font-family="Times,serif" font-size="14.00">heistLocal&#39;</text>
</g>
<!-- 20&#45;&gt;21 -->
<g id="edge20" class="edge"><title>20&#45;&gt;21</title>
<path fill="none" stroke="black" d="M328.627,-99.2591C348.637,-88.0655 374.961,-73.3403 396.536,-61.2716"/>
<polygon fill="black" stroke="black" points="398.44,-64.2166 405.459,-56.28 395.023,-58.1074 398.44,-64.2166"/>
</g>
<!-- 9 -->
<g id="node35" class="node"><title>9</title>
<polygon fill="cyan" stroke="black" stroke-width="2" points="3123,-56.1956 2999,-56.1956 2999,-20.1956 3123,-20.1956 3123,-56.1956"/>
<text text-anchor="middle" x="3061" y="-34.4956" font-family="Times,serif" font-size="14.00">changeState</text>
</g>
<!-- 21&#45;&gt;9 -->
<g id="edge21" class="edge"><title>21&#45;&gt;9</title>
<path fill="none" stroke="black" d="M494.526,-40.3557C743.223,-49.412 1737,-84.362 2554,-95.3913 2577.72,-95.7115 2957.79,-100.316 2981,-95.3913 3002.28,-90.8756 3022.19,-76.6881 3036.83,-63.5742"/>
<polygon fill="black" stroke="black" points="3039.5,-65.8656 3044.39,-56.4674 3034.71,-60.7641 3039.5,-65.8656"/>
</g>
<!-- 22&#45;&gt;28 -->
<g id="edge22" class="edge"><title>22&#45;&gt;28</title>
<path fill="none" stroke="black" stroke-width="1.69315" d="M1300.33,-181.633C1272.45,-178.423 1238.5,-174.597 1208,-171.391 1029.29,-152.608 817.477,-132.777 717.989,-123.605"/>
<polygon fill="black" stroke="black" stroke-width="1.69315" points="718.134,-120.104 707.855,-122.672 717.492,-127.075 718.134,-120.104"/>
</g>
<!-- 22&#45;&gt;32 -->
<g id="edge23" class="edge"><title>22&#45;&gt;32</title>
<path fill="none" stroke="black" d="M1415.75,-181.784C1444.9,-178.519 1480.81,-174.601 1513,-171.391 1691.06,-153.636 1742,-184.739 1914,-135.391 1948.01,-125.634 1950.64,-107.808 1985,-99.3913 2023.8,-89.8882 2666.44,-105 2704,-91.3913 2719.77,-85.6763 2734.5,-74.2827 2745.83,-63.5948"/>
<polygon fill="black" stroke="black" points="2748.47,-65.9095 2753.12,-56.3866 2743.55,-60.935 2748.47,-65.9095"/>
</g>
<!-- 23&#45;&gt;28 -->
<g id="edge24" class="edge"><title>23&#45;&gt;28</title>
<path fill="none" stroke="black" d="M661,-171.088C661,-163.374 661,-154.104 661,-145.504"/>
<polygon fill="black" stroke="black" points="664.5,-145.496 661,-135.496 657.5,-145.496 664.5,-145.496"/>
</g>
<!-- 26 -->
<g id="node22" class="node"><title>26</title>
<polygon fill="gold" stroke="black" stroke-width="2" points="1808,-299.067 1654,-299.067 1654,-263.067 1808,-263.067 1808,-299.067"/>
<text text-anchor="middle" x="1731" y="-277.367" font-family="Times,serif" font-size="14.00">modifyHeistState</text>
</g>
<!-- 27 -->
<g id="node23" class="node"><title>27</title>
<polygon fill="goldenrod" stroke="black" stroke-width="2" points="1942,-207.391 1786,-207.391 1786,-171.391 1942,-171.391 1942,-207.391"/>
<text text-anchor="middle" x="1864" y="-185.691" font-family="Times,serif" font-size="14.00">modifyHeistState&#39;</text>
</g>
<!-- 26&#45;&gt;27 -->
<g id="edge26" class="edge"><title>26&#45;&gt;27</title>
<path fill="none" stroke="chartreuse" d="M1756.33,-262.989C1777.31,-248.84 1807.32,-228.61 1830.32,-213.098"/>
<polygon fill="chartreuse" stroke="chartreuse" points="1832.43,-215.899 1838.76,-207.406 1828.52,-210.095 1832.43,-215.899"/>
</g>
<!-- 27&#45;&gt;9 -->
<g id="edge27" class="edge"><title>27&#45;&gt;9</title>
<path fill="none" stroke="black" d="M1942.14,-172.859C1945.47,-172.336 1948.76,-171.844 1952,-171.391 2316.95,-120.375 2410.21,-122.346 2778,-99.3913 2801.53,-97.9229 2967.74,-99.1595 2990,-91.3913 3007.06,-85.4358 3023.5,-73.8632 3036.25,-63.1252"/>
<polygon fill="black" stroke="black" points="3038.86,-65.4864 3044.07,-56.2568 3034.24,-60.2276 3038.86,-65.4864"/>
</g>
<!-- 24 -->
<g id="node36" class="node"><title>24</title>
<polygon fill="cyan" stroke="black" stroke-width="2" points="2695,-56.1956 2557,-56.1956 2557,-20.1956 2695,-20.1956 2695,-56.1956"/>
<text text-anchor="middle" x="2626" y="-34.4956" font-family="Times,serif" font-size="14.00">iRenderHelper</text>
</g>
<!-- 28&#45;&gt;24 -->
<g id="edge28" class="edge"><title>28&#45;&gt;24</title>
<path fill="none" stroke="black" d="M707.813,-112.506C760.195,-108.355 847.608,-102.021 923,-99.3913 945.514,-98.606 2523.4,-97.8047 2545,-91.3913 2564.44,-85.6185 2583.63,-73.6109 2598.45,-62.5668"/>
<polygon fill="black" stroke="black" points="2600.87,-65.118 2606.64,-56.23 2596.59,-59.582 2600.87,-65.118"/>
</g>
<!-- 29&#45;&gt;24 -->
<g id="edge29" class="edge"><title>29&#45;&gt;24</title>
<path fill="none" stroke="black" d="M1630.23,-172.41C1706.41,-150.856 1849.82,-113.542 1975,-99.3913 2006.47,-95.8339 2514.68,-100.545 2545,-91.3913 2564.28,-85.5705 2583.34,-73.6832 2598.12,-62.7215"/>
<polygon fill="black" stroke="black" points="2600.51,-65.2999 2606.3,-56.4273 2596.24,-59.7525 2600.51,-65.2999"/>
</g>
<!-- 30 -->
<g id="node26" class="node"><title>30</title>
<polygon fill="gold" stroke="black" stroke-width="2" points="332,-299.067 172,-299.067 172,-263.067 332,-263.067 332,-299.067"/>
<text text-anchor="middle" x="252" y="-277.367" font-family="Times,serif" font-size="14.00">renderWithSplices</text>
</g>
<!-- 31 -->
<g id="node27" class="node"><title>31</title>
<polygon fill="goldenrod" stroke="black" stroke-width="2" points="517,-207.391 355,-207.391 355,-171.391 517,-171.391 517,-207.391"/>
<text text-anchor="middle" x="436" y="-185.691" font-family="Times,serif" font-size="14.00">renderWithSplices&#39;</text>
</g>
<!-- 30&#45;&gt;31 -->
<g id="edge30" class="edge"><title>30&#45;&gt;31</title>
<path fill="none" stroke="chartreuse" d="M287.042,-262.989C316.841,-248.466 359.784,-227.537 391.913,-211.878"/>
<polygon fill="chartreuse" stroke="chartreuse" points="393.633,-214.934 401.088,-207.406 390.566,-208.641 393.633,-214.934"/>
</g>
<!-- 31&#45;&gt;28 -->
<g id="edge31" class="edge"><title>31&#45;&gt;28</title>
<path fill="none" stroke="black" d="M490.753,-171.357C525.354,-160.592 569.952,-146.717 604.822,-135.869"/>
<polygon fill="black" stroke="black" points="605.874,-139.207 614.383,-132.894 603.794,-132.523 605.874,-139.207"/>
</g>
<!-- 37 -->
<g id="node32" class="node"><title>37</title>
<polygon fill="goldenrod" stroke="black" stroke-width="2" points="498,-135.391 374,-135.391 374,-99.3913 498,-99.3913 498,-135.391"/>
<text text-anchor="middle" x="436" y="-113.691" font-family="Times,serif" font-size="14.00">withSplices&#39;</text>
</g>
<!-- 31&#45;&gt;37 -->
<g id="edge32" class="edge"><title>31&#45;&gt;37</title>
<path fill="none" stroke="black" d="M436,-171.088C436,-163.374 436,-154.104 436,-145.504"/>
<polygon fill="black" stroke="black" points="439.5,-145.496 436,-135.496 432.5,-145.496 439.5,-145.496"/>
</g>
<!-- 33 -->
<g id="node28" class="node"><title>33</title>
<polygon fill="gold" stroke="black" stroke-width="2" points="483.5,-299.067 350.5,-299.067 350.5,-263.067 483.5,-263.067 483.5,-299.067"/>
<text text-anchor="middle" x="417" y="-277.367" font-family="Times,serif" font-size="14.00">setInterpreted</text>
</g>
<!-- 34 -->
<g id="node29" class="node"><title>34</title>
<polygon fill="gold" stroke="black" stroke-width="2" points="154,-299.067 16,-299.067 16,-263.067 154,-263.067 154,-299.067"/>
<text text-anchor="middle" x="85" y="-277.367" font-family="Times,serif" font-size="14.00">withHeistState</text>
</g>
<!-- 35 -->
<g id="node30" class="node"><title>35</title>
<polygon fill="goldenrod" stroke="black" stroke-width="2" points="314,-207.391 174,-207.391 174,-171.391 314,-171.391 314,-207.391"/>
<text text-anchor="middle" x="244" y="-185.691" font-family="Times,serif" font-size="14.00">withHeistState&#39;</text>
</g>
<!-- 34&#45;&gt;35 -->
<g id="edge33" class="edge"><title>34&#45;&gt;35</title>
<path fill="none" stroke="chartreuse" d="M115.281,-262.989C140.7,-248.653 177.186,-228.075 204.826,-212.485"/>
<polygon fill="chartreuse" stroke="chartreuse" points="206.841,-215.367 213.832,-207.406 203.402,-209.27 206.841,-215.367"/>
</g>
<!-- 36 -->
<g id="node31" class="node"><title>36</title>
<polygon fill="gold" stroke="black" stroke-width="2" points="156,-207.391 34,-207.391 34,-171.391 156,-171.391 156,-207.391"/>
<text text-anchor="middle" x="95" y="-185.691" font-family="Times,serif" font-size="14.00">withSplices</text>
</g>
<!-- 36&#45;&gt;37 -->
<g id="edge34" class="edge"><title>36&#45;&gt;37</title>
<path fill="none" stroke="black" d="M156.035,-173.343C159.063,-172.667 162.064,-172.013 165,-171.391 252.931,-152.777 276.01,-153.725 364,-135.391 364.102,-135.37 364.204,-135.349 364.307,-135.327"/>
<polygon fill="black" stroke="black" points="364.949,-138.769 373.994,-133.251 363.482,-131.925 364.949,-138.769"/>
</g>
<!-- 37&#45;&gt;21 -->
<g id="edge35" class="edge"><title>37&#45;&gt;21</title>
<path fill="none" stroke="black" d="M436,-99.2591C436,-89.6646 436,-77.4755 436,-66.5885"/>
<polygon fill="black" stroke="black" points="439.5,-66.2799 436,-56.28 432.5,-66.28 439.5,-66.2799"/>
</g>
<!-- 38 -->
<g id="node33" class="node"><title>38</title>
<polygon fill="khaki" stroke="black" stroke-dasharray="1,5" points="2395.44,-267.053 2395.44,-295.082 2323.13,-314.902 2220.87,-314.902 2148.56,-295.082 2148.56,-267.053 2220.87,-247.233 2323.13,-247.233 2395.44,-267.053"/>
<polygon fill="none" stroke="black" stroke-dasharray="1,5" points="2399.45,-263.985 2399.45,-298.15 2323.67,-318.921 2220.33,-318.921 2144.55,-298.15 2144.55,-263.985 2220.33,-243.214 2323.67,-243.214 2399.45,-263.985"/>
<text text-anchor="middle" x="2272" y="-284.867" font-family="Times,serif" font-size="14.00">Unknown Module</text>
<text text-anchor="middle" x="2272" y="-269.867" font-family="Times,serif" font-size="14.00">Class: MonadSnap</text>
</g>
<!-- 25 -->
<g id="node37" class="node"><title>25</title>
<polygon fill="bisque" stroke="black" stroke-width="2" points="3558.89,-28.9201 3558.89,-47.4711 3436.53,-60.5887 3263.47,-60.5887 3141.11,-47.4711 3141.11,-28.9201 3263.47,-15.8026 3436.53,-15.8026 3558.89,-28.9201"/>
<text text-anchor="middle" x="3350" y="-34.4956" font-family="Times,serif" font-size="14.00">Class: MonadSnap, Data: (HeistT n m)</text>
</g>
<!-- 38&#45;&gt;25 -->
<g id="edge36" class="edge"><title>38&#45;&gt;25</title>
<path fill="none" stroke="navy" d="M2363.1,-253.953C2378.03,-250.119 2393.4,-246.44 2408,-243.391 2514.01,-221.255 2542.39,-226.462 2649,-207.391 2803.19,-179.809 2841.66,-171.837 2994,-135.391 3092.22,-111.892 3204.57,-80.827 3276.34,-60.4432"/>
</g>
<!-- 25&#45;&gt;38 -->
<g id="edge25" class="edge"><title>25&#45;&gt;38</title>
<path fill="none" stroke="chartreuse" d="M3269.38,-60.3939C3228.43,-70.677 3177.78,-82.6608 3132,-91.3913 3107.3,-96.1012 3100.75,-94.9617 3076,-99.3913 2777.04,-152.9 2703.16,-171.829 2408,-243.391 2397.15,-246.021 2385.85,-248.878 2374.61,-251.799"/>
<polygon fill="chartreuse" stroke="chartreuse" points="2373.54,-248.461 2364.75,-254.377 2375.31,-255.233 2373.54,-248.461"/>
</g>
</g>
</svg>
