<?xml version="1.0" encoding="UTF-8" standalone="no"?>
<!DOCTYPE svg PUBLIC "-//W3C//DTD SVG 1.1//EN"
 "http://www.w3.org/Graphics/SVG/1.1/DTD/svg11.dtd">
<!-- Generated by graphviz version 2.38.0 (20140413.2041)
 -->
<!-- Title: Diagram of: Snap.Snaplet.Session Pages: 1 -->
<svg width="1215pt" height="188pt"
 viewBox="0.00 0.00 1215.00 188.00" xmlns="http://www.w3.org/2000/svg" xmlns:xlink="http://www.w3.org/1999/xlink">
<g id="graph0" class="graph" transform="scale(1 1) rotate(0) translate(4 184)">
<title>Diagram of: Snap.Snaplet.Session</title>
<polygon fill="white" stroke="none" points="-4,4 -4,-184 1211,-184 1211,4 -4,4"/>
<!-- 1 -->
<g id="node1" class="node"><title>1</title>
<polygon fill="goldenrod" stroke="black" stroke-width="2" points="1207,-108 1064,-108 1064,-72 1207,-72 1207,-108"/>
<text text-anchor="middle" x="1135.5" y="-86.3" font-family="Times,serif" font-size="14.00">commitSession</text>
</g>
<!-- 5 -->
<g id="node5" class="node"><title>5</title>
<polygon fill="cyan" stroke="black" stroke-width="2" points="674,-36 551,-36 551,-0 674,-0 674,-36"/>
<text text-anchor="middle" x="612.5" y="-14.3" font-family="Times,serif" font-size="14.00">loadSession</text>
</g>
<!-- 1&#45;&gt;5 -->
<g id="edge1" class="edge"><title>1&#45;&gt;5</title>
<path fill="none" stroke="black" d="M1063.57,-73.5631C1060.51,-73.014 1057.48,-72.49 1054.5,-72 924.661,-50.6325 772.02,-34.2438 684.338,-25.6627"/>
<polygon fill="black" stroke="black" points="684.526,-22.1645 674.234,-24.6803 683.848,-29.1317 684.526,-22.1645"/>
</g>
<!-- 2 -->
<g id="node2" class="node"><title>2</title>
<polygon fill="gold" stroke="black" stroke-width="2" points="113,-108 0,-108 0,-72 113,-72 113,-108"/>
<text text-anchor="middle" x="56.5" y="-86.3" font-family="Times,serif" font-size="14.00">csrfToken</text>
</g>
<!-- 2&#45;&gt;5 -->
<g id="edge2" class="edge"><title>2&#45;&gt;5</title>
<path fill="none" stroke="black" d="M113.266,-73.8236C116.381,-73.1646 119.473,-72.5505 122.5,-72 269.923,-45.1857 444.943,-30.2558 540.819,-23.4985"/>
<polygon fill="black" stroke="black" points="541.246,-26.9774 550.979,-22.7923 540.761,-19.9943 541.246,-26.9774"/>
</g>
<!-- 3 -->
<g id="node3" class="node"><title>3</title>
<polygon fill="gold" stroke="black" stroke-width="2" points="293.5,-108 131.5,-108 131.5,-72 293.5,-72 293.5,-108"/>
<text text-anchor="middle" x="212.5" y="-86.3" font-family="Times,serif" font-size="14.00">deleteFromSession</text>
</g>
<!-- 3&#45;&gt;5 -->
<g id="edge3" class="edge"><title>3&#45;&gt;5</title>
<path fill="none" stroke="black" d="M293.923,-73.5545C296.817,-73.0264 299.683,-72.5068 302.5,-72 384.073,-57.3238 477.905,-41.4173 540.775,-30.8999"/>
<polygon fill="black" stroke="black" points="541.694,-34.295 550.98,-29.1946 540.54,-27.3907 541.694,-34.295"/>
</g>
<!-- 4 -->
<g id="node4" class="node"><title>4</title>
<polygon fill="gold" stroke="black" stroke-width="2" points="457.5,-108 311.5,-108 311.5,-72 457.5,-72 457.5,-108"/>
<text text-anchor="middle" x="384.5" y="-86.3" font-family="Times,serif" font-size="14.00">getFromSession</text>
</g>
<!-- 4&#45;&gt;5 -->
<g id="edge4" class="edge"><title>4&#45;&gt;5</title>
<path fill="none" stroke="black" d="M439.984,-71.9656C472.256,-62.0574 513.112,-49.5139 546.963,-39.121"/>
<polygon fill="black" stroke="black" points="548.235,-42.3917 556.768,-36.1108 546.181,-35.7 548.235,-42.3917"/>
</g>
<!-- 6 -->
<g id="node6" class="node"><title>6</title>
<polygon fill="gold" stroke="black" stroke-width="2" points="601,-108 476,-108 476,-72 601,-72 601,-108"/>
<text text-anchor="middle" x="538.5" y="-86.3" font-family="Times,serif" font-size="14.00">resetSession</text>
</g>
<!-- 6&#45;&gt;5 -->
<g id="edge5" class="edge"><title>6&#45;&gt;5</title>
<path fill="none" stroke="black" d="M556.792,-71.6966C565.933,-63.0503 577.14,-52.4486 587.1,-43.027"/>
<polygon fill="black" stroke="black" points="589.559,-45.519 594.418,-36.1043 584.748,-40.4337 589.559,-45.519"/>
</g>
<!-- 7 -->
<g id="node7" class="node"><title>7</title>
<polygon fill="gold" stroke="black" stroke-width="2" points="753.5,-108 619.5,-108 619.5,-72 753.5,-72 753.5,-108"/>
<text text-anchor="middle" x="686.5" y="-86.3" font-family="Times,serif" font-size="14.00">sessionToList</text>
</g>
<!-- 7&#45;&gt;5 -->
<g id="edge6" class="edge"><title>7&#45;&gt;5</title>
<path fill="none" stroke="black" d="M668.208,-71.6966C659.067,-63.0503 647.86,-52.4486 637.9,-43.027"/>
<polygon fill="black" stroke="black" points="640.252,-40.4337 630.582,-36.1043 635.441,-45.519 640.252,-40.4337"/>
</g>
<!-- 8 -->
<g id="node8" class="node"><title>8</title>
<polygon fill="gold" stroke="black" stroke-width="2" points="897.5,-108 771.5,-108 771.5,-72 897.5,-72 897.5,-108"/>
<text text-anchor="middle" x="834.5" y="-86.3" font-family="Times,serif" font-size="14.00">setInSession</text>
</g>
<!-- 8&#45;&gt;5 -->
<g id="edge7" class="edge"><title>8&#45;&gt;5</title>
<path fill="none" stroke="black" d="M780.477,-71.9656C749.054,-62.0574 709.273,-49.5139 676.312,-39.121"/>
<polygon fill="black" stroke="black" points="677.355,-35.7801 666.766,-36.1108 675.25,-42.4561 677.355,-35.7801"/>
</g>
<!-- 9 -->
<g id="node9" class="node"><title>9</title>
<polygon fill="gold" stroke="black" stroke-width="2" points="1045.5,-108 915.5,-108 915.5,-72 1045.5,-72 1045.5,-108"/>
<text text-anchor="middle" x="980.5" y="-86.3" font-family="Times,serif" font-size="14.00">touchSession</text>
</g>
<!-- 9&#45;&gt;5 -->
<g id="edge8" class="edge"><title>9&#45;&gt;5</title>
<path fill="none" stroke="black" d="M915.167,-73.814C912.24,-73.1896 909.341,-72.5821 906.5,-72 830.852,-56.5012 743.752,-41.1033 684.108,-30.9312"/>
<polygon fill="black" stroke="black" points="684.485,-27.4452 674.04,-29.2193 683.312,-34.3461 684.485,-27.4452"/>
</g>
<!-- 10 -->
<g id="node10" class="node"><title>10</title>
<polygon fill="gold" stroke="black" stroke-width="2" points="1197.5,-180 1073.5,-180 1073.5,-144 1197.5,-144 1197.5,-180"/>
<text text-anchor="middle" x="1135.5" y="-158.3" font-family="Times,serif" font-size="14.00">withSession</text>
</g>
<!-- 10&#45;&gt;1 -->
<g id="edge9" class="edge"><title>10&#45;&gt;1</title>
<path fill="none" stroke="chartreuse" d="M1135.5,-143.697C1135.5,-135.983 1135.5,-126.712 1135.5,-118.112"/>
<polygon fill="chartreuse" stroke="chartreuse" points="1139,-118.104 1135.5,-108.104 1132,-118.104 1139,-118.104"/>
</g>
</g>
</svg>
