<?xml version="1.0" encoding="UTF-8" standalone="no"?>
<!DOCTYPE svg PUBLIC "-//W3C//DTD SVG 1.1//EN"
 "http://www.w3.org/Graphics/SVG/1.1/DTD/svg11.dtd">
<!-- Generated by graphviz version 2.38.0 (20140413.2041)
 -->
<!-- Title: Levels within Snap.Snaplet.Internal.LensT Pages: 1 -->
<svg width="1211pt" height="291pt"
 viewBox="0.00 0.00 1211.00 290.74" xmlns="http://www.w3.org/2000/svg" xmlns:xlink="http://www.w3.org/1999/xlink">
<g id="graph0" class="graph" transform="scale(1 1) rotate(0) translate(4 286.744)">
<title>Levels within Snap.Snaplet.Internal.LensT</title>
<polygon fill="white" stroke="none" points="-4,4 -4,-286.744 1207,-286.744 1207,4 -4,4"/>
<g id="clust1" class="cluster"><title>cluster_0</title>
<polygon fill="lavender" stroke="black" points="8,-8 8,-270.548 709,-270.548 709,-8 8,-8"/>
<text text-anchor="middle" x="358.5" y="-255.348" font-family="Times,serif" font-size="14.00">Exported root entities</text>
</g>
<g id="clust2" class="cluster"><title>cluster_1</title>
<polygon fill="lavender" stroke="black" points="717,-191.352 717,-274.744 1195,-274.744 1195,-191.352 717,-191.352"/>
<text text-anchor="middle" x="956" y="-259.544" font-family="Times,serif" font-size="14.00">Level = 1</text>
</g>
<!-- 1 -->
<g id="node1" class="node"><title>1</title>
<polygon fill="goldenrod" stroke="black" stroke-width="2" points="394,-71.6761 272,-71.6761 268,-67.6761 268,-35.6761 390,-35.6761 394,-39.6761 394,-71.6761"/>
<polyline fill="none" stroke="black" stroke-width="2" points="390,-67.6761 268,-67.6761 "/>
<polyline fill="none" stroke="black" stroke-width="2" points="390,-67.6761 390,-35.6761 "/>
<polyline fill="none" stroke="black" stroke-width="2" points="390,-67.6761 394,-71.6761 "/>
<text text-anchor="middle" x="331" y="-49.9761" font-family="Times,serif" font-size="14.00">Data: LensT</text>
</g>
<!-- 3 -->
<g id="node2" class="node"><title>3</title>
<polygon fill="gold" stroke="black" stroke-width="2" points="480.5,-163.352 379.5,-163.352 379.5,-127.352 480.5,-127.352 480.5,-163.352"/>
<text text-anchor="middle" x="430" y="-141.652" font-family="Times,serif" font-size="14.00">getBase</text>
</g>
<!-- 3&#45;&gt;1 -->
<g id="edge3" class="edge"><title>3&#45;&gt;1</title>
<path fill="none" stroke="black" d="M410.912,-127.062C395.846,-113.415 374.645,-94.2104 357.865,-79.0112"/>
<polygon fill="black" stroke="black" points="359.791,-76.033 350.03,-71.9135 355.091,-81.221 359.791,-76.033"/>
</g>
<!-- 12 -->
<g id="node10" class="node"><title>12</title>
<polygon fill="khaki" stroke="black" stroke-dasharray="1,5" points="673.441,-39.6615 673.441,-67.6908 601.131,-87.5105 498.869,-87.5105 426.559,-67.6908 426.559,-39.6615 498.869,-19.8418 601.131,-19.8418 673.441,-39.6615"/>
<polygon fill="none" stroke="black" stroke-dasharray="1,5" points="677.449,-36.5936 677.449,-70.7586 601.669,-91.5293 498.331,-91.5293 422.551,-70.7586 422.551,-36.5936 498.331,-15.823 601.669,-15.823 677.449,-36.5936"/>
<text text-anchor="middle" x="550" y="-57.4761" font-family="Times,serif" font-size="14.00">Unknown Module</text>
<text text-anchor="middle" x="550" y="-42.4761" font-family="Times,serif" font-size="14.00">Class: MonadState</text>
</g>
<!-- 3&#45;&gt;12 -->
<g id="edge4" class="edge"><title>3&#45;&gt;12</title>
<path fill="none" stroke="black" d="M452.854,-127.274C464.223,-118.778 478.525,-108.089 492.633,-97.5463"/>
<polygon fill="black" stroke="black" points="494.979,-100.163 500.894,-91.3732 490.788,-94.5558 494.979,-100.163"/>
</g>
<!-- 4 -->
<g id="node3" class="node"><title>4</title>
<polygon fill="goldenrod" stroke="black" stroke-width="2" points="701,-163.352 619,-163.352 619,-127.352 701,-127.352 701,-163.352"/>
<text text-anchor="middle" x="660" y="-141.652" font-family="Times,serif" font-size="14.00">lGet</text>
</g>
<!-- 4&#45;&gt;1 -->
<g id="edge5" class="edge"><title>4&#45;&gt;1</title>
<path fill="none" stroke="black" d="M618.944,-129.862C615.932,-128.963 612.928,-128.115 610,-127.352 524.289,-105.038 498.642,-117.43 414,-91.3523 400.683,-87.2494 386.66,-81.6032 374.008,-75.97"/>
<polygon fill="black" stroke="black" points="375.185,-72.6601 364.635,-71.6906 372.278,-79.0278 375.185,-72.6601"/>
</g>
<!-- 4&#45;&gt;12 -->
<g id="edge6" class="edge"><title>4&#45;&gt;12</title>
<path fill="none" stroke="black" d="M639.051,-127.274C628.727,-118.857 615.763,-108.289 602.949,-97.8419"/>
<polygon fill="black" stroke="black" points="604.976,-94.9792 595.014,-91.3732 600.553,-100.405 604.976,-94.9792"/>
</g>
<!-- 5 -->
<g id="node4" class="node"><title>5</title>
<polygon fill="goldenrod" stroke="black" stroke-width="2" points="361,-163.352 281,-163.352 281,-127.352 361,-127.352 361,-163.352"/>
<text text-anchor="middle" x="321" y="-141.652" font-family="Times,serif" font-size="14.00">lPut</text>
</g>
<!-- 5&#45;&gt;1 -->
<g id="edge7" class="edge"><title>5&#45;&gt;1</title>
<path fill="none" stroke="black" d="M322.928,-127.062C324.353,-114.284 326.321,-96.6321 327.958,-81.9591"/>
<polygon fill="black" stroke="black" points="331.448,-82.2398 329.078,-71.9135 324.491,-81.464 331.448,-82.2398"/>
</g>
<!-- 5&#45;&gt;12 -->
<g id="edge8" class="edge"><title>5&#45;&gt;12</title>
<path fill="none" stroke="black" stroke-width="1.69315" d="M361.151,-128.629C389.529,-117.516 428.642,-102.2 463.914,-88.3872"/>
<polygon fill="black" stroke="black" stroke-width="1.69315" points="465.233,-91.6298 473.268,-84.7243 462.68,-85.1117 465.233,-91.6298"/>
</g>
<!-- 7 -->
<g id="node5" class="node"><title>7</title>
<polygon fill="gold" stroke="black" stroke-width="2" points="601,-163.352 499,-163.352 499,-127.352 601,-127.352 601,-163.352"/>
<text text-anchor="middle" x="550" y="-141.652" font-family="Times,serif" font-size="14.00">putBase</text>
</g>
<!-- 7&#45;&gt;1 -->
<g id="edge9" class="edge"><title>7&#45;&gt;1</title>
<path fill="none" stroke="black" d="M504.775,-127.306C478.219,-117.153 444.07,-103.848 414,-91.3523 402.291,-86.4867 389.741,-81.0554 378.035,-75.895"/>
<polygon fill="black" stroke="black" points="379.422,-72.6811 368.861,-71.8305 376.586,-79.0811 379.422,-72.6811"/>
</g>
<!-- 7&#45;&gt;12 -->
<g id="edge10" class="edge"><title>7&#45;&gt;12</title>
<path fill="none" stroke="black" d="M550,-127.062C550,-119.74 550,-110.818 550,-101.773"/>
<polygon fill="black" stroke="black" points="553.5,-101.588 550,-91.5876 546.5,-101.588 553.5,-101.588"/>
</g>
<!-- 8 -->
<g id="node6" class="node"><title>8</title>
<polygon fill="gold" stroke="black" stroke-width="2" points="262.5,-163.352 151.5,-163.352 151.5,-127.352 262.5,-127.352 262.5,-163.352"/>
<text text-anchor="middle" x="207" y="-141.652" font-family="Times,serif" font-size="14.00">runLensT</text>
</g>
<!-- 8&#45;&gt;1 -->
<g id="edge11" class="edge"><title>8&#45;&gt;1</title>
<path fill="none" stroke="black" d="M230.615,-127.274C250.094,-113.187 277.906,-93.0733 299.318,-77.5881"/>
<polygon fill="black" stroke="black" points="301.421,-80.3872 307.473,-71.691 297.318,-74.7151 301.421,-80.3872"/>
</g>
<!-- 9 -->
<g id="node7" class="node"><title>9</title>
<polygon fill="gold" stroke="black" stroke-width="2" points="224.5,-239.548 141.5,-239.548 141.5,-203.548 224.5,-203.548 224.5,-239.548"/>
<text text-anchor="middle" x="183" y="-217.848" font-family="Times,serif" font-size="14.00">with</text>
</g>
<!-- 10 -->
<g id="node8" class="node"><title>10</title>
<polygon fill="goldenrod" stroke="black" stroke-width="2" points="133.5,-163.352 16.5,-163.352 16.5,-127.352 133.5,-127.352 133.5,-163.352"/>
<text text-anchor="middle" x="75" y="-141.652" font-family="Times,serif" font-size="14.00">withLensT</text>
</g>
<!-- 9&#45;&gt;10 -->
<g id="edge12" class="edge"><title>9&#45;&gt;10</title>
<path fill="none" stroke="black" d="M158.223,-203.526C143.51,-193.418 124.656,-180.466 108.614,-169.445"/>
<polygon fill="black" stroke="black" points="110.26,-166.33 100.036,-163.552 106.297,-172.099 110.26,-166.33"/>
</g>
<!-- 10&#45;&gt;1 -->
<g id="edge13" class="edge"><title>10&#45;&gt;1</title>
<path fill="none" stroke="black" stroke-width="1.69315" d="M123.754,-127.274C166.192,-112.408 227.791,-90.8299 272.801,-75.063"/>
<polygon fill="black" stroke="black" stroke-width="1.69315" points="274.147,-78.3003 282.427,-71.691 271.832,-71.6939 274.147,-78.3003"/>
</g>
<!-- 11 -->
<g id="node9" class="node"><title>11</title>
<polygon fill="gold" stroke="black" stroke-width="2" points="123,-239.548 19,-239.548 19,-203.548 123,-203.548 123,-239.548"/>
<text text-anchor="middle" x="71" y="-217.848" font-family="Times,serif" font-size="14.00">withTop</text>
</g>
<!-- 11&#45;&gt;10 -->
<g id="edge14" class="edge"><title>11&#45;&gt;10</title>
<path fill="none" stroke="black" d="M71.9277,-203.339C72.4023,-194.537 72.9912,-183.613 73.5261,-173.692"/>
<polygon fill="black" stroke="black" points="77.0338,-173.641 74.0773,-163.467 70.0439,-173.264 77.0338,-173.641"/>
</g>
<!-- 2 -->
<g id="node11" class="node"><title>2</title>
<polygon fill="bisque" stroke="black" stroke-width="2" points="1187.28,-212.272 1187.28,-230.823 1051.8,-243.941 860.2,-243.941 724.718,-230.823 724.718,-212.272 860.2,-199.155 1051.8,-199.155 1187.28,-212.272"/>
<text text-anchor="middle" x="956" y="-217.848" font-family="Times,serif" font-size="14.00">Class: MonadState, Data: v (LensT b v b m)</text>
</g>
<!-- 12&#45;&gt;2 -->
<g id="edge15" class="edge"><title>12&#45;&gt;2</title>
<path fill="none" stroke="navy" stroke-width="1.69315" d="M624.794,-85.2332C705.784,-118.322 832.864,-170.241 903.754,-199.203"/>
</g>
<!-- 2&#45;&gt;4 -->
<g id="edge1" class="edge"><title>2&#45;&gt;4</title>
<path fill="none" stroke="black" d="M871.178,-199.286C819.511,-186.335 755.197,-170.214 711.205,-159.187"/>
<polygon fill="black" stroke="black" points="711.862,-155.744 701.311,-156.707 710.16,-162.534 711.862,-155.744"/>
</g>
<!-- 2&#45;&gt;5 -->
<g id="edge2" class="edge"><title>2&#45;&gt;5</title>
<path fill="none" stroke="black" d="M818.913,-203.151C784.373,-199.023 747.35,-194.817 713,-191.352 564.09,-176.334 521.484,-194.096 371.205,-163.284"/>
<polygon fill="black" stroke="black" points="371.653,-159.802 361.148,-161.183 370.221,-166.654 371.653,-159.802"/>
</g>
</g>
</svg>
