<?xml version="1.0" encoding="UTF-8" standalone="no"?>
<!DOCTYPE svg PUBLIC "-//W3C//DTD SVG 1.1//EN"
 "http://www.w3.org/Graphics/SVG/1.1/DTD/svg11.dtd">
<!-- Generated by graphviz version 2.38.0 (20140413.2041)
 -->
<!-- Title: Levels within Snap.TestCommon Pages: 1 -->
<svg width="212pt" height="171pt"
 viewBox="0.00 0.00 212.00 171.00" xmlns="http://www.w3.org/2000/svg" xmlns:xlink="http://www.w3.org/1999/xlink">
<g id="graph0" class="graph" transform="scale(1 1) rotate(0) translate(4 167)">
<title>Levels within Snap.TestCommon</title>
<polygon fill="white" stroke="none" points="-4,4 -4,-167 208,-167 208,4 -4,4"/>
<g id="clust1" class="cluster"><title>cluster_0</title>
<polygon fill="lavender" stroke="black" points="8,-8 8,-155 196,-155 196,-8 8,-8"/>
<text text-anchor="middle" x="102" y="-139.8" font-family="Times,serif" font-size="14.00">Exported root entities</text>
</g>
<!-- 1 -->
<g id="node1" class="node"><title>1</title>
<polygon fill="goldenrod" stroke="black" stroke-width="2" points="167.5,-52 36.5,-52 36.5,-16 167.5,-16 167.5,-52"/>
<text text-anchor="middle" x="102" y="-30.3" font-family="Times,serif" font-size="14.00">systemOrDie</text>
</g>
<!-- 2 -->
<g id="node2" class="node"><title>2</title>
<polygon fill="gold" stroke="black" stroke-width="2" points="187.5,-124 16.5,-124 16.5,-88 187.5,-88 187.5,-124"/>
<text text-anchor="middle" x="102" y="-102.3" font-family="Times,serif" font-size="14.00">testGeneratedProject</text>
</g>
<!-- 2&#45;&gt;1 -->
<g id="edge1" class="edge"><title>2&#45;&gt;1</title>
<path fill="none" stroke="chartreuse" stroke-width="2.09861" d="M102,-87.6966C102,-79.9827 102,-70.7125 102,-62.1124"/>
<polygon fill="chartreuse" stroke="chartreuse" stroke-width="2.09861" points="105.5,-62.1043 102,-52.1043 98.5001,-62.1044 105.5,-62.1043"/>
</g>
</g>
</svg>
