<?xml version="1.0" encoding="UTF-8" standalone="no"?>
<!DOCTYPE svg PUBLIC "-//W3C//DTD SVG 1.1//EN"
 "http://www.w3.org/Graphics/SVG/1.1/DTD/svg11.dtd">
<!-- Generated by graphviz version 2.38.0 (20140413.2041)
 -->
<!-- Title: Diagram of: Snap.Snaplet.Auth.AuthManager Pages: 1 -->
<svg width="2852pt" height="302pt"
 viewBox="0.00 0.00 2851.59 301.59" xmlns="http://www.w3.org/2000/svg" xmlns:xlink="http://www.w3.org/1999/xlink">
<g id="graph0" class="graph" transform="scale(1 1) rotate(0) translate(4 297.587)">
<title>Diagram of: Snap.Snaplet.Auth.AuthManager</title>
<polygon fill="white" stroke="none" points="-4,4 -4,-297.587 2847.59,-297.587 2847.59,4 -4,4"/>
<g id="clust1" class="cluster"><title>cluster_Class_IAuthBackend</title>
<path fill="#ffc1c1" stroke="black" d="M159.5,-80C159.5,-80 1305.5,-80 1305.5,-80 1311.5,-80 1317.5,-86 1317.5,-92 1317.5,-92 1317.5,-273.587 1317.5,-273.587 1317.5,-279.587 1311.5,-285.587 1305.5,-285.587 1305.5,-285.587 159.5,-285.587 159.5,-285.587 153.5,-285.587 147.5,-279.587 147.5,-273.587 147.5,-273.587 147.5,-92 147.5,-92 147.5,-86 153.5,-80 159.5,-80"/>
<text text-anchor="middle" x="732.5" y="-270.387" font-family="Times,serif" font-size="14.00">Class: IAuthBackend</text>
</g>
<g id="clust2" class="cluster"><title>cluster_Class_IAuthBackend_Data_AuthManagerb</title>
<path fill="#c6e2ff" stroke="black" d="M191.5,-171.196C191.5,-171.196 1297.5,-171.196 1297.5,-171.196 1303.5,-171.196 1309.5,-177.196 1309.5,-183.196 1309.5,-183.196 1309.5,-242.587 1309.5,-242.587 1309.5,-248.587 1303.5,-254.587 1297.5,-254.587 1297.5,-254.587 191.5,-254.587 191.5,-254.587 185.5,-254.587 179.5,-248.587 179.5,-242.587 179.5,-242.587 179.5,-183.196 179.5,-183.196 179.5,-177.196 185.5,-171.196 191.5,-171.196"/>
<text text-anchor="middle" x="744.5" y="-239.387" font-family="Times,serif" font-size="14.00">Instance for: (AuthManager b)</text>
</g>
<g id="clust3" class="cluster"><title>cluster_Data_AuthManager</title>
<path fill="papayawhip" stroke="black" d="M1369.5,-8C1369.5,-8 2702.5,-8 2702.5,-8 2708.5,-8 2714.5,-14 2714.5,-20 2714.5,-20 2714.5,-151.196 2714.5,-151.196 2714.5,-157.196 2708.5,-163.196 2702.5,-163.196 2702.5,-163.196 1369.5,-163.196 1369.5,-163.196 1363.5,-163.196 1357.5,-157.196 1357.5,-151.196 1357.5,-151.196 1357.5,-20 1357.5,-20 1357.5,-14 1363.5,-8 1369.5,-8"/>
<text text-anchor="middle" x="2036" y="-147.996" font-family="Times,serif" font-size="14.00">Data: AuthManager</text>
</g>
<!-- 6 -->
<g id="node1" class="node"><title>6</title>
<polygon fill="bisque" stroke="black" stroke-width="2" points="337.512,-192.116 337.512,-210.667 293.571,-223.784 231.429,-223.784 187.488,-210.667 187.488,-192.116 231.429,-178.998 293.571,-178.998 337.512,-192.116"/>
<text text-anchor="middle" x="262.5" y="-197.691" font-family="Times,serif" font-size="14.00">destroy</text>
</g>
<!-- 5 -->
<g id="node6" class="node"><title>5</title>
<polygon fill="goldenrod" stroke="black" stroke-width="2" points="463.512,-104.933 463.512,-123.459 419.571,-136.558 357.429,-136.558 313.488,-123.459 313.488,-104.933 357.429,-91.833 419.571,-91.833 463.512,-104.933"/>
<polygon fill="none" stroke="black" stroke-width="2" points="467.512,-101.922 467.512,-126.469 420.15,-140.588 356.85,-140.588 309.488,-126.469 309.488,-101.922 356.85,-87.8029 420.15,-87.8029 467.512,-101.922"/>
<text text-anchor="middle" x="388.5" y="-110.496" font-family="Times,serif" font-size="14.00">destroy</text>
</g>
<!-- 6&#45;&gt;5 -->
<g id="edge7" class="edge"><title>6&#45;&gt;5</title>
<path fill="none" stroke="black" d="M288.036,-179.113C302.93,-168.439 322.113,-155.36 339.751,-143.819"/>
<polygon fill="black" stroke="black" points="341.779,-146.676 348.26,-138.295 337.967,-140.805 341.779,-146.676"/>
</g>
<!-- 1 -->
<g id="node11" class="node"><title>1</title>
<polygon fill="goldenrod" stroke="black" stroke-width="2" points="2417.5,-52 2287.5,-52 2283.5,-48 2283.5,-16 2413.5,-16 2417.5,-20 2417.5,-52"/>
<polyline fill="none" stroke="black" stroke-width="2" points="2413.5,-48 2283.5,-48 "/>
<polyline fill="none" stroke="black" stroke-width="2" points="2413.5,-48 2413.5,-16 "/>
<polyline fill="none" stroke="black" stroke-width="2" points="2413.5,-48 2417.5,-52 "/>
<text text-anchor="middle" x="2350.5" y="-30.3" font-family="Times,serif" font-size="14.00">AuthManager</text>
</g>
<!-- 6&#45;&gt;1 -->
<g id="edge5" class="edge"><title>6&#45;&gt;1</title>
<path fill="none" stroke="black" d="M305.383,-182.473C318.362,-177.877 332.808,-173.565 346.5,-171.196 359.844,-168.886 1310.25,-170.734 1321.5,-163.196 1354.82,-140.864 1323.6,-102.945 1356.5,-80 1393.9,-53.9238 2045.7,-40.2512 2273.04,-36.2595"/>
<polygon fill="black" stroke="black" points="2273.28,-39.7559 2283.22,-36.0822 2273.16,-32.757 2273.28,-39.7559"/>
</g>
<!-- 3 -->
<g id="node13" class="node"><title>3</title>
<polygon fill="goldenrod" stroke="black" stroke-width="2" points="2338.5,-132.196 2234.5,-132.196 2234.5,-128.196 2230.5,-128.196 2230.5,-124.196 2234.5,-124.196 2234.5,-104.196 2230.5,-104.196 2230.5,-100.196 2234.5,-100.196 2234.5,-96.1956 2338.5,-96.1956 2338.5,-132.196"/>
<polyline fill="none" stroke="black" stroke-width="2" points="2234.5,-128.196 2238.5,-128.196 2238.5,-124.196 2234.5,-124.196 "/>
<polyline fill="none" stroke="black" stroke-width="2" points="2234.5,-104.196 2238.5,-104.196 2238.5,-100.196 2234.5,-100.196 "/>
<text text-anchor="middle" x="2286.5" y="-110.496" font-family="Times,serif" font-size="14.00">backend</text>
</g>
<!-- 6&#45;&gt;3 -->
<g id="edge6" class="edge"><title>6&#45;&gt;3</title>
<path fill="none" stroke="black" d="M305.377,-182.439C318.356,-177.842 332.804,-173.538 346.5,-171.196 397.948,-162.397 2176.21,-180.379 2225.5,-163.196 2239.49,-158.317 2252.72,-148.772 2263.26,-139.471"/>
<polygon fill="black" stroke="black" points="2265.83,-141.862 2270.76,-132.487 2261.06,-136.739 2265.83,-141.862"/>
</g>
<!-- 9 -->
<g id="node2" class="node"><title>9</title>
<polygon fill="bisque" stroke="black" stroke-width="2" points="721.926,-192.116 721.926,-210.667 657.24,-223.784 565.76,-223.784 501.074,-210.667 501.074,-192.116 565.76,-178.998 657.24,-178.998 721.926,-192.116"/>
<text text-anchor="middle" x="611.5" y="-197.691" font-family="Times,serif" font-size="14.00">lookupByLogin</text>
</g>
<!-- 8 -->
<g id="node7" class="node"><title>8</title>
<polygon fill="goldenrod" stroke="black" stroke-width="2" points="709.919,-104.933 709.919,-123.459 645.237,-136.558 553.763,-136.558 489.081,-123.459 489.081,-104.933 553.763,-91.833 645.237,-91.833 709.919,-104.933"/>
<polygon fill="none" stroke="black" stroke-width="2" points="713.926,-101.633 713.926,-126.758 645.636,-140.588 553.364,-140.588 485.074,-126.758 485.074,-101.633 553.364,-87.8029 645.636,-87.8029 713.926,-101.633"/>
<text text-anchor="middle" x="599.5" y="-110.496" font-family="Times,serif" font-size="14.00">lookupByLogin</text>
</g>
<!-- 9&#45;&gt;8 -->
<g id="edge12" class="edge"><title>9&#45;&gt;8</title>
<path fill="none" stroke="black" d="M602.52,-178.893C600.613,-170.35 598.958,-160.291 597.837,-150.723"/>
<polygon fill="black" stroke="black" points="601.307,-150.237 596.845,-140.627 594.34,-150.922 601.307,-150.237"/>
</g>
<!-- 9&#45;&gt;1 -->
<g id="edge10" class="edge"><title>9&#45;&gt;1</title>
<path fill="none" stroke="black" d="M673.67,-182.2C691.826,-177.69 711.814,-173.492 730.5,-171.196 744.409,-169.486 2738.61,-173.125 2748.5,-163.196 2774.59,-136.998 2773.13,-107.576 2748.5,-80 2727.55,-56.5527 2537.57,-43.7757 2427.83,-38.2949"/>
<polygon fill="black" stroke="black" points="2427.96,-34.7969 2417.8,-37.8028 2427.62,-41.7885 2427.96,-34.7969"/>
</g>
<!-- 9&#45;&gt;3 -->
<g id="edge11" class="edge"><title>9&#45;&gt;3</title>
<path fill="none" stroke="black" d="M673.672,-182.217C691.829,-177.707 711.816,-173.505 730.5,-171.196 771.715,-166.102 2186.29,-176.889 2225.5,-163.196 2239.49,-158.309 2252.72,-148.764 2263.26,-139.463"/>
<polygon fill="black" stroke="black" points="2265.82,-141.856 2270.76,-132.48 2261.05,-136.732 2265.82,-141.856"/>
</g>
<!-- 11 -->
<g id="node3" class="node"><title>11</title>
<polygon fill="bisque" stroke="black" stroke-width="2" points="1301.86,-192.116 1301.86,-210.667 1209.1,-223.784 1077.9,-223.784 985.138,-210.667 985.138,-192.116 1077.9,-178.998 1209.1,-178.998 1301.86,-192.116"/>
<text text-anchor="middle" x="1143.5" y="-197.691" font-family="Times,serif" font-size="14.00">lookupByRememberToken</text>
</g>
<!-- 10 -->
<g id="node8" class="node"><title>10</title>
<polygon fill="goldenrod" stroke="black" stroke-width="2" points="1305.86,-104.933 1305.86,-123.459 1213.1,-136.558 1081.9,-136.558 989.136,-123.459 989.136,-104.933 1081.9,-91.833 1213.1,-91.833 1305.86,-104.933"/>
<polygon fill="none" stroke="black" stroke-width="2" points="1309.86,-101.428 1309.86,-126.963 1213.38,-140.588 1081.62,-140.588 985.138,-126.963 985.138,-101.428 1081.62,-87.8029 1213.38,-87.8029 1309.86,-101.428"/>
<text text-anchor="middle" x="1147.5" y="-110.496" font-family="Times,serif" font-size="14.00">lookupByRememberToken</text>
</g>
<!-- 11&#45;&gt;10 -->
<g id="edge16" class="edge"><title>11&#45;&gt;10</title>
<path fill="none" stroke="black" d="M1138.56,-178.893C1138.25,-170.35 1138.49,-160.291 1139.17,-150.723"/>
<polygon fill="black" stroke="black" points="1142.66,-150.9 1140.07,-140.627 1135.69,-150.276 1142.66,-150.9"/>
</g>
<!-- 11&#45;&gt;1 -->
<g id="edge14" class="edge"><title>11&#45;&gt;1</title>
<path fill="none" stroke="black" d="M1302.15,-199.79C1715.97,-197.846 2798.1,-190.186 2824.5,-163.196 2850.36,-136.762 2849.38,-107.354 2824.5,-80 2798.37,-51.2729 2555.21,-40.4729 2427.71,-36.7601"/>
<polygon fill="black" stroke="black" points="2427.71,-33.2587 2417.61,-36.4739 2427.51,-40.2559 2427.71,-33.2587"/>
</g>
<!-- 11&#45;&gt;3 -->
<g id="edge15" class="edge"><title>11&#45;&gt;3</title>
<path fill="none" stroke="black" d="M1301.86,-200.373C1581.49,-199.54 2141.29,-193.985 2225.5,-163.196 2239.42,-158.107 2252.63,-148.533 2263.18,-139.266"/>
<polygon fill="black" stroke="black" points="2265.73,-141.677 2270.7,-132.319 2260.98,-136.537 2265.73,-141.677"/>
</g>
<!-- 13 -->
<g id="node4" class="node"><title>13</title>
<polygon fill="bisque" stroke="black" stroke-width="2" points="967.579,-192.116 967.579,-210.667 900.753,-223.784 806.247,-223.784 739.421,-210.667 739.421,-192.116 806.247,-178.998 900.753,-178.998 967.579,-192.116"/>
<text text-anchor="middle" x="853.5" y="-197.691" font-family="Times,serif" font-size="14.00">lookupByUserId</text>
</g>
<!-- 12 -->
<g id="node9" class="node"><title>12</title>
<polygon fill="goldenrod" stroke="black" stroke-width="2" points="963.578,-104.933 963.578,-123.459 896.753,-136.558 802.247,-136.558 735.422,-123.459 735.422,-104.933 802.247,-91.833 896.753,-91.833 963.578,-104.933"/>
<polygon fill="none" stroke="black" stroke-width="2" points="967.579,-101.611 967.579,-126.78 897.138,-140.588 801.862,-140.588 731.421,-126.78 731.421,-101.611 801.862,-87.8029 897.138,-87.8029 967.579,-101.611"/>
<text text-anchor="middle" x="849.5" y="-110.496" font-family="Times,serif" font-size="14.00">lookupByUserId</text>
</g>
<!-- 13&#45;&gt;12 -->
<g id="edge20" class="edge"><title>13&#45;&gt;12</title>
<path fill="none" stroke="black" d="M846.538,-178.893C845.434,-170.35 844.723,-160.291 844.501,-150.723"/>
<polygon fill="black" stroke="black" points="848.001,-150.612 844.457,-140.627 841.001,-150.643 848.001,-150.612"/>
</g>
<!-- 13&#45;&gt;1 -->
<g id="edge18" class="edge"><title>13&#45;&gt;1</title>
<path fill="none" stroke="black" d="M917.794,-182.206C936.562,-177.696 957.213,-173.496 976.5,-171.196 988.981,-169.707 2777.63,-172.103 2786.5,-163.196 2812.59,-136.992 2811.27,-107.455 2786.5,-80 2762.97,-53.9211 2546.62,-42.053 2427.8,-37.4621"/>
<polygon fill="black" stroke="black" points="2427.79,-33.9594 2417.67,-37.0791 2427.53,-40.9544 2427.79,-33.9594"/>
</g>
<!-- 13&#45;&gt;3 -->
<g id="edge19" class="edge"><title>13&#45;&gt;3</title>
<path fill="none" stroke="black" d="M917.797,-182.23C936.565,-177.721 957.216,-173.516 976.5,-171.196 1010.95,-167.052 2192.75,-174.653 2225.5,-163.196 2239.49,-158.302 2252.71,-148.755 2263.25,-139.456"/>
<polygon fill="black" stroke="black" points="2265.82,-141.849 2270.76,-132.475 2261.05,-136.725 2265.82,-141.849"/>
</g>
<!-- 19 -->
<g id="node5" class="node"><title>19</title>
<polygon fill="bisque" stroke="black" stroke-width="2" points="483.051,-192.116 483.051,-210.667 445.824,-223.784 393.176,-223.784 355.949,-210.667 355.949,-192.116 393.176,-178.998 445.824,-178.998 483.051,-192.116"/>
<text text-anchor="middle" x="419.5" y="-197.691" font-family="Times,serif" font-size="14.00">save</text>
</g>
<!-- 18 -->
<g id="node10" class="node"><title>18</title>
<polygon fill="goldenrod" stroke="black" stroke-width="2" points="287.049,-104.933 287.049,-123.459 249.823,-136.558 197.177,-136.558 159.951,-123.459 159.951,-104.933 197.177,-91.833 249.823,-91.833 287.049,-104.933"/>
<polygon fill="none" stroke="black" stroke-width="2" points="291.051,-102.072 291.051,-126.319 250.502,-140.588 196.498,-140.588 155.949,-126.319 155.949,-102.072 196.498,-87.8029 250.502,-87.8029 291.051,-102.072"/>
<text text-anchor="middle" x="223.5" y="-110.496" font-family="Times,serif" font-size="14.00">save</text>
</g>
<!-- 19&#45;&gt;18 -->
<g id="edge28" class="edge"><title>19&#45;&gt;18</title>
<path fill="none" stroke="black" d="M376.23,-184.774C363.803,-179.874 350.238,-174.808 337.5,-171.196 317.536,-165.534 310.886,-170.599 291.5,-163.196 279.888,-158.761 268.119,-152.5 257.657,-145.96"/>
<polygon fill="black" stroke="black" points="259.492,-142.978 249.207,-140.434 255.661,-148.837 259.492,-142.978"/>
</g>
<!-- 19&#45;&gt;1 -->
<g id="edge26" class="edge"><title>19&#45;&gt;1</title>
<path fill="none" stroke="black" d="M456.19,-182.595C467.559,-177.941 480.307,-173.566 492.5,-171.196 507.654,-168.249 2704.6,-174.131 2715.5,-163.196 2741.6,-137.003 2739.99,-107.699 2715.5,-80 2696.79,-58.8445 2529.61,-45.4371 2428.11,-39.1728"/>
<polygon fill="black" stroke="black" points="2428.09,-35.665 2417.89,-38.5526 2427.66,-42.6522 2428.09,-35.665"/>
</g>
<!-- 19&#45;&gt;3 -->
<g id="edge27" class="edge"><title>19&#45;&gt;3</title>
<path fill="none" stroke="black" d="M456.191,-182.602C467.56,-177.949 480.308,-173.572 492.5,-171.196 539.75,-161.984 2180.05,-179.052 2225.5,-163.196 2239.49,-158.314 2252.72,-148.769 2263.26,-139.468"/>
<polygon fill="black" stroke="black" points="2265.82,-141.86 2270.76,-132.485 2261.05,-136.737 2265.82,-141.86"/>
</g>
<!-- 5&#45;&gt;6 -->
<g id="edge4" class="edge"><title>5&#45;&gt;6</title>
<path fill="none" stroke="navy" d="M357.408,-140.428C339.448,-153.12 316.879,-168.293 298.2,-180.201"/>
</g>
<!-- 8&#45;&gt;9 -->
<g id="edge9" class="edge"><title>8&#45;&gt;9</title>
<path fill="none" stroke="navy" d="M609.319,-140.627C611.805,-152.817 613.744,-167.259 614.424,-178.893"/>
</g>
<!-- 10&#45;&gt;11 -->
<g id="edge13" class="edge"><title>10&#45;&gt;11</title>
<path fill="none" stroke="navy" d="M1152.54,-140.627C1152.74,-152.817 1151.97,-167.259 1150.46,-178.893"/>
</g>
<!-- 12&#45;&gt;13 -->
<g id="edge17" class="edge"><title>12&#45;&gt;13</title>
<path fill="none" stroke="navy" d="M856.931,-140.627C858.272,-152.817 858.855,-167.259 858.443,-178.893"/>
</g>
<!-- 18&#45;&gt;19 -->
<g id="edge25" class="edge"><title>18&#45;&gt;19</title>
<path fill="none" stroke="navy" d="M261.011,-137.204C275.619,-146.569 292.724,-156.789 309.5,-163.196 328.886,-170.599 335.536,-165.534 355.5,-171.196 365.48,-174.026 375.968,-177.749 385.548,-181.585"/>
</g>
<!-- 2 -->
<g id="node12" class="node"><title>2</title>
<polygon fill="gold" stroke="black" stroke-width="2" points="2472.5,-132.196 2356.5,-132.196 2356.5,-128.196 2352.5,-128.196 2352.5,-124.196 2356.5,-124.196 2356.5,-104.196 2352.5,-104.196 2352.5,-100.196 2356.5,-100.196 2356.5,-96.1956 2472.5,-96.1956 2472.5,-132.196"/>
<polyline fill="none" stroke="black" stroke-width="2" points="2356.5,-128.196 2360.5,-128.196 2360.5,-124.196 2356.5,-124.196 "/>
<polyline fill="none" stroke="black" stroke-width="2" points="2356.5,-104.196 2360.5,-104.196 2360.5,-100.196 2356.5,-100.196 "/>
<text text-anchor="middle" x="2414.5" y="-110.496" font-family="Times,serif" font-size="14.00">activeUser</text>
</g>
<!-- 2&#45;&gt;1 -->
<g id="edge1" class="edge"><title>2&#45;&gt;1</title>
<path fill="none" stroke="magenta" d="M2400.3,-95.8415C2391.62,-85.2397 2380.38,-71.5104 2370.78,-59.7775"/>
<polygon fill="magenta" stroke="magenta" points="2364.44,-52.0366 2374.26,-56.925 2367.61,-55.9059 2370.78,-59.7751 2370.78,-59.7751 2370.78,-59.7751 2367.61,-55.9059 2367.3,-62.6253 2364.44,-52.0366 2364.44,-52.0366"/>
</g>
<!-- 3&#45;&gt;1 -->
<g id="edge2" class="edge"><title>3&#45;&gt;1</title>
<path fill="none" stroke="magenta" d="M2300.7,-95.8415C2309.38,-85.2397 2320.62,-71.5104 2330.22,-59.7775"/>
<polygon fill="magenta" stroke="magenta" points="2336.56,-52.0366 2333.7,-62.6253 2333.39,-55.9059 2330.22,-59.7751 2330.22,-59.7751 2330.22,-59.7751 2333.39,-55.9059 2326.74,-56.925 2336.56,-52.0366 2336.56,-52.0366"/>
</g>
<!-- 7 -->
<g id="node14" class="node"><title>7</title>
<polygon fill="gold" stroke="black" stroke-width="2" points="2216,-132.196 2117,-132.196 2117,-128.196 2113,-128.196 2113,-124.196 2117,-124.196 2117,-104.196 2113,-104.196 2113,-100.196 2117,-100.196 2117,-96.1956 2216,-96.1956 2216,-132.196"/>
<polyline fill="none" stroke="black" stroke-width="2" points="2117,-128.196 2121,-128.196 2121,-124.196 2117,-124.196 "/>
<polyline fill="none" stroke="black" stroke-width="2" points="2117,-104.196 2121,-104.196 2121,-100.196 2117,-100.196 "/>
<text text-anchor="middle" x="2166.5" y="-110.496" font-family="Times,serif" font-size="14.00">lockout</text>
</g>
<!-- 7&#45;&gt;1 -->
<g id="edge8" class="edge"><title>7&#45;&gt;1</title>
<path fill="none" stroke="magenta" d="M2194.51,-96.1743C2204.15,-90.6569 2215.13,-84.7424 2225.5,-80 2245.24,-70.9713 2267.35,-62.4999 2287.43,-55.3961"/>
<polygon fill="magenta" stroke="magenta" points="2297.11,-52.0221 2289.15,-59.5641 2292.39,-53.6686 2287.67,-55.3151 2287.67,-55.3151 2287.67,-55.3151 2292.39,-53.6686 2286.18,-51.0661 2297.11,-52.0221 2297.11,-52.0221"/>
</g>
<!-- 14 -->
<g id="node15" class="node"><title>14</title>
<polygon fill="gold" stroke="black" stroke-width="2" points="2098.5,-132.196 1956.5,-132.196 1956.5,-128.196 1952.5,-128.196 1952.5,-124.196 1956.5,-124.196 1956.5,-104.196 1952.5,-104.196 1952.5,-100.196 1956.5,-100.196 1956.5,-96.1956 2098.5,-96.1956 2098.5,-132.196"/>
<polyline fill="none" stroke="black" stroke-width="2" points="1956.5,-128.196 1960.5,-128.196 1960.5,-124.196 1956.5,-124.196 "/>
<polyline fill="none" stroke="black" stroke-width="2" points="1956.5,-104.196 1960.5,-104.196 1960.5,-100.196 1956.5,-100.196 "/>
<text text-anchor="middle" x="2027.5" y="-110.496" font-family="Times,serif" font-size="14.00">minPasswdLen</text>
</g>
<!-- 14&#45;&gt;1 -->
<g id="edge21" class="edge"><title>14&#45;&gt;1</title>
<path fill="none" stroke="magenta" d="M2064.43,-96.193C2078.06,-90.418 2093.78,-84.3362 2108.5,-80 2162.65,-64.052 2225.36,-52.5804 2273.37,-45.212"/>
<polygon fill="magenta" stroke="magenta" points="2283.38,-43.7018 2274.17,-49.6429 2278.44,-44.4475 2273.49,-45.1932 2273.49,-45.1932 2273.49,-45.1932 2278.44,-44.4475 2272.82,-40.7435 2283.38,-43.7018 2283.38,-43.7018"/>
</g>
<!-- 15 -->
<g id="node16" class="node"><title>15</title>
<polygon fill="gold" stroke="black" stroke-width="2" points="1938.5,-132.196 1738.5,-132.196 1738.5,-128.196 1734.5,-128.196 1734.5,-124.196 1738.5,-124.196 1738.5,-104.196 1734.5,-104.196 1734.5,-100.196 1738.5,-100.196 1738.5,-96.1956 1938.5,-96.1956 1938.5,-132.196"/>
<polyline fill="none" stroke="black" stroke-width="2" points="1738.5,-128.196 1742.5,-128.196 1742.5,-124.196 1738.5,-124.196 "/>
<polyline fill="none" stroke="black" stroke-width="2" points="1738.5,-104.196 1742.5,-104.196 1742.5,-100.196 1738.5,-100.196 "/>
<text text-anchor="middle" x="1838.5" y="-110.496" font-family="Times,serif" font-size="14.00">randomNumberGenerator</text>
</g>
<!-- 15&#45;&gt;1 -->
<g id="edge22" class="edge"><title>15&#45;&gt;1</title>
<path fill="none" stroke="magenta" d="M1887.65,-96.1215C1906.21,-90.2338 1927.64,-84.0961 1947.5,-80 2059.41,-56.917 2191.41,-45.0151 2273.04,-39.395"/>
<polygon fill="magenta" stroke="magenta" points="2283.23,-38.708 2273.56,-43.8705 2278.24,-39.0443 2273.26,-39.3807 2273.26,-39.3807 2273.26,-39.3807 2278.24,-39.0443 2272.95,-34.8908 2283.23,-38.708 2283.23,-38.708"/>
</g>
<!-- 16 -->
<g id="node17" class="node"><title>16</title>
<polygon fill="gold" stroke="black" stroke-width="2" points="1720,-132.196 1533,-132.196 1533,-128.196 1529,-128.196 1529,-124.196 1533,-124.196 1533,-104.196 1529,-104.196 1529,-100.196 1533,-100.196 1533,-96.1956 1720,-96.1956 1720,-132.196"/>
<polyline fill="none" stroke="black" stroke-width="2" points="1533,-128.196 1537,-128.196 1537,-124.196 1533,-124.196 "/>
<polyline fill="none" stroke="black" stroke-width="2" points="1533,-104.196 1537,-104.196 1537,-100.196 1533,-100.196 "/>
<text text-anchor="middle" x="1626.5" y="-110.496" font-family="Times,serif" font-size="14.00">rememberCookieName</text>
</g>
<!-- 16&#45;&gt;1 -->
<g id="edge23" class="edge"><title>16&#45;&gt;1</title>
<path fill="none" stroke="magenta" d="M1671.27,-96.1893C1689.13,-90.0862 1710.04,-83.7834 1729.5,-80 1922.56,-42.4588 2154.88,-35.5497 2273.14,-34.6939"/>
<polygon fill="magenta" stroke="magenta" points="2283.18,-34.6339 2273.21,-39.1937 2278.18,-34.6638 2273.18,-34.6937 2273.18,-34.6937 2273.18,-34.6937 2278.18,-34.6638 2273.16,-30.1938 2283.18,-34.6339 2283.18,-34.6339"/>
</g>
<!-- 17 -->
<g id="node18" class="node"><title>17</title>
<polygon fill="gold" stroke="black" stroke-width="2" points="1515.5,-132.196 1365.5,-132.196 1365.5,-128.196 1361.5,-128.196 1361.5,-124.196 1365.5,-124.196 1365.5,-104.196 1361.5,-104.196 1361.5,-100.196 1365.5,-100.196 1365.5,-96.1956 1515.5,-96.1956 1515.5,-132.196"/>
<polyline fill="none" stroke="black" stroke-width="2" points="1365.5,-128.196 1369.5,-128.196 1369.5,-124.196 1365.5,-124.196 "/>
<polyline fill="none" stroke="black" stroke-width="2" points="1365.5,-104.196 1369.5,-104.196 1369.5,-100.196 1365.5,-100.196 "/>
<text text-anchor="middle" x="1440.5" y="-110.496" font-family="Times,serif" font-size="14.00">rememberPeriod</text>
</g>
<!-- 17&#45;&gt;1 -->
<g id="edge24" class="edge"><title>17&#45;&gt;1</title>
<path fill="none" stroke="magenta" d="M1476.09,-96.1942C1490.75,-89.9735 1508.11,-83.586 1524.5,-80 1665.82,-49.0809 2096.27,-38.9572 2273.25,-36.047"/>
<polygon fill="magenta" stroke="magenta" points="2283.27,-35.8855 2273.35,-40.5462 2278.27,-35.9662 2273.27,-36.0468 2273.27,-36.0468 2273.27,-36.0468 2278.27,-35.9662 2273.2,-31.5474 2283.27,-35.8855 2283.27,-35.8855"/>
</g>
<!-- 20 -->
<g id="node19" class="node"><title>20</title>
<polygon fill="gold" stroke="black" stroke-width="2" points="2706.5,-132.196 2608.5,-132.196 2608.5,-128.196 2604.5,-128.196 2604.5,-124.196 2608.5,-124.196 2608.5,-104.196 2604.5,-104.196 2604.5,-100.196 2608.5,-100.196 2608.5,-96.1956 2706.5,-96.1956 2706.5,-132.196"/>
<polyline fill="none" stroke="black" stroke-width="2" points="2608.5,-128.196 2612.5,-128.196 2612.5,-124.196 2608.5,-124.196 "/>
<polyline fill="none" stroke="black" stroke-width="2" points="2608.5,-104.196 2612.5,-104.196 2612.5,-100.196 2608.5,-100.196 "/>
<text text-anchor="middle" x="2657.5" y="-110.496" font-family="Times,serif" font-size="14.00">session</text>
</g>
<!-- 20&#45;&gt;1 -->
<g id="edge29" class="edge"><title>20&#45;&gt;1</title>
<path fill="none" stroke="magenta" d="M2632.14,-96.1797C2622.31,-90.2625 2610.73,-84.0899 2599.5,-80 2543.89,-59.7451 2477.86,-48.3463 2427.76,-42.0918"/>
<polygon fill="magenta" stroke="magenta" points="2417.65,-40.8712 2428.11,-37.6015 2422.61,-41.4702 2427.58,-42.0691 2427.58,-42.0691 2427.58,-42.0691 2422.61,-41.4702 2427.04,-46.5367 2417.65,-40.8712 2417.65,-40.8712"/>
</g>
<!-- 21 -->
<g id="node20" class="node"><title>21</title>
<polygon fill="gold" stroke="black" stroke-width="2" points="2590.5,-132.196 2490.5,-132.196 2490.5,-128.196 2486.5,-128.196 2486.5,-124.196 2490.5,-124.196 2490.5,-104.196 2486.5,-104.196 2486.5,-100.196 2490.5,-100.196 2490.5,-96.1956 2590.5,-96.1956 2590.5,-132.196"/>
<polyline fill="none" stroke="black" stroke-width="2" points="2490.5,-128.196 2494.5,-128.196 2494.5,-124.196 2490.5,-124.196 "/>
<polyline fill="none" stroke="black" stroke-width="2" points="2490.5,-104.196 2494.5,-104.196 2494.5,-100.196 2490.5,-100.196 "/>
<text text-anchor="middle" x="2540.5" y="-110.496" font-family="Times,serif" font-size="14.00">siteKey</text>
</g>
<!-- 21&#45;&gt;1 -->
<g id="edge30" class="edge"><title>21&#45;&gt;1</title>
<path fill="none" stroke="magenta" d="M2512.53,-96.0861C2502.89,-90.5622 2491.9,-84.6662 2481.5,-80 2461.04,-70.8232 2438.11,-62.362 2417.22,-55.3123"/>
<polygon fill="magenta" stroke="magenta" points="2407.47,-52.0719 2418.38,-50.9542 2412.21,-53.6483 2416.96,-55.2247 2416.96,-55.2247 2416.96,-55.2247 2412.21,-53.6483 2415.54,-59.4952 2407.47,-52.0719 2407.47,-52.0719"/>
</g>
<!-- 4 -->
<g id="node21" class="node"><title>4</title>
<polygon fill="gold" stroke="black" stroke-width="2" points="139,-219.391 0,-219.391 0,-183.391 139,-183.391 139,-219.391"/>
<text text-anchor="middle" x="69.5" y="-197.691" font-family="Times,serif" font-size="14.00">buildAuthUser</text>
</g>
<!-- 4&#45;&gt;18 -->
<g id="edge3" class="edge"><title>4&#45;&gt;18</title>
<path fill="none" stroke="black" d="M100.294,-183.355C121.949,-171.376 151.34,-155.116 175.985,-141.482"/>
<polygon fill="black" stroke="black" points="177.77,-144.494 184.826,-136.591 174.382,-138.369 177.77,-144.494"/>
</g>
</g>
</svg>
