<?xml version="1.0" encoding="UTF-8" standalone="no"?>
<!DOCTYPE svg PUBLIC "-//W3C//DTD SVG 1.1//EN"
 "http://www.w3.org/Graphics/SVG/1.1/DTD/svg11.dtd">
<!-- Generated by graphviz version 2.38.0 (20140413.2041)
 -->
<!-- Title: Diagram of: Snap.Snaplet.Session.Common Pages: 1 -->
<svg width="259pt" height="279pt"
 viewBox="0.00 0.00 258.50 279.00" xmlns="http://www.w3.org/2000/svg" xmlns:xlink="http://www.w3.org/1999/xlink">
<g id="graph0" class="graph" transform="scale(1 1) rotate(0) translate(4 275)">
<title>Diagram of: Snap.Snaplet.Session.Common</title>
<polygon fill="white" stroke="none" points="-4,4 -4,-275 254.5,-275 254.5,4 -4,4"/>
<g id="clust1" class="cluster"><title>cluster_Data_RNG</title>
<path fill="papayawhip" stroke="black" d="M75.5,-8C75.5,-8 155.5,-8 155.5,-8 161.5,-8 167.5,-14 167.5,-20 167.5,-20 167.5,-71 167.5,-71 167.5,-77 161.5,-83 155.5,-83 155.5,-83 75.5,-83 75.5,-83 69.5,-83 63.5,-77 63.5,-71 63.5,-71 63.5,-20 63.5,-20 63.5,-14 69.5,-8 75.5,-8"/>
<text text-anchor="middle" x="115.5" y="-67.8" font-family="Times,serif" font-size="14.00">Data: RNG</text>
</g>
<!-- 1 -->
<g id="node1" class="node"><title>1</title>
<polygon fill="cyan" stroke="black" stroke-width="2" points="159,-52 76,-52 72,-48 72,-16 155,-16 159,-20 159,-52"/>
<polyline fill="none" stroke="black" stroke-width="2" points="155,-48 72,-48 "/>
<polyline fill="none" stroke="black" stroke-width="2" points="155,-48 155,-16 "/>
<polyline fill="none" stroke="black" stroke-width="2" points="155,-48 159,-52 "/>
<text text-anchor="middle" x="115.5" y="-30.3" font-family="Times,serif" font-size="14.00">RNG</text>
</g>
<!-- 2 -->
<g id="node2" class="node"><title>2</title>
<polygon fill="gold" stroke="black" stroke-width="2" points="250.5,-271 106.5,-271 106.5,-235 250.5,-235 250.5,-271"/>
<text text-anchor="middle" x="178.5" y="-249.3" font-family="Times,serif" font-size="14.00">mkCSRFToken</text>
</g>
<!-- 4 -->
<g id="node4" class="node"><title>4</title>
<polygon fill="goldenrod" stroke="black" stroke-width="2" points="246,-199 111,-199 111,-163 246,-163 246,-199"/>
<text text-anchor="middle" x="178.5" y="-177.3" font-family="Times,serif" font-size="14.00">randomToken</text>
</g>
<!-- 2&#45;&gt;4 -->
<g id="edge1" class="edge"><title>2&#45;&gt;4</title>
<path fill="none" stroke="chartreuse" d="M178.5,-234.697C178.5,-226.983 178.5,-217.712 178.5,-209.112"/>
<polygon fill="chartreuse" stroke="chartreuse" points="182,-209.104 178.5,-199.104 175,-209.104 182,-209.104"/>
</g>
<!-- 3 -->
<g id="node3" class="node"><title>3</title>
<polygon fill="gold" stroke="black" stroke-width="2" points="105,-127 0,-127 0,-91 105,-91 105,-127"/>
<text text-anchor="middle" x="52.5" y="-105.3" font-family="Times,serif" font-size="14.00">mkRNG</text>
</g>
<!-- 3&#45;&gt;1 -->
<g id="edge2" class="edge"><title>3&#45;&gt;1</title>
<path fill="none" stroke="black" d="M67.4301,-90.7C75.3544,-81.5179 85.2346,-70.0695 93.973,-59.944"/>
<polygon fill="black" stroke="black" points="96.7932,-62.0331 100.677,-52.1758 91.4938,-57.4597 96.7932,-62.0331"/>
</g>
<!-- 5 -->
<g id="node5" class="node"><title>5</title>
<polygon fill="goldenrod" stroke="black" stroke-width="2" points="234,-127 123,-127 123,-91 234,-91 234,-127"/>
<text text-anchor="middle" x="178.5" y="-105.3" font-family="Times,serif" font-size="14.00">withRNG</text>
</g>
<!-- 4&#45;&gt;5 -->
<g id="edge3" class="edge"><title>4&#45;&gt;5</title>
<path fill="none" stroke="chartreuse" d="M178.5,-162.697C178.5,-154.983 178.5,-145.712 178.5,-137.112"/>
<polygon fill="chartreuse" stroke="chartreuse" points="182,-137.104 178.5,-127.104 175,-137.104 182,-137.104"/>
</g>
<!-- 5&#45;&gt;1 -->
<g id="edge4" class="edge"><title>5&#45;&gt;1</title>
<path fill="none" stroke="black" d="M163.57,-90.7C155.646,-81.5179 145.765,-70.0695 137.027,-59.944"/>
<polygon fill="black" stroke="black" points="139.506,-57.4597 130.323,-52.1758 134.207,-62.0331 139.506,-57.4597"/>
</g>
</g>
</svg>
