<?xml version="1.0" encoding="UTF-8" standalone="no"?>
<!DOCTYPE svg PUBLIC "-//W3C//DTD SVG 1.1//EN"
 "http://www.w3.org/Graphics/SVG/1.1/DTD/svg11.dtd">
<!-- Generated by graphviz version 2.38.0 (20140413.2041)
 -->
<!-- Title: Levels within Snap.Snaplet.Session.SecureCookie Pages: 1 -->
<svg width="358pt" height="171pt"
 viewBox="0.00 0.00 358.00 171.00" xmlns="http://www.w3.org/2000/svg" xmlns:xlink="http://www.w3.org/1999/xlink">
<g id="graph0" class="graph" transform="scale(1 1) rotate(0) translate(4 167)">
<title>Levels within Snap.Snaplet.Session.SecureCookie</title>
<polygon fill="white" stroke="none" points="-4,4 -4,-167 354,-167 354,4 -4,4"/>
<g id="clust1" class="cluster"><title>cluster_0</title>
<polygon fill="lavender" stroke="black" points="8,-8 8,-155 342,-155 342,-8 8,-8"/>
<text text-anchor="middle" x="175" y="-139.8" font-family="Times,serif" font-size="14.00">Exported root entities</text>
</g>
<!-- 1 -->
<g id="node1" class="node"><title>1</title>
<polygon fill="goldenrod" stroke="black" stroke-width="2" points="326.5,-52 189.5,-52 189.5,-16 326.5,-16 326.5,-52"/>
<text text-anchor="middle" x="258" y="-30.3" font-family="Times,serif" font-size="14.00">checkTimeout</text>
</g>
<!-- 2 -->
<g id="node2" class="node"><title>2</title>
<polygon fill="gold" stroke="black" stroke-width="2" points="333.5,-124 182.5,-124 182.5,-88 333.5,-88 333.5,-124"/>
<text text-anchor="middle" x="258" y="-102.3" font-family="Times,serif" font-size="14.00">getSecureCookie</text>
</g>
<!-- 2&#45;&gt;1 -->
<g id="edge1" class="edge"><title>2&#45;&gt;1</title>
<path fill="none" stroke="chartreuse" d="M258,-87.6966C258,-79.9827 258,-70.7125 258,-62.1124"/>
<polygon fill="chartreuse" stroke="chartreuse" points="261.5,-62.1043 258,-52.1043 254.5,-62.1044 261.5,-62.1043"/>
</g>
<!-- 3 -->
<g id="node3" class="node"><title>3</title>
<polygon fill="gold" stroke="black" stroke-width="2" points="164.5,-124 15.5,-124 15.5,-88 164.5,-88 164.5,-124"/>
<text text-anchor="middle" x="90" y="-102.3" font-family="Times,serif" font-size="14.00">setSecureCookie</text>
</g>
</g>
</svg>
