<?xml version="1.0" encoding="UTF-8" standalone="no"?>
<!DOCTYPE svg PUBLIC "-//W3C//DTD SVG 1.1//EN"
 "http://www.w3.org/Graphics/SVG/1.1/DTD/svg11.dtd">
<!-- Generated by graphviz version 2.38.0 (20140413.2041)
 -->
<!-- Title: Diagram of: Snap.Snaplet.HeistNoClass Pages: 1 -->
<svg width="2625pt" height="450pt"
 viewBox="0.00 0.00 2625.00 449.74" xmlns="http://www.w3.org/2000/svg" xmlns:xlink="http://www.w3.org/1999/xlink">
<g id="graph0" class="graph" transform="scale(1 1) rotate(0) translate(4 445.744)">
<title>Diagram of: Snap.Snaplet.HeistNoClass</title>
<polygon fill="white" stroke="none" points="-4,4 -4,-445.744 2621,-445.744 2621,4 -4,4"/>
<g id="clust1" class="cluster"><title>cluster_Class_MonadSnap</title>
<path fill="#ffc1c1" stroke="black" d="M20,-208C20,-208 262,-208 262,-208 268,-208 274,-214 274,-220 274,-220 274,-421.744 274,-421.744 274,-427.744 268,-433.744 262,-433.744 262,-433.744 20,-433.744 20,-433.744 14,-433.744 8,-427.744 8,-421.744 8,-421.744 8,-220 8,-220 8,-214 14,-208 20,-208"/>
<text text-anchor="middle" x="141" y="-418.544" font-family="Times,serif" font-size="14.00">Class: MonadSnap</text>
</g>
<g id="clust2" class="cluster"><title>cluster_Class_MonadSnap_Data_HeistTnm</title>
<path fill="#c6e2ff" stroke="black" d="M68,-319.352C68,-319.352 214,-319.352 214,-319.352 220,-319.352 226,-325.352 226,-331.352 226,-331.352 226,-390.744 226,-390.744 226,-396.744 220,-402.744 214,-402.744 214,-402.744 68,-402.744 68,-402.744 62,-402.744 56,-396.744 56,-390.744 56,-390.744 56,-331.352 56,-331.352 56,-325.352 62,-319.352 68,-319.352"/>
<text text-anchor="middle" x="141" y="-387.544" font-family="Times,serif" font-size="14.00">Instance for: (HeistT n m)</text>
</g>
<!-- 25 -->
<g id="node1" class="node"><title>25</title>
<polygon fill="bisque" stroke="black" stroke-width="2" points="218.105,-340.272 218.105,-358.823 172.938,-371.941 109.062,-371.941 63.8954,-358.823 63.8954,-340.272 109.062,-327.155 172.938,-327.155 218.105,-340.272"/>
<text text-anchor="middle" x="141" y="-345.848" font-family="Times,serif" font-size="14.00">liftSnap</text>
</g>
<!-- 38 -->
<g id="node2" class="node"><title>38</title>
<polygon fill="khaki" stroke="black" stroke-dasharray="1,5" points="261.858,-239.662 261.858,-267.691 191.061,-287.51 90.9389,-287.51 20.1417,-267.691 20.1417,-239.662 90.9389,-219.842 191.061,-219.842 261.858,-239.662"/>
<polygon fill="none" stroke="black" stroke-dasharray="1,5" points="265.856,-236.609 265.856,-270.743 191.607,-291.529 90.3926,-291.529 16.144,-270.743 16.144,-236.609 90.3926,-215.823 191.607,-215.823 265.856,-236.609"/>
<text text-anchor="middle" x="141" y="-257.476" font-family="Times,serif" font-size="14.00">Unknown Module</text>
<text text-anchor="middle" x="141" y="-242.476" font-family="Times,serif" font-size="14.00">liftSnap</text>
</g>
<!-- 25&#45;&gt;38 -->
<g id="edge25" class="edge"><title>25&#45;&gt;38</title>
<path fill="none" stroke="chartreuse" d="M135.239,-327.247C134.577,-319.544 134.247,-310.511 134.25,-301.485"/>
<polygon fill="chartreuse" stroke="chartreuse" points="137.751,-301.418 134.395,-291.369 130.752,-301.317 137.751,-301.418"/>
</g>
<!-- 38&#45;&gt;25 -->
<g id="edge36" class="edge"><title>38&#45;&gt;25</title>
<path fill="none" stroke="navy" d="M147.605,-291.369C147.954,-303.525 147.673,-316.645 146.761,-327.247"/>
</g>
<!-- 1 -->
<g id="node3" class="node"><title>1</title>
<polygon fill="gold" stroke="black" stroke-width="2" points="398,-367.548 282,-367.548 282,-331.548 398,-331.548 398,-367.548"/>
<text text-anchor="middle" x="340" y="-345.848" font-family="Times,serif" font-size="14.00">addConfig</text>
</g>
<!-- 2 -->
<g id="node4" class="node"><title>2</title>
<polygon fill="gold" stroke="black" stroke-width="2" points="551.5,-367.548 416.5,-367.548 416.5,-331.548 551.5,-331.548 551.5,-367.548"/>
<text text-anchor="middle" x="484" y="-345.848" font-family="Times,serif" font-size="14.00">addTemplates</text>
</g>
<!-- 3 -->
<g id="node5" class="node"><title>3</title>
<polygon fill="goldenrod" stroke="black" stroke-width="2" points="558.5,-271.676 409.5,-271.676 409.5,-235.676 558.5,-235.676 558.5,-271.676"/>
<text text-anchor="middle" x="484" y="-249.976" font-family="Times,serif" font-size="14.00">addTemplatesAt</text>
</g>
<!-- 2&#45;&gt;3 -->
<g id="edge1" class="edge"><title>2&#45;&gt;3</title>
<path fill="none" stroke="chartreuse" d="M484,-331.33C484,-317.569 484,-298.017 484,-282.104"/>
<polygon fill="chartreuse" stroke="chartreuse" points="487.5,-281.784 484,-271.785 480.5,-281.785 487.5,-281.784"/>
</g>
<!-- 4 -->
<g id="node6" class="node"><title>4</title>
<polygon fill="goldenrod" stroke="black" stroke-width="2" points="1379,-271.676 1255,-271.676 1255,-235.676 1379,-235.676 1379,-271.676"/>
<text text-anchor="middle" x="1317" y="-249.976" font-family="Times,serif" font-size="14.00">cHeistServe</text>
</g>
<!-- 6 -->
<g id="node8" class="node"><title>6</title>
<polygon fill="goldenrod" stroke="black" stroke-width="2" points="1080,-180 976,-180 976,-144 1080,-144 1080,-180"/>
<text text-anchor="middle" x="1028" y="-158.3" font-family="Times,serif" font-size="14.00">cRender</text>
</g>
<!-- 4&#45;&gt;6 -->
<g id="edge2" class="edge"><title>4&#45;&gt;6</title>
<path fill="none" stroke="black" stroke-width="1.69315" d="M1294.48,-235.527C1281.06,-226.087 1263.31,-214.918 1246,-208 1187.48,-184.613 1168.69,-192.851 1107,-180 1101.59,-178.874 1095.98,-177.691 1090.35,-176.497"/>
<polygon fill="black" stroke="black" stroke-width="1.69315" points="1090.76,-173.005 1080.25,-174.345 1089.3,-179.852 1090.76,-173.005"/>
</g>
<!-- 32 -->
<g id="node33" class="node"><title>32</title>
<polygon fill="cyan" stroke="black" stroke-width="2" points="1375,-180 1265,-180 1265,-144 1375,-144 1375,-180"/>
<text text-anchor="middle" x="1320" y="-158.3" font-family="Times,serif" font-size="14.00">serveURI</text>
</g>
<!-- 4&#45;&gt;32 -->
<g id="edge3" class="edge"><title>4&#45;&gt;32</title>
<path fill="none" stroke="black" d="M1317.58,-235.386C1318.01,-222.608 1318.6,-204.956 1319.09,-190.283"/>
<polygon fill="black" stroke="black" points="1322.59,-190.349 1319.42,-180.237 1315.59,-190.115 1322.59,-190.349"/>
</g>
<!-- 5 -->
<g id="node7" class="node"><title>5</title>
<polygon fill="goldenrod" stroke="black" stroke-width="2" points="910,-271.676 752,-271.676 752,-235.676 910,-235.676 910,-271.676"/>
<text text-anchor="middle" x="831" y="-249.976" font-family="Times,serif" font-size="14.00">cHeistServeSingle</text>
</g>
<!-- 5&#45;&gt;6 -->
<g id="edge4" class="edge"><title>5&#45;&gt;6</title>
<path fill="none" stroke="black" d="M868.518,-235.598C900.559,-221.012 946.794,-199.966 981.24,-184.285"/>
<polygon fill="black" stroke="black" points="982.97,-187.343 990.622,-180.015 980.07,-180.972 982.97,-187.343"/>
</g>
<!-- 8 -->
<g id="node10" class="node"><title>8</title>
<polygon fill="cyan" stroke="black" stroke-width="2" points="791,-108 651,-108 651,-72 791,-72 791,-108"/>
<text text-anchor="middle" x="721" y="-86.3" font-family="Times,serif" font-size="14.00">cRenderHelper</text>
</g>
<!-- 6&#45;&gt;8 -->
<g id="edge5" class="edge"><title>6&#45;&gt;8</title>
<path fill="none" stroke="black" d="M975.811,-146.235C972.834,-145.462 969.882,-144.711 967,-144 911.958,-130.414 849.507,-116.983 801.301,-107.041"/>
<polygon fill="black" stroke="black" points="801.739,-103.557 791.239,-104.973 800.33,-110.414 801.739,-103.557"/>
</g>
<!-- 7 -->
<g id="node9" class="node"><title>7</title>
<polygon fill="goldenrod" stroke="black" stroke-width="2" points="685.5,-180 566.5,-180 566.5,-144 685.5,-144 685.5,-180"/>
<text text-anchor="middle" x="626" y="-158.3" font-family="Times,serif" font-size="14.00">cRenderAs</text>
</g>
<!-- 7&#45;&gt;8 -->
<g id="edge6" class="edge"><title>7&#45;&gt;8</title>
<path fill="none" stroke="black" d="M649.483,-143.697C661.563,-134.796 676.454,-123.823 689.516,-114.199"/>
<polygon fill="black" stroke="black" points="691.813,-116.854 697.787,-108.104 687.66,-111.219 691.813,-116.854"/>
</g>
<!-- 9 -->
<g id="node11" class="node"><title>9</title>
<polygon fill="cyan" stroke="black" stroke-width="2" points="1615,-36 1491,-36 1491,-0 1615,-0 1615,-36"/>
<text text-anchor="middle" x="1553" y="-14.3" font-family="Times,serif" font-size="14.00">changeState</text>
</g>
<!-- 10 -->
<g id="node12" class="node"><title>10</title>
<polygon fill="goldenrod" stroke="black" stroke-width="2" points="958,-180 830,-180 830,-144 958,-144 958,-180"/>
<text text-anchor="middle" x="894" y="-158.3" font-family="Times,serif" font-size="14.00">chooseMode</text>
</g>
<!-- 11 -->
<g id="node13" class="node"><title>11</title>
<polygon fill="gold" stroke="black" stroke-width="2" points="1857.5,-367.548 1710.5,-367.548 1710.5,-331.548 1857.5,-331.548 1857.5,-367.548"/>
<text text-anchor="middle" x="1784" y="-345.848" font-family="Times,serif" font-size="14.00">clearHeistCache</text>
</g>
<!-- 12 -->
<g id="node14" class="node"><title>12</title>
<polygon fill="gold" stroke="black" stroke-width="2" points="1379.5,-367.548 1254.5,-367.548 1254.5,-331.548 1379.5,-331.548 1379.5,-367.548"/>
<text text-anchor="middle" x="1317" y="-345.848" font-family="Times,serif" font-size="14.00">gHeistServe</text>
</g>
<!-- 12&#45;&gt;4 -->
<g id="edge7" class="edge"><title>12&#45;&gt;4</title>
<path fill="none" stroke="black" d="M1317,-331.33C1317,-317.569 1317,-298.017 1317,-282.104"/>
<polygon fill="black" stroke="black" points="1320.5,-281.784 1317,-271.785 1313.5,-281.785 1320.5,-281.784"/>
</g>
<!-- 12&#45;&gt;10 -->
<g id="edge8" class="edge"><title>12&#45;&gt;10</title>
<path fill="none" stroke="black" d="M1254.14,-345.625C1163.67,-340.261 1002.58,-326.026 957,-291.352 924.596,-266.703 937.345,-244.346 919,-208 915.934,-201.926 912.481,-195.486 909.142,-189.433"/>
<polygon fill="black" stroke="black" points="911.998,-187.369 904.062,-180.351 905.889,-190.787 911.998,-187.369"/>
</g>
<!-- 22 -->
<g id="node24" class="node"><title>22</title>
<polygon fill="goldenrod" stroke="black" stroke-width="2" points="1512.5,-271.676 1397.5,-271.676 1397.5,-235.676 1512.5,-235.676 1512.5,-271.676"/>
<text text-anchor="middle" x="1455" y="-249.976" font-family="Times,serif" font-size="14.00">heistServe</text>
</g>
<!-- 12&#45;&gt;22 -->
<g id="edge9" class="edge"><title>12&#45;&gt;22</title>
<path fill="none" stroke="black" d="M1342.31,-331.33C1364.49,-316.245 1396.89,-294.203 1421.27,-277.623"/>
<polygon fill="black" stroke="black" points="1423.55,-280.303 1429.85,-271.785 1419.61,-274.515 1423.55,-280.303"/>
</g>
<!-- 13 -->
<g id="node15" class="node"><title>13</title>
<polygon fill="gold" stroke="black" stroke-width="2" points="910.5,-367.548 751.5,-367.548 751.5,-331.548 910.5,-331.548 910.5,-367.548"/>
<text text-anchor="middle" x="831" y="-345.848" font-family="Times,serif" font-size="14.00">gHeistServeSingle</text>
</g>
<!-- 13&#45;&gt;5 -->
<g id="edge10" class="edge"><title>13&#45;&gt;5</title>
<path fill="none" stroke="black" d="M831,-331.33C831,-317.569 831,-298.017 831,-282.104"/>
<polygon fill="black" stroke="black" points="834.5,-281.784 831,-271.785 827.5,-281.785 834.5,-281.784"/>
</g>
<!-- 13&#45;&gt;10 -->
<g id="edge11" class="edge"><title>13&#45;&gt;10</title>
<path fill="none" stroke="black" d="M787.571,-331.395C770.473,-322.243 752.647,-309.129 743,-291.352 725.33,-258.793 720.859,-237.701 743,-208 748.1,-201.159 784.097,-190.297 819.663,-180.959"/>
<polygon fill="black" stroke="black" points="820.854,-184.266 829.656,-178.37 819.098,-177.489 820.854,-184.266"/>
</g>
<!-- 23 -->
<g id="node25" class="node"><title>23</title>
<polygon fill="goldenrod" stroke="black" stroke-width="2" points="1237.5,-271.676 1088.5,-271.676 1088.5,-235.676 1237.5,-235.676 1237.5,-271.676"/>
<text text-anchor="middle" x="1163" y="-249.976" font-family="Times,serif" font-size="14.00">heistServeSingle</text>
</g>
<!-- 13&#45;&gt;23 -->
<g id="edge12" class="edge"><title>13&#45;&gt;23</title>
<path fill="none" stroke="black" d="M910.77,-334.059C959.902,-324.177 1023.83,-309.584 1079,-291.352 1092.12,-287.015 1106.01,-281.399 1118.64,-275.871"/>
<polygon fill="black" stroke="black" points="1120.31,-278.958 1128.01,-271.684 1117.45,-272.567 1120.31,-278.958"/>
</g>
<!-- 14 -->
<g id="node16" class="node"><title>14</title>
<polygon fill="gold" stroke="black" stroke-width="2" points="1070,-271.676 966,-271.676 966,-235.676 1070,-235.676 1070,-271.676"/>
<text text-anchor="middle" x="1018" y="-249.976" font-family="Times,serif" font-size="14.00">gRender</text>
</g>
<!-- 14&#45;&gt;6 -->
<g id="edge13" class="edge"><title>14&#45;&gt;6</title>
<path fill="none" stroke="black" d="M1019.93,-235.386C1021.35,-222.608 1023.32,-204.956 1024.96,-190.283"/>
<polygon fill="black" stroke="black" points="1028.45,-190.564 1026.08,-180.237 1021.49,-189.788 1028.45,-190.564"/>
</g>
<!-- 14&#45;&gt;10 -->
<g id="edge14" class="edge"><title>14&#45;&gt;10</title>
<path fill="none" stroke="black" d="M994.385,-235.598C974.906,-221.511 947.094,-201.397 925.682,-185.912"/>
<polygon fill="black" stroke="black" points="927.682,-183.039 917.527,-180.015 923.579,-188.711 927.682,-183.039"/>
</g>
<!-- 28 -->
<g id="node29" class="node"><title>28</title>
<polygon fill="goldenrod" stroke="black" stroke-width="2" points="1209.5,-180 1116.5,-180 1116.5,-144 1209.5,-144 1209.5,-180"/>
<text text-anchor="middle" x="1163" y="-158.3" font-family="Times,serif" font-size="14.00">render</text>
</g>
<!-- 14&#45;&gt;28 -->
<g id="edge15" class="edge"><title>14&#45;&gt;28</title>
<path fill="none" stroke="black" d="M1039.79,-235.568C1051.2,-226.907 1065.56,-216.464 1079,-208 1091.85,-199.906 1106.29,-191.83 1119.52,-184.799"/>
<polygon fill="black" stroke="black" points="1121.23,-187.857 1128.46,-180.112 1117.98,-181.659 1121.23,-187.857"/>
</g>
<!-- 15 -->
<g id="node17" class="node"><title>15</title>
<polygon fill="gold" stroke="black" stroke-width="2" points="695.5,-271.676 576.5,-271.676 576.5,-235.676 695.5,-235.676 695.5,-271.676"/>
<text text-anchor="middle" x="636" y="-249.976" font-family="Times,serif" font-size="14.00">gRenderAs</text>
</g>
<!-- 15&#45;&gt;7 -->
<g id="edge16" class="edge"><title>15&#45;&gt;7</title>
<path fill="none" stroke="black" d="M634.072,-235.386C632.647,-222.608 630.679,-204.956 629.042,-190.283"/>
<polygon fill="black" stroke="black" points="632.509,-189.788 627.922,-180.237 625.552,-190.564 632.509,-189.788"/>
</g>
<!-- 15&#45;&gt;10 -->
<g id="edge17" class="edge"><title>15&#45;&gt;10</title>
<path fill="none" stroke="black" d="M660.014,-235.616C674.033,-226.325 692.383,-215.273 710,-208 715.386,-205.777 771.21,-192.221 819.97,-180.563"/>
<polygon fill="black" stroke="black" points="821.015,-183.912 829.929,-178.185 819.389,-177.104 821.015,-183.912"/>
</g>
<!-- 29 -->
<g id="node30" class="node"><title>29</title>
<polygon fill="goldenrod" stroke="black" stroke-width="2" points="812,-180 704,-180 704,-144 812,-144 812,-180"/>
<text text-anchor="middle" x="758" y="-158.3" font-family="Times,serif" font-size="14.00">renderAs</text>
</g>
<!-- 15&#45;&gt;29 -->
<g id="edge18" class="edge"><title>15&#45;&gt;29</title>
<path fill="none" stroke="black" d="M659.234,-235.598C678.314,-221.573 705.521,-201.575 726.549,-186.118"/>
<polygon fill="black" stroke="black" points="728.868,-188.758 734.852,-180.015 724.722,-183.117 728.868,-188.758"/>
</g>
<!-- 16 -->
<g id="node18" class="node"><title>16</title>
<polygon fill="gold" stroke="black" stroke-width="2" points="2036.5,-367.548 1875.5,-367.548 1875.5,-331.548 2036.5,-331.548 2036.5,-367.548"/>
<text text-anchor="middle" x="1956" y="-345.848" font-family="Times,serif" font-size="14.00">getCurHeistConfig</text>
</g>
<!-- 17 -->
<g id="node19" class="node"><title>17</title>
<polygon fill="gold" stroke="black" stroke-width="2" points="2185.5,-367.548 2054.5,-367.548 2054.5,-331.548 2185.5,-331.548 2185.5,-367.548"/>
<text text-anchor="middle" x="2120" y="-345.848" font-family="Times,serif" font-size="14.00">getHeistState</text>
</g>
<!-- 18 -->
<g id="node20" class="node"><title>18</title>
<polygon fill="gold" stroke="black" stroke-width="2" points="1506.5,-367.548 1403.5,-367.548 1403.5,-331.548 1506.5,-331.548 1506.5,-367.548"/>
<text text-anchor="middle" x="1455" y="-345.848" font-family="Times,serif" font-size="14.00">heistInit</text>
</g>
<!-- 18&#45;&gt;22 -->
<g id="edge19" class="edge"><title>18&#45;&gt;22</title>
<path fill="none" stroke="black" d="M1455,-331.33C1455,-317.569 1455,-298.017 1455,-282.104"/>
<polygon fill="black" stroke="black" points="1458.5,-281.784 1455,-271.785 1451.5,-281.785 1458.5,-281.784"/>
</g>
<!-- 19 -->
<g id="node21" class="node"><title>19</title>
<polygon fill="gold" stroke="black" stroke-width="2" points="2308.5,-367.548 2203.5,-367.548 2203.5,-331.548 2308.5,-331.548 2308.5,-367.548"/>
<text text-anchor="middle" x="2256" y="-345.848" font-family="Times,serif" font-size="14.00">heistInit&#39;</text>
</g>
<!-- 20 -->
<g id="node22" class="node"><title>20</title>
<polygon fill="gold" stroke="black" stroke-width="2" points="1687.5,-180 1572.5,-180 1572.5,-144 1687.5,-144 1687.5,-180"/>
<text text-anchor="middle" x="1630" y="-158.3" font-family="Times,serif" font-size="14.00">heistLocal</text>
</g>
<!-- 21 -->
<g id="node23" class="node"><title>21</title>
<polygon fill="goldenrod" stroke="black" stroke-width="2" points="1689.5,-108 1572.5,-108 1572.5,-72 1689.5,-72 1689.5,-108"/>
<text text-anchor="middle" x="1631" y="-86.3" font-family="Times,serif" font-size="14.00">heistLocal&#39;</text>
</g>
<!-- 20&#45;&gt;21 -->
<g id="edge20" class="edge"><title>20&#45;&gt;21</title>
<path fill="none" stroke="black" d="M1630.25,-143.697C1630.36,-135.983 1630.49,-126.712 1630.61,-118.112"/>
<polygon fill="black" stroke="black" points="1634.11,-118.153 1630.76,-108.104 1627.11,-118.053 1634.11,-118.153"/>
</g>
<!-- 21&#45;&gt;9 -->
<g id="edge21" class="edge"><title>21&#45;&gt;9</title>
<path fill="none" stroke="black" d="M1611.72,-71.6966C1602.08,-63.0503 1590.27,-52.4486 1579.77,-43.027"/>
<polygon fill="black" stroke="black" points="1581.84,-40.1786 1572.06,-36.1043 1577.16,-45.3883 1581.84,-40.1786"/>
</g>
<!-- 22&#45;&gt;28 -->
<g id="edge22" class="edge"><title>22&#45;&gt;28</title>
<path fill="none" stroke="black" stroke-width="1.69315" d="M1433.9,-235.475C1421.28,-226.018 1404.53,-214.849 1388,-208 1380.18,-204.762 1283.63,-185.999 1219.57,-173.746"/>
<polygon fill="black" stroke="black" stroke-width="1.69315" points="1220.07,-170.277 1209.59,-171.838 1218.75,-177.153 1220.07,-170.277"/>
</g>
<!-- 22&#45;&gt;32 -->
<g id="edge23" class="edge"><title>22&#45;&gt;32</title>
<path fill="none" stroke="black" d="M1429.24,-235.471C1416.79,-227.161 1401.63,-217.051 1388,-208 1377.02,-200.707 1365.03,-192.766 1354.22,-185.613"/>
<polygon fill="black" stroke="black" points="1356.12,-182.671 1345.85,-180.074 1352.26,-188.509 1356.12,-182.671"/>
</g>
<!-- 23&#45;&gt;28 -->
<g id="edge24" class="edge"><title>23&#45;&gt;28</title>
<path fill="none" stroke="black" d="M1163,-235.386C1163,-222.608 1163,-204.956 1163,-190.283"/>
<polygon fill="black" stroke="black" points="1166.5,-190.237 1163,-180.237 1159.5,-190.237 1166.5,-190.237"/>
</g>
<!-- 24 -->
<g id="node26" class="node"><title>24</title>
<polygon fill="cyan" stroke="black" stroke-width="2" points="1042,-108 904,-108 904,-72 1042,-72 1042,-108"/>
<text text-anchor="middle" x="973" y="-86.3" font-family="Times,serif" font-size="14.00">iRenderHelper</text>
</g>
<!-- 26 -->
<g id="node27" class="node"><title>26</title>
<polygon fill="gold" stroke="black" stroke-width="2" points="1553,-180 1399,-180 1399,-144 1553,-144 1553,-180"/>
<text text-anchor="middle" x="1476" y="-158.3" font-family="Times,serif" font-size="14.00">modifyHeistState</text>
</g>
<!-- 27 -->
<g id="node28" class="node"><title>27</title>
<polygon fill="goldenrod" stroke="black" stroke-width="2" points="1554,-108 1398,-108 1398,-72 1554,-72 1554,-108"/>
<text text-anchor="middle" x="1476" y="-86.3" font-family="Times,serif" font-size="14.00">modifyHeistState&#39;</text>
</g>
<!-- 26&#45;&gt;27 -->
<g id="edge26" class="edge"><title>26&#45;&gt;27</title>
<path fill="none" stroke="chartreuse" d="M1476,-143.697C1476,-135.983 1476,-126.712 1476,-118.112"/>
<polygon fill="chartreuse" stroke="chartreuse" points="1479.5,-118.104 1476,-108.104 1472.5,-118.104 1479.5,-118.104"/>
</g>
<!-- 27&#45;&gt;9 -->
<g id="edge27" class="edge"><title>27&#45;&gt;9</title>
<path fill="none" stroke="black" d="M1495.03,-71.6966C1504.54,-63.0503 1516.21,-52.4486 1526.57,-43.027"/>
<polygon fill="black" stroke="black" points="1529.14,-45.4209 1534.19,-36.1043 1524.43,-40.2413 1529.14,-45.4209"/>
</g>
<!-- 28&#45;&gt;24 -->
<g id="edge28" class="edge"><title>28&#45;&gt;24</title>
<path fill="none" stroke="black" d="M1116.52,-143.876C1090.08,-134.137 1056.8,-121.872 1028.94,-111.608"/>
<polygon fill="black" stroke="black" points="1029.92,-108.241 1019.33,-108.068 1027.5,-114.81 1029.92,-108.241"/>
</g>
<!-- 29&#45;&gt;24 -->
<g id="edge29" class="edge"><title>29&#45;&gt;24</title>
<path fill="none" stroke="black" d="M810.32,-143.966C840.622,-134.1 878.948,-121.622 910.788,-111.255"/>
<polygon fill="black" stroke="black" points="912.02,-114.535 920.445,-108.111 909.853,-107.879 912.02,-114.535"/>
</g>
<!-- 30 -->
<g id="node31" class="node"><title>30</title>
<polygon fill="gold" stroke="black" stroke-width="2" points="1692,-367.548 1532,-367.548 1532,-331.548 1692,-331.548 1692,-367.548"/>
<text text-anchor="middle" x="1612" y="-345.848" font-family="Times,serif" font-size="14.00">renderWithSplices</text>
</g>
<!-- 31 -->
<g id="node32" class="node"><title>31</title>
<polygon fill="goldenrod" stroke="black" stroke-width="2" points="1693,-271.676 1531,-271.676 1531,-235.676 1693,-235.676 1693,-271.676"/>
<text text-anchor="middle" x="1612" y="-249.976" font-family="Times,serif" font-size="14.00">renderWithSplices&#39;</text>
</g>
<!-- 30&#45;&gt;31 -->
<g id="edge30" class="edge"><title>30&#45;&gt;31</title>
<path fill="none" stroke="chartreuse" d="M1612,-331.33C1612,-317.569 1612,-298.017 1612,-282.104"/>
<polygon fill="chartreuse" stroke="chartreuse" points="1615.5,-281.784 1612,-271.785 1608.5,-281.785 1615.5,-281.784"/>
</g>
<!-- 31&#45;&gt;28 -->
<g id="edge31" class="edge"><title>31&#45;&gt;28</title>
<path fill="none" stroke="black" d="M1583.54,-235.47C1566.11,-225.763 1542.98,-214.341 1521,-208 1407.21,-175.176 1373.22,-196.882 1256,-180 1244.2,-178.3 1231.6,-176.196 1219.62,-174.053"/>
<polygon fill="black" stroke="black" points="1220.19,-170.6 1209.72,-172.253 1218.93,-177.487 1220.19,-170.6"/>
</g>
<!-- 37 -->
<g id="node38" class="node"><title>37</title>
<polygon fill="goldenrod" stroke="black" stroke-width="2" points="1830,-180 1706,-180 1706,-144 1830,-144 1830,-180"/>
<text text-anchor="middle" x="1768" y="-158.3" font-family="Times,serif" font-size="14.00">withSplices&#39;</text>
</g>
<!-- 31&#45;&gt;37 -->
<g id="edge32" class="edge"><title>31&#45;&gt;37</title>
<path fill="none" stroke="black" d="M1641.71,-235.598C1666.65,-221.261 1702.45,-200.683 1729.57,-185.094"/>
<polygon fill="black" stroke="black" points="1731.48,-188.033 1738.4,-180.015 1727.99,-181.964 1731.48,-188.033"/>
</g>
<!-- 33 -->
<g id="node34" class="node"><title>33</title>
<polygon fill="gold" stroke="black" stroke-width="2" points="2459.5,-367.548 2326.5,-367.548 2326.5,-331.548 2459.5,-331.548 2459.5,-367.548"/>
<text text-anchor="middle" x="2393" y="-345.848" font-family="Times,serif" font-size="14.00">setInterpreted</text>
</g>
<!-- 34 -->
<g id="node35" class="node"><title>34</title>
<polygon fill="gold" stroke="black" stroke-width="2" points="2616,-367.548 2478,-367.548 2478,-331.548 2616,-331.548 2616,-367.548"/>
<text text-anchor="middle" x="2547" y="-345.848" font-family="Times,serif" font-size="14.00">withHeistState</text>
</g>
<!-- 35 -->
<g id="node36" class="node"><title>35</title>
<polygon fill="goldenrod" stroke="black" stroke-width="2" points="2617,-271.676 2477,-271.676 2477,-235.676 2617,-235.676 2617,-271.676"/>
<text text-anchor="middle" x="2547" y="-249.976" font-family="Times,serif" font-size="14.00">withHeistState&#39;</text>
</g>
<!-- 34&#45;&gt;35 -->
<g id="edge33" class="edge"><title>34&#45;&gt;35</title>
<path fill="none" stroke="chartreuse" d="M2547,-331.33C2547,-317.569 2547,-298.017 2547,-282.104"/>
<polygon fill="chartreuse" stroke="chartreuse" points="2550.5,-281.784 2547,-271.785 2543.5,-281.785 2550.5,-281.784"/>
</g>
<!-- 36 -->
<g id="node37" class="node"><title>36</title>
<polygon fill="gold" stroke="black" stroke-width="2" points="1833,-271.676 1711,-271.676 1711,-235.676 1833,-235.676 1833,-271.676"/>
<text text-anchor="middle" x="1772" y="-249.976" font-family="Times,serif" font-size="14.00">withSplices</text>
</g>
<!-- 36&#45;&gt;37 -->
<g id="edge34" class="edge"><title>36&#45;&gt;37</title>
<path fill="none" stroke="black" d="M1771.23,-235.386C1770.66,-222.608 1769.87,-204.956 1769.22,-190.283"/>
<polygon fill="black" stroke="black" points="1772.71,-190.071 1768.77,-180.237 1765.72,-190.383 1772.71,-190.071"/>
</g>
<!-- 37&#45;&gt;21 -->
<g id="edge35" class="edge"><title>37&#45;&gt;21</title>
<path fill="none" stroke="black" d="M1734.49,-143.876C1716.16,-134.512 1693.26,-122.814 1673.67,-112.803"/>
<polygon fill="black" stroke="black" points="1675.14,-109.623 1664.64,-108.19 1671.96,-115.857 1675.14,-109.623"/>
</g>
</g>
</svg>
