<?xml version="1.0" encoding="UTF-8" standalone="no"?>
<!DOCTYPE svg PUBLIC "-//W3C//DTD SVG 1.1//EN"
 "http://www.w3.org/Graphics/SVG/1.1/DTD/svg11.dtd">
<!-- Generated by graphviz version 2.38.0 (20140413.2041)
 -->
<!-- Title: Levels within System.Log.Missing Pages: 1 -->
<svg width="166pt" height="171pt"
 viewBox="0.00 0.00 166.00 171.00" xmlns="http://www.w3.org/2000/svg" xmlns:xlink="http://www.w3.org/1999/xlink">
<g id="graph0" class="graph" transform="scale(1 1) rotate(0) translate(4 167)">
<title>Levels within System.Log.Missing</title>
<polygon fill="white" stroke="none" points="-4,4 -4,-167 162,-167 162,4 -4,4"/>
<g id="clust1" class="cluster"><title>cluster_0</title>
<polygon fill="lavender" stroke="black" points="8,-8 8,-155 150,-155 150,-8 8,-8"/>
<text text-anchor="middle" x="79" y="-139.8" font-family="Times,serif" font-size="14.00">Exported root entities</text>
</g>
<!-- 1 -->
<g id="node1" class="node"><title>1</title>
<polygon fill="gold" stroke="black" stroke-width="2" points="125.5,-124 32.5,-124 32.5,-88 125.5,-88 125.5,-124"/>
<text text-anchor="middle" x="79" y="-102.3" font-family="Times,serif" font-size="14.00">logger</text>
</g>
<!-- 2 -->
<g id="node2" class="node"><title>2</title>
<polygon fill="goldenrod" stroke="black" stroke-width="2" points="142,-52 16,-52 16,-16 142,-16 142,-52"/>
<text text-anchor="middle" x="79" y="-30.3" font-family="Times,serif" font-size="14.00">loggerName</text>
</g>
<!-- 1&#45;&gt;2 -->
<g id="edge1" class="edge"><title>1&#45;&gt;2</title>
<path fill="none" stroke="chartreuse" d="M79,-87.6966C79,-79.9827 79,-70.7125 79,-62.1124"/>
<polygon fill="chartreuse" stroke="chartreuse" points="82.5001,-62.1043 79,-52.1043 75.5001,-62.1044 82.5001,-62.1043"/>
</g>
</g>
</svg>
