<?xml version="1.0" encoding="UTF-8" standalone="no"?>
<!DOCTYPE svg PUBLIC "-//W3C//DTD SVG 1.1//EN"
 "http://www.w3.org/Graphics/SVG/1.1/DTD/svg11.dtd">
<!-- Generated by graphviz version 2.38.0 (20140413.2041)
 -->
<!-- Title: Levels within TestMain Pages: 1 -->
<svg width="158pt" height="182pt"
 viewBox="0.00 0.00 158.00 182.00" xmlns="http://www.w3.org/2000/svg" xmlns:xlink="http://www.w3.org/1999/xlink">
<g id="graph0" class="graph" transform="scale(1 1) rotate(0) translate(4 178)">
<title>Levels within TestMain</title>
<polygon fill="white" stroke="none" points="-4,4 -4,-178 154,-178 154,4 -4,4"/>
<g id="clust1" class="cluster"><title>cluster_0</title>
<polygon fill="lavender" stroke="black" points="8,-91 8,-166 142,-166 142,-91 8,-91"/>
<text text-anchor="middle" x="75" y="-150.8" font-family="Times,serif" font-size="14.00">Exported root entities</text>
</g>
<g id="clust2" class="cluster"><title>cluster_1</title>
<polygon fill="lavender" stroke="black" points="20,-8 20,-83 128,-83 128,-8 20,-8"/>
<text text-anchor="middle" x="74" y="-67.8" font-family="Times,serif" font-size="14.00">Level = 1</text>
</g>
<!-- 2 -->
<g id="node1" class="node"><title>2</title>
<polygon fill="gold" stroke="black" stroke-width="2" points="117,-135 31,-135 31,-99 117,-99 117,-135"/>
<text text-anchor="middle" x="74" y="-113.3" font-family="Times,serif" font-size="14.00">main</text>
</g>
<!-- 1 -->
<g id="node2" class="node"><title>1</title>
<polygon fill="cyan" stroke="black" stroke-width="2" points="119.5,-52 28.5,-52 28.5,-16 119.5,-16 119.5,-52"/>
<text text-anchor="middle" x="74" y="-30.3" font-family="Times,serif" font-size="14.00">adhoc</text>
</g>
<!-- 2&#45;&gt;1 -->
<g id="edge1" class="edge"><title>2&#45;&gt;1</title>
<path fill="none" stroke="chartreuse" d="M74,-98.822C74,-88.1903 74,-74.306 74,-62.2035"/>
<polygon fill="chartreuse" stroke="chartreuse" points="77.5001,-62.1532 74,-52.1533 70.5001,-62.1533 77.5001,-62.1532"/>
</g>
</g>
</svg>
