<?xml version="1.0" encoding="UTF-8" standalone="no"?>
<!DOCTYPE svg PUBLIC "-//W3C//DTD SVG 1.1//EN"
 "http://www.w3.org/Graphics/SVG/1.1/DTD/svg11.dtd">
<!-- Generated by graphviz version 2.38.0 (20140413.2041)
 -->
<!-- Title: Diagram of: Thentos.Doc Pages: 1 -->
<svg width="3539pt" height="357pt"
 viewBox="0.00 0.00 3539.00 357.13" xmlns="http://www.w3.org/2000/svg" xmlns:xlink="http://www.w3.org/1999/xlink">
<g id="graph0" class="graph" transform="scale(1 1) rotate(0) translate(4 353.135)">
<title>Diagram of: Thentos.Doc</title>
<polygon fill="white" stroke="none" points="-4,4 -4,-353.135 3535,-353.135 3535,4 -4,4"/>
<g id="clust1" class="cluster"><title>cluster_Class_ToCapture</title>
<path fill="#ffc1c1" stroke="black" d="M20,-107.391C20,-107.391 751,-107.391 751,-107.391 757,-107.391 763,-113.391 763,-119.391 763,-119.391 763,-313.615 763,-313.615 763,-319.615 757,-325.615 751,-325.615 751,-325.615 20,-325.615 20,-325.615 14,-325.615 8,-319.615 8,-313.615 8,-313.615 8,-119.391 8,-119.391 8,-113.391 14,-107.391 20,-107.391"/>
<text text-anchor="middle" x="385.5" y="-310.415" font-family="Times,serif" font-size="14.00">Class: ToCapture</text>
</g>
<g id="clust2" class="cluster"><title>cluster_Class_ToCapture_Data_CapturesidServiceId</title>
<path fill="#c6e2ff" stroke="black" d="M28,-115.391C28,-115.391 231,-115.391 231,-115.391 237,-115.391 243,-121.391 243,-127.391 243,-127.391 243,-186.783 243,-186.783 243,-192.783 237,-198.783 231,-198.783 231,-198.783 28,-198.783 28,-198.783 22,-198.783 16,-192.783 16,-186.783 16,-186.783 16,-127.391 16,-127.391 16,-121.391 22,-115.391 28,-115.391"/>
<text text-anchor="middle" x="129.5" y="-183.583" font-family="Times,serif" font-size="14.00">Instance for: (Capture &quot;sid&quot; ServiceId)</text>
</g>
<g id="clust3" class="cluster"><title>cluster_Class_ToCapture_Data_CapturetokenSessionToken</title>
<path fill="#c6e2ff" stroke="black" d="M263,-115.391C263,-115.391 505,-115.391 505,-115.391 511,-115.391 517,-121.391 517,-127.391 517,-127.391 517,-186.783 517,-186.783 517,-192.783 511,-198.783 505,-198.783 505,-198.783 263,-198.783 263,-198.783 257,-198.783 251,-192.783 251,-186.783 251,-186.783 251,-127.391 251,-127.391 251,-121.391 257,-115.391 263,-115.391"/>
<text text-anchor="middle" x="384" y="-183.583" font-family="Times,serif" font-size="14.00">Instance for: (Capture &quot;token&quot; SessionToken)</text>
</g>
<g id="clust4" class="cluster"><title>cluster_Class_ToCapture_Data_CaptureuseridUserId</title>
<path fill="#c6e2ff" stroke="black" d="M537,-115.391C537,-115.391 743,-115.391 743,-115.391 749,-115.391 755,-121.391 755,-127.391 755,-127.391 755,-186.783 755,-186.783 755,-192.783 749,-198.783 743,-198.783 743,-198.783 537,-198.783 537,-198.783 531,-198.783 525,-192.783 525,-186.783 525,-186.783 525,-127.391 525,-127.391 525,-121.391 531,-115.391 537,-115.391"/>
<text text-anchor="middle" x="640" y="-183.583" font-family="Times,serif" font-size="14.00">Instance for: (Capture &quot;userid&quot; UserId)</text>
</g>
<g id="clust5" class="cluster"><title>cluster_Class_ToSample</title>
<path fill="#ffc1c1" stroke="black" d="M783,-8C783,-8 3511,-8 3511,-8 3517,-8 3523,-14 3523,-20 3523,-20 3523,-329.135 3523,-329.135 3523,-335.135 3517,-341.135 3511,-341.135 3511,-341.135 783,-341.135 783,-341.135 777,-341.135 771,-335.135 771,-329.135 771,-329.135 771,-20 771,-20 771,-14 777,-8 783,-8"/>
<text text-anchor="middle" x="2147" y="-325.935" font-family="Times,serif" font-size="14.00">Class: ToSample</text>
</g>
<g id="clust6" class="cluster"><title>cluster_Class_ToSample_Data_</title>
<path fill="#c6e2ff" stroke="black" d="M791,-16C791,-16 951,-16 951,-16 957,-16 963,-22 963,-28 963,-28 963,-87.3913 963,-87.3913 963,-93.3913 957,-99.3913 951,-99.3913 951,-99.3913 791,-99.3913 791,-99.3913 785,-99.3913 779,-93.3913 779,-87.3913 779,-87.3913 779,-28 779,-28 779,-22 785,-16 791,-16"/>
<text text-anchor="middle" x="871" y="-84.1913" font-family="Times,serif" font-size="14.00">Instance for: ()</text>
</g>
<g id="clust7" class="cluster"><title>cluster_Class_ToSample_Data_ServiceIdServiceKey</title>
<path fill="#c6e2ff" stroke="black" d="M983,-16C983,-16 1179,-16 1179,-16 1185,-16 1191,-22 1191,-28 1191,-28 1191,-87.3913 1191,-87.3913 1191,-93.3913 1185,-99.3913 1179,-99.3913 1179,-99.3913 983,-99.3913 983,-99.3913 977,-99.3913 971,-93.3913 971,-87.3913 971,-87.3913 971,-28 971,-28 971,-22 977,-16 983,-16"/>
<text text-anchor="middle" x="1081" y="-84.1913" font-family="Times,serif" font-size="14.00">Instance for: (ServiceId, ServiceKey)</text>
</g>
<g id="clust8" class="cluster"><title>cluster_Class_ToSample_Data_SessionTokenSession</title>
<path fill="#c6e2ff" stroke="black" d="M1211,-16C1211,-16 1409,-16 1409,-16 1415,-16 1421,-22 1421,-28 1421,-28 1421,-87.3913 1421,-87.3913 1421,-93.3913 1415,-99.3913 1409,-99.3913 1409,-99.3913 1211,-99.3913 1211,-99.3913 1205,-99.3913 1199,-93.3913 1199,-87.3913 1199,-87.3913 1199,-28 1199,-28 1199,-22 1205,-16 1211,-16"/>
<text text-anchor="middle" x="1310" y="-84.1913" font-family="Times,serif" font-size="14.00">Instance for: (SessionToken, Session)</text>
</g>
<g id="clust9" class="cluster"><title>cluster_Class_ToSample_Data_UserIdServiceId</title>
<path fill="#c6e2ff" stroke="black" d="M2301,-226.744C2301,-226.744 2471,-226.744 2471,-226.744 2477,-226.744 2483,-232.744 2483,-238.744 2483,-238.744 2483,-298.135 2483,-298.135 2483,-304.135 2477,-310.135 2471,-310.135 2471,-310.135 2301,-310.135 2301,-310.135 2295,-310.135 2289,-304.135 2289,-298.135 2289,-298.135 2289,-238.744 2289,-238.744 2289,-232.744 2295,-226.744 2301,-226.744"/>
<text text-anchor="middle" x="2386" y="-294.935" font-family="Times,serif" font-size="14.00">Instance for: (UserId, ServiceId)</text>
</g>
<g id="clust10" class="cluster"><title>cluster_Class_ToSample_Data_UserIdTimeout</title>
<path fill="#c6e2ff" stroke="black" d="M2105,-226.744C2105,-226.744 2269,-226.744 2269,-226.744 2275,-226.744 2281,-232.744 2281,-238.744 2281,-238.744 2281,-298.135 2281,-298.135 2281,-304.135 2275,-310.135 2269,-310.135 2269,-310.135 2105,-310.135 2105,-310.135 2099,-310.135 2093,-304.135 2093,-298.135 2093,-298.135 2093,-238.744 2093,-238.744 2093,-232.744 2099,-226.744 2105,-226.744"/>
<text text-anchor="middle" x="2187" y="-294.935" font-family="Times,serif" font-size="14.00">Instance for: (UserId, Timeout)</text>
</g>
<g id="clust11" class="cluster"><title>cluster_Class_ToSample_Data_Agent</title>
<path fill="#c6e2ff" stroke="black" d="M1441,-16C1441,-16 1601,-16 1601,-16 1607,-16 1613,-22 1613,-28 1613,-28 1613,-87.3913 1613,-87.3913 1613,-93.3913 1607,-99.3913 1601,-99.3913 1601,-99.3913 1441,-99.3913 1441,-99.3913 1435,-99.3913 1429,-93.3913 1429,-87.3913 1429,-87.3913 1429,-28 1429,-28 1429,-22 1435,-16 1441,-16"/>
<text text-anchor="middle" x="1521" y="-84.1913" font-family="Times,serif" font-size="14.00">Instance for: Agent</text>
</g>
<g id="clust12" class="cluster"><title>cluster_Class_ToSample_Data_Bool</title>
<path fill="#c6e2ff" stroke="black" d="M1633,-16C1633,-16 1793,-16 1793,-16 1799,-16 1805,-22 1805,-28 1805,-28 1805,-87.3913 1805,-87.3913 1805,-93.3913 1799,-99.3913 1793,-99.3913 1793,-99.3913 1633,-99.3913 1633,-99.3913 1627,-99.3913 1621,-93.3913 1621,-87.3913 1621,-87.3913 1621,-28 1621,-28 1621,-22 1627,-16 1633,-16"/>
<text text-anchor="middle" x="1713" y="-84.1913" font-family="Times,serif" font-size="14.00">Instance for: Bool</text>
</g>
<g id="clust13" class="cluster"><title>cluster_Class_ToSample_Data_ServiceId</title>
<path fill="#c6e2ff" stroke="black" d="M1825,-16C1825,-16 2171,-16 2171,-16 2177,-16 2183,-22 2183,-28 2183,-28 2183,-87.3913 2183,-87.3913 2183,-93.3913 2177,-99.3913 2171,-99.3913 2171,-99.3913 1825,-99.3913 1825,-99.3913 1819,-99.3913 1813,-93.3913 1813,-87.3913 1813,-87.3913 1813,-28 1813,-28 1813,-22 1819,-16 1825,-16"/>
<text text-anchor="middle" x="1998" y="-84.1913" font-family="Times,serif" font-size="14.00">Instance for: [ServiceId]</text>
</g>
<g id="clust14" class="cluster"><title>cluster_Class_ToSample_Data_Session</title>
<path fill="#c6e2ff" stroke="black" d="M1913,-226.744C1913,-226.744 2073,-226.744 2073,-226.744 2079,-226.744 2085,-232.744 2085,-238.744 2085,-238.744 2085,-298.135 2085,-298.135 2085,-304.135 2079,-310.135 2073,-310.135 2073,-310.135 1913,-310.135 1913,-310.135 1907,-310.135 1901,-304.135 1901,-298.135 1901,-298.135 1901,-238.744 1901,-238.744 1901,-232.744 1907,-226.744 1913,-226.744"/>
<text text-anchor="middle" x="1993" y="-294.935" font-family="Times,serif" font-size="14.00">Instance for: Session</text>
</g>
<g id="clust15" class="cluster"><title>cluster_Class_ToSample_Data_SessionToken</title>
<path fill="#c6e2ff" stroke="black" d="M2203,-16C2203,-16 2549,-16 2549,-16 2555,-16 2561,-22 2561,-28 2561,-28 2561,-87.3913 2561,-87.3913 2561,-93.3913 2555,-99.3913 2549,-99.3913 2549,-99.3913 2203,-99.3913 2203,-99.3913 2197,-99.3913 2191,-93.3913 2191,-87.3913 2191,-87.3913 2191,-28 2191,-28 2191,-22 2197,-16 2203,-16"/>
<text text-anchor="middle" x="2376" y="-84.1913" font-family="Times,serif" font-size="14.00">Instance for: [SessionToken]</text>
</g>
<g id="clust16" class="cluster"><title>cluster_Class_ToSample_Data_UserEmail</title>
<path fill="#c6e2ff" stroke="black" d="M2581,-16C2581,-16 2741,-16 2741,-16 2747,-16 2753,-22 2753,-28 2753,-28 2753,-87.3913 2753,-87.3913 2753,-93.3913 2747,-99.3913 2741,-99.3913 2741,-99.3913 2581,-99.3913 2581,-99.3913 2575,-99.3913 2569,-93.3913 2569,-87.3913 2569,-87.3913 2569,-28 2569,-28 2569,-22 2575,-16 2581,-16"/>
<text text-anchor="middle" x="2661" y="-84.1913" font-family="Times,serif" font-size="14.00">Instance for: UserEmail</text>
</g>
<g id="clust17" class="cluster"><title>cluster_Class_ToSample_Data_UserFormData</title>
<path fill="#c6e2ff" stroke="black" d="M2773,-16C2773,-16 2933,-16 2933,-16 2939,-16 2945,-22 2945,-28 2945,-28 2945,-87.3913 2945,-87.3913 2945,-93.3913 2939,-99.3913 2933,-99.3913 2933,-99.3913 2773,-99.3913 2773,-99.3913 2767,-99.3913 2761,-93.3913 2761,-87.3913 2761,-87.3913 2761,-28 2761,-28 2761,-22 2767,-16 2773,-16"/>
<text text-anchor="middle" x="2853" y="-84.1913" font-family="Times,serif" font-size="14.00">Instance for: UserFormData</text>
</g>
<g id="clust18" class="cluster"><title>cluster_Class_ToSample_Data_UserId</title>
<path fill="#c6e2ff" stroke="black" d="M2965,-16C2965,-16 3311,-16 3311,-16 3317,-16 3323,-22 3323,-28 3323,-28 3323,-87.3913 3323,-87.3913 3323,-93.3913 3317,-99.3913 3311,-99.3913 3311,-99.3913 2965,-99.3913 2965,-99.3913 2959,-99.3913 2953,-93.3913 2953,-87.3913 2953,-87.3913 2953,-28 2953,-28 2953,-22 2959,-16 2965,-16"/>
<text text-anchor="middle" x="3138" y="-84.1913" font-family="Times,serif" font-size="14.00">Instance for: [UserId]</text>
</g>
<g id="clust19" class="cluster"><title>cluster_Class_ToSample_Data_UserName</title>
<path fill="#c6e2ff" stroke="black" d="M3343,-16C3343,-16 3503,-16 3503,-16 3509,-16 3515,-22 3515,-28 3515,-28 3515,-87.3913 3515,-87.3913 3515,-93.3913 3509,-99.3913 3503,-99.3913 3503,-99.3913 3343,-99.3913 3343,-99.3913 3337,-99.3913 3331,-93.3913 3331,-87.3913 3331,-87.3913 3331,-28 3331,-28 3331,-22 3337,-16 3343,-16"/>
<text text-anchor="middle" x="3423" y="-84.1913" font-family="Times,serif" font-size="14.00">Instance for: UserName</text>
</g>
<!-- 1 -->
<g id="node1" class="node"><title>1</title>
<polygon fill="cyan" stroke="black" stroke-width="2" points="234.943,-136.311 234.943,-154.862 184.599,-167.98 113.401,-167.98 63.0573,-154.862 63.0573,-136.311 113.401,-123.194 184.599,-123.194 234.943,-136.311"/>
<text text-anchor="middle" x="149" y="-141.887" font-family="Times,serif" font-size="14.00">toCapture</text>
</g>
<!-- 2 -->
<g id="node2" class="node"><title>2</title>
<polygon fill="cyan" stroke="black" stroke-width="2" points="469.943,-136.311 469.943,-154.862 419.599,-167.98 348.401,-167.98 298.057,-154.862 298.057,-136.311 348.401,-123.194 419.599,-123.194 469.943,-136.311"/>
<text text-anchor="middle" x="384" y="-141.887" font-family="Times,serif" font-size="14.00">toCapture</text>
</g>
<!-- 3 -->
<g id="node3" class="node"><title>3</title>
<polygon fill="cyan" stroke="black" stroke-width="2" points="704.943,-136.311 704.943,-154.862 654.599,-167.98 583.401,-167.98 533.057,-154.862 533.057,-136.311 583.401,-123.194 654.599,-123.194 704.943,-136.311"/>
<text text-anchor="middle" x="619" y="-141.887" font-family="Times,serif" font-size="14.00">toCapture</text>
</g>
<!-- 22 -->
<g id="node4" class="node"><title>22</title>
<polygon fill="khaki" stroke="black" stroke-dasharray="1,5" points="504.858,-242.925 504.858,-270.954 434.061,-290.774 333.939,-290.774 263.142,-270.954 263.142,-242.925 333.939,-223.105 434.061,-223.105 504.858,-242.925"/>
<polygon fill="none" stroke="black" stroke-dasharray="1,5" points="508.856,-239.872 508.856,-274.006 434.607,-294.792 333.393,-294.792 259.144,-274.006 259.144,-239.872 333.393,-219.086 434.607,-219.086 508.856,-239.872"/>
<text text-anchor="middle" x="384" y="-260.739" font-family="Times,serif" font-size="14.00">Unknown Module</text>
<text text-anchor="middle" x="384" y="-245.739" font-family="Times,serif" font-size="14.00">toCapture</text>
</g>
<!-- 22&#45;&gt;1 -->
<g id="edge21" class="edge"><title>22&#45;&gt;1</title>
<path fill="none" stroke="navy" d="M308.424,-225.904C288.296,-217.499 266.681,-208.104 247,-198.783 226.791,-189.211 204.775,-177.597 186.739,-167.756"/>
</g>
<!-- 22&#45;&gt;2 -->
<g id="edge22" class="edge"><title>22&#45;&gt;2</title>
<path fill="none" stroke="navy" d="M384,-219.222C384,-202.221 384,-182.615 384,-168.06"/>
</g>
<!-- 22&#45;&gt;3 -->
<g id="edge23" class="edge"><title>22&#45;&gt;3</title>
<path fill="none" stroke="navy" d="M459.576,-225.904C479.704,-217.499 501.319,-208.104 521,-198.783 541.209,-189.211 563.225,-177.597 581.261,-167.756"/>
</g>
<!-- 4 -->
<g id="node5" class="node"><title>4</title>
<polygon fill="cyan" stroke="black" stroke-width="2" points="955.381,-36.9201 955.381,-55.4711 905.952,-68.5887 836.048,-68.5887 786.619,-55.4711 786.619,-36.9201 836.048,-23.8026 905.952,-23.8026 955.381,-36.9201"/>
<text text-anchor="middle" x="871" y="-42.4956" font-family="Times,serif" font-size="14.00">toSample</text>
</g>
<!-- 5 -->
<g id="node6" class="node"><title>5</title>
<polygon fill="cyan" stroke="black" stroke-width="2" points="1183.38,-36.9201 1183.38,-55.4711 1133.95,-68.5887 1064.05,-68.5887 1014.62,-55.4711 1014.62,-36.9201 1064.05,-23.8026 1133.95,-23.8026 1183.38,-36.9201"/>
<text text-anchor="middle" x="1099" y="-42.4956" font-family="Times,serif" font-size="14.00">toSample</text>
</g>
<!-- 6 -->
<g id="node7" class="node"><title>6</title>
<polygon fill="cyan" stroke="black" stroke-width="2" points="1413.38,-36.9201 1413.38,-55.4711 1363.95,-68.5887 1294.05,-68.5887 1244.62,-55.4711 1244.62,-36.9201 1294.05,-23.8026 1363.95,-23.8026 1413.38,-36.9201"/>
<text text-anchor="middle" x="1329" y="-42.4956" font-family="Times,serif" font-size="14.00">toSample</text>
</g>
<!-- 7 -->
<g id="node8" class="node"><title>7</title>
<polygon fill="bisque" stroke="black" stroke-width="2" points="2465.38,-247.664 2465.38,-266.215 2415.95,-279.332 2346.05,-279.332 2296.62,-266.215 2296.62,-247.664 2346.05,-234.546 2415.95,-234.546 2465.38,-247.664"/>
<text text-anchor="middle" x="2381" y="-253.239" font-family="Times,serif" font-size="14.00">toSample</text>
</g>
<!-- 21 -->
<g id="node22" class="node"><title>21</title>
<polygon fill="khaki" stroke="black" stroke-dasharray="5,2" points="2287.04,-131.572 2287.04,-159.602 2228.44,-179.421 2145.56,-179.421 2086.96,-159.602 2086.96,-131.572 2145.56,-111.753 2228.44,-111.753 2287.04,-131.572"/>
<polygon fill="none" stroke="black" stroke-dasharray="5,2" points="2291.03,-128.683 2291.03,-162.491 2229.09,-183.44 2144.91,-183.44 2082.97,-162.491 2082.97,-128.683 2144.91,-107.734 2229.09,-107.734 2291.03,-128.683"/>
<text text-anchor="middle" x="2187" y="-149.387" font-family="Times,serif" font-size="14.00">Servant.Docs</text>
<text text-anchor="middle" x="2187" y="-134.387" font-family="Times,serif" font-size="14.00">toSample</text>
</g>
<!-- 7&#45;&gt;21 -->
<g id="edge1" class="edge"><title>7&#45;&gt;21</title>
<path fill="none" stroke="black" stroke-width="1.69315" d="M2340.05,-235.882C2313.53,-221.684 2278.59,-202.195 2248.75,-185.047"/>
<polygon fill="black" stroke="black" stroke-width="1.69315" points="2250.49,-182.009 2240.08,-180.044 2246.99,-188.072 2250.49,-182.009"/>
</g>
<!-- 8 -->
<g id="node9" class="node"><title>8</title>
<polygon fill="bisque" stroke="black" stroke-width="2" points="2271.38,-247.664 2271.38,-266.215 2221.95,-279.332 2152.05,-279.332 2102.62,-266.215 2102.62,-247.664 2152.05,-234.546 2221.95,-234.546 2271.38,-247.664"/>
<text text-anchor="middle" x="2187" y="-253.239" font-family="Times,serif" font-size="14.00">toSample</text>
</g>
<!-- 8&#45;&gt;21 -->
<g id="edge2" class="edge"><title>8&#45;&gt;21</title>
<path fill="none" stroke="black" d="M2181.52,-234.595C2180.49,-222.892 2180.09,-207.893 2180.31,-193.606"/>
<polygon fill="black" stroke="black" points="2183.81,-193.476 2180.58,-183.386 2176.82,-193.289 2183.81,-193.476"/>
</g>
<!-- 9 -->
<g id="node10" class="node"><title>9</title>
<polygon fill="cyan" stroke="black" stroke-width="2" points="1605.38,-36.9201 1605.38,-55.4711 1555.95,-68.5887 1486.05,-68.5887 1436.62,-55.4711 1436.62,-36.9201 1486.05,-23.8026 1555.95,-23.8026 1605.38,-36.9201"/>
<text text-anchor="middle" x="1521" y="-42.4956" font-family="Times,serif" font-size="14.00">toSample</text>
</g>
<!-- 10 -->
<g id="node11" class="node"><title>10</title>
<polygon fill="cyan" stroke="black" stroke-width="2" points="1797.38,-36.9201 1797.38,-55.4711 1747.95,-68.5887 1678.05,-68.5887 1628.62,-55.4711 1628.62,-36.9201 1678.05,-23.8026 1747.95,-23.8026 1797.38,-36.9201"/>
<text text-anchor="middle" x="1713" y="-42.4956" font-family="Times,serif" font-size="14.00">toSample</text>
</g>
<!-- 11 -->
<g id="node12" class="node"><title>11</title>
<polygon fill="cyan" stroke="black" stroke-width="2" points="2175.38,-36.9201 2175.38,-55.4711 2125.95,-68.5887 2056.05,-68.5887 2006.62,-55.4711 2006.62,-36.9201 2056.05,-23.8026 2125.95,-23.8026 2175.38,-36.9201"/>
<text text-anchor="middle" x="2091" y="-42.4956" font-family="Times,serif" font-size="14.00">toSample</text>
</g>
<!-- 12 -->
<g id="node13" class="node"><title>12</title>
<polygon fill="bisque" stroke="black" stroke-width="2" points="2077.38,-247.664 2077.38,-266.215 2027.95,-279.332 1958.05,-279.332 1908.62,-266.215 1908.62,-247.664 1958.05,-234.546 2027.95,-234.546 2077.38,-247.664"/>
<text text-anchor="middle" x="1993" y="-253.239" font-family="Times,serif" font-size="14.00">toSample</text>
</g>
<!-- 12&#45;&gt;21 -->
<g id="edge3" class="edge"><title>12&#45;&gt;21</title>
<path fill="none" stroke="black" d="M2025.38,-234.595C2050.38,-219.774 2085.75,-199.668 2117.06,-182.415"/>
<polygon fill="black" stroke="black" points="2119.12,-185.277 2126.2,-177.397 2115.75,-179.141 2119.12,-185.277"/>
</g>
<!-- 13 -->
<g id="node14" class="node"><title>13</title>
<polygon fill="cyan" stroke="black" stroke-width="2" points="2553.38,-36.9201 2553.38,-55.4711 2503.95,-68.5887 2434.05,-68.5887 2384.62,-55.4711 2384.62,-36.9201 2434.05,-23.8026 2503.95,-23.8026 2553.38,-36.9201"/>
<text text-anchor="middle" x="2469" y="-42.4956" font-family="Times,serif" font-size="14.00">toSample</text>
</g>
<!-- 14 -->
<g id="node15" class="node"><title>14</title>
<polygon fill="cyan" stroke="black" stroke-width="2" points="2745.38,-36.9201 2745.38,-55.4711 2695.95,-68.5887 2626.05,-68.5887 2576.62,-55.4711 2576.62,-36.9201 2626.05,-23.8026 2695.95,-23.8026 2745.38,-36.9201"/>
<text text-anchor="middle" x="2661" y="-42.4956" font-family="Times,serif" font-size="14.00">toSample</text>
</g>
<!-- 15 -->
<g id="node16" class="node"><title>15</title>
<polygon fill="cyan" stroke="black" stroke-width="2" points="2937.38,-36.9201 2937.38,-55.4711 2887.95,-68.5887 2818.05,-68.5887 2768.62,-55.4711 2768.62,-36.9201 2818.05,-23.8026 2887.95,-23.8026 2937.38,-36.9201"/>
<text text-anchor="middle" x="2853" y="-42.4956" font-family="Times,serif" font-size="14.00">toSample</text>
</g>
<!-- 16 -->
<g id="node17" class="node"><title>16</title>
<polygon fill="cyan" stroke="black" stroke-width="2" points="3315.38,-36.9201 3315.38,-55.4711 3265.95,-68.5887 3196.05,-68.5887 3146.62,-55.4711 3146.62,-36.9201 3196.05,-23.8026 3265.95,-23.8026 3315.38,-36.9201"/>
<text text-anchor="middle" x="3231" y="-42.4956" font-family="Times,serif" font-size="14.00">toSample</text>
</g>
<!-- 17 -->
<g id="node18" class="node"><title>17</title>
<polygon fill="cyan" stroke="black" stroke-width="2" points="3507.38,-36.9201 3507.38,-55.4711 3457.95,-68.5887 3388.05,-68.5887 3338.62,-55.4711 3338.62,-36.9201 3388.05,-23.8026 3457.95,-23.8026 3507.38,-36.9201"/>
<text text-anchor="middle" x="3423" y="-42.4956" font-family="Times,serif" font-size="14.00">toSample</text>
</g>
<!-- 18 -->
<g id="node19" class="node"><title>18</title>
<polygon fill="cyan" stroke="black" stroke-width="2" points="1989.38,-36.9201 1989.38,-55.4711 1939.95,-68.5887 1870.05,-68.5887 1820.62,-55.4711 1820.62,-36.9201 1870.05,-23.8026 1939.95,-23.8026 1989.38,-36.9201"/>
<text text-anchor="middle" x="1905" y="-42.4956" font-family="Times,serif" font-size="14.00">toSample</text>
</g>
<!-- 19 -->
<g id="node20" class="node"><title>19</title>
<polygon fill="cyan" stroke="black" stroke-width="2" points="2367.38,-36.9201 2367.38,-55.4711 2317.95,-68.5887 2248.05,-68.5887 2198.62,-55.4711 2198.62,-36.9201 2248.05,-23.8026 2317.95,-23.8026 2367.38,-36.9201"/>
<text text-anchor="middle" x="2283" y="-42.4956" font-family="Times,serif" font-size="14.00">toSample</text>
</g>
<!-- 20 -->
<g id="node21" class="node"><title>20</title>
<polygon fill="cyan" stroke="black" stroke-width="2" points="3129.38,-36.9201 3129.38,-55.4711 3079.95,-68.5887 3010.05,-68.5887 2960.62,-55.4711 2960.62,-36.9201 3010.05,-23.8026 3079.95,-23.8026 3129.38,-36.9201"/>
<text text-anchor="middle" x="3045" y="-42.4956" font-family="Times,serif" font-size="14.00">toSample</text>
</g>
<!-- 21&#45;&gt;4 -->
<g id="edge4" class="edge"><title>21&#45;&gt;4</title>
<path fill="none" stroke="navy" d="M2082.65,-143.452C1806.93,-140.068 1072.91,-128.42 967,-99.3913 943.581,-92.9726 919.581,-79.9236 901.436,-68.4794"/>
</g>
<!-- 21&#45;&gt;5 -->
<g id="edge5" class="edge"><title>21&#45;&gt;5</title>
<path fill="none" stroke="navy" d="M2082.64,-142.484C1845.21,-137.318 1278.66,-122.704 1195,-99.3913 1171.61,-92.8731 1147.61,-79.8242 1129.46,-68.4048"/>
</g>
<!-- 21&#45;&gt;6 -->
<g id="edge6" class="edge"><title>21&#45;&gt;6</title>
<path fill="none" stroke="navy" d="M2082.83,-144.002C1903.83,-142.065 1545.49,-133.857 1425,-99.3913 1401.84,-92.765 1378.03,-79.8674 1359.92,-68.5516"/>
</g>
<!-- 21&#45;&gt;7 -->
<g id="edge7" class="edge"><title>21&#45;&gt;7</title>
<path fill="none" stroke="navy" d="M2247.8,-177.397C2281.17,-195.647 2321.16,-218.311 2348.62,-234.595"/>
</g>
<!-- 21&#45;&gt;8 -->
<g id="edge8" class="edge"><title>21&#45;&gt;8</title>
<path fill="none" stroke="navy" d="M2193.42,-183.386C2194.07,-200.418 2193.76,-220.051 2192.48,-234.595"/>
</g>
<!-- 21&#45;&gt;9 -->
<g id="edge9" class="edge"><title>21&#45;&gt;9</title>
<path fill="none" stroke="navy" d="M2082.91,-141.516C1942.82,-136.495 1701.46,-124.462 1617,-99.3913 1594.09,-92.5891 1570.47,-79.8385 1552.4,-68.6427"/>
</g>
<!-- 21&#45;&gt;10 -->
<g id="edge10" class="edge"><title>21&#45;&gt;10</title>
<path fill="none" stroke="navy" d="M2082.9,-142.676C2005.69,-138.752 1898.74,-127.988 1809,-99.3913 1786.41,-92.1912 1762.99,-79.578 1744.94,-68.5546"/>
</g>
<!-- 21&#45;&gt;11 -->
<g id="edge11" class="edge"><title>21&#45;&gt;11</title>
<path fill="none" stroke="navy" d="M2150.71,-107.767C2137.64,-94.5164 2123.35,-80.0157 2112.02,-68.5253"/>
</g>
<!-- 21&#45;&gt;12 -->
<g id="edge12" class="edge"><title>21&#45;&gt;12</title>
<path fill="none" stroke="navy" d="M2133.92,-180.044C2102.4,-198.296 2063.09,-220.283 2033.95,-235.882"/>
</g>
<!-- 21&#45;&gt;13 -->
<g id="edge13" class="edge"><title>21&#45;&gt;13</title>
<path fill="none" stroke="navy" d="M2285.22,-126.523C2314.91,-119.625 2347.25,-110.643 2376,-99.3913 2396.86,-91.2257 2418.78,-79.1185 2436.09,-68.6198"/>
</g>
<!-- 21&#45;&gt;14 -->
<g id="edge14" class="edge"><title>21&#45;&gt;14</title>
<path fill="none" stroke="navy" d="M2291.1,-142.676C2368.31,-138.752 2475.26,-127.988 2565,-99.3913 2587.59,-92.1912 2611.01,-79.578 2629.06,-68.5546"/>
</g>
<!-- 21&#45;&gt;15 -->
<g id="edge15" class="edge"><title>21&#45;&gt;15</title>
<path fill="none" stroke="navy" d="M2291.09,-141.516C2431.18,-136.495 2672.54,-124.462 2757,-99.3913 2779.91,-92.5891 2803.53,-79.8385 2821.6,-68.6427"/>
</g>
<!-- 21&#45;&gt;16 -->
<g id="edge16" class="edge"><title>21&#45;&gt;16</title>
<path fill="none" stroke="navy" d="M2291.34,-142.338C2521.46,-136.987 3058.46,-122.216 3138,-99.3913 3160.6,-92.9052 3183.67,-80.0087 3201.17,-68.6584"/>
</g>
<!-- 21&#45;&gt;17 -->
<g id="edge17" class="edge"><title>21&#45;&gt;17</title>
<path fill="none" stroke="navy" d="M2291.13,-143.16C2553.7,-139.177 3228.89,-126.417 3327,-99.3913 3350.41,-92.9422 3374.41,-79.8932 3392.56,-68.4566"/>
</g>
<!-- 21&#45;&gt;18 -->
<g id="edge18" class="edge"><title>21&#45;&gt;18</title>
<path fill="none" stroke="navy" d="M2088.78,-126.523C2059.09,-119.625 2026.75,-110.643 1998,-99.3913 1977.14,-91.2257 1955.22,-79.1185 1937.91,-68.6198"/>
</g>
<!-- 21&#45;&gt;19 -->
<g id="edge19" class="edge"><title>21&#45;&gt;19</title>
<path fill="none" stroke="navy" d="M2223.29,-107.767C2236.36,-94.5164 2250.65,-80.0157 2261.98,-68.5253"/>
</g>
<!-- 21&#45;&gt;20 -->
<g id="edge20" class="edge"><title>21&#45;&gt;20</title>
<path fill="none" stroke="navy" d="M2291.17,-144.002C2470.17,-142.065 2828.51,-133.857 2949,-99.3913 2972.16,-92.765 2995.97,-79.8674 3014.08,-68.5516"/>
</g>
</g>
</svg>
