<?xml version="1.0" encoding="UTF-8" standalone="no"?>
<!DOCTYPE svg PUBLIC "-//W3C//DTD SVG 1.1//EN"
 "http://www.w3.org/Graphics/SVG/1.1/DTD/svg11.dtd">
<!-- Generated by graphviz version 2.38.0 (20140413.2041)
 -->
<!-- Title: Diagram of: Thentos.DB.Protect Pages: 1 -->
<svg width="667pt" height="332pt"
 viewBox="0.00 0.00 666.50 332.00" xmlns="http://www.w3.org/2000/svg" xmlns:xlink="http://www.w3.org/1999/xlink">
<g id="graph0" class="graph" transform="scale(1 1) rotate(0) translate(4 328)">
<title>Diagram of: Thentos.DB.Protect</title>
<polygon fill="white" stroke="none" points="-4,4 -4,-328 662.5,-328 662.5,4 -4,4"/>
<!-- 1 -->
<g id="node1" class="node"><title>1</title>
<polygon fill="goldenrod" stroke="black" stroke-width="2" points="281,-36 192,-36 192,-0 281,-0 281,-36"/>
<text text-anchor="middle" x="236.5" y="-14.3" font-family="Times,serif" font-size="14.00">*%%</text>
</g>
<!-- 2 -->
<g id="node2" class="node"><title>2</title>
<polygon fill="goldenrod" stroke="black" stroke-width="2" points="156,-108 7,-108 7,-72 156,-72 156,-108"/>
<text text-anchor="middle" x="81.5" y="-86.3" font-family="Times,serif" font-size="14.00">allowEverything</text>
</g>
<!-- 2&#45;&gt;1 -->
<g id="edge1" class="edge"><title>2&#45;&gt;1</title>
<path fill="none" stroke="black" d="M119.417,-71.8761C140.513,-62.3492 166.956,-50.4068 189.373,-40.2833"/>
<polygon fill="black" stroke="black" points="191.033,-43.374 198.706,-36.0683 188.152,-36.9944 191.033,-43.374"/>
</g>
<!-- 3 -->
<g id="node3" class="node"><title>3</title>
<polygon fill="goldenrod" stroke="black" stroke-width="2" points="187,-252 54,-252 54,-216 187,-216 187,-252"/>
<text text-anchor="middle" x="120.5" y="-230.3" font-family="Times,serif" font-size="14.00">allowNothing</text>
</g>
<!-- 3&#45;&gt;1 -->
<g id="edge2" class="edge"><title>3&#45;&gt;1</title>
<path fill="none" stroke="black" d="M138.111,-215.612C147.257,-205.821 158.048,-192.981 165.5,-180 190.834,-135.87 181.476,-117.872 203.5,-72 207.957,-62.7172 213.65,-53.0253 219.049,-44.5063"/>
<polygon fill="black" stroke="black" points="221.985,-46.4107 224.504,-36.1195 216.117,-42.594 221.985,-46.4107"/>
</g>
<!-- 4 -->
<g id="node4" class="node"><title>4</title>
<polygon fill="gold" stroke="black" stroke-width="2" points="555.5,-108 379.5,-108 379.5,-72 555.5,-72 555.5,-108"/>
<text text-anchor="middle" x="467.5" y="-86.3" font-family="Times,serif" font-size="14.00">allowReadEverything</text>
</g>
<!-- 4&#45;&gt;1 -->
<g id="edge3" class="edge"><title>4&#45;&gt;1</title>
<path fill="none" stroke="black" d="M411.286,-71.9656C374.787,-60.9052 327.451,-46.5608 291.247,-35.5899"/>
<polygon fill="black" stroke="black" points="291.934,-32.1411 281.349,-32.5906 289.904,-38.8403 291.934,-32.1411"/>
</g>
<!-- 5 -->
<g id="node5" class="node"><title>5</title>
<polygon fill="bisque" stroke="black" stroke-width="2" points="369.5,-252 205.5,-252 205.5,-216 369.5,-216 369.5,-252"/>
<text text-anchor="middle" x="287.5" y="-230.3" font-family="Times,serif" font-size="14.00">authenticateService</text>
</g>
<!-- 10 -->
<g id="node10" class="node"><title>10</title>
<polygon fill="bisque" stroke="black" stroke-width="2" points="362,-108 213,-108 213,-72 362,-72 362,-108"/>
<text text-anchor="middle" x="287.5" y="-86.3" font-family="Times,serif" font-size="14.00">makeClearance_</text>
</g>
<!-- 5&#45;&gt;10 -->
<g id="edge4" class="edge"><title>5&#45;&gt;10</title>
<path fill="none" stroke="black" d="M287.5,-215.871C287.5,-191.67 287.5,-147.211 287.5,-118.393"/>
<polygon fill="black" stroke="black" points="291,-118.189 287.5,-108.189 284,-118.189 291,-118.189"/>
</g>
<!-- 6 -->
<g id="node6" class="node"><title>6</title>
<polygon fill="bisque" stroke="black" stroke-width="2" points="591,-252 426,-252 426,-216 591,-216 591,-252"/>
<text text-anchor="middle" x="508.5" y="-230.3" font-family="Times,serif" font-size="14.00">authenticateSession</text>
</g>
<!-- 7 -->
<g id="node7" class="node"><title>7</title>
<polygon fill="bisque" stroke="black" stroke-width="2" points="468,-180 319,-180 319,-144 468,-144 468,-180"/>
<text text-anchor="middle" x="393.5" y="-158.3" font-family="Times,serif" font-size="14.00">authenticateUser</text>
</g>
<!-- 6&#45;&gt;7 -->
<g id="edge5" class="edge"><title>6&#45;&gt;7</title>
<path fill="none" stroke="black" d="M480.368,-215.876C465.332,-206.724 446.633,-195.342 430.44,-185.485"/>
<polygon fill="black" stroke="black" points="432.102,-182.4 421.74,-180.19 428.462,-188.379 432.102,-182.4"/>
</g>
<!-- 9 -->
<g id="node9" class="node"><title>9</title>
<polygon fill="cyan" stroke="black" stroke-width="2" points="658.5,-180 486.5,-180 486.5,-144 658.5,-144 658.5,-180"/>
<text text-anchor="middle" x="572.5" y="-158.3" font-family="Times,serif" font-size="14.00">getUserFromSession</text>
</g>
<!-- 6&#45;&gt;9 -->
<g id="edge6" class="edge"><title>6&#45;&gt;9</title>
<path fill="none" stroke="black" d="M524.32,-215.697C532.07,-207.22 541.539,-196.864 550.024,-187.583"/>
<polygon fill="black" stroke="black" points="552.697,-189.846 556.862,-180.104 547.531,-185.123 552.697,-189.846"/>
</g>
<!-- 7&#45;&gt;10 -->
<g id="edge7" class="edge"><title>7&#45;&gt;10</title>
<path fill="none" stroke="black" d="M367.569,-143.876C353.838,-134.808 336.794,-123.552 321.964,-113.759"/>
<polygon fill="black" stroke="black" points="323.804,-110.78 313.53,-108.19 319.946,-116.621 323.804,-110.78"/>
</g>
<!-- 8 -->
<g id="node8" class="node"><title>8</title>
<polygon fill="gold" stroke="black" stroke-width="2" points="157,-180 0,-180 0,-144 157,-144 157,-180"/>
<text text-anchor="middle" x="78.5" y="-158.3" font-family="Times,serif" font-size="14.00">createDefaultUser</text>
</g>
<!-- 8&#45;&gt;2 -->
<g id="edge8" class="edge"><title>8&#45;&gt;2</title>
<path fill="none" stroke="chartreuse" stroke-width="2.09861" d="M79.2416,-143.697C79.5722,-135.983 79.9695,-126.712 80.338,-118.112"/>
<polygon fill="chartreuse" stroke="chartreuse" stroke-width="2.09861" points="83.8355,-118.245 80.767,-108.104 76.8419,-117.945 83.8355,-118.245"/>
</g>
<!-- 10&#45;&gt;1 -->
<g id="edge9" class="edge"><title>10&#45;&gt;1</title>
<path fill="none" stroke="black" d="M274.893,-71.6966C268.903,-63.4741 261.624,-53.4832 255.021,-44.4207"/>
<polygon fill="black" stroke="black" points="257.679,-42.1257 248.962,-36.1043 252.022,-46.2477 257.679,-42.1257"/>
</g>
<!-- 11 -->
<g id="node11" class="node"><title>11</title>
<polygon fill="gold" stroke="black" stroke-width="2" points="435.5,-324 249.5,-324 249.5,-288 435.5,-288 435.5,-324"/>
<text text-anchor="middle" x="342.5" y="-302.3" font-family="Times,serif" font-size="14.00">makeThentosClearance</text>
</g>
<!-- 11&#45;&gt;3 -->
<g id="edge10" class="edge"><title>11&#45;&gt;3</title>
<path fill="none" stroke="black" d="M288.477,-287.966C257.054,-278.057 217.273,-265.514 184.312,-255.121"/>
<polygon fill="black" stroke="black" points="185.355,-251.78 174.766,-252.111 183.25,-258.456 185.355,-251.78"/>
</g>
<!-- 11&#45;&gt;5 -->
<g id="edge11" class="edge"><title>11&#45;&gt;5</title>
<path fill="none" stroke="black" d="M328.904,-287.697C322.377,-279.389 314.432,-269.277 307.253,-260.141"/>
<polygon fill="black" stroke="black" points="309.869,-257.805 300.939,-252.104 304.365,-262.13 309.869,-257.805"/>
</g>
<!-- 11&#45;&gt;6 -->
<g id="edge12" class="edge"><title>11&#45;&gt;6</title>
<path fill="none" stroke="black" d="M383.108,-287.876C405.902,-278.264 434.527,-266.193 458.67,-256.013"/>
<polygon fill="black" stroke="black" points="460.169,-259.179 468.024,-252.068 457.449,-252.729 460.169,-259.179"/>
</g>
<!-- 11&#45;&gt;7 -->
<g id="edge13" class="edge"><title>11&#45;&gt;7</title>
<path fill="none" stroke="black" d="M356.882,-287.941C364.475,-278.049 373.278,-265.006 378.5,-252 386.418,-232.279 390.157,-208.475 391.922,-190.449"/>
<polygon fill="black" stroke="black" points="395.423,-190.576 392.767,-180.319 388.447,-189.993 395.423,-190.576"/>
</g>
</g>
</svg>
