<?xml version="1.0" encoding="UTF-8" standalone="no"?>
<!DOCTYPE svg PUBLIC "-//W3C//DTD SVG 1.1//EN"
 "http://www.w3.org/Graphics/SVG/1.1/DTD/svg11.dtd">
<!-- Generated by graphviz version 2.38.0 (20140413.2041)
 -->
<!-- Title: Levels within Thentos.Types Pages: 1 -->
<svg width="17162pt" height="222pt"
 viewBox="0.00 0.00 17162.00 221.74" xmlns="http://www.w3.org/2000/svg" xmlns:xlink="http://www.w3.org/1999/xlink">
<g id="graph0" class="graph" transform="scale(1 1) rotate(0) translate(4 217.744)">
<title>Levels within Thentos.Types</title>
<polygon fill="white" stroke="none" points="-4,4 -4,-217.744 17158,-217.744 17158,4 -4,4"/>
<g id="clust1" class="cluster"><title>cluster_0</title>
<polygon fill="lavender" stroke="black" points="8,-12.1956 8,-205.744 5910,-205.744 5910,-12.1956 8,-12.1956"/>
<text text-anchor="middle" x="2959" y="-190.544" font-family="Times,serif" font-size="14.00">Exported root entities</text>
</g>
<g id="clust2" class="cluster"><title>cluster_1</title>
<polygon fill="lavender" stroke="black" points="5918,-8 5918,-91.3913 17146,-91.3913 17146,-8 5918,-8"/>
<text text-anchor="middle" x="11532" y="-76.1913" font-family="Times,serif" font-size="14.00">Level = 1</text>
</g>
<!-- 1 -->
<g id="node1" class="node"><title>1</title>
<polygon fill="goldenrod" stroke="black" stroke-width="2" points="180,-56.1956 20,-56.1956 16,-52.1956 16,-20.1956 176,-20.1956 180,-24.1956 180,-56.1956"/>
<polyline fill="none" stroke="black" stroke-width="2" points="176,-52.1956 16,-52.1956 "/>
<polyline fill="none" stroke="black" stroke-width="2" points="176,-52.1956 176,-20.1956 "/>
<polyline fill="none" stroke="black" stroke-width="2" points="176,-52.1956 180,-56.1956 "/>
<text text-anchor="middle" x="98" y="-34.4956" font-family="Times,serif" font-size="14.00">Data: ThentosError</text>
</g>
<!-- 3 -->
<g id="node2" class="node"><title>3</title>
<polygon fill="gold" stroke="black" stroke-width="2" points="5902,-155.067 5706,-155.067 5702,-151.067 5702,-119.067 5898,-119.067 5902,-123.067 5902,-155.067"/>
<polyline fill="none" stroke="black" stroke-width="2" points="5898,-151.067 5702,-151.067 "/>
<polyline fill="none" stroke="black" stroke-width="2" points="5898,-151.067 5898,-119.067 "/>
<polyline fill="none" stroke="black" stroke-width="2" points="5898,-151.067 5902,-155.067 "/>
<text text-anchor="middle" x="5802" y="-133.367" font-family="Times,serif" font-size="14.00">Data: ConfirmationToken</text>
</g>
<!-- 4 -->
<g id="node3" class="node"><title>4</title>
<polygon fill="gold" stroke="black" stroke-width="2" points="5684,-155.067 5578,-155.067 5574,-151.067 5574,-119.067 5680,-119.067 5684,-123.067 5684,-155.067"/>
<polyline fill="none" stroke="black" stroke-width="2" points="5680,-151.067 5574,-151.067 "/>
<polyline fill="none" stroke="black" stroke-width="2" points="5680,-151.067 5680,-119.067 "/>
<polyline fill="none" stroke="black" stroke-width="2" points="5680,-151.067 5684,-155.067 "/>
<text text-anchor="middle" x="5629" y="-133.367" font-family="Times,serif" font-size="14.00">Data: DB</text>
</g>
<!-- 5 -->
<g id="node4" class="node"><title>5</title>
<polygon fill="gold" stroke="black" stroke-width="2" points="5556,-155.067 5434,-155.067 5430,-151.067 5430,-119.067 5552,-119.067 5556,-123.067 5556,-155.067"/>
<polyline fill="none" stroke="black" stroke-width="2" points="5552,-151.067 5430,-151.067 "/>
<polyline fill="none" stroke="black" stroke-width="2" points="5552,-151.067 5552,-119.067 "/>
<polyline fill="none" stroke="black" stroke-width="2" points="5552,-151.067 5556,-155.067 "/>
<text text-anchor="middle" x="5493" y="-133.367" font-family="Times,serif" font-size="14.00">Data: Group</text>
</g>
<!-- 6 -->
<g id="node5" class="node"><title>6</title>
<polygon fill="goldenrod" stroke="black" stroke-width="2" points="3778,-155.067 3616,-155.067 3612,-151.067 3612,-119.067 3774,-119.067 3778,-123.067 3778,-155.067"/>
<polyline fill="none" stroke="black" stroke-width="2" points="3774,-151.067 3612,-151.067 "/>
<polyline fill="none" stroke="black" stroke-width="2" points="3774,-151.067 3774,-119.067 "/>
<polyline fill="none" stroke="black" stroke-width="2" points="3774,-151.067 3778,-155.067 "/>
<text text-anchor="middle" x="3695" y="-133.367" font-family="Times,serif" font-size="14.00">Data: HashedSecret</text>
</g>
<!-- 17 -->
<g id="node6" class="node"><title>17</title>
<polygon fill="gold" stroke="black" stroke-width="2" points="5144.5,-155.067 5031.5,-155.067 5027.5,-151.067 5027.5,-119.067 5140.5,-119.067 5144.5,-123.067 5144.5,-155.067"/>
<polyline fill="none" stroke="black" stroke-width="2" points="5140.5,-151.067 5027.5,-151.067 "/>
<polyline fill="none" stroke="black" stroke-width="2" points="5140.5,-151.067 5140.5,-119.067 "/>
<polyline fill="none" stroke="black" stroke-width="2" points="5140.5,-151.067 5144.5,-155.067 "/>
<text text-anchor="middle" x="5086" y="-133.367" font-family="Times,serif" font-size="14.00">Data: Role</text>
</g>
<!-- 18 -->
<g id="node7" class="node"><title>18</title>
<polygon fill="gold" stroke="black" stroke-width="2" points="5009,-155.067 4881,-155.067 4877,-151.067 4877,-119.067 5005,-119.067 5009,-123.067 5009,-155.067"/>
<polyline fill="none" stroke="black" stroke-width="2" points="5005,-151.067 4877,-151.067 "/>
<polyline fill="none" stroke="black" stroke-width="2" points="5005,-151.067 5005,-119.067 "/>
<polyline fill="none" stroke="black" stroke-width="2" points="5005,-151.067 5009,-155.067 "/>
<text text-anchor="middle" x="4943" y="-133.367" font-family="Times,serif" font-size="14.00">Data: Service</text>
</g>
<!-- 19 -->
<g id="node8" class="node"><title>19</title>
<polygon fill="gold" stroke="black" stroke-width="2" points="4858.5,-155.067 4737.5,-155.067 4733.5,-151.067 4733.5,-119.067 4854.5,-119.067 4858.5,-123.067 4858.5,-155.067"/>
<polyline fill="none" stroke="black" stroke-width="2" points="4854.5,-151.067 4733.5,-151.067 "/>
<polyline fill="none" stroke="black" stroke-width="2" points="4854.5,-151.067 4854.5,-119.067 "/>
<polyline fill="none" stroke="black" stroke-width="2" points="4854.5,-151.067 4858.5,-155.067 "/>
<text text-anchor="middle" x="4796" y="-133.367" font-family="Times,serif" font-size="14.00">Data: Agent</text>
</g>
<!-- 21 -->
<g id="node9" class="node"><title>21</title>
<polygon fill="goldenrod" stroke="black" stroke-width="2" points="3939.5,-155.067 3800.5,-155.067 3796.5,-151.067 3796.5,-119.067 3935.5,-119.067 3939.5,-123.067 3939.5,-155.067"/>
<polyline fill="none" stroke="black" stroke-width="2" points="3935.5,-151.067 3796.5,-151.067 "/>
<polyline fill="none" stroke="black" stroke-width="2" points="3935.5,-151.067 3935.5,-119.067 "/>
<polyline fill="none" stroke="black" stroke-width="2" points="3935.5,-151.067 3939.5,-155.067 "/>
<text text-anchor="middle" x="3868" y="-133.367" font-family="Times,serif" font-size="14.00">Data: ServiceId</text>
</g>
<!-- 22 -->
<g id="node10" class="node"><title>22</title>
<polygon fill="gold" stroke="black" stroke-width="2" points="4448.5,-155.067 4297.5,-155.067 4293.5,-151.067 4293.5,-119.067 4444.5,-119.067 4448.5,-123.067 4448.5,-155.067"/>
<polyline fill="none" stroke="black" stroke-width="2" points="4444.5,-151.067 4293.5,-151.067 "/>
<polyline fill="none" stroke="black" stroke-width="2" points="4444.5,-151.067 4444.5,-119.067 "/>
<polyline fill="none" stroke="black" stroke-width="2" points="4444.5,-151.067 4448.5,-155.067 "/>
<text text-anchor="middle" x="4371" y="-133.367" font-family="Times,serif" font-size="14.00">Data: ServiceKey</text>
</g>
<!-- 23 -->
<g id="node11" class="node"><title>23</title>
<polygon fill="gold" stroke="black" stroke-width="2" points="4275.5,-155.067 4146.5,-155.067 4142.5,-151.067 4142.5,-119.067 4271.5,-119.067 4275.5,-123.067 4275.5,-155.067"/>
<polyline fill="none" stroke="black" stroke-width="2" points="4271.5,-151.067 4142.5,-151.067 "/>
<polyline fill="none" stroke="black" stroke-width="2" points="4271.5,-151.067 4271.5,-119.067 "/>
<polyline fill="none" stroke="black" stroke-width="2" points="4271.5,-151.067 4275.5,-155.067 "/>
<text text-anchor="middle" x="4209" y="-133.367" font-family="Times,serif" font-size="14.00">Data: Session</text>
</g>
<!-- 24 -->
<g id="node12" class="node"><title>24</title>
<polygon fill="gold" stroke="black" stroke-width="2" points="4124.5,-155.067 3961.5,-155.067 3957.5,-151.067 3957.5,-119.067 4120.5,-119.067 4124.5,-123.067 4124.5,-155.067"/>
<polyline fill="none" stroke="black" stroke-width="2" points="4120.5,-151.067 3957.5,-151.067 "/>
<polyline fill="none" stroke="black" stroke-width="2" points="4120.5,-151.067 4120.5,-119.067 "/>
<polyline fill="none" stroke="black" stroke-width="2" points="4120.5,-151.067 4124.5,-155.067 "/>
<text text-anchor="middle" x="4041" y="-133.367" font-family="Times,serif" font-size="14.00">Data: SessionToken</text>
</g>
<!-- 25 -->
<g id="node13" class="node"><title>25</title>
<polygon fill="goldenrod" stroke="black" stroke-width="2" points="2104.5,-155.067 1919.5,-155.067 1915.5,-151.067 1915.5,-119.067 2100.5,-119.067 2104.5,-123.067 2104.5,-155.067"/>
<polyline fill="none" stroke="black" stroke-width="2" points="2100.5,-151.067 1915.5,-151.067 "/>
<polyline fill="none" stroke="black" stroke-width="2" points="2100.5,-151.067 2100.5,-119.067 "/>
<polyline fill="none" stroke="black" stroke-width="2" points="2100.5,-151.067 2104.5,-155.067 "/>
<text text-anchor="middle" x="2010" y="-133.367" font-family="Times,serif" font-size="14.00">Data: ThentosClearance</text>
</g>
<!-- 26 -->
<g id="node14" class="node"><title>26</title>
<polygon fill="goldenrod" stroke="black" stroke-width="2" points="1630,-155.067 1468,-155.067 1464,-151.067 1464,-119.067 1626,-119.067 1630,-123.067 1630,-155.067"/>
<polyline fill="none" stroke="black" stroke-width="2" points="1626,-151.067 1464,-151.067 "/>
<polyline fill="none" stroke="black" stroke-width="2" points="1626,-151.067 1626,-119.067 "/>
<polyline fill="none" stroke="black" stroke-width="2" points="1626,-151.067 1630,-155.067 "/>
<text text-anchor="middle" x="1547" y="-133.367" font-family="Times,serif" font-size="14.00">Data: ThentosLabel</text>
</g>
<!-- 27 -->
<g id="node15" class="node"><title>27</title>
<polygon fill="gold" stroke="black" stroke-width="2" points="3593.5,-155.067 3418.5,-155.067 3414.5,-151.067 3414.5,-119.067 3589.5,-119.067 3593.5,-123.067 3593.5,-155.067"/>
<polyline fill="none" stroke="black" stroke-width="2" points="3589.5,-151.067 3414.5,-151.067 "/>
<polyline fill="none" stroke="black" stroke-width="2" points="3589.5,-151.067 3589.5,-119.067 "/>
<polyline fill="none" stroke="black" stroke-width="2" points="3589.5,-151.067 3593.5,-155.067 "/>
<text text-anchor="middle" x="3504" y="-133.367" font-family="Times,serif" font-size="14.00">Data: ThentosLabeled</text>
</g>
<!-- 28 -->
<g id="node16" class="node"><title>28</title>
<polygon fill="goldenrod" stroke="black" stroke-width="2" points="808,-56.1956 656,-56.1956 652,-52.1956 652,-20.1956 804,-20.1956 808,-24.1956 808,-56.1956"/>
<polyline fill="none" stroke="black" stroke-width="2" points="804,-52.1956 652,-52.1956 "/>
<polyline fill="none" stroke="black" stroke-width="2" points="804,-52.1956 804,-20.1956 "/>
<polyline fill="none" stroke="black" stroke-width="2" points="804,-52.1956 808,-56.1956 "/>
<text text-anchor="middle" x="730" y="-34.4956" font-family="Times,serif" font-size="14.00">Data: TimeStamp</text>
</g>
<!-- 29 -->
<g id="node17" class="node"><title>29</title>
<polygon fill="goldenrod" stroke="black" stroke-width="2" points="431,-56.1956 297,-56.1956 293,-52.1956 293,-20.1956 427,-20.1956 431,-24.1956 431,-56.1956"/>
<polyline fill="none" stroke="black" stroke-width="2" points="427,-52.1956 293,-52.1956 "/>
<polyline fill="none" stroke="black" stroke-width="2" points="427,-52.1956 427,-20.1956 "/>
<polyline fill="none" stroke="black" stroke-width="2" points="427,-52.1956 431,-56.1956 "/>
<text text-anchor="middle" x="362" y="-34.4956" font-family="Times,serif" font-size="14.00">Data: Timeout</text>
</g>
<!-- 30 -->
<g id="node18" class="node"><title>30</title>
<polygon fill="gold" stroke="black" stroke-width="2" points="3396.5,-155.067 3283.5,-155.067 3279.5,-151.067 3279.5,-119.067 3392.5,-119.067 3396.5,-123.067 3396.5,-155.067"/>
<polyline fill="none" stroke="black" stroke-width="2" points="3392.5,-151.067 3279.5,-151.067 "/>
<polyline fill="none" stroke="black" stroke-width="2" points="3392.5,-151.067 3392.5,-119.067 "/>
<polyline fill="none" stroke="black" stroke-width="2" points="3392.5,-151.067 3396.5,-155.067 "/>
<text text-anchor="middle" x="3338" y="-133.367" font-family="Times,serif" font-size="14.00">Data: User</text>
</g>
<!-- 32 -->
<g id="node19" class="node"><title>32</title>
<polygon fill="gold" stroke="black" stroke-width="2" points="3261,-155.067 3115,-155.067 3111,-151.067 3111,-119.067 3257,-119.067 3261,-123.067 3261,-155.067"/>
<polyline fill="none" stroke="black" stroke-width="2" points="3257,-151.067 3111,-151.067 "/>
<polyline fill="none" stroke="black" stroke-width="2" points="3257,-151.067 3257,-119.067 "/>
<polyline fill="none" stroke="black" stroke-width="2" points="3257,-151.067 3261,-155.067 "/>
<text text-anchor="middle" x="3186" y="-133.367" font-family="Times,serif" font-size="14.00">Data: UserEmail</text>
</g>
<!-- 34 -->
<g id="node20" class="node"><title>34</title>
<polygon fill="gold" stroke="black" stroke-width="2" points="3092.5,-155.067 2923.5,-155.067 2919.5,-151.067 2919.5,-119.067 3088.5,-119.067 3092.5,-123.067 3092.5,-155.067"/>
<polyline fill="none" stroke="black" stroke-width="2" points="3088.5,-151.067 2919.5,-151.067 "/>
<polyline fill="none" stroke="black" stroke-width="2" points="3088.5,-151.067 3088.5,-119.067 "/>
<polyline fill="none" stroke="black" stroke-width="2" points="3088.5,-151.067 3092.5,-155.067 "/>
<text text-anchor="middle" x="3006" y="-133.367" font-family="Times,serif" font-size="14.00">Data: UserFormData</text>
</g>
<!-- 35 -->
<g id="node21" class="node"><title>35</title>
<polygon fill="gold" stroke="black" stroke-width="2" points="2901,-155.067 2777,-155.067 2773,-151.067 2773,-119.067 2897,-119.067 2901,-123.067 2901,-155.067"/>
<polyline fill="none" stroke="black" stroke-width="2" points="2897,-151.067 2773,-151.067 "/>
<polyline fill="none" stroke="black" stroke-width="2" points="2897,-151.067 2897,-119.067 "/>
<polyline fill="none" stroke="black" stroke-width="2" points="2897,-151.067 2901,-155.067 "/>
<text text-anchor="middle" x="2837" y="-133.367" font-family="Times,serif" font-size="14.00">Data: UserId</text>
</g>
<!-- 36 -->
<g id="node22" class="node"><title>36</title>
<polygon fill="gold" stroke="black" stroke-width="2" points="2755,-155.067 2609,-155.067 2605,-151.067 2605,-119.067 2751,-119.067 2755,-123.067 2755,-155.067"/>
<polyline fill="none" stroke="black" stroke-width="2" points="2751,-151.067 2605,-151.067 "/>
<polyline fill="none" stroke="black" stroke-width="2" points="2751,-151.067 2751,-119.067 "/>
<polyline fill="none" stroke="black" stroke-width="2" points="2751,-151.067 2755,-155.067 "/>
<text text-anchor="middle" x="2680" y="-133.367" font-family="Times,serif" font-size="14.00">Data: UserName</text>
</g>
<!-- 38 -->
<g id="node23" class="node"><title>38</title>
<polygon fill="gold" stroke="black" stroke-width="2" points="2586.5,-155.067 2449.5,-155.067 2445.5,-151.067 2445.5,-119.067 2582.5,-119.067 2586.5,-123.067 2586.5,-155.067"/>
<polyline fill="none" stroke="black" stroke-width="2" points="2582.5,-151.067 2445.5,-151.067 "/>
<polyline fill="none" stroke="black" stroke-width="2" points="2582.5,-151.067 2582.5,-119.067 "/>
<polyline fill="none" stroke="black" stroke-width="2" points="2582.5,-151.067 2586.5,-155.067 "/>
<text text-anchor="middle" x="2516" y="-133.367" font-family="Times,serif" font-size="14.00">Data: UserPass</text>
</g>
<!-- 100 -->
<g id="node24" class="node"><title>100</title>
<polygon fill="gold" stroke="black" stroke-width="2" points="174.5,-155.067 15.5,-155.067 15.5,-119.067 174.5,-119.067 174.5,-155.067"/>
<text text-anchor="middle" x="95" y="-133.367" font-family="Times,serif" font-size="14.00">showThentosError</text>
</g>
<!-- 100&#45;&gt;1 -->
<g id="edge11" class="edge"><title>100&#45;&gt;1</title>
<path fill="none" stroke="chartreuse" stroke-width="3.70805" d="M95.5363,-118.749C95.9843,-104.284 96.631,-83.4001 97.1495,-66.6586"/>
<polygon fill="chartreuse" stroke="chartreuse" stroke-width="3.70805" points="100.657,-66.468 97.4683,-56.3644 93.6603,-66.2513 100.657,-66.468"/>
</g>
<!-- 103 -->
<g id="node25" class="node"><title>103</title>
<polygon fill="goldenrod" stroke="black" stroke-width="2" points="725,-155.067 543,-155.067 543,-119.067 725,-119.067 725,-155.067"/>
<text text-anchor="middle" x="634" y="-133.367" font-family="Times,serif" font-size="14.00">timeStampFromString</text>
</g>
<!-- 103&#45;&gt;28 -->
<g id="edge12" class="edge"><title>103&#45;&gt;28</title>
<path fill="none" stroke="black" d="M651.163,-118.749C666.316,-103.458 688.579,-80.9923 705.586,-63.8312"/>
<polygon fill="black" stroke="black" points="708.433,-65.9311 712.986,-56.3644 703.461,-61.0037 708.433,-65.9311"/>
</g>
<!-- 104 -->
<g id="node26" class="node"><title>104</title>
<polygon fill="goldenrod" stroke="black" stroke-width="2" points="910.5,-155.067 743.5,-155.067 743.5,-119.067 910.5,-119.067 910.5,-155.067"/>
<text text-anchor="middle" x="827" y="-133.367" font-family="Times,serif" font-size="14.00">timeStampToString</text>
</g>
<!-- 104&#45;&gt;28 -->
<g id="edge13" class="edge"><title>104&#45;&gt;28</title>
<path fill="none" stroke="black" d="M809.658,-118.749C794.347,-103.458 771.852,-80.9923 754.668,-63.8312"/>
<polygon fill="black" stroke="black" points="756.741,-60.9543 747.192,-56.3644 751.794,-65.9074 756.741,-60.9543"/>
</g>
<!-- 105 -->
<g id="node27" class="node"><title>105</title>
<polygon fill="goldenrod" stroke="black" stroke-width="2" points="357,-155.067 193,-155.067 193,-119.067 357,-119.067 357,-155.067"/>
<text text-anchor="middle" x="275" y="-133.367" font-family="Times,serif" font-size="14.00">timeoutFromString</text>
</g>
<!-- 105&#45;&gt;29 -->
<g id="edge14" class="edge"><title>105&#45;&gt;29</title>
<path fill="none" stroke="black" d="M290.554,-118.749C304.286,-103.458 324.463,-80.9923 339.875,-63.8312"/>
<polygon fill="black" stroke="black" points="342.503,-66.1431 346.581,-56.3644 337.295,-61.4658 342.503,-66.1431"/>
</g>
<!-- 106 -->
<g id="node28" class="node"><title>106</title>
<polygon fill="goldenrod" stroke="black" stroke-width="2" points="524.5,-155.067 375.5,-155.067 375.5,-119.067 524.5,-119.067 524.5,-155.067"/>
<text text-anchor="middle" x="450" y="-133.367" font-family="Times,serif" font-size="14.00">timeoutToString</text>
</g>
<!-- 106&#45;&gt;29 -->
<g id="edge15" class="edge"><title>106&#45;&gt;29</title>
<path fill="none" stroke="black" d="M434.267,-118.749C420.377,-103.458 399.969,-80.9923 384.379,-63.8312"/>
<polygon fill="black" stroke="black" points="386.911,-61.4129 377.596,-56.3644 381.73,-66.1198 386.911,-61.4129"/>
</g>
<!-- 120 -->
<g id="node29" class="node"><title>120</title>
<polygon fill="khaki" stroke="black" stroke-dasharray="5,2" points="2423.46,-123.053 2423.46,-151.082 2336.5,-170.902 2213.5,-170.902 2126.54,-151.082 2126.54,-123.053 2213.5,-103.233 2336.5,-103.233 2423.46,-123.053"/>
<polygon fill="none" stroke="black" stroke-dasharray="5,2" points="2427.46,-119.843 2427.46,-154.291 2336.94,-174.921 2213.06,-174.921 2122.54,-154.291 2122.54,-119.843 2213.06,-99.2143 2336.94,-99.2143 2427.46,-119.843"/>
<text text-anchor="middle" x="2275" y="-140.867" font-family="Times,serif" font-size="14.00">Data.Configurator.Types</text>
<text text-anchor="middle" x="2275" y="-125.867" font-family="Times,serif" font-size="14.00">Class: Configured</text>
</g>
<!-- 59 -->
<g id="node37" class="node"><title>59</title>
<polygon fill="bisque" stroke="black" stroke-width="2" points="14152.7,-28.9201 14152.7,-47.4711 14041,-60.5887 13883,-60.5887 13771.3,-47.4711 13771.3,-28.9201 13883,-15.8026 14041,-15.8026 14152.7,-28.9201"/>
<text text-anchor="middle" x="13962" y="-34.4956" font-family="Times,serif" font-size="14.00">Class: Configured, Data: ServiceId</text>
</g>
<!-- 120&#45;&gt;59 -->
<g id="edge18" class="edge"><title>120&#45;&gt;59</title>
<path fill="none" stroke="navy" stroke-width="1.69315" d="M2379.21,-108.772C2397.99,-104.873 2417.48,-101.48 2436,-99.3913 2592.33,-81.7547 13607,-111.568 13763,-91.3913 13808.9,-85.459 13859.3,-72.172 13897.9,-60.4892"/>
</g>
<!-- 121 -->
<g id="node30" class="node"><title>121</title>
<polygon fill="khaki" stroke="black" stroke-dasharray="1,5" points="1893.86,-123.053 1893.86,-151.082 1823.06,-170.902 1722.94,-170.902 1652.14,-151.082 1652.14,-123.053 1722.94,-103.233 1823.06,-103.233 1893.86,-123.053"/>
<polygon fill="none" stroke="black" stroke-dasharray="1,5" points="1897.86,-120 1897.86,-154.135 1823.61,-174.921 1722.39,-174.921 1648.14,-154.135 1648.14,-120 1722.39,-99.2143 1823.61,-99.2143 1897.86,-120"/>
<text text-anchor="middle" x="1773" y="-140.867" font-family="Times,serif" font-size="14.00">Unknown Module</text>
<text text-anchor="middle" x="1773" y="-125.867" font-family="Times,serif" font-size="14.00">Class: Label</text>
</g>
<!-- 57 -->
<g id="node35" class="node"><title>57</title>
<polygon fill="bisque" stroke="black" stroke-width="2" points="12536.1,-28.9201 12536.1,-47.4711 12417.7,-60.5887 12250.3,-60.5887 12131.9,-47.4711 12131.9,-28.9201 12250.3,-15.8026 12417.7,-15.8026 12536.1,-28.9201"/>
<text text-anchor="middle" x="12334" y="-34.4956" font-family="Times,serif" font-size="14.00">Class: Label, Data: ThentosClearance</text>
</g>
<!-- 121&#45;&gt;57 -->
<g id="edge19" class="edge"><title>121&#45;&gt;57</title>
<path fill="none" stroke="navy" stroke-width="2.09861" d="M1858.51,-108.871C1874.16,-104.933 1890.45,-101.502 1906,-99.3913 2046.6,-80.3045 11981.2,-108.531 12122,-91.3913 12170.7,-85.4617 12224.4,-72.1747 12265.6,-60.4912"/>
</g>
<!-- 58 -->
<g id="node36" class="node"><title>58</title>
<polygon fill="bisque" stroke="black" stroke-width="2" points="12113.4,-28.9201 12113.4,-47.4711 12005.4,-60.5887 11852.6,-60.5887 11744.6,-47.4711 11744.6,-28.9201 11852.6,-15.8026 12005.4,-15.8026 12113.4,-28.9201"/>
<text text-anchor="middle" x="11929" y="-34.4956" font-family="Times,serif" font-size="14.00">Class: Label, Data: ThentosLabel</text>
</g>
<!-- 121&#45;&gt;58 -->
<g id="edge20" class="edge"><title>121&#45;&gt;58</title>
<path fill="none" stroke="navy" stroke-width="2.09861" d="M1858.51,-108.872C1874.16,-104.934 1890.45,-101.502 1906,-99.3913 2041.29,-81.0236 11600.7,-109.424 11736,-91.3913 11780.6,-85.4541 11829.4,-72.1672 11866.8,-60.4856"/>
</g>
<!-- 122 -->
<g id="node31" class="node"><title>122</title>
<polygon fill="khaki" stroke="black" stroke-dasharray="1,5" points="1441.86,-123.053 1441.86,-151.082 1371.06,-170.902 1270.94,-170.902 1200.14,-151.082 1200.14,-123.053 1270.94,-103.233 1371.06,-103.233 1441.86,-123.053"/>
<polygon fill="none" stroke="black" stroke-dasharray="1,5" points="1445.86,-120 1445.86,-154.135 1371.61,-174.921 1270.39,-174.921 1196.14,-154.135 1196.14,-120 1270.39,-99.2143 1371.61,-99.2143 1445.86,-120"/>
<text text-anchor="middle" x="1321" y="-140.867" font-family="Times,serif" font-size="14.00">Unknown Module</text>
<text text-anchor="middle" x="1321" y="-125.867" font-family="Times,serif" font-size="14.00">Class: SafeCopy</text>
</g>
<!-- 74 -->
<g id="node38" class="node"><title>74</title>
<polygon fill="bisque" stroke="black" stroke-width="2" points="12985.7,-28.9201 12985.7,-47.4711 12859.3,-60.5887 12680.7,-60.5887 12554.3,-47.4711 12554.3,-28.9201 12680.7,-15.8026 12859.3,-15.8026 12985.7,-28.9201"/>
<text text-anchor="middle" x="12770" y="-34.4956" font-family="Times,serif" font-size="14.00">Class: SafeCopy, Data: (HashedSecret a)</text>
</g>
<!-- 122&#45;&gt;74 -->
<g id="edge21" class="edge"><title>122&#45;&gt;74</title>
<path fill="none" stroke="navy" stroke-width="1.69315" d="M1406.8,-108.961C1422.68,-104.985 1439.22,-101.517 1455,-99.3913 1607.65,-78.8223 12392,-108.964 12545,-91.3913 12596.7,-85.4554 12653.8,-72.1284 12697.5,-60.4273"/>
</g>
<!-- 75 -->
<g id="node39" class="node"><title>75</title>
<polygon fill="cyan" stroke="black" stroke-width="2" points="10431,-28.9201 10431,-47.4711 10299.8,-60.5887 10114.2,-60.5887 9982.99,-47.4711 9982.99,-28.9201 10114.2,-15.8026 10299.8,-15.8026 10431,-28.9201"/>
<text text-anchor="middle" x="10207" y="-34.4956" font-family="Times,serif" font-size="14.00">Class: SafeCopy, Data: (ThentosLabeled t)</text>
</g>
<!-- 122&#45;&gt;75 -->
<g id="edge22" class="edge"><title>122&#45;&gt;75</title>
<path fill="none" stroke="navy" stroke-width="1.69315" d="M1406.8,-108.963C1422.68,-104.987 1439.22,-101.519 1455,-99.3913 1572.24,-83.5799 9855.41,-104.402 9973,-91.3913 10026.7,-85.4517 10086.1,-72.1247 10131.6,-60.4246"/>
</g>
<!-- 76 -->
<g id="node40" class="node"><title>76</title>
<polygon fill="cyan" stroke="black" stroke-width="2" points="11726.8,-28.9201 11726.8,-47.4711 11598.1,-60.5887 11415.9,-60.5887 11287.2,-47.4711 11287.2,-28.9201 11415.9,-15.8026 11598.1,-15.8026 11726.8,-28.9201"/>
<text text-anchor="middle" x="11507" y="-34.4956" font-family="Times,serif" font-size="14.00">Class: SafeCopy, Data: ThentosClearance</text>
</g>
<!-- 122&#45;&gt;76 -->
<g id="edge23" class="edge"><title>122&#45;&gt;76</title>
<path fill="none" stroke="navy" stroke-width="1.69315" d="M1406.8,-108.962C1422.68,-104.986 1439.22,-101.518 1455,-99.3913 1590.22,-81.1641 11143.4,-106.768 11279,-91.3913 11331.4,-85.4537 11389.2,-72.1268 11433.5,-60.4261"/>
</g>
<!-- 77 -->
<g id="node41" class="node"><title>77</title>
<polygon fill="cyan" stroke="black" stroke-width="2" points="11269.5,-28.9201 11269.5,-47.4711 11152.6,-60.5887 10987.4,-60.5887 10870.5,-47.4711 10870.5,-28.9201 10987.4,-15.8026 11152.6,-15.8026 11269.5,-28.9201"/>
<text text-anchor="middle" x="11070" y="-34.4956" font-family="Times,serif" font-size="14.00">Class: SafeCopy, Data: ThentosError</text>
</g>
<!-- 122&#45;&gt;77 -->
<g id="edge24" class="edge"><title>122&#45;&gt;77</title>
<path fill="none" stroke="navy" stroke-width="1.69315" d="M1406.8,-108.962C1422.68,-104.986 1439.22,-101.518 1455,-99.3913 1584.47,-81.9373 10731.3,-107.392 10861,-91.3913 10909.1,-85.4592 10962,-72.1721 11002.5,-60.4893"/>
</g>
<!-- 78 -->
<g id="node42" class="node"><title>78</title>
<polygon fill="cyan" stroke="black" stroke-width="2" points="10852.1,-28.9201 10852.1,-47.4711 10734.3,-60.5887 10567.7,-60.5887 10449.9,-47.4711 10449.9,-28.9201 10567.7,-15.8026 10734.3,-15.8026 10852.1,-28.9201"/>
<text text-anchor="middle" x="10651" y="-34.4956" font-family="Times,serif" font-size="14.00">Class: SafeCopy, Data: ThentosLabel</text>
</g>
<!-- 122&#45;&gt;78 -->
<g id="edge25" class="edge"><title>122&#45;&gt;78</title>
<path fill="none" stroke="navy" stroke-width="1.69315" d="M1406.8,-108.963C1422.68,-104.987 1439.22,-101.518 1455,-99.3913 1578.67,-82.7161 10316.1,-106.541 10440,-91.3913 10488.5,-85.4588 10541.9,-72.1718 10582.9,-60.489"/>
</g>
<!-- 79 -->
<g id="node43" class="node"><title>79</title>
<polygon fill="bisque" stroke="black" stroke-width="2" points="7508.31,-28.9201 7508.31,-47.4711 7394.48,-60.5887 7233.52,-60.5887 7119.69,-47.4711 7119.69,-28.9201 7233.52,-15.8026 7394.48,-15.8026 7508.31,-28.9201"/>
<text text-anchor="middle" x="7314" y="-34.4956" font-family="Times,serif" font-size="14.00">Class: SafeCopy, Data: TimeStamp</text>
</g>
<!-- 122&#45;&gt;79 -->
<g id="edge26" class="edge"><title>122&#45;&gt;79</title>
<path fill="none" stroke="navy" stroke-width="1.69315" d="M1406.8,-108.97C1422.68,-104.993 1439.22,-101.523 1455,-99.3913 1610.67,-78.3603 6954.16,-111.124 7110,-91.3913 7156.97,-85.4443 7208.62,-72.1574 7248.2,-60.4784"/>
</g>
<!-- 80 -->
<g id="node44" class="node"><title>80</title>
<polygon fill="bisque" stroke="black" stroke-width="2" points="6680.75,-28.9201 6680.75,-47.4711 6574.87,-60.5887 6425.13,-60.5887 6319.25,-47.4711 6319.25,-28.9201 6425.13,-15.8026 6574.87,-15.8026 6680.75,-28.9201"/>
<text text-anchor="middle" x="6500" y="-34.4956" font-family="Times,serif" font-size="14.00">Class: SafeCopy, Data: Timeout</text>
</g>
<!-- 122&#45;&gt;80 -->
<g id="edge27" class="edge"><title>122&#45;&gt;80</title>
<path fill="none" stroke="navy" stroke-width="1.69315" d="M1406.8,-108.973C1422.68,-104.995 1439.22,-101.524 1455,-99.3913 1588.67,-81.3162 6177.35,-109.619 6311,-91.3913 6354.68,-85.4342 6402.53,-72.1474 6439.16,-60.471"/>
</g>
<!-- 125 -->
<g id="node32" class="node"><title>125</title>
<polygon fill="khaki" stroke="black" stroke-dasharray="1,5" points="1173.86,-123.053 1173.86,-151.082 1103.06,-170.902 1002.94,-170.902 932.142,-151.082 932.142,-123.053 1002.94,-103.233 1103.06,-103.233 1173.86,-123.053"/>
<polygon fill="none" stroke="black" stroke-dasharray="1,5" points="1177.86,-120 1177.86,-154.135 1103.61,-174.921 1002.39,-174.921 928.144,-154.135 928.144,-120 1002.39,-99.2143 1103.61,-99.2143 1177.86,-120"/>
<text text-anchor="middle" x="1053" y="-140.867" font-family="Times,serif" font-size="14.00">Unknown Module</text>
<text text-anchor="middle" x="1053" y="-125.867" font-family="Times,serif" font-size="14.00">Class: FromJSON</text>
</g>
<!-- 85 -->
<g id="node45" class="node"><title>85</title>
<polygon fill="cyan" stroke="black" stroke-width="2" points="7879.6,-28.9201 7879.6,-47.4711 7776.15,-60.5887 7629.85,-60.5887 7526.4,-47.4711 7526.4,-28.9201 7629.85,-15.8026 7776.15,-15.8026 7879.6,-28.9201"/>
<text text-anchor="middle" x="7703" y="-34.4956" font-family="Times,serif" font-size="14.00">Class: FromJSON, Data: Agent</text>
</g>
<!-- 125&#45;&gt;85 -->
<g id="edge28" class="edge"><title>125&#45;&gt;85</title>
<path fill="none" stroke="navy" d="M1138.8,-108.968C1154.68,-104.991 1171.22,-101.521 1187,-99.3913 1274.13,-87.6272 7429.91,-103.435 7517,-91.3913 7560.02,-85.4413 7607.12,-72.1545 7643.15,-60.4762"/>
</g>
<!-- 86 -->
<g id="node46" class="node"><title>86</title>
<polygon fill="cyan" stroke="black" stroke-width="2" points="9964.18,-28.9201 9964.18,-47.4711 9852.19,-60.5887 9693.81,-60.5887 9581.82,-47.4711 9581.82,-28.9201 9693.81,-15.8026 9852.19,-15.8026 9964.18,-28.9201"/>
<text text-anchor="middle" x="9773" y="-34.4956" font-family="Times,serif" font-size="14.00">Class: FromJSON, Data: ServiceId</text>
</g>
<!-- 125&#45;&gt;86 -->
<g id="edge29" class="edge"><title>125&#45;&gt;86</title>
<path fill="none" stroke="navy" d="M1138.8,-108.964C1154.68,-104.987 1171.22,-101.519 1187,-99.3913 1302.43,-83.8241 9457.48,-106.273 9573,-91.3913 9619.09,-85.4537 9669.73,-72.1667 9708.52,-60.4853"/>
</g>
<!-- 87 -->
<g id="node47" class="node"><title>87</title>
<polygon fill="cyan" stroke="black" stroke-width="2" points="9563.52,-28.9201 9563.52,-47.4711 9446.64,-60.5887 9281.36,-60.5887 9164.48,-47.4711 9164.48,-28.9201 9281.36,-15.8026 9446.64,-15.8026 9563.52,-28.9201"/>
<text text-anchor="middle" x="9364" y="-34.4956" font-family="Times,serif" font-size="14.00">Class: FromJSON, Data: ServiceKey</text>
</g>
<!-- 125&#45;&gt;87 -->
<g id="edge30" class="edge"><title>125&#45;&gt;87</title>
<path fill="none" stroke="navy" d="M1138.8,-108.964C1154.68,-104.988 1171.22,-101.519 1187,-99.3913 1296.67,-84.5973 9045.17,-104.955 9155,-91.3913 9203.07,-85.4555 9255.99,-72.1685 9296.55,-60.4866"/>
</g>
<!-- 88 -->
<g id="node48" class="node"><title>88</title>
<polygon fill="cyan" stroke="black" stroke-width="2" points="9145.85,-28.9201 9145.85,-47.4711 9038.74,-60.5887 8887.26,-60.5887 8780.15,-47.4711 8780.15,-28.9201 8887.26,-15.8026 9038.74,-15.8026 9145.85,-28.9201"/>
<text text-anchor="middle" x="8963" y="-34.4956" font-family="Times,serif" font-size="14.00">Class: FromJSON, Data: Session</text>
</g>
<!-- 125&#45;&gt;88 -->
<g id="edge31" class="edge"><title>125&#45;&gt;88</title>
<path fill="none" stroke="navy" d="M1138.8,-108.965C1154.68,-104.988 1171.22,-101.52 1187,-99.3913 1291.39,-85.3076 8666.6,-105.385 8771,-91.3913 8815.34,-85.4484 8863.95,-72.1615 8901.17,-60.4814"/>
</g>
<!-- 89 -->
<g id="node49" class="node"><title>89</title>
<polygon fill="cyan" stroke="black" stroke-width="2" points="8761.92,-28.9201 8761.92,-47.4711 8638.95,-60.5887 8465.05,-60.5887 8342.08,-47.4711 8342.08,-28.9201 8465.05,-15.8026 8638.95,-15.8026 8761.92,-28.9201"/>
<text text-anchor="middle" x="8552" y="-34.4956" font-family="Times,serif" font-size="14.00">Class: FromJSON, Data: SessionToken</text>
</g>
<!-- 125&#45;&gt;89 -->
<g id="edge32" class="edge"><title>125&#45;&gt;89</title>
<path fill="none" stroke="navy" d="M1138.8,-108.966C1154.68,-104.989 1171.22,-101.52 1187,-99.3913 1285.37,-86.116 8235.43,-103.083 8334,-91.3913 8384.05,-85.455 8439.24,-72.1681 8481.58,-60.4863"/>
</g>
<!-- 90 -->
<g id="node50" class="node"><title>90</title>
<polygon fill="bisque" stroke="black" stroke-width="2" points="7101.08,-28.9201 7101.08,-47.4711 6983.29,-60.5887 6816.71,-60.5887 6698.92,-47.4711 6698.92,-28.9201 6816.71,-15.8026 6983.29,-15.8026 7101.08,-28.9201"/>
<text text-anchor="middle" x="6900" y="-34.4956" font-family="Times,serif" font-size="14.00">Class: FromJSON, Data: TimeStamp</text>
</g>
<!-- 125&#45;&gt;90 -->
<g id="edge33" class="edge"><title>125&#45;&gt;90</title>
<path fill="none" stroke="navy" d="M1138.8,-108.97C1154.68,-104.993 1171.22,-101.523 1187,-99.3913 1338.48,-78.9227 6538.28,-110.075 6690,-91.3913 6738.29,-85.4449 6791.46,-72.1581 6832.22,-60.4789"/>
</g>
<!-- 91 -->
<g id="node51" class="node"><title>91</title>
<polygon fill="bisque" stroke="black" stroke-width="2" points="6301.53,-28.9201 6301.53,-47.4711 6191.68,-60.5887 6036.32,-60.5887 5926.47,-47.4711 5926.47,-28.9201 6036.32,-15.8026 6191.68,-15.8026 6301.53,-28.9201"/>
<text text-anchor="middle" x="6114" y="-34.4956" font-family="Times,serif" font-size="14.00">Class: FromJSON, Data: Timeout</text>
</g>
<!-- 125&#45;&gt;91 -->
<g id="edge34" class="edge"><title>125&#45;&gt;91</title>
<path fill="none" stroke="navy" d="M1138.8,-108.973C1154.68,-104.996 1171.22,-101.525 1187,-99.3913 1317.12,-81.7935 5783.78,-108.216 5914,-91.3913 5960.09,-85.4367 6010.73,-72.1499 6049.52,-60.4728"/>
</g>
<!-- 92 -->
<g id="node52" class="node"><title>92</title>
<polygon fill="cyan" stroke="black" stroke-width="2" points="8324.57,-28.9201 8324.57,-47.4711 8199.47,-60.5887 8022.53,-60.5887 7897.43,-47.4711 7897.43,-28.9201 8022.53,-15.8026 8199.47,-15.8026 8324.57,-28.9201"/>
<text text-anchor="middle" x="8111" y="-34.4956" font-family="Times,serif" font-size="14.00">Class: FromJSON, Data: UserFormData</text>
</g>
<!-- 125&#45;&gt;92 -->
<g id="edge35" class="edge"><title>125&#45;&gt;92</title>
<path fill="none" stroke="navy" d="M1138.8,-108.967C1154.68,-104.99 1171.22,-101.521 1187,-99.3913 1279.25,-86.9391 7796.54,-102.17 7889,-91.3913 7940.03,-85.4426 7996.36,-72.1158 8039.51,-60.4179"/>
</g>
<!-- 127 -->
<g id="node33" class="node"><title>127</title>
<polygon fill="khaki" stroke="black" stroke-dasharray="1,5" points="5407.86,-123.053 5407.86,-151.082 5337.06,-170.902 5236.94,-170.902 5166.14,-151.082 5166.14,-123.053 5236.94,-103.233 5337.06,-103.233 5407.86,-123.053"/>
<polygon fill="none" stroke="black" stroke-dasharray="1,5" points="5411.86,-120 5411.86,-154.135 5337.61,-174.921 5236.39,-174.921 5162.14,-154.135 5162.14,-120 5236.39,-99.2143 5337.61,-99.2143 5411.86,-120"/>
<text text-anchor="middle" x="5287" y="-140.867" font-family="Times,serif" font-size="14.00">Unknown Module</text>
<text text-anchor="middle" x="5287" y="-125.867" font-family="Times,serif" font-size="14.00">Class: ToCNF</text>
</g>
<!-- 107 -->
<g id="node53" class="node"><title>107</title>
<polygon fill="cyan" stroke="black" stroke-width="2" points="16810,-28.9201 16810,-47.4711 16715.7,-60.5887 16582.3,-60.5887 16488,-47.4711 16488,-28.9201 16582.3,-15.8026 16715.7,-15.8026 16810,-28.9201"/>
<text text-anchor="middle" x="16649" y="-34.4956" font-family="Times,serif" font-size="14.00">Class: ToCNF, Data: Agent</text>
</g>
<!-- 127&#45;&gt;107 -->
<g id="edge36" class="edge"><title>127&#45;&gt;107</title>
<path fill="none" stroke="navy" d="M5372.8,-108.961C5388.68,-104.985 5405.22,-101.517 5421,-99.3913 5497.1,-89.1364 16403.1,-102.814 16479,-91.3913 16518.5,-85.4438 16561.6,-72.157 16594.5,-60.4781"/>
</g>
<!-- 108 -->
<g id="node54" class="node"><title>108</title>
<polygon fill="cyan" stroke="black" stroke-width="2" points="17138.2,-28.9201 17138.2,-47.4711 17047.3,-60.5887 16918.7,-60.5887 16827.8,-47.4711 16827.8,-28.9201 16918.7,-15.8026 17047.3,-15.8026 17138.2,-28.9201"/>
<text text-anchor="middle" x="16983" y="-34.4956" font-family="Times,serif" font-size="14.00">Class: ToCNF, Data: Role</text>
</g>
<!-- 127&#45;&gt;108 -->
<g id="edge37" class="edge"><title>127&#45;&gt;108</title>
<path fill="none" stroke="navy" d="M5372.8,-108.96C5388.68,-104.984 5405.22,-101.517 5421,-99.3913 5499.44,-88.822 16740.8,-103.565 16819,-91.3913 16857.2,-85.4401 16898.8,-72.1533 16930.4,-60.4753"/>
</g>
<!-- 128 -->
<g id="node34" class="node"><title>128</title>
<polygon fill="khaki" stroke="black" stroke-dasharray="1,5" points="4711.86,-123.053 4711.86,-151.082 4641.06,-170.902 4540.94,-170.902 4470.14,-151.082 4470.14,-123.053 4540.94,-103.233 4641.06,-103.233 4711.86,-123.053"/>
<polygon fill="none" stroke="black" stroke-dasharray="1,5" points="4715.86,-120 4715.86,-154.135 4641.61,-174.921 4540.39,-174.921 4466.14,-154.135 4466.14,-120 4540.39,-99.2143 4641.61,-99.2143 4715.86,-120"/>
<text text-anchor="middle" x="4591" y="-140.867" font-family="Times,serif" font-size="14.00">Unknown Module</text>
<text text-anchor="middle" x="4591" y="-125.867" font-family="Times,serif" font-size="14.00">Class: ToJSON</text>
</g>
<!-- 109 -->
<g id="node55" class="node"><title>109</title>
<polygon fill="cyan" stroke="black" stroke-width="2" points="15273.1,-28.9201 15273.1,-47.4711 15176.4,-60.5887 15039.6,-60.5887 14942.9,-47.4711 14942.9,-28.9201 15039.6,-15.8026 15176.4,-15.8026 15273.1,-28.9201"/>
<text text-anchor="middle" x="15108" y="-34.4956" font-family="Times,serif" font-size="14.00">Class: ToJSON, Data: Agent</text>
</g>
<!-- 128&#45;&gt;109 -->
<g id="edge38" class="edge"><title>128&#45;&gt;109</title>
<path fill="none" stroke="navy" d="M4676.51,-108.871C4692.16,-104.933 4708.45,-101.502 4724,-99.3913 4864.52,-80.3157 14793.7,-112.037 14934,-91.3913 14974.4,-85.4451 15018.5,-72.1583 15052.1,-60.479"/>
</g>
<!-- 110 -->
<g id="node56" class="node"><title>110</title>
<polygon fill="cyan" stroke="black" stroke-width="2" points="14924.7,-28.9201 14924.7,-47.4711 14819.4,-60.5887 14670.6,-60.5887 14565.3,-47.4711 14565.3,-28.9201 14670.6,-15.8026 14819.4,-15.8026 14924.7,-28.9201"/>
<text text-anchor="middle" x="14745" y="-34.4956" font-family="Times,serif" font-size="14.00">Class: ToJSON, Data: ServiceId</text>
</g>
<!-- 128&#45;&gt;110 -->
<g id="edge39" class="edge"><title>128&#45;&gt;110</title>
<path fill="none" stroke="navy" d="M4676.51,-108.872C4692.16,-104.934 4708.45,-101.502 4724,-99.3913 4859.31,-81.0199 14420.7,-109.788 14556,-91.3913 14599.7,-85.4524 14647.5,-72.1654 14684.2,-60.4843"/>
</g>
<!-- 111 -->
<g id="node57" class="node"><title>111</title>
<polygon fill="cyan" stroke="black" stroke-width="2" points="14547.1,-28.9201 14547.1,-47.4711 14436.9,-60.5887 14281.1,-60.5887 14170.9,-47.4711 14170.9,-28.9201 14281.1,-15.8026 14436.9,-15.8026 14547.1,-28.9201"/>
<text text-anchor="middle" x="14359" y="-34.4956" font-family="Times,serif" font-size="14.00">Class: ToJSON, Data: ServiceKey</text>
</g>
<!-- 128&#45;&gt;111 -->
<g id="edge40" class="edge"><title>128&#45;&gt;111</title>
<path fill="none" stroke="navy" d="M4676.51,-108.872C4692.16,-104.934 4708.45,-101.502 4724,-99.3913 4853.89,-81.7539 14032,-108.374 14162,-91.3913 14207.4,-85.455 14257.3,-72.168 14295.5,-60.4863"/>
</g>
<!-- 112 -->
<g id="node58" class="node"><title>112</title>
<polygon fill="cyan" stroke="black" stroke-width="2" points="16470.4,-28.9201 16470.4,-47.4711 16370,-60.5887 16228,-60.5887 16127.6,-47.4711 16127.6,-28.9201 16228,-15.8026 16370,-15.8026 16470.4,-28.9201"/>
<text text-anchor="middle" x="16299" y="-34.4956" font-family="Times,serif" font-size="14.00">Class: ToJSON, Data: Session</text>
</g>
<!-- 128&#45;&gt;112 -->
<g id="edge41" class="edge"><title>128&#45;&gt;112</title>
<path fill="none" stroke="navy" d="M4676.51,-108.87C4692.16,-104.932 4708.45,-101.501 4724,-99.3913 4880.81,-78.11 15961.3,-113.588 16118,-91.3913 16159.9,-85.4508 16205.8,-72.1639 16240.8,-60.4832"/>
</g>
<!-- 113 -->
<g id="node59" class="node"><title>113</title>
<polygon fill="cyan" stroke="black" stroke-width="2" points="16109.5,-28.9201 16109.5,-47.4711 15993.2,-60.5887 15828.8,-60.5887 15712.5,-47.4711 15712.5,-28.9201 15828.8,-15.8026 15993.2,-15.8026 16109.5,-28.9201"/>
<text text-anchor="middle" x="15911" y="-34.4956" font-family="Times,serif" font-size="14.00">Class: ToJSON, Data: SessionToken</text>
</g>
<!-- 128&#45;&gt;113 -->
<g id="edge42" class="edge"><title>128&#45;&gt;113</title>
<path fill="none" stroke="navy" d="M4676.51,-108.871C4692.16,-104.933 4708.45,-101.501 4724,-99.3913 4875.11,-78.8812 15552.7,-110.233 15704,-91.3913 15751.6,-85.4614 15804,-72.1744 15844.2,-60.491"/>
</g>
<!-- 114 -->
<g id="node60" class="node"><title>114</title>
<polygon fill="bisque" stroke="black" stroke-width="2" points="13753.6,-28.9201 13753.6,-47.4711 13642.5,-60.5887 13485.5,-60.5887 13374.4,-47.4711 13374.4,-28.9201 13485.5,-15.8026 13642.5,-15.8026 13753.6,-28.9201"/>
<text text-anchor="middle" x="13564" y="-34.4956" font-family="Times,serif" font-size="14.00">Class: ToJSON, Data: TimeStamp</text>
</g>
<!-- 128&#45;&gt;114 -->
<g id="edge43" class="edge"><title>128&#45;&gt;114</title>
<path fill="none" stroke="navy" d="M4676.51,-108.873C4692.16,-104.935 4708.45,-101.503 4724,-99.3913 4842.92,-83.2386 13246,-106.797 13365,-91.3913 13410.9,-85.454 13461.3,-72.167 13499.9,-60.4855"/>
</g>
<!-- 115 -->
<g id="node61" class="node"><title>115</title>
<polygon fill="bisque" stroke="black" stroke-width="2" points="13356.1,-28.9201 13356.1,-47.4711 13252.9,-60.5887 13107.1,-60.5887 13003.9,-47.4711 13003.9,-28.9201 13107.1,-15.8026 13252.9,-15.8026 13356.1,-28.9201"/>
<text text-anchor="middle" x="13180" y="-34.4956" font-family="Times,serif" font-size="14.00">Class: ToJSON, Data: Timeout</text>
</g>
<!-- 128&#45;&gt;115 -->
<g id="edge44" class="edge"><title>128&#45;&gt;115</title>
<path fill="none" stroke="navy" d="M4676.51,-108.874C4692.16,-104.935 4708.45,-101.503 4724,-99.3913 4837.83,-83.9279 12881.2,-107.191 12995,-91.3913 13037.8,-85.4472 13084.6,-72.1603 13120.5,-60.4805"/>
</g>
<!-- 116 -->
<g id="node62" class="node"><title>116</title>
<polygon fill="cyan" stroke="black" stroke-width="2" points="15695.1,-28.9201 15695.1,-47.4711 15576.7,-60.5887 15409.3,-60.5887 15290.9,-47.4711 15290.9,-28.9201 15409.3,-15.8026 15576.7,-15.8026 15695.1,-28.9201"/>
<text text-anchor="middle" x="15493" y="-34.4956" font-family="Times,serif" font-size="14.00">Class: ToJSON, Data: UserFormData</text>
</g>
<!-- 128&#45;&gt;116 -->
<g id="edge45" class="edge"><title>128&#45;&gt;116</title>
<path fill="none" stroke="navy" d="M4676.51,-108.871C4692.16,-104.933 4708.45,-101.502 4724,-99.3913 4869.31,-79.6674 15136.4,-109.183 15282,-91.3913 15330.5,-85.462 15383.9,-72.175 15424.9,-60.4914"/>
</g>
<!-- 57&#45;&gt;25 -->
<g id="edge1" class="edge"><title>57&#45;&gt;25</title>
<path fill="none" stroke="chartreuse" stroke-width="3.07944" d="M12265.6,-60.4909C12224.4,-72.1743 12170.7,-85.4613 12122,-91.3913 12053,-99.7873 2182.5,-87.6387 2114,-99.3913 2095.39,-102.585 2075.68,-108.763 2058.48,-115.151"/>
<polygon fill="chartreuse" stroke="chartreuse" stroke-width="3.07944" points="2056.75,-112.064 2048.67,-118.915 2059.26,-118.599 2056.75,-112.064"/>
</g>
<!-- 58&#45;&gt;26 -->
<g id="edge2" class="edge"><title>58&#45;&gt;26</title>
<path fill="none" stroke="chartreuse" stroke-width="3.07944" d="M11866.8,-60.486C11829.4,-72.1676 11780.6,-85.4546 11736,-91.3913 11666.5,-100.652 1707.86,-86.1441 1639,-99.3913 1622.66,-102.536 1605.52,-108.546 1590.52,-114.805"/>
<polygon fill="chartreuse" stroke="chartreuse" stroke-width="3.07944" points="1588.8,-111.74 1581.01,-118.926 1591.58,-118.163 1588.8,-111.74"/>
</g>
<!-- 59&#45;&gt;21 -->
<g id="edge3" class="edge"><title>59&#45;&gt;21</title>
<path fill="none" stroke="chartreuse" d="M13897.9,-60.4874C13859.3,-72.1695 13808.9,-85.4565 13763,-91.3913 13695.4,-100.137 4014.59,-84.8271 3948,-99.3913 3933.83,-102.491 3919.16,-108.337 3906.32,-114.466"/>
<polygon fill="chartreuse" stroke="chartreuse" points="3904.72,-111.354 3897.32,-118.943 3907.84,-117.621 3904.72,-111.354"/>
</g>
<!-- 74&#45;&gt;6 -->
<g id="edge4" class="edge"><title>74&#45;&gt;6</title>
<path fill="none" stroke="chartreuse" stroke-width="1.69315" d="M12697.5,-60.4237C12653.8,-72.1235 12596.7,-85.4505 12545,-91.3913 12484.6,-98.3357 3846.72,-87.8973 3787,-99.3913 3770.66,-102.537 3753.52,-108.547 3738.52,-114.806"/>
<polygon fill="chartreuse" stroke="chartreuse" stroke-width="1.69315" points="3736.8,-111.741 3729.01,-118.927 3739.58,-118.164 3736.8,-111.741"/>
</g>
<!-- 79&#45;&gt;103 -->
<g id="edge5" class="edge"><title>79&#45;&gt;103</title>
<path fill="none" stroke="black" d="M7248.2,-60.4811C7208.62,-72.1611 7156.97,-85.448 7110,-91.3913 7022.14,-102.508 821.182,-83.8517 734,-99.3913 716.042,-102.592 697.077,-108.771 680.546,-115.159"/>
<polygon fill="black" stroke="black" points="679.109,-111.964 671.12,-118.923 681.705,-118.465 679.109,-111.964"/>
</g>
<!-- 79&#45;&gt;104 -->
<g id="edge6" class="edge"><title>79&#45;&gt;104</title>
<path fill="none" stroke="black" d="M7248.2,-60.4805C7208.62,-72.1603 7156.97,-85.4471 7110,-91.3913 7024.69,-102.187 1003.43,-83.1251 919,-99.3913 902.657,-102.54 885.519,-108.551 870.525,-114.81"/>
<polygon fill="black" stroke="black" points="868.796,-111.744 861.011,-118.931 871.579,-118.168 868.796,-111.744"/>
</g>
<!-- 80&#45;&gt;105 -->
<g id="edge7" class="edge"><title>80&#45;&gt;105</title>
<path fill="none" stroke="black" d="M6439.16,-60.4758C6402.53,-72.154 6354.68,-85.4408 6311,-91.3913 6229.19,-102.537 447.049,-83.6163 366,-99.3913 349.816,-102.541 332.86,-108.553 318.031,-114.811"/>
<polygon fill="black" stroke="black" points="316.378,-111.714 308.622,-118.932 319.186,-118.126 316.378,-111.714"/>
</g>
<!-- 80&#45;&gt;106 -->
<g id="edge8" class="edge"><title>80&#45;&gt;106</title>
<path fill="none" stroke="black" d="M6439.16,-60.4752C6402.53,-72.1531 6354.68,-85.4399 6311,-91.3913 6231.5,-102.224 612.531,-82.9378 534,-99.3913 519.068,-102.52 503.538,-108.449 489.954,-114.643"/>
<polygon fill="black" stroke="black" points="488.426,-111.494 480.891,-118.941 491.426,-117.818 488.426,-111.494"/>
</g>
<!-- 90&#45;&gt;103 -->
<g id="edge9" class="edge"><title>90&#45;&gt;103</title>
<path fill="none" stroke="black" d="M6832.22,-60.4808C6791.46,-72.1607 6738.29,-85.4476 6690,-91.3913 6607.9,-101.498 815.438,-84.8717 734,-99.3913 716.043,-102.593 697.077,-108.772 680.546,-115.16"/>
<polygon fill="black" stroke="black" points="679.109,-111.965 671.12,-118.924 681.705,-118.466 679.109,-111.965"/>
</g>
<!-- 91&#45;&gt;105 -->
<g id="edge10" class="edge"><title>91&#45;&gt;105</title>
<path fill="none" stroke="black" d="M6049.52,-60.4771C6010.73,-72.1556 5960.09,-85.4424 5914,-91.3913 5837.58,-101.255 441.636,-84.6661 366,-99.3913 349.816,-102.542 332.861,-108.554 318.031,-114.812"/>
<polygon fill="black" stroke="black" points="316.378,-111.715 308.622,-118.933 319.186,-118.127 316.378,-111.715"/>
</g>
<!-- 114&#45;&gt;104 -->
<g id="edge16" class="edge"><title>114&#45;&gt;104</title>
<path fill="none" stroke="black" d="M13499.9,-60.4903C13461.3,-72.1734 13410.9,-85.4605 13365,-91.3913 13279.3,-102.474 1003.88,-83.0686 919,-99.3913 902.656,-102.535 885.518,-108.544 870.524,-114.804"/>
<polygon fill="black" stroke="black" points="868.795,-111.738 861.01,-118.925 871.577,-118.161 868.795,-111.738"/>
</g>
<!-- 115&#45;&gt;106 -->
<g id="edge17" class="edge"><title>115&#45;&gt;106</title>
<path fill="none" stroke="black" d="M13120.5,-60.4856C13084.6,-72.1672 13037.8,-85.4542 12995,-91.3913 12909.3,-103.279 618.702,-81.6776 534,-99.3913 519.067,-102.514 503.537,-108.442 489.952,-114.636"/>
<polygon fill="black" stroke="black" points="488.424,-111.487 480.889,-118.936 491.424,-117.812 488.424,-111.487"/>
</g>
</g>
</svg>
