<?xml version="1.0" encoding="UTF-8" standalone="no"?>
<!DOCTYPE svg PUBLIC "-//W3C//DTD SVG 1.1//EN"
 "http://www.w3.org/Graphics/SVG/1.1/DTD/svg11.dtd">
<!-- Generated by graphviz version 2.38.0 (20140413.2041)
 -->
<!-- Title: Levels within Thentos.DB.Protect Pages: 1 -->
<svg width="1301pt" height="249pt"
 viewBox="0.00 0.00 1301.00 249.00" xmlns="http://www.w3.org/2000/svg" xmlns:xlink="http://www.w3.org/1999/xlink">
<g id="graph0" class="graph" transform="scale(1 1) rotate(0) translate(4 245)">
<title>Levels within Thentos.DB.Protect</title>
<polygon fill="white" stroke="none" points="-4,4 -4,-245 1297,-245 1297,4 -4,4"/>
<g id="clust1" class="cluster"><title>cluster_0</title>
<polygon fill="lavender" stroke="black" points="8,-8 8,-233 518,-233 518,-8 8,-8"/>
<text text-anchor="middle" x="263" y="-217.8" font-family="Times,serif" font-size="14.00">Exported root entities</text>
</g>
<g id="clust2" class="cluster"><title>cluster_1</title>
<polygon fill="lavender" stroke="black" points="558,-8 558,-158 922,-158 922,-8 558,-8"/>
<text text-anchor="middle" x="740" y="-142.8" font-family="Times,serif" font-size="14.00">Level = 1</text>
</g>
<g id="clust3" class="cluster"><title>cluster_2</title>
<polygon fill="lavender" stroke="black" points="930,-8 930,-83 1285,-83 1285,-8 930,-8"/>
<text text-anchor="middle" x="1107.5" y="-67.8" font-family="Times,serif" font-size="14.00">Level = 2</text>
</g>
<!-- 1 -->
<g id="node1" class="node"><title>1</title>
<polygon fill="goldenrod" stroke="black" stroke-width="2" points="379.5,-52 290.5,-52 290.5,-16 379.5,-16 379.5,-52"/>
<text text-anchor="middle" x="335" y="-30.3" font-family="Times,serif" font-size="14.00">*%%</text>
</g>
<!-- 2 -->
<g id="node2" class="node"><title>2</title>
<polygon fill="goldenrod" stroke="black" stroke-width="2" points="164.5,-127 15.5,-127 15.5,-91 164.5,-91 164.5,-127"/>
<text text-anchor="middle" x="90" y="-105.3" font-family="Times,serif" font-size="14.00">allowEverything</text>
</g>
<!-- 2&#45;&gt;1 -->
<g id="edge1" class="edge"><title>2&#45;&gt;1</title>
<path fill="none" stroke="black" d="M147.132,-90.9769C187.411,-78.9755 241.023,-63.0012 280.665,-51.1897"/>
<polygon fill="black" stroke="black" points="281.841,-54.4913 290.425,-48.2814 279.842,-47.7828 281.841,-54.4913"/>
</g>
<!-- 3 -->
<g id="node3" class="node"><title>3</title>
<polygon fill="goldenrod" stroke="black" stroke-width="2" points="315.5,-127 182.5,-127 182.5,-91 315.5,-91 315.5,-127"/>
<text text-anchor="middle" x="249" y="-105.3" font-family="Times,serif" font-size="14.00">allowNothing</text>
</g>
<!-- 3&#45;&gt;1 -->
<g id="edge2" class="edge"><title>3&#45;&gt;1</title>
<path fill="none" stroke="black" d="M269.381,-90.7C280.627,-81.1542 294.758,-69.1591 307.024,-58.7474"/>
<polygon fill="black" stroke="black" points="309.407,-61.3155 314.765,-52.1758 304.877,-55.9788 309.407,-61.3155"/>
</g>
<!-- 4 -->
<g id="node4" class="node"><title>4</title>
<polygon fill="gold" stroke="black" stroke-width="2" points="510,-127 334,-127 334,-91 510,-91 510,-127"/>
<text text-anchor="middle" x="422" y="-105.3" font-family="Times,serif" font-size="14.00">allowReadEverything</text>
</g>
<!-- 4&#45;&gt;1 -->
<g id="edge3" class="edge"><title>4&#45;&gt;1</title>
<path fill="none" stroke="black" d="M401.382,-90.7C390.006,-81.1542 375.71,-69.1591 363.302,-58.7474"/>
<polygon fill="black" stroke="black" points="365.38,-55.9224 355.47,-52.1758 360.881,-61.2848 365.38,-55.9224"/>
</g>
<!-- 8 -->
<g id="node5" class="node"><title>8</title>
<polygon fill="gold" stroke="black" stroke-width="2" points="173.5,-202 16.5,-202 16.5,-166 173.5,-166 173.5,-202"/>
<text text-anchor="middle" x="95" y="-180.3" font-family="Times,serif" font-size="14.00">createDefaultUser</text>
</g>
<!-- 8&#45;&gt;2 -->
<g id="edge8" class="edge"><title>8&#45;&gt;2</title>
<path fill="none" stroke="chartreuse" stroke-width="2.09861" d="M93.8151,-165.7C93.236,-157.245 92.5253,-146.869 91.8749,-137.373"/>
<polygon fill="chartreuse" stroke="chartreuse" stroke-width="2.09861" points="95.3517,-136.913 91.1764,-127.176 88.368,-137.392 95.3517,-136.913"/>
</g>
<!-- 11 -->
<g id="node6" class="node"><title>11</title>
<polygon fill="gold" stroke="black" stroke-width="2" points="510,-202 324,-202 324,-166 510,-166 510,-202"/>
<text text-anchor="middle" x="417" y="-180.3" font-family="Times,serif" font-size="14.00">makeThentosClearance</text>
</g>
<!-- 11&#45;&gt;3 -->
<g id="edge10" class="edge"><title>11&#45;&gt;3</title>
<path fill="none" stroke="black" d="M345.934,-165.993C338.759,-163.594 331.666,-160.932 325,-158 309.532,-151.197 293.552,-141.562 280.261,-132.707"/>
<polygon fill="black" stroke="black" points="282.181,-129.78 271.947,-127.038 278.237,-135.564 282.181,-129.78"/>
</g>
<!-- 5 -->
<g id="node7" class="node"><title>5</title>
<polygon fill="bisque" stroke="black" stroke-width="2" points="914,-127 750,-127 750,-91 914,-91 914,-127"/>
<text text-anchor="middle" x="832" y="-105.3" font-family="Times,serif" font-size="14.00">authenticateService</text>
</g>
<!-- 11&#45;&gt;5 -->
<g id="edge11" class="edge"><title>11&#45;&gt;5</title>
<path fill="none" stroke="black" d="M510.142,-179.938C589.938,-176.553 698.367,-169.93 740,-158 760.019,-152.264 780.717,-141.921 797.399,-132.302"/>
<polygon fill="black" stroke="black" points="799.41,-135.179 806.224,-127.066 795.838,-129.158 799.41,-135.179"/>
</g>
<!-- 6 -->
<g id="node8" class="node"><title>6</title>
<polygon fill="bisque" stroke="black" stroke-width="2" points="731.5,-127 566.5,-127 566.5,-91 731.5,-91 731.5,-127"/>
<text text-anchor="middle" x="649" y="-105.3" font-family="Times,serif" font-size="14.00">authenticateSession</text>
</g>
<!-- 11&#45;&gt;6 -->
<g id="edge12" class="edge"><title>11&#45;&gt;6</title>
<path fill="none" stroke="black" d="M510.088,-169.262C524.293,-166.163 538.657,-162.441 552,-158 572.006,-151.341 593.112,-141.297 610.509,-132.114"/>
<polygon fill="black" stroke="black" points="612.618,-134.953 619.761,-127.129 609.298,-128.791 612.618,-134.953"/>
</g>
<!-- 7 -->
<g id="node9" class="node"><title>7</title>
<polygon fill="bisque" stroke="black" stroke-width="2" points="723.5,-52 574.5,-52 574.5,-16 723.5,-16 723.5,-52"/>
<text text-anchor="middle" x="649" y="-30.3" font-family="Times,serif" font-size="14.00">authenticateUser</text>
</g>
<!-- 11&#45;&gt;7 -->
<g id="edge13" class="edge"><title>11&#45;&gt;7</title>
<path fill="none" stroke="black" d="M506.411,-165.905C510.841,-163.591 515.074,-160.97 519,-158 546.302,-137.347 533.169,-115.578 557,-91 569.948,-77.646 586.725,-66.2145 602.4,-57.2278"/>
<polygon fill="black" stroke="black" points="604.402,-60.1205 611.464,-52.223 601.018,-53.9925 604.402,-60.1205"/>
</g>
<!-- 10 -->
<g id="node11" class="node"><title>10</title>
<polygon fill="bisque" stroke="black" stroke-width="2" points="1277.5,-52 1128.5,-52 1128.5,-16 1277.5,-16 1277.5,-52"/>
<text text-anchor="middle" x="1203" y="-30.3" font-family="Times,serif" font-size="14.00">makeClearance_</text>
</g>
<!-- 5&#45;&gt;10 -->
<g id="edge4" class="edge"><title>5&#45;&gt;10</title>
<path fill="none" stroke="black" d="M914.182,-104.764C985.224,-101.248 1082.12,-94.5292 1119,-83 1137.36,-77.26 1156.1,-67.0495 1171.21,-57.5171"/>
<polygon fill="black" stroke="black" points="1173.19,-60.4091 1179.66,-52.0218 1169.37,-54.5416 1173.19,-60.4091"/>
</g>
<!-- 6&#45;&gt;7 -->
<g id="edge5" class="edge"><title>6&#45;&gt;7</title>
<path fill="none" stroke="black" d="M649,-90.7C649,-82.2452 649,-71.8688 649,-62.3732"/>
<polygon fill="black" stroke="black" points="652.5,-62.1758 649,-52.1758 645.5,-62.1758 652.5,-62.1758"/>
</g>
<!-- 9 -->
<g id="node10" class="node"><title>9</title>
<polygon fill="cyan" stroke="black" stroke-width="2" points="1110,-52 938,-52 938,-16 1110,-16 1110,-52"/>
<text text-anchor="middle" x="1024" y="-30.3" font-family="Times,serif" font-size="14.00">getUserFromSession</text>
</g>
<!-- 6&#45;&gt;9 -->
<g id="edge6" class="edge"><title>6&#45;&gt;9</title>
<path fill="none" stroke="black" d="M731.67,-92.1615C734.816,-91.7378 737.934,-91.3479 741,-91 781.887,-86.3613 886.123,-93.154 926,-83 947.575,-77.5063 969.993,-66.9416 987.934,-57.1192"/>
<polygon fill="black" stroke="black" points="989.884,-60.0381 996.879,-52.0812 986.449,-53.9388 989.884,-60.0381"/>
</g>
<!-- 7&#45;&gt;10 -->
<g id="edge7" class="edge"><title>7&#45;&gt;10</title>
<path fill="none" stroke="black" d="M723.747,-51.7369C781.147,-64.4092 862.588,-80.3471 935,-87 954.363,-88.779 1090.98,-91.0365 1110,-87 1132.45,-82.2365 1154.88,-69.7381 1172.08,-58.0746"/>
<polygon fill="black" stroke="black" points="1174.41,-60.7143 1180.58,-52.0968 1170.38,-54.9897 1174.41,-60.7143"/>
</g>
<!-- 10&#45;&gt;1 -->
<g id="edge9" class="edge"><title>10&#45;&gt;1</title>
<path fill="none" stroke="black" d="M1180.58,-52.0968C1162.69,-65.1458 1136.36,-81.4062 1110,-87 1080.27,-93.3085 593.191,-90.4629 563,-87 502.817,-80.0971 435.418,-63.2636 389.611,-50.4046"/>
<polygon fill="black" stroke="black" points="390.464,-47.0084 379.888,-47.6437 388.552,-53.7422 390.464,-47.0084"/>
</g>
</g>
</svg>
