<?xml version="1.0" encoding="UTF-8" standalone="no"?>
<!DOCTYPE svg PUBLIC "-//W3C//DTD SVG 1.1//EN"
 "http://www.w3.org/Graphics/SVG/1.1/DTD/svg11.dtd">
<!-- Generated by graphviz version 2.38.0 (20140413.2041)
 -->
<!-- Title: Diagram of: Thentos.DB.Protect Pages: 1 -->
<svg width="620pt" height="260pt"
 viewBox="0.00 0.00 619.50 260.00" xmlns="http://www.w3.org/2000/svg" xmlns:xlink="http://www.w3.org/1999/xlink">
<g id="graph0" class="graph" transform="scale(1 1) rotate(0) translate(4 256)">
<title>Diagram of: Thentos.DB.Protect</title>
<polygon fill="white" stroke="none" points="-4,4 -4,-256 615.5,-256 615.5,4 -4,4"/>
<!-- 1 -->
<g id="node1" class="node"><title>1</title>
<polygon fill="goldenrod" stroke="black" stroke-width="2" points="337,-36 248,-36 248,-0 337,-0 337,-36"/>
<text text-anchor="middle" x="292.5" y="-14.3" font-family="Times,serif" font-size="14.00">*%%</text>
</g>
<!-- 2 -->
<g id="node2" class="node"><title>2</title>
<polygon fill="goldenrod" stroke="black" stroke-width="2" points="183,-108 34,-108 34,-72 183,-72 183,-108"/>
<text text-anchor="middle" x="108.5" y="-86.3" font-family="Times,serif" font-size="14.00">allowEverything</text>
</g>
<!-- 2&#45;&gt;1 -->
<g id="edge1" class="edge"><title>2&#45;&gt;1</title>
<path fill="none" stroke="black" d="M153.511,-71.8761C179.096,-62.143 211.307,-49.8888 238.276,-39.6286"/>
<polygon fill="black" stroke="black" points="239.851,-42.7742 247.953,-35.9471 237.362,-36.2317 239.851,-42.7742"/>
</g>
<!-- 3 -->
<g id="node3" class="node"><title>3</title>
<polygon fill="goldenrod" stroke="black" stroke-width="2" points="308,-180 175,-180 175,-144 308,-144 308,-180"/>
<text text-anchor="middle" x="241.5" y="-158.3" font-family="Times,serif" font-size="14.00">allowNothing</text>
</g>
<!-- 3&#45;&gt;1 -->
<g id="edge2" class="edge"><title>3&#45;&gt;1</title>
<path fill="none" stroke="black" d="M243.144,-143.751C245.308,-125.432 250.011,-95.8795 259.5,-72 263.204,-62.6792 268.541,-53.1722 273.848,-44.8313"/>
<polygon fill="black" stroke="black" points="276.896,-46.5682 279.515,-36.3022 271.066,-42.6942 276.896,-46.5682"/>
</g>
<!-- 4 -->
<g id="node4" class="node"><title>4</title>
<polygon fill="gold" stroke="black" stroke-width="2" points="611.5,-108 435.5,-108 435.5,-72 611.5,-72 611.5,-108"/>
<text text-anchor="middle" x="523.5" y="-86.3" font-family="Times,serif" font-size="14.00">allowReadEverything</text>
</g>
<!-- 4&#45;&gt;1 -->
<g id="edge3" class="edge"><title>4&#45;&gt;1</title>
<path fill="none" stroke="black" d="M467.286,-71.9656C430.787,-60.9052 383.451,-46.5608 347.247,-35.5899"/>
<polygon fill="black" stroke="black" points="347.934,-32.1411 337.349,-32.5906 345.904,-38.8403 347.934,-32.1411"/>
</g>
<!-- 5 -->
<g id="node5" class="node"><title>5</title>
<polygon fill="bisque" stroke="black" stroke-width="2" points="491,-180 326,-180 326,-144 491,-144 491,-180"/>
<text text-anchor="middle" x="408.5" y="-158.3" font-family="Times,serif" font-size="14.00">authenticateSession</text>
</g>
<!-- 7 -->
<g id="node7" class="node"><title>7</title>
<polygon fill="bisque" stroke="black" stroke-width="2" points="418,-108 269,-108 269,-72 418,-72 418,-108"/>
<text text-anchor="middle" x="343.5" y="-86.3" font-family="Times,serif" font-size="14.00">makeClearance_</text>
</g>
<!-- 5&#45;&gt;7 -->
<g id="edge4" class="edge"><title>5&#45;&gt;7</title>
<path fill="none" stroke="chartreuse" stroke-width="1.69315" d="M392.433,-143.697C384.561,-135.22 374.945,-124.864 366.327,-115.583"/>
<polygon fill="chartreuse" stroke="chartreuse" stroke-width="1.69315" points="368.752,-113.051 359.383,-108.104 363.622,-117.814 368.752,-113.051"/>
</g>
<!-- 6 -->
<g id="node6" class="node"><title>6</title>
<polygon fill="gold" stroke="black" stroke-width="2" points="157,-180 0,-180 0,-144 157,-144 157,-180"/>
<text text-anchor="middle" x="78.5" y="-158.3" font-family="Times,serif" font-size="14.00">createDefaultUser</text>
</g>
<!-- 6&#45;&gt;2 -->
<g id="edge5" class="edge"><title>6&#45;&gt;2</title>
<path fill="none" stroke="chartreuse" stroke-width="2.09861" d="M85.9157,-143.697C89.2944,-135.813 93.3696,-126.304 97.123,-117.546"/>
<polygon fill="chartreuse" stroke="chartreuse" stroke-width="2.09861" points="100.447,-118.675 101.17,-108.104 94.0133,-115.917 100.447,-118.675"/>
</g>
<!-- 7&#45;&gt;1 -->
<g id="edge6" class="edge"><title>7&#45;&gt;1</title>
<path fill="none" stroke="black" d="M330.893,-71.6966C324.903,-63.4741 317.624,-53.4832 311.021,-44.4207"/>
<polygon fill="black" stroke="black" points="313.679,-42.1257 304.962,-36.1043 308.022,-46.2477 313.679,-42.1257"/>
</g>
<!-- 8 -->
<g id="node8" class="node"><title>8</title>
<polygon fill="gold" stroke="black" stroke-width="2" points="417.5,-252 231.5,-252 231.5,-216 417.5,-216 417.5,-252"/>
<text text-anchor="middle" x="324.5" y="-230.3" font-family="Times,serif" font-size="14.00">makeThentosClearance</text>
</g>
<!-- 8&#45;&gt;3 -->
<g id="edge7" class="edge"><title>8&#45;&gt;3</title>
<path fill="none" stroke="black" d="M303.983,-215.697C293.631,-206.965 280.914,-196.24 269.661,-186.75"/>
<polygon fill="black" stroke="black" points="271.682,-183.876 261.781,-180.104 267.169,-189.227 271.682,-183.876"/>
</g>
<!-- 8&#45;&gt;5 -->
<g id="edge8" class="edge"><title>8&#45;&gt;5</title>
<path fill="none" stroke="black" d="M345.264,-215.697C355.741,-206.965 368.611,-196.24 380,-186.75"/>
<polygon fill="black" stroke="black" points="382.533,-189.195 387.975,-180.104 378.052,-183.817 382.533,-189.195"/>
</g>
</g>
</svg>
