<?xml version="1.0" encoding="UTF-8" standalone="no"?>
<!DOCTYPE svg PUBLIC "-//W3C//DTD SVG 1.1//EN"
 "http://www.w3.org/Graphics/SVG/1.1/DTD/svg11.dtd">
<!-- Generated by graphviz version 2.38.0 (20140413.2041)
 -->
<!-- Title: Levels within Thentos.Backend.Api.Proxy Pages: 1 -->
<svg width="578pt" height="265pt"
 viewBox="0.00 0.00 578.00 265.00" xmlns="http://www.w3.org/2000/svg" xmlns:xlink="http://www.w3.org/1999/xlink">
<g id="graph0" class="graph" transform="scale(1 1) rotate(0) translate(4 261)">
<title>Levels within Thentos.Backend.Api.Proxy</title>
<polygon fill="white" stroke="none" points="-4,4 -4,-261 574,-261 574,4 -4,4"/>
<g id="clust1" class="cluster"><title>cluster_0</title>
<polygon fill="lavender" stroke="black" points="216,-174 216,-249 362,-249 362,-174 216,-174"/>
<text text-anchor="middle" x="289" y="-233.8" font-family="Times,serif" font-size="14.00">Exported root entities</text>
</g>
<g id="clust2" class="cluster"><title>cluster_1</title>
<polygon fill="lavender" stroke="black" points="8,-91 8,-166 562,-166 562,-91 8,-91"/>
<text text-anchor="middle" x="285" y="-150.8" font-family="Times,serif" font-size="14.00">Level = 1</text>
</g>
<g id="clust3" class="cluster"><title>cluster_2</title>
<polygon fill="lavender" stroke="black" points="91,-8 91,-83 433,-83 433,-8 91,-8"/>
<text text-anchor="middle" x="262" y="-67.8" font-family="Times,serif" font-size="14.00">Level = 2</text>
</g>
<!-- 7 -->
<g id="node1" class="node"><title>7</title>
<polygon fill="gold" stroke="black" stroke-width="2" points="353.5,-218 224.5,-218 224.5,-182 353.5,-182 353.5,-218"/>
<text text-anchor="middle" x="289" y="-196.3" font-family="Times,serif" font-size="14.00">serviceProxy</text>
</g>
<!-- 2 -->
<g id="node2" class="node"><title>2</title>
<polygon fill="cyan" stroke="black" stroke-width="2" points="553.5,-135 434.5,-135 434.5,-99 553.5,-99 553.5,-135"/>
<text text-anchor="middle" x="494" y="-113.3" font-family="Times,serif" font-size="14.00">catchProxy</text>
</g>
<!-- 7&#45;&gt;2 -->
<g id="edge4" class="edge"><title>7&#45;&gt;2</title>
<path fill="none" stroke="black" d="M353.754,-188.65C377.163,-183.56 403.382,-176.25 426,-166 440.086,-159.616 454.279,-150.181 466.028,-141.361"/>
<polygon fill="black" stroke="black" points="468.35,-143.99 474.114,-135.1 464.065,-138.455 468.35,-143.99"/>
</g>
<!-- 4 -->
<g id="node3" class="node"><title>4</title>
<polygon fill="bisque" stroke="black" stroke-width="2" points="416.5,-135 299.5,-135 299.5,-99 416.5,-99 416.5,-135"/>
<text text-anchor="middle" x="358" y="-113.3" font-family="Times,serif" font-size="14.00">getRqMod</text>
</g>
<!-- 7&#45;&gt;4 -->
<g id="edge5" class="edge"><title>7&#45;&gt;4</title>
<path fill="none" stroke="black" d="M303.633,-181.822C313.239,-170.546 325.961,-155.611 336.683,-143.024"/>
<polygon fill="black" stroke="black" points="339.568,-145.035 343.388,-135.153 334.239,-140.496 339.568,-145.035"/>
</g>
<!-- 5 -->
<g id="node4" class="node"><title>5</title>
<polygon fill="bisque" stroke="black" stroke-width="2" points="281.5,-135 160.5,-135 160.5,-99 281.5,-99 281.5,-135"/>
<text text-anchor="middle" x="221" y="-113.3" font-family="Times,serif" font-size="14.00">prepareReq</text>
</g>
<!-- 7&#45;&gt;5 -->
<g id="edge6" class="edge"><title>7&#45;&gt;5</title>
<path fill="none" stroke="black" d="M274.579,-181.822C265.113,-170.546 252.575,-155.611 242.008,-143.024"/>
<polygon fill="black" stroke="black" points="244.511,-140.562 235.4,-135.153 239.149,-145.063 244.511,-140.562"/>
</g>
<!-- 6 -->
<g id="node5" class="node"><title>6</title>
<polygon fill="cyan" stroke="black" stroke-width="2" points="142,-135 16,-135 16,-99 142,-99 142,-135"/>
<text text-anchor="middle" x="79" y="-113.3" font-family="Times,serif" font-size="14.00">prepareResp</text>
</g>
<!-- 7&#45;&gt;6 -->
<g id="edge7" class="edge"><title>7&#45;&gt;6</title>
<path fill="none" stroke="black" d="M224.268,-188.449C200.616,-183.327 174.03,-176.047 151,-166 136.12,-159.509 120.973,-149.945 108.436,-141.059"/>
<polygon fill="black" stroke="black" points="110.351,-138.124 100.208,-135.061 106.228,-143.78 110.351,-138.124"/>
</g>
<!-- 1 -->
<g id="node6" class="node"><title>1</title>
<polygon fill="cyan" stroke="black" stroke-width="2" points="425,-52 295,-52 291,-48 291,-16 421,-16 425,-20 425,-52"/>
<polyline fill="none" stroke="black" stroke-width="2" points="421,-48 291,-48 "/>
<polyline fill="none" stroke="black" stroke-width="2" points="421,-48 421,-16 "/>
<polyline fill="none" stroke="black" stroke-width="2" points="421,-48 425,-52 "/>
<text text-anchor="middle" x="358" y="-30.3" font-family="Times,serif" font-size="14.00">Data: RqMod</text>
</g>
<!-- 4&#45;&gt;1 -->
<g id="edge1" class="edge"><title>4&#45;&gt;1</title>
<path fill="none" stroke="black" d="M358,-98.822C358,-88.1903 358,-74.306 358,-62.2035"/>
<polygon fill="black" stroke="black" points="361.5,-62.1532 358,-52.1533 354.5,-62.1533 361.5,-62.1532"/>
</g>
<!-- 5&#45;&gt;1 -->
<g id="edge2" class="edge"><title>5&#45;&gt;1</title>
<path fill="none" stroke="black" d="M253.517,-98.9333C262.79,-93.9251 272.856,-88.3529 282,-83 295.678,-74.9929 310.465,-65.7842 323.329,-57.5876"/>
<polygon fill="black" stroke="black" points="325.358,-60.4442 331.889,-52.1019 321.581,-54.5504 325.358,-60.4442"/>
</g>
<!-- 3 -->
<g id="node7" class="node"><title>3</title>
<polygon fill="cyan" stroke="black" stroke-width="2" points="272.5,-52 99.5,-52 99.5,-16 272.5,-16 272.5,-52"/>
<text text-anchor="middle" x="186" y="-30.3" font-family="Times,serif" font-size="14.00">clearThentosHeaders</text>
</g>
<!-- 5&#45;&gt;3 -->
<g id="edge3" class="edge"><title>5&#45;&gt;3</title>
<path fill="none" stroke="black" d="M213.577,-98.822C208.891,-87.9756 202.741,-73.7437 197.439,-61.4723"/>
<polygon fill="black" stroke="black" points="200.591,-59.9446 193.412,-52.1533 194.166,-62.7213 200.591,-59.9446"/>
</g>
</g>
</svg>
