<?xml version="1.0" encoding="UTF-8" standalone="no"?>
<!DOCTYPE svg PUBLIC "-//W3C//DTD SVG 1.1//EN"
 "http://www.w3.org/Graphics/SVG/1.1/DTD/svg11.dtd">
<!-- Generated by graphviz version 2.38.0 (20140413.2041)
 -->
<!-- Title: Diagram of: Thentos.Backend.Api.Adhocracy3Spec Pages: 1 -->
<svg width="372pt" height="188pt"
 viewBox="0.00 0.00 372.00 188.00" xmlns="http://www.w3.org/2000/svg" xmlns:xlink="http://www.w3.org/1999/xlink">
<g id="graph0" class="graph" transform="scale(1 1) rotate(0) translate(4 184)">
<title>Diagram of: Thentos.Backend.Api.Adhocracy3Spec</title>
<polygon fill="white" stroke="none" points="-4,4 -4,-184 368,-184 368,4 -4,4"/>
<!-- 1 -->
<g id="node1" class="node"><title>1</title>
<polygon fill="goldenrod" stroke="black" stroke-width="2" points="162,-36 0,-36 0,-0 162,-0 162,-36"/>
<text text-anchor="middle" x="81" y="-14.3" font-family="Times,serif" font-size="14.00">setupTestA3Server</text>
</g>
<!-- 2 -->
<g id="node2" class="node"><title>2</title>
<polygon fill="goldenrod" stroke="black" stroke-width="2" points="217.5,-108 134.5,-108 134.5,-72 217.5,-72 217.5,-108"/>
<text text-anchor="middle" x="176" y="-86.3" font-family="Times,serif" font-size="14.00">spec</text>
</g>
<!-- 2&#45;&gt;1 -->
<g id="edge1" class="edge"><title>2&#45;&gt;1</title>
<path fill="none" stroke="black" stroke-width="2.09861" d="M152.517,-71.6966C140.437,-62.796 125.546,-51.8232 112.484,-42.1989"/>
<polygon fill="black" stroke="black" stroke-width="2.09861" points="114.34,-39.2187 104.213,-36.1043 110.187,-44.8541 114.34,-39.2187"/>
</g>
<!-- 3 -->
<g id="node3" class="node"><title>3</title>
<polygon fill="goldenrod" stroke="black" stroke-width="2" points="364,-36 180,-36 180,-0 364,-0 364,-36"/>
<text text-anchor="middle" x="272" y="-14.3" font-family="Times,serif" font-size="14.00">teardownA3TestServer</text>
</g>
<!-- 2&#45;&gt;3 -->
<g id="edge2" class="edge"><title>2&#45;&gt;3</title>
<path fill="none" stroke="black" stroke-width="2.09861" d="M199.73,-71.6966C211.937,-62.796 226.985,-51.8232 240.184,-42.1989"/>
<polygon fill="black" stroke="black" stroke-width="2.09861" points="242.525,-44.8241 248.543,-36.1043 238.4,-39.1681 242.525,-44.8241"/>
</g>
<!-- 4 -->
<g id="node4" class="node"><title>4</title>
<polygon fill="gold" stroke="black" stroke-width="2" points="217.5,-180 134.5,-180 134.5,-144 217.5,-144 217.5,-180"/>
<text text-anchor="middle" x="176" y="-158.3" font-family="Times,serif" font-size="14.00">tests</text>
</g>
<!-- 4&#45;&gt;2 -->
<g id="edge3" class="edge"><title>4&#45;&gt;2</title>
<path fill="none" stroke="chartreuse" d="M176,-143.697C176,-135.983 176,-126.712 176,-118.112"/>
<polygon fill="chartreuse" stroke="chartreuse" points="179.5,-118.104 176,-108.104 172.5,-118.104 179.5,-118.104"/>
</g>
</g>
</svg>
