<?xml version="1.0" encoding="UTF-8" standalone="no"?>
<!DOCTYPE svg PUBLIC "-//W3C//DTD SVG 1.1//EN"
 "http://www.w3.org/Graphics/SVG/1.1/DTD/svg11.dtd">
<!-- Generated by graphviz version 2.38.0 (20140413.2041)
 -->
<!-- Title: Levels within Thentos.TypesSpec Pages: 1 -->
<svg width="176pt" height="243pt"
 viewBox="0.00 0.00 176.00 243.00" xmlns="http://www.w3.org/2000/svg" xmlns:xlink="http://www.w3.org/1999/xlink">
<g id="graph0" class="graph" transform="scale(1 1) rotate(0) translate(4 239)">
<title>Levels within Thentos.TypesSpec</title>
<polygon fill="white" stroke="none" points="-4,4 -4,-239 172,-239 172,4 -4,4"/>
<g id="clust1" class="cluster"><title>cluster_0</title>
<polygon fill="lavender" stroke="black" points="8,-8 8,-227 160,-227 160,-8 8,-8"/>
<text text-anchor="middle" x="84" y="-211.8" font-family="Times,serif" font-size="14.00">Exported root entities</text>
</g>
<!-- 1 -->
<g id="node1" class="node"><title>1</title>
<polygon fill="goldenrod" stroke="black" stroke-width="2" points="125.5,-124 42.5,-124 42.5,-88 125.5,-88 125.5,-124"/>
<text text-anchor="middle" x="84" y="-102.3" font-family="Times,serif" font-size="14.00">spec</text>
</g>
<!-- 2 -->
<g id="node2" class="node"><title>2</title>
<polygon fill="goldenrod" stroke="black" stroke-width="2" points="151.5,-52 16.5,-52 16.5,-16 151.5,-16 151.5,-52"/>
<text text-anchor="middle" x="84" y="-30.3" font-family="Times,serif" font-size="14.00">testSizeFactor</text>
</g>
<!-- 1&#45;&gt;2 -->
<g id="edge1" class="edge"><title>1&#45;&gt;2</title>
<path fill="none" stroke="chartreuse" d="M84,-87.6966C84,-79.9827 84,-70.7125 84,-62.1124"/>
<polygon fill="chartreuse" stroke="chartreuse" points="87.5001,-62.1043 84,-52.1043 80.5001,-62.1044 87.5001,-62.1043"/>
</g>
<!-- 3 -->
<g id="node3" class="node"><title>3</title>
<polygon fill="gold" stroke="black" stroke-width="2" points="125.5,-196 42.5,-196 42.5,-160 125.5,-160 125.5,-196"/>
<text text-anchor="middle" x="84" y="-174.3" font-family="Times,serif" font-size="14.00">tests</text>
</g>
<!-- 3&#45;&gt;1 -->
<g id="edge2" class="edge"><title>3&#45;&gt;1</title>
<path fill="none" stroke="chartreuse" d="M84,-159.697C84,-151.983 84,-142.712 84,-134.112"/>
<polygon fill="chartreuse" stroke="chartreuse" points="87.5001,-134.104 84,-124.104 80.5001,-134.104 87.5001,-134.104"/>
</g>
</g>
</svg>
