<?xml version="1.0" encoding="UTF-8" standalone="no"?>
<!DOCTYPE svg PUBLIC "-//W3C//DTD SVG 1.1//EN"
 "http://www.w3.org/Graphics/SVG/1.1/DTD/svg11.dtd">
<!-- Generated by graphviz version 2.38.0 (20140413.2041)
 -->
<!-- Title: Levels within Thentos.Config Pages: 1 -->
<svg width="6239pt" height="294pt"
 viewBox="0.00 0.00 6239.00 293.74" xmlns="http://www.w3.org/2000/svg" xmlns:xlink="http://www.w3.org/1999/xlink">
<g id="graph0" class="graph" transform="scale(1 1) rotate(0) translate(4 289.744)">
<title>Levels within Thentos.Config</title>
<polygon fill="white" stroke="none" points="-4,4 -4,-289.744 6235,-289.744 6235,4 -4,4"/>
<g id="clust1" class="cluster"><title>cluster_0</title>
<polygon fill="lavender" stroke="black" points="8,-8 8,-277.744 1237,-277.744 1237,-8 8,-8"/>
<text text-anchor="middle" x="622.5" y="-262.544" font-family="Times,serif" font-size="14.00">Exported root entities</text>
</g>
<g id="clust2" class="cluster"><title>cluster_1</title>
<polygon fill="lavender" stroke="black" points="1245,-27.6761 1245,-202.744 3990,-202.744 3990,-27.6761 1245,-27.6761"/>
<text text-anchor="middle" x="2617.5" y="-187.544" font-family="Times,serif" font-size="14.00">Level = 1</text>
</g>
<g id="clust3" class="cluster"><title>cluster_2</title>
<polygon fill="lavender" stroke="black" points="3998,-27.6761 3998,-198.548 5128,-198.548 5128,-27.6761 3998,-27.6761"/>
<text text-anchor="middle" x="4563" y="-183.348" font-family="Times,serif" font-size="14.00">Level = 2</text>
</g>
<g id="clust4" class="cluster"><title>cluster_3</title>
<polygon fill="lavender" stroke="black" points="5136,-123.548 5136,-198.548 6086,-198.548 6086,-123.548 5136,-123.548"/>
<text text-anchor="middle" x="5611" y="-183.348" font-family="Times,serif" font-size="14.00">Level = 3</text>
</g>
<g id="clust5" class="cluster"><title>cluster_4</title>
<polygon fill="lavender" stroke="black" points="5196,-27.6761 5196,-102.676 6223,-102.676 6223,-27.6761 5196,-27.6761"/>
<text text-anchor="middle" x="5709.5" y="-87.4761" font-family="Times,serif" font-size="14.00">Level = 4</text>
</g>
<!-- 4 -->
<g id="node1" class="node"><title>4</title>
<polygon fill="goldenrod" stroke="black" stroke-width="2" points="1229,-246.744 1057,-246.744 1053,-242.744 1053,-210.744 1225,-210.744 1229,-214.744 1229,-246.744"/>
<polyline fill="none" stroke="black" stroke-width="2" points="1225,-242.744 1053,-242.744 "/>
<polyline fill="none" stroke="black" stroke-width="2" points="1225,-242.744 1225,-210.744 "/>
<polyline fill="none" stroke="black" stroke-width="2" points="1225,-242.744 1229,-246.744 "/>
<text text-anchor="middle" x="1141" y="-225.044" font-family="Times,serif" font-size="14.00">Data: BackendConfig</text>
</g>
<!-- 7 -->
<g id="node2" class="node"><title>7</title>
<polygon fill="goldenrod" stroke="black" stroke-width="2" points="1035,-246.744 861,-246.744 857,-242.744 857,-210.744 1031,-210.744 1035,-214.744 1035,-246.744"/>
<polyline fill="none" stroke="black" stroke-width="2" points="1031,-242.744 857,-242.744 "/>
<polyline fill="none" stroke="black" stroke-width="2" points="1031,-242.744 1031,-210.744 "/>
<polyline fill="none" stroke="black" stroke-width="2" points="1031,-242.744 1035,-246.744 "/>
<text text-anchor="middle" x="946" y="-225.044" font-family="Times,serif" font-size="14.00">Data: FrontendConfig</text>
</g>
<!-- 11 -->
<g id="node3" class="node"><title>11</title>
<polygon fill="goldenrod" stroke="black" stroke-width="2" points="838.5,-246.744 681.5,-246.744 677.5,-242.744 677.5,-210.744 834.5,-210.744 838.5,-214.744 838.5,-246.744"/>
<polyline fill="none" stroke="black" stroke-width="2" points="834.5,-242.744 677.5,-242.744 "/>
<polyline fill="none" stroke="black" stroke-width="2" points="834.5,-242.744 834.5,-210.744 "/>
<polyline fill="none" stroke="black" stroke-width="2" points="834.5,-242.744 838.5,-246.744 "/>
<text text-anchor="middle" x="758" y="-225.044" font-family="Times,serif" font-size="14.00">Data: ProxyConfig</text>
</g>
<!-- 13 -->
<g id="node4" class="node"><title>13</title>
<polygon fill="goldenrod" stroke="black" stroke-width="2" points="659.5,-246.744 514.5,-246.744 510.5,-242.744 510.5,-210.744 655.5,-210.744 659.5,-214.744 659.5,-246.744"/>
<polyline fill="none" stroke="black" stroke-width="2" points="655.5,-242.744 510.5,-242.744 "/>
<polyline fill="none" stroke="black" stroke-width="2" points="655.5,-242.744 655.5,-210.744 "/>
<polyline fill="none" stroke="black" stroke-width="2" points="655.5,-242.744 659.5,-246.744 "/>
<text text-anchor="middle" x="585" y="-225.044" font-family="Times,serif" font-size="14.00">Data: Command</text>
</g>
<!-- 16 -->
<g id="node5" class="node"><title>16</title>
<polygon fill="goldenrod" stroke="black" stroke-width="2" points="961,-71.6761 807,-71.6761 803,-67.6761 803,-35.6761 957,-35.6761 961,-39.6761 961,-71.6761"/>
<polyline fill="none" stroke="black" stroke-width="2" points="957,-67.6761 803,-67.6761 "/>
<polyline fill="none" stroke="black" stroke-width="2" points="957,-67.6761 957,-35.6761 "/>
<polyline fill="none" stroke="black" stroke-width="2" points="957,-67.6761 961,-71.6761 "/>
<text text-anchor="middle" x="882" y="-49.9761" font-family="Times,serif" font-size="14.00">Data: SmtpConfig</text>
</g>
<!-- 18 -->
<g id="node6" class="node"><title>18</title>
<polygon fill="goldenrod" stroke="black" stroke-width="2" points="597.5,-167.548 428.5,-167.548 424.5,-163.548 424.5,-131.548 593.5,-131.548 597.5,-135.548 597.5,-167.548"/>
<polyline fill="none" stroke="black" stroke-width="2" points="593.5,-163.548 424.5,-163.548 "/>
<polyline fill="none" stroke="black" stroke-width="2" points="593.5,-163.548 593.5,-131.548 "/>
<polyline fill="none" stroke="black" stroke-width="2" points="593.5,-163.548 597.5,-167.548 "/>
<text text-anchor="middle" x="511" y="-145.848" font-family="Times,serif" font-size="14.00">Data: ThentosConfig</text>
</g>
<!-- 33 -->
<g id="node7" class="node"><title>33</title>
<polygon fill="gold" stroke="black" stroke-width="2" points="492,-246.744 360,-246.744 360,-210.744 492,-210.744 492,-246.744"/>
<text text-anchor="middle" x="426" y="-225.044" font-family="Times,serif" font-size="14.00">configLogger</text>
</g>
<!-- 35 -->
<g id="node8" class="node"><title>35</title>
<polygon fill="goldenrod" stroke="black" stroke-width="2" points="1184,-167.548 1024,-167.548 1024,-131.548 1184,-131.548 1184,-167.548"/>
<text text-anchor="middle" x="1104" y="-145.848" font-family="Times,serif" font-size="14.00">emptySmtpConfig</text>
</g>
<!-- 35&#45;&gt;16 -->
<g id="edge1" class="edge"><title>35&#45;&gt;16</title>
<path fill="none" stroke="black" d="M1047.45,-131.544C1023.24,-123.664 994.869,-113.621 970,-102.676 952.823,-95.1169 934.503,-85.409 919.05,-76.704"/>
<polygon fill="black" stroke="black" points="920.734,-73.6348 910.313,-71.7183 917.264,-79.7146 920.734,-73.6348"/>
</g>
<!-- 71 -->
<g id="node11" class="node"><title>71</title>
<polygon fill="khaki" stroke="black" stroke-dasharray="1,5" points="1224.86,-39.6615 1224.86,-67.6908 1154.06,-87.5105 1053.94,-87.5105 983.142,-67.6908 983.142,-39.6615 1053.94,-19.8418 1154.06,-19.8418 1224.86,-39.6615"/>
<polygon fill="none" stroke="black" stroke-dasharray="1,5" points="1228.86,-36.609 1228.86,-70.7433 1154.61,-91.5293 1053.39,-91.5293 979.144,-70.7433 979.144,-36.609 1053.39,-15.823 1154.61,-15.823 1228.86,-36.609"/>
<text text-anchor="middle" x="1104" y="-57.4761" font-family="Times,serif" font-size="14.00">Unknown Module</text>
<text text-anchor="middle" x="1104" y="-42.4761" font-family="Times,serif" font-size="14.00">Class: Monoid</text>
</g>
<!-- 35&#45;&gt;71 -->
<g id="edge3" class="edge"><title>35&#45;&gt;71</title>
<path fill="none" stroke="black" d="M1104,-131.33C1104,-122.907 1104,-112.315 1104,-101.715"/>
<polygon fill="black" stroke="black" points="1107.5,-101.621 1104,-91.621 1100.5,-101.621 1107.5,-101.621"/>
</g>
<!-- 17 -->
<g id="node12" class="node"><title>17</title>
<polygon fill="cyan" stroke="black" stroke-width="2" points="2776.5,-71.6761 2581.5,-71.6761 2577.5,-67.6761 2577.5,-35.6761 2772.5,-35.6761 2776.5,-39.6761 2776.5,-71.6761"/>
<polyline fill="none" stroke="black" stroke-width="2" points="2772.5,-67.6761 2577.5,-67.6761 "/>
<polyline fill="none" stroke="black" stroke-width="2" points="2772.5,-67.6761 2772.5,-35.6761 "/>
<polyline fill="none" stroke="black" stroke-width="2" points="2772.5,-67.6761 2776.5,-71.6761 "/>
<text text-anchor="middle" x="2677" y="-49.9761" font-family="Times,serif" font-size="14.00">Data: SmtpConfigBuilder</text>
</g>
<!-- 35&#45;&gt;17 -->
<g id="edge2" class="edge"><title>35&#45;&gt;17</title>
<path fill="none" stroke="black" d="M1184.15,-132.084C1202.74,-128.777 1222.5,-125.67 1241,-123.548 1733.58,-67.0449 2326.35,-56.7614 2567.24,-54.9897"/>
<polygon fill="black" stroke="black" points="2567.42,-58.4886 2577.4,-54.9185 2567.37,-51.4887 2567.42,-58.4886"/>
</g>
<!-- 36 -->
<g id="node9" class="node"><title>36</title>
<polygon fill="gold" stroke="black" stroke-width="2" points="190,-246.744 16,-246.744 16,-210.744 190,-210.744 190,-246.744"/>
<text text-anchor="middle" x="103" y="-225.044" font-family="Times,serif" font-size="14.00">emptyThentosConfig</text>
</g>
<!-- 36&#45;&gt;18 -->
<g id="edge4" class="edge"><title>36&#45;&gt;18</title>
<path fill="none" stroke="black" d="M190.026,-211.278C255.941,-198.806 346.465,-181.679 414.577,-168.792"/>
<polygon fill="black" stroke="black" points="415.284,-172.22 424.459,-166.922 413.982,-165.342 415.284,-172.22"/>
</g>
<!-- 36&#45;&gt;35 -->
<g id="edge5" class="edge"><title>36&#45;&gt;35</title>
<path fill="none" stroke="black" d="M190.039,-211.722C193.058,-211.36 196.052,-211.032 199,-210.744 379.065,-193.139 425.424,-213.961 606,-202.744 749.022,-193.859 914.335,-174.775 1013.93,-162.31"/>
<polygon fill="black" stroke="black" points="1014.48,-165.77 1023.96,-161.05 1013.6,-158.825 1014.48,-165.77"/>
</g>
<!-- 44 -->
<g id="node10" class="node"><title>44</title>
<polygon fill="gold" stroke="black" stroke-width="2" points="341.5,-246.744 208.5,-246.744 208.5,-210.744 341.5,-210.744 341.5,-246.744"/>
<text text-anchor="middle" x="275" y="-225.044" font-family="Times,serif" font-size="14.00">getCommand</text>
</g>
<!-- 38 -->
<g id="node13" class="node"><title>38</title>
<polygon fill="bisque" stroke="black" stroke-width="2" points="2549,-167.548 2393,-167.548 2393,-131.548 2549,-131.548 2549,-167.548"/>
<text text-anchor="middle" x="2471" y="-145.848" font-family="Times,serif" font-size="14.00">finaliseCommand</text>
</g>
<!-- 44&#45;&gt;38 -->
<g id="edge25" class="edge"><title>44&#45;&gt;38</title>
<path fill="none" stroke="black" d="M341.59,-211.994C344.761,-211.513 347.91,-211.091 351,-210.744 407.091,-204.435 2328.59,-217.78 2383,-202.744 2403.95,-196.954 2424.97,-184.777 2441.21,-173.64"/>
<polygon fill="black" stroke="black" points="2443.59,-176.249 2449.72,-167.607 2439.54,-170.54 2443.59,-176.249"/>
</g>
<!-- 56 -->
<g id="node19" class="node"><title>56</title>
<polygon fill="bisque" stroke="black" stroke-width="2" points="2374.5,-167.548 2189.5,-167.548 2189.5,-131.548 2374.5,-131.548 2374.5,-167.548"/>
<text text-anchor="middle" x="2282" y="-145.848" font-family="Times,serif" font-size="14.00">parseCommandBuilder</text>
</g>
<!-- 44&#45;&gt;56 -->
<g id="edge26" class="edge"><title>44&#45;&gt;56</title>
<path fill="none" stroke="black" d="M341.59,-211.996C344.761,-211.515 347.91,-211.092 351,-210.744 401.486,-205.054 2130.63,-214.755 2180,-202.744 2204.19,-196.857 2229.12,-184.247 2248.27,-172.897"/>
<polygon fill="black" stroke="black" points="2250.19,-175.824 2256.91,-167.631 2246.55,-169.847 2250.19,-175.824"/>
</g>
<!-- 45 -->
<g id="node14" class="node"><title>45</title>
<polygon fill="bisque" stroke="black" stroke-width="2" points="3982.37,-140.272 3982.37,-158.823 3845.67,-171.941 3652.33,-171.941 3515.63,-158.823 3515.63,-140.272 3652.33,-127.155 3845.67,-127.155 3982.37,-140.272"/>
<text text-anchor="middle" x="3749" y="-145.848" font-family="Times,serif" font-size="14.00">Class: Monoid, Data: BackendConfigBuilder</text>
</g>
<!-- 71&#45;&gt;45 -->
<g id="edge57" class="edge"><title>71&#45;&gt;45</title>
<path fill="none" stroke="navy" stroke-width="1.69315" d="M1177.12,-85.251C1197.44,-92.3781 1219.77,-98.9646 1241,-102.676 1364.96,-124.351 3380.36,-116.521 3506,-123.548 3538.39,-125.36 3573.13,-128.321 3605.91,-131.583"/>
</g>
<!-- 46 -->
<g id="node15" class="node"><title>46</title>
<polygon fill="bisque" stroke="black" stroke-width="2" points="3497.4,-140.272 3497.4,-158.823 3360.09,-171.941 3165.91,-171.941 3028.6,-158.823 3028.6,-140.272 3165.91,-127.155 3360.09,-127.155 3497.4,-140.272"/>
<text text-anchor="middle" x="3263" y="-145.848" font-family="Times,serif" font-size="14.00">Class: Monoid, Data: FrontendConfigBuilder</text>
</g>
<!-- 71&#45;&gt;46 -->
<g id="edge58" class="edge"><title>71&#45;&gt;46</title>
<path fill="none" stroke="navy" stroke-width="1.69315" d="M1177.48,-85.3404C1197.71,-92.4196 1219.9,-98.9598 1241,-102.676 1435.68,-136.97 2822.64,-112.261 3020,-123.548 3052.18,-125.388 3086.67,-128.339 3119.26,-131.579"/>
</g>
<!-- 47 -->
<g id="node16" class="node"><title>47</title>
<polygon fill="bisque" stroke="black" stroke-width="2" points="3010.91,-140.272 3010.91,-158.823 2880.92,-171.941 2697.08,-171.941 2567.09,-158.823 2567.09,-140.272 2697.08,-127.155 2880.92,-127.155 3010.91,-140.272"/>
<text text-anchor="middle" x="2789" y="-145.848" font-family="Times,serif" font-size="14.00">Class: Monoid, Data: ProxyConfigBuilder</text>
</g>
<!-- 71&#45;&gt;47 -->
<g id="edge59" class="edge"><title>71&#45;&gt;47</title>
<path fill="none" stroke="navy" stroke-width="1.69315" d="M1177.49,-85.2823C1197.72,-92.3616 1219.91,-98.9164 1241,-102.676 1385.08,-128.362 2411.93,-114.505 2558,-123.548 2588.6,-125.442 2621.39,-128.415 2652.37,-131.659"/>
</g>
<!-- 48 -->
<g id="node17" class="node"><title>48</title>
<polygon fill="bisque" stroke="black" stroke-width="2" points="1692.82,-140.272 1692.82,-158.823 1564.05,-171.941 1381.95,-171.941 1253.18,-158.823 1253.18,-140.272 1381.95,-127.155 1564.05,-127.155 1692.82,-140.272"/>
<text text-anchor="middle" x="1473" y="-145.848" font-family="Times,serif" font-size="14.00">Class: Monoid, Data: SmtpConfigBuilder</text>
</g>
<!-- 71&#45;&gt;48 -->
<g id="edge60" class="edge"><title>71&#45;&gt;48</title>
<path fill="none" stroke="navy" stroke-width="1.69315" d="M1181.64,-84.0252C1200.87,-90.6983 1221.55,-97.3741 1241,-102.676 1279.13,-113.068 1321.38,-122.13 1359.27,-129.394"/>
</g>
<!-- 49 -->
<g id="node18" class="node"><title>49</title>
<polygon fill="bisque" stroke="black" stroke-width="2" points="2171.25,-140.272 2171.25,-158.823 2036.37,-171.941 1845.63,-171.941 1710.75,-158.823 1710.75,-140.272 1845.63,-127.155 2036.37,-127.155 2171.25,-140.272"/>
<text text-anchor="middle" x="1941" y="-145.848" font-family="Times,serif" font-size="14.00">Class: Monoid, Data: ThentosConfigBuilder</text>
</g>
<!-- 71&#45;&gt;49 -->
<g id="edge61" class="edge"><title>71&#45;&gt;49</title>
<path fill="none" stroke="navy" stroke-width="1.69315" d="M1182.99,-83.7403C1204.45,-91.2357 1227.85,-98.3914 1250,-102.676 1451.36,-141.637 1506.47,-108.234 1711,-123.548 1739.91,-125.713 1770.74,-128.545 1800.14,-131.522"/>
</g>
<!-- 38&#45;&gt;13 -->
<g id="edge9" class="edge"><title>38&#45;&gt;13</title>
<path fill="none" stroke="black" stroke-width="2.09861" d="M2449.71,-167.602C2432.76,-180.041 2407.82,-195.873 2383,-202.744 2338.57,-215.041 818.272,-206.426 669.721,-211.226"/>
<polygon fill="black" stroke="black" stroke-width="2.09861" points="669.355,-207.741 659.549,-211.752 669.716,-214.731 669.355,-207.741"/>
</g>
<!-- 1 -->
<g id="node20" class="node"><title>1</title>
<polygon fill="cyan" stroke="black" stroke-width="2" points="4196,-71.6761 4010,-71.6761 4006,-67.6761 4006,-35.6761 4192,-35.6761 4196,-39.6761 4196,-71.6761"/>
<polyline fill="none" stroke="black" stroke-width="2" points="4192,-67.6761 4006,-67.6761 "/>
<polyline fill="none" stroke="black" stroke-width="2" points="4192,-67.6761 4192,-35.6761 "/>
<polyline fill="none" stroke="black" stroke-width="2" points="4192,-67.6761 4196,-71.6761 "/>
<text text-anchor="middle" x="4101" y="-49.9761" font-family="Times,serif" font-size="14.00">Data: CommandBuilder</text>
</g>
<!-- 38&#45;&gt;1 -->
<g id="edge8" class="edge"><title>38&#45;&gt;1</title>
<path fill="none" stroke="black" stroke-width="2.09861" d="M2522.03,-131.447C2533.72,-128.214 2546.19,-125.299 2558,-123.548 2715.85,-100.147 3838.21,-137.205 3994,-102.676 4017.85,-97.3896 4042.85,-86.5128 4062.68,-76.448"/>
<polygon fill="black" stroke="black" stroke-width="2.09861" points="4064.44,-79.4785 4071.69,-71.7527 4061.21,-73.2711 4064.44,-79.4785"/>
</g>
<!-- 39 -->
<g id="node25" class="node"><title>39</title>
<polygon fill="bisque" stroke="black" stroke-width="2" points="4142,-167.548 4006,-167.548 4006,-131.548 4142,-131.548 4142,-167.548"/>
<text text-anchor="middle" x="4074" y="-145.848" font-family="Times,serif" font-size="14.00">finaliseConfig</text>
</g>
<!-- 38&#45;&gt;39 -->
<g id="edge10" class="edge"><title>38&#45;&gt;39</title>
<path fill="none" stroke="black" stroke-width="1.69315" d="M2492.11,-167.738C2510.47,-182.104 2538.53,-200.703 2567,-206.744 2586.27,-210.832 3965.73,-210.832 3985,-206.744 4008.1,-201.841 4030.45,-187.433 4046.97,-174.306"/>
<polygon fill="black" stroke="black" stroke-width="1.69315" points="4049.59,-176.688 4055.06,-167.615 4045.12,-171.296 4049.59,-176.688"/>
</g>
<!-- 57 -->
<g id="node26" class="node"><title>57</title>
<polygon fill="bisque" stroke="black" stroke-width="2" points="4620,-167.548 4474,-167.548 4474,-131.548 4620,-131.548 4620,-167.548"/>
<text text-anchor="middle" x="4547" y="-145.848" font-family="Times,serif" font-size="14.00">parseConfigFile</text>
</g>
<!-- 38&#45;&gt;57 -->
<g id="edge11" class="edge"><title>38&#45;&gt;57</title>
<path fill="none" stroke="black" stroke-width="1.69315" d="M2492.11,-167.738C2510.47,-182.104 2538.53,-200.703 2567,-206.744 2592.09,-212.069 4388.87,-211.917 4414,-206.744 4446.34,-200.084 4480.51,-185.199 4506.12,-172.283"/>
<polygon fill="black" stroke="black" stroke-width="1.69315" points="4507.86,-175.323 4515.15,-167.632 4504.65,-169.1 4507.86,-175.323"/>
</g>
<!-- 5 -->
<g id="node21" class="node"><title>5</title>
<polygon fill="cyan" stroke="black" stroke-width="2" points="5119.5,-71.6761 4906.5,-71.6761 4902.5,-67.6761 4902.5,-35.6761 5115.5,-35.6761 5119.5,-39.6761 5119.5,-71.6761"/>
<polyline fill="none" stroke="black" stroke-width="2" points="5115.5,-67.6761 4902.5,-67.6761 "/>
<polyline fill="none" stroke="black" stroke-width="2" points="5115.5,-67.6761 5115.5,-35.6761 "/>
<polyline fill="none" stroke="black" stroke-width="2" points="5115.5,-67.6761 5119.5,-71.6761 "/>
<text text-anchor="middle" x="5011" y="-49.9761" font-family="Times,serif" font-size="14.00">Data: BackendConfigBuilder</text>
</g>
<!-- 45&#45;&gt;5 -->
<g id="edge27" class="edge"><title>45&#45;&gt;5</title>
<path fill="none" stroke="black" stroke-width="2.60944" d="M3894.59,-131.793C3927.26,-128.563 3961.78,-125.563 3994,-123.548 4093.72,-117.312 4795.17,-122.994 4893,-102.676 4919.24,-97.226 4947.08,-86.1793 4969.13,-76.0561"/>
<polygon fill="black" stroke="black" stroke-width="2.60944" points="4970.64,-79.214 4978.2,-71.7931 4967.66,-72.8787 4970.64,-79.214"/>
</g>
<!-- 8 -->
<g id="node22" class="node"><title>8</title>
<polygon fill="cyan" stroke="black" stroke-width="2" points="4884,-71.6761 4670,-71.6761 4666,-67.6761 4666,-35.6761 4880,-35.6761 4884,-39.6761 4884,-71.6761"/>
<polyline fill="none" stroke="black" stroke-width="2" points="4880,-67.6761 4666,-67.6761 "/>
<polyline fill="none" stroke="black" stroke-width="2" points="4880,-67.6761 4880,-35.6761 "/>
<polyline fill="none" stroke="black" stroke-width="2" points="4880,-67.6761 4884,-71.6761 "/>
<text text-anchor="middle" x="4775" y="-49.9761" font-family="Times,serif" font-size="14.00">Data: FrontendConfigBuilder</text>
</g>
<!-- 46&#45;&gt;8 -->
<g id="edge28" class="edge"><title>46&#45;&gt;8</title>
<path fill="none" stroke="black" stroke-width="2.60944" d="M3407.99,-131.67C3440.52,-128.447 3474.91,-125.48 3507,-123.548 3634.57,-115.869 4531.81,-128.347 4657,-102.676 4683.35,-97.2731 4711.3,-86.1695 4733.38,-76.0016"/>
<polygon fill="black" stroke="black" stroke-width="2.60944" points="4734.9,-79.1506 4742.46,-71.7206 4731.92,-72.8189 4734.9,-79.1506"/>
</g>
<!-- 12 -->
<g id="node23" class="node"><title>12</title>
<polygon fill="cyan" stroke="black" stroke-width="2" points="4648,-71.6761 4450,-71.6761 4446,-67.6761 4446,-35.6761 4644,-35.6761 4648,-39.6761 4648,-71.6761"/>
<polyline fill="none" stroke="black" stroke-width="2" points="4644,-67.6761 4446,-67.6761 "/>
<polyline fill="none" stroke="black" stroke-width="2" points="4644,-67.6761 4644,-35.6761 "/>
<polyline fill="none" stroke="black" stroke-width="2" points="4644,-67.6761 4648,-71.6761 "/>
<text text-anchor="middle" x="4547" y="-49.9761" font-family="Times,serif" font-size="14.00">Data: ProxyConfigBuilder</text>
</g>
<!-- 47&#45;&gt;12 -->
<g id="edge29" class="edge"><title>47&#45;&gt;12</title>
<path fill="none" stroke="black" stroke-width="2.60944" d="M2925.63,-131.634C2956.61,-128.391 2989.4,-125.425 3020,-123.548 3177.06,-113.913 4282.15,-135.7 4436,-102.676 4460.74,-97.3648 4486.8,-86.4133 4507.44,-76.3107"/>
<polygon fill="black" stroke="black" stroke-width="2.60944" points="4509.15,-79.367 4516.52,-71.752 4506.01,-73.1113 4509.15,-79.367"/>
</g>
<!-- 48&#45;&gt;17 -->
<g id="edge30" class="edge"><title>48&#45;&gt;17</title>
<path fill="none" stroke="black" stroke-width="2.38629" d="M1614.31,-132.265C1643.3,-129.166 1673.62,-126.099 1702,-123.548 2015.5,-95.373 2386.58,-71.8691 2567.21,-61.0596"/>
<polygon fill="black" stroke="black" stroke-width="2.38629" points="2567.47,-64.5501 2577.24,-60.4602 2567.05,-57.5625 2567.47,-64.5501"/>
</g>
<!-- 49&#45;&gt;71 -->
<g id="edge32" class="edge"><title>49&#45;&gt;71</title>
<path fill="none" stroke="black" stroke-width="2.38629" d="M1791.13,-132.393C1758.75,-129.101 1724.72,-125.923 1693,-123.548 1488.47,-108.234 1433.36,-141.637 1232,-102.676 1215.81,-99.5441 1198.95,-94.8781 1182.97,-89.6667"/>
<polygon fill="black" stroke="black" stroke-width="2.38629" points="1183.74,-86.2329 1173.14,-86.3602 1181.5,-92.8672 1183.74,-86.2329"/>
</g>
<!-- 19 -->
<g id="node24" class="node"><title>19</title>
<polygon fill="cyan" stroke="black" stroke-width="2" points="4427.5,-71.6761 4218.5,-71.6761 4214.5,-67.6761 4214.5,-35.6761 4423.5,-35.6761 4427.5,-39.6761 4427.5,-71.6761"/>
<polyline fill="none" stroke="black" stroke-width="2" points="4423.5,-67.6761 4214.5,-67.6761 "/>
<polyline fill="none" stroke="black" stroke-width="2" points="4423.5,-67.6761 4423.5,-35.6761 "/>
<polyline fill="none" stroke="black" stroke-width="2" points="4423.5,-67.6761 4427.5,-71.6761 "/>
<text text-anchor="middle" x="4321" y="-49.9761" font-family="Times,serif" font-size="14.00">Data: ThentosConfigBuilder</text>
</g>
<!-- 49&#45;&gt;19 -->
<g id="edge31" class="edge"><title>49&#45;&gt;19</title>
<path fill="none" stroke="black" stroke-width="3.77259" d="M2082.05,-131.573C2114.2,-128.323 2148.24,-125.369 2180,-123.548 2292.32,-117.109 4094.77,-125.174 4205,-102.676 4230.86,-97.3991 4258.2,-86.3759 4279.85,-76.2228"/>
<polygon fill="black" stroke="black" stroke-width="3.77259" points="4281.56,-79.2817 4289.06,-71.7939 4278.53,-72.9731 4281.56,-79.2817"/>
</g>
<!-- 56&#45;&gt;71 -->
<g id="edge37" class="edge"><title>56&#45;&gt;71</title>
<path fill="none" stroke="black" d="M2222.01,-131.54C2208.31,-128.302 2193.74,-125.362 2180,-123.548 1973.08,-96.2236 1446.36,-139.963 1241,-102.676 1223.22,-99.4471 1204.64,-94.2601 1187.12,-88.4655"/>
<polygon fill="black" stroke="black" points="1188.1,-85.1016 1177.51,-85.1923 1185.84,-91.7282 1188.1,-85.1016"/>
</g>
<!-- 56&#45;&gt;1 -->
<g id="edge34" class="edge"><title>56&#45;&gt;1</title>
<path fill="none" stroke="black" d="M2341.71,-131.51C2355.49,-128.251 2370.16,-125.31 2384,-123.548 2561.47,-100.948 3819.3,-141.251 3994,-102.676 4017.86,-97.4083 4042.86,-86.5328 4062.69,-76.4639"/>
<polygon fill="black" stroke="black" points="4064.45,-79.4937 4071.7,-71.7663 4061.21,-73.287 4064.45,-79.4937"/>
</g>
<!-- 60 -->
<g id="node27" class="node"><title>60</title>
<polygon fill="bisque" stroke="black" stroke-width="2" points="4414,-167.548 4304,-167.548 4304,-131.548 4414,-131.548 4414,-167.548"/>
<text text-anchor="middle" x="4359" y="-145.848" font-family="Times,serif" font-size="14.00">parseRun</text>
</g>
<!-- 56&#45;&gt;60 -->
<g id="edge35" class="edge"><title>56&#45;&gt;60</title>
<path fill="none" stroke="black" d="M2307.4,-167.657C2328.98,-181.763 2361.4,-200.038 2393,-206.744 2405.86,-209.473 4273.14,-209.473 4286,-206.744 4306.01,-202.497 4324.14,-188.375 4337.33,-175.228"/>
<polygon fill="black" stroke="black" points="4340.15,-177.342 4344.5,-167.682 4335.07,-172.521 4340.15,-177.342"/>
</g>
<!-- 61 -->
<g id="node28" class="node"><title>61</title>
<polygon fill="bisque" stroke="black" stroke-width="2" points="4286,-167.548 4160,-167.548 4160,-131.548 4286,-131.548 4286,-167.548"/>
<text text-anchor="middle" x="4223" y="-145.848" font-family="Times,serif" font-size="14.00">parseRunA3</text>
</g>
<!-- 56&#45;&gt;61 -->
<g id="edge36" class="edge"><title>56&#45;&gt;61</title>
<path fill="none" stroke="black" d="M2307.4,-167.657C2328.98,-181.763 2361.4,-200.038 2393,-206.744 2416.76,-211.786 4118.24,-211.786 4142,-206.744 4163.46,-202.19 4183.62,-188.003 4198.46,-174.898"/>
<polygon fill="black" stroke="black" points="4201.17,-177.158 4206.13,-167.797 4196.42,-172.021 4201.17,-177.158"/>
</g>
<!-- 39&#45;&gt;16 -->
<g id="edge13" class="edge"><title>39&#45;&gt;16</title>
<path fill="none" stroke="black" stroke-width="1.69315" d="M4027.6,-131.508C4016.72,-128.227 4005.07,-125.276 3994,-123.548 3828.01,-97.6291 1132.65,-144.749 970,-102.676 950.24,-97.5648 930.116,-87.0624 914.108,-77.1813"/>
<polygon fill="black" stroke="black" stroke-width="1.69315" points="915.979,-74.2236 905.667,-71.794 912.214,-80.1243 915.979,-74.2236"/>
</g>
<!-- 39&#45;&gt;18 -->
<g id="edge15" class="edge"><title>39&#45;&gt;18</title>
<path fill="none" stroke="black" d="M4055.06,-167.615C4038.22,-182.121 4012.13,-200.986 3985,-206.744 3964.89,-211.012 1044.53,-207.885 1024,-206.744 878.524,-198.659 710.912,-177.773 607.959,-163.608"/>
<polygon fill="black" stroke="black" points="608.277,-160.118 597.892,-162.215 607.318,-167.052 608.277,-160.118"/>
</g>
<!-- 39&#45;&gt;35 -->
<g id="edge17" class="edge"><title>39&#45;&gt;35</title>
<path fill="none" stroke="black" d="M4055.06,-167.615C4038.22,-182.121 4012.13,-200.986 3985,-206.744 3966.42,-210.686 1268.66,-210.269 1250,-206.744 1214.55,-200.048 1176.68,-184.958 1148.39,-171.958"/>
<polygon fill="black" stroke="black" points="1149.73,-168.717 1139.18,-167.645 1146.76,-175.056 1149.73,-168.717"/>
</g>
<!-- 39&#45;&gt;17 -->
<g id="edge14" class="edge"><title>39&#45;&gt;17</title>
<path fill="none" stroke="black" stroke-width="1.69315" d="M4026.26,-131.491C4015.75,-128.341 4004.6,-125.45 3994,-123.548 3763.44,-82.1721 3060.06,-62.939 2787,-56.8854"/>
<polygon fill="black" stroke="black" stroke-width="1.69315" points="2786.76,-53.3792 2776.68,-56.6583 2786.6,-60.3776 2786.76,-53.3792"/>
</g>
<!-- 39&#45;&gt;19 -->
<g id="edge16" class="edge"><title>39&#45;&gt;19</title>
<path fill="none" stroke="black" stroke-width="2.94591" d="M4124.94,-131.446C4149.29,-123.085 4178.77,-112.686 4205,-102.676 4227.06,-94.2567 4251.23,-84.3665 4271.76,-75.7585"/>
<polygon fill="black" stroke="black" stroke-width="2.94591" points="4273.36,-78.8815 4281.22,-71.776 4270.65,-72.4297 4273.36,-78.8815"/>
</g>
<!-- 6 -->
<g id="node29" class="node"><title>6</title>
<polygon fill="cyan" stroke="black" stroke-width="2" points="5488,-167.548 5334,-167.548 5330,-163.548 5330,-131.548 5484,-131.548 5488,-135.548 5488,-167.548"/>
<polyline fill="none" stroke="black" stroke-width="2" points="5484,-163.548 5330,-163.548 "/>
<polyline fill="none" stroke="black" stroke-width="2" points="5484,-163.548 5484,-131.548 "/>
<polyline fill="none" stroke="black" stroke-width="2" points="5484,-163.548 5488,-167.548 "/>
<text text-anchor="middle" x="5409" y="-145.848" font-family="Times,serif" font-size="14.00">Data: ConfigError</text>
</g>
<!-- 39&#45;&gt;6 -->
<g id="edge12" class="edge"><title>39&#45;&gt;6</title>
<path fill="none" stroke="black" stroke-width="2.09861" d="M4092.17,-167.684C4108.35,-182.234 4133.51,-201.123 4160,-206.744 4175.65,-210.065 5296.35,-210.065 5312,-206.744 5336.65,-201.512 5361.07,-187.047 5379.24,-173.974"/>
<polygon fill="black" stroke="black" stroke-width="2.09861" points="5381.71,-176.499 5387.64,-167.714 5377.53,-170.888 5381.71,-176.499"/>
</g>
<!-- 37 -->
<g id="node30" class="node"><title>37</title>
<polygon fill="bisque" stroke="black" stroke-width="2" points="5891.5,-167.548 5708.5,-167.548 5708.5,-131.548 5891.5,-131.548 5891.5,-167.548"/>
<text text-anchor="middle" x="5800" y="-145.848" font-family="Times,serif" font-size="14.00">finaliseBackendConfig</text>
</g>
<!-- 39&#45;&gt;37 -->
<g id="edge18" class="edge"><title>39&#45;&gt;37</title>
<path fill="none" stroke="black" d="M4092.17,-167.684C4108.35,-182.234 4133.51,-201.123 4160,-206.744 4180.79,-211.155 5669.21,-211.155 5690,-206.744 5717.45,-200.918 5745.47,-186.192 5766.36,-173.141"/>
<polygon fill="black" stroke="black" points="5768.34,-176.033 5774.86,-167.682 5764.55,-170.145 5768.34,-176.033"/>
</g>
<!-- 40 -->
<g id="node31" class="node"><title>40</title>
<polygon fill="bisque" stroke="black" stroke-width="2" points="5690.5,-167.548 5505.5,-167.548 5505.5,-131.548 5690.5,-131.548 5690.5,-167.548"/>
<text text-anchor="middle" x="5598" y="-145.848" font-family="Times,serif" font-size="14.00">finaliseFrontendConfig</text>
</g>
<!-- 39&#45;&gt;40 -->
<g id="edge19" class="edge"><title>39&#45;&gt;40</title>
<path fill="none" stroke="black" d="M4092.17,-167.684C4108.35,-182.234 4133.51,-201.123 4160,-206.744 4178.04,-210.572 5469.96,-210.572 5488,-206.744 5515.45,-200.918 5543.47,-186.192 5564.36,-173.141"/>
<polygon fill="black" stroke="black" points="5566.34,-176.033 5572.86,-167.682 5562.55,-170.145 5566.34,-176.033"/>
</g>
<!-- 41 -->
<g id="node32" class="node"><title>41</title>
<polygon fill="bisque" stroke="black" stroke-width="2" points="5312,-167.548 5144,-167.548 5144,-131.548 5312,-131.548 5312,-167.548"/>
<text text-anchor="middle" x="5228" y="-145.848" font-family="Times,serif" font-size="14.00">finaliseProxyConfig</text>
</g>
<!-- 39&#45;&gt;41 -->
<g id="edge20" class="edge"><title>39&#45;&gt;41</title>
<path fill="none" stroke="black" d="M4092.17,-167.684C4108.35,-182.234 4133.51,-201.123 4160,-206.744 4173.08,-209.52 5109.92,-209.52 5123,-206.744 5149.36,-201.15 5175.98,-186.527 5195.82,-173.467"/>
<polygon fill="black" stroke="black" points="5197.85,-176.318 5204.16,-167.806 5193.92,-170.526 5197.85,-176.318"/>
</g>
<!-- 57&#45;&gt;17 -->
<g id="edge42" class="edge"><title>57&#45;&gt;17</title>
<path fill="none" stroke="black" d="M4473.88,-131.793C4457.23,-128.542 4439.57,-125.532 4423,-123.548 4341.78,-113.821 3157.55,-71.5795 2786.99,-58.5306"/>
<polygon fill="black" stroke="black" points="2786.91,-55.0258 2776.8,-58.1717 2786.67,-62.0215 2786.91,-55.0258"/>
</g>
<!-- 57&#45;&gt;5 -->
<g id="edge38" class="edge"><title>57&#45;&gt;5</title>
<path fill="none" stroke="black" d="M4620.28,-144.26C4691.04,-138.854 4800.75,-127.126 4893,-102.676 4918.05,-96.0379 4944.88,-85.422 4966.63,-75.8596"/>
<polygon fill="black" stroke="black" points="4968.22,-78.9794 4975.92,-71.6999 4965.36,-72.59 4968.22,-78.9794"/>
</g>
<!-- 57&#45;&gt;8 -->
<g id="edge40" class="edge"><title>57&#45;&gt;8</title>
<path fill="none" stroke="black" d="M4588.55,-131.44C4626.6,-115.773 4683.04,-92.5364 4723.85,-75.735"/>
<polygon fill="black" stroke="black" points="4725.43,-78.869 4733.35,-71.8254 4722.77,-72.3962 4725.43,-78.869"/>
</g>
<!-- 57&#45;&gt;12 -->
<g id="edge41" class="edge"><title>57&#45;&gt;12</title>
<path fill="none" stroke="black" d="M4547,-131.33C4547,-117.569 4547,-98.0166 4547,-82.1038"/>
<polygon fill="black" stroke="black" points="4550.5,-81.7845 4547,-71.7845 4543.5,-81.7846 4550.5,-81.7845"/>
</g>
<!-- 57&#45;&gt;19 -->
<g id="edge43" class="edge"><title>57&#45;&gt;19</title>
<path fill="none" stroke="black" d="M4505.81,-131.44C4468.09,-115.773 4412.15,-92.5364 4371.7,-75.735"/>
<polygon fill="black" stroke="black" points="4372.87,-72.4291 4362.29,-71.8254 4370.18,-78.8936 4372.87,-72.4291"/>
</g>
<!-- 57&#45;&gt;6 -->
<g id="edge39" class="edge"><title>57&#45;&gt;6</title>
<path fill="none" stroke="black" d="M4620.46,-158.911C4732.5,-172.674 4952.92,-197.709 5141,-206.744 5178.96,-208.567 5274.83,-214.632 5312,-206.744 5336.65,-201.512 5361.07,-187.047 5379.24,-173.974"/>
<polygon fill="black" stroke="black" points="5381.71,-176.499 5387.64,-167.714 5377.53,-170.888 5381.71,-176.499"/>
</g>
<!-- 60&#45;&gt;1 -->
<g id="edge46" class="edge"><title>60&#45;&gt;1</title>
<path fill="none" stroke="black" d="M4318,-131.523C4310.42,-128.665 4302.52,-125.876 4295,-123.548 4255.77,-111.408 4243.84,-115.987 4205,-102.676 4183.92,-95.4517 4161.36,-85.354 4142.67,-76.2831"/>
<polygon fill="black" stroke="black" points="4144.06,-73.0695 4133.55,-71.7922 4140.97,-79.3496 4144.06,-73.0695"/>
</g>
<!-- 64 -->
<g id="node33" class="node"><title>64</title>
<polygon fill="bisque" stroke="black" stroke-width="2" points="6078,-167.548 5910,-167.548 5910,-131.548 6078,-131.548 6078,-167.548"/>
<text text-anchor="middle" x="5994" y="-145.848" font-family="Times,serif" font-size="14.00">parseThentosConfig</text>
</g>
<!-- 60&#45;&gt;64 -->
<g id="edge47" class="edge"><title>60&#45;&gt;64</title>
<path fill="none" stroke="black" d="M4385.44,-167.556C4407.87,-181.602 4441.5,-199.846 4474,-206.744 4493.25,-210.829 5871.75,-210.829 5891,-206.744 5917.03,-201.22 5943.2,-186.543 5962.65,-173.44"/>
<polygon fill="black" stroke="black" points="5964.87,-176.154 5971.08,-167.57 5960.88,-170.408 5964.87,-176.154"/>
</g>
<!-- 61&#45;&gt;1 -->
<g id="edge48" class="edge"><title>61&#45;&gt;1</title>
<path fill="none" stroke="black" d="M4200.62,-131.33C4181.19,-116.378 4152.87,-94.5892 4131.39,-78.0604"/>
<polygon fill="black" stroke="black" points="4133.29,-75.1088 4123.23,-71.7845 4129.03,-80.6566 4133.29,-75.1088"/>
</g>
<!-- 61&#45;&gt;64 -->
<g id="edge49" class="edge"><title>61&#45;&gt;64</title>
<path fill="none" stroke="black" d="M4239.87,-167.797C4254.96,-182.418 4278.57,-201.347 4304,-206.744 4325.56,-211.319 5869.44,-211.319 5891,-206.744 5917.03,-201.22 5943.2,-186.543 5962.65,-173.44"/>
<polygon fill="black" stroke="black" points="5964.87,-176.154 5971.08,-167.57 5960.88,-170.408 5964.87,-176.154"/>
</g>
<!-- 37&#45;&gt;4 -->
<g id="edge6" class="edge"><title>37&#45;&gt;4</title>
<path fill="none" stroke="black" d="M5775.18,-167.621C5755.5,-180.069 5726.79,-195.906 5699,-202.744 5586.95,-230.31 1893.54,-228.395 1239.49,-227.839"/>
<polygon fill="black" stroke="black" points="1239.17,-224.339 1229.16,-227.83 1239.16,-231.339 1239.17,-224.339"/>
</g>
<!-- 37&#45;&gt;5 -->
<g id="edge7" class="edge"><title>37&#45;&gt;5</title>
<path fill="none" stroke="black" d="M5739.77,-131.537C5726.44,-128.364 5712.32,-125.451 5699,-123.548 5475.74,-91.6543 5414.99,-136.419 5192,-102.676 5151.77,-96.5888 5107.62,-84.9822 5073,-74.7072"/>
<polygon fill="black" stroke="black" points="5073.62,-71.2394 5063.03,-71.71 5071.6,-77.9426 5073.62,-71.2394"/>
</g>
<!-- 40&#45;&gt;7 -->
<g id="edge21" class="edge"><title>40&#45;&gt;7</title>
<path fill="none" stroke="black" d="M5573.18,-167.65C5553.51,-180.114 5524.8,-195.957 5497,-202.744 5438.18,-217.1 1285.61,-205.876 1045.11,-211.254"/>
<polygon fill="black" stroke="black" points="1044.98,-207.757 1035.11,-211.624 1045.24,-214.752 1044.98,-207.757"/>
</g>
<!-- 40&#45;&gt;8 -->
<g id="edge22" class="edge"><title>40&#45;&gt;8</title>
<path fill="none" stroke="black" d="M5538.05,-131.535C5524.64,-128.34 5510.42,-125.42 5497,-123.548 5363.99,-104.994 5024.34,-130.731 4893,-102.676 4866.79,-97.0775 4838.95,-86.0228 4816.9,-75.9325"/>
<polygon fill="black" stroke="black" points="4818.37,-72.7544 4807.82,-71.6858 4815.4,-79.0945 4818.37,-72.7544"/>
</g>
<!-- 41&#45;&gt;11 -->
<g id="edge23" class="edge"><title>41&#45;&gt;11</title>
<path fill="none" stroke="black" d="M5204.54,-167.64C5185.91,-180.098 5158.65,-195.94 5132,-202.744 5075.59,-217.144 1084.39,-205.659 848.854,-211.342"/>
<polygon fill="black" stroke="black" points="848.705,-207.845 838.853,-211.742 848.984,-214.84 848.705,-207.845"/>
</g>
<!-- 41&#45;&gt;12 -->
<g id="edge24" class="edge"><title>41&#45;&gt;12</title>
<path fill="none" stroke="black" d="M5170.79,-131.546C5158.12,-128.372 5144.69,-125.457 5132,-123.548 4923.04,-92.1083 4862.86,-150.375 4657,-102.676 4632.71,-97.0477 4607.09,-86.1923 4586.69,-76.2266"/>
<polygon fill="black" stroke="black" points="4588.22,-73.0779 4577.71,-71.7324 4585.09,-79.3378 4588.22,-73.0779"/>
</g>
<!-- 64&#45;&gt;71 -->
<g id="edge56" class="edge"><title>64&#45;&gt;71</title>
<path fill="none" stroke="black" d="M5939.3,-131.487C5926.53,-128.207 5912.89,-125.262 5900,-123.548 5643.42,-89.4268 1496.07,-146.655 1241,-102.676 1223.08,-99.587 1204.39,-94.4271 1186.77,-88.6089"/>
<polygon fill="black" stroke="black" points="1187.7,-85.2286 1177.1,-85.3179 1185.44,-91.8548 1187.7,-85.2286"/>
</g>
<!-- 64&#45;&gt;19 -->
<g id="edge50" class="edge"><title>64&#45;&gt;19</title>
<path fill="none" stroke="black" d="M5938.79,-131.451C5926.16,-128.218 5912.71,-125.302 5900,-123.548 5738.95,-101.329 4596.22,-135.5 4437,-102.676 4411.15,-97.3479 4383.81,-86.322 4362.16,-76.1801"/>
<polygon fill="black" stroke="black" points="4363.48,-72.9304 4352.95,-71.7571 4360.45,-79.2407 4363.48,-72.9304"/>
</g>
<!-- 55 -->
<g id="node34" class="node"><title>55</title>
<polygon fill="bisque" stroke="black" stroke-width="2" points="6039,-71.6761 5827,-71.6761 5827,-35.6761 6039,-35.6761 6039,-71.6761"/>
<text text-anchor="middle" x="5933" y="-49.9761" font-family="Times,serif" font-size="14.00">parseBackendConfigBuilder</text>
</g>
<!-- 64&#45;&gt;55 -->
<g id="edge51" class="edge"><title>64&#45;&gt;55</title>
<path fill="none" stroke="black" d="M5982.81,-131.33C5973.53,-117.039 5960.18,-96.504 5949.64,-80.2844"/>
<polygon fill="black" stroke="black" points="5952.5,-78.2625 5944.12,-71.7845 5946.63,-82.0768 5952.5,-78.2625"/>
</g>
<!-- 58 -->
<g id="node35" class="node"><title>58</title>
<polygon fill="bisque" stroke="black" stroke-width="2" points="5809,-71.6761 5595,-71.6761 5595,-35.6761 5809,-35.6761 5809,-71.6761"/>
<text text-anchor="middle" x="5702" y="-49.9761" font-family="Times,serif" font-size="14.00">parseFrontendConfigBuilder</text>
</g>
<!-- 64&#45;&gt;58 -->
<g id="edge52" class="edge"><title>64&#45;&gt;58</title>
<path fill="none" stroke="black" d="M5930.31,-131.511C5920.18,-128.829 5909.81,-126.1 5900,-123.548 5863.61,-114.077 5853.69,-114.534 5818,-102.676 5794.77,-94.9585 5769.6,-84.775 5748.66,-75.7742"/>
<polygon fill="black" stroke="black" points="5749.93,-72.508 5739.36,-71.7351 5747.14,-78.9287 5749.93,-72.508"/>
</g>
<!-- 59 -->
<g id="node36" class="node"><title>59</title>
<polygon fill="bisque" stroke="black" stroke-width="2" points="5576.5,-71.6761 5379.5,-71.6761 5379.5,-35.6761 5576.5,-35.6761 5576.5,-71.6761"/>
<text text-anchor="middle" x="5478" y="-49.9761" font-family="Times,serif" font-size="14.00">parseProxyConfigBuilder</text>
</g>
<!-- 64&#45;&gt;59 -->
<g id="edge53" class="edge"><title>64&#45;&gt;59</title>
<path fill="none" stroke="black" d="M5936.97,-131.493C5924.86,-128.404 5912.08,-125.537 5900,-123.548 5761.99,-100.829 5721.78,-136.234 5586,-102.676 5562.44,-96.8536 5537.6,-86.1661 5517.69,-76.3515"/>
<polygon fill="black" stroke="black" points="5519.13,-73.1578 5508.62,-71.7769 5515.97,-79.4071 5519.13,-73.1578"/>
</g>
<!-- 62 -->
<g id="node37" class="node"><title>62</title>
<polygon fill="cyan" stroke="black" stroke-width="2" points="5361.5,-71.6761 5204.5,-71.6761 5204.5,-35.6761 5361.5,-35.6761 5361.5,-71.6761"/>
<text text-anchor="middle" x="5283" y="-49.9761" font-family="Times,serif" font-size="14.00">parseRunBackend</text>
</g>
<!-- 64&#45;&gt;62 -->
<g id="edge54" class="edge"><title>64&#45;&gt;62</title>
<path fill="none" stroke="black" d="M5937.76,-131.432C5925.42,-128.286 5912.36,-125.411 5900,-123.548 5783.45,-105.975 5483.54,-134.316 5370,-102.676 5350.83,-97.3344 5331.27,-87.0599 5315.57,-77.3831"/>
<polygon fill="black" stroke="black" points="5317.11,-74.2174 5306.8,-71.7963 5313.35,-80.1212 5317.11,-74.2174"/>
</g>
<!-- 63 -->
<g id="node38" class="node"><title>63</title>
<polygon fill="cyan" stroke="black" stroke-width="2" points="6215,-71.6761 6057,-71.6761 6057,-35.6761 6215,-35.6761 6215,-71.6761"/>
<text text-anchor="middle" x="6136" y="-49.9761" font-family="Times,serif" font-size="14.00">parseRunFrontend</text>
</g>
<!-- 64&#45;&gt;63 -->
<g id="edge55" class="edge"><title>64&#45;&gt;63</title>
<path fill="none" stroke="black" d="M6020.04,-131.33C6042.96,-116.179 6076.5,-94.0096 6101.62,-77.405"/>
<polygon fill="black" stroke="black" points="6103.71,-80.2189 6110.12,-71.7845 6099.85,-74.3795 6103.71,-80.2189"/>
</g>
<!-- 55&#45;&gt;5 -->
<g id="edge33" class="edge"><title>55&#45;&gt;5</title>
<path fill="none" stroke="black" d="M5904.79,-71.7258C5880.49,-86.134 5843.92,-105.176 5809,-113.112 5743.12,-128.084 5267.78,-123.313 5201,-113.112 5153.95,-105.925 5102.55,-89.2746 5065.09,-75.4197"/>
<polygon fill="black" stroke="black" points="5065.98,-72.0176 5055.39,-71.7812 5063.52,-78.5713 5065.98,-72.0176"/>
</g>
<!-- 58&#45;&gt;8 -->
<g id="edge44" class="edge"><title>58&#45;&gt;8</title>
<path fill="none" stroke="black" d="M5673.29,-71.7287C5648.58,-86.1386 5611.4,-105.181 5576,-113.112 5539.46,-121.297 4938.55,-121.242 4902,-113.112 4870.39,-106.082 4837.35,-90.3126 4812.89,-76.7829"/>
<polygon fill="black" stroke="black" points="4814.38,-73.6074 4803.96,-71.7301 4810.94,-79.7001 4814.38,-73.6074"/>
</g>
<!-- 59&#45;&gt;12 -->
<g id="edge45" class="edge"><title>59&#45;&gt;12</title>
<path fill="none" stroke="black" d="M5451.53,-71.7148C5428.69,-86.1163 5394.24,-105.154 5361,-113.112 5323.45,-122.103 4703.58,-121.975 4666,-113.112 4636.24,-106.092 4605.42,-90.4316 4582.61,-76.9475"/>
<polygon fill="black" stroke="black" points="4584.34,-73.9016 4573.97,-71.7181 4580.71,-79.8902 4584.34,-73.9016"/>
</g>
</g>
</svg>
