<?xml version="1.0" encoding="UTF-8" standalone="no"?>
<!DOCTYPE svg PUBLIC "-//W3C//DTD SVG 1.1//EN"
 "http://www.w3.org/Graphics/SVG/1.1/DTD/svg11.dtd">
<!-- Generated by graphviz version 2.38.0 (20140413.2041)
 -->
<!-- Title: Diagram of: Thentos.TypesSpec Pages: 1 -->
<svg width="143pt" height="188pt"
 viewBox="0.00 0.00 143.00 188.00" xmlns="http://www.w3.org/2000/svg" xmlns:xlink="http://www.w3.org/1999/xlink">
<g id="graph0" class="graph" transform="scale(1 1) rotate(0) translate(4 184)">
<title>Diagram of: Thentos.TypesSpec</title>
<polygon fill="white" stroke="none" points="-4,4 -4,-184 139,-184 139,4 -4,4"/>
<!-- 1 -->
<g id="node1" class="node"><title>1</title>
<polygon fill="goldenrod" stroke="black" stroke-width="2" points="109,-108 26,-108 26,-72 109,-72 109,-108"/>
<text text-anchor="middle" x="67.5" y="-86.3" font-family="Times,serif" font-size="14.00">spec</text>
</g>
<!-- 2 -->
<g id="node2" class="node"><title>2</title>
<polygon fill="goldenrod" stroke="black" stroke-width="2" points="135,-36 0,-36 0,-0 135,-0 135,-36"/>
<text text-anchor="middle" x="67.5" y="-14.3" font-family="Times,serif" font-size="14.00">testSizeFactor</text>
</g>
<!-- 1&#45;&gt;2 -->
<g id="edge1" class="edge"><title>1&#45;&gt;2</title>
<path fill="none" stroke="chartreuse" d="M67.5,-71.6966C67.5,-63.9827 67.5,-54.7125 67.5,-46.1124"/>
<polygon fill="chartreuse" stroke="chartreuse" points="71.0001,-46.1043 67.5,-36.1043 64.0001,-46.1044 71.0001,-46.1043"/>
</g>
<!-- 3 -->
<g id="node3" class="node"><title>3</title>
<polygon fill="gold" stroke="black" stroke-width="2" points="109,-180 26,-180 26,-144 109,-144 109,-180"/>
<text text-anchor="middle" x="67.5" y="-158.3" font-family="Times,serif" font-size="14.00">tests</text>
</g>
<!-- 3&#45;&gt;1 -->
<g id="edge2" class="edge"><title>3&#45;&gt;1</title>
<path fill="none" stroke="chartreuse" d="M67.5,-143.697C67.5,-135.983 67.5,-126.712 67.5,-118.112"/>
<polygon fill="chartreuse" stroke="chartreuse" points="71.0001,-118.104 67.5,-108.104 64.0001,-118.104 71.0001,-118.104"/>
</g>
</g>
</svg>
