<?xml version="1.0" encoding="UTF-8" standalone="no"?>
<!DOCTYPE svg PUBLIC "-//W3C//DTD SVG 1.1//EN"
 "http://www.w3.org/Graphics/SVG/1.1/DTD/svg11.dtd">
<!-- Generated by graphviz version 2.38.0 (20140413.2041)
 -->
<!-- Title: Diagram of: Thentos.Backend.Core Pages: 1 -->
<svg width="648pt" height="366pt"
 viewBox="0.00 0.00 647.50 366.17" xmlns="http://www.w3.org/2000/svg" xmlns:xlink="http://www.w3.org/1999/xlink">
<g id="graph0" class="graph" transform="scale(1 1) rotate(0) translate(4 362.174)">
<title>Diagram of: Thentos.Backend.Core</title>
<polygon fill="white" stroke="none" points="-4,4 -4,-362.174 643.5,-362.174 643.5,4 -4,4"/>
<g id="clust1" class="cluster"><title>cluster_Class_PushActionC</title>
<path fill="#ffc1c1" stroke="black" d="M20,-56C20,-56 440,-56 440,-56 446,-56 452,-62 452,-68 452,-68 452,-338.174 452,-338.174 452,-344.174 446,-350.174 440,-350.174 440,-350.174 20,-350.174 20,-350.174 14,-350.174 8,-344.174 8,-338.174 8,-338.174 8,-68 8,-68 8,-62 14,-56 20,-56"/>
<text text-anchor="middle" x="230" y="-334.974" font-family="Times,serif" font-size="14.00">Class: PushActionC</text>
</g>
<g id="clust2" class="cluster"><title>cluster_Class_PushActionC_Data_IOResponseReceived</title>
<path fill="#c6e2ff" stroke="black" d="M28,-64C28,-64 222,-64 222,-64 228,-64 234,-70 234,-76 234,-76 234,-135.391 234,-135.391 234,-141.391 228,-147.391 222,-147.391 222,-147.391 28,-147.391 28,-147.391 22,-147.391 16,-141.391 16,-135.391 16,-135.391 16,-76 16,-76 16,-70 22,-64 28,-64"/>
<text text-anchor="middle" x="125" y="-132.191" font-family="Times,serif" font-size="14.00">Instance for: (IO ResponseReceived)</text>
</g>
<g id="clust3" class="cluster"><title>cluster_Class_PushActionC_Data_RestActionRawa</title>
<path fill="#c6e2ff" stroke="black" d="M254,-64C254,-64 432,-64 432,-64 438,-64 444,-70 444,-76 444,-76 444,-135.391 444,-135.391 444,-141.391 438,-147.391 432,-147.391 432,-147.391 254,-147.391 254,-147.391 248,-147.391 242,-141.391 242,-135.391 242,-135.391 242,-76 242,-76 242,-70 248,-64 254,-64"/>
<text text-anchor="middle" x="343" y="-132.191" font-family="Times,serif" font-size="14.00">Instance for: (RestActionRaw a)</text>
</g>
<g id="clust4" class="cluster"><title>cluster_Class_PushActionC_Data_ab</title>
<path fill="#c6e2ff" stroke="black" d="M39,-235.783C39,-235.783 420,-235.783 420,-235.783 426,-235.783 432,-241.783 432,-247.783 432,-247.783 432,-307.174 432,-307.174 432,-313.174 426,-319.174 420,-319.174 420,-319.174 39,-319.174 39,-319.174 33,-319.174 27,-313.174 27,-307.174 27,-307.174 27,-247.783 27,-247.783 27,-241.783 33,-235.783 39,-235.783"/>
<text text-anchor="middle" x="229.5" y="-303.974" font-family="Times,serif" font-size="14.00">Instance for: (a :&lt;|&gt; b)</text>
</g>
<!-- 4 -->
<g id="node1" class="node"><title>4</title>
<polygon fill="cyan" stroke="black" stroke-width="2" points="225.719,-84.9201 225.719,-103.471 171.405,-116.589 94.5946,-116.589 40.2811,-103.471 40.2811,-84.9201 94.5946,-71.8026 171.405,-71.8026 225.719,-84.9201"/>
<text text-anchor="middle" x="133" y="-90.4956" font-family="Times,serif" font-size="14.00">pushAction</text>
</g>
<!-- 5 -->
<g id="node2" class="node"><title>5</title>
<polygon fill="bisque" stroke="black" stroke-width="2" points="435.719,-84.9201 435.719,-103.471 381.405,-116.589 304.595,-116.589 250.281,-103.471 250.281,-84.9201 304.595,-71.8026 381.405,-71.8026 435.719,-84.9201"/>
<text text-anchor="middle" x="343" y="-90.4956" font-family="Times,serif" font-size="14.00">pushAction</text>
</g>
<!-- 1 -->
<g id="node6" class="node"><title>1</title>
<polygon fill="goldenrod" stroke="black" stroke-width="2" points="401,-36 285,-36 285,-0 401,-0 401,-36"/>
<text text-anchor="middle" x="343" y="-14.3" font-family="Times,serif" font-size="14.00">fmapLTM</text>
</g>
<!-- 5&#45;&gt;1 -->
<g id="edge5" class="edge"><title>5&#45;&gt;1</title>
<path fill="none" stroke="chartreuse" d="M343,-71.7352C343,-63.7907 343,-54.6752 343,-46.2819"/>
<polygon fill="chartreuse" stroke="chartreuse" points="346.5,-46.1792 343,-36.1793 339.5,-46.1793 346.5,-46.1792"/>
</g>
<!-- 6 -->
<g id="node3" class="node"><title>6</title>
<polygon fill="bisque" stroke="black" stroke-width="2" points="423.719,-256.703 423.719,-275.254 369.405,-288.371 292.595,-288.371 238.281,-275.254 238.281,-256.703 292.595,-243.585 369.405,-243.585 423.719,-256.703"/>
<text text-anchor="middle" x="331" y="-262.278" font-family="Times,serif" font-size="14.00">pushAction</text>
</g>
<!-- 3 -->
<g id="node5" class="node"><title>3</title>
<polygon fill="goldenrod" stroke="black" stroke-width="2" points="318.714,-172.324 318.714,-190.85 264.404,-203.95 187.596,-203.95 133.286,-190.85 133.286,-172.324 187.596,-159.224 264.404,-159.224 318.714,-172.324"/>
<polygon fill="none" stroke="black" stroke-width="2" points="322.719,-169.146 322.719,-194.028 264.877,-207.98 187.123,-207.98 129.281,-194.028 129.281,-169.146 187.123,-155.194 264.877,-155.194 322.719,-169.146"/>
<text text-anchor="middle" x="226" y="-177.887" font-family="Times,serif" font-size="14.00">pushAction</text>
</g>
<!-- 6&#45;&gt;3 -->
<g id="edge6" class="edge"><title>6&#45;&gt;3</title>
<path fill="none" stroke="black" d="M297.972,-243.76C285.763,-234.765 271.963,-224.092 259.702,-214.2"/>
<polygon fill="black" stroke="black" points="261.862,-211.444 251.9,-207.837 257.438,-216.869 261.862,-211.444"/>
</g>
<!-- 7 -->
<g id="node4" class="node"><title>7</title>
<polygon fill="bisque" stroke="black" stroke-width="2" points="220.719,-256.703 220.719,-275.254 166.405,-288.371 89.5946,-288.371 35.2811,-275.254 35.2811,-256.703 89.5946,-243.585 166.405,-243.585 220.719,-256.703"/>
<text text-anchor="middle" x="128" y="-262.278" font-family="Times,serif" font-size="14.00">pushAction</text>
</g>
<!-- 7&#45;&gt;3 -->
<g id="edge7" class="edge"><title>7&#45;&gt;3</title>
<path fill="none" stroke="black" stroke-width="1.69315" d="M147.249,-243.76C157.205,-234.765 169.701,-224.092 181.813,-214.2"/>
<polygon fill="black" stroke="black" stroke-width="1.69315" points="184.109,-216.845 189.687,-207.837 179.709,-211.4 184.109,-216.845"/>
</g>
<!-- 3&#45;&gt;4 -->
<g id="edge1" class="edge"><title>3&#45;&gt;4</title>
<path fill="none" stroke="navy" d="M198.349,-155.198C184.963,-142.907 169.069,-128.314 156.308,-116.596"/>
</g>
<!-- 3&#45;&gt;5 -->
<g id="edge2" class="edge"><title>3&#45;&gt;5</title>
<path fill="none" stroke="navy" d="M260.787,-155.198C277.627,-142.907 297.623,-128.314 313.678,-116.596"/>
</g>
<!-- 3&#45;&gt;6 -->
<g id="edge3" class="edge"><title>3&#45;&gt;6</title>
<path fill="none" stroke="navy" d="M264.458,-207.837C279.825,-219.336 296.88,-232.794 309.948,-243.76"/>
</g>
<!-- 3&#45;&gt;7 -->
<g id="edge4" class="edge"><title>3&#45;&gt;7</title>
<path fill="none" stroke="navy" d="M202.245,-207.837C189.282,-219.336 173.177,-232.794 159.226,-243.76"/>
</g>
<!-- 2 -->
<g id="node7" class="node"><title>2</title>
<polygon fill="gold" stroke="black" stroke-width="2" points="639.5,-283.978 460.5,-283.978 460.5,-247.978 639.5,-247.978 639.5,-283.978"/>
<text text-anchor="middle" x="550" y="-262.278" font-family="Times,serif" font-size="14.00">lookupRequestHeader</text>
</g>
</g>
</svg>
