<?xml version="1.0" encoding="UTF-8" standalone="no"?>
<!DOCTYPE svg PUBLIC "-//W3C//DTD SVG 1.1//EN"
 "http://www.w3.org/Graphics/SVG/1.1/DTD/svg11.dtd">
<!-- Generated by graphviz version 2.38.0 (20140413.2041)
 -->
<!-- Title: Diagram of: Thentos.Config Pages: 1 -->
<svg width="5463pt" height="576pt"
 viewBox="0.00 0.00 5463.00 575.74" xmlns="http://www.w3.org/2000/svg" xmlns:xlink="http://www.w3.org/1999/xlink">
<g id="graph0" class="graph" transform="scale(1 1) rotate(0) translate(4 571.744)">
<title>Diagram of: Thentos.Config</title>
<polygon fill="white" stroke="none" points="-4,4 -4,-571.744 5459,-571.744 5459,4 -4,4"/>
<g id="clust1" class="cluster"><title>cluster_Class_Monoid</title>
<path fill="#ffc1c1" stroke="black" d="M936,-246C936,-246 2392,-246 2392,-246 2398,-246 2404,-252 2404,-258 2404,-258 2404,-439.744 2404,-439.744 2404,-445.744 2398,-451.744 2392,-451.744 2392,-451.744 936,-451.744 936,-451.744 930,-451.744 924,-445.744 924,-439.744 924,-439.744 924,-258 924,-258 924,-252 930,-246 936,-246"/>
<text text-anchor="middle" x="1664" y="-436.544" font-family="Times,serif" font-size="14.00">Class: Monoid</text>
</g>
<g id="clust2" class="cluster"><title>cluster_Class_Monoid_Data_BackendConfigBuilder</title>
<path fill="#c6e2ff" stroke="black" d="M944,-254C944,-254 1280,-254 1280,-254 1286,-254 1292,-260 1292,-266 1292,-266 1292,-325.391 1292,-325.391 1292,-331.391 1286,-337.391 1280,-337.391 1280,-337.391 944,-337.391 944,-337.391 938,-337.391 932,-331.391 932,-325.391 932,-325.391 932,-266 932,-266 932,-260 938,-254 944,-254"/>
<text text-anchor="middle" x="1112" y="-322.191" font-family="Times,serif" font-size="14.00">Instance for: BackendConfigBuilder</text>
</g>
<g id="clust3" class="cluster"><title>cluster_Class_Monoid_Data_FrontendConfigBuilder</title>
<path fill="#c6e2ff" stroke="black" d="M1312,-254C1312,-254 1648,-254 1648,-254 1654,-254 1660,-260 1660,-266 1660,-266 1660,-325.391 1660,-325.391 1660,-331.391 1654,-337.391 1648,-337.391 1648,-337.391 1312,-337.391 1312,-337.391 1306,-337.391 1300,-331.391 1300,-325.391 1300,-325.391 1300,-266 1300,-266 1300,-260 1306,-254 1312,-254"/>
<text text-anchor="middle" x="1480" y="-322.191" font-family="Times,serif" font-size="14.00">Instance for: FrontendConfigBuilder</text>
</g>
<g id="clust4" class="cluster"><title>cluster_Class_Monoid_Data_ProxyConfigBuilder</title>
<path fill="#c6e2ff" stroke="black" d="M1680,-254C1680,-254 2016,-254 2016,-254 2022,-254 2028,-260 2028,-266 2028,-266 2028,-325.391 2028,-325.391 2028,-331.391 2022,-337.391 2016,-337.391 2016,-337.391 1680,-337.391 1680,-337.391 1674,-337.391 1668,-331.391 1668,-325.391 1668,-325.391 1668,-266 1668,-266 1668,-260 1674,-254 1680,-254"/>
<text text-anchor="middle" x="1848" y="-322.191" font-family="Times,serif" font-size="14.00">Instance for: ProxyConfigBuilder</text>
</g>
<g id="clust5" class="cluster"><title>cluster_Class_Monoid_Data_ThentosConfigBuilder</title>
<path fill="#c6e2ff" stroke="black" d="M2048,-254C2048,-254 2384,-254 2384,-254 2390,-254 2396,-260 2396,-266 2396,-266 2396,-325.391 2396,-325.391 2396,-331.391 2390,-337.391 2384,-337.391 2384,-337.391 2048,-337.391 2048,-337.391 2042,-337.391 2036,-331.391 2036,-325.391 2036,-325.391 2036,-266 2036,-266 2036,-260 2042,-254 2048,-254"/>
<text text-anchor="middle" x="2216" y="-322.191" font-family="Times,serif" font-size="14.00">Instance for: ThentosConfigBuilder</text>
</g>
<g id="clust6" class="cluster"><title>cluster_Data_BackendConfig</title>
<path fill="papayawhip" stroke="black" d="M450,-80C450,-80 586,-80 586,-80 592,-80 598,-86 598,-92 598,-92 598,-226 598,-226 598,-232 592,-238 586,-238 586,-238 450,-238 450,-238 444,-238 438,-232 438,-226 438,-226 438,-92 438,-92 438,-86 444,-80 450,-80"/>
<text text-anchor="middle" x="518" y="-222.8" font-family="Times,serif" font-size="14.00">Data: BackendConfig</text>
</g>
<g id="clust7" class="cluster"><title>cluster_Data_BackendConfigBuilder</title>
<path fill="papayawhip" stroke="black" d="M20,-8C20,-8 196,-8 196,-8 202,-8 208,-14 208,-20 208,-20 208,-143 208,-143 208,-149 202,-155 196,-155 196,-155 20,-155 20,-155 14,-155 8,-149 8,-143 8,-143 8,-20 8,-20 8,-14 14,-8 20,-8"/>
<text text-anchor="middle" x="108" y="-139.8" font-family="Times,serif" font-size="14.00">Data: BackendConfigBuilder</text>
</g>
<g id="clust8" class="cluster"><title>cluster_Data_Command</title>
<path fill="papayawhip" stroke="black" d="M3166,-258.196C3166,-258.196 3586,-258.196 3586,-258.196 3592,-258.196 3598,-264.196 3598,-270.196 3598,-270.196 3598,-321.196 3598,-321.196 3598,-327.196 3592,-333.196 3586,-333.196 3586,-333.196 3166,-333.196 3166,-333.196 3160,-333.196 3154,-327.196 3154,-321.196 3154,-321.196 3154,-270.196 3154,-270.196 3154,-264.196 3160,-258.196 3166,-258.196"/>
<text text-anchor="middle" x="3376" y="-317.996" font-family="Times,serif" font-size="14.00">Data: Command</text>
</g>
<g id="clust9" class="cluster"><title>cluster_Data_CommandBuilder</title>
<path fill="papayawhip" stroke="black" d="M2492,-258.196C2492,-258.196 2948,-258.196 2948,-258.196 2954,-258.196 2960,-264.196 2960,-270.196 2960,-270.196 2960,-321.196 2960,-321.196 2960,-327.196 2954,-333.196 2948,-333.196 2948,-333.196 2492,-333.196 2492,-333.196 2486,-333.196 2480,-327.196 2480,-321.196 2480,-321.196 2480,-270.196 2480,-270.196 2480,-264.196 2486,-258.196 2492,-258.196"/>
<text text-anchor="middle" x="2720" y="-317.996" font-family="Times,serif" font-size="14.00">Data: CommandBuilder</text>
</g>
<g id="clust10" class="cluster"><title>cluster_Data_ConfigError</title>
<path fill="papayawhip" stroke="black" d="M618,-80C618,-80 1410,-80 1410,-80 1416,-80 1422,-86 1422,-92 1422,-92 1422,-143 1422,-143 1422,-149 1416,-155 1410,-155 1410,-155 618,-155 618,-155 612,-155 606,-149 606,-143 606,-143 606,-92 606,-92 606,-86 612,-80 618,-80"/>
<text text-anchor="middle" x="1014" y="-139.8" font-family="Times,serif" font-size="14.00">Data: ConfigError</text>
</g>
<g id="clust11" class="cluster"><title>cluster_Data_FrontendConfig</title>
<path fill="papayawhip" stroke="black" d="M1974,-80C1974,-80 2112,-80 2112,-80 2118,-80 2124,-86 2124,-92 2124,-92 2124,-226 2124,-226 2124,-232 2118,-238 2112,-238 2112,-238 1974,-238 1974,-238 1968,-238 1962,-232 1962,-226 1962,-226 1962,-92 1962,-92 1962,-86 1968,-80 1974,-80"/>
<text text-anchor="middle" x="2043" y="-222.8" font-family="Times,serif" font-size="14.00">Data: FrontendConfig</text>
</g>
<g id="clust12" class="cluster"><title>cluster_Data_FrontendConfigBuilder</title>
<path fill="papayawhip" stroke="black" d="M1704,-8C1704,-8 1880,-8 1880,-8 1886,-8 1892,-14 1892,-20 1892,-20 1892,-143 1892,-143 1892,-149 1886,-155 1880,-155 1880,-155 1704,-155 1704,-155 1698,-155 1692,-149 1692,-143 1692,-143 1692,-20 1692,-20 1692,-14 1698,-8 1704,-8"/>
<text text-anchor="middle" x="1792" y="-139.8" font-family="Times,serif" font-size="14.00">Data: FrontendConfigBuilder</text>
</g>
<g id="clust13" class="cluster"><title>cluster_Data_ProxyConfig</title>
<path fill="papayawhip" stroke="black" d="M4377,-80C4377,-80 4501,-80 4501,-80 4507,-80 4513,-86 4513,-92 4513,-92 4513,-226 4513,-226 4513,-232 4507,-238 4501,-238 4501,-238 4377,-238 4377,-238 4371,-238 4365,-232 4365,-226 4365,-226 4365,-92 4365,-92 4365,-86 4371,-80 4377,-80"/>
<text text-anchor="middle" x="4439" y="-222.8" font-family="Times,serif" font-size="14.00">Data: ProxyConfig</text>
</g>
<g id="clust14" class="cluster"><title>cluster_Data_ProxyConfigBuilder</title>
<path fill="papayawhip" stroke="black" d="M3584,-8C3584,-8 3744,-8 3744,-8 3750,-8 3756,-14 3756,-20 3756,-20 3756,-143 3756,-143 3756,-149 3750,-155 3744,-155 3744,-155 3584,-155 3584,-155 3578,-155 3572,-149 3572,-143 3572,-143 3572,-20 3572,-20 3572,-14 3578,-8 3584,-8"/>
<text text-anchor="middle" x="3664" y="-139.8" font-family="Times,serif" font-size="14.00">Data: ProxyConfigBuilder</text>
</g>
<g id="clust15" class="cluster"><title>cluster_Data_ThentosConfig</title>
<path fill="papayawhip" stroke="black" d="M4533,-163C4533,-163 5259,-163 5259,-163 5265,-163 5271,-169 5271,-175 5271,-175 5271,-321.196 5271,-321.196 5271,-327.196 5265,-333.196 5259,-333.196 5259,-333.196 4533,-333.196 4533,-333.196 4527,-333.196 4521,-327.196 4521,-321.196 4521,-321.196 4521,-175 4521,-175 4521,-169 4527,-163 4533,-163"/>
<text text-anchor="middle" x="4896" y="-317.996" font-family="Times,serif" font-size="14.00">Data: ThentosConfig</text>
</g>
<g id="clust16" class="cluster"><title>cluster_Data_ThentosConfigBuilder</title>
<path fill="papayawhip" stroke="black" d="M2212,-80C2212,-80 3290,-80 3290,-80 3296,-80 3302,-86 3302,-92 3302,-92 3302,-226 3302,-226 3302,-232 3296,-238 3290,-238 3290,-238 2212,-238 2212,-238 2206,-238 2200,-232 2200,-226 2200,-226 2200,-92 2200,-92 2200,-86 2206,-80 2212,-80"/>
<text text-anchor="middle" x="2751" y="-222.8" font-family="Times,serif" font-size="14.00">Data: ThentosConfigBuilder</text>
</g>
<!-- 45 -->
<g id="node1" class="node"><title>45</title>
<polygon fill="bisque" stroke="black" stroke-width="2" points="1106.35,-274.92 1106.35,-293.471 1057.52,-306.589 988.475,-306.589 939.65,-293.471 939.65,-274.92 988.475,-261.803 1057.52,-261.803 1106.35,-274.92"/>
<text text-anchor="middle" x="1023" y="-280.496" font-family="Times,serif" font-size="14.00">mappend</text>
</g>
<!-- 6 -->
<g id="node13" class="node"><title>6</title>
<polygon fill="cyan" stroke="black" stroke-width="2" points="200,-52 20,-52 16,-48 16,-16 196,-16 200,-20 200,-52"/>
<polyline fill="none" stroke="black" stroke-width="2" points="196,-48 16,-48 "/>
<polyline fill="none" stroke="black" stroke-width="2" points="196,-48 196,-16 "/>
<polyline fill="none" stroke="black" stroke-width="2" points="196,-48 200,-52 "/>
<text text-anchor="middle" x="108" y="-30.3" font-family="Times,serif" font-size="14.00">BackendConfigBuilder</text>
</g>
<!-- 45&#45;&gt;6 -->
<g id="edge50" class="edge"><title>45&#45;&gt;6</title>
<path fill="none" stroke="black" d="M939.602,-281.194C736.804,-275.98 232.335,-260.781 204,-238 147.19,-192.326 198.999,-141.584 160,-80 154.981,-72.0742 148.144,-64.7743 141.078,-58.4628"/>
<polygon fill="black" stroke="black" points="143.306,-55.7639 133.395,-52.0192 138.808,-61.1272 143.306,-55.7639"/>
</g>
<!-- 22 -->
<g id="node14" class="node"><title>22</title>
<polygon fill="bisque" stroke="black" stroke-width="2" points="151.5,-124 16.5,-124 16.5,-120 12.5,-120 12.5,-116 16.5,-116 16.5,-96 12.5,-96 12.5,-92 16.5,-92 16.5,-88 151.5,-88 151.5,-124"/>
<polyline fill="none" stroke="black" stroke-width="2" points="16.5,-120 20.5,-120 20.5,-116 16.5,-116 "/>
<polyline fill="none" stroke="black" stroke-width="2" points="16.5,-96 20.5,-96 20.5,-92 16.5,-92 "/>
<text text-anchor="middle" x="84" y="-102.3" font-family="Times,serif" font-size="14.00">bBackendPort</text>
</g>
<!-- 45&#45;&gt;22 -->
<g id="edge51" class="edge"><title>45&#45;&gt;22</title>
<path fill="none" stroke="black" stroke-width="2.09861" d="M939.391,-283.131C736.805,-282.361 231.48,-276.551 166,-238 126.946,-215.007 103.73,-165.328 92.4543,-134.187"/>
<polygon fill="black" stroke="black" stroke-width="2.09861" points="95.6495,-132.715 89.0823,-124.401 89.0314,-134.996 95.6495,-132.715"/>
</g>
<!-- 49 -->
<g id="node2" class="node"><title>49</title>
<polygon fill="bisque" stroke="black" stroke-width="2" points="1283.7,-274.92 1283.7,-293.471 1237.01,-306.589 1170.99,-306.589 1124.3,-293.471 1124.3,-274.92 1170.99,-261.803 1237.01,-261.803 1283.7,-274.92"/>
<text text-anchor="middle" x="1204" y="-280.496" font-family="Times,serif" font-size="14.00">mempty</text>
</g>
<!-- 49&#45;&gt;6 -->
<g id="edge64" class="edge"><title>49&#45;&gt;6</title>
<path fill="none" stroke="black" d="M1165.17,-263.133C1149.95,-256.298 1132.06,-249.503 1115,-246 1091.11,-241.095 256.775,-252.276 237,-238 176.831,-194.562 229.654,-137.711 183,-80 175.764,-71.0494 166.238,-63.4541 156.413,-57.1962"/>
<polygon fill="black" stroke="black" points="158.134,-54.1479 147.751,-52.0407 154.554,-60.163 158.134,-54.1479"/>
</g>
<!-- 46 -->
<g id="node3" class="node"><title>46</title>
<polygon fill="bisque" stroke="black" stroke-width="2" points="1474.35,-274.92 1474.35,-293.471 1425.52,-306.589 1356.48,-306.589 1307.65,-293.471 1307.65,-274.92 1356.48,-261.803 1425.52,-261.803 1474.35,-274.92"/>
<text text-anchor="middle" x="1391" y="-280.496" font-family="Times,serif" font-size="14.00">mappend</text>
</g>
<!-- 10 -->
<g id="node29" class="node"><title>10</title>
<polygon fill="cyan" stroke="black" stroke-width="2" points="1884.5,-52 1703.5,-52 1699.5,-48 1699.5,-16 1880.5,-16 1884.5,-20 1884.5,-52"/>
<polyline fill="none" stroke="black" stroke-width="2" points="1880.5,-48 1699.5,-48 "/>
<polyline fill="none" stroke="black" stroke-width="2" points="1880.5,-48 1880.5,-16 "/>
<polyline fill="none" stroke="black" stroke-width="2" points="1880.5,-48 1884.5,-52 "/>
<text text-anchor="middle" x="1792" y="-30.3" font-family="Times,serif" font-size="14.00">FrontendConfigBuilder</text>
</g>
<!-- 46&#45;&gt;10 -->
<g id="edge52" class="edge"><title>46&#45;&gt;10</title>
<path fill="none" stroke="black" d="M1417.59,-261.999C1457.88,-230.383 1533.07,-173.455 1565,-163 1579.84,-158.139 1835.12,-166.199 1846,-155 1869.23,-131.097 1860.14,-110.186 1846,-80 1842.21,-71.898 1836.16,-64.7459 1829.45,-58.6641"/>
<polygon fill="black" stroke="black" points="1831.33,-55.6741 1821.38,-52.0235 1826.88,-61.0797 1831.33,-55.6741"/>
</g>
<!-- 26 -->
<g id="node30" class="node"><title>26</title>
<polygon fill="bisque" stroke="black" stroke-width="2" points="1837.5,-124 1700.5,-124 1700.5,-120 1696.5,-120 1696.5,-116 1700.5,-116 1700.5,-96 1696.5,-96 1696.5,-92 1700.5,-92 1700.5,-88 1837.5,-88 1837.5,-124"/>
<polyline fill="none" stroke="black" stroke-width="2" points="1700.5,-120 1704.5,-120 1704.5,-116 1700.5,-116 "/>
<polyline fill="none" stroke="black" stroke-width="2" points="1700.5,-96 1704.5,-96 1704.5,-92 1700.5,-92 "/>
<text text-anchor="middle" x="1769" y="-102.3" font-family="Times,serif" font-size="14.00">bFrontendPort</text>
</g>
<!-- 46&#45;&gt;26 -->
<g id="edge53" class="edge"><title>46&#45;&gt;26</title>
<path fill="none" stroke="black" stroke-width="2.09861" d="M1394.44,-261.837C1400.23,-233.717 1414.83,-185.25 1449,-163 1471.55,-148.321 1665.24,-162.754 1691,-155 1708.4,-149.763 1725.81,-139.636 1739.75,-130.029"/>
<polygon fill="black" stroke="black" stroke-width="2.09861" points="1741.86,-132.827 1747.95,-124.162 1737.78,-127.133 1741.86,-132.827"/>
</g>
<!-- 50 -->
<g id="node4" class="node"><title>50</title>
<polygon fill="bisque" stroke="black" stroke-width="2" points="1651.7,-274.92 1651.7,-293.471 1605.01,-306.589 1538.99,-306.589 1492.3,-293.471 1492.3,-274.92 1538.99,-261.803 1605.01,-261.803 1651.7,-274.92"/>
<text text-anchor="middle" x="1572" y="-280.496" font-family="Times,serif" font-size="14.00">mempty</text>
</g>
<!-- 50&#45;&gt;10 -->
<g id="edge65" class="edge"><title>50&#45;&gt;10</title>
<path fill="none" stroke="black" d="M1569.14,-261.924C1566.78,-234.365 1567.54,-187.016 1596,-163 1620.13,-142.641 1857.99,-177.634 1880,-155 1903.24,-131.1 1897.4,-108.434 1880,-80 1874.31,-70.6984 1866.02,-63.2419 1856.78,-57.2876"/>
<polygon fill="black" stroke="black" points="1858.47,-54.2237 1848.06,-52.2318 1854.96,-60.2782 1858.47,-54.2237"/>
</g>
<!-- 47 -->
<g id="node5" class="node"><title>47</title>
<polygon fill="bisque" stroke="black" stroke-width="2" points="1842.35,-274.92 1842.35,-293.471 1793.52,-306.589 1724.48,-306.589 1675.65,-293.471 1675.65,-274.92 1724.48,-261.803 1793.52,-261.803 1842.35,-274.92"/>
<text text-anchor="middle" x="1759" y="-280.496" font-family="Times,serif" font-size="14.00">mappend</text>
</g>
<!-- 14 -->
<g id="node33" class="node"><title>14</title>
<polygon fill="cyan" stroke="black" stroke-width="2" points="3748.5,-52 3583.5,-52 3579.5,-48 3579.5,-16 3744.5,-16 3748.5,-20 3748.5,-52"/>
<polyline fill="none" stroke="black" stroke-width="2" points="3744.5,-48 3579.5,-48 "/>
<polyline fill="none" stroke="black" stroke-width="2" points="3744.5,-48 3744.5,-16 "/>
<polyline fill="none" stroke="black" stroke-width="2" points="3744.5,-48 3748.5,-52 "/>
<text text-anchor="middle" x="3664" y="-30.3" font-family="Times,serif" font-size="14.00">ProxyConfigBuilder</text>
</g>
<!-- 47&#45;&gt;14 -->
<g id="edge54" class="edge"><title>47&#45;&gt;14</title>
<path fill="none" stroke="black" d="M1799.19,-263.093C1814.94,-256.254 1833.42,-249.465 1851,-246 1937.67,-228.917 3353.61,-250.861 3441,-238 3569.84,-219.04 3644.04,-259.312 3722,-155 3741.95,-128.299 3736.66,-109.935 3722,-80 3717.88,-71.5947 3711.35,-64.3087 3704.14,-58.1914"/>
<polygon fill="black" stroke="black" points="3706.18,-55.3437 3696.12,-52.0146 3701.91,-60.8895 3706.18,-55.3437"/>
</g>
<!-- 28 -->
<g id="node34" class="node"><title>28</title>
<polygon fill="bisque" stroke="black" stroke-width="2" points="3713.5,-124 3580.5,-124 3580.5,-120 3576.5,-120 3576.5,-116 3580.5,-116 3580.5,-96 3576.5,-96 3576.5,-92 3580.5,-92 3580.5,-88 3713.5,-88 3713.5,-124"/>
<polyline fill="none" stroke="black" stroke-width="2" points="3580.5,-120 3584.5,-120 3584.5,-116 3580.5,-116 "/>
<polyline fill="none" stroke="black" stroke-width="2" points="3580.5,-96 3584.5,-96 3584.5,-92 3580.5,-92 "/>
<text text-anchor="middle" x="3647" y="-102.3" font-family="Times,serif" font-size="14.00">bProxyTarget</text>
</g>
<!-- 47&#45;&gt;28 -->
<g id="edge55" class="edge"><title>47&#45;&gt;28</title>
<path fill="none" stroke="black" stroke-width="2.09861" d="M1799.19,-263.098C1814.94,-256.258 1833.42,-249.469 1851,-246 1930.3,-230.349 3226.16,-250.659 3306,-238 3425.8,-219.004 3455.34,-204.681 3566,-155 3581.9,-147.861 3598.61,-138.34 3612.7,-129.661"/>
<polygon fill="black" stroke="black" stroke-width="2.09861" points="3614.93,-132.393 3621.54,-124.112 3611.21,-126.463 3614.93,-132.393"/>
</g>
<!-- 51 -->
<g id="node6" class="node"><title>51</title>
<polygon fill="bisque" stroke="black" stroke-width="2" points="2019.7,-274.92 2019.7,-293.471 1973.01,-306.589 1906.99,-306.589 1860.3,-293.471 1860.3,-274.92 1906.99,-261.803 1973.01,-261.803 2019.7,-274.92"/>
<text text-anchor="middle" x="1940" y="-280.496" font-family="Times,serif" font-size="14.00">mempty</text>
</g>
<!-- 51&#45;&gt;14 -->
<g id="edge66" class="edge"><title>51&#45;&gt;14</title>
<path fill="none" stroke="black" d="M1979.29,-263.484C1995.23,-256.512 2014.08,-249.528 2032,-246 2043.75,-243.687 3747.55,-246.485 3756,-238 3805.54,-188.23 3793.18,-139.573 3756,-80 3750.16,-70.6455 3741.75,-63.1825 3732.36,-57.2434"/>
<polygon fill="black" stroke="black" points="3733.93,-54.1086 3723.51,-52.2071 3730.47,-60.1934 3733.93,-54.1086"/>
</g>
<!-- 48 -->
<g id="node7" class="node"><title>48</title>
<polygon fill="bisque" stroke="black" stroke-width="2" points="2388.35,-274.92 2388.35,-293.471 2339.52,-306.589 2270.48,-306.589 2221.65,-293.471 2221.65,-274.92 2270.48,-261.803 2339.52,-261.803 2388.35,-274.92"/>
<text text-anchor="middle" x="2305" y="-280.496" font-family="Times,serif" font-size="14.00">mappend</text>
</g>
<!-- 19 -->
<g id="node41" class="node"><title>19</title>
<polygon fill="cyan" stroke="black" stroke-width="2" points="2689,-124 2513,-124 2509,-120 2509,-88 2685,-88 2689,-92 2689,-124"/>
<polyline fill="none" stroke="black" stroke-width="2" points="2685,-120 2509,-120 "/>
<polyline fill="none" stroke="black" stroke-width="2" points="2685,-120 2685,-88 "/>
<polyline fill="none" stroke="black" stroke-width="2" points="2685,-120 2689,-124 "/>
<text text-anchor="middle" x="2599" y="-102.3" font-family="Times,serif" font-size="14.00">ThentosConfigBuilder</text>
</g>
<!-- 48&#45;&gt;19 -->
<g id="edge56" class="edge"><title>48&#45;&gt;19</title>
<path fill="none" stroke="black" d="M2258.8,-264.83C2231.11,-253.601 2200.89,-240.858 2199,-238 2180.62,-210.189 2177.12,-188.151 2199,-163 2237.06,-119.24 2392.94,-108.651 2498.49,-106.636"/>
<polygon fill="black" stroke="black" points="2498.6,-110.134 2508.54,-106.467 2498.48,-103.135 2498.6,-110.134"/>
</g>
<!-- 21 -->
<g id="node42" class="node"><title>21</title>
<polygon fill="bisque" stroke="black" stroke-width="2" points="2358,-207 2208,-207 2208,-203 2204,-203 2204,-199 2208,-199 2208,-179 2204,-179 2204,-175 2208,-175 2208,-171 2358,-171 2358,-207"/>
<polyline fill="none" stroke="black" stroke-width="2" points="2208,-203 2212,-203 2212,-199 2208,-199 "/>
<polyline fill="none" stroke="black" stroke-width="2" points="2208,-179 2212,-179 2212,-175 2208,-175 "/>
<text text-anchor="middle" x="2283" y="-185.3" font-family="Times,serif" font-size="14.00">bBackendConfig</text>
</g>
<!-- 48&#45;&gt;21 -->
<g id="edge57" class="edge"><title>48&#45;&gt;21</title>
<path fill="none" stroke="black" stroke-width="1.69315" d="M2299.9,-261.58C2296.78,-248.383 2292.77,-231.39 2289.44,-217.272"/>
<polygon fill="black" stroke="black" stroke-width="1.69315" points="2292.75,-216.076 2287.05,-207.148 2285.94,-217.684 2292.75,-216.076"/>
</g>
<!-- 23 -->
<g id="node43" class="node"><title>23</title>
<polygon fill="bisque" stroke="black" stroke-width="2" points="3293.5,-207 3162.5,-207 3162.5,-203 3158.5,-203 3158.5,-199 3162.5,-199 3162.5,-179 3158.5,-179 3158.5,-175 3162.5,-175 3162.5,-171 3293.5,-171 3293.5,-207"/>
<polyline fill="none" stroke="black" stroke-width="2" points="3162.5,-203 3166.5,-203 3166.5,-199 3162.5,-199 "/>
<polyline fill="none" stroke="black" stroke-width="2" points="3162.5,-179 3166.5,-179 3166.5,-175 3162.5,-175 "/>
<text text-anchor="middle" x="3228" y="-185.3" font-family="Times,serif" font-size="14.00">bDefaultUser</text>
</g>
<!-- 48&#45;&gt;23 -->
<g id="edge58" class="edge"><title>48&#45;&gt;23</title>
<path fill="none" stroke="black" stroke-width="1.69315" d="M2348.21,-263.933C2366.3,-256.839 2387.79,-249.649 2408,-246 2448.73,-238.645 3113.34,-249.837 3153,-238 3169.89,-232.959 3186.61,-222.886 3199.97,-213.264"/>
<polygon fill="black" stroke="black" stroke-width="1.69315" points="3202.33,-215.867 3208.22,-207.063 3198.13,-210.269 3202.33,-215.867"/>
</g>
<!-- 24 -->
<g id="node44" class="node"><title>24</title>
<polygon fill="bisque" stroke="black" stroke-width="2" points="3144,-207 3008,-207 3008,-203 3004,-203 3004,-199 3008,-199 3008,-179 3004,-179 3004,-175 3008,-175 3008,-171 3144,-171 3144,-207"/>
<polyline fill="none" stroke="black" stroke-width="2" points="3008,-203 3012,-203 3012,-199 3008,-199 "/>
<polyline fill="none" stroke="black" stroke-width="2" points="3008,-179 3012,-179 3012,-175 3008,-175 "/>
<text text-anchor="middle" x="3076" y="-185.3" font-family="Times,serif" font-size="14.00">bEmailSender</text>
</g>
<!-- 48&#45;&gt;24 -->
<g id="edge59" class="edge"><title>48&#45;&gt;24</title>
<path fill="none" stroke="black" stroke-width="1.69315" d="M2348.22,-263.961C2366.31,-256.871 2387.8,-249.677 2408,-246 2472.61,-234.24 2935.99,-256.495 2999,-238 3016.4,-232.893 3033.72,-222.674 3047.51,-212.973"/>
<polygon fill="black" stroke="black" stroke-width="1.69315" points="3049.61,-215.777 3055.62,-207.05 3045.48,-210.126 3049.61,-215.777"/>
</g>
<!-- 25 -->
<g id="node45" class="node"><title>25</title>
<polygon fill="bisque" stroke="black" stroke-width="2" points="2990,-207 2838,-207 2838,-203 2834,-203 2834,-199 2838,-199 2838,-179 2834,-179 2834,-175 2838,-175 2838,-171 2990,-171 2990,-207"/>
<polyline fill="none" stroke="black" stroke-width="2" points="2838,-203 2842,-203 2842,-199 2838,-199 "/>
<polyline fill="none" stroke="black" stroke-width="2" points="2838,-179 2842,-179 2842,-175 2838,-175 "/>
<text text-anchor="middle" x="2914" y="-185.3" font-family="Times,serif" font-size="14.00">bFrontendConfig</text>
</g>
<!-- 48&#45;&gt;25 -->
<g id="edge60" class="edge"><title>48&#45;&gt;25</title>
<path fill="none" stroke="black" stroke-width="1.69315" d="M2348.23,-264.017C2366.32,-256.936 2387.81,-249.733 2408,-246 2453.9,-237.515 2782.94,-250.182 2828,-238 2847.18,-232.814 2866.67,-222.448 2882.23,-212.671"/>
<polygon fill="black" stroke="black" stroke-width="1.69315" points="2884.43,-215.413 2890.91,-207.027 2880.62,-209.545 2884.43,-215.413"/>
</g>
<!-- 27 -->
<g id="node46" class="node"><title>27</title>
<polygon fill="bisque" stroke="black" stroke-width="2" points="2819.5,-207 2684.5,-207 2684.5,-203 2680.5,-203 2680.5,-199 2684.5,-199 2684.5,-179 2680.5,-179 2680.5,-175 2684.5,-175 2684.5,-171 2819.5,-171 2819.5,-207"/>
<polyline fill="none" stroke="black" stroke-width="2" points="2684.5,-203 2688.5,-203 2688.5,-199 2684.5,-199 "/>
<polyline fill="none" stroke="black" stroke-width="2" points="2684.5,-179 2688.5,-179 2688.5,-175 2684.5,-175 "/>
<text text-anchor="middle" x="2752" y="-185.3" font-family="Times,serif" font-size="14.00">bProxyConfig</text>
</g>
<!-- 48&#45;&gt;27 -->
<g id="edge61" class="edge"><title>48&#45;&gt;27</title>
<path fill="none" stroke="black" stroke-width="1.69315" d="M2348.25,-264.127C2366.35,-257.063 2387.83,-249.843 2408,-246 2466.31,-234.891 2618.18,-255.184 2675,-238 2692.07,-232.838 2709.1,-222.855 2722.79,-213.324"/>
<polygon fill="black" stroke="black" stroke-width="1.69315" points="2725.22,-215.883 2731.27,-207.182 2721.11,-210.214 2725.22,-215.883"/>
</g>
<!-- 29 -->
<g id="node47" class="node"><title>29</title>
<polygon fill="bisque" stroke="black" stroke-width="2" points="2666.5,-207 2531.5,-207 2531.5,-203 2527.5,-203 2527.5,-199 2531.5,-199 2531.5,-179 2527.5,-179 2527.5,-175 2531.5,-175 2531.5,-171 2666.5,-171 2666.5,-207"/>
<polyline fill="none" stroke="black" stroke-width="2" points="2531.5,-203 2535.5,-203 2535.5,-199 2531.5,-199 "/>
<polyline fill="none" stroke="black" stroke-width="2" points="2531.5,-179 2535.5,-179 2535.5,-175 2531.5,-175 "/>
<text text-anchor="middle" x="2599" y="-185.3" font-family="Times,serif" font-size="14.00">bRunBackend</text>
</g>
<!-- 48&#45;&gt;29 -->
<g id="edge62" class="edge"><title>48&#45;&gt;29</title>
<path fill="none" stroke="black" stroke-width="1.69315" d="M2349.09,-264.24C2367.04,-257.328 2388.19,-250.187 2408,-246 2457.69,-235.496 2473.69,-253.675 2522,-238 2538.84,-232.536 2555.73,-222.619 2569.39,-213.212"/>
<polygon fill="black" stroke="black" stroke-width="1.69315" points="2571.76,-215.818 2577.86,-207.155 2567.69,-210.123 2571.76,-215.818"/>
</g>
<!-- 30 -->
<g id="node48" class="node"><title>30</title>
<polygon fill="bisque" stroke="black" stroke-width="2" points="2513.5,-207 2376.5,-207 2376.5,-203 2372.5,-203 2372.5,-199 2376.5,-199 2376.5,-179 2372.5,-179 2372.5,-175 2376.5,-175 2376.5,-171 2513.5,-171 2513.5,-207"/>
<polyline fill="none" stroke="black" stroke-width="2" points="2376.5,-203 2380.5,-203 2380.5,-199 2376.5,-199 "/>
<polyline fill="none" stroke="black" stroke-width="2" points="2376.5,-179 2380.5,-179 2380.5,-175 2376.5,-175 "/>
<text text-anchor="middle" x="2445" y="-185.3" font-family="Times,serif" font-size="14.00">bRunFrontend</text>
</g>
<!-- 48&#45;&gt;30 -->
<g id="edge63" class="edge"><title>48&#45;&gt;30</title>
<path fill="none" stroke="black" stroke-width="1.69315" d="M2337.12,-261.815C2359.07,-247.203 2388.13,-227.856 2410.56,-212.926"/>
<polygon fill="black" stroke="black" stroke-width="1.69315" points="2412.73,-215.689 2419.11,-207.234 2408.85,-209.862 2412.73,-215.689"/>
</g>
<!-- 52 -->
<g id="node8" class="node"><title>52</title>
<polygon fill="bisque" stroke="black" stroke-width="2" points="2203.7,-274.92 2203.7,-293.471 2157.01,-306.589 2090.99,-306.589 2044.3,-293.471 2044.3,-274.92 2090.99,-261.803 2157.01,-261.803 2203.7,-274.92"/>
<text text-anchor="middle" x="2124" y="-280.496" font-family="Times,serif" font-size="14.00">mempty</text>
</g>
<!-- 66 -->
<g id="node10" class="node"><title>66</title>
<polygon fill="khaki" stroke="black" stroke-dasharray="1,5" points="2060.86,-369.053 2060.86,-397.082 1990.06,-416.902 1889.94,-416.902 1819.14,-397.082 1819.14,-369.053 1889.94,-349.233 1990.06,-349.233 2060.86,-369.053"/>
<polygon fill="none" stroke="black" stroke-dasharray="1,5" points="2064.86,-366 2064.86,-400.135 1990.61,-420.921 1889.39,-420.921 1815.14,-400.135 1815.14,-366 1889.39,-345.214 1990.61,-345.214 2064.86,-366"/>
<text text-anchor="middle" x="1940" y="-386.867" font-family="Times,serif" font-size="14.00">Unknown Module</text>
<text text-anchor="middle" x="1940" y="-371.867" font-family="Times,serif" font-size="14.00">mempty</text>
</g>
<!-- 52&#45;&gt;66 -->
<g id="edge68" class="edge"><title>52&#45;&gt;66</title>
<path fill="none" stroke="black" stroke-width="2.09861" d="M2083.04,-304.557C2064.65,-314.622 2042.83,-326.965 2023,-337.391 2019.09,-339.445 2015.08,-341.522 2011.02,-343.597"/>
<polygon fill="black" stroke="black" stroke-width="2.09861" points="2009.43,-340.481 2002.09,-348.129 2012.59,-346.723 2009.43,-340.481"/>
</g>
<!-- 52&#45;&gt;19 -->
<g id="edge67" class="edge"><title>52&#45;&gt;19</title>
<path fill="none" stroke="black" d="M2127.52,-261.877C2133.29,-234.266 2147.54,-186.859 2180,-163 2229.12,-126.894 2390.96,-114.067 2498.52,-109.51"/>
<polygon fill="black" stroke="black" points="2498.91,-112.997 2508.76,-109.094 2498.62,-106.003 2498.91,-112.997"/>
</g>
<!-- 65 -->
<g id="node9" class="node"><title>65</title>
<polygon fill="khaki" stroke="black" stroke-dasharray="1,5" points="1651.86,-369.053 1651.86,-397.082 1581.06,-416.902 1480.94,-416.902 1410.14,-397.082 1410.14,-369.053 1480.94,-349.233 1581.06,-349.233 1651.86,-369.053"/>
<polygon fill="none" stroke="black" stroke-dasharray="1,5" points="1655.86,-366 1655.86,-400.135 1581.61,-420.921 1480.39,-420.921 1406.14,-400.135 1406.14,-366 1480.39,-345.214 1581.61,-345.214 1655.86,-366"/>
<text text-anchor="middle" x="1531" y="-386.867" font-family="Times,serif" font-size="14.00">Unknown Module</text>
<text text-anchor="middle" x="1531" y="-371.867" font-family="Times,serif" font-size="14.00">mappend</text>
</g>
<!-- 65&#45;&gt;45 -->
<g id="edge94" class="edge"><title>65&#45;&gt;45</title>
<path fill="none" stroke="navy" d="M1406.07,-374.261C1303.68,-366.827 1167.42,-354.27 1115,-337.391 1092.98,-330.299 1070.34,-317.544 1053.04,-306.418"/>
</g>
<!-- 65&#45;&gt;46 -->
<g id="edge95" class="edge"><title>65&#45;&gt;46</title>
<path fill="none" stroke="navy" d="M1478.47,-345.72C1459.38,-332.513 1438.45,-318.025 1421.84,-306.536"/>
</g>
<!-- 65&#45;&gt;47 -->
<g id="edge96" class="edge"><title>65&#45;&gt;47</title>
<path fill="none" stroke="navy" d="M1618.06,-355.312C1633.55,-349.851 1649.39,-343.798 1664,-337.391 1684.34,-328.474 1706.11,-316.688 1723.67,-306.572"/>
</g>
<!-- 65&#45;&gt;48 -->
<g id="edge97" class="edge"><title>65&#45;&gt;48</title>
<path fill="none" stroke="navy" d="M1647.44,-363.577C1696.29,-356.592 1753.77,-349.375 1806,-345.391 1851.1,-341.952 2169.38,-349.362 2213,-337.391 2235.67,-331.17 2258.67,-318.121 2276,-306.628"/>
</g>
<!-- 66&#45;&gt;49 -->
<g id="edge98" class="edge"><title>66&#45;&gt;49</title>
<path fill="none" stroke="navy" d="M1823.55,-363.63C1774.7,-356.653 1717.22,-349.427 1665,-345.391 1624.11,-342.231 1335.54,-348.285 1296,-337.391 1273.34,-331.147 1250.34,-318.098 1233,-306.61"/>
</g>
<!-- 66&#45;&gt;50 -->
<g id="edge99" class="edge"><title>66&#45;&gt;50</title>
<path fill="none" stroke="navy" d="M1815.04,-371.38C1766.89,-364.81 1711.96,-354.265 1664,-337.391 1642.52,-329.835 1620.26,-317.352 1603.02,-306.489"/>
</g>
<!-- 66&#45;&gt;51 -->
<g id="edge100" class="edge"><title>66&#45;&gt;51</title>
<path fill="none" stroke="navy" d="M1940,-345.168C1940,-332.122 1940,-317.89 1940,-306.565"/>
</g>
<!-- 66&#45;&gt;52 -->
<g id="edge101" class="edge"><title>66&#45;&gt;52</title>
<path fill="none" stroke="navy" d="M2013.26,-351.465C2022.68,-346.844 2032.12,-342.06 2041,-337.391 2059.53,-327.649 2079.8,-316.233 2095.79,-306.565"/>
</g>
<!-- 5 -->
<g id="node11" class="node"><title>5</title>
<polygon fill="goldenrod" stroke="black" stroke-width="2" points="589.5,-124 450.5,-124 446.5,-120 446.5,-88 585.5,-88 589.5,-92 589.5,-124"/>
<polyline fill="none" stroke="black" stroke-width="2" points="585.5,-120 446.5,-120 "/>
<polyline fill="none" stroke="black" stroke-width="2" points="585.5,-120 585.5,-88 "/>
<polyline fill="none" stroke="black" stroke-width="2" points="585.5,-120 589.5,-124 "/>
<text text-anchor="middle" x="518" y="-102.3" font-family="Times,serif" font-size="14.00">BackendConfig</text>
</g>
<!-- 32 -->
<g id="node12" class="node"><title>32</title>
<polygon fill="gold" stroke="black" stroke-width="2" points="581,-207 455,-207 455,-203 451,-203 451,-199 455,-199 455,-179 451,-179 451,-175 455,-175 455,-171 581,-171 581,-207"/>
<polyline fill="none" stroke="black" stroke-width="2" points="455,-203 459,-203 459,-199 455,-199 "/>
<polyline fill="none" stroke="black" stroke-width="2" points="455,-179 459,-179 459,-175 455,-175 "/>
<text text-anchor="middle" x="518" y="-185.3" font-family="Times,serif" font-size="14.00">backendPort</text>
</g>
<!-- 32&#45;&gt;5 -->
<g id="edge12" class="edge"><title>32&#45;&gt;5</title>
<path fill="none" stroke="magenta" d="M518,-170.822C518,-160.19 518,-146.306 518,-134.204"/>
<polygon fill="magenta" stroke="magenta" points="518,-124.153 522.5,-134.153 518,-129.153 518,-134.153 518,-134.153 518,-134.153 518,-129.153 513.5,-134.153 518,-124.153 518,-124.153"/>
</g>
<!-- 22&#45;&gt;6 -->
<g id="edge2" class="edge"><title>22&#45;&gt;6</title>
<path fill="none" stroke="magenta" d="M89.9326,-87.6966C92.6064,-79.8979 95.8256,-70.5085 98.8014,-61.8292"/>
<polygon fill="magenta" stroke="magenta" points="102.136,-52.1043 103.149,-63.0233 100.514,-56.8341 98.8923,-61.5638 98.8923,-61.5638 98.8923,-61.5638 100.514,-56.8341 94.6356,-60.1043 102.136,-52.1043 102.136,-52.1043"/>
</g>
<!-- 8 -->
<g id="node15" class="node"><title>8</title>
<polygon fill="goldenrod" stroke="black" stroke-width="2" points="3590,-302.196 3508,-302.196 3504,-298.196 3504,-266.196 3586,-266.196 3590,-270.196 3590,-302.196"/>
<polyline fill="none" stroke="black" stroke-width="2" points="3586,-298.196 3504,-298.196 "/>
<polyline fill="none" stroke="black" stroke-width="2" points="3586,-298.196 3586,-266.196 "/>
<polyline fill="none" stroke="black" stroke-width="2" points="3586,-298.196 3590,-302.196 "/>
<text text-anchor="middle" x="3547" y="-280.496" font-family="Times,serif" font-size="14.00">Docs</text>
</g>
<!-- 15 -->
<g id="node16" class="node"><title>15</title>
<polygon fill="goldenrod" stroke="black" stroke-width="2" points="3485.5,-302.196 3408.5,-302.196 3404.5,-298.196 3404.5,-266.196 3481.5,-266.196 3485.5,-270.196 3485.5,-302.196"/>
<polyline fill="none" stroke="black" stroke-width="2" points="3481.5,-298.196 3404.5,-298.196 "/>
<polyline fill="none" stroke="black" stroke-width="2" points="3481.5,-298.196 3481.5,-266.196 "/>
<polyline fill="none" stroke="black" stroke-width="2" points="3481.5,-298.196 3485.5,-302.196 "/>
<text text-anchor="middle" x="3445" y="-280.496" font-family="Times,serif" font-size="14.00">Run</text>
</g>
<!-- 16 -->
<g id="node17" class="node"><title>16</title>
<polygon fill="goldenrod" stroke="black" stroke-width="2" points="3386,-302.196 3292,-302.196 3288,-298.196 3288,-266.196 3382,-266.196 3386,-270.196 3386,-302.196"/>
<polyline fill="none" stroke="black" stroke-width="2" points="3382,-298.196 3288,-298.196 "/>
<polyline fill="none" stroke="black" stroke-width="2" points="3382,-298.196 3382,-266.196 "/>
<polyline fill="none" stroke="black" stroke-width="2" points="3382,-298.196 3386,-302.196 "/>
<text text-anchor="middle" x="3337" y="-280.496" font-family="Times,serif" font-size="14.00">RunA3</text>
</g>
<!-- 17 -->
<g id="node18" class="node"><title>17</title>
<polygon fill="goldenrod" stroke="black" stroke-width="2" points="3270,-302.196 3166,-302.196 3162,-298.196 3162,-266.196 3266,-266.196 3270,-270.196 3270,-302.196"/>
<polyline fill="none" stroke="black" stroke-width="2" points="3266,-298.196 3162,-298.196 "/>
<polyline fill="none" stroke="black" stroke-width="2" points="3266,-298.196 3266,-266.196 "/>
<polyline fill="none" stroke="black" stroke-width="2" points="3266,-298.196 3270,-302.196 "/>
<text text-anchor="middle" x="3216" y="-280.496" font-family="Times,serif" font-size="14.00">ShowDB</text>
</g>
<!-- 1 -->
<g id="node19" class="node"><title>1</title>
<polygon fill="cyan" stroke="black" stroke-width="2" points="2951.5,-302.196 2860.5,-302.196 2856.5,-298.196 2856.5,-266.196 2947.5,-266.196 2951.5,-270.196 2951.5,-302.196"/>
<polyline fill="none" stroke="black" stroke-width="2" points="2947.5,-298.196 2856.5,-298.196 "/>
<polyline fill="none" stroke="black" stroke-width="2" points="2947.5,-298.196 2947.5,-266.196 "/>
<polyline fill="none" stroke="black" stroke-width="2" points="2947.5,-298.196 2951.5,-302.196 "/>
<text text-anchor="middle" x="2904" y="-280.496" font-family="Times,serif" font-size="14.00">BDocs</text>
</g>
<!-- 2 -->
<g id="node20" class="node"><title>2</title>
<polygon fill="cyan" stroke="black" stroke-width="2" points="2578,-302.196 2492,-302.196 2488,-298.196 2488,-266.196 2574,-266.196 2578,-270.196 2578,-302.196"/>
<polyline fill="none" stroke="black" stroke-width="2" points="2574,-298.196 2488,-298.196 "/>
<polyline fill="none" stroke="black" stroke-width="2" points="2574,-298.196 2574,-266.196 "/>
<polyline fill="none" stroke="black" stroke-width="2" points="2574,-298.196 2578,-302.196 "/>
<text text-anchor="middle" x="2533" y="-280.496" font-family="Times,serif" font-size="14.00">BRun</text>
</g>
<!-- 3 -->
<g id="node21" class="node"><title>3</title>
<polygon fill="cyan" stroke="black" stroke-width="2" points="2703.5,-302.196 2600.5,-302.196 2596.5,-298.196 2596.5,-266.196 2699.5,-266.196 2703.5,-270.196 2703.5,-302.196"/>
<polyline fill="none" stroke="black" stroke-width="2" points="2699.5,-298.196 2596.5,-298.196 "/>
<polyline fill="none" stroke="black" stroke-width="2" points="2699.5,-298.196 2699.5,-266.196 "/>
<polyline fill="none" stroke="black" stroke-width="2" points="2699.5,-298.196 2703.5,-302.196 "/>
<text text-anchor="middle" x="2650" y="-280.496" font-family="Times,serif" font-size="14.00">BRunA3</text>
</g>
<!-- 4 -->
<g id="node22" class="node"><title>4</title>
<polygon fill="cyan" stroke="black" stroke-width="2" points="2838.5,-302.196 2725.5,-302.196 2721.5,-298.196 2721.5,-266.196 2834.5,-266.196 2838.5,-270.196 2838.5,-302.196"/>
<polyline fill="none" stroke="black" stroke-width="2" points="2834.5,-298.196 2721.5,-298.196 "/>
<polyline fill="none" stroke="black" stroke-width="2" points="2834.5,-298.196 2834.5,-266.196 "/>
<polyline fill="none" stroke="black" stroke-width="2" points="2834.5,-298.196 2838.5,-302.196 "/>
<text text-anchor="middle" x="2780" y="-280.496" font-family="Times,serif" font-size="14.00">BShowDB</text>
</g>
<!-- 7 -->
<g id="node23" class="node"><title>7</title>
<polygon fill="cyan" stroke="black" stroke-width="2" points="1174,-124 990,-124 986,-120 986,-88 1170,-88 1174,-92 1174,-124"/>
<polyline fill="none" stroke="black" stroke-width="2" points="1170,-120 986,-120 "/>
<polyline fill="none" stroke="black" stroke-width="2" points="1170,-120 1170,-88 "/>
<polyline fill="none" stroke="black" stroke-width="2" points="1170,-120 1174,-124 "/>
<text text-anchor="middle" x="1080" y="-102.3" font-family="Times,serif" font-size="14.00">BackendConfigMissing</text>
</g>
<!-- 11 -->
<g id="node24" class="node"><title>11</title>
<polygon fill="cyan" stroke="black" stroke-width="2" points="803.5,-124 618.5,-124 614.5,-120 614.5,-88 799.5,-88 803.5,-92 803.5,-124"/>
<polyline fill="none" stroke="black" stroke-width="2" points="799.5,-120 614.5,-120 "/>
<polyline fill="none" stroke="black" stroke-width="2" points="799.5,-120 799.5,-88 "/>
<polyline fill="none" stroke="black" stroke-width="2" points="799.5,-120 803.5,-124 "/>
<text text-anchor="middle" x="709" y="-102.3" font-family="Times,serif" font-size="14.00">FrontendConfigMissing</text>
</g>
<!-- 12 -->
<g id="node25" class="node"><title>12</title>
<polygon fill="cyan" stroke="black" stroke-width="2" points="968,-124 826,-124 822,-120 822,-88 964,-88 968,-92 968,-124"/>
<polyline fill="none" stroke="black" stroke-width="2" points="964,-120 822,-120 "/>
<polyline fill="none" stroke="black" stroke-width="2" points="964,-120 964,-88 "/>
<polyline fill="none" stroke="black" stroke-width="2" points="964,-120 968,-124 "/>
<text text-anchor="middle" x="895" y="-102.3" font-family="Times,serif" font-size="14.00">NoEmailSender</text>
</g>
<!-- 20 -->
<g id="node26" class="node"><title>20</title>
<polygon fill="cyan" stroke="black" stroke-width="2" points="1414,-124 1196,-124 1192,-120 1192,-88 1410,-88 1414,-92 1414,-124"/>
<polyline fill="none" stroke="black" stroke-width="2" points="1410,-120 1192,-120 "/>
<polyline fill="none" stroke="black" stroke-width="2" points="1410,-120 1410,-88 "/>
<polyline fill="none" stroke="black" stroke-width="2" points="1410,-120 1414,-124 "/>
<text text-anchor="middle" x="1303" y="-102.3" font-family="Times,serif" font-size="14.00">UnknownRoleForDefaultUser</text>
</g>
<!-- 9 -->
<g id="node27" class="node"><title>9</title>
<polygon fill="goldenrod" stroke="black" stroke-width="2" points="2115.5,-124 1974.5,-124 1970.5,-120 1970.5,-88 2111.5,-88 2115.5,-92 2115.5,-124"/>
<polyline fill="none" stroke="black" stroke-width="2" points="2111.5,-120 1970.5,-120 "/>
<polyline fill="none" stroke="black" stroke-width="2" points="2111.5,-120 2111.5,-88 "/>
<polyline fill="none" stroke="black" stroke-width="2" points="2111.5,-120 2115.5,-124 "/>
<text text-anchor="middle" x="2043" y="-102.3" font-family="Times,serif" font-size="14.00">FrontendConfig</text>
</g>
<!-- 43 -->
<g id="node28" class="node"><title>43</title>
<polygon fill="gold" stroke="black" stroke-width="2" points="2106.5,-207 1979.5,-207 1979.5,-203 1975.5,-203 1975.5,-199 1979.5,-199 1979.5,-179 1975.5,-179 1975.5,-175 1979.5,-175 1979.5,-171 2106.5,-171 2106.5,-207"/>
<polyline fill="none" stroke="black" stroke-width="2" points="1979.5,-203 1983.5,-203 1983.5,-199 1979.5,-199 "/>
<polyline fill="none" stroke="black" stroke-width="2" points="1979.5,-179 1983.5,-179 1983.5,-175 1979.5,-175 "/>
<text text-anchor="middle" x="2043" y="-185.3" font-family="Times,serif" font-size="14.00">frontendPort</text>
</g>
<!-- 43&#45;&gt;9 -->
<g id="edge47" class="edge"><title>43&#45;&gt;9</title>
<path fill="none" stroke="magenta" d="M2043,-170.822C2043,-160.19 2043,-146.306 2043,-134.204"/>
<polygon fill="magenta" stroke="magenta" points="2043,-124.153 2047.5,-134.153 2043,-129.153 2043,-134.153 2043,-134.153 2043,-134.153 2043,-129.153 2038.5,-134.153 2043,-124.153 2043,-124.153"/>
</g>
<!-- 26&#45;&gt;10 -->
<g id="edge6" class="edge"><title>26&#45;&gt;10</title>
<path fill="none" stroke="magenta" d="M1774.69,-87.6966C1777.25,-79.8979 1780.33,-70.5085 1783.18,-61.8292"/>
<polygon fill="magenta" stroke="magenta" points="1786.38,-52.1043 1787.53,-63.0094 1784.82,-56.8545 1783.26,-61.6047 1783.26,-61.6047 1783.26,-61.6047 1784.82,-56.8545 1778.98,-60.1999 1786.38,-52.1043 1786.38,-52.1043"/>
</g>
<!-- 13 -->
<g id="node31" class="node"><title>13</title>
<polygon fill="goldenrod" stroke="black" stroke-width="2" points="4503,-124 4379,-124 4375,-120 4375,-88 4499,-88 4503,-92 4503,-124"/>
<polyline fill="none" stroke="black" stroke-width="2" points="4499,-120 4375,-120 "/>
<polyline fill="none" stroke="black" stroke-width="2" points="4499,-120 4499,-88 "/>
<polyline fill="none" stroke="black" stroke-width="2" points="4499,-120 4503,-124 "/>
<text text-anchor="middle" x="4439" y="-102.3" font-family="Times,serif" font-size="14.00">ProxyConfig</text>
</g>
<!-- 64 -->
<g id="node32" class="node"><title>64</title>
<polygon fill="gold" stroke="black" stroke-width="2" points="4504.5,-207 4373.5,-207 4373.5,-203 4369.5,-203 4369.5,-199 4373.5,-199 4373.5,-179 4369.5,-179 4369.5,-175 4373.5,-175 4373.5,-171 4504.5,-171 4504.5,-207"/>
<polyline fill="none" stroke="black" stroke-width="2" points="4373.5,-203 4377.5,-203 4377.5,-199 4373.5,-199 "/>
<polyline fill="none" stroke="black" stroke-width="2" points="4373.5,-179 4377.5,-179 4377.5,-175 4373.5,-175 "/>
<text text-anchor="middle" x="4439" y="-185.3" font-family="Times,serif" font-size="14.00">proxyTargets</text>
</g>
<!-- 64&#45;&gt;13 -->
<g id="edge93" class="edge"><title>64&#45;&gt;13</title>
<path fill="none" stroke="magenta" d="M4439,-170.822C4439,-160.19 4439,-146.306 4439,-134.204"/>
<polygon fill="magenta" stroke="magenta" points="4439,-124.153 4443.5,-134.153 4439,-129.153 4439,-134.153 4439,-134.153 4439,-134.153 4439,-129.153 4434.5,-134.153 4439,-124.153 4439,-124.153"/>
</g>
<!-- 28&#45;&gt;14 -->
<g id="edge8" class="edge"><title>28&#45;&gt;14</title>
<path fill="none" stroke="magenta" d="M3651.2,-87.6966C3653.1,-79.8979 3655.38,-70.5085 3657.48,-61.8292"/>
<polygon fill="magenta" stroke="magenta" points="3659.85,-52.1043 3661.86,-62.8839 3658.67,-56.9631 3657.49,-61.8219 3657.49,-61.8219 3657.49,-61.8219 3658.67,-56.9631 3653.11,-60.7599 3659.85,-52.1043 3659.85,-52.1043"/>
</g>
<!-- 18 -->
<g id="node35" class="node"><title>18</title>
<polygon fill="goldenrod" stroke="black" stroke-width="2" points="4956,-207 4820,-207 4816,-203 4816,-171 4952,-171 4956,-175 4956,-207"/>
<polyline fill="none" stroke="black" stroke-width="2" points="4952,-203 4816,-203 "/>
<polyline fill="none" stroke="black" stroke-width="2" points="4952,-203 4952,-171 "/>
<polyline fill="none" stroke="black" stroke-width="2" points="4952,-203 4956,-207 "/>
<text text-anchor="middle" x="4886" y="-185.3" font-family="Times,serif" font-size="14.00">ThentosConfig</text>
</g>
<!-- 31 -->
<g id="node36" class="node"><title>31</title>
<polygon fill="gold" stroke="black" stroke-width="2" points="4956.5,-302.196 4815.5,-302.196 4815.5,-298.196 4811.5,-298.196 4811.5,-294.196 4815.5,-294.196 4815.5,-274.196 4811.5,-274.196 4811.5,-270.196 4815.5,-270.196 4815.5,-266.196 4956.5,-266.196 4956.5,-302.196"/>
<polyline fill="none" stroke="black" stroke-width="2" points="4815.5,-298.196 4819.5,-298.196 4819.5,-294.196 4815.5,-294.196 "/>
<polyline fill="none" stroke="black" stroke-width="2" points="4815.5,-274.196 4819.5,-274.196 4819.5,-270.196 4815.5,-270.196 "/>
<text text-anchor="middle" x="4886" y="-280.496" font-family="Times,serif" font-size="14.00">backendConfig</text>
</g>
<!-- 31&#45;&gt;18 -->
<g id="edge11" class="edge"><title>31&#45;&gt;18</title>
<path fill="none" stroke="magenta" d="M4886,-266.102C4886,-252.525 4886,-233.271 4886,-217.527"/>
<polygon fill="magenta" stroke="magenta" points="4886,-207.301 4890.5,-217.301 4886,-212.301 4886,-217.301 4886,-217.301 4886,-217.301 4886,-212.301 4881.5,-217.301 4886,-207.301 4886,-207.301"/>
</g>
<!-- 34 -->
<g id="node37" class="node"><title>34</title>
<polygon fill="gold" stroke="black" stroke-width="2" points="4797,-302.196 4675,-302.196 4675,-298.196 4671,-298.196 4671,-294.196 4675,-294.196 4675,-274.196 4671,-274.196 4671,-270.196 4675,-270.196 4675,-266.196 4797,-266.196 4797,-302.196"/>
<polyline fill="none" stroke="black" stroke-width="2" points="4675,-298.196 4679,-298.196 4679,-294.196 4675,-294.196 "/>
<polyline fill="none" stroke="black" stroke-width="2" points="4675,-274.196 4679,-274.196 4679,-270.196 4675,-270.196 "/>
<text text-anchor="middle" x="4736" y="-280.496" font-family="Times,serif" font-size="14.00">defaultUser</text>
</g>
<!-- 34&#45;&gt;18 -->
<g id="edge13" class="edge"><title>34&#45;&gt;18</title>
<path fill="none" stroke="magenta" d="M4763.51,-266.102C4787.75,-251.042 4823.24,-228.996 4849.78,-212.504"/>
<polygon fill="magenta" stroke="magenta" points="4858.41,-207.143 4852.29,-216.242 4854.16,-209.781 4849.91,-212.42 4849.91,-212.42 4849.91,-212.42 4854.16,-209.781 4847.54,-208.598 4858.41,-207.143 4858.41,-207.143"/>
</g>
<!-- 35 -->
<g id="node38" class="node"><title>35</title>
<polygon fill="gold" stroke="black" stroke-width="2" points="4656.5,-302.196 4529.5,-302.196 4529.5,-298.196 4525.5,-298.196 4525.5,-294.196 4529.5,-294.196 4529.5,-274.196 4525.5,-274.196 4525.5,-270.196 4529.5,-270.196 4529.5,-266.196 4656.5,-266.196 4656.5,-302.196"/>
<polyline fill="none" stroke="black" stroke-width="2" points="4529.5,-298.196 4533.5,-298.196 4533.5,-294.196 4529.5,-294.196 "/>
<polyline fill="none" stroke="black" stroke-width="2" points="4529.5,-274.196 4533.5,-274.196 4533.5,-270.196 4529.5,-270.196 "/>
<text text-anchor="middle" x="4593" y="-280.496" font-family="Times,serif" font-size="14.00">emailSender</text>
</g>
<!-- 35&#45;&gt;18 -->
<g id="edge14" class="edge"><title>35&#45;&gt;18</title>
<path fill="none" stroke="magenta" d="M4622.86,-266.082C4635.82,-259.159 4651.36,-251.515 4666,-246 4711.24,-228.958 4763.64,-215.39 4805.95,-205.88"/>
<polygon fill="magenta" stroke="magenta" points="4815.92,-203.671 4807.13,-210.228 4811.04,-204.753 4806.16,-205.834 4806.16,-205.834 4806.16,-205.834 4811.04,-204.753 4805.18,-201.441 4815.92,-203.671 4815.92,-203.671"/>
</g>
<!-- 42 -->
<g id="node39" class="node"><title>42</title>
<polygon fill="gold" stroke="black" stroke-width="2" points="5263,-302.196 5121,-302.196 5121,-298.196 5117,-298.196 5117,-294.196 5121,-294.196 5121,-274.196 5117,-274.196 5117,-270.196 5121,-270.196 5121,-266.196 5263,-266.196 5263,-302.196"/>
<polyline fill="none" stroke="black" stroke-width="2" points="5121,-298.196 5125,-298.196 5125,-294.196 5121,-294.196 "/>
<polyline fill="none" stroke="black" stroke-width="2" points="5121,-274.196 5125,-274.196 5125,-270.196 5121,-270.196 "/>
<text text-anchor="middle" x="5192" y="-280.496" font-family="Times,serif" font-size="14.00">frontendConfig</text>
</g>
<!-- 42&#45;&gt;18 -->
<g id="edge46" class="edge"><title>42&#45;&gt;18</title>
<path fill="none" stroke="magenta" d="M5159.12,-266.169C5144.89,-259.259 5127.89,-251.604 5112,-246 5064.52,-229.255 5009.75,-215.549 4966.01,-205.887"/>
<polygon fill="magenta" stroke="magenta" points="4956,-203.704 4966.73,-201.438 4960.89,-204.769 4965.77,-205.835 4965.77,-205.835 4965.77,-205.835 4960.89,-204.769 4964.81,-210.232 4956,-203.704 4956,-203.704"/>
</g>
<!-- 63 -->
<g id="node40" class="node"><title>63</title>
<polygon fill="gold" stroke="black" stroke-width="2" points="5103,-302.196 4975,-302.196 4975,-298.196 4971,-298.196 4971,-294.196 4975,-294.196 4975,-274.196 4971,-274.196 4971,-270.196 4975,-270.196 4975,-266.196 5103,-266.196 5103,-302.196"/>
<polyline fill="none" stroke="black" stroke-width="2" points="4975,-298.196 4979,-298.196 4979,-294.196 4975,-294.196 "/>
<polyline fill="none" stroke="black" stroke-width="2" points="4975,-274.196 4979,-274.196 4979,-270.196 4975,-270.196 "/>
<text text-anchor="middle" x="5039" y="-280.496" font-family="Times,serif" font-size="14.00">proxyConfig</text>
</g>
<!-- 63&#45;&gt;18 -->
<g id="edge92" class="edge"><title>63&#45;&gt;18</title>
<path fill="none" stroke="magenta" d="M5010.94,-266.102C4986.21,-251.042 4950.02,-228.996 4922.95,-212.504"/>
<polygon fill="magenta" stroke="magenta" points="4914.14,-207.143 4925.02,-208.502 4918.41,-209.744 4922.68,-212.345 4922.68,-212.345 4922.68,-212.345 4918.41,-209.744 4920.34,-216.188 4914.14,-207.143 4914.14,-207.143"/>
</g>
<!-- 21&#45;&gt;19 -->
<g id="edge1" class="edge"><title>21&#45;&gt;19</title>
<path fill="none" stroke="magenta" d="M2338.91,-170.915C2348.27,-168.184 2357.89,-165.453 2367,-163 2415.54,-149.928 2470.18,-136.668 2514.24,-126.335"/>
<polygon fill="magenta" stroke="magenta" points="2524.04,-124.042 2515.33,-130.701 2519.17,-125.181 2514.3,-126.319 2514.3,-126.319 2514.3,-126.319 2519.17,-125.181 2513.28,-121.937 2524.04,-124.042 2524.04,-124.042"/>
</g>
<!-- 23&#45;&gt;19 -->
<g id="edge3" class="edge"><title>23&#45;&gt;19</title>
<path fill="none" stroke="magenta" d="M3182.03,-170.904C3172.54,-167.876 3162.53,-165.043 3153,-163 2996.72,-129.486 2811.22,-115.903 2699.43,-110.486"/>
<polygon fill="magenta" stroke="magenta" points="2689.18,-110.002 2699.38,-105.979 2694.18,-110.238 2699.17,-110.474 2699.17,-110.474 2699.17,-110.474 2694.18,-110.238 2698.96,-114.969 2689.18,-110.002 2689.18,-110.002"/>
</g>
<!-- 24&#45;&gt;19 -->
<g id="edge4" class="edge"><title>24&#45;&gt;19</title>
<path fill="none" stroke="magenta" d="M3027.89,-170.956C3018.4,-167.998 3008.45,-165.178 2999,-163 2898.25,-139.78 2780.87,-124.731 2699.43,-116.143"/>
<polygon fill="magenta" stroke="magenta" points="2689.18,-115.077 2699.59,-111.636 2694.16,-115.594 2699.13,-116.112 2699.13,-116.112 2699.13,-116.112 2694.16,-115.594 2698.66,-120.588 2689.18,-115.077 2689.18,-115.077"/>
</g>
<!-- 25&#45;&gt;19 -->
<g id="edge5" class="edge"><title>25&#45;&gt;19</title>
<path fill="none" stroke="magenta" d="M2856.73,-170.98C2847.16,-168.242 2837.31,-165.491 2828,-163 2779.86,-150.122 2725.7,-136.826 2682.15,-126.422"/>
<polygon fill="magenta" stroke="magenta" points="2672.17,-124.045 2682.94,-121.985 2677.03,-125.204 2681.9,-126.363 2681.9,-126.363 2681.9,-126.363 2677.03,-125.204 2680.86,-130.74 2672.17,-124.045 2672.17,-124.045"/>
</g>
<!-- 27&#45;&gt;19 -->
<g id="edge7" class="edge"><title>27&#45;&gt;19</title>
<path fill="none" stroke="magenta" d="M2719.55,-170.822C2696.35,-158.538 2664.95,-141.912 2640.01,-128.709"/>
<polygon fill="magenta" stroke="magenta" points="2631.14,-124.014 2642.08,-124.716 2635.56,-126.354 2639.98,-128.693 2639.98,-128.693 2639.98,-128.693 2635.56,-126.354 2637.87,-132.67 2631.14,-124.014 2631.14,-124.014"/>
</g>
<!-- 29&#45;&gt;19 -->
<g id="edge9" class="edge"><title>29&#45;&gt;19</title>
<path fill="none" stroke="magenta" d="M2599,-170.822C2599,-160.19 2599,-146.306 2599,-134.204"/>
<polygon fill="magenta" stroke="magenta" points="2599,-124.153 2603.5,-134.153 2599,-129.153 2599,-134.153 2599,-134.153 2599,-134.153 2599,-129.153 2594.5,-134.153 2599,-124.153 2599,-124.153"/>
</g>
<!-- 30&#45;&gt;19 -->
<g id="edge10" class="edge"><title>30&#45;&gt;19</title>
<path fill="none" stroke="magenta" d="M2477.66,-170.822C2501.01,-158.538 2532.62,-141.912 2557.73,-128.709"/>
<polygon fill="magenta" stroke="magenta" points="2566.65,-124.014 2559.9,-132.652 2562.23,-126.342 2557.8,-128.669 2557.8,-128.669 2557.8,-128.669 2562.23,-126.342 2555.71,-124.687 2566.65,-124.014 2566.65,-124.014"/>
</g>
<!-- 33 -->
<g id="node49" class="node"><title>33</title>
<polygon fill="gold" stroke="black" stroke-width="2" points="3040,-567.744 2908,-567.744 2908,-531.744 3040,-531.744 3040,-567.744"/>
<text text-anchor="middle" x="2974" y="-546.044" font-family="Times,serif" font-size="14.00">configLogger</text>
</g>
<!-- 36 -->
<g id="node50" class="node"><title>36</title>
<polygon fill="gold" stroke="black" stroke-width="2" points="5455,-302.196 5281,-302.196 5281,-266.196 5455,-266.196 5455,-302.196"/>
<text text-anchor="middle" x="5368" y="-280.496" font-family="Times,serif" font-size="14.00">emptyThentosConfig</text>
</g>
<!-- 36&#45;&gt;18 -->
<g id="edge15" class="edge"><title>36&#45;&gt;18</title>
<path fill="none" stroke="black" d="M5331.13,-266.103C5314.33,-258.927 5293.98,-251.084 5275,-246 5170.45,-217.995 5046.11,-203.195 4966.65,-195.987"/>
<polygon fill="black" stroke="black" points="4966.49,-192.46 4956.22,-195.062 4965.87,-199.433 4966.49,-192.46"/>
</g>
<!-- 37 -->
<g id="node51" class="node"><title>37</title>
<polygon fill="bisque" stroke="black" stroke-width="2" points="429.5,-207 246.5,-207 246.5,-171 429.5,-171 429.5,-207"/>
<text text-anchor="middle" x="338" y="-185.3" font-family="Times,serif" font-size="14.00">finaliseBackendConfig</text>
</g>
<!-- 37&#45;&gt;5 -->
<g id="edge16" class="edge"><title>37&#45;&gt;5</title>
<path fill="none" stroke="black" d="M376.173,-170.822C403.83,-158.376 441.392,-141.474 470.912,-128.19"/>
<polygon fill="black" stroke="black" points="472.508,-131.31 480.191,-124.014 469.635,-124.926 472.508,-131.31"/>
</g>
<!-- 37&#45;&gt;22 -->
<g id="edge17" class="edge"><title>37&#45;&gt;22</title>
<path fill="none" stroke="black" d="M284.444,-170.921C244.34,-158.132 189.349,-140.595 147.109,-127.125"/>
<polygon fill="black" stroke="black" points="148.074,-123.759 137.483,-124.056 145.947,-130.429 148.074,-123.759"/>
</g>
<!-- 38 -->
<g id="node52" class="node"><title>38</title>
<polygon fill="bisque" stroke="black" stroke-width="2" points="3058,-401.067 2902,-401.067 2902,-365.067 3058,-365.067 3058,-401.067"/>
<text text-anchor="middle" x="2980" y="-379.367" font-family="Times,serif" font-size="14.00">finaliseCommand</text>
</g>
<!-- 38&#45;&gt;8 -->
<g id="edge22" class="edge"><title>38&#45;&gt;8</title>
<path fill="none" stroke="black" d="M3058.06,-381.69C3182.25,-380.027 3418.51,-372.216 3494,-337.391 3507.36,-331.227 3519.33,-320.208 3528.5,-309.878"/>
<polygon fill="black" stroke="black" points="3531.19,-312.115 3534.94,-302.205 3525.83,-307.614 3531.19,-312.115"/>
</g>
<!-- 38&#45;&gt;15 -->
<g id="edge23" class="edge"><title>38&#45;&gt;15</title>
<path fill="none" stroke="black" d="M3058.17,-379.999C3161.59,-376.186 3337.53,-365.653 3395,-337.391 3407.62,-331.186 3418.77,-320.414 3427.32,-310.261"/>
<polygon fill="black" stroke="black" points="3430.12,-312.359 3433.6,-302.351 3424.64,-308.007 3430.12,-312.359"/>
</g>
<!-- 38&#45;&gt;16 -->
<g id="edge24" class="edge"><title>38&#45;&gt;16</title>
<path fill="none" stroke="black" d="M3058.23,-375.519C3133.38,-368.313 3240.96,-355.325 3279,-337.391 3292.77,-330.901 3305.62,-320.053 3315.71,-309.923"/>
<polygon fill="black" stroke="black" points="3318.51,-312.06 3322.86,-302.4 3313.44,-307.239 3318.51,-312.06"/>
</g>
<!-- 38&#45;&gt;17 -->
<g id="edge25" class="edge"><title>38&#45;&gt;17</title>
<path fill="none" stroke="black" d="M3058.42,-369.434C3089.03,-362.581 3123.72,-352.35 3153,-337.391 3167.15,-330.164 3180.96,-319.288 3192.03,-309.331"/>
<polygon fill="black" stroke="black" points="3194.64,-311.686 3199.57,-302.309 3189.86,-306.563 3194.64,-311.686"/>
</g>
<!-- 38&#45;&gt;1 -->
<g id="edge18" class="edge"><title>38&#45;&gt;1</title>
<path fill="none" stroke="black" d="M2966.41,-364.749C2954.52,-349.596 2937.11,-327.397 2923.69,-310.296"/>
<polygon fill="black" stroke="black" points="2926.4,-308.072 2917.47,-302.364 2920.89,-312.393 2926.4,-308.072"/>
</g>
<!-- 38&#45;&gt;2 -->
<g id="edge19" class="edge"><title>38&#45;&gt;2</title>
<path fill="none" stroke="black" d="M2901.72,-368.677C2852.79,-360.769 2788.38,-351.199 2731,-345.391 2699.11,-342.164 2616.37,-350.224 2587,-337.391 2573.39,-331.442 2561.19,-320.447 2551.85,-310.077"/>
<polygon fill="black" stroke="black" points="2554.43,-307.712 2545.29,-302.363 2549.1,-312.248 2554.43,-307.712"/>
</g>
<!-- 38&#45;&gt;3 -->
<g id="edge20" class="edge"><title>38&#45;&gt;3</title>
<path fill="none" stroke="black" d="M2901.97,-373.692C2835.26,-365.689 2744.98,-352.614 2712,-337.391 2697.51,-330.7 2683.68,-319.687 2672.78,-309.498"/>
<polygon fill="black" stroke="black" points="2674.99,-306.77 2665.39,-302.298 2670.11,-311.783 2674.99,-306.77"/>
</g>
<!-- 38&#45;&gt;4 -->
<g id="edge21" class="edge"><title>38&#45;&gt;4</title>
<path fill="none" stroke="black" d="M2914.92,-365.037C2892.7,-357.976 2868.14,-348.745 2847,-337.391 2832.54,-329.624 2817.99,-318.743 2806.16,-308.925"/>
<polygon fill="black" stroke="black" points="2808.32,-306.168 2798.44,-302.349 2803.78,-311.497 2808.32,-306.168"/>
</g>
<!-- 39 -->
<g id="node53" class="node"><title>39</title>
<polygon fill="bisque" stroke="black" stroke-width="2" points="3144,-302.196 3008,-302.196 3008,-266.196 3144,-266.196 3144,-302.196"/>
<text text-anchor="middle" x="3076" y="-280.496" font-family="Times,serif" font-size="14.00">finaliseConfig</text>
</g>
<!-- 38&#45;&gt;39 -->
<g id="edge26" class="edge"><title>38&#45;&gt;39</title>
<path fill="none" stroke="black" stroke-width="1.69315" d="M2997.16,-364.749C3012.32,-349.458 3034.58,-326.992 3051.59,-309.831"/>
<polygon fill="black" stroke="black" stroke-width="1.69315" points="3054.43,-311.931 3058.99,-302.364 3049.46,-307.004 3054.43,-311.931"/>
</g>
<!-- 55 -->
<g id="node59" class="node"><title>55</title>
<polygon fill="bisque" stroke="black" stroke-width="2" points="1751,-207 1605,-207 1605,-171 1751,-171 1751,-207"/>
<text text-anchor="middle" x="1678" y="-185.3" font-family="Times,serif" font-size="14.00">parseConfigFile</text>
</g>
<!-- 38&#45;&gt;55 -->
<g id="edge27" class="edge"><title>38&#45;&gt;55</title>
<path fill="none" stroke="black" stroke-width="1.69315" d="M2984.27,-364.68C2990.33,-335.228 2997.32,-275.827 2964,-246 2951.54,-234.846 1776.13,-242.43 1760,-238 1741.52,-232.922 1722.92,-222.565 1708.12,-212.768"/>
<polygon fill="black" stroke="black" stroke-width="1.69315" points="1710.1,-209.881 1699.87,-207.108 1706.14,-215.652 1710.1,-209.881"/>
</g>
<!-- 39&#45;&gt;7 -->
<g id="edge28" class="edge"><title>39&#45;&gt;7</title>
<path fill="none" stroke="black" d="M3035.04,-266.142C3014.17,-258.348 2988.16,-249.979 2964,-246 2945.25,-242.912 1612.41,-247.573 1596,-238 1562.81,-218.641 1586.04,-182.62 1553,-163 1535.32,-152.501 1203.02,-159.664 1183,-155 1160.05,-149.654 1136.09,-138.846 1117.06,-128.837"/>
<polygon fill="black" stroke="black" points="1118.6,-125.692 1108.14,-124.015 1115.27,-131.85 1118.6,-125.692"/>
</g>
<!-- 39&#45;&gt;11 -->
<g id="edge29" class="edge"><title>39&#45;&gt;11</title>
<path fill="none" stroke="black" d="M3035.04,-266.125C3014.17,-258.327 2988.16,-249.959 2964,-246 2859.23,-228.833 1157.66,-255.812 1053,-238 938.545,-218.521 813.293,-160.715 750.211,-128.79"/>
<polygon fill="black" stroke="black" points="751.495,-125.516 740.997,-124.087 748.312,-131.751 751.495,-125.516"/>
</g>
<!-- 39&#45;&gt;12 -->
<g id="edge30" class="edge"><title>39&#45;&gt;12</title>
<path fill="none" stroke="black" d="M3035.04,-266.14C3014.17,-258.346 2988.16,-249.977 2964,-246 2886.65,-233.267 1631.16,-244.052 1553,-238 1328.96,-220.652 1275.9,-191.435 1053,-163 1019.31,-158.702 1009.27,-165.595 977,-155 959.349,-149.205 941.357,-139.218 926.742,-129.85"/>
<polygon fill="black" stroke="black" points="928.382,-126.739 918.111,-124.14 924.52,-132.577 928.382,-126.739"/>
</g>
<!-- 39&#45;&gt;18 -->
<g id="edge31" class="edge"><title>39&#45;&gt;18</title>
<path fill="none" stroke="black" d="M3102.6,-266.074C3116.2,-258.316 3133.36,-249.998 3150,-246 3186.92,-237.129 4479.11,-240.565 4517,-238 4616.88,-231.237 4731.05,-215.074 4805.61,-203.369"/>
<polygon fill="black" stroke="black" points="4806.53,-206.767 4815.86,-201.748 4805.44,-199.853 4806.53,-206.767"/>
</g>
<!-- 39&#45;&gt;21 -->
<g id="edge32" class="edge"><title>39&#45;&gt;21</title>
<path fill="none" stroke="black" d="M3046.28,-266.117C3031.15,-258.369 3012.16,-250.047 2994,-246 2926,-230.843 2434.22,-256.312 2367,-238 2348.17,-232.87 2329.13,-222.509 2313.95,-212.721"/>
<polygon fill="black" stroke="black" points="2315.74,-209.713 2305.48,-207.069 2311.86,-215.534 2315.74,-209.713"/>
</g>
<!-- 39&#45;&gt;23 -->
<g id="edge33" class="edge"><title>39&#45;&gt;23</title>
<path fill="none" stroke="black" d="M3105.78,-266.077C3120.13,-257.735 3137.54,-247.48 3153,-238 3166.28,-229.859 3180.72,-220.691 3193.36,-212.566"/>
<polygon fill="black" stroke="black" points="3195.27,-215.495 3201.78,-207.132 3191.48,-209.613 3195.27,-215.495"/>
</g>
<!-- 39&#45;&gt;24 -->
<g id="edge34" class="edge"><title>39&#45;&gt;24</title>
<path fill="none" stroke="black" d="M3076,-266.102C3076,-252.525 3076,-233.271 3076,-217.527"/>
<polygon fill="black" stroke="black" points="3079.5,-217.301 3076,-207.301 3072.5,-217.301 3079.5,-217.301"/>
</g>
<!-- 39&#45;&gt;25 -->
<g id="edge35" class="edge"><title>39&#45;&gt;25</title>
<path fill="none" stroke="black" d="M3046.29,-266.102C3019.99,-250.976 2981.45,-228.804 2952.75,-212.29"/>
<polygon fill="black" stroke="black" points="2954.21,-209.095 2943.8,-207.143 2950.72,-215.163 2954.21,-209.095"/>
</g>
<!-- 39&#45;&gt;27 -->
<g id="edge36" class="edge"><title>39&#45;&gt;27</title>
<path fill="none" stroke="black" d="M3045.45,-266.007C3030.43,-258.435 3011.78,-250.297 2994,-246 2958.32,-237.376 2864.04,-248.951 2829,-238 2811.98,-232.68 2794.96,-222.679 2781.26,-213.177"/>
<polygon fill="black" stroke="black" points="2782.93,-210.068 2772.77,-207.06 2778.84,-215.747 2782.93,-210.068"/>
</g>
<!-- 39&#45;&gt;29 -->
<g id="edge37" class="edge"><title>39&#45;&gt;29</title>
<path fill="none" stroke="black" d="M3045.88,-266.018C3030.81,-258.349 3011.98,-250.124 2994,-246 2924.88,-230.147 2742.86,-258.562 2675,-238 2658.09,-232.877 2641.28,-222.899 2627.78,-213.361"/>
<polygon fill="black" stroke="black" points="2629.55,-210.319 2619.42,-207.213 2625.4,-215.958 2629.55,-210.319"/>
</g>
<!-- 39&#45;&gt;30 -->
<g id="edge38" class="edge"><title>39&#45;&gt;30</title>
<path fill="none" stroke="black" d="M3046.28,-266.149C3031.14,-258.409 3012.15,-250.085 2994,-246 2942.83,-234.482 2572.3,-252.857 2522,-238 2504.61,-232.864 2487.29,-222.642 2473.49,-212.946"/>
<polygon fill="black" stroke="black" points="2475.53,-210.099 2465.39,-207.027 2471.4,-215.752 2475.53,-210.099"/>
</g>
<!-- 39&#45;&gt;37 -->
<g id="edge39" class="edge"><title>39&#45;&gt;37</title>
<path fill="none" stroke="black" d="M3035.04,-266.114C3014.17,-258.314 2988.16,-249.947 2964,-246 2894.64,-234.671 502.373,-254.255 434,-238 412.542,-232.899 390.403,-222.253 372.801,-212.28"/>
<polygon fill="black" stroke="black" points="374.437,-209.183 364.037,-207.16 370.906,-215.227 374.437,-209.183"/>
</g>
<!-- 40 -->
<g id="node54" class="node"><title>40</title>
<polygon fill="bisque" stroke="black" stroke-width="2" points="1954.5,-207 1769.5,-207 1769.5,-171 1954.5,-171 1954.5,-207"/>
<text text-anchor="middle" x="1862" y="-185.3" font-family="Times,serif" font-size="14.00">finaliseFrontendConfig</text>
</g>
<!-- 39&#45;&gt;40 -->
<g id="edge40" class="edge"><title>39&#45;&gt;40</title>
<path fill="none" stroke="black" d="M3046.29,-266.077C3031.16,-258.32 3012.17,-250.001 2994,-246 2937.79,-233.62 2013.97,-251.44 1958,-238 1936.55,-232.85 1914.42,-222.2 1896.81,-212.238"/>
<polygon fill="black" stroke="black" points="1898.45,-209.14 1888.05,-207.124 1894.92,-215.187 1898.45,-209.14"/>
</g>
<!-- 41 -->
<g id="node55" class="node"><title>41</title>
<polygon fill="bisque" stroke="black" stroke-width="2" points="4162,-207 3994,-207 3994,-171 4162,-171 4162,-207"/>
<text text-anchor="middle" x="4078" y="-185.3" font-family="Times,serif" font-size="14.00">finaliseProxyConfig</text>
</g>
<!-- 39&#45;&gt;41 -->
<g id="edge41" class="edge"><title>39&#45;&gt;41</title>
<path fill="none" stroke="black" d="M3102.61,-266.101C3116.21,-258.349 3133.37,-250.029 3150,-246 3240.17,-224.155 3894.94,-260.327 3985,-238 4005.68,-232.872 4026.93,-222.368 4043.89,-212.491"/>
<polygon fill="black" stroke="black" points="4046.08,-215.261 4052.84,-207.106 4042.47,-209.263 4046.08,-215.261"/>
</g>
<!-- 40&#45;&gt;9 -->
<g id="edge42" class="edge"><title>40&#45;&gt;9</title>
<path fill="none" stroke="black" d="M1915.8,-170.845C1929.11,-166.13 1943.21,-160.724 1956,-155 1972.82,-147.471 1990.75,-137.867 2005.94,-129.231"/>
<polygon fill="black" stroke="black" points="2008.09,-132.031 2015.01,-124.006 2004.59,-125.966 2008.09,-132.031"/>
</g>
<!-- 40&#45;&gt;26 -->
<g id="edge43" class="edge"><title>40&#45;&gt;26</title>
<path fill="none" stroke="black" d="M1842.28,-170.822C1828.96,-159.224 1811.2,-143.755 1796.5,-130.951"/>
<polygon fill="black" stroke="black" points="1798.53,-128.082 1788.69,-124.153 1793.94,-133.36 1798.53,-128.082"/>
</g>
<!-- 41&#45;&gt;13 -->
<g id="edge44" class="edge"><title>41&#45;&gt;13</title>
<path fill="none" stroke="black" d="M4162.11,-182.6C4233.12,-177.258 4328.83,-167.996 4365,-155 4381.08,-149.223 4397.2,-139.365 4410.27,-130.081"/>
<polygon fill="black" stroke="black" points="4412.4,-132.855 4418.38,-124.111 4408.25,-127.216 4412.4,-132.855"/>
</g>
<!-- 41&#45;&gt;28 -->
<g id="edge45" class="edge"><title>41&#45;&gt;28</title>
<path fill="none" stroke="black" d="M4022.36,-170.914C4010.16,-167.766 3997.23,-164.883 3985,-163 3903.22,-150.406 3880.49,-169.36 3799,-155 3765.33,-149.067 3728.76,-137.683 3699.93,-127.49"/>
<polygon fill="black" stroke="black" points="3701.06,-124.176 3690.47,-124.088 3698.69,-130.764 3701.06,-124.176"/>
</g>
<!-- 44 -->
<g id="node56" class="node"><title>44</title>
<polygon fill="gold" stroke="black" stroke-width="2" points="2889.5,-567.744 2756.5,-567.744 2756.5,-531.744 2889.5,-531.744 2889.5,-567.744"/>
<text text-anchor="middle" x="2823" y="-546.044" font-family="Times,serif" font-size="14.00">getCommand</text>
</g>
<!-- 44&#45;&gt;38 -->
<g id="edge48" class="edge"><title>44&#45;&gt;38</title>
<path fill="none" stroke="black" d="M2839.21,-531.741C2867.06,-502.527 2924.11,-442.688 2956.39,-408.836"/>
<polygon fill="black" stroke="black" points="2959.28,-410.878 2963.64,-401.225 2954.21,-406.047 2959.28,-410.878"/>
</g>
<!-- 54 -->
<g id="node58" class="node"><title>54</title>
<polygon fill="bisque" stroke="black" stroke-width="2" points="2803.5,-495.744 2618.5,-495.744 2618.5,-459.744 2803.5,-459.744 2803.5,-495.744"/>
<text text-anchor="middle" x="2711" y="-474.044" font-family="Times,serif" font-size="14.00">parseCommandBuilder</text>
</g>
<!-- 44&#45;&gt;54 -->
<g id="edge49" class="edge"><title>44&#45;&gt;54</title>
<path fill="none" stroke="black" d="M2795.6,-531.62C2781.09,-522.552 2763.08,-511.296 2747.41,-501.503"/>
<polygon fill="black" stroke="black" points="2748.84,-498.265 2738.5,-495.933 2745.13,-504.201 2748.84,-498.265"/>
</g>
<!-- 53 -->
<g id="node57" class="node"><title>53</title>
<polygon fill="bisque" stroke="black" stroke-width="2" points="1682,-124 1470,-124 1470,-88 1682,-88 1682,-124"/>
<text text-anchor="middle" x="1576" y="-102.3" font-family="Times,serif" font-size="14.00">parseBackendConfigBuilder</text>
</g>
<!-- 53&#45;&gt;6 -->
<g id="edge69" class="edge"><title>53&#45;&gt;6</title>
<path fill="none" stroke="black" d="M1504.31,-87.9668C1488.48,-84.7947 1471.74,-81.8882 1456,-80 1215.27,-51.1236 481.913,-39.5186 210.462,-36.1381"/>
<polygon fill="black" stroke="black" points="210.264,-32.6355 200.221,-36.0117 210.177,-39.6349 210.264,-32.6355"/>
</g>
<!-- 54&#45;&gt;66 -->
<g id="edge74" class="edge"><title>54&#45;&gt;66</title>
<path fill="none" stroke="black" d="M2618.47,-468.252C2570.79,-463.702 2511.74,-457.797 2459,-451.744 2327.05,-436.6 2176.6,-416.688 2071.77,-402.389"/>
<polygon fill="black" stroke="black" points="2072.16,-398.909 2061.77,-401.023 2071.21,-405.844 2072.16,-398.909"/>
</g>
<!-- 54&#45;&gt;1 -->
<g id="edge70" class="edge"><title>54&#45;&gt;1</title>
<path fill="none" stroke="black" d="M2752,-459.64C2756.21,-457.236 2760.29,-454.599 2764,-451.744 2817.25,-410.736 2864.1,-346.281 2887.73,-310.779"/>
<polygon fill="black" stroke="black" points="2890.67,-312.689 2893.23,-302.409 2884.82,-308.846 2890.67,-312.689"/>
</g>
<!-- 54&#45;&gt;4 -->
<g id="edge71" class="edge"><title>54&#45;&gt;4</title>
<path fill="none" stroke="black" d="M2726.11,-459.583C2727.92,-457.056 2729.61,-454.405 2731,-451.744 2754.88,-405.92 2768.75,-346.775 2775.31,-312.704"/>
<polygon fill="black" stroke="black" points="2778.81,-313.041 2777.19,-302.571 2771.92,-311.767 2778.81,-313.041"/>
</g>
<!-- 58 -->
<g id="node62" class="node"><title>58</title>
<polygon fill="bisque" stroke="black" stroke-width="2" points="2578,-401.067 2468,-401.067 2468,-365.067 2578,-365.067 2578,-401.067"/>
<text text-anchor="middle" x="2523" y="-379.367" font-family="Times,serif" font-size="14.00">parseRun</text>
</g>
<!-- 54&#45;&gt;58 -->
<g id="edge72" class="edge"><title>54&#45;&gt;58</title>
<path fill="none" stroke="black" d="M2618.32,-464.672C2607.4,-461.348 2596.7,-457.12 2587,-451.744 2568.44,-441.455 2552.09,-423.928 2540.56,-409.289"/>
<polygon fill="black" stroke="black" points="2543.17,-406.944 2534.35,-401.08 2537.59,-411.167 2543.17,-406.944"/>
</g>
<!-- 59 -->
<g id="node63" class="node"><title>59</title>
<polygon fill="bisque" stroke="black" stroke-width="2" points="2722,-401.067 2596,-401.067 2596,-365.067 2722,-365.067 2722,-401.067"/>
<text text-anchor="middle" x="2659" y="-379.367" font-family="Times,serif" font-size="14.00">parseRunA3</text>
</g>
<!-- 54&#45;&gt;59 -->
<g id="edge73" class="edge"><title>54&#45;&gt;59</title>
<path fill="none" stroke="black" d="M2701.22,-459.312C2693.4,-445.374 2682.32,-425.625 2673.47,-409.858"/>
<polygon fill="black" stroke="black" points="2676.51,-408.116 2668.56,-401.108 2670.4,-411.541 2676.51,-408.116"/>
</g>
<!-- 55&#45;&gt;6 -->
<g id="edge75" class="edge"><title>55&#45;&gt;6</title>
<path fill="none" stroke="black" d="M1625.52,-170.926C1614.24,-167.818 1602.31,-164.948 1591,-163 1576.74,-160.543 1472.96,-163.145 1461,-155 1430.6,-134.296 1456.68,-100.286 1426,-80 1375.57,-46.6619 511.077,-37.7028 210.221,-35.5887"/>
<polygon fill="black" stroke="black" points="210.214,-32.0887 200.19,-35.5193 210.165,-39.0885 210.214,-32.0887"/>
</g>
<!-- 55&#45;&gt;20 -->
<g id="edge79" class="edge"><title>55&#45;&gt;20</title>
<path fill="none" stroke="black" d="M1626,-170.946C1614.58,-167.796 1602.47,-164.904 1591,-163 1519.45,-151.127 1498.97,-169.967 1428,-155 1400.51,-149.203 1371.12,-138.183 1347.75,-128.162"/>
<polygon fill="black" stroke="black" points="1349.01,-124.896 1338.45,-124.093 1346.21,-131.309 1349.01,-124.896"/>
</g>
<!-- 55&#45;&gt;10 -->
<g id="edge76" class="edge"><title>55&#45;&gt;10</title>
<path fill="none" stroke="black" d="M1726.96,-170.938C1737.72,-167.789 1749.15,-164.899 1760,-163 1777.31,-159.97 1905.89,-167.74 1918,-155 1940.97,-130.841 1937.2,-107.247 1918,-80 1911.22,-70.3811 1902.19,-62.8069 1892.07,-56.845"/>
<polygon fill="black" stroke="black" points="1893.39,-53.5872 1882.92,-52.0098 1890.12,-59.7763 1893.39,-53.5872"/>
</g>
<!-- 55&#45;&gt;14 -->
<g id="edge77" class="edge"><title>55&#45;&gt;14</title>
<path fill="none" stroke="black" d="M1725.59,-170.94C1736.74,-167.66 1748.67,-164.715 1760,-163 1784.35,-159.315 3512.05,-167.938 3533,-155 3564.79,-135.367 3544.34,-106.18 3571,-80 3580.59,-70.5869 3592.53,-62.8297 3604.62,-56.5652"/>
<polygon fill="black" stroke="black" points="3606.4,-59.589 3613.86,-52.063 3603.34,-53.296 3606.4,-59.589"/>
</g>
<!-- 55&#45;&gt;19 -->
<g id="edge78" class="edge"><title>55&#45;&gt;19</title>
<path fill="none" stroke="black" d="M1726.04,-170.955C1737.07,-167.719 1748.83,-164.789 1760,-163 1840.77,-150.063 2046.36,-160.039 2128,-155 2256.23,-147.085 2403.46,-130.941 2498.68,-119.568"/>
<polygon fill="black" stroke="black" points="2499.37,-123.011 2508.88,-118.344 2498.54,-116.06 2499.37,-123.011"/>
</g>
<!-- 56 -->
<g id="node60" class="node"><title>56</title>
<polygon fill="bisque" stroke="black" stroke-width="2" points="3524,-124 3310,-124 3310,-88 3524,-88 3524,-124"/>
<text text-anchor="middle" x="3417" y="-102.3" font-family="Times,serif" font-size="14.00">parseFrontendConfigBuilder</text>
</g>
<!-- 56&#45;&gt;10 -->
<g id="edge80" class="edge"><title>56&#45;&gt;10</title>
<path fill="none" stroke="black" d="M3351.04,-87.9637C3336.31,-84.7706 3320.7,-81.8562 3306,-80 3032.13,-45.4142 2189.18,-37.2906 1894.77,-35.4871"/>
<polygon fill="black" stroke="black" points="1894.55,-31.9858 1884.53,-35.4256 1894.51,-38.9857 1894.55,-31.9858"/>
</g>
<!-- 57 -->
<g id="node61" class="node"><title>57</title>
<polygon fill="bisque" stroke="black" stroke-width="2" points="4181.5,-124 3984.5,-124 3984.5,-88 4181.5,-88 4181.5,-124"/>
<text text-anchor="middle" x="4083" y="-102.3" font-family="Times,serif" font-size="14.00">parseProxyConfigBuilder</text>
</g>
<!-- 57&#45;&gt;14 -->
<g id="edge81" class="edge"><title>57&#45;&gt;14</title>
<path fill="none" stroke="black" d="M4013.17,-87.9365C4000.51,-85.0985 3987.39,-82.3261 3975,-80 3902.88,-66.4591 3820.68,-54.7242 3758.92,-46.6359"/>
<polygon fill="black" stroke="black" points="3759.16,-43.1386 3748.79,-45.3193 3758.26,-50.0801 3759.16,-43.1386"/>
</g>
<!-- 58&#45;&gt;2 -->
<g id="edge82" class="edge"><title>58&#45;&gt;2</title>
<path fill="none" stroke="black" d="M2524.79,-364.749C2526.28,-350.284 2528.44,-329.4 2530.17,-312.659"/>
<polygon fill="black" stroke="black" points="2533.68,-312.671 2531.23,-302.364 2526.72,-311.952 2533.68,-312.671"/>
</g>
<!-- 62 -->
<g id="node66" class="node"><title>62</title>
<polygon fill="bisque" stroke="black" stroke-width="2" points="3976,-207 3808,-207 3808,-171 3976,-171 3976,-207"/>
<text text-anchor="middle" x="3892" y="-185.3" font-family="Times,serif" font-size="14.00">parseThentosConfig</text>
</g>
<!-- 58&#45;&gt;62 -->
<g id="edge83" class="edge"><title>58&#45;&gt;62</title>
<path fill="none" stroke="black" d="M2479.94,-364.893C2468.49,-358.116 2457.51,-349.089 2451,-337.391 2431.25,-301.897 2422.36,-274.807 2451,-246 2464.15,-232.771 3775.84,-242.265 3794,-238 3815.83,-232.872 3838.42,-222.225 3856.41,-212.258"/>
<polygon fill="black" stroke="black" points="3858.42,-215.141 3865.37,-207.141 3854.95,-209.063 3858.42,-215.141"/>
</g>
<!-- 59&#45;&gt;3 -->
<g id="edge84" class="edge"><title>59&#45;&gt;3</title>
<path fill="none" stroke="black" d="M2657.39,-364.749C2656.05,-350.284 2654.11,-329.4 2652.55,-312.659"/>
<polygon fill="black" stroke="black" points="2656.01,-311.998 2651.6,-302.364 2649.04,-312.645 2656.01,-311.998"/>
</g>
<!-- 59&#45;&gt;62 -->
<g id="edge85" class="edge"><title>59&#45;&gt;62</title>
<path fill="none" stroke="black" d="M2631.68,-364.883C2618.65,-357.559 2602.54,-349.718 2587,-345.391 2575.09,-342.075 2484.42,-346.444 2476,-337.391 2448.33,-307.655 2447.37,-274.809 2476,-246 2488.9,-233.017 3776.18,-242.187 3794,-238 3815.83,-232.871 3838.42,-222.223 3856.41,-212.257"/>
<polygon fill="black" stroke="black" points="3858.42,-215.139 3865.36,-207.14 3854.95,-209.062 3858.42,-215.139"/>
</g>
<!-- 60 -->
<g id="node64" class="node"><title>60</title>
<polygon fill="cyan" stroke="black" stroke-width="2" points="4356.5,-124 4199.5,-124 4199.5,-88 4356.5,-88 4356.5,-124"/>
<text text-anchor="middle" x="4278" y="-102.3" font-family="Times,serif" font-size="14.00">parseRunBackend</text>
</g>
<!-- 61 -->
<g id="node65" class="node"><title>61</title>
<polygon fill="cyan" stroke="black" stroke-width="2" points="3966,-124 3808,-124 3808,-88 3966,-88 3966,-124"/>
<text text-anchor="middle" x="3887" y="-102.3" font-family="Times,serif" font-size="14.00">parseRunFrontend</text>
</g>
<!-- 62&#45;&gt;19 -->
<g id="edge86" class="edge"><title>62&#45;&gt;19</title>
<path fill="none" stroke="black" d="M3807.81,-183.631C3693.16,-177.604 3481.52,-166.211 3301,-155 3086.45,-141.675 2835.16,-123.989 2699.02,-114.233"/>
<polygon fill="black" stroke="black" points="2699.24,-110.74 2689.01,-113.516 2698.74,-117.722 2699.24,-110.74"/>
</g>
<!-- 62&#45;&gt;53 -->
<g id="edge87" class="edge"><title>62&#45;&gt;53</title>
<path fill="none" stroke="black" d="M3807.61,-183.4C3693.76,-177.423 3484.66,-167.251 3306,-163 3261.07,-161.931 1732,-164.146 1688,-155 1663.03,-149.811 1636.75,-138.867 1615.92,-128.737"/>
<polygon fill="black" stroke="black" points="1617.27,-125.499 1606.76,-124.164 1614.14,-131.762 1617.27,-125.499"/>
</g>
<!-- 62&#45;&gt;56 -->
<g id="edge88" class="edge"><title>62&#45;&gt;56</title>
<path fill="none" stroke="black" d="M3807.7,-184.186C3741.88,-180.064 3648.41,-171.689 3568,-155 3535.59,-148.274 3500.3,-137.268 3471.98,-127.491"/>
<polygon fill="black" stroke="black" points="3472.87,-124.093 3462.27,-124.093 3470.56,-130.7 3472.87,-124.093"/>
</g>
<!-- 62&#45;&gt;57 -->
<g id="edge89" class="edge"><title>62&#45;&gt;57</title>
<path fill="none" stroke="black" d="M3936.07,-170.856C3948.68,-165.846 3962.42,-160.293 3975,-155 3995.22,-146.49 4017.4,-136.714 4036.36,-128.215"/>
<polygon fill="black" stroke="black" points="4037.99,-131.321 4045.67,-124.029 4035.12,-124.936 4037.99,-131.321"/>
</g>
<!-- 62&#45;&gt;60 -->
<g id="edge90" class="edge"><title>62&#45;&gt;60</title>
<path fill="none" stroke="black" d="M3947.63,-170.878C3959.84,-167.732 3972.77,-164.859 3985,-163 4030.07,-156.151 4146.05,-167.124 4190,-155 4209.35,-149.661 4229.13,-139.387 4245.03,-129.71"/>
<polygon fill="black" stroke="black" points="4247.3,-132.412 4253.9,-124.122 4243.57,-126.488 4247.3,-132.412"/>
</g>
<!-- 62&#45;&gt;61 -->
<g id="edge91" class="edge"><title>62&#45;&gt;61</title>
<path fill="none" stroke="black" d="M3890.94,-170.822C3890.28,-160.19 3889.43,-146.306 3888.68,-134.204"/>
<polygon fill="black" stroke="black" points="3892.17,-133.919 3888.06,-124.153 3885.18,-134.35 3892.17,-133.919"/>
</g>
</g>
</svg>
