<?xml version="1.0" encoding="UTF-8" standalone="no"?>
<!DOCTYPE svg PUBLIC "-//W3C//DTD SVG 1.1//EN"
 "http://www.w3.org/Graphics/SVG/1.1/DTD/svg11.dtd">
<!-- Generated by graphviz version 2.38.0 (20140413.2041)
 -->
<!-- Title: Core of Thentos.Backend.Core Pages: 1 -->
<svg width="445pt" height="227pt"
 viewBox="0.00 0.00 445.00 226.78" xmlns="http://www.w3.org/2000/svg" xmlns:xlink="http://www.w3.org/1999/xlink">
<g id="graph0" class="graph" transform="scale(1 1) rotate(0) translate(4 222.783)">
<title>Core of Thentos.Backend.Core</title>
<polygon fill="white" stroke="none" points="-4,4 -4,-222.783 441,-222.783 441,4 -4,4"/>
<g id="clust1" class="cluster"><title>cluster_Class_PushActionC</title>
<path fill="#ffc1c1" stroke="black" d="M20,-8C20,-8 417,-8 417,-8 423,-8 429,-14 429,-20 429,-20 429,-198.783 429,-198.783 429,-204.783 423,-210.783 417,-210.783 417,-210.783 20,-210.783 20,-210.783 14,-210.783 8,-204.783 8,-198.783 8,-198.783 8,-20 8,-20 8,-14 14,-8 20,-8"/>
<text text-anchor="middle" x="218.5" y="-195.583" font-family="Times,serif" font-size="14.00">Class: PushActionC</text>
</g>
<g id="clust2" class="cluster"><title>cluster_Class_PushActionC_Data_ab</title>
<path fill="#c6e2ff" stroke="black" d="M28,-96.3913C28,-96.3913 409,-96.3913 409,-96.3913 415,-96.3913 421,-102.391 421,-108.391 421,-108.391 421,-167.783 421,-167.783 421,-173.783 415,-179.783 409,-179.783 409,-179.783 28,-179.783 28,-179.783 22,-179.783 16,-173.783 16,-167.783 16,-167.783 16,-108.391 16,-108.391 16,-102.391 22,-96.3913 28,-96.3913"/>
<text text-anchor="middle" x="218.5" y="-164.583" font-family="Times,serif" font-size="14.00">Instance for: (a :&lt;|&gt; b)</text>
</g>
<!-- 6 -->
<g id="node1" class="node"><title>6</title>
<polygon fill="bisque" stroke="black" stroke-width="2" points="412.719,-117.311 412.719,-135.862 358.405,-148.98 281.595,-148.98 227.281,-135.862 227.281,-117.311 281.595,-104.194 358.405,-104.194 412.719,-117.311"/>
<text text-anchor="middle" x="320" y="-122.887" font-family="Times,serif" font-size="14.00">pushAction</text>
</g>
<!-- 3 -->
<g id="node3" class="node"><title>3</title>
<polygon fill="goldenrod" stroke="black" stroke-width="2" points="310.714,-32.9327 310.714,-51.4586 256.404,-64.5583 179.596,-64.5583 125.286,-51.4586 125.286,-32.9327 179.596,-19.833 256.404,-19.833 310.714,-32.9327"/>
<polygon fill="none" stroke="black" stroke-width="2" points="314.719,-29.7544 314.719,-54.6369 256.877,-68.5884 179.123,-68.5884 121.281,-54.6369 121.281,-29.7544 179.123,-15.8029 256.877,-15.8029 314.719,-29.7544"/>
<text text-anchor="middle" x="218" y="-38.4956" font-family="Times,serif" font-size="14.00">pushAction</text>
</g>
<!-- 6&#45;&gt;3 -->
<g id="edge3" class="edge"><title>6&#45;&gt;3</title>
<path fill="none" stroke="black" d="M287.744,-104.369C275.976,-95.459 262.707,-84.9037 250.892,-75.0911"/>
<polygon fill="black" stroke="black" points="252.889,-72.1979 242.981,-68.4458 248.387,-77.5578 252.889,-72.1979"/>
</g>
<!-- 7 -->
<g id="node2" class="node"><title>7</title>
<polygon fill="bisque" stroke="black" stroke-width="2" points="209.719,-117.311 209.719,-135.862 155.405,-148.98 78.5946,-148.98 24.2811,-135.862 24.2811,-117.311 78.5946,-104.194 155.405,-104.194 209.719,-117.311"/>
<text text-anchor="middle" x="117" y="-122.887" font-family="Times,serif" font-size="14.00">pushAction</text>
</g>
<!-- 7&#45;&gt;3 -->
<g id="edge4" class="edge"><title>7&#45;&gt;3</title>
<path fill="none" stroke="black" stroke-width="1.69315" d="M137.022,-104.369C147.305,-95.3733 160.19,-84.7005 172.662,-74.8083"/>
<polygon fill="black" stroke="black" stroke-width="1.69315" points="175.063,-77.3735 180.768,-68.4458 170.741,-71.8672 175.063,-77.3735"/>
</g>
<!-- 3&#45;&gt;6 -->
<g id="edge1" class="edge"><title>3&#45;&gt;6</title>
<path fill="none" stroke="navy" d="M255.538,-68.4458C270.487,-79.9444 287.052,-93.4028 299.721,-104.369"/>
</g>
<!-- 3&#45;&gt;7 -->
<g id="edge2" class="edge"><title>3&#45;&gt;7</title>
<path fill="none" stroke="navy" d="M193.326,-68.4458C179.944,-79.9444 163.349,-93.4028 148.998,-104.369"/>
</g>
</g>
</svg>
