<?xml version="1.0" encoding="UTF-8" standalone="no"?>
<!DOCTYPE svg PUBLIC "-//W3C//DTD SVG 1.1//EN"
 "http://www.w3.org/Graphics/SVG/1.1/DTD/svg11.dtd">
<!-- Generated by graphviz version 2.38.0 (20140413.2041)
 -->
<!-- Title: Diagram of: Thentos.Backend.Api.Simple Pages: 1 -->
<svg width="691pt" height="484pt"
 viewBox="0.00 0.00 691.00 483.62" xmlns="http://www.w3.org/2000/svg" xmlns:xlink="http://www.w3.org/1999/xlink">
<g id="graph0" class="graph" transform="scale(1 1) rotate(0) translate(4 479.615)">
<title>Diagram of: Thentos.Backend.Api.Simple</title>
<polygon fill="white" stroke="none" points="-4,4 -4,-479.615 687,-479.615 687,4 -4,4"/>
<g id="clust1" class="cluster"><title>cluster_Class_HasDocs</title>
<path fill="#ffc1c1" stroke="black" d="M20,-246.391C20,-246.391 262,-246.391 262,-246.391 268,-246.391 274,-252.391 274,-258.391 274,-258.391 274,-455.615 274,-455.615 274,-461.615 268,-467.615 262,-467.615 262,-467.615 20,-467.615 20,-467.615 14,-467.615 8,-461.615 8,-455.615 8,-455.615 8,-258.391 8,-258.391 8,-252.391 14,-246.391 20,-246.391"/>
<text text-anchor="middle" x="141" y="-452.415" font-family="Times,serif" font-size="14.00">Class: HasDocs</text>
</g>
<g id="clust2" class="cluster"><title>cluster_Class_HasDocs_Data_ThentosAuthsublayout</title>
<path fill="#c6e2ff" stroke="black" d="M41,-254.391C41,-254.391 241,-254.391 241,-254.391 247,-254.391 253,-260.391 253,-266.391 253,-266.391 253,-325.783 253,-325.783 253,-331.783 247,-337.783 241,-337.783 241,-337.783 41,-337.783 41,-337.783 35,-337.783 29,-331.783 29,-325.783 29,-325.783 29,-266.391 29,-266.391 29,-260.391 35,-254.391 41,-254.391"/>
<text text-anchor="middle" x="141" y="-322.583" font-family="Times,serif" font-size="14.00">Instance for: (ThentosAuth sublayout)</text>
</g>
<g id="clust3" class="cluster"><title>cluster_Class_HasServer</title>
<path fill="#ffc1c1" stroke="black" d="M421,-147C421,-147 663,-147 663,-147 669,-147 675,-153 675,-159 675,-159 675,-341.263 675,-341.263 675,-347.263 669,-353.263 663,-353.263 663,-353.263 421,-353.263 421,-353.263 415,-353.263 409,-347.263 409,-341.263 409,-341.263 409,-159 409,-159 409,-153 415,-147 421,-147"/>
<text text-anchor="middle" x="542" y="-338.063" font-family="Times,serif" font-size="14.00">Class: HasServer</text>
</g>
<g id="clust4" class="cluster"><title>cluster_Class_HasServer_Data_ThentosAuthsublayout</title>
<path fill="#c6e2ff" stroke="black" d="M451,-155C451,-155 651,-155 651,-155 657,-155 663,-161 663,-167 663,-167 663,-226.391 663,-226.391 663,-232.391 657,-238.391 651,-238.391 651,-238.391 451,-238.391 451,-238.391 445,-238.391 439,-232.391 439,-226.391 439,-226.391 439,-167 439,-167 439,-161 445,-155 451,-155"/>
<text text-anchor="middle" x="551" y="-223.191" font-family="Times,serif" font-size="14.00">Instance for: (ThentosAuth sublayout)</text>
</g>
<g id="clust5" class="cluster"><title>cluster_Data_ThentosAuth</title>
<path fill="papayawhip" stroke="black" d="M441,-64C441,-64 563,-64 563,-64 569,-64 575,-70 575,-76 575,-76 575,-127 575,-127 575,-133 569,-139 563,-139 563,-139 441,-139 441,-139 435,-139 429,-133 429,-127 429,-127 429,-76 429,-76 429,-70 435,-64 441,-64"/>
<text text-anchor="middle" x="502" y="-123.8" font-family="Times,serif" font-size="14.00">Data: ThentosAuth</text>
</g>
<!-- 4 -->
<g id="node1" class="node"><title>4</title>
<polygon fill="cyan" stroke="black" stroke-width="2" points="219.135,-275.311 219.135,-293.862 173.365,-306.98 108.635,-306.98 62.8651,-293.862 62.8651,-275.311 108.635,-262.194 173.365,-262.194 219.135,-275.311"/>
<text text-anchor="middle" x="141" y="-280.887" font-family="Times,serif" font-size="14.00">docsFor</text>
</g>
<!-- 12 -->
<g id="node2" class="node"><title>12</title>
<polygon fill="khaki" stroke="black" stroke-dasharray="1,5" points="261.858,-384.925 261.858,-412.954 191.061,-432.774 90.9389,-432.774 20.1417,-412.954 20.1417,-384.925 90.9389,-365.105 191.061,-365.105 261.858,-384.925"/>
<polygon fill="none" stroke="black" stroke-dasharray="1,5" points="265.856,-381.872 265.856,-416.006 191.607,-436.792 90.3926,-436.792 16.144,-416.006 16.144,-381.872 90.3926,-361.086 191.607,-361.086 265.856,-381.872"/>
<text text-anchor="middle" x="141" y="-402.739" font-family="Times,serif" font-size="14.00">Unknown Module</text>
<text text-anchor="middle" x="141" y="-387.739" font-family="Times,serif" font-size="14.00">docsFor</text>
</g>
<!-- 12&#45;&gt;4 -->
<g id="edge9" class="edge"><title>12&#45;&gt;4</title>
<path fill="none" stroke="navy" d="M141,-361.151C141,-343.232 141,-322.312 141,-307.034"/>
</g>
<!-- 5 -->
<g id="node3" class="node"><title>5</title>
<polygon fill="bisque" stroke="black" stroke-width="2" points="579.644,-175.92 579.644,-194.471 541.19,-207.589 486.81,-207.589 448.356,-194.471 448.356,-175.92 486.81,-162.803 541.19,-162.803 579.644,-175.92"/>
<text text-anchor="middle" x="514" y="-181.496" font-family="Times,serif" font-size="14.00">route</text>
</g>
<!-- 1 -->
<g id="node5" class="node"><title>1</title>
<polygon fill="cyan" stroke="black" stroke-width="2" points="566.5,-108 441.5,-108 437.5,-104 437.5,-72 562.5,-72 566.5,-76 566.5,-108"/>
<polyline fill="none" stroke="black" stroke-width="2" points="562.5,-104 437.5,-104 "/>
<polyline fill="none" stroke="black" stroke-width="2" points="562.5,-104 562.5,-72 "/>
<polyline fill="none" stroke="black" stroke-width="2" points="562.5,-104 566.5,-108 "/>
<text text-anchor="middle" x="502" y="-86.3" font-family="Times,serif" font-size="14.00">ThentosAuth</text>
</g>
<!-- 5&#45;&gt;1 -->
<g id="edge3" class="edge"><title>5&#45;&gt;1</title>
<path fill="none" stroke="black" d="M511.217,-162.58C509.517,-149.383 507.329,-132.39 505.512,-118.272"/>
<polygon fill="black" stroke="black" points="508.956,-117.619 504.208,-108.148 502.014,-118.513 508.956,-117.619"/>
</g>
<!-- 13 -->
<g id="node4" class="node"><title>13</title>
<polygon fill="khaki" stroke="black" stroke-dasharray="1,5" points="662.858,-270.572 662.858,-298.602 592.061,-318.421 491.939,-318.421 421.142,-298.602 421.142,-270.572 491.939,-250.753 592.061,-250.753 662.858,-270.572"/>
<polygon fill="none" stroke="black" stroke-dasharray="1,5" points="666.856,-267.52 666.856,-301.654 592.607,-322.44 491.393,-322.44 417.144,-301.654 417.144,-267.52 491.393,-246.734 592.607,-246.734 666.856,-267.52"/>
<text text-anchor="middle" x="542" y="-288.387" font-family="Times,serif" font-size="14.00">Unknown Module</text>
<text text-anchor="middle" x="542" y="-273.387" font-family="Times,serif" font-size="14.00">route</text>
</g>
<!-- 13&#45;&gt;5 -->
<g id="edge10" class="edge"><title>13&#45;&gt;5</title>
<path fill="none" stroke="navy" d="M531.414,-246.767C527.605,-233.516 523.436,-219.016 520.132,-207.525"/>
</g>
<!-- 2 -->
<g id="node6" class="node"><title>2</title>
<polygon fill="gold" stroke="black" stroke-width="2" points="529.5,-416.939 426.5,-416.939 426.5,-380.939 529.5,-380.939 529.5,-416.939"/>
<text text-anchor="middle" x="478" y="-395.239" font-family="Times,serif" font-size="14.00">apiDocs</text>
</g>
<!-- 3 -->
<g id="node7" class="node"><title>3</title>
<polygon fill="bisque" stroke="black" stroke-width="2" points="388,-203.196 310,-203.196 310,-167.196 388,-167.196 388,-203.196"/>
<text text-anchor="middle" x="349" y="-181.496" font-family="Times,serif" font-size="14.00">app</text>
</g>
<!-- 3&#45;&gt;1 -->
<g id="edge1" class="edge"><title>3&#45;&gt;1</title>
<path fill="none" stroke="black" d="M377.063,-167.102C401.787,-152.042 437.98,-129.996 465.054,-113.504"/>
<polygon fill="black" stroke="black" points="467.137,-116.334 473.857,-108.143 463.496,-110.356 467.137,-116.334"/>
</g>
<!-- 8 -->
<g id="node10" class="node"><title>8</title>
<polygon fill="bisque" stroke="black" stroke-width="2" points="413,-108 285,-108 285,-72 413,-72 413,-108"/>
<text text-anchor="middle" x="349" y="-86.3" font-family="Times,serif" font-size="14.00">thentosBasic</text>
</g>
<!-- 3&#45;&gt;8 -->
<g id="edge2" class="edge"><title>3&#45;&gt;8</title>
<path fill="none" stroke="black" d="M349,-167.102C349,-153.525 349,-134.271 349,-118.527"/>
<polygon fill="black" stroke="black" points="352.5,-118.301 349,-108.301 345.5,-118.301 352.5,-118.301"/>
</g>
<!-- 6 -->
<g id="node8" class="node"><title>6</title>
<polygon fill="gold" stroke="black" stroke-width="2" points="408,-416.939 284,-416.939 284,-380.939 408,-380.939 408,-416.939"/>
<text text-anchor="middle" x="346" y="-395.239" font-family="Times,serif" font-size="14.00">runBackend</text>
</g>
<!-- 7 -->
<g id="node9" class="node"><title>7</title>
<polygon fill="goldenrod" stroke="black" stroke-width="2" points="399.5,-302.587 292.5,-302.587 292.5,-266.587 399.5,-266.587 399.5,-302.587"/>
<text text-anchor="middle" x="346" y="-280.887" font-family="Times,serif" font-size="14.00">serveApi</text>
</g>
<!-- 6&#45;&gt;7 -->
<g id="edge4" class="edge"><title>6&#45;&gt;7</title>
<path fill="none" stroke="chartreuse" d="M346,-380.875C346,-362.81 346,-334.032 346,-312.824"/>
<polygon fill="chartreuse" stroke="chartreuse" points="349.5,-312.811 346,-302.811 342.5,-312.811 349.5,-312.811"/>
</g>
<!-- 7&#45;&gt;3 -->
<g id="edge5" class="edge"><title>7&#45;&gt;3</title>
<path fill="none" stroke="chartreuse" d="M346.536,-266.175C346.984,-251.634 347.631,-230.637 348.15,-213.806"/>
<polygon fill="chartreuse" stroke="chartreuse" points="351.659,-213.56 348.468,-203.457 344.662,-213.344 351.659,-213.56"/>
</g>
<!-- 9 -->
<g id="node11" class="node"><title>9</title>
<polygon fill="cyan" stroke="black" stroke-width="2" points="261,-36 123,-36 123,-0 261,-0 261,-36"/>
<text text-anchor="middle" x="192" y="-14.3" font-family="Times,serif" font-size="14.00">thentosService</text>
</g>
<!-- 8&#45;&gt;9 -->
<g id="edge6" class="edge"><title>8&#45;&gt;9</title>
<path fill="none" stroke="black" d="M310.593,-71.8761C289.131,-62.3066 262.202,-50.3001 239.432,-40.1478"/>
<polygon fill="black" stroke="black" points="240.84,-36.9439 230.282,-36.0683 237.99,-43.3372 240.84,-36.9439"/>
</g>
<!-- 10 -->
<g id="node12" class="node"><title>10</title>
<polygon fill="cyan" stroke="black" stroke-width="2" points="418.5,-36 279.5,-36 279.5,-0 418.5,-0 418.5,-36"/>
<text text-anchor="middle" x="349" y="-14.3" font-family="Times,serif" font-size="14.00">thentosSession</text>
</g>
<!-- 8&#45;&gt;10 -->
<g id="edge7" class="edge"><title>8&#45;&gt;10</title>
<path fill="none" stroke="black" d="M349,-71.6966C349,-63.9827 349,-54.7125 349,-46.1124"/>
<polygon fill="black" stroke="black" points="352.5,-46.1043 349,-36.1043 345.5,-46.1044 352.5,-46.1043"/>
</g>
<!-- 11 -->
<g id="node13" class="node"><title>11</title>
<polygon fill="cyan" stroke="black" stroke-width="2" points="559.5,-36 436.5,-36 436.5,-0 559.5,-0 559.5,-36"/>
<text text-anchor="middle" x="498" y="-14.3" font-family="Times,serif" font-size="14.00">thentosUser</text>
</g>
<!-- 8&#45;&gt;11 -->
<g id="edge8" class="edge"><title>8&#45;&gt;11</title>
<path fill="none" stroke="black" d="M385.45,-71.8761C405.638,-62.3917 430.921,-50.5134 452.408,-40.419"/>
<polygon fill="black" stroke="black" points="454.106,-43.4883 461.669,-36.0683 451.13,-37.1527 454.106,-43.4883"/>
</g>
</g>
</svg>
