<?xml version="1.0" encoding="UTF-8" standalone="no"?>
<!DOCTYPE svg PUBLIC "-//W3C//DTD SVG 1.1//EN"
 "http://www.w3.org/Graphics/SVG/1.1/DTD/svg11.dtd">
<!-- Generated by graphviz version 2.38.0 (20140413.2041)
 -->
<!-- Title: Levels within Thentos.Types Pages: 1 -->
<svg width="14895pt" height="222pt"
 viewBox="0.00 0.00 14895.00 221.74" xmlns="http://www.w3.org/2000/svg" xmlns:xlink="http://www.w3.org/1999/xlink">
<g id="graph0" class="graph" transform="scale(1 1) rotate(0) translate(4 217.744)">
<title>Levels within Thentos.Types</title>
<polygon fill="white" stroke="none" points="-4,4 -4,-217.744 14891,-217.744 14891,4 -4,4"/>
<g id="clust1" class="cluster"><title>cluster_0</title>
<polygon fill="lavender" stroke="black" points="8,-12.1956 8,-205.744 5731,-205.744 5731,-12.1956 8,-12.1956"/>
<text text-anchor="middle" x="2869.5" y="-190.544" font-family="Times,serif" font-size="14.00">Exported root entities</text>
</g>
<g id="clust2" class="cluster"><title>cluster_1</title>
<polygon fill="lavender" stroke="black" points="5739,-8 5739,-91.3913 14879,-91.3913 14879,-8 5739,-8"/>
<text text-anchor="middle" x="10309" y="-76.1913" font-family="Times,serif" font-size="14.00">Level = 1</text>
</g>
<!-- 1 -->
<g id="node1" class="node"><title>1</title>
<polygon fill="gold" stroke="black" stroke-width="2" points="5723,-155.067 5527,-155.067 5523,-151.067 5523,-119.067 5719,-119.067 5723,-123.067 5723,-155.067"/>
<polyline fill="none" stroke="black" stroke-width="2" points="5719,-151.067 5523,-151.067 "/>
<polyline fill="none" stroke="black" stroke-width="2" points="5719,-151.067 5719,-119.067 "/>
<polyline fill="none" stroke="black" stroke-width="2" points="5719,-151.067 5723,-155.067 "/>
<text text-anchor="middle" x="5623" y="-133.367" font-family="Times,serif" font-size="14.00">Data: ConfirmationToken</text>
</g>
<!-- 2 -->
<g id="node2" class="node"><title>2</title>
<polygon fill="gold" stroke="black" stroke-width="2" points="5505,-155.067 5399,-155.067 5395,-151.067 5395,-119.067 5501,-119.067 5505,-123.067 5505,-155.067"/>
<polyline fill="none" stroke="black" stroke-width="2" points="5501,-151.067 5395,-151.067 "/>
<polyline fill="none" stroke="black" stroke-width="2" points="5501,-151.067 5501,-119.067 "/>
<polyline fill="none" stroke="black" stroke-width="2" points="5501,-151.067 5505,-155.067 "/>
<text text-anchor="middle" x="5450" y="-133.367" font-family="Times,serif" font-size="14.00">Data: DB</text>
</g>
<!-- 3 -->
<g id="node3" class="node"><title>3</title>
<polygon fill="gold" stroke="black" stroke-width="2" points="5377,-155.067 5255,-155.067 5251,-151.067 5251,-119.067 5373,-119.067 5377,-123.067 5377,-155.067"/>
<polyline fill="none" stroke="black" stroke-width="2" points="5373,-151.067 5251,-151.067 "/>
<polyline fill="none" stroke="black" stroke-width="2" points="5373,-151.067 5373,-119.067 "/>
<polyline fill="none" stroke="black" stroke-width="2" points="5373,-151.067 5377,-155.067 "/>
<text text-anchor="middle" x="5314" y="-133.367" font-family="Times,serif" font-size="14.00">Data: Group</text>
</g>
<!-- 4 -->
<g id="node4" class="node"><title>4</title>
<polygon fill="goldenrod" stroke="black" stroke-width="2" points="1827,-155.067 1665,-155.067 1661,-151.067 1661,-119.067 1823,-119.067 1827,-123.067 1827,-155.067"/>
<polyline fill="none" stroke="black" stroke-width="2" points="1823,-151.067 1661,-151.067 "/>
<polyline fill="none" stroke="black" stroke-width="2" points="1823,-151.067 1823,-119.067 "/>
<polyline fill="none" stroke="black" stroke-width="2" points="1823,-151.067 1827,-155.067 "/>
<text text-anchor="middle" x="1744" y="-133.367" font-family="Times,serif" font-size="14.00">Data: HashedSecret</text>
</g>
<!-- 5 -->
<g id="node5" class="node"><title>5</title>
<polygon fill="gold" stroke="black" stroke-width="2" points="4965.5,-155.067 4852.5,-155.067 4848.5,-151.067 4848.5,-119.067 4961.5,-119.067 4965.5,-123.067 4965.5,-155.067"/>
<polyline fill="none" stroke="black" stroke-width="2" points="4961.5,-151.067 4848.5,-151.067 "/>
<polyline fill="none" stroke="black" stroke-width="2" points="4961.5,-151.067 4961.5,-119.067 "/>
<polyline fill="none" stroke="black" stroke-width="2" points="4961.5,-151.067 4965.5,-155.067 "/>
<text text-anchor="middle" x="4907" y="-133.367" font-family="Times,serif" font-size="14.00">Data: Role</text>
</g>
<!-- 6 -->
<g id="node6" class="node"><title>6</title>
<polygon fill="gold" stroke="black" stroke-width="2" points="4830,-155.067 4702,-155.067 4698,-151.067 4698,-119.067 4826,-119.067 4830,-123.067 4830,-155.067"/>
<polyline fill="none" stroke="black" stroke-width="2" points="4826,-151.067 4698,-151.067 "/>
<polyline fill="none" stroke="black" stroke-width="2" points="4826,-151.067 4826,-119.067 "/>
<polyline fill="none" stroke="black" stroke-width="2" points="4826,-151.067 4830,-155.067 "/>
<text text-anchor="middle" x="4764" y="-133.367" font-family="Times,serif" font-size="14.00">Data: Service</text>
</g>
<!-- 7 -->
<g id="node7" class="node"><title>7</title>
<polygon fill="gold" stroke="black" stroke-width="2" points="4679.5,-155.067 4558.5,-155.067 4554.5,-151.067 4554.5,-119.067 4675.5,-119.067 4679.5,-123.067 4679.5,-155.067"/>
<polyline fill="none" stroke="black" stroke-width="2" points="4675.5,-151.067 4554.5,-151.067 "/>
<polyline fill="none" stroke="black" stroke-width="2" points="4675.5,-151.067 4675.5,-119.067 "/>
<polyline fill="none" stroke="black" stroke-width="2" points="4675.5,-151.067 4679.5,-155.067 "/>
<text text-anchor="middle" x="4617" y="-133.367" font-family="Times,serif" font-size="14.00">Data: Agent</text>
</g>
<!-- 8 -->
<g id="node8" class="node"><title>8</title>
<polygon fill="goldenrod" stroke="black" stroke-width="2" points="1216.5,-155.067 1077.5,-155.067 1073.5,-151.067 1073.5,-119.067 1212.5,-119.067 1216.5,-123.067 1216.5,-155.067"/>
<polyline fill="none" stroke="black" stroke-width="2" points="1212.5,-151.067 1073.5,-151.067 "/>
<polyline fill="none" stroke="black" stroke-width="2" points="1212.5,-151.067 1212.5,-119.067 "/>
<polyline fill="none" stroke="black" stroke-width="2" points="1212.5,-151.067 1216.5,-155.067 "/>
<text text-anchor="middle" x="1145" y="-133.367" font-family="Times,serif" font-size="14.00">Data: ServiceId</text>
</g>
<!-- 9 -->
<g id="node9" class="node"><title>9</title>
<polygon fill="gold" stroke="black" stroke-width="2" points="4269.5,-155.067 4118.5,-155.067 4114.5,-151.067 4114.5,-119.067 4265.5,-119.067 4269.5,-123.067 4269.5,-155.067"/>
<polyline fill="none" stroke="black" stroke-width="2" points="4265.5,-151.067 4114.5,-151.067 "/>
<polyline fill="none" stroke="black" stroke-width="2" points="4265.5,-151.067 4265.5,-119.067 "/>
<polyline fill="none" stroke="black" stroke-width="2" points="4265.5,-151.067 4269.5,-155.067 "/>
<text text-anchor="middle" x="4192" y="-133.367" font-family="Times,serif" font-size="14.00">Data: ServiceKey</text>
</g>
<!-- 10 -->
<g id="node10" class="node"><title>10</title>
<polygon fill="gold" stroke="black" stroke-width="2" points="4096.5,-155.067 3967.5,-155.067 3963.5,-151.067 3963.5,-119.067 4092.5,-119.067 4096.5,-123.067 4096.5,-155.067"/>
<polyline fill="none" stroke="black" stroke-width="2" points="4092.5,-151.067 3963.5,-151.067 "/>
<polyline fill="none" stroke="black" stroke-width="2" points="4092.5,-151.067 4092.5,-119.067 "/>
<polyline fill="none" stroke="black" stroke-width="2" points="4092.5,-151.067 4096.5,-155.067 "/>
<text text-anchor="middle" x="4030" y="-133.367" font-family="Times,serif" font-size="14.00">Data: Session</text>
</g>
<!-- 11 -->
<g id="node11" class="node"><title>11</title>
<polygon fill="gold" stroke="black" stroke-width="2" points="3945.5,-155.067 3782.5,-155.067 3778.5,-151.067 3778.5,-119.067 3941.5,-119.067 3945.5,-123.067 3945.5,-155.067"/>
<polyline fill="none" stroke="black" stroke-width="2" points="3941.5,-151.067 3778.5,-151.067 "/>
<polyline fill="none" stroke="black" stroke-width="2" points="3941.5,-151.067 3941.5,-119.067 "/>
<polyline fill="none" stroke="black" stroke-width="2" points="3941.5,-151.067 3945.5,-155.067 "/>
<text text-anchor="middle" x="3862" y="-133.367" font-family="Times,serif" font-size="14.00">Data: SessionToken</text>
</g>
<!-- 12 -->
<g id="node12" class="node"><title>12</title>
<polygon fill="goldenrod" stroke="black" stroke-width="2" points="2218.5,-155.067 2033.5,-155.067 2029.5,-151.067 2029.5,-119.067 2214.5,-119.067 2218.5,-123.067 2218.5,-155.067"/>
<polyline fill="none" stroke="black" stroke-width="2" points="2214.5,-151.067 2029.5,-151.067 "/>
<polyline fill="none" stroke="black" stroke-width="2" points="2214.5,-151.067 2214.5,-119.067 "/>
<polyline fill="none" stroke="black" stroke-width="2" points="2214.5,-151.067 2218.5,-155.067 "/>
<text text-anchor="middle" x="2124" y="-133.367" font-family="Times,serif" font-size="14.00">Data: ThentosClearance</text>
</g>
<!-- 13 -->
<g id="node13" class="node"><title>13</title>
<polygon fill="goldenrod" stroke="black" stroke-width="2" points="2011,-155.067 1849,-155.067 1845,-151.067 1845,-119.067 2007,-119.067 2011,-123.067 2011,-155.067"/>
<polyline fill="none" stroke="black" stroke-width="2" points="2007,-151.067 1845,-151.067 "/>
<polyline fill="none" stroke="black" stroke-width="2" points="2007,-151.067 2007,-119.067 "/>
<polyline fill="none" stroke="black" stroke-width="2" points="2007,-151.067 2011,-155.067 "/>
<text text-anchor="middle" x="1928" y="-133.367" font-family="Times,serif" font-size="14.00">Data: ThentosLabel</text>
</g>
<!-- 14 -->
<g id="node14" class="node"><title>14</title>
<polygon fill="gold" stroke="black" stroke-width="2" points="3225.5,-155.067 3050.5,-155.067 3046.5,-151.067 3046.5,-119.067 3221.5,-119.067 3225.5,-123.067 3225.5,-155.067"/>
<polyline fill="none" stroke="black" stroke-width="2" points="3221.5,-151.067 3046.5,-151.067 "/>
<polyline fill="none" stroke="black" stroke-width="2" points="3221.5,-151.067 3221.5,-119.067 "/>
<polyline fill="none" stroke="black" stroke-width="2" points="3221.5,-151.067 3225.5,-155.067 "/>
<text text-anchor="middle" x="3136" y="-133.367" font-family="Times,serif" font-size="14.00">Data: ThentosLabeled</text>
</g>
<!-- 15 -->
<g id="node15" class="node"><title>15</title>
<polygon fill="goldenrod" stroke="black" stroke-width="2" points="623,-56.1956 471,-56.1956 467,-52.1956 467,-20.1956 619,-20.1956 623,-24.1956 623,-56.1956"/>
<polyline fill="none" stroke="black" stroke-width="2" points="619,-52.1956 467,-52.1956 "/>
<polyline fill="none" stroke="black" stroke-width="2" points="619,-52.1956 619,-20.1956 "/>
<polyline fill="none" stroke="black" stroke-width="2" points="619,-52.1956 623,-56.1956 "/>
<text text-anchor="middle" x="545" y="-34.4956" font-family="Times,serif" font-size="14.00">Data: TimeStamp</text>
</g>
<!-- 16 -->
<g id="node16" class="node"><title>16</title>
<polygon fill="goldenrod" stroke="black" stroke-width="2" points="246,-56.1956 112,-56.1956 108,-52.1956 108,-20.1956 242,-20.1956 246,-24.1956 246,-56.1956"/>
<polyline fill="none" stroke="black" stroke-width="2" points="242,-52.1956 108,-52.1956 "/>
<polyline fill="none" stroke="black" stroke-width="2" points="242,-52.1956 242,-20.1956 "/>
<polyline fill="none" stroke="black" stroke-width="2" points="242,-52.1956 246,-56.1956 "/>
<text text-anchor="middle" x="177" y="-34.4956" font-family="Times,serif" font-size="14.00">Data: Timeout</text>
</g>
<!-- 17 -->
<g id="node17" class="node"><title>17</title>
<polygon fill="gold" stroke="black" stroke-width="2" points="3028.5,-155.067 2915.5,-155.067 2911.5,-151.067 2911.5,-119.067 3024.5,-119.067 3028.5,-123.067 3028.5,-155.067"/>
<polyline fill="none" stroke="black" stroke-width="2" points="3024.5,-151.067 2911.5,-151.067 "/>
<polyline fill="none" stroke="black" stroke-width="2" points="3024.5,-151.067 3024.5,-119.067 "/>
<polyline fill="none" stroke="black" stroke-width="2" points="3024.5,-151.067 3028.5,-155.067 "/>
<text text-anchor="middle" x="2970" y="-133.367" font-family="Times,serif" font-size="14.00">Data: User</text>
</g>
<!-- 19 -->
<g id="node18" class="node"><title>19</title>
<polygon fill="gold" stroke="black" stroke-width="2" points="2893,-155.067 2747,-155.067 2743,-151.067 2743,-119.067 2889,-119.067 2893,-123.067 2893,-155.067"/>
<polyline fill="none" stroke="black" stroke-width="2" points="2889,-151.067 2743,-151.067 "/>
<polyline fill="none" stroke="black" stroke-width="2" points="2889,-151.067 2889,-119.067 "/>
<polyline fill="none" stroke="black" stroke-width="2" points="2889,-151.067 2893,-155.067 "/>
<text text-anchor="middle" x="2818" y="-133.367" font-family="Times,serif" font-size="14.00">Data: UserEmail</text>
</g>
<!-- 20 -->
<g id="node19" class="node"><title>20</title>
<polygon fill="gold" stroke="black" stroke-width="2" points="2724.5,-155.067 2555.5,-155.067 2551.5,-151.067 2551.5,-119.067 2720.5,-119.067 2724.5,-123.067 2724.5,-155.067"/>
<polyline fill="none" stroke="black" stroke-width="2" points="2720.5,-151.067 2551.5,-151.067 "/>
<polyline fill="none" stroke="black" stroke-width="2" points="2720.5,-151.067 2720.5,-119.067 "/>
<polyline fill="none" stroke="black" stroke-width="2" points="2720.5,-151.067 2724.5,-155.067 "/>
<text text-anchor="middle" x="2638" y="-133.367" font-family="Times,serif" font-size="14.00">Data: UserFormData</text>
</g>
<!-- 21 -->
<g id="node20" class="node"><title>21</title>
<polygon fill="gold" stroke="black" stroke-width="2" points="2533,-155.067 2409,-155.067 2405,-151.067 2405,-119.067 2529,-119.067 2533,-123.067 2533,-155.067"/>
<polyline fill="none" stroke="black" stroke-width="2" points="2529,-151.067 2405,-151.067 "/>
<polyline fill="none" stroke="black" stroke-width="2" points="2529,-151.067 2529,-119.067 "/>
<polyline fill="none" stroke="black" stroke-width="2" points="2529,-151.067 2533,-155.067 "/>
<text text-anchor="middle" x="2469" y="-133.367" font-family="Times,serif" font-size="14.00">Data: UserId</text>
</g>
<!-- 22 -->
<g id="node21" class="node"><title>22</title>
<polygon fill="gold" stroke="black" stroke-width="2" points="2387,-155.067 2241,-155.067 2237,-151.067 2237,-119.067 2383,-119.067 2387,-123.067 2387,-155.067"/>
<polyline fill="none" stroke="black" stroke-width="2" points="2383,-151.067 2237,-151.067 "/>
<polyline fill="none" stroke="black" stroke-width="2" points="2383,-151.067 2383,-119.067 "/>
<polyline fill="none" stroke="black" stroke-width="2" points="2383,-151.067 2387,-155.067 "/>
<text text-anchor="middle" x="2312" y="-133.367" font-family="Times,serif" font-size="14.00">Data: UserName</text>
</g>
<!-- 23 -->
<g id="node22" class="node"><title>23</title>
<polygon fill="goldenrod" stroke="black" stroke-width="2" points="1642.5,-155.067 1505.5,-155.067 1501.5,-151.067 1501.5,-119.067 1638.5,-119.067 1642.5,-123.067 1642.5,-155.067"/>
<polyline fill="none" stroke="black" stroke-width="2" points="1638.5,-151.067 1501.5,-151.067 "/>
<polyline fill="none" stroke="black" stroke-width="2" points="1638.5,-151.067 1638.5,-119.067 "/>
<polyline fill="none" stroke="black" stroke-width="2" points="1638.5,-151.067 1642.5,-155.067 "/>
<text text-anchor="middle" x="1572" y="-133.367" font-family="Times,serif" font-size="14.00">Data: UserPass</text>
</g>
<!-- 83 -->
<g id="node23" class="node"><title>83</title>
<polygon fill="goldenrod" stroke="black" stroke-width="2" points="733,-155.067 551,-155.067 551,-119.067 733,-119.067 733,-155.067"/>
<text text-anchor="middle" x="642" y="-133.367" font-family="Times,serif" font-size="14.00">timeStampFromString</text>
</g>
<!-- 83&#45;&gt;15 -->
<g id="edge12" class="edge"><title>83&#45;&gt;15</title>
<path fill="none" stroke="black" d="M624.658,-118.749C609.347,-103.458 586.852,-80.9923 569.668,-63.8312"/>
<polygon fill="black" stroke="black" points="571.741,-60.9543 562.192,-56.3644 566.794,-65.9074 571.741,-60.9543"/>
</g>
<!-- 84 -->
<g id="node24" class="node"><title>84</title>
<polygon fill="goldenrod" stroke="black" stroke-width="2" points="532.5,-155.067 365.5,-155.067 365.5,-119.067 532.5,-119.067 532.5,-155.067"/>
<text text-anchor="middle" x="449" y="-133.367" font-family="Times,serif" font-size="14.00">timeStampToString</text>
</g>
<!-- 84&#45;&gt;15 -->
<g id="edge13" class="edge"><title>84&#45;&gt;15</title>
<path fill="none" stroke="black" d="M466.163,-118.749C481.316,-103.458 503.579,-80.9923 520.586,-63.8312"/>
<polygon fill="black" stroke="black" points="523.433,-65.9311 527.986,-56.3644 518.461,-61.0037 523.433,-65.9311"/>
</g>
<!-- 85 -->
<g id="node25" class="node"><title>85</title>
<polygon fill="goldenrod" stroke="black" stroke-width="2" points="347,-155.067 183,-155.067 183,-119.067 347,-119.067 347,-155.067"/>
<text text-anchor="middle" x="265" y="-133.367" font-family="Times,serif" font-size="14.00">timeoutFromString</text>
</g>
<!-- 85&#45;&gt;16 -->
<g id="edge14" class="edge"><title>85&#45;&gt;16</title>
<path fill="none" stroke="black" d="M249.267,-118.749C235.377,-103.458 214.969,-80.9923 199.379,-63.8312"/>
<polygon fill="black" stroke="black" points="201.911,-61.4129 192.596,-56.3644 196.73,-66.1198 201.911,-61.4129"/>
</g>
<!-- 86 -->
<g id="node26" class="node"><title>86</title>
<polygon fill="goldenrod" stroke="black" stroke-width="2" points="164.5,-155.067 15.5,-155.067 15.5,-119.067 164.5,-119.067 164.5,-155.067"/>
<text text-anchor="middle" x="90" y="-133.367" font-family="Times,serif" font-size="14.00">timeoutToString</text>
</g>
<!-- 86&#45;&gt;16 -->
<g id="edge15" class="edge"><title>86&#45;&gt;16</title>
<path fill="none" stroke="black" d="M105.554,-118.749C119.286,-103.458 139.463,-80.9923 154.875,-63.8312"/>
<polygon fill="black" stroke="black" points="157.503,-66.1431 161.581,-56.3644 152.295,-61.4658 157.503,-66.1431"/>
</g>
<!-- 98 -->
<g id="node27" class="node"><title>98</title>
<polygon fill="khaki" stroke="black" stroke-dasharray="5,2" points="1051.46,-123.053 1051.46,-151.082 964.495,-170.902 841.505,-170.902 754.537,-151.082 754.537,-123.053 841.505,-103.233 964.495,-103.233 1051.46,-123.053"/>
<polygon fill="none" stroke="black" stroke-dasharray="5,2" points="1055.46,-119.843 1055.46,-154.291 964.943,-174.921 841.057,-174.921 750.538,-154.291 750.538,-119.843 841.057,-99.2143 964.943,-99.2143 1055.46,-119.843"/>
<text text-anchor="middle" x="903" y="-140.867" font-family="Times,serif" font-size="14.00">Data.Configurator.Types</text>
<text text-anchor="middle" x="903" y="-125.867" font-family="Times,serif" font-size="14.00">Class: Configured</text>
</g>
<!-- 44 -->
<g id="node35" class="node"><title>44</title>
<polygon fill="bisque" stroke="black" stroke-width="2" points="7681.65,-28.9201 7681.65,-47.4711 7569.97,-60.5887 7412.03,-60.5887 7300.35,-47.4711 7300.35,-28.9201 7412.03,-15.8026 7569.97,-15.8026 7681.65,-28.9201"/>
<text text-anchor="middle" x="7491" y="-34.4956" font-family="Times,serif" font-size="14.00">Class: Configured, Data: ServiceId</text>
</g>
<!-- 98&#45;&gt;44 -->
<g id="edge18" class="edge"><title>98&#45;&gt;44</title>
<path fill="none" stroke="navy" stroke-width="1.69315" d="M1007.21,-108.781C1025.99,-104.881 1045.48,-101.486 1064,-99.3913 1235.88,-79.9502 7119.45,-113.52 7291,-91.3913 7337.09,-85.4461 7387.73,-72.1592 7426.52,-60.4797"/>
</g>
<!-- 99 -->
<g id="node28" class="node"><title>99</title>
<polygon fill="khaki" stroke="black" stroke-dasharray="1,5" points="5228.86,-123.053 5228.86,-151.082 5158.06,-170.902 5057.94,-170.902 4987.14,-151.082 4987.14,-123.053 5057.94,-103.233 5158.06,-103.233 5228.86,-123.053"/>
<polygon fill="none" stroke="black" stroke-dasharray="1,5" points="5232.86,-120 5232.86,-154.135 5158.61,-174.921 5057.39,-174.921 4983.14,-154.135 4983.14,-120 5057.39,-99.2143 5158.61,-99.2143 5232.86,-120"/>
<text text-anchor="middle" x="5108" y="-140.867" font-family="Times,serif" font-size="14.00">Unknown Module</text>
<text text-anchor="middle" x="5108" y="-125.867" font-family="Times,serif" font-size="14.00">Class: Label</text>
</g>
<!-- 42 -->
<g id="node33" class="node"><title>42</title>
<polygon fill="bisque" stroke="black" stroke-width="2" points="12327.1,-28.9201 12327.1,-47.4711 12208.7,-60.5887 12041.3,-60.5887 11922.9,-47.4711 11922.9,-28.9201 12041.3,-15.8026 12208.7,-15.8026 12327.1,-28.9201"/>
<text text-anchor="middle" x="12125" y="-34.4956" font-family="Times,serif" font-size="14.00">Class: Label, Data: ThentosClearance</text>
</g>
<!-- 99&#45;&gt;42 -->
<g id="edge19" class="edge"><title>99&#45;&gt;42</title>
<path fill="none" stroke="navy" stroke-width="2.09861" d="M5193.8,-108.967C5209.68,-104.99 5226.22,-101.521 5242,-99.3913 5333.82,-86.9964 11821,-102.603 11913,-91.3913 11961.7,-85.4516 12015.4,-72.1646 12056.6,-60.4838"/>
</g>
<!-- 43 -->
<g id="node34" class="node"><title>43</title>
<polygon fill="bisque" stroke="black" stroke-width="2" points="11904.4,-28.9201 11904.4,-47.4711 11796.4,-60.5887 11643.6,-60.5887 11535.6,-47.4711 11535.6,-28.9201 11643.6,-15.8026 11796.4,-15.8026 11904.4,-28.9201"/>
<text text-anchor="middle" x="11720" y="-34.4956" font-family="Times,serif" font-size="14.00">Class: Label, Data: ThentosLabel</text>
</g>
<!-- 99&#45;&gt;43 -->
<g id="edge20" class="edge"><title>99&#45;&gt;43</title>
<path fill="none" stroke="navy" stroke-width="2.09861" d="M5193.8,-108.968C5209.68,-104.991 5226.22,-101.521 5242,-99.3913 5415.01,-76.0296 11354,-114.49 11527,-91.3913 11571.6,-85.4439 11620.4,-72.1571 11657.8,-60.4781"/>
</g>
<!-- 100 -->
<g id="node29" class="node"><title>100</title>
<polygon fill="khaki" stroke="black" stroke-dasharray="1,5" points="4532.86,-123.053 4532.86,-151.082 4462.06,-170.902 4361.94,-170.902 4291.14,-151.082 4291.14,-123.053 4361.94,-103.233 4462.06,-103.233 4532.86,-123.053"/>
<polygon fill="none" stroke="black" stroke-dasharray="1,5" points="4536.86,-120 4536.86,-154.135 4462.61,-174.921 4361.39,-174.921 4287.14,-154.135 4287.14,-120 4361.39,-99.2143 4462.61,-99.2143 4536.86,-120"/>
<text text-anchor="middle" x="4412" y="-140.867" font-family="Times,serif" font-size="14.00">Unknown Module</text>
<text text-anchor="middle" x="4412" y="-125.867" font-family="Times,serif" font-size="14.00">Class: SafeCopy</text>
</g>
<!-- 59 -->
<g id="node36" class="node"><title>59</title>
<polygon fill="bisque" stroke="black" stroke-width="2" points="10849.7,-28.9201 10849.7,-47.4711 10723.3,-60.5887 10544.7,-60.5887 10418.3,-47.4711 10418.3,-28.9201 10544.7,-15.8026 10723.3,-15.8026 10849.7,-28.9201"/>
<text text-anchor="middle" x="10634" y="-34.4956" font-family="Times,serif" font-size="14.00">Class: SafeCopy, Data: (HashedSecret a)</text>
</g>
<!-- 100&#45;&gt;59 -->
<g id="edge21" class="edge"><title>100&#45;&gt;59</title>
<path fill="none" stroke="navy" stroke-width="1.69315" d="M4497.51,-108.879C4513.16,-104.94 4529.45,-101.506 4545,-99.3913 4706.4,-77.4327 10247.2,-110.027 10409,-91.3913 10460.7,-85.4388 10517.8,-72.112 10561.5,-60.4152"/>
</g>
<!-- 60 -->
<g id="node37" class="node"><title>60</title>
<polygon fill="cyan" stroke="black" stroke-width="2" points="14871,-28.9201 14871,-47.4711 14739.8,-60.5887 14554.2,-60.5887 14423,-47.4711 14423,-28.9201 14554.2,-15.8026 14739.8,-15.8026 14871,-28.9201"/>
<text text-anchor="middle" x="14647" y="-34.4956" font-family="Times,serif" font-size="14.00">Class: SafeCopy, Data: (ThentosLabeled t)</text>
</g>
<!-- 100&#45;&gt;60 -->
<g id="edge22" class="edge"><title>100&#45;&gt;60</title>
<path fill="none" stroke="navy" stroke-width="1.69315" d="M4497.51,-108.872C4513.16,-104.933 4529.45,-101.502 4545,-99.3913 4680.82,-80.951 14277.8,-106.519 14414,-91.3913 14467.5,-85.4549 14526.6,-72.1279 14571.9,-60.4269"/>
</g>
<!-- 61 -->
<g id="node38" class="node"><title>61</title>
<polygon fill="cyan" stroke="black" stroke-width="2" points="14404.8,-28.9201 14404.8,-47.4711 14276.1,-60.5887 14093.9,-60.5887 13965.2,-47.4711 13965.2,-28.9201 14093.9,-15.8026 14276.1,-15.8026 14404.8,-28.9201"/>
<text text-anchor="middle" x="14185" y="-34.4956" font-family="Times,serif" font-size="14.00">Class: SafeCopy, Data: ThentosClearance</text>
</g>
<!-- 100&#45;&gt;61 -->
<g id="edge23" class="edge"><title>100&#45;&gt;61</title>
<path fill="none" stroke="navy" stroke-width="1.69315" d="M4497.51,-108.872C4513.16,-104.934 4529.45,-101.502 4545,-99.3913 4674.52,-81.8042 13826.1,-106.062 13956,-91.3913 14008.6,-85.453 14066.7,-72.1261 14111.2,-60.4255"/>
</g>
<!-- 62 -->
<g id="node39" class="node"><title>62</title>
<polygon fill="cyan" stroke="black" stroke-width="2" points="13947.1,-28.9201 13947.1,-47.4711 13829.3,-60.5887 13662.7,-60.5887 13544.9,-47.4711 13544.9,-28.9201 13662.7,-15.8026 13829.3,-15.8026 13947.1,-28.9201"/>
<text text-anchor="middle" x="13746" y="-34.4956" font-family="Times,serif" font-size="14.00">Class: SafeCopy, Data: ThentosLabel</text>
</g>
<!-- 100&#45;&gt;62 -->
<g id="edge24" class="edge"><title>100&#45;&gt;62</title>
<path fill="none" stroke="navy" stroke-width="1.69315" d="M4497.51,-108.873C4513.16,-104.934 4529.45,-101.503 4545,-99.3913 4668.74,-82.5866 13412.1,-106.619 13536,-91.3913 13584.3,-85.4585 13637.5,-72.1715 13678.2,-60.4888"/>
</g>
<!-- 63 -->
<g id="node40" class="node"><title>63</title>
<polygon fill="bisque" stroke="black" stroke-width="2" points="7282.31,-28.9201 7282.31,-47.4711 7168.48,-60.5887 7007.52,-60.5887 6893.69,-47.4711 6893.69,-28.9201 7007.52,-15.8026 7168.48,-15.8026 7282.31,-28.9201"/>
<text text-anchor="middle" x="7088" y="-34.4956" font-family="Times,serif" font-size="14.00">Class: SafeCopy, Data: TimeStamp</text>
</g>
<!-- 100&#45;&gt;63 -->
<g id="edge25" class="edge"><title>100&#45;&gt;63</title>
<path fill="none" stroke="navy" stroke-width="1.69315" d="M4497.51,-108.906C4513.16,-104.964 4529.46,-101.522 4545,-99.3913 4673.8,-81.734 6756.06,-107.927 6885,-91.3913 6931.74,-85.3971 6983.14,-72.1108 7022.52,-60.4439"/>
</g>
<!-- 64 -->
<g id="node41" class="node"><title>64</title>
<polygon fill="bisque" stroke="black" stroke-width="2" points="6478.75,-28.9201 6478.75,-47.4711 6372.87,-60.5887 6223.13,-60.5887 6117.25,-47.4711 6117.25,-28.9201 6223.13,-15.8026 6372.87,-15.8026 6478.75,-28.9201"/>
<text text-anchor="middle" x="6298" y="-34.4956" font-family="Times,serif" font-size="14.00">Class: SafeCopy, Data: Timeout</text>
</g>
<!-- 100&#45;&gt;64 -->
<g id="edge26" class="edge"><title>100&#45;&gt;64</title>
<path fill="none" stroke="navy" stroke-width="1.69315" d="M4497.52,-108.927C4513.16,-104.983 4529.46,-101.535 4545,-99.3913 4717.04,-75.6565 5935.95,-115.042 6108,-91.3913 6151.89,-85.3584 6199.99,-72.0725 6236.82,-60.4155"/>
</g>
<!-- 103 -->
<g id="node30" class="node"><title>103</title>
<polygon fill="khaki" stroke="black" stroke-dasharray="1,5" points="3756.86,-123.053 3756.86,-151.082 3686.06,-170.902 3585.94,-170.902 3515.14,-151.082 3515.14,-123.053 3585.94,-103.233 3686.06,-103.233 3756.86,-123.053"/>
<polygon fill="none" stroke="black" stroke-dasharray="1,5" points="3760.86,-120 3760.86,-154.135 3686.61,-174.921 3585.39,-174.921 3511.14,-154.135 3511.14,-120 3585.39,-99.2143 3686.61,-99.2143 3760.86,-120"/>
<text text-anchor="middle" x="3636" y="-140.867" font-family="Times,serif" font-size="14.00">Unknown Module</text>
<text text-anchor="middle" x="3636" y="-125.867" font-family="Times,serif" font-size="14.00">Class: FromJSON</text>
</g>
<!-- 69 -->
<g id="node42" class="node"><title>69</title>
<polygon fill="cyan" stroke="black" stroke-width="2" points="12698.6,-28.9201 12698.6,-47.4711 12595.1,-60.5887 12448.9,-60.5887 12345.4,-47.4711 12345.4,-28.9201 12448.9,-15.8026 12595.1,-15.8026 12698.6,-28.9201"/>
<text text-anchor="middle" x="12522" y="-34.4956" font-family="Times,serif" font-size="14.00">Class: FromJSON, Data: Agent</text>
</g>
<!-- 103&#45;&gt;69 -->
<g id="edge27" class="edge"><title>103&#45;&gt;69</title>
<path fill="none" stroke="navy" d="M3721.51,-108.873C3737.16,-104.935 3753.45,-101.503 3769,-99.3913 3886.9,-83.3765 12218.1,-107.672 12336,-91.3913 12379,-85.4484 12426.1,-72.1615 12462.2,-60.4814"/>
</g>
<!-- 70 -->
<g id="node43" class="node"><title>70</title>
<polygon fill="cyan" stroke="black" stroke-width="2" points="13526.8,-28.9201 13526.8,-47.4711 13419.7,-60.5887 13268.3,-60.5887 13161.2,-47.4711 13161.2,-28.9201 13268.3,-15.8026 13419.7,-15.8026 13526.8,-28.9201"/>
<text text-anchor="middle" x="13344" y="-34.4956" font-family="Times,serif" font-size="14.00">Class: FromJSON, Data: Session</text>
</g>
<!-- 103&#45;&gt;70 -->
<g id="edge28" class="edge"><title>103&#45;&gt;70</title>
<path fill="none" stroke="navy" d="M3721.51,-108.872C3737.16,-104.934 3753.45,-101.502 3769,-99.3913 3898.15,-81.8545 13023.8,-108.779 13153,-91.3913 13197.1,-85.4524 13245.5,-72.1655 13282.5,-60.4844"/>
</g>
<!-- 71 -->
<g id="node44" class="node"><title>71</title>
<polygon fill="bisque" stroke="black" stroke-width="2" points="10002.1,-28.9201 10002.1,-47.4711 9884.29,-60.5887 9717.71,-60.5887 9599.92,-47.4711 9599.92,-28.9201 9717.71,-15.8026 9884.29,-15.8026 10002.1,-28.9201"/>
<text text-anchor="middle" x="9801" y="-34.4956" font-family="Times,serif" font-size="14.00">Class: FromJSON, Data: TimeStamp</text>
</g>
<!-- 103&#45;&gt;71 -->
<g id="edge29" class="edge"><title>103&#45;&gt;71</title>
<path fill="none" stroke="navy" d="M3721.51,-108.879C3737.16,-104.94 3753.45,-101.506 3769,-99.3913 3929.25,-77.5892 9430.49,-111.152 9591,-91.3913 9639.29,-85.4468 9692.46,-72.16 9733.22,-60.4803"/>
</g>
<!-- 72 -->
<g id="node45" class="node"><title>72</title>
<polygon fill="bisque" stroke="black" stroke-width="2" points="9581.53,-28.9201 9581.53,-47.4711 9471.68,-60.5887 9316.32,-60.5887 9206.47,-47.4711 9206.47,-28.9201 9316.32,-15.8026 9471.68,-15.8026 9581.53,-28.9201"/>
<text text-anchor="middle" x="9394" y="-34.4956" font-family="Times,serif" font-size="14.00">Class: FromJSON, Data: Timeout</text>
</g>
<!-- 103&#45;&gt;72 -->
<g id="edge30" class="edge"><title>103&#45;&gt;72</title>
<path fill="none" stroke="navy" d="M3721.51,-108.88C3737.16,-104.941 3753.45,-101.507 3769,-99.3913 3918.4,-79.0572 9047.5,-110.973 9197,-91.3913 9242.43,-85.4408 9292.31,-72.154 9330.51,-60.4758"/>
</g>
<!-- 73 -->
<g id="node46" class="node"><title>73</title>
<polygon fill="cyan" stroke="black" stroke-width="2" points="13143.6,-28.9201 13143.6,-47.4711 13018.5,-60.5887 12841.5,-60.5887 12716.4,-47.4711 12716.4,-28.9201 12841.5,-15.8026 13018.5,-15.8026 13143.6,-28.9201"/>
<text text-anchor="middle" x="12930" y="-34.4956" font-family="Times,serif" font-size="14.00">Class: FromJSON, Data: UserFormData</text>
</g>
<!-- 103&#45;&gt;73 -->
<g id="edge31" class="edge"><title>103&#45;&gt;73</title>
<path fill="none" stroke="navy" d="M3721.51,-108.873C3737.16,-104.934 3753.45,-101.503 3769,-99.3913 3892.02,-82.6835 12584.7,-105.749 12708,-91.3913 12759,-85.4502 12815.4,-72.1233 12858.5,-60.4235"/>
</g>
<!-- 74 -->
<g id="node47" class="node"><title>74</title>
<polygon fill="bisque" stroke="black" stroke-width="2" points="10399.6,-28.9201 10399.6,-47.4711 10288.5,-60.5887 10131.5,-60.5887 10020.4,-47.4711 10020.4,-28.9201 10131.5,-15.8026 10288.5,-15.8026 10399.6,-28.9201"/>
<text text-anchor="middle" x="10210" y="-34.4956" font-family="Times,serif" font-size="14.00">Class: FromJSON, Data: UserPass</text>
</g>
<!-- 103&#45;&gt;74 -->
<g id="edge32" class="edge"><title>103&#45;&gt;74</title>
<path fill="none" stroke="navy" d="M3721.51,-108.878C3737.16,-104.939 3753.45,-101.506 3769,-99.3913 3940.81,-76.0243 9839.05,-113.679 10011,-91.3913 10056.9,-85.4458 10107.3,-72.159 10145.8,-60.4795"/>
</g>
<!-- 105 -->
<g id="node31" class="node"><title>105</title>
<polygon fill="khaki" stroke="black" stroke-dasharray="1,5" points="3488.86,-123.053 3488.86,-151.082 3418.06,-170.902 3317.94,-170.902 3247.14,-151.082 3247.14,-123.053 3317.94,-103.233 3418.06,-103.233 3488.86,-123.053"/>
<polygon fill="none" stroke="black" stroke-dasharray="1,5" points="3492.86,-120 3492.86,-154.135 3418.61,-174.921 3317.39,-174.921 3243.14,-154.135 3243.14,-120 3317.39,-99.2143 3418.61,-99.2143 3492.86,-120"/>
<text text-anchor="middle" x="3368" y="-140.867" font-family="Times,serif" font-size="14.00">Unknown Module</text>
<text text-anchor="middle" x="3368" y="-125.867" font-family="Times,serif" font-size="14.00">Class: ToCNF</text>
</g>
<!-- 87 -->
<g id="node48" class="node"><title>87</title>
<polygon fill="cyan" stroke="black" stroke-width="2" points="11518,-28.9201 11518,-47.4711 11423.7,-60.5887 11290.3,-60.5887 11196,-47.4711 11196,-28.9201 11290.3,-15.8026 11423.7,-15.8026 11518,-28.9201"/>
<text text-anchor="middle" x="11357" y="-34.4956" font-family="Times,serif" font-size="14.00">Class: ToCNF, Data: Agent</text>
</g>
<!-- 105&#45;&gt;87 -->
<g id="edge33" class="edge"><title>105&#45;&gt;87</title>
<path fill="none" stroke="navy" d="M3453.8,-108.965C3469.68,-104.988 3486.22,-101.52 3502,-99.3913 3607.78,-85.1208 11081.5,-107.286 11187,-91.3913 11226.5,-85.4375 11269.6,-72.1508 11302.5,-60.4735"/>
</g>
<!-- 88 -->
<g id="node49" class="node"><title>88</title>
<polygon fill="cyan" stroke="black" stroke-width="2" points="11178.2,-28.9201 11178.2,-47.4711 11087.3,-60.5887 10958.7,-60.5887 10867.8,-47.4711 10867.8,-28.9201 10958.7,-15.8026 11087.3,-15.8026 11178.2,-28.9201"/>
<text text-anchor="middle" x="11023" y="-34.4956" font-family="Times,serif" font-size="14.00">Class: ToCNF, Data: Role</text>
</g>
<!-- 105&#45;&gt;88 -->
<g id="edge34" class="edge"><title>105&#45;&gt;88</title>
<path fill="none" stroke="navy" d="M3453.8,-108.965C3469.68,-104.989 3486.22,-101.52 3502,-99.3913 3603.26,-85.7275 10758,-107.126 10859,-91.3913 10897.2,-85.4327 10938.8,-72.146 10970.4,-60.4699"/>
</g>
<!-- 106 -->
<g id="node32" class="node"><title>106</title>
<polygon fill="khaki" stroke="black" stroke-dasharray="1,5" points="1479.86,-123.053 1479.86,-151.082 1409.06,-170.902 1308.94,-170.902 1238.14,-151.082 1238.14,-123.053 1308.94,-103.233 1409.06,-103.233 1479.86,-123.053"/>
<polygon fill="none" stroke="black" stroke-dasharray="1,5" points="1483.86,-120 1483.86,-154.135 1409.61,-174.921 1308.39,-174.921 1234.14,-154.135 1234.14,-120 1308.39,-99.2143 1409.61,-99.2143 1483.86,-120"/>
<text text-anchor="middle" x="1359" y="-140.867" font-family="Times,serif" font-size="14.00">Unknown Module</text>
<text text-anchor="middle" x="1359" y="-125.867" font-family="Times,serif" font-size="14.00">Class: ToJSON</text>
</g>
<!-- 89 -->
<g id="node50" class="node"><title>89</title>
<polygon fill="cyan" stroke="black" stroke-width="2" points="8813.14,-28.9201 8813.14,-47.4711 8716.4,-60.5887 8579.6,-60.5887 8482.86,-47.4711 8482.86,-28.9201 8579.6,-15.8026 8716.4,-15.8026 8813.14,-28.9201"/>
<text text-anchor="middle" x="8648" y="-34.4956" font-family="Times,serif" font-size="14.00">Class: ToJSON, Data: Agent</text>
</g>
<!-- 106&#45;&gt;89 -->
<g id="edge35" class="edge"><title>106&#45;&gt;89</title>
<path fill="none" stroke="navy" d="M1444.51,-108.876C1460.16,-104.937 1476.45,-101.505 1492,-99.3913 1588.07,-86.3311 8377.07,-105.449 8473,-91.3913 8513.62,-85.4384 8557.93,-72.1516 8591.8,-60.4741"/>
</g>
<!-- 90 -->
<g id="node51" class="node"><title>90</title>
<polygon fill="cyan" stroke="black" stroke-width="2" points="8464.38,-28.9201 8464.38,-47.4711 8363.99,-60.5887 8222.01,-60.5887 8121.62,-47.4711 8121.62,-28.9201 8222.01,-15.8026 8363.99,-15.8026 8464.38,-28.9201"/>
<text text-anchor="middle" x="8293" y="-34.4956" font-family="Times,serif" font-size="14.00">Class: ToJSON, Data: Session</text>
</g>
<!-- 106&#45;&gt;90 -->
<g id="edge36" class="edge"><title>106&#45;&gt;90</title>
<path fill="none" stroke="navy" d="M1444.51,-108.877C1460.16,-104.938 1476.45,-101.505 1492,-99.3913 1583.12,-87.0018 8021.96,-104.38 8113,-91.3913 8154.71,-85.4397 8200.29,-72.1529 8235.14,-60.475"/>
</g>
<!-- 91 -->
<g id="node52" class="node"><title>91</title>
<polygon fill="bisque" stroke="black" stroke-width="2" points="6875.62,-28.9201 6875.62,-47.4711 6764.54,-60.5887 6607.46,-60.5887 6496.38,-47.4711 6496.38,-28.9201 6607.46,-15.8026 6764.54,-15.8026 6875.62,-28.9201"/>
<text text-anchor="middle" x="6686" y="-34.4956" font-family="Times,serif" font-size="14.00">Class: ToJSON, Data: TimeStamp</text>
</g>
<!-- 106&#45;&gt;91 -->
<g id="edge37" class="edge"><title>106&#45;&gt;91</title>
<path fill="none" stroke="navy" d="M1444.51,-108.882C1460.16,-104.943 1476.45,-101.508 1492,-99.3913 1629.51,-80.6667 6350.39,-109.337 6488,-91.3913 6533.65,-85.4382 6583.78,-72.1514 6622.18,-60.4739"/>
</g>
<!-- 92 -->
<g id="node53" class="node"><title>92</title>
<polygon fill="bisque" stroke="black" stroke-width="2" points="6099.07,-28.9201 6099.07,-47.4711 5995.93,-60.5887 5850.07,-60.5887 5746.93,-47.4711 5746.93,-28.9201 5850.07,-15.8026 5995.93,-15.8026 6099.07,-28.9201"/>
<text text-anchor="middle" x="5923" y="-34.4956" font-family="Times,serif" font-size="14.00">Class: ToJSON, Data: Timeout</text>
</g>
<!-- 106&#45;&gt;92 -->
<g id="edge38" class="edge"><title>106&#45;&gt;92</title>
<path fill="none" stroke="navy" d="M1444.51,-108.886C1460.16,-104.946 1476.46,-101.51 1492,-99.3913 1608.78,-83.4723 5618.23,-107.412 5735,-91.3913 5778.46,-85.4286 5826.06,-72.142 5862.49,-60.4669"/>
</g>
<!-- 93 -->
<g id="node54" class="node"><title>93</title>
<polygon fill="cyan" stroke="black" stroke-width="2" points="8104.11,-28.9201 8104.11,-47.4711 7985.72,-60.5887 7818.28,-60.5887 7699.89,-47.4711 7699.89,-28.9201 7818.28,-15.8026 7985.72,-15.8026 8104.11,-28.9201"/>
<text text-anchor="middle" x="7902" y="-34.4956" font-family="Times,serif" font-size="14.00">Class: ToJSON, Data: UserFormData</text>
</g>
<!-- 106&#45;&gt;93 -->
<g id="edge39" class="edge"><title>106&#45;&gt;93</title>
<path fill="none" stroke="navy" d="M1444.51,-108.878C1460.16,-104.939 1476.45,-101.506 1492,-99.3913 1577.31,-87.7879 7605.54,-101.86 7691,-91.3913 7739.51,-85.4491 7792.93,-72.1622 7833.89,-60.4819"/>
</g>
<!-- 94 -->
<g id="node55" class="node"><title>94</title>
<polygon fill="cyan" stroke="black" stroke-width="2" points="9188.16,-28.9201 9188.16,-47.4711 9083.8,-60.5887 8936.2,-60.5887 8831.84,-47.4711 8831.84,-28.9201 8936.2,-15.8026 9083.8,-15.8026 9188.16,-28.9201"/>
<text text-anchor="middle" x="9010" y="-34.4956" font-family="Times,serif" font-size="14.00">Class: ToJSON, Data: UserPass</text>
</g>
<!-- 106&#45;&gt;94 -->
<g id="edge40" class="edge"><title>106&#45;&gt;94</title>
<path fill="none" stroke="navy" d="M1444.51,-108.875C1460.16,-104.937 1476.45,-101.504 1492,-99.3913 1592.88,-85.6809 8721.13,-105.19 8822,-91.3913 8865.46,-85.4459 8913.06,-72.159 8949.49,-60.4796"/>
</g>
<!-- 42&#45;&gt;12 -->
<g id="edge1" class="edge"><title>42&#45;&gt;12</title>
<path fill="none" stroke="chartreuse" stroke-width="3.07944" d="M12056.6,-60.4904C12015.4,-72.1736 11961.7,-85.4607 11913,-91.3913 11846.2,-99.5172 2294.29,-88.0171 2228,-99.3913 2209.39,-102.585 2189.68,-108.763 2172.48,-115.151"/>
<polygon fill="chartreuse" stroke="chartreuse" stroke-width="3.07944" points="2170.75,-112.065 2162.67,-118.915 2173.26,-118.6 2170.75,-112.065"/>
</g>
<!-- 43&#45;&gt;13 -->
<g id="edge2" class="edge"><title>43&#45;&gt;13</title>
<path fill="none" stroke="chartreuse" stroke-width="3.07944" d="M11657.8,-60.4852C11620.4,-72.1666 11571.6,-85.4535 11527,-91.3913 11461.6,-100.112 2084.83,-86.9166 2020,-99.3913 2003.66,-102.536 1986.52,-108.546 1971.52,-114.805"/>
<polygon fill="chartreuse" stroke="chartreuse" stroke-width="3.07944" points="1969.8,-111.74 1962.01,-118.927 1972.58,-118.163 1969.8,-111.74"/>
</g>
<!-- 44&#45;&gt;8 -->
<g id="edge3" class="edge"><title>44&#45;&gt;8</title>
<path fill="none" stroke="chartreuse" d="M7426.52,-60.4791C7387.73,-72.1584 7337.09,-85.4453 7291,-91.3913 7207.44,-102.171 1307.3,-81.3682 1225,-99.3913 1210.83,-102.495 1196.16,-108.342 1183.32,-114.47"/>
<polygon fill="chartreuse" stroke="chartreuse" points="1181.72,-111.358 1174.32,-118.947 1184.84,-117.625 1181.72,-111.358"/>
</g>
<!-- 59&#45;&gt;4 -->
<g id="edge4" class="edge"><title>59&#45;&gt;4</title>
<path fill="none" stroke="chartreuse" stroke-width="1.69315" d="M10561.5,-60.4233C10517.8,-72.123 10460.7,-85.45 10409,-91.3913 10349.9,-98.1896 1894.46,-88.1395 1836,-99.3913 1819.66,-102.537 1802.52,-108.547 1787.52,-114.806"/>
<polygon fill="chartreuse" stroke="chartreuse" stroke-width="1.69315" points="1785.8,-111.741 1778.01,-118.928 1788.58,-118.164 1785.8,-111.741"/>
</g>
<!-- 63&#45;&gt;83 -->
<g id="edge5" class="edge"><title>63&#45;&gt;83</title>
<path fill="none" stroke="black" d="M7022.53,-60.4801C6983.15,-72.1597 6931.75,-85.4466 6885,-91.3913 6800.36,-102.154 825.995,-84.4176 742,-99.3913 724.043,-102.593 705.077,-108.772 688.546,-115.159"/>
<polygon fill="black" stroke="black" points="687.109,-111.964 679.12,-118.923 689.705,-118.465 687.109,-111.964"/>
</g>
<!-- 63&#45;&gt;84 -->
<g id="edge6" class="edge"><title>63&#45;&gt;84</title>
<path fill="none" stroke="black" d="M7022.53,-60.4808C6983.15,-72.1607 6931.75,-85.4476 6885,-91.3913 6797.61,-102.503 628.538,-82.8873 542,-99.3913 525.497,-102.539 508.178,-108.549 493.02,-114.808"/>
<polygon fill="black" stroke="black" points="491.214,-111.774 483.4,-118.929 493.971,-118.208 491.214,-111.774"/>
</g>
<!-- 64&#45;&gt;85 -->
<g id="edge7" class="edge"><title>64&#45;&gt;85</title>
<path fill="none" stroke="black" d="M6236.83,-60.4754C6200,-72.1534 6151.9,-85.4402 6108,-91.3913 6028.84,-102.123 434.417,-84.1267 356,-99.3913 339.816,-102.542 322.86,-108.553 308.031,-114.812"/>
<polygon fill="black" stroke="black" points="306.378,-111.715 298.622,-118.933 309.186,-118.127 306.378,-111.715"/>
</g>
<!-- 64&#45;&gt;86 -->
<g id="edge8" class="edge"><title>64&#45;&gt;86</title>
<path fill="none" stroke="black" d="M6236.83,-60.4761C6200,-72.1543 6151.9,-85.4411 6108,-91.3913 6026.33,-102.461 254.666,-82.4921 174,-99.3913 159.068,-102.52 143.538,-108.449 129.953,-114.642"/>
<polygon fill="black" stroke="black" points="128.426,-111.493 120.89,-118.941 131.426,-117.818 128.426,-111.493"/>
</g>
<!-- 71&#45;&gt;83 -->
<g id="edge9" class="edge"><title>71&#45;&gt;83</title>
<path fill="none" stroke="black" d="M9733.22,-60.4886C9692.46,-72.1712 9639.29,-85.4582 9591,-91.3913 9530.01,-98.8856 802.5,-88.6185 742,-99.3913 724.042,-102.589 705.076,-108.768 688.545,-115.155"/>
<polygon fill="black" stroke="black" points="687.108,-111.96 679.12,-118.919 689.705,-118.461 687.108,-111.96"/>
</g>
<!-- 72&#45;&gt;85 -->
<g id="edge10" class="edge"><title>72&#45;&gt;85</title>
<path fill="none" stroke="black" d="M9330.51,-60.4853C9292.31,-72.1667 9242.43,-85.4537 9197,-91.3913 9136.12,-99.3474 416.268,-87.6748 356,-99.3913 339.815,-102.538 322.859,-108.548 308.03,-114.807"/>
<polygon fill="black" stroke="black" points="306.377,-111.71 298.621,-118.929 309.185,-118.122 306.377,-111.71"/>
</g>
<!-- 74&#45;&gt;23 -->
<g id="edge11" class="edge"><title>74&#45;&gt;23</title>
<path fill="none" stroke="chartreuse" d="M10145.9,-60.485C10107.3,-72.1663 10056.9,-85.4533 10011,-91.3913 9953.43,-98.8435 1708.71,-86.9836 1652,-99.3913 1637.83,-102.492 1623.16,-108.339 1610.32,-114.467"/>
<polygon fill="chartreuse" stroke="chartreuse" points="1608.72,-111.355 1601.32,-118.944 1611.84,-117.622 1608.72,-111.355"/>
</g>
<!-- 91&#45;&gt;84 -->
<g id="edge16" class="edge"><title>91&#45;&gt;84</title>
<path fill="none" stroke="black" d="M6622.18,-60.4782C6583.78,-72.1572 6533.65,-85.444 6488,-91.3913 6406.11,-102.06 623.121,-83.9169 542,-99.3913 525.497,-102.539 508.178,-108.55 493.02,-114.809"/>
<polygon fill="black" stroke="black" points="491.214,-111.775 483.401,-118.93 493.971,-118.209 491.214,-111.775"/>
</g>
<!-- 92&#45;&gt;86 -->
<g id="edge17" class="edge"><title>92&#45;&gt;86</title>
<path fill="none" stroke="black" d="M5862.49,-60.474C5826.06,-72.1516 5778.46,-85.4383 5735,-91.3913 5658.48,-101.873 249.594,-83.5509 174,-99.3913 159.068,-102.52 143.539,-108.45 129.954,-114.643"/>
<polygon fill="black" stroke="black" points="128.426,-111.494 120.891,-118.942 131.426,-117.819 128.426,-111.494"/>
</g>
</g>
</svg>
