<?xml version="1.0" encoding="UTF-8" standalone="no"?>
<!DOCTYPE svg PUBLIC "-//W3C//DTD SVG 1.1//EN"
 "http://www.w3.org/Graphics/SVG/1.1/DTD/svg11.dtd">
<!-- Generated by graphviz version 2.38.0 (20140413.2041)
 -->
<!-- Title: Levels within Thentos.Frontend.Pages Pages: 1 -->
<svg width="1327pt" height="182pt"
 viewBox="0.00 0.00 1327.00 182.00" xmlns="http://www.w3.org/2000/svg" xmlns:xlink="http://www.w3.org/1999/xlink">
<g id="graph0" class="graph" transform="scale(1 1) rotate(0) translate(4 178)">
<title>Levels within Thentos.Frontend.Pages</title>
<polygon fill="white" stroke="none" points="-4,4 -4,-178 1323,-178 1323,4 -4,4"/>
<g id="clust1" class="cluster"><title>cluster_0</title>
<polygon fill="lavender" stroke="black" points="8,-91 8,-166 1311,-166 1311,-91 8,-91"/>
<text text-anchor="middle" x="659.5" y="-150.8" font-family="Times,serif" font-size="14.00">Exported root entities</text>
</g>
<g id="clust2" class="cluster"><title>cluster_1</title>
<polygon fill="lavender" stroke="black" points="372,-8 372,-83 504,-83 504,-8 372,-8"/>
<text text-anchor="middle" x="438" y="-67.8" font-family="Times,serif" font-size="14.00">Level = 1</text>
</g>
<!-- 1 -->
<g id="node1" class="node"><title>1</title>
<polygon fill="gold" stroke="black" stroke-width="2" points="1302.5,-135 1157.5,-135 1157.5,-99 1302.5,-99 1302.5,-135"/>
<text text-anchor="middle" x="1230" y="-113.3" font-family="Times,serif" font-size="14.00">addServicePage</text>
</g>
<!-- 2 -->
<g id="node2" class="node"><title>2</title>
<polygon fill="gold" stroke="black" stroke-width="2" points="1139,-135 1009,-135 1009,-99 1139,-99 1139,-135"/>
<text text-anchor="middle" x="1074" y="-113.3" font-family="Times,serif" font-size="14.00">addUserPage</text>
</g>
<!-- 3 -->
<g id="node3" class="node"><title>3</title>
<polygon fill="gold" stroke="black" stroke-width="2" points="990.5,-135 879.5,-135 879.5,-99 990.5,-99 990.5,-135"/>
<text text-anchor="middle" x="935" y="-113.3" font-family="Times,serif" font-size="14.00">errorPage</text>
</g>
<!-- 4 -->
<g id="node4" class="node"><title>4</title>
<polygon fill="gold" stroke="black" stroke-width="2" points="861,-135 745,-135 745,-99 861,-99 861,-135"/>
<text text-anchor="middle" x="803" y="-113.3" font-family="Times,serif" font-size="14.00">loginForm</text>
</g>
<!-- 7 -->
<g id="node10" class="node"><title>7</title>
<polygon fill="cyan" stroke="black" stroke-width="2" points="496,-52 380,-52 380,-16 496,-16 496,-52"/>
<text text-anchor="middle" x="438" y="-30.3" font-family="Times,serif" font-size="14.00">nonEmpty</text>
</g>
<!-- 4&#45;&gt;7 -->
<g id="edge1" class="edge"><title>4&#45;&gt;7</title>
<path fill="none" stroke="black" stroke-width="1.69315" d="M760.469,-98.8879C752.422,-96.0056 744.014,-93.2303 736,-91 658.456,-69.4185 567.233,-53.6397 506.335,-44.431"/>
<polygon fill="black" stroke="black" stroke-width="1.69315" points="506.486,-40.9149 496.079,-42.8989 505.452,-47.838 506.486,-40.9149"/>
</g>
<!-- 5 -->
<g id="node5" class="node"><title>5</title>
<polygon fill="gold" stroke="black" stroke-width="2" points="726.5,-135 613.5,-135 613.5,-99 726.5,-99 726.5,-135"/>
<text text-anchor="middle" x="670" y="-113.3" font-family="Times,serif" font-size="14.00">loginPage</text>
</g>
<!-- 6 -->
<g id="node6" class="node"><title>6</title>
<polygon fill="gold" stroke="black" stroke-width="2" points="595.5,-135 482.5,-135 482.5,-99 595.5,-99 595.5,-135"/>
<text text-anchor="middle" x="539" y="-113.3" font-family="Times,serif" font-size="14.00">mainPage</text>
</g>
<!-- 8 -->
<g id="node7" class="node"><title>8</title>
<polygon fill="gold" stroke="black" stroke-width="2" points="464.5,-135 305.5,-135 305.5,-99 464.5,-99 464.5,-135"/>
<text text-anchor="middle" x="385" y="-113.3" font-family="Times,serif" font-size="14.00">serviceAddedPage</text>
</g>
<!-- 9 -->
<g id="node8" class="node"><title>9</title>
<polygon fill="gold" stroke="black" stroke-width="2" points="287.5,-135 144.5,-135 144.5,-99 287.5,-99 287.5,-135"/>
<text text-anchor="middle" x="216" y="-113.3" font-family="Times,serif" font-size="14.00">userAddedPage</text>
</g>
<!-- 10 -->
<g id="node9" class="node"><title>10</title>
<polygon fill="gold" stroke="black" stroke-width="2" points="126.5,-135 15.5,-135 15.5,-99 126.5,-99 126.5,-135"/>
<text text-anchor="middle" x="71" y="-113.3" font-family="Times,serif" font-size="14.00">userForm</text>
</g>
<!-- 10&#45;&gt;7 -->
<g id="edge2" class="edge"><title>10&#45;&gt;7</title>
<path fill="none" stroke="black" stroke-width="1.69315" d="M111.877,-98.9701C119.793,-96.046 128.088,-93.2346 136,-91 214.992,-68.6901 308.178,-52.9629 369.929,-43.9682"/>
<polygon fill="black" stroke="black" stroke-width="1.69315" points="370.542,-47.4162 379.942,-42.5286 369.546,-40.4874 370.542,-47.4162"/>
</g>
</g>
</svg>
