<?xml version="1.0" encoding="UTF-8" standalone="no"?>
<!DOCTYPE svg PUBLIC "-//W3C//DTD SVG 1.1//EN"
 "http://www.w3.org/Graphics/SVG/1.1/DTD/svg11.dtd">
<!-- Generated by graphviz version 2.38.0 (20140413.2041)
 -->
<!-- Title: Levels within Thentos.Backend.Api.Adhocracy3Spec Pages: 1 -->
<svg width="404pt" height="243pt"
 viewBox="0.00 0.00 404.00 243.00" xmlns="http://www.w3.org/2000/svg" xmlns:xlink="http://www.w3.org/1999/xlink">
<g id="graph0" class="graph" transform="scale(1 1) rotate(0) translate(4 239)">
<title>Levels within Thentos.Backend.Api.Adhocracy3Spec</title>
<polygon fill="white" stroke="none" points="-4,4 -4,-239 400,-239 400,4 -4,4"/>
<g id="clust1" class="cluster"><title>cluster_0</title>
<polygon fill="lavender" stroke="black" points="8,-8 8,-227 388,-227 388,-8 8,-8"/>
<text text-anchor="middle" x="198" y="-211.8" font-family="Times,serif" font-size="14.00">Exported root entities</text>
</g>
<!-- 1 -->
<g id="node1" class="node"><title>1</title>
<polygon fill="goldenrod" stroke="black" stroke-width="2" points="178,-52 16,-52 16,-16 178,-16 178,-52"/>
<text text-anchor="middle" x="97" y="-30.3" font-family="Times,serif" font-size="14.00">setupTestA3Server</text>
</g>
<!-- 2 -->
<g id="node2" class="node"><title>2</title>
<polygon fill="goldenrod" stroke="black" stroke-width="2" points="233.5,-124 150.5,-124 150.5,-88 233.5,-88 233.5,-124"/>
<text text-anchor="middle" x="192" y="-102.3" font-family="Times,serif" font-size="14.00">spec</text>
</g>
<!-- 2&#45;&gt;1 -->
<g id="edge1" class="edge"><title>2&#45;&gt;1</title>
<path fill="none" stroke="black" stroke-width="2.09861" d="M168.517,-87.6966C156.437,-78.796 141.546,-67.8232 128.484,-58.1989"/>
<polygon fill="black" stroke="black" stroke-width="2.09861" points="130.34,-55.2187 120.213,-52.1043 126.187,-60.8541 130.34,-55.2187"/>
</g>
<!-- 3 -->
<g id="node3" class="node"><title>3</title>
<polygon fill="goldenrod" stroke="black" stroke-width="2" points="380,-52 196,-52 196,-16 380,-16 380,-52"/>
<text text-anchor="middle" x="288" y="-30.3" font-family="Times,serif" font-size="14.00">teardownA3TestServer</text>
</g>
<!-- 2&#45;&gt;3 -->
<g id="edge2" class="edge"><title>2&#45;&gt;3</title>
<path fill="none" stroke="black" stroke-width="2.09861" d="M215.73,-87.6966C227.937,-78.796 242.985,-67.8232 256.184,-58.1989"/>
<polygon fill="black" stroke="black" stroke-width="2.09861" points="258.525,-60.8241 264.543,-52.1043 254.4,-55.1681 258.525,-60.8241"/>
</g>
<!-- 4 -->
<g id="node4" class="node"><title>4</title>
<polygon fill="gold" stroke="black" stroke-width="2" points="233.5,-196 150.5,-196 150.5,-160 233.5,-160 233.5,-196"/>
<text text-anchor="middle" x="192" y="-174.3" font-family="Times,serif" font-size="14.00">tests</text>
</g>
<!-- 4&#45;&gt;2 -->
<g id="edge3" class="edge"><title>4&#45;&gt;2</title>
<path fill="none" stroke="chartreuse" d="M192,-159.697C192,-151.983 192,-142.712 192,-134.112"/>
<polygon fill="chartreuse" stroke="chartreuse" points="195.5,-134.104 192,-124.104 188.5,-134.104 195.5,-134.104"/>
</g>
</g>
</svg>
