<?xml version="1.0" encoding="UTF-8" standalone="no"?>
<!DOCTYPE svg PUBLIC "-//W3C//DTD SVG 1.1//EN"
 "http://www.w3.org/Graphics/SVG/1.1/DTD/svg11.dtd">
<!-- Generated by graphviz version 2.38.0 (20140413.2041)
 -->
<!-- Title: Diagram of: Thentos.DB.Core Pages: 1 -->
<svg width="5142pt" height="369pt"
 viewBox="0.00 0.00 5141.50 368.74" xmlns="http://www.w3.org/2000/svg" xmlns:xlink="http://www.w3.org/1999/xlink">
<g id="graph0" class="graph" transform="scale(1 1) rotate(0) translate(4 364.744)">
<title>Diagram of: Thentos.DB.Core</title>
<polygon fill="white" stroke="none" points="-4,4 -4,-364.744 5137.5,-364.744 5137.5,4 -4,4"/>
<g id="clust1" class="cluster"><title>cluster_Class_SafeCopy</title>
<path fill="#ffc1c1" stroke="black" d="M20,-147C20,-147 530,-147 530,-147 536,-147 542,-153 542,-159 542,-159 542,-340.744 542,-340.744 542,-346.744 536,-352.744 530,-352.744 530,-352.744 20,-352.744 20,-352.744 14,-352.744 8,-346.744 8,-340.744 8,-340.744 8,-159 8,-159 8,-153 14,-147 20,-147"/>
<text text-anchor="middle" x="275" y="-337.544" font-family="Times,serif" font-size="14.00">Class: SafeCopy</text>
</g>
<g id="clust2" class="cluster"><title>cluster_Class_SafeCopy_Data_DbError</title>
<path fill="#c6e2ff" stroke="black" d="M110,-155C110,-155 440,-155 440,-155 446,-155 452,-161 452,-167 452,-167 452,-226.391 452,-226.391 452,-232.391 446,-238.391 440,-238.391 440,-238.391 110,-238.391 110,-238.391 104,-238.391 98,-232.391 98,-226.391 98,-226.391 98,-167 98,-167 98,-161 104,-155 110,-155"/>
<text text-anchor="middle" x="275" y="-223.191" font-family="Times,serif" font-size="14.00">Instance for: DbError</text>
</g>
<g id="clust3" class="cluster"><title>cluster_Data_DbError</title>
<path fill="papayawhip" stroke="black" d="M641,-64C641,-64 3694,-64 3694,-64 3700,-64 3706,-70 3706,-76 3706,-76 3706,-127 3706,-127 3706,-133 3700,-139 3694,-139 3694,-139 641,-139 641,-139 635,-139 629,-133 629,-127 629,-127 629,-76 629,-76 629,-70 635,-64 641,-64"/>
<text text-anchor="middle" x="2167.5" y="-123.8" font-family="Times,serif" font-size="14.00">Data: DbError</text>
</g>
<g id="clust4" class="cluster"><title>cluster_Data_TLMode</title>
<path fill="papayawhip" stroke="black" d="M3758,-64C3758,-64 4006,-64 4006,-64 4012,-64 4018,-70 4018,-76 4018,-76 4018,-127 4018,-127 4018,-133 4012,-139 4006,-139 4006,-139 3758,-139 3758,-139 3752,-139 3746,-133 3746,-127 3746,-127 3746,-76 3746,-76 3746,-70 3752,-64 3758,-64"/>
<text text-anchor="middle" x="3882" y="-123.8" font-family="Times,serif" font-size="14.00">Data: TLMode</text>
</g>
<!-- 21 -->
<g id="node1" class="node"><title>21</title>
<polygon fill="cyan" stroke="black" stroke-width="2" points="443.696,-175.92 443.696,-194.471 397.011,-207.589 330.989,-207.589 284.304,-194.471 284.304,-175.92 330.989,-162.803 397.011,-162.803 443.696,-175.92"/>
<text text-anchor="middle" x="364" y="-181.496" font-family="Times,serif" font-size="14.00">getCopy</text>
</g>
<!-- 29 -->
<g id="node2" class="node"><title>29</title>
<polygon fill="cyan" stroke="black" stroke-width="2" points="266.227,-175.92 266.227,-194.471 219.231,-207.589 152.769,-207.589 105.773,-194.471 105.773,-175.92 152.769,-162.803 219.231,-162.803 266.227,-175.92"/>
<text text-anchor="middle" x="186" y="-181.496" font-family="Times,serif" font-size="14.00">putCopy</text>
</g>
<!-- 41 -->
<g id="node3" class="node"><title>41</title>
<polygon fill="khaki" stroke="black" stroke-dasharray="1,5" points="529.858,-270.053 529.858,-298.082 459.061,-317.902 358.939,-317.902 288.142,-298.082 288.142,-270.053 358.939,-250.233 459.061,-250.233 529.858,-270.053"/>
<polygon fill="none" stroke="black" stroke-dasharray="1,5" points="533.856,-267 533.856,-301.135 459.607,-321.921 358.393,-321.921 284.144,-301.135 284.144,-267 358.393,-246.214 459.607,-246.214 533.856,-267"/>
<text text-anchor="middle" x="409" y="-287.867" font-family="Times,serif" font-size="14.00">Unknown Module</text>
<text text-anchor="middle" x="409" y="-272.867" font-family="Times,serif" font-size="14.00">getCopy</text>
</g>
<!-- 41&#45;&gt;21 -->
<g id="edge36" class="edge"><title>41&#45;&gt;21</title>
<path fill="none" stroke="navy" d="M391.859,-246.168C385.799,-233.122 379.187,-218.89 373.927,-207.565"/>
</g>
<!-- 42 -->
<g id="node4" class="node"><title>42</title>
<polygon fill="khaki" stroke="black" stroke-dasharray="1,5" points="261.858,-270.053 261.858,-298.082 191.061,-317.902 90.9389,-317.902 20.1417,-298.082 20.1417,-270.053 90.9389,-250.233 191.061,-250.233 261.858,-270.053"/>
<polygon fill="none" stroke="black" stroke-dasharray="1,5" points="265.856,-267 265.856,-301.135 191.607,-321.921 90.3926,-321.921 16.144,-301.135 16.144,-267 90.3926,-246.214 191.607,-246.214 265.856,-267"/>
<text text-anchor="middle" x="141" y="-287.867" font-family="Times,serif" font-size="14.00">Unknown Module</text>
<text text-anchor="middle" x="141" y="-272.867" font-family="Times,serif" font-size="14.00">putCopy</text>
</g>
<!-- 42&#45;&gt;29 -->
<g id="edge37" class="edge"><title>42&#45;&gt;29</title>
<path fill="none" stroke="navy" d="M158.141,-246.168C164.201,-233.122 170.813,-218.89 176.073,-207.565"/>
</g>
<!-- 2 -->
<g id="node5" class="node"><title>2</title>
<polygon fill="goldenrod" stroke="black" stroke-width="2" points="3486.5,-108 3285.5,-108 3281.5,-104 3281.5,-72 3482.5,-72 3486.5,-76 3486.5,-108"/>
<polyline fill="none" stroke="black" stroke-width="2" points="3482.5,-104 3281.5,-104 "/>
<polyline fill="none" stroke="black" stroke-width="2" points="3482.5,-104 3482.5,-72 "/>
<polyline fill="none" stroke="black" stroke-width="2" points="3482.5,-104 3486.5,-108 "/>
<text text-anchor="middle" x="3384" y="-86.3" font-family="Times,serif" font-size="14.00">BadAuthenticationHeaders</text>
</g>
<!-- 3 -->
<g id="node6" class="node"><title>3</title>
<polygon fill="goldenrod" stroke="black" stroke-width="2" points="3263,-108 3125,-108 3121,-104 3121,-72 3259,-72 3263,-76 3263,-108"/>
<polyline fill="none" stroke="black" stroke-width="2" points="3259,-104 3121,-104 "/>
<polyline fill="none" stroke="black" stroke-width="2" points="3259,-104 3259,-72 "/>
<polyline fill="none" stroke="black" stroke-width="2" points="3259,-104 3263,-108 "/>
<text text-anchor="middle" x="3192" y="-86.3" font-family="Times,serif" font-size="14.00">BadCredentials</text>
</g>
<!-- 4 -->
<g id="node7" class="node"><title>4</title>
<polygon fill="goldenrod" stroke="black" stroke-width="2" points="3102.5,-108 2877.5,-108 2873.5,-104 2873.5,-72 3098.5,-72 3102.5,-76 3102.5,-108"/>
<polyline fill="none" stroke="black" stroke-width="2" points="3098.5,-104 2873.5,-104 "/>
<polyline fill="none" stroke="black" stroke-width="2" points="3098.5,-104 3098.5,-72 "/>
<polyline fill="none" stroke="black" stroke-width="2" points="3098.5,-104 3102.5,-108 "/>
<text text-anchor="middle" x="2988" y="-86.3" font-family="Times,serif" font-size="14.00">MalformedConfirmationToken</text>
</g>
<!-- 5 -->
<g id="node8" class="node"><title>5</title>
<polygon fill="goldenrod" stroke="black" stroke-width="2" points="2855,-108 2677,-108 2673,-104 2673,-72 2851,-72 2855,-76 2855,-108"/>
<polyline fill="none" stroke="black" stroke-width="2" points="2851,-104 2673,-104 "/>
<polyline fill="none" stroke="black" stroke-width="2" points="2851,-104 2851,-72 "/>
<polyline fill="none" stroke="black" stroke-width="2" points="2851,-104 2855,-108 "/>
<text text-anchor="middle" x="2764" y="-86.3" font-family="Times,serif" font-size="14.00">MissingServiceHeader</text>
</g>
<!-- 6 -->
<g id="node9" class="node"><title>6</title>
<polygon fill="goldenrod" stroke="black" stroke-width="2" points="2654.5,-108 2413.5,-108 2409.5,-104 2409.5,-72 2650.5,-72 2654.5,-76 2654.5,-108"/>
<polyline fill="none" stroke="black" stroke-width="2" points="2650.5,-104 2409.5,-104 "/>
<polyline fill="none" stroke="black" stroke-width="2" points="2650.5,-104 2650.5,-72 "/>
<polyline fill="none" stroke="black" stroke-width="2" points="2650.5,-104 2654.5,-108 "/>
<text text-anchor="middle" x="2532" y="-86.3" font-family="Times,serif" font-size="14.00">NoSuchPendingUserConfirmation</text>
</g>
<!-- 7 -->
<g id="node10" class="node"><title>7</title>
<polygon fill="goldenrod" stroke="black" stroke-width="2" points="2391.5,-108 2252.5,-108 2248.5,-104 2248.5,-72 2387.5,-72 2391.5,-76 2391.5,-108"/>
<polyline fill="none" stroke="black" stroke-width="2" points="2387.5,-104 2248.5,-104 "/>
<polyline fill="none" stroke="black" stroke-width="2" points="2387.5,-104 2387.5,-72 "/>
<polyline fill="none" stroke="black" stroke-width="2" points="2387.5,-104 2391.5,-108 "/>
<text text-anchor="middle" x="2320" y="-86.3" font-family="Times,serif" font-size="14.00">NoSuchService</text>
</g>
<!-- 8 -->
<g id="node11" class="node"><title>8</title>
<polygon fill="goldenrod" stroke="black" stroke-width="2" points="2230.5,-108 2091.5,-108 2087.5,-104 2087.5,-72 2226.5,-72 2230.5,-76 2230.5,-108"/>
<polyline fill="none" stroke="black" stroke-width="2" points="2226.5,-104 2087.5,-104 "/>
<polyline fill="none" stroke="black" stroke-width="2" points="2226.5,-104 2226.5,-72 "/>
<polyline fill="none" stroke="black" stroke-width="2" points="2226.5,-104 2230.5,-108 "/>
<text text-anchor="middle" x="2159" y="-86.3" font-family="Times,serif" font-size="14.00">NoSuchSession</text>
</g>
<!-- 9 -->
<g id="node12" class="node"><title>9</title>
<polygon fill="goldenrod" stroke="black" stroke-width="2" points="2069,-108 1945,-108 1941,-104 1941,-72 2065,-72 2069,-76 2069,-108"/>
<polyline fill="none" stroke="black" stroke-width="2" points="2065,-104 1941,-104 "/>
<polyline fill="none" stroke="black" stroke-width="2" points="2065,-104 2065,-72 "/>
<polyline fill="none" stroke="black" stroke-width="2" points="2065,-104 2069,-108 "/>
<text text-anchor="middle" x="2005" y="-86.3" font-family="Times,serif" font-size="14.00">NoSuchUser</text>
</g>
<!-- 10 -->
<g id="node13" class="node"><title>10</title>
<polygon fill="goldenrod" stroke="black" stroke-width="2" points="1922.5,-108 1655.5,-108 1651.5,-104 1651.5,-72 1918.5,-72 1922.5,-76 1922.5,-108"/>
<polyline fill="none" stroke="black" stroke-width="2" points="1918.5,-104 1651.5,-104 "/>
<polyline fill="none" stroke="black" stroke-width="2" points="1918.5,-104 1918.5,-72 "/>
<polyline fill="none" stroke="black" stroke-width="2" points="1918.5,-104 1922.5,-108 "/>
<text text-anchor="middle" x="1787" y="-86.3" font-family="Times,serif" font-size="14.00">OperationNotPossibleInServiceSession</text>
</g>
<!-- 11 -->
<g id="node14" class="node"><title>11</title>
<polygon fill="goldenrod" stroke="black" stroke-width="2" points="795,-108 641,-108 637,-104 637,-72 791,-72 795,-76 795,-108"/>
<polyline fill="none" stroke="black" stroke-width="2" points="791,-104 637,-104 "/>
<polyline fill="none" stroke="black" stroke-width="2" points="791,-104 791,-72 "/>
<polyline fill="none" stroke="black" stroke-width="2" points="791,-104 795,-108 "/>
<text text-anchor="middle" x="716" y="-86.3" font-family="Times,serif" font-size="14.00">PermissionDenied</text>
</g>
<!-- 12 -->
<g id="node15" class="node"><title>12</title>
<polygon fill="goldenrod" stroke="black" stroke-width="2" points="1633,-108 1473,-108 1469,-104 1469,-72 1629,-72 1633,-76 1633,-108"/>
<polyline fill="none" stroke="black" stroke-width="2" points="1629,-104 1469,-104 "/>
<polyline fill="none" stroke="black" stroke-width="2" points="1629,-104 1629,-72 "/>
<polyline fill="none" stroke="black" stroke-width="2" points="1629,-104 1633,-108 "/>
<text text-anchor="middle" x="1551" y="-86.3" font-family="Times,serif" font-size="14.00">ProxyNotAvailable</text>
</g>
<!-- 13 -->
<g id="node16" class="node"><title>13</title>
<polygon fill="goldenrod" stroke="black" stroke-width="2" points="1451,-108 1223,-108 1219,-104 1219,-72 1447,-72 1451,-76 1451,-108"/>
<polyline fill="none" stroke="black" stroke-width="2" points="1447,-104 1219,-104 "/>
<polyline fill="none" stroke="black" stroke-width="2" points="1447,-104 1447,-72 "/>
<polyline fill="none" stroke="black" stroke-width="2" points="1447,-104 1451,-108 "/>
<text text-anchor="middle" x="1335" y="-86.3" font-family="Times,serif" font-size="14.00">ProxyNotConfiguredForService</text>
</g>
<!-- 14 -->
<g id="node17" class="node"><title>14</title>
<polygon fill="goldenrod" stroke="black" stroke-width="2" points="1201,-108 1029,-108 1025,-104 1025,-72 1197,-72 1201,-76 1201,-108"/>
<polyline fill="none" stroke="black" stroke-width="2" points="1197,-104 1025,-104 "/>
<polyline fill="none" stroke="black" stroke-width="2" points="1197,-104 1197,-72 "/>
<polyline fill="none" stroke="black" stroke-width="2" points="1197,-104 1201,-108 "/>
<text text-anchor="middle" x="1113" y="-86.3" font-family="Times,serif" font-size="14.00">ServiceAlreadyExists</text>
</g>
<!-- 17 -->
<g id="node18" class="node"><title>17</title>
<polygon fill="goldenrod" stroke="black" stroke-width="2" points="1007,-108 817,-108 813,-104 813,-72 1003,-72 1007,-76 1007,-108"/>
<polyline fill="none" stroke="black" stroke-width="2" points="1003,-104 813,-104 "/>
<polyline fill="none" stroke="black" stroke-width="2" points="1003,-104 1003,-72 "/>
<polyline fill="none" stroke="black" stroke-width="2" points="1003,-104 1007,-108 "/>
<text text-anchor="middle" x="910" y="-86.3" font-family="Times,serif" font-size="14.00">UserEmailAlreadyExists</text>
</g>
<!-- 18 -->
<g id="node19" class="node"><title>18</title>
<polygon fill="goldenrod" stroke="black" stroke-width="2" points="3698,-108 3508,-108 3504,-104 3504,-72 3694,-72 3698,-76 3698,-108"/>
<polyline fill="none" stroke="black" stroke-width="2" points="3694,-104 3504,-104 "/>
<polyline fill="none" stroke="black" stroke-width="2" points="3694,-104 3694,-72 "/>
<polyline fill="none" stroke="black" stroke-width="2" points="3694,-104 3698,-108 "/>
<text text-anchor="middle" x="3601" y="-86.3" font-family="Times,serif" font-size="14.00">UserNameAlreadyExists</text>
</g>
<!-- 15 -->
<g id="node20" class="node"><title>15</title>
<polygon fill="goldenrod" stroke="black" stroke-width="2" points="4009.5,-108 3910.5,-108 3906.5,-104 3906.5,-72 4005.5,-72 4009.5,-76 4009.5,-108"/>
<polyline fill="none" stroke="black" stroke-width="2" points="4005.5,-104 3906.5,-104 "/>
<polyline fill="none" stroke="black" stroke-width="2" points="4005.5,-104 4005.5,-72 "/>
<polyline fill="none" stroke="black" stroke-width="2" points="4005.5,-104 4009.5,-108 "/>
<text text-anchor="middle" x="3958" y="-86.3" font-family="Times,serif" font-size="14.00">TLRead</text>
</g>
<!-- 16 -->
<g id="node21" class="node"><title>16</title>
<polygon fill="goldenrod" stroke="black" stroke-width="2" points="3888,-108 3758,-108 3754,-104 3754,-72 3884,-72 3888,-76 3888,-108"/>
<polyline fill="none" stroke="black" stroke-width="2" points="3884,-104 3754,-104 "/>
<polyline fill="none" stroke="black" stroke-width="2" points="3884,-104 3884,-72 "/>
<polyline fill="none" stroke="black" stroke-width="2" points="3884,-104 3888,-108 "/>
<text text-anchor="middle" x="3821" y="-86.3" font-family="Times,serif" font-size="14.00">TLReadWrite</text>
</g>
<!-- 1 -->
<g id="node22" class="node"><title>1</title>
<polygon fill="goldenrod" stroke="black" stroke-width="2" points="4131.5,-36 4040.5,-36 4040.5,-0 4131.5,-0 4131.5,-36"/>
<text text-anchor="middle" x="4086" y="-14.3" font-family="Times,serif" font-size="14.00">=%%</text>
</g>
<!-- 19 -->
<g id="node23" class="node"><title>19</title>
<polygon fill="bisque" stroke="black" stroke-width="2" points="788,-203.196 644,-203.196 644,-167.196 788,-167.196 788,-203.196"/>
<text text-anchor="middle" x="716" y="-181.496" font-family="Times,serif" font-size="14.00">checkClearance</text>
</g>
<!-- 19&#45;&gt;11 -->
<g id="edge1" class="edge"><title>19&#45;&gt;11</title>
<path fill="none" stroke="black" d="M716,-167.102C716,-153.525 716,-134.271 716,-118.527"/>
<polygon fill="black" stroke="black" points="719.5,-118.301 716,-108.301 712.5,-118.301 719.5,-118.301"/>
</g>
<!-- 20 -->
<g id="node24" class="node"><title>20</title>
<polygon fill="gold" stroke="black" stroke-width="2" points="4713,-302.067 4531,-302.067 4531,-266.067 4713,-266.067 4713,-302.067"/>
<text text-anchor="middle" x="4622" y="-280.367" font-family="Times,serif" font-size="14.00">createCheckpointLoop</text>
</g>
<!-- 22 -->
<g id="node25" class="node"><title>22</title>
<polygon fill="gold" stroke="black" stroke-width="2" points="4883,-302.067 4731,-302.067 4731,-266.067 4883,-266.067 4883,-302.067"/>
<text text-anchor="middle" x="4807" y="-280.367" font-family="Times,serif" font-size="14.00">liftThentosQuery</text>
</g>
<!-- 23 -->
<g id="node26" class="node"><title>23</title>
<polygon fill="goldenrod" stroke="black" stroke-width="2" points="4039.5,-203.196 3876.5,-203.196 3876.5,-167.196 4039.5,-167.196 4039.5,-203.196"/>
<text text-anchor="middle" x="3958" y="-181.496" font-family="Times,serif" font-size="14.00">makeThentosLabel</text>
</g>
<!-- 23&#45;&gt;15 -->
<g id="edge3" class="edge"><title>23&#45;&gt;15</title>
<path fill="none" stroke="black" d="M3958,-167.102C3958,-153.525 3958,-134.271 3958,-118.527"/>
<polygon fill="black" stroke="black" points="3961.5,-118.301 3958,-108.301 3954.5,-118.301 3961.5,-118.301"/>
</g>
<!-- 23&#45;&gt;16 -->
<g id="edge4" class="edge"><title>23&#45;&gt;16</title>
<path fill="none" stroke="black" d="M3932.87,-167.102C3910.99,-152.219 3879.09,-130.515 3854.94,-114.091"/>
<polygon fill="black" stroke="black" points="3856.67,-111.031 3846.43,-108.301 3852.73,-116.819 3856.67,-111.031"/>
</g>
<!-- 23&#45;&gt;1 -->
<g id="edge2" class="edge"><title>23&#45;&gt;1</title>
<path fill="none" stroke="black" stroke-width="1.69315" d="M3988.58,-167.171C4000.12,-159.653 4012.69,-150.012 4022,-139 4045.87,-110.762 4040.21,-96.4116 4058,-64 4061.45,-57.7137 4065.4,-51.0841 4069.21,-44.903"/>
<polygon fill="black" stroke="black" stroke-width="1.69315" points="4072.29,-46.5893 4074.65,-36.2601 4066.36,-42.8648 4072.29,-46.5893"/>
</g>
<!-- 36 -->
<g id="node38" class="node"><title>36</title>
<polygon fill="goldenrod" stroke="black" stroke-width="2" points="4203.5,-108 4066.5,-108 4066.5,-72 4203.5,-72 4203.5,-108"/>
<text text-anchor="middle" x="4135" y="-86.3" font-family="Times,serif" font-size="14.00">thentosDenied</text>
</g>
<!-- 23&#45;&gt;36 -->
<g id="edge5" class="edge"><title>23&#45;&gt;36</title>
<path fill="none" stroke="black" d="M3995.38,-167.023C4012.75,-158.84 4033.59,-148.731 4052,-139 4067.09,-131.024 4083.41,-121.736 4097.55,-113.468"/>
<polygon fill="black" stroke="black" points="4099.65,-116.293 4106.49,-108.205 4096.1,-110.26 4099.65,-116.293"/>
</g>
<!-- 24 -->
<g id="node27" class="node"><title>24</title>
<polygon fill="gold" stroke="black" stroke-width="2" points="4137,-302.067 3967,-302.067 3967,-266.067 4137,-266.067 4137,-302.067"/>
<text text-anchor="middle" x="4052" y="-280.367" font-family="Times,serif" font-size="14.00">makeThentosLabel1</text>
</g>
<!-- 24&#45;&gt;23 -->
<g id="edge6" class="edge"><title>24&#45;&gt;23</title>
<path fill="none" stroke="black" d="M4035.19,-265.749C4020.36,-250.458 3998.56,-227.992 3981.91,-210.831"/>
<polygon fill="black" stroke="black" points="3984.14,-208.104 3974.66,-203.364 3979.11,-212.978 3984.14,-208.104"/>
</g>
<!-- 25 -->
<g id="node28" class="node"><title>25</title>
<polygon fill="gold" stroke="black" stroke-width="2" points="4325,-302.067 4155,-302.067 4155,-266.067 4325,-266.067 4325,-302.067"/>
<text text-anchor="middle" x="4240" y="-280.367" font-family="Times,serif" font-size="14.00">makeThentosLabel2</text>
</g>
<!-- 25&#45;&gt;23 -->
<g id="edge7" class="edge"><title>25&#45;&gt;23</title>
<path fill="none" stroke="black" d="M4203.28,-265.884C4186.23,-258.653 4165.46,-250.889 4146,-246.391 4103.85,-236.65 4090.31,-251.238 4049,-238.391 4027.82,-231.805 4006.2,-219.674 3989.35,-208.764"/>
<polygon fill="black" stroke="black" points="3991.27,-205.834 3981,-203.206 3987.39,-211.661 3991.27,-205.834"/>
</g>
<!-- 26 -->
<g id="node29" class="node"><title>26</title>
<polygon fill="gold" stroke="black" stroke-width="2" points="4513,-302.067 4343,-302.067 4343,-266.067 4513,-266.067 4513,-302.067"/>
<text text-anchor="middle" x="4428" y="-280.367" font-family="Times,serif" font-size="14.00">makeThentosLabel3</text>
</g>
<!-- 26&#45;&gt;23 -->
<g id="edge8" class="edge"><title>26&#45;&gt;23</title>
<path fill="none" stroke="black" d="M4392.72,-265.973C4375.45,-258.475 4354.09,-250.464 4334,-246.391 4271.91,-233.802 4109.99,-255.56 4049,-238.391 4027.5,-232.339 4005.72,-220.109 3988.86,-209.008"/>
<polygon fill="black" stroke="black" points="3990.76,-206.066 3980.52,-203.345 3986.82,-211.858 3990.76,-206.066"/>
</g>
<!-- 27 -->
<g id="node30" class="node"><title>27</title>
<polygon fill="gold" stroke="black" stroke-width="2" points="3761,-302.067 3591,-302.067 3591,-266.067 3761,-266.067 3761,-302.067"/>
<text text-anchor="middle" x="3676" y="-280.367" font-family="Times,serif" font-size="14.00">makeThentosLabel4</text>
</g>
<!-- 27&#45;&gt;23 -->
<g id="edge9" class="edge"><title>27&#45;&gt;23</title>
<path fill="none" stroke="black" d="M3713.23,-265.936C3730.21,-258.806 3750.78,-251.108 3770,-246.391 3801.7,-238.615 3811.52,-247.022 3843,-238.391 3868.97,-231.27 3896.49,-218.967 3918.1,-208.094"/>
<polygon fill="black" stroke="black" points="3919.98,-211.063 3927.28,-203.382 3916.78,-204.835 3919.98,-211.063"/>
</g>
<!-- 28 -->
<g id="node31" class="node"><title>28</title>
<polygon fill="gold" stroke="black" stroke-width="2" points="3949,-302.067 3779,-302.067 3779,-266.067 3949,-266.067 3949,-302.067"/>
<text text-anchor="middle" x="3864" y="-280.367" font-family="Times,serif" font-size="14.00">makeThentosLabel5</text>
</g>
<!-- 28&#45;&gt;23 -->
<g id="edge10" class="edge"><title>28&#45;&gt;23</title>
<path fill="none" stroke="black" d="M3880.81,-265.749C3895.64,-250.458 3917.44,-227.992 3934.09,-210.831"/>
<polygon fill="black" stroke="black" points="3936.89,-212.978 3941.34,-203.364 3931.86,-208.104 3936.89,-212.978"/>
</g>
<!-- 30 -->
<g id="node32" class="node"><title>30</title>
<polygon fill="goldenrod" stroke="black" stroke-width="2" points="3834,-203.196 3664,-203.196 3664,-167.196 3834,-167.196 3834,-203.196"/>
<text text-anchor="middle" x="3749" y="-181.496" font-family="Times,serif" font-size="14.00">restrictThentosLabel</text>
</g>
<!-- 30&#45;&gt;15 -->
<g id="edge12" class="edge"><title>30&#45;&gt;15</title>
<path fill="none" stroke="black" d="M3802.2,-167.147C3822.71,-160.682 3846.4,-153.352 3868,-147 3880.83,-143.227 3885.07,-145.031 3897,-139 3909.53,-132.669 3921.96,-123.544 3932.3,-114.947"/>
<polygon fill="black" stroke="black" points="3934.81,-117.404 3940.1,-108.228 3930.24,-112.099 3934.81,-117.404"/>
</g>
<!-- 30&#45;&gt;16 -->
<g id="edge13" class="edge"><title>30&#45;&gt;16</title>
<path fill="none" stroke="black" d="M3762.21,-167.102C3773.2,-152.872 3789.01,-132.406 3801.47,-116.281"/>
<polygon fill="black" stroke="black" points="3804.29,-118.354 3807.63,-108.301 3798.75,-114.074 3804.29,-118.354"/>
</g>
<!-- 30&#45;&gt;1 -->
<g id="edge11" class="edge"><title>30&#45;&gt;1</title>
<path fill="none" stroke="black" stroke-width="1.69315" d="M3741.29,-167.039C3731.03,-141.28 3716.9,-92.5918 3742,-64 3760.69,-42.7021 3937.81,-28.3988 4030.32,-22.316"/>
<polygon fill="black" stroke="black" stroke-width="1.69315" points="4030.6,-25.8052 4040.35,-21.6667 4030.15,-18.8198 4030.6,-25.8052"/>
</g>
<!-- 31 -->
<g id="node33" class="node"><title>31</title>
<polygon fill="gold" stroke="black" stroke-width="2" points="3572.5,-302.067 3399.5,-302.067 3399.5,-266.067 3572.5,-266.067 3572.5,-302.067"/>
<text text-anchor="middle" x="3486" y="-280.367" font-family="Times,serif" font-size="14.00">restrictThentosLabel&#39;</text>
</g>
<!-- 31&#45;&gt;30 -->
<g id="edge14" class="edge"><title>31&#45;&gt;30</title>
<path fill="none" stroke="chartreuse" d="M3530.38,-265.91C3546.6,-259.694 3565.11,-252.662 3582,-246.391 3618.26,-232.929 3659.11,-218.198 3691.33,-206.678"/>
<polygon fill="chartreuse" stroke="chartreuse" points="3692.8,-209.87 3701.04,-203.21 3690.45,-203.278 3692.8,-209.87"/>
</g>
<!-- 32 -->
<g id="node34" class="node"><title>32</title>
<polygon fill="gold" stroke="black" stroke-width="2" points="5008.5,-302.067 4901.5,-302.067 4901.5,-266.067 5008.5,-266.067 5008.5,-302.067"/>
<text text-anchor="middle" x="4955" y="-280.367" font-family="Times,serif" font-size="14.00">returnDb</text>
</g>
<!-- 33 -->
<g id="node35" class="node"><title>33</title>
<polygon fill="gold" stroke="black" stroke-width="2" points="706,-302.067 552,-302.067 552,-266.067 706,-266.067 706,-302.067"/>
<text text-anchor="middle" x="629" y="-280.367" font-family="Times,serif" font-size="14.00">runThentosQuery</text>
</g>
<!-- 33&#45;&gt;19 -->
<g id="edge15" class="edge"><title>33&#45;&gt;19</title>
<path fill="none" stroke="black" stroke-width="1.69315" d="M644.554,-265.749C658.286,-250.458 678.463,-227.992 693.875,-210.831"/>
<polygon fill="black" stroke="black" stroke-width="1.69315" points="696.503,-213.143 700.581,-203.364 691.295,-208.466 696.503,-213.143"/>
</g>
<!-- 34 -->
<g id="node36" class="node"><title>34</title>
<polygon fill="gold" stroke="black" stroke-width="2" points="883.5,-302.067 724.5,-302.067 724.5,-266.067 883.5,-266.067 883.5,-302.067"/>
<text text-anchor="middle" x="804" y="-280.367" font-family="Times,serif" font-size="14.00">runThentosUpdate</text>
</g>
<!-- 34&#45;&gt;19 -->
<g id="edge16" class="edge"><title>34&#45;&gt;19</title>
<path fill="none" stroke="black" stroke-width="1.69315" d="M788.267,-265.749C774.377,-250.458 753.969,-227.992 738.379,-210.831"/>
<polygon fill="black" stroke="black" stroke-width="1.69315" points="740.911,-208.413 731.596,-203.364 735.73,-213.12 740.911,-208.413"/>
</g>
<!-- 35 -->
<g id="node37" class="node"><title>35</title>
<polygon fill="gold" stroke="black" stroke-width="2" points="2225,-203.196 2093,-203.196 2093,-167.196 2225,-167.196 2225,-203.196"/>
<text text-anchor="middle" x="2159" y="-181.496" font-family="Times,serif" font-size="14.00">showDbError</text>
</g>
<!-- 35&#45;&gt;2 -->
<g id="edge17" class="edge"><title>35&#45;&gt;2</title>
<path fill="none" stroke="black" d="M2225.29,-184.648C2433.27,-185.573 3071.01,-184.523 3272,-139 3296.69,-133.408 3322.77,-122.554 3343.55,-112.581"/>
<polygon fill="black" stroke="black" points="3345.27,-115.636 3352.7,-108.083 3342.18,-109.354 3345.27,-115.636"/>
</g>
<!-- 35&#45;&gt;3 -->
<g id="edge18" class="edge"><title>35&#45;&gt;3</title>
<path fill="none" stroke="black" d="M2225.18,-182.903C2427.13,-178.701 3026.85,-164.222 3111,-139 3128.89,-133.637 3146.95,-123.496 3161.47,-113.913"/>
<polygon fill="black" stroke="black" points="3163.73,-116.602 3170.01,-108.065 3159.78,-110.825 3163.73,-116.602"/>
</g>
<!-- 35&#45;&gt;4 -->
<g id="edge19" class="edge"><title>35&#45;&gt;4</title>
<path fill="none" stroke="black" d="M2225.13,-182.527C2376.3,-178.296 2743.4,-165.549 2864,-139 2891.15,-133.024 2920.19,-122.051 2943.34,-112.103"/>
<polygon fill="black" stroke="black" points="2944.8,-115.285 2952.55,-108.066 2941.99,-108.874 2944.8,-115.285"/>
</g>
<!-- 35&#45;&gt;5 -->
<g id="edge20" class="edge"><title>35&#45;&gt;5</title>
<path fill="none" stroke="black" d="M2225.24,-181.162C2342.6,-175.305 2582.28,-161.041 2663,-139 2684.79,-133.051 2707.63,-122.595 2726.08,-112.958"/>
<polygon fill="black" stroke="black" points="2727.85,-115.975 2735.02,-108.169 2724.55,-109.804 2727.85,-115.975"/>
</g>
<!-- 35&#45;&gt;6 -->
<g id="edge21" class="edge"><title>35&#45;&gt;6</title>
<path fill="none" stroke="black" d="M2225.12,-174.781C2273.92,-167.114 2341.69,-154.953 2400,-139 2427.3,-131.529 2456.99,-120.963 2481.28,-111.646"/>
<polygon fill="black" stroke="black" points="2482.59,-114.891 2490.65,-108.011 2480.06,-108.364 2482.59,-114.891"/>
</g>
<!-- 35&#45;&gt;7 -->
<g id="edge22" class="edge"><title>35&#45;&gt;7</title>
<path fill="none" stroke="black" d="M2189.48,-167.174C2204.44,-158.767 2222.71,-148.428 2239,-139 2253.39,-130.672 2269.13,-121.384 2282.88,-113.214"/>
<polygon fill="black" stroke="black" points="2284.79,-116.15 2291.6,-108.027 2281.21,-110.135 2284.79,-116.15"/>
</g>
<!-- 35&#45;&gt;8 -->
<g id="edge23" class="edge"><title>35&#45;&gt;8</title>
<path fill="none" stroke="black" d="M2159,-167.102C2159,-153.525 2159,-134.271 2159,-118.527"/>
<polygon fill="black" stroke="black" points="2162.5,-118.301 2159,-108.301 2155.5,-118.301 2162.5,-118.301"/>
</g>
<!-- 35&#45;&gt;9 -->
<g id="edge24" class="edge"><title>35&#45;&gt;9</title>
<path fill="none" stroke="black" d="M2127.15,-167.122C2112.1,-158.877 2093.97,-148.689 2078,-139 2064.96,-131.087 2050.89,-121.982 2038.62,-113.843"/>
<polygon fill="black" stroke="black" points="2040.31,-110.759 2030.05,-108.118 2036.42,-116.581 2040.31,-110.759"/>
</g>
<!-- 35&#45;&gt;10 -->
<g id="edge25" class="edge"><title>35&#45;&gt;10</title>
<path fill="none" stroke="black" d="M2092.95,-173.262C2047.39,-165.182 1985.62,-153.154 1932,-139 1902.32,-131.163 1869.82,-120.597 1843.13,-111.373"/>
<polygon fill="black" stroke="black" points="1844.17,-108.029 1833.58,-108.043 1841.87,-114.639 1844.17,-108.029"/>
</g>
<!-- 35&#45;&gt;11 -->
<g id="edge26" class="edge"><title>35&#45;&gt;11</title>
<path fill="none" stroke="black" d="M2092.69,-183.781C1837.76,-181.941 928.749,-173.035 804,-139 784.632,-133.716 764.85,-123.447 748.96,-113.759"/>
<polygon fill="black" stroke="black" points="750.412,-110.537 740.087,-108.164 746.679,-116.458 750.412,-110.537"/>
</g>
<!-- 35&#45;&gt;12 -->
<g id="edge27" class="edge"><title>35&#45;&gt;12</title>
<path fill="none" stroke="black" d="M2092.84,-181.674C1973,-176.567 1724.76,-163.362 1642,-139 1622.34,-133.212 1602.02,-122.969 1585.58,-113.427"/>
<polygon fill="black" stroke="black" points="1587.26,-110.352 1576.88,-108.231 1583.67,-116.362 1587.26,-110.352"/>
</g>
<!-- 35&#45;&gt;13 -->
<g id="edge28" class="edge"><title>35&#45;&gt;13</title>
<path fill="none" stroke="black" d="M2092.88,-182.462C1942.66,-178.113 1579.46,-165.163 1460,-139 1432.66,-133.012 1403.38,-122.038 1380.04,-112.093"/>
<polygon fill="black" stroke="black" points="1381.32,-108.832 1370.75,-108.056 1378.53,-115.252 1381.32,-108.832"/>
</g>
<!-- 35&#45;&gt;14 -->
<g id="edge29" class="edge"><title>35&#45;&gt;14</title>
<path fill="none" stroke="black" d="M2093,-184.554C1906.32,-185.013 1377.25,-182.34 1210,-139 1188.63,-133.461 1166.43,-122.893 1148.68,-113.08"/>
<polygon fill="black" stroke="black" points="1150.25,-109.947 1139.83,-108.048 1146.79,-116.032 1150.25,-109.947"/>
</g>
<!-- 35&#45;&gt;17 -->
<g id="edge30" class="edge"><title>35&#45;&gt;17</title>
<path fill="none" stroke="black" d="M2092.84,-183.06C1864.91,-178.945 1120.54,-163.738 1016,-139 992.58,-133.458 968.002,-122.679 948.416,-112.738"/>
<polygon fill="black" stroke="black" points="949.996,-109.615 939.51,-108.101 946.764,-115.824 949.996,-109.615"/>
</g>
<!-- 35&#45;&gt;18 -->
<g id="edge31" class="edge"><title>35&#45;&gt;18</title>
<path fill="none" stroke="black" d="M2225.17,-183.468C2477.45,-180.488 3370.99,-167.973 3495,-139 3518.44,-133.525 3543.01,-122.75 3562.6,-112.795"/>
<polygon fill="black" stroke="black" points="3564.25,-115.879 3571.5,-108.151 3561.02,-109.672 3564.25,-115.879"/>
</g>
<!-- 36&#45;&gt;1 -->
<g id="edge32" class="edge"><title>36&#45;&gt;1</title>
<path fill="none" stroke="black" d="M4122.89,-71.6966C4117.13,-63.4741 4110.14,-53.4832 4103.79,-44.4207"/>
<polygon fill="black" stroke="black" points="4106.58,-42.2895 4097.97,-36.1043 4100.84,-46.3038 4106.58,-42.2895"/>
</g>
<!-- 37 -->
<g id="node39" class="node"><title>37</title>
<polygon fill="gold" stroke="black" stroke-width="2" points="4238,-203.196 4058,-203.196 4058,-167.196 4238,-167.196 4238,-203.196"/>
<text text-anchor="middle" x="4148" y="-181.496" font-family="Times,serif" font-size="14.00">thentosLabeledDenied</text>
</g>
<!-- 37&#45;&gt;36 -->
<g id="edge33" class="edge"><title>37&#45;&gt;36</title>
<path fill="none" stroke="black" d="M4145.62,-167.102C4143.72,-153.525 4141.04,-134.271 4138.84,-118.527"/>
<polygon fill="black" stroke="black" points="4142.26,-117.721 4137.41,-108.301 4135.33,-118.688 4142.26,-117.721"/>
</g>
<!-- 38 -->
<g id="node40" class="node"><title>38</title>
<polygon fill="gold" stroke="black" stroke-width="2" points="4432,-203.196 4256,-203.196 4256,-167.196 4432,-167.196 4432,-203.196"/>
<text text-anchor="middle" x="4344" y="-181.496" font-family="Times,serif" font-size="14.00">thentosLabeledPublic</text>
</g>
<!-- 39 -->
<g id="node41" class="node"><title>39</title>
<polygon fill="goldenrod" stroke="black" stroke-width="2" points="4382,-108 4250,-108 4250,-72 4382,-72 4382,-108"/>
<text text-anchor="middle" x="4316" y="-86.3" font-family="Times,serif" font-size="14.00">thentosPublic</text>
</g>
<!-- 38&#45;&gt;39 -->
<g id="edge34" class="edge"><title>38&#45;&gt;39</title>
<path fill="none" stroke="chartreuse" d="M4338.86,-167.102C4334.75,-153.394 4328.89,-133.9 4324.13,-118.074"/>
<polygon fill="chartreuse" stroke="chartreuse" points="4327.43,-116.871 4321.2,-108.301 4320.72,-118.885 4327.43,-116.871"/>
</g>
<!-- 39&#45;&gt;1 -->
<g id="edge35" class="edge"><title>39&#45;&gt;1</title>
<path fill="none" stroke="black" d="M4260.03,-71.9656C4224.05,-61.0162 4177.5,-46.8483 4141.6,-35.9212"/>
<polygon fill="black" stroke="black" points="4142.36,-32.4938 4131.77,-32.9305 4140.32,-39.1905 4142.36,-32.4938"/>
</g>
<!-- 40 -->
<g id="node42" class="node"><title>40</title>
<polygon fill="gold" stroke="black" stroke-width="2" points="5133.5,-302.067 5026.5,-302.067 5026.5,-266.067 5133.5,-266.067 5133.5,-302.067"/>
<text text-anchor="middle" x="5080" y="-280.367" font-family="Times,serif" font-size="14.00">throwDb</text>
</g>
</g>
</svg>
