<?xml version="1.0" encoding="UTF-8" standalone="no"?>
<!DOCTYPE svg PUBLIC "-//W3C//DTD SVG 1.1//EN"
 "http://www.w3.org/Graphics/SVG/1.1/DTD/svg11.dtd">
<!-- Generated by graphviz version 2.38.0 (20140413.2041)
 -->
<!-- Title: Levels within Thentos.Config Pages: 1 -->
<svg width="3691pt" height="305pt"
 viewBox="0.00 0.00 3691.00 304.74" xmlns="http://www.w3.org/2000/svg" xmlns:xlink="http://www.w3.org/1999/xlink">
<g id="graph0" class="graph" transform="scale(1 1) rotate(0) translate(4 300.744)">
<title>Levels within Thentos.Config</title>
<polygon fill="white" stroke="none" points="-4,4 -4,-300.744 3687,-300.744 3687,4 -4,4"/>
<g id="clust1" class="cluster"><title>cluster_0</title>
<polygon fill="lavender" stroke="black" points="8,-8 8,-197.352 1503,-197.352 1503,-8 8,-8"/>
<text text-anchor="middle" x="755.5" y="-182.152" font-family="Times,serif" font-size="14.00">Exported root entities</text>
</g>
<g id="clust2" class="cluster"><title>cluster_1</title>
<polygon fill="lavender" stroke="black" points="475,-205.352 475,-288.744 2761,-288.744 2761,-205.352 475,-205.352"/>
<text text-anchor="middle" x="1618" y="-273.544" font-family="Times,serif" font-size="14.00">Level = 1</text>
</g>
<g id="clust3" class="cluster"><title>cluster_2</title>
<polygon fill="lavender" stroke="black" points="1511,-8 1511,-177.676 2640,-177.676 2640,-8 1511,-8"/>
<text text-anchor="middle" x="2075.5" y="-162.476" font-family="Times,serif" font-size="14.00">Level = 2</text>
</g>
<g id="clust4" class="cluster"><title>cluster_3</title>
<polygon fill="lavender" stroke="black" points="2648,-102.676 2648,-177.676 3598,-177.676 3598,-102.676 2648,-102.676"/>
<text text-anchor="middle" x="3123" y="-162.476" font-family="Times,serif" font-size="14.00">Level = 3</text>
</g>
<g id="clust5" class="cluster"><title>cluster_4</title>
<polygon fill="lavender" stroke="black" points="2648,-8 2648,-83 3675,-83 3675,-8 2648,-8"/>
<text text-anchor="middle" x="3161.5" y="-67.8" font-family="Times,serif" font-size="14.00">Level = 4</text>
</g>
<!-- 5 -->
<g id="node1" class="node"><title>5</title>
<polygon fill="goldenrod" stroke="black" stroke-width="2" points="1495,-146.676 1323,-146.676 1319,-142.676 1319,-110.676 1491,-110.676 1495,-114.676 1495,-146.676"/>
<polyline fill="none" stroke="black" stroke-width="2" points="1491,-142.676 1319,-142.676 "/>
<polyline fill="none" stroke="black" stroke-width="2" points="1491,-142.676 1491,-110.676 "/>
<polyline fill="none" stroke="black" stroke-width="2" points="1491,-142.676 1495,-146.676 "/>
<text text-anchor="middle" x="1407" y="-124.976" font-family="Times,serif" font-size="14.00">Data: BackendConfig</text>
</g>
<!-- 8 -->
<g id="node2" class="node"><title>8</title>
<polygon fill="goldenrod" stroke="black" stroke-width="2" points="1301.5,-146.676 1156.5,-146.676 1152.5,-142.676 1152.5,-110.676 1297.5,-110.676 1301.5,-114.676 1301.5,-146.676"/>
<polyline fill="none" stroke="black" stroke-width="2" points="1297.5,-142.676 1152.5,-142.676 "/>
<polyline fill="none" stroke="black" stroke-width="2" points="1297.5,-142.676 1297.5,-110.676 "/>
<polyline fill="none" stroke="black" stroke-width="2" points="1297.5,-142.676 1301.5,-146.676 "/>
<text text-anchor="middle" x="1227" y="-124.976" font-family="Times,serif" font-size="14.00">Data: Command</text>
</g>
<!-- 9 -->
<g id="node3" class="node"><title>9</title>
<polygon fill="goldenrod" stroke="black" stroke-width="2" points="1135,-146.676 961,-146.676 957,-142.676 957,-110.676 1131,-110.676 1135,-114.676 1135,-146.676"/>
<polyline fill="none" stroke="black" stroke-width="2" points="1131,-142.676 957,-142.676 "/>
<polyline fill="none" stroke="black" stroke-width="2" points="1131,-142.676 1131,-110.676 "/>
<polyline fill="none" stroke="black" stroke-width="2" points="1131,-142.676 1135,-146.676 "/>
<text text-anchor="middle" x="1046" y="-124.976" font-family="Times,serif" font-size="14.00">Data: FrontendConfig</text>
</g>
<!-- 13 -->
<g id="node4" class="node"><title>13</title>
<polygon fill="goldenrod" stroke="black" stroke-width="2" points="938.5,-146.676 781.5,-146.676 777.5,-142.676 777.5,-110.676 934.5,-110.676 938.5,-114.676 938.5,-146.676"/>
<polyline fill="none" stroke="black" stroke-width="2" points="934.5,-142.676 777.5,-142.676 "/>
<polyline fill="none" stroke="black" stroke-width="2" points="934.5,-142.676 934.5,-110.676 "/>
<polyline fill="none" stroke="black" stroke-width="2" points="934.5,-142.676 938.5,-146.676 "/>
<text text-anchor="middle" x="858" y="-124.976" font-family="Times,serif" font-size="14.00">Data: ProxyConfig</text>
</g>
<!-- 18 -->
<g id="node5" class="node"><title>18</title>
<polygon fill="goldenrod" stroke="black" stroke-width="2" points="1051.5,-52 882.5,-52 878.5,-48 878.5,-16 1047.5,-16 1051.5,-20 1051.5,-52"/>
<polyline fill="none" stroke="black" stroke-width="2" points="1047.5,-48 878.5,-48 "/>
<polyline fill="none" stroke="black" stroke-width="2" points="1047.5,-48 1047.5,-16 "/>
<polyline fill="none" stroke="black" stroke-width="2" points="1047.5,-48 1051.5,-52 "/>
<text text-anchor="middle" x="965" y="-30.3" font-family="Times,serif" font-size="14.00">Data: ThentosConfig</text>
</g>
<!-- 33 -->
<g id="node6" class="node"><title>33</title>
<polygon fill="gold" stroke="black" stroke-width="2" points="759,-146.676 627,-146.676 627,-110.676 759,-110.676 759,-146.676"/>
<text text-anchor="middle" x="693" y="-124.976" font-family="Times,serif" font-size="14.00">configLogger</text>
</g>
<!-- 36 -->
<g id="node7" class="node"><title>36</title>
<polygon fill="gold" stroke="black" stroke-width="2" points="609,-146.676 435,-146.676 435,-110.676 609,-110.676 609,-146.676"/>
<text text-anchor="middle" x="522" y="-124.976" font-family="Times,serif" font-size="14.00">emptyThentosConfig</text>
</g>
<!-- 36&#45;&gt;18 -->
<g id="edge1" class="edge"><title>36&#45;&gt;18</title>
<path fill="none" stroke="black" d="M561.099,-110.652C578.286,-103.716 598.874,-96.1385 618,-91 701.132,-68.6653 798.007,-53.9414 868.239,-45.2222"/>
<polygon fill="black" stroke="black" points="868.902,-48.6673 878.403,-43.9792 868.052,-41.7191 868.902,-48.6673"/>
</g>
<!-- 44 -->
<g id="node8" class="node"><title>44</title>
<polygon fill="gold" stroke="black" stroke-width="2" points="149.5,-146.676 16.5,-146.676 16.5,-110.676 149.5,-110.676 149.5,-146.676"/>
<text text-anchor="middle" x="83" y="-124.976" font-family="Times,serif" font-size="14.00">getCommand</text>
</g>
<!-- 38 -->
<g id="node10" class="node"><title>38</title>
<polygon fill="bisque" stroke="black" stroke-width="2" points="1320,-253.548 1164,-253.548 1164,-217.548 1320,-217.548 1320,-253.548"/>
<text text-anchor="middle" x="1242" y="-231.848" font-family="Times,serif" font-size="14.00">finaliseCommand</text>
</g>
<!-- 44&#45;&gt;38 -->
<g id="edge18" class="edge"><title>44&#45;&gt;38</title>
<path fill="none" stroke="black" d="M95.6979,-146.797C109.09,-163.285 131.849,-187.177 158,-197.352 183.81,-207.395 1127.68,-200.779 1155,-205.352 1166.55,-207.285 1178.63,-210.514 1189.99,-214.135"/>
<polygon fill="black" stroke="black" points="1189.17,-217.55 1199.76,-217.396 1191.39,-210.91 1189.17,-217.55"/>
</g>
<!-- 54 -->
<g id="node15" class="node"><title>54</title>
<polygon fill="bisque" stroke="black" stroke-width="2" points="667.5,-253.548 482.5,-253.548 482.5,-217.548 667.5,-217.548 667.5,-253.548"/>
<text text-anchor="middle" x="575" y="-231.848" font-family="Times,serif" font-size="14.00">parseCommandBuilder</text>
</g>
<!-- 44&#45;&gt;54 -->
<g id="edge19" class="edge"><title>44&#45;&gt;54</title>
<path fill="none" stroke="black" d="M96.3925,-146.963C109.987,-163.086 132.603,-186.268 158,-197.352 212.395,-221.093 367.092,-229.681 471.982,-232.788"/>
<polygon fill="black" stroke="black" points="472.194,-236.295 482.29,-233.08 472.393,-229.298 472.194,-236.295"/>
</g>
<!-- 65 -->
<g id="node9" class="node"><title>65</title>
<polygon fill="khaki" stroke="black" stroke-dasharray="1,5" points="412.858,-114.662 412.858,-142.691 342.061,-162.51 241.939,-162.51 171.142,-142.691 171.142,-114.662 241.939,-94.8418 342.061,-94.8418 412.858,-114.662"/>
<polygon fill="none" stroke="black" stroke-dasharray="1,5" points="416.856,-111.609 416.856,-145.743 342.607,-166.529 241.393,-166.529 167.144,-145.743 167.144,-111.609 241.393,-90.823 342.607,-90.823 416.856,-111.609"/>
<text text-anchor="middle" x="292" y="-132.476" font-family="Times,serif" font-size="14.00">Unknown Module</text>
<text text-anchor="middle" x="292" y="-117.476" font-family="Times,serif" font-size="14.00">Class: Monoid</text>
</g>
<!-- 45 -->
<g id="node11" class="node"><title>45</title>
<polygon fill="bisque" stroke="black" stroke-width="2" points="1804.37,-226.272 1804.37,-244.823 1667.67,-257.941 1474.33,-257.941 1337.63,-244.823 1337.63,-226.272 1474.33,-213.155 1667.67,-213.155 1804.37,-226.272"/>
<text text-anchor="middle" x="1571" y="-231.848" font-family="Times,serif" font-size="14.00">Class: Monoid, Data: BackendConfigBuilder</text>
</g>
<!-- 65&#45;&gt;45 -->
<g id="edge47" class="edge"><title>65&#45;&gt;45</title>
<path fill="none" stroke="navy" stroke-width="1.69315" d="M347.8,-165.078C371.045,-177.868 398.901,-190.77 426,-197.352 474.751,-209.193 1278.94,-202.121 1329,-205.352 1365.64,-207.717 1405.23,-211.832 1441.57,-216.239"/>
</g>
<!-- 46 -->
<g id="node12" class="node"><title>46</title>
<polygon fill="bisque" stroke="black" stroke-width="2" points="2291.4,-226.272 2291.4,-244.823 2154.09,-257.941 1959.91,-257.941 1822.6,-244.823 1822.6,-226.272 1959.91,-213.155 2154.09,-213.155 2291.4,-226.272"/>
<text text-anchor="middle" x="2057" y="-231.848" font-family="Times,serif" font-size="14.00">Class: Monoid, Data: FrontendConfigBuilder</text>
</g>
<!-- 65&#45;&gt;46 -->
<g id="edge48" class="edge"><title>65&#45;&gt;46</title>
<path fill="none" stroke="navy" stroke-width="1.69315" d="M347.79,-165.12C371.034,-177.916 398.891,-190.812 426,-197.352 463.454,-206.388 1774.55,-202.949 1813,-205.352 1850.15,-207.675 1890.32,-211.805 1927.14,-216.242"/>
</g>
<!-- 47 -->
<g id="node13" class="node"><title>47</title>
<polygon fill="bisque" stroke="black" stroke-width="2" points="2752.91,-226.272 2752.91,-244.823 2622.92,-257.941 2439.08,-257.941 2309.09,-244.823 2309.09,-226.272 2439.08,-213.155 2622.92,-213.155 2752.91,-226.272"/>
<text text-anchor="middle" x="2531" y="-231.848" font-family="Times,serif" font-size="14.00">Class: Monoid, Data: ProxyConfigBuilder</text>
</g>
<!-- 65&#45;&gt;47 -->
<g id="edge49" class="edge"><title>65&#45;&gt;47</title>
<path fill="none" stroke="navy" stroke-width="1.69315" d="M347.785,-165.141C371.028,-177.94 398.886,-190.833 426,-197.352 476.613,-209.522 2248.05,-201.971 2300,-205.352 2335.3,-207.65 2373.45,-211.787 2408.39,-216.239"/>
</g>
<!-- 48 -->
<g id="node14" class="node"><title>48</title>
<polygon fill="bisque" stroke="black" stroke-width="2" points="1146.25,-226.272 1146.25,-244.823 1011.37,-257.941 820.627,-257.941 685.749,-244.823 685.749,-226.272 820.627,-213.155 1011.37,-213.155 1146.25,-226.272"/>
<text text-anchor="middle" x="916" y="-231.848" font-family="Times,serif" font-size="14.00">Class: Monoid, Data: ThentosConfigBuilder</text>
</g>
<!-- 65&#45;&gt;48 -->
<g id="edge50" class="edge"><title>65&#45;&gt;48</title>
<path fill="none" stroke="navy" stroke-width="1.69315" d="M353.888,-163.51C378.314,-176.649 407.095,-190.232 435,-197.352 488.858,-211.095 629.579,-201.103 685,-205.352 719.318,-207.983 756.275,-211.925 790.363,-216.066"/>
</g>
<!-- 38&#45;&gt;8 -->
<g id="edge5" class="edge"><title>38&#45;&gt;8</title>
<path fill="none" stroke="black" stroke-width="2.38629" d="M1239.52,-217.23C1237.19,-200.911 1233.65,-176.194 1230.93,-157.178"/>
<polygon fill="black" stroke="black" stroke-width="2.38629" points="1234.36,-156.423 1229.48,-147.019 1227.43,-157.414 1234.36,-156.423"/>
</g>
<!-- 1 -->
<g id="node16" class="node"><title>1</title>
<polygon fill="cyan" stroke="black" stroke-width="2" points="1709,-52 1523,-52 1519,-48 1519,-16 1705,-16 1709,-20 1709,-52"/>
<polyline fill="none" stroke="black" stroke-width="2" points="1705,-48 1519,-48 "/>
<polyline fill="none" stroke="black" stroke-width="2" points="1705,-48 1705,-16 "/>
<polyline fill="none" stroke="black" stroke-width="2" points="1705,-48 1709,-52 "/>
<text text-anchor="middle" x="1614" y="-30.3" font-family="Times,serif" font-size="14.00">Data: CommandBuilder</text>
</g>
<!-- 38&#45;&gt;1 -->
<g id="edge4" class="edge"><title>38&#45;&gt;1</title>
<path fill="none" stroke="black" stroke-width="2.38629" d="M1284.24,-217.413C1298.25,-212.535 1314.07,-207.866 1329,-205.352 1340.01,-203.498 2125.14,-205.288 2133,-197.352 2166.26,-163.763 2166.1,-124.744 2133,-91 2124.93,-82.7689 1729.24,-85.5819 1718,-83 1694.85,-77.6808 1670.66,-66.8746 1651.44,-56.8603"/>
<polygon fill="black" stroke="black" stroke-width="2.38629" points="1652.9,-53.6713 1642.43,-52.0352 1649.6,-59.842 1652.9,-53.6713"/>
</g>
<!-- 39 -->
<g id="node21" class="node"><title>39</title>
<polygon fill="bisque" stroke="black" stroke-width="2" points="1927,-146.676 1791,-146.676 1791,-110.676 1927,-110.676 1927,-146.676"/>
<text text-anchor="middle" x="1859" y="-124.976" font-family="Times,serif" font-size="14.00">finaliseConfig</text>
</g>
<!-- 38&#45;&gt;39 -->
<g id="edge6" class="edge"><title>38&#45;&gt;39</title>
<path fill="none" stroke="black" stroke-width="1.69315" d="M1284.25,-217.481C1298.26,-212.607 1314.08,-207.924 1329,-205.352 1353.8,-201.076 1758.53,-206.439 1782,-197.352 1804.61,-188.598 1824.97,-169.992 1839.06,-154.501"/>
<polygon fill="black" stroke="black" stroke-width="1.69315" points="1841.89,-156.583 1845.84,-146.752 1836.62,-151.974 1841.89,-156.583"/>
</g>
<!-- 55 -->
<g id="node22" class="node"><title>55</title>
<polygon fill="bisque" stroke="black" stroke-width="2" points="2091,-146.676 1945,-146.676 1945,-110.676 2091,-110.676 2091,-146.676"/>
<text text-anchor="middle" x="2018" y="-124.976" font-family="Times,serif" font-size="14.00">parseConfigFile</text>
</g>
<!-- 38&#45;&gt;55 -->
<g id="edge7" class="edge"><title>38&#45;&gt;55</title>
<path fill="none" stroke="black" stroke-width="1.69315" d="M1284.24,-217.441C1298.25,-212.565 1314.08,-207.89 1329,-205.352 1362.25,-199.697 1904.34,-208.967 1936,-197.352 1959.83,-188.612 1981.72,-169.737 1996.87,-154.136"/>
<polygon fill="black" stroke="black" stroke-width="1.69315" points="1999.47,-156.487 2003.75,-146.798 1994.36,-151.699 1999.47,-156.487"/>
</g>
<!-- 6 -->
<g id="node17" class="node"><title>6</title>
<polygon fill="cyan" stroke="black" stroke-width="2" points="2175.5,-52 1962.5,-52 1958.5,-48 1958.5,-16 2171.5,-16 2175.5,-20 2175.5,-52"/>
<polyline fill="none" stroke="black" stroke-width="2" points="2171.5,-48 1958.5,-48 "/>
<polyline fill="none" stroke="black" stroke-width="2" points="2171.5,-48 2171.5,-16 "/>
<polyline fill="none" stroke="black" stroke-width="2" points="2171.5,-48 2175.5,-52 "/>
<text text-anchor="middle" x="2067" y="-30.3" font-family="Times,serif" font-size="14.00">Data: BackendConfigBuilder</text>
</g>
<!-- 45&#45;&gt;6 -->
<g id="edge20" class="edge"><title>45&#45;&gt;6</title>
<path fill="none" stroke="black" stroke-width="2.60944" d="M1701.93,-216.4C1738.16,-212.037 1777.55,-207.905 1814,-205.352 1824.95,-204.586 2201.32,-205.191 2209,-197.352 2242.08,-163.592 2236.64,-129.346 2209,-91 2202.43,-81.8787 2195.55,-86.8981 2185,-83 2162.33,-74.622 2137.52,-64.6514 2116.52,-55.974"/>
<polygon fill="black" stroke="black" stroke-width="2.60944" points="2117.74,-52.6906 2107.16,-52.0884 2115.06,-59.1555 2117.74,-52.6906"/>
</g>
<!-- 10 -->
<g id="node18" class="node"><title>10</title>
<polygon fill="cyan" stroke="black" stroke-width="2" points="2412,-52 2198,-52 2194,-48 2194,-16 2408,-16 2412,-20 2412,-52"/>
<polyline fill="none" stroke="black" stroke-width="2" points="2408,-48 2194,-48 "/>
<polyline fill="none" stroke="black" stroke-width="2" points="2408,-48 2408,-16 "/>
<polyline fill="none" stroke="black" stroke-width="2" points="2408,-48 2412,-52 "/>
<text text-anchor="middle" x="2303" y="-30.3" font-family="Times,serif" font-size="14.00">Data: FrontendConfigBuilder</text>
</g>
<!-- 46&#45;&gt;10 -->
<g id="edge21" class="edge"><title>46&#45;&gt;10</title>
<path fill="none" stroke="black" stroke-width="2.60944" d="M2195.27,-217.046C2218.32,-211.889 2237.74,-205.405 2247,-197.352 2286.65,-162.857 2298.25,-98.8959 2301.63,-62.399"/>
<polygon fill="black" stroke="black" stroke-width="2.60944" points="2305.15,-62.2583 2302.43,-52.0172 2298.17,-61.7161 2305.15,-62.2583"/>
</g>
<!-- 14 -->
<g id="node19" class="node"><title>14</title>
<polygon fill="cyan" stroke="black" stroke-width="2" points="2632,-52 2434,-52 2430,-48 2430,-16 2628,-16 2632,-20 2632,-52"/>
<polyline fill="none" stroke="black" stroke-width="2" points="2628,-48 2430,-48 "/>
<polyline fill="none" stroke="black" stroke-width="2" points="2628,-48 2628,-16 "/>
<polyline fill="none" stroke="black" stroke-width="2" points="2628,-48 2632,-52 "/>
<text text-anchor="middle" x="2531" y="-30.3" font-family="Times,serif" font-size="14.00">Data: ProxyConfigBuilder</text>
</g>
<!-- 47&#45;&gt;14 -->
<g id="edge22" class="edge"><title>47&#45;&gt;14</title>
<path fill="none" stroke="black" stroke-width="2.60944" d="M2531,-213.193C2531,-176.722 2531,-102.486 2531,-62.3028"/>
<polygon fill="black" stroke="black" stroke-width="2.60944" points="2534.5,-62.1644 2531,-52.1644 2527.5,-62.1645 2534.5,-62.1644"/>
</g>
<!-- 48&#45;&gt;65 -->
<g id="edge24" class="edge"><title>48&#45;&gt;65</title>
<path fill="none" stroke="black" stroke-width="2.09861" d="M780.843,-217.016C743.924,-212.533 703.934,-208.184 667,-205.352 611.579,-201.103 470.858,-211.095 417,-197.352 394.553,-191.625 371.539,-181.716 351.435,-171.219"/>
<polygon fill="black" stroke="black" stroke-width="2.09861" points="352.88,-168.022 342.415,-166.368 349.564,-174.187 352.88,-168.022"/>
</g>
<!-- 19 -->
<g id="node20" class="node"><title>19</title>
<polygon fill="cyan" stroke="black" stroke-width="2" points="1940.5,-52 1731.5,-52 1727.5,-48 1727.5,-16 1936.5,-16 1940.5,-20 1940.5,-52"/>
<polyline fill="none" stroke="black" stroke-width="2" points="1936.5,-48 1727.5,-48 "/>
<polyline fill="none" stroke="black" stroke-width="2" points="1936.5,-48 1936.5,-16 "/>
<polyline fill="none" stroke="black" stroke-width="2" points="1936.5,-48 1940.5,-52 "/>
<text text-anchor="middle" x="1834" y="-30.3" font-family="Times,serif" font-size="14.00">Data: ThentosConfigBuilder</text>
</g>
<!-- 48&#45;&gt;19 -->
<g id="edge23" class="edge"><title>48&#45;&gt;19</title>
<path fill="none" stroke="black" stroke-width="3.77259" d="M1043.51,-216.258C1079.48,-211.837 1118.71,-207.71 1155,-205.352 1168.56,-204.472 2123.43,-206.997 2133,-197.352 2166.29,-163.793 2165.69,-125.141 2133,-91 2118.85,-76.219 1968.97,-87.4544 1949,-83 1923.62,-77.3389 1896.71,-66.4105 1875.32,-56.4097"/>
<polygon fill="black" stroke="black" stroke-width="3.77259" points="1876.73,-53.2076 1866.2,-52.051 1873.71,-59.5227 1876.73,-53.2076"/>
</g>
<!-- 54&#45;&gt;65 -->
<g id="edge29" class="edge"><title>54&#45;&gt;65</title>
<path fill="none" stroke="black" d="M492.802,-217.508C470.802,-212.009 447.24,-205.254 426,-197.352 404.403,-189.318 381.74,-178.76 361.323,-168.381"/>
<polygon fill="black" stroke="black" points="362.911,-165.262 352.418,-163.794 359.705,-171.485 362.911,-165.262"/>
</g>
<!-- 54&#45;&gt;1 -->
<g id="edge26" class="edge"><title>54&#45;&gt;1</title>
<path fill="none" stroke="black" stroke-width="1.69315" d="M624.214,-217.527C640.776,-212.59 659.496,-207.858 677,-205.352 686.782,-203.952 2093.03,-204.36 2100,-197.352 2133.33,-163.835 2133.07,-124.771 2100,-91 2092.57,-83.417 1728.34,-85.3852 1718,-83 1694.85,-77.6615 1670.66,-66.8541 1651.44,-56.8438"/>
<polygon fill="black" stroke="black" stroke-width="1.69315" points="1652.9,-53.6549 1642.44,-52.0212 1649.6,-59.8263 1652.9,-53.6549"/>
</g>
<!-- 58 -->
<g id="node23" class="node"><title>58</title>
<polygon fill="bisque" stroke="black" stroke-width="2" points="1773,-146.676 1663,-146.676 1663,-110.676 1773,-110.676 1773,-146.676"/>
<text text-anchor="middle" x="1718" y="-124.976" font-family="Times,serif" font-size="14.00">parseRun</text>
</g>
<!-- 54&#45;&gt;58 -->
<g id="edge27" class="edge"><title>54&#45;&gt;58</title>
<path fill="none" stroke="black" d="M624.477,-217.476C640.975,-212.569 659.59,-207.868 677,-205.352 703.861,-201.472 1629.12,-208.189 1654,-197.352 1673.83,-188.716 1690.41,-170.631 1701.72,-155.327"/>
<polygon fill="black" stroke="black" points="1704.88,-156.926 1707.76,-146.731 1699.15,-152.903 1704.88,-156.926"/>
</g>
<!-- 59 -->
<g id="node24" class="node"><title>59</title>
<polygon fill="bisque" stroke="black" stroke-width="2" points="1645,-146.676 1519,-146.676 1519,-110.676 1645,-110.676 1645,-146.676"/>
<text text-anchor="middle" x="1582" y="-124.976" font-family="Times,serif" font-size="14.00">parseRunA3</text>
</g>
<!-- 54&#45;&gt;59 -->
<g id="edge28" class="edge"><title>54&#45;&gt;59</title>
<path fill="none" stroke="black" d="M624.479,-217.491C640.977,-212.585 659.592,-207.88 677,-205.352 699.817,-202.039 1485.52,-205.73 1507,-197.352 1529.26,-188.669 1549.07,-170.059 1562.73,-154.548"/>
<polygon fill="black" stroke="black" points="1565.51,-156.683 1569.3,-146.788 1560.17,-152.162 1565.51,-156.683"/>
</g>
<!-- 39&#45;&gt;18 -->
<g id="edge9" class="edge"><title>39&#45;&gt;18</title>
<path fill="none" stroke="black" d="M1830.44,-110.575C1816.37,-103.074 1798.84,-95.0642 1782,-91 1752.28,-83.8288 1537.52,-84.7935 1507,-83 1351.01,-73.8318 1170.32,-56.4713 1061.97,-45.3331"/>
<polygon fill="black" stroke="black" points="1062.02,-41.8198 1051.71,-44.2751 1061.3,-48.7829 1062.02,-41.8198"/>
</g>
<!-- 39&#45;&gt;19 -->
<g id="edge10" class="edge"><title>39&#45;&gt;19</title>
<path fill="none" stroke="black" stroke-width="2.94591" d="M1854.3,-110.244C1850.64,-96.6969 1845.51,-77.6608 1841.32,-62.1257"/>
<polygon fill="black" stroke="black" stroke-width="2.94591" points="1844.58,-60.7837 1838.6,-52.0404 1837.82,-62.6069 1844.58,-60.7837"/>
</g>
<!-- 7 -->
<g id="node25" class="node"><title>7</title>
<polygon fill="cyan" stroke="black" stroke-width="2" points="3590,-146.676 3436,-146.676 3432,-142.676 3432,-110.676 3586,-110.676 3590,-114.676 3590,-146.676"/>
<polyline fill="none" stroke="black" stroke-width="2" points="3586,-142.676 3432,-142.676 "/>
<polyline fill="none" stroke="black" stroke-width="2" points="3586,-142.676 3586,-110.676 "/>
<polyline fill="none" stroke="black" stroke-width="2" points="3586,-142.676 3590,-146.676 "/>
<text text-anchor="middle" x="3511" y="-124.976" font-family="Times,serif" font-size="14.00">Data: ConfigError</text>
</g>
<!-- 39&#45;&gt;7 -->
<g id="edge8" class="edge"><title>39&#45;&gt;7</title>
<path fill="none" stroke="black" stroke-width="2.09861" d="M1871.64,-146.81C1886.52,-166.058 1913.26,-194.616 1945,-201.352 1964.96,-205.588 3394.04,-205.588 3414,-201.352 3443.72,-195.046 3470.77,-172.737 3488.71,-154.482"/>
<polygon fill="black" stroke="black" stroke-width="2.09861" points="3491.49,-156.635 3495.82,-146.965 3486.4,-151.824 3491.49,-156.635"/>
</g>
<!-- 37 -->
<g id="node26" class="node"><title>37</title>
<polygon fill="bisque" stroke="black" stroke-width="2" points="2839.5,-146.676 2656.5,-146.676 2656.5,-110.676 2839.5,-110.676 2839.5,-146.676"/>
<text text-anchor="middle" x="2748" y="-124.976" font-family="Times,serif" font-size="14.00">finaliseBackendConfig</text>
</g>
<!-- 39&#45;&gt;37 -->
<g id="edge11" class="edge"><title>39&#45;&gt;37</title>
<path fill="none" stroke="black" d="M1871.64,-146.81C1886.52,-166.058 1913.26,-194.616 1945,-201.352 1963.75,-205.331 2616.25,-205.331 2635,-201.352 2668.18,-194.311 2700.13,-171.818 2721.54,-153.7"/>
<polygon fill="black" stroke="black" points="2723.97,-156.222 2729.21,-147.012 2719.37,-150.946 2723.97,-156.222"/>
</g>
<!-- 40 -->
<g id="node27" class="node"><title>40</title>
<polygon fill="bisque" stroke="black" stroke-width="2" points="3042.5,-146.676 2857.5,-146.676 2857.5,-110.676 3042.5,-110.676 3042.5,-146.676"/>
<text text-anchor="middle" x="2950" y="-124.976" font-family="Times,serif" font-size="14.00">finaliseFrontendConfig</text>
</g>
<!-- 39&#45;&gt;40 -->
<g id="edge12" class="edge"><title>39&#45;&gt;40</title>
<path fill="none" stroke="black" d="M1871.64,-146.81C1886.52,-166.058 1913.26,-194.616 1945,-201.352 1969.29,-206.507 2814.71,-206.507 2839,-201.352 2871.97,-194.356 2903.51,-171.619 2924.48,-153.418"/>
<polygon fill="black" stroke="black" points="2926.87,-155.982 2931.99,-146.706 2922.2,-150.764 2926.87,-155.982"/>
</g>
<!-- 41 -->
<g id="node28" class="node"><title>41</title>
<polygon fill="bisque" stroke="black" stroke-width="2" points="3228,-146.676 3060,-146.676 3060,-110.676 3228,-110.676 3228,-146.676"/>
<text text-anchor="middle" x="3144" y="-124.976" font-family="Times,serif" font-size="14.00">finaliseProxyConfig</text>
</g>
<!-- 39&#45;&gt;41 -->
<g id="edge13" class="edge"><title>39&#45;&gt;41</title>
<path fill="none" stroke="black" d="M1871.64,-146.81C1886.52,-166.058 1913.26,-194.616 1945,-201.352 1959.9,-204.515 3027.1,-204.515 3042,-201.352 3072.85,-194.806 3101.48,-172.355 3120.5,-154.119"/>
<polygon fill="black" stroke="black" points="3123.17,-156.403 3127.8,-146.874 3118.24,-151.435 3123.17,-156.403"/>
</g>
<!-- 55&#45;&gt;6 -->
<g id="edge30" class="edge"><title>55&#45;&gt;6</title>
<path fill="none" stroke="black" d="M2027.22,-110.244C2034.52,-96.4364 2044.83,-76.9267 2053.13,-61.2334"/>
<polygon fill="black" stroke="black" points="2056.41,-62.5168 2057.99,-52.0404 2050.22,-59.2448 2056.41,-62.5168"/>
</g>
<!-- 55&#45;&gt;10 -->
<g id="edge32" class="edge"><title>55&#45;&gt;10</title>
<path fill="none" stroke="black" d="M2088.83,-110.62C2118.48,-102.963 2153.15,-93.3304 2184,-83 2207.65,-75.0814 2233.36,-64.9107 2254.82,-55.9712"/>
<polygon fill="black" stroke="black" points="2256.18,-59.1952 2264.05,-52.0947 2253.47,-52.7417 2256.18,-59.1952"/>
</g>
<!-- 55&#45;&gt;14 -->
<g id="edge33" class="edge"><title>55&#45;&gt;14</title>
<path fill="none" stroke="black" d="M2091.28,-126.142C2172.99,-122.922 2308.44,-113.055 2421,-83 2444.46,-76.7354 2469.36,-66.2267 2489.52,-56.6365"/>
<polygon fill="black" stroke="black" points="2491.25,-59.6861 2498.72,-52.1697 2488.2,-53.3892 2491.25,-59.6861"/>
</g>
<!-- 55&#45;&gt;19 -->
<g id="edge34" class="edge"><title>55&#45;&gt;19</title>
<path fill="none" stroke="black" d="M1983.82,-110.462C1953.74,-95.3111 1909.79,-73.1754 1877.27,-56.7932"/>
<polygon fill="black" stroke="black" points="1878.5,-53.4948 1867.99,-52.1223 1875.35,-59.7466 1878.5,-53.4948"/>
</g>
<!-- 55&#45;&gt;7 -->
<g id="edge31" class="edge"><title>55&#45;&gt;7</title>
<path fill="none" stroke="black" d="M2091.1,-139.789C2209,-157.091 2448.61,-189.694 2653,-201.352 2674.1,-202.556 3393.32,-205.741 3414,-201.352 3443.72,-195.046 3470.77,-172.737 3488.71,-154.482"/>
<polygon fill="black" stroke="black" points="3491.49,-156.635 3495.82,-146.965 3486.4,-151.824 3491.49,-156.635"/>
</g>
<!-- 58&#45;&gt;1 -->
<g id="edge37" class="edge"><title>58&#45;&gt;1</title>
<path fill="none" stroke="black" d="M1698.44,-110.244C1682.21,-95.7851 1658.97,-75.0734 1640.98,-59.0391"/>
<polygon fill="black" stroke="black" points="1642.92,-56.0803 1633.12,-52.0404 1638.26,-61.3064 1642.92,-56.0803"/>
</g>
<!-- 62 -->
<g id="node29" class="node"><title>62</title>
<polygon fill="bisque" stroke="black" stroke-width="2" points="3414,-146.676 3246,-146.676 3246,-110.676 3414,-110.676 3414,-146.676"/>
<text text-anchor="middle" x="3330" y="-124.976" font-family="Times,serif" font-size="14.00">parseThentosConfig</text>
</g>
<!-- 58&#45;&gt;62 -->
<g id="edge38" class="edge"><title>58&#45;&gt;62</title>
<path fill="none" stroke="black" d="M1727.96,-147.023C1739.89,-166.461 1761.96,-195.19 1791,-201.352 1810.52,-205.495 3208.48,-205.495 3228,-201.352 3258.85,-194.806 3287.48,-172.355 3306.5,-154.119"/>
<polygon fill="black" stroke="black" points="3309.17,-156.403 3313.8,-146.874 3304.24,-151.435 3309.17,-156.403"/>
</g>
<!-- 59&#45;&gt;1 -->
<g id="edge39" class="edge"><title>59&#45;&gt;1</title>
<path fill="none" stroke="black" d="M1588.02,-110.244C1592.74,-96.5667 1599.4,-77.2943 1604.79,-61.6785"/>
<polygon fill="black" stroke="black" points="1608.16,-62.6351 1608.12,-52.0404 1601.54,-60.3504 1608.16,-62.6351"/>
</g>
<!-- 59&#45;&gt;62 -->
<g id="edge40" class="edge"><title>59&#45;&gt;62</title>
<path fill="none" stroke="black" d="M1593.62,-146.894C1607.37,-166.216 1632.32,-194.842 1663,-201.352 1684.26,-205.865 3206.74,-205.865 3228,-201.352 3258.85,-194.806 3287.48,-172.355 3306.5,-154.119"/>
<polygon fill="black" stroke="black" points="3309.17,-156.403 3313.8,-146.874 3304.24,-151.435 3309.17,-156.403"/>
</g>
<!-- 37&#45;&gt;5 -->
<g id="edge2" class="edge"><title>37&#45;&gt;5</title>
<path fill="none" stroke="black" d="M2729.21,-147.012C2708.27,-165.818 2672.42,-193.411 2635,-201.352 2619.8,-204.579 1531.2,-204.579 1516,-201.352 1483.59,-194.475 1452.77,-171.894 1432.23,-153.707"/>
<polygon fill="black" stroke="black" points="1434.35,-150.907 1424.61,-146.744 1429.63,-156.074 1434.35,-150.907"/>
</g>
<!-- 37&#45;&gt;6 -->
<g id="edge3" class="edge"><title>37&#45;&gt;6</title>
<path fill="none" stroke="black" d="M2708.81,-110.492C2689.66,-102.973 2666.05,-94.9713 2644,-91 2543.6,-72.9136 2284.94,-103.456 2185,-83 2158.65,-77.6064 2130.7,-66.5033 2108.62,-56.3333"/>
<polygon fill="black" stroke="black" points="2110.08,-53.1506 2099.54,-52.0512 2107.09,-59.482 2110.08,-53.1506"/>
</g>
<!-- 40&#45;&gt;9 -->
<g id="edge14" class="edge"><title>40&#45;&gt;9</title>
<path fill="none" stroke="black" d="M2931.99,-146.706C2911.54,-165.552 2876.18,-193.463 2839,-201.352 2816.08,-206.216 1174.92,-206.216 1152,-201.352 1120.21,-194.605 1090.28,-172.007 1070.38,-153.78"/>
<polygon fill="black" stroke="black" points="1072.68,-151.133 1063.01,-146.8 1067.86,-156.217 1072.68,-151.133"/>
</g>
<!-- 40&#45;&gt;10 -->
<g id="edge15" class="edge"><title>40&#45;&gt;10</title>
<path fill="none" stroke="black" d="M2911.59,-110.504C2892.82,-102.987 2869.65,-94.9841 2848,-91 2754.66,-73.8267 2513.97,-102.091 2421,-83 2394.65,-77.5892 2366.7,-66.4853 2344.62,-56.3191"/>
<polygon fill="black" stroke="black" points="2346.08,-53.1363 2335.54,-52.0389 2343.1,-59.4683 2346.08,-53.1363"/>
</g>
<!-- 41&#45;&gt;13 -->
<g id="edge16" class="edge"><title>41&#45;&gt;13</title>
<path fill="none" stroke="black" d="M3127.8,-146.874C3109.32,-165.866 3077.1,-193.905 3042,-201.352 3027.84,-204.358 971.164,-204.358 957,-201.352 926.888,-194.962 899.252,-172.664 880.878,-154.434"/>
<polygon fill="black" stroke="black" points="883.067,-151.665 873.589,-146.929 878.045,-156.541 883.067,-151.665"/>
</g>
<!-- 41&#45;&gt;14 -->
<g id="edge17" class="edge"><title>41&#45;&gt;14</title>
<path fill="none" stroke="black" d="M3109.13,-110.507C3092.05,-102.991 3070.91,-94.9875 3051,-91 2962.3,-73.2366 2732.46,-101.917 2644,-83 2618.88,-77.6274 2592.36,-66.6724 2571.33,-56.5831"/>
<polygon fill="black" stroke="black" points="2572.6,-53.306 2562.08,-52.0316 2569.51,-59.5869 2572.6,-53.306"/>
</g>
<!-- 62&#45;&gt;19 -->
<g id="edge41" class="edge"><title>62&#45;&gt;19</title>
<path fill="none" stroke="black" d="M3295.59,-110.582C3278.44,-102.982 3257.11,-94.8865 3237,-91 3166.74,-77.4208 2019.12,-97.273 1949,-83 1923.33,-77.7749 1896.22,-66.7546 1874.77,-56.5899"/>
<polygon fill="black" stroke="black" points="1876.16,-53.3775 1865.64,-52.1552 1873.11,-59.6736 1876.16,-53.3775"/>
</g>
<!-- 53 -->
<g id="node30" class="node"><title>53</title>
<polygon fill="bisque" stroke="black" stroke-width="2" points="3100,-52 2888,-52 2888,-16 3100,-16 3100,-52"/>
<text text-anchor="middle" x="2994" y="-30.3" font-family="Times,serif" font-size="14.00">parseBackendConfigBuilder</text>
</g>
<!-- 62&#45;&gt;53 -->
<g id="edge42" class="edge"><title>62&#45;&gt;53</title>
<path fill="none" stroke="black" d="M3294.17,-110.501C3277.23,-103.178 3256.48,-95.3368 3237,-91 3181.36,-78.6149 3164.51,-95.9344 3109,-83 3083.85,-77.1412 3057.16,-66.3137 3035.83,-56.4232"/>
<polygon fill="black" stroke="black" points="3037.27,-53.2322 3026.73,-52.113 3034.27,-59.558 3037.27,-53.2322"/>
</g>
<!-- 56 -->
<g id="node31" class="node"><title>56</title>
<polygon fill="bisque" stroke="black" stroke-width="2" points="2870,-52 2656,-52 2656,-16 2870,-16 2870,-52"/>
<text text-anchor="middle" x="2763" y="-30.3" font-family="Times,serif" font-size="14.00">parseFrontendConfigBuilder</text>
</g>
<!-- 62&#45;&gt;56 -->
<g id="edge43" class="edge"><title>62&#45;&gt;56</title>
<path fill="none" stroke="black" d="M3295.13,-110.53C3278.04,-103.02 3256.91,-95.0142 3237,-91 3158.99,-75.2694 2956.87,-99.3813 2879,-83 2853.18,-77.5674 2825.83,-66.5359 2804.18,-56.417"/>
<polygon fill="black" stroke="black" points="2805.5,-53.167 2794.96,-52.0059 2802.47,-59.4808 2805.5,-53.167"/>
</g>
<!-- 57 -->
<g id="node32" class="node"><title>57</title>
<polygon fill="bisque" stroke="black" stroke-width="2" points="3666.5,-52 3469.5,-52 3469.5,-16 3666.5,-16 3666.5,-52"/>
<text text-anchor="middle" x="3568" y="-30.3" font-family="Times,serif" font-size="14.00">parseProxyConfigBuilder</text>
</g>
<!-- 62&#45;&gt;57 -->
<g id="edge44" class="edge"><title>62&#45;&gt;57</title>
<path fill="none" stroke="black" d="M3368.85,-110.664C3385.33,-103.894 3404.88,-96.4381 3423,-91 3439.53,-86.0388 3444.59,-88.3405 3461,-83 3482.96,-75.8535 3506.47,-65.6156 3525.84,-56.4292"/>
<polygon fill="black" stroke="black" points="3527.5,-59.514 3534.99,-52.0221 3524.47,-53.2071 3527.5,-59.514"/>
</g>
<!-- 60 -->
<g id="node33" class="node"><title>60</title>
<polygon fill="cyan" stroke="black" stroke-width="2" points="3451.5,-52 3294.5,-52 3294.5,-16 3451.5,-16 3451.5,-52"/>
<text text-anchor="middle" x="3373" y="-30.3" font-family="Times,serif" font-size="14.00">parseRunBackend</text>
</g>
<!-- 62&#45;&gt;60 -->
<g id="edge45" class="edge"><title>62&#45;&gt;60</title>
<path fill="none" stroke="black" d="M3338.09,-110.244C3344.49,-96.4364 3353.55,-76.9267 3360.83,-61.2334"/>
<polygon fill="black" stroke="black" points="3364.06,-62.5847 3365.09,-52.0404 3357.71,-59.6384 3364.06,-62.5847"/>
</g>
<!-- 61 -->
<g id="node34" class="node"><title>61</title>
<polygon fill="cyan" stroke="black" stroke-width="2" points="3276,-52 3118,-52 3118,-16 3276,-16 3276,-52"/>
<text text-anchor="middle" x="3197" y="-30.3" font-family="Times,serif" font-size="14.00">parseRunFrontend</text>
</g>
<!-- 62&#45;&gt;61 -->
<g id="edge46" class="edge"><title>62&#45;&gt;61</title>
<path fill="none" stroke="black" d="M3305.3,-110.462C3284.02,-95.6362 3253.14,-74.1222 3229.8,-57.8557"/>
<polygon fill="black" stroke="black" points="3231.78,-54.9678 3221.57,-52.1223 3227.78,-60.711 3231.78,-54.9678"/>
</g>
<!-- 53&#45;&gt;6 -->
<g id="edge25" class="edge"><title>53&#45;&gt;6</title>
<path fill="none" stroke="black" d="M2961.76,-52.07C2937.4,-64.6441 2902.68,-80.308 2870,-87 2851.6,-90.7666 2212.41,-90.6878 2194,-87 2164.53,-81.0973 2133.35,-68.1973 2109.27,-56.6025"/>
<polygon fill="black" stroke="black" points="2110.59,-53.3514 2100.07,-52.0735 2107.5,-59.6312 2110.59,-53.3514"/>
</g>
<!-- 56&#45;&gt;10 -->
<g id="edge35" class="edge"><title>56&#45;&gt;10</title>
<path fill="none" stroke="black" d="M2729.65,-52.0746C2704.47,-64.6509 2668.62,-80.3157 2635,-87 2612.66,-91.4423 2452.33,-91.4733 2430,-87 2400.53,-81.0973 2369.35,-68.1973 2345.27,-56.6025"/>
<polygon fill="black" stroke="black" points="2346.59,-53.3514 2336.07,-52.0735 2343.5,-59.6312 2346.59,-53.3514"/>
</g>
<!-- 57&#45;&gt;14 -->
<g id="edge36" class="edge"><title>57&#45;&gt;14</title>
<path fill="none" stroke="black" d="M3538.25,-52.0212C3515.54,-64.66 3482.97,-80.4272 3452,-87 3430.29,-91.6074 2674.73,-91.5162 2653,-87 2624.68,-81.1148 2594.87,-68.3025 2571.81,-56.7497"/>
<polygon fill="black" stroke="black" points="2573.17,-53.5175 2562.68,-52.0676 2569.98,-59.7459 2573.17,-53.5175"/>
</g>
</g>
</svg>
