<?xml version="1.0" encoding="UTF-8" standalone="no"?>
<!DOCTYPE svg PUBLIC "-//W3C//DTD SVG 1.1//EN"
 "http://www.w3.org/Graphics/SVG/1.1/DTD/svg11.dtd">
<!-- Generated by graphviz version 2.38.0 (20140413.2041)
 -->
<!-- Title: Levels within Thentos.DB.Protect Pages: 1 -->
<svg width="896pt" height="246pt"
 viewBox="0.00 0.00 896.00 246.00" xmlns="http://www.w3.org/2000/svg" xmlns:xlink="http://www.w3.org/1999/xlink">
<g id="graph0" class="graph" transform="scale(1 1) rotate(0) translate(4 242)">
<title>Levels within Thentos.DB.Protect</title>
<polygon fill="white" stroke="none" points="-4,4 -4,-242 892,-242 892,4 -4,4"/>
<g id="clust1" class="cluster"><title>cluster_0</title>
<polygon fill="lavender" stroke="black" points="8,-8 8,-230 518,-230 518,-8 8,-8"/>
<text text-anchor="middle" x="263" y="-214.8" font-family="Times,serif" font-size="14.00">Exported root entities</text>
</g>
<g id="clust2" class="cluster"><title>cluster_1</title>
<polygon fill="lavender" stroke="black" points="526,-80 526,-155 708,-155 708,-80 526,-80"/>
<text text-anchor="middle" x="617" y="-139.8" font-family="Times,serif" font-size="14.00">Level = 1</text>
</g>
<g id="clust3" class="cluster"><title>cluster_2</title>
<polygon fill="lavender" stroke="black" points="716,-80 716,-155 880,-155 880,-80 716,-80"/>
<text text-anchor="middle" x="798" y="-139.8" font-family="Times,serif" font-size="14.00">Level = 2</text>
</g>
<!-- 1 -->
<g id="node1" class="node"><title>1</title>
<polygon fill="goldenrod" stroke="black" stroke-width="2" points="379.5,-52 290.5,-52 290.5,-16 379.5,-16 379.5,-52"/>
<text text-anchor="middle" x="335" y="-30.3" font-family="Times,serif" font-size="14.00">*%%</text>
</g>
<!-- 2 -->
<g id="node2" class="node"><title>2</title>
<polygon fill="goldenrod" stroke="black" stroke-width="2" points="164.5,-124 15.5,-124 15.5,-88 164.5,-88 164.5,-124"/>
<text text-anchor="middle" x="90" y="-102.3" font-family="Times,serif" font-size="14.00">allowEverything</text>
</g>
<!-- 2&#45;&gt;1 -->
<g id="edge1" class="edge"><title>2&#45;&gt;1</title>
<path fill="none" stroke="black" d="M146.207,-87.8911C155.159,-85.2176 164.327,-82.5106 173,-80 208.674,-69.674 248.903,-58.4968 280.348,-49.865"/>
<polygon fill="black" stroke="black" points="281.512,-53.175 290.232,-47.1562 279.662,-46.4239 281.512,-53.175"/>
</g>
<!-- 3 -->
<g id="node3" class="node"><title>3</title>
<polygon fill="goldenrod" stroke="black" stroke-width="2" points="315.5,-124 182.5,-124 182.5,-88 315.5,-88 315.5,-124"/>
<text text-anchor="middle" x="249" y="-102.3" font-family="Times,serif" font-size="14.00">allowNothing</text>
</g>
<!-- 3&#45;&gt;1 -->
<g id="edge2" class="edge"><title>3&#45;&gt;1</title>
<path fill="none" stroke="black" d="M270.258,-87.6966C281.089,-78.8807 294.418,-68.0321 306.16,-58.4742"/>
<polygon fill="black" stroke="black" points="308.44,-61.1316 313.986,-52.1043 304.021,-55.7026 308.44,-61.1316"/>
</g>
<!-- 4 -->
<g id="node4" class="node"><title>4</title>
<polygon fill="gold" stroke="black" stroke-width="2" points="510,-124 334,-124 334,-88 510,-88 510,-124"/>
<text text-anchor="middle" x="422" y="-102.3" font-family="Times,serif" font-size="14.00">allowReadEverything</text>
</g>
<!-- 4&#45;&gt;1 -->
<g id="edge3" class="edge"><title>4&#45;&gt;1</title>
<path fill="none" stroke="black" d="M400.494,-87.6966C389.537,-78.8807 376.054,-68.0321 364.175,-58.4742"/>
<polygon fill="black" stroke="black" points="366.244,-55.6462 356.258,-52.1043 361.855,-61.1001 366.244,-55.6462"/>
</g>
<!-- 6 -->
<g id="node5" class="node"><title>6</title>
<polygon fill="gold" stroke="black" stroke-width="2" points="173.5,-199 16.5,-199 16.5,-163 173.5,-163 173.5,-199"/>
<text text-anchor="middle" x="95" y="-177.3" font-family="Times,serif" font-size="14.00">createDefaultUser</text>
</g>
<!-- 6&#45;&gt;2 -->
<g id="edge5" class="edge"><title>6&#45;&gt;2</title>
<path fill="none" stroke="chartreuse" stroke-width="2.09861" d="M93.8151,-162.7C93.236,-154.245 92.5253,-143.869 91.8749,-134.373"/>
<polygon fill="chartreuse" stroke="chartreuse" stroke-width="2.09861" points="95.3517,-133.913 91.1764,-124.176 88.368,-134.392 95.3517,-133.913"/>
</g>
<!-- 8 -->
<g id="node6" class="node"><title>8</title>
<polygon fill="gold" stroke="black" stroke-width="2" points="444,-199 258,-199 258,-163 444,-163 444,-199"/>
<text text-anchor="middle" x="351" y="-177.3" font-family="Times,serif" font-size="14.00">makeThentosClearance</text>
</g>
<!-- 8&#45;&gt;3 -->
<g id="edge7" class="edge"><title>8&#45;&gt;3</title>
<path fill="none" stroke="black" d="M327.086,-162.885C313.402,-153.091 296.053,-140.675 281.185,-130.035"/>
<polygon fill="black" stroke="black" points="282.934,-126.982 272.765,-124.008 278.86,-132.674 282.934,-126.982"/>
</g>
<!-- 5 -->
<g id="node7" class="node"><title>5</title>
<polygon fill="bisque" stroke="black" stroke-width="2" points="699.5,-124 534.5,-124 534.5,-88 699.5,-88 699.5,-124"/>
<text text-anchor="middle" x="617" y="-102.3" font-family="Times,serif" font-size="14.00">authenticateSession</text>
</g>
<!-- 8&#45;&gt;5 -->
<g id="edge8" class="edge"><title>8&#45;&gt;5</title>
<path fill="none" stroke="black" d="M444.083,-171.933C469.712,-168.224 497.257,-162.831 522,-155 541.919,-148.696 562.774,-138.598 579.852,-129.286"/>
<polygon fill="black" stroke="black" points="581.896,-132.154 588.922,-124.223 578.484,-126.041 581.896,-132.154"/>
</g>
<!-- 7 -->
<g id="node8" class="node"><title>7</title>
<polygon fill="bisque" stroke="black" stroke-width="2" points="872.5,-124 723.5,-124 723.5,-88 872.5,-88 872.5,-124"/>
<text text-anchor="middle" x="798" y="-102.3" font-family="Times,serif" font-size="14.00">makeClearance_</text>
</g>
<!-- 5&#45;&gt;7 -->
<g id="edge4" class="edge"><title>5&#45;&gt;7</title>
<path fill="none" stroke="chartreuse" stroke-width="1.69315" d="M699.723,-106C704.113,-106 708.504,-106 712.895,-106"/>
<polygon fill="chartreuse" stroke="chartreuse" stroke-width="1.69315" points="713.14,-109.5 723.14,-106 713.14,-102.5 713.14,-109.5"/>
</g>
<!-- 7&#45;&gt;1 -->
<g id="edge6" class="edge"><title>7&#45;&gt;1</title>
<path fill="none" stroke="black" d="M744.204,-87.8957C733.606,-84.9431 722.513,-82.1404 712,-80 598.646,-56.9215 463.535,-44.3372 389.769,-38.7047"/>
<polygon fill="black" stroke="black" points="390.009,-35.213 379.776,-37.9557 389.486,-42.1934 390.009,-35.213"/>
</g>
</g>
</svg>
