<?xml version="1.0" encoding="UTF-8" standalone="no"?>
<!DOCTYPE svg PUBLIC "-//W3C//DTD SVG 1.1//EN"
 "http://www.w3.org/Graphics/SVG/1.1/DTD/svg11.dtd">
<!-- Generated by graphviz version 2.38.0 (20140413.2041)
 -->
<!-- Title: Levels within Thentos.Backend.Core Pages: 1 -->
<svg width="1868pt" height="207pt"
 viewBox="0.00 0.00 1868.00 206.78" xmlns="http://www.w3.org/2000/svg" xmlns:xlink="http://www.w3.org/1999/xlink">
<g id="graph0" class="graph" transform="scale(1 1) rotate(0) translate(4 202.783)">
<title>Levels within Thentos.Backend.Core</title>
<polygon fill="white" stroke="none" points="-4,4 -4,-202.783 1864,-202.783 1864,4 -4,4"/>
<g id="clust1" class="cluster"><title>cluster_0</title>
<polygon fill="lavender" stroke="black" points="475,-99.3913 475,-190.783 1086,-190.783 1086,-99.3913 475,-99.3913"/>
<text text-anchor="middle" x="780.5" y="-175.583" font-family="Times,serif" font-size="14.00">Exported root entities</text>
</g>
<g id="clust2" class="cluster"><title>cluster_1</title>
<polygon fill="lavender" stroke="black" points="8,-8 8,-91.3913 1852,-91.3913 1852,-8 8,-8"/>
<text text-anchor="middle" x="930" y="-76.1913" font-family="Times,serif" font-size="14.00">Level = 1</text>
</g>
<!-- 1 -->
<g id="node1" class="node"><title>1</title>
<polygon fill="goldenrod" stroke="black" stroke-width="2" points="1078,-151.587 962,-151.587 962,-115.587 1078,-115.587 1078,-151.587"/>
<text text-anchor="middle" x="1020" y="-129.887" font-family="Times,serif" font-size="14.00">fmapLTM</text>
</g>
<!-- 2 -->
<g id="node2" class="node"><title>2</title>
<polygon fill="gold" stroke="black" stroke-width="2" points="943.5,-151.587 764.5,-151.587 764.5,-115.587 943.5,-115.587 943.5,-151.587"/>
<text text-anchor="middle" x="854" y="-129.887" font-family="Times,serif" font-size="14.00">lookupRequestHeader</text>
</g>
<!-- 3 -->
<g id="node3" class="node"><title>3</title>
<polygon fill="goldenrod" stroke="black" stroke-width="2" points="742.638,-124.324 742.638,-142.85 667.87,-155.95 562.13,-155.95 487.362,-142.85 487.362,-124.324 562.13,-111.224 667.87,-111.224 742.638,-124.324"/>
<polygon fill="none" stroke="black" stroke-width="2" points="746.633,-120.933 746.633,-146.24 668.214,-159.98 561.786,-159.98 483.367,-146.24 483.367,-120.933 561.786,-107.194 668.214,-107.194 746.633,-120.933"/>
<text text-anchor="middle" x="615" y="-129.887" font-family="Times,serif" font-size="14.00">Class: PushActionC</text>
</g>
<!-- 4 -->
<g id="node4" class="node"><title>4</title>
<polygon fill="cyan" stroke="black" stroke-width="2" points="1347.86,-28.9201 1347.86,-47.4711 1196.81,-60.5887 983.192,-60.5887 832.143,-47.4711 832.143,-28.9201 983.192,-15.8026 1196.81,-15.8026 1347.86,-28.9201"/>
<text text-anchor="middle" x="1090" y="-34.4956" font-family="Times,serif" font-size="14.00">Class: PushActionC, Data: (IO ResponseReceived)</text>
</g>
<!-- 3&#45;&gt;4 -->
<g id="edge1" class="edge"><title>3&#45;&gt;4</title>
<path fill="none" stroke="navy" d="M695.577,-111.972C715.255,-107.393 736.312,-102.873 756,-99.3913 785.531,-94.169 793.375,-96.0491 823,-91.3913 878.757,-82.625 940.639,-70.6694 990.778,-60.4123"/>
</g>
<!-- 5 -->
<g id="node5" class="node"><title>5</title>
<polygon fill="bisque" stroke="black" stroke-width="2" points="1843.59,-28.9201 1843.59,-47.4711 1703.83,-60.5887 1506.17,-60.5887 1366.41,-47.4711 1366.41,-28.9201 1506.17,-15.8026 1703.83,-15.8026 1843.59,-28.9201"/>
<text text-anchor="middle" x="1605" y="-34.4956" font-family="Times,serif" font-size="14.00">Class: PushActionC, Data: (RestActionRaw a)</text>
</g>
<!-- 3&#45;&gt;5 -->
<g id="edge2" class="edge"><title>3&#45;&gt;5</title>
<path fill="none" stroke="navy" d="M692.025,-111.257C712.645,-106.427 735.033,-101.968 756,-99.3913 888.57,-83.1013 1224.25,-106.104 1357,-91.3913 1413.3,-85.1514 1475.7,-71.9857 1523.82,-60.4389"/>
</g>
<!-- 6 -->
<g id="node6" class="node"><title>6</title>
<polygon fill="bisque" stroke="black" stroke-width="2" points="398.184,-28.9201 398.184,-47.4711 286.191,-60.5887 127.809,-60.5887 15.8164,-47.4711 15.8164,-28.9201 127.809,-15.8026 286.191,-15.8026 398.184,-28.9201"/>
<text text-anchor="middle" x="207" y="-34.4956" font-family="Times,serif" font-size="14.00">Class: PushActionC, Data: (a &#45;&gt; b)</text>
</g>
<!-- 3&#45;&gt;6 -->
<g id="edge3" class="edge"><title>3&#45;&gt;6</title>
<path fill="none" stroke="navy" d="M523.007,-113.94C489.294,-107.26 450.895,-99.3927 416,-91.3913 374.727,-81.9272 329.009,-70.0982 290.833,-60.0951"/>
</g>
<!-- 7 -->
<g id="node7" class="node"><title>7</title>
<polygon fill="bisque" stroke="black" stroke-width="2" points="813.991,-28.9201 813.991,-47.4711 697.425,-60.5887 532.575,-60.5887 416.009,-47.4711 416.009,-28.9201 532.575,-15.8026 697.425,-15.8026 813.991,-28.9201"/>
<text text-anchor="middle" x="615" y="-34.4956" font-family="Times,serif" font-size="14.00">Class: PushActionC, Data: (a :&lt;|&gt; b)</text>
</g>
<!-- 3&#45;&gt;7 -->
<g id="edge4" class="edge"><title>3&#45;&gt;7</title>
<path fill="none" stroke="navy" d="M621.091,-107.067C622.064,-92.4855 621.96,-74.4084 620.777,-60.5776"/>
</g>
<!-- 5&#45;&gt;1 -->
<g id="edge5" class="edge"><title>5&#45;&gt;1</title>
<path fill="none" stroke="chartreuse" d="M1513.49,-60.4146C1466.83,-70.7337 1409.09,-82.743 1357,-91.3913 1264.36,-106.773 1156.5,-118.965 1088.25,-125.98"/>
<polygon fill="chartreuse" stroke="chartreuse" points="1087.65,-122.523 1078.06,-127.019 1088.36,-129.486 1087.65,-122.523"/>
</g>
<!-- 6&#45;&gt;3 -->
<g id="edge6" class="edge"><title>6&#45;&gt;3</title>
<path fill="none" stroke="black" d="M275.989,-60.4775C312.171,-70.3985 357.251,-82.0475 398,-91.3913 432.29,-99.2541 469.966,-106.987 504.188,-113.592"/>
<polygon fill="black" stroke="black" points="503.735,-117.069 514.215,-115.514 505.053,-110.194 503.735,-117.069"/>
</g>
<!-- 7&#45;&gt;3 -->
<g id="edge7" class="edge"><title>7&#45;&gt;3</title>
<path fill="none" stroke="black" stroke-width="1.69315" d="M609.223,-60.5776C608.299,-71.3829 608.033,-84.78 608.425,-97.0773"/>
<polygon fill="black" stroke="black" stroke-width="1.69315" points="604.929,-97.2485 608.909,-107.067 611.921,-96.9096 604.929,-97.2485"/>
</g>
</g>
</svg>
