<?xml version="1.0" encoding="UTF-8" standalone="no"?>
<!DOCTYPE svg PUBLIC "-//W3C//DTD SVG 1.1//EN"
 "http://www.w3.org/Graphics/SVG/1.1/DTD/svg11.dtd">
<!-- Generated by graphviz version 2.38.0 (20140413.2041)
 -->
<!-- Title: Diagram of: Thentos.Backend.Api.Simple Pages: 1 -->
<svg width="565pt" height="405pt"
 viewBox="0.00 0.00 565.00 404.74" xmlns="http://www.w3.org/2000/svg" xmlns:xlink="http://www.w3.org/1999/xlink">
<g id="graph0" class="graph" transform="scale(1 1) rotate(0) translate(4 400.744)">
<title>Diagram of: Thentos.Backend.Api.Simple</title>
<polygon fill="white" stroke="none" points="-4,4 -4,-400.744 561,-400.744 561,4 -4,4"/>
<g id="clust1" class="cluster"><title>cluster_Class_HasServer</title>
<path fill="#ffc1c1" stroke="black" d="M295,-147C295,-147 537,-147 537,-147 543,-147 549,-153 549,-159 549,-159 549,-340.744 549,-340.744 549,-346.744 543,-352.744 537,-352.744 537,-352.744 295,-352.744 295,-352.744 289,-352.744 283,-346.744 283,-340.744 283,-340.744 283,-159 283,-159 283,-153 289,-147 295,-147"/>
<text text-anchor="middle" x="416" y="-337.544" font-family="Times,serif" font-size="14.00">Class: HasServer</text>
</g>
<g id="clust2" class="cluster"><title>cluster_Class_HasServer_Data_ThentosAuthsublayout</title>
<path fill="#c6e2ff" stroke="black" d="M325,-155C325,-155 525,-155 525,-155 531,-155 537,-161 537,-167 537,-167 537,-226.391 537,-226.391 537,-232.391 531,-238.391 525,-238.391 525,-238.391 325,-238.391 325,-238.391 319,-238.391 313,-232.391 313,-226.391 313,-226.391 313,-167 313,-167 313,-161 319,-155 325,-155"/>
<text text-anchor="middle" x="425" y="-223.191" font-family="Times,serif" font-size="14.00">Instance for: (ThentosAuth sublayout)</text>
</g>
<g id="clust3" class="cluster"><title>cluster_Data_ThentosAuth</title>
<path fill="papayawhip" stroke="black" d="M315,-64C315,-64 437,-64 437,-64 443,-64 449,-70 449,-76 449,-76 449,-127 449,-127 449,-133 443,-139 437,-139 437,-139 315,-139 315,-139 309,-139 303,-133 303,-127 303,-127 303,-76 303,-76 303,-70 309,-64 315,-64"/>
<text text-anchor="middle" x="376" y="-123.8" font-family="Times,serif" font-size="14.00">Data: ThentosAuth</text>
</g>
<!-- 3 -->
<g id="node1" class="node"><title>3</title>
<polygon fill="bisque" stroke="black" stroke-width="2" points="453.644,-175.92 453.644,-194.471 415.19,-207.589 360.81,-207.589 322.356,-194.471 322.356,-175.92 360.81,-162.803 415.19,-162.803 453.644,-175.92"/>
<text text-anchor="middle" x="388" y="-181.496" font-family="Times,serif" font-size="14.00">route</text>
</g>
<!-- 1 -->
<g id="node3" class="node"><title>1</title>
<polygon fill="cyan" stroke="black" stroke-width="2" points="440.5,-108 315.5,-108 311.5,-104 311.5,-72 436.5,-72 440.5,-76 440.5,-108"/>
<polyline fill="none" stroke="black" stroke-width="2" points="436.5,-104 311.5,-104 "/>
<polyline fill="none" stroke="black" stroke-width="2" points="436.5,-104 436.5,-72 "/>
<polyline fill="none" stroke="black" stroke-width="2" points="436.5,-104 440.5,-108 "/>
<text text-anchor="middle" x="376" y="-86.3" font-family="Times,serif" font-size="14.00">ThentosAuth</text>
</g>
<!-- 3&#45;&gt;1 -->
<g id="edge3" class="edge"><title>3&#45;&gt;1</title>
<path fill="none" stroke="black" d="M385.217,-162.58C383.517,-149.383 381.329,-132.39 379.512,-118.272"/>
<polygon fill="black" stroke="black" points="382.956,-117.619 378.208,-108.148 376.014,-118.513 382.956,-117.619"/>
</g>
<!-- 10 -->
<g id="node2" class="node"><title>10</title>
<polygon fill="khaki" stroke="black" stroke-dasharray="1,5" points="536.858,-270.053 536.858,-298.082 466.061,-317.902 365.939,-317.902 295.142,-298.082 295.142,-270.053 365.939,-250.233 466.061,-250.233 536.858,-270.053"/>
<polygon fill="none" stroke="black" stroke-dasharray="1,5" points="540.856,-267 540.856,-301.135 466.607,-321.921 365.393,-321.921 291.144,-301.135 291.144,-267 365.393,-246.214 466.607,-246.214 540.856,-267"/>
<text text-anchor="middle" x="416" y="-287.867" font-family="Times,serif" font-size="14.00">Unknown Module</text>
<text text-anchor="middle" x="416" y="-272.867" font-family="Times,serif" font-size="14.00">route</text>
</g>
<!-- 10&#45;&gt;3 -->
<g id="edge9" class="edge"><title>10&#45;&gt;3</title>
<path fill="none" stroke="navy" d="M405.335,-246.168C401.564,-233.122 397.45,-218.89 394.177,-207.565"/>
</g>
<!-- 2 -->
<g id="node4" class="node"><title>2</title>
<polygon fill="bisque" stroke="black" stroke-width="2" points="265,-203.196 187,-203.196 187,-167.196 265,-167.196 265,-203.196"/>
<text text-anchor="middle" x="226" y="-181.496" font-family="Times,serif" font-size="14.00">app</text>
</g>
<!-- 2&#45;&gt;1 -->
<g id="edge1" class="edge"><title>2&#45;&gt;1</title>
<path fill="none" stroke="black" d="M253.744,-167.047C267.382,-158.609 284.059,-148.282 299,-139 312.372,-130.692 327.039,-121.556 339.951,-113.504"/>
<polygon fill="black" stroke="black" points="341.94,-116.388 348.572,-108.126 338.235,-110.449 341.94,-116.388"/>
</g>
<!-- 6 -->
<g id="node7" class="node"><title>6</title>
<polygon fill="bisque" stroke="black" stroke-width="2" points="290,-108 162,-108 162,-72 290,-72 290,-108"/>
<text text-anchor="middle" x="226" y="-86.3" font-family="Times,serif" font-size="14.00">thentosBasic</text>
</g>
<!-- 2&#45;&gt;6 -->
<g id="edge2" class="edge"><title>2&#45;&gt;6</title>
<path fill="none" stroke="black" d="M226,-167.102C226,-153.525 226,-134.271 226,-118.527"/>
<polygon fill="black" stroke="black" points="229.5,-118.301 226,-108.301 222.5,-118.301 229.5,-118.301"/>
</g>
<!-- 4 -->
<g id="node5" class="node"><title>4</title>
<polygon fill="gold" stroke="black" stroke-width="2" points="282,-396.744 158,-396.744 158,-360.744 282,-360.744 282,-396.744"/>
<text text-anchor="middle" x="220" y="-375.044" font-family="Times,serif" font-size="14.00">runBackend</text>
</g>
<!-- 5 -->
<g id="node6" class="node"><title>5</title>
<polygon fill="goldenrod" stroke="black" stroke-width="2" points="273.5,-302.067 166.5,-302.067 166.5,-266.067 273.5,-266.067 273.5,-302.067"/>
<text text-anchor="middle" x="220" y="-280.367" font-family="Times,serif" font-size="14.00">serveApi</text>
</g>
<!-- 4&#45;&gt;5 -->
<g id="edge4" class="edge"><title>4&#45;&gt;5</title>
<path fill="none" stroke="chartreuse" d="M220,-360.312C220,-346.764 220,-327.728 220,-312.193"/>
<polygon fill="chartreuse" stroke="chartreuse" points="223.5,-312.108 220,-302.108 216.5,-312.108 223.5,-312.108"/>
</g>
<!-- 5&#45;&gt;2 -->
<g id="edge5" class="edge"><title>5&#45;&gt;2</title>
<path fill="none" stroke="chartreuse" d="M221.073,-265.749C221.969,-251.284 223.262,-230.4 224.299,-213.659"/>
<polygon fill="chartreuse" stroke="chartreuse" points="227.812,-213.562 224.937,-203.364 220.825,-213.129 227.812,-213.562"/>
</g>
<!-- 7 -->
<g id="node8" class="node"><title>7</title>
<polygon fill="cyan" stroke="black" stroke-width="2" points="138,-36 0,-36 0,-0 138,-0 138,-36"/>
<text text-anchor="middle" x="69" y="-14.3" font-family="Times,serif" font-size="14.00">thentosService</text>
</g>
<!-- 6&#45;&gt;7 -->
<g id="edge6" class="edge"><title>6&#45;&gt;7</title>
<path fill="none" stroke="black" d="M187.593,-71.8761C166.131,-62.3066 139.202,-50.3001 116.432,-40.1478"/>
<polygon fill="black" stroke="black" points="117.84,-36.9439 107.282,-36.0683 114.99,-43.3372 117.84,-36.9439"/>
</g>
<!-- 8 -->
<g id="node9" class="node"><title>8</title>
<polygon fill="cyan" stroke="black" stroke-width="2" points="295.5,-36 156.5,-36 156.5,-0 295.5,-0 295.5,-36"/>
<text text-anchor="middle" x="226" y="-14.3" font-family="Times,serif" font-size="14.00">thentosSession</text>
</g>
<!-- 6&#45;&gt;8 -->
<g id="edge7" class="edge"><title>6&#45;&gt;8</title>
<path fill="none" stroke="black" d="M226,-71.6966C226,-63.9827 226,-54.7125 226,-46.1124"/>
<polygon fill="black" stroke="black" points="229.5,-46.1043 226,-36.1043 222.5,-46.1044 229.5,-46.1043"/>
</g>
<!-- 9 -->
<g id="node10" class="node"><title>9</title>
<polygon fill="cyan" stroke="black" stroke-width="2" points="436.5,-36 313.5,-36 313.5,-0 436.5,-0 436.5,-36"/>
<text text-anchor="middle" x="375" y="-14.3" font-family="Times,serif" font-size="14.00">thentosUser</text>
</g>
<!-- 6&#45;&gt;9 -->
<g id="edge8" class="edge"><title>6&#45;&gt;9</title>
<path fill="none" stroke="black" d="M262.45,-71.8761C282.638,-62.3917 307.921,-50.5134 329.408,-40.419"/>
<polygon fill="black" stroke="black" points="331.106,-43.4883 338.669,-36.0683 328.13,-37.1527 331.106,-43.4883"/>
</g>
</g>
</svg>
