<?xml version="1.0" encoding="UTF-8" standalone="no"?>
<!DOCTYPE svg PUBLIC "-//W3C//DTD SVG 1.1//EN"
 "http://www.w3.org/Graphics/SVG/1.1/DTD/svg11.dtd">
<!-- Generated by graphviz version 2.38.0 (20140413.2041)
 -->
<!-- Title: Diagram of: Thentos.DB.Core Pages: 1 -->
<svg width="2092pt" height="263pt"
 viewBox="0.00 0.00 2092.00 263.00" xmlns="http://www.w3.org/2000/svg" xmlns:xlink="http://www.w3.org/1999/xlink">
<g id="graph0" class="graph" transform="scale(1 1) rotate(0) translate(4 259)">
<title>Diagram of: Thentos.DB.Core</title>
<polygon fill="white" stroke="none" points="-4,4 -4,-259 2088,-259 2088,4 -4,4"/>
<g id="clust1" class="cluster"><title>cluster_Data_TLMode</title>
<path fill="papayawhip" stroke="black" d="M358.5,-64C358.5,-64 606.5,-64 606.5,-64 612.5,-64 618.5,-70 618.5,-76 618.5,-76 618.5,-127 618.5,-127 618.5,-133 612.5,-139 606.5,-139 606.5,-139 358.5,-139 358.5,-139 352.5,-139 346.5,-133 346.5,-127 346.5,-127 346.5,-76 346.5,-76 346.5,-70 352.5,-64 358.5,-64"/>
<text text-anchor="middle" x="482.5" y="-123.8" font-family="Times,serif" font-size="14.00">Data: TLMode</text>
</g>
<!-- 2 -->
<g id="node1" class="node"><title>2</title>
<polygon fill="goldenrod" stroke="black" stroke-width="2" points="610,-108 511,-108 507,-104 507,-72 606,-72 610,-76 610,-108"/>
<polyline fill="none" stroke="black" stroke-width="2" points="606,-104 507,-104 "/>
<polyline fill="none" stroke="black" stroke-width="2" points="606,-104 606,-72 "/>
<polyline fill="none" stroke="black" stroke-width="2" points="606,-104 610,-108 "/>
<text text-anchor="middle" x="558.5" y="-86.3" font-family="Times,serif" font-size="14.00">TLRead</text>
</g>
<!-- 3 -->
<g id="node2" class="node"><title>3</title>
<polygon fill="goldenrod" stroke="black" stroke-width="2" points="488.5,-108 358.5,-108 354.5,-104 354.5,-72 484.5,-72 488.5,-76 488.5,-108"/>
<polyline fill="none" stroke="black" stroke-width="2" points="484.5,-104 354.5,-104 "/>
<polyline fill="none" stroke="black" stroke-width="2" points="484.5,-104 484.5,-72 "/>
<polyline fill="none" stroke="black" stroke-width="2" points="484.5,-104 488.5,-108 "/>
<text text-anchor="middle" x="421.5" y="-86.3" font-family="Times,serif" font-size="14.00">TLReadWrite</text>
</g>
<!-- 1 -->
<g id="node3" class="node"><title>1</title>
<polygon fill="goldenrod" stroke="black" stroke-width="2" points="732,-36 641,-36 641,-0 732,-0 732,-36"/>
<text text-anchor="middle" x="686.5" y="-14.3" font-family="Times,serif" font-size="14.00">=%%</text>
</g>
<!-- 4 -->
<g id="node4" class="node"><title>4</title>
<polygon fill="cyan" stroke="black" stroke-width="2" points="1367.5,-183 1223.5,-183 1223.5,-147 1367.5,-147 1367.5,-183"/>
<text text-anchor="middle" x="1295.5" y="-161.3" font-family="Times,serif" font-size="14.00">checkClearance</text>
</g>
<!-- 5 -->
<g id="node5" class="node"><title>5</title>
<polygon fill="gold" stroke="black" stroke-width="2" points="1663.5,-255 1481.5,-255 1481.5,-219 1663.5,-219 1663.5,-255"/>
<text text-anchor="middle" x="1572.5" y="-233.3" font-family="Times,serif" font-size="14.00">createCheckpointLoop</text>
</g>
<!-- 6 -->
<g id="node6" class="node"><title>6</title>
<polygon fill="gold" stroke="black" stroke-width="2" points="1833.5,-255 1681.5,-255 1681.5,-219 1833.5,-219 1833.5,-255"/>
<text text-anchor="middle" x="1757.5" y="-233.3" font-family="Times,serif" font-size="14.00">liftThentosQuery</text>
</g>
<!-- 7 -->
<g id="node7" class="node"><title>7</title>
<polygon fill="goldenrod" stroke="black" stroke-width="2" points="640,-183 477,-183 477,-147 640,-147 640,-183"/>
<text text-anchor="middle" x="558.5" y="-161.3" font-family="Times,serif" font-size="14.00">makeThentosLabel</text>
</g>
<!-- 7&#45;&gt;2 -->
<g id="edge2" class="edge"><title>7&#45;&gt;2</title>
<path fill="none" stroke="black" d="M558.5,-146.7C558.5,-138.245 558.5,-127.869 558.5,-118.373"/>
<polygon fill="black" stroke="black" points="562,-118.176 558.5,-108.176 555,-118.176 562,-118.176"/>
</g>
<!-- 7&#45;&gt;3 -->
<g id="edge3" class="edge"><title>7&#45;&gt;3</title>
<path fill="none" stroke="black" d="M514.105,-146.872C508.447,-144.379 502.79,-141.728 497.5,-139 483.075,-131.561 467.828,-122.244 454.806,-113.803"/>
<polygon fill="black" stroke="black" points="456.463,-110.704 446.185,-108.133 452.617,-116.552 456.463,-110.704"/>
</g>
<!-- 7&#45;&gt;1 -->
<g id="edge1" class="edge"><title>7&#45;&gt;1</title>
<path fill="none" stroke="black" stroke-width="1.69315" d="M612.119,-146.852C615.85,-144.543 619.368,-141.937 622.5,-139 649.332,-113.838 639.718,-96.2008 657.5,-64 661.002,-57.6589 665.059,-51.0079 669.009,-44.8235"/>
<polygon fill="black" stroke="black" stroke-width="1.69315" points="672.111,-46.4748 674.643,-36.1869 666.248,-42.6503 672.111,-46.4748"/>
</g>
<!-- 18 -->
<g id="node18" class="node"><title>18</title>
<polygon fill="goldenrod" stroke="black" stroke-width="2" points="804,-108 667,-108 667,-72 804,-72 804,-108"/>
<text text-anchor="middle" x="735.5" y="-86.3" font-family="Times,serif" font-size="14.00">thentosDenied</text>
</g>
<!-- 7&#45;&gt;18 -->
<g id="edge4" class="edge"><title>7&#45;&gt;18</title>
<path fill="none" stroke="black" d="M630.496,-146.964C638.02,-144.56 645.478,-141.904 652.5,-139 669.187,-132.099 686.637,-122.427 701.206,-113.572"/>
<polygon fill="black" stroke="black" points="703.219,-116.442 709.872,-108.196 699.529,-110.493 703.219,-116.442"/>
</g>
<!-- 8 -->
<g id="node8" class="node"><title>8</title>
<polygon fill="gold" stroke="black" stroke-width="2" points="549.5,-255 379.5,-255 379.5,-219 549.5,-219 549.5,-255"/>
<text text-anchor="middle" x="464.5" y="-233.3" font-family="Times,serif" font-size="14.00">makeThentosLabel1</text>
</g>
<!-- 8&#45;&gt;7 -->
<g id="edge5" class="edge"><title>8&#45;&gt;7</title>
<path fill="none" stroke="black" d="M487.736,-218.697C499.688,-209.796 514.423,-198.823 527.347,-189.199"/>
<polygon fill="black" stroke="black" points="529.601,-191.884 535.531,-183.104 525.42,-186.27 529.601,-191.884"/>
</g>
<!-- 9 -->
<g id="node9" class="node"><title>9</title>
<polygon fill="gold" stroke="black" stroke-width="2" points="737.5,-255 567.5,-255 567.5,-219 737.5,-219 737.5,-255"/>
<text text-anchor="middle" x="652.5" y="-233.3" font-family="Times,serif" font-size="14.00">makeThentosLabel2</text>
</g>
<!-- 9&#45;&gt;7 -->
<g id="edge6" class="edge"><title>9&#45;&gt;7</title>
<path fill="none" stroke="black" d="M629.264,-218.697C617.312,-209.796 602.577,-198.823 589.653,-189.199"/>
<polygon fill="black" stroke="black" points="591.58,-186.27 581.469,-183.104 587.399,-191.884 591.58,-186.27"/>
</g>
<!-- 10 -->
<g id="node10" class="node"><title>10</title>
<polygon fill="gold" stroke="black" stroke-width="2" points="925.5,-255 755.5,-255 755.5,-219 925.5,-219 925.5,-255"/>
<text text-anchor="middle" x="840.5" y="-233.3" font-family="Times,serif" font-size="14.00">makeThentosLabel3</text>
</g>
<!-- 10&#45;&gt;7 -->
<g id="edge7" class="edge"><title>10&#45;&gt;7</title>
<path fill="none" stroke="black" d="M771.876,-218.966C731.189,-208.866 679.472,-196.028 637.143,-185.521"/>
<polygon fill="black" stroke="black" points="637.981,-182.123 627.432,-183.111 636.294,-188.917 637.981,-182.123"/>
</g>
<!-- 11 -->
<g id="node11" class="node"><title>11</title>
<polygon fill="gold" stroke="black" stroke-width="2" points="1113.5,-255 943.5,-255 943.5,-219 1113.5,-219 1113.5,-255"/>
<text text-anchor="middle" x="1028.5" y="-233.3" font-family="Times,serif" font-size="14.00">makeThentosLabel4</text>
</g>
<!-- 11&#45;&gt;7 -->
<g id="edge8" class="edge"><title>11&#45;&gt;7</title>
<path fill="none" stroke="black" d="M943.48,-220.414C940.451,-219.926 937.451,-219.453 934.5,-219 811.509,-200.124 777.358,-202.588 650.426,-183.089"/>
<polygon fill="black" stroke="black" points="650.732,-179.595 640.313,-181.52 649.658,-186.512 650.732,-179.595"/>
</g>
<!-- 12 -->
<g id="node12" class="node"><title>12</title>
<polygon fill="gold" stroke="black" stroke-width="2" points="361.5,-255 191.5,-255 191.5,-219 361.5,-219 361.5,-255"/>
<text text-anchor="middle" x="276.5" y="-233.3" font-family="Times,serif" font-size="14.00">makeThentosLabel5</text>
</g>
<!-- 12&#45;&gt;7 -->
<g id="edge9" class="edge"><title>12&#45;&gt;7</title>
<path fill="none" stroke="black" d="M345.124,-218.966C385.811,-208.866 437.528,-196.028 479.857,-185.521"/>
<polygon fill="black" stroke="black" points="480.706,-188.917 489.568,-183.111 479.019,-182.123 480.706,-188.917"/>
</g>
<!-- 13 -->
<g id="node13" class="node"><title>13</title>
<polygon fill="goldenrod" stroke="black" stroke-width="2" points="434.5,-183 264.5,-183 264.5,-147 434.5,-147 434.5,-183"/>
<text text-anchor="middle" x="349.5" y="-161.3" font-family="Times,serif" font-size="14.00">restrictThentosLabel</text>
</g>
<!-- 13&#45;&gt;2 -->
<g id="edge11" class="edge"><title>13&#45;&gt;2</title>
<path fill="none" stroke="black" d="M434.662,-151.386C463.974,-146.699 491.097,-141.837 497.5,-139 510.755,-133.128 523.641,-123.715 534.129,-114.774"/>
<polygon fill="black" stroke="black" points="536.496,-117.353 541.647,-108.095 531.847,-112.12 536.496,-117.353"/>
</g>
<!-- 13&#45;&gt;3 -->
<g id="edge12" class="edge"><title>13&#45;&gt;3</title>
<path fill="none" stroke="black" d="M366.563,-146.7C375.799,-137.336 387.359,-125.615 397.489,-115.344"/>
<polygon fill="black" stroke="black" points="400.029,-117.753 404.559,-108.176 395.045,-112.838 400.029,-117.753"/>
</g>
<!-- 13&#45;&gt;1 -->
<g id="edge10" class="edge"><title>13&#45;&gt;1</title>
<path fill="none" stroke="black" stroke-width="1.69315" d="M341.657,-146.798C332.937,-124.778 322.524,-86.7592 342.5,-64 361.193,-42.7021 538.309,-28.3988 630.82,-22.316"/>
<polygon fill="black" stroke="black" stroke-width="1.69315" points="631.102,-25.8052 640.855,-21.6667 630.65,-18.8198 631.102,-25.8052"/>
</g>
<!-- 14 -->
<g id="node14" class="node"><title>14</title>
<polygon fill="gold" stroke="black" stroke-width="2" points="173,-255 0,-255 0,-219 173,-219 173,-255"/>
<text text-anchor="middle" x="86.5" y="-233.3" font-family="Times,serif" font-size="14.00">restrictThentosLabel&#39;</text>
</g>
<!-- 14&#45;&gt;13 -->
<g id="edge13" class="edge"><title>14&#45;&gt;13</title>
<path fill="none" stroke="chartreuse" d="M150.501,-218.966C188.206,-208.93 236.07,-196.19 275.407,-185.721"/>
<polygon fill="chartreuse" stroke="chartreuse" points="276.449,-189.065 285.212,-183.111 274.648,-182.301 276.449,-189.065"/>
</g>
<!-- 15 -->
<g id="node15" class="node"><title>15</title>
<polygon fill="gold" stroke="black" stroke-width="2" points="1959,-255 1852,-255 1852,-219 1959,-219 1959,-255"/>
<text text-anchor="middle" x="1905.5" y="-233.3" font-family="Times,serif" font-size="14.00">returnDb</text>
</g>
<!-- 16 -->
<g id="node16" class="node"><title>16</title>
<polygon fill="gold" stroke="black" stroke-width="2" points="1285.5,-255 1131.5,-255 1131.5,-219 1285.5,-219 1285.5,-255"/>
<text text-anchor="middle" x="1208.5" y="-233.3" font-family="Times,serif" font-size="14.00">runThentosQuery</text>
</g>
<!-- 16&#45;&gt;4 -->
<g id="edge14" class="edge"><title>16&#45;&gt;4</title>
<path fill="none" stroke="black" stroke-width="1.69315" d="M1230.01,-218.697C1240.96,-209.881 1254.45,-199.032 1266.32,-189.474"/>
<polygon fill="black" stroke="black" stroke-width="1.69315" points="1268.64,-192.1 1274.24,-183.104 1264.26,-186.646 1268.64,-192.1"/>
</g>
<!-- 17 -->
<g id="node17" class="node"><title>17</title>
<polygon fill="gold" stroke="black" stroke-width="2" points="1463,-255 1304,-255 1304,-219 1463,-219 1463,-255"/>
<text text-anchor="middle" x="1383.5" y="-233.3" font-family="Times,serif" font-size="14.00">runThentosUpdate</text>
</g>
<!-- 17&#45;&gt;4 -->
<g id="edge15" class="edge"><title>17&#45;&gt;4</title>
<path fill="none" stroke="black" stroke-width="1.69315" d="M1361.75,-218.697C1350.66,-209.881 1337.03,-199.032 1325.01,-189.474"/>
<polygon fill="black" stroke="black" stroke-width="1.69315" points="1327.01,-186.59 1317,-183.104 1322.65,-192.069 1327.01,-186.59"/>
</g>
<!-- 18&#45;&gt;1 -->
<g id="edge16" class="edge"><title>18&#45;&gt;1</title>
<path fill="none" stroke="black" d="M723.388,-71.6966C717.632,-63.4741 710.638,-53.4832 704.294,-44.4207"/>
<polygon fill="black" stroke="black" points="707.075,-42.2895 698.473,-36.1043 701.34,-46.3038 707.075,-42.2895"/>
</g>
<!-- 19 -->
<g id="node19" class="node"><title>19</title>
<polygon fill="gold" stroke="black" stroke-width="2" points="838.5,-183 658.5,-183 658.5,-147 838.5,-147 838.5,-183"/>
<text text-anchor="middle" x="748.5" y="-161.3" font-family="Times,serif" font-size="14.00">thentosLabeledDenied</text>
</g>
<!-- 19&#45;&gt;18 -->
<g id="edge17" class="edge"><title>19&#45;&gt;18</title>
<path fill="none" stroke="black" d="M745.419,-146.7C743.897,-138.154 742.026,-127.645 740.32,-118.067"/>
<polygon fill="black" stroke="black" points="743.758,-117.407 738.559,-108.176 736.866,-118.635 743.758,-117.407"/>
</g>
<!-- 20 -->
<g id="node20" class="node"><title>20</title>
<polygon fill="gold" stroke="black" stroke-width="2" points="1032.5,-183 856.5,-183 856.5,-147 1032.5,-147 1032.5,-183"/>
<text text-anchor="middle" x="944.5" y="-161.3" font-family="Times,serif" font-size="14.00">thentosLabeledPublic</text>
</g>
<!-- 21 -->
<g id="node21" class="node"><title>21</title>
<polygon fill="goldenrod" stroke="black" stroke-width="2" points="982.5,-108 850.5,-108 850.5,-72 982.5,-72 982.5,-108"/>
<text text-anchor="middle" x="916.5" y="-86.3" font-family="Times,serif" font-size="14.00">thentosPublic</text>
</g>
<!-- 20&#45;&gt;21 -->
<g id="edge18" class="edge"><title>20&#45;&gt;21</title>
<path fill="none" stroke="chartreuse" d="M937.864,-146.7C934.552,-138.063 930.47,-127.422 926.765,-117.762"/>
<polygon fill="chartreuse" stroke="chartreuse" points="929.937,-116.259 923.088,-108.176 923.401,-118.766 929.937,-116.259"/>
</g>
<!-- 21&#45;&gt;1 -->
<g id="edge19" class="edge"><title>21&#45;&gt;1</title>
<path fill="none" stroke="black" d="M860.53,-71.9656C824.553,-61.0162 778.002,-46.8483 742.098,-35.9212"/>
<polygon fill="black" stroke="black" points="742.857,-32.4938 732.272,-32.9305 740.819,-39.1905 742.857,-32.4938"/>
</g>
<!-- 22 -->
<g id="node22" class="node"><title>22</title>
<polygon fill="gold" stroke="black" stroke-width="2" points="2084,-255 1977,-255 1977,-219 2084,-219 2084,-255"/>
<text text-anchor="middle" x="2030.5" y="-233.3" font-family="Times,serif" font-size="14.00">throwDb</text>
</g>
</g>
</svg>
