<?xml version="1.0" encoding="UTF-8" standalone="no"?>
<!DOCTYPE svg PUBLIC "-//W3C//DTD SVG 1.1//EN"
 "http://www.w3.org/Graphics/SVG/1.1/DTD/svg11.dtd">
<!-- Generated by graphviz version 2.38.0 (20140413.2041)
 -->
<!-- Title: Levels within Thentos.Backend.Api.Simple Pages: 1 -->
<svg width="1318pt" height="468pt"
 viewBox="0.00 0.00 1318.00 467.74" xmlns="http://www.w3.org/2000/svg" xmlns:xlink="http://www.w3.org/1999/xlink">
<g id="graph0" class="graph" transform="scale(1 1) rotate(0) translate(4 463.744)">
<title>Levels within Thentos.Backend.Api.Simple</title>
<polygon fill="white" stroke="none" points="-4,4 -4,-463.744 1314,-463.744 1314,4 -4,4"/>
<g id="clust1" class="cluster"><title>cluster_0</title>
<polygon fill="lavender" stroke="black" points="254,-265.391 254,-451.744 1051,-451.744 1051,-265.391 254,-265.391"/>
<text text-anchor="middle" x="652.5" y="-436.544" font-family="Times,serif" font-size="14.00">Exported root entities</text>
</g>
<g id="clust2" class="cluster"><title>cluster_1</title>
<polygon fill="lavender" stroke="black" points="180,-174 180,-257.391 1302,-257.391 1302,-174 180,-174"/>
<text text-anchor="middle" x="741" y="-242.191" font-family="Times,serif" font-size="14.00">Level = 1</text>
</g>
<g id="clust3" class="cluster"><title>cluster_2</title>
<polygon fill="lavender" stroke="black" points="155,-91 155,-166 479,-166 479,-91 155,-91"/>
<text text-anchor="middle" x="317" y="-150.8" font-family="Times,serif" font-size="14.00">Level = 2</text>
</g>
<g id="clust4" class="cluster"><title>cluster_3</title>
<polygon fill="lavender" stroke="black" points="8,-8 8,-83 461,-83 461,-8 8,-8"/>
<text text-anchor="middle" x="234.5" y="-67.8" font-family="Times,serif" font-size="14.00">Level = 3</text>
</g>
<!-- 2 -->
<g id="node1" class="node"><title>2</title>
<polygon fill="gold" stroke="black" stroke-width="2" points="1042.5,-401.067 939.5,-401.067 939.5,-365.067 1042.5,-365.067 1042.5,-401.067"/>
<text text-anchor="middle" x="991" y="-379.367" font-family="Times,serif" font-size="14.00">apiDocs</text>
</g>
<!-- 6 -->
<g id="node2" class="node"><title>6</title>
<polygon fill="gold" stroke="black" stroke-width="2" points="386,-401.067 262,-401.067 262,-365.067 386,-365.067 386,-401.067"/>
<text text-anchor="middle" x="324" y="-379.367" font-family="Times,serif" font-size="14.00">runBackend</text>
</g>
<!-- 7 -->
<g id="node3" class="node"><title>7</title>
<polygon fill="goldenrod" stroke="black" stroke-width="2" points="373.5,-309.391 266.5,-309.391 266.5,-273.391 373.5,-273.391 373.5,-309.391"/>
<text text-anchor="middle" x="320" y="-287.691" font-family="Times,serif" font-size="14.00">serveApi</text>
</g>
<!-- 6&#45;&gt;7 -->
<g id="edge4" class="edge"><title>6&#45;&gt;7</title>
<path fill="none" stroke="chartreuse" d="M323.229,-364.777C322.659,-351.999 321.871,-334.347 321.217,-319.674"/>
<polygon fill="chartreuse" stroke="chartreuse" points="324.711,-319.463 320.769,-309.629 317.718,-319.775 324.711,-319.463"/>
</g>
<!-- 3 -->
<g id="node6" class="node"><title>3</title>
<polygon fill="bisque" stroke="black" stroke-width="2" points="266,-222.196 188,-222.196 188,-186.196 266,-186.196 266,-222.196"/>
<text text-anchor="middle" x="227" y="-200.496" font-family="Times,serif" font-size="14.00">app</text>
</g>
<!-- 7&#45;&gt;3 -->
<g id="edge5" class="edge"><title>7&#45;&gt;3</title>
<path fill="none" stroke="chartreuse" d="M294.568,-273.068C287.994,-268.237 281.064,-262.818 275,-257.391 265.634,-249.01 256.104,-239.012 248.031,-230.02"/>
<polygon fill="chartreuse" stroke="chartreuse" points="250.59,-227.63 241.352,-222.443 245.339,-232.259 250.59,-227.63"/>
</g>
<!-- 12 -->
<g id="node4" class="node"><title>12</title>
<polygon fill="khaki" stroke="black" stroke-dasharray="1,5" points="649.858,-369.053 649.858,-397.082 579.061,-416.902 478.939,-416.902 408.142,-397.082 408.142,-369.053 478.939,-349.233 579.061,-349.233 649.858,-369.053"/>
<polygon fill="none" stroke="black" stroke-dasharray="1,5" points="653.856,-366 653.856,-400.135 579.607,-420.921 478.393,-420.921 404.144,-400.135 404.144,-366 478.393,-345.214 579.607,-345.214 653.856,-366"/>
<text text-anchor="middle" x="529" y="-386.867" font-family="Times,serif" font-size="14.00">Unknown Module</text>
<text text-anchor="middle" x="529" y="-371.867" font-family="Times,serif" font-size="14.00">Class: HasDocs</text>
</g>
<!-- 4 -->
<g id="node7" class="node"><title>4</title>
<polygon fill="cyan" stroke="black" stroke-width="2" points="773.835,-194.92 773.835,-213.471 630.414,-226.589 427.586,-226.589 284.165,-213.471 284.165,-194.92 427.586,-181.803 630.414,-181.803 773.835,-194.92"/>
<text text-anchor="middle" x="529" y="-200.496" font-family="Times,serif" font-size="14.00">Class: HasDocs, Data: (ThentosAuth sublayout)</text>
</g>
<!-- 12&#45;&gt;4 -->
<g id="edge9" class="edge"><title>12&#45;&gt;4</title>
<path fill="none" stroke="navy" d="M529,-344.989C529,-309.13 529,-256.03 529,-226.672"/>
</g>
<!-- 13 -->
<g id="node5" class="node"><title>13</title>
<polygon fill="khaki" stroke="black" stroke-dasharray="1,5" points="917.858,-369.053 917.858,-397.082 847.061,-416.902 746.939,-416.902 676.142,-397.082 676.142,-369.053 746.939,-349.233 847.061,-349.233 917.858,-369.053"/>
<polygon fill="none" stroke="black" stroke-dasharray="1,5" points="921.856,-366 921.856,-400.135 847.607,-420.921 746.393,-420.921 672.144,-400.135 672.144,-366 746.393,-345.214 847.607,-345.214 921.856,-366"/>
<text text-anchor="middle" x="797" y="-386.867" font-family="Times,serif" font-size="14.00">Unknown Module</text>
<text text-anchor="middle" x="797" y="-371.867" font-family="Times,serif" font-size="14.00">Class: HasServer</text>
</g>
<!-- 5 -->
<g id="node8" class="node"><title>5</title>
<polygon fill="bisque" stroke="black" stroke-width="2" points="1294.08,-194.92 1294.08,-213.471 1147,-226.589 938.999,-226.589 791.919,-213.471 791.919,-194.92 938.999,-181.803 1147,-181.803 1294.08,-194.92"/>
<text text-anchor="middle" x="1043" y="-200.496" font-family="Times,serif" font-size="14.00">Class: HasServer, Data: (ThentosAuth sublayout)</text>
</g>
<!-- 13&#45;&gt;5 -->
<g id="edge10" class="edge"><title>13&#45;&gt;5</title>
<path fill="none" stroke="navy" d="M848.27,-345.205C898.258,-309.264 972.543,-255.854 1013.4,-226.478"/>
</g>
<!-- 1 -->
<g id="node9" class="node"><title>1</title>
<polygon fill="cyan" stroke="black" stroke-width="2" points="471,-135 313,-135 309,-131 309,-99 467,-99 471,-103 471,-135"/>
<polyline fill="none" stroke="black" stroke-width="2" points="467,-131 309,-131 "/>
<polyline fill="none" stroke="black" stroke-width="2" points="467,-131 467,-99 "/>
<polyline fill="none" stroke="black" stroke-width="2" points="467,-131 471,-135 "/>
<text text-anchor="middle" x="390" y="-113.3" font-family="Times,serif" font-size="14.00">Data: ThentosAuth</text>
</g>
<!-- 3&#45;&gt;1 -->
<g id="edge1" class="edge"><title>3&#45;&gt;1</title>
<path fill="none" stroke="black" d="M252.543,-186.125C259.632,-181.817 267.457,-177.442 275,-174 285.613,-169.157 289.254,-170.541 300,-166 317.59,-158.567 336.33,-148.879 352.131,-140.154"/>
<polygon fill="black" stroke="black" points="354.047,-143.093 361.063,-135.153 350.628,-136.985 354.047,-143.093"/>
</g>
<!-- 8 -->
<g id="node10" class="node"><title>8</title>
<polygon fill="bisque" stroke="black" stroke-width="2" points="291,-135 163,-135 163,-99 291,-99 291,-135"/>
<text text-anchor="middle" x="227" y="-113.3" font-family="Times,serif" font-size="14.00">thentosBasic</text>
</g>
<!-- 3&#45;&gt;8 -->
<g id="edge2" class="edge"><title>3&#45;&gt;8</title>
<path fill="none" stroke="black" d="M227,-185.955C227,-174.292 227,-158.641 227,-145.299"/>
<polygon fill="black" stroke="black" points="230.5,-145.215 227,-135.215 223.5,-145.215 230.5,-145.215"/>
</g>
<!-- 5&#45;&gt;1 -->
<g id="edge3" class="edge"><title>5&#45;&gt;1</title>
<path fill="none" stroke="black" d="M903.316,-184.971C775.791,-168.333 590.962,-144.219 481.379,-129.922"/>
<polygon fill="black" stroke="black" points="481.708,-126.435 471.34,-128.612 480.803,-133.377 481.708,-126.435"/>
</g>
<!-- 9 -->
<g id="node11" class="node"><title>9</title>
<polygon fill="cyan" stroke="black" stroke-width="2" points="453,-52 315,-52 315,-16 453,-16 453,-52"/>
<text text-anchor="middle" x="384" y="-30.3" font-family="Times,serif" font-size="14.00">thentosService</text>
</g>
<!-- 8&#45;&gt;9 -->
<g id="edge6" class="edge"><title>8&#45;&gt;9</title>
<path fill="none" stroke="black" d="M270.428,-98.9489C281.828,-94.1155 294.006,-88.6279 305,-83 319.883,-75.3817 335.735,-66.0147 349.304,-57.5839"/>
<polygon fill="black" stroke="black" points="351.254,-60.4921 357.858,-52.2067 347.529,-54.5659 351.254,-60.4921"/>
</g>
<!-- 10 -->
<g id="node12" class="node"><title>10</title>
<polygon fill="cyan" stroke="black" stroke-width="2" points="296.5,-52 157.5,-52 157.5,-16 296.5,-16 296.5,-52"/>
<text text-anchor="middle" x="227" y="-30.3" font-family="Times,serif" font-size="14.00">thentosSession</text>
</g>
<!-- 8&#45;&gt;10 -->
<g id="edge7" class="edge"><title>8&#45;&gt;10</title>
<path fill="none" stroke="black" d="M227,-98.822C227,-88.1903 227,-74.306 227,-62.2035"/>
<polygon fill="black" stroke="black" points="230.5,-62.1532 227,-52.1533 223.5,-62.1533 230.5,-62.1532"/>
</g>
<!-- 11 -->
<g id="node13" class="node"><title>11</title>
<polygon fill="cyan" stroke="black" stroke-width="2" points="139.5,-52 16.5,-52 16.5,-16 139.5,-16 139.5,-52"/>
<text text-anchor="middle" x="78" y="-30.3" font-family="Times,serif" font-size="14.00">thentosUser</text>
</g>
<!-- 8&#45;&gt;11 -->
<g id="edge8" class="edge"><title>8&#45;&gt;11</title>
<path fill="none" stroke="black" d="M181.547,-98.8885C170.367,-94.1719 158.575,-88.755 148,-83 134.565,-75.6884 120.516,-66.4141 108.56,-57.9711"/>
<polygon fill="black" stroke="black" points="110.426,-55.0024 100.262,-52.0101 106.342,-60.6873 110.426,-55.0024"/>
</g>
</g>
</svg>
