<?xml version="1.0" encoding="UTF-8" standalone="no"?>
<!DOCTYPE svg PUBLIC "-//W3C//DTD SVG 1.1//EN"
 "http://www.w3.org/Graphics/SVG/1.1/DTD/svg11.dtd">
<!-- Generated by graphviz version 2.38.0 (20140413.2041)
 -->
<!-- Title: Core of Thentos.Doc Pages: 1 -->
<svg width="622pt" height="250pt"
 viewBox="0.00 0.00 622.00 249.74" xmlns="http://www.w3.org/2000/svg" xmlns:xlink="http://www.w3.org/1999/xlink">
<g id="graph0" class="graph" transform="scale(1 1) rotate(0) translate(4 245.744)">
<title>Core of Thentos.Doc</title>
<polygon fill="white" stroke="none" points="-4,4 -4,-245.744 618,-245.744 618,4 -4,4"/>
<g id="clust1" class="cluster"><title>cluster_Class_ToSample</title>
<path fill="#ffc1c1" stroke="black" d="M20,-8C20,-8 594,-8 594,-8 600,-8 606,-14 606,-20 606,-20 606,-221.744 606,-221.744 606,-227.744 600,-233.744 594,-233.744 594,-233.744 20,-233.744 20,-233.744 14,-233.744 8,-227.744 8,-221.744 8,-221.744 8,-20 8,-20 8,-14 14,-8 20,-8"/>
<text text-anchor="middle" x="307" y="-218.544" font-family="Times,serif" font-size="14.00">Class: ToSample</text>
</g>
<g id="clust2" class="cluster"><title>cluster_Class_ToSample_Data_UserIdServiceId</title>
<path fill="#c6e2ff" stroke="black" d="M416,-119.352C416,-119.352 586,-119.352 586,-119.352 592,-119.352 598,-125.352 598,-131.352 598,-131.352 598,-190.744 598,-190.744 598,-196.744 592,-202.744 586,-202.744 586,-202.744 416,-202.744 416,-202.744 410,-202.744 404,-196.744 404,-190.744 404,-190.744 404,-131.352 404,-131.352 404,-125.352 410,-119.352 416,-119.352"/>
<text text-anchor="middle" x="501" y="-187.544" font-family="Times,serif" font-size="14.00">Instance for: (UserId, ServiceId)</text>
</g>
<g id="clust3" class="cluster"><title>cluster_Class_ToSample_Data_UserIdTimeout</title>
<path fill="#c6e2ff" stroke="black" d="M220,-119.352C220,-119.352 384,-119.352 384,-119.352 390,-119.352 396,-125.352 396,-131.352 396,-131.352 396,-190.744 396,-190.744 396,-196.744 390,-202.744 384,-202.744 384,-202.744 220,-202.744 220,-202.744 214,-202.744 208,-196.744 208,-190.744 208,-190.744 208,-131.352 208,-131.352 208,-125.352 214,-119.352 220,-119.352"/>
<text text-anchor="middle" x="302" y="-187.544" font-family="Times,serif" font-size="14.00">Instance for: (UserId, Timeout)</text>
</g>
<g id="clust4" class="cluster"><title>cluster_Class_ToSample_Data_Session</title>
<path fill="#c6e2ff" stroke="black" d="M28,-119.352C28,-119.352 188,-119.352 188,-119.352 194,-119.352 200,-125.352 200,-131.352 200,-131.352 200,-190.744 200,-190.744 200,-196.744 194,-202.744 188,-202.744 188,-202.744 28,-202.744 28,-202.744 22,-202.744 16,-196.744 16,-190.744 16,-190.744 16,-131.352 16,-131.352 16,-125.352 22,-119.352 28,-119.352"/>
<text text-anchor="middle" x="108" y="-187.544" font-family="Times,serif" font-size="14.00">Instance for: Session</text>
</g>
<!-- 7 -->
<g id="node1" class="node"><title>7</title>
<polygon fill="bisque" stroke="black" stroke-width="2" points="580.381,-140.272 580.381,-158.823 530.952,-171.941 461.048,-171.941 411.619,-158.823 411.619,-140.272 461.048,-127.155 530.952,-127.155 580.381,-140.272"/>
<text text-anchor="middle" x="496" y="-145.848" font-family="Times,serif" font-size="14.00">toSample</text>
</g>
<!-- 21 -->
<g id="node4" class="node"><title>21</title>
<polygon fill="khaki" stroke="black" stroke-dasharray="5,2" points="402.036,-39.6615 402.036,-67.6908 343.436,-87.5105 260.564,-87.5105 201.964,-67.6908 201.964,-39.6615 260.564,-19.8418 343.436,-19.8418 402.036,-39.6615"/>
<polygon fill="none" stroke="black" stroke-dasharray="5,2" points="406.027,-36.7719 406.027,-70.5804 344.088,-91.5293 259.912,-91.5293 197.973,-70.5804 197.973,-36.7719 259.912,-15.823 344.088,-15.823 406.027,-36.7719"/>
<text text-anchor="middle" x="302" y="-57.4761" font-family="Times,serif" font-size="14.00">Servant.Docs</text>
<text text-anchor="middle" x="302" y="-42.4761" font-family="Times,serif" font-size="14.00">toSample</text>
</g>
<!-- 7&#45;&gt;21 -->
<g id="edge1" class="edge"><title>7&#45;&gt;21</title>
<path fill="none" stroke="black" stroke-width="1.69315" d="M451.193,-129.552C426.912,-118.337 396.476,-103.776 369.415,-90.4798"/>
<polygon fill="black" stroke="black" stroke-width="1.69315" points="370.898,-87.3086 360.381,-86.0258 367.803,-93.5871 370.898,-87.3086"/>
</g>
<!-- 8 -->
<g id="node2" class="node"><title>8</title>
<polygon fill="bisque" stroke="black" stroke-width="2" points="386.381,-140.272 386.381,-158.823 336.952,-171.941 267.048,-171.941 217.619,-158.823 217.619,-140.272 267.048,-127.155 336.952,-127.155 386.381,-140.272"/>
<text text-anchor="middle" x="302" y="-145.848" font-family="Times,serif" font-size="14.00">toSample</text>
</g>
<!-- 8&#45;&gt;21 -->
<g id="edge2" class="edge"><title>8&#45;&gt;21</title>
<path fill="none" stroke="black" d="M296.239,-127.247C295.577,-119.544 295.247,-110.511 295.25,-101.485"/>
<polygon fill="black" stroke="black" points="298.751,-101.418 295.395,-91.3685 291.752,-101.317 298.751,-101.418"/>
</g>
<!-- 12 -->
<g id="node3" class="node"><title>12</title>
<polygon fill="bisque" stroke="black" stroke-width="2" points="192.381,-140.272 192.381,-158.823 142.952,-171.941 73.0482,-171.941 23.6189,-158.823 23.6189,-140.272 73.0482,-127.155 142.952,-127.155 192.381,-140.272"/>
<text text-anchor="middle" x="108" y="-145.848" font-family="Times,serif" font-size="14.00">toSample</text>
</g>
<!-- 12&#45;&gt;21 -->
<g id="edge3" class="edge"><title>12&#45;&gt;21</title>
<path fill="none" stroke="black" d="M145.335,-127.715C168.375,-116.068 198.686,-101.277 226.523,-88.0555"/>
<polygon fill="black" stroke="black" points="228.314,-91.0804 235.855,-83.6388 225.319,-84.7533 228.314,-91.0804"/>
</g>
<!-- 21&#45;&gt;7 -->
<g id="edge4" class="edge"><title>21&#45;&gt;7</title>
<path fill="none" stroke="navy" d="M368.145,-83.6388C398.369,-97.8925 433.02,-114.751 458.665,-127.715"/>
</g>
<!-- 21&#45;&gt;8 -->
<g id="edge5" class="edge"><title>21&#45;&gt;8</title>
<path fill="none" stroke="navy" d="M308.605,-91.3685C308.954,-103.525 308.673,-116.645 307.761,-127.247"/>
</g>
<!-- 21&#45;&gt;12 -->
<g id="edge6" class="edge"><title>21&#45;&gt;12</title>
<path fill="none" stroke="navy" d="M243.619,-86.0258C214.483,-100.441 179.833,-117.069 152.807,-129.552"/>
</g>
</g>
</svg>
