<?xml version="1.0" encoding="UTF-8" standalone="no"?>
<!DOCTYPE svg PUBLIC "-//W3C//DTD SVG 1.1//EN"
 "http://www.w3.org/Graphics/SVG/1.1/DTD/svg11.dtd">
<!-- Generated by graphviz version 2.38.0 (20140413.2041)
 -->
<!-- Title: Diagram of: Thentos.Backend.Api.Adhocracy3 Pages: 1 -->
<svg width="3622pt" height="740pt"
 viewBox="0.00 0.00 3622.00 740.23" xmlns="http://www.w3.org/2000/svg" xmlns:xlink="http://www.w3.org/1999/xlink">
<g id="graph0" class="graph" transform="scale(1 1) rotate(0) translate(4 736.231)">
<title>Diagram of: Thentos.Backend.Api.Adhocracy3</title>
<polygon fill="white" stroke="none" points="-4,4 -4,-736.231 3618,-736.231 3618,4 -4,4"/>
<g id="clust1" class="cluster"><title>cluster_Class_FromJSON</title>
<path fill="#ffc1c1" stroke="black" d="M1510,-304.744C1510,-304.744 2936,-304.744 2936,-304.744 2942,-304.744 2948,-310.744 2948,-316.744 2948,-316.744 2948,-498.487 2948,-498.487 2948,-504.487 2942,-510.487 2936,-510.487 2936,-510.487 1510,-510.487 1510,-510.487 1504,-510.487 1498,-504.487 1498,-498.487 1498,-498.487 1498,-316.744 1498,-316.744 1498,-310.744 1504,-304.744 1510,-304.744"/>
<text text-anchor="middle" x="2223" y="-495.287" font-family="Times,serif" font-size="14.00">Class: FromJSON</text>
</g>
<g id="clust2" class="cluster"><title>cluster_Class_FromJSON_Data_A3Resourcea</title>
<path fill="#c6e2ff" stroke="black" d="M1724,-312.744C1724,-312.744 1898,-312.744 1898,-312.744 1904,-312.744 1910,-318.744 1910,-324.744 1910,-324.744 1910,-384.135 1910,-384.135 1910,-390.135 1904,-396.135 1898,-396.135 1898,-396.135 1724,-396.135 1724,-396.135 1718,-396.135 1712,-390.135 1712,-384.135 1712,-384.135 1712,-324.744 1712,-324.744 1712,-318.744 1718,-312.744 1724,-312.744"/>
<text text-anchor="middle" x="1811" y="-380.935" font-family="Times,serif" font-size="14.00">Instance for: (A3Resource a)</text>
</g>
<g id="clust3" class="cluster"><title>cluster_Class_FromJSON_Data_A3UserNoPass</title>
<path fill="#c6e2ff" stroke="black" d="M1518,-312.744C1518,-312.744 1692,-312.744 1692,-312.744 1698,-312.744 1704,-318.744 1704,-324.744 1704,-324.744 1704,-384.135 1704,-384.135 1704,-390.135 1698,-396.135 1692,-396.135 1692,-396.135 1518,-396.135 1518,-396.135 1512,-396.135 1506,-390.135 1506,-384.135 1506,-384.135 1506,-324.744 1506,-324.744 1506,-318.744 1512,-312.744 1518,-312.744"/>
<text text-anchor="middle" x="1605" y="-380.935" font-family="Times,serif" font-size="14.00">Instance for: A3UserNoPass</text>
</g>
<g id="clust4" class="cluster"><title>cluster_Class_FromJSON_Data_A3UserWithPass</title>
<path fill="#c6e2ff" stroke="black" d="M2136,-312.744C2136,-312.744 2310,-312.744 2310,-312.744 2316,-312.744 2322,-318.744 2322,-324.744 2322,-324.744 2322,-384.135 2322,-384.135 2322,-390.135 2316,-396.135 2310,-396.135 2310,-396.135 2136,-396.135 2136,-396.135 2130,-396.135 2124,-390.135 2124,-384.135 2124,-384.135 2124,-324.744 2124,-324.744 2124,-318.744 2130,-312.744 2136,-312.744"/>
<text text-anchor="middle" x="2223" y="-380.935" font-family="Times,serif" font-size="14.00">Instance for: A3UserWithPass</text>
</g>
<g id="clust5" class="cluster"><title>cluster_Class_FromJSON_Data_ActivationRequest</title>
<path fill="#c6e2ff" stroke="black" d="M1930,-312.744C1930,-312.744 2104,-312.744 2104,-312.744 2110,-312.744 2116,-318.744 2116,-324.744 2116,-324.744 2116,-384.135 2116,-384.135 2116,-390.135 2110,-396.135 2104,-396.135 2104,-396.135 1930,-396.135 1930,-396.135 1924,-396.135 1918,-390.135 1918,-384.135 1918,-384.135 1918,-324.744 1918,-324.744 1918,-318.744 1924,-312.744 1930,-312.744"/>
<text text-anchor="middle" x="2017" y="-380.935" font-family="Times,serif" font-size="14.00">Instance for: ActivationRequest</text>
</g>
<g id="clust6" class="cluster"><title>cluster_Class_FromJSON_Data_ContentType</title>
<path fill="#c6e2ff" stroke="black" d="M2342,-312.744C2342,-312.744 2516,-312.744 2516,-312.744 2522,-312.744 2528,-318.744 2528,-324.744 2528,-324.744 2528,-384.135 2528,-384.135 2528,-390.135 2522,-396.135 2516,-396.135 2516,-396.135 2342,-396.135 2342,-396.135 2336,-396.135 2330,-390.135 2330,-384.135 2330,-384.135 2330,-324.744 2330,-324.744 2330,-318.744 2336,-312.744 2342,-312.744"/>
<text text-anchor="middle" x="2429" y="-380.935" font-family="Times,serif" font-size="14.00">Instance for: ContentType</text>
</g>
<g id="clust7" class="cluster"><title>cluster_Class_FromJSON_Data_LoginRequest</title>
<path fill="#c6e2ff" stroke="black" d="M2548,-312.744C2548,-312.744 2722,-312.744 2722,-312.744 2728,-312.744 2734,-318.744 2734,-324.744 2734,-324.744 2734,-384.135 2734,-384.135 2734,-390.135 2728,-396.135 2722,-396.135 2722,-396.135 2548,-396.135 2548,-396.135 2542,-396.135 2536,-390.135 2536,-384.135 2536,-384.135 2536,-324.744 2536,-324.744 2536,-318.744 2542,-312.744 2548,-312.744"/>
<text text-anchor="middle" x="2635" y="-380.935" font-family="Times,serif" font-size="14.00">Instance for: LoginRequest</text>
</g>
<g id="clust8" class="cluster"><title>cluster_Class_FromJSON_Data_RequestResult</title>
<path fill="#c6e2ff" stroke="black" d="M2754,-312.744C2754,-312.744 2928,-312.744 2928,-312.744 2934,-312.744 2940,-318.744 2940,-324.744 2940,-324.744 2940,-384.135 2940,-384.135 2940,-390.135 2934,-396.135 2928,-396.135 2928,-396.135 2754,-396.135 2754,-396.135 2748,-396.135 2742,-390.135 2742,-384.135 2742,-384.135 2742,-324.744 2742,-324.744 2742,-318.744 2748,-312.744 2754,-312.744"/>
<text text-anchor="middle" x="2841" y="-380.935" font-family="Times,serif" font-size="14.00">Instance for: RequestResult</text>
</g>
<g id="clust9" class="cluster"><title>cluster_Class_Read</title>
<path fill="#ffc1c1" stroke="black" d="M3194,-518.487C3194,-518.487 3566,-518.487 3566,-518.487 3572,-518.487 3578,-524.487 3578,-530.487 3578,-530.487 3578,-712.231 3578,-712.231 3578,-718.231 3572,-724.231 3566,-724.231 3566,-724.231 3194,-724.231 3194,-724.231 3188,-724.231 3182,-718.231 3182,-712.231 3182,-712.231 3182,-530.487 3182,-530.487 3182,-524.487 3188,-518.487 3194,-518.487"/>
<text text-anchor="middle" x="3380" y="-709.031" font-family="Times,serif" font-size="14.00">Class: Read</text>
</g>
<g id="clust10" class="cluster"><title>cluster_Class_Read_Data_ContentType</title>
<path fill="#c6e2ff" stroke="black" d="M3202,-526.487C3202,-526.487 3364,-526.487 3364,-526.487 3370,-526.487 3376,-532.487 3376,-538.487 3376,-538.487 3376,-597.878 3376,-597.878 3376,-603.878 3370,-609.878 3364,-609.878 3364,-609.878 3202,-609.878 3202,-609.878 3196,-609.878 3190,-603.878 3190,-597.878 3190,-597.878 3190,-538.487 3190,-538.487 3190,-532.487 3196,-526.487 3202,-526.487"/>
<text text-anchor="middle" x="3283" y="-594.678" font-family="Times,serif" font-size="14.00">Instance for: ContentType</text>
</g>
<g id="clust11" class="cluster"><title>cluster_Class_Read_Data_PropertySheet</title>
<path fill="#c6e2ff" stroke="black" d="M3396,-526.487C3396,-526.487 3558,-526.487 3558,-526.487 3564,-526.487 3570,-532.487 3570,-538.487 3570,-538.487 3570,-597.878 3570,-597.878 3570,-603.878 3564,-609.878 3558,-609.878 3558,-609.878 3396,-609.878 3396,-609.878 3390,-609.878 3384,-603.878 3384,-597.878 3384,-597.878 3384,-538.487 3384,-538.487 3384,-532.487 3390,-526.487 3396,-526.487"/>
<text text-anchor="middle" x="3477" y="-594.678" font-family="Times,serif" font-size="14.00">Instance for: PropertySheet</text>
</g>
<g id="clust12" class="cluster"><title>cluster_Class_Show</title>
<path fill="#ffc1c1" stroke="black" d="M2450,-91C2450,-91 2774,-91 2774,-91 2780,-91 2786,-97 2786,-103 2786,-103 2786,-284.744 2786,-284.744 2786,-290.744 2780,-296.744 2774,-296.744 2774,-296.744 2450,-296.744 2450,-296.744 2444,-296.744 2438,-290.744 2438,-284.744 2438,-284.744 2438,-103 2438,-103 2438,-97 2444,-91 2450,-91"/>
<text text-anchor="middle" x="2612" y="-281.544" font-family="Times,serif" font-size="14.00">Class: Show</text>
</g>
<g id="clust13" class="cluster"><title>cluster_Class_Show_Data_ContentType</title>
<path fill="#c6e2ff" stroke="black" d="M2631,-99C2631,-99 2766,-99 2766,-99 2772,-99 2778,-105 2778,-111 2778,-111 2778,-170.391 2778,-170.391 2778,-176.391 2772,-182.391 2766,-182.391 2766,-182.391 2631,-182.391 2631,-182.391 2625,-182.391 2619,-176.391 2619,-170.391 2619,-170.391 2619,-111 2619,-111 2619,-105 2625,-99 2631,-99"/>
<text text-anchor="middle" x="2698.5" y="-167.191" font-family="Times,serif" font-size="14.00">Instance for: ContentType</text>
</g>
<g id="clust14" class="cluster"><title>cluster_Class_Show_Data_PropertySheet</title>
<path fill="#c6e2ff" stroke="black" d="M2458,-99C2458,-99 2599,-99 2599,-99 2605,-99 2611,-105 2611,-111 2611,-111 2611,-170.391 2611,-170.391 2611,-176.391 2605,-182.391 2599,-182.391 2599,-182.391 2458,-182.391 2458,-182.391 2452,-182.391 2446,-176.391 2446,-170.391 2446,-170.391 2446,-111 2446,-111 2446,-105 2452,-99 2458,-99"/>
<text text-anchor="middle" x="2528.5" y="-167.191" font-family="Times,serif" font-size="14.00">Instance for: PropertySheet</text>
</g>
<g id="clust15" class="cluster"><title>cluster_Class_ToJSON</title>
<path fill="#ffc1c1" stroke="black" d="M212,-304.744C212,-304.744 1478,-304.744 1478,-304.744 1484,-304.744 1490,-310.744 1490,-316.744 1490,-316.744 1490,-498.487 1490,-498.487 1490,-504.487 1484,-510.487 1478,-510.487 1478,-510.487 212,-510.487 212,-510.487 206,-510.487 200,-504.487 200,-498.487 200,-498.487 200,-316.744 200,-316.744 200,-310.744 206,-304.744 212,-304.744"/>
<text text-anchor="middle" x="845" y="-495.287" font-family="Times,serif" font-size="14.00">Class: ToJSON</text>
</g>
<g id="clust16" class="cluster"><title>cluster_Class_ToJSON_Data_A3Resourcea</title>
<path fill="#c6e2ff" stroke="black" d="M952,-312.744C952,-312.744 1102,-312.744 1102,-312.744 1108,-312.744 1114,-318.744 1114,-324.744 1114,-324.744 1114,-384.135 1114,-384.135 1114,-390.135 1108,-396.135 1102,-396.135 1102,-396.135 952,-396.135 952,-396.135 946,-396.135 940,-390.135 940,-384.135 940,-384.135 940,-324.744 940,-324.744 940,-318.744 946,-312.744 952,-312.744"/>
<text text-anchor="middle" x="1027" y="-380.935" font-family="Times,serif" font-size="14.00">Instance for: (A3Resource a)</text>
</g>
<g id="clust17" class="cluster"><title>cluster_Class_ToJSON_Data_A3UserNoPass</title>
<path fill="#c6e2ff" stroke="black" d="M220,-312.744C220,-312.744 367,-312.744 367,-312.744 373,-312.744 379,-318.744 379,-324.744 379,-324.744 379,-384.135 379,-384.135 379,-390.135 373,-396.135 367,-396.135 367,-396.135 220,-396.135 220,-396.135 214,-396.135 208,-390.135 208,-384.135 208,-384.135 208,-324.744 208,-324.744 208,-318.744 214,-312.744 220,-312.744"/>
<text text-anchor="middle" x="293.5" y="-380.935" font-family="Times,serif" font-size="14.00">Instance for: A3UserNoPass</text>
</g>
<g id="clust18" class="cluster"><title>cluster_Class_ToJSON_Data_A3UserWithPass</title>
<path fill="#c6e2ff" stroke="black" d="M1312,-312.744C1312,-312.744 1470,-312.744 1470,-312.744 1476,-312.744 1482,-318.744 1482,-324.744 1482,-324.744 1482,-384.135 1482,-384.135 1482,-390.135 1476,-396.135 1470,-396.135 1470,-396.135 1312,-396.135 1312,-396.135 1306,-396.135 1300,-390.135 1300,-384.135 1300,-384.135 1300,-324.744 1300,-324.744 1300,-318.744 1306,-312.744 1312,-312.744"/>
<text text-anchor="middle" x="1391" y="-380.935" font-family="Times,serif" font-size="14.00">Instance for: A3UserWithPass</text>
</g>
<g id="clust19" class="cluster"><title>cluster_Class_ToJSON_Data_ActivationRequest</title>
<path fill="#c6e2ff" stroke="black" d="M755,-312.744C755,-312.744 920,-312.744 920,-312.744 926,-312.744 932,-318.744 932,-324.744 932,-324.744 932,-384.135 932,-384.135 932,-390.135 926,-396.135 920,-396.135 920,-396.135 755,-396.135 755,-396.135 749,-396.135 743,-390.135 743,-384.135 743,-384.135 743,-324.744 743,-324.744 743,-318.744 749,-312.744 755,-312.744"/>
<text text-anchor="middle" x="837.5" y="-380.935" font-family="Times,serif" font-size="14.00">Instance for: ActivationRequest</text>
</g>
<g id="clust20" class="cluster"><title>cluster_Class_ToJSON_Data_ContentType</title>
<path fill="#c6e2ff" stroke="black" d="M1134,-312.744C1134,-312.744 1280,-312.744 1280,-312.744 1286,-312.744 1292,-318.744 1292,-324.744 1292,-324.744 1292,-384.135 1292,-384.135 1292,-390.135 1286,-396.135 1280,-396.135 1280,-396.135 1134,-396.135 1134,-396.135 1128,-396.135 1122,-390.135 1122,-384.135 1122,-384.135 1122,-324.744 1122,-324.744 1122,-318.744 1128,-312.744 1134,-312.744"/>
<text text-anchor="middle" x="1207" y="-380.935" font-family="Times,serif" font-size="14.00">Instance for: ContentType</text>
</g>
<g id="clust21" class="cluster"><title>cluster_Class_ToJSON_Data_LoginRequest</title>
<path fill="#c6e2ff" stroke="black" d="M399,-312.744C399,-312.744 545,-312.744 545,-312.744 551,-312.744 557,-318.744 557,-324.744 557,-324.744 557,-384.135 557,-384.135 557,-390.135 551,-396.135 545,-396.135 545,-396.135 399,-396.135 399,-396.135 393,-396.135 387,-390.135 387,-384.135 387,-384.135 387,-324.744 387,-324.744 387,-318.744 393,-312.744 399,-312.744"/>
<text text-anchor="middle" x="472" y="-380.935" font-family="Times,serif" font-size="14.00">Instance for: LoginRequest</text>
</g>
<g id="clust22" class="cluster"><title>cluster_Class_ToJSON_Data_RequestResult</title>
<path fill="#c6e2ff" stroke="black" d="M577,-312.744C577,-312.744 723,-312.744 723,-312.744 729,-312.744 735,-318.744 735,-324.744 735,-324.744 735,-384.135 735,-384.135 735,-390.135 729,-396.135 723,-396.135 723,-396.135 577,-396.135 577,-396.135 571,-396.135 565,-390.135 565,-384.135 565,-384.135 565,-324.744 565,-324.744 565,-318.744 571,-312.744 577,-312.744"/>
<text text-anchor="middle" x="650" y="-380.935" font-family="Times,serif" font-size="14.00">Instance for: RequestResult</text>
</g>
<g id="clust23" class="cluster"><title>cluster_Data_A3Resource</title>
<path fill="papayawhip" stroke="black" d="M2300,-202.067C2300,-202.067 2418,-202.067 2418,-202.067 2424,-202.067 2430,-208.067 2430,-214.067 2430,-214.067 2430,-265.067 2430,-265.067 2430,-271.067 2424,-277.067 2418,-277.067 2418,-277.067 2300,-277.067 2300,-277.067 2294,-277.067 2288,-271.067 2288,-265.067 2288,-265.067 2288,-214.067 2288,-214.067 2288,-208.067 2294,-202.067 2300,-202.067"/>
<text text-anchor="middle" x="2359" y="-261.867" font-family="Times,serif" font-size="14.00">Data: A3Resource</text>
</g>
<g id="clust24" class="cluster"><title>cluster_Data_A3UserNoPass</title>
<path fill="papayawhip" stroke="black" d="M20,-202.067C20,-202.067 180,-202.067 180,-202.067 186,-202.067 192,-208.067 192,-214.067 192,-214.067 192,-379.939 192,-379.939 192,-385.939 186,-391.939 180,-391.939 180,-391.939 20,-391.939 20,-391.939 14,-391.939 8,-385.939 8,-379.939 8,-379.939 8,-214.067 8,-214.067 8,-208.067 14,-202.067 20,-202.067"/>
<text text-anchor="middle" x="100" y="-376.739" font-family="Times,serif" font-size="14.00">Data: A3UserNoPass</text>
</g>
<g id="clust25" class="cluster"><title>cluster_Data_A3UserWithPass</title>
<path fill="papayawhip" stroke="black" d="M3422,-202.067C3422,-202.067 3594,-202.067 3594,-202.067 3600,-202.067 3606,-208.067 3606,-214.067 3606,-214.067 3606,-379.939 3606,-379.939 3606,-385.939 3600,-391.939 3594,-391.939 3594,-391.939 3422,-391.939 3422,-391.939 3416,-391.939 3410,-385.939 3410,-379.939 3410,-379.939 3410,-214.067 3410,-214.067 3410,-208.067 3416,-202.067 3422,-202.067"/>
<text text-anchor="middle" x="3508" y="-376.739" font-family="Times,serif" font-size="14.00">Data: A3UserWithPass</text>
</g>
<g id="clust26" class="cluster"><title>cluster_Data_ActivationRequest</title>
<path fill="papayawhip" stroke="black" d="M2118,-202.067C2118,-202.067 2268,-202.067 2268,-202.067 2274,-202.067 2280,-208.067 2280,-214.067 2280,-214.067 2280,-265.067 2280,-265.067 2280,-271.067 2274,-277.067 2268,-277.067 2268,-277.067 2118,-277.067 2118,-277.067 2112,-277.067 2106,-271.067 2106,-265.067 2106,-265.067 2106,-214.067 2106,-214.067 2106,-208.067 2112,-202.067 2118,-202.067"/>
<text text-anchor="middle" x="2193" y="-261.867" font-family="Times,serif" font-size="14.00">Data: ActivationRequest</text>
</g>
<g id="clust27" class="cluster"><title>cluster_Data_ContentType</title>
<path fill="papayawhip" stroke="black" d="M2172,-8C2172,-8 2268,-8 2268,-8 2274,-8 2280,-14 2280,-20 2280,-20 2280,-71 2280,-71 2280,-77 2274,-83 2268,-83 2268,-83 2172,-83 2172,-83 2166,-83 2160,-77 2160,-71 2160,-71 2160,-20 2160,-20 2160,-14 2166,-8 2172,-8"/>
<text text-anchor="middle" x="2220" y="-67.8" font-family="Times,serif" font-size="14.00">Data: ContentType</text>
</g>
<g id="clust28" class="cluster"><title>cluster_Data_LoginRequest</title>
<path fill="papayawhip" stroke="black" d="M1477,-202.067C1477,-202.067 1767,-202.067 1767,-202.067 1773,-202.067 1779,-208.067 1779,-214.067 1779,-214.067 1779,-265.067 1779,-265.067 1779,-271.067 1773,-277.067 1767,-277.067 1767,-277.067 1477,-277.067 1477,-277.067 1471,-277.067 1465,-271.067 1465,-265.067 1465,-265.067 1465,-214.067 1465,-214.067 1465,-208.067 1471,-202.067 1477,-202.067"/>
<text text-anchor="middle" x="1622" y="-261.867" font-family="Times,serif" font-size="14.00">Data: LoginRequest</text>
</g>
<g id="clust29" class="cluster"><title>cluster_Data_Path</title>
<path fill="papayawhip" stroke="black" d="M2999,-103.196C2999,-103.196 3075,-103.196 3075,-103.196 3081,-103.196 3087,-109.196 3087,-115.196 3087,-115.196 3087,-166.196 3087,-166.196 3087,-172.196 3081,-178.196 3075,-178.196 3075,-178.196 2999,-178.196 2999,-178.196 2993,-178.196 2987,-172.196 2987,-166.196 2987,-166.196 2987,-115.196 2987,-115.196 2987,-109.196 2993,-103.196 2999,-103.196"/>
<text text-anchor="middle" x="3037" y="-162.996" font-family="Times,serif" font-size="14.00">Data: Path</text>
</g>
<g id="clust30" class="cluster"><title>cluster_Data_PropertySheet</title>
<path fill="papayawhip" stroke="black" d="M1246,-8C1246,-8 1592,-8 1592,-8 1598,-8 1604,-14 1604,-20 1604,-20 1604,-71 1604,-71 1604,-77 1598,-83 1592,-83 1592,-83 1246,-83 1246,-83 1240,-83 1234,-77 1234,-71 1234,-71 1234,-20 1234,-20 1234,-14 1240,-8 1246,-8"/>
<text text-anchor="middle" x="1419" y="-67.8" font-family="Times,serif" font-size="14.00">Data: PropertySheet</text>
</g>
<g id="clust31" class="cluster"><title>cluster_Data_RequestResult</title>
<path fill="papayawhip" stroke="black" d="M1799,-202.067C1799,-202.067 2086,-202.067 2086,-202.067 2092,-202.067 2098,-208.067 2098,-214.067 2098,-214.067 2098,-265.067 2098,-265.067 2098,-271.067 2092,-277.067 2086,-277.067 2086,-277.067 1799,-277.067 1799,-277.067 1793,-277.067 1787,-271.067 1787,-265.067 1787,-265.067 1787,-214.067 1787,-214.067 1787,-208.067 1793,-202.067 1799,-202.067"/>
<text text-anchor="middle" x="1942.5" y="-261.867" font-family="Times,serif" font-size="14.00">Data: RequestResult</text>
</g>
<!-- 23 -->
<g id="node1" class="node"><title>23</title>
<polygon fill="bisque" stroke="black" stroke-width="2" points="1902.16,-333.664 1902.16,-352.215 1848.76,-365.332 1773.24,-365.332 1719.84,-352.215 1719.84,-333.664 1773.24,-320.546 1848.76,-320.546 1902.16,-333.664"/>
<text text-anchor="middle" x="1811" y="-339.239" font-family="Times,serif" font-size="14.00">parseJSON</text>
</g>
<!-- 1 -->
<g id="node23" class="node"><title>1</title>
<polygon fill="goldenrod" stroke="black" stroke-width="2" points="2421.5,-246.067 2300.5,-246.067 2296.5,-242.067 2296.5,-210.067 2417.5,-210.067 2421.5,-214.067 2421.5,-246.067"/>
<polyline fill="none" stroke="black" stroke-width="2" points="2417.5,-242.067 2296.5,-242.067 "/>
<polyline fill="none" stroke="black" stroke-width="2" points="2417.5,-242.067 2417.5,-210.067 "/>
<polyline fill="none" stroke="black" stroke-width="2" points="2417.5,-242.067 2421.5,-246.067 "/>
<text text-anchor="middle" x="2359" y="-224.367" font-family="Times,serif" font-size="14.00">A3Resource</text>
</g>
<!-- 23&#45;&gt;1 -->
<g id="edge32" class="edge"><title>23&#45;&gt;1</title>
<path fill="none" stroke="black" d="M1855.75,-322.197C1873.52,-315.312 1894.37,-308.398 1914,-304.744 1954.43,-297.217 2245.78,-311.915 2284,-296.744 2306.21,-287.928 2326.02,-269.325 2339.7,-253.851"/>
<polygon fill="black" stroke="black" points="2342.47,-256.001 2346.27,-246.113 2337.13,-251.469 2342.47,-256.001"/>
</g>
<!-- 24 -->
<g id="node2" class="node"><title>24</title>
<polygon fill="bisque" stroke="black" stroke-width="2" points="1696.16,-333.664 1696.16,-352.215 1642.76,-365.332 1567.24,-365.332 1513.84,-352.215 1513.84,-333.664 1567.24,-320.546 1642.76,-320.546 1696.16,-333.664"/>
<text text-anchor="middle" x="1605" y="-339.239" font-family="Times,serif" font-size="14.00">parseJSON</text>
</g>
<!-- 2 -->
<g id="node24" class="node"><title>2</title>
<polygon fill="goldenrod" stroke="black" stroke-width="2" points="183.5,-246.067 46.5,-246.067 42.5,-242.067 42.5,-210.067 179.5,-210.067 183.5,-214.067 183.5,-246.067"/>
<polyline fill="none" stroke="black" stroke-width="2" points="179.5,-242.067 42.5,-242.067 "/>
<polyline fill="none" stroke="black" stroke-width="2" points="179.5,-242.067 179.5,-210.067 "/>
<polyline fill="none" stroke="black" stroke-width="2" points="179.5,-242.067 183.5,-246.067 "/>
<text text-anchor="middle" x="113" y="-224.367" font-family="Times,serif" font-size="14.00">A3UserNoPass</text>
</g>
<!-- 24&#45;&gt;2 -->
<g id="edge33" class="edge"><title>24&#45;&gt;2</title>
<path fill="none" stroke="black" d="M1555.64,-323.311C1534.5,-316.177 1509.35,-308.788 1486,-304.744 1442.17,-297.154 1330.43,-298.914 1286,-296.744 875.375,-276.687 384.274,-246.265 193.915,-234.229"/>
<polygon fill="black" stroke="black" points="193.917,-230.722 183.716,-233.584 193.475,-237.708 193.917,-230.722"/>
</g>
<!-- 13 -->
<g id="node37" class="node"><title>13</title>
<polygon fill="goldenrod" stroke="black" stroke-width="2" points="1454.5,-246.067 1295.5,-246.067 1295.5,-210.067 1454.5,-210.067 1454.5,-246.067"/>
<text text-anchor="middle" x="1375" y="-224.367" font-family="Times,serif" font-size="14.00">a3UserFromJSON</text>
</g>
<!-- 24&#45;&gt;13 -->
<g id="edge34" class="edge"><title>24&#45;&gt;13</title>
<path fill="none" stroke="black" d="M1550.02,-324.746C1509.58,-312.088 1461.54,-297.026 1461,-296.744 1438.76,-285.012 1416.53,-267.323 1400.25,-252.972"/>
<polygon fill="black" stroke="black" points="1402.53,-250.319 1392.75,-246.236 1397.85,-255.525 1402.53,-250.319"/>
</g>
<!-- 25 -->
<g id="node3" class="node"><title>25</title>
<polygon fill="bisque" stroke="black" stroke-width="2" points="2314.16,-333.664 2314.16,-352.215 2260.76,-365.332 2185.24,-365.332 2131.84,-352.215 2131.84,-333.664 2185.24,-320.546 2260.76,-320.546 2314.16,-333.664"/>
<text text-anchor="middle" x="2223" y="-339.239" font-family="Times,serif" font-size="14.00">parseJSON</text>
</g>
<!-- 3 -->
<g id="node26" class="node"><title>3</title>
<polygon fill="goldenrod" stroke="black" stroke-width="2" points="3572,-246.067 3424,-246.067 3420,-242.067 3420,-210.067 3568,-210.067 3572,-214.067 3572,-246.067"/>
<polyline fill="none" stroke="black" stroke-width="2" points="3568,-242.067 3420,-242.067 "/>
<polyline fill="none" stroke="black" stroke-width="2" points="3568,-242.067 3568,-210.067 "/>
<polyline fill="none" stroke="black" stroke-width="2" points="3568,-242.067 3572,-246.067 "/>
<text text-anchor="middle" x="3496" y="-224.367" font-family="Times,serif" font-size="14.00">A3UserWithPass</text>
</g>
<!-- 25&#45;&gt;3 -->
<g id="edge35" class="edge"><title>25&#45;&gt;3</title>
<path fill="none" stroke="black" d="M2267.47,-322.152C2285.29,-315.215 2306.26,-308.277 2326,-304.744 2383.26,-294.496 3316.72,-311.434 3373,-296.744 3406.61,-287.972 3440.91,-267.996 3464.72,-252.008"/>
<polygon fill="black" stroke="black" points="3466.74,-254.87 3473,-246.326 3462.78,-249.099 3466.74,-254.87"/>
</g>
<!-- 25&#45;&gt;13 -->
<g id="edge36" class="edge"><title>25&#45;&gt;13</title>
<path fill="none" stroke="black" d="M2178.27,-322.099C2160.5,-315.202 2139.64,-308.305 2120,-304.744 2083.97,-298.212 1495.52,-308.934 1461,-296.744 1436.37,-288.046 1413.39,-269.168 1397.39,-253.554"/>
<polygon fill="black" stroke="black" points="1399.64,-250.855 1390.12,-246.211 1394.67,-255.78 1399.64,-250.855"/>
</g>
<!-- 26 -->
<g id="node4" class="node"><title>26</title>
<polygon fill="bisque" stroke="black" stroke-width="2" points="2108.16,-333.664 2108.16,-352.215 2054.76,-365.332 1979.24,-365.332 1925.84,-352.215 1925.84,-333.664 1979.24,-320.546 2054.76,-320.546 2108.16,-333.664"/>
<text text-anchor="middle" x="2017" y="-339.239" font-family="Times,serif" font-size="14.00">parseJSON</text>
</g>
<!-- 49 -->
<g id="node14" class="node"><title>49</title>
<polygon fill="khaki" stroke="black" stroke-dasharray="1,5" points="2731.86,-214.053 2731.86,-242.082 2661.06,-261.902 2560.94,-261.902 2490.14,-242.082 2490.14,-214.053 2560.94,-194.233 2661.06,-194.233 2731.86,-214.053"/>
<polygon fill="none" stroke="black" stroke-dasharray="1,5" points="2735.86,-211 2735.86,-245.135 2661.61,-265.921 2560.39,-265.921 2486.14,-245.135 2486.14,-211 2560.39,-190.214 2661.61,-190.214 2735.86,-211"/>
<text text-anchor="middle" x="2611" y="-231.867" font-family="Times,serif" font-size="14.00">Unknown Module</text>
<text text-anchor="middle" x="2611" y="-216.867" font-family="Times,serif" font-size="14.00">show</text>
</g>
<!-- 26&#45;&gt;49 -->
<g id="edge39" class="edge"><title>26&#45;&gt;49</title>
<path fill="none" stroke="black" d="M2061.75,-322.236C2079.53,-315.356 2100.38,-308.435 2120,-304.744 2188.6,-291.835 2365.53,-310.292 2434,-296.744 2467.78,-290.06 2503.53,-277.528 2533.99,-265.047"/>
<polygon fill="black" stroke="black" points="2535.38,-268.259 2543.26,-261.182 2532.68,-261.798 2535.38,-268.259"/>
</g>
<!-- 4 -->
<g id="node28" class="node"><title>4</title>
<polygon fill="goldenrod" stroke="black" stroke-width="2" points="2272.5,-246.067 2117.5,-246.067 2113.5,-242.067 2113.5,-210.067 2268.5,-210.067 2272.5,-214.067 2272.5,-246.067"/>
<polyline fill="none" stroke="black" stroke-width="2" points="2268.5,-242.067 2113.5,-242.067 "/>
<polyline fill="none" stroke="black" stroke-width="2" points="2268.5,-242.067 2268.5,-210.067 "/>
<polyline fill="none" stroke="black" stroke-width="2" points="2268.5,-242.067 2272.5,-246.067 "/>
<text text-anchor="middle" x="2193" y="-224.367" font-family="Times,serif" font-size="14.00">ActivationRequest</text>
</g>
<!-- 26&#45;&gt;4 -->
<g id="edge37" class="edge"><title>26&#45;&gt;4</title>
<path fill="none" stroke="black" d="M2058.78,-321.323C2072.78,-313.999 2088.3,-305.411 2102,-296.744 2123.45,-283.175 2146.37,-266.111 2163.84,-252.513"/>
<polygon fill="black" stroke="black" points="2166.25,-255.075 2171.95,-246.146 2161.92,-249.569 2166.25,-255.075"/>
</g>
<!-- 10 -->
<g id="node32" class="node"><title>10</title>
<polygon fill="goldenrod" stroke="black" stroke-width="2" points="3078.5,-147.196 2999.5,-147.196 2995.5,-143.196 2995.5,-111.196 3074.5,-111.196 3078.5,-115.196 3078.5,-147.196"/>
<polyline fill="none" stroke="black" stroke-width="2" points="3074.5,-143.196 2995.5,-143.196 "/>
<polyline fill="none" stroke="black" stroke-width="2" points="3074.5,-143.196 3074.5,-111.196 "/>
<polyline fill="none" stroke="black" stroke-width="2" points="3074.5,-143.196 3078.5,-147.196 "/>
<text text-anchor="middle" x="3037" y="-125.496" font-family="Times,serif" font-size="14.00">Path</text>
</g>
<!-- 26&#45;&gt;10 -->
<g id="edge38" class="edge"><title>26&#45;&gt;10</title>
<path fill="none" stroke="black" d="M2061.48,-322.196C2079.3,-315.265 2100.26,-308.32 2120,-304.744 2138.31,-301.425 2775.08,-307.873 2790,-296.744 2829.67,-267.151 2787.54,-224.917 2823,-190.391 2866.41,-148.125 2937.05,-135.06 2985.2,-131.276"/>
<polygon fill="black" stroke="black" points="2985.68,-134.752 2995.42,-130.585 2985.21,-127.768 2985.68,-134.752"/>
</g>
<!-- 27 -->
<g id="node5" class="node"><title>27</title>
<polygon fill="cyan" stroke="black" stroke-width="2" points="2520.16,-333.664 2520.16,-352.215 2466.76,-365.332 2391.24,-365.332 2337.84,-352.215 2337.84,-333.664 2391.24,-320.546 2466.76,-320.546 2520.16,-333.664"/>
<text text-anchor="middle" x="2429" y="-339.239" font-family="Times,serif" font-size="14.00">parseJSON</text>
</g>
<!-- 28 -->
<g id="node6" class="node"><title>28</title>
<polygon fill="bisque" stroke="black" stroke-width="2" points="2726.16,-333.664 2726.16,-352.215 2672.76,-365.332 2597.24,-365.332 2543.84,-352.215 2543.84,-333.664 2597.24,-320.546 2672.76,-320.546 2726.16,-333.664"/>
<text text-anchor="middle" x="2635" y="-339.239" font-family="Times,serif" font-size="14.00">parseJSON</text>
</g>
<!-- 28&#45;&gt;49 -->
<g id="edge42" class="edge"><title>28&#45;&gt;49</title>
<path fill="none" stroke="black" d="M2630.49,-320.709C2627.79,-308.032 2624.26,-291.409 2620.94,-275.805"/>
<polygon fill="black" stroke="black" points="2624.3,-274.804 2618.8,-265.75 2617.46,-276.259 2624.3,-274.804"/>
</g>
<!-- 6 -->
<g id="node30" class="node"><title>6</title>
<polygon fill="goldenrod" stroke="black" stroke-width="2" points="1771,-246.067 1635,-246.067 1631,-242.067 1631,-210.067 1767,-210.067 1771,-214.067 1771,-246.067"/>
<polyline fill="none" stroke="black" stroke-width="2" points="1767,-242.067 1631,-242.067 "/>
<polyline fill="none" stroke="black" stroke-width="2" points="1767,-242.067 1767,-210.067 "/>
<polyline fill="none" stroke="black" stroke-width="2" points="1767,-242.067 1771,-246.067 "/>
<text text-anchor="middle" x="1701" y="-224.367" font-family="Times,serif" font-size="14.00">LoginByEmail</text>
</g>
<!-- 28&#45;&gt;6 -->
<g id="edge40" class="edge"><title>28&#45;&gt;6</title>
<path fill="none" stroke="black" d="M2590.53,-322.183C2572.7,-315.251 2551.74,-308.307 2532,-304.744 2491.05,-297.35 1822.09,-311.026 1783,-296.744 1759.16,-288.033 1737.27,-269.156 1722.12,-253.546"/>
<polygon fill="black" stroke="black" points="1724.63,-251.109 1715.24,-246.204 1719.53,-255.895 1724.63,-251.109"/>
</g>
<!-- 7 -->
<g id="node31" class="node"><title>7</title>
<polygon fill="goldenrod" stroke="black" stroke-width="2" points="1613,-246.067 1477,-246.067 1473,-242.067 1473,-210.067 1609,-210.067 1613,-214.067 1613,-246.067"/>
<polyline fill="none" stroke="black" stroke-width="2" points="1609,-242.067 1473,-242.067 "/>
<polyline fill="none" stroke="black" stroke-width="2" points="1609,-242.067 1609,-210.067 "/>
<polyline fill="none" stroke="black" stroke-width="2" points="1609,-242.067 1613,-246.067 "/>
<text text-anchor="middle" x="1543" y="-224.367" font-family="Times,serif" font-size="14.00">LoginByName</text>
</g>
<!-- 28&#45;&gt;7 -->
<g id="edge41" class="edge"><title>28&#45;&gt;7</title>
<path fill="none" stroke="black" d="M2590.53,-322.164C2572.71,-315.229 2551.74,-308.289 2532,-304.744 2482.24,-295.808 1669.34,-314.486 1622,-296.744 1598.96,-288.108 1578.07,-269.495 1563.56,-253.97"/>
<polygon fill="black" stroke="black" points="1565.87,-251.301 1556.58,-246.203 1560.66,-255.98 1565.87,-251.301"/>
</g>
<!-- 29 -->
<g id="node7" class="node"><title>29</title>
<polygon fill="bisque" stroke="black" stroke-width="2" points="2932.16,-333.664 2932.16,-352.215 2878.76,-365.332 2803.24,-365.332 2749.84,-352.215 2749.84,-333.664 2803.24,-320.546 2878.76,-320.546 2932.16,-333.664"/>
<text text-anchor="middle" x="2841" y="-339.239" font-family="Times,serif" font-size="14.00">parseJSON</text>
</g>
<!-- 11 -->
<g id="node35" class="node"><title>11</title>
<polygon fill="goldenrod" stroke="black" stroke-width="2" points="1926.5,-246.067 1799.5,-246.067 1795.5,-242.067 1795.5,-210.067 1922.5,-210.067 1926.5,-214.067 1926.5,-246.067"/>
<polyline fill="none" stroke="black" stroke-width="2" points="1922.5,-242.067 1795.5,-242.067 "/>
<polyline fill="none" stroke="black" stroke-width="2" points="1922.5,-242.067 1922.5,-210.067 "/>
<polyline fill="none" stroke="black" stroke-width="2" points="1922.5,-242.067 1926.5,-246.067 "/>
<text text-anchor="middle" x="1861" y="-224.367" font-family="Times,serif" font-size="14.00">RequestError</text>
</g>
<!-- 29&#45;&gt;11 -->
<g id="edge43" class="edge"><title>29&#45;&gt;11</title>
<path fill="none" stroke="black" d="M2796.53,-322.176C2778.7,-315.242 2757.74,-308.3 2738,-304.744 2694.09,-296.833 1976.51,-313.1 1935,-296.744 1912.93,-288.047 1893.39,-269.437 1879.94,-253.93"/>
<polygon fill="black" stroke="black" points="1882.57,-251.617 1873.48,-246.172 1877.19,-256.096 1882.57,-251.617"/>
</g>
<!-- 12 -->
<g id="node36" class="node"><title>12</title>
<polygon fill="goldenrod" stroke="black" stroke-width="2" points="2089.5,-246.067 1948.5,-246.067 1944.5,-242.067 1944.5,-210.067 2085.5,-210.067 2089.5,-214.067 2089.5,-246.067"/>
<polyline fill="none" stroke="black" stroke-width="2" points="2085.5,-242.067 1944.5,-242.067 "/>
<polyline fill="none" stroke="black" stroke-width="2" points="2085.5,-242.067 2085.5,-210.067 "/>
<polyline fill="none" stroke="black" stroke-width="2" points="2085.5,-242.067 2089.5,-246.067 "/>
<text text-anchor="middle" x="2017" y="-224.367" font-family="Times,serif" font-size="14.00">RequestSuccess</text>
</g>
<!-- 29&#45;&gt;12 -->
<g id="edge44" class="edge"><title>29&#45;&gt;12</title>
<path fill="none" stroke="black" d="M2796.27,-322.104C2778.5,-315.207 2757.64,-308.309 2738,-304.744 2703.23,-298.433 2135.28,-308.611 2102,-296.744 2077.57,-288.033 2054.86,-269.156 2039.07,-253.546"/>
<polygon fill="black" stroke="black" points="2041.39,-250.912 2031.9,-246.204 2036.39,-255.804 2041.39,-250.912"/>
</g>
<!-- 47 -->
<g id="node8" class="node"><title>47</title>
<polygon fill="khaki" stroke="black" stroke-dasharray="1,5" points="2343.86,-427.796 2343.86,-455.826 2273.06,-475.645 2172.94,-475.645 2102.14,-455.826 2102.14,-427.796 2172.94,-407.977 2273.06,-407.977 2343.86,-427.796"/>
<polygon fill="none" stroke="black" stroke-dasharray="1,5" points="2347.86,-424.744 2347.86,-458.878 2273.61,-479.664 2172.39,-479.664 2098.14,-458.878 2098.14,-424.744 2172.39,-403.958 2273.61,-403.958 2347.86,-424.744"/>
<text text-anchor="middle" x="2223" y="-445.611" font-family="Times,serif" font-size="14.00">Unknown Module</text>
<text text-anchor="middle" x="2223" y="-430.611" font-family="Times,serif" font-size="14.00">parseJSON</text>
</g>
<!-- 47&#45;&gt;23 -->
<g id="edge63" class="edge"><title>47&#45;&gt;23</title>
<path fill="none" stroke="navy" d="M2098.01,-432.063C2040.93,-425.713 1973.05,-414.809 1914,-396.135 1890.3,-388.639 1865.39,-376.159 1846.01,-365.281"/>
</g>
<!-- 47&#45;&gt;24 -->
<g id="edge64" class="edge"><title>47&#45;&gt;24</title>
<path fill="none" stroke="navy" d="M2098.1,-435.438C1969.64,-428.936 1778.66,-416.285 1708,-396.135 1683.71,-389.208 1658.38,-376.456 1638.92,-365.29"/>
</g>
<!-- 47&#45;&gt;25 -->
<g id="edge65" class="edge"><title>47&#45;&gt;25</title>
<path fill="none" stroke="navy" d="M2223,-403.912C2223,-390.865 2223,-376.633 2223,-365.309"/>
</g>
<!-- 47&#45;&gt;26 -->
<g id="edge66" class="edge"><title>47&#45;&gt;26</title>
<path fill="none" stroke="navy" d="M2150.44,-409.988C2140.18,-405.439 2129.79,-400.734 2120,-396.135 2098.95,-386.248 2075.83,-374.604 2056.84,-364.825"/>
</g>
<!-- 47&#45;&gt;27 -->
<g id="edge67" class="edge"><title>47&#45;&gt;27</title>
<path fill="none" stroke="navy" d="M2295.56,-409.988C2305.82,-405.439 2316.21,-400.734 2326,-396.135 2347.05,-386.248 2370.17,-374.604 2389.16,-364.825"/>
</g>
<!-- 47&#45;&gt;28 -->
<g id="edge68" class="edge"><title>47&#45;&gt;28</title>
<path fill="none" stroke="navy" d="M2347.99,-432.063C2405.07,-425.713 2472.95,-414.809 2532,-396.135 2555.7,-388.639 2580.61,-376.159 2599.99,-365.281"/>
</g>
<!-- 47&#45;&gt;29 -->
<g id="edge69" class="edge"><title>47&#45;&gt;29</title>
<path fill="none" stroke="navy" d="M2347.9,-435.438C2476.36,-428.936 2667.34,-416.285 2738,-396.135 2762.29,-389.208 2787.62,-376.456 2807.08,-365.29"/>
</g>
<!-- 31 -->
<g id="node9" class="node"><title>31</title>
<polygon fill="cyan" stroke="black" stroke-width="2" points="3367.91,-547.407 3367.91,-565.958 3318.17,-579.076 3247.83,-579.076 3198.09,-565.958 3198.09,-547.407 3247.83,-534.29 3318.17,-534.29 3367.91,-547.407"/>
<text text-anchor="middle" x="3283" y="-552.983" font-family="Times,serif" font-size="14.00">readsPrec</text>
</g>
<!-- 32 -->
<g id="node10" class="node"><title>32</title>
<polygon fill="cyan" stroke="black" stroke-width="2" points="3561.91,-547.407 3561.91,-565.958 3512.17,-579.076 3441.83,-579.076 3392.09,-565.958 3392.09,-547.407 3441.83,-534.29 3512.17,-534.29 3561.91,-547.407"/>
<text text-anchor="middle" x="3477" y="-552.983" font-family="Times,serif" font-size="14.00">readsPrec</text>
</g>
<!-- 48 -->
<g id="node11" class="node"><title>48</title>
<polygon fill="khaki" stroke="black" stroke-dasharray="1,5" points="3500.86,-641.54 3500.86,-669.569 3430.06,-689.389 3329.94,-689.389 3259.14,-669.569 3259.14,-641.54 3329.94,-621.72 3430.06,-621.72 3500.86,-641.54"/>
<polygon fill="none" stroke="black" stroke-dasharray="1,5" points="3504.86,-638.487 3504.86,-672.622 3430.61,-693.408 3329.39,-693.408 3255.14,-672.622 3255.14,-638.487 3329.39,-617.701 3430.61,-617.701 3504.86,-638.487"/>
<text text-anchor="middle" x="3380" y="-659.355" font-family="Times,serif" font-size="14.00">Unknown Module</text>
<text text-anchor="middle" x="3380" y="-644.355" font-family="Times,serif" font-size="14.00">readsPrec</text>
</g>
<!-- 48&#45;&gt;31 -->
<g id="edge70" class="edge"><title>48&#45;&gt;31</title>
<path fill="none" stroke="navy" d="M3343.05,-617.655C3329.99,-604.609 3315.74,-590.377 3304.4,-579.052"/>
</g>
<!-- 48&#45;&gt;32 -->
<g id="edge71" class="edge"><title>48&#45;&gt;32</title>
<path fill="none" stroke="navy" d="M3416.95,-617.655C3430.01,-604.609 3444.26,-590.377 3455.6,-579.052"/>
</g>
<!-- 35 -->
<g id="node12" class="node"><title>35</title>
<polygon fill="bisque" stroke="black" stroke-width="2" points="2760.67,-119.92 2760.67,-138.471 2721.62,-151.589 2666.38,-151.589 2627.33,-138.471 2627.33,-119.92 2666.38,-106.803 2721.62,-106.803 2760.67,-119.92"/>
<text text-anchor="middle" x="2694" y="-125.496" font-family="Times,serif" font-size="14.00">show</text>
</g>
<!-- 5 -->
<g id="node29" class="node"><title>5</title>
<polygon fill="goldenrod" stroke="black" stroke-width="2" points="2270.5,-52 2173.5,-52 2169.5,-48 2169.5,-16 2266.5,-16 2270.5,-20 2270.5,-52"/>
<polyline fill="none" stroke="black" stroke-width="2" points="2266.5,-48 2169.5,-48 "/>
<polyline fill="none" stroke="black" stroke-width="2" points="2266.5,-48 2266.5,-16 "/>
<polyline fill="none" stroke="black" stroke-width="2" points="2266.5,-48 2270.5,-52 "/>
<text text-anchor="middle" x="2220" y="-30.3" font-family="Times,serif" font-size="14.00">CTUser</text>
</g>
<!-- 35&#45;&gt;5 -->
<g id="edge47" class="edge"><title>35&#45;&gt;5</title>
<path fill="none" stroke="black" d="M2659.11,-109.01C2645.67,-102.366 2629.96,-95.4715 2615,-91 2499.89,-56.5944 2359.42,-43.1034 2280.81,-37.9806"/>
<polygon fill="black" stroke="black" points="2280.8,-34.4733 2270.6,-37.34 2280.36,-41.4596 2280.8,-34.4733"/>
</g>
<!-- 36 -->
<g id="node13" class="node"><title>36</title>
<polygon fill="bisque" stroke="black" stroke-width="2" points="2587.67,-119.92 2587.67,-138.471 2548.62,-151.589 2493.38,-151.589 2454.33,-138.471 2454.33,-119.92 2493.38,-106.803 2548.62,-106.803 2587.67,-119.92"/>
<text text-anchor="middle" x="2521" y="-125.496" font-family="Times,serif" font-size="14.00">show</text>
</g>
<!-- 8 -->
<g id="node33" class="node"><title>8</title>
<polygon fill="goldenrod" stroke="black" stroke-width="2" points="1448,-52 1246,-52 1242,-48 1242,-16 1444,-16 1448,-20 1448,-52"/>
<polyline fill="none" stroke="black" stroke-width="2" points="1444,-48 1242,-48 "/>
<polyline fill="none" stroke="black" stroke-width="2" points="1444,-48 1444,-16 "/>
<polyline fill="none" stroke="black" stroke-width="2" points="1444,-48 1448,-52 "/>
<text text-anchor="middle" x="1345" y="-30.3" font-family="Times,serif" font-size="14.00">PSPasswordAuthentication</text>
</g>
<!-- 36&#45;&gt;8 -->
<g id="edge48" class="edge"><title>36&#45;&gt;8</title>
<path fill="none" stroke="black" d="M2454.23,-123.85C2331.49,-116.023 2061.68,-99.577 1834,-91 1792.13,-89.4228 1497.95,-91.8592 1457,-83 1432.08,-77.6081 1405.79,-66.652 1384.96,-56.5669"/>
<polygon fill="black" stroke="black" points="1386.3,-53.3283 1375.79,-52.0177 1383.19,-59.5985 1386.3,-53.3283"/>
</g>
<!-- 9 -->
<g id="node34" class="node"><title>9</title>
<polygon fill="goldenrod" stroke="black" stroke-width="2" points="1595.5,-52 1470.5,-52 1466.5,-48 1466.5,-16 1591.5,-16 1595.5,-20 1595.5,-52"/>
<polyline fill="none" stroke="black" stroke-width="2" points="1591.5,-48 1466.5,-48 "/>
<polyline fill="none" stroke="black" stroke-width="2" points="1591.5,-48 1591.5,-16 "/>
<polyline fill="none" stroke="black" stroke-width="2" points="1591.5,-48 1595.5,-52 "/>
<text text-anchor="middle" x="1531" y="-30.3" font-family="Times,serif" font-size="14.00">PSUserBasic</text>
</g>
<!-- 36&#45;&gt;9 -->
<g id="edge49" class="edge"><title>36&#45;&gt;9</title>
<path fill="none" stroke="black" d="M2454.12,-121.9C2276.15,-105.146 1791.89,-59.5596 1605.5,-42.0134"/>
<polygon fill="black" stroke="black" points="1605.8,-38.5264 1595.52,-41.0737 1605.15,-45.4956 1605.8,-38.5264"/>
</g>
<!-- 49&#45;&gt;35 -->
<g id="edge72" class="edge"><title>49&#45;&gt;35</title>
<path fill="none" stroke="navy" d="M2642.62,-190.168C2653.79,-177.122 2665.99,-162.89 2675.69,-151.565"/>
</g>
<!-- 49&#45;&gt;36 -->
<g id="edge73" class="edge"><title>49&#45;&gt;36</title>
<path fill="none" stroke="navy" stroke-width="1.69315" d="M2576.72,-190.168C2564.6,-177.122 2551.37,-162.89 2540.85,-151.565"/>
</g>
<!-- 37 -->
<g id="node15" class="node"><title>37</title>
<polygon fill="bisque" stroke="black" stroke-width="2" points="1104.1,-333.664 1104.1,-352.215 1058.94,-365.332 995.062,-365.332 949.895,-352.215 949.895,-333.664 995.062,-320.546 1058.94,-320.546 1104.1,-333.664"/>
<text text-anchor="middle" x="1027" y="-339.239" font-family="Times,serif" font-size="14.00">toJSON</text>
</g>
<!-- 37&#45;&gt;1 -->
<g id="edge50" class="edge"><title>37&#45;&gt;1</title>
<path fill="none" stroke="black" d="M1065.84,-322.249C1081.61,-315.279 1100.26,-308.292 1118,-304.744 1149.76,-298.39 2253.81,-308.471 2284,-296.744 2306.27,-288.092 2326.08,-269.479 2339.74,-253.959"/>
<polygon fill="black" stroke="black" points="2342.52,-256.091 2346.3,-246.194 2337.18,-251.573 2342.52,-256.091"/>
</g>
<!-- 38 -->
<g id="node16" class="node"><title>38</title>
<polygon fill="bisque" stroke="black" stroke-width="2" points="371.105,-333.664 371.105,-352.215 325.938,-365.332 262.062,-365.332 216.895,-352.215 216.895,-333.664 262.062,-320.546 325.938,-320.546 371.105,-333.664"/>
<text text-anchor="middle" x="294" y="-339.239" font-family="Times,serif" font-size="14.00">toJSON</text>
</g>
<!-- 38&#45;&gt;2 -->
<g id="edge51" class="edge"><title>38&#45;&gt;2</title>
<path fill="none" stroke="black" d="M260.379,-320.973C228.794,-301.277 181.663,-271.886 149.249,-251.673"/>
<polygon fill="black" stroke="black" points="150.86,-248.552 140.522,-246.23 147.156,-254.492 150.86,-248.552"/>
</g>
<!-- 14 -->
<g id="node38" class="node"><title>14</title>
<polygon fill="goldenrod" stroke="black" stroke-width="2" points="1253,-147.196 1109,-147.196 1109,-111.196 1253,-111.196 1253,-147.196"/>
<text text-anchor="middle" x="1181" y="-125.496" font-family="Times,serif" font-size="14.00">a3UserToJSON</text>
</g>
<!-- 38&#45;&gt;14 -->
<g id="edge52" class="edge"><title>38&#45;&gt;14</title>
<path fill="none" stroke="black" d="M335.077,-322.949C349.956,-316.56 367.029,-309.782 383,-304.744 638.898,-224.011 952.448,-167.268 1098.64,-143.154"/>
<polygon fill="black" stroke="black" points="1099.57,-146.548 1108.88,-141.474 1098.44,-139.64 1099.57,-146.548"/>
</g>
<!-- 39 -->
<g id="node17" class="node"><title>39</title>
<polygon fill="bisque" stroke="black" stroke-width="2" points="1462.1,-333.664 1462.1,-352.215 1416.94,-365.332 1353.06,-365.332 1307.9,-352.215 1307.9,-333.664 1353.06,-320.546 1416.94,-320.546 1462.1,-333.664"/>
<text text-anchor="middle" x="1385" y="-339.239" font-family="Times,serif" font-size="14.00">toJSON</text>
</g>
<!-- 39&#45;&gt;3 -->
<g id="edge53" class="edge"><title>39&#45;&gt;3</title>
<path fill="none" stroke="black" d="M1429.79,-324.181C1451.26,-316.583 1477.58,-308.586 1502,-304.744 1553.34,-296.667 3322.69,-309.785 3373,-296.744 3406.62,-288.028 3440.92,-268.046 3464.73,-252.041"/>
<polygon fill="black" stroke="black" points="3466.75,-254.901 3473.01,-246.352 3462.78,-249.133 3466.75,-254.901"/>
</g>
<!-- 39&#45;&gt;14 -->
<g id="edge54" class="edge"><title>39&#45;&gt;14</title>
<path fill="none" stroke="black" d="M1334.86,-325.682C1318.08,-318.601 1300.08,-309.053 1286,-296.744 1240.48,-256.958 1207.74,-192.647 1191.85,-156.692"/>
<polygon fill="black" stroke="black" points="1194.99,-155.142 1187.81,-147.346 1188.56,-157.915 1194.99,-155.142"/>
</g>
<!-- 40 -->
<g id="node18" class="node"><title>40</title>
<polygon fill="bisque" stroke="black" stroke-width="2" points="924.105,-333.664 924.105,-352.215 878.938,-365.332 815.062,-365.332 769.895,-352.215 769.895,-333.664 815.062,-320.546 878.938,-320.546 924.105,-333.664"/>
<text text-anchor="middle" x="847" y="-339.239" font-family="Times,serif" font-size="14.00">toJSON</text>
</g>
<!-- 40&#45;&gt;4 -->
<g id="edge55" class="edge"><title>40&#45;&gt;4</title>
<path fill="none" stroke="black" d="M884.946,-322.251C900.359,-315.281 918.607,-308.294 936,-304.744 967.735,-298.265 2071.29,-307.029 2102,-296.744 2127.9,-288.068 2152.46,-268.917 2169.52,-253.193"/>
<polygon fill="black" stroke="black" points="2171.98,-255.688 2176.81,-246.26 2167.15,-250.616 2171.98,-255.688"/>
</g>
<!-- 41 -->
<g id="node19" class="node"><title>41</title>
<polygon fill="bisque" stroke="black" stroke-width="2" points="1284.1,-333.664 1284.1,-352.215 1238.94,-365.332 1175.06,-365.332 1129.9,-352.215 1129.9,-333.664 1175.06,-320.546 1238.94,-320.546 1284.1,-333.664"/>
<text text-anchor="middle" x="1207" y="-339.239" font-family="Times,serif" font-size="14.00">toJSON</text>
</g>
<!-- 41&#45;&gt;49 -->
<g id="edge56" class="edge"><title>41&#45;&gt;49</title>
<path fill="none" stroke="black" d="M1244.95,-322.252C1260.36,-315.283 1278.61,-308.295 1296,-304.744 1357.95,-292.093 2371.87,-308.443 2434,-296.744 2467.99,-290.344 2503.91,-277.788 2534.44,-265.211"/>
<polygon fill="black" stroke="black" points="2535.87,-268.408 2543.74,-261.314 2533.16,-261.953 2535.87,-268.408"/>
</g>
<!-- 42 -->
<g id="node20" class="node"><title>42</title>
<polygon fill="bisque" stroke="black" stroke-width="2" points="549.105,-333.664 549.105,-352.215 503.938,-365.332 440.062,-365.332 394.895,-352.215 394.895,-333.664 440.062,-320.546 503.938,-320.546 549.105,-333.664"/>
<text text-anchor="middle" x="472" y="-339.239" font-family="Times,serif" font-size="14.00">toJSON</text>
</g>
<!-- 42&#45;&gt;6 -->
<g id="edge57" class="edge"><title>42&#45;&gt;6</title>
<path fill="none" stroke="black" d="M509.947,-322.257C525.361,-315.288 543.609,-308.3 561,-304.744 589.876,-298.839 1594.39,-307.069 1622,-296.744 1645.05,-288.123 1665.94,-269.508 1680.44,-253.98"/>
<polygon fill="black" stroke="black" points="1683.34,-255.988 1687.42,-246.21 1678.14,-251.31 1683.34,-255.988"/>
</g>
<!-- 42&#45;&gt;7 -->
<g id="edge58" class="edge"><title>42&#45;&gt;7</title>
<path fill="none" stroke="black" d="M509.95,-322.269C525.363,-315.302 543.611,-308.311 561,-304.744 610.09,-294.671 1416.02,-314.186 1463,-296.744 1486.24,-288.116 1507.4,-269.502 1522.12,-253.975"/>
<polygon fill="black" stroke="black" points="1525.05,-255.954 1529.2,-246.207 1519.88,-251.237 1525.05,-255.954"/>
</g>
<!-- 43 -->
<g id="node21" class="node"><title>43</title>
<polygon fill="bisque" stroke="black" stroke-width="2" points="727.105,-333.664 727.105,-352.215 681.938,-365.332 618.062,-365.332 572.895,-352.215 572.895,-333.664 618.062,-320.546 681.938,-320.546 727.105,-333.664"/>
<text text-anchor="middle" x="650" y="-339.239" font-family="Times,serif" font-size="14.00">toJSON</text>
</g>
<!-- 43&#45;&gt;11 -->
<g id="edge59" class="edge"><title>43&#45;&gt;11</title>
<path fill="none" stroke="black" d="M687.947,-322.258C703.361,-315.289 721.609,-308.301 739,-304.744 767.413,-298.932 1755.87,-306.991 1783,-296.744 1805.85,-288.112 1826.47,-269.498 1840.77,-253.973"/>
<polygon fill="black" stroke="black" points="1843.63,-256.012 1847.64,-246.204 1838.39,-251.373 1843.63,-256.012"/>
</g>
<!-- 43&#45;&gt;12 -->
<g id="edge60" class="edge"><title>43&#45;&gt;12</title>
<path fill="none" stroke="black" d="M687.946,-322.249C703.359,-315.279 721.607,-308.292 739,-304.744 771.552,-298.102 1903.77,-308.084 1935,-296.744 1958.86,-288.08 1980.74,-269.2 1995.89,-253.577"/>
<polygon fill="black" stroke="black" points="1998.49,-255.921 2002.77,-246.228 1993.38,-251.139 1998.49,-255.921"/>
</g>
<!-- 50 -->
<g id="node22" class="node"><title>50</title>
<polygon fill="khaki" stroke="black" stroke-dasharray="1,5" points="967.858,-427.796 967.858,-455.826 897.061,-475.645 796.939,-475.645 726.142,-455.826 726.142,-427.796 796.939,-407.977 897.061,-407.977 967.858,-427.796"/>
<polygon fill="none" stroke="black" stroke-dasharray="1,5" points="971.856,-424.744 971.856,-458.878 897.607,-479.664 796.393,-479.664 722.144,-458.878 722.144,-424.744 796.393,-403.958 897.607,-403.958 971.856,-424.744"/>
<text text-anchor="middle" x="847" y="-445.611" font-family="Times,serif" font-size="14.00">Unknown Module</text>
<text text-anchor="middle" x="847" y="-430.611" font-family="Times,serif" font-size="14.00">toJSON</text>
</g>
<!-- 50&#45;&gt;37 -->
<g id="edge74" class="edge"><title>50&#45;&gt;37</title>
<path fill="none" stroke="navy" d="M913.309,-408.036C920.992,-404.088 928.69,-400.062 936,-396.135 954.611,-386.136 975.04,-374.482 991.819,-364.725"/>
</g>
<!-- 50&#45;&gt;38 -->
<g id="edge75" class="edge"><title>50&#45;&gt;38</title>
<path fill="none" stroke="navy" d="M722.083,-434.858C606.572,-428.254 443.871,-415.848 383,-396.135 361.528,-389.181 339.632,-376.428 322.932,-365.269"/>
</g>
<!-- 50&#45;&gt;39 -->
<g id="edge76" class="edge"><title>50&#45;&gt;39</title>
<path fill="none" stroke="navy" d="M971.879,-434.379C1083.38,-427.545 1237.81,-415.084 1296,-396.135 1317.46,-389.147 1339.36,-376.393 1356.06,-365.243"/>
</g>
<!-- 50&#45;&gt;40 -->
<g id="edge77" class="edge"><title>50&#45;&gt;40</title>
<path fill="none" stroke="navy" d="M847,-403.912C847,-390.865 847,-376.633 847,-365.309"/>
</g>
<!-- 50&#45;&gt;41 -->
<g id="edge78" class="edge"><title>50&#45;&gt;41</title>
<path fill="none" stroke="navy" d="M971.858,-429.953C1018.66,-423.377 1071.7,-412.873 1118,-396.135 1138.89,-388.583 1160.42,-376.101 1177.08,-365.237"/>
</g>
<!-- 50&#45;&gt;42 -->
<g id="edge79" class="edge"><title>50&#45;&gt;42</title>
<path fill="none" stroke="navy" stroke-width="1.69315" d="M722.014,-431.566C671.009,-425.173 612.12,-414.372 561,-396.135 540.08,-388.671 518.545,-376.192 501.899,-365.307"/>
</g>
<!-- 50&#45;&gt;43 -->
<g id="edge80" class="edge"><title>50&#45;&gt;43</title>
<path fill="none" stroke="navy" stroke-width="1.69315" d="M771.164,-411C760.261,-406.265 749.266,-401.238 739,-396.135 720.233,-386.806 700.03,-375.102 683.624,-365.142"/>
</g>
<!-- 20 -->
<g id="node25" class="node"><title>20</title>
<polygon fill="gold" stroke="black" stroke-width="2" points="184,-360.939 16,-360.939 16,-356.939 12,-356.939 12,-352.939 16,-352.939 16,-332.939 12,-332.939 12,-328.939 16,-328.939 16,-324.939 184,-324.939 184,-360.939"/>
<polyline fill="none" stroke="black" stroke-width="2" points="16,-356.939 20,-356.939 20,-352.939 16,-352.939 "/>
<polyline fill="none" stroke="black" stroke-width="2" points="16,-332.939 20,-332.939 20,-328.939 16,-328.939 "/>
<text text-anchor="middle" x="100" y="-339.239" font-family="Times,serif" font-size="14.00">fromA3UserNoPass</text>
</g>
<!-- 20&#45;&gt;2 -->
<g id="edge25" class="edge"><title>20&#45;&gt;2</title>
<path fill="none" stroke="magenta" d="M101.974,-324.796C104.065,-306.648 107.395,-277.737 109.848,-256.431"/>
<polygon fill="magenta" stroke="magenta" points="111.007,-246.372 114.333,-256.821 110.435,-251.339 109.863,-256.306 109.863,-256.306 109.863,-256.306 110.435,-251.339 105.392,-255.791 111.007,-246.372 111.007,-246.372"/>
</g>
<!-- 21 -->
<g id="node27" class="node"><title>21</title>
<polygon fill="gold" stroke="black" stroke-width="2" points="3597.5,-360.939 3418.5,-360.939 3418.5,-356.939 3414.5,-356.939 3414.5,-352.939 3418.5,-352.939 3418.5,-332.939 3414.5,-332.939 3414.5,-328.939 3418.5,-328.939 3418.5,-324.939 3597.5,-324.939 3597.5,-360.939"/>
<polyline fill="none" stroke="black" stroke-width="2" points="3418.5,-356.939 3422.5,-356.939 3422.5,-352.939 3418.5,-352.939 "/>
<polyline fill="none" stroke="black" stroke-width="2" points="3418.5,-332.939 3422.5,-332.939 3422.5,-328.939 3418.5,-328.939 "/>
<text text-anchor="middle" x="3508" y="-339.239" font-family="Times,serif" font-size="14.00">fromA3UserWithPass</text>
</g>
<!-- 21&#45;&gt;3 -->
<g id="edge26" class="edge"><title>21&#45;&gt;3</title>
<path fill="none" stroke="magenta" d="M3506.18,-324.796C3504.25,-306.648 3501.17,-277.737 3498.91,-256.431"/>
<polygon fill="magenta" stroke="magenta" points="3497.84,-246.372 3503.37,-255.84 3498.37,-251.344 3498.9,-256.316 3498.9,-256.316 3498.9,-256.316 3498.37,-251.344 3494.42,-256.791 3497.84,-246.372 3497.84,-246.372"/>
</g>
<!-- 13&#45;&gt;49 -->
<g id="edge7" class="edge"><title>13&#45;&gt;49</title>
<path fill="none" stroke="black" stroke-width="2.38629" d="M1389.77,-246.392C1406.71,-265.496 1436.48,-293.631 1470,-300.744 1495.95,-306.251 2398.93,-305.656 2425,-300.744 2462.06,-293.761 2501.2,-279.594 2533.97,-265.606"/>
<polygon fill="black" stroke="black" stroke-width="2.38629" points="2535.7,-268.67 2543.47,-261.477 2532.91,-262.25 2535.7,-268.67"/>
</g>
<!-- 13&#45;&gt;5 -->
<g id="edge1" class="edge"><title>13&#45;&gt;5</title>
<path fill="none" stroke="black" d="M1421.85,-210.035C1436.56,-203.082 1452.06,-193.918 1464,-182.391 1497.31,-150.237 1475.14,-116.167 1514,-91 1515.69,-89.905 1988.4,-53.0229 2159.28,-39.7223"/>
<polygon fill="black" stroke="black" points="2159.67,-43.2026 2169.37,-38.9372 2159.12,-36.2237 2159.67,-43.2026"/>
</g>
<!-- 13&#45;&gt;8 -->
<g id="edge2" class="edge"><title>13&#45;&gt;8</title>
<path fill="none" stroke="black" d="M1386.7,-210.064C1391.52,-202.049 1396.55,-192.125 1399,-182.391 1408.91,-143.001 1414.2,-128.666 1399,-91 1394.14,-78.9648 1385.32,-68.0745 1376.2,-59.1652"/>
<polygon fill="black" stroke="black" points="1378.29,-56.3315 1368.55,-52.1658 1373.56,-61.4972 1378.29,-56.3315"/>
</g>
<!-- 13&#45;&gt;9 -->
<g id="edge3" class="edge"><title>13&#45;&gt;9</title>
<path fill="none" stroke="black" stroke-width="1.69315" d="M1392.85,-209.852C1400.86,-201.795 1410.24,-191.896 1418,-182.391 1449.21,-144.183 1450.51,-129.785 1481,-91 1489.31,-80.4331 1499.03,-69.2922 1507.69,-59.7546"/>
<polygon fill="black" stroke="black" stroke-width="1.69315" points="1510.47,-61.9015 1514.66,-52.1678 1505.31,-57.1677 1510.47,-61.9015"/>
</g>
<!-- 19 -->
<g id="node43" class="node"><title>19</title>
<polygon fill="goldenrod" stroke="black" stroke-width="2" points="1390.5,-147.196 1271.5,-147.196 1271.5,-111.196 1390.5,-111.196 1390.5,-147.196"/>
<text text-anchor="middle" x="1331" y="-125.496" font-family="Times,serif" font-size="14.00">emailValid</text>
</g>
<!-- 13&#45;&gt;19 -->
<g id="edge4" class="edge"><title>13&#45;&gt;19</title>
<path fill="none" stroke="black" d="M1367.13,-209.749C1360.44,-195.009 1350.72,-173.602 1343.04,-156.707"/>
<polygon fill="black" stroke="black" points="1346.12,-155.022 1338.8,-147.364 1339.75,-157.917 1346.12,-155.022"/>
</g>
<!-- 30 -->
<g id="node45" class="node"><title>30</title>
<polygon fill="goldenrod" stroke="black" stroke-width="2" points="1663,-147.196 1523,-147.196 1523,-111.196 1663,-111.196 1663,-147.196"/>
<text text-anchor="middle" x="1593" y="-125.496" font-family="Times,serif" font-size="14.00">passwordGood</text>
</g>
<!-- 13&#45;&gt;30 -->
<g id="edge5" class="edge"><title>13&#45;&gt;30</title>
<path fill="none" stroke="black" d="M1409.87,-209.958C1425.24,-203.008 1443.71,-195.442 1461,-190.391 1481.76,-184.329 1488.76,-190.022 1509,-182.391 1527.8,-175.302 1546.97,-163.786 1562.24,-153.373"/>
<polygon fill="black" stroke="black" points="1564.56,-156.016 1570.74,-147.411 1560.55,-150.284 1564.56,-156.016"/>
</g>
<!-- 46 -->
<g id="node50" class="node"><title>46</title>
<polygon fill="goldenrod" stroke="black" stroke-width="2" points="1825,-147.196 1681,-147.196 1681,-111.196 1825,-111.196 1825,-147.196"/>
<text text-anchor="middle" x="1753" y="-125.496" font-family="Times,serif" font-size="14.00">userNameValid</text>
</g>
<!-- 13&#45;&gt;46 -->
<g id="edge6" class="edge"><title>13&#45;&gt;46</title>
<path fill="none" stroke="black" d="M1407.14,-210.045C1422.91,-202.563 1442.47,-194.545 1461,-190.391 1506.79,-180.128 1627.25,-196.489 1672,-182.391 1691.21,-176.341 1710.26,-164.44 1725.06,-153.528"/>
<polygon fill="black" stroke="black" points="1727.43,-156.123 1733.25,-147.27 1723.18,-150.561 1727.43,-156.123"/>
</g>
<!-- 14&#45;&gt;5 -->
<g id="edge8" class="edge"><title>14&#45;&gt;5</title>
<path fill="none" stroke="black" d="M1210.73,-111.002C1225.61,-103.329 1244.21,-95.1059 1262,-91 1299.47,-82.353 1569.59,-84.9486 1608,-83 1810.1,-72.7458 2049.08,-51.297 2159.05,-40.9007"/>
<polygon fill="black" stroke="black" points="2159.66,-44.3587 2169.28,-39.9298 2159,-37.39 2159.66,-44.3587"/>
</g>
<!-- 14&#45;&gt;8 -->
<g id="edge9" class="edge"><title>14&#45;&gt;8</title>
<path fill="none" stroke="black" d="M1211.08,-111.102C1237.7,-95.9762 1276.71,-73.8042 1305.78,-57.2897"/>
<polygon fill="black" stroke="black" points="1307.87,-60.1264 1314.83,-52.1427 1304.41,-54.0404 1307.87,-60.1264"/>
</g>
<!-- 14&#45;&gt;9 -->
<g id="edge10" class="edge"><title>14&#45;&gt;9</title>
<path fill="none" stroke="black" d="M1210.76,-111.141C1225.65,-103.501 1244.25,-95.2648 1262,-91 1304.17,-80.8703 1415.67,-96.1565 1457,-83 1473.52,-77.7413 1489.9,-67.7474 1503.03,-58.2345"/>
<polygon fill="black" stroke="black" points="1505.28,-60.9208 1511.16,-52.1072 1501.07,-55.3304 1505.28,-60.9208"/>
</g>
<!-- 15 -->
<g id="node39" class="node"><title>15</title>
<polygon fill="goldenrod" stroke="black" stroke-width="2" points="3161.5,-360.939 3060.5,-360.939 3060.5,-324.939 3161.5,-324.939 3161.5,-360.939"/>
<text text-anchor="middle" x="3111" y="-339.239" font-family="Times,serif" font-size="14.00">activate</text>
</g>
<!-- 15&#45;&gt;4 -->
<g id="edge11" class="edge"><title>15&#45;&gt;4</title>
<path fill="none" stroke="black" stroke-width="1.69315" d="M3089.87,-324.878C3078.96,-317.135 3065.01,-308.812 3051,-304.744 3010.08,-292.857 2324.38,-310.348 2284,-296.744 2258.11,-288.022 2233.55,-268.874 2216.49,-253.164"/>
<polygon fill="black" stroke="black" stroke-width="1.69315" points="2218.86,-250.588 2209.2,-246.238 2214.04,-255.663 2218.86,-250.588"/>
</g>
<!-- 15&#45;&gt;12 -->
<g id="edge12" class="edge"><title>15&#45;&gt;12</title>
<path fill="none" stroke="black" d="M3089.88,-324.866C3078.96,-317.12 3065.01,-308.798 3051,-304.744 3000.35,-290.088 2151.7,-314.347 2102,-296.744 2077.55,-288.084 2054.84,-269.203 2039.06,-253.579"/>
<polygon fill="black" stroke="black" points="2041.38,-250.944 2031.89,-246.229 2036.37,-255.832 2041.38,-250.944"/>
</g>
<!-- 18 -->
<g id="node42" class="node"><title>18</title>
<polygon fill="goldenrod" stroke="black" stroke-width="2" points="3050,-246.067 2832,-246.067 2832,-210.067 3050,-210.067 3050,-246.067"/>
<text text-anchor="middle" x="2941" y="-224.367" font-family="Times,serif" font-size="14.00">confirmationTokenFromPath</text>
</g>
<!-- 15&#45;&gt;18 -->
<g id="edge13" class="edge"><title>15&#45;&gt;18</title>
<path fill="none" stroke="black" d="M3085.18,-324.796C3055.89,-305.348 3007.98,-273.542 2975.51,-251.978"/>
<polygon fill="black" stroke="black" points="2977.05,-248.802 2966.78,-246.186 2973.18,-254.633 2977.05,-248.802"/>
</g>
<!-- 45 -->
<g id="node49" class="node"><title>45</title>
<polygon fill="goldenrod" stroke="black" stroke-width="2" points="3199.5,-246.067 3068.5,-246.067 3068.5,-210.067 3199.5,-210.067 3199.5,-246.067"/>
<text text-anchor="middle" x="3134" y="-224.367" font-family="Times,serif" font-size="14.00">userIdToPath</text>
</g>
<!-- 15&#45;&gt;45 -->
<g id="edge14" class="edge"><title>15&#45;&gt;45</title>
<path fill="none" stroke="black" d="M3114.49,-324.796C3118.19,-306.648 3124.08,-277.737 3128.42,-256.431"/>
<polygon fill="black" stroke="black" points="3131.91,-256.869 3130.47,-246.372 3125.05,-255.471 3131.91,-256.869"/>
</g>
<!-- 16 -->
<g id="node40" class="node"><title>16</title>
<polygon fill="goldenrod" stroke="black" stroke-width="2" points="3284,-360.939 3180,-360.939 3180,-324.939 3284,-324.939 3284,-360.939"/>
<text text-anchor="middle" x="3232" y="-339.239" font-family="Times,serif" font-size="14.00">addUser</text>
</g>
<!-- 16&#45;&gt;49 -->
<g id="edge20" class="edge"><title>16&#45;&gt;49</title>
<path fill="none" stroke="black" d="M3209.78,-324.756C3198.51,-317.086 3184.23,-308.861 3170,-304.744 3132.95,-294.022 2861.04,-303.117 2823,-296.744 2780.32,-289.592 2734.4,-275.743 2696.25,-262.426"/>
<polygon fill="black" stroke="black" points="2697.32,-259.092 2686.73,-259.056 2694.99,-265.691 2697.32,-259.092"/>
</g>
<!-- 16&#45;&gt;1 -->
<g id="edge15" class="edge"><title>16&#45;&gt;1</title>
<path fill="none" stroke="black" d="M3210.09,-324.876C3198.78,-317.132 3184.37,-308.809 3170,-304.744 3130.65,-293.615 2472.09,-311.625 2434,-296.744 2411.74,-288.047 2391.93,-269.437 2378.27,-253.93"/>
<polygon fill="black" stroke="black" points="2380.84,-251.545 2371.7,-246.172 2375.49,-256.067 2380.84,-251.545"/>
</g>
<!-- 16&#45;&gt;2 -->
<g id="edge16" class="edge"><title>16&#45;&gt;2</title>
<path fill="none" stroke="black" d="M3210.1,-324.835C3198.8,-317.081 3184.39,-308.761 3170,-304.744 3144.8,-297.706 1312.15,-297.553 1286,-296.744 875.083,-284.026 384.15,-249.387 193.875,-235.226"/>
<polygon fill="black" stroke="black" points="193.913,-231.719 183.681,-234.465 193.392,-238.699 193.913,-231.719"/>
</g>
<!-- 16&#45;&gt;3 -->
<g id="edge17" class="edge"><title>16&#45;&gt;3</title>
<path fill="none" stroke="black" stroke-width="1.69315" d="M3284.1,-333.911C3319.67,-327.128 3367.21,-315.456 3406,-296.744 3429.45,-285.43 3452.87,-267.567 3469.93,-253.034"/>
<polygon fill="black" stroke="black" stroke-width="1.69315" points="3472.53,-255.416 3477.77,-246.21 3467.93,-250.136 3472.53,-255.416"/>
</g>
<!-- 16&#45;&gt;5 -->
<g id="edge18" class="edge"><title>16&#45;&gt;5</title>
<path fill="none" stroke="black" d="M3284.06,-339.841C3315.3,-335.566 3352.77,-324.467 3373,-296.744 3400.86,-258.558 3400.31,-228.972 3373,-190.391 3296.22,-81.9246 3221.2,-117.601 3091,-91 2935.6,-59.251 2451.89,-41.979 2280.75,-36.7383"/>
<polygon fill="black" stroke="black" points="2280.76,-33.237 2270.66,-36.4321 2280.55,-40.2338 2280.76,-33.237"/>
</g>
<!-- 16&#45;&gt;45 -->
<g id="edge19" class="edge"><title>16&#45;&gt;45</title>
<path fill="none" stroke="black" d="M3217.12,-324.796C3200.78,-305.985 3174.41,-275.61 3155.76,-254.127"/>
<polygon fill="black" stroke="black" points="3158.22,-251.628 3149.02,-246.372 3152.94,-256.217 3158.22,-251.628"/>
</g>
<!-- 17 -->
<g id="node41" class="node"><title>17</title>
<polygon fill="goldenrod" stroke="black" stroke-width="2" points="3150,-459.811 3072,-459.811 3072,-423.811 3150,-423.811 3150,-459.811"/>
<text text-anchor="middle" x="3111" y="-438.111" font-family="Times,serif" font-size="14.00">app</text>
</g>
<!-- 17&#45;&gt;15 -->
<g id="edge21" class="edge"><title>17&#45;&gt;15</title>
<path fill="none" stroke="black" d="M3111,-423.492C3111,-409.028 3111,-388.144 3111,-371.402"/>
<polygon fill="black" stroke="black" points="3114.5,-371.108 3111,-361.108 3107.5,-371.108 3114.5,-371.108"/>
</g>
<!-- 17&#45;&gt;16 -->
<g id="edge22" class="edge"><title>17&#45;&gt;16</title>
<path fill="none" stroke="black" d="M3134.19,-423.686C3145.15,-415.481 3158.35,-405.436 3170,-396.135 3181.39,-387.038 3193.71,-376.757 3204.35,-367.739"/>
<polygon fill="black" stroke="black" points="3206.77,-370.277 3212.11,-361.13 3202.23,-364.948 3206.77,-370.277"/>
</g>
<!-- 22 -->
<g id="node44" class="node"><title>22</title>
<polygon fill="goldenrod" stroke="black" stroke-width="2" points="3042,-360.939 2956,-360.939 2956,-324.939 3042,-324.939 3042,-360.939"/>
<text text-anchor="middle" x="2999" y="-339.239" font-family="Times,serif" font-size="14.00">login</text>
</g>
<!-- 17&#45;&gt;22 -->
<g id="edge23" class="edge"><title>17&#45;&gt;22</title>
<path fill="none" stroke="black" stroke-width="1.69315" d="M3086.43,-423.768C3075.31,-415.746 3062.19,-405.826 3051,-396.135 3041.03,-387.5 3030.65,-377.352 3021.82,-368.311"/>
<polygon fill="black" stroke="black" stroke-width="1.69315" points="3024.26,-365.803 3014.8,-361.035 3019.22,-370.662 3024.26,-365.803"/>
</g>
<!-- 18&#45;&gt;10 -->
<g id="edge24" class="edge"><title>18&#45;&gt;10</title>
<path fill="none" stroke="black" d="M2958.16,-209.749C2973.32,-194.458 2995.58,-171.992 3012.59,-154.831"/>
<polygon fill="black" stroke="black" points="3015.43,-156.931 3019.99,-147.364 3010.46,-152.004 3015.43,-156.931"/>
</g>
<!-- 22&#45;&gt;49 -->
<g id="edge31" class="edge"><title>22&#45;&gt;49</title>
<path fill="none" stroke="black" d="M2979.25,-324.819C2969.34,-317.263 2956.76,-309.118 2944,-304.744 2893.02,-287.263 2875.95,-306.79 2823,-296.744 2780.83,-288.743 2735.34,-274.943 2697.35,-261.883"/>
<polygon fill="black" stroke="black" points="2698.46,-258.561 2687.86,-258.582 2696.16,-265.173 2698.46,-258.561"/>
</g>
<!-- 22&#45;&gt;6 -->
<g id="edge27" class="edge"><title>22&#45;&gt;6</title>
<path fill="none" stroke="black" d="M2979.86,-324.875C2969.91,-317.13 2957.1,-308.807 2944,-304.744 2882.39,-285.635 1843.63,-318.766 1783,-296.744 1759.14,-288.078 1737.26,-269.197 1722.11,-253.575"/>
<polygon fill="black" stroke="black" points="1724.62,-251.138 1715.23,-246.227 1719.51,-255.92 1724.62,-251.138"/>
</g>
<!-- 22&#45;&gt;7 -->
<g id="edge28" class="edge"><title>22&#45;&gt;7</title>
<path fill="none" stroke="black" d="M2979.86,-324.87C2969.91,-317.124 2957.1,-308.802 2944,-304.744 2908.92,-293.879 1656.4,-309.584 1622,-296.744 1598.95,-288.14 1578.05,-269.524 1563.55,-253.991"/>
<polygon fill="black" stroke="black" points="1565.86,-251.321 1556.58,-246.218 1560.65,-255.998 1565.86,-251.321"/>
</g>
<!-- 22&#45;&gt;12 -->
<g id="edge29" class="edge"><title>22&#45;&gt;12</title>
<path fill="none" stroke="black" d="M2979.86,-324.889C2969.9,-317.149 2957.1,-308.824 2944,-304.744 2899.34,-290.827 2146.09,-312.386 2102,-296.744 2077.56,-288.071 2054.85,-269.191 2039.06,-253.57"/>
<polygon fill="black" stroke="black" points="2041.38,-250.936 2031.89,-246.223 2036.37,-255.824 2041.38,-250.936"/>
</g>
<!-- 22&#45;&gt;45 -->
<g id="edge30" class="edge"><title>22&#45;&gt;45</title>
<path fill="none" stroke="black" d="M3022.74,-324.811C3033.92,-316.553 3047.33,-306.371 3059,-296.744 3075.89,-282.805 3094.15,-266.362 3108.42,-253.174"/>
<polygon fill="black" stroke="black" points="3110.96,-255.59 3115.91,-246.219 3106.2,-250.462 3110.96,-255.59"/>
</g>
<!-- 33 -->
<g id="node46" class="node"><title>33</title>
<polygon fill="gold" stroke="black" stroke-width="2" points="3173,-673.555 3049,-673.555 3049,-637.555 3173,-637.555 3173,-673.555"/>
<text text-anchor="middle" x="3111" y="-651.855" font-family="Times,serif" font-size="14.00">runBackend</text>
</g>
<!-- 34 -->
<g id="node47" class="node"><title>34</title>
<polygon fill="goldenrod" stroke="black" stroke-width="2" points="3164.5,-574.683 3057.5,-574.683 3057.5,-538.683 3164.5,-538.683 3164.5,-574.683"/>
<text text-anchor="middle" x="3111" y="-552.983" font-family="Times,serif" font-size="14.00">serveApi</text>
</g>
<!-- 33&#45;&gt;34 -->
<g id="edge45" class="edge"><title>33&#45;&gt;34</title>
<path fill="none" stroke="chartreuse" d="M3111,-637.236C3111,-622.772 3111,-601.887 3111,-585.146"/>
<polygon fill="chartreuse" stroke="chartreuse" points="3114.5,-584.852 3111,-574.852 3107.5,-584.852 3114.5,-584.852"/>
</g>
<!-- 34&#45;&gt;17 -->
<g id="edge46" class="edge"><title>34&#45;&gt;17</title>
<path fill="none" stroke="chartreuse" d="M3111,-538.54C3111,-520.391 3111,-491.48 3111,-470.174"/>
<polygon fill="chartreuse" stroke="chartreuse" points="3114.5,-470.115 3111,-460.115 3107.5,-470.115 3114.5,-470.115"/>
</g>
<!-- 44 -->
<g id="node48" class="node"><title>44</title>
<polygon fill="gold" stroke="black" stroke-width="2" points="3364,-246.067 3218,-246.067 3218,-210.067 3364,-210.067 3364,-246.067"/>
<text text-anchor="middle" x="3291" y="-224.367" font-family="Times,serif" font-size="14.00">userIdFromPath</text>
</g>
<!-- 44&#45;&gt;10 -->
<g id="edge61" class="edge"><title>44&#45;&gt;10</title>
<path fill="none" stroke="black" d="M3254.07,-210.016C3239.79,-203.612 3223.23,-196.427 3208,-190.391 3168.32,-174.668 3122.69,-158.711 3088.56,-147.18"/>
<polygon fill="black" stroke="black" points="3089.39,-143.769 3078.8,-143.899 3087.16,-150.404 3089.39,-143.769"/>
</g>
<!-- 45&#45;&gt;10 -->
<g id="edge62" class="edge"><title>45&#45;&gt;10</title>
<path fill="none" stroke="black" d="M3116.66,-209.749C3101.35,-194.458 3078.85,-171.992 3061.67,-154.831"/>
<polygon fill="black" stroke="black" points="3063.74,-151.954 3054.19,-147.364 3058.79,-156.907 3063.74,-151.954"/>
</g>
</g>
</svg>
