<?xml version="1.0" encoding="UTF-8" standalone="no"?>
<!DOCTYPE svg PUBLIC "-//W3C//DTD SVG 1.1//EN"
 "http://www.w3.org/Graphics/SVG/1.1/DTD/svg11.dtd">
<!-- Generated by graphviz version 2.38.0 (20140413.2041)
 -->
<!-- Title: Levels within Thentos.DB.Core Pages: 1 -->
<svg width="2292pt" height="318pt"
 viewBox="0.00 0.00 2292.00 318.00" xmlns="http://www.w3.org/2000/svg" xmlns:xlink="http://www.w3.org/1999/xlink">
<g id="graph0" class="graph" transform="scale(1 1) rotate(0) translate(4 314)">
<title>Levels within Thentos.DB.Core</title>
<polygon fill="white" stroke="none" points="-4,4 -4,-314 2288,-314 2288,4 -4,4"/>
<g id="clust1" class="cluster"><title>cluster_0</title>
<polygon fill="lavender" stroke="black" points="8,-8 8,-302 2108,-302 2108,-8 8,-8"/>
<text text-anchor="middle" x="1058" y="-286.8" font-family="Times,serif" font-size="14.00">Exported root entities</text>
</g>
<g id="clust2" class="cluster"><title>cluster_1</title>
<polygon fill="lavender" stroke="black" points="2116,-152 2116,-227 2276,-227 2276,-152 2116,-152"/>
<text text-anchor="middle" x="2196" y="-211.8" font-family="Times,serif" font-size="14.00">Level = 1</text>
</g>
<!-- 1 -->
<g id="node1" class="node"><title>1</title>
<polygon fill="goldenrod" stroke="black" stroke-width="2" points="914.5,-52 823.5,-52 823.5,-16 914.5,-16 914.5,-52"/>
<text text-anchor="middle" x="869" y="-30.3" font-family="Times,serif" font-size="14.00">=%%</text>
</g>
<!-- 2 -->
<g id="node2" class="node"><title>2</title>
<polygon fill="goldenrod" stroke="black" stroke-width="2" points="803,-124 667,-124 663,-120 663,-88 799,-88 803,-92 803,-124"/>
<polyline fill="none" stroke="black" stroke-width="2" points="799,-120 663,-120 "/>
<polyline fill="none" stroke="black" stroke-width="2" points="799,-120 799,-88 "/>
<polyline fill="none" stroke="black" stroke-width="2" points="799,-120 803,-124 "/>
<text text-anchor="middle" x="733" y="-102.3" font-family="Times,serif" font-size="14.00">Data: TLMode</text>
</g>
<!-- 5 -->
<g id="node3" class="node"><title>5</title>
<polygon fill="gold" stroke="black" stroke-width="2" points="2100,-271 1918,-271 1918,-235 2100,-235 2100,-271"/>
<text text-anchor="middle" x="2009" y="-249.3" font-family="Times,serif" font-size="14.00">createCheckpointLoop</text>
</g>
<!-- 6 -->
<g id="node4" class="node"><title>6</title>
<polygon fill="gold" stroke="black" stroke-width="2" points="1900,-271 1748,-271 1748,-235 1900,-235 1900,-271"/>
<text text-anchor="middle" x="1824" y="-249.3" font-family="Times,serif" font-size="14.00">liftThentosQuery</text>
</g>
<!-- 7 -->
<g id="node5" class="node"><title>7</title>
<polygon fill="goldenrod" stroke="black" stroke-width="2" points="906.5,-196 743.5,-196 743.5,-160 906.5,-160 906.5,-196"/>
<text text-anchor="middle" x="825" y="-174.3" font-family="Times,serif" font-size="14.00">makeThentosLabel</text>
</g>
<!-- 7&#45;&gt;1 -->
<g id="edge1" class="edge"><title>7&#45;&gt;1</title>
<path fill="none" stroke="black" stroke-width="1.69315" d="M824.643,-159.753C824.785,-141.435 826.521,-111.884 835,-88 838.42,-78.366 843.879,-68.6981 849.43,-60.3067"/>
<polygon fill="black" stroke="black" stroke-width="1.69315" points="852.318,-62.2837 855.167,-52.079 846.576,-58.28 852.318,-62.2837"/>
</g>
<!-- 7&#45;&gt;2 -->
<g id="edge2" class="edge"><title>7&#45;&gt;2</title>
<path fill="none" stroke="black" stroke-width="1.69315" d="M802.258,-159.697C790.56,-150.796 776.139,-139.823 763.49,-130.199"/>
<polygon fill="black" stroke="black" stroke-width="1.69315" points="765.558,-127.374 755.48,-124.104 761.319,-132.945 765.558,-127.374"/>
</g>
<!-- 18 -->
<g id="node16" class="node"><title>18</title>
<polygon fill="goldenrod" stroke="black" stroke-width="2" points="981.5,-124 844.5,-124 844.5,-88 981.5,-88 981.5,-124"/>
<text text-anchor="middle" x="913" y="-102.3" font-family="Times,serif" font-size="14.00">thentosDenied</text>
</g>
<!-- 7&#45;&gt;18 -->
<g id="edge3" class="edge"><title>7&#45;&gt;18</title>
<path fill="none" stroke="black" d="M846.753,-159.697C857.836,-150.881 871.474,-140.032 883.49,-130.474"/>
<polygon fill="black" stroke="black" points="885.85,-133.069 891.497,-124.104 881.493,-127.59 885.85,-133.069"/>
</g>
<!-- 8 -->
<g id="node6" class="node"><title>8</title>
<polygon fill="gold" stroke="black" stroke-width="2" points="1380,-271 1210,-271 1210,-235 1380,-235 1380,-271"/>
<text text-anchor="middle" x="1295" y="-249.3" font-family="Times,serif" font-size="14.00">makeThentosLabel1</text>
</g>
<!-- 8&#45;&gt;7 -->
<g id="edge4" class="edge"><title>8&#45;&gt;7</title>
<path fill="none" stroke="black" d="M1209.77,-236.008C1206.82,-235.638 1203.89,-235.3 1201,-235 1137.98,-228.455 977.282,-243.087 916,-227 895.884,-221.719 875.241,-211.312 858.712,-201.535"/>
<polygon fill="black" stroke="black" points="860.341,-198.428 849.983,-196.204 856.693,-204.403 860.341,-198.428"/>
</g>
<!-- 9 -->
<g id="node7" class="node"><title>9</title>
<polygon fill="gold" stroke="black" stroke-width="2" points="1192,-271 1022,-271 1022,-235 1192,-235 1192,-271"/>
<text text-anchor="middle" x="1107" y="-249.3" font-family="Times,serif" font-size="14.00">makeThentosLabel2</text>
</g>
<!-- 9&#45;&gt;7 -->
<g id="edge5" class="edge"><title>9&#45;&gt;7</title>
<path fill="none" stroke="black" d="M1021.75,-236.212C1018.8,-235.784 1015.88,-235.378 1013,-235 970.111,-229.367 957.527,-239.114 916,-227 896.179,-221.218 875.704,-210.871 859.207,-201.26"/>
<polygon fill="black" stroke="black" points="860.858,-198.169 850.481,-196.031 857.259,-204.174 860.858,-198.169"/>
</g>
<!-- 10 -->
<g id="node8" class="node"><title>10</title>
<polygon fill="gold" stroke="black" stroke-width="2" points="1004,-271 834,-271 834,-235 1004,-235 1004,-271"/>
<text text-anchor="middle" x="919" y="-249.3" font-family="Times,serif" font-size="14.00">makeThentosLabel3</text>
</g>
<!-- 10&#45;&gt;7 -->
<g id="edge6" class="edge"><title>10&#45;&gt;7</title>
<path fill="none" stroke="black" d="M896.723,-234.7C884.314,-225.063 868.691,-212.93 855.196,-202.45"/>
<polygon fill="black" stroke="black" points="857.162,-199.545 847.117,-196.176 852.868,-205.074 857.162,-199.545"/>
</g>
<!-- 11 -->
<g id="node9" class="node"><title>11</title>
<polygon fill="gold" stroke="black" stroke-width="2" points="816,-271 646,-271 646,-235 816,-235 816,-271"/>
<text text-anchor="middle" x="731" y="-249.3" font-family="Times,serif" font-size="14.00">makeThentosLabel4</text>
</g>
<!-- 11&#45;&gt;7 -->
<g id="edge7" class="edge"><title>11&#45;&gt;7</title>
<path fill="none" stroke="black" d="M753.277,-234.7C765.686,-225.063 781.309,-212.93 794.804,-202.45"/>
<polygon fill="black" stroke="black" points="797.132,-205.074 802.883,-196.176 792.838,-199.545 797.132,-205.074"/>
</g>
<!-- 12 -->
<g id="node10" class="node"><title>12</title>
<polygon fill="gold" stroke="black" stroke-width="2" points="502,-271 332,-271 332,-235 502,-235 502,-271"/>
<text text-anchor="middle" x="417" y="-249.3" font-family="Times,serif" font-size="14.00">makeThentosLabel5</text>
</g>
<!-- 12&#45;&gt;7 -->
<g id="edge8" class="edge"><title>12&#45;&gt;7</title>
<path fill="none" stroke="black" d="M502.229,-236.037C505.184,-235.659 508.114,-235.311 511,-235 560.302,-229.685 686.087,-239.778 734,-227 754.095,-221.641 774.736,-211.227 791.269,-201.465"/>
<polygon fill="black" stroke="black" points="793.283,-204.336 800.002,-196.145 789.641,-198.358 793.283,-204.336"/>
</g>
<!-- 13 -->
<g id="node11" class="node"><title>13</title>
<polygon fill="goldenrod" stroke="black" stroke-width="2" points="725,-196 555,-196 555,-160 725,-160 725,-196"/>
<text text-anchor="middle" x="640" y="-174.3" font-family="Times,serif" font-size="14.00">restrictThentosLabel</text>
</g>
<!-- 13&#45;&gt;1 -->
<g id="edge9" class="edge"><title>13&#45;&gt;1</title>
<path fill="none" stroke="black" stroke-width="1.69315" d="M637.559,-159.897C635.75,-140.024 636.126,-107.475 654,-88 675.229,-64.8695 756.89,-49.6797 813.227,-41.7137"/>
<polygon fill="black" stroke="black" stroke-width="1.69315" points="814.001,-45.1402 823.431,-40.31 813.047,-38.2055 814.001,-45.1402"/>
</g>
<!-- 13&#45;&gt;2 -->
<g id="edge10" class="edge"><title>13&#45;&gt;2</title>
<path fill="none" stroke="black" stroke-width="1.69315" d="M662.989,-159.697C674.814,-150.796 689.392,-139.823 702.179,-130.199"/>
<polygon fill="black" stroke="black" stroke-width="1.69315" points="704.391,-132.915 710.276,-124.104 700.181,-127.322 704.391,-132.915"/>
</g>
<!-- 14 -->
<g id="node12" class="node"><title>14</title>
<polygon fill="gold" stroke="black" stroke-width="2" points="313.5,-271 140.5,-271 140.5,-235 313.5,-235 313.5,-271"/>
<text text-anchor="middle" x="227" y="-249.3" font-family="Times,serif" font-size="14.00">restrictThentosLabel&#39;</text>
</g>
<!-- 14&#45;&gt;13 -->
<g id="edge11" class="edge"><title>14&#45;&gt;13</title>
<path fill="none" stroke="chartreuse" d="M313.607,-236.662C316.777,-236.101 319.917,-235.545 323,-235 397.57,-221.811 482.01,-206.895 544.981,-195.775"/>
<polygon fill="chartreuse" stroke="chartreuse" points="545.659,-199.21 554.898,-194.024 544.442,-192.316 545.659,-199.21"/>
</g>
<!-- 15 -->
<g id="node13" class="node"><title>15</title>
<polygon fill="gold" stroke="black" stroke-width="2" points="627.5,-271 520.5,-271 520.5,-235 627.5,-235 627.5,-271"/>
<text text-anchor="middle" x="574" y="-249.3" font-family="Times,serif" font-size="14.00">returnDb</text>
</g>
<!-- 16 -->
<g id="node14" class="node"><title>16</title>
<polygon fill="gold" stroke="black" stroke-width="2" points="1730,-271 1576,-271 1576,-235 1730,-235 1730,-271"/>
<text text-anchor="middle" x="1653" y="-249.3" font-family="Times,serif" font-size="14.00">runThentosQuery</text>
</g>
<!-- 4 -->
<g id="node21" class="node"><title>4</title>
<polygon fill="cyan" stroke="black" stroke-width="2" points="2268,-196 2124,-196 2124,-160 2268,-160 2268,-196"/>
<text text-anchor="middle" x="2196" y="-174.3" font-family="Times,serif" font-size="14.00">checkClearance</text>
</g>
<!-- 16&#45;&gt;4 -->
<g id="edge12" class="edge"><title>16&#45;&gt;4</title>
<path fill="none" stroke="black" stroke-width="1.69315" d="M1730.26,-236.071C1733.2,-235.672 1736.13,-235.313 1739,-235 1780.21,-230.519 2072.05,-238.069 2112,-227 2130.81,-221.789 2149.85,-211.419 2165.03,-201.648"/>
<polygon fill="black" stroke="black" stroke-width="1.69315" points="2167.12,-204.465 2173.5,-196.007 2163.24,-198.64 2167.12,-204.465"/>
</g>
<!-- 17 -->
<g id="node15" class="node"><title>17</title>
<polygon fill="gold" stroke="black" stroke-width="2" points="1557.5,-271 1398.5,-271 1398.5,-235 1557.5,-235 1557.5,-271"/>
<text text-anchor="middle" x="1478" y="-249.3" font-family="Times,serif" font-size="14.00">runThentosUpdate</text>
</g>
<!-- 17&#45;&gt;4 -->
<g id="edge13" class="edge"><title>17&#45;&gt;4</title>
<path fill="none" stroke="black" stroke-width="1.69315" d="M1557.96,-236.047C1561,-235.656 1564.03,-235.303 1567,-235 1627.25,-228.851 2053.58,-242.973 2112,-227 2130.83,-221.852 2149.87,-211.489 2165.05,-201.705"/>
<polygon fill="black" stroke="black" stroke-width="1.69315" points="2167.14,-204.519 2173.51,-196.055 2163.25,-198.697 2167.14,-204.519"/>
</g>
<!-- 18&#45;&gt;1 -->
<g id="edge14" class="edge"><title>18&#45;&gt;1</title>
<path fill="none" stroke="black" d="M902.124,-87.6966C897.008,-79.5589 890.805,-69.689 885.155,-60.7013"/>
<polygon fill="black" stroke="black" points="888.036,-58.7081 879.751,-52.1043 882.11,-62.4333 888.036,-58.7081"/>
</g>
<!-- 19 -->
<g id="node17" class="node"><title>19</title>
<polygon fill="gold" stroke="black" stroke-width="2" points="1105,-196 925,-196 925,-160 1105,-160 1105,-196"/>
<text text-anchor="middle" x="1015" y="-174.3" font-family="Times,serif" font-size="14.00">thentosLabeledDenied</text>
</g>
<!-- 19&#45;&gt;18 -->
<g id="edge15" class="edge"><title>19&#45;&gt;18</title>
<path fill="none" stroke="black" d="M990.048,-159.876C976.958,-150.893 960.74,-139.763 946.564,-130.034"/>
<polygon fill="black" stroke="black" points="948.274,-126.962 938.048,-124.19 944.313,-132.734 948.274,-126.962"/>
</g>
<!-- 20 -->
<g id="node18" class="node"><title>20</title>
<polygon fill="gold" stroke="black" stroke-width="2" points="1299,-196 1123,-196 1123,-160 1299,-160 1299,-196"/>
<text text-anchor="middle" x="1211" y="-174.3" font-family="Times,serif" font-size="14.00">thentosLabeledPublic</text>
</g>
<!-- 21 -->
<g id="node19" class="node"><title>21</title>
<polygon fill="goldenrod" stroke="black" stroke-width="2" points="1204,-124 1072,-124 1072,-88 1204,-88 1204,-124"/>
<text text-anchor="middle" x="1138" y="-102.3" font-family="Times,serif" font-size="14.00">thentosPublic</text>
</g>
<!-- 20&#45;&gt;21 -->
<g id="edge16" class="edge"><title>20&#45;&gt;21</title>
<path fill="none" stroke="chartreuse" d="M1192.96,-159.697C1183.94,-151.05 1172.88,-140.449 1163.06,-131.027"/>
<polygon fill="chartreuse" stroke="chartreuse" points="1165.48,-128.499 1155.84,-124.104 1160.63,-133.552 1165.48,-128.499"/>
</g>
<!-- 21&#45;&gt;1 -->
<g id="edge17" class="edge"><title>21&#45;&gt;1</title>
<path fill="none" stroke="black" d="M1072.54,-87.9656C1027.24,-76.1766 967.595,-60.6567 924.597,-49.4676"/>
<polygon fill="black" stroke="black" points="925.426,-46.0668 914.867,-46.9356 923.663,-52.8412 925.426,-46.0668"/>
</g>
<!-- 22 -->
<g id="node20" class="node"><title>22</title>
<polygon fill="gold" stroke="black" stroke-width="2" points="122.5,-271 15.5,-271 15.5,-235 122.5,-235 122.5,-271"/>
<text text-anchor="middle" x="69" y="-249.3" font-family="Times,serif" font-size="14.00">throwDb</text>
</g>
</g>
</svg>
