<?xml version="1.0" encoding="UTF-8" standalone="no"?>
<!DOCTYPE svg PUBLIC "-//W3C//DTD SVG 1.1//EN"
 "http://www.w3.org/Graphics/SVG/1.1/DTD/svg11.dtd">
<!-- Generated by graphviz version 2.38.0 (20140413.2041)
 -->
<!-- Title: Levels within Thentos.Backend.Api.Adhocracy3 Pages: 1 -->
<svg width="10495pt" height="549pt"
 viewBox="0.00 0.00 10495.00 549.10" xmlns="http://www.w3.org/2000/svg" xmlns:xlink="http://www.w3.org/1999/xlink">
<g id="graph0" class="graph" transform="scale(1 1) rotate(0) translate(4 545.096)">
<title>Levels within Thentos.Backend.Api.Adhocracy3</title>
<polygon fill="white" stroke="none" points="-4,4 -4,-545.096 10491,-545.096 10491,4 -4,4"/>
<g id="clust1" class="cluster"><title>cluster_0</title>
<polygon fill="lavender" stroke="black" points="8,-8 8,-533.096 2802,-533.096 2802,-8 8,-8"/>
<text text-anchor="middle" x="1405" y="-517.896" font-family="Times,serif" font-size="14.00">Exported root entities</text>
</g>
<g id="clust2" class="cluster"><title>cluster_1</title>
<polygon fill="lavender" stroke="black" points="2810,-263.352 2810,-346.744 10479,-346.744 10479,-263.352 2810,-263.352"/>
<text text-anchor="middle" x="6644.5" y="-331.544" font-family="Times,serif" font-size="14.00">Level = 1</text>
</g>
<!-- 1 -->
<g id="node1" class="node"><title>1</title>
<polygon fill="goldenrod" stroke="black" stroke-width="2" points="1943,-143.676 1789,-143.676 1785,-139.676 1785,-107.676 1939,-107.676 1943,-111.676 1943,-143.676"/>
<polyline fill="none" stroke="black" stroke-width="2" points="1939,-139.676 1785,-139.676 "/>
<polyline fill="none" stroke="black" stroke-width="2" points="1939,-139.676 1939,-107.676 "/>
<polyline fill="none" stroke="black" stroke-width="2" points="1939,-139.676 1943,-143.676 "/>
<text text-anchor="middle" x="1864" y="-121.976" font-family="Times,serif" font-size="14.00">Data: A3Resource</text>
</g>
<!-- 2 -->
<g id="node2" class="node"><title>2</title>
<polygon fill="goldenrod" stroke="black" stroke-width="2" points="1564,-143.676 1394,-143.676 1390,-139.676 1390,-107.676 1560,-107.676 1564,-111.676 1564,-143.676"/>
<polyline fill="none" stroke="black" stroke-width="2" points="1560,-139.676 1390,-139.676 "/>
<polyline fill="none" stroke="black" stroke-width="2" points="1560,-139.676 1560,-107.676 "/>
<polyline fill="none" stroke="black" stroke-width="2" points="1560,-139.676 1564,-143.676 "/>
<text text-anchor="middle" x="1477" y="-121.976" font-family="Times,serif" font-size="14.00">Data: A3UserNoPass</text>
</g>
<!-- 3 -->
<g id="node3" class="node"><title>3</title>
<polygon fill="goldenrod" stroke="black" stroke-width="2" points="1767.5,-143.676 1586.5,-143.676 1582.5,-139.676 1582.5,-107.676 1763.5,-107.676 1767.5,-111.676 1767.5,-143.676"/>
<polyline fill="none" stroke="black" stroke-width="2" points="1763.5,-139.676 1582.5,-139.676 "/>
<polyline fill="none" stroke="black" stroke-width="2" points="1763.5,-139.676 1763.5,-107.676 "/>
<polyline fill="none" stroke="black" stroke-width="2" points="1763.5,-139.676 1767.5,-143.676 "/>
<text text-anchor="middle" x="1675" y="-121.976" font-family="Times,serif" font-size="14.00">Data: A3UserWithPass</text>
</g>
<!-- 4 -->
<g id="node4" class="node"><title>4</title>
<polygon fill="goldenrod" stroke="black" stroke-width="2" points="2421,-143.676 2233,-143.676 2229,-139.676 2229,-107.676 2417,-107.676 2421,-111.676 2421,-143.676"/>
<polyline fill="none" stroke="black" stroke-width="2" points="2417,-139.676 2229,-139.676 "/>
<polyline fill="none" stroke="black" stroke-width="2" points="2417,-139.676 2417,-107.676 "/>
<polyline fill="none" stroke="black" stroke-width="2" points="2417,-139.676 2421,-143.676 "/>
<text text-anchor="middle" x="2325" y="-121.976" font-family="Times,serif" font-size="14.00">Data: ActivationRequest</text>
</g>
<!-- 5 -->
<g id="node5" class="node"><title>5</title>
<polygon fill="goldenrod" stroke="black" stroke-width="2" points="986,-143.676 828,-143.676 824,-139.676 824,-107.676 982,-107.676 986,-111.676 986,-143.676"/>
<polyline fill="none" stroke="black" stroke-width="2" points="982,-139.676 824,-139.676 "/>
<polyline fill="none" stroke="black" stroke-width="2" points="982,-139.676 982,-107.676 "/>
<polyline fill="none" stroke="black" stroke-width="2" points="982,-139.676 986,-143.676 "/>
<text text-anchor="middle" x="905" y="-121.976" font-family="Times,serif" font-size="14.00">Data: ContentType</text>
</g>
<!-- 6 -->
<g id="node6" class="node"><title>6</title>
<polygon fill="goldenrod" stroke="black" stroke-width="2" points="2794.5,-143.676 2631.5,-143.676 2627.5,-139.676 2627.5,-107.676 2790.5,-107.676 2794.5,-111.676 2794.5,-143.676"/>
<polyline fill="none" stroke="black" stroke-width="2" points="2790.5,-139.676 2627.5,-139.676 "/>
<polyline fill="none" stroke="black" stroke-width="2" points="2790.5,-139.676 2790.5,-107.676 "/>
<polyline fill="none" stroke="black" stroke-width="2" points="2790.5,-139.676 2794.5,-143.676 "/>
<text text-anchor="middle" x="2711" y="-121.976" font-family="Times,serif" font-size="14.00">Data: LoginRequest</text>
</g>
<!-- 8 -->
<g id="node7" class="node"><title>8</title>
<polygon fill="goldenrod" stroke="black" stroke-width="2" points="806,-143.676 642,-143.676 638,-139.676 638,-107.676 802,-107.676 806,-111.676 806,-143.676"/>
<polyline fill="none" stroke="black" stroke-width="2" points="802,-139.676 638,-139.676 "/>
<polyline fill="none" stroke="black" stroke-width="2" points="802,-139.676 802,-107.676 "/>
<polyline fill="none" stroke="black" stroke-width="2" points="802,-139.676 806,-143.676 "/>
<text text-anchor="middle" x="722" y="-121.976" font-family="Times,serif" font-size="14.00">Data: PropertySheet</text>
</g>
<!-- 10 -->
<g id="node8" class="node"><title>10</title>
<polygon fill="goldenrod" stroke="black" stroke-width="2" points="1267,-52 1155,-52 1151,-48 1151,-16 1263,-16 1267,-20 1267,-52"/>
<polyline fill="none" stroke="black" stroke-width="2" points="1263,-48 1151,-48 "/>
<polyline fill="none" stroke="black" stroke-width="2" points="1263,-48 1263,-16 "/>
<polyline fill="none" stroke="black" stroke-width="2" points="1263,-48 1267,-52 "/>
<text text-anchor="middle" x="1209" y="-30.3" font-family="Times,serif" font-size="14.00">Data: Path</text>
</g>
<!-- 11 -->
<g id="node9" class="node"><title>11</title>
<polygon fill="goldenrod" stroke="black" stroke-width="2" points="2609,-143.676 2443,-143.676 2439,-139.676 2439,-107.676 2605,-107.676 2609,-111.676 2609,-143.676"/>
<polyline fill="none" stroke="black" stroke-width="2" points="2605,-139.676 2439,-139.676 "/>
<polyline fill="none" stroke="black" stroke-width="2" points="2605,-139.676 2605,-107.676 "/>
<polyline fill="none" stroke="black" stroke-width="2" points="2605,-139.676 2609,-143.676 "/>
<text text-anchor="middle" x="2524" y="-121.976" font-family="Times,serif" font-size="14.00">Data: RequestResult</text>
</g>
<!-- 13 -->
<g id="node10" class="node"><title>13</title>
<polygon fill="goldenrod" stroke="black" stroke-width="2" points="892.5,-235.352 733.5,-235.352 733.5,-199.352 892.5,-199.352 892.5,-235.352"/>
<text text-anchor="middle" x="813" y="-213.652" font-family="Times,serif" font-size="14.00">a3UserFromJSON</text>
</g>
<!-- 13&#45;&gt;5 -->
<g id="edge1" class="edge"><title>13&#45;&gt;5</title>
<path fill="none" stroke="black" d="M830.739,-199.062C844.739,-185.415 864.441,-166.21 880.034,-151.011"/>
<polygon fill="black" stroke="black" points="882.598,-153.4 887.316,-143.914 877.712,-148.387 882.598,-153.4"/>
</g>
<!-- 13&#45;&gt;8 -->
<g id="edge2" class="edge"><title>13&#45;&gt;8</title>
<path fill="none" stroke="black" stroke-width="2.09861" d="M795.454,-199.062C781.606,-185.415 762.118,-166.21 746.694,-151.011"/>
<polygon fill="black" stroke="black" stroke-width="2.09861" points="749.071,-148.44 739.492,-143.914 744.158,-153.426 749.071,-148.44"/>
</g>
<!-- 19 -->
<g id="node16" class="node"><title>19</title>
<polygon fill="goldenrod" stroke="black" stroke-width="2" points="619.5,-143.676 500.5,-143.676 500.5,-107.676 619.5,-107.676 619.5,-143.676"/>
<text text-anchor="middle" x="560" y="-121.976" font-family="Times,serif" font-size="14.00">emailValid</text>
</g>
<!-- 13&#45;&gt;19 -->
<g id="edge3" class="edge"><title>13&#45;&gt;19</title>
<path fill="none" stroke="black" d="M741.058,-199.348C706.587,-190.266 665.055,-177.942 629,-163.352 618.601,-159.145 607.722,-153.829 597.756,-148.559"/>
<polygon fill="black" stroke="black" points="599.362,-145.449 588.902,-143.767 596.03,-151.605 599.362,-145.449"/>
</g>
<!-- 30 -->
<g id="node18" class="node"><title>30</title>
<polygon fill="goldenrod" stroke="black" stroke-width="2" points="320,-143.676 180,-143.676 180,-107.676 320,-107.676 320,-143.676"/>
<text text-anchor="middle" x="250" y="-121.976" font-family="Times,serif" font-size="14.00">passwordGood</text>
</g>
<!-- 13&#45;&gt;30 -->
<g id="edge4" class="edge"><title>13&#45;&gt;30</title>
<path fill="none" stroke="black" d="M733.128,-215.504C635.931,-212.681 467.627,-201.996 329,-163.352 315.768,-159.664 301.979,-153.975 289.694,-148.169"/>
<polygon fill="black" stroke="black" points="291.149,-144.984 280.628,-143.738 288.075,-151.274 291.149,-144.984"/>
</g>
<!-- 46 -->
<g id="node23" class="node"><title>46</title>
<polygon fill="goldenrod" stroke="black" stroke-width="2" points="482,-143.676 338,-143.676 338,-107.676 482,-107.676 482,-143.676"/>
<text text-anchor="middle" x="410" y="-121.976" font-family="Times,serif" font-size="14.00">userNameValid</text>
</g>
<!-- 13&#45;&gt;46 -->
<g id="edge5" class="edge"><title>13&#45;&gt;46</title>
<path fill="none" stroke="black" d="M733.275,-209.105C667.295,-201.719 571.655,-187.786 491,-163.352 477.814,-159.358 463.977,-153.691 451.546,-148.003"/>
<polygon fill="black" stroke="black" points="452.886,-144.766 442.348,-143.677 449.907,-151.1 452.886,-144.766"/>
</g>
<!-- 49 -->
<g id="node26" class="node"><title>49</title>
<polygon fill="khaki" stroke="black" stroke-dasharray="1,5" points="2206.86,-111.662 2206.86,-139.691 2136.06,-159.51 2035.94,-159.51 1965.14,-139.691 1965.14,-111.662 2035.94,-91.8418 2136.06,-91.8418 2206.86,-111.662"/>
<polygon fill="none" stroke="black" stroke-dasharray="1,5" points="2210.86,-108.609 2210.86,-142.743 2136.61,-163.529 2035.39,-163.529 1961.14,-142.743 1961.14,-108.609 2035.39,-87.823 2136.61,-87.823 2210.86,-108.609"/>
<text text-anchor="middle" x="2086" y="-129.476" font-family="Times,serif" font-size="14.00">Unknown Module</text>
<text text-anchor="middle" x="2086" y="-114.476" font-family="Times,serif" font-size="14.00">Class: Show</text>
</g>
<!-- 13&#45;&gt;49 -->
<g id="edge6" class="edge"><title>13&#45;&gt;49</title>
<path fill="none" stroke="black" stroke-width="2.38629" d="M892.795,-211.999C958.58,-208.453 1054.34,-203.39 1138,-199.352 1499.71,-181.894 1594.25,-219.501 1952,-163.352 1964.13,-161.449 1976.73,-158.853 1989.14,-155.915"/>
<polygon fill="black" stroke="black" stroke-width="2.38629" points="1990.15,-159.269 1999.03,-153.492 1988.49,-152.47 1990.15,-159.269"/>
</g>
<!-- 14 -->
<g id="node11" class="node"><title>14</title>
<polygon fill="goldenrod" stroke="black" stroke-width="2" points="1291,-235.352 1147,-235.352 1147,-199.352 1291,-199.352 1291,-235.352"/>
<text text-anchor="middle" x="1219" y="-213.652" font-family="Times,serif" font-size="14.00">a3UserToJSON</text>
</g>
<!-- 14&#45;&gt;5 -->
<g id="edge7" class="edge"><title>14&#45;&gt;5</title>
<path fill="none" stroke="black" d="M1146.85,-202.248C1102.57,-192.861 1044.96,-179.335 995,-163.352 981.034,-158.884 966.178,-153.223 952.646,-147.693"/>
<polygon fill="black" stroke="black" points="953.636,-144.315 943.059,-143.709 950.95,-150.779 953.636,-144.315"/>
</g>
<!-- 14&#45;&gt;8 -->
<g id="edge8" class="edge"><title>14&#45;&gt;8</title>
<path fill="none" stroke="black" stroke-width="1.69315" d="M1146.83,-212.233C1065.22,-206.349 928.86,-192.795 815,-163.352 799.562,-159.36 783.227,-153.51 768.626,-147.649"/>
<polygon fill="black" stroke="black" stroke-width="1.69315" points="769.889,-144.384 759.309,-143.815 767.225,-150.857 769.889,-144.384"/>
</g>
<!-- 15 -->
<g id="node12" class="node"><title>15</title>
<polygon fill="goldenrod" stroke="black" stroke-width="2" points="1912.5,-235.352 1811.5,-235.352 1811.5,-199.352 1912.5,-199.352 1912.5,-235.352"/>
<text text-anchor="middle" x="1862" y="-213.652" font-family="Times,serif" font-size="14.00">activate</text>
</g>
<!-- 15&#45;&gt;4 -->
<g id="edge9" class="edge"><title>15&#45;&gt;4</title>
<path fill="none" stroke="black" stroke-width="1.69315" d="M1912.68,-211.896C1982.58,-205.062 2112.17,-189.913 2220,-163.352 2237.4,-159.067 2255.98,-153.07 2272.6,-147.165"/>
<polygon fill="black" stroke="black" stroke-width="1.69315" points="2273.92,-150.408 2282.13,-143.712 2271.54,-143.826 2273.92,-150.408"/>
</g>
<!-- 15&#45;&gt;11 -->
<g id="edge10" class="edge"><title>15&#45;&gt;11</title>
<path fill="none" stroke="black" d="M1912.79,-211.227C1947.03,-207.797 1993.22,-203.221 2034,-199.352 2209.94,-182.661 2257.98,-203.871 2430,-163.352 2445.95,-159.596 2462.78,-153.69 2477.74,-147.706"/>
<polygon fill="black" stroke="black" points="2479.35,-150.828 2487.26,-143.785 2476.68,-144.356 2479.35,-150.828"/>
</g>
<!-- 18 -->
<g id="node15" class="node"><title>18</title>
<polygon fill="goldenrod" stroke="black" stroke-width="2" points="1222,-143.676 1004,-143.676 1004,-107.676 1222,-107.676 1222,-143.676"/>
<text text-anchor="middle" x="1113" y="-121.976" font-family="Times,serif" font-size="14.00">confirmationTokenFromPath</text>
</g>
<!-- 15&#45;&gt;18 -->
<g id="edge11" class="edge"><title>15&#45;&gt;18</title>
<path fill="none" stroke="black" d="M1811.2,-208.757C1788.27,-205.52 1760.81,-201.908 1736,-199.352 1512.17,-176.298 1452.12,-205.021 1231,-163.352 1210.35,-159.461 1188.23,-153.178 1168.78,-146.903"/>
<polygon fill="black" stroke="black" points="1169.77,-143.543 1159.18,-143.735 1167.58,-150.191 1169.77,-143.543"/>
</g>
<!-- 45 -->
<g id="node22" class="node"><title>45</title>
<polygon fill="goldenrod" stroke="black" stroke-width="2" points="1371.5,-143.676 1240.5,-143.676 1240.5,-107.676 1371.5,-107.676 1371.5,-143.676"/>
<text text-anchor="middle" x="1306" y="-121.976" font-family="Times,serif" font-size="14.00">userIdToPath</text>
</g>
<!-- 15&#45;&gt;45 -->
<g id="edge12" class="edge"><title>15&#45;&gt;45</title>
<path fill="none" stroke="black" d="M1811.47,-209.146C1788.47,-205.966 1760.88,-202.291 1736,-199.352 1578.51,-180.747 1533.5,-206.865 1381,-163.352 1368.46,-159.775 1355.48,-154.183 1343.9,-148.435"/>
<polygon fill="black" stroke="black" points="1345.45,-145.296 1334.96,-143.826 1342.25,-151.518 1345.45,-145.296"/>
</g>
<!-- 16 -->
<g id="node13" class="node"><title>16</title>
<polygon fill="goldenrod" stroke="black" stroke-width="2" points="1727,-235.352 1623,-235.352 1623,-199.352 1727,-199.352 1727,-235.352"/>
<text text-anchor="middle" x="1675" y="-213.652" font-family="Times,serif" font-size="14.00">addUser</text>
</g>
<!-- 16&#45;&gt;1 -->
<g id="edge13" class="edge"><title>16&#45;&gt;1</title>
<path fill="none" stroke="black" d="M1710.99,-199.274C1741.6,-184.751 1785.71,-163.822 1818.71,-148.163"/>
<polygon fill="black" stroke="black" points="1820.61,-151.14 1828.14,-143.691 1817.6,-144.816 1820.61,-151.14"/>
</g>
<!-- 16&#45;&gt;2 -->
<g id="edge14" class="edge"><title>16&#45;&gt;2</title>
<path fill="none" stroke="black" d="M1637.29,-199.274C1605.09,-184.688 1558.62,-163.642 1524,-147.962"/>
<polygon fill="black" stroke="black" points="1525.12,-144.629 1514.57,-143.691 1522.23,-151.005 1525.12,-144.629"/>
</g>
<!-- 16&#45;&gt;3 -->
<g id="edge15" class="edge"><title>16&#45;&gt;3</title>
<path fill="none" stroke="black" stroke-width="1.69315" d="M1675,-199.062C1675,-186.284 1675,-168.632 1675,-153.959"/>
<polygon fill="black" stroke="black" stroke-width="1.69315" points="1678.5,-153.913 1675,-143.914 1671.5,-153.914 1678.5,-153.913"/>
</g>
<!-- 16&#45;&gt;5 -->
<g id="edge16" class="edge"><title>16&#45;&gt;5</title>
<path fill="none" stroke="black" d="M1622.91,-214.372C1485.26,-208.809 1114.26,-191.576 995,-163.352 979.658,-159.722 963.526,-153.855 949.224,-147.869"/>
<polygon fill="black" stroke="black" points="950.216,-144.485 939.648,-143.732 947.44,-150.911 950.216,-144.485"/>
</g>
<!-- 16&#45;&gt;45 -->
<g id="edge17" class="edge"><title>16&#45;&gt;45</title>
<path fill="none" stroke="black" d="M1622.95,-211.366C1563.34,-204.656 1463.31,-190.317 1381,-163.352 1369.06,-159.439 1356.6,-153.969 1345.34,-148.445"/>
<polygon fill="black" stroke="black" points="1346.71,-145.216 1336.21,-143.825 1343.56,-151.462 1346.71,-145.216"/>
</g>
<!-- 16&#45;&gt;49 -->
<g id="edge18" class="edge"><title>16&#45;&gt;49</title>
<path fill="none" stroke="black" d="M1727.07,-207.64C1782.94,-198.002 1874.14,-181.427 1952,-163.352 1962.9,-160.821 1974.26,-158.003 1985.54,-155.084"/>
<polygon fill="black" stroke="black" points="1986.63,-158.415 1995.42,-152.498 1984.86,-151.643 1986.63,-158.415"/>
</g>
<!-- 17 -->
<g id="node14" class="node"><title>17</title>
<polygon fill="goldenrod" stroke="black" stroke-width="2" points="1901,-311.548 1823,-311.548 1823,-275.548 1901,-275.548 1901,-311.548"/>
<text text-anchor="middle" x="1862" y="-289.848" font-family="Times,serif" font-size="14.00">app</text>
</g>
<!-- 17&#45;&gt;15 -->
<g id="edge19" class="edge"><title>17&#45;&gt;15</title>
<path fill="none" stroke="black" d="M1862,-275.339C1862,-266.537 1862,-255.613 1862,-245.692"/>
<polygon fill="black" stroke="black" points="1865.5,-245.467 1862,-235.467 1858.5,-245.467 1865.5,-245.467"/>
</g>
<!-- 17&#45;&gt;16 -->
<g id="edge20" class="edge"><title>17&#45;&gt;16</title>
<path fill="none" stroke="black" d="M1822.8,-276.994C1795.16,-266.028 1757.83,-251.218 1727.61,-239.225"/>
<polygon fill="black" stroke="black" points="1728.65,-235.874 1718.06,-235.439 1726.07,-242.38 1728.65,-235.874"/>
</g>
<!-- 22 -->
<g id="node17" class="node"><title>22</title>
<polygon fill="goldenrod" stroke="black" stroke-width="2" points="2129,-235.352 2043,-235.352 2043,-199.352 2129,-199.352 2129,-235.352"/>
<text text-anchor="middle" x="2086" y="-213.652" font-family="Times,serif" font-size="14.00">login</text>
</g>
<!-- 17&#45;&gt;22 -->
<g id="edge21" class="edge"><title>17&#45;&gt;22</title>
<path fill="none" stroke="black" stroke-width="1.69315" d="M1901.02,-279.624C1937.61,-267.504 1992.61,-249.285 2033.13,-235.863"/>
<polygon fill="black" stroke="black" stroke-width="1.69315" points="2034.45,-239.114 2042.84,-232.647 2032.25,-232.469 2034.45,-239.114"/>
</g>
<!-- 18&#45;&gt;10 -->
<g id="edge22" class="edge"><title>18&#45;&gt;10</title>
<path fill="none" stroke="black" d="M1131.51,-107.386C1146.12,-93.7391 1166.68,-74.5343 1182.95,-59.3351"/>
<polygon fill="black" stroke="black" points="1185.63,-61.6214 1190.55,-52.2374 1180.85,-56.506 1185.63,-61.6214"/>
</g>
<!-- 22&#45;&gt;6 -->
<g id="edge23" class="edge"><title>22&#45;&gt;6</title>
<path fill="none" stroke="black" stroke-width="1.69315" d="M2129.08,-216.064C2220.49,-214.586 2440.05,-206.422 2618,-163.352 2633.78,-159.534 2650.44,-153.611 2665.23,-147.631"/>
<polygon fill="black" stroke="black" stroke-width="1.69315" points="2666.76,-150.784 2674.65,-143.715 2664.07,-144.321 2666.76,-150.784"/>
</g>
<!-- 22&#45;&gt;11 -->
<g id="edge24" class="edge"><title>22&#45;&gt;11</title>
<path fill="none" stroke="black" stroke-width="1.69315" d="M2129.26,-212.754C2195.08,-206.595 2323.93,-191.845 2430,-163.352 2445.4,-159.214 2461.74,-153.38 2476.4,-147.579"/>
<polygon fill="black" stroke="black" stroke-width="1.69315" points="2477.81,-150.786 2485.77,-143.791 2475.18,-144.297 2477.81,-150.786"/>
</g>
<!-- 22&#45;&gt;45 -->
<g id="edge25" class="edge"><title>22&#45;&gt;45</title>
<path fill="none" stroke="black" stroke-width="1.69315" d="M2042.88,-211.444C2009.83,-207.788 1963.07,-202.846 1922,-199.352 1681.89,-178.926 1613.84,-225.45 1381,-163.352 1368.18,-159.934 1354.94,-154.271 1343.22,-148.406"/>
<polygon fill="black" stroke="black" stroke-width="1.69315" points="1344.67,-145.214 1334.18,-143.698 1341.43,-151.422 1344.67,-145.214"/>
</g>
<!-- 22&#45;&gt;49 -->
<g id="edge26" class="edge"><title>22&#45;&gt;49</title>
<path fill="none" stroke="black" stroke-width="1.69315" d="M2086,-199.062C2086,-191.74 2086,-182.818 2086,-173.773"/>
<polygon fill="black" stroke="black" stroke-width="1.69315" points="2089.5,-173.588 2086,-163.588 2082.5,-173.588 2089.5,-173.588"/>
</g>
<!-- 33 -->
<g id="node19" class="node"><title>33</title>
<polygon fill="gold" stroke="black" stroke-width="2" points="1924,-482.42 1800,-482.42 1800,-446.42 1924,-446.42 1924,-482.42"/>
<text text-anchor="middle" x="1862" y="-460.72" font-family="Times,serif" font-size="14.00">runBackend</text>
</g>
<!-- 34 -->
<g id="node20" class="node"><title>34</title>
<polygon fill="goldenrod" stroke="black" stroke-width="2" points="1915.5,-390.744 1808.5,-390.744 1808.5,-354.744 1915.5,-354.744 1915.5,-390.744"/>
<text text-anchor="middle" x="1862" y="-369.044" font-family="Times,serif" font-size="14.00">serveApi</text>
</g>
<!-- 33&#45;&gt;34 -->
<g id="edge38" class="edge"><title>33&#45;&gt;34</title>
<path fill="none" stroke="chartreuse" d="M1862,-446.129C1862,-433.351 1862,-415.7 1862,-401.027"/>
<polygon fill="chartreuse" stroke="chartreuse" points="1865.5,-400.981 1862,-390.981 1858.5,-400.981 1865.5,-400.981"/>
</g>
<!-- 34&#45;&gt;17 -->
<g id="edge39" class="edge"><title>34&#45;&gt;17</title>
<path fill="none" stroke="chartreuse" d="M1862,-354.611C1862,-345.017 1862,-332.828 1862,-321.941"/>
<polygon fill="chartreuse" stroke="chartreuse" points="1865.5,-321.632 1862,-311.632 1858.5,-321.632 1865.5,-321.632"/>
</g>
<!-- 44 -->
<g id="node21" class="node"><title>44</title>
<polygon fill="gold" stroke="black" stroke-width="2" points="162,-143.676 16,-143.676 16,-107.676 162,-107.676 162,-143.676"/>
<text text-anchor="middle" x="89" y="-121.976" font-family="Times,serif" font-size="14.00">userIdFromPath</text>
</g>
<!-- 44&#45;&gt;10 -->
<g id="edge51" class="edge"><title>44&#45;&gt;10</title>
<path fill="none" stroke="black" d="M119.967,-107.559C134.925,-100.153 153.41,-92.2263 171,-88 355.954,-43.5614 940.306,-36.3712 1140.74,-35.2174"/>
<polygon fill="black" stroke="black" points="1140.86,-38.7168 1150.84,-35.1625 1140.83,-31.7169 1140.86,-38.7168"/>
</g>
<!-- 45&#45;&gt;10 -->
<g id="edge52" class="edge"><title>45&#45;&gt;10</title>
<path fill="none" stroke="black" d="M1287.3,-107.386C1272.54,-93.7391 1251.76,-74.5343 1235.32,-59.3351"/>
<polygon fill="black" stroke="black" points="1237.36,-56.4558 1227.65,-52.2374 1232.61,-61.5958 1237.36,-56.4558"/>
</g>
<!-- 47 -->
<g id="node24" class="node"><title>47</title>
<polygon fill="khaki" stroke="black" stroke-dasharray="1,5" points="2253.86,-450.405 2253.86,-478.434 2183.06,-498.254 2082.94,-498.254 2012.14,-478.434 2012.14,-450.405 2082.94,-430.585 2183.06,-430.585 2253.86,-450.405"/>
<polygon fill="none" stroke="black" stroke-dasharray="1,5" points="2257.86,-447.353 2257.86,-481.487 2183.61,-502.273 2082.39,-502.273 2008.14,-481.487 2008.14,-447.353 2082.39,-426.567 2183.61,-426.567 2257.86,-447.353"/>
<text text-anchor="middle" x="2133" y="-468.22" font-family="Times,serif" font-size="14.00">Unknown Module</text>
<text text-anchor="middle" x="2133" y="-453.22" font-family="Times,serif" font-size="14.00">Class: FromJSON</text>
</g>
<!-- 23 -->
<g id="node28" class="node"><title>23</title>
<polygon fill="bisque" stroke="black" stroke-width="2" points="4166.23,-284.272 4166.23,-302.823 4038.98,-315.941 3859.02,-315.941 3731.77,-302.823 3731.77,-284.272 3859.02,-271.155 4038.98,-271.155 4166.23,-284.272"/>
<text text-anchor="middle" x="3949" y="-289.848" font-family="Times,serif" font-size="14.00">Class: FromJSON, Data: (A3Resource a)</text>
</g>
<!-- 47&#45;&gt;23 -->
<g id="edge53" class="edge"><title>47&#45;&gt;23</title>
<path fill="none" stroke="navy" d="M2222.4,-437.296C2259.86,-425.054 2303.35,-409.103 2341,-390.744 2367.59,-377.774 2368.64,-363.167 2397,-354.744 2432.28,-344.265 3685.44,-351.004 3722,-346.744 3774.02,-340.681 3831.49,-327.396 3875.6,-315.746"/>
</g>
<!-- 24 -->
<g id="node29" class="node"><title>24</title>
<polygon fill="bisque" stroke="black" stroke-width="2" points="3248.14,-284.272 3248.14,-302.823 3122.11,-315.941 2943.89,-315.941 2817.86,-302.823 2817.86,-284.272 2943.89,-271.155 3122.11,-271.155 3248.14,-284.272"/>
<text text-anchor="middle" x="3033" y="-289.848" font-family="Times,serif" font-size="14.00">Class: FromJSON, Data: A3UserNoPass</text>
</g>
<!-- 47&#45;&gt;24 -->
<g id="edge54" class="edge"><title>47&#45;&gt;24</title>
<path fill="none" stroke="navy" d="M2180.28,-426.736C2216.35,-401.139 2268.45,-369.091 2320,-354.744 2372.03,-340.262 2752.39,-353.275 2806,-346.744 2857.68,-340.447 2914.8,-327.282 2958.81,-315.749"/>
</g>
<!-- 25 -->
<g id="node30" class="node"><title>25</title>
<polygon fill="bisque" stroke="black" stroke-width="2" points="3713.47,-284.272 3713.47,-302.823 3582.57,-315.941 3397.43,-315.941 3266.53,-302.823 3266.53,-284.272 3397.43,-271.155 3582.57,-271.155 3713.47,-284.272"/>
<text text-anchor="middle" x="3490" y="-289.848" font-family="Times,serif" font-size="14.00">Class: FromJSON, Data: A3UserWithPass</text>
</g>
<!-- 47&#45;&gt;25 -->
<g id="edge55" class="edge"><title>47&#45;&gt;25</title>
<path fill="none" stroke="navy" d="M2204.41,-432.322C2232.27,-419.843 2264.34,-405.047 2293,-390.744 2322.9,-375.824 2326.66,-363.144 2359,-354.744 2407.29,-342.201 3207.44,-352.451 3257,-346.744 3310.23,-340.615 3369.1,-327.369 3414.35,-315.756"/>
</g>
<!-- 26 -->
<g id="node31" class="node"><title>26</title>
<polygon fill="bisque" stroke="black" stroke-width="2" points="5022.69,-284.272 5022.69,-302.823 4888.73,-315.941 4699.27,-315.941 4565.31,-302.823 4565.31,-284.272 4699.27,-271.155 4888.73,-271.155 5022.69,-284.272"/>
<text text-anchor="middle" x="4794" y="-289.848" font-family="Times,serif" font-size="14.00">Class: FromJSON, Data: ActivationRequest</text>
</g>
<!-- 47&#45;&gt;26 -->
<g id="edge56" class="edge"><title>47&#45;&gt;26</title>
<path fill="none" stroke="navy" d="M2225.62,-438.205C2290.89,-420.163 2369.2,-397.858 2384,-390.744 2409,-378.719 2408.57,-363.187 2435,-354.744 2463.06,-345.779 4526.72,-349.973 4556,-346.744 4610.45,-340.739 4670.71,-327.453 4716.98,-315.789"/>
</g>
<!-- 27 -->
<g id="node32" class="node"><title>27</title>
<polygon fill="cyan" stroke="black" stroke-width="2" points="5452.77,-284.272 5452.77,-302.823 5332.23,-315.941 5161.77,-315.941 5041.23,-302.823 5041.23,-284.272 5161.77,-271.155 5332.23,-271.155 5452.77,-284.272"/>
<text text-anchor="middle" x="5247" y="-289.848" font-family="Times,serif" font-size="14.00">Class: FromJSON, Data: ContentType</text>
</g>
<!-- 47&#45;&gt;27 -->
<g id="edge57" class="edge"><title>47&#45;&gt;27</title>
<path fill="none" stroke="navy" d="M2224.41,-437.836C2238.64,-434.017 2253.2,-430.203 2267,-426.744 2336.86,-409.233 2359.65,-421.014 2425,-390.744 2449.2,-379.536 2447.71,-363.216 2473,-354.744 2506.7,-343.452 4996.72,-351.021 5032,-346.744 5081.38,-340.757 5135.82,-327.471 5177.56,-315.802"/>
</g>
<!-- 28 -->
<g id="node33" class="node"><title>28</title>
<polygon fill="bisque" stroke="black" stroke-width="2" points="6720.92,-284.272 6720.92,-302.823 6597.95,-315.941 6424.05,-315.941 6301.08,-302.823 6301.08,-284.272 6424.05,-271.155 6597.95,-271.155 6720.92,-284.272"/>
<text text-anchor="middle" x="6511" y="-289.848" font-family="Times,serif" font-size="14.00">Class: FromJSON, Data: LoginRequest</text>
</g>
<!-- 47&#45;&gt;28 -->
<g id="edge58" class="edge"><title>47&#45;&gt;28</title>
<path fill="none" stroke="navy" d="M2222.39,-437.421C2237.22,-433.55 2252.49,-429.83 2267,-426.744 2370.35,-404.76 2404.79,-432.165 2502,-390.744 2526.21,-380.429 2524.09,-363.217 2549,-354.744 2573.61,-346.373 6266.19,-349.805 6292,-346.744 6342.26,-340.782 6397.72,-327.495 6440.24,-315.82"/>
</g>
<!-- 29 -->
<g id="node34" class="node"><title>29</title>
<polygon fill="bisque" stroke="black" stroke-width="2" points="6283.48,-284.272 6283.48,-302.823 6159.6,-315.941 5984.4,-315.941 5860.52,-302.823 5860.52,-284.272 5984.4,-271.155 6159.6,-271.155 6283.48,-284.272"/>
<text text-anchor="middle" x="6072" y="-289.848" font-family="Times,serif" font-size="14.00">Class: FromJSON, Data: RequestResult</text>
</g>
<!-- 47&#45;&gt;29 -->
<g id="edge59" class="edge"><title>47&#45;&gt;29</title>
<path fill="none" stroke="navy" d="M2223.19,-437.579C2237.78,-433.732 2252.77,-429.978 2267,-426.744 2354.22,-406.919 2383.4,-427.374 2465,-390.744 2488.68,-380.111 2486.47,-363.235 2511,-354.744 2554.85,-339.566 5805.92,-352.191 5852,-346.744 5902.48,-340.776 5958.19,-327.489 6000.91,-315.815"/>
</g>
<!-- 48 -->
<g id="node25" class="node"><title>48</title>
<polygon fill="khaki" stroke="black" stroke-dasharray="1,5" points="2521.86,-450.405 2521.86,-478.434 2451.06,-498.254 2350.94,-498.254 2280.14,-478.434 2280.14,-450.405 2350.94,-430.585 2451.06,-430.585 2521.86,-450.405"/>
<polygon fill="none" stroke="black" stroke-dasharray="1,5" points="2525.86,-447.353 2525.86,-481.487 2451.61,-502.273 2350.39,-502.273 2276.14,-481.487 2276.14,-447.353 2350.39,-426.567 2451.61,-426.567 2525.86,-447.353"/>
<text text-anchor="middle" x="2401" y="-468.22" font-family="Times,serif" font-size="14.00">Unknown Module</text>
<text text-anchor="middle" x="2401" y="-453.22" font-family="Times,serif" font-size="14.00">Class: Read</text>
</g>
<!-- 31 -->
<g id="node35" class="node"><title>31</title>
<polygon fill="cyan" stroke="black" stroke-width="2" points="7097.19,-284.272 7097.19,-302.823 6992.22,-315.941 6843.78,-315.941 6738.81,-302.823 6738.81,-284.272 6843.78,-271.155 6992.22,-271.155 7097.19,-284.272"/>
<text text-anchor="middle" x="6918" y="-289.848" font-family="Times,serif" font-size="14.00">Class: Read, Data: ContentType</text>
</g>
<!-- 48&#45;&gt;31 -->
<g id="edge60" class="edge"><title>48&#45;&gt;31</title>
<path fill="none" stroke="navy" d="M2475.37,-433.101C2544.99,-406.45 2652.61,-369.656 2750,-354.744 2859.28,-338.01 6620.47,-361.778 6730,-346.744 6773.46,-340.778 6821.06,-327.492 6857.49,-315.817"/>
</g>
<!-- 32 -->
<g id="node36" class="node"><title>32</title>
<polygon fill="cyan" stroke="black" stroke-width="2" points="7482.88,-284.272 7482.88,-302.823 7375.16,-315.941 7222.84,-315.941 7115.12,-302.823 7115.12,-284.272 7222.84,-271.155 7375.16,-271.155 7482.88,-284.272"/>
<text text-anchor="middle" x="7299" y="-289.848" font-family="Times,serif" font-size="14.00">Class: Read, Data: PropertySheet</text>
</g>
<!-- 48&#45;&gt;32 -->
<g id="edge61" class="edge"><title>48&#45;&gt;32</title>
<path fill="none" stroke="navy" d="M2491.98,-437.68C2506.34,-433.861 2521.04,-430.089 2535,-426.744 2612.01,-408.282 2805.23,-362.86 2884,-354.744 3000.66,-342.724 6989.76,-362.297 7106,-346.744 7150.55,-340.782 7199.42,-327.496 7236.83,-315.82"/>
</g>
<!-- 35 -->
<g id="node37" class="node"><title>35</title>
<polygon fill="bisque" stroke="black" stroke-width="2" points="4547.28,-284.272 4547.28,-302.823 4441.09,-315.941 4290.91,-315.941 4184.72,-302.823 4184.72,-284.272 4290.91,-271.155 4441.09,-271.155 4547.28,-284.272"/>
<text text-anchor="middle" x="4366" y="-289.848" font-family="Times,serif" font-size="14.00">Class: Show, Data: ContentType</text>
</g>
<!-- 49&#45;&gt;35 -->
<g id="edge62" class="edge"><title>49&#45;&gt;35</title>
<path fill="none" stroke="navy" d="M2176.17,-152.622C2190.76,-156.456 2205.76,-160.178 2220,-163.352 2311.57,-183.759 2337.63,-174.13 2428,-199.352 2470.29,-211.156 2476.92,-226.846 2520,-235.352 2700.43,-270.98 3991.74,-247.867 4175,-263.352 4204.08,-265.81 4235.45,-269.969 4264.2,-274.389"/>
</g>
<!-- 36 -->
<g id="node38" class="node"><title>36</title>
<polygon fill="bisque" stroke="black" stroke-width="2" points="5842.97,-284.272 5842.97,-302.823 5734.03,-315.941 5579.97,-315.941 5471.03,-302.823 5471.03,-284.272 5579.97,-271.155 5734.03,-271.155 5842.97,-284.272"/>
<text text-anchor="middle" x="5657" y="-289.848" font-family="Times,serif" font-size="14.00">Class: Show, Data: PropertySheet</text>
</g>
<!-- 49&#45;&gt;36 -->
<g id="edge63" class="edge"><title>49&#45;&gt;36</title>
<path fill="none" stroke="navy" stroke-width="1.69315" d="M2174.57,-152.979C2189.63,-156.86 2205.2,-160.504 2220,-163.352 2359.24,-190.148 2402.88,-153.341 2537,-199.352 2566.06,-209.32 2566.47,-226.898 2596,-235.352 2749.08,-279.175 5303.27,-250.756 5462,-263.352 5491.86,-265.722 5524.09,-269.882 5553.58,-274.333"/>
</g>
<!-- 50 -->
<g id="node27" class="node"><title>50</title>
<polygon fill="khaki" stroke="black" stroke-dasharray="1,5" points="2789.86,-450.405 2789.86,-478.434 2719.06,-498.254 2618.94,-498.254 2548.14,-478.434 2548.14,-450.405 2618.94,-430.585 2719.06,-430.585 2789.86,-450.405"/>
<polygon fill="none" stroke="black" stroke-dasharray="1,5" points="2793.86,-447.353 2793.86,-481.487 2719.61,-502.273 2618.39,-502.273 2544.14,-481.487 2544.14,-447.353 2618.39,-426.567 2719.61,-426.567 2793.86,-447.353"/>
<text text-anchor="middle" x="2669" y="-468.22" font-family="Times,serif" font-size="14.00">Unknown Module</text>
<text text-anchor="middle" x="2669" y="-453.22" font-family="Times,serif" font-size="14.00">Class: ToJSON</text>
</g>
<!-- 37 -->
<g id="node39" class="node"><title>37</title>
<polygon fill="bisque" stroke="black" stroke-width="2" points="7912.77,-284.272 7912.77,-302.823 7792.23,-315.941 7621.77,-315.941 7501.23,-302.823 7501.23,-284.272 7621.77,-271.155 7792.23,-271.155 7912.77,-284.272"/>
<text text-anchor="middle" x="7707" y="-289.848" font-family="Times,serif" font-size="14.00">Class: ToJSON, Data: (A3Resource a)</text>
</g>
<!-- 50&#45;&gt;37 -->
<g id="edge64" class="edge"><title>50&#45;&gt;37</title>
<path fill="none" stroke="navy" d="M2794,-457.392C3202.2,-438.019 4533.18,-377.297 5635,-354.744 5738.15,-352.632 7389.59,-359.221 7492,-346.744 7541.38,-340.728 7595.82,-327.442 7637.56,-315.78"/>
</g>
<!-- 38 -->
<g id="node40" class="node"><title>38</title>
<polygon fill="bisque" stroke="black" stroke-width="2" points="8337.68,-284.272 8337.68,-302.823 8218.37,-315.941 8049.63,-315.941 7930.32,-302.823 7930.32,-284.272 8049.63,-271.155 8218.37,-271.155 8337.68,-284.272"/>
<text text-anchor="middle" x="8134" y="-289.848" font-family="Times,serif" font-size="14.00">Class: ToJSON, Data: A3UserNoPass</text>
</g>
<!-- 50&#45;&gt;38 -->
<g id="edge65" class="edge"><title>50&#45;&gt;38</title>
<path fill="none" stroke="navy" d="M2793.91,-460.35C3479.87,-443.505 6774.5,-362.762 7228,-354.744 7305.1,-353.38 7845.5,-356.47 7922,-346.744 7970.51,-340.576 8023.96,-327.371 8065.06,-315.786"/>
</g>
<!-- 39 -->
<g id="node41" class="node"><title>39</title>
<polygon fill="bisque" stroke="black" stroke-width="2" points="8780.01,-284.272 8780.01,-302.823 8655.82,-315.941 8480.18,-315.941 8355.99,-302.823 8355.99,-284.272 8480.18,-271.155 8655.82,-271.155 8780.01,-284.272"/>
<text text-anchor="middle" x="8568" y="-289.848" font-family="Times,serif" font-size="14.00">Class: ToJSON, Data: A3UserWithPass</text>
</g>
<!-- 50&#45;&gt;39 -->
<g id="edge66" class="edge"><title>50&#45;&gt;39</title>
<path fill="none" stroke="navy" d="M2793.97,-461.521C3286.92,-453.955 5144.25,-424.708 6673,-390.744 6766.01,-388.677 8254.74,-358.721 8347,-346.744 8397.04,-340.247 8452.29,-327.198 8495.03,-315.773"/>
</g>
<!-- 40 -->
<g id="node42" class="node"><title>40</title>
<polygon fill="bisque" stroke="black" stroke-width="2" points="9639.23,-284.272 9639.23,-302.823 9511.98,-315.941 9332.02,-315.941 9204.77,-302.823 9204.77,-284.272 9332.02,-271.155 9511.98,-271.155 9639.23,-284.272"/>
<text text-anchor="middle" x="9422" y="-289.848" font-family="Times,serif" font-size="14.00">Class: ToJSON, Data: ActivationRequest</text>
</g>
<!-- 50&#45;&gt;40 -->
<g id="edge67" class="edge"><title>50&#45;&gt;40</title>
<path fill="none" stroke="navy" d="M2794.17,-462.969C3387.22,-460.575 5973.64,-447.243 8093,-390.744 8582.99,-377.681 8709.16,-411.723 9195,-346.744 9245.9,-339.935 9302.17,-327.036 9345.95,-315.765"/>
</g>
<!-- 41 -->
<g id="node43" class="node"><title>41</title>
<polygon fill="bisque" stroke="black" stroke-width="2" points="9186.31,-284.272 9186.31,-302.823 9072.48,-315.941 8911.52,-315.941 8797.69,-302.823 8797.69,-284.272 8911.52,-271.155 9072.48,-271.155 9186.31,-284.272"/>
<text text-anchor="middle" x="8992" y="-289.848" font-family="Times,serif" font-size="14.00">Class: ToJSON, Data: ContentType</text>
</g>
<!-- 50&#45;&gt;41 -->
<g id="edge68" class="edge"><title>50&#45;&gt;41</title>
<path fill="none" stroke="navy" d="M2794.31,-462.309C3343.48,-457.274 5592.59,-434.896 7439,-390.744 8039.15,-376.393 8194.73,-431.777 8789,-346.744 8834.93,-340.172 8885.46,-327.199 8924.62,-315.831"/>
</g>
<!-- 42 -->
<g id="node44" class="node"><title>42</title>
<polygon fill="bisque" stroke="black" stroke-width="2" points="10471.5,-284.272 10471.5,-302.823 10355.2,-315.941 10190.8,-315.941 10074.5,-302.823 10074.5,-284.272 10190.8,-271.155 10355.2,-271.155 10471.5,-284.272"/>
<text text-anchor="middle" x="10273" y="-289.848" font-family="Times,serif" font-size="14.00">Class: ToJSON, Data: LoginRequest</text>
</g>
<!-- 50&#45;&gt;42 -->
<g id="edge69" class="edge"><title>50&#45;&gt;42</title>
<path fill="none" stroke="navy" stroke-width="1.69315" d="M2794.03,-463.666C3451.32,-464.613 6573.47,-464.825 9126,-390.744 9544.06,-378.61 9652.27,-407.957 10066,-346.744 10112.4,-339.882 10163.5,-327.056 10203.3,-315.837"/>
</g>
<!-- 43 -->
<g id="node45" class="node"><title>43</title>
<polygon fill="bisque" stroke="black" stroke-width="2" points="10056.5,-284.272 10056.5,-302.823 9939.64,-315.941 9774.36,-315.941 9657.48,-302.823 9657.48,-284.272 9774.36,-271.155 9939.64,-271.155 10056.5,-284.272"/>
<text text-anchor="middle" x="9857" y="-289.848" font-family="Times,serif" font-size="14.00">Class: ToJSON, Data: RequestResult</text>
</g>
<!-- 50&#45;&gt;43 -->
<g id="edge70" class="edge"><title>50&#45;&gt;43</title>
<path fill="none" stroke="navy" stroke-width="1.69315" d="M2794.07,-463.331C3421.11,-462.587 6285.11,-455.623 8629,-390.744 9082.14,-378.201 9199.38,-411.77 9648,-346.744 9695.01,-339.93 9746.81,-327.031 9787.08,-315.761"/>
</g>
<!-- 23&#45;&gt;1 -->
<g id="edge27" class="edge"><title>23&#45;&gt;1</title>
<path fill="none" stroke="black" d="M3826.72,-274.421C3792.87,-270.059 3756.07,-265.921 3722,-263.352 3447.15,-242.632 2754.9,-273.998 2482,-235.352 2420.09,-226.585 2407.57,-210.235 2346,-199.352 2172.84,-168.747 2122.67,-205.662 1952,-163.352 1937.12,-159.663 1921.49,-153.843 1907.59,-147.916"/>
<polygon fill="black" stroke="black" points="1908.85,-144.643 1898.29,-143.82 1906.03,-151.051 1908.85,-144.643"/>
</g>
<!-- 24&#45;&gt;2 -->
<g id="edge28" class="edge"><title>24&#45;&gt;2</title>
<path fill="none" stroke="black" d="M2908.3,-274.8C2875.11,-270.544 2839.24,-266.365 2806,-263.352 2571.52,-242.098 2509.68,-271.27 2277,-235.352 2213.93,-225.617 2201.02,-209.43 2138,-199.352 1889.98,-159.686 1819.52,-216.355 1574,-163.352 1557.24,-159.734 1539.53,-153.732 1523.89,-147.621"/>
<polygon fill="black" stroke="black" points="1525.03,-144.308 1514.44,-143.822 1522.42,-150.802 1525.03,-144.308"/>
</g>
<!-- 24&#45;&gt;13 -->
<g id="edge29" class="edge"><title>24&#45;&gt;13</title>
<path fill="none" stroke="black" d="M2911.91,-274.443C2877.74,-270.023 2840.48,-265.851 2806,-263.352 2066.5,-209.757 1879,-260.944 1138,-235.352 1058.54,-232.608 968.233,-227.744 903.015,-223.92"/>
<polygon fill="black" stroke="black" points="902.958,-220.41 892.769,-223.315 902.546,-227.398 902.958,-220.41"/>
</g>
<!-- 25&#45;&gt;3 -->
<g id="edge30" class="edge"><title>25&#45;&gt;3</title>
<path fill="none" stroke="black" d="M3363.24,-274.555C3328.83,-270.248 3291.54,-266.105 3257,-263.352 2896.15,-234.597 2803.27,-270.617 2443,-235.352 2343.52,-225.615 2320.23,-211.392 2221,-199.352 2024.02,-175.452 1969.88,-205.593 1776,-163.352 1758.79,-159.603 1740.54,-153.631 1724.36,-147.586"/>
<polygon fill="black" stroke="black" points="1725.16,-144.147 1714.57,-143.832 1722.65,-150.682 1725.16,-144.147"/>
</g>
<!-- 25&#45;&gt;13 -->
<g id="edge31" class="edge"><title>25&#45;&gt;13</title>
<path fill="none" stroke="black" d="M3365.4,-274.332C3330.41,-269.926 3292.28,-265.788 3257,-263.352 2787.19,-230.915 1608.68,-250.766 1138,-235.352 1058.53,-232.75 968.229,-227.872 903.013,-224.006"/>
<polygon fill="black" stroke="black" points="902.957,-220.497 892.767,-223.395 902.54,-227.484 902.957,-220.497"/>
</g>
<!-- 26&#45;&gt;4 -->
<g id="edge32" class="edge"><title>26&#45;&gt;4</title>
<path fill="none" stroke="black" d="M4666.4,-274.354C4630.74,-269.962 4591.92,-265.827 4556,-263.352 4155.12,-235.739 3146.98,-283.086 2748,-235.352 2604.12,-218.138 2569.29,-203.309 2430,-163.352 2413.55,-158.635 2395.91,-152.789 2379.87,-147.161"/>
<polygon fill="black" stroke="black" points="2380.72,-143.745 2370.12,-143.697 2378.37,-150.342 2380.72,-143.745"/>
</g>
<!-- 26&#45;&gt;10 -->
<g id="edge33" class="edge"><title>26&#45;&gt;10</title>
<path fill="none" stroke="black" d="M4657.19,-275.236C4624.08,-271.192 4588.79,-267.004 4556,-263.352 3778.25,-176.738 3584.83,-139.991 2804,-88 2213.48,-48.6807 1497.92,-38.0775 1277.14,-35.6441"/>
<polygon fill="black" stroke="black" points="1277.04,-32.1429 1267.01,-35.5343 1276.97,-39.1425 1277.04,-32.1429"/>
</g>
<!-- 26&#45;&gt;49 -->
<g id="edge34" class="edge"><title>26&#45;&gt;49</title>
<path fill="none" stroke="black" d="M4666.4,-274.319C4630.75,-269.927 4591.93,-265.8 4556,-263.352 4445.25,-255.805 2665.71,-262.226 2558,-235.352 2524.06,-226.883 2521.38,-209.833 2488,-199.352 2373.34,-163.346 2337.78,-187.269 2220,-163.352 2208.55,-161.027 2196.64,-158.269 2184.84,-155.325"/>
<polygon fill="black" stroke="black" points="2185.53,-151.889 2174.98,-152.813 2183.81,-158.673 2185.53,-151.889"/>
</g>
<!-- 28&#45;&gt;6 -->
<g id="edge35" class="edge"><title>28&#45;&gt;6</title>
<path fill="none" stroke="black" stroke-width="1.69315" d="M6391.6,-274.553C6359.34,-270.259 6324.39,-266.123 6292,-263.352 4909.21,-145.057 3217.27,-129.143 2804.87,-127.007"/>
<polygon fill="black" stroke="black" stroke-width="1.69315" points="2804.8,-123.506 2794.79,-126.956 2804.77,-130.506 2804.8,-123.506"/>
</g>
<!-- 28&#45;&gt;49 -->
<g id="edge36" class="edge"><title>28&#45;&gt;49</title>
<path fill="none" stroke="black" d="M6393.05,-274.447C6360.39,-270.085 6324.89,-265.941 6292,-263.352 5840.81,-227.842 2667.78,-229.13 2220,-163.352 2207.67,-161.541 2194.85,-158.965 2182.25,-156.009"/>
<polygon fill="black" stroke="black" points="2182.75,-152.528 2172.21,-153.564 2181.09,-159.33 2182.75,-152.528"/>
</g>
<!-- 29&#45;&gt;11 -->
<g id="edge37" class="edge"><title>29&#45;&gt;11</title>
<path fill="none" stroke="black" stroke-width="1.69315" d="M5954.67,-274.276C5921.56,-269.855 5885.44,-265.723 5852,-263.352 5530.57,-240.558 3272.24,-271.142 2952,-235.352 2801.52,-218.535 2764.07,-206.751 2619,-163.352 2604.14,-158.906 2588.3,-153.198 2573.91,-147.617"/>
<polygon fill="black" stroke="black" stroke-width="1.69315" points="2574.79,-144.202 2564.2,-143.79 2572.22,-150.714 2574.79,-144.202"/>
</g>
<!-- 35&#45;&gt;5 -->
<g id="edge40" class="edge"><title>35&#45;&gt;5</title>
<path fill="none" stroke="black" d="M4264.21,-274.371C4235.46,-269.951 4204.08,-265.796 4175,-263.352 3399.41,-198.177 3200.38,-290.258 2424,-235.352 2296.21,-226.315 2265.72,-209.38 2138,-199.352 1884.65,-179.462 1243.58,-216.135 995,-163.352 979.159,-159.989 962.546,-153.992 947.966,-147.81"/>
<polygon fill="black" stroke="black" points="949.271,-144.56 938.707,-143.746 946.458,-150.97 949.271,-144.56"/>
</g>
<!-- 36&#45;&gt;8 -->
<g id="edge41" class="edge"><title>36&#45;&gt;8</title>
<path fill="none" stroke="black" stroke-width="1.69315" d="M5553.58,-274.329C5524.09,-269.878 5491.86,-265.719 5462,-263.352 4813.12,-211.926 3183.1,-268.03 2533,-235.352 2356.94,-226.502 2313.98,-209.755 2138,-199.352 1844.4,-181.996 1103.16,-222.193 815,-163.352 798.679,-160.02 781.524,-154.031 766.454,-147.846"/>
<polygon fill="black" stroke="black" stroke-width="1.69315" points="767.455,-144.468 756.882,-143.779 764.718,-150.911 767.455,-144.468"/>
</g>
<!-- 37&#45;&gt;1 -->
<g id="edge42" class="edge"><title>37&#45;&gt;1</title>
<path fill="none" stroke="black" d="M7592.91,-274.283C7560.4,-269.832 7524.88,-265.683 7492,-263.352 7021.39,-229.986 3717.56,-250.017 3246,-235.352 3174.03,-233.114 2022.18,-179.432 1952,-163.352 1936.79,-159.868 1920.86,-153.978 1906.79,-147.926"/>
<polygon fill="black" stroke="black" points="1907.94,-144.607 1897.38,-143.738 1905.09,-151.002 1907.94,-144.607"/>
</g>
<!-- 38&#45;&gt;2 -->
<g id="edge43" class="edge"><title>38&#45;&gt;2</title>
<path fill="none" stroke="black" d="M8021.24,-274.219C7989.25,-269.782 7954.33,-265.657 7922,-263.352 7352.77,-222.781 3356.13,-260.353 2786,-235.352 2591.31,-226.815 2543.48,-211.876 2349,-199.352 2176.95,-188.273 1742.83,-198.272 1574,-163.352 1557.06,-159.849 1539.18,-153.811 1523.44,-147.633"/>
<polygon fill="black" stroke="black" points="1524.53,-144.299 1513.95,-143.79 1521.91,-150.787 1524.53,-144.299"/>
</g>
<!-- 38&#45;&gt;14 -->
<g id="edge44" class="edge"><title>38&#45;&gt;14</title>
<path fill="none" stroke="black" d="M8021.52,-274.235C7989.45,-269.784 7954.43,-265.647 7922,-263.352 7222.85,-213.878 2314.7,-251.98 1614,-235.352 1505.75,-232.784 1380.92,-226.925 1301.05,-222.807"/>
<polygon fill="black" stroke="black" points="1301.22,-219.311 1291.05,-222.289 1300.86,-226.302 1301.22,-219.311"/>
</g>
<!-- 39&#45;&gt;3 -->
<g id="edge45" class="edge"><title>39&#45;&gt;3</title>
<path fill="none" stroke="black" d="M8450.72,-274.262C8417.29,-269.811 8380.78,-265.667 8347,-263.352 7781.54,-224.604 3812.53,-252.232 3246,-235.352 2950.14,-226.537 2876.63,-213.964 2581,-199.352 2402.15,-190.512 1951.62,-198.314 1776,-163.352 1758.26,-159.82 1739.47,-153.702 1722.96,-147.463"/>
<polygon fill="black" stroke="black" points="1724.13,-144.16 1713.54,-143.795 1721.59,-150.683 1724.13,-144.16"/>
</g>
<!-- 39&#45;&gt;14 -->
<g id="edge46" class="edge"><title>39&#45;&gt;14</title>
<path fill="none" stroke="black" d="M8450.72,-274.233C8417.29,-269.781 8380.79,-265.645 8347,-263.352 7600.6,-212.704 2361.91,-252.995 1614,-235.352 1505.75,-232.799 1380.92,-226.937 1301.05,-222.814"/>
<polygon fill="black" stroke="black" points="1301.22,-219.318 1291.05,-222.295 1300.86,-226.309 1301.22,-219.318"/>
</g>
<!-- 40&#45;&gt;4 -->
<g id="edge47" class="edge"><title>40&#45;&gt;4</title>
<path fill="none" stroke="black" d="M9300.62,-274.38C9266.53,-269.974 9229.38,-265.825 9195,-263.352 8741.89,-230.771 5561.23,-205.962 5107,-199.352 4958.28,-197.188 2576.47,-189.211 2430,-163.352 2411.07,-160.01 2390.98,-153.72 2373.5,-147.28"/>
<polygon fill="black" stroke="black" points="2374.67,-143.982 2364.08,-143.705 2372.19,-150.526 2374.67,-143.982"/>
</g>
<!-- 41&#45;&gt;49 -->
<g id="edge48" class="edge"><title>41&#45;&gt;49</title>
<path fill="none" stroke="black" d="M8883.78,-274.327C8853.22,-269.906 8819.88,-265.762 8789,-263.352 8308.42,-225.851 7101.99,-242.407 6620,-235.352 6375.55,-231.774 2462.02,-197.894 2220,-163.352 2207.66,-161.591 2194.84,-159.046 2182.24,-156.106"/>
<polygon fill="black" stroke="black" points="2182.73,-152.625 2172.19,-153.67 2181.08,-159.428 2182.73,-152.625"/>
</g>
<!-- 42&#45;&gt;6 -->
<g id="edge49" class="edge"><title>42&#45;&gt;6</title>
<path fill="none" stroke="black" stroke-width="1.69315" d="M10161.3,-274.482C10130.5,-270.134 10097,-265.988 10066,-263.352 9104.16,-181.598 8860.08,-220.341 7895,-199.352 5836.64,-154.587 3317.92,-131.796 2804.82,-127.45"/>
<polygon fill="black" stroke="black" stroke-width="1.69315" points="2804.54,-123.948 2794.51,-127.363 2804.48,-130.948 2804.54,-123.948"/>
</g>
<!-- 43&#45;&gt;11 -->
<g id="edge50" class="edge"><title>43&#45;&gt;11</title>
<path fill="none" stroke="black" stroke-width="1.69315" d="M9745.01,-274.426C9713.69,-270.035 9679.59,-265.882 9648,-263.352 8298.69,-155.306 7956.48,-219.69 6603,-199.352 6381.68,-196.027 2836.41,-204.88 2619,-163.352 2602.03,-160.111 2584.17,-154 2568.58,-147.683"/>
<polygon fill="black" stroke="black" stroke-width="1.69315" points="2569.77,-144.385 2559.19,-143.747 2567.06,-150.841 2569.77,-144.385"/>
</g>
</g>
</svg>
