<?xml version="1.0" encoding="UTF-8" standalone="no"?>
<!DOCTYPE svg PUBLIC "-//W3C//DTD SVG 1.1//EN"
 "http://www.w3.org/Graphics/SVG/1.1/DTD/svg11.dtd">
<!-- Generated by graphviz version 2.38.0 (20140413.2041)
 -->
<!-- Title: Levels within Thentos.Frontend Pages: 1 -->
<svg width="1096pt" height="562pt"
 viewBox="0.00 0.00 1096.00 561.74" xmlns="http://www.w3.org/2000/svg" xmlns:xlink="http://www.w3.org/1999/xlink">
<g id="graph0" class="graph" transform="scale(1 1) rotate(0) translate(4 557.744)">
<title>Levels within Thentos.Frontend</title>
<polygon fill="white" stroke="none" points="-4,4 -4,-557.744 1092,-557.744 1092,4 -4,4"/>
<g id="clust1" class="cluster"><title>cluster_0</title>
<polygon fill="lavender" stroke="black" points="251,-431.391 251,-545.744 705,-545.744 705,-431.391 251,-431.391"/>
<text text-anchor="middle" x="478" y="-530.544" font-family="Times,serif" font-size="14.00">Exported root entities</text>
</g>
<g id="clust2" class="cluster"><title>cluster_1</title>
<polygon fill="lavender" stroke="black" points="152,-340 152,-423.391 740,-423.391 740,-340 152,-340"/>
<text text-anchor="middle" x="446" y="-408.191" font-family="Times,serif" font-size="14.00">Level = 1</text>
</g>
<g id="clust3" class="cluster"><title>cluster_2</title>
<polygon fill="lavender" stroke="black" points="520,-257 520,-332 810,-332 810,-257 520,-257"/>
<text text-anchor="middle" x="665" y="-316.8" font-family="Times,serif" font-size="14.00">Level = 2</text>
</g>
<g id="clust4" class="cluster"><title>cluster_3</title>
<polygon fill="lavender" stroke="black" points="8,-174 8,-249 1080,-249 1080,-174 8,-174"/>
<text text-anchor="middle" x="544" y="-233.8" font-family="Times,serif" font-size="14.00">Level = 3</text>
</g>
<g id="clust5" class="cluster"><title>cluster_4</title>
<polygon fill="lavender" stroke="black" points="401,-91 401,-166 563,-166 563,-91 401,-91"/>
<text text-anchor="middle" x="482" y="-150.8" font-family="Times,serif" font-size="14.00">Level = 4</text>
</g>
<g id="clust6" class="cluster"><title>cluster_5</title>
<polygon fill="lavender" stroke="black" points="402,-8 402,-83 562,-83 562,-8 402,-8"/>
<text text-anchor="middle" x="482" y="-67.8" font-family="Times,serif" font-size="14.00">Level = 5</text>
</g>
<!-- 11 -->
<g id="node1" class="node"><title>11</title>
<polygon fill="gold" stroke="black" stroke-width="2" points="696.5,-495.067 571.5,-495.067 571.5,-459.067 696.5,-459.067 696.5,-495.067"/>
<text text-anchor="middle" x="634" y="-473.367" font-family="Times,serif" font-size="14.00">runFrontend</text>
</g>
<!-- 6 -->
<g id="node3" class="node"><title>6</title>
<polygon fill="bisque" stroke="black" stroke-width="2" points="732,-388.196 604,-388.196 604,-352.196 732,-352.196 732,-388.196"/>
<text text-anchor="middle" x="668" y="-366.496" font-family="Times,serif" font-size="14.00">frontendApp</text>
</g>
<!-- 11&#45;&gt;6 -->
<g id="edge10" class="edge"><title>11&#45;&gt;6</title>
<path fill="none" stroke="chartreuse" d="M639.614,-458.75C644.954,-442.279 653.068,-417.252 659.255,-398.168"/>
<polygon fill="chartreuse" stroke="chartreuse" points="662.623,-399.131 662.377,-388.539 655.964,-396.972 662.623,-399.131"/>
</g>
<!-- 17 -->
<g id="node2" class="node"><title>17</title>
<polygon fill="khaki" stroke="black" stroke-dasharray="5,2" points="549.244,-463.053 549.244,-491.082 465.334,-510.902 346.666,-510.902 262.756,-491.082 262.756,-463.053 346.666,-443.233 465.334,-443.233 549.244,-463.053"/>
<polygon fill="none" stroke="black" stroke-dasharray="5,2" points="553.247,-459.87 553.247,-494.265 465.798,-514.921 346.202,-514.921 258.753,-494.265 258.753,-459.87 346.202,-439.214 465.798,-439.214 553.247,-459.87"/>
<text text-anchor="middle" x="406" y="-480.867" font-family="Times,serif" font-size="14.00">Snap.Snaplet.AcidState</text>
<text text-anchor="middle" x="406" y="-465.867" font-family="Times,serif" font-size="14.00">Class: HasAcid</text>
</g>
<!-- 7 -->
<g id="node4" class="node"><title>7</title>
<polygon fill="cyan" stroke="black" stroke-width="2" points="585.544,-360.92 585.544,-379.471 461.039,-392.589 284.961,-392.589 160.456,-379.471 160.456,-360.92 284.961,-347.803 461.039,-347.803 585.544,-360.92"/>
<text text-anchor="middle" x="373" y="-366.496" font-family="Times,serif" font-size="14.00">Class: HasAcid, Data: FrontendApp DB</text>
</g>
<!-- 17&#45;&gt;7 -->
<g id="edge14" class="edge"><title>17&#45;&gt;7</title>
<path fill="none" stroke="navy" d="M394.458,-439.388C389.514,-423.677 383.915,-405.884 379.677,-392.414"/>
</g>
<!-- 1 -->
<g id="node5" class="node"><title>1</title>
<polygon fill="cyan" stroke="black" stroke-width="2" points="802,-301 642,-301 638,-297 638,-265 798,-265 802,-269 802,-301"/>
<polyline fill="none" stroke="black" stroke-width="2" points="798,-297 638,-297 "/>
<polyline fill="none" stroke="black" stroke-width="2" points="798,-297 798,-265 "/>
<polyline fill="none" stroke="black" stroke-width="2" points="798,-297 802,-301 "/>
<text text-anchor="middle" x="720" y="-279.3" font-family="Times,serif" font-size="14.00">Data: FrontendApp</text>
</g>
<!-- 6&#45;&gt;1 -->
<g id="edge1" class="edge"><title>6&#45;&gt;1</title>
<path fill="none" stroke="black" d="M678.523,-351.955C685.853,-339.945 695.764,-323.708 704.059,-310.117"/>
<polygon fill="black" stroke="black" points="707.27,-311.574 709.493,-301.215 701.295,-307.927 707.27,-311.574"/>
</g>
<!-- 10 -->
<g id="node6" class="node"><title>10</title>
<polygon fill="bisque" stroke="black" stroke-width="2" points="620,-301 528,-301 528,-265 620,-265 620,-301"/>
<text text-anchor="middle" x="574" y="-279.3" font-family="Times,serif" font-size="14.00">routes</text>
</g>
<!-- 6&#45;&gt;10 -->
<g id="edge2" class="edge"><title>6&#45;&gt;10</title>
<path fill="none" stroke="black" d="M648.978,-351.955C635.09,-339.368 616.078,-322.137 600.674,-308.176"/>
<polygon fill="black" stroke="black" points="602.754,-305.337 592.994,-301.215 598.053,-310.524 602.754,-305.337"/>
</g>
<!-- 5 -->
<g id="node7" class="node"><title>5</title>
<polygon fill="cyan" stroke="black" stroke-width="2" points="1072,-218 910,-218 910,-182 1072,-182 1072,-218"/>
<text text-anchor="middle" x="991" y="-196.3" font-family="Times,serif" font-size="14.00">addServiceHandler</text>
</g>
<!-- 10&#45;&gt;5 -->
<g id="edge4" class="edge"><title>10&#45;&gt;5</title>
<path fill="none" stroke="black" d="M605.819,-264.974C613.233,-261.737 621.235,-258.802 629,-257 687.905,-243.331 842.557,-264.527 901,-249 920.928,-243.706 941.347,-233.297 957.687,-223.523"/>
<polygon fill="black" stroke="black" points="959.647,-226.426 966.317,-218.194 955.969,-220.47 959.647,-226.426"/>
</g>
<!-- 8 -->
<g id="node8" class="node"><title>8</title>
<polygon fill="bisque" stroke="black" stroke-width="2" points="892,-218 762,-218 762,-182 892,-182 892,-218"/>
<text text-anchor="middle" x="827" y="-196.3" font-family="Times,serif" font-size="14.00">loginHandler</text>
</g>
<!-- 10&#45;&gt;8 -->
<g id="edge5" class="edge"><title>10&#45;&gt;8</title>
<path fill="none" stroke="black" d="M606.454,-264.92C613.699,-261.771 621.471,-258.887 629,-257 682.569,-243.576 700.577,-266.368 753,-249 769.336,-243.588 785.59,-233.677 798.686,-224.26"/>
<polygon fill="black" stroke="black" points="800.888,-226.984 806.805,-218.196 796.699,-221.376 800.888,-226.984"/>
</g>
<!-- 9 -->
<g id="node9" class="node"><title>9</title>
<polygon fill="cyan" stroke="black" stroke-width="2" points="744,-218 588,-218 588,-182 744,-182 744,-218"/>
<text text-anchor="middle" x="666" y="-196.3" font-family="Times,serif" font-size="14.00">mainPageHandler</text>
</g>
<!-- 10&#45;&gt;9 -->
<g id="edge6" class="edge"><title>10&#45;&gt;9</title>
<path fill="none" stroke="black" d="M593.511,-264.822C606.684,-253.224 624.254,-237.755 638.797,-224.951"/>
<polygon fill="black" stroke="black" points="641.325,-227.388 646.517,-218.153 636.699,-222.134 641.325,-227.388"/>
</g>
<!-- 12 -->
<g id="node10" class="node"><title>12</title>
<polygon fill="bisque" stroke="black" stroke-width="2" points="570,-218 394,-218 394,-182 570,-182 570,-218"/>
<text text-anchor="middle" x="482" y="-196.3" font-family="Times,serif" font-size="14.00">serviceAddedHandler</text>
</g>
<!-- 10&#45;&gt;12 -->
<g id="edge7" class="edge"><title>10&#45;&gt;12</title>
<path fill="none" stroke="black" d="M554.489,-264.822C541.316,-253.224 523.746,-237.755 509.203,-224.951"/>
<polygon fill="black" stroke="black" points="511.301,-222.134 501.483,-218.153 506.675,-227.388 511.301,-222.134"/>
</g>
<!-- 15 -->
<g id="node11" class="node"><title>15</title>
<polygon fill="cyan" stroke="black" stroke-width="2" points="376,-218 182,-218 182,-182 376,-182 376,-218"/>
<text text-anchor="middle" x="279" y="-196.3" font-family="Times,serif" font-size="14.00">userAddConfirmHandler</text>
</g>
<!-- 10&#45;&gt;15 -->
<g id="edge8" class="edge"><title>10&#45;&gt;15</title>
<path fill="none" stroke="black" d="M527.793,-277.235C489.05,-272.46 432.587,-263.67 385,-249 362.935,-242.198 339.443,-231.901 320.197,-222.587"/>
<polygon fill="black" stroke="black" points="321.632,-219.392 311.114,-218.113 318.538,-225.672 321.632,-219.392"/>
</g>
<!-- 16 -->
<g id="node12" class="node"><title>16</title>
<polygon fill="bisque" stroke="black" stroke-width="2" points="164,-218 16,-218 16,-182 164,-182 164,-218"/>
<text text-anchor="middle" x="90" y="-196.3" font-family="Times,serif" font-size="14.00">userAddHandler</text>
</g>
<!-- 10&#45;&gt;16 -->
<g id="edge9" class="edge"><title>10&#45;&gt;16</title>
<path fill="none" stroke="black" d="M527.968,-280.747C437.153,-277.86 238.083,-269.362 173,-249 154.976,-243.361 136.626,-233.293 121.779,-223.829"/>
<polygon fill="black" stroke="black" points="123.298,-220.638 113.022,-218.059 119.447,-226.483 123.298,-220.638"/>
</g>
<!-- 14 -->
<g id="node13" class="node"><title>14</title>
<polygon fill="bisque" stroke="black" stroke-width="2" points="554.5,-135 409.5,-135 409.5,-99 554.5,-99 554.5,-135"/>
<text text-anchor="middle" x="482" y="-113.3" font-family="Times,serif" font-size="14.00">snapRunAction&#39;</text>
</g>
<!-- 8&#45;&gt;14 -->
<g id="edge3" class="edge"><title>8&#45;&gt;14</title>
<path fill="none" stroke="black" d="M779.494,-181.999C770.741,-179.138 761.638,-176.342 753,-174 690.469,-157.045 618.616,-142.413 564.615,-132.362"/>
<polygon fill="black" stroke="black" points="565.215,-128.913 554.746,-130.539 563.944,-135.797 565.215,-128.913"/>
</g>
<!-- 12&#45;&gt;14 -->
<g id="edge11" class="edge"><title>12&#45;&gt;14</title>
<path fill="none" stroke="black" d="M482,-181.822C482,-171.19 482,-157.306 482,-145.204"/>
<polygon fill="black" stroke="black" points="485.5,-145.153 482,-135.153 478.5,-145.153 485.5,-145.153"/>
</g>
<!-- 16&#45;&gt;14 -->
<g id="edge13" class="edge"><title>16&#45;&gt;14</title>
<path fill="none" stroke="black" d="M143.335,-181.965C153.148,-179.108 163.343,-176.322 173,-174 248.949,-155.742 336.672,-140.38 399.201,-130.392"/>
<polygon fill="black" stroke="black" points="400.075,-133.797 409.404,-128.774 398.979,-126.883 400.075,-133.797"/>
</g>
<!-- 13 -->
<g id="node14" class="node"><title>13</title>
<polygon fill="cyan" stroke="black" stroke-width="2" points="553.5,-52 410.5,-52 410.5,-16 553.5,-16 553.5,-52"/>
<text text-anchor="middle" x="482" y="-30.3" font-family="Times,serif" font-size="14.00">snapRunAction</text>
</g>
<!-- 14&#45;&gt;13 -->
<g id="edge12" class="edge"><title>14&#45;&gt;13</title>
<path fill="none" stroke="chartreuse" d="M482,-98.822C482,-88.1903 482,-74.306 482,-62.2035"/>
<polygon fill="chartreuse" stroke="chartreuse" points="485.5,-62.1532 482,-52.1533 478.5,-62.1533 485.5,-62.1532"/>
</g>
</g>
</svg>
