<?xml version="1.0" encoding="UTF-8" standalone="no"?>
<!DOCTYPE svg PUBLIC "-//W3C//DTD SVG 1.1//EN"
 "http://www.w3.org/Graphics/SVG/1.1/DTD/svg11.dtd">
<!-- Generated by graphviz version 2.38.0 (20140413.2041)
 -->
<!-- Title: Levels within Thentos.Doc Pages: 1 -->
<svg width="8704pt" height="230pt"
 viewBox="0.00 0.00 8704.00 229.74" xmlns="http://www.w3.org/2000/svg" xmlns:xlink="http://www.w3.org/1999/xlink">
<g id="graph0" class="graph" transform="scale(1 1) rotate(0) translate(4 225.744)">
<title>Levels within Thentos.Doc</title>
<polygon fill="white" stroke="none" points="-4,4 -4,-225.744 8700,-225.744 8700,4 -4,4"/>
<g id="clust1" class="cluster"><title>cluster_0</title>
<polygon fill="lavender" stroke="black" points="4231,-99.3913 4231,-213.744 4755,-213.744 4755,-99.3913 4231,-99.3913"/>
<text text-anchor="middle" x="4493" y="-198.544" font-family="Times,serif" font-size="14.00">Exported root entities</text>
</g>
<g id="clust2" class="cluster"><title>cluster_1</title>
<polygon fill="lavender" stroke="black" points="8,-8 8,-91.3913 8688,-91.3913 8688,-8 8,-8"/>
<text text-anchor="middle" x="4348" y="-76.1913" font-family="Times,serif" font-size="14.00">Level = 1</text>
</g>
<!-- 21 -->
<g id="node1" class="node"><title>21</title>
<polygon fill="khaki" stroke="black" stroke-dasharray="5,2" points="4743.18,-131.053 4743.18,-159.082 4675.12,-178.902 4578.88,-178.902 4510.82,-159.082 4510.82,-131.053 4578.88,-111.233 4675.12,-111.233 4743.18,-131.053"/>
<polygon fill="none" stroke="black" stroke-dasharray="5,2" points="4747.17,-128.032 4747.17,-162.103 4675.69,-182.921 4578.31,-182.921 4506.83,-162.103 4506.83,-128.032 4578.31,-107.214 4675.69,-107.214 4747.17,-128.032"/>
<text text-anchor="middle" x="4627" y="-148.867" font-family="Times,serif" font-size="14.00">Servant.Docs</text>
<text text-anchor="middle" x="4627" y="-133.867" font-family="Times,serif" font-size="14.00">Class: ToSample</text>
</g>
<!-- 4 -->
<g id="node6" class="node"><title>4</title>
<polygon fill="cyan" stroke="black" stroke-width="2" points="7449.68,-28.9201 7449.68,-47.4711 7359.66,-60.5887 7232.34,-60.5887 7142.32,-47.4711 7142.32,-28.9201 7232.34,-15.8026 7359.66,-15.8026 7449.68,-28.9201"/>
<text text-anchor="middle" x="7296" y="-34.4956" font-family="Times,serif" font-size="14.00">Class: ToSample, Data: ()</text>
</g>
<!-- 21&#45;&gt;4 -->
<g id="edge4" class="edge"><title>21&#45;&gt;4</title>
<path fill="none" stroke="navy" d="M4747.33,-143.576C5214.9,-141.387 6896.86,-130.823 7133,-91.3913 7170.66,-85.1024 7211.58,-71.9759 7243,-60.4607"/>
</g>
<!-- 5 -->
<g id="node7" class="node"><title>5</title>
<polygon fill="cyan" stroke="black" stroke-width="2" points="7124.43,-28.9201 7124.43,-47.4711 6979.49,-60.5887 6774.51,-60.5887 6629.57,-47.4711 6629.57,-28.9201 6774.51,-15.8026 6979.49,-15.8026 7124.43,-28.9201"/>
<text text-anchor="middle" x="6877" y="-34.4956" font-family="Times,serif" font-size="14.00">Class: ToSample, Data: (ServiceId, ServiceKey)</text>
</g>
<!-- 21&#45;&gt;5 -->
<g id="edge5" class="edge"><title>21&#45;&gt;5</title>
<path fill="none" stroke="navy" d="M4747.5,-143.644C5120.84,-141.898 6255.11,-133.2 6621,-91.3913 6678.57,-84.8129 6742.43,-71.802 6791.97,-60.4168"/>
</g>
<!-- 6 -->
<g id="node8" class="node"><title>6</title>
<polygon fill="cyan" stroke="black" stroke-width="2" points="6611.52,-28.9201 6611.52,-47.4711 6465.35,-60.5887 6258.65,-60.5887 6112.48,-47.4711 6112.48,-28.9201 6258.65,-15.8026 6465.35,-15.8026 6611.52,-28.9201"/>
<text text-anchor="middle" x="6362" y="-34.4956" font-family="Times,serif" font-size="14.00">Class: ToSample, Data: (SessionToken, Session)</text>
</g>
<!-- 21&#45;&gt;6 -->
<g id="edge6" class="edge"><title>21&#45;&gt;6</title>
<path fill="none" stroke="navy" d="M4747.21,-142.308C5050.59,-137.459 5841.66,-122.179 6103,-91.3913 6160.85,-84.5756 6225.05,-71.6765 6275.05,-60.4073"/>
</g>
<!-- 7 -->
<g id="node9" class="node"><title>7</title>
<polygon fill="bisque" stroke="black" stroke-width="2" points="6094.13,-28.9201 6094.13,-47.4711 5961.08,-60.5887 5772.92,-60.5887 5639.87,-47.4711 5639.87,-28.9201 5772.92,-15.8026 5961.08,-15.8026 6094.13,-28.9201"/>
<text text-anchor="middle" x="5867" y="-34.4956" font-family="Times,serif" font-size="14.00">Class: ToSample, Data: (UserId, ServiceId)</text>
</g>
<!-- 21&#45;&gt;7 -->
<g id="edge7" class="edge"><title>21&#45;&gt;7</title>
<path fill="none" stroke="navy" d="M4747.49,-144.15C4937.88,-142.916 5319.33,-134.688 5639,-91.3913 5691.61,-84.2663 5749.84,-71.5106 5794.35,-60.393"/>
</g>
<!-- 8 -->
<g id="node10" class="node"><title>8</title>
<polygon fill="bisque" stroke="black" stroke-width="2" points="5621.47,-28.9201 5621.47,-47.4711 5490.57,-60.5887 5305.43,-60.5887 5174.53,-47.4711 5174.53,-28.9201 5305.43,-15.8026 5490.57,-15.8026 5621.47,-28.9201"/>
<text text-anchor="middle" x="5398" y="-34.4956" font-family="Times,serif" font-size="14.00">Class: ToSample, Data: (UserId, Timeout)</text>
</g>
<!-- 21&#45;&gt;8 -->
<g id="edge8" class="edge"><title>21&#45;&gt;8</title>
<path fill="none" stroke="navy" d="M4747.27,-137.03C4858.59,-129.292 5028.28,-114.756 5174,-91.3913 5224.14,-83.3516 5279.65,-71.0546 5322.92,-60.4155"/>
</g>
<!-- 9 -->
<g id="node11" class="node"><title>9</title>
<polygon fill="cyan" stroke="black" stroke-width="2" points="5156.42,-28.9201 5156.42,-47.4711 5055.42,-60.5887 4912.58,-60.5887 4811.58,-47.4711 4811.58,-28.9201 4912.58,-15.8026 5055.42,-15.8026 5156.42,-28.9201"/>
<text text-anchor="middle" x="4984" y="-34.4956" font-family="Times,serif" font-size="14.00">Class: ToSample, Data: Agent</text>
</g>
<!-- 21&#45;&gt;9 -->
<g id="edge9" class="edge"><title>21&#45;&gt;9</title>
<path fill="none" stroke="navy" d="M4714.33,-118.413C4774.92,-100.615 4854.66,-77.1911 4911.68,-60.4395"/>
</g>
<!-- 10 -->
<g id="node12" class="node"><title>10</title>
<polygon fill="cyan" stroke="black" stroke-width="2" points="4793.7,-28.9201 4793.7,-47.4711 4696.05,-60.5887 4557.95,-60.5887 4460.3,-47.4711 4460.3,-28.9201 4557.95,-15.8026 4696.05,-15.8026 4793.7,-28.9201"/>
<text text-anchor="middle" x="4627" y="-34.4956" font-family="Times,serif" font-size="14.00">Class: ToSample, Data: Bool</text>
</g>
<!-- 21&#45;&gt;10 -->
<g id="edge10" class="edge"><title>21&#45;&gt;10</title>
<path fill="none" stroke="navy" d="M4627,-107.388C4627,-91.6767 4627,-73.8844 4627,-60.4141"/>
</g>
<!-- 11 -->
<g id="node13" class="node"><title>11</title>
<polygon fill="cyan" stroke="black" stroke-width="2" points="4442,-28.9201 4442,-47.4711 4332.46,-60.5887 4177.54,-60.5887 4068,-47.4711 4068,-28.9201 4177.54,-15.8026 4332.46,-15.8026 4442,-28.9201"/>
<text text-anchor="middle" x="4255" y="-34.4956" font-family="Times,serif" font-size="14.00">Class: ToSample, Data: ServiceId</text>
</g>
<!-- 21&#45;&gt;11 -->
<g id="edge11" class="edge"><title>21&#45;&gt;11</title>
<path fill="none" stroke="navy" d="M4550.55,-115.269C4533.42,-109.469 4515.22,-103.806 4498,-99.3913 4477.47,-94.1285 4471.7,-95.9002 4451,-91.3913 4410.23,-82.5119 4365.2,-70.669 4328.6,-60.5088"/>
</g>
<!-- 12 -->
<g id="node14" class="node"><title>12</title>
<polygon fill="bisque" stroke="black" stroke-width="2" points="4050.16,-28.9201 4050.16,-47.4711 3945.8,-60.5887 3798.2,-60.5887 3693.84,-47.4711 3693.84,-28.9201 3798.2,-15.8026 3945.8,-15.8026 4050.16,-28.9201"/>
<text text-anchor="middle" x="3872" y="-34.4956" font-family="Times,serif" font-size="14.00">Class: ToSample, Data: Session</text>
</g>
<!-- 21&#45;&gt;12 -->
<g id="edge12" class="edge"><title>21&#45;&gt;12</title>
<path fill="none" stroke="navy" d="M4558.39,-112.857C4541.84,-107.351 4524.03,-102.417 4507,-99.3913 4410.93,-82.3254 4164.54,-105.51 4068,-91.3913 4025.14,-85.1241 3978.19,-71.9975 3940.92,-60.4768"/>
</g>
<!-- 13 -->
<g id="node15" class="node"><title>13</title>
<polygon fill="cyan" stroke="black" stroke-width="2" points="3676.24,-28.9201 3676.24,-47.4711 3556.01,-60.5887 3385.99,-60.5887 3265.76,-47.4711 3265.76,-28.9201 3385.99,-15.8026 3556.01,-15.8026 3676.24,-28.9201"/>
<text text-anchor="middle" x="3471" y="-34.4956" font-family="Times,serif" font-size="14.00">Class: ToSample, Data: SessionToken</text>
</g>
<!-- 21&#45;&gt;13 -->
<g id="edge13" class="edge"><title>21&#45;&gt;13</title>
<path fill="none" stroke="navy" d="M4554.07,-114.23C4536.04,-108.137 4516.57,-102.609 4498,-99.3913 4408.99,-83.9636 3774.64,-102.613 3685,-91.3913 3636.05,-85.2635 3582.09,-72.0578 3540.61,-60.4633"/>
</g>
<!-- 14 -->
<g id="node16" class="node"><title>14</title>
<polygon fill="cyan" stroke="black" stroke-width="2" points="3248.21,-28.9201 3248.21,-47.4711 3135.62,-60.5887 2976.38,-60.5887 2863.79,-47.4711 2863.79,-28.9201 2976.38,-15.8026 3135.62,-15.8026 3248.21,-28.9201"/>
<text text-anchor="middle" x="3056" y="-34.4956" font-family="Times,serif" font-size="14.00">Class: ToSample, Data: UserEmail</text>
</g>
<!-- 21&#45;&gt;14 -->
<g id="edge14" class="edge"><title>21&#45;&gt;14</title>
<path fill="none" stroke="navy" d="M4554.08,-114.185C4536.05,-108.093 4516.57,-102.578 4498,-99.3913 4430.05,-87.7321 3325.36,-100.347 3257,-91.3913 3210.71,-85.3269 3159.81,-72.0414 3120.82,-60.3924"/>
</g>
<!-- 15 -->
<g id="node17" class="node"><title>15</title>
<polygon fill="cyan" stroke="black" stroke-width="2" points="2845.89,-28.9201 2845.89,-47.4711 2723.53,-60.5887 2550.47,-60.5887 2428.11,-47.4711 2428.11,-28.9201 2550.47,-15.8026 2723.53,-15.8026 2845.89,-28.9201"/>
<text text-anchor="middle" x="2637" y="-34.4956" font-family="Times,serif" font-size="14.00">Class: ToSample, Data: UserFormData</text>
</g>
<!-- 21&#45;&gt;15 -->
<g id="edge15" class="edge"><title>21&#45;&gt;15</title>
<path fill="none" stroke="navy" d="M4554.08,-114.164C4536.05,-108.073 4516.57,-102.563 4498,-99.3913 4408.02,-84.0264 2945.62,-102.313 2855,-91.3913 2804.96,-85.3612 2749.77,-72.0754 2707.43,-60.4176"/>
</g>
<!-- 16 -->
<g id="node18" class="node"><title>16</title>
<polygon fill="cyan" stroke="black" stroke-width="2" points="2410.04,-28.9201 2410.04,-47.4711 2307.5,-60.5887 2162.5,-60.5887 2059.96,-47.4711 2059.96,-28.9201 2162.5,-15.8026 2307.5,-15.8026 2410.04,-28.9201"/>
<text text-anchor="middle" x="2235" y="-34.4956" font-family="Times,serif" font-size="14.00">Class: ToSample, Data: UserId</text>
</g>
<!-- 21&#45;&gt;16 -->
<g id="edge16" class="edge"><title>21&#45;&gt;16</title>
<path fill="none" stroke="navy" d="M4554.08,-114.15C4536.05,-108.06 4516.57,-102.553 4498,-99.3913 4384.14,-80.0073 2533.37,-107.523 2419,-91.3913 2376.42,-85.3854 2329.84,-72.0992 2294.19,-60.4353"/>
</g>
<!-- 17 -->
<g id="node19" class="node"><title>17</title>
<polygon fill="cyan" stroke="black" stroke-width="2" points="2042.21,-28.9201 2042.21,-47.4711 1929.62,-60.5887 1770.38,-60.5887 1657.79,-47.4711 1657.79,-28.9201 1770.38,-15.8026 1929.62,-15.8026 2042.21,-28.9201"/>
<text text-anchor="middle" x="1850" y="-34.4956" font-family="Times,serif" font-size="14.00">Class: ToSample, Data: UserName</text>
</g>
<!-- 21&#45;&gt;17 -->
<g id="edge17" class="edge"><title>21&#45;&gt;17</title>
<path fill="none" stroke="navy" d="M4554.09,-114.143C4536.06,-108.053 4516.58,-102.548 4498,-99.3913 4430.99,-88.0031 2118.41,-100.113 2051,-91.3913 2004.7,-85.4004 1953.81,-72.1141 1914.82,-60.4463"/>
</g>
<!-- 18 -->
<g id="node20" class="node"><title>18</title>
<polygon fill="cyan" stroke="black" stroke-width="2" points="8679.78,-28.9201 8679.78,-47.4711 8566.26,-60.5887 8405.74,-60.5887 8292.22,-47.4711 8292.22,-28.9201 8405.74,-15.8026 8566.26,-15.8026 8679.78,-28.9201"/>
<text text-anchor="middle" x="8486" y="-34.4956" font-family="Times,serif" font-size="14.00">Class: ToSample, Data: [ServiceId]</text>
</g>
<!-- 21&#45;&gt;18 -->
<g id="edge18" class="edge"><title>21&#45;&gt;18</title>
<path fill="none" stroke="navy" d="M4747.26,-144.03C5338.94,-143.615 7926.73,-139.071 8283,-91.3913 8329.35,-85.1887 8380.31,-72.0619 8419.58,-60.5249"/>
</g>
<!-- 19 -->
<g id="node21" class="node"><title>19</title>
<polygon fill="cyan" stroke="black" stroke-width="2" points="8274.01,-28.9201 8274.01,-47.4711 8149.82,-60.5887 7974.18,-60.5887 7849.99,-47.4711 7849.99,-28.9201 7974.18,-15.8026 8149.82,-15.8026 8274.01,-28.9201"/>
<text text-anchor="middle" x="8062" y="-34.4956" font-family="Times,serif" font-size="14.00">Class: ToSample, Data: [SessionToken]</text>
</g>
<!-- 21&#45;&gt;19 -->
<g id="edge19" class="edge"><title>21&#45;&gt;19</title>
<path fill="none" stroke="navy" d="M4747.35,-143.631C5294.04,-141.441 7530.29,-130.169 7841,-91.3913 7891.27,-85.1176 7946.76,-71.9911 7989.56,-60.472"/>
</g>
<!-- 20 -->
<g id="node22" class="node"><title>20</title>
<polygon fill="cyan" stroke="black" stroke-width="2" points="7832.31,-28.9201 7832.31,-47.4711 7725.52,-60.5887 7574.48,-60.5887 7467.69,-47.4711 7467.69,-28.9201 7574.48,-15.8026 7725.52,-15.8026 7832.31,-28.9201"/>
<text text-anchor="middle" x="7650" y="-34.4956" font-family="Times,serif" font-size="14.00">Class: ToSample, Data: [UserId]</text>
</g>
<!-- 21&#45;&gt;20 -->
<g id="edge20" class="edge"><title>21&#45;&gt;20</title>
<path fill="none" stroke="navy" d="M4747.59,-143.588C5253.19,-141.338 7188.55,-130.244 7459,-91.3913 7502.72,-85.1101 7550.68,-71.9836 7587.6,-60.4664"/>
</g>
<!-- 22 -->
<g id="node2" class="node"><title>22</title>
<polygon fill="khaki" stroke="black" stroke-dasharray="1,5" points="4484.86,-131.053 4484.86,-159.082 4414.06,-178.902 4313.94,-178.902 4243.14,-159.082 4243.14,-131.053 4313.94,-111.233 4414.06,-111.233 4484.86,-131.053"/>
<polygon fill="none" stroke="black" stroke-dasharray="1,5" points="4488.86,-128 4488.86,-162.135 4414.61,-182.921 4313.39,-182.921 4239.14,-162.135 4239.14,-128 4313.39,-107.214 4414.61,-107.214 4488.86,-128"/>
<text text-anchor="middle" x="4364" y="-148.867" font-family="Times,serif" font-size="14.00">Unknown Module</text>
<text text-anchor="middle" x="4364" y="-133.867" font-family="Times,serif" font-size="14.00">Class: ToCapture</text>
</g>
<!-- 1 -->
<g id="node3" class="node"><title>1</title>
<polygon fill="cyan" stroke="black" stroke-width="2" points="1640.2,-28.9201 1640.2,-47.4711 1491.29,-60.5887 1280.71,-60.5887 1131.8,-47.4711 1131.8,-28.9201 1280.71,-15.8026 1491.29,-15.8026 1640.2,-28.9201"/>
<text text-anchor="middle" x="1386" y="-34.4956" font-family="Times,serif" font-size="14.00">Class: ToCapture, Data: (Capture &quot;sid&quot; ServiceId)</text>
</g>
<!-- 22&#45;&gt;1 -->
<g id="edge21" class="edge"><title>22&#45;&gt;1</title>
<path fill="none" stroke="navy" d="M4238.86,-144.571C3775.94,-145.979 2160.92,-146.718 1649,-91.3913 1589.64,-84.9764 1523.75,-71.889 1472.77,-60.4246"/>
</g>
<!-- 2 -->
<g id="node4" class="node"><title>2</title>
<polygon fill="cyan" stroke="black" stroke-width="2" points="1113.9,-28.9201 1113.9,-47.4711 947.596,-60.5887 712.404,-60.5887 546.098,-47.4711 546.098,-28.9201 712.404,-15.8026 947.596,-15.8026 1113.9,-28.9201"/>
<text text-anchor="middle" x="830" y="-34.4956" font-family="Times,serif" font-size="14.00">Class: ToCapture, Data: (Capture &quot;token&quot; SessionToken)</text>
</g>
<!-- 22&#45;&gt;2 -->
<g id="edge22" class="edge"><title>22&#45;&gt;2</title>
<path fill="none" stroke="navy" d="M4238.98,-143.221C3681.56,-139.285 1436.59,-121.675 1123,-91.3913 1056.91,-85.0092 983.348,-71.8831 926.463,-60.3913"/>
</g>
<!-- 3 -->
<g id="node5" class="node"><title>3</title>
<polygon fill="cyan" stroke="black" stroke-width="2" points="528.296,-28.9201 528.296,-47.4711 378.161,-60.5887 165.839,-60.5887 15.7042,-47.4711 15.7042,-28.9201 165.839,-15.8026 378.161,-15.8026 528.296,-28.9201"/>
<text text-anchor="middle" x="272" y="-34.4956" font-family="Times,serif" font-size="14.00">Class: ToCapture, Data: (Capture &quot;userid&quot; UserId)</text>
</g>
<!-- 22&#45;&gt;3 -->
<g id="edge23" class="edge"><title>22&#45;&gt;3</title>
<path fill="none" stroke="navy" d="M4238.93,-143.691C3621.3,-141.648 911.375,-130.512 537,-91.3913 476.955,-85.1167 410.278,-71.9512 358.828,-60.4132"/>
</g>
<!-- 7&#45;&gt;21 -->
<g id="edge1" class="edge"><title>7&#45;&gt;21</title>
<path fill="none" stroke="black" stroke-width="1.69315" d="M5778.49,-60.393C5731.84,-71.5106 5673.61,-84.2663 5621,-91.3913 5313.1,-133.093 4947.9,-142.263 4757.36,-143.984"/>
<polygon fill="black" stroke="black" stroke-width="1.69315" points="4757.28,-140.485 4747.31,-144.07 4757.33,-147.485 4757.28,-140.485"/>
</g>
<!-- 8&#45;&gt;21 -->
<g id="edge2" class="edge"><title>8&#45;&gt;21</title>
<path fill="none" stroke="black" d="M5306.89,-60.4155C5261.65,-71.0546 5206.14,-83.3516 5156,-91.3913 5020.78,-113.072 4864.92,-127.151 4757.54,-135.25"/>
<polygon fill="black" stroke="black" points="4757.02,-131.78 4747.31,-136.016 4757.54,-138.76 4757.02,-131.78"/>
</g>
<!-- 12&#45;&gt;21 -->
<g id="edge3" class="edge"><title>12&#45;&gt;21</title>
<path fill="none" stroke="black" d="M3925.2,-60.4768C3960.19,-71.9975 4007.14,-85.1241 4050,-91.3913 4146.54,-105.51 4392.93,-82.3254 4489,-99.3913 4505.58,-102.337 4522.9,-107.089 4539.45,-112.418"/>
<polygon fill="black" stroke="black" points="4538.51,-115.792 4549.1,-115.613 4540.71,-109.147 4538.51,-115.792"/>
</g>
</g>
</svg>
