<?xml version="1.0" encoding="UTF-8" standalone="no"?>
<!DOCTYPE svg PUBLIC "-//W3C//DTD SVG 1.1//EN"
 "http://www.w3.org/Graphics/SVG/1.1/DTD/svg11.dtd">
<!-- Generated by graphviz version 2.38.0 (20140413.2041)
 -->
<!-- Title: Diagram of: Thentos.Frontend.Pages Pages: 1 -->
<svg width="1295pt" height="116pt"
 viewBox="0.00 0.00 1295.00 116.00" xmlns="http://www.w3.org/2000/svg" xmlns:xlink="http://www.w3.org/1999/xlink">
<g id="graph0" class="graph" transform="scale(1 1) rotate(0) translate(4 112)">
<title>Diagram of: Thentos.Frontend.Pages</title>
<polygon fill="white" stroke="none" points="-4,4 -4,-112 1291,-112 1291,4 -4,4"/>
<!-- 1 -->
<g id="node1" class="node"><title>1</title>
<polygon fill="gold" stroke="black" stroke-width="2" points="145,-108 0,-108 0,-72 145,-72 145,-108"/>
<text text-anchor="middle" x="72.5" y="-86.3" font-family="Times,serif" font-size="14.00">addServicePage</text>
</g>
<!-- 2 -->
<g id="node2" class="node"><title>2</title>
<polygon fill="gold" stroke="black" stroke-width="2" points="293.5,-108 163.5,-108 163.5,-72 293.5,-72 293.5,-108"/>
<text text-anchor="middle" x="228.5" y="-86.3" font-family="Times,serif" font-size="14.00">addUserPage</text>
</g>
<!-- 3 -->
<g id="node3" class="node"><title>3</title>
<polygon fill="gold" stroke="black" stroke-width="2" points="423,-108 312,-108 312,-72 423,-72 423,-108"/>
<text text-anchor="middle" x="367.5" y="-86.3" font-family="Times,serif" font-size="14.00">errorPage</text>
</g>
<!-- 4 -->
<g id="node4" class="node"><title>4</title>
<polygon fill="gold" stroke="black" stroke-width="2" points="557.5,-108 441.5,-108 441.5,-72 557.5,-72 557.5,-108"/>
<text text-anchor="middle" x="499.5" y="-86.3" font-family="Times,serif" font-size="14.00">loginForm</text>
</g>
<!-- 7 -->
<g id="node7" class="node"><title>7</title>
<polygon fill="cyan" stroke="black" stroke-width="2" points="623.5,-36 507.5,-36 507.5,-0 623.5,-0 623.5,-36"/>
<text text-anchor="middle" x="565.5" y="-14.3" font-family="Times,serif" font-size="14.00">nonEmpty</text>
</g>
<!-- 4&#45;&gt;7 -->
<g id="edge1" class="edge"><title>4&#45;&gt;7</title>
<path fill="none" stroke="black" stroke-width="1.69315" d="M515.815,-71.6966C523.807,-63.2198 533.572,-52.8636 542.322,-43.5826"/>
<polygon fill="black" stroke="black" stroke-width="1.69315" points="545.059,-45.7813 549.373,-36.1043 539.966,-40.9792 545.059,-45.7813"/>
</g>
<!-- 5 -->
<g id="node5" class="node"><title>5</title>
<polygon fill="gold" stroke="black" stroke-width="2" points="818,-108 705,-108 705,-72 818,-72 818,-108"/>
<text text-anchor="middle" x="761.5" y="-86.3" font-family="Times,serif" font-size="14.00">loginPage</text>
</g>
<!-- 6 -->
<g id="node6" class="node"><title>6</title>
<polygon fill="gold" stroke="black" stroke-width="2" points="949,-108 836,-108 836,-72 949,-72 949,-108"/>
<text text-anchor="middle" x="892.5" y="-86.3" font-family="Times,serif" font-size="14.00">mainPage</text>
</g>
<!-- 8 -->
<g id="node8" class="node"><title>8</title>
<polygon fill="gold" stroke="black" stroke-width="2" points="1126,-108 967,-108 967,-72 1126,-72 1126,-108"/>
<text text-anchor="middle" x="1046.5" y="-86.3" font-family="Times,serif" font-size="14.00">serviceAddedPage</text>
</g>
<!-- 9 -->
<g id="node9" class="node"><title>9</title>
<polygon fill="gold" stroke="black" stroke-width="2" points="1287,-108 1144,-108 1144,-72 1287,-72 1287,-108"/>
<text text-anchor="middle" x="1215.5" y="-86.3" font-family="Times,serif" font-size="14.00">userAddedPage</text>
</g>
<!-- 10 -->
<g id="node10" class="node"><title>10</title>
<polygon fill="gold" stroke="black" stroke-width="2" points="687,-108 576,-108 576,-72 687,-72 687,-108"/>
<text text-anchor="middle" x="631.5" y="-86.3" font-family="Times,serif" font-size="14.00">userForm</text>
</g>
<!-- 10&#45;&gt;7 -->
<g id="edge2" class="edge"><title>10&#45;&gt;7</title>
<path fill="none" stroke="black" stroke-width="1.69315" d="M615.185,-71.6966C607.193,-63.2198 597.428,-52.8636 588.678,-43.5826"/>
<polygon fill="black" stroke="black" stroke-width="1.69315" points="591.034,-40.9792 581.627,-36.1043 585.941,-45.7813 591.034,-40.9792"/>
</g>
</g>
</svg>
