<?xml version="1.0" encoding="UTF-8" standalone="no"?>
<!DOCTYPE svg PUBLIC "-//W3C//DTD SVG 1.1//EN"
 "http://www.w3.org/Graphics/SVG/1.1/DTD/svg11.dtd">
<!-- Generated by graphviz version 2.38.0 (20140413.2041)
 -->
<!-- Title: Diagram of: Thentos.Frontend Pages: 1 -->
<svg width="1264pt" height="494pt"
 viewBox="0.00 0.00 1264.00 493.74" xmlns="http://www.w3.org/2000/svg" xmlns:xlink="http://www.w3.org/1999/xlink">
<g id="graph0" class="graph" transform="scale(1 1) rotate(0) translate(4 489.744)">
<title>Diagram of: Thentos.Frontend</title>
<polygon fill="white" stroke="none" points="-4,4 -4,-489.744 1260,-489.744 1260,4 -4,4"/>
<g id="clust1" class="cluster"><title>cluster_Class_HasAcid</title>
<path fill="#ffc1c1" stroke="black" d="M20,-272C20,-272 306,-272 306,-272 312,-272 318,-278 318,-284 318,-284 318,-465.744 318,-465.744 318,-471.744 312,-477.744 306,-477.744 306,-477.744 20,-477.744 20,-477.744 14,-477.744 8,-471.744 8,-465.744 8,-465.744 8,-284 8,-284 8,-278 14,-272 20,-272"/>
<text text-anchor="middle" x="163" y="-462.544" font-family="Times,serif" font-size="14.00">Class: HasAcid</text>
</g>
<g id="clust2" class="cluster"><title>cluster_Class_HasAcid_Data_FrontendAppDB</title>
<path fill="#c6e2ff" stroke="black" d="M68,-280C68,-280 258,-280 258,-280 264,-280 270,-286 270,-292 270,-292 270,-351.391 270,-351.391 270,-357.391 264,-363.391 258,-363.391 258,-363.391 68,-363.391 68,-363.391 62,-363.391 56,-357.391 56,-351.391 56,-351.391 56,-292 56,-292 56,-286 62,-280 68,-280"/>
<text text-anchor="middle" x="163" y="-348.191" font-family="Times,serif" font-size="14.00">Instance for: FrontendApp DB</text>
</g>
<g id="clust3" class="cluster"><title>cluster_Data_FrontendApp</title>
<path fill="papayawhip" stroke="black" d="M338,-208C338,-208 612,-208 612,-208 618,-208 624,-214 624,-220 624,-220 624,-347.196 624,-347.196 624,-353.196 618,-359.196 612,-359.196 612,-359.196 338,-359.196 338,-359.196 332,-359.196 326,-353.196 326,-347.196 326,-347.196 326,-220 326,-220 326,-214 332,-208 338,-208"/>
<text text-anchor="middle" x="475" y="-343.996" font-family="Times,serif" font-size="14.00">Data: FrontendApp</text>
</g>
<!-- 7 -->
<g id="node1" class="node"><title>7</title>
<polygon fill="cyan" stroke="black" stroke-width="2" points="262.495,-300.92 262.495,-319.471 204.212,-332.589 121.788,-332.589 63.5046,-319.471 63.5046,-300.92 121.788,-287.803 204.212,-287.803 262.495,-300.92"/>
<text text-anchor="middle" x="163" y="-306.496" font-family="Times,serif" font-size="14.00">getAcidStore</text>
</g>
<!-- 17 -->
<g id="node2" class="node"><title>17</title>
<polygon fill="khaki" stroke="black" stroke-dasharray="5,2" points="306.244,-395.053 306.244,-423.082 222.334,-442.902 103.666,-442.902 19.7561,-423.082 19.7561,-395.053 103.666,-375.233 222.334,-375.233 306.244,-395.053"/>
<polygon fill="none" stroke="black" stroke-dasharray="5,2" points="310.247,-391.87 310.247,-426.265 222.798,-446.921 103.202,-446.921 15.7527,-426.265 15.7527,-391.87 103.202,-371.214 222.798,-371.214 310.247,-391.87"/>
<text text-anchor="middle" x="163" y="-412.867" font-family="Times,serif" font-size="14.00">Snap.Snaplet.AcidState</text>
<text text-anchor="middle" x="163" y="-397.867" font-family="Times,serif" font-size="14.00">getAcidStore</text>
</g>
<!-- 17&#45;&gt;7 -->
<g id="edge17" class="edge"><title>17&#45;&gt;7</title>
<path fill="none" stroke="navy" d="M163,-371.168C163,-358.122 163,-343.89 163,-332.565"/>
</g>
<!-- 1 -->
<g id="node3" class="node"><title>1</title>
<polygon fill="cyan" stroke="black" stroke-width="2" points="577.5,-252 450.5,-252 446.5,-248 446.5,-216 573.5,-216 577.5,-220 577.5,-252"/>
<polyline fill="none" stroke="black" stroke-width="2" points="573.5,-248 446.5,-248 "/>
<polyline fill="none" stroke="black" stroke-width="2" points="573.5,-248 573.5,-216 "/>
<polyline fill="none" stroke="black" stroke-width="2" points="573.5,-248 577.5,-252 "/>
<text text-anchor="middle" x="512" y="-230.3" font-family="Times,serif" font-size="14.00">FrontendApp</text>
</g>
<!-- 2 -->
<g id="node4" class="node"><title>2</title>
<polygon fill="khaki" stroke="black" stroke-width="2" points="615.5,-328.196 532.5,-328.196 532.5,-324.196 528.5,-324.196 528.5,-320.196 532.5,-320.196 532.5,-300.196 528.5,-300.196 528.5,-296.196 532.5,-296.196 532.5,-292.196 615.5,-292.196 615.5,-328.196"/>
<polyline fill="none" stroke="black" stroke-width="2" points="532.5,-324.196 536.5,-324.196 536.5,-320.196 532.5,-320.196 "/>
<polyline fill="none" stroke="black" stroke-width="2" points="532.5,-300.196 536.5,-300.196 536.5,-296.196 532.5,-296.196 "/>
<text text-anchor="middle" x="574" y="-306.496" font-family="Times,serif" font-size="14.00">_cfg</text>
</g>
<!-- 2&#45;&gt;1 -->
<g id="edge1" class="edge"><title>2&#45;&gt;1</title>
<path fill="none" stroke="magenta" d="M559.62,-291.987C551.638,-282.435 541.57,-270.386 532.749,-259.83"/>
<polygon fill="magenta" stroke="magenta" points="526.302,-252.115 536.167,-256.903 529.508,-255.952 532.714,-259.789 532.714,-259.789 532.714,-259.789 529.508,-255.952 529.261,-262.674 526.302,-252.115 526.302,-252.115"/>
</g>
<!-- 3 -->
<g id="node5" class="node"><title>3</title>
<polygon fill="khaki" stroke="black" stroke-width="2" points="514.5,-328.196 435.5,-328.196 435.5,-324.196 431.5,-324.196 431.5,-320.196 435.5,-320.196 435.5,-300.196 431.5,-300.196 431.5,-296.196 435.5,-296.196 435.5,-292.196 514.5,-292.196 514.5,-328.196"/>
<polyline fill="none" stroke="black" stroke-width="2" points="435.5,-324.196 439.5,-324.196 439.5,-320.196 435.5,-320.196 "/>
<polyline fill="none" stroke="black" stroke-width="2" points="435.5,-300.196 439.5,-300.196 439.5,-296.196 435.5,-296.196 "/>
<text text-anchor="middle" x="475" y="-306.496" font-family="Times,serif" font-size="14.00">_db</text>
</g>
<!-- 3&#45;&gt;1 -->
<g id="edge2" class="edge"><title>3&#45;&gt;1</title>
<path fill="none" stroke="magenta" d="M483.582,-291.987C488.158,-282.81 493.884,-271.327 498.995,-261.079"/>
<polygon fill="magenta" stroke="magenta" points="503.465,-252.115 503.029,-263.072 501.234,-256.59 499.002,-261.064 499.002,-261.064 499.002,-261.064 501.234,-256.59 494.975,-259.056 503.465,-252.115 503.465,-252.115"/>
</g>
<!-- 4 -->
<g id="node6" class="node"><title>4</title>
<polygon fill="khaki" stroke="black" stroke-width="2" points="417.5,-328.196 334.5,-328.196 334.5,-324.196 330.5,-324.196 330.5,-320.196 334.5,-320.196 334.5,-300.196 330.5,-300.196 330.5,-296.196 334.5,-296.196 334.5,-292.196 417.5,-292.196 417.5,-328.196"/>
<polyline fill="none" stroke="black" stroke-width="2" points="334.5,-324.196 338.5,-324.196 338.5,-320.196 334.5,-320.196 "/>
<polyline fill="none" stroke="black" stroke-width="2" points="334.5,-300.196 338.5,-300.196 338.5,-296.196 334.5,-296.196 "/>
<text text-anchor="middle" x="376" y="-306.496" font-family="Times,serif" font-size="14.00">_rng</text>
</g>
<!-- 4&#45;&gt;1 -->
<g id="edge3" class="edge"><title>4&#45;&gt;1</title>
<path fill="none" stroke="magenta" d="M396.662,-292.126C405.396,-285.368 415.877,-277.836 426,-272 435.911,-266.287 446.873,-260.918 457.558,-256.137"/>
<polygon fill="magenta" stroke="magenta" points="466.845,-252.092 459.473,-260.211 462.26,-254.089 457.676,-256.085 457.676,-256.085 457.676,-256.085 462.26,-254.089 455.879,-251.96 466.845,-252.092 466.845,-252.092"/>
</g>
<!-- 5 -->
<g id="node7" class="node"><title>5</title>
<polygon fill="cyan" stroke="black" stroke-width="2" points="362,-180 200,-180 200,-144 362,-144 362,-180"/>
<text text-anchor="middle" x="281" y="-158.3" font-family="Times,serif" font-size="14.00">addServiceHandler</text>
</g>
<!-- 6 -->
<g id="node8" class="node"><title>6</title>
<polygon fill="bisque" stroke="black" stroke-width="2" points="762,-328.196 634,-328.196 634,-292.196 762,-292.196 762,-328.196"/>
<text text-anchor="middle" x="698" y="-306.496" font-family="Times,serif" font-size="14.00">frontendApp</text>
</g>
<!-- 6&#45;&gt;1 -->
<g id="edge4" class="edge"><title>6&#45;&gt;1</title>
<path fill="none" stroke="black" d="M668.598,-292.059C656.296,-285.29 641.698,-277.769 628,-272 613.537,-265.909 597.708,-260.239 582.52,-255.259"/>
<polygon fill="black" stroke="black" points="583.245,-251.815 572.653,-252.088 581.103,-258.48 583.245,-251.815"/>
</g>
<!-- 10 -->
<g id="node11" class="node"><title>10</title>
<polygon fill="bisque" stroke="black" stroke-width="2" points="744,-252 652,-252 652,-216 744,-216 744,-252"/>
<text text-anchor="middle" x="698" y="-230.3" font-family="Times,serif" font-size="14.00">routes</text>
</g>
<!-- 6&#45;&gt;10 -->
<g id="edge5" class="edge"><title>6&#45;&gt;10</title>
<path fill="none" stroke="black" d="M698,-291.987C698,-283.185 698,-272.261 698,-262.34"/>
<polygon fill="black" stroke="black" points="701.5,-262.115 698,-252.115 694.5,-262.115 701.5,-262.115"/>
</g>
<!-- 8 -->
<g id="node9" class="node"><title>8</title>
<polygon fill="bisque" stroke="black" stroke-width="2" points="510,-180 380,-180 380,-144 510,-144 510,-180"/>
<text text-anchor="middle" x="445" y="-158.3" font-family="Times,serif" font-size="14.00">loginHandler</text>
</g>
<!-- 14 -->
<g id="node15" class="node"><title>14</title>
<polygon fill="bisque" stroke="black" stroke-width="2" points="862.5,-108 717.5,-108 717.5,-72 862.5,-72 862.5,-108"/>
<text text-anchor="middle" x="790" y="-86.3" font-family="Times,serif" font-size="14.00">snapRunAction&#39;</text>
</g>
<!-- 8&#45;&gt;14 -->
<g id="edge6" class="edge"><title>8&#45;&gt;14</title>
<path fill="none" stroke="black" d="M510.344,-145.867C513.268,-145.228 516.163,-144.603 519,-144 582.127,-130.58 653.801,-116.618 707.578,-106.395"/>
<polygon fill="black" stroke="black" points="708.232,-109.833 717.405,-104.531 706.927,-102.956 708.232,-109.833"/>
</g>
<!-- 9 -->
<g id="node10" class="node"><title>9</title>
<polygon fill="cyan" stroke="black" stroke-width="2" points="684,-180 528,-180 528,-144 684,-144 684,-180"/>
<text text-anchor="middle" x="606" y="-158.3" font-family="Times,serif" font-size="14.00">mainPageHandler</text>
</g>
<!-- 10&#45;&gt;5 -->
<g id="edge7" class="edge"><title>10&#45;&gt;5</title>
<path fill="none" stroke="black" d="M655.157,-215.916C646.291,-212.887 636.93,-210.051 628,-208 519.189,-183.007 486.49,-196.102 372.559,-180.14"/>
<polygon fill="black" stroke="black" points="372.785,-176.636 362.387,-178.668 371.783,-183.564 372.785,-176.636"/>
</g>
<!-- 10&#45;&gt;8 -->
<g id="edge8" class="edge"><title>10&#45;&gt;8</title>
<path fill="none" stroke="black" d="M652.284,-215.919C644.239,-213.13 635.909,-210.378 628,-208 607.696,-201.895 561.043,-190.437 519.927,-180.611"/>
<polygon fill="black" stroke="black" points="520.7,-177.198 510.161,-178.283 519.077,-184.007 520.7,-177.198"/>
</g>
<!-- 10&#45;&gt;9 -->
<g id="edge9" class="edge"><title>10&#45;&gt;9</title>
<path fill="none" stroke="black" d="M675.258,-215.697C663.56,-206.796 649.139,-195.823 636.49,-186.199"/>
<polygon fill="black" stroke="black" points="638.558,-183.374 628.48,-180.104 634.319,-188.945 638.558,-183.374"/>
</g>
<!-- 12 -->
<g id="node13" class="node"><title>12</title>
<polygon fill="bisque" stroke="black" stroke-width="2" points="878,-180 702,-180 702,-144 878,-144 878,-180"/>
<text text-anchor="middle" x="790" y="-158.3" font-family="Times,serif" font-size="14.00">serviceAddedHandler</text>
</g>
<!-- 10&#45;&gt;12 -->
<g id="edge10" class="edge"><title>10&#45;&gt;12</title>
<path fill="none" stroke="black" d="M720.742,-215.697C732.44,-206.796 746.861,-195.823 759.51,-186.199"/>
<polygon fill="black" stroke="black" points="761.681,-188.945 767.52,-180.104 757.442,-183.374 761.681,-188.945"/>
</g>
<!-- 15 -->
<g id="node16" class="node"><title>15</title>
<polygon fill="cyan" stroke="black" stroke-width="2" points="1090,-180 896,-180 896,-144 1090,-144 1090,-180"/>
<text text-anchor="middle" x="993" y="-158.3" font-family="Times,serif" font-size="14.00">userAddConfirmHandler</text>
</g>
<!-- 10&#45;&gt;15 -->
<g id="edge11" class="edge"><title>10&#45;&gt;15</title>
<path fill="none" stroke="black" d="M744.094,-222.062C788.716,-211.474 857.336,-195.192 911.234,-182.402"/>
<polygon fill="black" stroke="black" points="912.196,-185.771 921.118,-180.057 910.58,-178.96 912.196,-185.771"/>
</g>
<!-- 16 -->
<g id="node17" class="node"><title>16</title>
<polygon fill="bisque" stroke="black" stroke-width="2" points="1256,-180 1108,-180 1108,-144 1256,-144 1256,-180"/>
<text text-anchor="middle" x="1182" y="-158.3" font-family="Times,serif" font-size="14.00">userAddHandler</text>
</g>
<!-- 10&#45;&gt;16 -->
<g id="edge12" class="edge"><title>10&#45;&gt;16</title>
<path fill="none" stroke="black" d="M744.165,-227.972C817.109,-219.792 963.679,-202.405 1097.79,-180.141"/>
<polygon fill="black" stroke="black" points="1098.55,-183.563 1107.84,-178.46 1097.4,-176.659 1098.55,-183.563"/>
</g>
<!-- 11 -->
<g id="node12" class="node"><title>11</title>
<polygon fill="gold" stroke="black" stroke-width="2" points="760.5,-427.067 635.5,-427.067 635.5,-391.067 760.5,-391.067 760.5,-427.067"/>
<text text-anchor="middle" x="698" y="-405.367" font-family="Times,serif" font-size="14.00">runFrontend</text>
</g>
<!-- 11&#45;&gt;6 -->
<g id="edge13" class="edge"><title>11&#45;&gt;6</title>
<path fill="none" stroke="chartreuse" d="M698,-390.749C698,-376.284 698,-355.4 698,-338.659"/>
<polygon fill="chartreuse" stroke="chartreuse" points="701.5,-338.364 698,-328.364 694.5,-338.364 701.5,-338.364"/>
</g>
<!-- 12&#45;&gt;14 -->
<g id="edge14" class="edge"><title>12&#45;&gt;14</title>
<path fill="none" stroke="black" d="M790,-143.697C790,-135.983 790,-126.712 790,-118.112"/>
<polygon fill="black" stroke="black" points="793.5,-118.104 790,-108.104 786.5,-118.104 793.5,-118.104"/>
</g>
<!-- 13 -->
<g id="node14" class="node"><title>13</title>
<polygon fill="cyan" stroke="black" stroke-width="2" points="861.5,-36 718.5,-36 718.5,-0 861.5,-0 861.5,-36"/>
<text text-anchor="middle" x="790" y="-14.3" font-family="Times,serif" font-size="14.00">snapRunAction</text>
</g>
<!-- 14&#45;&gt;13 -->
<g id="edge15" class="edge"><title>14&#45;&gt;13</title>
<path fill="none" stroke="chartreuse" d="M790,-71.6966C790,-63.9827 790,-54.7125 790,-46.1124"/>
<polygon fill="chartreuse" stroke="chartreuse" points="793.5,-46.1043 790,-36.1043 786.5,-46.1044 793.5,-46.1043"/>
</g>
<!-- 16&#45;&gt;14 -->
<g id="edge16" class="edge"><title>16&#45;&gt;14</title>
<path fill="none" stroke="black" d="M1107.81,-145.682C1104.84,-145.107 1101.89,-144.544 1099,-144 1022.49,-129.607 935.01,-114.751 872.707,-104.444"/>
<polygon fill="black" stroke="black" points="872.978,-100.942 862.542,-102.766 871.838,-107.848 872.978,-100.942"/>
</g>
</g>
</svg>
