<?xml version="1.0" encoding="UTF-8" standalone="no"?>
<!DOCTYPE svg PUBLIC "-//W3C//DTD SVG 1.1//EN"
 "http://www.w3.org/Graphics/SVG/1.1/DTD/svg11.dtd">
<!-- Generated by graphviz version 2.38.0 (20140413.2041)
 -->
<!-- Title: Diagram of: Thentos.Config Pages: 1 -->
<svg width="5785pt" height="648pt"
 viewBox="0.00 0.00 5784.50 647.74" xmlns="http://www.w3.org/2000/svg" xmlns:xlink="http://www.w3.org/1999/xlink">
<g id="graph0" class="graph" transform="scale(1 1) rotate(0) translate(4 643.744)">
<title>Diagram of: Thentos.Config</title>
<polygon fill="white" stroke="none" points="-4,4 -4,-643.744 5780.5,-643.744 5780.5,4 -4,4"/>
<g id="clust1" class="cluster"><title>cluster_Class_Monoid</title>
<path fill="#ffc1c1" stroke="black" d="M3255,-163C3255,-163 5079,-163 5079,-163 5085,-163 5091,-169 5091,-175 5091,-175 5091,-356.744 5091,-356.744 5091,-362.744 5085,-368.744 5079,-368.744 5079,-368.744 3255,-368.744 3255,-368.744 3249,-368.744 3243,-362.744 3243,-356.744 3243,-356.744 3243,-175 3243,-175 3243,-169 3249,-163 3255,-163"/>
<text text-anchor="middle" x="4167" y="-353.544" font-family="Times,serif" font-size="14.00">Class: Monoid</text>
</g>
<g id="clust2" class="cluster"><title>cluster_Class_Monoid_Data_BackendConfigBuilder</title>
<path fill="#c6e2ff" stroke="black" d="M4367,-171C4367,-171 4703,-171 4703,-171 4709,-171 4715,-177 4715,-183 4715,-183 4715,-242.391 4715,-242.391 4715,-248.391 4709,-254.391 4703,-254.391 4703,-254.391 4367,-254.391 4367,-254.391 4361,-254.391 4355,-248.391 4355,-242.391 4355,-242.391 4355,-183 4355,-183 4355,-177 4361,-171 4367,-171"/>
<text text-anchor="middle" x="4535" y="-239.191" font-family="Times,serif" font-size="14.00">Instance for: BackendConfigBuilder</text>
</g>
<g id="clust3" class="cluster"><title>cluster_Class_Monoid_Data_FrontendConfigBuilder</title>
<path fill="#c6e2ff" stroke="black" d="M4735,-171C4735,-171 5071,-171 5071,-171 5077,-171 5083,-177 5083,-183 5083,-183 5083,-242.391 5083,-242.391 5083,-248.391 5077,-254.391 5071,-254.391 5071,-254.391 4735,-254.391 4735,-254.391 4729,-254.391 4723,-248.391 4723,-242.391 4723,-242.391 4723,-183 4723,-183 4723,-177 4729,-171 4735,-171"/>
<text text-anchor="middle" x="4903" y="-239.191" font-family="Times,serif" font-size="14.00">Instance for: FrontendConfigBuilder</text>
</g>
<g id="clust4" class="cluster"><title>cluster_Class_Monoid_Data_ProxyConfigBuilder</title>
<path fill="#c6e2ff" stroke="black" d="M3999,-171C3999,-171 4335,-171 4335,-171 4341,-171 4347,-177 4347,-183 4347,-183 4347,-242.391 4347,-242.391 4347,-248.391 4341,-254.391 4335,-254.391 4335,-254.391 3999,-254.391 3999,-254.391 3993,-254.391 3987,-248.391 3987,-242.391 3987,-242.391 3987,-183 3987,-183 3987,-177 3993,-171 3999,-171"/>
<text text-anchor="middle" x="4167" y="-239.191" font-family="Times,serif" font-size="14.00">Instance for: ProxyConfigBuilder</text>
</g>
<g id="clust5" class="cluster"><title>cluster_Class_Monoid_Data_SmtpConfigBuilder</title>
<path fill="#c6e2ff" stroke="black" d="M3631,-171C3631,-171 3967,-171 3967,-171 3973,-171 3979,-177 3979,-183 3979,-183 3979,-242.391 3979,-242.391 3979,-248.391 3973,-254.391 3967,-254.391 3967,-254.391 3631,-254.391 3631,-254.391 3625,-254.391 3619,-248.391 3619,-242.391 3619,-242.391 3619,-183 3619,-183 3619,-177 3625,-171 3631,-171"/>
<text text-anchor="middle" x="3799" y="-239.191" font-family="Times,serif" font-size="14.00">Instance for: SmtpConfigBuilder</text>
</g>
<g id="clust6" class="cluster"><title>cluster_Class_Monoid_Data_ThentosConfigBuilder</title>
<path fill="#c6e2ff" stroke="black" d="M3263,-171C3263,-171 3599,-171 3599,-171 3605,-171 3611,-177 3611,-183 3611,-183 3611,-242.391 3611,-242.391 3611,-248.391 3605,-254.391 3599,-254.391 3599,-254.391 3263,-254.391 3263,-254.391 3257,-254.391 3251,-248.391 3251,-242.391 3251,-242.391 3251,-183 3251,-183 3251,-177 3257,-171 3263,-171"/>
<text text-anchor="middle" x="3431" y="-239.191" font-family="Times,serif" font-size="14.00">Instance for: ThentosConfigBuilder</text>
</g>
<g id="clust7" class="cluster"><title>cluster_Data_BackendConfig</title>
<path fill="papayawhip" stroke="black" d="M20,-80C20,-80 156,-80 156,-80 162,-80 168,-86 168,-92 168,-92 168,-238.196 168,-238.196 168,-244.196 162,-250.196 156,-250.196 156,-250.196 20,-250.196 20,-250.196 14,-250.196 8,-244.196 8,-238.196 8,-238.196 8,-92 8,-92 8,-86 14,-80 20,-80"/>
<text text-anchor="middle" x="88" y="-234.996" font-family="Times,serif" font-size="14.00">Data: BackendConfig</text>
</g>
<g id="clust8" class="cluster"><title>cluster_Data_BackendConfigBuilder</title>
<path fill="papayawhip" stroke="black" d="M4431,-8C4431,-8 4607,-8 4607,-8 4613,-8 4619,-14 4619,-20 4619,-20 4619,-143 4619,-143 4619,-149 4613,-155 4607,-155 4607,-155 4431,-155 4431,-155 4425,-155 4419,-149 4419,-143 4419,-143 4419,-20 4419,-20 4419,-14 4425,-8 4431,-8"/>
<text text-anchor="middle" x="4519" y="-139.8" font-family="Times,serif" font-size="14.00">Data: BackendConfigBuilder</text>
</g>
<g id="clust9" class="cluster"><title>cluster_Data_Command</title>
<path fill="papayawhip" stroke="black" d="M2224,-376.744C2224,-376.744 2540,-376.744 2540,-376.744 2546,-376.744 2552,-382.744 2552,-388.744 2552,-388.744 2552,-439.744 2552,-439.744 2552,-445.744 2546,-451.744 2540,-451.744 2540,-451.744 2224,-451.744 2224,-451.744 2218,-451.744 2212,-445.744 2212,-439.744 2212,-439.744 2212,-388.744 2212,-388.744 2212,-382.744 2218,-376.744 2224,-376.744"/>
<text text-anchor="middle" x="2382" y="-436.544" font-family="Times,serif" font-size="14.00">Data: Command</text>
</g>
<g id="clust10" class="cluster"><title>cluster_Data_CommandBuilder</title>
<path fill="papayawhip" stroke="black" d="M2721,-376.744C2721,-376.744 3064,-376.744 3064,-376.744 3070,-376.744 3076,-382.744 3076,-388.744 3076,-388.744 3076,-439.744 3076,-439.744 3076,-445.744 3070,-451.744 3064,-451.744 3064,-451.744 2721,-451.744 2721,-451.744 2715,-451.744 2709,-445.744 2709,-439.744 2709,-439.744 2709,-388.744 2709,-388.744 2709,-382.744 2715,-376.744 2721,-376.744"/>
<text text-anchor="middle" x="2892.5" y="-436.544" font-family="Times,serif" font-size="14.00">Data: CommandBuilder</text>
</g>
<g id="clust11" class="cluster"><title>cluster_Data_ConfigError</title>
<path fill="papayawhip" stroke="black" d="M1651,-80C1651,-80 2443,-80 2443,-80 2449,-80 2455,-86 2455,-92 2455,-92 2455,-143 2455,-143 2455,-149 2449,-155 2443,-155 2443,-155 1651,-155 1651,-155 1645,-155 1639,-149 1639,-143 1639,-143 1639,-92 1639,-92 1639,-86 1645,-80 1651,-80"/>
<text text-anchor="middle" x="2047" y="-139.8" font-family="Times,serif" font-size="14.00">Data: ConfigError</text>
</g>
<g id="clust12" class="cluster"><title>cluster_Data_FrontendConfig</title>
<path fill="papayawhip" stroke="black" d="M188,-80C188,-80 326,-80 326,-80 332,-80 338,-86 338,-92 338,-92 338,-238.196 338,-238.196 338,-244.196 332,-250.196 326,-250.196 326,-250.196 188,-250.196 188,-250.196 182,-250.196 176,-244.196 176,-238.196 176,-238.196 176,-92 176,-92 176,-86 182,-80 188,-80"/>
<text text-anchor="middle" x="257" y="-234.996" font-family="Times,serif" font-size="14.00">Data: FrontendConfig</text>
</g>
<g id="clust13" class="cluster"><title>cluster_Data_FrontendConfigBuilder</title>
<path fill="papayawhip" stroke="black" d="M4927,-8C4927,-8 5103,-8 5103,-8 5109,-8 5115,-14 5115,-20 5115,-20 5115,-143 5115,-143 5115,-149 5109,-155 5103,-155 5103,-155 4927,-155 4927,-155 4921,-155 4915,-149 4915,-143 4915,-143 4915,-20 4915,-20 4915,-14 4921,-8 4927,-8"/>
<text text-anchor="middle" x="5015" y="-139.8" font-family="Times,serif" font-size="14.00">Data: FrontendConfigBuilder</text>
</g>
<g id="clust14" class="cluster"><title>cluster_Data_ProxyConfig</title>
<path fill="papayawhip" stroke="black" d="M5623,-80C5623,-80 5747,-80 5747,-80 5753,-80 5759,-86 5759,-92 5759,-92 5759,-238.196 5759,-238.196 5759,-244.196 5753,-250.196 5747,-250.196 5747,-250.196 5623,-250.196 5623,-250.196 5617,-250.196 5611,-244.196 5611,-238.196 5611,-238.196 5611,-92 5611,-92 5611,-86 5617,-80 5623,-80"/>
<text text-anchor="middle" x="5685" y="-234.996" font-family="Times,serif" font-size="14.00">Data: ProxyConfig</text>
</g>
<g id="clust15" class="cluster"><title>cluster_Data_ProxyConfigBuilder</title>
<path fill="papayawhip" stroke="black" d="M2697,-8C2697,-8 2857,-8 2857,-8 2863,-8 2869,-14 2869,-20 2869,-20 2869,-143 2869,-143 2869,-149 2863,-155 2857,-155 2857,-155 2697,-155 2697,-155 2691,-155 2685,-149 2685,-143 2685,-143 2685,-20 2685,-20 2685,-14 2691,-8 2697,-8"/>
<text text-anchor="middle" x="2777" y="-139.8" font-family="Times,serif" font-size="14.00">Data: ProxyConfigBuilder</text>
</g>
<g id="clust16" class="cluster"><title>cluster_Data_SmtpConfig</title>
<path fill="papayawhip" stroke="black" d="M1141,-80C1141,-80 1619,-80 1619,-80 1625,-80 1631,-86 1631,-92 1631,-92 1631,-238.196 1631,-238.196 1631,-244.196 1625,-250.196 1619,-250.196 1619,-250.196 1141,-250.196 1141,-250.196 1135,-250.196 1129,-244.196 1129,-238.196 1129,-238.196 1129,-92 1129,-92 1129,-86 1135,-80 1141,-80"/>
<text text-anchor="middle" x="1380" y="-234.996" font-family="Times,serif" font-size="14.00">Data: SmtpConfig</text>
</g>
<g id="clust17" class="cluster"><title>cluster_Data_SmtpConfigBuilder</title>
<path fill="papayawhip" stroke="black" d="M2507,-80C2507,-80 2665,-80 2665,-80 2671,-80 2677,-86 2677,-92 2677,-92 2677,-143 2677,-143 2677,-149 2671,-155 2665,-155 2665,-155 2507,-155 2507,-155 2501,-155 2495,-149 2495,-143 2495,-143 2495,-92 2495,-92 2495,-86 2501,-80 2507,-80"/>
<text text-anchor="middle" x="2586" y="-139.8" font-family="Times,serif" font-size="14.00">Data: SmtpConfigBuilder</text>
</g>
<g id="clust18" class="cluster"><title>cluster_Data_ThentosConfig</title>
<path fill="papayawhip" stroke="black" d="M358,-175.196C358,-175.196 1079,-175.196 1079,-175.196 1085,-175.196 1091,-181.196 1091,-187.196 1091,-187.196 1091,-337.067 1091,-337.067 1091,-343.067 1085,-349.067 1079,-349.067 1079,-349.067 358,-349.067 358,-349.067 352,-349.067 346,-343.067 346,-337.067 346,-337.067 346,-187.196 346,-187.196 346,-181.196 352,-175.196 358,-175.196"/>
<text text-anchor="middle" x="718.5" y="-333.867" font-family="Times,serif" font-size="14.00">Data: ThentosConfig</text>
</g>
<g id="clust19" class="cluster"><title>cluster_Data_ThentosConfigBuilder</title>
<path fill="papayawhip" stroke="black" d="M3179,-8C3179,-8 4253,-8 4253,-8 4259,-8 4265,-14 4265,-20 4265,-20 4265,-143 4265,-143 4265,-149 4259,-155 4253,-155 4253,-155 3179,-155 3179,-155 3173,-155 3167,-149 3167,-143 3167,-143 3167,-20 3167,-20 3167,-14 3173,-8 3179,-8"/>
<text text-anchor="middle" x="3716" y="-139.8" font-family="Times,serif" font-size="14.00">Data: ThentosConfigBuilder</text>
</g>
<!-- 45 -->
<g id="node1" class="node"><title>45</title>
<polygon fill="bisque" stroke="black" stroke-width="2" points="4529.35,-191.92 4529.35,-210.471 4480.52,-223.589 4411.48,-223.589 4362.65,-210.471 4362.65,-191.92 4411.48,-178.803 4480.52,-178.803 4529.35,-191.92"/>
<text text-anchor="middle" x="4446" y="-197.496" font-family="Times,serif" font-size="14.00">mappend</text>
</g>
<!-- 5 -->
<g id="node15" class="node"><title>5</title>
<polygon fill="cyan" stroke="black" stroke-width="2" points="4611,-52 4431,-52 4427,-48 4427,-16 4607,-16 4611,-20 4611,-52"/>
<polyline fill="none" stroke="black" stroke-width="2" points="4607,-48 4427,-48 "/>
<polyline fill="none" stroke="black" stroke-width="2" points="4607,-48 4607,-16 "/>
<polyline fill="none" stroke="black" stroke-width="2" points="4607,-48 4611,-52 "/>
<text text-anchor="middle" x="4519" y="-30.3" font-family="Times,serif" font-size="14.00">BackendConfigBuilder</text>
</g>
<!-- 45&#45;&gt;5 -->
<g id="edge54" class="edge"><title>45&#45;&gt;5</title>
<path fill="none" stroke="black" d="M4489.51,-181.084C4504.68,-174.829 4521.93,-168.167 4538,-163 4552.37,-158.382 4561.67,-166.862 4571,-155 4591.61,-128.8 4584.86,-110.317 4571,-80 4567.33,-71.9614 4561.43,-64.8089 4554.9,-58.7021"/>
<polygon fill="black" stroke="black" points="4556.93,-55.833 4547.04,-52.0233 4552.4,-61.1666 4556.93,-55.833"/>
</g>
<!-- 22 -->
<g id="node16" class="node"><title>22</title>
<polygon fill="bisque" stroke="black" stroke-width="2" points="4562.5,-124 4427.5,-124 4427.5,-120 4423.5,-120 4423.5,-116 4427.5,-116 4427.5,-96 4423.5,-96 4423.5,-92 4427.5,-92 4427.5,-88 4562.5,-88 4562.5,-124"/>
<polyline fill="none" stroke="black" stroke-width="2" points="4427.5,-120 4431.5,-120 4431.5,-116 4427.5,-116 "/>
<polyline fill="none" stroke="black" stroke-width="2" points="4427.5,-96 4431.5,-96 4431.5,-92 4427.5,-92 "/>
<text text-anchor="middle" x="4495" y="-102.3" font-family="Times,serif" font-size="14.00">bBackendPort</text>
</g>
<!-- 45&#45;&gt;22 -->
<g id="edge55" class="edge"><title>45&#45;&gt;22</title>
<path fill="none" stroke="black" stroke-width="2.09861" d="M4457.36,-178.58C4464.51,-164.995 4473.77,-147.387 4481.31,-133.034"/>
<polygon fill="black" stroke="black" stroke-width="2.09861" points="4484.43,-134.628 4485.98,-124.148 4478.23,-131.37 4484.43,-134.628"/>
</g>
<!-- 50 -->
<g id="node2" class="node"><title>50</title>
<polygon fill="bisque" stroke="black" stroke-width="2" points="4706.7,-191.92 4706.7,-210.471 4660.01,-223.589 4593.99,-223.589 4547.3,-210.471 4547.3,-191.92 4593.99,-178.803 4660.01,-178.803 4706.7,-191.92"/>
<text text-anchor="middle" x="4627" y="-197.496" font-family="Times,serif" font-size="14.00">mempty</text>
</g>
<!-- 50&#45;&gt;5 -->
<g id="edge69" class="edge"><title>50&#45;&gt;5</title>
<path fill="none" stroke="black" d="M4625.38,-178.567C4622.47,-152.753 4614.39,-109.394 4592,-80 4585.23,-71.113 4576.16,-63.5698 4566.72,-57.3461"/>
<polygon fill="black" stroke="black" points="4568.35,-54.2422 4558,-52.0007 4564.69,-60.2104 4568.35,-54.2422"/>
</g>
<!-- 46 -->
<g id="node3" class="node"><title>46</title>
<polygon fill="bisque" stroke="black" stroke-width="2" points="5075.35,-191.92 5075.35,-210.471 5026.52,-223.589 4957.48,-223.589 4908.65,-210.471 4908.65,-191.92 4957.48,-178.803 5026.52,-178.803 5075.35,-191.92"/>
<text text-anchor="middle" x="4992" y="-197.496" font-family="Times,serif" font-size="14.00">mappend</text>
</g>
<!-- 8 -->
<g id="node29" class="node"><title>8</title>
<polygon fill="cyan" stroke="black" stroke-width="2" points="5107.5,-52 4926.5,-52 4922.5,-48 4922.5,-16 5103.5,-16 5107.5,-20 5107.5,-52"/>
<polyline fill="none" stroke="black" stroke-width="2" points="5103.5,-48 4922.5,-48 "/>
<polyline fill="none" stroke="black" stroke-width="2" points="5103.5,-48 5103.5,-16 "/>
<polyline fill="none" stroke="black" stroke-width="2" points="5103.5,-48 5107.5,-52 "/>
<text text-anchor="middle" x="5015" y="-30.3" font-family="Times,serif" font-size="14.00">FrontendConfigBuilder</text>
</g>
<!-- 46&#45;&gt;8 -->
<g id="edge56" class="edge"><title>46&#45;&gt;8</title>
<path fill="none" stroke="black" d="M5058.6,-187.32C5075.91,-180.625 5092.61,-170.453 5103,-155 5121.6,-127.34 5120.4,-108.434 5103,-80 5097.31,-70.6984 5089.02,-63.2419 5079.78,-57.2876"/>
<polygon fill="black" stroke="black" points="5081.47,-54.2237 5071.06,-52.2318 5077.96,-60.2782 5081.47,-54.2237"/>
</g>
<!-- 25 -->
<g id="node30" class="node"><title>25</title>
<polygon fill="bisque" stroke="black" stroke-width="2" points="5060.5,-124 4923.5,-124 4923.5,-120 4919.5,-120 4919.5,-116 4923.5,-116 4923.5,-96 4919.5,-96 4919.5,-92 4923.5,-92 4923.5,-88 5060.5,-88 5060.5,-124"/>
<polyline fill="none" stroke="black" stroke-width="2" points="4923.5,-120 4927.5,-120 4927.5,-116 4923.5,-116 "/>
<polyline fill="none" stroke="black" stroke-width="2" points="4923.5,-96 4927.5,-96 4927.5,-92 4923.5,-92 "/>
<text text-anchor="middle" x="4992" y="-102.3" font-family="Times,serif" font-size="14.00">bFrontendPort</text>
</g>
<!-- 46&#45;&gt;25 -->
<g id="edge57" class="edge"><title>46&#45;&gt;25</title>
<path fill="none" stroke="black" stroke-width="2.09861" d="M4992,-178.58C4992,-165.383 4992,-148.39 4992,-134.272"/>
<polygon fill="black" stroke="black" stroke-width="2.09861" points="4995.5,-134.148 4992,-124.148 4988.5,-134.148 4995.5,-134.148"/>
</g>
<!-- 51 -->
<g id="node4" class="node"><title>51</title>
<polygon fill="bisque" stroke="black" stroke-width="2" points="4890.7,-191.92 4890.7,-210.471 4844.01,-223.589 4777.99,-223.589 4731.3,-210.471 4731.3,-191.92 4777.99,-178.803 4844.01,-178.803 4890.7,-191.92"/>
<text text-anchor="middle" x="4811" y="-197.496" font-family="Times,serif" font-size="14.00">mempty</text>
</g>
<!-- 51&#45;&gt;8 -->
<g id="edge70" class="edge"><title>51&#45;&gt;8</title>
<path fill="none" stroke="black" d="M4850.34,-180.281C4865.48,-173.553 4883.17,-166.791 4900,-163 4918.34,-158.868 5056.03,-168.603 5069,-155 5092.01,-130.879 5083.14,-110.186 5069,-80 5065.21,-71.898 5059.16,-64.7459 5052.45,-58.6641"/>
<polygon fill="black" stroke="black" points="5054.33,-55.6741 5044.38,-52.0235 5049.88,-61.0797 5054.33,-55.6741"/>
</g>
<!-- 47 -->
<g id="node5" class="node"><title>47</title>
<polygon fill="bisque" stroke="black" stroke-width="2" points="4161.35,-191.92 4161.35,-210.471 4112.52,-223.589 4043.48,-223.589 3994.65,-210.471 3994.65,-191.92 4043.48,-178.803 4112.52,-178.803 4161.35,-191.92"/>
<text text-anchor="middle" x="4078" y="-197.496" font-family="Times,serif" font-size="14.00">mappend</text>
</g>
<!-- 12 -->
<g id="node33" class="node"><title>12</title>
<polygon fill="cyan" stroke="black" stroke-width="2" points="2861.5,-52 2696.5,-52 2692.5,-48 2692.5,-16 2857.5,-16 2861.5,-20 2861.5,-52"/>
<polyline fill="none" stroke="black" stroke-width="2" points="2857.5,-48 2692.5,-48 "/>
<polyline fill="none" stroke="black" stroke-width="2" points="2857.5,-48 2857.5,-16 "/>
<polyline fill="none" stroke="black" stroke-width="2" points="2857.5,-48 2861.5,-52 "/>
<text text-anchor="middle" x="2777" y="-30.3" font-family="Times,serif" font-size="14.00">ProxyConfigBuilder</text>
</g>
<!-- 47&#45;&gt;12 -->
<g id="edge58" class="edge"><title>47&#45;&gt;12</title>
<path fill="none" stroke="black" d="M4036.9,-180.309C4020.53,-173.405 4001.26,-166.516 3983,-163 3952.89,-157.202 2905.56,-170.338 2879,-155 2845.53,-135.672 2860.5,-109.035 2835,-80 2828.12,-72.1722 2819.73,-64.7549 2811.48,-58.2842"/>
<polygon fill="black" stroke="black" points="2813.43,-55.3754 2803.34,-52.1489 2809.22,-60.9643 2813.43,-55.3754"/>
</g>
<!-- 27 -->
<g id="node34" class="node"><title>27</title>
<polygon fill="bisque" stroke="black" stroke-width="2" points="2826.5,-124 2693.5,-124 2693.5,-120 2689.5,-120 2689.5,-116 2693.5,-116 2693.5,-96 2689.5,-96 2689.5,-92 2693.5,-92 2693.5,-88 2826.5,-88 2826.5,-124"/>
<polyline fill="none" stroke="black" stroke-width="2" points="2693.5,-120 2697.5,-120 2697.5,-116 2693.5,-116 "/>
<polyline fill="none" stroke="black" stroke-width="2" points="2693.5,-96 2697.5,-96 2697.5,-92 2693.5,-92 "/>
<text text-anchor="middle" x="2760" y="-102.3" font-family="Times,serif" font-size="14.00">bProxyTarget</text>
</g>
<!-- 47&#45;&gt;27 -->
<g id="edge59" class="edge"><title>47&#45;&gt;27</title>
<path fill="none" stroke="black" stroke-width="2.09861" d="M4036.9,-180.307C4020.53,-173.403 4001.26,-166.514 3983,-163 3920.7,-151.012 2902.13,-171.983 2841,-155 2822.87,-149.963 2804.67,-139.751 2790.12,-130.037"/>
<polygon fill="black" stroke="black" stroke-width="2.09861" points="2791.78,-126.929 2781.57,-124.103 2787.79,-132.68 2791.78,-126.929"/>
</g>
<!-- 52 -->
<g id="node6" class="node"><title>52</title>
<polygon fill="bisque" stroke="black" stroke-width="2" points="4338.7,-191.92 4338.7,-210.471 4292.01,-223.589 4225.99,-223.589 4179.3,-210.471 4179.3,-191.92 4225.99,-178.803 4292.01,-178.803 4338.7,-191.92"/>
<text text-anchor="middle" x="4259" y="-197.496" font-family="Times,serif" font-size="14.00">mempty</text>
</g>
<!-- 52&#45;&gt;12 -->
<g id="edge71" class="edge"><title>52&#45;&gt;12</title>
<path fill="none" stroke="black" d="M4220.62,-180.305C4205.3,-173.401 4187.23,-166.513 4170,-163 4152.88,-159.51 2927,-163.96 2912,-155 2879.39,-135.519 2898.58,-106.13 2871,-80 2861.16,-70.6779 2849.03,-62.9584 2836.8,-56.7018"/>
<polygon fill="black" stroke="black" points="2837.98,-53.3881 2827.46,-52.2002 2834.94,-59.6942 2837.98,-53.3881"/>
</g>
<!-- 48 -->
<g id="node7" class="node"><title>48</title>
<polygon fill="bisque" stroke="black" stroke-width="2" points="3971.35,-191.92 3971.35,-210.471 3922.52,-223.589 3853.48,-223.589 3804.65,-210.471 3804.65,-191.92 3853.48,-178.803 3922.52,-178.803 3971.35,-191.92"/>
<text text-anchor="middle" x="3888" y="-197.496" font-family="Times,serif" font-size="14.00">mappend</text>
</g>
<!-- 17 -->
<g id="node39" class="node"><title>17</title>
<polygon fill="cyan" stroke="black" stroke-width="2" points="2669,-124 2507,-124 2503,-120 2503,-88 2665,-88 2669,-92 2669,-124"/>
<polyline fill="none" stroke="black" stroke-width="2" points="2665,-120 2503,-120 "/>
<polyline fill="none" stroke="black" stroke-width="2" points="2665,-120 2665,-88 "/>
<polyline fill="none" stroke="black" stroke-width="2" points="2665,-120 2669,-124 "/>
<text text-anchor="middle" x="2586" y="-102.3" font-family="Times,serif" font-size="14.00">SmtpConfigBuilder</text>
</g>
<!-- 48&#45;&gt;17 -->
<g id="edge60" class="edge"><title>48&#45;&gt;17</title>
<path fill="none" stroke="black" stroke-width="2.09861" d="M3847.8,-180.113C3832.05,-173.276 3813.58,-166.484 3796,-163 3735.24,-150.955 2741.21,-169.575 2681,-155 2659.74,-149.854 2637.83,-139.205 2620.42,-129.242"/>
<polygon fill="black" stroke="black" stroke-width="2.09861" points="2622.14,-126.194 2611.75,-124.127 2618.58,-132.223 2622.14,-126.194"/>
</g>
<!-- 53 -->
<g id="node8" class="node"><title>53</title>
<polygon fill="bisque" stroke="black" stroke-width="2" points="3786.7,-191.92 3786.7,-210.471 3740.01,-223.589 3673.99,-223.589 3627.3,-210.471 3627.3,-191.92 3673.99,-178.803 3740.01,-178.803 3786.7,-191.92"/>
<text text-anchor="middle" x="3707" y="-197.496" font-family="Times,serif" font-size="14.00">mempty</text>
</g>
<!-- 53&#45;&gt;17 -->
<g id="edge72" class="edge"><title>53&#45;&gt;17</title>
<path fill="none" stroke="black" d="M3667.71,-180.52C3651.76,-173.553 3632.91,-166.563 3615,-163 3564.11,-152.875 2731.43,-167.244 2681,-155 2659.74,-149.839 2637.84,-139.189 2620.42,-129.229"/>
<polygon fill="black" stroke="black" points="2622.14,-126.181 2611.75,-124.116 2618.59,-132.211 2622.14,-126.181"/>
</g>
<!-- 49 -->
<g id="node9" class="node"><title>49</title>
<polygon fill="bisque" stroke="black" stroke-width="2" points="3425.35,-191.92 3425.35,-210.471 3376.52,-223.589 3307.48,-223.589 3258.65,-210.471 3258.65,-191.92 3307.48,-178.803 3376.52,-178.803 3425.35,-191.92"/>
<text text-anchor="middle" x="3342" y="-197.496" font-family="Times,serif" font-size="14.00">mappend</text>
</g>
<!-- 19 -->
<g id="node46" class="node"><title>19</title>
<polygon fill="cyan" stroke="black" stroke-width="2" points="3974,-52 3798,-52 3794,-48 3794,-16 3970,-16 3974,-20 3974,-52"/>
<polyline fill="none" stroke="black" stroke-width="2" points="3970,-48 3794,-48 "/>
<polyline fill="none" stroke="black" stroke-width="2" points="3970,-48 3970,-16 "/>
<polyline fill="none" stroke="black" stroke-width="2" points="3970,-48 3974,-52 "/>
<text text-anchor="middle" x="3884" y="-30.3" font-family="Times,serif" font-size="14.00">ThentosConfigBuilder</text>
</g>
<!-- 49&#45;&gt;19 -->
<g id="edge61" class="edge"><title>49&#45;&gt;19</title>
<path fill="none" stroke="black" d="M3382.2,-180.136C3397.95,-173.301 3416.43,-166.505 3434,-163 3445.33,-160.739 4257.87,-163.211 4266,-155 4289.46,-131.317 4288.15,-104.911 4266,-80 4247.52,-59.2115 4091.26,-46.4206 3984.41,-40.0233"/>
<polygon fill="black" stroke="black" points="3984.42,-36.5179 3974.23,-39.4241 3984.01,-43.5058 3984.42,-36.5179"/>
</g>
<!-- 21 -->
<g id="node47" class="node"><title>21</title>
<polygon fill="bisque" stroke="black" stroke-width="2" points="3325,-124 3175,-124 3175,-120 3171,-120 3171,-116 3175,-116 3175,-96 3171,-96 3171,-92 3175,-92 3175,-88 3325,-88 3325,-124"/>
<polyline fill="none" stroke="black" stroke-width="2" points="3175,-120 3179,-120 3179,-116 3175,-116 "/>
<polyline fill="none" stroke="black" stroke-width="2" points="3175,-96 3179,-96 3179,-92 3175,-92 "/>
<text text-anchor="middle" x="3250" y="-102.3" font-family="Times,serif" font-size="14.00">bBackendConfig</text>
</g>
<!-- 49&#45;&gt;21 -->
<g id="edge62" class="edge"><title>49&#45;&gt;21</title>
<path fill="none" stroke="black" stroke-width="1.69315" d="M3320.66,-178.58C3306.74,-164.477 3288.54,-146.039 3274.1,-131.409"/>
<polygon fill="black" stroke="black" stroke-width="1.69315" points="3276.44,-128.806 3266.93,-124.148 3271.46,-133.723 3276.44,-128.806"/>
</g>
<!-- 23 -->
<g id="node48" class="node"><title>23</title>
<polygon fill="bisque" stroke="black" stroke-width="2" points="3474.5,-124 3343.5,-124 3343.5,-120 3339.5,-120 3339.5,-116 3343.5,-116 3343.5,-96 3339.5,-96 3339.5,-92 3343.5,-92 3343.5,-88 3474.5,-88 3474.5,-124"/>
<polyline fill="none" stroke="black" stroke-width="2" points="3343.5,-120 3347.5,-120 3347.5,-116 3343.5,-116 "/>
<polyline fill="none" stroke="black" stroke-width="2" points="3343.5,-96 3347.5,-96 3347.5,-92 3343.5,-92 "/>
<text text-anchor="middle" x="3409" y="-102.3" font-family="Times,serif" font-size="14.00">bDefaultUser</text>
</g>
<!-- 49&#45;&gt;23 -->
<g id="edge63" class="edge"><title>49&#45;&gt;23</title>
<path fill="none" stroke="black" stroke-width="1.69315" d="M3357.54,-178.58C3367.4,-164.865 3380.21,-147.051 3390.58,-132.625"/>
<polygon fill="black" stroke="black" stroke-width="1.69315" points="3393.68,-134.31 3396.67,-124.148 3387.99,-130.224 3393.68,-134.31"/>
</g>
<!-- 24 -->
<g id="node49" class="node"><title>24</title>
<polygon fill="bisque" stroke="black" stroke-width="2" points="3645,-124 3493,-124 3493,-120 3489,-120 3489,-116 3493,-116 3493,-96 3489,-96 3489,-92 3493,-92 3493,-88 3645,-88 3645,-124"/>
<polyline fill="none" stroke="black" stroke-width="2" points="3493,-120 3497,-120 3497,-116 3493,-116 "/>
<polyline fill="none" stroke="black" stroke-width="2" points="3493,-96 3497,-96 3497,-92 3493,-92 "/>
<text text-anchor="middle" x="3569" y="-102.3" font-family="Times,serif" font-size="14.00">bFrontendConfig</text>
</g>
<!-- 49&#45;&gt;24 -->
<g id="edge64" class="edge"><title>49&#45;&gt;24</title>
<path fill="none" stroke="black" stroke-width="1.69315" d="M3384.37,-180.768C3399.74,-174.337 3417.41,-167.645 3434,-163 3455.25,-157.05 3462.16,-162.264 3483,-155 3501.09,-148.695 3519.81,-138.717 3535.15,-129.489"/>
<polygon fill="black" stroke="black" stroke-width="1.69315" points="3537.09,-132.405 3543.76,-124.175 3533.41,-126.448 3537.09,-132.405"/>
</g>
<!-- 26 -->
<g id="node50" class="node"><title>26</title>
<polygon fill="bisque" stroke="black" stroke-width="2" points="3798.5,-124 3663.5,-124 3663.5,-120 3659.5,-120 3659.5,-116 3663.5,-116 3663.5,-96 3659.5,-96 3659.5,-92 3663.5,-92 3663.5,-88 3798.5,-88 3798.5,-124"/>
<polyline fill="none" stroke="black" stroke-width="2" points="3663.5,-120 3667.5,-120 3667.5,-116 3663.5,-116 "/>
<polyline fill="none" stroke="black" stroke-width="2" points="3663.5,-96 3667.5,-96 3667.5,-92 3663.5,-92 "/>
<text text-anchor="middle" x="3731" y="-102.3" font-family="Times,serif" font-size="14.00">bProxyConfig</text>
</g>
<!-- 49&#45;&gt;26 -->
<g id="edge65" class="edge"><title>49&#45;&gt;26</title>
<path fill="none" stroke="black" stroke-width="1.69315" d="M3382.71,-180.188C3398.36,-173.449 3416.65,-166.704 3434,-163 3481.84,-152.789 3607.22,-169.312 3654,-155 3671.05,-149.783 3688.08,-139.794 3701.77,-130.274"/>
<polygon fill="black" stroke="black" stroke-width="1.69315" points="3704.2,-132.836 3710.25,-124.14 3700.1,-127.164 3704.2,-132.836"/>
</g>
<!-- 28 -->
<g id="node51" class="node"><title>28</title>
<polygon fill="bisque" stroke="black" stroke-width="2" points="3951.5,-124 3816.5,-124 3816.5,-120 3812.5,-120 3812.5,-116 3816.5,-116 3816.5,-96 3812.5,-96 3812.5,-92 3816.5,-92 3816.5,-88 3951.5,-88 3951.5,-124"/>
<polyline fill="none" stroke="black" stroke-width="2" points="3816.5,-120 3820.5,-120 3820.5,-116 3816.5,-116 "/>
<polyline fill="none" stroke="black" stroke-width="2" points="3816.5,-96 3820.5,-96 3820.5,-92 3816.5,-92 "/>
<text text-anchor="middle" x="3884" y="-102.3" font-family="Times,serif" font-size="14.00">bRunBackend</text>
</g>
<!-- 49&#45;&gt;28 -->
<g id="edge66" class="edge"><title>49&#45;&gt;28</title>
<path fill="none" stroke="black" stroke-width="1.69315" d="M3382.22,-180.246C3397.98,-173.425 3416.45,-166.609 3434,-163 3474.6,-154.65 3767.27,-166.832 3807,-155 3824.09,-149.91 3841.12,-139.936 3854.81,-130.392"/>
<polygon fill="black" stroke="black" stroke-width="1.69315" points="3857.25,-132.946 3863.28,-124.239 3853.13,-127.282 3857.25,-132.946"/>
</g>
<!-- 29 -->
<g id="node52" class="node"><title>29</title>
<polygon fill="bisque" stroke="black" stroke-width="2" points="4106.5,-124 3969.5,-124 3969.5,-120 3965.5,-120 3965.5,-116 3969.5,-116 3969.5,-96 3965.5,-96 3965.5,-92 3969.5,-92 3969.5,-88 4106.5,-88 4106.5,-124"/>
<polyline fill="none" stroke="black" stroke-width="2" points="3969.5,-120 3973.5,-120 3973.5,-116 3969.5,-116 "/>
<polyline fill="none" stroke="black" stroke-width="2" points="3969.5,-96 3973.5,-96 3973.5,-92 3969.5,-92 "/>
<text text-anchor="middle" x="4038" y="-102.3" font-family="Times,serif" font-size="14.00">bRunFrontend</text>
</g>
<!-- 49&#45;&gt;29 -->
<g id="edge67" class="edge"><title>49&#45;&gt;29</title>
<path fill="none" stroke="black" stroke-width="1.69315" d="M3382.21,-180.188C3397.96,-173.36 3416.44,-166.555 3434,-163 3491.29,-151.404 3903.88,-171.346 3960,-155 3977.57,-149.882 3995.11,-139.661 4009.1,-129.962"/>
<polygon fill="black" stroke="black" stroke-width="1.69315" points="4011.25,-132.727 4017.31,-124.041 4007.15,-127.048 4011.25,-132.727"/>
</g>
<!-- 30 -->
<g id="node53" class="node"><title>30</title>
<polygon fill="bisque" stroke="black" stroke-width="2" points="4257,-124 4125,-124 4125,-120 4121,-120 4121,-116 4125,-116 4125,-96 4121,-96 4121,-92 4125,-92 4125,-88 4257,-88 4257,-124"/>
<polyline fill="none" stroke="black" stroke-width="2" points="4125,-120 4129,-120 4129,-116 4125,-116 "/>
<polyline fill="none" stroke="black" stroke-width="2" points="4125,-96 4129,-96 4129,-92 4125,-92 "/>
<text text-anchor="middle" x="4191" y="-102.3" font-family="Times,serif" font-size="14.00">bSmtpConfig</text>
</g>
<!-- 49&#45;&gt;30 -->
<g id="edge68" class="edge"><title>49&#45;&gt;30</title>
<path fill="none" stroke="black" stroke-width="1.69315" d="M3382.21,-180.156C3397.96,-173.324 3416.43,-166.524 3434,-163 3471.1,-155.558 4078.72,-165.73 4115,-155 4132.06,-149.954 4149,-139.88 4162.55,-130.259"/>
<polygon fill="black" stroke="black" stroke-width="1.69315" points="4164.97,-132.822 4170.92,-124.059 4160.8,-127.196 4164.97,-132.822"/>
</g>
<!-- 54 -->
<g id="node10" class="node"><title>54</title>
<polygon fill="bisque" stroke="black" stroke-width="2" points="3602.7,-191.92 3602.7,-210.471 3556.01,-223.589 3489.99,-223.589 3443.3,-210.471 3443.3,-191.92 3489.99,-178.803 3556.01,-178.803 3602.7,-191.92"/>
<text text-anchor="middle" x="3523" y="-197.496" font-family="Times,serif" font-size="14.00">mempty</text>
</g>
<!-- 72 -->
<g id="node12" class="node"><title>72</title>
<polygon fill="khaki" stroke="black" stroke-dasharray="1,5" points="3879.86,-286.053 3879.86,-314.082 3809.06,-333.902 3708.94,-333.902 3638.14,-314.082 3638.14,-286.053 3708.94,-266.233 3809.06,-266.233 3879.86,-286.053"/>
<polygon fill="none" stroke="black" stroke-dasharray="1,5" points="3883.86,-283 3883.86,-317.135 3809.61,-337.921 3708.39,-337.921 3634.14,-317.135 3634.14,-283 3708.39,-262.214 3809.61,-262.214 3883.86,-283"/>
<text text-anchor="middle" x="3759" y="-303.867" font-family="Times,serif" font-size="14.00">Unknown Module</text>
<text text-anchor="middle" x="3759" y="-288.867" font-family="Times,serif" font-size="14.00">mempty</text>
</g>
<!-- 54&#45;&gt;72 -->
<g id="edge74" class="edge"><title>54&#45;&gt;72</title>
<path fill="none" stroke="black" stroke-width="2.38629" d="M3548.52,-223.584C3564.66,-233.823 3585.94,-245.712 3606,-254.391 3620.72,-260.762 3636.65,-266.643 3652.48,-271.904"/>
<polygon fill="black" stroke="black" stroke-width="2.38629" points="3651.72,-275.337 3662.31,-275.098 3653.88,-268.68 3651.72,-275.337"/>
</g>
<!-- 54&#45;&gt;19 -->
<g id="edge73" class="edge"><title>54&#45;&gt;19</title>
<path fill="none" stroke="black" d="M3562.3,-180.549C3578.24,-173.586 3597.09,-166.591 3615,-163 3633.63,-159.263 4285.64,-168.514 4299,-155 4322.43,-131.292 4321.26,-104.808 4299,-80 4278.33,-56.9634 4100.42,-44.6326 3984.35,-38.9781"/>
<polygon fill="black" stroke="black" points="3984.17,-35.4657 3974.01,-38.4843 3983.83,-42.4577 3984.17,-35.4657"/>
</g>
<!-- 71 -->
<g id="node11" class="node"><title>71</title>
<polygon fill="khaki" stroke="black" stroke-dasharray="1,5" points="4198.86,-286.053 4198.86,-314.082 4128.06,-333.902 4027.94,-333.902 3957.14,-314.082 3957.14,-286.053 4027.94,-266.233 4128.06,-266.233 4198.86,-286.053"/>
<polygon fill="none" stroke="black" stroke-dasharray="1,5" points="4202.86,-283 4202.86,-317.135 4128.61,-337.921 4027.39,-337.921 3953.14,-317.135 3953.14,-283 4027.39,-262.214 4128.61,-262.214 4202.86,-283"/>
<text text-anchor="middle" x="4078" y="-303.867" font-family="Times,serif" font-size="14.00">Unknown Module</text>
<text text-anchor="middle" x="4078" y="-288.867" font-family="Times,serif" font-size="14.00">mappend</text>
</g>
<!-- 71&#45;&gt;45 -->
<g id="edge105" class="edge"><title>71&#45;&gt;45</title>
<path fill="none" stroke="navy" d="M4203.19,-287.657C4250.39,-281.013 4304.01,-270.607 4351,-254.391 4373.06,-246.779 4396.04,-234.295 4413.87,-223.445"/>
</g>
<!-- 71&#45;&gt;46 -->
<g id="edge106" class="edge"><title>71&#45;&gt;46</title>
<path fill="none" stroke="navy" d="M4202.94,-299.248C4399.85,-298.362 4773.05,-291.608 4900,-254.391 4922.38,-247.83 4945.2,-234.933 4962.51,-223.601"/>
</g>
<!-- 71&#45;&gt;47 -->
<g id="edge107" class="edge"><title>71&#45;&gt;47</title>
<path fill="none" stroke="navy" d="M4078,-262.168C4078,-249.122 4078,-234.89 4078,-223.565"/>
</g>
<!-- 71&#45;&gt;48 -->
<g id="edge108" class="edge"><title>71&#45;&gt;48</title>
<path fill="none" stroke="navy" d="M4009,-267.242C4000.21,-263.004 3991.36,-258.651 3983,-254.391 3963.55,-244.486 3942.22,-232.84 3924.71,-223.065"/>
</g>
<!-- 71&#45;&gt;49 -->
<g id="edge109" class="edge"><title>71&#45;&gt;49</title>
<path fill="none" stroke="navy" d="M3978.17,-275.894C3950.72,-270.449 3920.84,-265.369 3893,-262.391 3842.28,-256.966 3483.2,-267.837 3434,-254.391 3411.33,-248.195 3388.33,-235.146 3370.99,-223.647"/>
</g>
<!-- 72&#45;&gt;50 -->
<g id="edge110" class="edge"><title>72&#45;&gt;50</title>
<path fill="none" stroke="navy" d="M3858.83,-275.821C3886.28,-270.375 3916.16,-265.314 3944,-262.391 3976.82,-258.946 4506.21,-263.256 4538,-254.391 4560.26,-248.185 4582.68,-234.98 4599.46,-223.405"/>
</g>
<!-- 72&#45;&gt;51 -->
<g id="edge111" class="edge"><title>72&#45;&gt;51</title>
<path fill="none" stroke="navy" d="M3858.82,-275.763C3886.27,-270.317 3916.15,-265.27 3944,-262.391 3986.83,-257.963 4677.42,-265.593 4719,-254.391 4741.87,-248.228 4765.06,-235.023 4782.43,-223.437"/>
</g>
<!-- 72&#45;&gt;52 -->
<g id="edge112" class="edge"><title>72&#45;&gt;52</title>
<path fill="none" stroke="navy" d="M3859.35,-276.131C3886.67,-270.721 3916.35,-265.6 3944,-262.391 3993.92,-256.597 4121.74,-268.419 4170,-254.391 4192.02,-247.991 4214.27,-234.942 4231.01,-223.493"/>
</g>
<!-- 72&#45;&gt;53 -->
<g id="edge113" class="edge"><title>72&#45;&gt;53</title>
<path fill="none" stroke="navy" d="M3739.19,-262.168C3732.19,-249.122 3724.55,-234.89 3718.47,-223.565"/>
</g>
<!-- 72&#45;&gt;54 -->
<g id="edge114" class="edge"><title>72&#45;&gt;54</title>
<path fill="none" stroke="navy" d="M3671.54,-272.345C3655.54,-266.973 3639.13,-260.941 3624,-254.391 3602.93,-245.274 3580.51,-232.616 3562.02,-222.049"/>
</g>
<!-- 4 -->
<g id="node13" class="node"><title>4</title>
<polygon fill="goldenrod" stroke="black" stroke-width="2" points="159.5,-124 20.5,-124 16.5,-120 16.5,-88 155.5,-88 159.5,-92 159.5,-124"/>
<polyline fill="none" stroke="black" stroke-width="2" points="155.5,-120 16.5,-120 "/>
<polyline fill="none" stroke="black" stroke-width="2" points="155.5,-120 155.5,-88 "/>
<polyline fill="none" stroke="black" stroke-width="2" points="155.5,-120 159.5,-124 "/>
<text text-anchor="middle" x="88" y="-102.3" font-family="Times,serif" font-size="14.00">BackendConfig</text>
</g>
<!-- 32 -->
<g id="node14" class="node"><title>32</title>
<polygon fill="gold" stroke="black" stroke-width="2" points="151,-219.196 25,-219.196 25,-215.196 21,-215.196 21,-211.196 25,-211.196 25,-191.196 21,-191.196 21,-187.196 25,-187.196 25,-183.196 151,-183.196 151,-219.196"/>
<polyline fill="none" stroke="black" stroke-width="2" points="25,-215.196 29,-215.196 29,-211.196 25,-211.196 "/>
<polyline fill="none" stroke="black" stroke-width="2" points="25,-191.196 29,-191.196 29,-187.196 25,-187.196 "/>
<text text-anchor="middle" x="88" y="-197.496" font-family="Times,serif" font-size="14.00">backendPort</text>
</g>
<!-- 32&#45;&gt;4 -->
<g id="edge12" class="edge"><title>32&#45;&gt;4</title>
<path fill="none" stroke="magenta" d="M88,-183.102C88,-169.525 88,-150.271 88,-134.527"/>
<polygon fill="magenta" stroke="magenta" points="88,-124.301 92.5001,-134.301 88,-129.301 88.0001,-134.301 88.0001,-134.301 88.0001,-134.301 88,-129.301 83.5001,-134.301 88,-124.301 88,-124.301"/>
</g>
<!-- 22&#45;&gt;5 -->
<g id="edge2" class="edge"><title>22&#45;&gt;5</title>
<path fill="none" stroke="magenta" d="M4500.93,-87.6966C4503.61,-79.8979 4506.83,-70.5085 4509.8,-61.8292"/>
<polygon fill="magenta" stroke="magenta" points="4513.14,-52.1043 4514.15,-63.0233 4511.51,-56.8341 4509.89,-61.5638 4509.89,-61.5638 4509.89,-61.5638 4511.51,-56.8341 4505.64,-60.1043 4513.14,-52.1043 4513.14,-52.1043"/>
</g>
<!-- 13 -->
<g id="node17" class="node"><title>13</title>
<polygon fill="goldenrod" stroke="black" stroke-width="2" points="2543.5,-420.744 2466.5,-420.744 2462.5,-416.744 2462.5,-384.744 2539.5,-384.744 2543.5,-388.744 2543.5,-420.744"/>
<polyline fill="none" stroke="black" stroke-width="2" points="2539.5,-416.744 2462.5,-416.744 "/>
<polyline fill="none" stroke="black" stroke-width="2" points="2539.5,-416.744 2539.5,-384.744 "/>
<polyline fill="none" stroke="black" stroke-width="2" points="2539.5,-416.744 2543.5,-420.744 "/>
<text text-anchor="middle" x="2503" y="-399.044" font-family="Times,serif" font-size="14.00">Run</text>
</g>
<!-- 14 -->
<g id="node18" class="node"><title>14</title>
<polygon fill="goldenrod" stroke="black" stroke-width="2" points="2444,-420.744 2350,-420.744 2346,-416.744 2346,-384.744 2440,-384.744 2444,-388.744 2444,-420.744"/>
<polyline fill="none" stroke="black" stroke-width="2" points="2440,-416.744 2346,-416.744 "/>
<polyline fill="none" stroke="black" stroke-width="2" points="2440,-416.744 2440,-384.744 "/>
<polyline fill="none" stroke="black" stroke-width="2" points="2440,-416.744 2444,-420.744 "/>
<text text-anchor="middle" x="2395" y="-399.044" font-family="Times,serif" font-size="14.00">RunA3</text>
</g>
<!-- 15 -->
<g id="node19" class="node"><title>15</title>
<polygon fill="goldenrod" stroke="black" stroke-width="2" points="2328,-420.744 2224,-420.744 2220,-416.744 2220,-384.744 2324,-384.744 2328,-388.744 2328,-420.744"/>
<polyline fill="none" stroke="black" stroke-width="2" points="2324,-416.744 2220,-416.744 "/>
<polyline fill="none" stroke="black" stroke-width="2" points="2324,-416.744 2324,-384.744 "/>
<polyline fill="none" stroke="black" stroke-width="2" points="2324,-416.744 2328,-420.744 "/>
<text text-anchor="middle" x="2274" y="-399.044" font-family="Times,serif" font-size="14.00">ShowDB</text>
</g>
<!-- 1 -->
<g id="node20" class="node"><title>1</title>
<polygon fill="cyan" stroke="black" stroke-width="2" points="3068,-420.744 2982,-420.744 2978,-416.744 2978,-384.744 3064,-384.744 3068,-388.744 3068,-420.744"/>
<polyline fill="none" stroke="black" stroke-width="2" points="3064,-416.744 2978,-416.744 "/>
<polyline fill="none" stroke="black" stroke-width="2" points="3064,-416.744 3064,-384.744 "/>
<polyline fill="none" stroke="black" stroke-width="2" points="3064,-416.744 3068,-420.744 "/>
<text text-anchor="middle" x="3023" y="-399.044" font-family="Times,serif" font-size="14.00">BRun</text>
</g>
<!-- 2 -->
<g id="node21" class="node"><title>2</title>
<polygon fill="cyan" stroke="black" stroke-width="2" points="2959.5,-420.744 2856.5,-420.744 2852.5,-416.744 2852.5,-384.744 2955.5,-384.744 2959.5,-388.744 2959.5,-420.744"/>
<polyline fill="none" stroke="black" stroke-width="2" points="2955.5,-416.744 2852.5,-416.744 "/>
<polyline fill="none" stroke="black" stroke-width="2" points="2955.5,-416.744 2955.5,-384.744 "/>
<polyline fill="none" stroke="black" stroke-width="2" points="2955.5,-416.744 2959.5,-420.744 "/>
<text text-anchor="middle" x="2906" y="-399.044" font-family="Times,serif" font-size="14.00">BRunA3</text>
</g>
<!-- 3 -->
<g id="node22" class="node"><title>3</title>
<polygon fill="cyan" stroke="black" stroke-width="2" points="2834.5,-420.744 2721.5,-420.744 2717.5,-416.744 2717.5,-384.744 2830.5,-384.744 2834.5,-388.744 2834.5,-420.744"/>
<polyline fill="none" stroke="black" stroke-width="2" points="2830.5,-416.744 2717.5,-416.744 "/>
<polyline fill="none" stroke="black" stroke-width="2" points="2830.5,-416.744 2830.5,-384.744 "/>
<polyline fill="none" stroke="black" stroke-width="2" points="2830.5,-416.744 2834.5,-420.744 "/>
<text text-anchor="middle" x="2776" y="-399.044" font-family="Times,serif" font-size="14.00">BShowDB</text>
</g>
<!-- 6 -->
<g id="node23" class="node"><title>6</title>
<polygon fill="cyan" stroke="black" stroke-width="2" points="1835,-124 1651,-124 1647,-120 1647,-88 1831,-88 1835,-92 1835,-124"/>
<polyline fill="none" stroke="black" stroke-width="2" points="1831,-120 1647,-120 "/>
<polyline fill="none" stroke="black" stroke-width="2" points="1831,-120 1831,-88 "/>
<polyline fill="none" stroke="black" stroke-width="2" points="1831,-120 1835,-124 "/>
<text text-anchor="middle" x="1741" y="-102.3" font-family="Times,serif" font-size="14.00">BackendConfigMissing</text>
</g>
<!-- 9 -->
<g id="node24" class="node"><title>9</title>
<polygon fill="cyan" stroke="black" stroke-width="2" points="2042.5,-124 1857.5,-124 1853.5,-120 1853.5,-88 2038.5,-88 2042.5,-92 2042.5,-124"/>
<polyline fill="none" stroke="black" stroke-width="2" points="2038.5,-120 1853.5,-120 "/>
<polyline fill="none" stroke="black" stroke-width="2" points="2038.5,-120 2038.5,-88 "/>
<polyline fill="none" stroke="black" stroke-width="2" points="2038.5,-120 2042.5,-124 "/>
<text text-anchor="middle" x="1948" y="-102.3" font-family="Times,serif" font-size="14.00">FrontendConfigMissing</text>
</g>
<!-- 10 -->
<g id="node25" class="node"><title>10</title>
<polygon fill="cyan" stroke="black" stroke-width="2" points="2207,-124 2065,-124 2061,-120 2061,-88 2203,-88 2207,-92 2207,-124"/>
<polyline fill="none" stroke="black" stroke-width="2" points="2203,-120 2061,-120 "/>
<polyline fill="none" stroke="black" stroke-width="2" points="2203,-120 2203,-88 "/>
<polyline fill="none" stroke="black" stroke-width="2" points="2203,-120 2207,-124 "/>
<text text-anchor="middle" x="2134" y="-102.3" font-family="Times,serif" font-size="14.00">NoEmailSender</text>
</g>
<!-- 20 -->
<g id="node26" class="node"><title>20</title>
<polygon fill="cyan" stroke="black" stroke-width="2" points="2447,-124 2229,-124 2225,-120 2225,-88 2443,-88 2447,-92 2447,-124"/>
<polyline fill="none" stroke="black" stroke-width="2" points="2443,-120 2225,-120 "/>
<polyline fill="none" stroke="black" stroke-width="2" points="2443,-120 2443,-88 "/>
<polyline fill="none" stroke="black" stroke-width="2" points="2443,-120 2447,-124 "/>
<text text-anchor="middle" x="2336" y="-102.3" font-family="Times,serif" font-size="14.00">UnknownRoleForDefaultUser</text>
</g>
<!-- 7 -->
<g id="node27" class="node"><title>7</title>
<polygon fill="goldenrod" stroke="black" stroke-width="2" points="329.5,-124 188.5,-124 184.5,-120 184.5,-88 325.5,-88 329.5,-92 329.5,-124"/>
<polyline fill="none" stroke="black" stroke-width="2" points="325.5,-120 184.5,-120 "/>
<polyline fill="none" stroke="black" stroke-width="2" points="325.5,-120 325.5,-88 "/>
<polyline fill="none" stroke="black" stroke-width="2" points="325.5,-120 329.5,-124 "/>
<text text-anchor="middle" x="257" y="-102.3" font-family="Times,serif" font-size="14.00">FrontendConfig</text>
</g>
<!-- 43 -->
<g id="node28" class="node"><title>43</title>
<polygon fill="gold" stroke="black" stroke-width="2" points="320.5,-219.196 193.5,-219.196 193.5,-215.196 189.5,-215.196 189.5,-211.196 193.5,-211.196 193.5,-191.196 189.5,-191.196 189.5,-187.196 193.5,-187.196 193.5,-183.196 320.5,-183.196 320.5,-219.196"/>
<polyline fill="none" stroke="black" stroke-width="2" points="193.5,-215.196 197.5,-215.196 197.5,-211.196 193.5,-211.196 "/>
<polyline fill="none" stroke="black" stroke-width="2" points="193.5,-191.196 197.5,-191.196 197.5,-187.196 193.5,-187.196 "/>
<text text-anchor="middle" x="257" y="-197.496" font-family="Times,serif" font-size="14.00">frontendPort</text>
</g>
<!-- 43&#45;&gt;7 -->
<g id="edge51" class="edge"><title>43&#45;&gt;7</title>
<path fill="none" stroke="magenta" d="M257,-183.102C257,-169.525 257,-150.271 257,-134.527"/>
<polygon fill="magenta" stroke="magenta" points="257,-124.301 261.5,-134.301 257,-129.301 257,-134.301 257,-134.301 257,-134.301 257,-129.301 252.5,-134.301 257,-124.301 257,-124.301"/>
</g>
<!-- 25&#45;&gt;8 -->
<g id="edge5" class="edge"><title>25&#45;&gt;8</title>
<path fill="none" stroke="magenta" d="M4997.69,-87.6966C5000.25,-79.8979 5003.33,-70.5085 5006.18,-61.8292"/>
<polygon fill="magenta" stroke="magenta" points="5009.38,-52.1043 5010.53,-63.0094 5007.82,-56.8545 5006.26,-61.6047 5006.26,-61.6047 5006.26,-61.6047 5007.82,-56.8545 5001.98,-60.1999 5009.38,-52.1043 5009.38,-52.1043"/>
</g>
<!-- 11 -->
<g id="node31" class="node"><title>11</title>
<polygon fill="goldenrod" stroke="black" stroke-width="2" points="5748,-124 5624,-124 5620,-120 5620,-88 5744,-88 5748,-92 5748,-124"/>
<polyline fill="none" stroke="black" stroke-width="2" points="5744,-120 5620,-120 "/>
<polyline fill="none" stroke="black" stroke-width="2" points="5744,-120 5744,-88 "/>
<polyline fill="none" stroke="black" stroke-width="2" points="5744,-120 5748,-124 "/>
<text text-anchor="middle" x="5684" y="-102.3" font-family="Times,serif" font-size="14.00">ProxyConfig</text>
</g>
<!-- 66 -->
<g id="node32" class="node"><title>66</title>
<polygon fill="gold" stroke="black" stroke-width="2" points="5750.5,-219.196 5619.5,-219.196 5619.5,-215.196 5615.5,-215.196 5615.5,-211.196 5619.5,-211.196 5619.5,-191.196 5615.5,-191.196 5615.5,-187.196 5619.5,-187.196 5619.5,-183.196 5750.5,-183.196 5750.5,-219.196"/>
<polyline fill="none" stroke="black" stroke-width="2" points="5619.5,-215.196 5623.5,-215.196 5623.5,-211.196 5619.5,-211.196 "/>
<polyline fill="none" stroke="black" stroke-width="2" points="5619.5,-191.196 5623.5,-191.196 5623.5,-187.196 5619.5,-187.196 "/>
<text text-anchor="middle" x="5685" y="-197.496" font-family="Times,serif" font-size="14.00">proxyTargets</text>
</g>
<!-- 66&#45;&gt;11 -->
<g id="edge100" class="edge"><title>66&#45;&gt;11</title>
<path fill="none" stroke="magenta" d="M5684.82,-183.102C5684.67,-169.525 5684.46,-150.271 5684.3,-134.527"/>
<polygon fill="magenta" stroke="magenta" points="5684.19,-124.301 5688.79,-134.252 5684.24,-129.3 5684.29,-134.3 5684.29,-134.3 5684.29,-134.3 5684.24,-129.3 5679.79,-134.349 5684.19,-124.301 5684.19,-124.301"/>
</g>
<!-- 27&#45;&gt;12 -->
<g id="edge7" class="edge"><title>27&#45;&gt;12</title>
<path fill="none" stroke="magenta" d="M2764.2,-87.6966C2766.1,-79.8979 2768.38,-70.5085 2770.48,-61.8292"/>
<polygon fill="magenta" stroke="magenta" points="2772.85,-52.1043 2774.86,-62.8839 2771.67,-56.9631 2770.49,-61.8219 2770.49,-61.8219 2770.49,-61.8219 2771.67,-56.9631 2766.11,-60.7599 2772.85,-52.1043 2772.85,-52.1043"/>
</g>
<!-- 16 -->
<g id="node35" class="node"><title>16</title>
<polygon fill="goldenrod" stroke="black" stroke-width="2" points="1461.5,-124 1340.5,-124 1336.5,-120 1336.5,-88 1457.5,-88 1461.5,-92 1461.5,-124"/>
<polyline fill="none" stroke="black" stroke-width="2" points="1457.5,-120 1336.5,-120 "/>
<polyline fill="none" stroke="black" stroke-width="2" points="1457.5,-120 1457.5,-88 "/>
<polyline fill="none" stroke="black" stroke-width="2" points="1457.5,-120 1461.5,-124 "/>
<text text-anchor="middle" x="1399" y="-102.3" font-family="Times,serif" font-size="14.00">SmtpConfig</text>
</g>
<!-- 68 -->
<g id="node36" class="node"><title>68</title>
<polygon fill="gold" stroke="black" stroke-width="2" points="1622.5,-219.196 1499.5,-219.196 1499.5,-215.196 1495.5,-215.196 1495.5,-211.196 1499.5,-211.196 1499.5,-191.196 1495.5,-191.196 1495.5,-187.196 1499.5,-187.196 1499.5,-183.196 1622.5,-183.196 1622.5,-219.196"/>
<polyline fill="none" stroke="black" stroke-width="2" points="1499.5,-215.196 1503.5,-215.196 1503.5,-211.196 1499.5,-211.196 "/>
<polyline fill="none" stroke="black" stroke-width="2" points="1499.5,-191.196 1503.5,-191.196 1503.5,-187.196 1499.5,-187.196 "/>
<text text-anchor="middle" x="1561" y="-197.496" font-family="Times,serif" font-size="14.00">smtpSender</text>
</g>
<!-- 68&#45;&gt;16 -->
<g id="edge102" class="edge"><title>68&#45;&gt;16</title>
<path fill="none" stroke="magenta" d="M1531.29,-183.102C1504.99,-167.976 1466.45,-145.804 1437.75,-129.29"/>
<polygon fill="magenta" stroke="magenta" points="1428.8,-124.143 1439.71,-125.229 1433.13,-126.636 1437.47,-129.129 1437.47,-129.129 1437.47,-129.129 1433.13,-126.636 1435.22,-133.03 1428.8,-124.143 1428.8,-124.143"/>
</g>
<!-- 69 -->
<g id="node37" class="node"><title>69</title>
<polygon fill="gold" stroke="black" stroke-width="2" points="1481,-219.196 1317,-219.196 1317,-215.196 1313,-215.196 1313,-211.196 1317,-211.196 1317,-191.196 1313,-191.196 1313,-187.196 1317,-187.196 1317,-183.196 1481,-183.196 1481,-219.196"/>
<polyline fill="none" stroke="black" stroke-width="2" points="1317,-215.196 1321,-215.196 1321,-211.196 1317,-211.196 "/>
<polyline fill="none" stroke="black" stroke-width="2" points="1317,-191.196 1321,-191.196 1321,-187.196 1317,-187.196 "/>
<text text-anchor="middle" x="1399" y="-197.496" font-family="Times,serif" font-size="14.00">smtpSendmailArgs</text>
</g>
<!-- 69&#45;&gt;16 -->
<g id="edge103" class="edge"><title>69&#45;&gt;16</title>
<path fill="none" stroke="magenta" d="M1399,-183.102C1399,-169.525 1399,-150.271 1399,-134.527"/>
<polygon fill="magenta" stroke="magenta" points="1399,-124.301 1403.5,-134.301 1399,-129.301 1399,-134.301 1399,-134.301 1399,-134.301 1399,-129.301 1394.5,-134.301 1399,-124.301 1399,-124.301"/>
</g>
<!-- 70 -->
<g id="node38" class="node"><title>70</title>
<polygon fill="gold" stroke="black" stroke-width="2" points="1298.5,-219.196 1137.5,-219.196 1137.5,-215.196 1133.5,-215.196 1133.5,-211.196 1137.5,-211.196 1137.5,-191.196 1133.5,-191.196 1133.5,-187.196 1137.5,-187.196 1137.5,-183.196 1298.5,-183.196 1298.5,-219.196"/>
<polyline fill="none" stroke="black" stroke-width="2" points="1137.5,-215.196 1141.5,-215.196 1141.5,-211.196 1137.5,-211.196 "/>
<polyline fill="none" stroke="black" stroke-width="2" points="1137.5,-191.196 1141.5,-191.196 1141.5,-187.196 1137.5,-187.196 "/>
<text text-anchor="middle" x="1218" y="-197.496" font-family="Times,serif" font-size="14.00">smtpSendmailPath</text>
</g>
<!-- 70&#45;&gt;16 -->
<g id="edge104" class="edge"><title>70&#45;&gt;16</title>
<path fill="none" stroke="magenta" d="M1251.2,-183.102C1280.83,-167.845 1324.38,-145.42 1356.54,-128.862"/>
<polygon fill="magenta" stroke="magenta" points="1365.71,-124.143 1358.88,-132.721 1361.26,-126.432 1356.82,-128.721 1356.82,-128.721 1356.82,-128.721 1361.26,-126.432 1354.76,-124.72 1365.71,-124.143 1365.71,-124.143"/>
</g>
<!-- 18 -->
<g id="node40" class="node"><title>18</title>
<polygon fill="goldenrod" stroke="black" stroke-width="2" points="929,-219.196 793,-219.196 789,-215.196 789,-183.196 925,-183.196 929,-187.196 929,-219.196"/>
<polyline fill="none" stroke="black" stroke-width="2" points="925,-215.196 789,-215.196 "/>
<polyline fill="none" stroke="black" stroke-width="2" points="925,-215.196 925,-183.196 "/>
<polyline fill="none" stroke="black" stroke-width="2" points="925,-215.196 929,-219.196 "/>
<text text-anchor="middle" x="859" y="-197.496" font-family="Times,serif" font-size="14.00">ThentosConfig</text>
</g>
<!-- 31 -->
<g id="node41" class="node"><title>31</title>
<polygon fill="gold" stroke="black" stroke-width="2" points="635.5,-318.067 494.5,-318.067 494.5,-314.067 490.5,-314.067 490.5,-310.067 494.5,-310.067 494.5,-290.067 490.5,-290.067 490.5,-286.067 494.5,-286.067 494.5,-282.067 635.5,-282.067 635.5,-318.067"/>
<polyline fill="none" stroke="black" stroke-width="2" points="494.5,-314.067 498.5,-314.067 498.5,-310.067 494.5,-310.067 "/>
<polyline fill="none" stroke="black" stroke-width="2" points="494.5,-290.067 498.5,-290.067 498.5,-286.067 494.5,-286.067 "/>
<text text-anchor="middle" x="565" y="-296.367" font-family="Times,serif" font-size="14.00">backendConfig</text>
</g>
<!-- 31&#45;&gt;18 -->
<g id="edge11" class="edge"><title>31&#45;&gt;18</title>
<path fill="none" stroke="magenta" d="M598.709,-281.954C612.531,-275.324 628.822,-267.997 644,-262.391 687.836,-246.2 738.067,-231.908 778.948,-221.318"/>
<polygon fill="magenta" stroke="magenta" points="788.861,-218.775 780.292,-225.619 784.017,-220.018 779.174,-221.26 779.174,-221.26 779.174,-221.26 784.017,-220.018 778.056,-216.902 788.861,-218.775 788.861,-218.775"/>
</g>
<!-- 34 -->
<g id="node42" class="node"><title>34</title>
<polygon fill="gold" stroke="black" stroke-width="2" points="476,-318.067 354,-318.067 354,-314.067 350,-314.067 350,-310.067 354,-310.067 354,-290.067 350,-290.067 350,-286.067 354,-286.067 354,-282.067 476,-282.067 476,-318.067"/>
<polyline fill="none" stroke="black" stroke-width="2" points="354,-314.067 358,-314.067 358,-310.067 354,-310.067 "/>
<polyline fill="none" stroke="black" stroke-width="2" points="354,-290.067 358,-290.067 358,-286.067 354,-286.067 "/>
<text text-anchor="middle" x="415" y="-296.367" font-family="Times,serif" font-size="14.00">defaultUser</text>
</g>
<!-- 34&#45;&gt;18 -->
<g id="edge13" class="edge"><title>34&#45;&gt;18</title>
<path fill="none" stroke="magenta" d="M442.688,-281.912C455.198,-274.867 470.419,-267.241 485,-262.391 583.096,-229.764 701.735,-214.509 778.703,-207.594"/>
<polygon fill="magenta" stroke="magenta" points="788.813,-206.712 779.242,-212.064 783.832,-207.147 778.851,-207.581 778.851,-207.581 778.851,-207.581 783.832,-207.147 778.46,-203.098 788.813,-206.712 788.813,-206.712"/>
</g>
<!-- 42 -->
<g id="node43" class="node"><title>42</title>
<polygon fill="gold" stroke="black" stroke-width="2" points="1083,-318.067 941,-318.067 941,-314.067 937,-314.067 937,-310.067 941,-310.067 941,-290.067 937,-290.067 937,-286.067 941,-286.067 941,-282.067 1083,-282.067 1083,-318.067"/>
<polyline fill="none" stroke="black" stroke-width="2" points="941,-314.067 945,-314.067 945,-310.067 941,-310.067 "/>
<polyline fill="none" stroke="black" stroke-width="2" points="941,-290.067 945,-290.067 945,-286.067 941,-286.067 "/>
<text text-anchor="middle" x="1012" y="-296.367" font-family="Times,serif" font-size="14.00">frontendConfig</text>
</g>
<!-- 42&#45;&gt;18 -->
<g id="edge50" class="edge"><title>42&#45;&gt;18</title>
<path fill="none" stroke="magenta" d="M984.999,-281.972C959.841,-266.043 922.166,-242.189 894.566,-224.714"/>
<polygon fill="magenta" stroke="magenta" points="885.988,-219.283 896.844,-220.831 890.213,-221.958 894.437,-224.633 894.437,-224.633 894.437,-224.633 890.213,-221.958 892.03,-228.435 885.988,-219.283 885.988,-219.283"/>
</g>
<!-- 65 -->
<g id="node44" class="node"><title>65</title>
<polygon fill="gold" stroke="black" stroke-width="2" points="923,-318.067 795,-318.067 795,-314.067 791,-314.067 791,-310.067 795,-310.067 795,-290.067 791,-290.067 791,-286.067 795,-286.067 795,-282.067 923,-282.067 923,-318.067"/>
<polyline fill="none" stroke="black" stroke-width="2" points="795,-314.067 799,-314.067 799,-310.067 795,-310.067 "/>
<polyline fill="none" stroke="black" stroke-width="2" points="795,-290.067 799,-290.067 799,-286.067 795,-286.067 "/>
<text text-anchor="middle" x="859" y="-296.367" font-family="Times,serif" font-size="14.00">proxyConfig</text>
</g>
<!-- 65&#45;&gt;18 -->
<g id="edge99" class="edge"><title>65&#45;&gt;18</title>
<path fill="none" stroke="magenta" d="M859,-281.749C859,-267.284 859,-246.4 859,-229.659"/>
<polygon fill="magenta" stroke="magenta" points="859,-219.364 863.5,-229.364 859,-224.364 859,-229.364 859,-229.364 859,-229.364 859,-224.364 854.5,-229.364 859,-219.364 859,-219.364"/>
</g>
<!-- 67 -->
<g id="node45" class="node"><title>67</title>
<polygon fill="gold" stroke="black" stroke-width="2" points="776.5,-318.067 653.5,-318.067 653.5,-314.067 649.5,-314.067 649.5,-310.067 653.5,-310.067 653.5,-290.067 649.5,-290.067 649.5,-286.067 653.5,-286.067 653.5,-282.067 776.5,-282.067 776.5,-318.067"/>
<polyline fill="none" stroke="black" stroke-width="2" points="653.5,-314.067 657.5,-314.067 657.5,-310.067 653.5,-310.067 "/>
<polyline fill="none" stroke="black" stroke-width="2" points="653.5,-290.067 657.5,-290.067 657.5,-286.067 653.5,-286.067 "/>
<text text-anchor="middle" x="715" y="-296.367" font-family="Times,serif" font-size="14.00">smtpConfig</text>
</g>
<!-- 67&#45;&gt;18 -->
<g id="edge101" class="edge"><title>67&#45;&gt;18</title>
<path fill="none" stroke="magenta" d="M740.413,-281.972C763.916,-266.161 799.026,-242.541 824.948,-225.103"/>
<polygon fill="magenta" stroke="magenta" points="833.357,-219.446 827.571,-228.762 829.208,-222.237 825.06,-225.028 825.06,-225.028 825.06,-225.028 829.208,-222.237 822.548,-221.294 833.357,-219.446 833.357,-219.446"/>
</g>
<!-- 21&#45;&gt;19 -->
<g id="edge1" class="edge"><title>21&#45;&gt;19</title>
<path fill="none" stroke="magenta" d="M3301.12,-87.9509C3311.88,-84.8814 3323.23,-82.02 3334,-80 3489.23,-50.8774 3672.61,-40.6016 3783.52,-36.9761"/>
<polygon fill="magenta" stroke="magenta" points="3793.69,-36.6556 3783.84,-41.4684 3788.69,-36.8131 3783.69,-36.9706 3783.69,-36.9706 3783.69,-36.9706 3788.69,-36.8131 3783.55,-32.4728 3793.69,-36.6556 3793.69,-36.6556"/>
</g>
<!-- 23&#45;&gt;19 -->
<g id="edge3" class="edge"><title>23&#45;&gt;19</title>
<path fill="none" stroke="magenta" d="M3454.98,-87.9877C3464.48,-84.9539 3474.48,-82.097 3484,-80 3584.62,-57.827 3702.03,-46.2678 3783.5,-40.4515"/>
<polygon fill="magenta" stroke="magenta" points="3793.75,-39.7363 3784.09,-44.9213 3788.77,-40.0843 3783.78,-40.4322 3783.78,-40.4322 3783.78,-40.4322 3788.77,-40.0843 3783.47,-35.9431 3793.75,-39.7363 3793.75,-39.7363"/>
</g>
<!-- 24&#45;&gt;19 -->
<g id="edge4" class="edge"><title>24&#45;&gt;19</title>
<path fill="none" stroke="magenta" d="M3624.12,-87.9796C3634.03,-85.1527 3644.29,-82.373 3654,-80 3696.27,-69.6735 3743.35,-60.1223 3783.86,-52.5005"/>
<polygon fill="magenta" stroke="magenta" points="3793.74,-50.6552 3784.73,-56.915 3788.82,-51.5733 3783.91,-52.4915 3783.91,-52.4915 3783.91,-52.4915 3788.82,-51.5733 3783.08,-48.068 3793.74,-50.6552 3793.74,-50.6552"/>
</g>
<!-- 26&#45;&gt;19 -->
<g id="edge6" class="edge"><title>26&#45;&gt;19</title>
<path fill="none" stroke="magenta" d="M3768.43,-87.8761C3789.25,-78.3492 3815.35,-66.4068 3837.48,-56.2833"/>
<polygon fill="magenta" stroke="magenta" points="3846.69,-52.0683 3839.47,-60.3208 3842.15,-54.1485 3837.6,-56.2288 3837.6,-56.2288 3837.6,-56.2288 3842.15,-54.1485 3835.73,-52.1367 3846.69,-52.0683 3846.69,-52.0683"/>
</g>
<!-- 28&#45;&gt;19 -->
<g id="edge8" class="edge"><title>28&#45;&gt;19</title>
<path fill="none" stroke="magenta" d="M3884,-87.6966C3884,-79.9827 3884,-70.7125 3884,-62.1124"/>
<polygon fill="magenta" stroke="magenta" points="3884,-52.1043 3888.5,-62.1043 3884,-57.1043 3884,-62.1043 3884,-62.1043 3884,-62.1043 3884,-57.1043 3879.5,-62.1044 3884,-52.1043 3884,-52.1043"/>
</g>
<!-- 29&#45;&gt;19 -->
<g id="edge9" class="edge"><title>29&#45;&gt;19</title>
<path fill="none" stroke="magenta" d="M4000.33,-87.8761C3979.37,-78.3492 3953.1,-66.4068 3930.82,-56.2833"/>
<polygon fill="magenta" stroke="magenta" points="3921.55,-52.0683 3932.52,-52.1097 3926.1,-54.1374 3930.65,-56.2064 3930.65,-56.2064 3930.65,-56.2064 3926.1,-54.1374 3928.79,-60.3031 3921.55,-52.0683 3921.55,-52.0683"/>
</g>
<!-- 30&#45;&gt;19 -->
<g id="edge10" class="edge"><title>30&#45;&gt;19</title>
<path fill="none" stroke="magenta" d="M4142.21,-87.951C4133.22,-85.0955 4123.87,-82.3133 4115,-80 4072.54,-68.9275 4025.05,-59.2255 3984.23,-51.6928"/>
<polygon fill="magenta" stroke="magenta" points="3974.27,-49.8743 3984.92,-47.2444 3979.19,-50.7727 3984.11,-51.6712 3984.11,-51.6712 3984.11,-51.6712 3979.19,-50.7727 3983.3,-56.098 3974.27,-49.8743 3974.27,-49.8743"/>
</g>
<!-- 33 -->
<g id="node54" class="node"><title>33</title>
<polygon fill="gold" stroke="black" stroke-width="2" points="2915,-639.744 2783,-639.744 2783,-603.744 2915,-603.744 2915,-639.744"/>
<text text-anchor="middle" x="2849" y="-618.044" font-family="Times,serif" font-size="14.00">configLogger</text>
</g>
<!-- 35 -->
<g id="node55" class="node"><title>35</title>
<polygon fill="goldenrod" stroke="black" stroke-width="2" points="2139,-219.196 1979,-219.196 1979,-183.196 2139,-183.196 2139,-219.196"/>
<text text-anchor="middle" x="2059" y="-197.496" font-family="Times,serif" font-size="14.00">emptySmtpConfig</text>
</g>
<!-- 35&#45;&gt;72 -->
<g id="edge16" class="edge"><title>35&#45;&gt;72</title>
<path fill="none" stroke="black" d="M2101.25,-219.31C2134.1,-231.692 2181.15,-247.424 2224,-254.391 2278.84,-263.309 2668.46,-260.963 2724,-262.391 3046.86,-270.694 3426.21,-285.402 3623.82,-293.439"/>
<polygon fill="black" stroke="black" points="3623.82,-296.942 3633.96,-293.852 3624.11,-289.948 3623.82,-296.942"/>
</g>
<!-- 35&#45;&gt;16 -->
<g id="edge14" class="edge"><title>35&#45;&gt;16</title>
<path fill="none" stroke="black" d="M1979,-193.936C1893.54,-186.721 1754.25,-173.44 1635,-155 1579.95,-146.487 1518.28,-133.835 1471.79,-123.658"/>
<polygon fill="black" stroke="black" points="1472.33,-120.192 1461.81,-121.46 1470.83,-127.029 1472.33,-120.192"/>
</g>
<!-- 35&#45;&gt;17 -->
<g id="edge15" class="edge"><title>35&#45;&gt;17</title>
<path fill="none" stroke="black" d="M2108.51,-183.137C2133.02,-175.497 2163.23,-167.261 2191,-163 2249.89,-153.963 2400.55,-166.58 2459,-155 2487.15,-149.423 2517.24,-138.297 2541.07,-128.16"/>
<polygon fill="black" stroke="black" points="2542.76,-131.24 2550.53,-124.044 2539.97,-124.821 2542.76,-131.24"/>
</g>
<!-- 36 -->
<g id="node56" class="node"><title>36</title>
<polygon fill="gold" stroke="black" stroke-width="2" points="1711,-318.067 1537,-318.067 1537,-282.067 1711,-282.067 1711,-318.067"/>
<text text-anchor="middle" x="1624" y="-296.367" font-family="Times,serif" font-size="14.00">emptyThentosConfig</text>
</g>
<!-- 36&#45;&gt;18 -->
<g id="edge17" class="edge"><title>36&#45;&gt;18</title>
<path fill="none" stroke="black" d="M1536.99,-295.283C1431.82,-289.889 1249.67,-277.92 1095,-254.391 1040.99,-246.175 980.872,-232.815 934.832,-221.669"/>
<polygon fill="black" stroke="black" points="935.477,-218.224 924.933,-219.254 933.818,-225.025 935.477,-218.224"/>
</g>
<!-- 36&#45;&gt;35 -->
<g id="edge18" class="edge"><title>36&#45;&gt;35</title>
<path fill="none" stroke="black" d="M1700.77,-281.972C1776.9,-265.017 1893.36,-239.083 1972.67,-221.421"/>
<polygon fill="black" stroke="black" points="1973.63,-224.792 1982.63,-219.202 1972.11,-217.959 1973.63,-224.792"/>
</g>
<!-- 37 -->
<g id="node57" class="node"><title>37</title>
<polygon fill="bisque" stroke="black" stroke-width="2" points="2416.5,-219.196 2233.5,-219.196 2233.5,-183.196 2416.5,-183.196 2416.5,-219.196"/>
<text text-anchor="middle" x="2325" y="-197.496" font-family="Times,serif" font-size="14.00">finaliseBackendConfig</text>
</g>
<!-- 37&#45;&gt;4 -->
<g id="edge19" class="edge"><title>37&#45;&gt;4</title>
<path fill="none" stroke="black" d="M2259.52,-183.121C2226.36,-175.322 2185.31,-166.955 2148,-163 2093.42,-157.215 225.022,-169.196 172,-155 153.147,-149.953 134.104,-139.598 118.926,-129.795"/>
<polygon fill="black" stroke="black" points="120.724,-126.786 110.467,-124.13 116.829,-132.603 120.724,-126.786"/>
</g>
<!-- 37&#45;&gt;22 -->
<g id="edge20" class="edge"><title>37&#45;&gt;22</title>
<path fill="none" stroke="black" d="M2362.02,-183.034C2380.75,-175.265 2404.12,-166.95 2426,-163 2526.76,-144.81 4167.19,-165.915 4269,-155 4320.72,-149.454 4378.04,-137.208 4422.01,-126.474"/>
<polygon fill="black" stroke="black" points="4422.89,-129.864 4431.75,-124.068 4421.21,-123.069 4422.89,-129.864"/>
</g>
<!-- 38 -->
<g id="node58" class="node"><title>38</title>
<polygon fill="bisque" stroke="black" stroke-width="2" points="2661,-495.744 2505,-495.744 2505,-459.744 2661,-459.744 2661,-495.744"/>
<text text-anchor="middle" x="2583" y="-474.044" font-family="Times,serif" font-size="14.00">finaliseCommand</text>
</g>
<!-- 38&#45;&gt;13 -->
<g id="edge24" class="edge"><title>38&#45;&gt;13</title>
<path fill="none" stroke="black" d="M2564.04,-459.444C2553.68,-449.989 2540.68,-438.131 2529.35,-427.789"/>
<polygon fill="black" stroke="black" points="2531.57,-425.074 2521.82,-420.919 2526.85,-430.245 2531.57,-425.074"/>
</g>
<!-- 38&#45;&gt;14 -->
<g id="edge25" class="edge"><title>38&#45;&gt;14</title>
<path fill="none" stroke="black" d="M2504.68,-468.24C2487.14,-464.561 2469.01,-459.292 2453,-451.744 2440.5,-445.849 2428.43,-436.635 2418.57,-427.85"/>
<polygon fill="black" stroke="black" points="2420.88,-425.214 2411.17,-420.967 2416.11,-430.34 2420.88,-425.214"/>
</g>
<!-- 38&#45;&gt;15 -->
<g id="edge26" class="edge"><title>38&#45;&gt;15</title>
<path fill="none" stroke="black" d="M2504.98,-473.415C2444.67,-469.99 2366.65,-463.453 2337,-451.744 2323.14,-446.269 2309.72,-436.827 2298.86,-427.758"/>
<polygon fill="black" stroke="black" points="2300.92,-424.91 2291.09,-420.968 2296.32,-430.182 2300.92,-424.91"/>
</g>
<!-- 38&#45;&gt;1 -->
<g id="edge21" class="edge"><title>38&#45;&gt;1</title>
<path fill="none" stroke="black" d="M2661.13,-470.936C2708.28,-467.505 2769.58,-463.174 2824,-459.744 2855.99,-457.727 2938.32,-463.825 2968,-451.744 2980.47,-446.667 2992.07,-437.537 3001.36,-428.591"/>
<polygon fill="black" stroke="black" points="3004.09,-430.803 3008.6,-421.214 2999.1,-425.901 3004.09,-430.803"/>
</g>
<!-- 38&#45;&gt;2 -->
<g id="edge22" class="edge"><title>38&#45;&gt;2</title>
<path fill="none" stroke="black" d="M2661.3,-473.928C2725.55,-470.752 2810.96,-464.297 2843,-451.744 2856.98,-446.267 2870.49,-436.732 2881.39,-427.596"/>
<polygon fill="black" stroke="black" points="2883.98,-429.986 2889.19,-420.761 2879.36,-424.723 2883.98,-429.986"/>
</g>
<!-- 38&#45;&gt;3 -->
<g id="edge23" class="edge"><title>38&#45;&gt;3</title>
<path fill="none" stroke="black" d="M2628.79,-459.706C2635.89,-457.049 2643.15,-454.328 2650,-451.744 2673.56,-442.859 2699.57,-432.965 2721.81,-424.479"/>
<polygon fill="black" stroke="black" points="2723.32,-427.649 2731.42,-420.812 2720.83,-421.109 2723.32,-427.649"/>
</g>
<!-- 39 -->
<g id="node59" class="node"><title>39</title>
<polygon fill="bisque" stroke="black" stroke-width="2" points="2715,-318.067 2579,-318.067 2579,-282.067 2715,-282.067 2715,-318.067"/>
<text text-anchor="middle" x="2647" y="-296.367" font-family="Times,serif" font-size="14.00">finaliseConfig</text>
</g>
<!-- 38&#45;&gt;39 -->
<g id="edge27" class="edge"><title>38&#45;&gt;39</title>
<path fill="none" stroke="black" stroke-width="1.69315" d="M2589.25,-459.579C2600.44,-428.88 2623.94,-364.371 2637.25,-327.819"/>
<polygon fill="black" stroke="black" stroke-width="1.69315" points="2640.59,-328.896 2640.72,-318.302 2634.01,-326.499 2640.59,-328.896"/>
</g>
<!-- 57 -->
<g id="node65" class="node"><title>57</title>
<polygon fill="bisque" stroke="black" stroke-width="2" points="2581,-219.196 2435,-219.196 2435,-183.196 2581,-183.196 2581,-219.196"/>
<text text-anchor="middle" x="2508" y="-197.496" font-family="Times,serif" font-size="14.00">parseConfigFile</text>
</g>
<!-- 38&#45;&gt;57 -->
<g id="edge28" class="edge"><title>38&#45;&gt;57</title>
<path fill="none" stroke="black" stroke-width="1.69315" d="M2578.34,-459.394C2572.98,-439.445 2563.9,-405.718 2556,-376.744 2541.77,-324.532 2524.97,-263.59 2515.49,-229.283"/>
<polygon fill="black" stroke="black" stroke-width="1.69315" points="2518.83,-228.237 2512.8,-219.53 2512.09,-230.102 2518.83,-228.237"/>
</g>
<!-- 39&#45;&gt;6 -->
<g id="edge29" class="edge"><title>39&#45;&gt;6</title>
<path fill="none" stroke="black" d="M2578.89,-299.722C2424.73,-300.412 2053.44,-297.397 1937,-254.391 1865.34,-227.923 1797.85,-166.151 1763.88,-131.566"/>
<polygon fill="black" stroke="black" points="1766.23,-128.964 1756.76,-124.213 1761.2,-133.832 1766.23,-128.964"/>
</g>
<!-- 39&#45;&gt;9 -->
<g id="edge30" class="edge"><title>39&#45;&gt;9</title>
<path fill="none" stroke="black" d="M2578.82,-299.323C2415.88,-299.273 2014.08,-294.987 1970,-254.391 1937.2,-224.185 1938.59,-167.846 1943.01,-134.252"/>
<polygon fill="black" stroke="black" points="1946.49,-134.614 1944.5,-124.207 1939.57,-133.58 1946.49,-134.614"/>
</g>
<!-- 39&#45;&gt;10 -->
<g id="edge31" class="edge"><title>39&#45;&gt;10</title>
<path fill="none" stroke="black" d="M2578.71,-295.987C2461.11,-290.135 2230.01,-276.029 2200,-254.391 2179.47,-239.59 2155.08,-172.369 2142.47,-134.019"/>
<polygon fill="black" stroke="black" points="2145.65,-132.474 2139.25,-124.036 2138.99,-134.628 2145.65,-132.474"/>
</g>
<!-- 39&#45;&gt;16 -->
<g id="edge32" class="edge"><title>39&#45;&gt;16</title>
<path fill="none" stroke="black" stroke-width="1.69315" d="M2578.98,-295.769C2425.72,-288.471 2041.61,-270.925 1720,-262.391 1711.78,-262.173 1133.78,-260.245 1128,-254.391 1099.47,-225.476 1102.35,-194.494 1128,-163 1152.54,-132.866 1254.31,-118.453 1325.88,-111.927"/>
<polygon fill="black" stroke="black" stroke-width="1.69315" points="1326.56,-115.381 1336.21,-111.02 1325.94,-108.408 1326.56,-115.381"/>
</g>
<!-- 39&#45;&gt;17 -->
<g id="edge33" class="edge"><title>39&#45;&gt;17</title>
<path fill="none" stroke="black" stroke-width="1.69315" d="M2578.69,-296.764C2465.04,-292.223 2247.25,-280.224 2224,-254.391 2196.83,-224.199 2195.77,-192.206 2224,-163 2233.08,-153.607 2446.19,-157.566 2459,-155 2487.13,-149.365 2517.23,-138.236 2541.06,-128.112"/>
<polygon fill="black" stroke="black" stroke-width="1.69315" points="2542.75,-131.193 2550.53,-124.001 2539.96,-124.772 2542.75,-131.193"/>
</g>
<!-- 39&#45;&gt;18 -->
<g id="edge34" class="edge"><title>39&#45;&gt;18</title>
<path fill="none" stroke="black" d="M2578.98,-295.753C2425.72,-288.42 2041.61,-270.81 1720,-262.391 1650.57,-260.574 1163.99,-262.376 1095,-254.391 1038.77,-247.883 976.263,-233.739 929.714,-221.815"/>
<polygon fill="black" stroke="black" points="930.589,-218.426 920.031,-219.308 928.834,-225.203 930.589,-218.426"/>
</g>
<!-- 39&#45;&gt;21 -->
<g id="edge35" class="edge"><title>39&#45;&gt;21</title>
<path fill="none" stroke="black" d="M2637.71,-281.637C2623.67,-252.658 2601.84,-194.638 2633,-163 2643.29,-152.55 3146.81,-158.698 3161,-155 3180.92,-149.809 3201.27,-139.3 3217.47,-129.435"/>
<polygon fill="black" stroke="black" points="3219.42,-132.346 3226.02,-124.059 3215.69,-126.421 3219.42,-132.346"/>
</g>
<!-- 39&#45;&gt;23 -->
<g id="edge36" class="edge"><title>39&#45;&gt;23</title>
<path fill="none" stroke="black" d="M2643.04,-281.659C2637.49,-252.175 2631.49,-192.728 2665,-163 2678.9,-150.667 3316.19,-160.326 3334,-155 3350.89,-149.949 3367.61,-139.875 3380.97,-130.254"/>
<polygon fill="black" stroke="black" points="3383.33,-132.858 3389.22,-124.055 3379.12,-127.26 3383.33,-132.858"/>
</g>
<!-- 39&#45;&gt;24 -->
<g id="edge37" class="edge"><title>39&#45;&gt;24</title>
<path fill="none" stroke="black" d="M2715.2,-292.03C2771.07,-285.061 2844.59,-272.754 2868,-254.391 2903.32,-226.683 2873.27,-187.318 2911,-163 2937.71,-145.783 3452.3,-163.217 3483,-155 3502.19,-149.863 3521.68,-139.501 3537.24,-129.715"/>
<polygon fill="black" stroke="black" points="3539.45,-132.454 3545.92,-124.063 3535.63,-126.588 3539.45,-132.454"/>
</g>
<!-- 39&#45;&gt;26 -->
<g id="edge38" class="edge"><title>39&#45;&gt;26</title>
<path fill="none" stroke="black" d="M2715.16,-294.176C2780.98,-288.241 2874.86,-276.207 2904,-254.391 2940.24,-227.256 2910.7,-187.138 2949,-163 2965.57,-152.559 3635.2,-160.495 3654,-155 3671.4,-149.912 3688.73,-139.695 3702.52,-129.99"/>
<polygon fill="black" stroke="black" points="3704.62,-132.793 3710.62,-124.064 3700.48,-127.143 3704.62,-132.793"/>
</g>
<!-- 39&#45;&gt;28 -->
<g id="edge39" class="edge"><title>39&#45;&gt;28</title>
<path fill="none" stroke="black" d="M2715.23,-295.866C2790.6,-291.107 2905.95,-279.82 2941,-254.391 2977.81,-227.687 2948.4,-187.044 2987,-163 3006.33,-150.956 3785.13,-161.374 3807,-155 3824.41,-149.926 3841.73,-139.711 3855.52,-130.003"/>
<polygon fill="black" stroke="black" points="3857.62,-132.805 3863.62,-124.075 3853.49,-127.156 3857.62,-132.805"/>
</g>
<!-- 39&#45;&gt;29 -->
<g id="edge40" class="edge"><title>39&#45;&gt;29</title>
<path fill="none" stroke="black" d="M2715.17,-297.181C2799.48,-293.618 2936.91,-283.413 2978,-254.391 3015.31,-228.04 2986.11,-186.958 3025,-163 3047.11,-149.376 3935.04,-162.18 3960,-155 3977.59,-149.94 3995.13,-139.726 4009.11,-130.015"/>
<polygon fill="black" stroke="black" points="4011.27,-132.777 4017.32,-124.085 4007.17,-127.101 4011.27,-132.777"/>
</g>
<!-- 39&#45;&gt;30 -->
<g id="edge41" class="edge"><title>39&#45;&gt;30</title>
<path fill="none" stroke="black" d="M2715.19,-298.595C2808.43,-296.663 2969.47,-288.334 3016,-254.391 3052.11,-228.046 3020.46,-187.265 3058,-163 3082.66,-147.062 4086.83,-163.268 4115,-155 4132.07,-149.989 4149.02,-139.92 4162.56,-130.292"/>
<polygon fill="black" stroke="black" points="4164.98,-132.852 4170.93,-124.086 4160.81,-127.228 4164.98,-132.852"/>
</g>
<!-- 39&#45;&gt;35 -->
<g id="edge42" class="edge"><title>39&#45;&gt;35</title>
<path fill="none" stroke="black" d="M2578.72,-296.387C2462.36,-291.237 2230.68,-278.295 2153,-254.391 2131.43,-247.752 2109.26,-235.74 2091.88,-224.911"/>
<polygon fill="black" stroke="black" points="2093.56,-221.832 2083.25,-219.391 2089.79,-227.729 2093.56,-221.832"/>
</g>
<!-- 39&#45;&gt;37 -->
<g id="edge43" class="edge"><title>39&#45;&gt;37</title>
<path fill="none" stroke="black" d="M2578.97,-290.312C2534.58,-283.391 2475.85,-271.926 2426,-254.391 2403.76,-246.568 2380.28,-234.681 2361.57,-224.226"/>
<polygon fill="black" stroke="black" points="2363.21,-221.135 2352.79,-219.233 2359.75,-227.219 2363.21,-221.135"/>
</g>
<!-- 40 -->
<g id="node60" class="node"><title>40</title>
<polygon fill="bisque" stroke="black" stroke-width="2" points="2859.5,-219.196 2674.5,-219.196 2674.5,-183.196 2859.5,-183.196 2859.5,-219.196"/>
<text text-anchor="middle" x="2767" y="-197.496" font-family="Times,serif" font-size="14.00">finaliseFrontendConfig</text>
</g>
<!-- 39&#45;&gt;40 -->
<g id="edge44" class="edge"><title>39&#45;&gt;40</title>
<path fill="none" stroke="black" d="M2668.18,-281.972C2687.51,-266.367 2716.26,-243.156 2737.77,-225.788"/>
<polygon fill="black" stroke="black" points="2740.05,-228.451 2745.63,-219.446 2735.65,-223.004 2740.05,-228.451"/>
</g>
<!-- 41 -->
<g id="node61" class="node"><title>41</title>
<polygon fill="bisque" stroke="black" stroke-width="2" points="3235,-219.196 3067,-219.196 3067,-183.196 3235,-183.196 3235,-219.196"/>
<text text-anchor="middle" x="3151" y="-197.496" font-family="Times,serif" font-size="14.00">finaliseProxyConfig</text>
</g>
<!-- 39&#45;&gt;41 -->
<g id="edge45" class="edge"><title>39&#45;&gt;41</title>
<path fill="none" stroke="black" d="M2715.04,-299.365C2796.99,-297.965 2937.99,-289.906 3053,-254.391 3075.27,-247.514 3098.37,-235.488 3116.54,-224.712"/>
<polygon fill="black" stroke="black" points="3118.84,-227.411 3125.57,-219.224 3115.2,-221.43 3118.84,-227.411"/>
</g>
<!-- 40&#45;&gt;7 -->
<g id="edge46" class="edge"><title>40&#45;&gt;7</title>
<path fill="none" stroke="black" d="M2701.52,-183.144C2668.36,-175.35 2627.31,-166.981 2590,-163 2509.07,-154.365 1206.35,-157.47 1125,-155 836.334,-146.236 494.242,-123.755 339.876,-112.96"/>
<polygon fill="black" stroke="black" points="339.756,-109.443 329.535,-112.235 339.266,-116.426 339.756,-109.443"/>
</g>
<!-- 40&#45;&gt;25 -->
<g id="edge47" class="edge"><title>40&#45;&gt;25</title>
<path fill="none" stroke="black" d="M2859.77,-185.386C2916.78,-177.019 2991.42,-167.382 3058,-163 3109.31,-159.623 4859.37,-168.433 4909,-155 4927.67,-149.947 4946.49,-139.592 4961.48,-129.79"/>
<polygon fill="black" stroke="black" points="4963.52,-132.635 4969.83,-124.126 4959.59,-126.842 4963.52,-132.635"/>
</g>
<!-- 41&#45;&gt;11 -->
<g id="edge48" class="edge"><title>41&#45;&gt;11</title>
<path fill="none" stroke="black" d="M3186.1,-183.03C3203.89,-175.261 3226.1,-166.946 3247,-163 3308.33,-151.42 5432.07,-162.813 5494,-155 5537.04,-149.569 5584.34,-137.64 5620.98,-127.033"/>
<polygon fill="black" stroke="black" points="5622.42,-130.261 5631.02,-124.083 5620.44,-123.545 5622.42,-130.261"/>
</g>
<!-- 41&#45;&gt;27 -->
<g id="edge49" class="edge"><title>41&#45;&gt;27</title>
<path fill="none" stroke="black" d="M3066.94,-191.654C2989.76,-183.138 2881.45,-169.301 2841,-155 2823.77,-148.908 2806.14,-138.983 2791.75,-129.734"/>
<polygon fill="black" stroke="black" points="2793.51,-126.702 2783.24,-124.103 2789.65,-132.54 2793.51,-126.702"/>
</g>
<!-- 44 -->
<g id="node62" class="node"><title>44</title>
<polygon fill="gold" stroke="black" stroke-width="2" points="2764.5,-639.744 2631.5,-639.744 2631.5,-603.744 2764.5,-603.744 2764.5,-639.744"/>
<text text-anchor="middle" x="2698" y="-618.044" font-family="Times,serif" font-size="14.00">getCommand</text>
</g>
<!-- 44&#45;&gt;38 -->
<g id="edge52" class="edge"><title>44&#45;&gt;38</title>
<path fill="none" stroke="black" d="M2684.13,-603.615C2664.01,-578.774 2626.61,-532.59 2603.36,-503.885"/>
<polygon fill="black" stroke="black" points="2605.93,-501.501 2596.92,-495.933 2600.49,-505.907 2605.93,-501.501"/>
</g>
<!-- 56 -->
<g id="node64" class="node"><title>56</title>
<polygon fill="bisque" stroke="black" stroke-width="2" points="2868.5,-567.744 2683.5,-567.744 2683.5,-531.744 2868.5,-531.744 2868.5,-567.744"/>
<text text-anchor="middle" x="2776" y="-546.044" font-family="Times,serif" font-size="14.00">parseCommandBuilder</text>
</g>
<!-- 44&#45;&gt;56 -->
<g id="edge53" class="edge"><title>44&#45;&gt;56</title>
<path fill="none" stroke="black" d="M2717.28,-603.44C2726.92,-594.794 2738.73,-584.192 2749.23,-574.771"/>
<polygon fill="black" stroke="black" points="2751.84,-577.132 2756.94,-567.848 2747.16,-571.922 2751.84,-577.132"/>
</g>
<!-- 55 -->
<g id="node63" class="node"><title>55</title>
<polygon fill="bisque" stroke="black" stroke-width="2" points="5563,-318.067 5351,-318.067 5351,-282.067 5563,-282.067 5563,-318.067"/>
<text text-anchor="middle" x="5457" y="-296.367" font-family="Times,serif" font-size="14.00">parseBackendConfigBuilder</text>
</g>
<!-- 55&#45;&gt;5 -->
<g id="edge75" class="edge"><title>55&#45;&gt;5</title>
<path fill="none" stroke="black" d="M5438.8,-281.939C5404.75,-251.171 5327.7,-187.473 5249,-163 5213.13,-151.845 4948.08,-160.998 4911,-155 4785.6,-134.716 4644.51,-84.3836 4570.56,-55.7636"/>
<polygon fill="black" stroke="black" points="4571.6,-52.4134 4561.02,-52.0446 4569.06,-58.9359 4571.6,-52.4134"/>
</g>
<!-- 56&#45;&gt;72 -->
<g id="edge79" class="edge"><title>56&#45;&gt;72</title>
<path fill="none" stroke="black" d="M2758.26,-531.696C2725.42,-498.128 2662.19,-422.737 2705,-376.744 2720.47,-360.121 3342.85,-323.924 3623.81,-308.389"/>
<polygon fill="black" stroke="black" points="3624.28,-311.869 3634.07,-307.823 3623.89,-304.88 3624.28,-311.869"/>
</g>
<!-- 56&#45;&gt;3 -->
<g id="edge76" class="edge"><title>56&#45;&gt;3</title>
<path fill="none" stroke="black" d="M2776,-531.541C2776,-506.686 2776,-460.486 2776,-430.972"/>
<polygon fill="black" stroke="black" points="2779.5,-430.924 2776,-420.924 2772.5,-430.924 2779.5,-430.924"/>
</g>
<!-- 60 -->
<g id="node68" class="node"><title>60</title>
<polygon fill="bisque" stroke="black" stroke-width="2" points="3087,-495.744 2977,-495.744 2977,-459.744 3087,-459.744 3087,-495.744"/>
<text text-anchor="middle" x="3032" y="-474.044" font-family="Times,serif" font-size="14.00">parseRun</text>
</g>
<!-- 56&#45;&gt;60 -->
<g id="edge77" class="edge"><title>56&#45;&gt;60</title>
<path fill="none" stroke="black" d="M2838.3,-531.709C2877.32,-521.039 2927.52,-507.313 2967.03,-496.508"/>
<polygon fill="black" stroke="black" points="2968.11,-499.841 2976.84,-493.827 2966.27,-493.089 2968.11,-499.841"/>
</g>
<!-- 61 -->
<g id="node69" class="node"><title>61</title>
<polygon fill="bisque" stroke="black" stroke-width="2" points="2959,-495.744 2833,-495.744 2833,-459.744 2959,-459.744 2959,-495.744"/>
<text text-anchor="middle" x="2896" y="-474.044" font-family="Times,serif" font-size="14.00">parseRunA3</text>
</g>
<!-- 56&#45;&gt;61 -->
<g id="edge78" class="edge"><title>56&#45;&gt;61</title>
<path fill="none" stroke="black" d="M2805.36,-531.62C2821.05,-522.467 2840.56,-511.085 2857.45,-501.229"/>
<polygon fill="black" stroke="black" points="2859.66,-503.995 2866.53,-495.933 2856.13,-497.949 2859.66,-503.995"/>
</g>
<!-- 57&#45;&gt;5 -->
<g id="edge80" class="edge"><title>57&#45;&gt;5</title>
<path fill="none" stroke="black" d="M2565.96,-183.132C2595.34,-175.336 2631.76,-166.968 2665,-163 2709.24,-157.719 4225.68,-165.403 4269,-155 4341.09,-137.69 4351.01,-111.762 4418,-80 4434.82,-72.0253 4453.39,-63.6355 4469.97,-56.2893"/>
<polygon fill="black" stroke="black" points="4471.74,-59.3348 4479.47,-52.0955 4468.91,-52.9306 4471.74,-59.3348"/>
</g>
<!-- 57&#45;&gt;20 -->
<g id="edge85" class="edge"><title>57&#45;&gt;20</title>
<path fill="none" stroke="black" d="M2476.45,-183.102C2448.42,-167.911 2407.26,-145.612 2376.74,-129.076"/>
<polygon fill="black" stroke="black" points="2378.1,-125.829 2367.64,-124.143 2374.76,-131.984 2378.1,-125.829"/>
</g>
<!-- 57&#45;&gt;8 -->
<g id="edge81" class="edge"><title>57&#45;&gt;8</title>
<path fill="none" stroke="black" d="M2565.96,-183.119C2595.34,-175.32 2631.76,-166.953 2665,-163 2773.02,-150.155 4515.45,-171.318 4623,-155 4748.93,-135.893 4890.37,-84.8549 4964.08,-55.8685"/>
<polygon fill="black" stroke="black" points="4965.59,-59.0379 4973.6,-52.1024 4963.01,-52.5294 4965.59,-59.0379"/>
</g>
<!-- 57&#45;&gt;12 -->
<g id="edge82" class="edge"><title>57&#45;&gt;12</title>
<path fill="none" stroke="black" d="M2498.31,-183.18C2485.18,-157.605 2466.07,-109.154 2491,-80 2515.37,-51.4938 2608.52,-40.9305 2681.97,-37.0778"/>
<polygon fill="black" stroke="black" points="2682.38,-40.5621 2692.2,-36.5776 2682.04,-33.5705 2682.38,-40.5621"/>
</g>
<!-- 57&#45;&gt;17 -->
<g id="edge83" class="edge"><title>57&#45;&gt;17</title>
<path fill="none" stroke="black" d="M2522.31,-183.102C2534.22,-168.872 2551.35,-148.406 2564.84,-132.281"/>
<polygon fill="black" stroke="black" points="2567.79,-134.216 2571.52,-124.301 2562.42,-129.723 2567.79,-134.216"/>
</g>
<!-- 57&#45;&gt;19 -->
<g id="edge84" class="edge"><title>57&#45;&gt;19</title>
<path fill="none" stroke="black" d="M2546.95,-183.141C2566.64,-175.4 2591.15,-167.076 2614,-163 2642.06,-157.994 3102.75,-169.982 3127,-155 3158.96,-135.252 3134.51,-100.493 3166,-80 3216.46,-47.1585 3598.27,-38.2604 3783.63,-35.8688"/>
<polygon fill="black" stroke="black" points="3783.7,-39.3682 3793.66,-35.7432 3783.62,-32.3688 3783.7,-39.3682"/>
</g>
<!-- 58 -->
<g id="node66" class="node"><title>58</title>
<polygon fill="bisque" stroke="black" stroke-width="2" points="5485,-124 5271,-124 5271,-88 5485,-88 5485,-124"/>
<text text-anchor="middle" x="5378" y="-102.3" font-family="Times,serif" font-size="14.00">parseFrontendConfigBuilder</text>
</g>
<!-- 58&#45;&gt;8 -->
<g id="edge86" class="edge"><title>58&#45;&gt;8</title>
<path fill="none" stroke="black" d="M5289.66,-87.9656C5236.42,-77.6982 5168.5,-64.6009 5113.52,-53.9993"/>
<polygon fill="black" stroke="black" points="5113.9,-50.5069 5103.42,-52.0501 5112.57,-57.3803 5113.9,-50.5069"/>
</g>
<!-- 59 -->
<g id="node67" class="node"><title>59</title>
<polygon fill="bisque" stroke="black" stroke-width="2" points="3118.5,-124 2921.5,-124 2921.5,-88 3118.5,-88 3118.5,-124"/>
<text text-anchor="middle" x="3020" y="-102.3" font-family="Times,serif" font-size="14.00">parseProxyConfigBuilder</text>
</g>
<!-- 59&#45;&gt;12 -->
<g id="edge87" class="edge"><title>59&#45;&gt;12</title>
<path fill="none" stroke="black" d="M2960.87,-87.9656C2926.32,-78.0149 2882.55,-65.4062 2846.38,-54.9874"/>
<polygon fill="black" stroke="black" points="2846.98,-51.5157 2836.4,-52.1108 2845.04,-58.2422 2846.98,-51.5157"/>
</g>
<!-- 60&#45;&gt;1 -->
<g id="edge88" class="edge"><title>60&#45;&gt;1</title>
<path fill="none" stroke="black" d="M3029.87,-459.444C3028.82,-450.989 3027.55,-440.612 3026.37,-431.117"/>
<polygon fill="black" stroke="black" points="3029.81,-430.416 3025.12,-420.919 3022.87,-431.273 3029.81,-430.416"/>
</g>
<!-- 64 -->
<g id="node72" class="node"><title>64</title>
<polygon fill="bisque" stroke="black" stroke-width="2" points="5369,-420.744 5201,-420.744 5201,-384.744 5369,-384.744 5369,-420.744"/>
<text text-anchor="middle" x="5285" y="-399.044" font-family="Times,serif" font-size="14.00">parseThentosConfig</text>
</g>
<!-- 60&#45;&gt;64 -->
<g id="edge89" class="edge"><title>60&#45;&gt;64</title>
<path fill="none" stroke="black" d="M3087.13,-474.957C3385.64,-465.285 4808.87,-419.171 5190.6,-406.802"/>
<polygon fill="black" stroke="black" points="5190.9,-410.295 5200.78,-406.472 5190.67,-403.298 5190.9,-410.295"/>
</g>
<!-- 61&#45;&gt;2 -->
<g id="edge90" class="edge"><title>61&#45;&gt;2</title>
<path fill="none" stroke="black" d="M2898.37,-459.444C2899.53,-450.989 2900.95,-440.612 2902.25,-431.117"/>
<polygon fill="black" stroke="black" points="2905.76,-431.302 2903.65,-420.919 2898.82,-430.352 2905.76,-431.302"/>
</g>
<!-- 61&#45;&gt;64 -->
<g id="edge91" class="edge"><title>61&#45;&gt;64</title>
<path fill="none" stroke="black" d="M2959.08,-461.068C2962.09,-460.567 2965.07,-460.121 2968,-459.744 3079.74,-445.36 4769.89,-413.273 5190.68,-405.476"/>
<polygon fill="black" stroke="black" points="5191.04,-408.97 5200.98,-405.285 5190.91,-401.971 5191.04,-408.97"/>
</g>
<!-- 62 -->
<g id="node70" class="node"><title>62</title>
<polygon fill="cyan" stroke="black" stroke-width="2" points="5776.5,-318.067 5619.5,-318.067 5619.5,-282.067 5776.5,-282.067 5776.5,-318.067"/>
<text text-anchor="middle" x="5698" y="-296.367" font-family="Times,serif" font-size="14.00">parseRunBackend</text>
</g>
<!-- 63 -->
<g id="node71" class="node"><title>63</title>
<polygon fill="cyan" stroke="black" stroke-width="2" points="5257,-318.067 5099,-318.067 5099,-282.067 5257,-282.067 5257,-318.067"/>
<text text-anchor="middle" x="5178" y="-296.367" font-family="Times,serif" font-size="14.00">parseRunFrontend</text>
</g>
<!-- 64&#45;&gt;72 -->
<g id="edge98" class="edge"><title>64&#45;&gt;72</title>
<path fill="none" stroke="black" d="M5200.86,-401.263C4926.24,-399.474 4066.76,-392.054 3944,-368.744 3908.22,-361.95 3870.2,-349.098 3837.99,-336.403"/>
<polygon fill="black" stroke="black" points="3839.21,-333.123 3828.63,-332.655 3836.61,-339.622 3839.21,-333.123"/>
</g>
<!-- 64&#45;&gt;19 -->
<g id="edge92" class="edge"><title>64&#45;&gt;19</title>
<path fill="none" stroke="black" d="M5292.76,-384.413C5304.38,-355.502 5322.04,-297.182 5293,-262.391 5280.26,-247.131 5266.32,-264.142 5249,-254.391 5201.7,-227.766 5217.38,-185.533 5168,-163 5129.94,-145.632 4454.38,-169.135 4415,-155 4365.02,-137.06 4371.1,-100.213 4322,-80 4262.96,-55.697 4094.5,-43.9506 3984.54,-38.7214"/>
<polygon fill="black" stroke="black" points="3984.57,-35.2191 3974.41,-38.2506 3984.24,-42.2115 3984.57,-35.2191"/>
</g>
<!-- 64&#45;&gt;55 -->
<g id="edge93" class="edge"><title>64&#45;&gt;55</title>
<path fill="none" stroke="black" d="M5314.18,-384.665C5342.96,-367.815 5387.13,-341.966 5418.72,-323.475"/>
<polygon fill="black" stroke="black" points="5420.82,-326.302 5427.68,-318.23 5417.28,-320.261 5420.82,-326.302"/>
</g>
<!-- 64&#45;&gt;58 -->
<g id="edge94" class="edge"><title>64&#45;&gt;58</title>
<path fill="none" stroke="black" d="M5369.06,-397.686C5448.86,-392.95 5558.59,-383.788 5572,-368.744 5603.46,-333.463 5592.46,-305 5572,-262.391 5541.7,-199.301 5471.93,-153.781 5424.86,-128.891"/>
<polygon fill="black" stroke="black" points="5426.25,-125.674 5415.76,-124.189 5423.04,-131.892 5426.25,-125.674"/>
</g>
<!-- 64&#45;&gt;59 -->
<g id="edge95" class="edge"><title>64&#45;&gt;59</title>
<path fill="none" stroke="black" d="M5288.42,-384.478C5293.14,-355.134 5297.8,-295.5 5266,-262.391 5251.93,-247.74 5239.81,-262.063 5221,-254.391 5154.25,-227.168 5155.84,-184.397 5087,-163 5035.96,-147.137 3215.73,-163.726 3163,-155 3130.9,-149.688 3096.28,-138.226 3069.14,-127.835"/>
<polygon fill="black" stroke="black" points="3070.09,-124.448 3059.5,-124.069 3067.54,-130.968 3070.09,-124.448"/>
</g>
<!-- 64&#45;&gt;62 -->
<g id="edge96" class="edge"><title>64&#45;&gt;62</title>
<path fill="none" stroke="black" d="M5369.02,-398.026C5449.07,-393.597 5563.34,-384.705 5605,-368.744 5630.55,-358.954 5655.39,-340.257 5672.96,-324.992"/>
<polygon fill="black" stroke="black" points="5675.37,-327.534 5680.5,-318.264 5670.71,-322.311 5675.37,-327.534"/>
</g>
<!-- 64&#45;&gt;63 -->
<g id="edge97" class="edge"><title>64&#45;&gt;63</title>
<path fill="none" stroke="black" d="M5266.85,-384.665C5249.48,-368.322 5223.11,-343.511 5203.61,-325.161"/>
<polygon fill="black" stroke="black" points="5205.92,-322.533 5196.24,-318.23 5201.12,-327.631 5205.92,-322.533"/>
</g>
</g>
</svg>
