<?xml version="1.0" encoding="UTF-8" standalone="no"?>
<!DOCTYPE svg PUBLIC "-//W3C//DTD SVG 1.1//EN"
 "http://www.w3.org/Graphics/SVG/1.1/DTD/svg11.dtd">
<!-- Generated by graphviz version 2.38.0 (20140413.2041)
 -->
<!-- Title: Levels within Thentos.DB.Core Pages: 1 -->
<svg width="3087pt" height="366pt"
 viewBox="0.00 0.00 3087.00 365.74" xmlns="http://www.w3.org/2000/svg" xmlns:xlink="http://www.w3.org/1999/xlink">
<g id="graph0" class="graph" transform="scale(1 1) rotate(0) translate(4 361.744)">
<title>Levels within Thentos.DB.Core</title>
<polygon fill="white" stroke="none" points="-4,4 -4,-361.744 3083,-361.744 3083,4 -4,4"/>
<g id="clust1" class="cluster"><title>cluster_0</title>
<polygon fill="lavender" stroke="black" points="8,-8 8,-349.744 2527,-349.744 2527,-8 8,-8"/>
<text text-anchor="middle" x="1267.5" y="-334.544" font-family="Times,serif" font-size="14.00">Exported root entities</text>
</g>
<g id="clust2" class="cluster"><title>cluster_1</title>
<polygon fill="lavender" stroke="black" points="2535,-152 2535,-235.391 3071,-235.391 3071,-152 2535,-152"/>
<text text-anchor="middle" x="2803" y="-220.191" font-family="Times,serif" font-size="14.00">Level = 1</text>
</g>
<!-- 1 -->
<g id="node1" class="node"><title>1</title>
<polygon fill="goldenrod" stroke="black" stroke-width="2" points="1249.5,-52 1158.5,-52 1158.5,-16 1249.5,-16 1249.5,-52"/>
<text text-anchor="middle" x="1204" y="-30.3" font-family="Times,serif" font-size="14.00">=%%</text>
</g>
<!-- 2 -->
<g id="node2" class="node"><title>2</title>
<polygon fill="goldenrod" stroke="black" stroke-width="2" points="1262.5,-200.196 1129.5,-200.196 1125.5,-196.196 1125.5,-164.196 1258.5,-164.196 1262.5,-168.196 1262.5,-200.196"/>
<polyline fill="none" stroke="black" stroke-width="2" points="1258.5,-196.196 1125.5,-196.196 "/>
<polyline fill="none" stroke="black" stroke-width="2" points="1258.5,-196.196 1258.5,-164.196 "/>
<polyline fill="none" stroke="black" stroke-width="2" points="1258.5,-196.196 1262.5,-200.196 "/>
<text text-anchor="middle" x="1194" y="-178.496" font-family="Times,serif" font-size="14.00">Data: DbError</text>
</g>
<!-- 15 -->
<g id="node3" class="node"><title>15</title>
<polygon fill="goldenrod" stroke="black" stroke-width="2" points="1289,-124 1153,-124 1149,-120 1149,-88 1285,-88 1289,-92 1289,-124"/>
<polyline fill="none" stroke="black" stroke-width="2" points="1285,-120 1149,-120 "/>
<polyline fill="none" stroke="black" stroke-width="2" points="1285,-120 1285,-88 "/>
<polyline fill="none" stroke="black" stroke-width="2" points="1285,-120 1289,-124 "/>
<text text-anchor="middle" x="1219" y="-102.3" font-family="Times,serif" font-size="14.00">Data: TLMode</text>
</g>
<!-- 20 -->
<g id="node4" class="node"><title>20</title>
<polygon fill="gold" stroke="black" stroke-width="2" points="2519,-299.067 2337,-299.067 2337,-263.067 2519,-263.067 2519,-299.067"/>
<text text-anchor="middle" x="2428" y="-277.367" font-family="Times,serif" font-size="14.00">createCheckpointLoop</text>
</g>
<!-- 22 -->
<g id="node5" class="node"><title>22</title>
<polygon fill="gold" stroke="black" stroke-width="2" points="2319,-299.067 2167,-299.067 2167,-263.067 2319,-263.067 2319,-299.067"/>
<text text-anchor="middle" x="2243" y="-277.367" font-family="Times,serif" font-size="14.00">liftThentosQuery</text>
</g>
<!-- 23 -->
<g id="node6" class="node"><title>23</title>
<polygon fill="goldenrod" stroke="black" stroke-width="2" points="950.5,-200.196 787.5,-200.196 787.5,-164.196 950.5,-164.196 950.5,-200.196"/>
<text text-anchor="middle" x="869" y="-178.496" font-family="Times,serif" font-size="14.00">makeThentosLabel</text>
</g>
<!-- 23&#45;&gt;1 -->
<g id="edge2" class="edge"><title>23&#45;&gt;1</title>
<path fill="none" stroke="black" stroke-width="1.69315" d="M908.084,-164.139C969.527,-137.325 1088.58,-85.3677 1155.43,-56.1941"/>
<polygon fill="black" stroke="black" stroke-width="1.69315" points="1157.14,-59.2685 1164.91,-52.0608 1154.34,-52.8528 1157.14,-59.2685"/>
</g>
<!-- 23&#45;&gt;15 -->
<g id="edge3" class="edge"><title>23&#45;&gt;15</title>
<path fill="none" stroke="black" stroke-width="1.69315" d="M949.297,-164.174C1006.13,-152.126 1082.03,-136.036 1138.83,-123.995"/>
<polygon fill="black" stroke="black" stroke-width="1.69315" points="1139.79,-127.369 1148.85,-121.872 1138.34,-120.522 1139.79,-127.369"/>
</g>
<!-- 36 -->
<g id="node18" class="node"><title>36</title>
<polygon fill="goldenrod" stroke="black" stroke-width="2" points="937.5,-124 800.5,-124 800.5,-88 937.5,-88 937.5,-124"/>
<text text-anchor="middle" x="869" y="-102.3" font-family="Times,serif" font-size="14.00">thentosDenied</text>
</g>
<!-- 23&#45;&gt;36 -->
<g id="edge4" class="edge"><title>23&#45;&gt;36</title>
<path fill="none" stroke="black" d="M869,-163.987C869,-155.185 869,-144.261 869,-134.34"/>
<polygon fill="black" stroke="black" points="872.5,-134.115 869,-124.115 865.5,-134.115 872.5,-134.115"/>
</g>
<!-- 24 -->
<g id="node7" class="node"><title>24</title>
<polygon fill="gold" stroke="black" stroke-width="2" points="500,-299.067 330,-299.067 330,-263.067 500,-263.067 500,-299.067"/>
<text text-anchor="middle" x="415" y="-277.367" font-family="Times,serif" font-size="14.00">makeThentosLabel1</text>
</g>
<!-- 24&#45;&gt;23 -->
<g id="edge5" class="edge"><title>24&#45;&gt;23</title>
<path fill="none" stroke="black" d="M450.281,-262.988C467.556,-255.493 488.916,-247.481 509,-243.391 567.602,-231.459 720.447,-251.645 778,-235.391 799.493,-229.321 821.275,-217.09 838.138,-205.994"/>
<polygon fill="black" stroke="black" points="840.17,-208.844 846.48,-200.333 836.24,-203.052 840.17,-208.844"/>
</g>
<!-- 25 -->
<g id="node8" class="node"><title>25</title>
<polygon fill="gold" stroke="black" stroke-width="2" points="186,-299.067 16,-299.067 16,-263.067 186,-263.067 186,-299.067"/>
<text text-anchor="middle" x="101" y="-277.367" font-family="Times,serif" font-size="14.00">makeThentosLabel2</text>
</g>
<!-- 25&#45;&gt;23 -->
<g id="edge6" class="edge"><title>25&#45;&gt;23</title>
<path fill="none" stroke="black" d="M135.811,-263.039C153.156,-255.455 174.712,-247.353 195,-243.391 258.583,-230.974 715.516,-252.499 778,-235.391 799.541,-229.494 821.325,-217.27 838.177,-206.134"/>
<polygon fill="black" stroke="black" points="840.223,-208.975 846.512,-200.449 836.278,-203.192 840.223,-208.975"/>
</g>
<!-- 26 -->
<g id="node9" class="node"><title>26</title>
<polygon fill="gold" stroke="black" stroke-width="2" points="1190,-299.067 1020,-299.067 1020,-263.067 1190,-263.067 1190,-299.067"/>
<text text-anchor="middle" x="1105" y="-277.367" font-family="Times,serif" font-size="14.00">makeThentosLabel3</text>
</g>
<!-- 26&#45;&gt;23 -->
<g id="edge7" class="edge"><title>26&#45;&gt;23</title>
<path fill="none" stroke="black" d="M1063.35,-262.972C1023.37,-246.56 962.892,-221.736 920.034,-204.144"/>
<polygon fill="black" stroke="black" points="921.209,-200.843 910.629,-200.283 918.551,-207.318 921.209,-200.843"/>
</g>
<!-- 27 -->
<g id="node10" class="node"><title>27</title>
<polygon fill="gold" stroke="black" stroke-width="2" points="876,-299.067 706,-299.067 706,-263.067 876,-263.067 876,-299.067"/>
<text text-anchor="middle" x="791" y="-277.367" font-family="Times,serif" font-size="14.00">makeThentosLabel4</text>
</g>
<!-- 27&#45;&gt;23 -->
<g id="edge8" class="edge"><title>27&#45;&gt;23</title>
<path fill="none" stroke="black" d="M804.945,-262.749C817.146,-247.596 835.02,-225.397 848.789,-208.296"/>
<polygon fill="black" stroke="black" points="851.63,-210.348 855.176,-200.364 846.178,-205.958 851.63,-210.348"/>
</g>
<!-- 28 -->
<g id="node11" class="node"><title>28</title>
<polygon fill="gold" stroke="black" stroke-width="2" points="688,-299.067 518,-299.067 518,-263.067 688,-263.067 688,-299.067"/>
<text text-anchor="middle" x="603" y="-277.367" font-family="Times,serif" font-size="14.00">makeThentosLabel5</text>
</g>
<!-- 28&#45;&gt;23 -->
<g id="edge9" class="edge"><title>28&#45;&gt;23</title>
<path fill="none" stroke="black" d="M639.755,-263.029C656.815,-255.828 677.58,-248.046 697,-243.391 732.179,-234.96 743.545,-246.413 778,-235.391 798.784,-228.743 820.046,-216.884 836.786,-206.149"/>
<polygon fill="black" stroke="black" points="839.17,-208.77 845.589,-200.341 835.315,-202.927 839.17,-208.77"/>
</g>
<!-- 30 -->
<g id="node12" class="node"><title>30</title>
<polygon fill="goldenrod" stroke="black" stroke-width="2" points="1451,-200.196 1281,-200.196 1281,-164.196 1451,-164.196 1451,-200.196"/>
<text text-anchor="middle" x="1366" y="-178.496" font-family="Times,serif" font-size="14.00">restrictThentosLabel</text>
</g>
<!-- 30&#45;&gt;1 -->
<g id="edge10" class="edge"><title>30&#45;&gt;1</title>
<path fill="none" stroke="black" stroke-width="1.69315" d="M1356.54,-164.015C1344.83,-143.905 1323.29,-110.495 1298,-88 1284.31,-75.8227 1267.36,-65.2141 1251.64,-56.753"/>
<polygon fill="black" stroke="black" stroke-width="1.69315" points="1253.04,-53.539 1242.56,-52.0237 1249.81,-59.7474 1253.04,-53.539"/>
</g>
<!-- 30&#45;&gt;15 -->
<g id="edge11" class="edge"><title>30&#45;&gt;15</title>
<path fill="none" stroke="black" stroke-width="1.69315" d="M1332.28,-164.174C1311.34,-153.607 1284.25,-139.932 1261.8,-128.605"/>
<polygon fill="black" stroke="black" stroke-width="1.69315" points="1263.33,-125.452 1252.82,-124.071 1260.17,-131.702 1263.33,-125.452"/>
</g>
<!-- 31 -->
<g id="node13" class="node"><title>31</title>
<polygon fill="gold" stroke="black" stroke-width="2" points="1531.5,-299.067 1358.5,-299.067 1358.5,-263.067 1531.5,-263.067 1531.5,-299.067"/>
<text text-anchor="middle" x="1445" y="-277.367" font-family="Times,serif" font-size="14.00">restrictThentosLabel&#39;</text>
</g>
<!-- 31&#45;&gt;30 -->
<g id="edge12" class="edge"><title>31&#45;&gt;30</title>
<path fill="none" stroke="chartreuse" d="M1430.88,-262.749C1418.52,-247.596 1400.42,-225.397 1386.47,-208.296"/>
<polygon fill="chartreuse" stroke="chartreuse" points="1389.03,-205.902 1380,-200.364 1383.61,-210.326 1389.03,-205.902"/>
</g>
<!-- 32 -->
<g id="node14" class="node"><title>32</title>
<polygon fill="gold" stroke="black" stroke-width="2" points="1001.5,-299.067 894.5,-299.067 894.5,-263.067 1001.5,-263.067 1001.5,-299.067"/>
<text text-anchor="middle" x="948" y="-277.367" font-family="Times,serif" font-size="14.00">returnDb</text>
</g>
<!-- 33 -->
<g id="node15" class="node"><title>33</title>
<polygon fill="gold" stroke="black" stroke-width="2" points="1881,-299.067 1727,-299.067 1727,-263.067 1881,-263.067 1881,-299.067"/>
<text text-anchor="middle" x="1804" y="-277.367" font-family="Times,serif" font-size="14.00">runThentosQuery</text>
</g>
<!-- 19 -->
<g id="node24" class="node"><title>19</title>
<polygon fill="bisque" stroke="black" stroke-width="2" points="2687,-200.196 2543,-200.196 2543,-164.196 2687,-164.196 2687,-200.196"/>
<text text-anchor="middle" x="2615" y="-178.496" font-family="Times,serif" font-size="14.00">checkClearance</text>
</g>
<!-- 33&#45;&gt;19 -->
<g id="edge13" class="edge"><title>33&#45;&gt;19</title>
<path fill="none" stroke="black" stroke-width="1.69315" d="M1835.69,-263.029C1851.52,-255.444 1871.26,-247.343 1890,-243.391 1959.7,-228.697 2462.63,-255.365 2531,-235.391 2551.02,-229.541 2570.96,-217.487 2586.39,-206.435"/>
<polygon fill="black" stroke="black" stroke-width="1.69315" points="2588.52,-209.213 2594.46,-200.444 2584.34,-203.591 2588.52,-209.213"/>
</g>
<!-- 34 -->
<g id="node16" class="node"><title>34</title>
<polygon fill="gold" stroke="black" stroke-width="2" points="1708.5,-299.067 1549.5,-299.067 1549.5,-263.067 1708.5,-263.067 1708.5,-299.067"/>
<text text-anchor="middle" x="1629" y="-277.367" font-family="Times,serif" font-size="14.00">runThentosUpdate</text>
</g>
<!-- 34&#45;&gt;19 -->
<g id="edge14" class="edge"><title>34&#45;&gt;19</title>
<path fill="none" stroke="black" stroke-width="1.69315" d="M1661.86,-263.006C1678.26,-255.415 1698.67,-247.316 1718,-243.391 1762.27,-234.402 2487.63,-248 2531,-235.391 2551.17,-229.527 2571.25,-217.347 2586.71,-206.227"/>
<polygon fill="black" stroke="black" stroke-width="1.69315" points="2588.87,-208.984 2594.8,-200.205 2584.69,-203.369 2588.87,-208.984"/>
</g>
<!-- 35 -->
<g id="node17" class="node"><title>35</title>
<polygon fill="gold" stroke="black" stroke-width="2" points="1340,-299.067 1208,-299.067 1208,-263.067 1340,-263.067 1340,-299.067"/>
<text text-anchor="middle" x="1274" y="-277.367" font-family="Times,serif" font-size="14.00">showDbError</text>
</g>
<!-- 35&#45;&gt;2 -->
<g id="edge15" class="edge"><title>35&#45;&gt;2</title>
<path fill="none" stroke="black" stroke-width="3.70805" d="M1259.7,-262.749C1247.18,-247.596 1228.85,-225.397 1214.73,-208.296"/>
<polygon fill="black" stroke="black" stroke-width="3.70805" points="1217.24,-205.846 1208.18,-200.364 1211.85,-210.304 1217.24,-205.846"/>
</g>
<!-- 36&#45;&gt;1 -->
<g id="edge16" class="edge"><title>36&#45;&gt;1</title>
<path fill="none" stroke="black" d="M937.601,-90.6655C999.72,-77.6853 1090.11,-58.7969 1147.99,-46.7044"/>
<polygon fill="black" stroke="black" points="1148.97,-50.0739 1158.05,-44.6024 1147.54,-43.2219 1148.97,-50.0739"/>
</g>
<!-- 37 -->
<g id="node19" class="node"><title>37</title>
<polygon fill="gold" stroke="black" stroke-width="2" points="769,-200.196 589,-200.196 589,-164.196 769,-164.196 769,-200.196"/>
<text text-anchor="middle" x="679" y="-178.496" font-family="Times,serif" font-size="14.00">thentosLabeledDenied</text>
</g>
<!-- 37&#45;&gt;36 -->
<g id="edge17" class="edge"><title>37&#45;&gt;36</title>
<path fill="none" stroke="black" d="M722.59,-164.174C750.249,-153.373 786.229,-139.322 815.599,-127.853"/>
<polygon fill="black" stroke="black" points="817.243,-130.969 825.284,-124.071 814.696,-124.448 817.243,-130.969"/>
</g>
<!-- 38 -->
<g id="node20" class="node"><title>38</title>
<polygon fill="gold" stroke="black" stroke-width="2" points="1645,-200.196 1469,-200.196 1469,-164.196 1645,-164.196 1645,-200.196"/>
<text text-anchor="middle" x="1557" y="-178.496" font-family="Times,serif" font-size="14.00">thentosLabeledPublic</text>
</g>
<!-- 39 -->
<g id="node21" class="node"><title>39</title>
<polygon fill="goldenrod" stroke="black" stroke-width="2" points="1555,-124 1423,-124 1423,-88 1555,-88 1555,-124"/>
<text text-anchor="middle" x="1489" y="-102.3" font-family="Times,serif" font-size="14.00">thentosPublic</text>
</g>
<!-- 38&#45;&gt;39 -->
<g id="edge18" class="edge"><title>38&#45;&gt;39</title>
<path fill="none" stroke="chartreuse" d="M1541.23,-163.987C1532.39,-154.342 1521.21,-142.15 1511.47,-131.52"/>
<polygon fill="chartreuse" stroke="chartreuse" points="1514.02,-129.123 1504.69,-124.115 1508.86,-133.852 1514.02,-129.123"/>
</g>
<!-- 39&#45;&gt;1 -->
<g id="edge19" class="edge"><title>39&#45;&gt;1</title>
<path fill="none" stroke="black" d="M1422.9,-88.7646C1373.42,-76.6111 1306.48,-60.1716 1259.71,-48.6825"/>
<polygon fill="black" stroke="black" points="1260.3,-45.2233 1249.75,-46.237 1258.63,-52.0213 1260.3,-45.2233"/>
</g>
<!-- 40 -->
<g id="node22" class="node"><title>40</title>
<polygon fill="gold" stroke="black" stroke-width="2" points="311.5,-299.067 204.5,-299.067 204.5,-263.067 311.5,-263.067 311.5,-299.067"/>
<text text-anchor="middle" x="258" y="-277.367" font-family="Times,serif" font-size="14.00">throwDb</text>
</g>
<!-- 41 -->
<g id="node23" class="node"><title>41</title>
<polygon fill="khaki" stroke="black" stroke-dasharray="1,5" points="2144.86,-267.053 2144.86,-295.082 2074.06,-314.902 1973.94,-314.902 1903.14,-295.082 1903.14,-267.053 1973.94,-247.233 2074.06,-247.233 2144.86,-267.053"/>
<polygon fill="none" stroke="black" stroke-dasharray="1,5" points="2148.86,-264 2148.86,-298.135 2074.61,-318.921 1973.39,-318.921 1899.14,-298.135 1899.14,-264 1973.39,-243.214 2074.61,-243.214 2148.86,-264"/>
<text text-anchor="middle" x="2024" y="-284.867" font-family="Times,serif" font-size="14.00">Unknown Module</text>
<text text-anchor="middle" x="2024" y="-269.867" font-family="Times,serif" font-size="14.00">Class: SafeCopy</text>
</g>
<!-- 21 -->
<g id="node25" class="node"><title>21</title>
<polygon fill="cyan" stroke="black" stroke-width="2" points="3063.19,-172.92 3063.19,-191.471 2958.22,-204.589 2809.78,-204.589 2704.81,-191.471 2704.81,-172.92 2809.78,-159.803 2958.22,-159.803 3063.19,-172.92"/>
<text text-anchor="middle" x="2884" y="-178.496" font-family="Times,serif" font-size="14.00">Class: SafeCopy, Data: DbError</text>
</g>
<!-- 41&#45;&gt;21 -->
<g id="edge20" class="edge"><title>41&#45;&gt;21</title>
<path fill="none" stroke="navy" stroke-width="1.69315" d="M2110.19,-253.054C2125.95,-249.097 2142.36,-245.612 2158,-243.391 2276.38,-226.586 2577.65,-252.413 2696,-235.391 2739.25,-229.171 2786.65,-215.966 2823.04,-204.395"/>
</g>
<!-- 19&#45;&gt;2 -->
<g id="edge1" class="edge"><title>19&#45;&gt;2</title>
<path fill="none" stroke="black" d="M2594.68,-200.457C2576.96,-214.867 2549.81,-233.489 2522,-239.391 2505.14,-242.969 1297.86,-242.969 1281,-239.391 1258.26,-234.566 1236.42,-220.158 1220.3,-207.011"/>
<polygon fill="black" stroke="black" points="1222.31,-204.123 1212.43,-200.309 1217.77,-209.455 1222.31,-204.123"/>
</g>
</g>
</svg>
