<?xml version="1.0" encoding="UTF-8" standalone="no"?>
<!DOCTYPE svg PUBLIC "-//W3C//DTD SVG 1.1//EN"
 "http://www.w3.org/Graphics/SVG/1.1/DTD/svg11.dtd">
<!-- Generated by graphviz version 2.38.0 (20140413.2041)
 -->
<!-- Title: Diagram of: Thentos.Backend.Api.Proxy Pages: 1 -->
<svg width="546pt" height="207pt"
 viewBox="0.00 0.00 545.50 207.00" xmlns="http://www.w3.org/2000/svg" xmlns:xlink="http://www.w3.org/1999/xlink">
<g id="graph0" class="graph" transform="scale(1 1) rotate(0) translate(4 203)">
<title>Diagram of: Thentos.Backend.Api.Proxy</title>
<polygon fill="white" stroke="none" points="-4,4 -4,-203 541.5,-203 541.5,4 -4,4"/>
<g id="clust1" class="cluster"><title>cluster_Data_RqMod</title>
<path fill="papayawhip" stroke="black" d="M148.5,-8C148.5,-8 242.5,-8 242.5,-8 248.5,-8 254.5,-14 254.5,-20 254.5,-20 254.5,-71 254.5,-71 254.5,-77 248.5,-83 242.5,-83 242.5,-83 148.5,-83 148.5,-83 142.5,-83 136.5,-77 136.5,-71 136.5,-71 136.5,-20 136.5,-20 136.5,-14 142.5,-8 148.5,-8"/>
<text text-anchor="middle" x="195.5" y="-67.8" font-family="Times,serif" font-size="14.00">Data: RqMod</text>
</g>
<!-- 1 -->
<g id="node1" class="node"><title>1</title>
<polygon fill="cyan" stroke="black" stroke-width="2" points="246,-52 149,-52 145,-48 145,-16 242,-16 246,-20 246,-52"/>
<polyline fill="none" stroke="black" stroke-width="2" points="242,-48 145,-48 "/>
<polyline fill="none" stroke="black" stroke-width="2" points="242,-48 242,-16 "/>
<polyline fill="none" stroke="black" stroke-width="2" points="242,-48 246,-52 "/>
<text text-anchor="middle" x="195.5" y="-30.3" font-family="Times,serif" font-size="14.00">RqMod</text>
</g>
<!-- 2 -->
<g id="node2" class="node"><title>2</title>
<polygon fill="cyan" stroke="black" stroke-width="2" points="119,-127 0,-127 0,-91 119,-91 119,-127"/>
<text text-anchor="middle" x="59.5" y="-105.3" font-family="Times,serif" font-size="14.00">catchProxy</text>
</g>
<!-- 3 -->
<g id="node3" class="node"><title>3</title>
<polygon fill="cyan" stroke="black" stroke-width="2" points="437,-52 264,-52 264,-16 437,-16 437,-52"/>
<text text-anchor="middle" x="350.5" y="-30.3" font-family="Times,serif" font-size="14.00">clearThentosHeaders</text>
</g>
<!-- 4 -->
<g id="node4" class="node"><title>4</title>
<polygon fill="bisque" stroke="black" stroke-width="2" points="254,-127 137,-127 137,-91 254,-91 254,-127"/>
<text text-anchor="middle" x="195.5" y="-105.3" font-family="Times,serif" font-size="14.00">getRqMod</text>
</g>
<!-- 4&#45;&gt;1 -->
<g id="edge1" class="edge"><title>4&#45;&gt;1</title>
<path fill="none" stroke="black" d="M195.5,-90.7C195.5,-82.2452 195.5,-71.8688 195.5,-62.3732"/>
<polygon fill="black" stroke="black" points="199,-62.1758 195.5,-52.1758 192,-62.1758 199,-62.1758"/>
</g>
<!-- 5 -->
<g id="node5" class="node"><title>5</title>
<polygon fill="bisque" stroke="black" stroke-width="2" points="393,-127 272,-127 272,-91 393,-91 393,-127"/>
<text text-anchor="middle" x="332.5" y="-105.3" font-family="Times,serif" font-size="14.00">prepareReq</text>
</g>
<!-- 5&#45;&gt;1 -->
<g id="edge2" class="edge"><title>5&#45;&gt;1</title>
<path fill="none" stroke="black" d="M271.939,-91.0944C265.916,-88.6755 260.001,-85.9808 254.5,-83 242.408,-76.4477 230.388,-67.2815 220.385,-58.713"/>
<polygon fill="black" stroke="black" points="222.64,-56.0351 212.831,-52.0306 218.002,-61.278 222.64,-56.0351"/>
</g>
<!-- 5&#45;&gt;3 -->
<g id="edge3" class="edge"><title>5&#45;&gt;3</title>
<path fill="none" stroke="black" d="M336.766,-90.7C338.873,-82.1543 341.464,-71.6455 343.826,-62.0672"/>
<polygon fill="black" stroke="black" points="347.269,-62.7229 346.265,-52.1758 340.473,-61.0471 347.269,-62.7229"/>
</g>
<!-- 6 -->
<g id="node6" class="node"><title>6</title>
<polygon fill="cyan" stroke="black" stroke-width="2" points="537.5,-127 411.5,-127 411.5,-91 537.5,-91 537.5,-127"/>
<text text-anchor="middle" x="474.5" y="-105.3" font-family="Times,serif" font-size="14.00">prepareResp</text>
</g>
<!-- 7 -->
<g id="node7" class="node"><title>7</title>
<polygon fill="gold" stroke="black" stroke-width="2" points="328,-199 199,-199 199,-163 328,-163 328,-199"/>
<text text-anchor="middle" x="263.5" y="-177.3" font-family="Times,serif" font-size="14.00">serviceProxy</text>
</g>
<!-- 7&#45;&gt;2 -->
<g id="edge4" class="edge"><title>7&#45;&gt;2</title>
<path fill="none" stroke="black" d="M213.857,-162.966C185.23,-153.142 149.053,-140.729 118.92,-130.389"/>
<polygon fill="black" stroke="black" points="119.96,-127.046 109.366,-127.111 117.688,-133.667 119.96,-127.046"/>
</g>
<!-- 7&#45;&gt;4 -->
<g id="edge5" class="edge"><title>7&#45;&gt;4</title>
<path fill="none" stroke="black" d="M246.691,-162.697C238.374,-154.135 228.195,-143.656 219.11,-134.304"/>
<polygon fill="black" stroke="black" points="221.594,-131.838 212.116,-127.104 216.573,-136.716 221.594,-131.838"/>
</g>
<!-- 7&#45;&gt;5 -->
<g id="edge6" class="edge"><title>7&#45;&gt;5</title>
<path fill="none" stroke="black" d="M280.556,-162.697C288.995,-154.135 299.325,-143.656 308.543,-134.304"/>
<polygon fill="black" stroke="black" points="311.113,-136.683 315.64,-127.104 306.127,-131.769 311.113,-136.683"/>
</g>
<!-- 7&#45;&gt;6 -->
<g id="edge7" class="edge"><title>7&#45;&gt;6</title>
<path fill="none" stroke="black" d="M314.847,-162.966C344.456,-153.142 381.874,-140.729 413.041,-130.389"/>
<polygon fill="black" stroke="black" points="414.534,-133.582 422.923,-127.111 412.33,-126.938 414.534,-133.582"/>
</g>
</g>
</svg>
